solid stl file generated from DOUG
 facet normal -0.499997 0.000000 -0.866027
  outer loop
   vertex -260.582184 173.372284 201.750702
   vertex -260.582184 172.871109 201.750702
   vertex -260.799194 173.372284 201.875992
  endloop
 endfacet
 facet normal -0.500042 -0.000026 -0.866001
  outer loop
   vertex -260.799194 173.372284 201.875992
   vertex -260.582184 172.871109 201.750702
   vertex -260.799194 172.871109 201.876007
  endloop
 endfacet
 facet normal -1.000000 0.000000 -0.000000
  outer loop
   vertex -260.799194 172.871109 201.876007
   vertex -260.799194 173.372284 202.126572
   vertex -260.799194 173.372284 201.875992
  endloop
 endfacet
 facet normal -1.000000 -0.000000 -0.000000
  outer loop
   vertex -260.799194 172.871109 202.126587
   vertex -260.799194 173.372284 202.126572
   vertex -260.799194 172.871109 201.876007
  endloop
 endfacet
 facet normal -0.500042 0.000026 0.866001
  outer loop
   vertex -260.582184 173.372284 202.251877
   vertex -260.799194 173.372284 202.126572
   vertex -260.799194 172.871109 202.126587
  endloop
 endfacet
 facet normal -0.499997 -0.000000 0.866027
  outer loop
   vertex -260.799194 172.871109 202.126587
   vertex -260.582184 172.871109 202.251877
   vertex -260.582184 173.372284 202.251877
  endloop
 endfacet
 facet normal 0.499997 -0.000000 0.866027
  outer loop
   vertex -260.582184 173.372284 202.251877
   vertex -260.582184 172.871109 202.251877
   vertex -260.365173 173.372284 202.126587
  endloop
 endfacet
 facet normal 0.499997 -0.000000 0.866027
  outer loop
   vertex -260.365173 173.372284 202.126587
   vertex -260.582184 172.871109 202.251877
   vertex -260.365173 172.871109 202.126587
  endloop
 endfacet
 facet normal 1.000000 0.000000 -0.000000
  outer loop
   vertex -260.365173 172.871109 202.126587
   vertex -260.365173 173.372269 201.875992
   vertex -260.365173 173.372284 202.126587
  endloop
 endfacet
 facet normal 1.000000 -0.000000 -0.000000
  outer loop
   vertex -260.365173 172.871109 201.876007
   vertex -260.365173 173.372269 201.875992
   vertex -260.365173 172.871109 202.126587
  endloop
 endfacet
 facet normal 0.499997 -0.000026 -0.866027
  outer loop
   vertex -260.582184 173.372284 201.750702
   vertex -260.365173 173.372269 201.875992
   vertex -260.365173 172.871109 201.876007
  endloop
 endfacet
 facet normal 0.500042 -0.000000 -0.866001
  outer loop
   vertex -260.365173 172.871109 201.876007
   vertex -260.582184 172.871109 201.750702
   vertex -260.582184 173.372284 201.750702
  endloop
 endfacet
 facet normal -0.499997 0.000026 0.866027
  outer loop
   vertex -260.582184 172.870728 180.156586
   vertex -260.582184 173.371902 180.156570
   vertex -260.799194 172.870728 180.031296
  endloop
 endfacet
 facet normal -0.499997 0.000026 0.866027
  outer loop
   vertex -260.799194 172.870728 180.031296
   vertex -260.582184 173.371902 180.156570
   vertex -260.799194 173.371902 180.031281
  endloop
 endfacet
 facet normal -1.000000 0.000000 0.000000
  outer loop
   vertex -260.799194 173.371902 180.031281
   vertex -260.799194 172.870728 179.780701
   vertex -260.799194 172.870728 180.031296
  endloop
 endfacet
 facet normal -1.000000 -0.000000 -0.000000
  outer loop
   vertex -260.799194 173.371902 179.780701
   vertex -260.799194 172.870728 179.780701
   vertex -260.799194 173.371902 180.031281
  endloop
 endfacet
 facet normal -0.499997 0.000000 -0.866027
  outer loop
   vertex -260.582184 172.870712 179.655411
   vertex -260.799194 172.870728 179.780701
   vertex -260.799194 173.371902 179.780701
  endloop
 endfacet
 facet normal -0.500042 -0.000026 -0.866001
  outer loop
   vertex -260.799194 173.371902 179.780701
   vertex -260.582184 173.371887 179.655396
   vertex -260.582184 172.870712 179.655411
  endloop
 endfacet
 facet normal 0.499997 -0.000026 -0.866027
  outer loop
   vertex -260.582184 172.870712 179.655411
   vertex -260.582184 173.371887 179.655396
   vertex -260.365173 172.870712 179.780701
  endloop
 endfacet
 facet normal 0.500042 -0.000000 -0.866001
  outer loop
   vertex -260.365173 172.870712 179.780701
   vertex -260.582184 173.371887 179.655396
   vertex -260.365173 173.371887 179.780701
  endloop
 endfacet
 facet normal 1.000000 0.000000 0.000000
  outer loop
   vertex -260.365173 173.371887 179.780701
   vertex -260.365173 172.870728 180.031296
   vertex -260.365173 172.870712 179.780701
  endloop
 endfacet
 facet normal 1.000000 -0.000000 -0.000000
  outer loop
   vertex -260.365173 173.371887 180.031281
   vertex -260.365173 172.870728 180.031296
   vertex -260.365173 173.371887 179.780701
  endloop
 endfacet
 facet normal 0.499997 0.000026 0.866027
  outer loop
   vertex -260.582184 172.870728 180.156586
   vertex -260.365173 172.870728 180.031296
   vertex -260.365173 173.371887 180.031281
  endloop
 endfacet
 facet normal 0.499997 0.000026 0.866027
  outer loop
   vertex -260.365173 173.371887 180.031281
   vertex -260.582184 173.371902 180.156570
   vertex -260.582184 172.870728 180.156586
  endloop
 endfacet
 facet normal 0.000070 1.000000 0.000000
  outer loop
   vertex -260.799194 173.371902 179.780701
   vertex -260.799194 173.371902 180.031281
   vertex -260.582184 173.371887 179.905991
  endloop
 endfacet
 facet normal 0.000035 1.000000 -0.000061
  outer loop
   vertex -260.582184 173.371887 179.905991
   vertex -260.799194 173.371902 180.031281
   vertex -260.582184 173.371902 180.156570
  endloop
 endfacet
 facet normal 0.000035 1.000000 -0.000061
  outer loop
   vertex -260.582184 173.371902 180.156570
   vertex -260.365173 173.371887 180.031281
   vertex -260.582184 173.371887 179.905991
  endloop
 endfacet
 facet normal 0.000070 1.000000 -0.000000
  outer loop
   vertex -260.365173 173.372269 201.875992
   vertex -260.582184 173.372284 201.750702
   vertex -260.582184 173.372284 202.001282
  endloop
 endfacet
 facet normal -0.000000 1.000000 -0.000000
  outer loop
   vertex -260.582184 173.372284 202.001282
   vertex -260.582184 173.372284 201.750702
   vertex -260.799194 173.372284 201.875992
  endloop
 endfacet
 facet normal 0.000000 1.000000 0.000000
  outer loop
   vertex -260.799194 173.372284 201.875992
   vertex -260.799194 173.372284 202.126572
   vertex -260.582184 173.372284 202.001282
  endloop
 endfacet
 facet normal 0.000000 1.000000 0.000000
  outer loop
   vertex -260.799194 173.372284 202.126572
   vertex -260.582184 173.372284 202.251877
   vertex -260.582184 173.372284 202.001282
  endloop
 endfacet
 facet normal -0.000000 1.000000 -0.000000
  outer loop
   vertex -260.582184 173.372284 202.001282
   vertex -260.582184 173.372284 202.251877
   vertex -260.365173 173.372284 202.126587
  endloop
 endfacet
 facet normal 0.000035 1.000000 -0.000061
  outer loop
   vertex -260.365173 173.372284 202.126587
   vertex -260.365173 173.372269 201.875992
   vertex -260.582184 173.372284 202.001282
  endloop
 endfacet
 facet normal 0.000000 1.000000 -0.000000
  outer loop
   vertex -260.365173 173.371887 180.031281
   vertex -260.365173 173.371887 179.780701
   vertex -260.582184 173.371887 179.905991
  endloop
 endfacet
 facet normal 0.000000 1.000000 -0.000000
  outer loop
   vertex -260.582184 173.371887 179.905991
   vertex -260.365173 173.371887 179.780701
   vertex -260.582184 173.371887 179.655396
  endloop
 endfacet
 facet normal 0.000070 1.000000 0.000000
  outer loop
   vertex -260.582184 173.371887 179.655396
   vertex -260.799194 173.371902 179.780701
   vertex -260.582184 173.371887 179.905991
  endloop
 endfacet
 facet normal 0.000000 1.000000 0.000000
  outer loop
   vertex -261.207336 171.337112 181.362640
   vertex -259.957123 171.337112 181.362640
   vertex -261.207336 171.337112 178.371231
  endloop
 endfacet
 facet normal -0.000000 1.000000 0.000000
  outer loop
   vertex -261.207336 171.337112 178.371231
   vertex -259.957123 171.337112 181.362640
   vertex -259.957123 171.337112 178.371231
  endloop
 endfacet
 facet normal 0.000000 0.000000 -1.000000
  outer loop
   vertex -259.957123 171.337112 178.371231
   vertex -261.207336 169.948532 178.371231
   vertex -261.207336 171.337112 178.371231
  endloop
 endfacet
 facet normal -0.000000 -0.000000 -1.000000
  outer loop
   vertex -259.957123 169.948532 178.371231
   vertex -261.207336 169.948532 178.371231
   vertex -259.957123 171.337112 178.371231
  endloop
 endfacet
 facet normal 0.000000 -1.000000 0.000000
  outer loop
   vertex -259.957123 169.948532 181.362640
   vertex -261.207336 169.948532 178.371231
   vertex -259.957123 169.948532 178.371231
  endloop
 endfacet
 facet normal 1.000000 0.000000 -0.000000
  outer loop
   vertex -259.957123 169.948532 178.371231
   vertex -259.957123 171.337112 181.362640
   vertex -259.957123 169.948532 181.362640
  endloop
 endfacet
 facet normal 0.000000 0.000000 1.000000
  outer loop
   vertex -259.957123 169.948532 181.362640
   vertex -259.957123 171.337112 181.362640
   vertex -261.207336 169.948532 181.362640
  endloop
 endfacet
 facet normal 0.000000 -0.000000 1.000000
  outer loop
   vertex -261.207336 169.948532 181.362640
   vertex -259.957123 171.337112 181.362640
   vertex -261.207336 171.337112 181.362640
  endloop
 endfacet
 facet normal -1.000000 0.000000 0.000000
  outer loop
   vertex -261.207336 171.337112 181.362640
   vertex -261.207336 169.948532 178.371231
   vertex -261.207336 169.948532 181.362640
  endloop
 endfacet
 facet normal -1.000000 -0.000000 -0.000000
  outer loop
   vertex -261.207336 171.337112 178.371231
   vertex -261.207336 169.948532 178.371231
   vertex -261.207336 171.337112 181.362640
  endloop
 endfacet
 facet normal 0.000000 0.000000 1.000000
  outer loop
   vertex -261.207336 169.948914 203.536133
   vertex -259.957123 169.948914 203.536133
   vertex -261.207336 171.337494 203.536133
  endloop
 endfacet
 facet normal -0.000000 -0.000000 1.000000
  outer loop
   vertex -261.207336 171.337494 203.536133
   vertex -259.957123 169.948914 203.536133
   vertex -259.957123 171.337494 203.536133
  endloop
 endfacet
 facet normal 0.000000 1.000000 0.000000
  outer loop
   vertex -259.957123 171.337494 203.536133
   vertex -261.207336 171.337494 200.544739
   vertex -261.207336 171.337494 203.536133
  endloop
 endfacet
 facet normal -0.000000 1.000000 -0.000000
  outer loop
   vertex -259.957123 171.337494 200.544739
   vertex -261.207336 171.337494 200.544739
   vertex -259.957123 171.337494 203.536133
  endloop
 endfacet
 facet normal 0.000000 0.000000 -1.000000
  outer loop
   vertex -259.957123 169.948914 200.544739
   vertex -261.207336 171.337494 200.544739
   vertex -259.957123 171.337494 200.544739
  endloop
 endfacet
 facet normal 1.000000 -0.000000 -0.000000
  outer loop
   vertex -259.957123 171.337494 200.544739
   vertex -259.957123 169.948914 203.536133
   vertex -259.957123 169.948914 200.544739
  endloop
 endfacet
 facet normal 0.000000 -1.000000 -0.000000
  outer loop
   vertex -259.957123 169.948914 200.544739
   vertex -259.957123 169.948914 203.536133
   vertex -261.207336 169.948914 200.544739
  endloop
 endfacet
 facet normal -0.000000 -1.000000 -0.000000
  outer loop
   vertex -261.207336 169.948914 200.544739
   vertex -259.957123 169.948914 203.536133
   vertex -261.207336 169.948914 203.536133
  endloop
 endfacet
 facet normal -1.000000 0.000000 0.000000
  outer loop
   vertex -261.207336 169.948914 203.536133
   vertex -261.207336 171.337494 200.544739
   vertex -261.207336 169.948914 200.544739
  endloop
 endfacet
 facet normal -1.000000 -0.000000 0.000000
  outer loop
   vertex -261.207336 171.337494 203.536133
   vertex -261.207336 171.337494 200.544739
   vertex -261.207336 169.948914 203.536133
  endloop
 endfacet
 facet normal 1.000000 0.000000 0.000000
  outer loop
   vertex -259.957123 171.337494 200.544739
   vertex -259.957123 171.337494 203.536133
   vertex -259.957123 169.948914 203.536133
  endloop
 endfacet
 facet normal 1.000000 0.000000 0.000000
  outer loop
   vertex -259.957123 171.337112 178.371231
   vertex -259.957123 171.337112 181.362640
   vertex -259.957123 169.948532 178.371231
  endloop
 endfacet
 facet normal 0.000000 0.000000 -1.000000
  outer loop
   vertex -259.957123 169.948914 200.544739
   vertex -261.207336 169.948914 200.544739
   vertex -261.207336 171.337494 200.544739
  endloop
 endfacet
 facet normal 0.000000 -1.000000 0.000000
  outer loop
   vertex -259.957123 169.948532 181.362640
   vertex -261.207336 169.948532 181.362640
   vertex -261.207336 169.948532 178.371231
  endloop
 endfacet
 facet normal 0.791921 0.610624 -0.000008
  outer loop
   vertex -259.814728 174.166473 200.014557
   vertex -259.750641 174.083374 201.173279
   vertex -259.750641 174.083359 200.014557
  endloop
 endfacet
 facet normal 1.000000 -0.000036 0.000000
  outer loop
   vertex -259.750641 174.083359 200.014557
   vertex -259.750641 174.083374 201.173279
   vertex -259.750671 173.241745 201.173294
  endloop
 endfacet
 facet normal -1.000000 0.000036 -0.000000
  outer loop
   vertex -261.413696 173.241425 180.733994
   vertex -261.413666 174.083069 181.892700
   vertex -261.413666 174.083054 180.733978
  endloop
 endfacet
 facet normal -0.792061 0.610441 -0.000008
  outer loop
   vertex -261.413666 174.083054 180.733978
   vertex -261.413666 174.083069 181.892700
   vertex -261.349609 174.166183 181.892685
  endloop
 endfacet
 facet normal 0.000000 1.000000 -0.000017
  outer loop
   vertex -259.797180 174.106979 181.145126
   vertex -259.906799 174.106979 181.145126
   vertex -259.906799 174.107315 200.762131
  endloop
 endfacet
 facet normal -0.804665 0.593729 -0.000010
  outer loop
   vertex -259.906799 174.107315 200.762131
   vertex -259.906799 174.106979 181.145126
   vertex -259.993042 173.990433 200.762131
  endloop
 endfacet
 facet normal 0.000000 1.000000 -0.000013
  outer loop
   vertex -261.190643 174.166519 201.173264
   vertex -261.349609 174.166504 200.014557
   vertex -261.349609 174.166519 201.173264
  endloop
 endfacet
 facet normal -0.792061 0.610441 -0.000008
  outer loop
   vertex -261.349609 174.166519 201.173264
   vertex -261.349609 174.166504 200.014557
   vertex -261.413666 174.083389 200.014557
  endloop
 endfacet
 facet normal -0.792061 0.610441 -0.000008
  outer loop
   vertex -261.413666 174.083389 200.014557
   vertex -261.413666 174.083405 201.173279
   vertex -261.349609 174.166519 201.173264
  endloop
 endfacet
 facet normal 0.000000 0.000000 -1.000000
  outer loop
   vertex -259.750641 174.083023 180.733978
   vertex -259.988403 174.067444 180.733978
   vertex -259.814728 174.166138 180.733978
  endloop
 endfacet
 facet normal -0.000000 -0.000000 -1.000000
  outer loop
   vertex -259.814728 174.166138 180.733978
   vertex -259.988403 174.067444 180.733978
   vertex -259.973694 174.166138 180.733978
  endloop
 endfacet
 facet normal 0.000000 1.000000 -0.000013
  outer loop
   vertex -259.973694 174.166138 180.733978
   vertex -259.814728 174.166153 181.892700
   vertex -259.814728 174.166138 180.733978
  endloop
 endfacet
 facet normal -0.358751 0.933433 -0.000016
  outer loop
   vertex -261.367157 173.325394 181.145142
   vertex -261.367157 173.325729 200.762131
   vertex -261.333649 173.338272 181.145142
  endloop
 endfacet
 facet normal -0.359121 0.933291 -0.000017
  outer loop
   vertex -261.333649 173.338272 181.145142
   vertex -261.367157 173.325729 200.762131
   vertex -261.333649 173.338623 200.762131
  endloop
 endfacet
 facet normal -1.000000 -0.000000 0.000000
  outer loop
   vertex -261.333649 173.338623 200.762131
   vertex -261.333649 173.952148 200.762131
   vertex -261.333649 173.338272 181.145142
  endloop
 endfacet
 facet normal 0.804702 0.593679 -0.000010
  outer loop
   vertex -261.171295 173.990112 181.145126
   vertex -261.257538 174.107010 181.145126
   vertex -261.257538 174.107346 200.762131
  endloop
 endfacet
 facet normal -0.000000 1.000000 -0.000017
  outer loop
   vertex -261.257538 174.107346 200.762131
   vertex -261.257538 174.107010 181.145126
   vertex -261.367157 174.107010 181.145126
  endloop
 endfacet
 facet normal 0.000000 1.000000 -0.000017
  outer loop
   vertex -261.367157 174.107010 181.145126
   vertex -261.367157 174.107346 200.762131
   vertex -261.257538 174.107346 200.762131
  endloop
 endfacet
 facet normal 0.000000 1.000000 0.000000
  outer loop
   vertex -260.332184 172.276108 179.242599
   vertex -260.832184 172.276108 179.242599
   vertex -260.332184 172.276108 179.592590
  endloop
 endfacet
 facet normal -0.000000 -1.000000 -0.000000
  outer loop
   vertex -260.332184 172.276108 179.592590
   vertex -260.832184 172.276108 179.242599
   vertex -260.332184 172.276108 179.242599
  endloop
 endfacet
 facet normal 1.000000 0.000000 0.000000
  outer loop
   vertex -260.332184 172.276108 179.242599
   vertex -260.332184 172.526108 179.175598
   vertex -260.332184 172.276108 179.592590
  endloop
 endfacet
 facet normal -1.000000 0.000036 -0.000000
  outer loop
   vertex -261.413696 173.241425 180.733994
   vertex -261.413696 173.241440 181.892715
   vertex -261.413666 174.083069 181.892700
  endloop
 endfacet
 facet normal 0.000001 0.000018 1.000000
  outer loop
   vertex -261.413666 174.083069 181.892700
   vertex -261.413696 173.241440 181.892715
   vertex -261.175934 174.067490 181.892700
  endloop
 endfacet
 facet normal 0.000011 0.000175 1.000000
  outer loop
   vertex -261.175934 174.067490 181.892700
   vertex -261.349609 174.166183 181.892685
   vertex -261.413666 174.083069 181.892700
  endloop
 endfacet
 facet normal -0.000000 0.000155 1.000000
  outer loop
   vertex -261.190643 174.166183 181.892685
   vertex -261.349609 174.166183 181.892685
   vertex -261.175934 174.067490 181.892700
  endloop
 endfacet
 facet normal 1.000000 -0.000036 0.000000
  outer loop
   vertex -259.750671 173.241745 201.173294
   vertex -259.750671 173.241730 200.014572
   vertex -259.750641 174.083359 200.014557
  endloop
 endfacet
 facet normal 0.000001 -0.000018 -1.000000
  outer loop
   vertex -259.750641 174.083359 200.014557
   vertex -259.750671 173.241730 200.014572
   vertex -259.988403 174.067780 200.014557
  endloop
 endfacet
 facet normal 0.000000 -0.000000 -1.000000
  outer loop
   vertex -259.988403 174.067780 200.014557
   vertex -259.814728 174.166473 200.014557
   vertex -259.750641 174.083359 200.014557
  endloop
 endfacet
 facet normal -0.000000 -0.000000 -1.000000
  outer loop
   vertex -259.973694 174.166473 200.014557
   vertex -259.814728 174.166473 200.014557
   vertex -259.988403 174.067780 200.014557
  endloop
 endfacet
 facet normal 0.804702 0.593679 -0.000010
  outer loop
   vertex -261.257538 174.107346 200.762131
   vertex -261.171295 173.990448 200.762131
   vertex -261.171295 173.990112 181.145126
  endloop
 endfacet
 facet normal 0.000013 1.000000 -0.000017
  outer loop
   vertex -261.171295 173.990112 181.145126
   vertex -261.171295 173.990448 200.762131
   vertex -259.993042 173.990433 200.762131
  endloop
 endfacet
 facet normal 0.000013 1.000000 -0.000017
  outer loop
   vertex -259.993042 173.990433 200.762131
   vertex -259.993042 173.990097 181.145126
   vertex -261.171295 173.990112 181.145126
  endloop
 endfacet
 facet normal -0.804665 0.593729 -0.000010
  outer loop
   vertex -259.906799 174.106979 181.145126
   vertex -259.993042 173.990097 181.145126
   vertex -259.993042 173.990433 200.762131
  endloop
 endfacet
 facet normal -1.000000 0.000000 0.000000
  outer loop
   vertex -261.367157 174.107346 200.762131
   vertex -261.367157 174.107010 181.145126
   vertex -261.367157 173.965027 200.762131
  endloop
 endfacet
 facet normal -1.000000 -0.000000 -0.000000
  outer loop
   vertex -261.367157 173.965027 200.762131
   vertex -261.367157 174.107010 181.145126
   vertex -261.367157 173.964691 181.145126
  endloop
 endfacet
 facet normal -0.358751 -0.933433 0.000016
  outer loop
   vertex -261.367157 173.964691 181.145126
   vertex -261.333649 173.952148 200.762131
   vertex -261.367157 173.965027 200.762131
  endloop
 endfacet
 facet normal -0.359121 -0.933291 0.000017
  outer loop
   vertex -261.333649 173.951797 181.145126
   vertex -261.333649 173.952148 200.762131
   vertex -261.367157 173.964691 181.145126
  endloop
 endfacet
 facet normal -1.000000 0.000000 0.000000
  outer loop
   vertex -261.333649 173.338272 181.145142
   vertex -261.333649 173.952148 200.762131
   vertex -261.333649 173.951797 181.145126
  endloop
 endfacet
 facet normal -1.000000 -0.000000 0.000000
  outer loop
   vertex -260.832214 171.776108 178.742599
   vertex -260.832214 171.843079 178.492599
   vertex -260.832214 171.276093 177.892609
  endloop
 endfacet
 facet normal -1.000000 -0.000000 -0.000000
  outer loop
   vertex -260.832214 171.276093 177.892609
   vertex -260.832214 171.843079 178.492599
   vertex -260.832214 172.026093 178.309586
  endloop
 endfacet
 facet normal -1.000000 0.000031 -0.000055
  outer loop
   vertex -260.832214 172.026093 178.309586
   vertex -260.832184 172.276093 177.892593
   vertex -260.832214 171.276093 177.892609
  endloop
 endfacet
 facet normal -1.000000 0.000122 -0.000000
  outer loop
   vertex -260.832184 172.276093 178.242599
   vertex -260.832184 172.276093 177.892593
   vertex -260.832214 172.026093 178.309586
  endloop
 endfacet
 facet normal 0.000000 1.000000 0.000000
  outer loop
   vertex -260.582184 172.276093 178.067596
   vertex -260.832184 172.276093 177.892593
   vertex -260.832184 172.276093 178.242599
  endloop
 endfacet
 facet normal 0.000000 0.000015 1.000000
  outer loop
   vertex -260.332184 172.276535 204.014725
   vertex -260.832184 172.276550 204.014725
   vertex -260.332214 171.276535 204.014740
  endloop
 endfacet
 facet normal 0.000000 0.000015 1.000000
  outer loop
   vertex -260.332214 171.276535 204.014740
   vertex -260.832184 172.276550 204.014725
   vertex -260.832214 171.276550 204.014740
  endloop
 endfacet
 facet normal -0.000031 -1.000000 0.000018
  outer loop
   vertex -260.832214 171.276550 204.014740
   vertex -260.332214 171.276505 202.314743
   vertex -260.332214 171.276535 204.014740
  endloop
 endfacet
 facet normal -0.000031 -1.000000 0.000018
  outer loop
   vertex -260.832214 171.276520 202.314743
   vertex -260.332214 171.276505 202.314743
   vertex -260.832214 171.276550 204.014740
  endloop
 endfacet
 facet normal -0.000000 -0.000031 -1.000000
  outer loop
   vertex -260.832184 172.276520 202.314713
   vertex -260.332214 171.276505 202.314743
   vertex -260.832214 171.276520 202.314743
  endloop
 endfacet
 facet normal -1.000000 0.000031 -0.000055
  outer loop
   vertex -260.832214 171.276520 202.314743
   vertex -260.832214 172.026520 202.731705
   vertex -260.832184 172.276520 202.314713
  endloop
 endfacet
 facet normal -1.000000 0.000122 0.000000
  outer loop
   vertex -260.832184 172.276520 202.314713
   vertex -260.832214 172.026520 202.731705
   vertex -260.832184 172.276520 202.664719
  endloop
 endfacet
 facet normal -0.000000 -0.000015 -1.000000
  outer loop
   vertex -260.832184 172.276093 177.892593
   vertex -260.332184 172.276077 177.892593
   vertex -260.832214 171.276093 177.892609
  endloop
 endfacet
 facet normal -0.000000 -0.000015 -1.000000
  outer loop
   vertex -260.832214 171.276093 177.892609
   vertex -260.332184 172.276077 177.892593
   vertex -260.332214 171.276077 177.892609
  endloop
 endfacet
 facet normal -0.000031 -1.000000 0.000018
  outer loop
   vertex -260.332214 171.276077 177.892609
   vertex -260.832214 171.276123 179.592606
   vertex -260.832214 171.276093 177.892609
  endloop
 endfacet
 facet normal -0.000031 -1.000000 0.000018
  outer loop
   vertex -260.332214 171.276108 179.592606
   vertex -260.832214 171.276123 179.592606
   vertex -260.332214 171.276077 177.892609
  endloop
 endfacet
 facet normal 0.000000 0.000015 1.000000
  outer loop
   vertex -260.332184 172.276108 179.592590
   vertex -260.832214 171.276123 179.592606
   vertex -260.332214 171.276108 179.592606
  endloop
 endfacet
 facet normal 1.000000 -0.000031 -0.000055
  outer loop
   vertex -260.332214 171.276108 179.592606
   vertex -260.332214 172.026108 179.175613
   vertex -260.332184 172.276108 179.592590
  endloop
 endfacet
 facet normal 1.000000 -0.000122 0.000000
  outer loop
   vertex -260.332184 172.276108 179.592590
   vertex -260.332214 172.026108 179.175613
   vertex -260.332184 172.276108 179.242599
  endloop
 endfacet
 facet normal 0.000000 1.000000 0.000000
  outer loop
   vertex -260.024719 172.891495 200.927032
   vertex -261.139679 172.891495 200.927032
   vertex -260.024719 172.891495 202.575195
  endloop
 endfacet
 facet normal -0.000000 1.000000 -0.000000
  outer loop
   vertex -260.024719 172.891495 202.575195
   vertex -261.139679 172.891495 200.927032
   vertex -261.139679 172.891495 202.575195
  endloop
 endfacet
 facet normal 0.000000 -0.000000 1.000000
  outer loop
   vertex -261.139679 172.891495 202.575195
   vertex -260.024719 171.350449 202.575195
   vertex -260.024719 172.891495 202.575195
  endloop
 endfacet
 facet normal -0.000000 -0.000000 1.000000
  outer loop
   vertex -261.139679 171.350449 202.575195
   vertex -260.024719 171.350449 202.575195
   vertex -261.139679 172.891495 202.575195
  endloop
 endfacet
 facet normal -0.000000 -1.000000 0.000000
  outer loop
   vertex -261.139679 171.350449 200.927032
   vertex -260.024719 171.350449 202.575195
   vertex -261.139679 171.350449 202.575195
  endloop
 endfacet
 facet normal -1.000000 -0.000000 -0.000000
  outer loop
   vertex -261.139679 171.350449 202.575195
   vertex -261.139679 172.891495 200.927032
   vertex -261.139679 171.350449 200.927032
  endloop
 endfacet
 facet normal 0.000000 0.000000 -1.000000
  outer loop
   vertex -261.139679 171.350449 200.927032
   vertex -261.139679 172.891495 200.927032
   vertex -260.024719 171.350449 200.927032
  endloop
 endfacet
 facet normal 0.000000 -0.000000 -1.000000
  outer loop
   vertex -260.024719 171.350449 200.927032
   vertex -261.139679 172.891495 200.927032
   vertex -260.024719 172.891495 200.927032
  endloop
 endfacet
 facet normal 1.000000 0.000000 0.000000
  outer loop
   vertex -260.024719 172.891495 200.927032
   vertex -260.024719 171.350449 202.575195
   vertex -260.024719 171.350449 200.927032
  endloop
 endfacet
 facet normal 1.000000 -0.000000 -0.000000
  outer loop
   vertex -260.024719 172.891495 202.575195
   vertex -260.024719 171.350449 202.575195
   vertex -260.024719 172.891495 200.927032
  endloop
 endfacet
 facet normal 0.000000 1.000000 0.000000
  outer loop
   vertex -261.139679 172.891113 180.980286
   vertex -260.024719 172.891113 180.980286
   vertex -261.139679 172.891113 179.332123
  endloop
 endfacet
 facet normal -0.000000 1.000000 0.000000
  outer loop
   vertex -261.139679 172.891113 179.332123
   vertex -260.024719 172.891113 180.980286
   vertex -260.024719 172.891113 179.332123
  endloop
 endfacet
 facet normal 0.000000 0.000000 -1.000000
  outer loop
   vertex -260.024719 172.891113 179.332123
   vertex -261.139679 171.350067 179.332123
   vertex -261.139679 172.891113 179.332123
  endloop
 endfacet
 facet normal -0.000000 -0.000000 -1.000000
  outer loop
   vertex -260.024719 171.350067 179.332123
   vertex -261.139679 171.350067 179.332123
   vertex -260.024719 172.891113 179.332123
  endloop
 endfacet
 facet normal 0.000000 -1.000000 0.000000
  outer loop
   vertex -260.024719 171.350067 180.980286
   vertex -261.139679 171.350067 179.332123
   vertex -260.024719 171.350067 179.332123
  endloop
 endfacet
 facet normal 1.000000 0.000000 -0.000000
  outer loop
   vertex -260.024719 171.350067 179.332123
   vertex -260.024719 172.891113 180.980286
   vertex -260.024719 171.350067 180.980286
  endloop
 endfacet
 facet normal 0.000000 0.000000 1.000000
  outer loop
   vertex -260.024719 171.350067 180.980286
   vertex -260.024719 172.891113 180.980286
   vertex -261.139679 171.350067 180.980286
  endloop
 endfacet
 facet normal 0.000000 -0.000000 1.000000
  outer loop
   vertex -261.139679 171.350067 180.980286
   vertex -260.024719 172.891113 180.980286
   vertex -261.139679 172.891113 180.980286
  endloop
 endfacet
 facet normal -1.000000 0.000000 0.000000
  outer loop
   vertex -261.139679 172.891113 180.980286
   vertex -261.139679 171.350067 179.332123
   vertex -261.139679 171.350067 180.980286
  endloop
 endfacet
 facet normal -1.000000 -0.000000 -0.000000
  outer loop
   vertex -261.139679 172.891113 179.332123
   vertex -261.139679 171.350067 179.332123
   vertex -261.139679 172.891113 180.980286
  endloop
 endfacet
 facet normal -1.000000 0.000000 0.000000
  outer loop
   vertex -261.367157 173.325394 181.145142
   vertex -261.367157 173.254776 181.145142
   vertex -261.367157 173.255112 200.762146
  endloop
 endfacet
 facet normal -0.000019 -1.000000 0.000017
  outer loop
   vertex -261.367157 173.255112 200.762146
   vertex -261.367157 173.254776 181.145142
   vertex -259.797180 173.254745 181.145142
  endloop
 endfacet
 facet normal -0.000010 -1.000000 0.000018
  outer loop
   vertex -259.797180 173.254745 181.145142
   vertex -259.797180 173.255096 200.762146
   vertex -261.367157 173.255112 200.762146
  endloop
 endfacet
 facet normal 1.000000 -0.000000 0.000000
  outer loop
   vertex -259.797180 173.325363 181.145142
   vertex -259.797180 173.255096 200.762146
   vertex -259.797180 173.254745 181.145142
  endloop
 endfacet
 facet normal 1.000000 0.000000 0.000000
  outer loop
   vertex -259.797180 173.325714 200.762131
   vertex -259.797180 173.255096 200.762146
   vertex -259.797180 173.325363 181.145142
  endloop
 endfacet
 facet normal 0.358467 0.933543 -0.000017
  outer loop
   vertex -259.797180 173.325363 181.145142
   vertex -259.830719 173.338242 181.145142
   vertex -259.797180 173.325714 200.762131
  endloop
 endfacet
 facet normal 0.358467 0.933543 -0.000017
  outer loop
   vertex -259.797180 173.325714 200.762131
   vertex -259.830719 173.338242 181.145142
   vertex -259.830719 173.338593 200.762131
  endloop
 endfacet
 facet normal 1.000000 -0.000050 0.000000
  outer loop
   vertex -259.830719 173.338593 200.762131
   vertex -259.830719 173.338242 181.145142
   vertex -259.830688 173.951782 181.145126
  endloop
 endfacet
 facet normal 1.000000 -0.000050 0.000000
  outer loop
   vertex -259.830688 173.951782 181.145126
   vertex -259.830688 173.952118 200.762131
   vertex -259.830719 173.338593 200.762131
  endloop
 endfacet
 facet normal 0.358751 -0.933433 0.000016
  outer loop
   vertex -259.797180 173.964661 181.145126
   vertex -259.830688 173.952118 200.762131
   vertex -259.830688 173.951782 181.145126
  endloop
 endfacet
 facet normal 0.358751 -0.933433 0.000016
  outer loop
   vertex -259.797180 173.964996 200.762131
   vertex -259.830688 173.952118 200.762131
   vertex -259.797180 173.964661 181.145126
  endloop
 endfacet
 facet normal 1.000000 -0.000000 -0.000000
  outer loop
   vertex -259.797180 173.964661 181.145126
   vertex -259.797180 174.106979 181.145126
   vertex -259.797180 173.964996 200.762131
  endloop
 endfacet
 facet normal 1.000000 0.000000 -0.000000
  outer loop
   vertex -259.797180 173.964996 200.762131
   vertex -259.797180 174.106979 181.145126
   vertex -259.797180 174.107315 200.762131
  endloop
 endfacet
 facet normal -0.000000 1.000000 -0.000017
  outer loop
   vertex -259.797180 174.107315 200.762131
   vertex -259.797180 174.106979 181.145126
   vertex -259.906799 174.107315 200.762131
  endloop
 endfacet
 facet normal 0.000031 1.000000 -0.000044
  outer loop
   vertex -260.832184 172.276123 179.592590
   vertex -260.332184 172.276108 179.592590
   vertex -260.832184 172.276108 179.242599
  endloop
 endfacet
 facet normal -0.000031 -1.000000 0.000044
  outer loop
   vertex -260.832184 172.276108 179.242599
   vertex -260.332184 172.276108 179.592590
   vertex -260.832184 172.276123 179.592590
  endloop
 endfacet
 facet normal -1.000000 0.000000 0.000000
  outer loop
   vertex -260.832184 172.276123 179.592590
   vertex -260.832184 172.526108 179.175598
   vertex -260.832184 172.276108 179.242599
  endloop
 endfacet
 facet normal -1.000000 -0.000000 0.000000
  outer loop
   vertex -260.832184 172.701111 179.478714
   vertex -260.832184 172.526108 179.175598
   vertex -260.832184 172.276123 179.592590
  endloop
 endfacet
 facet normal -1.000000 0.000000 0.000000
  outer loop
   vertex -260.832184 172.709122 178.992584
   vertex -260.832184 172.526108 179.175598
   vertex -260.832184 172.701111 179.478714
  endloop
 endfacet
 facet normal -1.000000 -0.000000 -0.000000
  outer loop
   vertex -260.832184 172.701111 179.478714
   vertex -260.832184 173.012238 179.167572
   vertex -260.832184 172.709122 178.992584
  endloop
 endfacet
 facet normal -1.000000 0.000000 0.000000
  outer loop
   vertex -260.832184 172.709122 178.992584
   vertex -260.832184 173.012238 179.167572
   vertex -260.832184 172.776108 178.742584
  endloop
 endfacet
 facet normal -1.000000 -0.000000 -0.000000
  outer loop
   vertex -260.832184 172.776108 178.742584
   vertex -260.832184 173.012238 179.167572
   vertex -260.832184 173.126099 178.742584
  endloop
 endfacet
 facet normal -1.000000 0.000000 0.000000
  outer loop
   vertex -260.832184 173.126099 178.742584
   vertex -260.832184 172.709106 178.492584
   vertex -260.832184 172.776108 178.742584
  endloop
 endfacet
 facet normal -1.000000 0.000000 -0.000000
  outer loop
   vertex -260.832184 173.012222 178.317581
   vertex -260.832184 172.709106 178.492584
   vertex -260.832184 173.126099 178.742584
  endloop
 endfacet
 facet normal -1.000000 0.000000 -0.000000
  outer loop
   vertex -260.832184 172.526093 178.309570
   vertex -260.832184 172.709106 178.492584
   vertex -260.832184 173.012222 178.317581
  endloop
 endfacet
 facet normal -1.000000 -0.000000 0.000000
  outer loop
   vertex -260.832184 173.012222 178.317581
   vertex -260.832184 172.701096 178.006470
   vertex -260.832184 172.526093 178.309570
  endloop
 endfacet
 facet normal -1.000000 0.000000 0.000000
  outer loop
   vertex -260.832184 172.526093 178.309570
   vertex -260.832184 172.701096 178.006470
   vertex -260.832184 172.276093 178.242599
  endloop
 endfacet
 facet normal -1.000000 -0.000000 -0.000000
  outer loop
   vertex -260.832184 172.276093 178.242599
   vertex -260.832184 172.701096 178.006470
   vertex -260.832184 172.276093 177.892593
  endloop
 endfacet
 facet normal -0.000031 -1.000000 0.000000
  outer loop
   vertex -260.832184 172.276093 177.892593
   vertex -260.332184 172.276077 177.892593
   vertex -260.832184 172.276093 178.242599
  endloop
 endfacet
 facet normal 0.000031 1.000000 -0.000044
  outer loop
   vertex -260.582184 172.276093 178.067596
   vertex -260.332184 172.276077 177.892593
   vertex -260.832184 172.276093 177.892593
  endloop
 endfacet
 facet normal 0.000031 1.000000 -0.000044
  outer loop
   vertex -260.332184 172.276093 178.242599
   vertex -260.332184 172.276077 177.892593
   vertex -260.582184 172.276093 178.067596
  endloop
 endfacet
 facet normal -0.000000 1.000000 -0.000000
  outer loop
   vertex -260.582184 172.276093 178.067596
   vertex -260.832184 172.276093 178.242599
   vertex -260.332184 172.276093 178.242599
  endloop
 endfacet
 facet normal 0.000000 -1.000000 0.000044
  outer loop
   vertex -260.332184 172.276093 178.242599
   vertex -260.832184 172.276093 178.242599
   vertex -260.332184 172.276077 177.892593
  endloop
 endfacet
 facet normal 0.000031 1.000000 -0.000044
  outer loop
   vertex -260.832184 172.276535 203.664719
   vertex -260.832184 172.276550 204.014725
   vertex -260.582184 172.276535 203.839722
  endloop
 endfacet
 facet normal 0.000031 1.000000 -0.000044
  outer loop
   vertex -260.582184 172.276535 203.839722
   vertex -260.832184 172.276550 204.014725
   vertex -260.332184 172.276535 204.014725
  endloop
 endfacet
 facet normal 0.000000 1.000000 -0.000000
  outer loop
   vertex -260.332184 172.276535 204.014725
   vertex -260.332184 172.276535 203.664719
   vertex -260.582184 172.276535 203.839722
  endloop
 endfacet
 facet normal -0.000031 -1.000000 0.000000
  outer loop
   vertex -260.832184 172.276550 204.014725
   vertex -260.332184 172.276535 203.664719
   vertex -260.332184 172.276535 204.014725
  endloop
 endfacet
 facet normal 0.000000 -1.000000 0.000044
  outer loop
   vertex -260.832184 172.276535 203.664719
   vertex -260.332184 172.276535 203.664719
   vertex -260.832184 172.276550 204.014725
  endloop
 endfacet
 facet normal -1.000000 -0.000000 -0.000000
  outer loop
   vertex -260.832184 172.276550 204.014725
   vertex -260.832184 172.701538 203.900833
   vertex -260.832184 172.276535 203.664719
  endloop
 endfacet
 facet normal -1.000000 0.000000 0.000000
  outer loop
   vertex -260.832184 172.276535 203.664719
   vertex -260.832184 172.701538 203.900833
   vertex -260.832184 172.526535 203.597733
  endloop
 endfacet
 facet normal -1.000000 -0.000000 -0.000000
  outer loop
   vertex -260.832184 172.526535 203.597733
   vertex -260.832184 172.701538 203.900833
   vertex -260.832184 173.012665 203.589706
  endloop
 endfacet
 facet normal -1.000000 0.000000 0.000000
  outer loop
   vertex -260.832184 173.012665 203.589706
   vertex -260.832184 172.709549 203.414719
   vertex -260.832184 172.526535 203.597733
  endloop
 endfacet
 facet normal -1.000000 0.000000 -0.000000
  outer loop
   vertex -260.832184 173.126526 203.164703
   vertex -260.832184 172.709549 203.414719
   vertex -260.832184 173.012665 203.589706
  endloop
 endfacet
 facet normal -1.000000 0.000000 0.000000
  outer loop
   vertex -260.832184 172.776535 203.164719
   vertex -260.832184 172.709549 203.414719
   vertex -260.832184 173.126526 203.164703
  endloop
 endfacet
 facet normal -1.000000 -0.000000 0.000000
  outer loop
   vertex -260.832184 173.126526 203.164703
   vertex -260.832184 173.012650 202.739700
   vertex -260.832184 172.776535 203.164719
  endloop
 endfacet
 facet normal -1.000000 0.000000 0.000000
  outer loop
   vertex -260.832184 172.776535 203.164719
   vertex -260.832184 173.012650 202.739700
   vertex -260.832184 172.709534 202.914719
  endloop
 endfacet
 facet normal -1.000000 -0.000000 -0.000000
  outer loop
   vertex -260.832184 172.709534 202.914719
   vertex -260.832184 173.012650 202.739700
   vertex -260.832184 172.701523 202.428589
  endloop
 endfacet
 facet normal -1.000000 0.000000 0.000000
  outer loop
   vertex -260.832184 172.701523 202.428589
   vertex -260.832184 172.526520 202.731705
   vertex -260.832184 172.709534 202.914719
  endloop
 endfacet
 facet normal -1.000000 -0.000000 -0.000000
  outer loop
   vertex -260.832184 172.276520 202.314713
   vertex -260.832184 172.526520 202.731705
   vertex -260.832184 172.701523 202.428589
  endloop
 endfacet
 facet normal -1.000000 0.000000 0.000000
  outer loop
   vertex -260.832184 172.276520 202.664719
   vertex -260.832184 172.526520 202.731705
   vertex -260.832184 172.276520 202.314713
  endloop
 endfacet
 facet normal -0.000000 -1.000000 -0.000000
  outer loop
   vertex -260.832184 172.276520 202.314713
   vertex -260.332184 172.276520 202.664719
   vertex -260.832184 172.276520 202.664719
  endloop
 endfacet
 facet normal 0.000000 1.000000 0.000000
  outer loop
   vertex -260.832184 172.276520 202.664719
   vertex -260.332184 172.276520 202.664719
   vertex -260.832184 172.276520 202.314713
  endloop
 endfacet
 facet normal 0.000031 1.000000 -0.000044
  outer loop
   vertex -260.832184 172.276520 202.314713
   vertex -260.332184 172.276520 202.664719
   vertex -260.332184 172.276505 202.314728
  endloop
 endfacet
 facet normal -0.000031 -1.000000 0.000044
  outer loop
   vertex -260.332184 172.276505 202.314728
   vertex -260.332184 172.276520 202.664719
   vertex -260.832184 172.276520 202.314713
  endloop
 endfacet
 facet normal 1.000000 -0.000000 0.000000
  outer loop
   vertex -260.332184 172.526520 202.731705
   vertex -260.332184 172.276520 202.664719
   vertex -260.332184 172.276505 202.314728
  endloop
 endfacet
 facet normal -0.989075 0.147413 -0.000002
  outer loop
   vertex -259.988403 174.067444 180.733978
   vertex -259.988403 174.067459 181.892700
   vertex -259.973694 174.166138 180.733978
  endloop
 endfacet
 facet normal -0.989075 0.147413 -0.000002
  outer loop
   vertex -259.973694 174.166138 180.733978
   vertex -259.988403 174.067459 181.892700
   vertex -259.973694 174.166153 181.892700
  endloop
 endfacet
 facet normal 0.000000 1.000000 -0.000013
  outer loop
   vertex -259.973694 174.166153 181.892700
   vertex -259.814728 174.166153 181.892700
   vertex -259.973694 174.166138 180.733978
  endloop
 endfacet
 facet normal 0.000000 -0.000000 1.000000
  outer loop
   vertex -259.988403 174.067459 181.892700
   vertex -259.814728 174.166153 181.892700
   vertex -259.973694 174.166153 181.892700
  endloop
 endfacet
 facet normal 0.000000 0.000000 1.000000
  outer loop
   vertex -259.750641 174.083038 181.892700
   vertex -259.814728 174.166153 181.892700
   vertex -259.988403 174.067459 181.892700
  endloop
 endfacet
 facet normal -0.000001 0.000018 1.000000
  outer loop
   vertex -259.988403 174.067459 181.892700
   vertex -259.750671 173.241409 181.892715
   vertex -259.750641 174.083038 181.892700
  endloop
 endfacet
 facet normal 1.000000 -0.000036 0.000000
  outer loop
   vertex -259.750641 174.083038 181.892700
   vertex -259.750671 173.241409 181.892715
   vertex -259.750641 174.083023 180.733978
  endloop
 endfacet
 facet normal 1.000000 -0.000036 0.000000
  outer loop
   vertex -259.750641 174.083023 180.733978
   vertex -259.750671 173.241409 181.892715
   vertex -259.750671 173.241394 180.733994
  endloop
 endfacet
 facet normal 0.000001 -0.000018 -1.000000
  outer loop
   vertex -259.750671 173.241394 180.733994
   vertex -259.988403 174.067444 180.733978
   vertex -259.750641 174.083023 180.733978
  endloop
 endfacet
 facet normal -0.000000 -0.000018 -1.000000
  outer loop
   vertex -261.413696 173.241425 180.733994
   vertex -259.988403 174.067444 180.733978
   vertex -259.750671 173.241394 180.733994
  endloop
 endfacet
 facet normal -0.000000 -0.000018 -1.000000
  outer loop
   vertex -261.175934 174.067459 180.733978
   vertex -259.988403 174.067444 180.733978
   vertex -261.413696 173.241425 180.733994
  endloop
 endfacet
 facet normal -0.000001 -0.000018 -1.000000
  outer loop
   vertex -261.413696 173.241425 180.733994
   vertex -261.413666 174.083054 180.733978
   vertex -261.175934 174.067459 180.733978
  endloop
 endfacet
 facet normal 0.000000 0.000000 -1.000000
  outer loop
   vertex -261.175934 174.067459 180.733978
   vertex -261.413666 174.083054 180.733978
   vertex -261.349609 174.166153 180.733978
  endloop
 endfacet
 facet normal -0.792007 0.610512 -0.000016
  outer loop
   vertex -261.349609 174.166153 180.733978
   vertex -261.413666 174.083054 180.733978
   vertex -261.349609 174.166183 181.892685
  endloop
 endfacet
 facet normal 0.000000 1.000000 -0.000026
  outer loop
   vertex -261.349609 174.166183 181.892685
   vertex -261.190643 174.166153 180.733978
   vertex -261.349609 174.166153 180.733978
  endloop
 endfacet
 facet normal -0.000000 1.000000 -0.000026
  outer loop
   vertex -261.190643 174.166183 181.892685
   vertex -261.190643 174.166153 180.733978
   vertex -261.349609 174.166183 181.892685
  endloop
 endfacet
 facet normal 0.989075 0.147413 -0.000004
  outer loop
   vertex -261.175934 174.067459 180.733978
   vertex -261.190643 174.166153 180.733978
   vertex -261.190643 174.166183 181.892685
  endloop
 endfacet
 facet normal 0.989075 0.147413 -0.000004
  outer loop
   vertex -261.190643 174.166183 181.892685
   vertex -261.175934 174.067490 181.892700
   vertex -261.175934 174.067459 180.733978
  endloop
 endfacet
 facet normal 0.000026 1.000000 -0.000026
  outer loop
   vertex -261.175934 174.067459 180.733978
   vertex -261.175934 174.067490 181.892700
   vertex -259.988403 174.067459 181.892700
  endloop
 endfacet
 facet normal 0.000000 0.000018 1.000000
  outer loop
   vertex -259.988403 174.067459 181.892700
   vertex -261.175934 174.067490 181.892700
   vertex -261.413696 173.241440 181.892715
  endloop
 endfacet
 facet normal 0.000000 0.000018 1.000000
  outer loop
   vertex -261.413696 173.241440 181.892715
   vertex -259.750671 173.241409 181.892715
   vertex -259.988403 174.067459 181.892700
  endloop
 endfacet
 facet normal 0.000000 -0.000000 1.000000
  outer loop
   vertex -260.001984 172.750153 181.892715
   vertex -259.750671 173.241409 181.892715
   vertex -261.413696 173.241440 181.892715
  endloop
 endfacet
 facet normal 0.890269 -0.455435 0.000006
  outer loop
   vertex -259.750671 173.241394 180.733994
   vertex -259.750671 173.241409 181.892715
   vertex -260.001984 172.750153 181.892715
  endloop
 endfacet
 facet normal 0.890269 -0.455435 0.000006
  outer loop
   vertex -260.001984 172.750153 181.892715
   vertex -260.001984 172.750137 180.734009
   vertex -259.750671 173.241394 180.733994
  endloop
 endfacet
 facet normal -0.000000 -0.000031 -1.000000
  outer loop
   vertex -259.750671 173.241394 180.733994
   vertex -260.001984 172.750137 180.734009
   vertex -261.162415 172.750153 180.734009
  endloop
 endfacet
 facet normal -0.000013 -1.000000 0.000013
  outer loop
   vertex -261.162415 172.750153 180.734009
   vertex -260.001984 172.750137 180.734009
   vertex -260.001984 172.750153 181.892715
  endloop
 endfacet
 facet normal -0.000026 -1.000000 0.000026
  outer loop
   vertex -260.001984 172.750153 181.892715
   vertex -261.162415 172.750183 181.892715
   vertex -261.162415 172.750153 180.734009
  endloop
 endfacet
 facet normal -0.000000 -0.000000 1.000000
  outer loop
   vertex -261.413696 173.241440 181.892715
   vertex -261.162415 172.750183 181.892715
   vertex -260.001984 172.750153 181.892715
  endloop
 endfacet
 facet normal -0.890291 -0.455391 0.000012
  outer loop
   vertex -261.162415 172.750153 180.734009
   vertex -261.162415 172.750183 181.892715
   vertex -261.413696 173.241440 181.892715
  endloop
 endfacet
 facet normal -0.890297 -0.455380 0.000006
  outer loop
   vertex -261.413696 173.241440 181.892715
   vertex -261.413696 173.241425 180.733994
   vertex -261.162415 172.750153 180.734009
  endloop
 endfacet
 facet normal -0.000000 -0.000031 -1.000000
  outer loop
   vertex -261.162415 172.750153 180.734009
   vertex -261.413696 173.241425 180.733994
   vertex -259.750671 173.241394 180.733994
  endloop
 endfacet
 facet normal 0.890269 -0.455435 0.000006
  outer loop
   vertex -259.750671 173.241745 201.173294
   vertex -260.001984 172.750488 201.173294
   vertex -259.750671 173.241730 200.014572
  endloop
 endfacet
 facet normal 0.890269 -0.455435 0.000006
  outer loop
   vertex -259.750671 173.241730 200.014572
   vertex -260.001984 172.750488 201.173294
   vertex -260.001984 172.750473 200.014587
  endloop
 endfacet
 facet normal 0.000013 -0.000038 -1.000000
  outer loop
   vertex -260.001984 172.750473 200.014587
   vertex -261.162415 172.750488 200.014572
   vertex -259.750671 173.241730 200.014572
  endloop
 endfacet
 facet normal -0.000013 -1.000000 0.000013
  outer loop
   vertex -260.001984 172.750488 201.173294
   vertex -261.162415 172.750488 200.014572
   vertex -260.001984 172.750473 200.014587
  endloop
 endfacet
 facet normal -0.000026 -1.000000 0.000026
  outer loop
   vertex -261.162415 172.750519 201.173294
   vertex -261.162415 172.750488 200.014572
   vertex -260.001984 172.750488 201.173294
  endloop
 endfacet
 facet normal 0.000000 0.000031 1.000000
  outer loop
   vertex -260.001984 172.750488 201.173294
   vertex -261.413696 173.241776 201.173279
   vertex -261.162415 172.750519 201.173294
  endloop
 endfacet
 facet normal -0.890291 -0.455391 0.000012
  outer loop
   vertex -261.162415 172.750519 201.173294
   vertex -261.413696 173.241776 201.173279
   vertex -261.162415 172.750488 200.014572
  endloop
 endfacet
 facet normal -0.890297 -0.455380 0.000006
  outer loop
   vertex -261.162415 172.750488 200.014572
   vertex -261.413696 173.241776 201.173279
   vertex -261.413696 173.241760 200.014572
  endloop
 endfacet
 facet normal -0.000000 0.000000 -1.000000
  outer loop
   vertex -261.413696 173.241760 200.014572
   vertex -259.750671 173.241730 200.014572
   vertex -261.162415 172.750488 200.014572
  endloop
 endfacet
 facet normal -0.000000 -0.000018 -1.000000
  outer loop
   vertex -261.175934 174.067795 200.014557
   vertex -259.750671 173.241730 200.014572
   vertex -261.413696 173.241760 200.014572
  endloop
 endfacet
 facet normal -0.000000 -0.000018 -1.000000
  outer loop
   vertex -259.988403 174.067780 200.014557
   vertex -259.750671 173.241730 200.014572
   vertex -261.175934 174.067795 200.014557
  endloop
 endfacet
 facet normal 0.000013 1.000000 -0.000013
  outer loop
   vertex -261.175934 174.067795 200.014557
   vertex -259.988403 174.067795 201.173279
   vertex -259.988403 174.067780 200.014557
  endloop
 endfacet
 facet normal -0.989075 0.147413 -0.000002
  outer loop
   vertex -259.988403 174.067780 200.014557
   vertex -259.988403 174.067795 201.173279
   vertex -259.973694 174.166473 200.014557
  endloop
 endfacet
 facet normal -0.989075 0.147413 -0.000002
  outer loop
   vertex -259.973694 174.166473 200.014557
   vertex -259.988403 174.067795 201.173279
   vertex -259.973694 174.166489 201.173264
  endloop
 endfacet
 facet normal 0.000000 1.000000 -0.000013
  outer loop
   vertex -259.973694 174.166489 201.173264
   vertex -259.814728 174.166473 200.014557
   vertex -259.973694 174.166473 200.014557
  endloop
 endfacet
 facet normal -0.000000 1.000000 -0.000013
  outer loop
   vertex -259.814728 174.166489 201.173264
   vertex -259.814728 174.166473 200.014557
   vertex -259.973694 174.166489 201.173264
  endloop
 endfacet
 facet normal 0.791921 0.610624 -0.000008
  outer loop
   vertex -259.750641 174.083374 201.173279
   vertex -259.814728 174.166473 200.014557
   vertex -259.814728 174.166489 201.173264
  endloop
 endfacet
 facet normal -0.000011 0.000175 1.000000
  outer loop
   vertex -259.814728 174.166489 201.173264
   vertex -259.988403 174.067795 201.173279
   vertex -259.750641 174.083374 201.173279
  endloop
 endfacet
 facet normal -0.000001 0.000018 1.000000
  outer loop
   vertex -259.750641 174.083374 201.173279
   vertex -259.988403 174.067795 201.173279
   vertex -259.750671 173.241745 201.173294
  endloop
 endfacet
 facet normal 0.000000 0.000018 1.000000
  outer loop
   vertex -259.750671 173.241745 201.173294
   vertex -259.988403 174.067795 201.173279
   vertex -261.175934 174.067825 201.173279
  endloop
 endfacet
 facet normal -0.000009 0.000003 1.000000
  outer loop
   vertex -261.175934 174.067825 201.173279
   vertex -261.413696 173.241776 201.173279
   vertex -259.750671 173.241745 201.173294
  endloop
 endfacet
 facet normal -0.000000 -0.000000 1.000000
  outer loop
   vertex -261.413666 174.083405 201.173279
   vertex -261.413696 173.241776 201.173279
   vertex -261.175934 174.067825 201.173279
  endloop
 endfacet
 facet normal -1.000000 0.000036 -0.000000
  outer loop
   vertex -261.413696 173.241760 200.014572
   vertex -261.413696 173.241776 201.173279
   vertex -261.413666 174.083405 201.173279
  endloop
 endfacet
 facet normal -1.000000 0.000036 -0.000000
  outer loop
   vertex -261.413666 174.083405 201.173279
   vertex -261.413666 174.083389 200.014557
   vertex -261.413696 173.241760 200.014572
  endloop
 endfacet
 facet normal -0.000001 -0.000018 -1.000000
  outer loop
   vertex -261.413696 173.241760 200.014572
   vertex -261.413666 174.083389 200.014557
   vertex -261.175934 174.067795 200.014557
  endloop
 endfacet
 facet normal 0.000000 -0.000000 -1.000000
  outer loop
   vertex -261.175934 174.067795 200.014557
   vertex -261.413666 174.083389 200.014557
   vertex -261.349609 174.166504 200.014557
  endloop
 endfacet
 facet normal -0.000000 -0.000000 -1.000000
  outer loop
   vertex -261.349609 174.166504 200.014557
   vertex -261.190643 174.166489 200.014557
   vertex -261.175934 174.067795 200.014557
  endloop
 endfacet
 facet normal 0.000096 1.000000 -0.000026
  outer loop
   vertex -261.190643 174.166519 201.173264
   vertex -261.190643 174.166489 200.014557
   vertex -261.349609 174.166504 200.014557
  endloop
 endfacet
 facet normal 0.989075 0.147413 -0.000004
  outer loop
   vertex -261.175934 174.067795 200.014557
   vertex -261.190643 174.166489 200.014557
   vertex -261.190643 174.166519 201.173264
  endloop
 endfacet
 facet normal 0.989075 0.147413 -0.000004
  outer loop
   vertex -261.190643 174.166519 201.173264
   vertex -261.175934 174.067825 201.173279
   vertex -261.175934 174.067795 200.014557
  endloop
 endfacet
 facet normal 0.000026 1.000000 -0.000026
  outer loop
   vertex -261.175934 174.067795 200.014557
   vertex -261.175934 174.067825 201.173279
   vertex -259.988403 174.067795 201.173279
  endloop
 endfacet
 facet normal 1.000000 0.000000 0.000000
  outer loop
   vertex -260.332214 171.776520 203.164734
   vertex -260.332214 171.843506 203.414734
   vertex -260.332214 171.276535 204.014740
  endloop
 endfacet
 facet normal 1.000000 -0.000000 -0.000000
  outer loop
   vertex -260.332214 171.276535 204.014740
   vertex -260.332214 171.843506 203.414734
   vertex -260.332214 172.026535 203.597733
  endloop
 endfacet
 facet normal 1.000000 -0.000031 -0.000055
  outer loop
   vertex -260.332214 172.026535 203.597733
   vertex -260.332184 172.276535 204.014725
   vertex -260.332214 171.276535 204.014740
  endloop
 endfacet
 facet normal 1.000000 -0.000122 -0.000000
  outer loop
   vertex -260.332184 172.276535 203.664719
   vertex -260.332184 172.276535 204.014725
   vertex -260.332214 172.026535 203.597733
  endloop
 endfacet
 facet normal 1.000000 0.000000 0.000000
  outer loop
   vertex -260.332184 172.701538 203.900833
   vertex -260.332184 172.276535 204.014725
   vertex -260.332184 172.276535 203.664719
  endloop
 endfacet
 facet normal 1.000000 -0.000000 -0.000000
  outer loop
   vertex -260.332184 172.276535 203.664719
   vertex -260.332184 172.526535 203.597733
   vertex -260.332184 172.701538 203.900833
  endloop
 endfacet
 facet normal 1.000000 -0.000000 0.000000
  outer loop
   vertex -260.332184 172.701538 203.900833
   vertex -260.332184 172.526535 203.597733
   vertex -260.332184 173.012650 203.589706
  endloop
 endfacet
 facet normal 1.000000 -0.000000 -0.000000
  outer loop
   vertex -260.332184 173.012650 203.589706
   vertex -260.332184 172.526535 203.597733
   vertex -260.332184 172.709534 203.414719
  endloop
 endfacet
 facet normal 1.000000 0.000000 0.000000
  outer loop
   vertex -260.332184 172.709534 203.414719
   vertex -260.332184 173.126526 203.164703
   vertex -260.332184 173.012650 203.589706
  endloop
 endfacet
 facet normal 1.000000 -0.000000 -0.000000
  outer loop
   vertex -260.332184 172.776520 203.164719
   vertex -260.332184 173.126526 203.164703
   vertex -260.332184 172.709534 203.414719
  endloop
 endfacet
 facet normal 1.000000 0.000000 0.000000
  outer loop
   vertex -260.332184 173.012634 202.739716
   vertex -260.332184 173.126526 203.164703
   vertex -260.332184 172.776520 203.164719
  endloop
 endfacet
 facet normal 1.000000 -0.000000 -0.000000
  outer loop
   vertex -260.332184 172.776520 203.164719
   vertex -260.332184 172.709534 202.914719
   vertex -260.332184 173.012634 202.739716
  endloop
 endfacet
 facet normal 1.000000 0.000000 0.000000
  outer loop
   vertex -260.332184 173.012634 202.739716
   vertex -260.332184 172.709534 202.914719
   vertex -260.332184 172.701508 202.428589
  endloop
 endfacet
 facet normal 1.000000 -0.000000 -0.000000
  outer loop
   vertex -260.332184 172.701508 202.428589
   vertex -260.332184 172.709534 202.914719
   vertex -260.332184 172.526520 202.731705
  endloop
 endfacet
 facet normal 1.000000 0.000000 0.000000
  outer loop
   vertex -260.332184 172.526520 202.731705
   vertex -260.332184 172.276505 202.314728
   vertex -260.332184 172.701508 202.428589
  endloop
 endfacet
 facet normal 1.000000 0.000000 -0.000000
  outer loop
   vertex -260.332184 172.276108 179.592590
   vertex -260.332184 172.526108 179.175598
   vertex -260.332184 172.701111 179.478714
  endloop
 endfacet
 facet normal 1.000000 -0.000000 -0.000000
  outer loop
   vertex -260.332184 172.701111 179.478714
   vertex -260.332184 172.526108 179.175598
   vertex -260.332184 172.709106 178.992584
  endloop
 endfacet
 facet normal 1.000000 0.000000 0.000000
  outer loop
   vertex -260.332184 172.709106 178.992584
   vertex -260.332184 173.012222 179.167587
   vertex -260.332184 172.701111 179.478714
  endloop
 endfacet
 facet normal 1.000000 -0.000000 -0.000000
  outer loop
   vertex -260.332184 172.776093 178.742584
   vertex -260.332184 173.012222 179.167587
   vertex -260.332184 172.709106 178.992584
  endloop
 endfacet
 facet normal 1.000000 0.000000 0.000000
  outer loop
   vertex -260.332184 173.126099 178.742584
   vertex -260.332184 173.012222 179.167587
   vertex -260.332184 172.776093 178.742584
  endloop
 endfacet
 facet normal 1.000000 -0.000000 -0.000000
  outer loop
   vertex -260.332184 172.776093 178.742584
   vertex -260.332184 172.709106 178.492584
   vertex -260.332184 173.126099 178.742584
  endloop
 endfacet
 facet normal 1.000000 -0.000000 0.000000
  outer loop
   vertex -260.332184 173.126099 178.742584
   vertex -260.332184 172.709106 178.492584
   vertex -260.332184 173.012207 178.317581
  endloop
 endfacet
 facet normal 1.000000 -0.000000 0.000000
  outer loop
   vertex -260.332184 173.012207 178.317581
   vertex -260.332184 172.709106 178.492584
   vertex -260.332184 172.526093 178.309570
  endloop
 endfacet
 facet normal 1.000000 0.000000 -0.000000
  outer loop
   vertex -260.332184 172.526093 178.309570
   vertex -260.332184 172.701080 178.006470
   vertex -260.332184 173.012207 178.317581
  endloop
 endfacet
 facet normal 1.000000 -0.000000 -0.000000
  outer loop
   vertex -260.332184 172.276093 178.242599
   vertex -260.332184 172.701080 178.006470
   vertex -260.332184 172.526093 178.309570
  endloop
 endfacet
 facet normal 1.000000 0.000000 0.000000
  outer loop
   vertex -260.332184 172.276077 177.892593
   vertex -260.332184 172.701080 178.006470
   vertex -260.332184 172.276093 178.242599
  endloop
 endfacet
 facet normal 1.000000 -0.000122 0.000000
  outer loop
   vertex -260.332184 172.276093 178.242599
   vertex -260.332214 172.026093 178.309586
   vertex -260.332184 172.276077 177.892593
  endloop
 endfacet
 facet normal 1.000000 -0.000031 0.000055
  outer loop
   vertex -260.332184 172.276077 177.892593
   vertex -260.332214 172.026093 178.309586
   vertex -260.332214 171.276077 177.892609
  endloop
 endfacet
 facet normal 1.000000 0.000000 -0.000000
  outer loop
   vertex -260.332214 171.276077 177.892609
   vertex -260.332214 172.026093 178.309586
   vertex -260.332214 171.843079 178.492599
  endloop
 endfacet
 facet normal 1.000000 0.000000 0.000000
  outer loop
   vertex -260.332214 171.843079 178.492599
   vertex -260.332214 171.776093 178.742599
   vertex -260.332214 171.276077 177.892609
  endloop
 endfacet
 facet normal -1.000000 0.000000 0.000000
  outer loop
   vertex -260.832214 172.026535 203.597733
   vertex -260.832214 171.843521 203.414734
   vertex -260.832214 171.276550 204.014740
  endloop
 endfacet
 facet normal -1.000000 -0.000000 -0.000000
  outer loop
   vertex -260.832214 171.276550 204.014740
   vertex -260.832214 171.843521 203.414734
   vertex -260.832214 171.776535 203.164734
  endloop
 endfacet
 facet normal -1.000000 0.000000 0.000000
  outer loop
   vertex -260.832214 171.776535 203.164734
   vertex -260.832214 171.276520 202.314743
   vertex -260.832214 171.276550 204.014740
  endloop
 endfacet
 facet normal -1.000000 -0.000000 -0.000000
  outer loop
   vertex -260.832214 171.843506 202.914734
   vertex -260.832214 171.276520 202.314743
   vertex -260.832214 171.776535 203.164734
  endloop
 endfacet
 facet normal -1.000000 0.000000 0.000000
  outer loop
   vertex -260.832214 172.026520 202.731705
   vertex -260.832214 171.276520 202.314743
   vertex -260.832214 171.843506 202.914734
  endloop
 endfacet
 facet normal -1.000000 0.000031 0.000055
  outer loop
   vertex -260.832184 172.276123 179.592590
   vertex -260.832214 172.026108 179.175613
   vertex -260.832214 171.276123 179.592606
  endloop
 endfacet
 facet normal -1.000000 -0.000000 -0.000000
  outer loop
   vertex -260.832214 171.276123 179.592606
   vertex -260.832214 172.026108 179.175613
   vertex -260.832214 171.843094 178.992599
  endloop
 endfacet
 facet normal -1.000000 0.000000 0.000000
  outer loop
   vertex -260.832214 171.843094 178.992599
   vertex -260.832214 171.776108 178.742599
   vertex -260.832214 171.276123 179.592606
  endloop
 endfacet
 facet normal 1.000000 0.000000 0.000000
  outer loop
   vertex -260.332214 171.843506 202.914734
   vertex -260.332214 171.276505 202.314743
   vertex -260.332214 172.026520 202.731705
  endloop
 endfacet
 facet normal 1.000000 -0.000031 0.000055
  outer loop
   vertex -260.332214 172.026520 202.731705
   vertex -260.332214 171.276505 202.314743
   vertex -260.332184 172.276505 202.314728
  endloop
 endfacet
 facet normal 1.000000 -0.000122 0.000000
  outer loop
   vertex -260.332184 172.276505 202.314728
   vertex -260.332184 172.276520 202.664719
   vertex -260.332214 172.026520 202.731705
  endloop
 endfacet
 facet normal 1.000000 0.000000 0.000000
  outer loop
   vertex -260.332214 171.276077 177.892609
   vertex -260.332214 171.776093 178.742599
   vertex -260.332214 171.276108 179.592606
  endloop
 endfacet
 facet normal 1.000000 -0.000000 -0.000000
  outer loop
   vertex -260.332214 171.276108 179.592606
   vertex -260.332214 171.776093 178.742599
   vertex -260.332214 171.843079 178.992599
  endloop
 endfacet
 facet normal 1.000000 0.000000 0.000000
  outer loop
   vertex -260.332214 171.843079 178.992599
   vertex -260.332214 172.026108 179.175613
   vertex -260.332214 171.276108 179.592606
  endloop
 endfacet
 facet normal -1.000000 0.000122 -0.000000
  outer loop
   vertex -260.832184 172.276535 203.664719
   vertex -260.832214 172.026535 203.597733
   vertex -260.832184 172.276550 204.014725
  endloop
 endfacet
 facet normal -1.000000 0.000031 0.000055
  outer loop
   vertex -260.832184 172.276550 204.014725
   vertex -260.832214 172.026535 203.597733
   vertex -260.832214 171.276550 204.014740
  endloop
 endfacet
 facet normal 0.000011 0.000175 1.000000
  outer loop
   vertex -261.413666 174.083405 201.173279
   vertex -261.175934 174.067825 201.173279
   vertex -261.349609 174.166519 201.173264
  endloop
 endfacet
 facet normal -0.000000 0.000155 1.000000
  outer loop
   vertex -261.349609 174.166519 201.173264
   vertex -261.175934 174.067825 201.173279
   vertex -261.190643 174.166519 201.173264
  endloop
 endfacet
 facet normal 1.000000 0.000000 0.000000
  outer loop
   vertex -260.332214 171.843506 202.914734
   vertex -260.332214 171.776520 203.164734
   vertex -260.332214 171.276505 202.314743
  endloop
 endfacet
 facet normal 1.000000 0.000000 -0.000000
  outer loop
   vertex -260.332214 171.276505 202.314743
   vertex -260.332214 171.776520 203.164734
   vertex -260.332214 171.276535 204.014740
  endloop
 endfacet
 facet normal 0.791921 0.610624 -0.000008
  outer loop
   vertex -259.750641 174.083023 180.733978
   vertex -259.814728 174.166138 180.733978
   vertex -259.750641 174.083038 181.892700
  endloop
 endfacet
 facet normal 0.791921 0.610624 -0.000008
  outer loop
   vertex -259.750641 174.083038 181.892700
   vertex -259.814728 174.166138 180.733978
   vertex -259.814728 174.166153 181.892700
  endloop
 endfacet
 facet normal -1.000000 0.000000 0.000000
  outer loop
   vertex -261.139679 172.891495 202.575195
   vertex -261.139679 172.891495 200.927032
   vertex -261.139679 171.350449 202.575195
  endloop
 endfacet
 facet normal 1.000000 0.000000 0.000000
  outer loop
   vertex -260.024719 172.891113 179.332123
   vertex -260.024719 172.891113 180.980286
   vertex -260.024719 171.350067 179.332123
  endloop
 endfacet
 facet normal -1.000000 -0.000000 0.000000
  outer loop
   vertex -261.367157 173.255112 200.762146
   vertex -261.367157 173.325729 200.762131
   vertex -261.367157 173.325394 181.145142
  endloop
 endfacet
 facet normal 0.000000 0.000015 1.000000
  outer loop
   vertex -260.332184 172.276108 179.592590
   vertex -260.832184 172.276123 179.592590
   vertex -260.832214 171.276123 179.592606
  endloop
 endfacet
 facet normal -0.000000 0.000155 1.000000
  outer loop
   vertex -259.814728 174.166489 201.173264
   vertex -259.973694 174.166489 201.173264
   vertex -259.988403 174.067795 201.173279
  endloop
 endfacet
 facet normal 0.000031 -0.000015 -1.000000
  outer loop
   vertex -260.832184 172.276520 202.314713
   vertex -260.332184 172.276505 202.314728
   vertex -260.332214 171.276505 202.314743
  endloop
 endfacet
 facet normal -0.000000 -0.000000 -1.000000
  outer loop
   vertex -261.349609 174.166153 180.733978
   vertex -261.190643 174.166153 180.733978
   vertex -261.175934 174.067459 180.733978
  endloop
 endfacet
 facet normal 0.000000 -1.000000 0.000000
  outer loop
   vertex -260.024719 171.350067 180.980286
   vertex -261.139679 171.350067 180.980286
   vertex -261.139679 171.350067 179.332123
  endloop
 endfacet
 facet normal -1.000000 0.000122 -0.000000
  outer loop
   vertex -260.832184 172.276123 179.592590
   vertex -260.832184 172.276108 179.242599
   vertex -260.832214 172.026108 179.175613
  endloop
 endfacet
 facet normal 0.000000 -1.000000 0.000000
  outer loop
   vertex -261.139679 171.350449 200.927032
   vertex -260.024719 171.350449 200.927032
   vertex -260.024719 171.350449 202.575195
  endloop
 endfacet
 facet normal 0.000013 1.000000 -0.000013
  outer loop
   vertex -261.175934 174.067459 180.733978
   vertex -259.988403 174.067459 181.892700
   vertex -259.988403 174.067444 180.733978
  endloop
 endfacet
 facet normal 0.000000 1.000000 0.000000
  outer loop
   vertex -260.582184 172.276535 203.839722
   vertex -260.332184 172.276535 203.664719
   vertex -260.832184 172.276535 203.664719
  endloop
 endfacet
 facet normal -1.000000 0.000000 0.000000
  outer loop
   vertex -260.832214 171.776108 178.742599
   vertex -260.832214 171.276093 177.892609
   vertex -260.832214 171.276123 179.592606
  endloop
 endfacet
 facet normal -0.000009 0.000005 1.000000
  outer loop
   vertex -259.750671 173.241745 201.173294
   vertex -261.413696 173.241776 201.173279
   vertex -260.001984 172.750488 201.173294
  endloop
 endfacet
 facet normal 0.000000 0.258815 -0.965927
  outer loop
   vertex -260.832214 172.026535 203.597733
   vertex -260.332184 172.276535 203.664719
   vertex -260.332214 172.026535 203.597733
  endloop
 endfacet
 facet normal 0.000000 0.707077 -0.707136
  outer loop
   vertex -260.832214 172.026535 203.597733
   vertex -260.332214 172.026535 203.597733
   vertex -260.832214 171.843521 203.414734
  endloop
 endfacet
 facet normal 0.000022 0.707048 -0.707166
  outer loop
   vertex -260.832214 171.843521 203.414734
   vertex -260.332214 172.026535 203.597733
   vertex -260.332214 171.843506 203.414734
  endloop
 endfacet
 facet normal 0.000029 0.965927 -0.258815
  outer loop
   vertex -260.332214 171.843506 203.414734
   vertex -260.832214 171.776535 203.164734
   vertex -260.832214 171.843521 203.414734
  endloop
 endfacet
 facet normal 0.000029 0.965927 -0.258815
  outer loop
   vertex -260.332214 171.776520 203.164734
   vertex -260.832214 171.776535 203.164734
   vertex -260.332214 171.843506 203.414734
  endloop
 endfacet
 facet normal 0.000029 0.965942 0.258760
  outer loop
   vertex -260.832214 171.843506 202.914734
   vertex -260.832214 171.776535 203.164734
   vertex -260.332214 171.776520 203.164734
  endloop
 endfacet
 facet normal 0.000000 0.965927 0.258815
  outer loop
   vertex -260.332214 171.776520 203.164734
   vertex -260.332214 171.843506 202.914734
   vertex -260.832214 171.843506 202.914734
  endloop
 endfacet
 facet normal 0.000000 0.707136 0.707077
  outer loop
   vertex -260.832214 171.843506 202.914734
   vertex -260.332214 171.843506 202.914734
   vertex -260.832214 172.026520 202.731705
  endloop
 endfacet
 facet normal -0.000000 0.258815 0.965927
  outer loop
   vertex -260.332184 172.276093 178.242599
   vertex -260.832184 172.276093 178.242599
   vertex -260.332214 172.026093 178.309586
  endloop
 endfacet
 facet normal -0.000000 0.258815 0.965927
  outer loop
   vertex -260.332214 172.026093 178.309586
   vertex -260.832184 172.276093 178.242599
   vertex -260.832214 172.026093 178.309586
  endloop
 endfacet
 facet normal 0.000000 0.707107 0.707107
  outer loop
   vertex -260.832214 172.026093 178.309586
   vertex -260.332214 171.843079 178.492599
   vertex -260.332214 172.026093 178.309586
  endloop
 endfacet
 facet normal 0.000000 0.707107 0.707107
  outer loop
   vertex -260.832214 171.843079 178.492599
   vertex -260.332214 171.843079 178.492599
   vertex -260.832214 172.026093 178.309586
  endloop
 endfacet
 facet normal 0.000000 0.965927 0.258815
  outer loop
   vertex -260.332214 171.776093 178.742599
   vertex -260.332214 171.843079 178.492599
   vertex -260.832214 171.843079 178.492599
  endloop
 endfacet
 facet normal 0.000029 0.965942 0.258760
  outer loop
   vertex -260.832214 171.843079 178.492599
   vertex -260.832214 171.776108 178.742599
   vertex -260.332214 171.776093 178.742599
  endloop
 endfacet
 facet normal 0.000029 0.965927 -0.258815
  outer loop
   vertex -260.332214 171.776093 178.742599
   vertex -260.832214 171.776108 178.742599
   vertex -260.332214 171.843079 178.992599
  endloop
 endfacet
 facet normal 0.000029 0.965927 -0.258815
  outer loop
   vertex -260.332214 171.843079 178.992599
   vertex -260.832214 171.776108 178.742599
   vertex -260.832214 171.843094 178.992599
  endloop
 endfacet
 facet normal 0.000022 0.707077 -0.707136
  outer loop
   vertex -260.832214 171.843094 178.992599
   vertex -260.332214 172.026108 179.175613
   vertex -260.332214 171.843079 178.992599
  endloop
 endfacet
 facet normal 0.000008 0.258854 0.965916
  outer loop
   vertex -260.832184 172.276550 204.014725
   vertex -260.332184 172.276535 204.014725
   vertex -260.832184 172.701538 203.900833
  endloop
 endfacet
 facet normal -0.000000 0.258845 0.965919
  outer loop
   vertex -260.832184 172.701538 203.900833
   vertex -260.332184 172.276535 204.014725
   vertex -260.332184 172.701538 203.900833
  endloop
 endfacet
 facet normal 0.000000 0.707107 0.707107
  outer loop
   vertex -260.332184 172.701538 203.900833
   vertex -260.832184 173.012665 203.589706
   vertex -260.832184 172.701538 203.900833
  endloop
 endfacet
 facet normal 0.000022 0.707124 0.707089
  outer loop
   vertex -260.332184 173.012650 203.589706
   vertex -260.832184 173.012665 203.589706
   vertex -260.332184 172.701538 203.900833
  endloop
 endfacet
 facet normal 0.000029 0.965936 0.258781
  outer loop
   vertex -260.832184 173.126526 203.164703
   vertex -260.832184 173.012665 203.589706
   vertex -260.332184 173.012650 203.589706
  endloop
 endfacet
 facet normal 0.000000 0.965927 0.258813
  outer loop
   vertex -260.332184 173.012650 203.589706
   vertex -260.332184 173.126526 203.164703
   vertex -260.832184 173.126526 203.164703
  endloop
 endfacet
 facet normal 0.000000 0.965927 -0.258813
  outer loop
   vertex -260.832184 173.126526 203.164703
   vertex -260.332184 173.126526 203.164703
   vertex -260.832184 173.012650 202.739700
  endloop
 endfacet
 facet normal 0.000037 0.965916 -0.258854
  outer loop
   vertex -260.832184 173.012650 202.739700
   vertex -260.332184 173.126526 203.164703
   vertex -260.332184 173.012634 202.739716
  endloop
 endfacet
 facet normal 0.000043 0.707089 -0.707124
  outer loop
   vertex -260.332184 173.012634 202.739716
   vertex -260.832184 172.701523 202.428589
   vertex -260.832184 173.012650 202.739700
  endloop
 endfacet
 facet normal 0.000022 0.707107 -0.707107
  outer loop
   vertex -260.332184 172.701508 202.428589
   vertex -260.832184 172.701523 202.428589
   vertex -260.332184 173.012634 202.739716
  endloop
 endfacet
 facet normal 0.000008 0.258813 -0.965927
  outer loop
   vertex -260.832184 172.276520 202.314713
   vertex -260.832184 172.701523 202.428589
   vertex -260.332184 172.701508 202.428589
  endloop
 endfacet
 facet normal 0.000037 0.258781 -0.965936
  outer loop
   vertex -260.332184 172.701508 202.428589
   vertex -260.332184 172.276505 202.314728
   vertex -260.832184 172.276520 202.314713
  endloop
 endfacet
 facet normal 0.000008 0.258822 0.965925
  outer loop
   vertex -260.832184 172.276123 179.592590
   vertex -260.332184 172.276108 179.592590
   vertex -260.832184 172.701111 179.478714
  endloop
 endfacet
 facet normal -0.000000 0.258813 0.965927
  outer loop
   vertex -260.832184 172.701111 179.478714
   vertex -260.332184 172.276108 179.592590
   vertex -260.332184 172.701111 179.478714
  endloop
 endfacet
 facet normal 0.000000 0.707124 0.707089
  outer loop
   vertex -260.332184 172.701111 179.478714
   vertex -260.832184 173.012238 179.167572
   vertex -260.832184 172.701111 179.478714
  endloop
 endfacet
 facet normal 0.000000 0.707124 0.707089
  outer loop
   vertex -260.332184 173.012222 179.167587
   vertex -260.832184 173.012238 179.167572
   vertex -260.332184 172.701111 179.478714
  endloop
 endfacet
 facet normal 0.000022 0.965934 0.258789
  outer loop
   vertex -260.832184 173.126099 178.742584
   vertex -260.832184 173.012238 179.167572
   vertex -260.332184 173.012222 179.167587
  endloop
 endfacet
 facet normal 0.000000 0.965927 0.258813
  outer loop
   vertex -260.332184 173.012222 179.167587
   vertex -260.332184 173.126099 178.742584
   vertex -260.832184 173.126099 178.742584
  endloop
 endfacet
 facet normal 0.000000 0.965927 -0.258813
  outer loop
   vertex -260.832184 173.126099 178.742584
   vertex -260.332184 173.126099 178.742584
   vertex -260.832184 173.012222 178.317581
  endloop
 endfacet
 facet normal 0.000029 0.965919 -0.258845
  outer loop
   vertex -260.832184 173.012222 178.317581
   vertex -260.332184 173.126099 178.742584
   vertex -260.332184 173.012207 178.317581
  endloop
 endfacet
 facet normal 0.000022 0.707089 -0.707124
  outer loop
   vertex -260.332184 173.012207 178.317581
   vertex -260.832184 172.701096 178.006470
   vertex -260.832184 173.012222 178.317581
  endloop
 endfacet
 facet normal 0.000022 0.707089 -0.707124
  outer loop
   vertex -260.332184 172.701080 178.006470
   vertex -260.832184 172.701096 178.006470
   vertex -260.332184 173.012207 178.317581
  endloop
 endfacet
 facet normal 0.000008 0.258813 -0.965927
  outer loop
   vertex -260.832184 172.276093 177.892593
   vertex -260.832184 172.701096 178.006470
   vertex -260.332184 172.701080 178.006470
  endloop
 endfacet
 facet normal 0.000008 0.258813 -0.965927
  outer loop
   vertex -260.332184 172.701080 178.006470
   vertex -260.332184 172.276077 177.892593
   vertex -260.832184 172.276093 177.892593
  endloop
 endfacet
 facet normal 0.000000 0.707107 -0.707107
  outer loop
   vertex -260.832214 171.843094 178.992599
   vertex -260.832214 172.026108 179.175613
   vertex -260.332214 172.026108 179.175613
  endloop
 endfacet
 facet normal -0.000000 0.258815 -0.965927
  outer loop
   vertex -260.332214 172.026108 179.175613
   vertex -260.832214 172.026108 179.175613
   vertex -260.832184 172.276108 179.242599
  endloop
 endfacet
 facet normal 0.000000 0.258815 -0.965927
  outer loop
   vertex -260.832184 172.276108 179.242599
   vertex -260.332184 172.276108 179.242599
   vertex -260.332214 172.026108 179.175613
  endloop
 endfacet
 facet normal -0.000000 -0.258870 -0.965912
  outer loop
   vertex -260.832184 172.526108 179.175598
   vertex -260.332184 172.276108 179.242599
   vertex -260.832184 172.276108 179.242599
  endloop
 endfacet
 facet normal 0.000000 -0.258870 -0.965912
  outer loop
   vertex -260.332184 172.526108 179.175598
   vertex -260.332184 172.276108 179.242599
   vertex -260.832184 172.526108 179.175598
  endloop
 endfacet
 facet normal -0.000000 -0.707107 -0.707107
  outer loop
   vertex -260.832184 172.526108 179.175598
   vertex -260.832184 172.709122 178.992584
   vertex -260.332184 172.526108 179.175598
  endloop
 endfacet
 facet normal -0.000022 -0.707136 -0.707077
  outer loop
   vertex -260.332184 172.526108 179.175598
   vertex -260.832184 172.709122 178.992584
   vertex -260.332184 172.709106 178.992584
  endloop
 endfacet
 facet normal -0.000029 -0.965927 -0.258815
  outer loop
   vertex -260.332184 172.709106 178.992584
   vertex -260.832184 172.709122 178.992584
   vertex -260.832184 172.776108 178.742584
  endloop
 endfacet
 facet normal -0.000029 -0.965927 -0.258815
  outer loop
   vertex -260.832184 172.776108 178.742584
   vertex -260.332184 172.776093 178.742584
   vertex -260.332184 172.709106 178.992584
  endloop
 endfacet
 facet normal -0.000029 -0.965912 0.258870
  outer loop
   vertex -260.832184 172.709106 178.492584
   vertex -260.332184 172.776093 178.742584
   vertex -260.832184 172.776108 178.742584
  endloop
 endfacet
 facet normal 0.000000 -0.965927 0.258815
  outer loop
   vertex -260.332184 172.709106 178.492584
   vertex -260.332184 172.776093 178.742584
   vertex -260.832184 172.709106 178.492584
  endloop
 endfacet
 facet normal -0.000000 -0.707107 0.707107
  outer loop
   vertex -260.832184 172.709106 178.492584
   vertex -260.832184 172.526093 178.309570
   vertex -260.332184 172.709106 178.492584
  endloop
 endfacet
 facet normal 0.000000 -0.707107 0.707107
  outer loop
   vertex -260.332184 172.709106 178.492584
   vertex -260.832184 172.526093 178.309570
   vertex -260.332184 172.526093 178.309570
  endloop
 endfacet
 facet normal -0.000000 -0.258760 0.965942
  outer loop
   vertex -260.332184 172.526093 178.309570
   vertex -260.832184 172.526093 178.309570
   vertex -260.832184 172.276093 178.242599
  endloop
 endfacet
 facet normal 0.000000 -0.258760 0.965942
  outer loop
   vertex -260.832184 172.276093 178.242599
   vertex -260.332184 172.276093 178.242599
   vertex -260.332184 172.526093 178.309570
  endloop
 endfacet
 facet normal 0.000000 0.258815 -0.965927
  outer loop
   vertex -260.832214 172.026535 203.597733
   vertex -260.832184 172.276535 203.664719
   vertex -260.332184 172.276535 203.664719
  endloop
 endfacet
 facet normal 0.000000 -0.258815 -0.965927
  outer loop
   vertex -260.332184 172.276535 203.664719
   vertex -260.832184 172.276535 203.664719
   vertex -260.832184 172.526535 203.597733
  endloop
 endfacet
 facet normal -0.000000 -0.258815 -0.965927
  outer loop
   vertex -260.832184 172.526535 203.597733
   vertex -260.332184 172.526535 203.597733
   vertex -260.332184 172.276535 203.664719
  endloop
 endfacet
 facet normal -0.000000 -0.707107 -0.707107
  outer loop
   vertex -260.832184 172.709549 203.414719
   vertex -260.332184 172.526535 203.597733
   vertex -260.832184 172.526535 203.597733
  endloop
 endfacet
 facet normal -0.000022 -0.707136 -0.707077
  outer loop
   vertex -260.332184 172.709534 203.414719
   vertex -260.332184 172.526535 203.597733
   vertex -260.832184 172.709549 203.414719
  endloop
 endfacet
 facet normal -0.000029 -0.965927 -0.258815
  outer loop
   vertex -260.832184 172.709549 203.414719
   vertex -260.832184 172.776535 203.164719
   vertex -260.332184 172.709534 203.414719
  endloop
 endfacet
 facet normal -0.000029 -0.965927 -0.258815
  outer loop
   vertex -260.332184 172.709534 203.414719
   vertex -260.832184 172.776535 203.164719
   vertex -260.332184 172.776520 203.164719
  endloop
 endfacet
 facet normal -0.000029 -0.965912 0.258870
  outer loop
   vertex -260.332184 172.776520 203.164719
   vertex -260.832184 172.776535 203.164719
   vertex -260.832184 172.709534 202.914719
  endloop
 endfacet
 facet normal 0.000000 -0.965927 0.258815
  outer loop
   vertex -260.832184 172.709534 202.914719
   vertex -260.332184 172.709534 202.914719
   vertex -260.332184 172.776520 203.164719
  endloop
 endfacet
 facet normal -0.000000 -0.707107 0.707107
  outer loop
   vertex -260.832184 172.526520 202.731705
   vertex -260.332184 172.709534 202.914719
   vertex -260.832184 172.709534 202.914719
  endloop
 endfacet
 facet normal 0.000000 -0.707107 0.707107
  outer loop
   vertex -260.332184 172.526520 202.731705
   vertex -260.332184 172.709534 202.914719
   vertex -260.832184 172.526520 202.731705
  endloop
 endfacet
 facet normal -0.000000 -0.258815 0.965927
  outer loop
   vertex -260.832184 172.526520 202.731705
   vertex -260.832184 172.276520 202.664719
   vertex -260.332184 172.526520 202.731705
  endloop
 endfacet
 facet normal 0.000000 -0.258815 0.965927
  outer loop
   vertex -260.332184 172.526520 202.731705
   vertex -260.832184 172.276520 202.664719
   vertex -260.332184 172.276520 202.664719
  endloop
 endfacet
 facet normal -0.000000 0.258815 0.965927
  outer loop
   vertex -260.332184 172.276520 202.664719
   vertex -260.832184 172.276520 202.664719
   vertex -260.832214 172.026520 202.731705
  endloop
 endfacet
 facet normal 0.000000 0.258815 0.965927
  outer loop
   vertex -260.832214 172.026520 202.731705
   vertex -260.332214 172.026520 202.731705
   vertex -260.332184 172.276520 202.664719
  endloop
 endfacet
 facet normal 0.000000 0.707136 0.707077
  outer loop
   vertex -260.332214 171.843506 202.914734
   vertex -260.332214 172.026520 202.731705
   vertex -260.832214 172.026520 202.731705
  endloop
 endfacet
endsolid