solid stl file generated from DOUG
 facet normal 0.149118 0.000000 0.988819
  outer loop
   vertex -202.556778 293.924744 217.647232
   vertex -202.691452 293.924744 217.667542
   vertex -202.691452 284.675232 217.667542
  endloop
 endfacet
 facet normal -0.707107 -0.000000 0.707107
  outer loop
   vertex -202.691452 284.675232 217.667542
   vertex -202.691452 293.924744 217.667542
   vertex -202.764114 284.675232 217.594879
  endloop
 endfacet
 facet normal -0.988819 0.000000 -0.149118
  outer loop
   vertex -201.775757 284.675232 218.428253
   vertex -201.796066 284.675232 218.562927
   vertex -201.796066 293.924744 218.562927
  endloop
 endfacet
 facet normal -0.707107 -0.000000 0.707107
  outer loop
   vertex -201.796066 293.924744 218.562927
   vertex -201.796066 284.675232 218.562927
   vertex -201.723404 284.675232 218.635590
  endloop
 endfacet
 facet normal -0.707107 0.000000 0.707107
  outer loop
   vertex -201.723404 284.675232 218.635590
   vertex -201.723404 293.924744 218.635590
   vertex -201.796066 293.924744 218.562927
  endloop
 endfacet
 facet normal -0.406517 0.000000 0.913643
  outer loop
   vertex -201.205292 284.675232 218.117477
   vertex -201.205292 293.924744 218.117477
   vertex -201.236053 284.675232 218.103790
  endloop
 endfacet
 facet normal -0.406517 -0.000000 0.913643
  outer loop
   vertex -201.236053 284.675232 218.103790
   vertex -201.205292 293.924744 218.117477
   vertex -201.236053 293.924744 218.103790
  endloop
 endfacet
 facet normal 0.707107 0.000000 0.707107
  outer loop
   vertex -201.236053 293.924744 218.103790
   vertex -201.642746 293.924744 218.510483
   vertex -201.236053 284.675232 218.103790
  endloop
 endfacet
 facet normal 0.149135 -0.000000 0.988817
  outer loop
   vertex -202.691452 284.675232 217.667542
   vertex -202.556793 284.675232 217.647232
   vertex -202.556778 293.924744 217.647232
  endloop
 endfacet
 facet normal -0.707100 0.000001 0.707114
  outer loop
   vertex -202.556778 293.924744 217.647232
   vertex -202.556793 284.675232 217.647232
   vertex -201.775757 284.675232 218.428253
  endloop
 endfacet
 facet normal -0.707107 0.000000 0.707107
  outer loop
   vertex -201.775757 284.675232 218.428253
   vertex -201.775757 293.924744 218.428253
   vertex -202.556778 293.924744 217.647232
  endloop
 endfacet
 facet normal -0.988819 -0.000000 -0.149118
  outer loop
   vertex -201.796066 293.924744 218.562927
   vertex -201.775757 293.924744 218.428253
   vertex -201.775757 284.675232 218.428253
  endloop
 endfacet
 facet normal 0.707107 -0.000000 0.707107
  outer loop
   vertex -201.723404 293.924744 218.635590
   vertex -201.723404 284.675232 218.635590
   vertex -201.629059 293.924744 218.541245
  endloop
 endfacet
 facet normal 0.707107 -0.000000 0.707107
  outer loop
   vertex -201.629059 293.924744 218.541245
   vertex -201.723404 284.675232 218.635590
   vertex -201.629059 284.675232 218.541245
  endloop
 endfacet
 facet normal 0.913643 0.000000 -0.406517
  outer loop
   vertex -201.629059 284.675232 218.541245
   vertex -201.642746 293.924744 218.510483
   vertex -201.629059 293.924744 218.541245
  endloop
 endfacet
 facet normal 0.913643 -0.000000 -0.406517
  outer loop
   vertex -201.642746 284.675232 218.510483
   vertex -201.642746 293.924744 218.510483
   vertex -201.629059 284.675232 218.541245
  endloop
 endfacet
 facet normal 0.707107 0.000000 0.707107
  outer loop
   vertex -201.236053 284.675232 218.103790
   vertex -201.642746 293.924744 218.510483
   vertex -201.642746 284.675232 218.510483
  endloop
 endfacet
 facet normal -0.000000 -1.000000 0.000000
  outer loop
   vertex -202.789398 284.136871 217.596054
   vertex -201.130264 284.136871 218.066544
   vertex -201.724579 284.136871 218.660858
  endloop
 endfacet
 facet normal 0.707107 -0.000000 0.707107
  outer loop
   vertex -201.724579 284.136871 218.660858
   vertex -201.130264 284.136871 218.066544
   vertex -201.724579 285.136871 218.660858
  endloop
 endfacet
 facet normal -0.707102 0.000000 0.707112
  outer loop
   vertex -201.724579 285.136871 218.660858
   vertex -202.789398 285.136871 217.596054
   vertex -201.724579 284.136871 218.660858
  endloop
 endfacet
 facet normal -0.000000 1.000000 -0.000000
  outer loop
   vertex -201.130264 285.136871 218.066544
   vertex -202.789398 285.136871 217.596054
   vertex -201.724579 285.136871 218.660858
  endloop
 endfacet
 facet normal -0.000000 1.000000 0.000000
  outer loop
   vertex -202.195068 285.136871 217.001740
   vertex -202.789398 285.136871 217.596054
   vertex -201.130264 285.136871 218.066544
  endloop
 endfacet
 facet normal 0.707107 -0.000000 -0.707107
  outer loop
   vertex -201.130264 285.136871 218.066544
   vertex -201.130264 284.136871 218.066544
   vertex -202.195068 285.136871 217.001740
  endloop
 endfacet
 facet normal 0.707107 0.000000 -0.707107
  outer loop
   vertex -202.195068 285.136871 217.001740
   vertex -201.130264 284.136871 218.066544
   vertex -202.195068 284.136871 217.001740
  endloop
 endfacet
 facet normal -0.000000 -1.000000 -0.000000
  outer loop
   vertex -202.195068 284.136871 217.001740
   vertex -201.130264 284.136871 218.066544
   vertex -202.789398 284.136871 217.596054
  endloop
 endfacet
 facet normal -0.707098 -0.000000 -0.707116
  outer loop
   vertex -202.789398 284.136871 217.596054
   vertex -202.789398 285.136871 217.596054
   vertex -202.195068 284.136871 217.001740
  endloop
 endfacet
 facet normal -0.707102 -0.000000 0.707112
  outer loop
   vertex -201.724579 284.136871 218.660858
   vertex -202.789398 285.136871 217.596054
   vertex -202.789398 284.136871 217.596054
  endloop
 endfacet
 facet normal 0.000000 -1.000000 0.000000
  outer loop
   vertex -201.724579 293.463104 218.660858
   vertex -202.789383 293.463104 217.596054
   vertex -201.130264 293.463104 218.066544
  endloop
 endfacet
 facet normal 0.000000 -1.000000 -0.000000
  outer loop
   vertex -201.130264 293.463104 218.066544
   vertex -202.789383 293.463104 217.596054
   vertex -202.195068 293.463104 217.001740
  endloop
 endfacet
 facet normal 0.707107 0.000000 -0.707107
  outer loop
   vertex -202.195068 293.463104 217.001740
   vertex -202.195068 294.463104 217.001740
   vertex -201.130264 293.463104 218.066544
  endloop
 endfacet
 facet normal -0.707107 -0.000000 -0.707107
  outer loop
   vertex -202.789383 293.463104 217.596054
   vertex -202.195068 294.463104 217.001740
   vertex -202.195068 293.463104 217.001740
  endloop
 endfacet
 facet normal -0.707107 0.000000 -0.707107
  outer loop
   vertex -202.789383 294.463104 217.596054
   vertex -202.195068 294.463104 217.001740
   vertex -202.789383 293.463104 217.596054
  endloop
 endfacet
 facet normal -0.707107 -0.000000 0.707107
  outer loop
   vertex -202.789383 293.463104 217.596054
   vertex -201.724579 294.463104 218.660858
   vertex -202.789383 294.463104 217.596054
  endloop
 endfacet
 facet normal 0.000000 1.000000 0.000000
  outer loop
   vertex -202.789383 294.463104 217.596054
   vertex -201.724579 294.463104 218.660858
   vertex -202.195068 294.463104 217.001740
  endloop
 endfacet
 facet normal -0.000000 1.000000 0.000000
  outer loop
   vertex -202.195068 294.463104 217.001740
   vertex -201.724579 294.463104 218.660858
   vertex -201.130264 294.463104 218.066544
  endloop
 endfacet
 facet normal 0.707107 0.000000 -0.707107
  outer loop
   vertex -201.130264 294.463104 218.066544
   vertex -201.130264 293.463104 218.066544
   vertex -202.195068 294.463104 217.001740
  endloop
 endfacet
 facet normal 0.707107 -0.000000 0.707107
  outer loop
   vertex -201.724579 294.463104 218.660858
   vertex -201.130264 293.463104 218.066544
   vertex -201.130264 294.463104 218.066544
  endloop
 endfacet
 facet normal 0.707107 0.000000 0.707107
  outer loop
   vertex -201.724579 293.463104 218.660858
   vertex -201.130264 293.463104 218.066544
   vertex -201.724579 294.463104 218.660858
  endloop
 endfacet
 facet normal -0.707107 -0.000000 0.707107
  outer loop
   vertex -201.724579 294.463104 218.660858
   vertex -202.789383 293.463104 217.596054
   vertex -201.724579 293.463104 218.660858
  endloop
 endfacet
 facet normal -0.707107 0.000000 0.707107
  outer loop
   vertex -202.691452 293.924744 217.667542
   vertex -202.764114 293.924744 217.594879
   vertex -202.764114 284.675232 217.594879
  endloop
 endfacet
 facet normal -0.707107 -0.000000 -0.707107
  outer loop
   vertex -202.764114 284.675232 217.594879
   vertex -202.764114 293.924744 217.594879
   vertex -202.669769 293.924744 217.500534
  endloop
 endfacet
 facet normal -0.707107 0.000000 -0.707107
  outer loop
   vertex -202.669769 293.924744 217.500534
   vertex -202.669769 284.675232 217.500534
   vertex -202.764114 284.675232 217.594879
  endloop
 endfacet
 facet normal 0.406517 -0.000000 -0.913643
  outer loop
   vertex -202.639008 293.924744 217.514221
   vertex -202.669769 284.675232 217.500534
   vertex -202.669769 293.924744 217.500534
  endloop
 endfacet
 facet normal 0.406517 0.000000 -0.913643
  outer loop
   vertex -202.639008 284.675232 217.514221
   vertex -202.669769 284.675232 217.500534
   vertex -202.639008 293.924744 217.514221
  endloop
 endfacet
 facet normal -0.707107 -0.000000 -0.707107
  outer loop
   vertex -202.639008 293.924744 217.514221
   vertex -202.232315 293.924744 217.107529
   vertex -202.639008 284.675232 217.514221
  endloop
 endfacet
 facet normal -0.707107 -0.000000 -0.707107
  outer loop
   vertex -202.639008 284.675232 217.514221
   vertex -202.232315 293.924744 217.107529
   vertex -202.232315 284.675232 217.107529
  endloop
 endfacet
 facet normal -0.913643 -0.000000 0.406517
  outer loop
   vertex -202.232315 284.675232 217.107529
   vertex -202.232315 293.924744 217.107529
   vertex -202.246002 293.924744 217.076767
  endloop
 endfacet
 facet normal -0.913643 0.000000 0.406517
  outer loop
   vertex -202.246002 293.924744 217.076767
   vertex -202.246002 284.675232 217.076767
   vertex -202.232315 284.675232 217.107529
  endloop
 endfacet
 facet normal -0.707107 0.000000 -0.707107
  outer loop
   vertex -202.199188 293.924744 217.029953
   vertex -202.246002 284.675232 217.076767
   vertex -202.246002 293.924744 217.076767
  endloop
 endfacet
 facet normal -0.707107 0.000000 -0.707107
  outer loop
   vertex -202.199188 284.675232 217.029953
   vertex -202.246002 284.675232 217.076767
   vertex -202.199188 293.924744 217.029953
  endloop
 endfacet
 facet normal 0.707107 -0.000000 -0.707107
  outer loop
   vertex -202.199188 293.924744 217.029953
   vertex -201.158478 293.924744 218.070663
   vertex -202.199188 284.675232 217.029953
  endloop
 endfacet
 facet normal 0.707107 0.000000 -0.707107
  outer loop
   vertex -202.199188 284.675232 217.029953
   vertex -201.158478 293.924744 218.070663
   vertex -201.158478 284.675232 218.070663
  endloop
 endfacet
 facet normal 0.707107 0.000000 0.707107
  outer loop
   vertex -201.158478 284.675232 218.070663
   vertex -201.158478 293.924744 218.070663
   vertex -201.205292 284.675232 218.117477
  endloop
 endfacet
 facet normal 0.707107 0.000000 0.707107
  outer loop
   vertex -201.130264 285.136871 218.066544
   vertex -201.724579 285.136871 218.660858
   vertex -201.130264 284.136871 218.066544
  endloop
 endfacet
 facet normal -0.707098 -0.000000 -0.707116
  outer loop
   vertex -202.789398 285.136871 217.596054
   vertex -202.195068 285.136871 217.001740
   vertex -202.195068 284.136871 217.001740
  endloop
 endfacet
 facet normal 0.707107 0.000000 0.707107
  outer loop
   vertex -201.158478 293.924744 218.070663
   vertex -201.205292 293.924744 218.117477
   vertex -201.205292 284.675232 218.117477
  endloop
 endfacet
 facet normal -0.270585 0.923887 -0.270585
  outer loop
   vertex -200.290497 294.974976 216.161972
   vertex -199.583389 294.974976 215.454865
   vertex -200.790497 294.682098 215.661972
  endloop
 endfacet
 facet normal -0.270585 0.923887 -0.270585
  outer loop
   vertex -200.790497 294.682098 215.661972
   vertex -199.583389 294.974976 215.454865
   vertex -200.083389 294.682098 214.954865
  endloop
 endfacet
 facet normal -0.653283 0.382677 -0.653283
  outer loop
   vertex -200.083389 294.682098 214.954865
   vertex -200.997604 293.974976 215.454865
   vertex -200.790497 294.682098 215.661972
  endloop
 endfacet
 facet normal -0.653283 0.382677 -0.653283
  outer loop
   vertex -200.290497 293.974976 214.747757
   vertex -200.997604 293.974976 215.454865
   vertex -200.083389 294.682098 214.954865
  endloop
 endfacet
 facet normal -0.653279 -0.382691 -0.653279
  outer loop
   vertex -200.790497 293.267883 215.661972
   vertex -200.997604 293.974976 215.454865
   vertex -200.290497 293.974976 214.747757
  endloop
 endfacet
 facet normal -0.653279 -0.382691 -0.653279
  outer loop
   vertex -200.290497 293.974976 214.747757
   vertex -200.083389 293.267883 214.954865
   vertex -200.790497 293.267883 215.661972
  endloop
 endfacet
 facet normal -0.270609 -0.923873 -0.270609
  outer loop
   vertex -200.790497 293.267883 215.661972
   vertex -200.083389 293.267883 214.954865
   vertex -200.290497 292.974976 216.161972
  endloop
 endfacet
 facet normal -0.270609 -0.923873 -0.270609
  outer loop
   vertex -200.290497 292.974976 216.161972
   vertex -200.083389 293.267883 214.954865
   vertex -199.583389 292.974976 215.454865
  endloop
 endfacet
 facet normal 0.270609 -0.923873 0.270609
  outer loop
   vertex -199.583389 292.974976 215.454865
   vertex -199.790497 293.267883 216.661972
   vertex -200.290497 292.974976 216.161972
  endloop
 endfacet
 facet normal 0.270609 -0.923873 0.270609
  outer loop
   vertex -199.083389 293.267883 215.954865
   vertex -199.790497 293.267883 216.661972
   vertex -199.583389 292.974976 215.454865
  endloop
 endfacet
 facet normal 0.653279 -0.382691 0.653279
  outer loop
   vertex -199.583389 293.974976 216.869080
   vertex -199.790497 293.267883 216.661972
   vertex -199.083389 293.267883 215.954865
  endloop
 endfacet
 facet normal 0.653279 -0.382691 0.653279
  outer loop
   vertex -199.083389 293.267883 215.954865
   vertex -198.876282 293.974976 216.161972
   vertex -199.583389 293.974976 216.869080
  endloop
 endfacet
 facet normal 0.653283 0.382677 0.653283
  outer loop
   vertex -199.583389 293.974976 216.869080
   vertex -198.876282 293.974976 216.161972
   vertex -199.790497 294.682098 216.661972
  endloop
 endfacet
 facet normal 0.653283 0.382677 0.653283
  outer loop
   vertex -199.790497 294.682098 216.661972
   vertex -198.876282 293.974976 216.161972
   vertex -199.083389 294.682098 215.954865
  endloop
 endfacet
 facet normal 0.270585 0.923887 0.270585
  outer loop
   vertex -199.083389 294.682098 215.954865
   vertex -200.290497 294.974976 216.161972
   vertex -199.790497 294.682098 216.661972
  endloop
 endfacet
 facet normal 0.270585 0.923887 0.270585
  outer loop
   vertex -199.583389 294.974976 215.454865
   vertex -200.290497 294.974976 216.161972
   vertex -199.083389 294.682098 215.954865
  endloop
 endfacet
 facet normal 0.270561 -0.923901 0.270561
  outer loop
   vertex -200.865509 284.448212 216.986984
   vertex -201.697617 284.375000 217.569092
   vertex -200.990509 284.375000 216.861984
  endloop
 endfacet
 facet normal -0.270561 -0.923901 -0.270561
  outer loop
   vertex -200.990509 284.375000 216.861984
   vertex -201.697617 284.375000 217.569092
   vertex -201.822617 284.448212 217.444092
  endloop
 endfacet
 facet normal -0.270561 -0.923901 -0.270561
  outer loop
   vertex -201.822617 284.448212 217.444092
   vertex -201.115509 284.448212 216.736984
   vertex -200.990509 284.375000 216.861984
  endloop
 endfacet
 facet normal -0.653280 -0.382687 -0.653280
  outer loop
   vertex -201.874390 284.625000 217.392303
   vertex -201.115509 284.448212 216.736984
   vertex -201.822617 284.448212 217.444092
  endloop
 endfacet
 facet normal -0.653280 -0.382687 -0.653280
  outer loop
   vertex -201.167282 284.625000 216.685196
   vertex -201.115509 284.448212 216.736984
   vertex -201.874390 284.625000 217.392303
  endloop
 endfacet
 facet normal -0.653264 0.382744 -0.653264
  outer loop
   vertex -201.874390 284.625000 217.392303
   vertex -201.822617 284.801758 217.444092
   vertex -201.167282 284.625000 216.685196
  endloop
 endfacet
 facet normal -0.653264 0.382744 -0.653264
  outer loop
   vertex -201.167282 284.625000 216.685196
   vertex -201.822617 284.801758 217.444092
   vertex -201.115509 284.801758 216.736984
  endloop
 endfacet
 facet normal -0.270658 0.923845 -0.270658
  outer loop
   vertex -201.115509 284.801758 216.736984
   vertex -201.822617 284.801758 217.444092
   vertex -201.697617 284.875000 217.569092
  endloop
 endfacet
 facet normal -0.270658 0.923845 -0.270658
  outer loop
   vertex -201.697617 284.875000 217.569092
   vertex -200.990509 284.875000 216.861984
   vertex -201.115509 284.801758 216.736984
  endloop
 endfacet
 facet normal 0.270658 0.923845 0.270658
  outer loop
   vertex -201.572617 284.801758 217.694092
   vertex -200.990509 284.875000 216.861984
   vertex -201.697617 284.875000 217.569092
  endloop
 endfacet
 facet normal 0.270658 0.923845 0.270658
  outer loop
   vertex -200.865509 284.801758 216.986984
   vertex -200.990509 284.875000 216.861984
   vertex -201.572617 284.801758 217.694092
  endloop
 endfacet
 facet normal 0.653264 0.382744 0.653264
  outer loop
   vertex -201.572617 284.801758 217.694092
   vertex -201.520828 284.625000 217.745865
   vertex -200.865509 284.801758 216.986984
  endloop
 endfacet
 facet normal 0.653264 0.382744 0.653264
  outer loop
   vertex -200.865509 284.801758 216.986984
   vertex -201.520828 284.625000 217.745865
   vertex -200.813721 284.625000 217.038757
  endloop
 endfacet
 facet normal 0.653280 -0.382687 0.653280
  outer loop
   vertex -200.813721 284.625000 217.038757
   vertex -201.520828 284.625000 217.745865
   vertex -201.572617 284.448212 217.694092
  endloop
 endfacet
 facet normal 0.653280 -0.382687 0.653280
  outer loop
   vertex -201.572617 284.448212 217.694092
   vertex -200.865509 284.448212 216.986984
   vertex -200.813721 284.625000 217.038757
  endloop
 endfacet
 facet normal 0.270561 -0.923901 0.270561
  outer loop
   vertex -201.697617 284.375000 217.569092
   vertex -200.865509 284.448212 216.986984
   vertex -201.572617 284.448212 217.694092
  endloop
 endfacet
 facet normal 0.270585 -0.923887 0.270585
  outer loop
   vertex -199.083389 283.917877 215.954865
   vertex -200.290497 283.625000 216.161972
   vertex -199.583389 283.625000 215.454865
  endloop
 endfacet
 facet normal -0.270585 -0.923887 -0.270585
  outer loop
   vertex -199.583389 283.625000 215.454865
   vertex -200.290497 283.625000 216.161972
   vertex -200.790497 283.917877 215.661972
  endloop
 endfacet
 facet normal -0.270585 -0.923887 -0.270585
  outer loop
   vertex -200.790497 283.917877 215.661972
   vertex -200.083389 283.917877 214.954865
   vertex -199.583389 283.625000 215.454865
  endloop
 endfacet
 facet normal -0.653283 -0.382677 -0.653283
  outer loop
   vertex -200.997604 284.625000 215.454865
   vertex -200.083389 283.917877 214.954865
   vertex -200.790497 283.917877 215.661972
  endloop
 endfacet
 facet normal -0.653283 -0.382677 -0.653283
  outer loop
   vertex -200.290497 284.625000 214.747757
   vertex -200.083389 283.917877 214.954865
   vertex -200.997604 284.625000 215.454865
  endloop
 endfacet
 facet normal -0.653279 0.382691 -0.653279
  outer loop
   vertex -200.997604 284.625000 215.454865
   vertex -200.790497 285.332092 215.661972
   vertex -200.290497 284.625000 214.747757
  endloop
 endfacet
 facet normal -0.653279 0.382691 -0.653279
  outer loop
   vertex -200.290497 284.625000 214.747757
   vertex -200.790497 285.332092 215.661972
   vertex -200.083389 285.332092 214.954865
  endloop
 endfacet
 facet normal -0.270609 0.923873 -0.270609
  outer loop
   vertex -200.083389 285.332092 214.954865
   vertex -200.790497 285.332092 215.661972
   vertex -200.290497 285.625000 216.161972
  endloop
 endfacet
 facet normal -0.270609 0.923873 -0.270609
  outer loop
   vertex -200.290497 285.625000 216.161972
   vertex -199.583389 285.625000 215.454865
   vertex -200.083389 285.332092 214.954865
  endloop
 endfacet
 facet normal 0.270609 0.923873 0.270609
  outer loop
   vertex -199.790497 285.332092 216.661972
   vertex -199.583389 285.625000 215.454865
   vertex -200.290497 285.625000 216.161972
  endloop
 endfacet
 facet normal 0.270609 0.923873 0.270609
  outer loop
   vertex -199.083389 285.332092 215.954865
   vertex -199.583389 285.625000 215.454865
   vertex -199.790497 285.332092 216.661972
  endloop
 endfacet
 facet normal 0.653279 0.382691 0.653279
  outer loop
   vertex -199.790497 285.332092 216.661972
   vertex -199.583389 284.625000 216.869080
   vertex -199.083389 285.332092 215.954865
  endloop
 endfacet
 facet normal 0.653279 0.382691 0.653279
  outer loop
   vertex -199.083389 285.332092 215.954865
   vertex -199.583389 284.625000 216.869080
   vertex -198.876282 284.625000 216.161972
  endloop
 endfacet
 facet normal 0.653283 -0.382677 0.653283
  outer loop
   vertex -198.876282 284.625000 216.161972
   vertex -199.583389 284.625000 216.869080
   vertex -199.790497 283.917877 216.661972
  endloop
 endfacet
 facet normal 0.653283 -0.382677 0.653283
  outer loop
   vertex -199.790497 283.917877 216.661972
   vertex -199.083389 283.917877 215.954865
   vertex -198.876282 284.625000 216.161972
  endloop
 endfacet
 facet normal 0.270585 -0.923887 0.270585
  outer loop
   vertex -200.290497 283.625000 216.161972
   vertex -199.083389 283.917877 215.954865
   vertex -199.790497 283.917877 216.661972
  endloop
 endfacet
 facet normal -0.180321 -0.759397 0.625141
  outer loop
   vertex -199.790497 283.917877 216.661972
   vertex -200.997604 284.375000 216.869080
   vertex -200.290497 283.625000 216.161972
  endloop
 endfacet
 facet normal -0.625124 -0.759405 0.180346
  outer loop
   vertex -200.290497 283.625000 216.161972
   vertex -200.997604 284.375000 216.869080
   vertex -201.122604 284.448212 216.744080
  endloop
 endfacet
 facet normal -0.625139 -0.759399 0.180317
  outer loop
   vertex -201.122604 284.448212 216.744080
   vertex -200.790497 283.917877 215.661972
   vertex -200.290497 283.625000 216.161972
  endloop
 endfacet
 facet normal -0.939707 -0.314525 -0.134257
  outer loop
   vertex -201.174377 284.625000 216.692291
   vertex -200.790497 283.917877 215.661972
   vertex -201.122604 284.448212 216.744080
  endloop
 endfacet
 facet normal -0.939702 -0.314545 -0.134242
  outer loop
   vertex -200.997604 284.625000 215.454865
   vertex -200.790497 283.917877 215.661972
   vertex -201.174377 284.625000 216.692291
  endloop
 endfacet
 facet normal -0.939694 0.314571 -0.134240
  outer loop
   vertex -201.174377 284.625000 216.692291
   vertex -201.122604 284.801758 216.744080
   vertex -200.997604 284.625000 215.454865
  endloop
 endfacet
 facet normal -0.939699 0.314557 -0.134239
  outer loop
   vertex -200.997604 284.625000 215.454865
   vertex -201.122604 284.801758 216.744080
   vertex -200.790497 285.332092 215.661972
  endloop
 endfacet
 facet normal -0.625207 0.759353 0.180273
  outer loop
   vertex -200.790497 285.332092 215.661972
   vertex -201.122604 284.801758 216.744080
   vertex -200.997604 284.875000 216.869080
  endloop
 endfacet
 facet normal -0.625157 0.759389 0.180296
  outer loop
   vertex -200.997604 284.875000 216.869080
   vertex -200.290497 285.625000 216.161972
   vertex -200.790497 285.332092 215.661972
  endloop
 endfacet
 facet normal -0.180245 0.759373 0.625191
  outer loop
   vertex -200.872604 284.801758 216.994080
   vertex -200.290497 285.625000 216.161972
   vertex -200.997604 284.875000 216.869080
  endloop
 endfacet
 facet normal -0.180303 0.759384 0.625161
  outer loop
   vertex -199.790497 285.332092 216.661972
   vertex -200.290497 285.625000 216.161972
   vertex -200.872604 284.801758 216.994080
  endloop
 endfacet
 facet normal 0.134237 0.314560 0.939698
  outer loop
   vertex -200.872604 284.801758 216.994080
   vertex -200.820831 284.625000 217.045853
   vertex -199.790497 285.332092 216.661972
  endloop
 endfacet
 facet normal 0.134239 0.314557 0.939699
  outer loop
   vertex -199.790497 285.332092 216.661972
   vertex -200.820831 284.625000 217.045853
   vertex -199.583389 284.625000 216.869080
  endloop
 endfacet
 facet normal 0.134241 -0.314511 0.939714
  outer loop
   vertex -199.583389 284.625000 216.869080
   vertex -200.820831 284.625000 217.045853
   vertex -200.872604 284.448212 216.994080
  endloop
 endfacet
 facet normal 0.134245 -0.314546 0.939702
  outer loop
   vertex -200.872604 284.448212 216.994080
   vertex -199.790497 283.917877 216.661972
   vertex -199.583389 284.625000 216.869080
  endloop
 endfacet
 facet normal -0.180332 -0.759415 0.625116
  outer loop
   vertex -200.997604 284.375000 216.869080
   vertex -199.790497 283.917877 216.661972
   vertex -200.872604 284.448212 216.994080
  endloop
 endfacet
 facet normal -0.270564 0.923901 -0.270558
  outer loop
   vertex -201.697601 294.224976 217.569092
   vertex -200.990509 294.224976 216.861984
   vertex -201.822601 294.151764 217.444092
  endloop
 endfacet
 facet normal -0.270564 0.923901 -0.270558
  outer loop
   vertex -201.822601 294.151764 217.444092
   vertex -200.990509 294.224976 216.861984
   vertex -201.115509 294.151764 216.736984
  endloop
 endfacet
 facet normal -0.653273 0.382735 -0.653259
  outer loop
   vertex -201.115509 294.151764 216.736984
   vertex -201.874390 293.974976 217.392303
   vertex -201.822601 294.151764 217.444092
  endloop
 endfacet
 facet normal -0.653280 0.382687 -0.653280
  outer loop
   vertex -201.167282 293.974976 216.685196
   vertex -201.874390 293.974976 217.392303
   vertex -201.115509 294.151764 216.736984
  endloop
 endfacet
 facet normal -0.653250 -0.382792 -0.653250
  outer loop
   vertex -201.822601 293.798218 217.444092
   vertex -201.874390 293.974976 217.392303
   vertex -201.167282 293.974976 216.685196
  endloop
 endfacet
 facet normal -0.653271 -0.382744 -0.653257
  outer loop
   vertex -201.167282 293.974976 216.685196
   vertex -201.115509 293.798218 216.736984
   vertex -201.822601 293.798218 217.444092
  endloop
 endfacet
 facet normal -0.270661 -0.923845 -0.270655
  outer loop
   vertex -201.822601 293.798218 217.444092
   vertex -201.115509 293.798218 216.736984
   vertex -201.697601 293.724976 217.569092
  endloop
 endfacet
 facet normal -0.270661 -0.923845 -0.270655
  outer loop
   vertex -201.697601 293.724976 217.569092
   vertex -201.115509 293.798218 216.736984
   vertex -200.990509 293.724976 216.861984
  endloop
 endfacet
 facet normal 0.270661 -0.923845 0.270655
  outer loop
   vertex -200.990509 293.724976 216.861984
   vertex -201.572601 293.798218 217.694092
   vertex -201.697601 293.724976 217.569092
  endloop
 endfacet
 facet normal 0.270661 -0.923845 0.270655
  outer loop
   vertex -200.865509 293.798218 216.986984
   vertex -201.572601 293.798218 217.694092
   vertex -200.990509 293.724976 216.861984
  endloop
 endfacet
 facet normal 0.653285 -0.382695 0.653271
  outer loop
   vertex -201.520828 293.974976 217.745865
   vertex -201.572601 293.798218 217.694092
   vertex -200.865509 293.798218 216.986984
  endloop
 endfacet
 facet normal 0.653264 -0.382744 0.653264
  outer loop
   vertex -200.865509 293.798218 216.986984
   vertex -200.813721 293.974976 217.038757
   vertex -201.520828 293.974976 217.745865
  endloop
 endfacet
 facet normal 0.653294 0.382639 0.653294
  outer loop
   vertex -201.520828 293.974976 217.745865
   vertex -200.813721 293.974976 217.038757
   vertex -201.572601 294.151764 217.694092
  endloop
 endfacet
 facet normal 0.653287 0.382687 0.653273
  outer loop
   vertex -201.572601 294.151764 217.694092
   vertex -200.813721 293.974976 217.038757
   vertex -200.865509 294.151764 216.986984
  endloop
 endfacet
 facet normal 0.270564 0.923901 0.270558
  outer loop
   vertex -200.865509 294.151764 216.986984
   vertex -201.697601 294.224976 217.569092
   vertex -201.572601 294.151764 217.694092
  endloop
 endfacet
 facet normal 0.270564 0.923901 0.270558
  outer loop
   vertex -200.990509 294.224976 216.861984
   vertex -201.697601 294.224976 217.569092
   vertex -200.865509 294.151764 216.986984
  endloop
 endfacet
 facet normal -0.180332 0.759415 0.625116
  outer loop
   vertex -200.872604 294.151764 216.994080
   vertex -199.790497 294.682098 216.661972
   vertex -200.997604 294.224976 216.869080
  endloop
 endfacet
 facet normal -0.180321 0.759397 0.625141
  outer loop
   vertex -200.997604 294.224976 216.869080
   vertex -199.790497 294.682098 216.661972
   vertex -200.290497 294.974976 216.161972
  endloop
 endfacet
 facet normal -0.625124 0.759405 0.180346
  outer loop
   vertex -200.290497 294.974976 216.161972
   vertex -201.122604 294.151764 216.744080
   vertex -200.997604 294.224976 216.869080
  endloop
 endfacet
 facet normal -0.625139 0.759399 0.180317
  outer loop
   vertex -200.790497 294.682098 215.661972
   vertex -201.122604 294.151764 216.744080
   vertex -200.290497 294.974976 216.161972
  endloop
 endfacet
 facet normal -0.939707 0.314525 -0.134257
  outer loop
   vertex -201.174377 293.974976 216.692291
   vertex -201.122604 294.151764 216.744080
   vertex -200.790497 294.682098 215.661972
  endloop
 endfacet
 facet normal -0.939702 0.314545 -0.134242
  outer loop
   vertex -200.790497 294.682098 215.661972
   vertex -200.997604 293.974976 215.454865
   vertex -201.174377 293.974976 216.692291
  endloop
 endfacet
 facet normal -0.939694 -0.314571 -0.134240
  outer loop
   vertex -201.174377 293.974976 216.692291
   vertex -200.997604 293.974976 215.454865
   vertex -201.122604 293.798218 216.744080
  endloop
 endfacet
 facet normal -0.939699 -0.314557 -0.134239
  outer loop
   vertex -201.122604 293.798218 216.744080
   vertex -200.997604 293.974976 215.454865
   vertex -200.790497 293.267883 215.661972
  endloop
 endfacet
 facet normal -0.625207 -0.759353 0.180273
  outer loop
   vertex -200.790497 293.267883 215.661972
   vertex -200.997604 293.724976 216.869080
   vertex -201.122604 293.798218 216.744080
  endloop
 endfacet
 facet normal -0.625157 -0.759389 0.180296
  outer loop
   vertex -200.290497 292.974976 216.161972
   vertex -200.997604 293.724976 216.869080
   vertex -200.790497 293.267883 215.661972
  endloop
 endfacet
 facet normal -0.180245 -0.759373 0.625191
  outer loop
   vertex -200.872604 293.798218 216.994080
   vertex -200.997604 293.724976 216.869080
   vertex -200.290497 292.974976 216.161972
  endloop
 endfacet
 facet normal -0.180303 -0.759384 0.625161
  outer loop
   vertex -200.290497 292.974976 216.161972
   vertex -199.790497 293.267883 216.661972
   vertex -200.872604 293.798218 216.994080
  endloop
 endfacet
 facet normal 0.134232 -0.314569 0.939696
  outer loop
   vertex -200.872604 293.798218 216.994080
   vertex -199.790497 293.267883 216.661972
   vertex -200.820816 293.974976 217.045853
  endloop
 endfacet
 facet normal 0.134241 -0.314557 0.939698
  outer loop
   vertex -200.820816 293.974976 217.045853
   vertex -199.790497 293.267883 216.661972
   vertex -199.583389 293.974976 216.869080
  endloop
 endfacet
 facet normal 0.134243 0.314522 0.939710
  outer loop
   vertex -199.583389 293.974976 216.869080
   vertex -200.872604 294.151764 216.994080
   vertex -200.820816 293.974976 217.045853
  endloop
 endfacet
 facet normal 0.134245 0.314546 0.939702
  outer loop
   vertex -199.790497 294.682098 216.661972
   vertex -200.872604 294.151764 216.994080
   vertex -199.583389 293.974976 216.869080
  endloop
 endfacet
endsolid