solid stl file generated from DOUG
 facet normal -0.000001 0.803108 0.595833
  outer loop
   vertex 444.649353 336.097961 138.918655
   vertex 444.649353 336.179108 138.809280
   vertex 418.190796 336.179108 138.809250
  endloop
 endfacet
 facet normal 0.000000 0.956342 -0.292249
  outer loop
   vertex 418.190796 336.179108 138.809250
   vertex 444.649353 336.179108 138.809280
   vertex 418.190826 336.149078 138.710983
  endloop
 endfacet
 facet normal 0.000002 0.332515 -0.943098
  outer loop
   vertex 418.190796 336.420898 139.974899
   vertex 418.190796 336.549347 140.020187
   vertex 444.649353 336.549347 140.020233
  endloop
 endfacet
 facet normal 0.000001 0.956342 -0.292249
  outer loop
   vertex 444.649353 336.549347 140.020233
   vertex 418.190796 336.549347 140.020187
   vertex 418.190796 336.579376 140.118454
  endloop
 endfacet
 facet normal 0.000001 0.956342 -0.292249
  outer loop
   vertex 418.190796 336.579376 140.118454
   vertex 444.649353 336.579376 140.118500
   vertex 444.649353 336.549347 140.020233
  endloop
 endfacet
 facet normal -0.000000 0.997498 0.070700
  outer loop
   vertex 418.190796 335.878662 140.332687
   vertex 444.649323 335.878662 140.332718
   vertex 418.190796 335.881042 140.299103
  endloop
 endfacet
 facet normal -0.000000 0.997495 0.070731
  outer loop
   vertex 418.190796 335.881042 140.299103
   vertex 444.649323 335.878662 140.332718
   vertex 444.649323 335.881042 140.299149
  endloop
 endfacet
 facet normal -0.000002 0.292387 0.956300
  outer loop
   vertex 444.649323 335.881042 140.299149
   vertex 444.649353 336.431061 140.130981
   vertex 418.190796 335.881042 140.299103
  endloop
 endfacet
 facet normal -0.000001 0.803108 0.595833
  outer loop
   vertex 418.190796 336.179108 138.809250
   vertex 418.190796 336.097961 138.918625
   vertex 444.649353 336.097961 138.918655
  endloop
 endfacet
 facet normal 0.000000 0.956304 -0.292373
  outer loop
   vertex 444.649353 336.097961 138.918655
   vertex 418.190796 336.097961 138.918625
   vertex 418.190796 336.420898 139.974899
  endloop
 endfacet
 facet normal 0.000000 0.956304 -0.292373
  outer loop
   vertex 418.190796 336.420898 139.974899
   vertex 444.649353 336.420898 139.974930
   vertex 444.649353 336.097961 138.918655
  endloop
 endfacet
 facet normal 0.000001 0.332615 -0.943063
  outer loop
   vertex 444.649353 336.549347 140.020233
   vertex 444.649353 336.420898 139.974930
   vertex 418.190796 336.420898 139.974899
  endloop
 endfacet
 facet normal -0.000002 0.292317 0.956321
  outer loop
   vertex 444.649353 336.579376 140.118500
   vertex 418.190796 336.579376 140.118454
   vertex 444.649353 336.451782 140.157501
  endloop
 endfacet
 facet normal -0.000001 0.292422 0.956289
  outer loop
   vertex 444.649353 336.451782 140.157501
   vertex 418.190796 336.579376 140.118454
   vertex 418.190796 336.451782 140.157471
  endloop
 endfacet
 facet normal -0.000001 -0.787983 0.615697
  outer loop
   vertex 418.190796 336.451782 140.157471
   vertex 444.649353 336.431061 140.130981
   vertex 444.649353 336.451782 140.157501
  endloop
 endfacet
 facet normal -0.000001 -0.787983 0.615697
  outer loop
   vertex 418.190796 336.431061 140.130951
   vertex 444.649353 336.431061 140.130981
   vertex 418.190796 336.451782 140.157471
  endloop
 endfacet
 facet normal -0.000001 0.292363 0.956307
  outer loop
   vertex 418.190796 335.881042 140.299103
   vertex 444.649353 336.431061 140.130981
   vertex 418.190796 336.431061 140.130951
  endloop
 endfacet
 facet normal -1.000000 0.000000 0.000000
  outer loop
   vertex 417.775482 336.161987 138.689224
   vertex 417.775482 335.798462 140.375031
   vertex 417.775482 336.602264 140.129288
  endloop
 endfacet
 facet normal -0.000000 0.292367 0.956306
  outer loop
   vertex 417.775482 336.602264 140.129288
   vertex 417.775482 335.798462 140.375031
   vertex 418.775482 336.602264 140.129288
  endloop
 endfacet
 facet normal 0.000000 0.956304 -0.292375
  outer loop
   vertex 418.775482 336.602264 140.129288
   vertex 418.775482 336.161987 138.689224
   vertex 417.775482 336.602264 140.129288
  endloop
 endfacet
 facet normal 1.000000 -0.000000 -0.000000
  outer loop
   vertex 418.775482 335.798462 140.375031
   vertex 418.775482 336.161987 138.689224
   vertex 418.775482 336.602264 140.129288
  endloop
 endfacet
 facet normal 1.000000 0.000000 0.000000
  outer loop
   vertex 418.775482 335.358215 138.934952
   vertex 418.775482 336.161987 138.689224
   vertex 418.775482 335.798462 140.375031
  endloop
 endfacet
 facet normal -0.000000 -0.956310 0.292354
  outer loop
   vertex 418.775482 335.798462 140.375031
   vertex 417.775482 335.798462 140.375031
   vertex 418.775482 335.358215 138.934952
  endloop
 endfacet
 facet normal 0.000000 -0.956310 0.292354
  outer loop
   vertex 418.775482 335.358215 138.934952
   vertex 417.775482 335.798462 140.375031
   vertex 417.775482 335.358215 138.934952
  endloop
 endfacet
 facet normal -1.000000 -0.000000 -0.000000
  outer loop
   vertex 417.775482 335.358215 138.934952
   vertex 417.775482 335.798462 140.375031
   vertex 417.775482 336.161987 138.689224
  endloop
 endfacet
 facet normal -0.000000 -0.292361 -0.956308
  outer loop
   vertex 417.775482 336.161987 138.689224
   vertex 418.775482 336.161987 138.689224
   vertex 417.775482 335.358215 138.934952
  endloop
 endfacet
 facet normal -0.000000 0.956304 -0.292375
  outer loop
   vertex 417.775482 336.602264 140.129288
   vertex 418.775482 336.161987 138.689224
   vertex 417.775482 336.161987 138.689224
  endloop
 endfacet
 facet normal -1.000000 0.000000 0.000000
  outer loop
   vertex 444.064667 336.602264 140.129318
   vertex 444.064667 336.161987 138.689255
   vertex 444.064667 335.798492 140.375061
  endloop
 endfacet
 facet normal -1.000000 -0.000000 -0.000000
  outer loop
   vertex 444.064667 335.798492 140.375061
   vertex 444.064667 336.161987 138.689255
   vertex 444.064667 335.358215 138.934998
  endloop
 endfacet
 facet normal 0.000000 -0.956304 0.292375
  outer loop
   vertex 444.064667 335.358215 138.934998
   vertex 445.064667 335.358215 138.934998
   vertex 444.064667 335.798492 140.375061
  endloop
 endfacet
 facet normal -0.000000 -0.292377 -0.956303
  outer loop
   vertex 444.064667 336.161987 138.689255
   vertex 445.064667 335.358215 138.934998
   vertex 444.064667 335.358215 138.934998
  endloop
 endfacet
 facet normal 0.000000 -0.292377 -0.956303
  outer loop
   vertex 445.064667 336.161987 138.689255
   vertex 445.064667 335.358215 138.934998
   vertex 444.064667 336.161987 138.689255
  endloop
 endfacet
 facet normal -0.000000 0.956304 -0.292375
  outer loop
   vertex 444.064667 336.161987 138.689255
   vertex 445.064667 336.602264 140.129318
   vertex 445.064667 336.161987 138.689255
  endloop
 endfacet
 facet normal 1.000000 0.000000 0.000000
  outer loop
   vertex 445.064667 336.161987 138.689255
   vertex 445.064667 336.602264 140.129318
   vertex 445.064667 335.358215 138.934998
  endloop
 endfacet
 facet normal 1.000000 0.000000 -0.000000
  outer loop
   vertex 445.064667 335.358215 138.934998
   vertex 445.064667 336.602264 140.129318
   vertex 445.064667 335.798492 140.375061
  endloop
 endfacet
 facet normal 0.000000 -0.956304 0.292375
  outer loop
   vertex 445.064667 335.798492 140.375061
   vertex 444.064667 335.798492 140.375061
   vertex 445.064667 335.358215 138.934998
  endloop
 endfacet
 facet normal -0.000000 0.292377 0.956303
  outer loop
   vertex 445.064667 336.602264 140.129318
   vertex 444.064667 335.798492 140.375061
   vertex 445.064667 335.798492 140.375061
  endloop
 endfacet
 facet normal 0.000000 0.292377 0.956303
  outer loop
   vertex 444.064667 336.602264 140.129318
   vertex 444.064667 335.798492 140.375061
   vertex 445.064667 336.602264 140.129318
  endloop
 endfacet
 facet normal -0.000000 0.956304 -0.292375
  outer loop
   vertex 445.064667 336.602264 140.129318
   vertex 444.064667 336.161987 138.689255
   vertex 444.064667 336.602264 140.129318
  endloop
 endfacet
 facet normal 0.000000 0.956342 -0.292249
  outer loop
   vertex 444.649353 336.179108 138.809280
   vertex 444.649353 336.149078 138.711014
   vertex 418.190826 336.149078 138.710983
  endloop
 endfacet
 facet normal 0.000001 -0.292422 -0.956289
  outer loop
   vertex 418.190826 336.149078 138.710983
   vertex 444.649353 336.149078 138.711014
   vertex 444.649353 336.021484 138.750031
  endloop
 endfacet
 facet normal 0.000002 -0.292317 -0.956321
  outer loop
   vertex 444.649353 336.021484 138.750031
   vertex 418.190826 336.021484 138.749985
   vertex 418.190826 336.149078 138.710983
  endloop
 endfacet
 facet normal 0.000000 -0.997561 -0.069798
  outer loop
   vertex 444.649353 336.019135 138.783615
   vertex 418.190826 336.021484 138.749985
   vertex 444.649353 336.021484 138.750031
  endloop
 endfacet
 facet normal 0.000000 -0.997561 -0.069798
  outer loop
   vertex 418.190826 336.019135 138.783569
   vertex 418.190826 336.021484 138.749985
   vertex 444.649353 336.019135 138.783615
  endloop
 endfacet
 facet normal 0.000002 -0.292348 -0.956312
  outer loop
   vertex 444.649353 336.019135 138.783615
   vertex 444.649353 335.469086 138.951767
   vertex 418.190826 336.019135 138.783569
  endloop
 endfacet
 facet normal 0.000001 -0.292372 -0.956305
  outer loop
   vertex 418.190826 336.019135 138.783569
   vertex 444.649353 335.469086 138.951767
   vertex 418.190796 335.469086 138.951736
  endloop
 endfacet
 facet normal 0.000001 0.787983 -0.615697
  outer loop
   vertex 418.190796 335.469086 138.951736
   vertex 444.649353 335.469086 138.951767
   vertex 444.649353 335.448364 138.925247
  endloop
 endfacet
 facet normal 0.000001 0.787983 -0.615697
  outer loop
   vertex 444.649353 335.448364 138.925247
   vertex 418.190796 335.448364 138.925217
   vertex 418.190796 335.469086 138.951736
  endloop
 endfacet
 facet normal 0.000001 -0.292336 -0.956316
  outer loop
   vertex 444.649353 335.385071 138.944595
   vertex 418.190796 335.448364 138.925217
   vertex 444.649353 335.448364 138.925247
  endloop
 endfacet
 facet normal 0.000001 -0.292207 -0.956355
  outer loop
   vertex 418.190796 335.385040 138.944565
   vertex 418.190796 335.448364 138.925217
   vertex 444.649353 335.385071 138.944595
  endloop
 endfacet
 facet normal 0.000001 -0.956307 0.292363
  outer loop
   vertex 444.649353 335.385071 138.944595
   vertex 444.649323 335.815369 140.352081
   vertex 418.190796 335.385040 138.944565
  endloop
 endfacet
 facet normal -0.000001 -0.956301 0.292385
  outer loop
   vertex 418.190796 335.385040 138.944565
   vertex 444.649323 335.815369 140.352081
   vertex 418.190796 335.815369 140.352036
  endloop
 endfacet
 facet normal -0.000002 0.292336 0.956316
  outer loop
   vertex 418.190796 335.815369 140.352036
   vertex 444.649323 335.815369 140.352081
   vertex 418.190796 335.878662 140.332687
  endloop
 endfacet
 facet normal 0.000000 0.292367 0.956306
  outer loop
   vertex 418.775482 335.798462 140.375031
   vertex 418.775482 336.602264 140.129288
   vertex 417.775482 335.798462 140.375031
  endloop
 endfacet
 facet normal -0.000000 -0.292361 -0.956308
  outer loop
   vertex 418.775482 336.161987 138.689224
   vertex 418.775482 335.358215 138.934952
   vertex 417.775482 335.358215 138.934952
  endloop
 endfacet
 facet normal -0.000001 0.292547 0.956251
  outer loop
   vertex 444.649323 335.815369 140.352081
   vertex 444.649323 335.878662 140.332718
   vertex 418.190796 335.878662 140.332687
  endloop
 endfacet
 facet normal 0.759415 0.452735 -0.467247
  outer loop
   vertex 444.780060 334.678894 139.930008
   vertex 445.530060 333.722595 140.222382
   vertex 444.706848 334.627228 139.760956
  endloop
 endfacet
 facet normal 0.759403 0.452695 -0.467305
  outer loop
   vertex 444.706848 334.627228 139.760956
   vertex 445.530060 333.722595 140.222382
   vertex 445.237183 333.515869 139.546173
  endloop
 endfacet
 facet normal 0.314507 0.322616 -0.892751
  outer loop
   vertex 445.237183 333.515869 139.546173
   vertex 444.530060 334.605804 139.690933
   vertex 444.706848 334.627228 139.760956
  endloop
 endfacet
 facet normal 0.314539 0.322634 -0.892733
  outer loop
   vertex 444.530060 333.430237 139.266083
   vertex 444.530060 334.605804 139.690933
   vertex 445.237183 333.515869 139.546173
  endloop
 endfacet
 facet normal -0.314551 0.322633 -0.892729
  outer loop
   vertex 444.353302 334.627228 139.760956
   vertex 444.530060 334.605804 139.690933
   vertex 444.530060 333.430237 139.266083
  endloop
 endfacet
 facet normal -0.314552 0.322632 -0.892729
  outer loop
   vertex 444.530060 333.430237 139.266083
   vertex 443.822968 333.515869 139.546173
   vertex 444.353302 334.627228 139.760956
  endloop
 endfacet
 facet normal -0.759375 0.452691 -0.467354
  outer loop
   vertex 444.353302 334.627228 139.760956
   vertex 443.822968 333.515869 139.546173
   vertex 444.280060 334.678894 139.930008
  endloop
 endfacet
 facet normal -0.759390 0.452690 -0.467332
  outer loop
   vertex 444.280060 334.678894 139.930008
   vertex 443.822968 333.515869 139.546173
   vertex 443.530060 333.722595 140.222382
  endloop
 endfacet
 facet normal -0.759382 0.636630 0.134320
  outer loop
   vertex 443.530060 333.722595 140.222382
   vertex 444.353302 334.730591 140.099060
   vertex 444.280060 334.678894 139.930008
  endloop
 endfacet
 facet normal -0.759384 0.636630 0.134310
  outer loop
   vertex 443.822968 333.929321 140.898590
   vertex 444.353302 334.730591 140.099060
   vertex 443.530060 333.722595 140.222382
  endloop
 endfacet
 facet normal -0.314522 0.766675 0.559718
  outer loop
   vertex 444.530060 334.751984 140.169083
   vertex 444.353302 334.730591 140.099060
   vertex 443.822968 333.929321 140.898590
  endloop
 endfacet
 facet normal -0.314562 0.766682 0.559687
  outer loop
   vertex 443.822968 333.929321 140.898590
   vertex 444.530060 334.014954 141.178696
   vertex 444.530060 334.751984 140.169083
  endloop
 endfacet
 facet normal 0.314467 0.766707 0.559706
  outer loop
   vertex 444.530060 334.751984 140.169083
   vertex 444.530060 334.014954 141.178696
   vertex 444.706848 334.730591 140.099060
  endloop
 endfacet
 facet normal 0.314553 0.766677 0.559700
  outer loop
   vertex 444.706848 334.730591 140.099060
   vertex 444.530060 334.014954 141.178696
   vertex 445.237183 333.929321 140.898590
  endloop
 endfacet
 facet normal 0.759440 0.636581 0.134223
  outer loop
   vertex 445.237183 333.929321 140.898590
   vertex 444.780060 334.678894 139.930008
   vertex 444.706848 334.730591 140.099060
  endloop
 endfacet
 facet normal 0.759392 0.636626 0.134280
  outer loop
   vertex 445.530060 333.722595 140.222382
   vertex 444.780060 334.678894 139.930008
   vertex 445.237183 333.929321 140.898590
  endloop
 endfacet
 facet normal 0.923847 -0.111910 -0.366036
  outer loop
   vertex 418.560089 335.625610 139.640533
   vertex 418.560089 334.669312 139.932907
   vertex 418.486847 335.573914 139.471481
  endloop
 endfacet
 facet normal 0.923847 -0.111910 -0.366036
  outer loop
   vertex 418.486847 335.573914 139.471481
   vertex 418.560089 334.669312 139.932907
   vertex 418.486847 334.617615 139.763855
  endloop
 endfacet
 facet normal 0.382693 -0.270118 -0.883506
  outer loop
   vertex 418.486847 334.617615 139.763855
   vertex 418.310089 335.552521 139.401459
   vertex 418.486847 335.573914 139.471481
  endloop
 endfacet
 facet normal 0.382733 -0.270106 -0.883492
  outer loop
   vertex 418.310089 334.596191 139.693832
   vertex 418.310089 335.552521 139.401459
   vertex 418.486847 334.617615 139.763855
  endloop
 endfacet
 facet normal -0.382636 -0.270117 -0.883530
  outer loop
   vertex 418.133301 335.573914 139.471481
   vertex 418.310089 335.552521 139.401459
   vertex 418.310089 334.596191 139.693832
  endloop
 endfacet
 facet normal -0.382676 -0.270120 -0.883512
  outer loop
   vertex 418.310089 334.596191 139.693832
   vertex 418.133301 334.617615 139.763855
   vertex 418.133301 335.573914 139.471481
  endloop
 endfacet
 facet normal -0.923904 -0.111870 -0.365906
  outer loop
   vertex 418.133301 335.573914 139.471481
   vertex 418.133301 334.617615 139.763855
   vertex 418.060089 335.625610 139.640533
  endloop
 endfacet
 facet normal -0.923904 -0.111870 -0.365906
  outer loop
   vertex 418.060089 335.625610 139.640533
   vertex 418.133301 334.617615 139.763855
   vertex 418.060089 334.669312 139.932907
  endloop
 endfacet
 facet normal -0.923897 0.111875 0.365922
  outer loop
   vertex 418.060089 334.669312 139.932907
   vertex 418.133301 335.677277 139.809586
   vertex 418.060089 335.625610 139.640533
  endloop
 endfacet
 facet normal -0.923897 0.111875 0.365922
  outer loop
   vertex 418.133301 334.720978 140.101959
   vertex 418.133301 335.677277 139.809586
   vertex 418.060089 334.669312 139.932907
  endloop
 endfacet
 facet normal -0.382741 0.270112 0.883486
  outer loop
   vertex 418.310089 335.698700 139.879623
   vertex 418.133301 335.677277 139.809586
   vertex 418.133301 334.720978 140.101959
  endloop
 endfacet
 facet normal -0.382676 0.270107 0.883516
  outer loop
   vertex 418.133301 334.720978 140.101959
   vertex 418.310089 334.742401 140.171982
   vertex 418.310089 335.698700 139.879623
  endloop
 endfacet
 facet normal 0.382733 0.270101 0.883494
  outer loop
   vertex 418.310089 335.698700 139.879623
   vertex 418.310089 334.742401 140.171982
   vertex 418.486847 335.677277 139.809601
  endloop
 endfacet
 facet normal 0.382733 0.270101 0.883494
  outer loop
   vertex 418.486847 335.677277 139.809601
   vertex 418.310089 334.742401 140.171982
   vertex 418.486847 334.720978 140.101959
  endloop
 endfacet
 facet normal 0.923852 0.111902 0.366028
  outer loop
   vertex 418.486847 334.720978 140.101959
   vertex 418.560089 335.625610 139.640533
   vertex 418.486847 335.677277 139.809601
  endloop
 endfacet
 facet normal 0.923840 0.111915 0.366052
  outer loop
   vertex 418.560089 334.669312 139.932907
   vertex 418.560089 335.625610 139.640533
   vertex 418.486847 334.720978 140.101959
  endloop
 endfacet
 facet normal 0.923874 -0.111891 -0.365975
  outer loop
   vertex 419.310089 333.722595 140.222351
   vertex 419.310089 332.766296 140.514725
   vertex 419.017181 333.515839 139.546143
  endloop
 endfacet
 facet normal 0.923874 -0.111891 -0.365975
  outer loop
   vertex 419.017181 333.515839 139.546143
   vertex 419.310089 332.766296 140.514725
   vertex 419.017181 332.559540 139.838516
  endloop
 endfacet
 facet normal 0.382701 -0.270117 -0.883503
  outer loop
   vertex 419.017181 332.559540 139.838516
   vertex 418.310089 333.430206 139.266037
   vertex 419.017181 333.515839 139.546143
  endloop
 endfacet
 facet normal 0.382701 -0.270117 -0.883503
  outer loop
   vertex 418.310089 332.473907 139.558411
   vertex 418.310089 333.430206 139.266037
   vertex 419.017181 332.559540 139.838516
  endloop
 endfacet
 facet normal -0.382687 -0.270119 -0.883508
  outer loop
   vertex 417.602966 333.515839 139.546143
   vertex 418.310089 333.430206 139.266037
   vertex 418.310089 332.473907 139.558411
  endloop
 endfacet
 facet normal -0.382670 -0.270108 -0.883519
  outer loop
   vertex 418.310089 332.473907 139.558411
   vertex 417.602966 332.559540 139.838501
   vertex 417.602966 333.515839 139.546143
  endloop
 endfacet
 facet normal -0.923888 -0.111876 -0.365944
  outer loop
   vertex 417.602966 333.515839 139.546143
   vertex 417.602966 332.559540 139.838501
   vertex 417.310089 333.722595 140.222351
  endloop
 endfacet
 facet normal -0.923891 -0.111879 -0.365936
  outer loop
   vertex 417.310089 333.722595 140.222351
   vertex 417.602966 332.559540 139.838501
   vertex 417.310089 332.766296 140.514725
  endloop
 endfacet
 facet normal -0.923886 0.111883 0.365946
  outer loop
   vertex 417.310089 332.766296 140.514725
   vertex 417.602966 333.929321 140.898560
   vertex 417.310089 333.722595 140.222351
  endloop
 endfacet
 facet normal -0.923886 0.111883 0.365946
  outer loop
   vertex 417.602966 332.973022 141.190933
   vertex 417.602966 333.929321 140.898560
   vertex 417.310089 332.766296 140.514725
  endloop
 endfacet
 facet normal -0.382685 0.270119 0.883509
  outer loop
   vertex 418.310059 334.014954 141.178650
   vertex 417.602966 333.929321 140.898560
   vertex 417.602966 332.973022 141.190933
  endloop
 endfacet
 facet normal -0.382685 0.270119 0.883509
  outer loop
   vertex 417.602966 332.973022 141.190933
   vertex 418.310059 333.058655 141.471024
   vertex 418.310059 334.014954 141.178650
  endloop
 endfacet
 facet normal 0.382670 0.270121 0.883515
  outer loop
   vertex 418.310059 334.014954 141.178650
   vertex 418.310059 333.058655 141.471024
   vertex 419.017181 333.929321 140.898560
  endloop
 endfacet
 facet normal 0.382670 0.270121 0.883515
  outer loop
   vertex 419.017181 333.929321 140.898560
   vertex 418.310059 333.058655 141.471024
   vertex 419.017181 332.973022 141.190933
  endloop
 endfacet
 facet normal 0.923872 0.111892 0.365979
  outer loop
   vertex 419.017181 332.973022 141.190933
   vertex 419.310089 333.722595 140.222351
   vertex 419.017181 333.929321 140.898560
  endloop
 endfacet
 facet normal 0.923872 0.111892 0.365979
  outer loop
   vertex 419.310089 332.766296 140.514725
   vertex 419.310089 333.722595 140.222351
   vertex 419.017181 332.973022 141.190933
  endloop
 endfacet
 facet normal 0.759365 0.452644 -0.467417
  outer loop
   vertex 418.560089 334.678894 139.929977
   vertex 419.310089 333.722595 140.222351
   vertex 418.486847 334.627197 139.760925
  endloop
 endfacet
 facet normal 0.759379 0.452692 -0.467348
  outer loop
   vertex 418.486847 334.627197 139.760925
   vertex 419.310089 333.722595 140.222351
   vertex 419.017181 333.515839 139.546143
  endloop
 endfacet
 facet normal 0.314596 0.322649 -0.892708
  outer loop
   vertex 419.017181 333.515839 139.546143
   vertex 418.310089 334.605804 139.690903
   vertex 418.486847 334.627197 139.760925
  endloop
 endfacet
 facet normal 0.314568 0.322634 -0.892723
  outer loop
   vertex 418.310089 333.430206 139.266037
   vertex 418.310089 334.605804 139.690903
   vertex 419.017181 333.515839 139.546143
  endloop
 endfacet
 facet normal -0.314552 0.322635 -0.892728
  outer loop
   vertex 418.133301 334.627197 139.760925
   vertex 418.310089 334.605804 139.690903
   vertex 418.310089 333.430206 139.266037
  endloop
 endfacet
 facet normal -0.314556 0.322634 -0.892727
  outer loop
   vertex 418.310089 333.430206 139.266037
   vertex 417.602966 333.515839 139.546143
   vertex 418.133301 334.627197 139.760925
  endloop
 endfacet
 facet normal -0.759400 0.452695 -0.467310
  outer loop
   vertex 418.133301 334.627197 139.760925
   vertex 417.602966 333.515839 139.546143
   vertex 418.060089 334.678894 139.929977
  endloop
 endfacet
 facet normal -0.759393 0.452696 -0.467321
  outer loop
   vertex 418.060089 334.678894 139.929977
   vertex 417.602966 333.515839 139.546143
   vertex 417.310089 333.722595 140.222351
  endloop
 endfacet
 facet normal -0.759413 0.636617 0.134200
  outer loop
   vertex 417.310089 333.722595 140.222351
   vertex 418.133301 334.730591 140.099030
   vertex 418.060089 334.678894 139.929977
  endloop
 endfacet
 facet normal -0.759399 0.636616 0.134286
  outer loop
   vertex 417.602966 333.929321 140.898560
   vertex 418.133301 334.730591 140.099030
   vertex 417.310089 333.722595 140.222351
  endloop
 endfacet
 facet normal -0.314479 0.766674 0.559745
  outer loop
   vertex 418.310089 334.751984 140.169052
   vertex 418.133301 334.730591 140.099030
   vertex 417.602966 333.929321 140.898560
  endloop
 endfacet
 facet normal -0.314551 0.766685 0.559689
  outer loop
   vertex 417.602966 333.929321 140.898560
   vertex 418.310059 334.014954 141.178650
   vertex 418.310089 334.751984 140.169052
  endloop
 endfacet
 facet normal 0.314519 0.766685 0.559707
  outer loop
   vertex 418.310089 334.751984 140.169052
   vertex 418.310059 334.014954 141.178650
   vertex 418.486847 334.730591 140.099030
  endloop
 endfacet
 facet normal 0.314543 0.766676 0.559706
  outer loop
   vertex 418.486847 334.730591 140.099030
   vertex 418.310059 334.014954 141.178650
   vertex 419.017181 333.929321 140.898560
  endloop
 endfacet
 facet normal 0.759379 0.636634 0.134317
  outer loop
   vertex 419.017181 333.929321 140.898560
   vertex 418.560089 334.678894 139.929977
   vertex 418.486847 334.730591 140.099030
  endloop
 endfacet
 facet normal 0.759384 0.636629 0.134310
  outer loop
   vertex 419.310089 333.722595 140.222351
   vertex 418.560089 334.678894 139.929977
   vertex 419.017181 333.929321 140.898560
  endloop
 endfacet
 facet normal 0.923904 -0.111870 -0.365906
  outer loop
   vertex 444.780060 335.625610 139.640579
   vertex 444.780060 334.669312 139.932953
   vertex 444.706848 335.573914 139.471527
  endloop
 endfacet
 facet normal 0.923904 -0.111870 -0.365906
  outer loop
   vertex 444.706848 335.573914 139.471527
   vertex 444.780060 334.669312 139.932953
   vertex 444.706848 334.617615 139.763901
  endloop
 endfacet
 facet normal 0.382636 -0.270125 -0.883528
  outer loop
   vertex 444.706848 334.617615 139.763901
   vertex 444.530060 335.552521 139.401505
   vertex 444.706848 335.573914 139.471527
  endloop
 endfacet
 facet normal 0.382636 -0.270125 -0.883528
  outer loop
   vertex 444.530060 334.596222 139.693878
   vertex 444.530060 335.552521 139.401505
   vertex 444.706848 334.617615 139.763901
  endloop
 endfacet
 facet normal -0.382693 -0.270118 -0.883506
  outer loop
   vertex 444.353302 335.573914 139.471527
   vertex 444.530060 335.552521 139.401505
   vertex 444.530060 334.596222 139.693878
  endloop
 endfacet
 facet normal -0.382693 -0.270118 -0.883506
  outer loop
   vertex 444.530060 334.596222 139.693878
   vertex 444.353302 334.617615 139.763901
   vertex 444.353302 335.573914 139.471527
  endloop
 endfacet
 facet normal -0.923847 -0.111910 -0.366036
  outer loop
   vertex 444.353302 335.573914 139.471527
   vertex 444.353302 334.617615 139.763901
   vertex 444.280060 335.625610 139.640579
  endloop
 endfacet
 facet normal -0.923847 -0.111910 -0.366036
  outer loop
   vertex 444.280060 335.625610 139.640579
   vertex 444.353302 334.617615 139.763901
   vertex 444.280060 334.669312 139.932953
  endloop
 endfacet
 facet normal -0.923840 0.111915 0.366052
  outer loop
   vertex 444.280060 334.669312 139.932953
   vertex 444.353302 335.677277 139.809631
   vertex 444.280060 335.625610 139.640579
  endloop
 endfacet
 facet normal -0.923840 0.111915 0.366052
  outer loop
   vertex 444.353302 334.720978 140.102005
   vertex 444.353302 335.677277 139.809631
   vertex 444.280060 334.669312 139.932953
  endloop
 endfacet
 facet normal -0.382733 0.270113 0.883490
  outer loop
   vertex 444.530060 335.698700 139.879654
   vertex 444.353302 335.677277 139.809631
   vertex 444.353302 334.720978 140.102005
  endloop
 endfacet
 facet normal -0.382733 0.270113 0.883490
  outer loop
   vertex 444.353302 334.720978 140.102005
   vertex 444.530060 334.742401 140.172028
   vertex 444.530060 335.698700 139.879654
  endloop
 endfacet
 facet normal 0.382676 0.270120 0.883512
  outer loop
   vertex 444.530060 335.698700 139.879654
   vertex 444.530060 334.742401 140.172028
   vertex 444.706848 335.677277 139.809631
  endloop
 endfacet
 facet normal 0.382676 0.270120 0.883512
  outer loop
   vertex 444.706848 335.677277 139.809631
   vertex 444.530060 334.742401 140.172028
   vertex 444.706848 334.720978 140.102005
  endloop
 endfacet
 facet normal 0.923897 0.111875 0.365922
  outer loop
   vertex 444.706848 334.720978 140.102005
   vertex 444.780060 335.625610 139.640579
   vertex 444.706848 335.677277 139.809631
  endloop
 endfacet
 facet normal 0.923897 0.111875 0.365922
  outer loop
   vertex 444.780060 334.669312 139.932953
   vertex 444.780060 335.625610 139.640579
   vertex 444.706848 334.720978 140.102005
  endloop
 endfacet
 facet normal 0.923886 0.111883 0.365946
  outer loop
   vertex 445.237183 333.929321 140.898590
   vertex 445.237183 332.973022 141.190964
   vertex 445.530060 333.722595 140.222382
  endloop
 endfacet
 facet normal 0.923886 0.111883 0.365946
  outer loop
   vertex 445.530060 333.722595 140.222382
   vertex 445.237183 332.973022 141.190964
   vertex 445.530060 332.766296 140.514755
  endloop
 endfacet
 facet normal 0.923886 -0.111883 -0.365946
  outer loop
   vertex 445.530060 332.766296 140.514755
   vertex 445.237183 333.515869 139.546173
   vertex 445.530060 333.722595 140.222382
  endloop
 endfacet
 facet normal 0.923888 -0.111878 -0.365944
  outer loop
   vertex 445.237183 332.559540 139.838547
   vertex 445.237183 333.515869 139.546173
   vertex 445.530060 332.766296 140.514755
  endloop
 endfacet
 facet normal 0.382670 -0.270113 -0.883517
  outer loop
   vertex 444.530060 333.430237 139.266083
   vertex 445.237183 333.515869 139.546173
   vertex 445.237183 332.559540 139.838547
  endloop
 endfacet
 facet normal 0.382670 -0.270113 -0.883517
  outer loop
   vertex 445.237183 332.559540 139.838547
   vertex 444.530060 332.473907 139.558456
   vertex 444.530060 333.430237 139.266083
  endloop
 endfacet
 facet normal -0.382685 -0.270111 -0.883511
  outer loop
   vertex 444.530060 333.430237 139.266083
   vertex 444.530060 332.473907 139.558456
   vertex 443.822968 333.515869 139.546173
  endloop
 endfacet
 facet normal -0.382685 -0.270111 -0.883511
  outer loop
   vertex 443.822968 333.515869 139.546173
   vertex 444.530060 332.473907 139.558456
   vertex 443.822968 332.559540 139.838547
  endloop
 endfacet
 facet normal -0.923872 -0.111889 -0.365980
  outer loop
   vertex 443.822968 332.559540 139.838547
   vertex 443.530060 333.722595 140.222382
   vertex 443.822968 333.515869 139.546173
  endloop
 endfacet
 facet normal -0.923874 -0.111891 -0.365975
  outer loop
   vertex 443.530060 332.766296 140.514755
   vertex 443.530060 333.722595 140.222382
   vertex 443.822968 332.559540 139.838547
  endloop
 endfacet
 facet normal -0.923872 0.111892 0.365979
  outer loop
   vertex 443.822968 333.929321 140.898590
   vertex 443.530060 333.722595 140.222382
   vertex 443.530060 332.766296 140.514755
  endloop
 endfacet
 facet normal -0.923872 0.111892 0.365979
  outer loop
   vertex 443.530060 332.766296 140.514755
   vertex 443.822968 332.973022 141.190964
   vertex 443.822968 333.929321 140.898590
  endloop
 endfacet
 facet normal -0.382701 0.270117 0.883503
  outer loop
   vertex 443.822968 333.929321 140.898590
   vertex 443.822968 332.973022 141.190964
   vertex 444.530060 334.014954 141.178696
  endloop
 endfacet
 facet normal -0.382685 0.270106 0.883513
  outer loop
   vertex 444.530060 334.014954 141.178696
   vertex 443.822968 332.973022 141.190964
   vertex 444.530060 333.058655 141.471054
  endloop
 endfacet
 facet normal 0.382687 0.270106 0.883512
  outer loop
   vertex 444.530060 333.058655 141.471054
   vertex 445.237183 333.929321 140.898590
   vertex 444.530060 334.014954 141.178696
  endloop
 endfacet
 facet normal 0.382670 0.270121 0.883515
  outer loop
   vertex 445.237183 332.973022 141.190964
   vertex 445.237183 333.929321 140.898590
   vertex 444.530060 333.058655 141.471054
  endloop
 endfacet
endsolid