solid stl file generated from DOUG
 facet normal -0.482228 0.000000 -0.876046
  outer loop
   vertex 470.029633 137.225143 108.503510
   vertex 470.148926 137.225143 108.437843
   vertex 470.148926 120.547775 108.437836
  endloop
 endfacet
 facet normal 0.418535 0.000000 -0.908200
  outer loop
   vertex 470.148926 120.547775 108.437836
   vertex 470.148926 137.225143 108.437843
   vertex 470.242249 120.547775 108.480843
  endloop
 endfacet
 facet normal 0.979269 0.000000 -0.202565
  outer loop
   vertex 469.026520 120.547775 108.041145
   vertex 468.998932 120.547775 107.907776
   vertex 468.998932 137.225143 107.907791
  endloop
 endfacet
 facet normal 0.418597 0.000001 -0.908172
  outer loop
   vertex 468.998932 137.225143 107.907791
   vertex 468.998932 120.547775 107.907776
   vertex 468.905609 120.547775 107.864761
  endloop
 endfacet
 facet normal 0.418597 0.000001 -0.908172
  outer loop
   vertex 468.905609 120.547775 107.864761
   vertex 468.905609 137.225143 107.864777
   vertex 468.998932 137.225143 107.907791
  endloop
 endfacet
 facet normal 0.064804 0.000001 -0.997898
  outer loop
   vertex 468.598907 120.547775 108.530205
   vertex 468.598907 137.225143 108.530220
   vertex 468.632507 120.547775 108.532387
  endloop
 endfacet
 facet normal 0.064804 0.000001 -0.997898
  outer loop
   vertex 468.632507 120.547775 108.532387
   vertex 468.598907 137.225143 108.530220
   vertex 468.632507 137.225143 108.532402
  endloop
 endfacet
 facet normal -0.908175 0.000000 -0.418590
  outer loop
   vertex 468.632507 137.225143 108.532402
   vertex 468.873260 137.225143 108.010063
   vertex 468.632507 120.547775 108.532387
  endloop
 endfacet
 facet normal -0.482185 0.000001 -0.876069
  outer loop
   vertex 470.148926 120.547775 108.437836
   vertex 470.029633 120.547775 108.503494
   vertex 470.029633 137.225143 108.503510
  endloop
 endfacet
 facet normal 0.418591 0.000001 -0.908175
  outer loop
   vertex 470.029633 137.225143 108.503510
   vertex 470.029633 120.547775 108.503494
   vertex 469.026520 120.547775 108.041145
  endloop
 endfacet
 facet normal 0.418596 0.000000 -0.908172
  outer loop
   vertex 469.026520 120.547775 108.041145
   vertex 469.026520 137.225143 108.041153
   vertex 470.029633 137.225143 108.503510
  endloop
 endfacet
 facet normal 0.979267 0.000000 -0.202576
  outer loop
   vertex 468.998932 137.225143 107.907791
   vertex 469.026520 137.225143 108.041153
   vertex 469.026520 120.547775 108.041145
  endloop
 endfacet
 facet normal -0.908170 0.000000 -0.418601
  outer loop
   vertex 468.905609 137.225143 107.864777
   vertex 468.905609 120.547775 107.864761
   vertex 468.849762 137.225143 107.985939
  endloop
 endfacet
 facet normal -0.908180 0.000000 -0.418579
  outer loop
   vertex 468.849762 137.225143 107.985939
   vertex 468.905609 120.547775 107.864761
   vertex 468.849762 120.547775 107.985931
  endloop
 endfacet
 facet normal -0.716334 -0.000000 0.697757
  outer loop
   vertex 468.849762 120.547775 107.985931
   vertex 468.873260 137.225143 108.010063
   vertex 468.849762 137.225143 107.985939
  endloop
 endfacet
 facet normal -0.716224 -0.000001 0.697871
  outer loop
   vertex 468.873260 120.547775 108.010048
   vertex 468.873260 137.225143 108.010063
   vertex 468.849762 120.547775 107.985931
  endloop
 endfacet
 facet normal -0.908175 0.000000 -0.418590
  outer loop
   vertex 468.632507 120.547775 108.532387
   vertex 468.873260 137.225143 108.010063
   vertex 468.873260 120.547775 108.010048
  endloop
 endfacet
 facet normal 0.000000 -1.000000 0.000000
  outer loop
   vertex 470.265564 120.181129 108.470985
   vertex 468.546143 120.181129 108.603958
   vertex 468.897980 120.181129 107.840637
  endloop
 endfacet
 facet normal -0.908170 -0.000000 -0.418602
  outer loop
   vertex 468.897980 120.181129 107.840637
   vertex 468.546143 120.181129 108.603958
   vertex 468.897980 121.181129 107.840637
  endloop
 endfacet
 facet normal 0.418596 0.000000 -0.908173
  outer loop
   vertex 468.897980 121.181129 107.840637
   vertex 470.265564 121.181129 108.470985
   vertex 468.897980 120.181129 107.840637
  endloop
 endfacet
 facet normal 0.000000 1.000000 -0.000000
  outer loop
   vertex 468.546143 121.181129 108.603958
   vertex 470.265564 121.181129 108.470985
   vertex 468.897980 121.181129 107.840637
  endloop
 endfacet
 facet normal 0.000000 1.000000 0.000000
  outer loop
   vertex 469.913727 121.181129 109.234306
   vertex 470.265564 121.181129 108.470985
   vertex 468.546143 121.181129 108.603958
  endloop
 endfacet
 facet normal -0.418596 -0.000000 0.908173
  outer loop
   vertex 468.546143 121.181129 108.603958
   vertex 468.546143 120.181129 108.603958
   vertex 469.913727 121.181129 109.234306
  endloop
 endfacet
 facet normal -0.418596 0.000000 0.908173
  outer loop
   vertex 469.913727 121.181129 109.234306
   vertex 468.546143 120.181129 108.603958
   vertex 469.913727 120.181129 109.234306
  endloop
 endfacet
 facet normal 0.000000 -1.000000 -0.000000
  outer loop
   vertex 469.913727 120.181129 109.234306
   vertex 468.546143 120.181129 108.603958
   vertex 470.265564 120.181129 108.470985
  endloop
 endfacet
 facet normal 0.908170 0.000000 0.418602
  outer loop
   vertex 470.265564 120.181129 108.470985
   vertex 470.265564 121.181129 108.470985
   vertex 469.913727 120.181129 109.234306
  endloop
 endfacet
 facet normal 0.418596 -0.000000 -0.908173
  outer loop
   vertex 468.897980 120.181129 107.840637
   vertex 470.265564 121.181129 108.470985
   vertex 470.265564 120.181129 108.470985
  endloop
 endfacet
 facet normal -0.000002 -1.000000 -0.000021
  outer loop
   vertex 468.897980 136.591797 107.840652
   vertex 470.265564 136.591782 108.471001
   vertex 468.546143 136.591782 108.603973
  endloop
 endfacet
 facet normal -0.000000 -1.000000 -0.000000
  outer loop
   vertex 468.546143 136.591782 108.603973
   vertex 470.265564 136.591782 108.471001
   vertex 469.913727 136.591782 109.234322
  endloop
 endfacet
 facet normal -0.418596 0.000000 0.908173
  outer loop
   vertex 469.913727 136.591782 109.234322
   vertex 469.913727 137.591782 109.234322
   vertex 468.546143 136.591782 108.603973
  endloop
 endfacet
 facet normal 0.908170 0.000000 0.418602
  outer loop
   vertex 470.265564 136.591782 108.471001
   vertex 469.913727 137.591782 109.234322
   vertex 469.913727 136.591782 109.234322
  endloop
 endfacet
 facet normal 0.908170 0.000000 0.418602
  outer loop
   vertex 470.265564 137.591782 108.471001
   vertex 469.913727 137.591782 109.234322
   vertex 470.265564 136.591782 108.471001
  endloop
 endfacet
 facet normal 0.418596 -0.000000 -0.908173
  outer loop
   vertex 470.265564 136.591782 108.471001
   vertex 468.897980 137.591782 107.840652
   vertex 470.265564 137.591782 108.471001
  endloop
 endfacet
 facet normal 0.000000 1.000000 0.000000
  outer loop
   vertex 470.265564 137.591782 108.471001
   vertex 468.897980 137.591782 107.840652
   vertex 469.913727 137.591782 109.234322
  endloop
 endfacet
 facet normal -0.000000 1.000000 -0.000000
  outer loop
   vertex 469.913727 137.591782 109.234322
   vertex 468.897980 137.591782 107.840652
   vertex 468.546143 137.591782 108.603973
  endloop
 endfacet
 facet normal -0.418596 0.000000 0.908173
  outer loop
   vertex 468.546143 137.591782 108.603973
   vertex 468.546143 136.591782 108.603973
   vertex 469.913727 137.591782 109.234322
  endloop
 endfacet
 facet normal -0.908170 0.000000 -0.418602
  outer loop
   vertex 468.897980 137.591782 107.840652
   vertex 468.546143 136.591782 108.603973
   vertex 468.546143 137.591782 108.603973
  endloop
 endfacet
 facet normal -0.908170 0.000000 -0.418602
  outer loop
   vertex 468.897980 136.591797 107.840652
   vertex 468.546143 136.591782 108.603973
   vertex 468.897980 137.591782 107.840652
  endloop
 endfacet
 facet normal 0.418596 -0.000000 -0.908173
  outer loop
   vertex 468.897980 137.591782 107.840652
   vertex 470.265564 136.591782 108.471001
   vertex 468.897980 136.591797 107.840652
  endloop
 endfacet
 facet normal 0.418597 0.000001 -0.908172
  outer loop
   vertex 470.148926 137.225143 108.437843
   vertex 470.242249 137.225143 108.480858
   vertex 470.242249 120.547775 108.480843
  endloop
 endfacet
 facet normal 0.908180 -0.000000 0.418579
  outer loop
   vertex 470.242249 120.547775 108.480843
   vertex 470.242249 137.225143 108.480858
   vertex 470.186401 137.225143 108.602028
  endloop
 endfacet
 facet normal 0.908180 -0.000000 0.418579
  outer loop
   vertex 470.186401 137.225143 108.602028
   vertex 470.186401 120.547775 108.602013
   vertex 470.242249 120.547775 108.480843
  endloop
 endfacet
 facet normal -0.065030 -0.000001 0.997883
  outer loop
   vertex 470.152802 137.225143 108.599838
   vertex 470.186401 120.547775 108.602013
   vertex 470.186401 137.225143 108.602028
  endloop
 endfacet
 facet normal -0.065030 -0.000001 0.997883
  outer loop
   vertex 470.152802 120.547775 108.599823
   vertex 470.186401 120.547775 108.602013
   vertex 470.152802 137.225143 108.599838
  endloop
 endfacet
 facet normal 0.908175 -0.000000 0.418590
  outer loop
   vertex 470.152802 137.225143 108.599838
   vertex 469.912048 137.225143 109.122177
   vertex 470.152802 120.547775 108.599823
  endloop
 endfacet
 facet normal 0.908177 -0.000000 0.418585
  outer loop
   vertex 470.152802 120.547775 108.599823
   vertex 469.912048 137.225143 109.122177
   vertex 469.912048 120.547775 109.122169
  endloop
 endfacet
 facet normal 0.716334 0.000000 -0.697757
  outer loop
   vertex 469.912048 120.547775 109.122169
   vertex 469.912048 137.225143 109.122177
   vertex 469.935547 137.225143 109.146301
  endloop
 endfacet
 facet normal 0.716224 0.000001 -0.697871
  outer loop
   vertex 469.935547 137.225143 109.146301
   vertex 469.935547 120.547775 109.146286
   vertex 469.912048 120.547775 109.122169
  endloop
 endfacet
 facet normal 0.908175 -0.000000 0.418590
  outer loop
   vertex 469.907837 137.225143 109.206421
   vertex 469.935547 120.547775 109.146286
   vertex 469.935547 137.225143 109.146301
  endloop
 endfacet
 facet normal 0.908175 -0.000000 0.418590
  outer loop
   vertex 469.907837 120.547775 109.206406
   vertex 469.935547 120.547775 109.146286
   vertex 469.907837 137.225143 109.206421
  endloop
 endfacet
 facet normal -0.418594 -0.000001 0.908174
  outer loop
   vertex 469.907837 137.225143 109.206421
   vertex 468.571198 137.225143 108.590340
   vertex 469.907837 120.547775 109.206406
  endloop
 endfacet
 facet normal -0.418594 -0.000001 0.908174
  outer loop
   vertex 469.907837 120.547775 109.206406
   vertex 468.571198 137.225143 108.590340
   vertex 468.571198 120.547775 108.590324
  endloop
 endfacet
 facet normal -0.908175 0.000000 -0.418590
  outer loop
   vertex 468.571198 120.547775 108.590324
   vertex 468.571198 137.225143 108.590340
   vertex 468.598907 120.547775 108.530205
  endloop
 endfacet
 facet normal -0.908170 0.000000 -0.418602
  outer loop
   vertex 468.546143 121.181129 108.603958
   vertex 468.897980 121.181129 107.840637
   vertex 468.546143 120.181129 108.603958
  endloop
 endfacet
 facet normal 0.908170 0.000000 0.418602
  outer loop
   vertex 470.265564 121.181129 108.470985
   vertex 469.913727 121.181129 109.234306
   vertex 469.913727 120.181129 109.234306
  endloop
 endfacet
 facet normal -0.908175 0.000000 -0.418590
  outer loop
   vertex 468.571198 137.225143 108.590340
   vertex 468.598907 137.225143 108.530220
   vertex 468.598907 120.547775 108.530205
  endloop
 endfacet
 facet normal 0.524144 0.759374 -0.385517
  outer loop
   vertex 468.836243 137.136459 109.773315
   vertex 468.417633 137.886459 110.681496
   vertex 468.996765 137.063232 109.847321
  endloop
 endfacet
 facet normal 0.524071 0.759391 -0.385584
  outer loop
   vertex 468.996765 137.063232 109.847321
   vertex 468.417633 137.886459 110.681496
   vertex 469.059814 137.593567 110.977486
  endloop
 endfacet
 facet normal 0.928066 0.314550 -0.199378
  outer loop
   vertex 469.059814 137.593567 110.977486
   vertex 469.063263 136.886459 109.877968
   vertex 468.996765 137.063232 109.847321
  endloop
 endfacet
 facet normal 0.928070 0.314541 -0.199373
  outer loop
   vertex 469.325806 136.886459 111.100090
   vertex 469.063263 136.886459 109.877968
   vertex 469.059814 137.593567 110.977486
  endloop
 endfacet
 facet normal 0.928069 -0.314544 -0.199373
  outer loop
   vertex 468.996765 136.709686 109.847313
   vertex 469.063263 136.886459 109.877968
   vertex 469.325806 136.886459 111.100090
  endloop
 endfacet
 facet normal 0.928070 -0.314541 -0.199373
  outer loop
   vertex 469.325806 136.886459 111.100090
   vertex 469.059814 136.179352 110.977486
   vertex 468.996765 136.709686 109.847313
  endloop
 endfacet
 facet normal 0.524139 -0.759353 -0.385567
  outer loop
   vertex 468.996765 136.709686 109.847313
   vertex 469.059814 136.179352 110.977486
   vertex 468.836243 136.636459 109.773315
  endloop
 endfacet
 facet normal 0.524073 -0.759396 -0.385571
  outer loop
   vertex 468.836243 136.636459 109.773315
   vertex 469.059814 136.179352 110.977486
   vertex 468.417633 135.886459 110.681488
  endloop
 endfacet
 facet normal -0.047270 -0.759389 -0.648918
  outer loop
   vertex 468.417633 135.886459 110.681488
   vertex 468.675690 136.709686 109.699318
   vertex 468.836243 136.636459 109.773315
  endloop
 endfacet
 facet normal -0.047256 -0.759391 -0.648916
  outer loop
   vertex 467.775452 136.179352 110.385498
   vertex 468.675690 136.709686 109.699318
   vertex 468.417633 135.886459 110.681488
  endloop
 endfacet
 facet normal -0.451255 -0.314538 -0.835126
  outer loop
   vertex 468.609192 136.886459 109.668671
   vertex 468.675690 136.709686 109.699318
   vertex 467.775452 136.179352 110.385498
  endloop
 endfacet
 facet normal -0.451248 -0.314546 -0.835126
  outer loop
   vertex 467.775452 136.179352 110.385498
   vertex 467.509460 136.886459 110.262894
   vertex 468.609192 136.886459 109.668671
  endloop
 endfacet
 facet normal -0.451249 0.314536 -0.835129
  outer loop
   vertex 468.609192 136.886459 109.668671
   vertex 467.509460 136.886459 110.262894
   vertex 468.675690 137.063232 109.699318
  endloop
 endfacet
 facet normal -0.451249 0.314547 -0.835126
  outer loop
   vertex 468.675690 137.063232 109.699318
   vertex 467.509460 136.886459 110.262894
   vertex 467.775452 137.593567 110.385498
  endloop
 endfacet
 facet normal -0.047266 0.759384 -0.648923
  outer loop
   vertex 467.775452 137.593567 110.385498
   vertex 468.836243 137.136459 109.773315
   vertex 468.675690 137.063232 109.699318
  endloop
 endfacet
 facet normal -0.047254 0.759396 -0.648911
  outer loop
   vertex 468.417633 137.886459 110.681496
   vertex 468.836243 137.136459 109.773315
   vertex 467.775452 137.593567 110.385498
  endloop
 endfacet
 facet normal 0.347557 0.923872 0.160202
  outer loop
   vertex 469.250641 120.956459 108.874252
   vertex 468.832031 120.956459 109.782425
   vertex 469.411163 120.883240 108.948250
  endloop
 endfacet
 facet normal 0.347543 0.923879 0.160191
  outer loop
   vertex 469.411163 120.883240 108.948250
   vertex 468.832031 120.956459 109.782425
   vertex 468.992584 120.883232 109.856422
  endloop
 endfacet
 facet normal 0.839055 0.382663 0.386726
  outer loop
   vertex 468.992584 120.883232 109.856422
   vertex 469.477661 120.706459 108.978897
   vertex 469.411163 120.883240 108.948250
  endloop
 endfacet
 facet normal 0.839050 0.382677 0.386721
  outer loop
   vertex 469.059082 120.706459 109.887070
   vertex 469.477661 120.706459 108.978897
   vertex 468.992584 120.883232 109.856422
  endloop
 endfacet
 facet normal 0.839050 -0.382677 0.386721
  outer loop
   vertex 469.411163 120.529686 108.948250
   vertex 469.477661 120.706459 108.978897
   vertex 469.059082 120.706459 109.887070
  endloop
 endfacet
 facet normal 0.839057 -0.382663 0.386720
  outer loop
   vertex 469.059082 120.706459 109.887070
   vertex 468.992584 120.529678 109.856422
   vertex 469.411163 120.529686 108.948250
  endloop
 endfacet
 facet normal 0.347595 -0.923858 0.160200
  outer loop
   vertex 469.411163 120.529686 108.948250
   vertex 468.992584 120.529678 109.856422
   vertex 469.250641 120.456459 108.874252
  endloop
 endfacet
 facet normal 0.347511 -0.923893 0.160180
  outer loop
   vertex 469.250641 120.456459 108.874252
   vertex 468.992584 120.529678 109.856422
   vertex 468.832031 120.456459 109.782425
  endloop
 endfacet
 facet normal -0.347542 -0.923879 -0.160194
  outer loop
   vertex 468.832031 120.456459 109.782425
   vertex 469.090088 120.529686 108.800255
   vertex 469.250641 120.456459 108.874252
  endloop
 endfacet
 facet normal -0.347508 -0.923893 -0.160187
  outer loop
   vertex 468.671478 120.529678 109.708427
   vertex 469.090088 120.529686 108.800255
   vertex 468.832031 120.456459 109.782425
  endloop
 endfacet
 facet normal -0.839033 -0.382691 -0.386744
  outer loop
   vertex 469.023590 120.706459 108.769600
   vertex 469.090088 120.529686 108.800255
   vertex 468.671478 120.529678 109.708427
  endloop
 endfacet
 facet normal -0.839040 -0.382677 -0.386744
  outer loop
   vertex 468.671478 120.529678 109.708427
   vertex 468.604980 120.706459 109.677773
   vertex 469.023590 120.706459 108.769600
  endloop
 endfacet
 facet normal -0.839040 0.382677 -0.386744
  outer loop
   vertex 469.023590 120.706459 108.769600
   vertex 468.604980 120.706459 109.677773
   vertex 469.090088 120.883240 108.800255
  endloop
 endfacet
 facet normal -0.839036 0.382691 -0.386739
  outer loop
   vertex 469.090088 120.883240 108.800255
   vertex 468.604980 120.706459 109.677773
   vertex 468.671478 120.883232 109.708427
  endloop
 endfacet
 facet normal -0.347514 0.923893 -0.160174
  outer loop
   vertex 468.671478 120.883232 109.708427
   vertex 469.250641 120.956459 108.874252
   vertex 469.090088 120.883240 108.800255
  endloop
 endfacet
 facet normal -0.347542 0.923879 -0.160194
  outer loop
   vertex 468.832031 120.956459 109.782425
   vertex 469.250641 120.956459 108.874252
   vertex 468.671478 120.883232 109.708427
  endloop
 endfacet
 facet normal 0.347542 0.923881 0.160183
  outer loop
   vertex 468.417633 121.706459 110.681480
   vertex 467.999054 121.706459 111.589653
   vertex 469.059814 121.413567 110.977470
  endloop
 endfacet
 facet normal 0.347549 0.923876 0.160198
  outer loop
   vertex 469.059814 121.413567 110.977470
   vertex 467.999054 121.706459 111.589653
   vertex 468.641205 121.413567 111.885643
  endloop
 endfacet
 facet normal 0.839040 0.382677 0.386744
  outer loop
   vertex 468.641205 121.413567 111.885643
   vertex 469.325806 120.706459 111.100075
   vertex 469.059814 121.413567 110.977470
  endloop
 endfacet
 facet normal 0.839039 0.382708 0.386715
  outer loop
   vertex 468.907227 120.706459 112.008247
   vertex 469.325806 120.706459 111.100075
   vertex 468.641205 121.413567 111.885643
  endloop
 endfacet
 facet normal 0.839050 -0.382677 0.386721
  outer loop
   vertex 469.059814 119.999352 110.977470
   vertex 469.325806 120.706459 111.100075
   vertex 468.907227 120.706459 112.008247
  endloop
 endfacet
 facet normal 0.839028 -0.382708 0.386738
  outer loop
   vertex 468.907227 120.706459 112.008247
   vertex 468.641205 119.999352 111.885643
   vertex 469.059814 119.999352 110.977470
  endloop
 endfacet
 facet normal 0.347538 -0.923881 0.160193
  outer loop
   vertex 469.059814 119.999352 110.977470
   vertex 468.641205 119.999352 111.885643
   vertex 468.417633 119.706459 110.681480
  endloop
 endfacet
 facet normal 0.347554 -0.923876 0.160188
  outer loop
   vertex 468.417633 119.706459 110.681480
   vertex 468.641205 119.999352 111.885643
   vertex 467.999054 119.706459 111.589653
  endloop
 endfacet
 facet normal -0.347541 -0.923881 -0.160182
  outer loop
   vertex 467.999054 119.706459 111.589653
   vertex 467.775452 119.999352 110.385483
   vertex 468.417633 119.706459 110.681480
  endloop
 endfacet
 facet normal -0.347541 -0.923881 -0.160182
  outer loop
   vertex 467.356873 119.999352 111.293655
   vertex 467.775452 119.999352 110.385483
   vertex 467.999054 119.706459 111.589653
  endloop
 endfacet
 facet normal -0.839052 -0.382673 -0.386721
  outer loop
   vertex 467.509460 120.706459 110.262886
   vertex 467.775452 119.999352 110.385483
   vertex 467.356873 119.999352 111.293655
  endloop
 endfacet
 facet normal -0.839052 -0.382673 -0.386721
  outer loop
   vertex 467.356873 119.999352 111.293655
   vertex 467.090881 120.706459 111.171059
   vertex 467.509460 120.706459 110.262886
  endloop
 endfacet
 facet normal -0.839050 0.382677 -0.386721
  outer loop
   vertex 467.509460 120.706459 110.262886
   vertex 467.090881 120.706459 111.171059
   vertex 467.775452 121.413567 110.385490
  endloop
 endfacet
 facet normal -0.839050 0.382677 -0.386721
  outer loop
   vertex 467.775452 121.413567 110.385490
   vertex 467.090881 120.706459 111.171059
   vertex 467.356873 121.413567 111.293663
  endloop
 endfacet
 facet normal -0.347542 0.923881 -0.160183
  outer loop
   vertex 467.356873 121.413567 111.293663
   vertex 468.417633 121.706459 110.681480
   vertex 467.775452 121.413567 110.385490
  endloop
 endfacet
 facet normal -0.347542 0.923881 -0.160183
  outer loop
   vertex 467.999054 121.706459 111.589653
   vertex 468.417633 121.706459 110.681480
   vertex 467.356873 121.413567 111.293663
  endloop
 endfacet
 facet normal 0.524132 0.759377 -0.385528
  outer loop
   vertex 468.836243 120.956459 109.773308
   vertex 468.417633 121.706459 110.681480
   vertex 468.996765 120.883232 109.847305
  endloop
 endfacet
 facet normal 0.524071 0.759391 -0.385584
  outer loop
   vertex 468.996765 120.883232 109.847305
   vertex 468.417633 121.706459 110.681480
   vertex 469.059814 121.413567 110.977470
  endloop
 endfacet
 facet normal 0.928066 0.314550 -0.199378
  outer loop
   vertex 469.059814 121.413567 110.977470
   vertex 469.063263 120.706459 109.877953
   vertex 468.996765 120.883232 109.847305
  endloop
 endfacet
 facet normal 0.928070 0.314541 -0.199373
  outer loop
   vertex 469.325806 120.706459 111.100075
   vertex 469.063263 120.706459 109.877953
   vertex 469.059814 121.413567 110.977470
  endloop
 endfacet
 facet normal 0.928071 -0.314539 -0.199373
  outer loop
   vertex 468.996765 120.529678 109.847305
   vertex 469.063263 120.706459 109.877953
   vertex 469.325806 120.706459 111.100075
  endloop
 endfacet
 facet normal 0.928070 -0.314541 -0.199373
  outer loop
   vertex 469.325806 120.706459 111.100075
   vertex 469.059814 119.999352 110.977470
   vertex 468.996765 120.529678 109.847305
  endloop
 endfacet
 facet normal 0.524112 -0.759369 -0.385571
  outer loop
   vertex 468.996765 120.529678 109.847305
   vertex 469.059814 119.999352 110.977470
   vertex 468.836243 120.456459 109.773308
  endloop
 endfacet
 facet normal 0.524069 -0.759397 -0.385574
  outer loop
   vertex 468.836243 120.456459 109.773308
   vertex 469.059814 119.999352 110.977470
   vertex 468.417633 119.706459 110.681480
  endloop
 endfacet
 facet normal -0.047241 -0.759397 -0.648911
  outer loop
   vertex 468.417633 119.706459 110.681480
   vertex 468.675690 120.529678 109.699310
   vertex 468.836243 120.456459 109.773308
  endloop
 endfacet
 facet normal -0.047252 -0.759395 -0.648912
  outer loop
   vertex 467.775452 119.999352 110.385483
   vertex 468.675690 120.529678 109.699310
   vertex 468.417633 119.706459 110.681480
  endloop
 endfacet
 facet normal -0.451241 -0.314555 -0.835127
  outer loop
   vertex 468.609192 120.706459 109.668655
   vertex 468.675690 120.529678 109.699310
   vertex 467.775452 119.999352 110.385483
  endloop
 endfacet
 facet normal -0.451253 -0.314539 -0.835126
  outer loop
   vertex 467.775452 119.999352 110.385483
   vertex 467.509460 120.706459 110.262886
   vertex 468.609192 120.706459 109.668655
  endloop
 endfacet
 facet normal -0.451249 0.314570 -0.835117
  outer loop
   vertex 468.609192 120.706459 109.668655
   vertex 467.509460 120.706459 110.262886
   vertex 468.675690 120.883232 109.699310
  endloop
 endfacet
 facet normal -0.451249 0.314547 -0.835126
  outer loop
   vertex 468.675690 120.883232 109.699310
   vertex 467.509460 120.706459 110.262886
   vertex 467.775452 121.413567 110.385490
  endloop
 endfacet
 facet normal -0.047266 0.759384 -0.648923
  outer loop
   vertex 467.775452 121.413567 110.385490
   vertex 468.836243 120.956459 109.773308
   vertex 468.675690 120.883232 109.699310
  endloop
 endfacet
 facet normal -0.047258 0.759392 -0.648915
  outer loop
   vertex 468.417633 121.706459 110.681480
   vertex 468.836243 120.956459 109.773308
   vertex 467.775452 121.413567 110.385490
  endloop
 endfacet
 facet normal 0.347588 0.923858 0.160216
  outer loop
   vertex 469.250641 137.136459 108.874260
   vertex 468.832031 137.136459 109.782433
   vertex 469.411163 137.063232 108.948257
  endloop
 endfacet
 facet normal 0.347546 0.923879 0.160185
  outer loop
   vertex 469.411163 137.063232 108.948257
   vertex 468.832031 137.136459 109.782433
   vertex 468.992584 137.063232 109.856430
  endloop
 endfacet
 facet normal 0.839045 0.382691 0.386718
  outer loop
   vertex 468.992584 137.063232 109.856430
   vertex 469.477661 136.886459 108.978912
   vertex 469.411163 137.063232 108.948257
  endloop
 endfacet
 facet normal 0.839045 0.382691 0.386718
  outer loop
   vertex 469.059082 136.886459 109.887085
   vertex 469.477661 136.886459 108.978912
   vertex 468.992584 137.063232 109.856430
  endloop
 endfacet
 facet normal 0.839045 -0.382691 0.386718
  outer loop
   vertex 469.411163 136.709686 108.948257
   vertex 469.477661 136.886459 108.978912
   vertex 469.059082 136.886459 109.887085
  endloop
 endfacet
 facet normal 0.839045 -0.382691 0.386718
  outer loop
   vertex 469.059082 136.886459 109.887085
   vertex 468.992584 136.709686 109.856430
   vertex 469.411163 136.709686 108.948257
  endloop
 endfacet
 facet normal 0.347593 -0.923858 0.160206
  outer loop
   vertex 469.411163 136.709686 108.948257
   vertex 468.992584 136.709686 109.856430
   vertex 469.250641 136.636459 108.874260
  endloop
 endfacet
 facet normal 0.347542 -0.923879 0.160194
  outer loop
   vertex 469.250641 136.636459 108.874260
   vertex 468.992584 136.709686 109.856430
   vertex 468.832031 136.636459 109.782433
  endloop
 endfacet
 facet normal -0.347542 -0.923879 -0.160194
  outer loop
   vertex 468.832031 136.636459 109.782433
   vertex 469.090088 136.709686 108.800262
   vertex 469.250641 136.636459 108.874260
  endloop
 endfacet
 facet normal -0.347542 -0.923879 -0.160194
  outer loop
   vertex 468.671478 136.709686 109.708435
   vertex 469.090088 136.709686 108.800262
   vertex 468.832031 136.636459 109.782433
  endloop
 endfacet
 facet normal -0.839040 -0.382677 -0.386744
  outer loop
   vertex 469.023590 136.886459 108.769615
   vertex 469.090088 136.709686 108.800262
   vertex 468.671478 136.709686 109.708435
  endloop
 endfacet
 facet normal -0.839040 -0.382677 -0.386744
  outer loop
   vertex 468.671478 136.709686 109.708435
   vertex 468.604980 136.886459 109.677788
   vertex 469.023590 136.886459 108.769615
  endloop
 endfacet
 facet normal -0.839040 0.382677 -0.386744
  outer loop
   vertex 469.023590 136.886459 108.769615
   vertex 468.604980 136.886459 109.677788
   vertex 469.090088 137.063232 108.800262
  endloop
 endfacet
 facet normal -0.839040 0.382677 -0.386744
  outer loop
   vertex 469.090088 137.063232 108.800262
   vertex 468.604980 136.886459 109.677788
   vertex 468.671478 137.063232 109.708435
  endloop
 endfacet
 facet normal -0.347542 0.923879 -0.160194
  outer loop
   vertex 468.671478 137.063232 109.708435
   vertex 469.250641 137.136459 108.874260
   vertex 469.090088 137.063232 108.800262
  endloop
 endfacet
 facet normal -0.347542 0.923879 -0.160194
  outer loop
   vertex 468.832031 137.136459 109.782433
   vertex 469.250641 137.136459 108.874260
   vertex 468.671478 137.063232 109.708435
  endloop
 endfacet
 facet normal -0.347541 0.923881 -0.160182
  outer loop
   vertex 467.775452 137.593567 110.385498
   vertex 467.356873 137.593567 111.293671
   vertex 468.417633 137.886459 110.681496
  endloop
 endfacet
 facet normal -0.347541 0.923881 -0.160182
  outer loop
   vertex 468.417633 137.886459 110.681496
   vertex 467.356873 137.593567 111.293671
   vertex 467.999054 137.886459 111.589668
  endloop
 endfacet
 facet normal 0.347542 0.923881 0.160183
  outer loop
   vertex 467.999054 137.886459 111.589668
   vertex 469.059814 137.593567 110.977486
   vertex 468.417633 137.886459 110.681496
  endloop
 endfacet
 facet normal 0.347549 0.923876 0.160198
  outer loop
   vertex 468.641205 137.593567 111.885658
   vertex 469.059814 137.593567 110.977486
   vertex 467.999054 137.886459 111.589668
  endloop
 endfacet
 facet normal 0.839040 0.382677 0.386744
  outer loop
   vertex 469.325806 136.886459 111.100090
   vertex 469.059814 137.593567 110.977486
   vertex 468.641205 137.593567 111.885658
  endloop
 endfacet
 facet normal 0.839039 0.382708 0.386715
  outer loop
   vertex 468.641205 137.593567 111.885658
   vertex 468.907227 136.886459 112.008263
   vertex 469.325806 136.886459 111.100090
  endloop
 endfacet
 facet normal 0.839050 -0.382677 0.386721
  outer loop
   vertex 469.325806 136.886459 111.100090
   vertex 468.907227 136.886459 112.008263
   vertex 469.059814 136.179352 110.977486
  endloop
 endfacet
 facet normal 0.839028 -0.382708 0.386738
  outer loop
   vertex 469.059814 136.179352 110.977486
   vertex 468.907227 136.886459 112.008263
   vertex 468.641205 136.179352 111.885658
  endloop
 endfacet
 facet normal 0.347536 -0.923881 0.160192
  outer loop
   vertex 468.641205 136.179352 111.885658
   vertex 468.417633 135.886459 110.681488
   vertex 469.059814 136.179352 110.977486
  endloop
 endfacet
 facet normal 0.347552 -0.923876 0.160188
  outer loop
   vertex 467.999054 135.886459 111.589661
   vertex 468.417633 135.886459 110.681488
   vertex 468.641205 136.179352 111.885658
  endloop
 endfacet
 facet normal -0.347542 -0.923881 -0.160183
  outer loop
   vertex 467.775452 136.179352 110.385498
   vertex 468.417633 135.886459 110.681488
   vertex 467.999054 135.886459 111.589661
  endloop
 endfacet
 facet normal -0.347542 -0.923881 -0.160183
  outer loop
   vertex 467.999054 135.886459 111.589661
   vertex 467.356873 136.179352 111.293671
   vertex 467.775452 136.179352 110.385498
  endloop
 endfacet
 facet normal -0.839050 -0.382677 -0.386721
  outer loop
   vertex 467.775452 136.179352 110.385498
   vertex 467.356873 136.179352 111.293671
   vertex 467.509460 136.886459 110.262894
  endloop
 endfacet
 facet normal -0.839050 -0.382677 -0.386721
  outer loop
   vertex 467.509460 136.886459 110.262894
   vertex 467.356873 136.179352 111.293671
   vertex 467.090881 136.886459 111.171066
  endloop
 endfacet
 facet normal -0.839050 0.382677 -0.386721
  outer loop
   vertex 467.090881 136.886459 111.171066
   vertex 467.775452 137.593567 110.385498
   vertex 467.509460 136.886459 110.262894
  endloop
 endfacet
 facet normal -0.839050 0.382677 -0.386721
  outer loop
   vertex 467.356873 137.593567 111.293671
   vertex 467.775452 137.593567 110.385498
   vertex 467.090881 136.886459 111.171066
  endloop
 endfacet
endsolid