solid stl file generated from DOUG
 facet normal -0.149064 0.000001 -0.988828
  outer loop
   vertex 496.024689 195.728378 127.126808
   vertex 496.159363 195.728378 127.106506
   vertex 496.159363 182.991714 127.106499
  endloop
 endfacet
 facet normal 0.707107 0.000000 -0.707107
  outer loop
   vertex 496.159363 182.991714 127.106499
   vertex 496.159363 195.728378 127.106506
   vertex 496.232025 182.991714 127.179161
  endloop
 endfacet
 facet normal 0.988835 -0.000000 0.149017
  outer loop
   vertex 495.243683 182.991714 126.345772
   vertex 495.263977 182.991714 126.211105
   vertex 495.263977 195.728378 126.211121
  endloop
 endfacet
 facet normal 0.707070 0.000001 -0.707144
  outer loop
   vertex 495.263977 195.728378 126.211121
   vertex 495.263977 182.991714 126.211105
   vertex 495.191315 182.991714 126.138451
  endloop
 endfacet
 facet normal 0.707107 0.000000 -0.707107
  outer loop
   vertex 495.191315 182.991714 126.138451
   vertex 495.191315 195.728378 126.138458
   vertex 495.263977 195.728378 126.211121
  endloop
 endfacet
 facet normal 0.406328 0.000001 -0.913727
  outer loop
   vertex 494.673187 182.991714 126.656563
   vertex 494.673187 195.728378 126.656570
   vertex 494.703949 182.991714 126.670242
  endloop
 endfacet
 facet normal 0.406328 0.000001 -0.913727
  outer loop
   vertex 494.703949 182.991714 126.670242
   vertex 494.673187 195.728378 126.656570
   vertex 494.703949 195.728378 126.670250
  endloop
 endfacet
 facet normal -0.707094 0.000000 -0.707120
  outer loop
   vertex 494.703949 195.728378 126.670250
   vertex 495.110657 195.728378 126.263557
   vertex 494.703949 182.991714 126.670242
  endloop
 endfacet
 facet normal -0.149064 0.000001 -0.988828
  outer loop
   vertex 496.159363 182.991714 127.106499
   vertex 496.024689 182.991714 127.126801
   vertex 496.024689 195.728378 127.126808
  endloop
 endfacet
 facet normal 0.707117 0.000000 -0.707096
  outer loop
   vertex 496.024689 195.728378 127.126808
   vertex 496.024689 182.991714 127.126801
   vertex 495.243683 182.991714 126.345772
  endloop
 endfacet
 facet normal 0.707114 0.000001 -0.707100
  outer loop
   vertex 495.243683 182.991714 126.345772
   vertex 495.243683 195.728378 126.345787
   vertex 496.024689 195.728378 127.126808
  endloop
 endfacet
 facet normal 0.988835 -0.000000 0.149017
  outer loop
   vertex 495.263977 195.728378 126.211121
   vertex 495.243683 195.728378 126.345787
   vertex 495.243683 182.991714 126.345772
  endloop
 endfacet
 facet normal -0.707135 0.000000 -0.707078
  outer loop
   vertex 495.191315 195.728378 126.138458
   vertex 495.191315 182.991714 126.138451
   vertex 495.096985 195.728378 126.232796
  endloop
 endfacet
 facet normal -0.707135 0.000000 -0.707078
  outer loop
   vertex 495.096985 195.728378 126.232796
   vertex 495.191315 182.991714 126.138451
   vertex 495.096985 182.991714 126.232788
  endloop
 endfacet
 facet normal -0.913812 -0.000000 0.406138
  outer loop
   vertex 495.096985 182.991714 126.232788
   vertex 495.110657 195.728378 126.263557
   vertex 495.096985 195.728378 126.232796
  endloop
 endfacet
 facet normal -0.913812 -0.000000 0.406138
  outer loop
   vertex 495.110657 182.991714 126.263550
   vertex 495.110657 195.728378 126.263557
   vertex 495.096985 182.991714 126.232788
  endloop
 endfacet
 facet normal -0.707094 0.000000 -0.707120
  outer loop
   vertex 494.703949 182.991714 126.670242
   vertex 495.110657 195.728378 126.263557
   vertex 495.110657 182.991714 126.263550
  endloop
 endfacet
 facet normal -0.000007 -1.000000 -0.000007
  outer loop
   vertex 496.257294 182.143494 127.177979
   vertex 494.598175 182.143509 126.707489
   vertex 495.192505 182.143509 126.113167
  endloop
 endfacet
 facet normal -0.707102 -0.000000 -0.707111
  outer loop
   vertex 495.192505 182.143509 126.113167
   vertex 494.598175 182.143509 126.707489
   vertex 495.192505 183.143509 126.113167
  endloop
 endfacet
 facet normal 0.707114 0.000000 -0.707099
  outer loop
   vertex 495.192505 183.143509 126.113167
   vertex 496.257294 183.143494 127.177979
   vertex 495.192505 182.143509 126.113167
  endloop
 endfacet
 facet normal 0.000007 1.000000 0.000007
  outer loop
   vertex 494.598175 183.143509 126.707489
   vertex 496.257294 183.143494 127.177979
   vertex 495.192505 183.143509 126.113167
  endloop
 endfacet
 facet normal 0.000007 1.000000 0.000007
  outer loop
   vertex 495.662964 183.143494 127.772301
   vertex 496.257294 183.143494 127.177979
   vertex 494.598175 183.143509 126.707489
  endloop
 endfacet
 facet normal -0.707114 -0.000000 0.707099
  outer loop
   vertex 494.598175 183.143509 126.707489
   vertex 494.598175 182.143509 126.707489
   vertex 495.662964 183.143494 127.772301
  endloop
 endfacet
 facet normal -0.707114 0.000000 0.707099
  outer loop
   vertex 495.662964 183.143494 127.772301
   vertex 494.598175 182.143509 126.707489
   vertex 495.662964 182.143494 127.772301
  endloop
 endfacet
 facet normal -0.000007 -1.000000 -0.000007
  outer loop
   vertex 495.662964 182.143494 127.772301
   vertex 494.598175 182.143509 126.707489
   vertex 496.257294 182.143494 127.177979
  endloop
 endfacet
 facet normal 0.707102 0.000000 0.707111
  outer loop
   vertex 496.257294 182.143494 127.177979
   vertex 496.257294 183.143494 127.177979
   vertex 495.662964 182.143494 127.772301
  endloop
 endfacet
 facet normal 0.707114 -0.000000 -0.707099
  outer loop
   vertex 495.192505 182.143509 126.113167
   vertex 496.257294 183.143494 127.177979
   vertex 496.257294 182.143494 127.177979
  endloop
 endfacet
 facet normal -0.000007 -1.000000 -0.000007
  outer loop
   vertex 495.192505 195.576599 126.113182
   vertex 496.257294 195.576584 127.177986
   vertex 494.598175 195.576599 126.707504
  endloop
 endfacet
 facet normal -0.000007 -1.000000 -0.000007
  outer loop
   vertex 494.598175 195.576599 126.707504
   vertex 496.257294 195.576584 127.177986
   vertex 495.662964 195.576584 127.772316
  endloop
 endfacet
 facet normal -0.707114 0.000000 0.707099
  outer loop
   vertex 495.662964 195.576584 127.772316
   vertex 495.662964 196.576584 127.772316
   vertex 494.598175 195.576599 126.707504
  endloop
 endfacet
 facet normal 0.707107 0.000000 0.707107
  outer loop
   vertex 496.257294 195.576584 127.177986
   vertex 495.662964 196.576584 127.772316
   vertex 495.662964 195.576584 127.772316
  endloop
 endfacet
 facet normal 0.707102 -0.000005 0.707111
  outer loop
   vertex 496.257294 196.576584 127.177994
   vertex 495.662964 196.576584 127.772316
   vertex 496.257294 195.576584 127.177986
  endloop
 endfacet
 facet normal 0.707114 0.000005 -0.707099
  outer loop
   vertex 496.257294 195.576584 127.177986
   vertex 495.192505 196.576599 126.113182
   vertex 496.257294 196.576584 127.177994
  endloop
 endfacet
 facet normal 0.000007 1.000000 0.000007
  outer loop
   vertex 496.257294 196.576584 127.177994
   vertex 495.192505 196.576599 126.113182
   vertex 495.662964 196.576584 127.772316
  endloop
 endfacet
 facet normal 0.000007 1.000000 0.000007
  outer loop
   vertex 495.662964 196.576584 127.772316
   vertex 495.192505 196.576599 126.113182
   vertex 494.598175 196.576599 126.707504
  endloop
 endfacet
 facet normal -0.707114 0.000000 0.707099
  outer loop
   vertex 494.598175 196.576599 126.707504
   vertex 494.598175 195.576599 126.707504
   vertex 495.662964 196.576584 127.772316
  endloop
 endfacet
 facet normal -0.707102 0.000000 -0.707111
  outer loop
   vertex 495.192505 196.576599 126.113182
   vertex 494.598175 195.576599 126.707504
   vertex 494.598175 196.576599 126.707504
  endloop
 endfacet
 facet normal -0.707102 0.000000 -0.707111
  outer loop
   vertex 495.192505 195.576599 126.113182
   vertex 494.598175 195.576599 126.707504
   vertex 495.192505 196.576599 126.113182
  endloop
 endfacet
 facet normal 0.707112 -0.000000 -0.707102
  outer loop
   vertex 495.192505 196.576599 126.113182
   vertex 496.257294 195.576584 127.177986
   vertex 495.192505 195.576599 126.113182
  endloop
 endfacet
 facet normal 0.707107 0.000000 -0.707107
  outer loop
   vertex 496.159363 195.728378 127.106506
   vertex 496.232025 195.728378 127.179169
   vertex 496.232025 182.991714 127.179161
  endloop
 endfacet
 facet normal 0.707135 -0.000000 0.707078
  outer loop
   vertex 496.232025 182.991714 127.179161
   vertex 496.232025 195.728378 127.179169
   vertex 496.137695 195.728378 127.273506
  endloop
 endfacet
 facet normal 0.707135 -0.000000 0.707078
  outer loop
   vertex 496.137695 195.728378 127.273506
   vertex 496.137695 182.991714 127.273499
   vertex 496.232025 182.991714 127.179161
  endloop
 endfacet
 facet normal -0.406328 -0.000001 0.913727
  outer loop
   vertex 496.106934 195.728378 127.259827
   vertex 496.137695 182.991714 127.273499
   vertex 496.137695 195.728378 127.273506
  endloop
 endfacet
 facet normal -0.406328 -0.000001 0.913727
  outer loop
   vertex 496.106934 182.991714 127.259819
   vertex 496.137695 182.991714 127.273499
   vertex 496.106934 195.728378 127.259827
  endloop
 endfacet
 facet normal 0.707100 -0.000000 0.707113
  outer loop
   vertex 496.106934 195.728378 127.259827
   vertex 495.700226 195.728378 127.666527
   vertex 496.106934 182.991714 127.259819
  endloop
 endfacet
 facet normal 0.707094 -0.000001 0.707120
  outer loop
   vertex 496.106934 182.991714 127.259819
   vertex 495.700226 195.728378 127.666527
   vertex 495.700226 182.991714 127.666512
  endloop
 endfacet
 facet normal 0.913774 0.000000 -0.406223
  outer loop
   vertex 495.700226 182.991714 127.666512
   vertex 495.700226 195.728378 127.666527
   vertex 495.713898 195.728378 127.697281
  endloop
 endfacet
 facet normal 0.913812 0.000000 -0.406138
  outer loop
   vertex 495.713898 195.728378 127.697281
   vertex 495.713898 182.991714 127.697273
   vertex 495.700226 182.991714 127.666512
  endloop
 endfacet
 facet normal 0.707107 -0.000000 0.707107
  outer loop
   vertex 495.667084 195.728378 127.744095
   vertex 495.713898 182.991714 127.697273
   vertex 495.713898 195.728378 127.697281
  endloop
 endfacet
 facet normal 0.707049 -0.000001 0.707164
  outer loop
   vertex 495.667084 182.991714 127.744080
   vertex 495.713898 182.991714 127.697273
   vertex 495.667084 195.728378 127.744095
  endloop
 endfacet
 facet normal -0.707107 -0.000001 0.707107
  outer loop
   vertex 495.667084 195.728378 127.744095
   vertex 494.626373 195.728378 126.703384
   vertex 495.667084 182.991714 127.744080
  endloop
 endfacet
 facet normal -0.707117 -0.000003 0.707096
  outer loop
   vertex 495.667084 182.991714 127.744080
   vertex 494.626373 195.728378 126.703384
   vertex 494.626404 182.991714 126.703369
  endloop
 endfacet
 facet normal -0.707280 -0.000001 -0.706934
  outer loop
   vertex 494.626404 182.991714 126.703369
   vertex 494.626373 195.728378 126.703384
   vertex 494.673187 182.991714 126.656563
  endloop
 endfacet
 facet normal -0.707102 0.000000 -0.707111
  outer loop
   vertex 494.598175 183.143509 126.707489
   vertex 495.192505 183.143509 126.113167
   vertex 494.598175 182.143509 126.707489
  endloop
 endfacet
 facet normal 0.707102 0.000000 0.707111
  outer loop
   vertex 496.257294 183.143494 127.177979
   vertex 495.662964 183.143494 127.772301
   vertex 495.662964 182.143494 127.772301
  endloop
 endfacet
 facet normal -0.707107 0.000000 -0.707107
  outer loop
   vertex 494.626373 195.728378 126.703384
   vertex 494.673187 195.728378 126.656570
   vertex 494.673187 182.991714 126.656563
  endloop
 endfacet
 facet normal 0.270600 0.923880 0.270595
  outer loop
   vertex 493.758392 183.680038 128.612061
   vertex 493.051300 183.680038 129.319168
   vertex 494.258392 183.387146 129.112061
  endloop
 endfacet
 facet normal 0.270600 0.923880 0.270595
  outer loop
   vertex 494.258392 183.387146 129.112061
   vertex 493.051300 183.680038 129.319168
   vertex 493.551300 183.387146 129.819168
  endloop
 endfacet
 facet normal 0.653285 0.382696 0.653271
  outer loop
   vertex 493.551300 183.387146 129.819168
   vertex 494.465515 182.680038 129.319168
   vertex 494.258392 183.387146 129.112061
  endloop
 endfacet
 facet normal 0.653278 0.382672 0.653292
  outer loop
   vertex 493.758392 182.680038 130.026276
   vertex 494.465515 182.680038 129.319168
   vertex 493.551300 183.387146 129.819168
  endloop
 endfacet
 facet normal 0.653269 -0.382703 0.653283
  outer loop
   vertex 494.258392 181.972946 129.112061
   vertex 494.465515 182.680038 129.319168
   vertex 493.758392 182.680038 130.026276
  endloop
 endfacet
 facet normal 0.653296 -0.382672 0.653274
  outer loop
   vertex 493.758392 182.680038 130.026276
   vertex 493.551300 181.972931 129.819168
   vertex 494.258392 181.972946 129.112061
  endloop
 endfacet
 facet normal 0.270622 -0.923873 0.270597
  outer loop
   vertex 494.258392 181.972946 129.112061
   vertex 493.551300 181.972931 129.819168
   vertex 493.758392 181.680038 128.612061
  endloop
 endfacet
 facet normal 0.270600 -0.923880 0.270595
  outer loop
   vertex 493.758392 181.680038 128.612061
   vertex 493.551300 181.972931 129.819168
   vertex 493.051300 181.680038 129.319168
  endloop
 endfacet
 facet normal -0.270612 -0.923873 -0.270607
  outer loop
   vertex 493.051300 181.680038 129.319168
   vertex 493.258392 181.972946 128.112061
   vertex 493.758392 181.680038 128.612061
  endloop
 endfacet
 facet normal -0.270590 -0.923880 -0.270604
  outer loop
   vertex 492.551300 181.972931 128.819168
   vertex 493.258392 181.972946 128.112061
   vertex 493.051300 181.680038 129.319168
  endloop
 endfacet
 facet normal -0.653286 -0.382679 -0.653280
  outer loop
   vertex 493.051300 182.680038 127.904953
   vertex 493.258392 181.972946 128.112061
   vertex 492.551300 181.972931 128.819168
  endloop
 endfacet
 facet normal -0.653271 -0.382696 -0.653285
  outer loop
   vertex 492.551300 181.972931 128.819168
   vertex 492.344177 182.680038 128.612061
   vertex 493.051300 182.680038 127.904953
  endloop
 endfacet
 facet normal -0.653278 0.382672 -0.653292
  outer loop
   vertex 493.051300 182.680038 127.904953
   vertex 492.344177 182.680038 128.612061
   vertex 493.258392 183.387146 128.112061
  endloop
 endfacet
 facet normal -0.653285 0.382696 -0.653271
  outer loop
   vertex 493.258392 183.387146 128.112061
   vertex 492.344177 182.680038 128.612061
   vertex 492.551300 183.387146 128.819168
  endloop
 endfacet
 facet normal -0.270600 0.923880 -0.270595
  outer loop
   vertex 492.551300 183.387146 128.819168
   vertex 493.758392 183.680038 128.612061
   vertex 493.258392 183.387146 128.112061
  endloop
 endfacet
 facet normal -0.270600 0.923880 -0.270595
  outer loop
   vertex 493.051300 183.680038 129.319168
   vertex 493.758392 183.680038 128.612061
   vertex 492.551300 183.387146 128.819168
  endloop
 endfacet
 facet normal 0.625146 0.759399 -0.180290
  outer loop
   vertex 494.465515 182.930054 127.904961
   vertex 493.758392 183.680038 128.612061
   vertex 494.590515 182.856827 128.029953
  endloop
 endfacet
 facet normal 0.625143 0.759401 -0.180297
  outer loop
   vertex 494.590515 182.856827 128.029953
   vertex 493.758392 183.680038 128.612061
   vertex 494.258392 183.387146 129.112061
  endloop
 endfacet
 facet normal 0.939720 0.314464 0.134309
  outer loop
   vertex 494.258392 183.387146 129.112061
   vertex 494.642273 182.680038 128.081741
   vertex 494.590515 182.856827 128.029953
  endloop
 endfacet
 facet normal 0.939697 0.314567 0.134229
  outer loop
   vertex 494.465515 182.680038 129.319168
   vertex 494.642273 182.680038 128.081741
   vertex 494.258392 183.387146 129.112061
  endloop
 endfacet
 facet normal 0.939728 -0.314471 0.134234
  outer loop
   vertex 494.590515 182.503265 128.029953
   vertex 494.642273 182.680038 128.081741
   vertex 494.465515 182.680038 129.319168
  endloop
 endfacet
 facet normal 0.939691 -0.314576 0.134245
  outer loop
   vertex 494.465515 182.680038 129.319168
   vertex 494.258392 181.972946 129.112061
   vertex 494.590515 182.503265 128.029953
  endloop
 endfacet
 facet normal 0.625103 -0.759428 -0.180322
  outer loop
   vertex 494.590515 182.503265 128.029953
   vertex 494.258392 181.972946 129.112061
   vertex 494.465515 182.430054 127.904961
  endloop
 endfacet
 facet normal 0.625159 -0.759388 -0.180298
  outer loop
   vertex 494.465515 182.430054 127.904961
   vertex 494.258392 181.972946 129.112061
   vertex 493.758392 181.680038 128.612061
  endloop
 endfacet
 facet normal 0.180354 -0.759399 -0.625129
  outer loop
   vertex 493.758392 181.680038 128.612061
   vertex 494.340515 182.503265 127.779961
   vertex 494.465515 182.430054 127.904961
  endloop
 endfacet
 facet normal 0.180297 -0.759388 -0.625158
  outer loop
   vertex 493.258392 181.972946 128.112061
   vertex 494.340515 182.503265 127.779961
   vertex 493.758392 181.680038 128.612061
  endloop
 endfacet
 facet normal -0.134235 -0.314557 -0.939699
  outer loop
   vertex 494.288727 182.680054 127.728180
   vertex 494.340515 182.503265 127.779961
   vertex 493.258392 181.972946 128.112061
  endloop
 endfacet
 facet normal -0.134237 -0.314554 -0.939700
  outer loop
   vertex 493.258392 181.972946 128.112061
   vertex 493.051300 182.680038 127.904953
   vertex 494.288727 182.680054 127.728180
  endloop
 endfacet
 facet normal -0.134244 0.314584 -0.939689
  outer loop
   vertex 494.288727 182.680054 127.728180
   vertex 493.051300 182.680038 127.904953
   vertex 494.340515 182.856827 127.779961
  endloop
 endfacet
 facet normal -0.134240 0.314548 -0.939702
  outer loop
   vertex 494.340515 182.856827 127.779961
   vertex 493.051300 182.680038 127.904953
   vertex 493.258392 183.387146 128.112061
  endloop
 endfacet
 facet normal 0.180297 0.759388 -0.625158
  outer loop
   vertex 493.258392 183.387146 128.112061
   vertex 494.465515 182.930054 127.904961
   vertex 494.340515 182.856827 127.779961
  endloop
 endfacet
 facet normal 0.180302 0.759397 -0.625146
  outer loop
   vertex 493.758392 183.680038 128.612061
   vertex 494.465515 182.930054 127.904961
   vertex 493.258392 183.387146 128.112061
  endloop
 endfacet
 facet normal 0.270605 0.923873 0.270614
  outer loop
   vertex 495.165527 196.100052 127.204964
   vertex 494.458405 196.100052 127.912064
   vertex 495.290527 196.026825 127.329964
  endloop
 endfacet
 facet normal 0.270605 0.923873 0.270614
  outer loop
   vertex 495.290527 196.026825 127.329964
   vertex 494.458405 196.100052 127.912064
   vertex 494.583405 196.026825 128.037064
  endloop
 endfacet
 facet normal 0.653290 0.382619 0.653311
  outer loop
   vertex 494.583405 196.026825 128.037064
   vertex 495.342285 195.850052 127.381737
   vertex 495.290527 196.026825 127.329964
  endloop
 endfacet
 facet normal 0.653276 0.382715 0.653269
  outer loop
   vertex 494.635193 195.850052 128.088837
   vertex 495.342285 195.850052 127.381737
   vertex 494.583405 196.026825 128.037064
  endloop
 endfacet
 facet normal 0.653312 -0.382591 0.653305
  outer loop
   vertex 495.290527 195.673264 127.329964
   vertex 495.342285 195.850052 127.381737
   vertex 494.635193 195.850052 128.088837
  endloop
 endfacet
 facet normal 0.653270 -0.382687 0.653291
  outer loop
   vertex 494.635193 195.850052 128.088837
   vertex 494.583405 195.673264 128.037064
   vertex 495.290527 195.673264 127.329964
  endloop
 endfacet
 facet normal 0.270557 -0.923901 0.270566
  outer loop
   vertex 495.290527 195.673264 127.329964
   vertex 494.583405 195.673264 128.037064
   vertex 495.165527 195.600052 127.204964
  endloop
 endfacet
 facet normal 0.270557 -0.923901 0.270566
  outer loop
   vertex 495.165527 195.600052 127.204964
   vertex 494.583405 195.673264 128.037064
   vertex 494.458405 195.600052 127.912064
  endloop
 endfacet
 facet normal -0.270557 -0.923901 -0.270566
  outer loop
   vertex 494.458405 195.600052 127.912064
   vertex 495.040527 195.673264 127.079964
   vertex 495.165527 195.600052 127.204964
  endloop
 endfacet
 facet normal -0.270557 -0.923901 -0.270566
  outer loop
   vertex 494.333405 195.673264 127.787064
   vertex 495.040527 195.673264 127.079964
   vertex 494.458405 195.600052 127.912064
  endloop
 endfacet
 facet normal -0.653263 -0.382711 -0.653284
  outer loop
   vertex 494.988739 195.850052 127.028183
   vertex 495.040527 195.673264 127.079964
   vertex 494.333405 195.673264 127.787064
  endloop
 endfacet
 facet normal -0.653316 -0.382591 -0.653302
  outer loop
   vertex 494.333405 195.673264 127.787064
   vertex 494.281647 195.850052 127.735291
   vertex 494.988739 195.850052 127.028183
  endloop
 endfacet
 facet normal -0.653272 0.382739 -0.653258
  outer loop
   vertex 494.988739 195.850052 127.028183
   vertex 494.281647 195.850052 127.735291
   vertex 495.040527 196.026825 127.079964
  endloop
 endfacet
 facet normal -0.653290 0.382619 -0.653311
  outer loop
   vertex 495.040527 196.026825 127.079964
   vertex 494.281647 195.850052 127.735291
   vertex 494.333405 196.026825 127.787064
  endloop
 endfacet
 facet normal -0.270605 0.923873 -0.270614
  outer loop
   vertex 494.333405 196.026825 127.787064
   vertex 495.165527 196.100052 127.204964
   vertex 495.040527 196.026825 127.079964
  endloop
 endfacet
 facet normal -0.270605 0.923873 -0.270614
  outer loop
   vertex 494.458405 196.100052 127.912064
   vertex 495.165527 196.100052 127.204964
   vertex 494.333405 196.026825 127.787064
  endloop
 endfacet
 facet normal 0.270602 0.923873 0.270617
  outer loop
   vertex 493.758392 196.850052 128.612076
   vertex 493.051300 196.850037 129.319183
   vertex 494.258392 196.557144 129.112076
  endloop
 endfacet
 facet normal 0.270600 0.923880 0.270595
  outer loop
   vertex 494.258392 196.557144 129.112076
   vertex 493.051300 196.850037 129.319183
   vertex 493.551300 196.557144 129.819183
  endloop
 endfacet
 facet normal 0.653285 0.382696 0.653271
  outer loop
   vertex 493.551300 196.557144 129.819183
   vertex 494.465515 195.850037 129.319183
   vertex 494.258392 196.557144 129.112076
  endloop
 endfacet
 facet normal 0.653278 0.382672 0.653292
  outer loop
   vertex 493.758392 195.850037 130.026291
   vertex 494.465515 195.850037 129.319183
   vertex 493.551300 196.557144 129.819183
  endloop
 endfacet
 facet normal 0.653269 -0.382703 0.653283
  outer loop
   vertex 494.258392 195.142944 129.112076
   vertex 494.465515 195.850037 129.319183
   vertex 493.758392 195.850037 130.026291
  endloop
 endfacet
 facet normal 0.653290 -0.382679 0.653276
  outer loop
   vertex 493.758392 195.850037 130.026291
   vertex 493.551300 195.142944 129.819183
   vertex 494.258392 195.142944 129.112076
  endloop
 endfacet
 facet normal 0.270600 -0.923880 0.270595
  outer loop
   vertex 494.258392 195.142944 129.112076
   vertex 493.551300 195.142944 129.819183
   vertex 493.758392 194.850052 128.612076
  endloop
 endfacet
 facet normal 0.270622 -0.923873 0.270597
  outer loop
   vertex 493.758392 194.850052 128.612076
   vertex 493.551300 195.142944 129.819183
   vertex 493.051300 194.850037 129.319183
  endloop
 endfacet
 facet normal -0.270590 -0.923880 -0.270604
  outer loop
   vertex 493.051300 194.850037 129.319183
   vertex 493.258392 195.142944 128.112076
   vertex 493.758392 194.850052 128.612076
  endloop
 endfacet
 facet normal -0.270612 -0.923873 -0.270607
  outer loop
   vertex 492.551300 195.142944 128.819183
   vertex 493.258392 195.142944 128.112076
   vertex 493.051300 194.850037 129.319183
  endloop
 endfacet
 facet normal -0.653292 -0.382672 -0.653278
  outer loop
   vertex 493.051300 195.850052 127.904968
   vertex 493.258392 195.142944 128.112076
   vertex 492.551300 195.142944 128.819183
  endloop
 endfacet
 facet normal -0.653264 -0.382703 -0.653287
  outer loop
   vertex 492.551300 195.142944 128.819183
   vertex 492.344177 195.850037 128.612076
   vertex 493.051300 195.850052 127.904968
  endloop
 endfacet
 facet normal -0.653280 0.382679 -0.653286
  outer loop
   vertex 493.051300 195.850052 127.904968
   vertex 492.344177 195.850037 128.612076
   vertex 493.258392 196.557144 128.112076
  endloop
 endfacet
 facet normal -0.653285 0.382696 -0.653271
  outer loop
   vertex 493.258392 196.557144 128.112076
   vertex 492.344177 195.850037 128.612076
   vertex 492.551300 196.557144 128.819183
  endloop
 endfacet
 facet normal -0.270612 0.923873 -0.270607
  outer loop
   vertex 492.551300 196.557144 128.819183
   vertex 493.758392 196.850052 128.612076
   vertex 493.258392 196.557144 128.112076
  endloop
 endfacet
 facet normal -0.270610 0.923880 -0.270585
  outer loop
   vertex 493.051300 196.850037 129.319183
   vertex 493.758392 196.850052 128.612076
   vertex 492.551300 196.557144 128.819183
  endloop
 endfacet
 facet normal 0.625154 0.759393 -0.180290
  outer loop
   vertex 494.465515 196.100052 127.904968
   vertex 493.758392 196.850052 128.612076
   vertex 494.590515 196.026825 128.029968
  endloop
 endfacet
 facet normal 0.625154 0.759393 -0.180290
  outer loop
   vertex 494.590515 196.026825 128.029968
   vertex 493.758392 196.850052 128.612076
   vertex 494.258392 196.557144 129.112076
  endloop
 endfacet
 facet normal 0.939717 0.314476 0.134302
  outer loop
   vertex 494.258392 196.557144 129.112076
   vertex 494.642273 195.850052 128.081741
   vertex 494.590515 196.026825 128.029968
  endloop
 endfacet
 facet normal 0.939696 0.314567 0.134231
  outer loop
   vertex 494.465515 195.850037 129.319183
   vertex 494.642273 195.850052 128.081741
   vertex 494.258392 196.557144 129.112076
  endloop
 endfacet
 facet normal 0.939741 -0.314435 0.134230
  outer loop
   vertex 494.590515 195.673264 128.029968
   vertex 494.642273 195.850052 128.081741
   vertex 494.465515 195.850037 129.319183
  endloop
 endfacet
 facet normal 0.939691 -0.314576 0.134245
  outer loop
   vertex 494.465515 195.850037 129.319183
   vertex 494.258392 195.142944 129.112076
   vertex 494.590515 195.673264 128.029968
  endloop
 endfacet
 facet normal 0.625108 -0.759424 -0.180319
  outer loop
   vertex 494.590515 195.673264 128.029968
   vertex 494.258392 195.142944 129.112076
   vertex 494.465515 195.600052 127.904968
  endloop
 endfacet
 facet normal 0.625146 -0.759397 -0.180302
  outer loop
   vertex 494.465515 195.600052 127.904968
   vertex 494.258392 195.142944 129.112076
   vertex 493.758392 194.850052 128.612076
  endloop
 endfacet
 facet normal 0.180344 -0.759406 -0.625123
  outer loop
   vertex 493.758392 194.850052 128.612076
   vertex 494.340515 195.673264 127.779968
   vertex 494.465515 195.600052 127.904968
  endloop
 endfacet
 facet normal 0.180301 -0.759398 -0.625145
  outer loop
   vertex 493.258392 195.142944 128.112076
   vertex 494.340515 195.673264 127.779968
   vertex 493.758392 194.850052 128.612076
  endloop
 endfacet
 facet normal -0.134259 -0.314526 -0.939706
  outer loop
   vertex 494.288727 195.850052 127.728195
   vertex 494.340515 195.673264 127.779968
   vertex 493.258392 195.142944 128.112076
  endloop
 endfacet
 facet normal -0.134241 -0.314548 -0.939701
  outer loop
   vertex 493.258392 195.142944 128.112076
   vertex 493.051300 195.850052 127.904968
   vertex 494.288727 195.850052 127.728195
  endloop
 endfacet
 facet normal -0.134241 0.314547 -0.939702
  outer loop
   vertex 494.288727 195.850052 127.728195
   vertex 493.051300 195.850052 127.904968
   vertex 494.340515 196.026825 127.779968
  endloop
 endfacet
 facet normal -0.134242 0.314555 -0.939699
  outer loop
   vertex 494.340515 196.026825 127.779968
   vertex 493.051300 195.850052 127.904968
   vertex 493.258392 196.557144 128.112076
  endloop
 endfacet
 facet normal 0.180294 0.759390 -0.625156
  outer loop
   vertex 493.258392 196.557144 128.112076
   vertex 494.465515 196.100052 127.904968
   vertex 494.340515 196.026825 127.779968
  endloop
 endfacet
 facet normal 0.180294 0.759390 -0.625156
  outer loop
   vertex 493.758392 196.850052 128.612076
   vertex 494.465515 196.100052 127.904968
   vertex 493.258392 196.557144 128.112076
  endloop
 endfacet
 facet normal -0.270607 0.923873 -0.270612
  outer loop
   vertex 495.040527 182.856827 127.079948
   vertex 494.333405 182.856827 127.787056
   vertex 495.165527 182.930054 127.204948
  endloop
 endfacet
 facet normal -0.270607 0.923873 -0.270612
  outer loop
   vertex 495.165527 182.930054 127.204948
   vertex 494.333405 182.856827 127.787056
   vertex 494.458405 182.930054 127.912056
  endloop
 endfacet
 facet normal 0.270607 0.923873 0.270612
  outer loop
   vertex 494.458405 182.930054 127.912056
   vertex 495.290527 182.856827 127.329948
   vertex 495.165527 182.930054 127.204948
  endloop
 endfacet
 facet normal 0.270601 0.923877 0.270604
  outer loop
   vertex 494.583405 182.856827 128.037064
   vertex 495.290527 182.856827 127.329948
   vertex 494.458405 182.930054 127.912056
  endloop
 endfacet
 facet normal 0.653290 0.382643 0.653297
  outer loop
   vertex 495.342285 182.680054 127.381729
   vertex 495.290527 182.856827 127.329948
   vertex 494.583405 182.856827 128.037064
  endloop
 endfacet
 facet normal 0.653283 0.382687 0.653277
  outer loop
   vertex 494.583405 182.856827 128.037064
   vertex 494.635193 182.680038 128.088837
   vertex 495.342285 182.680054 127.381729
  endloop
 endfacet
 facet normal 0.653313 -0.382615 0.653290
  outer loop
   vertex 495.342285 182.680054 127.381729
   vertex 494.635193 182.680038 128.088837
   vertex 495.290527 182.503265 127.329948
  endloop
 endfacet
 facet normal 0.653269 -0.382715 0.653276
  outer loop
   vertex 495.290527 182.503265 127.329948
   vertex 494.635193 182.680038 128.088837
   vertex 494.583405 182.503265 128.037064
  endloop
 endfacet
 facet normal 0.270560 -0.923901 0.270563
  outer loop
   vertex 494.583405 182.503265 128.037064
   vertex 495.165527 182.430054 127.204948
   vertex 495.290527 182.503265 127.329948
  endloop
 endfacet
 facet normal 0.270551 -0.923905 0.270557
  outer loop
   vertex 494.458405 182.430054 127.912056
   vertex 495.165527 182.430054 127.204948
   vertex 494.583405 182.503265 128.037064
  endloop
 endfacet
 facet normal -0.270558 -0.923901 -0.270564
  outer loop
   vertex 495.040527 182.503265 127.079948
   vertex 495.165527 182.430054 127.204948
   vertex 494.458405 182.430054 127.912056
  endloop
 endfacet
 facet normal -0.270558 -0.923901 -0.270564
  outer loop
   vertex 494.458405 182.430054 127.912056
   vertex 494.333405 182.503265 127.787056
   vertex 495.040527 182.503265 127.079948
  endloop
 endfacet
 facet normal -0.653273 -0.382687 -0.653287
  outer loop
   vertex 495.040527 182.503265 127.079948
   vertex 494.333405 182.503265 127.787056
   vertex 494.988739 182.680054 127.028175
  endloop
 endfacet
 facet normal -0.653316 -0.382591 -0.653302
  outer loop
   vertex 494.988739 182.680054 127.028175
   vertex 494.333405 182.503265 127.787056
   vertex 494.281647 182.680054 127.735283
  endloop
 endfacet
 facet normal -0.653279 0.382715 -0.653265
  outer loop
   vertex 494.281647 182.680054 127.735283
   vertex 495.040527 182.856827 127.079948
   vertex 494.988739 182.680054 127.028175
  endloop
 endfacet
 facet normal -0.653293 0.382619 -0.653307
  outer loop
   vertex 494.333405 182.856827 127.787056
   vertex 495.040527 182.856827 127.079948
   vertex 494.281647 182.680054 127.735283
  endloop
 endfacet
endsolid