solid stl file generated from DOUG
 facet normal -0.836670 0.514147 0.188774
  outer loop
   vertex 398.402802 332.344391 139.013290
   vertex 398.440826 332.439301 138.923325
   vertex 394.082428 327.814514 132.202484
  endloop
 endfacet
 facet normal -0.272051 0.866024 -0.419511
  outer loop
   vertex 394.082428 327.814514 132.202484
   vertex 398.440826 332.439301 138.923325
   vertex 394.168640 327.814514 132.146576
  endloop
 endfacet
 facet normal 0.513587 0.514204 -0.686893
  outer loop
   vertex 393.117645 327.719604 132.893433
   vertex 393.019989 327.814514 132.891464
   vertex 397.378418 332.439270 139.612305
  endloop
 endfacet
 facet normal -0.272050 0.866026 -0.419509
  outer loop
   vertex 397.378418 332.439270 139.612305
   vertex 393.019989 327.814514 132.891464
   vertex 392.933777 327.814514 132.947372
  endloop
 endfacet
 facet normal -0.272050 0.866026 -0.419509
  outer loop
   vertex 392.933777 327.814514 132.947372
   vertex 397.292206 332.439270 139.668213
   vertex 397.378418 332.439270 139.612305
  endloop
 endfacet
 facet normal -0.554695 0.808488 -0.196623
  outer loop
   vertex 393.133118 327.179962 133.254761
   vertex 397.491516 331.804718 139.975601
   vertex 393.156189 327.190399 133.232590
  endloop
 endfacet
 facet normal -0.554853 0.808416 -0.196473
  outer loop
   vertex 393.156189 327.190399 133.232590
   vertex 397.491516 331.804718 139.975601
   vertex 397.514618 331.815186 139.953430
  endloop
 endfacet
 facet normal -0.839024 0.000012 0.544094
  outer loop
   vertex 397.514618 331.815186 139.953430
   vertex 397.358154 332.313293 139.712143
   vertex 393.156189 327.190399 133.232590
  endloop
 endfacet
 facet normal -0.836617 0.514279 0.188652
  outer loop
   vertex 394.082428 327.814514 132.202484
   vertex 394.044373 327.719604 132.292450
   vertex 398.402802 332.344391 139.013290
  endloop
 endfacet
 facet normal -0.272052 0.866025 -0.419510
  outer loop
   vertex 398.402802 332.344391 139.013290
   vertex 394.044373 327.719604 132.292450
   vertex 393.117645 327.719604 132.893433
  endloop
 endfacet
 facet normal -0.272052 0.866025 -0.419510
  outer loop
   vertex 393.117645 327.719604 132.893433
   vertex 397.476074 332.344391 139.614273
   vertex 398.402802 332.344391 139.013290
  endloop
 endfacet
 facet normal 0.513504 0.514283 -0.686896
  outer loop
   vertex 397.378418 332.439270 139.612305
   vertex 397.476074 332.344391 139.614273
   vertex 393.117645 327.719604 132.893433
  endloop
 endfacet
 facet normal -0.839038 0.000056 0.544073
  outer loop
   vertex 397.292206 332.439270 139.668213
   vertex 392.933777 327.814514 132.947372
   vertex 397.328491 332.323730 139.724182
  endloop
 endfacet
 facet normal -0.839038 0.000056 0.544073
  outer loop
   vertex 397.328491 332.323730 139.724182
   vertex 392.933777 327.814514 132.947372
   vertex 392.970062 327.698975 133.003342
  endloop
 endfacet
 facet normal -0.046452 -0.808592 0.586533
  outer loop
   vertex 392.970062 327.698975 133.003342
   vertex 397.358154 332.313293 139.712143
   vertex 397.328491 332.323730 139.724182
  endloop
 endfacet
 facet normal -0.047096 -0.808363 0.586797
  outer loop
   vertex 392.999725 327.688507 132.991302
   vertex 397.358154 332.313293 139.712143
   vertex 392.970062 327.698975 133.003342
  endloop
 endfacet
 facet normal -0.839024 0.000012 0.544094
  outer loop
   vertex 393.156189 327.190399 133.232590
   vertex 397.358154 332.313293 139.712143
   vertex 392.999725 327.688507 132.991302
  endloop
 endfacet
 facet normal -0.471205 -0.499986 -0.726622
  outer loop
   vertex 393.924194 327.561554 131.738297
   vertex 392.889374 326.833649 132.910233
   vertex 392.660736 327.561554 132.557632
  endloop
 endfacet
 facet normal -0.839030 0.000014 0.544085
  outer loop
   vertex 392.660736 327.561554 132.557632
   vertex 392.889374 326.833649 132.910233
   vertex 393.131927 328.061554 133.284241
  endloop
 endfacet
 facet normal -0.272050 0.866023 -0.419516
  outer loop
   vertex 393.131927 328.061554 133.284241
   vertex 394.395386 328.061554 132.464905
   vertex 392.660736 327.561554 132.557632
  endloop
 endfacet
 facet normal 0.471200 0.500001 0.726615
  outer loop
   vertex 393.360596 327.333649 133.636841
   vertex 394.395386 328.061554 132.464905
   vertex 393.131927 328.061554 133.284241
  endloop
 endfacet
 facet normal 0.471200 0.500001 0.726615
  outer loop
   vertex 394.624054 327.333649 132.817505
   vertex 394.395386 328.061554 132.464905
   vertex 393.360596 327.333649 133.636841
  endloop
 endfacet
 facet normal 0.272046 -0.866027 0.419510
  outer loop
   vertex 393.360596 327.333649 133.636841
   vertex 392.889374 326.833649 132.910233
   vertex 394.624054 327.333649 132.817505
  endloop
 endfacet
 facet normal 0.272047 -0.866030 0.419503
  outer loop
   vertex 394.624054 327.333649 132.817505
   vertex 392.889374 326.833649 132.910233
   vertex 394.152832 326.833649 132.090881
  endloop
 endfacet
 facet normal -0.471215 -0.499974 -0.726624
  outer loop
   vertex 394.152832 326.833649 132.090881
   vertex 392.889374 326.833649 132.910233
   vertex 393.924194 327.561554 131.738297
  endloop
 endfacet
 facet normal 0.839027 -0.000006 -0.544089
  outer loop
   vertex 393.924194 327.561554 131.738297
   vertex 394.395386 328.061554 132.464905
   vertex 394.152832 326.833649 132.090881
  endloop
 endfacet
 facet normal -0.272050 0.866023 -0.419516
  outer loop
   vertex 392.660736 327.561554 132.557632
   vertex 394.395386 328.061554 132.464905
   vertex 393.924194 327.561554 131.738297
  endloop
 endfacet
 facet normal -0.471195 -0.500016 -0.726608
  outer loop
   vertex 397.055267 332.224640 139.334183
   vertex 398.318726 332.224640 138.514847
   vertex 397.283936 331.496765 139.686783
  endloop
 endfacet
 facet normal -0.471195 -0.500016 -0.726608
  outer loop
   vertex 397.283936 331.496765 139.686783
   vertex 398.318726 332.224640 138.514847
   vertex 398.547394 331.496765 138.867447
  endloop
 endfacet
 facet normal 0.272050 -0.866023 0.419516
  outer loop
   vertex 398.547394 331.496765 138.867447
   vertex 399.018585 331.996765 139.594055
   vertex 397.283936 331.496765 139.686783
  endloop
 endfacet
 facet normal 0.839022 0.000012 -0.544098
  outer loop
   vertex 398.318726 332.224640 138.514847
   vertex 399.018585 331.996765 139.594055
   vertex 398.547394 331.496765 138.867447
  endloop
 endfacet
 facet normal 0.839022 0.000012 -0.544098
  outer loop
   vertex 398.789917 332.724670 139.241455
   vertex 399.018585 331.996765 139.594055
   vertex 398.318726 332.224640 138.514847
  endloop
 endfacet
 facet normal -0.272078 0.866009 -0.419525
  outer loop
   vertex 398.318726 332.224640 138.514847
   vertex 397.526459 332.724640 140.060791
   vertex 398.789917 332.724670 139.241455
  endloop
 endfacet
 facet normal 0.471192 0.500001 0.726621
  outer loop
   vertex 398.789917 332.724670 139.241455
   vertex 397.526459 332.724640 140.060791
   vertex 399.018585 331.996765 139.594055
  endloop
 endfacet
 facet normal 0.471195 0.500016 0.726608
  outer loop
   vertex 399.018585 331.996765 139.594055
   vertex 397.526459 332.724640 140.060791
   vertex 397.755127 331.996765 140.413391
  endloop
 endfacet
 facet normal 0.272050 -0.866023 0.419516
  outer loop
   vertex 397.755127 331.996765 140.413391
   vertex 397.283936 331.496765 139.686783
   vertex 399.018585 331.996765 139.594055
  endloop
 endfacet
 facet normal -0.839022 -0.000012 0.544098
  outer loop
   vertex 397.526459 332.724640 140.060791
   vertex 397.283936 331.496765 139.686783
   vertex 397.755127 331.996765 140.413391
  endloop
 endfacet
 facet normal -0.839022 -0.000012 0.544098
  outer loop
   vertex 397.055267 332.224640 139.334183
   vertex 397.283936 331.496765 139.686783
   vertex 397.526459 332.724640 140.060791
  endloop
 endfacet
 facet normal -0.272050 0.866023 -0.419516
  outer loop
   vertex 397.526459 332.724640 140.060791
   vertex 398.318726 332.224640 138.514847
   vertex 397.055267 332.224640 139.334183
  endloop
 endfacet
 facet normal -0.272051 0.866024 -0.419511
  outer loop
   vertex 398.440826 332.439301 138.923325
   vertex 398.527039 332.439301 138.867416
   vertex 394.168640 327.814514 132.146576
  endloop
 endfacet
 facet normal 0.838987 0.000111 -0.544151
  outer loop
   vertex 394.168640 327.814514 132.146576
   vertex 398.527039 332.439301 138.867416
   vertex 398.563354 332.323730 138.923386
  endloop
 endfacet
 facet normal 0.839038 -0.000056 -0.544073
  outer loop
   vertex 398.563354 332.323730 138.923386
   vertex 394.204926 327.698975 132.202545
   vertex 394.168640 327.814514 132.146576
  endloop
 endfacet
 facet normal 0.554288 -0.808672 0.197012
  outer loop
   vertex 398.540253 332.313293 138.945541
   vertex 394.204926 327.698975 132.202545
   vertex 398.563354 332.323730 138.923386
  endloop
 endfacet
 facet normal 0.555138 -0.808286 0.196201
  outer loop
   vertex 394.181854 327.688507 132.224701
   vertex 394.204926 327.698975 132.202545
   vertex 398.540253 332.313293 138.945541
  endloop
 endfacet
 facet normal 0.839013 0.000027 -0.544111
  outer loop
   vertex 398.540253 332.313293 138.945541
   vertex 398.696747 331.815186 139.186829
   vertex 394.181854 327.688507 132.224701
  endloop
 endfacet
 facet normal 0.839024 -0.000012 -0.544094
  outer loop
   vertex 394.181854 327.688507 132.224701
   vertex 398.696747 331.815186 139.186829
   vertex 394.338318 327.190399 132.465988
  endloop
 endfacet
 facet normal 0.047368 0.808267 -0.586908
  outer loop
   vertex 394.338318 327.190399 132.465988
   vertex 398.696747 331.815186 139.186829
   vertex 398.726379 331.804718 139.174805
  endloop
 endfacet
 facet normal 0.046686 0.808510 -0.586628
  outer loop
   vertex 398.726379 331.804718 139.174805
   vertex 394.367981 327.179962 132.453964
   vertex 394.338318 327.190399 132.465988
  endloop
 endfacet
 facet normal 0.839035 -0.000042 -0.544077
  outer loop
   vertex 398.744385 331.747406 139.202576
   vertex 394.367981 327.179962 132.453964
   vertex 398.726379 331.804718 139.174805
  endloop
 endfacet
 facet normal 0.839035 -0.000042 -0.544077
  outer loop
   vertex 394.385986 327.122620 132.481735
   vertex 394.367981 327.179962 132.453964
   vertex 398.744385 331.747406 139.202576
  endloop
 endfacet
 facet normal 0.272054 -0.866024 0.419509
  outer loop
   vertex 398.744385 331.747406 139.202576
   vertex 397.509552 331.747406 140.003372
   vertex 394.385986 327.122620 132.481735
  endloop
 endfacet
 facet normal 0.272049 -0.866025 0.419512
  outer loop
   vertex 394.385986 327.122620 132.481735
   vertex 397.509552 331.747406 140.003372
   vertex 393.151123 327.122620 133.282532
  endloop
 endfacet
 facet normal -0.839034 0.000044 0.544079
  outer loop
   vertex 393.151123 327.122620 133.282532
   vertex 397.509552 331.747406 140.003372
   vertex 393.133118 327.179962 133.254761
  endloop
 endfacet
 facet normal -0.839010 0.000001 0.544116
  outer loop
   vertex 393.360596 327.333649 133.636841
   vertex 393.131927 328.061554 133.284241
   vertex 392.889374 326.833649 132.910233
  endloop
 endfacet
 facet normal 0.839014 0.000003 -0.544110
  outer loop
   vertex 394.395386 328.061554 132.464905
   vertex 394.624054 327.333649 132.817505
   vertex 394.152832 326.833649 132.090881
  endloop
 endfacet
 facet normal -0.838930 -0.000293 0.544239
  outer loop
   vertex 397.509552 331.747406 140.003372
   vertex 397.491516 331.804718 139.975601
   vertex 393.133118 327.179962 133.254761
  endloop
 endfacet
 facet normal 0.756386 0.461957 0.463116
  outer loop
   vertex 399.155975 330.572144 141.189743
   vertex 399.428040 329.706116 141.609253
   vertex 399.611267 330.425720 140.592194
  endloop
 endfacet
 facet normal 0.756410 0.461931 0.463102
  outer loop
   vertex 399.611267 330.425720 140.592194
   vertex 399.428040 329.706116 141.609253
   vertex 399.883301 329.559692 141.011703
  endloop
 endfacet
 facet normal 0.955477 0.191317 -0.224635
  outer loop
   vertex 399.883301 329.559692 141.011703
   vertex 399.523804 330.072144 139.919037
   vertex 399.611267 330.425720 140.592194
  endloop
 endfacet
 facet normal 0.955474 0.191360 -0.224613
  outer loop
   vertex 399.795868 329.206116 140.338547
   vertex 399.523804 330.072144 139.919037
   vertex 399.883301 329.559692 141.011703
  endloop
 endfacet
 facet normal 0.594839 -0.191328 -0.780744
  outer loop
   vertex 398.944885 329.718597 139.564606
   vertex 399.523804 330.072144 139.919037
   vertex 399.795868 329.206116 140.338547
  endloop
 endfacet
 facet normal 0.594826 -0.191355 -0.780747
  outer loop
   vertex 399.795868 329.206116 140.338547
   vertex 399.216919 328.852570 139.984116
   vertex 398.944885 329.718597 139.564606
  endloop
 endfacet
 facet normal -0.114258 -0.461937 -0.879522
  outer loop
   vertex 398.944885 329.718597 139.564606
   vertex 399.216919 328.852570 139.984116
   vertex 398.213593 329.572144 139.736526
  endloop
 endfacet
 facet normal -0.114258 -0.461937 -0.879522
  outer loop
   vertex 398.213593 329.572144 139.736526
   vertex 399.216919 328.852570 139.984116
   vertex 398.485626 328.706116 140.156036
  endloop
 endfacet
 facet normal -0.756403 -0.461933 -0.463112
  outer loop
   vertex 398.485626 328.706116 140.156036
   vertex 397.758301 329.718597 140.334076
   vertex 398.213593 329.572144 139.736526
  endloop
 endfacet
 facet normal -0.756415 -0.461947 -0.463078
  outer loop
   vertex 398.030365 328.852570 140.753586
   vertex 397.758301 329.718597 140.334076
   vertex 398.485626 328.706116 140.156036
  endloop
 endfacet
 facet normal -0.955470 -0.191345 0.224640
  outer loop
   vertex 397.845764 330.072144 141.007233
   vertex 397.758301 329.718597 140.334076
   vertex 398.030365 328.852570 140.753586
  endloop
 endfacet
 facet normal -0.955470 -0.191345 0.224640
  outer loop
   vertex 398.030365 328.852570 140.753586
   vertex 398.117828 329.206116 141.426743
   vertex 397.845764 330.072144 141.007233
  endloop
 endfacet
 facet normal -0.594839 0.191328 0.780744
  outer loop
   vertex 397.845764 330.072144 141.007233
   vertex 398.117828 329.206116 141.426743
   vertex 398.424683 330.425690 141.361664
  endloop
 endfacet
 facet normal -0.594846 0.191329 0.780738
  outer loop
   vertex 398.424683 330.425690 141.361664
   vertex 398.117828 329.206116 141.426743
   vertex 398.696747 329.559692 141.781174
  endloop
 endfacet
 facet normal 0.114253 0.461952 0.879515
  outer loop
   vertex 398.696747 329.559692 141.781174
   vertex 399.155975 330.572144 141.189743
   vertex 398.424683 330.425690 141.361664
  endloop
 endfacet
 facet normal 0.114274 0.461943 0.879517
  outer loop
   vertex 399.428040 329.706116 141.609253
   vertex 399.155975 330.572144 141.189743
   vertex 398.696747 329.559692 141.781174
  endloop
 endfacet
 facet normal -0.756440 -0.461921 -0.463063
  outer loop
   vertex 393.778107 326.166077 133.221741
   vertex 393.619873 326.995514 132.652832
   vertex 393.891907 326.129486 133.072342
  endloop
 endfacet
 facet normal -0.114273 -0.461940 -0.879519
  outer loop
   vertex 393.891907 326.129486 133.072342
   vertex 393.619873 326.995514 132.652832
   vertex 393.802673 327.032104 132.609863
  endloop
 endfacet
 facet normal -0.114255 -0.461940 -0.879521
  outer loop
   vertex 393.802673 327.032104 132.609863
   vertex 394.074738 326.166077 133.029373
   vertex 393.891907 326.129486 133.072342
  endloop
 endfacet
 facet normal 0.594820 -0.191339 -0.780755
  outer loop
   vertex 393.947418 327.120514 132.698471
   vertex 394.074738 326.166077 133.029373
   vertex 393.802673 327.032104 132.609863
  endloop
 endfacet
 facet normal 0.594820 -0.191339 -0.780755
  outer loop
   vertex 394.219482 326.254486 133.117981
   vertex 394.074738 326.166077 133.029373
   vertex 393.947418 327.120514 132.698471
  endloop
 endfacet
 facet normal 0.955480 0.191384 -0.224567
  outer loop
   vertex 393.947418 327.120514 132.698471
   vertex 393.969269 327.208893 132.866760
   vertex 394.219482 326.254486 133.117981
  endloop
 endfacet
 facet normal 0.955480 0.191384 -0.224567
  outer loop
   vertex 394.219482 326.254486 133.117981
   vertex 393.969269 327.208893 132.866760
   vertex 394.241333 326.342865 133.286270
  endloop
 endfacet
 facet normal 0.756456 0.461934 0.463024
  outer loop
   vertex 394.241333 326.342865 133.286270
   vertex 393.969269 327.208893 132.866760
   vertex 393.855469 327.245514 133.016144
  endloop
 endfacet
 facet normal 0.756390 0.461937 0.463128
  outer loop
   vertex 393.855469 327.245514 133.016144
   vertex 394.127502 326.379486 133.435654
   vertex 394.241333 326.342865 133.286270
  endloop
 endfacet
 facet normal 0.114252 0.461936 0.879524
  outer loop
   vertex 393.672638 327.208893 133.059128
   vertex 394.127502 326.379486 133.435654
   vertex 393.855469 327.245514 133.016144
  endloop
 endfacet
 facet normal 0.114269 0.461942 0.879518
  outer loop
   vertex 393.944702 326.342865 133.478638
   vertex 394.127502 326.379486 133.435654
   vertex 393.672638 327.208893 133.059128
  endloop
 endfacet
 facet normal -0.594797 0.191353 0.780769
  outer loop
   vertex 393.672638 327.208893 133.059128
   vertex 393.527893 327.120514 132.970520
   vertex 393.944702 326.342865 133.478638
  endloop
 endfacet
 facet normal -0.594797 0.191353 0.780769
  outer loop
   vertex 393.944702 326.342865 133.478638
   vertex 393.527893 327.120514 132.970520
   vertex 393.799957 326.254486 133.390030
  endloop
 endfacet
 facet normal -0.955476 -0.191370 0.224593
  outer loop
   vertex 393.799957 326.254486 133.390030
   vertex 393.527893 327.120514 132.970520
   vertex 393.506042 327.032104 132.802231
  endloop
 endfacet
 facet normal -0.955476 -0.191370 0.224593
  outer loop
   vertex 393.506042 327.032104 132.802231
   vertex 393.778107 326.166077 133.221741
   vertex 393.799957 326.254486 133.390030
  endloop
 endfacet
 facet normal -0.756362 -0.461964 -0.463147
  outer loop
   vertex 393.619873 326.995514 132.652832
   vertex 393.778107 326.166077 133.221741
   vertex 393.506042 327.032104 132.802231
  endloop
 endfacet
 facet normal -0.756391 -0.461955 -0.463109
  outer loop
   vertex 393.624603 324.177551 133.959763
   vertex 393.807831 324.897156 132.942688
   vertex 394.079895 324.031128 133.362198
  endloop
 endfacet
 facet normal -0.114274 -0.461943 -0.879517
  outer loop
   vertex 394.079895 324.031128 133.362198
   vertex 393.807831 324.897156 132.942688
   vertex 394.539124 325.043579 132.770767
  endloop
 endfacet
 facet normal -0.114280 -0.461941 -0.879517
  outer loop
   vertex 394.539124 325.043579 132.770767
   vertex 394.811157 324.177551 133.190277
   vertex 394.079895 324.031128 133.362198
  endloop
 endfacet
 facet normal 0.594849 -0.191340 -0.780732
  outer loop
   vertex 395.118042 325.397156 133.125198
   vertex 394.811157 324.177551 133.190277
   vertex 394.539124 325.043579 132.770767
  endloop
 endfacet
 facet normal 0.594827 -0.191335 -0.780751
  outer loop
   vertex 395.390106 324.531128 133.544708
   vertex 394.811157 324.177551 133.190277
   vertex 395.118042 325.397156 133.125198
  endloop
 endfacet
 facet normal 0.955470 0.191345 -0.224640
  outer loop
   vertex 395.118042 325.397156 133.125198
   vertex 395.205505 325.750702 133.798355
   vertex 395.390106 324.531128 133.544708
  endloop
 endfacet
 facet normal 0.955483 0.191338 -0.224595
  outer loop
   vertex 395.390106 324.531128 133.544708
   vertex 395.205505 325.750702 133.798355
   vertex 395.477539 324.884674 134.217865
  endloop
 endfacet
 facet normal 0.756426 0.461926 0.463081
  outer loop
   vertex 395.477539 324.884674 134.217865
   vertex 395.205505 325.750702 133.798355
   vertex 394.750244 325.897156 134.395920
  endloop
 endfacet
 facet normal 0.756426 0.461926 0.463081
  outer loop
   vertex 394.750244 325.897156 134.395920
   vertex 395.022278 325.031128 134.815430
   vertex 395.477539 324.884674 134.217865
  endloop
 endfacet
 facet normal 0.114241 0.461934 0.879526
  outer loop
   vertex 394.018951 325.750702 134.567825
   vertex 395.022278 325.031128 134.815430
   vertex 394.750244 325.897156 134.395920
  endloop
 endfacet
 facet normal 0.114241 0.461934 0.879526
  outer loop
   vertex 394.290985 324.884674 134.987335
   vertex 395.022278 325.031128 134.815430
   vertex 394.018951 325.750702 134.567825
  endloop
 endfacet
 facet normal -0.594826 0.191355 0.780747
  outer loop
   vertex 394.018951 325.750702 134.567825
   vertex 393.440002 325.397156 134.213394
   vertex 394.290985 324.884674 134.987335
  endloop
 endfacet
 facet normal -0.594830 0.191345 0.780746
  outer loop
   vertex 394.290985 324.884674 134.987335
   vertex 393.440002 325.397156 134.213394
   vertex 393.712067 324.531128 134.632919
  endloop
 endfacet
 facet normal -0.955475 -0.191357 0.224612
  outer loop
   vertex 393.712067 324.531128 134.632919
   vertex 393.440002 325.397156 134.213394
   vertex 393.352570 325.043579 133.540237
  endloop
 endfacet
 facet normal -0.955478 -0.191314 0.224633
  outer loop
   vertex 393.352570 325.043579 133.540237
   vertex 393.624603 324.177551 133.959763
   vertex 393.712067 324.531128 134.632919
  endloop
 endfacet
 facet normal -0.756408 -0.461937 -0.463100
  outer loop
   vertex 393.807831 324.897156 132.942688
   vertex 393.624603 324.177551 133.959763
   vertex 393.352570 325.043579 133.540237
  endloop
 endfacet
 facet normal -0.776688 0.113547 -0.619567
  outer loop
   vertex 393.352570 325.043579 133.540237
   vertex 393.889191 326.138153 133.068130
   vertex 393.807831 324.897156 132.942688
  endloop
 endfacet
 facet normal -0.248841 0.113541 -0.961866
  outer loop
   vertex 393.807831 324.897156 132.942688
   vertex 393.889191 326.138153 133.068130
   vertex 394.071991 326.174774 133.025162
  endloop
 endfacet
 facet normal -0.248860 0.113545 -0.961861
  outer loop
   vertex 394.071991 326.174774 133.025162
   vertex 394.539124 325.043579 132.770767
   vertex 393.807831 324.897156 132.942688
  endloop
 endfacet
 facet normal 0.333930 0.335957 -0.880695
  outer loop
   vertex 394.216736 326.263184 133.113770
   vertex 394.539124 325.043579 132.770767
   vertex 394.071991 326.174774 133.025162
  endloop
 endfacet
 facet normal 0.333982 0.335965 -0.880672
  outer loop
   vertex 395.118042 325.397156 133.125198
   vertex 394.539124 325.043579 132.770767
   vertex 394.216736 326.263184 133.113770
  endloop
 endfacet
 facet normal 0.630443 0.650535 -0.423492
  outer loop
   vertex 394.216736 326.263184 133.113770
   vertex 394.238586 326.351562 133.282059
   vertex 395.118042 325.397156 133.125198
  endloop
 endfacet
 facet normal 0.630411 0.650518 -0.423566
  outer loop
   vertex 395.118042 325.397156 133.125198
   vertex 394.238586 326.351562 133.282059
   vertex 395.205505 325.750702 133.798355
  endloop
 endfacet
 facet normal 0.466830 0.872932 0.141632
  outer loop
   vertex 395.205505 325.750702 133.798355
   vertex 394.238586 326.351562 133.282059
   vertex 394.124786 326.388184 133.431442
  endloop
 endfacet
 facet normal 0.466807 0.872933 0.141700
  outer loop
   vertex 394.124786 326.388184 133.431442
   vertex 394.750244 325.897156 134.395920
   vertex 395.205505 325.750702 133.798355
  endloop
 endfacet
 facet normal -0.061055 0.872928 0.484013
  outer loop
   vertex 393.941956 326.351562 133.474426
   vertex 394.750244 325.897156 134.395920
   vertex 394.124786 326.388184 133.431442
  endloop
 endfacet
 facet normal -0.061044 0.872933 0.484006
  outer loop
   vertex 394.018951 325.750702 134.567825
   vertex 394.750244 325.897156 134.395920
   vertex 393.941956 326.351562 133.474426
  endloop
 endfacet
 facet normal -0.643982 0.650427 0.402781
  outer loop
   vertex 393.941956 326.351562 133.474426
   vertex 393.797241 326.263153 133.385818
   vertex 394.018951 325.750702 134.567825
  endloop
 endfacet
 facet normal -0.643858 0.650535 0.402804
  outer loop
   vertex 394.018951 325.750702 134.567825
   vertex 393.797241 326.263153 133.385818
   vertex 393.440002 325.397156 134.213394
  endloop
 endfacet
 facet normal -0.940279 0.336058 -0.054229
  outer loop
   vertex 393.440002 325.397156 134.213394
   vertex 393.797241 326.263153 133.385818
   vertex 393.775360 326.174774 133.217529
  endloop
 endfacet
 facet normal -0.940312 0.335949 -0.054325
  outer loop
   vertex 393.775360 326.174774 133.217529
   vertex 393.352570 325.043579 133.540237
   vertex 393.440002 325.397156 134.213394
  endloop
 endfacet
 facet normal -0.776670 0.113527 -0.619592
  outer loop
   vertex 393.889191 326.138153 133.068130
   vertex 393.352570 325.043579 133.540237
   vertex 393.775360 326.174774 133.217529
  endloop
 endfacet
 facet normal 0.756440 0.461921 0.463063
  outer loop
   vertex 398.261230 331.920502 139.809982
   vertex 398.533264 331.054474 140.229492
   vertex 398.375031 331.883911 139.660583
  endloop
 endfacet
 facet normal 0.756362 0.461964 0.463147
  outer loop
   vertex 398.375031 331.883911 139.660583
   vertex 398.533264 331.054474 140.229492
   vertex 398.647095 331.017883 140.080093
  endloop
 endfacet
 facet normal 0.955476 0.191370 -0.224593
  outer loop
   vertex 398.647095 331.017883 140.080093
   vertex 398.353180 331.795502 139.492294
   vertex 398.375031 331.883911 139.660583
  endloop
 endfacet
 facet normal 0.955467 0.191274 -0.224715
  outer loop
   vertex 398.625214 330.929474 139.911804
   vertex 398.353180 331.795502 139.492294
   vertex 398.647095 331.017883 140.080093
  endloop
 endfacet
 facet normal 0.594802 -0.191369 -0.780761
  outer loop
   vertex 398.208435 331.707123 139.403687
   vertex 398.353180 331.795502 139.492294
   vertex 398.625214 330.929474 139.911804
  endloop
 endfacet
 facet normal 0.594869 -0.191310 -0.780725
  outer loop
   vertex 398.625214 330.929474 139.911804
   vertex 398.480499 330.841095 139.823196
   vertex 398.208435 331.707123 139.403687
  endloop
 endfacet
 facet normal -0.114251 -0.461939 -0.879522
  outer loop
   vertex 398.208435 331.707123 139.403687
   vertex 398.480499 330.841095 139.823196
   vertex 398.025604 331.670502 139.446671
  endloop
 endfacet
 facet normal -0.114251 -0.461939 -0.879522
  outer loop
   vertex 398.025604 331.670502 139.446671
   vertex 398.480499 330.841095 139.823196
   vertex 398.297668 330.804474 139.866180
  endloop
 endfacet
 facet normal -0.756456 -0.461934 -0.463024
  outer loop
   vertex 398.297668 330.804474 139.866180
   vertex 397.911804 331.707123 139.596054
   vertex 398.025604 331.670502 139.446671
  endloop
 endfacet
 facet normal -0.756390 -0.461937 -0.463128
  outer loop
   vertex 398.183838 330.841095 140.015564
   vertex 397.911804 331.707123 139.596054
   vertex 398.297668 330.804474 139.866180
  endloop
 endfacet
 facet normal -0.955488 -0.191359 0.224554
  outer loop
   vertex 397.933655 331.795502 139.764343
   vertex 397.911804 331.707123 139.596054
   vertex 398.183838 330.841095 140.015564
  endloop
 endfacet
 facet normal -0.955463 -0.191314 0.224701
  outer loop
   vertex 398.183838 330.841095 140.015564
   vertex 398.205719 330.929474 140.183853
   vertex 397.933655 331.795502 139.764343
  endloop
 endfacet
 facet normal -0.594820 0.191339 0.780755
  outer loop
   vertex 397.933655 331.795502 139.764343
   vertex 398.205719 330.929474 140.183853
   vertex 398.078400 331.883911 139.852951
  endloop
 endfacet
 facet normal -0.594897 0.191311 0.780703
  outer loop
   vertex 398.078400 331.883911 139.852951
   vertex 398.205719 330.929474 140.183853
   vertex 398.350433 331.017883 140.272461
  endloop
 endfacet
 facet normal 0.114256 0.461937 0.879523
  outer loop
   vertex 398.350433 331.017883 140.272461
   vertex 398.261230 331.920502 139.809982
   vertex 398.078400 331.883911 139.852951
  endloop
 endfacet
 facet normal 0.114256 0.461937 0.879523
  outer loop
   vertex 398.533264 331.054474 140.229492
   vertex 398.261230 331.920502 139.809982
   vertex 398.350433 331.017883 140.272461
  endloop
 endfacet
 facet normal -0.061099 0.872932 0.484000
  outer loop
   vertex 398.347717 331.026550 140.268250
   vertex 398.424683 330.425690 141.361664
   vertex 398.530548 331.063171 140.225281
  endloop
 endfacet
 facet normal -0.061034 0.872933 0.484007
  outer loop
   vertex 398.530548 331.063171 140.225281
   vertex 398.424683 330.425690 141.361664
   vertex 399.155975 330.572144 141.189743
  endloop
 endfacet
 facet normal 0.466874 0.872904 0.141659
  outer loop
   vertex 399.155975 330.572144 141.189743
   vertex 398.644348 331.026550 140.075882
   vertex 398.530548 331.063171 140.225281
  endloop
 endfacet
 facet normal 0.466760 0.872953 0.141731
  outer loop
   vertex 399.611267 330.425720 140.592194
   vertex 398.644348 331.026550 140.075882
   vertex 399.155975 330.572144 141.189743
  endloop
 endfacet
 facet normal 0.630397 0.650571 -0.423505
  outer loop
   vertex 398.622498 330.938171 139.907593
   vertex 398.644348 331.026550 140.075882
   vertex 399.611267 330.425720 140.592194
  endloop
 endfacet
 facet normal 0.630417 0.650500 -0.423586
  outer loop
   vertex 399.611267 330.425720 140.592194
   vertex 399.523804 330.072144 139.919037
   vertex 398.622498 330.938171 139.907593
  endloop
 endfacet
 facet normal 0.333988 0.335956 -0.880673
  outer loop
   vertex 398.622498 330.938171 139.907593
   vertex 399.523804 330.072144 139.919037
   vertex 398.477753 330.849792 139.818985
  endloop
 endfacet
 facet normal 0.333995 0.335966 -0.880667
  outer loop
   vertex 398.477753 330.849792 139.818985
   vertex 399.523804 330.072144 139.919037
   vertex 398.944885 329.718597 139.564606
  endloop
 endfacet
 facet normal -0.248875 0.113526 -0.961859
  outer loop
   vertex 398.944885 329.718597 139.564606
   vertex 398.294922 330.813171 139.861969
   vertex 398.477753 330.849792 139.818985
  endloop
 endfacet
 facet normal -0.248863 0.113533 -0.961862
  outer loop
   vertex 398.213593 329.572144 139.736526
   vertex 398.294922 330.813171 139.861969
   vertex 398.944885 329.718597 139.564606
  endloop
 endfacet
 facet normal -0.776750 0.113522 -0.619493
  outer loop
   vertex 398.181122 330.849792 140.011368
   vertex 398.294922 330.813171 139.861969
   vertex 398.213593 329.572144 139.736526
  endloop
 endfacet
 facet normal -0.776666 0.113546 -0.619595
  outer loop
   vertex 398.213593 329.572144 139.736526
   vertex 397.758301 329.718597 140.334076
   vertex 398.181122 330.849792 140.011368
  endloop
 endfacet
 facet normal -0.940305 0.335965 -0.054347
  outer loop
   vertex 398.181122 330.849792 140.011368
   vertex 397.758301 329.718597 140.334076
   vertex 398.202972 330.938171 140.179657
  endloop
 endfacet
 facet normal -0.940306 0.335974 -0.054282
  outer loop
   vertex 398.202972 330.938171 140.179657
   vertex 397.758301 329.718597 140.334076
   vertex 397.845764 330.072144 141.007233
  endloop
 endfacet
 facet normal -0.643800 0.650543 0.402884
  outer loop
   vertex 397.845764 330.072144 141.007233
   vertex 398.347717 331.026550 140.268250
   vertex 398.202972 330.938171 140.179657
  endloop
 endfacet
 facet normal -0.643878 0.650518 0.402800
  outer loop
   vertex 398.424683 330.425690 141.361664
   vertex 398.347717 331.026550 140.268250
   vertex 397.845764 330.072144 141.007233
  endloop
 endfacet
endsolid