solid stl file generated from DOUG
 facet normal 0.000021 0.000065 -1.000000
  outer loop
   vertex -884.041809 -15.087866 251.265457
   vertex -884.148254 -15.759891 251.265411
   vertex -885.099304 -15.450873 251.265411
  endloop
 endfacet
 facet normal -0.000000 -0.000000 -1.000000
  outer loop
   vertex -885.099304 -15.450873 251.265411
   vertex -884.148254 -15.759891 251.265411
   vertex -891.392273 -29.977079 251.265411
  endloop
 endfacet
 facet normal 0.000000 0.000000 -1.000000
  outer loop
   vertex -891.392273 -29.977079 251.265411
   vertex -892.201294 -29.389296 251.265411
   vertex -885.099304 -15.450873 251.265411
  endloop
 endfacet
 facet normal -0.000021 -0.000065 1.000000
  outer loop
   vertex -884.041809 -15.087866 252.265457
   vertex -885.099304 -15.450873 252.265411
   vertex -884.148254 -15.759891 252.265411
  endloop
 endfacet
 facet normal -0.000000 0.000000 1.000000
  outer loop
   vertex -884.148254 -15.759891 252.265411
   vertex -885.099304 -15.450873 252.265411
   vertex -892.201294 -29.389296 252.265411
  endloop
 endfacet
 facet normal 0.000000 -0.000000 1.000000
  outer loop
   vertex -892.201294 -29.389296 252.265411
   vertex -891.392273 -29.977079 252.265411
   vertex -884.148254 -15.759891 252.265411
  endloop
 endfacet
 facet normal -0.000021 -0.000066 1.000000
  outer loop
   vertex -884.041809 -15.087866 252.265457
   vertex -884.994934 -14.792027 252.265457
   vertex -885.099304 -15.450873 252.265411
  endloop
 endfacet
 facet normal 0.000021 0.000066 -1.000000
  outer loop
   vertex -884.994934 -14.792027 251.265457
   vertex -884.041809 -15.087866 251.265457
   vertex -885.099304 -15.450873 251.265411
  endloop
 endfacet
 facet normal -0.891006 0.453991 0.000000
  outer loop
   vertex -892.201294 -29.389296 251.265411
   vertex -892.201294 -29.389296 252.265411
   vertex -885.099304 -15.450873 251.265411
  endloop
 endfacet
 facet normal -0.891006 0.453991 -0.000000
  outer loop
   vertex -885.099304 -15.450873 251.265411
   vertex -892.201294 -29.389296 252.265411
   vertex -885.099304 -15.450873 252.265411
  endloop
 endfacet
 facet normal -0.987684 0.156462 0.000000
  outer loop
   vertex -885.099304 -15.450873 252.265411
   vertex -884.994934 -14.792027 251.265457
   vertex -885.099304 -15.450873 251.265411
  endloop
 endfacet
 facet normal -0.987684 0.156462 -0.000000
  outer loop
   vertex -884.994934 -14.792027 252.265457
   vertex -884.994934 -14.792027 251.265457
   vertex -885.099304 -15.450873 252.265411
  endloop
 endfacet
 facet normal 0.987687 -0.156445 0.000000
  outer loop
   vertex -884.041809 -15.087866 251.265457
   vertex -884.041809 -15.087866 252.265457
   vertex -884.148254 -15.759891 251.265411
  endloop
 endfacet
 facet normal 0.987687 -0.156445 -0.000000
  outer loop
   vertex -884.148254 -15.759891 251.265411
   vertex -884.041809 -15.087866 252.265457
   vertex -884.148254 -15.759891 252.265411
  endloop
 endfacet
 facet normal 0.891007 -0.453990 0.000000
  outer loop
   vertex -884.148254 -15.759891 252.265411
   vertex -891.392273 -29.977079 251.265411
   vertex -884.148254 -15.759891 251.265411
  endloop
 endfacet
 facet normal 0.891007 -0.453990 -0.000000
  outer loop
   vertex -891.392273 -29.977079 252.265411
   vertex -891.392273 -29.977079 251.265411
   vertex -884.148254 -15.759891 252.265411
  endloop
 endfacet
endsolid