solid stl file generated from DOUG
 facet normal -0.939441 -0.342710 -0.000010
  outer loop
   vertex -921.110962 -33.095207 216.468246
   vertex -920.422791 -34.981689 218.477005
   vertex -920.725952 -34.150684 219.361603
  endloop
 endfacet
 facet normal -0.939438 -0.342720 0.000001
  outer loop
   vertex -920.725952 -34.150684 219.361603
   vertex -920.422791 -34.981689 218.477005
   vertex -918.780212 -39.484177 225.049500
  endloop
 endfacet
 facet normal -0.939436 -0.342724 -0.000003
  outer loop
   vertex -918.780212 -39.484177 225.049500
   vertex -919.127075 -38.533401 225.784821
   vertex -920.725952 -34.150684 219.361603
  endloop
 endfacet
 facet normal -0.939436 -0.342723 -0.000004
  outer loop
   vertex -917.458740 -43.106541 232.419205
   vertex -919.127075 -38.533401 225.784821
   vertex -918.780212 -39.484177 225.049500
  endloop
 endfacet
 facet normal -0.939435 -0.342726 -0.000006
  outer loop
   vertex -917.840759 -42.059410 232.987137
   vertex -919.127075 -38.533401 225.784821
   vertex -917.458740 -43.106541 232.419205
  endloop
 endfacet
 facet normal -0.939436 -0.342726 -0.000007
  outer loop
   vertex -917.458740 -43.106541 232.419205
   vertex -916.490906 -45.759598 240.404648
   vertex -917.840759 -42.059410 232.987137
  endloop
 endfacet
 facet normal -0.939432 -0.342734 -0.000011
  outer loop
   vertex -917.840759 -42.059410 232.987137
   vertex -916.490906 -45.759598 240.404648
   vertex -916.898682 -44.641899 240.791229
  endloop
 endfacet
 facet normal -0.939432 -0.342735 -0.000007
  outer loop
   vertex -916.898682 -44.641899 240.791229
   vertex -916.490906 -45.759598 240.404648
   vertex -915.900513 -47.378025 248.809235
  endloop
 endfacet
 facet normal -0.939451 -0.342682 0.000014
  outer loop
   vertex -915.900513 -47.378025 248.809235
   vertex -916.323914 -46.217278 249.004929
   vertex -916.898682 -44.641899 240.791229
  endloop
 endfacet
 facet normal -0.939451 -0.342682 0.000015
  outer loop
   vertex -915.821228 -47.595230 252.250015
   vertex -916.323914 -46.217278 249.004929
   vertex -915.900513 -47.378025 248.809235
  endloop
 endfacet
 facet normal -0.939432 -0.342735 -0.000010
  outer loop
   vertex -916.249512 -46.421310 252.250015
   vertex -916.323914 -46.217278 249.004929
   vertex -915.821228 -47.595230 252.250015
  endloop
 endfacet
 facet normal 0.939448 0.342692 -0.000010
  outer loop
   vertex -915.310059 -46.078598 252.250015
   vertex -914.881836 -47.252518 252.250015
   vertex -915.384521 -45.874565 249.004929
  endloop
 endfacet
 facet normal 0.939437 0.342723 0.000005
  outer loop
   vertex -915.384521 -45.874565 249.004929
   vertex -914.881836 -47.252518 252.250015
   vertex -914.961060 -47.035313 248.809235
  endloop
 endfacet
 facet normal 0.939436 0.342723 0.000002
  outer loop
   vertex -914.961060 -47.035313 248.809235
   vertex -915.959229 -44.299187 240.791229
   vertex -915.384521 -45.874565 249.004929
  endloop
 endfacet
 facet normal 0.939432 0.342735 0.000007
  outer loop
   vertex -915.551453 -45.416885 240.404648
   vertex -915.959229 -44.299187 240.791229
   vertex -914.961060 -47.035313 248.809235
  endloop
 endfacet
 facet normal 0.939432 0.342734 0.000011
  outer loop
   vertex -916.901306 -41.716698 232.987137
   vertex -915.959229 -44.299187 240.791229
   vertex -915.551453 -45.416885 240.404648
  endloop
 endfacet
 facet normal 0.939449 0.342688 -0.000015
  outer loop
   vertex -915.551453 -45.416885 240.404648
   vertex -916.519348 -42.763828 232.419205
   vertex -916.901306 -41.716698 232.987137
  endloop
 endfacet
 facet normal 0.939449 0.342688 -0.000015
  outer loop
   vertex -916.901306 -41.716698 232.987137
   vertex -916.519348 -42.763828 232.419205
   vertex -918.187622 -38.190689 225.784821
  endloop
 endfacet
 facet normal 0.939451 0.342685 -0.000018
  outer loop
   vertex -918.187622 -38.190689 225.784821
   vertex -916.519348 -42.763828 232.419205
   vertex -917.840820 -39.141464 225.049500
  endloop
 endfacet
 facet normal 0.939449 0.342689 -0.000024
  outer loop
   vertex -917.840820 -39.141464 225.049500
   vertex -919.786499 -33.807972 219.361603
   vertex -918.187622 -38.190689 225.784821
  endloop
 endfacet
 facet normal 0.939439 0.342715 0.000004
  outer loop
   vertex -919.483337 -34.638977 218.477005
   vertex -919.786499 -33.807972 219.361603
   vertex -917.840820 -39.141464 225.049500
  endloop
 endfacet
 facet normal 0.939436 0.342723 -0.000004
  outer loop
   vertex -920.171570 -32.752495 216.468246
   vertex -919.786499 -33.807972 219.361603
   vertex -919.483337 -34.638977 218.477005
  endloop
 endfacet
 facet normal -0.939436 -0.342726 -0.000016
  outer loop
   vertex -920.725952 -34.150684 219.361603
   vertex -921.713257 -31.444273 216.468246
   vertex -921.110962 -33.095207 216.468246
  endloop
 endfacet
 facet normal 0.939447 0.342694 -0.000017
  outer loop
   vertex -920.171570 -32.752495 216.468246
   vertex -920.773804 -31.101557 216.468246
   vertex -919.786499 -33.807972 219.361603
  endloop
 endfacet
 facet normal -0.335801 0.920447 0.200037
  outer loop
   vertex -915.959229 -44.299187 240.791229
   vertex -916.323914 -46.217278 249.004929
   vertex -915.384521 -45.874565 249.004929
  endloop
 endfacet
 facet normal -0.341963 0.937338 0.066775
  outer loop
   vertex -915.384521 -45.874565 249.004929
   vertex -916.323914 -46.217278 249.004929
   vertex -916.249512 -46.421310 252.250015
  endloop
 endfacet
 facet normal -0.341943 0.937345 0.066781
  outer loop
   vertex -916.249512 -46.421310 252.250015
   vertex -915.310059 -46.078598 252.250015
   vertex -915.384521 -45.874565 249.004929
  endloop
 endfacet
 facet normal 0.335728 -0.920307 -0.200802
  outer loop
   vertex -916.490906 -45.759598 240.404648
   vertex -914.961060 -47.035313 248.809235
   vertex -915.900513 -47.378025 248.809235
  endloop
 endfacet
 facet normal 0.341937 -0.937328 -0.067043
  outer loop
   vertex -915.900513 -47.378025 248.809235
   vertex -914.961060 -47.035313 248.809235
   vertex -914.881836 -47.252518 252.250015
  endloop
 endfacet
 facet normal 0.341957 -0.937321 -0.067050
  outer loop
   vertex -914.881836 -47.252518 252.250015
   vertex -915.821228 -47.595230 252.250015
   vertex -915.900513 -47.378025 248.809235
  endloop
 endfacet
 facet normal -0.242857 0.665719 0.705577
  outer loop
   vertex -920.773804 -31.101557 216.468246
   vertex -921.713257 -31.444273 216.468246
   vertex -919.786499 -33.807972 219.361603
  endloop
 endfacet
 facet normal -0.242855 0.665720 0.705577
  outer loop
   vertex -919.786499 -33.807972 219.361603
   vertex -921.713257 -31.444273 216.468246
   vertex -920.725952 -34.150684 219.361603
  endloop
 endfacet
 facet normal -0.277287 0.760108 0.587663
  outer loop
   vertex -920.725952 -34.150684 219.361603
   vertex -918.187622 -38.190689 225.784821
   vertex -919.786499 -33.807972 219.361603
  endloop
 endfacet
 facet normal -0.277287 0.760108 0.587663
  outer loop
   vertex -919.127075 -38.533401 225.784821
   vertex -918.187622 -38.190689 225.784821
   vertex -920.725952 -34.150684 219.361603
  endloop
 endfacet
 facet normal -0.303916 0.833104 0.462138
  outer loop
   vertex -916.901306 -41.716698 232.987137
   vertex -918.187622 -38.190689 225.784821
   vertex -919.127075 -38.533401 225.784821
  endloop
 endfacet
 facet normal -0.303916 0.833104 0.462138
  outer loop
   vertex -919.127075 -38.533401 225.784821
   vertex -917.840759 -42.059410 232.987137
   vertex -916.901306 -41.716698 232.987137
  endloop
 endfacet
 facet normal -0.323241 0.886078 0.332237
  outer loop
   vertex -916.901306 -41.716698 232.987137
   vertex -917.840759 -42.059410 232.987137
   vertex -915.959229 -44.299187 240.791229
  endloop
 endfacet
 facet normal -0.323241 0.886078 0.332237
  outer loop
   vertex -915.959229 -44.299187 240.791229
   vertex -917.840759 -42.059410 232.987137
   vertex -916.898682 -44.641899 240.791229
  endloop
 endfacet
 facet normal -0.335781 0.920454 0.200039
  outer loop
   vertex -916.898682 -44.641899 240.791229
   vertex -916.323914 -46.217278 249.004929
   vertex -915.959229 -44.299187 240.791229
  endloop
 endfacet
 facet normal 0.242386 -0.664392 -0.706988
  outer loop
   vertex -921.110962 -33.095207 216.468246
   vertex -920.171570 -32.752495 216.468246
   vertex -920.422791 -34.981689 218.477005
  endloop
 endfacet
 facet normal 0.242371 -0.664394 -0.706991
  outer loop
   vertex -920.422791 -34.981689 218.477005
   vertex -920.171570 -32.752495 216.468246
   vertex -919.483337 -34.638977 218.477005
  endloop
 endfacet
 facet normal 0.276905 -0.759059 -0.589197
  outer loop
   vertex -919.483337 -34.638977 218.477005
   vertex -918.780212 -39.484177 225.049500
   vertex -920.422791 -34.981689 218.477005
  endloop
 endfacet
 facet normal 0.276921 -0.759055 -0.589195
  outer loop
   vertex -917.840820 -39.141464 225.049500
   vertex -918.780212 -39.484177 225.049500
   vertex -919.483337 -34.638977 218.477005
  endloop
 endfacet
 facet normal 0.303674 -0.832387 -0.463588
  outer loop
   vertex -917.458740 -43.106541 232.419205
   vertex -918.780212 -39.484177 225.049500
   vertex -917.840820 -39.141464 225.049500
  endloop
 endfacet
 facet normal 0.303674 -0.832387 -0.463588
  outer loop
   vertex -917.840820 -39.141464 225.049500
   vertex -916.519348 -42.763828 232.419205
   vertex -917.458740 -43.106541 232.419205
  endloop
 endfacet
 facet normal 0.323117 -0.885680 -0.333417
  outer loop
   vertex -917.458740 -43.106541 232.419205
   vertex -916.519348 -42.763828 232.419205
   vertex -916.490906 -45.759598 240.404648
  endloop
 endfacet
 facet normal 0.323098 -0.885686 -0.333419
  outer loop
   vertex -916.490906 -45.759598 240.404648
   vertex -916.519348 -42.763828 232.419205
   vertex -915.551453 -45.416885 240.404648
  endloop
 endfacet
 facet normal 0.335728 -0.920307 -0.200802
  outer loop
   vertex -915.551453 -45.416885 240.404648
   vertex -914.961060 -47.035313 248.809235
   vertex -916.490906 -45.759598 240.404648
  endloop
 endfacet
endsolid