solid stl file generated from DOUG
 facet normal -0.525426 0.525453 0.669198
  outer loop
   vertex -911.199707 -21.924503 356.930664
   vertex -910.619263 -21.349453 356.934875
   vertex -912.263977 -19.681835 354.334106
  endloop
 endfacet
 facet normal 0.709293 0.704906 0.003433
  outer loop
   vertex -912.263977 -19.681835 354.334106
   vertex -910.619263 -21.349453 356.934875
   vertex -910.057617 -21.911106 356.218842
  endloop
 endfacet
 facet normal 0.709306 0.704893 0.003403
  outer loop
   vertex -910.057617 -21.911106 356.218842
   vertex -911.703125 -20.242746 353.619049
   vertex -912.263977 -19.681835 354.334106
  endloop
 endfacet
 facet normal -0.525362 0.525394 0.669295
  outer loop
   vertex -905.488586 -27.635618 349.649933
   vertex -906.553101 -25.392723 347.053680
   vertex -907.133545 -25.967768 347.049469
  endloop
 endfacet
 facet normal -0.468512 0.478351 -0.742749
  outer loop
   vertex -907.133545 -25.967768 347.049469
   vertex -906.553101 -25.392723 347.053680
   vertex -906.572632 -26.528681 346.334412
  endloop
 endfacet
 facet normal -0.709286 -0.704912 -0.003431
  outer loop
   vertex -906.572632 -26.528681 346.334412
   vertex -904.927002 -28.197176 348.934021
   vertex -907.133545 -25.967768 347.049469
  endloop
 endfacet
 facet normal 0.525176 -0.525238 -0.669563
  outer loop
   vertex -905.992188 -25.953634 346.338593
   vertex -904.927002 -28.197176 348.934021
   vertex -906.572632 -26.528681 346.334412
  endloop
 endfacet
 facet normal 0.525230 -0.525199 -0.669552
  outer loop
   vertex -904.346619 -27.622128 348.938232
   vertex -904.927002 -28.197176 348.934021
   vertex -905.992188 -25.953634 346.338593
  endloop
 endfacet
 facet normal 0.709291 0.704907 0.003441
  outer loop
   vertex -905.992188 -25.953634 346.338593
   vertex -906.553101 -25.392723 347.053680
   vertex -904.346619 -27.622128 348.938232
  endloop
 endfacet
 facet normal 0.709300 0.704898 0.003419
  outer loop
   vertex -904.346619 -27.622128 348.938232
   vertex -906.553101 -25.392723 347.053680
   vertex -904.908142 -27.060570 349.654114
  endloop
 endfacet
 facet normal -0.525344 0.525407 0.669299
  outer loop
   vertex -904.908142 -27.060570 349.654114
   vertex -906.553101 -25.392723 347.053680
   vertex -905.488586 -27.635618 349.649933
  endloop
 endfacet
 facet normal -0.468539 0.478336 -0.742742
  outer loop
   vertex -905.488586 -27.635618 349.649933
   vertex -910.057617 -21.911106 356.218842
   vertex -904.908142 -27.060570 349.654114
  endloop
 endfacet
 facet normal -0.468518 0.478354 -0.742744
  outer loop
   vertex -910.638062 -22.486155 356.214630
   vertex -910.057617 -21.911106 356.218842
   vertex -905.488586 -27.635618 349.649933
  endloop
 endfacet
 facet normal 0.525229 -0.525255 -0.669508
  outer loop
   vertex -911.703125 -20.242746 353.619049
   vertex -910.057617 -21.911106 356.218842
   vertex -910.638062 -22.486155 356.214630
  endloop
 endfacet
 facet normal 0.525261 -0.525232 -0.669502
  outer loop
   vertex -910.638062 -22.486155 356.214630
   vertex -912.283508 -20.817793 353.614838
   vertex -911.703125 -20.242746 353.619049
  endloop
 endfacet
 facet normal -0.468552 0.478340 -0.742731
  outer loop
   vertex -911.703125 -20.242746 353.619049
   vertex -912.283508 -20.817793 353.614838
   vertex -912.263977 -19.681835 354.334106
  endloop
 endfacet
 facet normal -0.468514 0.478351 -0.742749
  outer loop
   vertex -912.263977 -19.681835 354.334106
   vertex -912.283508 -20.817793 353.614838
   vertex -912.844421 -20.256882 354.329895
  endloop
 endfacet
 facet normal -0.525424 0.525455 0.669199
  outer loop
   vertex -912.844421 -20.256882 354.329895
   vertex -911.199707 -21.924503 356.930664
   vertex -912.263977 -19.681835 354.334106
  endloop
 endfacet
 facet normal -0.709292 -0.704906 -0.003435
  outer loop
   vertex -910.638062 -22.486155 356.214630
   vertex -911.199707 -21.924503 356.930664
   vertex -912.844421 -20.256882 354.329895
  endloop
 endfacet
 facet normal -0.709299 -0.704899 -0.003446
  outer loop
   vertex -910.702759 -22.426096 357.246155
   vertex -911.199707 -21.924503 356.930664
   vertex -910.638062 -22.486155 356.214630
  endloop
 endfacet
 facet normal -0.709255 -0.704944 -0.003440
  outer loop
   vertex -910.638062 -22.486155 356.214630
   vertex -910.167847 -22.962870 356.957367
   vertex -910.702759 -22.426096 357.246155
  endloop
 endfacet
 facet normal 0.709298 0.704901 0.003446
  outer loop
   vertex -910.122314 -21.851048 357.250366
   vertex -909.587463 -22.387823 356.961578
   vertex -910.057617 -21.911106 356.218842
  endloop
 endfacet
 facet normal 0.709296 0.704902 0.003448
  outer loop
   vertex -910.057617 -21.911106 356.218842
   vertex -909.587463 -22.387823 356.961578
   vertex -904.437988 -27.537285 350.396881
  endloop
 endfacet
 facet normal 0.709295 0.704903 0.003447
  outer loop
   vertex -904.437988 -27.537285 350.396881
   vertex -904.908142 -27.060570 349.654114
   vertex -910.057617 -21.911106 356.218842
  endloop
 endfacet
 facet normal 0.709316 0.704882 0.003420
  outer loop
   vertex -904.178589 -27.794804 349.673065
   vertex -904.908142 -27.060570 349.654114
   vertex -904.437988 -27.537285 350.396881
  endloop
 endfacet
 facet normal 0.709316 0.704883 0.003443
  outer loop
   vertex -904.346619 -27.622128 348.938232
   vertex -904.908142 -27.060570 349.654114
   vertex -904.178589 -27.794804 349.673065
  endloop
 endfacet
 facet normal -0.709286 -0.704912 -0.003457
  outer loop
   vertex -904.927002 -28.197176 348.934021
   vertex -904.758972 -28.369852 349.668854
   vertex -905.488586 -27.635618 349.649933
  endloop
 endfacet
 facet normal -0.709286 -0.704912 -0.003459
  outer loop
   vertex -905.488586 -27.635618 349.649933
   vertex -904.758972 -28.369852 349.668854
   vertex -905.018433 -28.112333 350.392670
  endloop
 endfacet
 facet normal -0.709295 -0.704903 -0.003447
  outer loop
   vertex -905.018433 -28.112333 350.392670
   vertex -910.638062 -22.486155 356.214630
   vertex -905.488586 -27.635618 349.649933
  endloop
 endfacet
 facet normal -0.709277 -0.704921 -0.003412
  outer loop
   vertex -910.167847 -22.962870 356.957367
   vertex -910.638062 -22.486155 356.214630
   vertex -905.018433 -28.112333 350.392670
  endloop
 endfacet
 facet normal 0.468544 -0.478332 0.742742
  outer loop
   vertex -910.167847 -22.962870 356.957367
   vertex -905.018433 -28.112333 350.392670
   vertex -909.587463 -22.387823 356.961578
  endloop
 endfacet
 facet normal 0.468518 -0.478354 0.742744
  outer loop
   vertex -909.587463 -22.387823 356.961578
   vertex -905.018433 -28.112333 350.392670
   vertex -904.437988 -27.537285 350.396881
  endloop
 endfacet
 facet normal -0.468544 0.478343 -0.742734
  outer loop
   vertex -906.572632 -26.528681 346.334412
   vertex -906.553101 -25.392723 347.053680
   vertex -905.992188 -25.953634 346.338593
  endloop
 endfacet
 facet normal -0.709280 -0.704919 -0.003447
  outer loop
   vertex -904.927002 -28.197176 348.934021
   vertex -905.488586 -27.635618 349.649933
   vertex -907.133545 -25.967768 347.049469
  endloop
 endfacet
 facet normal -0.709290 -0.704908 -0.003440
  outer loop
   vertex -912.283508 -20.817793 353.614838
   vertex -910.638062 -22.486155 356.214630
   vertex -912.844421 -20.256882 354.329895
  endloop
 endfacet
 facet normal 0.709301 0.704898 0.003446
  outer loop
   vertex -910.619263 -21.349453 356.934875
   vertex -910.122314 -21.851048 357.250366
   vertex -910.057617 -21.911106 356.218842
  endloop
 endfacet
 facet normal -0.290453 0.286491 0.912995
  outer loop
   vertex -911.199707 -21.924503 356.930664
   vertex -910.702759 -22.426096 357.246155
   vertex -910.619263 -21.349453 356.934875
  endloop
 endfacet
 facet normal -0.290452 0.286491 0.912996
  outer loop
   vertex -910.619263 -21.349453 356.934875
   vertex -910.702759 -22.426096 357.246155
   vertex -910.122314 -21.851048 357.250366
  endloop
 endfacet
 facet normal 0.247212 -0.256375 0.934429
  outer loop
   vertex -910.122314 -21.851048 357.250366
   vertex -910.702759 -22.426096 357.246155
   vertex -910.167847 -22.962870 356.957367
  endloop
 endfacet
 facet normal 0.247236 -0.256374 0.934423
  outer loop
   vertex -910.167847 -22.962870 356.957367
   vertex -909.587463 -22.387823 356.961578
   vertex -910.122314 -21.851048 357.250366
  endloop
 endfacet
 facet normal 0.626592 -0.635772 0.450751
  outer loop
   vertex -904.437988 -27.537285 350.396881
   vertex -905.018433 -28.112333 350.392670
   vertex -904.178589 -27.794804 349.673065
  endloop
 endfacet
 facet normal 0.626610 -0.635724 0.450793
  outer loop
   vertex -904.178589 -27.794804 349.673065
   vertex -905.018433 -28.112333 350.392670
   vertex -904.758972 -28.369852 349.668854
  endloop
 endfacet
 facet normal 0.669945 -0.673879 -0.311545
  outer loop
   vertex -904.758972 -28.369852 349.668854
   vertex -904.346619 -27.622128 348.938232
   vertex -904.178589 -27.794804 349.673065
  endloop
 endfacet
 facet normal 0.669945 -0.673879 -0.311545
  outer loop
   vertex -904.927002 -28.197176 348.934021
   vertex -904.346619 -27.622128 348.938232
   vertex -904.758972 -28.369852 349.668854
  endloop
 endfacet
endsolid