solid stl file generated from DOUG
 facet normal 0.831227 -0.379321 0.406420
  outer loop
   vertex 45.352459 971.777344 -230.269958
   vertex 45.315399 971.652710 -230.310486
   vertex 48.859554 972.652954 -236.625595
  endloop
 endfacet
 facet normal 0.274678 -0.961534 0.001858
  outer loop
   vertex 48.859554 972.652954 -236.625595
   vertex 45.315399 971.652710 -230.310486
   vertex 48.774227 972.628479 -236.677353
  endloop
 endfacet
 facet normal -0.505111 -0.762524 -0.404253
  outer loop
   vertex 49.813805 973.040588 -236.028656
   vertex 49.911049 972.954468 -235.987717
   vertex 46.366898 971.954224 -229.672607
  endloop
 endfacet
 facet normal 0.274678 -0.961534 0.001858
  outer loop
   vertex 46.366898 971.954224 -229.672607
   vertex 49.911049 972.954468 -235.987717
   vertex 49.996376 972.978943 -235.935959
  endloop
 endfacet
 facet normal 0.274678 -0.961534 0.001858
  outer loop
   vertex 49.996376 972.978943 -235.935959
   vertex 46.452225 971.978699 -229.620850
   vertex 46.366898 971.954224 -229.672607
  endloop
 endfacet
 facet normal 0.554430 -0.811960 0.182559
  outer loop
   vertex 49.795155 973.683472 -235.937302
   vertex 46.250999 972.683289 -229.622192
   vertex 49.772377 973.664368 -235.953094
  endloop
 endfacet
 facet normal 0.554374 -0.812007 0.182520
  outer loop
   vertex 49.772377 973.664368 -235.953094
   vertex 46.250999 972.683289 -229.622192
   vertex 46.228222 972.664185 -229.638000
  endloop
 endfacet
 facet normal 0.830386 0.238122 0.503743
  outer loop
   vertex 46.228222 972.664185 -229.638000
   vertex 46.386173 972.111145 -229.636948
   vertex 49.772377 973.664368 -235.953094
  endloop
 endfacet
 facet normal 0.831214 -0.379363 0.406407
  outer loop
   vertex 48.859554 972.652954 -236.625595
   vertex 48.896614 972.777588 -236.585052
   vertex 45.352459 971.777344 -230.269958
  endloop
 endfacet
 facet normal 0.274617 -0.961552 0.001821
  outer loop
   vertex 45.352459 971.777344 -230.269958
   vertex 48.896614 972.777588 -236.585052
   vertex 49.813805 973.040588 -236.028656
  endloop
 endfacet
 facet normal 0.274617 -0.961552 0.001821
  outer loop
   vertex 49.813805 973.040588 -236.028656
   vertex 46.269650 972.040344 -229.713547
   vertex 45.352459 971.777344 -230.269958
  endloop
 endfacet
 facet normal -0.505101 -0.762533 -0.404249
  outer loop
   vertex 46.366898 971.954224 -229.672607
   vertex 46.269650 972.040344 -229.713547
   vertex 49.813805 973.040588 -236.028656
  endloop
 endfacet
 facet normal 0.830389 0.238110 0.503743
  outer loop
   vertex 46.452225 971.978699 -229.620850
   vertex 49.996376 972.978943 -235.935959
   vertex 46.415585 972.106995 -229.621094
  endloop
 endfacet
 facet normal 0.830389 0.238110 0.503743
  outer loop
   vertex 46.415585 972.106995 -229.621094
   vertex 49.996376 972.978943 -235.935959
   vertex 49.959736 973.107239 -235.936203
  endloop
 endfacet
 facet normal 0.042060 0.982898 0.179285
  outer loop
   vertex 49.959736 973.107239 -235.936203
   vertex 46.386173 972.111145 -229.636948
   vertex 46.415585 972.106995 -229.621094
  endloop
 endfacet
 facet normal 0.040511 0.983116 0.178441
  outer loop
   vertex 49.930328 973.111328 -235.952057
   vertex 46.386173 972.111145 -229.636948
   vertex 49.959736 973.107239 -235.936203
  endloop
 endfacet
 facet normal 0.830390 0.238109 0.503742
  outer loop
   vertex 49.772377 973.664368 -235.953094
   vertex 46.386173 972.111145 -229.636948
   vertex 49.930328 973.111328 -235.952057
  endloop
 endfacet
 facet normal 0.484812 0.136822 -0.863850
  outer loop
   vertex 48.998898 972.672363 -237.102295
   vertex 50.018524 973.839111 -236.345261
   vertex 50.249348 973.030945 -236.343719
  endloop
 endfacet
 facet normal 0.830380 0.238129 0.503750
  outer loop
   vertex 50.249348 973.030945 -236.343719
   vertex 50.018524 973.839111 -236.345261
   vertex 49.764538 972.894104 -235.479874
  endloop
 endfacet
 facet normal 0.274635 -0.961547 0.001814
  outer loop
   vertex 49.764538 972.894104 -235.479874
   vertex 48.514088 972.535522 -236.238434
   vertex 50.249348 973.030945 -236.343719
  endloop
 endfacet
 facet normal -0.484804 -0.136823 0.863854
  outer loop
   vertex 49.533718 973.702332 -235.481400
   vertex 48.514088 972.535522 -236.238434
   vertex 49.764538 972.894104 -235.479874
  endloop
 endfacet
 facet normal -0.484814 -0.136812 0.863851
  outer loop
   vertex 48.283264 973.343750 -236.239975
   vertex 48.514088 972.535522 -236.238434
   vertex 49.533718 973.702332 -235.481400
  endloop
 endfacet
 facet normal -0.274606 0.961555 -0.001863
  outer loop
   vertex 49.533718 973.702332 -235.481400
   vertex 50.018524 973.839111 -236.345261
   vertex 48.283264 973.343750 -236.239975
  endloop
 endfacet
 facet normal -0.274606 0.961555 -0.001864
  outer loop
   vertex 48.283264 973.343750 -236.239975
   vertex 50.018524 973.839111 -236.345261
   vertex 48.768074 973.480530 -237.103821
  endloop
 endfacet
 facet normal 0.484801 0.136835 -0.863854
  outer loop
   vertex 48.768074 973.480530 -237.103821
   vertex 50.018524 973.839111 -236.345261
   vertex 48.998898 972.672363 -237.102295
  endloop
 endfacet
 facet normal -0.830386 -0.238121 -0.503743
  outer loop
   vertex 48.998898 972.672363 -237.102295
   vertex 48.514088 972.535522 -236.238434
   vertex 48.768074 973.480530 -237.103821
  endloop
 endfacet
 facet normal 0.274635 -0.961547 0.001814
  outer loop
   vertex 50.249348 973.030945 -236.343719
   vertex 48.514088 972.535522 -236.238434
   vertex 48.998898 972.672363 -237.102295
  endloop
 endfacet
 facet normal 0.484816 0.136810 -0.863850
  outer loop
   vertex 46.722637 972.035645 -230.059692
   vertex 45.472187 971.677063 -230.818268
   vertex 46.491817 972.843872 -230.061234
  endloop
 endfacet
 facet normal 0.484814 0.136812 -0.863851
  outer loop
   vertex 46.491817 972.843872 -230.061234
   vertex 45.472187 971.677063 -230.818268
   vertex 45.241364 972.485291 -230.819809
  endloop
 endfacet
 facet normal -0.274634 0.961547 -0.001813
  outer loop
   vertex 45.241364 972.485291 -230.819809
   vertex 44.756554 972.348450 -229.955948
   vertex 46.491817 972.843872 -230.061234
  endloop
 endfacet
 facet normal -0.830388 -0.238113 -0.503743
  outer loop
   vertex 45.472187 971.677063 -230.818268
   vertex 44.756554 972.348450 -229.955948
   vertex 45.241364 972.485291 -230.819809
  endloop
 endfacet
 facet normal -0.830390 -0.238122 -0.503737
  outer loop
   vertex 44.987377 971.540283 -229.954422
   vertex 44.756554 972.348450 -229.955948
   vertex 45.472187 971.677063 -230.818268
  endloop
 endfacet
 facet normal 0.274606 -0.961555 0.001864
  outer loop
   vertex 45.472187 971.677063 -230.818268
   vertex 46.237827 971.898865 -229.195847
   vertex 44.987377 971.540283 -229.954422
  endloop
 endfacet
 facet normal -0.484808 -0.136837 0.863850
  outer loop
   vertex 44.987377 971.540283 -229.954422
   vertex 46.237827 971.898865 -229.195847
   vertex 44.756554 972.348450 -229.955948
  endloop
 endfacet
 facet normal -0.484805 -0.136817 0.863855
  outer loop
   vertex 44.756554 972.348450 -229.955948
   vertex 46.237827 971.898865 -229.195847
   vertex 46.007008 972.707031 -229.197388
  endloop
 endfacet
 facet normal -0.274634 0.961547 -0.001813
  outer loop
   vertex 46.007008 972.707031 -229.197388
   vertex 46.491817 972.843872 -230.061234
   vertex 44.756554 972.348450 -229.955948
  endloop
 endfacet
 facet normal 0.830381 0.238125 0.503750
  outer loop
   vertex 46.237827 971.898865 -229.195847
   vertex 46.491817 972.843872 -230.061234
   vertex 46.007008 972.707031 -229.197388
  endloop
 endfacet
 facet normal 0.830393 0.238110 0.503737
  outer loop
   vertex 46.722637 972.035645 -230.059692
   vertex 46.491817 972.843872 -230.061234
   vertex 46.237827 971.898865 -229.195847
  endloop
 endfacet
 facet normal 0.274606 -0.961555 0.001864
  outer loop
   vertex 46.237827 971.898865 -229.195847
   vertex 45.472187 971.677063 -230.818268
   vertex 46.722637 972.035645 -230.059692
  endloop
 endfacet
 facet normal 0.274678 -0.961534 0.001858
  outer loop
   vertex 45.315399 971.652710 -230.310486
   vertex 45.230072 971.628235 -230.362244
   vertex 48.774227 972.628479 -236.677353
  endloop
 endfacet
 facet normal -0.830389 -0.238110 -0.503744
  outer loop
   vertex 48.774227 972.628479 -236.677353
   vertex 45.230072 971.628235 -230.362244
   vertex 45.193432 971.756531 -230.362488
  endloop
 endfacet
 facet normal -0.830389 -0.238110 -0.503744
  outer loop
   vertex 45.193432 971.756531 -230.362488
   vertex 48.737587 972.756775 -236.677597
   vertex 48.774227 972.628479 -236.677353
  endloop
 endfacet
 facet normal -0.554378 0.812006 -0.182514
  outer loop
   vertex 45.216209 971.775635 -230.346680
   vertex 48.737587 972.756775 -236.677597
   vertex 45.193432 971.756531 -230.362488
  endloop
 endfacet
 facet normal -0.554378 0.812006 -0.182514
  outer loop
   vertex 48.760365 972.775879 -236.661789
   vertex 48.737587 972.756775 -236.677597
   vertex 45.216209 971.775635 -230.346680
  endloop
 endfacet
 facet normal -0.830386 -0.238122 -0.503744
  outer loop
   vertex 45.216209 971.775635 -230.346680
   vertex 45.058258 972.328674 -230.347733
   vertex 48.760365 972.775879 -236.661789
  endloop
 endfacet
 facet normal -0.830386 -0.238122 -0.503744
  outer loop
   vertex 48.760365 972.775879 -236.661789
   vertex 45.058258 972.328674 -230.347733
   vertex 48.602413 973.328918 -236.662842
  endloop
 endfacet
 facet normal -0.042064 -0.982897 -0.179287
  outer loop
   vertex 48.602413 973.328918 -236.662842
   vertex 45.058258 972.328674 -230.347733
   vertex 45.028851 972.332825 -230.363586
  endloop
 endfacet
 facet normal -0.040507 -0.983117 -0.178439
  outer loop
   vertex 45.028851 972.332825 -230.363586
   vertex 48.573002 973.333008 -236.678696
   vertex 48.602413 973.328918 -236.662842
  endloop
 endfacet
 facet normal -0.830387 -0.238120 -0.503741
  outer loop
   vertex 45.010670 972.396484 -230.363708
   vertex 48.573002 973.333008 -236.678696
   vertex 45.028851 972.332825 -230.363586
  endloop
 endfacet
 facet normal -0.830387 -0.238120 -0.503741
  outer loop
   vertex 48.554821 973.396667 -236.678818
   vertex 48.573002 973.333008 -236.678696
   vertex 45.010670 972.396484 -230.363708
  endloop
 endfacet
 facet normal -0.274622 0.961550 -0.001833
  outer loop
   vertex 45.010670 972.396484 -230.363708
   vertex 46.232819 972.746948 -229.622314
   vertex 48.554821 973.396667 -236.678818
  endloop
 endfacet
 facet normal -0.274622 0.961551 -0.001833
  outer loop
   vertex 48.554821 973.396667 -236.678818
   vertex 46.232819 972.746948 -229.622314
   vertex 49.776974 973.747131 -235.937408
  endloop
 endfacet
 facet normal 0.830419 0.238008 0.503743
  outer loop
   vertex 49.776974 973.747131 -235.937408
   vertex 46.232819 972.746948 -229.622314
   vertex 49.795155 973.683472 -235.937302
  endloop
 endfacet
 facet normal 0.830401 0.238103 0.503728
  outer loop
   vertex 49.533718 973.702332 -235.481400
   vertex 49.764538 972.894104 -235.479874
   vertex 50.018524 973.839111 -236.345261
  endloop
 endfacet
 facet normal -0.830392 -0.238114 -0.503737
  outer loop
   vertex 48.514088 972.535522 -236.238434
   vertex 48.283264 973.343750 -236.239975
   vertex 48.768074 973.480530 -237.103821
  endloop
 endfacet
 facet normal 0.830387 0.238120 0.503742
  outer loop
   vertex 46.232819 972.746948 -229.622314
   vertex 46.250999 972.683289 -229.622192
   vertex 49.795155 973.683472 -235.937302
  endloop
 endfacet
 facet normal -0.473030 -0.726446 0.498517
  outer loop
   vertex 45.238487 973.464539 -229.783310
   vertex 44.600258 974.323486 -229.137238
   vertex 45.127193 973.432495 -229.935608
  endloop
 endfacet
 facet normal -0.472949 -0.726455 0.498580
  outer loop
   vertex 45.127193 973.432495 -229.935608
   vertex 44.600258 974.323486 -229.137238
   vertex 44.155083 974.195190 -229.746460
  endloop
 endfacet
 facet normal -0.626664 -0.771540 -0.109633
  outer loop
   vertex 44.155083 974.195190 -229.746460
   vertex 45.152096 973.439209 -230.125198
   vertex 45.127193 973.432495 -229.935608
  endloop
 endfacet
 facet normal -0.626683 -0.771508 -0.109747
  outer loop
   vertex 44.254681 974.222168 -230.504837
   vertex 45.152096 973.439209 -230.125198
   vertex 44.155083 974.195190 -229.746460
  endloop
 endfacet
 facet normal -0.321690 -0.685443 -0.653210
  outer loop
   vertex 45.298599 973.480835 -230.241028
   vertex 45.152096 973.439209 -230.125198
   vertex 44.254681 974.222168 -230.504837
  endloop
 endfacet
 facet normal -0.321681 -0.685434 -0.653224
  outer loop
   vertex 44.254681 974.222168 -230.504837
   vertex 44.840706 974.388672 -230.968140
   vertex 45.298599 973.480835 -230.241028
  endloop
 endfacet
 facet normal 0.263426 -0.518619 -0.813413
  outer loop
   vertex 45.298599 973.480835 -230.241028
   vertex 44.840706 974.388672 -230.968140
   vertex 45.480892 973.532959 -230.215225
  endloop
 endfacet
 facet normal 0.263411 -0.518629 -0.813412
  outer loop
   vertex 45.480892 973.532959 -230.215225
   vertex 44.840706 974.388672 -230.968140
   vertex 45.569878 974.597168 -230.864944
  endloop
 endfacet
 facet normal 0.785797 -0.368818 -0.496484
  outer loop
   vertex 45.569878 974.597168 -230.864944
   vertex 45.592186 973.565063 -230.062927
   vertex 45.480892 973.532959 -230.215225
  endloop
 endfacet
 facet normal 0.785767 -0.368842 -0.496514
  outer loop
   vertex 46.015049 974.725464 -230.255737
   vertex 45.592186 973.565063 -230.062927
   vertex 45.569878 974.597168 -230.864944
  endloop
 endfacet
 facet normal 0.939500 -0.323786 0.111812
  outer loop
   vertex 45.567287 973.558289 -229.873337
   vertex 45.592186 973.565063 -230.062927
   vertex 46.015049 974.725464 -230.255737
  endloop
 endfacet
 facet normal 0.939500 -0.323778 0.111836
  outer loop
   vertex 46.015049 974.725464 -230.255737
   vertex 45.915455 974.698425 -229.497360
   vertex 45.567287 973.558289 -229.873337
  endloop
 endfacet
 facet normal 0.634522 -0.409856 0.655286
  outer loop
   vertex 45.567287 973.558289 -229.873337
   vertex 45.915455 974.698425 -229.497360
   vertex 45.420780 973.516663 -229.757507
  endloop
 endfacet
 facet normal 0.634513 -0.409854 0.655296
  outer loop
   vertex 45.420780 973.516663 -229.757507
   vertex 45.915455 974.698425 -229.497360
   vertex 45.329426 974.531921 -229.034058
  endloop
 endfacet
 facet normal 0.049456 -0.576651 0.815492
  outer loop
   vertex 45.329426 974.531921 -229.034058
   vertex 45.238487 973.464539 -229.783310
   vertex 45.420780 973.516663 -229.757507
  endloop
 endfacet
 facet normal 0.049442 -0.576650 0.815494
  outer loop
   vertex 44.600258 974.323486 -229.137238
   vertex 45.238487 973.464539 -229.783310
   vertex 45.329426 974.531921 -229.034058
  endloop
 endfacet
 facet normal -0.765650 -0.217522 0.605363
  outer loop
   vertex 49.049465 973.511475 -236.087616
   vertex 48.774841 974.473022 -236.089447
   vertex 48.938171 973.479370 -236.239914
  endloop
 endfacet
 facet normal -0.765650 -0.217522 0.605363
  outer loop
   vertex 48.938171 973.479370 -236.239914
   vertex 48.774841 974.473022 -236.089447
   vertex 48.663548 974.440918 -236.241745
  endloop
 endfacet
 facet normal -0.952699 -0.272353 -0.134868
  outer loop
   vertex 48.663548 974.440918 -236.241745
   vertex 48.963074 973.486145 -236.429504
   vertex 48.938171 973.479370 -236.239914
  endloop
 endfacet
 facet normal -0.952700 -0.272357 -0.134849
  outer loop
   vertex 48.688446 974.447693 -236.431335
   vertex 48.963074 973.486145 -236.429504
   vertex 48.663548 974.440918 -236.241745
  endloop
 endfacet
 facet normal -0.581673 -0.167647 -0.795959
  outer loop
   vertex 49.109577 973.527771 -236.545334
   vertex 48.963074 973.486145 -236.429504
   vertex 48.688446 974.447693 -236.431335
  endloop
 endfacet
 facet normal -0.581664 -0.167643 -0.795966
  outer loop
   vertex 48.688446 974.447693 -236.431335
   vertex 48.834953 974.489319 -236.547165
   vertex 49.109577 973.527771 -236.545334
  endloop
 endfacet
 facet normal 0.130162 0.035288 -0.990865
  outer loop
   vertex 49.109577 973.527771 -236.545334
   vertex 48.834953 974.489319 -236.547165
   vertex 49.291870 973.579895 -236.519531
  endloop
 endfacet
 facet normal 0.130162 0.035288 -0.990865
  outer loop
   vertex 49.291870 973.579895 -236.519531
   vertex 48.834953 974.489319 -236.547165
   vertex 49.017246 974.541443 -236.521362
  endloop
 endfacet
 facet normal 0.765691 0.217533 -0.605308
  outer loop
   vertex 49.017246 974.541443 -236.521362
   vertex 49.403164 973.611938 -236.367233
   vertex 49.291870 973.579895 -236.519531
  endloop
 endfacet
 facet normal 0.765691 0.217533 -0.605308
  outer loop
   vertex 49.128540 974.573486 -236.369064
   vertex 49.403164 973.611938 -236.367233
   vertex 49.017246 974.541443 -236.521362
  endloop
 endfacet
 facet normal 0.952701 0.272354 0.134849
  outer loop
   vertex 49.378265 973.605164 -236.177643
   vertex 49.403164 973.611938 -236.367233
   vertex 49.128540 974.573486 -236.369064
  endloop
 endfacet
 facet normal 0.952717 0.272341 0.134763
  outer loop
   vertex 49.128540 974.573486 -236.369064
   vertex 49.103642 974.566772 -236.179474
   vertex 49.378265 973.605164 -236.177643
  endloop
 endfacet
 facet normal 0.581708 0.167644 0.795934
  outer loop
   vertex 49.378265 973.605164 -236.177643
   vertex 49.103642 974.566772 -236.179474
   vertex 49.231758 973.563599 -236.061813
  endloop
 endfacet
 facet normal 0.581664 0.167643 0.795966
  outer loop
   vertex 49.231758 973.563599 -236.061813
   vertex 49.103642 974.566772 -236.179474
   vertex 48.957134 974.525146 -236.063644
  endloop
 endfacet
 facet normal -0.130162 -0.035288 0.990865
  outer loop
   vertex 48.957134 974.525146 -236.063644
   vertex 49.049465 973.511475 -236.087616
   vertex 49.231758 973.563599 -236.061813
  endloop
 endfacet
 facet normal -0.130162 -0.035288 0.990865
  outer loop
   vertex 48.774841 974.473022 -236.089447
   vertex 49.049465 973.511475 -236.087616
   vertex 48.957134 974.525146 -236.063644
  endloop
 endfacet
 facet normal -0.765687 -0.217532 0.605313
  outer loop
   vertex 48.139366 975.322266 -235.443359
   vertex 47.864742 976.283813 -235.445190
   vertex 47.694195 975.193970 -236.052582
  endloop
 endfacet
 facet normal -0.765684 -0.217534 0.605316
  outer loop
   vertex 47.694195 975.193970 -236.052582
   vertex 47.864742 976.283813 -235.445190
   vertex 47.419567 976.155518 -236.054413
  endloop
 endfacet
 facet normal -0.952703 -0.272358 -0.134824
  outer loop
   vertex 47.419567 976.155518 -236.054413
   vertex 47.793789 975.221008 -236.810959
   vertex 47.694195 975.193970 -236.052582
  endloop
 endfacet
 facet normal -0.952704 -0.272355 -0.134829
  outer loop
   vertex 47.519165 976.182556 -236.812790
   vertex 47.793789 975.221008 -236.810959
   vertex 47.419567 976.155518 -236.054413
  endloop
 endfacet
 facet normal -0.581650 -0.167639 -0.795977
  outer loop
   vertex 48.379818 975.387451 -237.274246
   vertex 47.793789 975.221008 -236.810959
   vertex 47.519165 976.182556 -236.812790
  endloop
 endfacet
 facet normal -0.581643 -0.167626 -0.795986
  outer loop
   vertex 47.519165 976.182556 -236.812790
   vertex 48.105194 976.349060 -237.276077
   vertex 48.379818 975.387451 -237.274246
  endloop
 endfacet
 facet normal 0.130125 0.035275 -0.990870
  outer loop
   vertex 48.379818 975.387451 -237.274246
   vertex 48.105194 976.349060 -237.276077
   vertex 49.108986 975.595947 -237.171066
  endloop
 endfacet
 facet normal 0.130127 0.035278 -0.990869
  outer loop
   vertex 49.108986 975.595947 -237.171066
   vertex 48.105194 976.349060 -237.276077
   vertex 48.834362 976.557495 -237.172897
  endloop
 endfacet
 facet normal 0.765684 0.217531 -0.605316
  outer loop
   vertex 48.834362 976.557495 -237.172897
   vertex 49.554161 975.724243 -236.561844
   vertex 49.108986 975.595947 -237.171066
  endloop
 endfacet
 facet normal 0.765684 0.217531 -0.605316
  outer loop
   vertex 49.279537 976.685791 -236.563675
   vertex 49.554161 975.724243 -236.561844
   vertex 48.834362 976.557495 -237.172897
  endloop
 endfacet
 facet normal 0.952704 0.272355 0.134829
  outer loop
   vertex 49.454563 975.697205 -235.803467
   vertex 49.554161 975.724243 -236.561844
   vertex 49.279537 976.685791 -236.563675
  endloop
 endfacet
 facet normal 0.952704 0.272355 0.134829
  outer loop
   vertex 49.279537 976.685791 -236.563675
   vertex 49.179939 976.658752 -235.805298
   vertex 49.454563 975.697205 -235.803467
  endloop
 endfacet
 facet normal 0.581653 0.167639 0.795976
  outer loop
   vertex 49.454563 975.697205 -235.803467
   vertex 49.179939 976.658752 -235.805298
   vertex 48.868538 975.530762 -235.340179
  endloop
 endfacet
 facet normal 0.581653 0.167639 0.795976
  outer loop
   vertex 48.868538 975.530762 -235.340179
   vertex 49.179939 976.658752 -235.805298
   vertex 48.593914 976.492310 -235.342010
  endloop
 endfacet
 facet normal -0.130124 -0.035277 0.990870
  outer loop
   vertex 48.593914 976.492310 -235.342010
   vertex 48.139366 975.322266 -235.443359
   vertex 48.868538 975.530762 -235.340179
  endloop
 endfacet
 facet normal -0.130124 -0.035277 0.990870
  outer loop
   vertex 47.864742 976.283813 -235.445190
   vertex 48.139366 975.322266 -235.443359
   vertex 48.593914 976.492310 -235.342010
  endloop
 endfacet
 facet normal -0.472867 -0.726465 0.498643
  outer loop
   vertex 48.777599 974.463379 -236.089417
   vertex 48.139366 975.322266 -235.443359
   vertex 48.666306 974.431274 -236.241730
  endloop
 endfacet
 facet normal -0.472950 -0.726456 0.498578
  outer loop
   vertex 48.666306 974.431274 -236.241730
   vertex 48.139366 975.322266 -235.443359
   vertex 47.694195 975.193970 -236.052582
  endloop
 endfacet
 facet normal -0.626676 -0.771496 -0.109869
  outer loop
   vertex 47.694195 975.193970 -236.052582
   vertex 48.691204 974.438049 -236.431320
   vertex 48.666306 974.431274 -236.241730
  endloop
 endfacet
 facet normal -0.626665 -0.771514 -0.109804
  outer loop
   vertex 47.793789 975.221008 -236.810959
   vertex 48.691204 974.438049 -236.431320
   vertex 47.694195 975.193970 -236.052582
  endloop
 endfacet
 facet normal -0.321686 -0.685440 -0.653215
  outer loop
   vertex 48.837711 974.479675 -236.547150
   vertex 48.691204 974.438049 -236.431320
   vertex 47.793789 975.221008 -236.810959
  endloop
 endfacet
 facet normal -0.321702 -0.685454 -0.653192
  outer loop
   vertex 47.793789 975.221008 -236.810959
   vertex 48.379818 975.387451 -237.274246
   vertex 48.837711 974.479675 -236.547150
  endloop
 endfacet
 facet normal 0.263277 -0.518708 -0.813405
  outer loop
   vertex 48.837711 974.479675 -236.547150
   vertex 48.379818 975.387451 -237.274246
   vertex 49.020004 974.531738 -236.521347
  endloop
 endfacet
 facet normal 0.263397 -0.518629 -0.813416
  outer loop
   vertex 49.020004 974.531738 -236.521347
   vertex 48.379818 975.387451 -237.274246
   vertex 49.108986 975.595947 -237.171066
  endloop
 endfacet
 facet normal 0.785797 -0.368816 -0.496485
  outer loop
   vertex 49.108986 975.595947 -237.171066
   vertex 49.131298 974.563843 -236.369049
   vertex 49.020004 974.531738 -236.521347
  endloop
 endfacet
 facet normal 0.785771 -0.368837 -0.496511
  outer loop
   vertex 49.554161 975.724243 -236.561844
   vertex 49.131298 974.563843 -236.369049
   vertex 49.108986 975.595947 -237.171066
  endloop
 endfacet
 facet normal 0.939499 -0.323785 0.111822
  outer loop
   vertex 49.106396 974.557068 -236.179443
   vertex 49.131298 974.563843 -236.369049
   vertex 49.554161 975.724243 -236.561844
  endloop
 endfacet
 facet normal 0.939499 -0.323779 0.111841
  outer loop
   vertex 49.554161 975.724243 -236.561844
   vertex 49.454563 975.697205 -235.803467
   vertex 49.106396 974.557068 -236.179443
  endloop
 endfacet
 facet normal 0.634493 -0.409857 0.655314
  outer loop
   vertex 49.106396 974.557068 -236.179443
   vertex 49.454563 975.697205 -235.803467
   vertex 48.959892 974.515442 -236.063629
  endloop
 endfacet
 facet normal 0.634481 -0.409854 0.655327
  outer loop
   vertex 48.959892 974.515442 -236.063629
   vertex 49.454563 975.697205 -235.803467
   vertex 48.868538 975.530762 -235.340179
  endloop
 endfacet
 facet normal 0.049326 -0.576639 0.815509
  outer loop
   vertex 48.868538 975.530762 -235.340179
   vertex 48.777599 974.463379 -236.089417
   vertex 48.959892 974.515442 -236.063629
  endloop
 endfacet
 facet normal 0.049488 -0.576644 0.815495
  outer loop
   vertex 48.139366 975.322266 -235.443359
   vertex 48.777599 974.463379 -236.089417
   vertex 48.868538 975.530762 -235.340179
  endloop
 endfacet
 facet normal -0.765650 -0.217522 0.605363
  outer loop
   vertex 45.510357 972.512695 -229.781494
   vertex 45.235733 973.474243 -229.783325
   vertex 45.399063 972.480591 -229.933792
  endloop
 endfacet
 facet normal -0.765650 -0.217522 0.605363
  outer loop
   vertex 45.399063 972.480591 -229.933792
   vertex 45.235733 973.474243 -229.783325
   vertex 45.124439 973.442139 -229.935623
  endloop
 endfacet
 facet normal -0.952702 -0.272354 -0.134838
  outer loop
   vertex 45.124439 973.442139 -229.935623
   vertex 45.423962 972.487366 -230.123398
   vertex 45.399063 972.480591 -229.933792
  endloop
 endfacet
 facet normal -0.952702 -0.272354 -0.134838
  outer loop
   vertex 45.149338 973.448914 -230.125229
   vertex 45.423962 972.487366 -230.123398
   vertex 45.124439 973.442139 -229.935623
  endloop
 endfacet
 facet normal -0.581616 -0.167629 -0.796005
  outer loop
   vertex 45.570469 972.528992 -230.239212
   vertex 45.423962 972.487366 -230.123398
   vertex 45.149338 973.448914 -230.125229
  endloop
 endfacet
 facet normal -0.581616 -0.167629 -0.796005
  outer loop
   vertex 45.149338 973.448914 -230.125229
   vertex 45.295845 973.490540 -230.241043
   vertex 45.570469 972.528992 -230.239212
  endloop
 endfacet
 facet normal 0.130097 0.035270 -0.990874
  outer loop
   vertex 45.570469 972.528992 -230.239212
   vertex 45.295845 973.490540 -230.241043
   vertex 45.752762 972.581055 -230.213425
  endloop
 endfacet
 facet normal 0.130097 0.035270 -0.990874
  outer loop
   vertex 45.752762 972.581055 -230.213425
   vertex 45.295845 973.490540 -230.241043
   vertex 45.478138 973.542603 -230.215256
  endloop
 endfacet
 facet normal 0.765678 0.217530 -0.605324
  outer loop
   vertex 45.478138 973.542603 -230.215256
   vertex 45.864056 972.613159 -230.061111
   vertex 45.752762 972.581055 -230.213425
  endloop
 endfacet
 facet normal 0.765678 0.217530 -0.605324
  outer loop
   vertex 45.589432 973.574707 -230.062943
   vertex 45.864056 972.613159 -230.061111
   vertex 45.478138 973.542603 -230.215256
  endloop
 endfacet
 facet normal 0.952699 0.272353 0.134868
  outer loop
   vertex 45.839153 972.606384 -229.871521
   vertex 45.864056 972.613159 -230.061111
   vertex 45.589432 973.574707 -230.062943
  endloop
 endfacet
 facet normal 0.952699 0.272353 0.134868
  outer loop
   vertex 45.589432 973.574707 -230.062943
   vertex 45.564529 973.567932 -229.873352
   vertex 45.839153 972.606384 -229.871521
  endloop
 endfacet
 facet normal 0.581673 0.167645 0.795959
  outer loop
   vertex 45.839153 972.606384 -229.871521
   vertex 45.564529 973.567932 -229.873352
   vertex 45.692650 972.564758 -229.755692
  endloop
 endfacet
 facet normal 0.581673 0.167645 0.795959
  outer loop
   vertex 45.692650 972.564758 -229.755692
   vertex 45.564529 973.567932 -229.873352
   vertex 45.418026 973.526306 -229.757523
  endloop
 endfacet
 facet normal -0.130172 -0.035291 0.990863
  outer loop
   vertex 45.418026 973.526306 -229.757523
   vertex 45.510357 972.512695 -229.781494
   vertex 45.692650 972.564758 -229.755692
  endloop
 endfacet
 facet normal -0.130172 -0.035291 0.990863
  outer loop
   vertex 45.235733 973.474243 -229.783325
   vertex 45.510357 972.512695 -229.781494
   vertex 45.418026 973.526306 -229.757523
  endloop
 endfacet
 facet normal -0.130127 -0.035278 0.990869
  outer loop
   vertex 45.329426 974.531921 -229.034058
   vertex 45.054802 975.493469 -229.035889
   vertex 44.600258 974.323486 -229.137238
  endloop
 endfacet
 facet normal -0.130127 -0.035278 0.990869
  outer loop
   vertex 44.600258 974.323486 -229.137238
   vertex 45.054802 975.493469 -229.035889
   vertex 44.325634 975.285034 -229.139069
  endloop
 endfacet
 facet normal -0.765684 -0.217531 0.605316
  outer loop
   vertex 44.325634 975.285034 -229.139069
   vertex 44.155083 974.195190 -229.746460
   vertex 44.600258 974.323486 -229.137238
  endloop
 endfacet
 facet normal -0.765684 -0.217531 0.605316
  outer loop
   vertex 43.880459 975.156738 -229.748291
   vertex 44.155083 974.195190 -229.746460
   vertex 44.325634 975.285034 -229.139069
  endloop
 endfacet
 facet normal -0.952706 -0.272355 -0.134808
  outer loop
   vertex 44.254681 974.222168 -230.504837
   vertex 44.155083 974.195190 -229.746460
   vertex 43.880459 975.156738 -229.748291
  endloop
 endfacet
 facet normal -0.952708 -0.272339 -0.134829
  outer loop
   vertex 43.880459 975.156738 -229.748291
   vertex 43.980057 975.183777 -230.506668
   vertex 44.254681 974.222168 -230.504837
  endloop
 endfacet
 facet normal -0.581657 -0.167630 -0.795974
  outer loop
   vertex 44.254681 974.222168 -230.504837
   vertex 43.980057 975.183777 -230.506668
   vertex 44.840706 974.388672 -230.968140
  endloop
 endfacet
 facet normal -0.581656 -0.167628 -0.795976
  outer loop
   vertex 44.840706 974.388672 -230.968140
   vertex 43.980057 975.183777 -230.506668
   vertex 44.566082 975.350220 -230.969955
  endloop
 endfacet
 facet normal 0.130139 0.035297 -0.990867
  outer loop
   vertex 44.566082 975.350220 -230.969955
   vertex 45.569878 974.597168 -230.864944
   vertex 44.840706 974.388672 -230.968140
  endloop
 endfacet
 facet normal 0.130124 0.035277 -0.990870
  outer loop
   vertex 45.295254 975.558716 -230.866776
   vertex 45.569878 974.597168 -230.864944
   vertex 44.566082 975.350220 -230.969955
  endloop
 endfacet
 facet normal 0.765680 0.217530 -0.605323
  outer loop
   vertex 46.015049 974.725464 -230.255737
   vertex 45.569878 974.597168 -230.864944
   vertex 45.295254 975.558716 -230.866776
  endloop
 endfacet
 facet normal 0.765680 0.217530 -0.605323
  outer loop
   vertex 45.295254 975.558716 -230.866776
   vertex 45.740425 975.687012 -230.257568
   vertex 46.015049 974.725464 -230.255737
  endloop
 endfacet
 facet normal 0.952704 0.272355 0.134825
  outer loop
   vertex 46.015049 974.725464 -230.255737
   vertex 45.740425 975.687012 -230.257568
   vertex 45.915455 974.698425 -229.497360
  endloop
 endfacet
 facet normal 0.952703 0.272356 0.134827
  outer loop
   vertex 45.915455 974.698425 -229.497360
   vertex 45.740425 975.687012 -230.257568
   vertex 45.640827 975.659973 -229.499176
  endloop
 endfacet
 facet normal 0.581655 0.167630 0.795976
  outer loop
   vertex 45.640827 975.659973 -229.499176
   vertex 45.329426 974.531921 -229.034058
   vertex 45.915455 974.698425 -229.497360
  endloop
 endfacet
 facet normal 0.581642 0.167636 0.795984
  outer loop
   vertex 45.054802 975.493469 -229.035889
   vertex 45.329426 974.531921 -229.034058
   vertex 45.640827 975.659973 -229.499176
  endloop
 endfacet
endsolid