solid stl file generated from DOUG
 facet normal -0.505111 0.762524 -0.404253
  outer loop
   vertex 46.267246 -958.640320 -229.810181
   vertex 46.364491 -958.554199 -229.769241
   vertex 49.908642 -959.554443 -236.084351
  endloop
 endfacet
 facet normal 0.274678 0.961534 0.001858
  outer loop
   vertex 49.908642 -959.554443 -236.084351
   vertex 46.364491 -958.554199 -229.769241
   vertex 49.993969 -959.578918 -236.032593
  endloop
 endfacet
 facet normal 0.831215 0.379363 0.406405
  outer loop
   vertex 48.894203 -959.377563 -236.681686
   vertex 48.857143 -959.252930 -236.722229
   vertex 45.312996 -958.252686 -230.407120
  endloop
 endfacet
 facet normal 0.274678 0.961534 0.001858
  outer loop
   vertex 45.312996 -958.252686 -230.407120
   vertex 48.857143 -959.252930 -236.722229
   vertex 48.771816 -959.228455 -236.773987
  endloop
 endfacet
 facet normal 0.274678 0.961534 0.001858
  outer loop
   vertex 48.771816 -959.228455 -236.773987
   vertex 45.227669 -958.228210 -230.458878
   vertex 45.312996 -958.252686 -230.407120
  endloop
 endfacet
 facet normal -0.040511 0.983116 -0.178441
  outer loop
   vertex 48.570595 -959.932983 -236.775330
   vertex 45.026443 -958.932800 -230.460220
   vertex 48.600002 -959.928894 -236.759476
  endloop
 endfacet
 facet normal -0.042060 0.982898 -0.179285
  outer loop
   vertex 48.600002 -959.928894 -236.759476
   vertex 45.026443 -958.932800 -230.460220
   vertex 45.055855 -958.928650 -230.444366
  endloop
 endfacet
 facet normal -0.830386 0.238122 -0.503743
  outer loop
   vertex 45.055855 -958.928650 -230.444366
   vertex 45.213806 -958.375610 -230.443314
   vertex 48.600002 -959.928894 -236.759476
  endloop
 endfacet
 facet normal -0.505101 0.762533 -0.404248
  outer loop
   vertex 49.908642 -959.554443 -236.084351
   vertex 49.811394 -959.640564 -236.125290
   vertex 46.267246 -958.640320 -229.810181
  endloop
 endfacet
 facet normal 0.274617 0.961552 0.001820
  outer loop
   vertex 46.267246 -958.640320 -229.810181
   vertex 49.811394 -959.640564 -236.125290
   vertex 48.894203 -959.377563 -236.681686
  endloop
 endfacet
 facet normal 0.274617 0.961552 0.001820
  outer loop
   vertex 48.894203 -959.377563 -236.681686
   vertex 45.350056 -958.377319 -230.366577
   vertex 46.267246 -958.640320 -229.810181
  endloop
 endfacet
 facet normal 0.831215 0.379363 0.406405
  outer loop
   vertex 45.312996 -958.252686 -230.407120
   vertex 45.350056 -958.377319 -230.366577
   vertex 48.894203 -959.377563 -236.681686
  endloop
 endfacet
 facet normal -0.830389 0.238110 -0.503743
  outer loop
   vertex 45.227669 -958.228210 -230.458878
   vertex 48.771816 -959.228455 -236.773987
   vertex 45.191029 -958.356506 -230.459122
  endloop
 endfacet
 facet normal -0.830389 0.238110 -0.503743
  outer loop
   vertex 45.191029 -958.356506 -230.459122
   vertex 48.771816 -959.228455 -236.773987
   vertex 48.735176 -959.356750 -236.774231
  endloop
 endfacet
 facet normal -0.554378 -0.812006 -0.182514
  outer loop
   vertex 48.735176 -959.356750 -236.774231
   vertex 45.213806 -958.375610 -230.443314
   vertex 45.191029 -958.356506 -230.459122
  endloop
 endfacet
 facet normal -0.554378 -0.812006 -0.182514
  outer loop
   vertex 48.757954 -959.375854 -236.758423
   vertex 45.213806 -958.375610 -230.443314
   vertex 48.735176 -959.356750 -236.774231
  endloop
 endfacet
 facet normal -0.830386 0.238122 -0.503743
  outer loop
   vertex 48.600002 -959.928894 -236.759476
   vertex 45.213806 -958.375610 -230.443314
   vertex 48.757954 -959.375854 -236.758423
  endloop
 endfacet
 facet normal 0.484812 -0.136822 -0.863850
  outer loop
   vertex 50.246937 -959.630920 -236.440353
   vertex 48.765663 -960.080505 -237.200470
   vertex 48.996487 -959.272339 -237.198929
  endloop
 endfacet
 facet normal -0.830384 0.238130 -0.503743
  outer loop
   vertex 48.996487 -959.272339 -237.198929
   vertex 48.765663 -960.080505 -237.200470
   vertex 48.511677 -959.135498 -236.335068
  endloop
 endfacet
 facet normal 0.274634 0.961547 0.001813
  outer loop
   vertex 48.511677 -959.135498 -236.335068
   vertex 49.762131 -959.494080 -235.576508
   vertex 48.996487 -959.272339 -237.198929
  endloop
 endfacet
 facet normal -0.484807 0.136810 0.863855
  outer loop
   vertex 48.280853 -959.943726 -236.336609
   vertex 49.762131 -959.494080 -235.576508
   vertex 48.511677 -959.135498 -236.335068
  endloop
 endfacet
 facet normal -0.484807 0.136810 0.863855
  outer loop
   vertex 49.531307 -960.302307 -235.578049
   vertex 49.762131 -959.494080 -235.576508
   vertex 48.280853 -959.943726 -236.336609
  endloop
 endfacet
 facet normal -0.274606 -0.961555 -0.001864
  outer loop
   vertex 48.280853 -959.943726 -236.336609
   vertex 48.765663 -960.080505 -237.200470
   vertex 49.531307 -960.302307 -235.578049
  endloop
 endfacet
 facet normal -0.274606 -0.961555 -0.001864
  outer loop
   vertex 49.531307 -960.302307 -235.578049
   vertex 48.765663 -960.080505 -237.200470
   vertex 50.016117 -960.439087 -236.441895
  endloop
 endfacet
 facet normal 0.484812 -0.136819 -0.863851
  outer loop
   vertex 50.016117 -960.439087 -236.441895
   vertex 48.765663 -960.080505 -237.200470
   vertex 50.246937 -959.630920 -236.440353
  endloop
 endfacet
 facet normal 0.830383 -0.238125 0.503747
  outer loop
   vertex 50.246937 -959.630920 -236.440353
   vertex 49.762131 -959.494080 -235.576508
   vertex 50.016117 -960.439087 -236.441895
  endloop
 endfacet
 facet normal 0.274635 0.961547 0.001813
  outer loop
   vertex 48.996487 -959.272339 -237.198929
   vertex 49.762131 -959.494080 -235.576508
   vertex 50.246937 -959.630920 -236.440353
  endloop
 endfacet
 facet normal 0.484815 -0.136812 -0.863850
  outer loop
   vertex 45.469784 -958.277039 -230.914902
   vertex 46.720234 -958.635620 -230.156326
   vertex 45.238960 -959.085266 -230.916443
  endloop
 endfacet
 facet normal 0.484815 -0.136812 -0.863850
  outer loop
   vertex 45.238960 -959.085266 -230.916443
   vertex 46.720234 -958.635620 -230.156326
   vertex 46.489410 -959.443848 -230.157867
  endloop
 endfacet
 facet normal -0.274635 -0.961547 -0.001813
  outer loop
   vertex 46.489410 -959.443848 -230.157867
   vertex 46.004604 -959.307007 -229.294022
   vertex 45.238960 -959.085266 -230.916443
  endloop
 endfacet
 facet normal 0.830386 -0.238112 0.503747
  outer loop
   vertex 46.720234 -958.635620 -230.156326
   vertex 46.004604 -959.307007 -229.294022
   vertex 46.489410 -959.443848 -230.157867
  endloop
 endfacet
 facet normal 0.830388 -0.238127 0.503737
  outer loop
   vertex 46.235424 -958.498840 -229.292480
   vertex 46.004604 -959.307007 -229.294022
   vertex 46.720234 -958.635620 -230.156326
  endloop
 endfacet
 facet normal 0.274606 0.961555 0.001864
  outer loop
   vertex 46.720234 -958.635620 -230.156326
   vertex 44.984974 -958.140259 -230.051041
   vertex 46.235424 -958.498840 -229.292480
  endloop
 endfacet
 facet normal -0.484806 0.136818 0.863854
  outer loop
   vertex 46.235424 -958.498840 -229.292480
   vertex 44.984974 -958.140259 -230.051041
   vertex 46.004604 -959.307007 -229.294022
  endloop
 endfacet
 facet normal -0.484804 0.136819 0.863855
  outer loop
   vertex 46.004604 -959.307007 -229.294022
   vertex 44.984974 -958.140259 -230.051041
   vertex 44.754150 -958.948425 -230.052582
  endloop
 endfacet
 facet normal -0.274634 -0.961547 -0.001813
  outer loop
   vertex 44.754150 -958.948425 -230.052582
   vertex 45.238960 -959.085266 -230.916443
   vertex 46.004604 -959.307007 -229.294022
  endloop
 endfacet
 facet normal -0.830384 0.238130 -0.503743
  outer loop
   vertex 44.984974 -958.140259 -230.051041
   vertex 45.238960 -959.085266 -230.916443
   vertex 44.754150 -958.948425 -230.052582
  endloop
 endfacet
 facet normal -0.830396 0.238115 -0.503731
  outer loop
   vertex 45.469784 -958.277039 -230.914902
   vertex 45.238960 -959.085266 -230.916443
   vertex 44.984974 -958.140259 -230.051041
  endloop
 endfacet
 facet normal 0.274606 0.961555 0.001864
  outer loop
   vertex 44.984974 -958.140259 -230.051041
   vertex 46.720234 -958.635620 -230.156326
   vertex 45.469784 -958.277039 -230.914902
  endloop
 endfacet
 facet normal 0.274678 0.961534 0.001858
  outer loop
   vertex 46.364491 -958.554199 -229.769241
   vertex 46.449818 -958.578674 -229.717484
   vertex 49.993969 -959.578918 -236.032593
  endloop
 endfacet
 facet normal 0.830389 -0.238110 0.503743
  outer loop
   vertex 49.993969 -959.578918 -236.032593
   vertex 46.449818 -958.578674 -229.717484
   vertex 46.413177 -958.706970 -229.717728
  endloop
 endfacet
 facet normal 0.830389 -0.238110 0.503743
  outer loop
   vertex 46.413177 -958.706970 -229.717728
   vertex 49.957329 -959.707214 -236.032837
   vertex 49.993969 -959.578918 -236.032593
  endloop
 endfacet
 facet normal 0.042064 -0.982897 0.179287
  outer loop
   vertex 46.383770 -958.711121 -229.733582
   vertex 49.957329 -959.707214 -236.032837
   vertex 46.413177 -958.706970 -229.717728
  endloop
 endfacet
 facet normal 0.040507 -0.983117 0.178439
  outer loop
   vertex 49.927917 -959.711304 -236.048691
   vertex 49.957329 -959.707214 -236.032837
   vertex 46.383770 -958.711121 -229.733582
  endloop
 endfacet
 facet normal 0.830387 -0.238122 0.503741
  outer loop
   vertex 46.383770 -958.711121 -229.733582
   vertex 46.225819 -959.264160 -229.734634
   vertex 49.927917 -959.711304 -236.048691
  endloop
 endfacet
 facet normal 0.830387 -0.238122 0.503741
  outer loop
   vertex 49.927917 -959.711304 -236.048691
   vertex 46.225819 -959.264160 -229.734634
   vertex 49.769966 -960.264343 -236.049744
  endloop
 endfacet
 facet normal 0.554375 0.812007 0.182519
  outer loop
   vertex 49.769966 -960.264343 -236.049744
   vertex 46.225819 -959.264160 -229.734634
   vertex 46.248596 -959.283264 -229.718826
  endloop
 endfacet
 facet normal 0.554375 0.812007 0.182519
  outer loop
   vertex 46.248596 -959.283264 -229.718826
   vertex 49.792744 -960.283447 -236.033936
   vertex 49.769966 -960.264343 -236.049744
  endloop
 endfacet
 facet normal 0.830388 -0.238120 0.503741
  outer loop
   vertex 46.230415 -959.346924 -229.718948
   vertex 49.792744 -960.283447 -236.033936
   vertex 46.248596 -959.283264 -229.718826
  endloop
 endfacet
 facet normal 0.830388 -0.238120 0.503741
  outer loop
   vertex 49.774563 -960.347107 -236.034058
   vertex 49.792744 -960.283447 -236.033936
   vertex 46.230415 -959.346924 -229.718948
  endloop
 endfacet
 facet normal -0.274622 -0.961551 -0.001833
  outer loop
   vertex 46.230415 -959.346924 -229.718948
   vertex 45.008263 -958.996460 -230.460342
   vertex 49.774563 -960.347107 -236.034058
  endloop
 endfacet
 facet normal -0.274622 -0.961550 -0.001833
  outer loop
   vertex 49.774563 -960.347107 -236.034058
   vertex 45.008263 -958.996460 -230.460342
   vertex 48.552414 -959.996643 -236.775452
  endloop
 endfacet
 facet normal -0.830387 0.238120 -0.503741
  outer loop
   vertex 48.552414 -959.996643 -236.775452
   vertex 45.008263 -958.996460 -230.460342
   vertex 48.570595 -959.932983 -236.775330
  endloop
 endfacet
 facet normal -0.830396 0.238115 -0.503731
  outer loop
   vertex 48.280853 -959.943726 -236.336609
   vertex 48.511677 -959.135498 -236.335068
   vertex 48.765663 -960.080505 -237.200470
  endloop
 endfacet
 facet normal 0.830392 -0.238114 0.503737
  outer loop
   vertex 49.762131 -959.494080 -235.576508
   vertex 49.531307 -960.302307 -235.578049
   vertex 50.016117 -960.439087 -236.441895
  endloop
 endfacet
 facet normal -0.830387 0.238120 -0.503741
  outer loop
   vertex 45.008263 -958.996460 -230.460342
   vertex 45.026443 -958.932800 -230.460220
   vertex 48.570595 -959.932983 -236.775330
  endloop
 endfacet
 facet normal 0.049454 0.576644 0.815497
  outer loop
   vertex 45.236084 -960.064514 -229.879944
   vertex 44.597855 -960.923462 -229.233871
   vertex 45.418377 -960.116638 -229.854141
  endloop
 endfacet
 facet normal 0.049443 0.576652 0.815492
  outer loop
   vertex 45.418377 -960.116638 -229.854141
   vertex 44.597855 -960.923462 -229.233871
   vertex 45.327023 -961.131897 -229.130692
  endloop
 endfacet
 facet normal 0.634523 0.409849 0.655290
  outer loop
   vertex 45.327023 -961.131897 -229.130692
   vertex 45.564884 -960.158264 -229.969971
   vertex 45.418377 -960.116638 -229.854141
  endloop
 endfacet
 facet normal 0.634515 0.409854 0.655294
  outer loop
   vertex 45.913048 -961.298401 -229.593994
   vertex 45.564884 -960.158264 -229.969971
   vertex 45.327023 -961.131897 -229.130692
  endloop
 endfacet
 facet normal 0.939506 0.323769 0.111814
  outer loop
   vertex 45.589783 -960.165039 -230.159561
   vertex 45.564884 -960.158264 -229.969971
   vertex 45.913048 -961.298401 -229.593994
  endloop
 endfacet
 facet normal 0.939499 0.323781 0.111841
  outer loop
   vertex 45.913048 -961.298401 -229.593994
   vertex 46.012646 -961.325439 -230.352371
   vertex 45.589783 -960.165039 -230.159561
  endloop
 endfacet
 facet normal 0.785791 0.368844 -0.496475
  outer loop
   vertex 45.589783 -960.165039 -230.159561
   vertex 46.012646 -961.325439 -230.352371
   vertex 45.478489 -960.132935 -230.311859
  endloop
 endfacet
 facet normal 0.785766 0.368835 -0.496520
  outer loop
   vertex 45.478489 -960.132935 -230.311859
   vertex 46.012646 -961.325439 -230.352371
   vertex 45.567471 -961.197144 -230.961578
  endloop
 endfacet
 facet normal 0.263427 0.518627 -0.813408
  outer loop
   vertex 45.567471 -961.197144 -230.961578
   vertex 45.296196 -960.080811 -230.337662
   vertex 45.478489 -960.132935 -230.311859
  endloop
 endfacet
 facet normal 0.263396 0.518625 -0.813419
  outer loop
   vertex 44.838303 -960.988647 -231.064758
   vertex 45.296196 -960.080811 -230.337662
   vertex 45.567471 -961.197144 -230.961578
  endloop
 endfacet
 facet normal -0.321695 0.685429 -0.653222
  outer loop
   vertex 45.149689 -960.039185 -230.221832
   vertex 45.296196 -960.080811 -230.337662
   vertex 44.838303 -960.988647 -231.064758
  endloop
 endfacet
 facet normal -0.321671 0.685430 -0.653233
  outer loop
   vertex 44.838303 -960.988647 -231.064758
   vertex 44.252277 -960.822144 -230.601471
   vertex 45.149689 -960.039185 -230.221832
  endloop
 endfacet
 facet normal -0.626723 0.771492 -0.109627
  outer loop
   vertex 45.149689 -960.039185 -230.221832
   vertex 44.252277 -960.822144 -230.601471
   vertex 45.124790 -960.032471 -230.032242
  endloop
 endfacet
 facet normal -0.626669 0.771519 -0.109746
  outer loop
   vertex 45.124790 -960.032471 -230.032242
   vertex 44.252277 -960.822144 -230.601471
   vertex 44.152679 -960.795166 -229.843094
  endloop
 endfacet
 facet normal -0.472990 0.726486 0.498496
  outer loop
   vertex 44.152679 -960.795166 -229.843094
   vertex 45.236084 -960.064514 -229.879944
   vertex 45.124790 -960.032471 -230.032242
  endloop
 endfacet
 facet normal -0.472959 0.726445 0.498585
  outer loop
   vertex 44.597855 -960.923462 -229.233871
   vertex 45.236084 -960.064514 -229.879944
   vertex 44.152679 -960.795166 -229.843094
  endloop
 endfacet
 facet normal -0.130164 0.035289 0.990864
  outer loop
   vertex 49.047058 -960.111450 -236.184250
   vertex 48.772430 -961.072998 -236.186081
   vertex 49.229347 -960.163574 -236.158447
  endloop
 endfacet
 facet normal -0.130162 0.035288 0.990865
  outer loop
   vertex 49.229347 -960.163574 -236.158447
   vertex 48.772430 -961.072998 -236.186081
   vertex 48.954723 -961.125122 -236.160278
  endloop
 endfacet
 facet normal 0.581705 -0.167654 0.795934
  outer loop
   vertex 48.954723 -961.125122 -236.160278
   vertex 49.375854 -960.205139 -236.274277
   vertex 49.229347 -960.163574 -236.158447
  endloop
 endfacet
 facet normal 0.581667 -0.167633 0.795966
  outer loop
   vertex 49.101231 -961.166748 -236.276108
   vertex 49.375854 -960.205139 -236.274277
   vertex 48.954723 -961.125122 -236.160278
  endloop
 endfacet
 facet normal 0.952706 -0.272338 0.134849
  outer loop
   vertex 49.400753 -960.211914 -236.463867
   vertex 49.375854 -960.205139 -236.274277
   vertex 49.101231 -961.166748 -236.276108
  endloop
 endfacet
 facet normal 0.952712 -0.272357 0.134763
  outer loop
   vertex 49.101231 -961.166748 -236.276108
   vertex 49.126129 -961.173462 -236.465698
   vertex 49.400753 -960.211914 -236.463867
  endloop
 endfacet
 facet normal 0.765719 -0.217541 -0.605269
  outer loop
   vertex 49.400753 -960.211914 -236.463867
   vertex 49.126129 -961.173462 -236.465698
   vertex 49.289459 -960.179871 -236.616180
  endloop
 endfacet
 facet normal 0.765688 -0.217542 -0.605308
  outer loop
   vertex 49.289459 -960.179871 -236.616180
   vertex 49.126129 -961.173462 -236.465698
   vertex 49.014835 -961.141418 -236.617996
  endloop
 endfacet
 facet normal 0.130085 -0.035282 -0.990875
  outer loop
   vertex 49.014835 -961.141418 -236.617996
   vertex 49.107170 -960.127747 -236.641968
   vertex 49.289459 -960.179871 -236.616180
  endloop
 endfacet
 facet normal 0.130164 -0.035289 -0.990864
  outer loop
   vertex 48.832546 -961.089294 -236.643799
   vertex 49.107170 -960.127747 -236.641968
   vertex 49.014835 -961.141418 -236.617996
  endloop
 endfacet
 facet normal -0.581664 0.167643 -0.795966
  outer loop
   vertex 48.960663 -960.086121 -236.526138
   vertex 49.107170 -960.127747 -236.641968
   vertex 48.832546 -961.089294 -236.643799
  endloop
 endfacet
 facet normal -0.581664 0.167643 -0.795966
  outer loop
   vertex 48.832546 -961.089294 -236.643799
   vertex 48.686039 -961.047668 -236.527969
   vertex 48.960663 -960.086121 -236.526138
  endloop
 endfacet
 facet normal -0.952701 0.272354 -0.134849
  outer loop
   vertex 48.960663 -960.086121 -236.526138
   vertex 48.686039 -961.047668 -236.527969
   vertex 48.935764 -960.079346 -236.336548
  endloop
 endfacet
 facet normal -0.952698 0.272357 -0.134868
  outer loop
   vertex 48.935764 -960.079346 -236.336548
   vertex 48.686039 -961.047668 -236.527969
   vertex 48.661137 -961.040894 -236.338379
  endloop
 endfacet
 facet normal -0.765649 0.217524 0.605363
  outer loop
   vertex 48.661137 -961.040894 -236.338379
   vertex 49.047058 -960.111450 -236.184250
   vertex 48.935764 -960.079346 -236.336548
  endloop
 endfacet
 facet normal -0.765649 0.217524 0.605363
  outer loop
   vertex 48.772430 -961.072998 -236.186081
   vertex 49.047058 -960.111450 -236.184250
   vertex 48.661137 -961.040894 -236.338379
  endloop
 endfacet
 facet normal -0.130125 0.035277 0.990870
  outer loop
   vertex 48.136959 -961.922241 -235.539993
   vertex 47.862335 -962.883789 -235.541824
   vertex 48.866127 -962.130737 -235.436813
  endloop
 endfacet
 facet normal -0.130125 0.035277 0.990870
  outer loop
   vertex 48.866127 -962.130737 -235.436813
   vertex 47.862335 -962.883789 -235.541824
   vertex 48.591503 -963.092285 -235.438644
  endloop
 endfacet
 facet normal 0.581653 -0.167639 0.795976
  outer loop
   vertex 48.591503 -963.092285 -235.438644
   vertex 49.452152 -962.297180 -235.900101
   vertex 48.866127 -962.130737 -235.436813
  endloop
 endfacet
 facet normal 0.581653 -0.167639 0.795976
  outer loop
   vertex 49.177528 -963.258728 -235.901932
   vertex 49.452152 -962.297180 -235.900101
   vertex 48.591503 -963.092285 -235.438644
  endloop
 endfacet
 facet normal 0.952704 -0.272355 0.134827
  outer loop
   vertex 49.551750 -962.324219 -236.658493
   vertex 49.452152 -962.297180 -235.900101
   vertex 49.177528 -963.258728 -235.901932
  endloop
 endfacet
 facet normal 0.952704 -0.272353 0.134829
  outer loop
   vertex 49.177528 -963.258728 -235.901932
   vertex 49.277126 -963.285767 -236.660309
   vertex 49.551750 -962.324219 -236.658493
  endloop
 endfacet
 facet normal 0.765675 -0.217538 -0.605326
  outer loop
   vertex 49.551750 -962.324219 -236.658493
   vertex 49.277126 -963.285767 -236.660309
   vertex 49.106575 -962.195923 -237.267700
  endloop
 endfacet
 facet normal 0.765684 -0.217531 -0.605316
  outer loop
   vertex 49.106575 -962.195923 -237.267700
   vertex 49.277126 -963.285767 -236.660309
   vertex 48.831951 -963.157471 -237.269531
  endloop
 endfacet
 facet normal 0.130125 -0.035277 -0.990870
  outer loop
   vertex 48.831951 -963.157471 -237.269531
   vertex 48.377407 -961.987427 -237.370880
   vertex 49.106575 -962.195923 -237.267700
  endloop
 endfacet
 facet normal 0.130128 -0.035276 -0.990869
  outer loop
   vertex 48.102783 -962.949036 -237.372711
   vertex 48.377407 -961.987427 -237.370880
   vertex 48.831951 -963.157471 -237.269531
  endloop
 endfacet
 facet normal -0.581655 0.167629 -0.795976
  outer loop
   vertex 47.791382 -961.820984 -236.907593
   vertex 48.377407 -961.987427 -237.370880
   vertex 48.102783 -962.949036 -237.372711
  endloop
 endfacet
 facet normal -0.581642 0.167636 -0.795984
  outer loop
   vertex 48.102783 -962.949036 -237.372711
   vertex 47.516758 -962.782532 -236.909424
   vertex 47.791382 -961.820984 -236.907593
  endloop
 endfacet
 facet normal -0.952704 0.272355 -0.134829
  outer loop
   vertex 47.791382 -961.820984 -236.907593
   vertex 47.516758 -962.782532 -236.909424
   vertex 47.691784 -961.793945 -236.149216
  endloop
 endfacet
 facet normal -0.952704 0.272355 -0.134829
  outer loop
   vertex 47.691784 -961.793945 -236.149216
   vertex 47.516758 -962.782532 -236.909424
   vertex 47.417160 -962.755493 -236.151047
  endloop
 endfacet
 facet normal -0.765684 0.217531 0.605316
  outer loop
   vertex 47.417160 -962.755493 -236.151047
   vertex 48.136959 -961.922241 -235.539993
   vertex 47.691784 -961.793945 -236.149216
  endloop
 endfacet
 facet normal -0.765684 0.217531 0.605316
  outer loop
   vertex 47.862335 -962.883789 -235.541824
   vertex 48.136959 -961.922241 -235.539993
   vertex 47.417160 -962.755493 -236.151047
  endloop
 endfacet
 facet normal 0.049354 0.576713 0.815455
  outer loop
   vertex 48.775188 -961.063354 -236.186050
   vertex 48.136959 -961.922241 -235.539993
   vertex 48.957481 -961.115417 -236.160263
  endloop
 endfacet
 facet normal 0.049481 0.576626 0.815509
  outer loop
   vertex 48.957481 -961.115417 -236.160263
   vertex 48.136959 -961.922241 -235.539993
   vertex 48.866127 -962.130737 -235.436813
  endloop
 endfacet
 facet normal 0.634525 0.409831 0.655299
  outer loop
   vertex 48.866127 -962.130737 -235.436813
   vertex 49.103989 -961.157043 -236.276093
   vertex 48.957481 -961.115417 -236.160263
  endloop
 endfacet
 facet normal 0.634480 0.409862 0.655323
  outer loop
   vertex 49.452152 -962.297180 -235.900101
   vertex 49.103989 -961.157043 -236.276093
   vertex 48.866127 -962.130737 -235.436813
  endloop
 endfacet
 facet normal 0.939505 0.323770 0.111814
  outer loop
   vertex 49.128887 -961.163818 -236.465683
   vertex 49.103989 -961.157043 -236.276093
   vertex 49.452152 -962.297180 -235.900101
  endloop
 endfacet
 facet normal 0.939499 0.323781 0.111839
  outer loop
   vertex 49.452152 -962.297180 -235.900101
   vertex 49.551750 -962.324219 -236.658493
   vertex 49.128887 -961.163818 -236.465683
  endloop
 endfacet
 facet normal 0.785791 0.368844 -0.496475
  outer loop
   vertex 49.128887 -961.163818 -236.465683
   vertex 49.551750 -962.324219 -236.658493
   vertex 49.017593 -961.131714 -236.617981
  endloop
 endfacet
 facet normal 0.785766 0.368835 -0.496520
  outer loop
   vertex 49.017593 -961.131714 -236.617981
   vertex 49.551750 -962.324219 -236.658493
   vertex 49.106575 -962.195923 -237.267700
  endloop
 endfacet
 facet normal 0.263264 0.518640 -0.813452
  outer loop
   vertex 49.106575 -962.195923 -237.267700
   vertex 48.835300 -961.079651 -236.643784
   vertex 49.017593 -961.131714 -236.617981
  endloop
 endfacet
 facet normal 0.263400 0.518646 -0.813404
  outer loop
   vertex 48.377407 -961.987427 -237.370880
   vertex 48.835300 -961.079651 -236.643784
   vertex 49.106575 -962.195923 -237.267700
  endloop
 endfacet
 facet normal -0.321676 0.685453 -0.653206
  outer loop
   vertex 48.688793 -961.038025 -236.527954
   vertex 48.835300 -961.079651 -236.643784
   vertex 48.377407 -961.987427 -237.370880
  endloop
 endfacet
 facet normal -0.321706 0.685451 -0.653194
  outer loop
   vertex 48.377407 -961.987427 -237.370880
   vertex 47.791382 -961.820984 -236.907593
   vertex 48.688793 -961.038025 -236.527954
  endloop
 endfacet
 facet normal -0.626646 0.771520 -0.109866
  outer loop
   vertex 48.688793 -961.038025 -236.527954
   vertex 47.791382 -961.820984 -236.907593
   vertex 48.663895 -961.031250 -236.338364
  endloop
 endfacet
 facet normal -0.626673 0.771507 -0.109808
  outer loop
   vertex 48.663895 -961.031250 -236.338364
   vertex 47.791382 -961.820984 -236.907593
   vertex 47.691784 -961.793945 -236.149216
  endloop
 endfacet
 facet normal -0.472908 0.726424 0.498664
  outer loop
   vertex 47.691784 -961.793945 -236.149216
   vertex 48.775188 -961.063354 -236.186050
   vertex 48.663895 -961.031250 -236.338364
  endloop
 endfacet
 facet normal -0.472939 0.726465 0.498575
  outer loop
   vertex 48.136959 -961.922241 -235.539993
   vertex 48.775188 -961.063354 -236.186050
   vertex 47.691784 -961.793945 -236.149216
  endloop
 endfacet
 facet normal -0.130175 0.035292 0.990863
  outer loop
   vertex 45.507954 -959.112671 -229.878128
   vertex 45.233326 -960.074219 -229.879959
   vertex 45.690243 -959.164734 -229.852325
  endloop
 endfacet
 facet normal -0.130172 0.035291 0.990863
  outer loop
   vertex 45.690243 -959.164734 -229.852325
   vertex 45.233326 -960.074219 -229.879959
   vertex 45.415619 -960.126282 -229.854156
  endloop
 endfacet
 facet normal 0.581664 -0.167643 0.795966
  outer loop
   vertex 45.415619 -960.126282 -229.854156
   vertex 45.836750 -959.206360 -229.968155
   vertex 45.690243 -959.164734 -229.852325
  endloop
 endfacet
 facet normal 0.581664 -0.167643 0.795966
  outer loop
   vertex 45.562126 -960.167908 -229.969986
   vertex 45.836750 -959.206360 -229.968155
   vertex 45.415619 -960.126282 -229.854156
  endloop
 endfacet
 facet normal 0.952701 -0.272354 0.134849
  outer loop
   vertex 45.861649 -959.213135 -230.157745
   vertex 45.836750 -959.206360 -229.968155
   vertex 45.562126 -960.167908 -229.969986
  endloop
 endfacet
 facet normal 0.952701 -0.272354 0.134849
  outer loop
   vertex 45.562126 -960.167908 -229.969986
   vertex 45.587025 -960.174683 -230.159576
   vertex 45.861649 -959.213135 -230.157745
  endloop
 endfacet
 facet normal 0.765678 -0.217530 -0.605324
  outer loop
   vertex 45.861649 -959.213135 -230.157745
   vertex 45.587025 -960.174683 -230.159576
   vertex 45.750355 -959.181030 -230.310059
  endloop
 endfacet
 facet normal 0.765648 -0.217530 -0.605363
  outer loop
   vertex 45.750355 -959.181030 -230.310059
   vertex 45.587025 -960.174683 -230.159576
   vertex 45.475731 -960.142578 -230.311874
  endloop
 endfacet
 facet normal 0.130095 -0.035285 -0.990873
  outer loop
   vertex 45.475731 -960.142578 -230.311874
   vertex 45.568066 -959.128967 -230.335846
   vertex 45.750355 -959.181030 -230.310059
  endloop
 endfacet
 facet normal 0.130172 -0.035292 -0.990863
  outer loop
   vertex 45.293438 -960.090515 -230.337677
   vertex 45.568066 -959.128967 -230.335846
   vertex 45.475731 -960.142578 -230.311874
  endloop
 endfacet
 facet normal -0.581664 0.167645 -0.795966
  outer loop
   vertex 45.421558 -959.087341 -230.220016
   vertex 45.568066 -959.128967 -230.335846
   vertex 45.293438 -960.090515 -230.337677
  endloop
 endfacet
 facet normal -0.581673 0.167645 -0.795959
  outer loop
   vertex 45.293438 -960.090515 -230.337677
   vertex 45.146935 -960.048889 -230.221848
   vertex 45.421558 -959.087341 -230.220016
  endloop
 endfacet
 facet normal -0.952701 0.272354 -0.134849
  outer loop
   vertex 45.421558 -959.087341 -230.220016
   vertex 45.146935 -960.048889 -230.221848
   vertex 45.396660 -959.080566 -230.030426
  endloop
 endfacet
 facet normal -0.952698 0.272357 -0.134868
  outer loop
   vertex 45.396660 -959.080566 -230.030426
   vertex 45.146935 -960.048889 -230.221848
   vertex 45.122032 -960.042114 -230.032257
  endloop
 endfacet
 facet normal -0.765649 0.217524 0.605363
  outer loop
   vertex 45.122032 -960.042114 -230.032257
   vertex 45.507954 -959.112671 -229.878128
   vertex 45.396660 -959.080566 -230.030426
  endloop
 endfacet
 facet normal -0.765649 0.217524 0.605363
  outer loop
   vertex 45.233326 -960.074219 -229.879959
   vertex 45.507954 -959.112671 -229.878128
   vertex 45.122032 -960.042114 -230.032257
  endloop
 endfacet
 facet normal -0.765684 0.217531 0.605316
  outer loop
   vertex 44.152679 -960.795166 -229.843094
   vertex 43.878056 -961.756714 -229.844925
   vertex 44.597855 -960.923462 -229.233871
  endloop
 endfacet
 facet normal -0.765684 0.217531 0.605316
  outer loop
   vertex 44.597855 -960.923462 -229.233871
   vertex 43.878056 -961.756714 -229.844925
   vertex 44.323231 -961.885010 -229.235703
  endloop
 endfacet
 facet normal -0.130127 0.035278 0.990869
  outer loop
   vertex 44.323231 -961.885010 -229.235703
   vertex 45.327023 -961.131897 -229.130692
   vertex 44.597855 -960.923462 -229.233871
  endloop
 endfacet
 facet normal -0.130125 0.035275 0.990870
  outer loop
   vertex 45.052399 -962.093506 -229.132523
   vertex 45.327023 -961.131897 -229.130692
   vertex 44.323231 -961.885010 -229.235703
  endloop
 endfacet
 facet normal 0.581657 -0.167630 0.795974
  outer loop
   vertex 45.913048 -961.298401 -229.593994
   vertex 45.327023 -961.131897 -229.130692
   vertex 45.052399 -962.093506 -229.132523
  endloop
 endfacet
 facet normal 0.581656 -0.167628 0.795976
  outer loop
   vertex 45.052399 -962.093506 -229.132523
   vertex 45.638424 -962.259949 -229.595810
   vertex 45.913048 -961.298401 -229.593994
  endloop
 endfacet
 facet normal 0.952704 -0.272353 0.134829
  outer loop
   vertex 45.913048 -961.298401 -229.593994
   vertex 45.638424 -962.259949 -229.595810
   vertex 46.012646 -961.325439 -230.352371
  endloop
 endfacet
 facet normal 0.952704 -0.272355 0.134827
  outer loop
   vertex 46.012646 -961.325439 -230.352371
   vertex 45.638424 -962.259949 -229.595810
   vertex 45.738022 -962.286987 -230.354202
  endloop
 endfacet
 facet normal 0.765677 -0.217529 -0.605326
  outer loop
   vertex 45.738022 -962.286987 -230.354202
   vertex 45.567471 -961.197144 -230.961578
   vertex 46.012646 -961.325439 -230.352371
  endloop
 endfacet
 facet normal 0.765677 -0.217529 -0.605326
  outer loop
   vertex 45.292847 -962.158691 -230.963409
   vertex 45.567471 -961.197144 -230.961578
   vertex 45.738022 -962.286987 -230.354202
  endloop
 endfacet
 facet normal 0.130125 -0.035277 -0.990870
  outer loop
   vertex 44.838303 -960.988647 -231.064758
   vertex 45.567471 -961.197144 -230.961578
   vertex 45.292847 -962.158691 -230.963409
  endloop
 endfacet
 facet normal 0.130125 -0.035277 -0.990870
  outer loop
   vertex 45.292847 -962.158691 -230.963409
   vertex 44.563679 -961.950195 -231.066589
   vertex 44.838303 -960.988647 -231.064758
  endloop
 endfacet
 facet normal -0.581642 0.167636 -0.795984
  outer loop
   vertex 44.838303 -960.988647 -231.064758
   vertex 44.563679 -961.950195 -231.066589
   vertex 44.252277 -960.822144 -230.601471
  endloop
 endfacet
 facet normal -0.581653 0.167631 -0.795977
  outer loop
   vertex 44.252277 -960.822144 -230.601471
   vertex 44.563679 -961.950195 -231.066589
   vertex 43.977650 -961.783752 -230.603302
  endloop
 endfacet
 facet normal -0.952710 0.272343 -0.134808
  outer loop
   vertex 43.977650 -961.783752 -230.603302
   vertex 44.152679 -960.795166 -229.843094
   vertex 44.252277 -960.822144 -230.601471
  endloop
 endfacet
 facet normal -0.952704 0.272355 -0.134825
  outer loop
   vertex 43.878056 -961.756714 -229.844925
   vertex 44.152679 -960.795166 -229.843094
   vertex 43.977650 -961.783752 -230.603302
  endloop
 endfacet
endsolid