solid stl file generated from DOUG
 facet normal -0.000000 -0.804628 -0.593780
  outer loop
   vertex -64.146210 123.302261 213.650940
   vertex -64.146210 123.383133 213.541351
   vertex -48.618172 123.383125 213.541351
  endloop
 endfacet
 facet normal 0.000000 -0.000000 -1.000000
  outer loop
   vertex -48.618172 123.383125 213.541351
   vertex -64.146210 123.383133 213.541351
   vertex -48.618172 123.485886 213.541351
  endloop
 endfacet
 facet normal 0.000000 0.804628 -0.593780
  outer loop
   vertex -48.618176 122.197723 213.650940
   vertex -48.618176 122.116852 213.541351
   vertex -64.146210 122.116859 213.541351
  endloop
 endfacet
 facet normal -0.000000 -0.000000 -1.000000
  outer loop
   vertex -64.146210 122.116859 213.541351
   vertex -48.618176 122.116852 213.541351
   vertex -48.618176 122.014099 213.541351
  endloop
 endfacet
 facet normal 0.000000 0.000000 -1.000000
  outer loop
   vertex -48.618176 122.014099 213.541351
   vertex -64.146210 122.014099 213.541351
   vertex -64.146210 122.116859 213.541351
  endloop
 endfacet
 facet normal 0.000000 -0.358539 -0.933515
  outer loop
   vertex -48.618176 122.014099 214.274078
   vertex -64.146210 122.014099 214.274078
   vertex -48.618176 122.045525 214.262009
  endloop
 endfacet
 facet normal -0.000000 -0.358539 -0.933515
  outer loop
   vertex -48.618176 122.045525 214.262009
   vertex -64.146210 122.014099 214.274078
   vertex -64.146210 122.045525 214.262009
  endloop
 endfacet
 facet normal 0.000000 -1.000000 0.000000
  outer loop
   vertex -64.146210 122.045525 214.262009
   vertex -64.146210 122.045525 213.686844
   vertex -48.618176 122.045525 214.262009
  endloop
 endfacet
 facet normal -0.000000 -0.804654 -0.593744
  outer loop
   vertex -48.618172 123.383125 213.541351
   vertex -48.618172 123.302261 213.650940
   vertex -64.146210 123.302261 213.650940
  endloop
 endfacet
 facet normal -0.000000 -0.000000 -1.000000
  outer loop
   vertex -64.146210 123.302261 213.650940
   vertex -48.618172 123.302261 213.650940
   vertex -48.618176 122.197723 213.650940
  endloop
 endfacet
 facet normal 0.000000 0.000000 -1.000000
  outer loop
   vertex -48.618176 122.197723 213.650940
   vertex -64.146210 122.197723 213.650940
   vertex -64.146210 123.302261 213.650940
  endloop
 endfacet
 facet normal -0.000000 0.804654 -0.593744
  outer loop
   vertex -64.146210 122.116859 213.541351
   vertex -64.146210 122.197723 213.650940
   vertex -48.618176 122.197723 213.650940
  endloop
 endfacet
 facet normal 0.000000 -1.000000 0.000000
  outer loop
   vertex -64.146210 122.014099 213.541351
   vertex -48.618176 122.014099 213.541351
   vertex -64.146210 122.014099 213.674774
  endloop
 endfacet
 facet normal -0.000000 -1.000000 0.000000
  outer loop
   vertex -64.146210 122.014099 213.674774
   vertex -48.618176 122.014099 213.541351
   vertex -48.618176 122.014099 213.674774
  endloop
 endfacet
 facet normal 0.000000 -0.358539 0.933515
  outer loop
   vertex -48.618176 122.014099 213.674774
   vertex -64.146210 122.045525 213.686844
   vertex -64.146210 122.014099 213.674774
  endloop
 endfacet
 facet normal -0.000000 -0.358539 0.933515
  outer loop
   vertex -48.618176 122.045525 213.686844
   vertex -64.146210 122.045525 213.686844
   vertex -48.618176 122.014099 213.674774
  endloop
 endfacet
 facet normal 0.000000 -1.000000 0.000000
  outer loop
   vertex -48.618176 122.045525 214.262009
   vertex -64.146210 122.045525 213.686844
   vertex -48.618176 122.045525 213.686844
  endloop
 endfacet
 facet normal 1.000000 -0.000003 0.000000
  outer loop
   vertex -48.178402 123.502922 213.522644
   vertex -48.178406 121.997055 214.363144
   vertex -48.178406 121.997055 213.522644
  endloop
 endfacet
 facet normal -0.000000 -1.000000 -0.000000
  outer loop
   vertex -48.178406 121.997055 213.522644
   vertex -48.178406 121.997055 214.363144
   vertex -49.178402 121.997055 213.522644
  endloop
 endfacet
 facet normal 0.000000 0.000000 -1.000000
  outer loop
   vertex -49.178402 121.997055 213.522644
   vertex -49.178402 123.502922 213.522644
   vertex -48.178406 121.997055 213.522644
  endloop
 endfacet
 facet normal -1.000000 -0.000000 -0.000000
  outer loop
   vertex -49.178402 121.997055 214.363144
   vertex -49.178402 123.502922 213.522644
   vertex -49.178402 121.997055 213.522644
  endloop
 endfacet
 facet normal -1.000000 0.000000 0.000000
  outer loop
   vertex -49.178402 123.502922 214.363144
   vertex -49.178402 123.502922 213.522644
   vertex -49.178402 121.997055 214.363144
  endloop
 endfacet
 facet normal -0.000000 -0.000000 1.000000
  outer loop
   vertex -49.178402 121.997055 214.363144
   vertex -48.178406 121.997055 214.363144
   vertex -49.178402 123.502922 214.363144
  endloop
 endfacet
 facet normal 0.000000 -0.000000 1.000000
  outer loop
   vertex -49.178402 123.502922 214.363144
   vertex -48.178406 121.997055 214.363144
   vertex -48.178402 123.502922 214.363144
  endloop
 endfacet
 facet normal 1.000000 -0.000003 -0.000000
  outer loop
   vertex -48.178402 123.502922 214.363144
   vertex -48.178406 121.997055 214.363144
   vertex -48.178402 123.502922 213.522644
  endloop
 endfacet
 facet normal 0.000000 1.000000 0.000000
  outer loop
   vertex -48.178402 123.502922 213.522644
   vertex -49.178402 123.502922 213.522644
   vertex -48.178402 123.502922 214.363144
  endloop
 endfacet
 facet normal 0.000000 -0.000000 -1.000000
  outer loop
   vertex -48.178406 121.997055 213.522644
   vertex -49.178402 123.502922 213.522644
   vertex -48.178402 123.502922 213.522644
  endloop
 endfacet
 facet normal 1.000000 0.000000 0.000000
  outer loop
   vertex -63.585979 121.997063 213.522644
   vertex -63.585979 123.502930 213.522644
   vertex -63.585979 121.997063 214.363144
  endloop
 endfacet
 facet normal 1.000000 -0.000000 -0.000000
  outer loop
   vertex -63.585979 121.997063 214.363144
   vertex -63.585979 123.502930 213.522644
   vertex -63.585979 123.502930 214.363144
  endloop
 endfacet
 facet normal -0.000000 0.000000 1.000000
  outer loop
   vertex -63.585979 123.502930 214.363144
   vertex -64.585976 123.502930 214.363144
   vertex -63.585979 121.997063 214.363144
  endloop
 endfacet
 facet normal -0.000000 1.000000 -0.000000
  outer loop
   vertex -63.585979 123.502930 213.522644
   vertex -64.585976 123.502930 214.363144
   vertex -63.585979 123.502930 214.363144
  endloop
 endfacet
 facet normal 0.000000 1.000000 0.000000
  outer loop
   vertex -64.585976 123.502930 213.522644
   vertex -64.585976 123.502930 214.363144
   vertex -63.585979 123.502930 213.522644
  endloop
 endfacet
 facet normal -0.000000 -0.000000 -1.000000
  outer loop
   vertex -63.585979 123.502930 213.522644
   vertex -64.585976 121.997063 213.522644
   vertex -64.585976 123.502930 213.522644
  endloop
 endfacet
 facet normal -1.000000 0.000000 0.000000
  outer loop
   vertex -64.585976 123.502930 213.522644
   vertex -64.585976 121.997063 213.522644
   vertex -64.585976 123.502930 214.363144
  endloop
 endfacet
 facet normal -1.000000 -0.000000 -0.000000
  outer loop
   vertex -64.585976 123.502930 214.363144
   vertex -64.585976 121.997063 213.522644
   vertex -64.585976 121.997063 214.363144
  endloop
 endfacet
 facet normal 0.000000 0.000000 1.000000
  outer loop
   vertex -64.585976 121.997063 214.363144
   vertex -63.585979 121.997063 214.363144
   vertex -64.585976 123.502930 214.363144
  endloop
 endfacet
 facet normal -0.000000 -1.000000 -0.000000
  outer loop
   vertex -64.585976 121.997063 213.522644
   vertex -63.585979 121.997063 214.363144
   vertex -64.585976 121.997063 214.363144
  endloop
 endfacet
 facet normal 0.000000 -1.000000 -0.000000
  outer loop
   vertex -63.585979 121.997063 213.522644
   vertex -63.585979 121.997063 214.363144
   vertex -64.585976 121.997063 213.522644
  endloop
 endfacet
 facet normal -0.000000 -0.000000 -1.000000
  outer loop
   vertex -64.585976 121.997063 213.522644
   vertex -63.585979 123.502930 213.522644
   vertex -63.585979 121.997063 213.522644
  endloop
 endfacet
 facet normal 0.000000 0.000000 -1.000000
  outer loop
   vertex -64.146210 123.383133 213.541351
   vertex -64.146210 123.485886 213.541351
   vertex -48.618172 123.485886 213.541351
  endloop
 endfacet
 facet normal -0.000000 1.000000 -0.000000
  outer loop
   vertex -48.618172 123.485886 213.541351
   vertex -64.146210 123.485886 213.541351
   vertex -64.146210 123.485886 213.674774
  endloop
 endfacet
 facet normal 0.000000 1.000000 0.000000
  outer loop
   vertex -64.146210 123.485886 213.674774
   vertex -48.618172 123.485886 213.674774
   vertex -48.618172 123.485886 213.541351
  endloop
 endfacet
 facet normal 0.000000 0.358539 0.933515
  outer loop
   vertex -64.146210 123.454460 213.686844
   vertex -48.618172 123.485886 213.674774
   vertex -64.146210 123.485886 213.674774
  endloop
 endfacet
 facet normal 0.000000 0.358539 0.933515
  outer loop
   vertex -48.618172 123.454460 213.686844
   vertex -48.618172 123.485886 213.674774
   vertex -64.146210 123.454460 213.686844
  endloop
 endfacet
 facet normal -0.000000 1.000000 -0.000000
  outer loop
   vertex -64.146210 123.454460 213.686844
   vertex -64.146210 123.454460 214.262009
   vertex -48.618172 123.454460 213.686844
  endloop
 endfacet
 facet normal -0.000000 1.000000 0.000000
  outer loop
   vertex -48.618172 123.454460 213.686844
   vertex -64.146210 123.454460 214.262009
   vertex -48.618172 123.454460 214.262009
  endloop
 endfacet
 facet normal -0.000000 0.358539 -0.933515
  outer loop
   vertex -48.618172 123.454460 214.262009
   vertex -64.146210 123.454460 214.262009
   vertex -64.146210 123.485886 214.274078
  endloop
 endfacet
 facet normal 0.000000 0.358539 -0.933515
  outer loop
   vertex -64.146210 123.485886 214.274078
   vertex -48.618172 123.485886 214.274078
   vertex -48.618172 123.454460 214.262009
  endloop
 endfacet
 facet normal -0.000000 1.000000 -0.000000
  outer loop
   vertex -64.146210 123.485886 214.340286
   vertex -48.618172 123.485886 214.274078
   vertex -64.146210 123.485886 214.274078
  endloop
 endfacet
 facet normal 0.000000 1.000000 -0.000000
  outer loop
   vertex -48.618172 123.485886 214.340286
   vertex -48.618172 123.485886 214.274078
   vertex -64.146210 123.485886 214.340286
  endloop
 endfacet
 facet normal -0.000000 -0.000000 1.000000
  outer loop
   vertex -64.146210 123.485886 214.340286
   vertex -64.146210 122.014099 214.340286
   vertex -48.618172 123.485886 214.340286
  endloop
 endfacet
 facet normal 0.000000 0.000000 1.000000
  outer loop
   vertex -48.618172 123.485886 214.340286
   vertex -64.146210 122.014099 214.340286
   vertex -48.618176 122.014099 214.340286
  endloop
 endfacet
 facet normal 0.000000 -1.000000 -0.000000
  outer loop
   vertex -48.618176 122.014099 214.340286
   vertex -64.146210 122.014099 214.340286
   vertex -48.618176 122.014099 214.274078
  endloop
 endfacet
 facet normal 0.000000 -1.000000 0.000000
  outer loop
   vertex -49.178402 121.997055 214.363144
   vertex -49.178402 121.997055 213.522644
   vertex -48.178406 121.997055 214.363144
  endloop
 endfacet
 facet normal -0.000000 1.000000 0.000000
  outer loop
   vertex -49.178402 123.502922 213.522644
   vertex -49.178402 123.502922 214.363144
   vertex -48.178402 123.502922 214.363144
  endloop
 endfacet
 facet normal 0.000000 -1.000000 0.000000
  outer loop
   vertex -64.146210 122.014099 214.340286
   vertex -64.146210 122.014099 214.274078
   vertex -48.618176 122.014099 214.274078
  endloop
 endfacet
 facet normal -0.759398 0.314529 -0.569549
  outer loop
   vertex -64.312187 122.749992 215.303696
   vertex -65.062187 122.749992 216.303696
   vertex -64.238968 122.926773 215.303696
  endloop
 endfacet
 facet normal -0.759395 0.314550 -0.569542
  outer loop
   vertex -64.238968 122.926773 215.303696
   vertex -65.062187 122.749992 216.303696
   vertex -64.769295 123.457100 216.303696
  endloop
 endfacet
 facet normal -0.314532 0.759405 -0.569538
  outer loop
   vertex -64.769295 123.457100 216.303696
   vertex -64.062187 122.999992 215.303696
   vertex -64.238968 122.926773 215.303696
  endloop
 endfacet
 facet normal -0.314550 0.759393 -0.569545
  outer loop
   vertex -64.062187 123.749992 216.303696
   vertex -64.062187 122.999992 215.303696
   vertex -64.769295 123.457100 216.303696
  endloop
 endfacet
 facet normal 0.314541 0.759395 -0.569546
  outer loop
   vertex -63.885414 122.926773 215.303696
   vertex -64.062187 122.999992 215.303696
   vertex -64.062187 123.749992 216.303696
  endloop
 endfacet
 facet normal 0.314552 0.759393 -0.569543
  outer loop
   vertex -64.062187 123.749992 216.303696
   vertex -63.355083 123.457100 216.303696
   vertex -63.885414 122.926773 215.303696
  endloop
 endfacet
 facet normal 0.759397 0.314544 -0.569543
  outer loop
   vertex -63.885414 122.926773 215.303696
   vertex -63.355083 123.457100 216.303696
   vertex -63.812191 122.749992 215.303696
  endloop
 endfacet
 facet normal 0.759393 0.314550 -0.569545
  outer loop
   vertex -63.812191 122.749992 215.303696
   vertex -63.355083 123.457100 216.303696
   vertex -63.062191 122.749992 216.303696
  endloop
 endfacet
 facet normal 0.759391 -0.314556 -0.569543
  outer loop
   vertex -63.062191 122.749992 216.303696
   vertex -63.885414 122.573219 215.303696
   vertex -63.812191 122.749992 215.303696
  endloop
 endfacet
 facet normal 0.759392 -0.314549 -0.569545
  outer loop
   vertex -63.355083 122.042885 216.303696
   vertex -63.885414 122.573219 215.303696
   vertex -63.062191 122.749992 216.303696
  endloop
 endfacet
 facet normal 0.314568 -0.759381 -0.569551
  outer loop
   vertex -64.062187 122.499992 215.303696
   vertex -63.885414 122.573219 215.303696
   vertex -63.355083 122.042885 216.303696
  endloop
 endfacet
 facet normal 0.314551 -0.759392 -0.569544
  outer loop
   vertex -63.355083 122.042885 216.303696
   vertex -64.062187 121.749992 216.303696
   vertex -64.062187 122.499992 215.303696
  endloop
 endfacet
 facet normal -0.314558 -0.759391 -0.569543
  outer loop
   vertex -64.062187 122.499992 215.303696
   vertex -64.062187 121.749992 216.303696
   vertex -64.238968 122.573219 215.303696
  endloop
 endfacet
 facet normal -0.314549 -0.759392 -0.569546
  outer loop
   vertex -64.238968 122.573219 215.303696
   vertex -64.062187 121.749992 216.303696
   vertex -64.769295 122.042885 216.303696
  endloop
 endfacet
 facet normal -0.759398 -0.314542 -0.569542
  outer loop
   vertex -64.769295 122.042885 216.303696
   vertex -64.312187 122.749992 215.303696
   vertex -64.238968 122.573219 215.303696
  endloop
 endfacet
 facet normal -0.759393 -0.314550 -0.569545
  outer loop
   vertex -65.062187 122.749992 216.303696
   vertex -64.312187 122.749992 215.303696
   vertex -64.769295 122.042885 216.303696
  endloop
 endfacet
 facet normal -0.923877 0.382689 0.000000
  outer loop
   vertex -48.952190 122.749992 214.313721
   vertex -48.952190 122.749992 215.313721
   vertex -48.878967 122.926765 214.313721
  endloop
 endfacet
 facet normal -0.923877 0.382689 -0.000000
  outer loop
   vertex -48.878967 122.926765 214.313721
   vertex -48.952190 122.749992 215.313721
   vertex -48.878967 122.926765 215.313721
  endloop
 endfacet
 facet normal -0.382699 0.923873 0.000000
  outer loop
   vertex -48.878967 122.926765 215.313721
   vertex -48.702190 122.999992 214.313721
   vertex -48.878967 122.926765 214.313721
  endloop
 endfacet
 facet normal -0.382699 0.923873 -0.000000
  outer loop
   vertex -48.702190 122.999992 215.313721
   vertex -48.702190 122.999992 214.313721
   vertex -48.878967 122.926765 215.313721
  endloop
 endfacet
 facet normal 0.382699 0.923873 -0.000000
  outer loop
   vertex -48.525414 122.926765 214.313721
   vertex -48.702190 122.999992 214.313721
   vertex -48.702190 122.999992 215.313721
  endloop
 endfacet
 facet normal 0.382699 0.923873 0.000000
  outer loop
   vertex -48.702190 122.999992 215.313721
   vertex -48.525414 122.926765 215.313721
   vertex -48.525414 122.926765 214.313721
  endloop
 endfacet
 facet normal 0.923877 0.382689 0.000000
  outer loop
   vertex -48.525414 122.926765 214.313721
   vertex -48.525414 122.926765 215.313721
   vertex -48.452190 122.749992 214.313721
  endloop
 endfacet
 facet normal 0.923877 0.382689 -0.000000
  outer loop
   vertex -48.452190 122.749992 214.313721
   vertex -48.525414 122.926765 215.313721
   vertex -48.452190 122.749992 215.313721
  endloop
 endfacet
 facet normal 0.923883 -0.382675 0.000000
  outer loop
   vertex -48.452190 122.749992 215.313721
   vertex -48.525414 122.573212 214.313721
   vertex -48.452190 122.749992 214.313721
  endloop
 endfacet
 facet normal 0.923883 -0.382675 -0.000000
  outer loop
   vertex -48.525414 122.573212 215.313721
   vertex -48.525414 122.573212 214.313721
   vertex -48.452190 122.749992 215.313721
  endloop
 endfacet
 facet normal 0.382665 -0.923887 0.000000
  outer loop
   vertex -48.702190 122.499992 214.313721
   vertex -48.525414 122.573212 214.313721
   vertex -48.525414 122.573212 215.313721
  endloop
 endfacet
 facet normal 0.382665 -0.923887 -0.000000
  outer loop
   vertex -48.525414 122.573212 215.313721
   vertex -48.702190 122.499992 215.313721
   vertex -48.702190 122.499992 214.313721
  endloop
 endfacet
 facet normal -0.382665 -0.923887 -0.000000
  outer loop
   vertex -48.702190 122.499992 214.313721
   vertex -48.702190 122.499992 215.313721
   vertex -48.878967 122.573212 214.313721
  endloop
 endfacet
 facet normal -0.382665 -0.923887 -0.000000
  outer loop
   vertex -48.878967 122.573212 214.313721
   vertex -48.702190 122.499992 215.313721
   vertex -48.878967 122.573212 215.313721
  endloop
 endfacet
 facet normal -0.923883 -0.382675 0.000000
  outer loop
   vertex -48.878967 122.573212 215.313721
   vertex -48.952190 122.749992 214.313721
   vertex -48.878967 122.573212 214.313721
  endloop
 endfacet
 facet normal -0.923883 -0.382675 0.000000
  outer loop
   vertex -48.952190 122.749992 215.313721
   vertex -48.952190 122.749992 214.313721
   vertex -48.878967 122.573212 215.313721
  endloop
 endfacet
 facet normal -0.923880 0.382682 0.000000
  outer loop
   vertex -49.702190 122.749992 216.303696
   vertex -49.702190 122.749992 217.303696
   vertex -49.409298 123.457100 216.303696
  endloop
 endfacet
 facet normal -0.923880 0.382682 -0.000000
  outer loop
   vertex -49.409298 123.457100 216.303696
   vertex -49.702190 122.749992 217.303696
   vertex -49.409298 123.457100 217.303696
  endloop
 endfacet
 facet normal -0.382682 0.923880 0.000000
  outer loop
   vertex -49.409298 123.457100 217.303696
   vertex -48.702190 123.749992 216.303696
   vertex -49.409298 123.457100 216.303696
  endloop
 endfacet
 facet normal -0.382682 0.923880 -0.000000
  outer loop
   vertex -48.702190 123.749992 217.303696
   vertex -48.702190 123.749992 216.303696
   vertex -49.409298 123.457100 217.303696
  endloop
 endfacet
 facet normal 0.382682 0.923880 -0.000000
  outer loop
   vertex -47.995083 123.457100 216.303696
   vertex -48.702190 123.749992 216.303696
   vertex -48.702190 123.749992 217.303696
  endloop
 endfacet
 facet normal 0.382682 0.923880 0.000000
  outer loop
   vertex -48.702190 123.749992 217.303696
   vertex -47.995083 123.457100 217.303696
   vertex -47.995083 123.457100 216.303696
  endloop
 endfacet
 facet normal 0.923880 0.382682 0.000000
  outer loop
   vertex -47.995083 123.457100 216.303696
   vertex -47.995083 123.457100 217.303696
   vertex -47.702190 122.749992 216.303696
  endloop
 endfacet
 facet normal 0.923880 0.382682 -0.000000
  outer loop
   vertex -47.702190 122.749992 216.303696
   vertex -47.995083 123.457100 217.303696
   vertex -47.702190 122.749992 217.303696
  endloop
 endfacet
 facet normal 0.923880 -0.382682 0.000000
  outer loop
   vertex -47.702190 122.749992 217.303696
   vertex -47.995083 122.042885 216.303696
   vertex -47.702190 122.749992 216.303696
  endloop
 endfacet
 facet normal 0.923880 -0.382682 -0.000000
  outer loop
   vertex -47.995083 122.042885 217.303696
   vertex -47.995083 122.042885 216.303696
   vertex -47.702190 122.749992 217.303696
  endloop
 endfacet
 facet normal 0.382682 -0.923880 0.000000
  outer loop
   vertex -48.702190 121.749992 216.303696
   vertex -47.995083 122.042885 216.303696
   vertex -47.995083 122.042885 217.303696
  endloop
 endfacet
 facet normal 0.382682 -0.923880 -0.000000
  outer loop
   vertex -47.995083 122.042885 217.303696
   vertex -48.702190 121.749992 217.303696
   vertex -48.702190 121.749992 216.303696
  endloop
 endfacet
 facet normal -0.382682 -0.923880 -0.000000
  outer loop
   vertex -48.702190 121.749992 216.303696
   vertex -48.702190 121.749992 217.303696
   vertex -49.409298 122.042885 216.303696
  endloop
 endfacet
 facet normal -0.382682 -0.923880 -0.000000
  outer loop
   vertex -49.409298 122.042885 216.303696
   vertex -48.702190 121.749992 217.303696
   vertex -49.409298 122.042885 217.303696
  endloop
 endfacet
 facet normal -0.923880 -0.382682 0.000000
  outer loop
   vertex -49.409298 122.042885 217.303696
   vertex -49.702190 122.749992 216.303696
   vertex -49.409298 122.042885 216.303696
  endloop
 endfacet
 facet normal -0.923880 -0.382682 0.000000
  outer loop
   vertex -49.702190 122.749992 217.303696
   vertex -49.702190 122.749992 216.303696
   vertex -49.409298 122.042885 217.303696
  endloop
 endfacet
 facet normal -0.759391 0.314556 -0.569543
  outer loop
   vertex -48.952190 122.749992 215.303696
   vertex -49.702190 122.749992 216.303696
   vertex -48.878967 122.926765 215.303696
  endloop
 endfacet
 facet normal -0.759392 0.314549 -0.569545
  outer loop
   vertex -48.878967 122.926765 215.303696
   vertex -49.702190 122.749992 216.303696
   vertex -49.409298 123.457100 216.303696
  endloop
 endfacet
 facet normal -0.314562 0.759384 -0.569550
  outer loop
   vertex -49.409298 123.457100 216.303696
   vertex -48.702190 122.999992 215.303696
   vertex -48.878967 122.926765 215.303696
  endloop
 endfacet
 facet normal -0.314550 0.759393 -0.569545
  outer loop
   vertex -48.702190 123.749992 216.303696
   vertex -48.702190 122.999992 215.303696
   vertex -49.409298 123.457100 216.303696
  endloop
 endfacet
 facet normal 0.314564 0.759389 -0.569542
  outer loop
   vertex -48.525414 122.926765 215.303696
   vertex -48.702190 122.999992 215.303696
   vertex -48.702190 123.749992 216.303696
  endloop
 endfacet
 facet normal 0.314549 0.759392 -0.569547
  outer loop
   vertex -48.702190 123.749992 216.303696
   vertex -47.995083 123.457100 216.303696
   vertex -48.525414 122.926765 215.303696
  endloop
 endfacet
 facet normal 0.759389 0.314555 -0.569547
  outer loop
   vertex -48.525414 122.926765 215.303696
   vertex -47.995083 123.457100 216.303696
   vertex -48.452190 122.749992 215.303696
  endloop
 endfacet
 facet normal 0.759393 0.314550 -0.569545
  outer loop
   vertex -48.452190 122.749992 215.303696
   vertex -47.995083 123.457100 216.303696
   vertex -47.702190 122.749992 216.303696
  endloop
 endfacet
 facet normal 0.759394 -0.314544 -0.569546
  outer loop
   vertex -47.702190 122.749992 216.303696
   vertex -48.525414 122.573212 215.303696
   vertex -48.452190 122.749992 215.303696
  endloop
 endfacet
 facet normal 0.759393 -0.314550 -0.569544
  outer loop
   vertex -47.995083 122.042885 216.303696
   vertex -48.525414 122.573212 215.303696
   vertex -47.702190 122.749992 216.303696
  endloop
 endfacet
 facet normal 0.314537 -0.759402 -0.569540
  outer loop
   vertex -48.702190 122.499992 215.303696
   vertex -48.525414 122.573212 215.303696
   vertex -47.995083 122.042885 216.303696
  endloop
 endfacet
 facet normal 0.314550 -0.759393 -0.569545
  outer loop
   vertex -47.995083 122.042885 216.303696
   vertex -48.702190 121.749992 216.303696
   vertex -48.702190 122.499992 215.303696
  endloop
 endfacet
 facet normal -0.314535 -0.759397 -0.569548
  outer loop
   vertex -48.702190 122.499992 215.303696
   vertex -48.702190 121.749992 216.303696
   vertex -48.878967 122.573212 215.303696
  endloop
 endfacet
 facet normal -0.314550 -0.759394 -0.569543
  outer loop
   vertex -48.878967 122.573212 215.303696
   vertex -48.702190 121.749992 216.303696
   vertex -49.409298 122.042885 216.303696
  endloop
 endfacet
 facet normal -0.759397 -0.314544 -0.569543
  outer loop
   vertex -49.409298 122.042885 216.303696
   vertex -48.952190 122.749992 215.303696
   vertex -48.878967 122.573212 215.303696
  endloop
 endfacet
 facet normal -0.759393 -0.314550 -0.569545
  outer loop
   vertex -49.702190 122.749992 216.303696
   vertex -48.952190 122.749992 215.303696
   vertex -49.409298 122.042885 216.303696
  endloop
 endfacet
 facet normal -0.923890 0.382658 0.000000
  outer loop
   vertex -64.312187 122.749992 214.313721
   vertex -64.312187 122.749992 215.313721
   vertex -64.238968 122.926773 214.313721
  endloop
 endfacet
 facet normal -0.923890 0.382658 -0.000000
  outer loop
   vertex -64.238968 122.926773 214.313721
   vertex -64.312187 122.749992 215.313721
   vertex -64.238968 122.926773 215.313721
  endloop
 endfacet
 facet normal -0.382658 0.923890 0.000000
  outer loop
   vertex -64.238968 122.926773 215.313721
   vertex -64.062187 122.999992 214.313721
   vertex -64.238968 122.926773 214.313721
  endloop
 endfacet
 facet normal -0.382658 0.923890 -0.000000
  outer loop
   vertex -64.062187 122.999992 215.313721
   vertex -64.062187 122.999992 214.313721
   vertex -64.238968 122.926773 215.313721
  endloop
 endfacet
 facet normal 0.382672 0.923884 -0.000000
  outer loop
   vertex -63.885414 122.926773 214.313721
   vertex -64.062187 122.999992 214.313721
   vertex -64.062187 122.999992 215.313721
  endloop
 endfacet
 facet normal 0.382672 0.923884 0.000000
  outer loop
   vertex -64.062187 122.999992 215.313721
   vertex -63.885414 122.926773 215.313721
   vertex -63.885414 122.926773 214.313721
  endloop
 endfacet
 facet normal 0.923883 0.382675 0.000000
  outer loop
   vertex -63.885414 122.926773 214.313721
   vertex -63.885414 122.926773 215.313721
   vertex -63.812191 122.749992 214.313721
  endloop
 endfacet
 facet normal 0.923883 0.382675 -0.000000
  outer loop
   vertex -63.812191 122.749992 214.313721
   vertex -63.885414 122.926773 215.313721
   vertex -63.812191 122.749992 215.313721
  endloop
 endfacet
 facet normal 0.923877 -0.382689 0.000000
  outer loop
   vertex -63.812191 122.749992 215.313721
   vertex -63.885414 122.573219 214.313721
   vertex -63.812191 122.749992 214.313721
  endloop
 endfacet
 facet normal 0.923877 -0.382689 -0.000000
  outer loop
   vertex -63.885414 122.573219 215.313721
   vertex -63.885414 122.573219 214.313721
   vertex -63.812191 122.749992 215.313721
  endloop
 endfacet
 facet normal 0.382706 -0.923870 0.000000
  outer loop
   vertex -64.062187 122.499992 214.313721
   vertex -63.885414 122.573219 214.313721
   vertex -63.885414 122.573219 215.313721
  endloop
 endfacet
 facet normal 0.382706 -0.923870 -0.000000
  outer loop
   vertex -63.885414 122.573219 215.313721
   vertex -64.062187 122.499992 215.313721
   vertex -64.062187 122.499992 214.313721
  endloop
 endfacet
 facet normal -0.382692 -0.923876 -0.000000
  outer loop
   vertex -64.062187 122.499992 214.313721
   vertex -64.062187 122.499992 215.313721
   vertex -64.238968 122.573219 214.313721
  endloop
 endfacet
 facet normal -0.382692 -0.923876 -0.000000
  outer loop
   vertex -64.238968 122.573219 214.313721
   vertex -64.062187 122.499992 215.313721
   vertex -64.238968 122.573219 215.313721
  endloop
 endfacet
 facet normal -0.923884 -0.382672 0.000000
  outer loop
   vertex -64.238968 122.573219 215.313721
   vertex -64.312187 122.749992 214.313721
   vertex -64.238968 122.573219 214.313721
  endloop
 endfacet
 facet normal -0.923884 -0.382672 0.000000
  outer loop
   vertex -64.312187 122.749992 215.313721
   vertex -64.312187 122.749992 214.313721
   vertex -64.238968 122.573219 215.313721
  endloop
 endfacet
 facet normal -0.923880 -0.382682 -0.000000
  outer loop
   vertex -64.769295 122.042885 216.303696
   vertex -64.769295 122.042885 217.303696
   vertex -65.062187 122.749992 216.303696
  endloop
 endfacet
 facet normal -0.923880 -0.382682 -0.000000
  outer loop
   vertex -65.062187 122.749992 216.303696
   vertex -64.769295 122.042885 217.303696
   vertex -65.062187 122.749992 217.303696
  endloop
 endfacet
 facet normal -0.923880 0.382682 0.000000
  outer loop
   vertex -65.062187 122.749992 217.303696
   vertex -64.769295 123.457100 216.303696
   vertex -65.062187 122.749992 216.303696
  endloop
 endfacet
 facet normal -0.923880 0.382682 -0.000000
  outer loop
   vertex -64.769295 123.457100 217.303696
   vertex -64.769295 123.457100 216.303696
   vertex -65.062187 122.749992 217.303696
  endloop
 endfacet
 facet normal -0.382682 0.923880 0.000000
  outer loop
   vertex -64.062187 123.749992 216.303696
   vertex -64.769295 123.457100 216.303696
   vertex -64.769295 123.457100 217.303696
  endloop
 endfacet
 facet normal -0.382682 0.923880 -0.000000
  outer loop
   vertex -64.769295 123.457100 217.303696
   vertex -64.062187 123.749992 217.303696
   vertex -64.062187 123.749992 216.303696
  endloop
 endfacet
 facet normal 0.382684 0.923879 0.000000
  outer loop
   vertex -64.062187 123.749992 216.303696
   vertex -64.062187 123.749992 217.303696
   vertex -63.355083 123.457100 216.303696
  endloop
 endfacet
 facet normal 0.382684 0.923879 -0.000000
  outer loop
   vertex -63.355083 123.457100 216.303696
   vertex -64.062187 123.749992 217.303696
   vertex -63.355083 123.457100 217.303696
  endloop
 endfacet
 facet normal 0.923880 0.382682 0.000000
  outer loop
   vertex -63.355083 123.457100 217.303696
   vertex -63.062191 122.749992 216.303696
   vertex -63.355083 123.457100 216.303696
  endloop
 endfacet
 facet normal 0.923880 0.382682 -0.000000
  outer loop
   vertex -63.062191 122.749992 217.303696
   vertex -63.062191 122.749992 216.303696
   vertex -63.355083 123.457100 217.303696
  endloop
 endfacet
 facet normal 0.923880 -0.382682 0.000000
  outer loop
   vertex -63.355083 122.042885 216.303696
   vertex -63.062191 122.749992 216.303696
   vertex -63.062191 122.749992 217.303696
  endloop
 endfacet
 facet normal 0.923880 -0.382682 -0.000000
  outer loop
   vertex -63.062191 122.749992 217.303696
   vertex -63.355083 122.042885 217.303696
   vertex -63.355083 122.042885 216.303696
  endloop
 endfacet
 facet normal 0.382684 -0.923879 0.000000
  outer loop
   vertex -63.355083 122.042885 216.303696
   vertex -63.355083 122.042885 217.303696
   vertex -64.062187 121.749992 216.303696
  endloop
 endfacet
 facet normal 0.382684 -0.923879 -0.000000
  outer loop
   vertex -64.062187 121.749992 216.303696
   vertex -63.355083 122.042885 217.303696
   vertex -64.062187 121.749992 217.303696
  endloop
 endfacet
 facet normal -0.382682 -0.923880 0.000000
  outer loop
   vertex -64.062187 121.749992 217.303696
   vertex -64.769295 122.042885 216.303696
   vertex -64.062187 121.749992 216.303696
  endloop
 endfacet
 facet normal -0.382682 -0.923880 0.000000
  outer loop
   vertex -64.769295 122.042885 217.303696
   vertex -64.769295 122.042885 216.303696
   vertex -64.062187 121.749992 217.303696
  endloop
 endfacet
endsolid