solid stl file generated from DOUG
 facet normal 0.804583 0.222456 -0.550599
  outer loop
   vertex -71.034454 166.058807 193.787338
   vertex -71.115326 166.099854 193.685745
   vertex -71.115318 177.909088 198.456985
  endloop
 endfacet
 facet normal -0.000000 0.374607 -0.927184
  outer loop
   vertex -71.115318 177.909088 198.456985
   vertex -71.115326 166.099854 193.685745
   vertex -71.218079 177.909088 198.456985
  endloop
 endfacet
 facet normal -0.804620 0.222438 -0.550552
  outer loop
   vertex -69.929916 177.868042 198.558594
   vertex -69.849045 177.909088 198.456985
   vertex -69.849052 166.099854 193.685745
  endloop
 endfacet
 facet normal -0.000000 0.374607 -0.927184
  outer loop
   vertex -69.849052 166.099854 193.685745
   vertex -69.849045 177.909088 198.456985
   vertex -69.746292 177.909088 198.456985
  endloop
 endfacet
 facet normal 0.000000 0.374607 -0.927184
  outer loop
   vertex -69.746292 177.909088 198.456985
   vertex -69.746292 166.099854 193.685745
   vertex -69.849052 166.099854 193.685745
  endloop
 endfacet
 facet normal 0.358493 0.349707 -0.865556
  outer loop
   vertex -69.746292 177.634598 199.136353
   vertex -69.746292 165.825363 194.365112
   vertex -69.777718 177.639130 199.125168
  endloop
 endfacet
 facet normal 0.358859 0.349656 -0.865425
  outer loop
   vertex -69.777718 177.639130 199.125168
   vertex -69.746292 165.825363 194.365112
   vertex -69.777718 165.829895 194.353912
  endloop
 endfacet
 facet normal 1.000000 0.000000 -0.000000
  outer loop
   vertex -69.777718 165.829895 194.353912
   vertex -69.777718 166.045349 193.820648
   vertex -69.777718 177.639130 199.125168
  endloop
 endfacet
 facet normal 0.804647 0.222425 -0.550519
  outer loop
   vertex -71.115318 177.909088 198.456985
   vertex -71.034454 177.868042 198.558594
   vertex -71.034454 166.058807 193.787338
  endloop
 endfacet
 facet normal -0.000000 0.374608 -0.927183
  outer loop
   vertex -71.034454 166.058807 193.787338
   vertex -71.034454 177.868042 198.558594
   vertex -69.929916 177.868042 198.558594
  endloop
 endfacet
 facet normal 0.000000 0.374608 -0.927183
  outer loop
   vertex -69.929916 177.868042 198.558594
   vertex -69.929916 166.058807 193.787338
   vertex -71.034454 166.058807 193.787338
  endloop
 endfacet
 facet normal -0.804610 0.222443 -0.550565
  outer loop
   vertex -69.849052 166.099854 193.685745
   vertex -69.929916 166.058807 193.787338
   vertex -69.929916 177.868042 198.558594
  endloop
 endfacet
 facet normal 1.000000 0.000000 0.000000
  outer loop
   vertex -69.746292 166.099854 193.685745
   vertex -69.746292 177.909088 198.456985
   vertex -69.746292 166.049866 193.809448
  endloop
 endfacet
 facet normal 1.000000 0.000000 -0.000000
  outer loop
   vertex -69.746292 166.049866 193.809448
   vertex -69.746292 177.909088 198.456985
   vertex -69.746292 177.859100 198.580688
  endloop
 endfacet
 facet normal 0.358711 -0.349676 0.865479
  outer loop
   vertex -69.746292 177.859100 198.580688
   vertex -69.777718 166.045349 193.820648
   vertex -69.746292 166.049866 193.809448
  endloop
 endfacet
 facet normal 0.358711 -0.349676 0.865479
  outer loop
   vertex -69.777718 177.854584 198.591888
   vertex -69.777718 166.045349 193.820648
   vertex -69.746292 177.859100 198.580688
  endloop
 endfacet
 facet normal 1.000000 0.000000 0.000000
  outer loop
   vertex -69.777718 177.639130 199.125168
   vertex -69.777718 166.045349 193.820648
   vertex -69.777718 177.854584 198.591888
  endloop
 endfacet
 facet normal 0.000000 0.927187 0.374600
  outer loop
   vertex -71.235115 178.241470 198.571106
   vertex -69.729248 177.926620 199.350403
   vertex -69.729248 178.241470 198.571106
  endloop
 endfacet
 facet normal 1.000000 -0.000000 0.000000
  outer loop
   vertex -69.729248 178.241470 198.571106
   vertex -69.729248 177.926620 199.350403
   vertex -69.729248 177.314301 198.196503
  endloop
 endfacet
 facet normal 0.000000 0.374609 -0.927183
  outer loop
   vertex -69.729248 177.314301 198.196503
   vertex -71.235115 177.314301 198.196503
   vertex -69.729248 178.241470 198.571106
  endloop
 endfacet
 facet normal 0.000000 -0.927180 -0.374616
  outer loop
   vertex -69.729248 176.999435 198.975800
   vertex -71.235115 177.314301 198.196503
   vertex -69.729248 177.314301 198.196503
  endloop
 endfacet
 facet normal 0.000000 -0.927180 -0.374616
  outer loop
   vertex -71.235115 176.999435 198.975800
   vertex -71.235115 177.314301 198.196503
   vertex -69.729248 176.999435 198.975800
  endloop
 endfacet
 facet normal -0.000000 -0.374603 0.927185
  outer loop
   vertex -69.729248 176.999435 198.975800
   vertex -69.729248 177.926620 199.350403
   vertex -71.235115 176.999435 198.975800
  endloop
 endfacet
 facet normal 0.000000 -0.374603 0.927185
  outer loop
   vertex -71.235115 176.999435 198.975800
   vertex -69.729248 177.926620 199.350403
   vertex -71.235115 177.926620 199.350403
  endloop
 endfacet
 facet normal 0.000000 0.927187 0.374600
  outer loop
   vertex -71.235115 177.926620 199.350403
   vertex -69.729248 177.926620 199.350403
   vertex -71.235115 178.241470 198.571106
  endloop
 endfacet
 facet normal -1.000000 0.000000 0.000000
  outer loop
   vertex -71.235115 178.241470 198.571106
   vertex -71.235115 177.314301 198.196503
   vertex -71.235115 177.926620 199.350403
  endloop
 endfacet
 facet normal -0.000000 0.374609 -0.927183
  outer loop
   vertex -69.729248 178.241470 198.571106
   vertex -71.235115 177.314301 198.196503
   vertex -71.235115 178.241470 198.571106
  endloop
 endfacet
 facet normal -0.000000 0.927180 0.374616
  outer loop
   vertex -69.729256 166.708664 193.911545
   vertex -71.235123 166.708664 193.911545
   vertex -69.729256 166.393799 194.690842
  endloop
 endfacet
 facet normal -0.000000 0.927180 0.374616
  outer loop
   vertex -69.729256 166.393799 194.690842
   vertex -71.235123 166.708664 193.911545
   vertex -71.235123 166.393799 194.690842
  endloop
 endfacet
 facet normal 0.000000 -0.374603 0.927185
  outer loop
   vertex -71.235123 166.393799 194.690842
   vertex -71.235123 165.466614 194.316238
   vertex -69.729256 166.393799 194.690842
  endloop
 endfacet
 facet normal -1.000000 0.000000 -0.000000
  outer loop
   vertex -71.235123 166.708664 193.911545
   vertex -71.235123 165.466614 194.316238
   vertex -71.235123 166.393799 194.690842
  endloop
 endfacet
 facet normal -1.000000 0.000000 0.000000
  outer loop
   vertex -71.235123 165.781479 193.536942
   vertex -71.235123 165.466614 194.316238
   vertex -71.235123 166.708664 193.911545
  endloop
 endfacet
 facet normal -0.000000 0.374603 -0.927185
  outer loop
   vertex -71.235123 166.708664 193.911545
   vertex -69.729256 165.781479 193.536942
   vertex -71.235123 165.781479 193.536942
  endloop
 endfacet
 facet normal -0.000000 -0.927180 -0.374616
  outer loop
   vertex -71.235123 165.781479 193.536942
   vertex -69.729256 165.781479 193.536942
   vertex -71.235123 165.466614 194.316238
  endloop
 endfacet
 facet normal -0.000000 -0.927180 -0.374616
  outer loop
   vertex -71.235123 165.466614 194.316238
   vertex -69.729256 165.781479 193.536942
   vertex -69.729256 165.466614 194.316238
  endloop
 endfacet
 facet normal 0.000000 -0.374603 0.927185
  outer loop
   vertex -69.729256 165.466614 194.316238
   vertex -69.729256 166.393799 194.690842
   vertex -71.235123 165.466614 194.316238
  endloop
 endfacet
 facet normal 1.000000 -0.000000 -0.000000
  outer loop
   vertex -69.729256 165.781479 193.536942
   vertex -69.729256 166.393799 194.690842
   vertex -69.729256 165.466614 194.316238
  endloop
 endfacet
 facet normal 1.000000 0.000000 0.000000
  outer loop
   vertex -69.729256 166.708664 193.911545
   vertex -69.729256 166.393799 194.690842
   vertex -69.729256 165.781479 193.536942
  endloop
 endfacet
 facet normal -0.000000 0.374603 -0.927185
  outer loop
   vertex -69.729256 165.781479 193.536942
   vertex -71.235123 166.708664 193.911545
   vertex -69.729256 166.708664 193.911545
  endloop
 endfacet
 facet normal 0.000000 0.374607 -0.927184
  outer loop
   vertex -71.115326 166.099854 193.685745
   vertex -71.218079 166.099854 193.685745
   vertex -71.218079 177.909088 198.456985
  endloop
 endfacet
 facet normal -1.000000 -0.000000 0.000000
  outer loop
   vertex -71.218079 177.909088 198.456985
   vertex -71.218079 166.099854 193.685745
   vertex -71.218079 166.049866 193.809448
  endloop
 endfacet
 facet normal -1.000000 0.000000 -0.000000
  outer loop
   vertex -71.218079 166.049866 193.809448
   vertex -71.218079 177.859100 198.580688
   vertex -71.218079 177.909088 198.456985
  endloop
 endfacet
 facet normal -0.358711 -0.349676 0.865479
  outer loop
   vertex -71.186653 166.045349 193.820648
   vertex -71.218079 177.859100 198.580688
   vertex -71.218079 166.049866 193.809448
  endloop
 endfacet
 facet normal -0.358711 -0.349676 0.865479
  outer loop
   vertex -71.186653 177.854584 198.591888
   vertex -71.218079 177.859100 198.580688
   vertex -71.186653 166.045349 193.820648
  endloop
 endfacet
 facet normal -1.000000 0.000000 -0.000000
  outer loop
   vertex -71.186653 166.045349 193.820648
   vertex -71.186653 165.829895 194.353912
   vertex -71.186653 177.854584 198.591888
  endloop
 endfacet
 facet normal -1.000000 0.000000 0.000000
  outer loop
   vertex -71.186653 177.854584 198.591888
   vertex -71.186653 165.829895 194.353912
   vertex -71.186653 177.639130 199.125168
  endloop
 endfacet
 facet normal -0.358859 0.349656 -0.865425
  outer loop
   vertex -71.186653 177.639130 199.125168
   vertex -71.186653 165.829895 194.353912
   vertex -71.218079 165.825363 194.365112
  endloop
 endfacet
 facet normal -0.358493 0.349707 -0.865556
  outer loop
   vertex -71.218079 165.825363 194.365112
   vertex -71.218079 177.634598 199.136353
   vertex -71.186653 177.639130 199.125168
  endloop
 endfacet
 facet normal -1.000000 -0.000000 -0.000000
  outer loop
   vertex -71.218079 165.800568 194.426498
   vertex -71.218079 177.634598 199.136353
   vertex -71.218079 165.825363 194.365112
  endloop
 endfacet
 facet normal -1.000000 -0.000000 0.000000
  outer loop
   vertex -71.218079 177.609802 199.197739
   vertex -71.218079 177.634598 199.136353
   vertex -71.218079 165.800568 194.426498
  endloop
 endfacet
 facet normal -0.000000 -0.374607 0.927184
  outer loop
   vertex -71.218079 165.800568 194.426498
   vertex -69.746292 165.800568 194.426498
   vertex -71.218079 177.609802 199.197739
  endloop
 endfacet
 facet normal 0.000000 -0.374607 0.927184
  outer loop
   vertex -71.218079 177.609802 199.197739
   vertex -69.746292 165.800568 194.426498
   vertex -69.746292 177.609802 199.197739
  endloop
 endfacet
 facet normal 1.000000 -0.000000 -0.000000
  outer loop
   vertex -69.746292 177.609802 199.197739
   vertex -69.746292 165.800568 194.426498
   vertex -69.746292 177.634598 199.136353
  endloop
 endfacet
 facet normal 1.000000 0.000000 -0.000000
  outer loop
   vertex -69.729248 176.999435 198.975800
   vertex -69.729248 177.314301 198.196503
   vertex -69.729248 177.926620 199.350403
  endloop
 endfacet
 facet normal -1.000000 0.000000 0.000000
  outer loop
   vertex -71.235115 177.314301 198.196503
   vertex -71.235115 176.999435 198.975800
   vertex -71.235115 177.926620 199.350403
  endloop
 endfacet
 facet normal 1.000000 0.000000 -0.000000
  outer loop
   vertex -69.746292 165.800568 194.426498
   vertex -69.746292 165.825363 194.365112
   vertex -69.746292 177.634598 199.136353
  endloop
 endfacet
 facet normal -0.382674 -0.856604 -0.346107
  outer loop
   vertex -70.482185 164.275421 195.927902
   vertex -70.482185 163.900803 196.855072
   vertex -71.189293 164.546982 196.037613
  endloop
 endfacet
 facet normal -0.382696 -0.856603 -0.346086
  outer loop
   vertex -71.189293 164.546982 196.037613
   vertex -70.482185 163.900803 196.855072
   vertex -71.189293 164.172379 196.964798
  endloop
 endfacet
 facet normal -0.923879 -0.354820 -0.143355
  outer loop
   vertex -71.189293 164.172379 196.964798
   vertex -71.482185 165.202591 196.302505
   vertex -71.189293 164.546982 196.037613
  endloop
 endfacet
 facet normal -0.923879 -0.354820 -0.143355
  outer loop
   vertex -71.482185 164.827988 197.229691
   vertex -71.482185 165.202591 196.302505
   vertex -71.189293 164.172379 196.964798
  endloop
 endfacet
 facet normal -0.923880 0.354817 0.143354
  outer loop
   vertex -71.189293 165.858215 196.567383
   vertex -71.482185 165.202591 196.302505
   vertex -71.482185 164.827988 197.229691
  endloop
 endfacet
 facet normal -0.923880 0.354817 0.143354
  outer loop
   vertex -71.482185 164.827988 197.229691
   vertex -71.189293 165.483612 197.494568
   vertex -71.189293 165.858215 196.567383
  endloop
 endfacet
 facet normal -0.382680 0.856609 0.346089
  outer loop
   vertex -71.189293 165.858215 196.567383
   vertex -71.189293 165.483612 197.494568
   vertex -70.482185 166.129776 196.677109
  endloop
 endfacet
 facet normal -0.382680 0.856609 0.346089
  outer loop
   vertex -70.482185 166.129776 196.677109
   vertex -71.189293 165.483612 197.494568
   vertex -70.482185 165.755173 197.604294
  endloop
 endfacet
 facet normal 0.382680 0.856609 0.346089
  outer loop
   vertex -70.482185 165.755173 197.604294
   vertex -69.775078 165.858215 196.567383
   vertex -70.482185 166.129776 196.677109
  endloop
 endfacet
 facet normal 0.382680 0.856609 0.346089
  outer loop
   vertex -69.775078 165.483612 197.494568
   vertex -69.775078 165.858215 196.567383
   vertex -70.482185 165.755173 197.604294
  endloop
 endfacet
 facet normal 0.923880 0.354817 0.143354
  outer loop
   vertex -69.482185 165.202591 196.302505
   vertex -69.775078 165.858215 196.567383
   vertex -69.775078 165.483612 197.494568
  endloop
 endfacet
 facet normal 0.923880 0.354817 0.143354
  outer loop
   vertex -69.775078 165.483612 197.494568
   vertex -69.482185 164.827988 197.229691
   vertex -69.482185 165.202591 196.302505
  endloop
 endfacet
 facet normal 0.923879 -0.354820 -0.143355
  outer loop
   vertex -69.482185 165.202591 196.302505
   vertex -69.482185 164.827988 197.229691
   vertex -69.775078 164.546982 196.037613
  endloop
 endfacet
 facet normal 0.923879 -0.354820 -0.143355
  outer loop
   vertex -69.775078 164.546982 196.037613
   vertex -69.482185 164.827988 197.229691
   vertex -69.775078 164.172379 196.964798
  endloop
 endfacet
 facet normal 0.382674 -0.856611 -0.346090
  outer loop
   vertex -69.775078 164.172379 196.964798
   vertex -70.482185 164.275421 195.927902
   vertex -69.775078 164.546982 196.037613
  endloop
 endfacet
 facet normal 0.382696 -0.856596 -0.346103
  outer loop
   vertex -70.482185 163.900803 196.855072
   vertex -70.482185 164.275421 195.927902
   vertex -69.775078 164.172379 196.964798
  endloop
 endfacet
 facet normal -0.314556 -0.490748 -0.812540
  outer loop
   vertex -70.482185 165.345413 195.281662
   vertex -70.482185 164.275421 195.927902
   vertex -70.658966 165.413300 195.309097
  endloop
 endfacet
 facet normal -0.314539 -0.490748 -0.812546
  outer loop
   vertex -70.658966 165.413300 195.309097
   vertex -70.482185 164.275421 195.927902
   vertex -71.189293 164.546982 196.037613
  endloop
 endfacet
 facet normal -0.759404 -0.078275 -0.645893
  outer loop
   vertex -71.189293 164.546982 196.037613
   vertex -70.732185 165.577209 195.375320
   vertex -70.658966 165.413300 195.309097
  endloop
 endfacet
 facet normal -0.759394 -0.078287 -0.645904
  outer loop
   vertex -71.482185 165.202591 196.302505
   vertex -70.732185 165.577209 195.375320
   vertex -71.189293 164.546982 196.037613
  endloop
 endfacet
 facet normal -0.759392 0.505012 -0.410228
  outer loop
   vertex -70.658966 165.741104 195.441544
   vertex -70.732185 165.577209 195.375320
   vertex -71.482185 165.202591 196.302505
  endloop
 endfacet
 facet normal -0.759396 0.504993 -0.410244
  outer loop
   vertex -71.482185 165.202591 196.302505
   vertex -71.189293 165.858215 196.567383
   vertex -70.658966 165.741104 195.441544
  endloop
 endfacet
 facet normal -0.314597 0.917429 -0.243623
  outer loop
   vertex -70.658966 165.741104 195.441544
   vertex -71.189293 165.858215 196.567383
   vertex -70.482185 165.809006 195.468964
  endloop
 endfacet
 facet normal -0.314544 0.917456 -0.243590
  outer loop
   vertex -70.482185 165.809006 195.468964
   vertex -71.189293 165.858215 196.567383
   vertex -70.482185 166.129776 196.677109
  endloop
 endfacet
 facet normal 0.314618 0.917432 -0.243584
  outer loop
   vertex -70.482185 166.129776 196.677109
   vertex -70.305412 165.741104 195.441544
   vertex -70.482185 165.809006 195.468964
  endloop
 endfacet
 facet normal 0.314542 0.917454 -0.243602
  outer loop
   vertex -69.775078 165.858215 196.567383
   vertex -70.305412 165.741104 195.441544
   vertex -70.482185 166.129776 196.677109
  endloop
 endfacet
 facet normal 0.759366 0.505041 -0.410240
  outer loop
   vertex -70.232185 165.577209 195.375320
   vertex -70.305412 165.741104 195.441544
   vertex -69.775078 165.858215 196.567383
  endloop
 endfacet
 facet normal 0.759398 0.504992 -0.410241
  outer loop
   vertex -69.775078 165.858215 196.567383
   vertex -69.482185 165.202591 196.302505
   vertex -70.232185 165.577209 195.375320
  endloop
 endfacet
 facet normal 0.759391 -0.078298 -0.645907
  outer loop
   vertex -70.232185 165.577209 195.375320
   vertex -69.482185 165.202591 196.302505
   vertex -70.305412 165.413300 195.309097
  endloop
 endfacet
 facet normal 0.759393 -0.078286 -0.645906
  outer loop
   vertex -70.305412 165.413300 195.309097
   vertex -69.482185 165.202591 196.302505
   vertex -69.775078 164.546982 196.037613
  endloop
 endfacet
 facet normal 0.314564 -0.490731 -0.812547
  outer loop
   vertex -69.775078 164.546982 196.037613
   vertex -70.482185 165.345413 195.281662
   vertex -70.305412 165.413300 195.309097
  endloop
 endfacet
 facet normal 0.314540 -0.490750 -0.812545
  outer loop
   vertex -70.482185 164.275421 195.927902
   vertex -70.482185 165.345413 195.281662
   vertex -69.775078 164.546982 196.037613
  endloop
 endfacet
 facet normal 0.382638 0.856620 0.346107
  outer loop
   vertex -70.305405 177.271515 200.110962
   vertex -70.482185 177.714020 199.211197
   vertex -70.482185 177.339401 200.138382
  endloop
 endfacet
 facet normal -0.382716 0.856590 0.346095
  outer loop
   vertex -70.482185 177.339401 200.138382
   vertex -70.482185 177.714020 199.211197
   vertex -70.658958 177.646118 199.183777
  endloop
 endfacet
 facet normal -0.382652 0.856619 0.346093
  outer loop
   vertex -70.658958 177.646118 199.183777
   vertex -70.658958 177.271515 200.110962
   vertex -70.482185 177.339401 200.138382
  endloop
 endfacet
 facet normal -0.923866 0.354848 0.143366
  outer loop
   vertex -70.732185 177.482224 199.117554
   vertex -70.658958 177.271515 200.110962
   vertex -70.658958 177.646118 199.183777
  endloop
 endfacet
 facet normal -0.923877 0.354822 0.143362
  outer loop
   vertex -70.732185 177.107605 200.044739
   vertex -70.658958 177.271515 200.110962
   vertex -70.732185 177.482224 199.117554
  endloop
 endfacet
 facet normal -0.923877 -0.354822 -0.143362
  outer loop
   vertex -70.732185 177.482224 199.117554
   vertex -70.658958 177.318314 199.051331
   vertex -70.732185 177.107605 200.044739
  endloop
 endfacet
 facet normal -0.923866 -0.354848 -0.143366
  outer loop
   vertex -70.732185 177.107605 200.044739
   vertex -70.658958 177.318314 199.051331
   vertex -70.658958 176.943710 199.978516
  endloop
 endfacet
 facet normal -0.382678 -0.856610 -0.346089
  outer loop
   vertex -70.658958 176.943710 199.978516
   vertex -70.658958 177.318314 199.051331
   vertex -70.482185 177.250427 199.023895
  endloop
 endfacet
 facet normal -0.382741 -0.856580 -0.346092
  outer loop
   vertex -70.482185 177.250427 199.023895
   vertex -70.482185 176.875809 199.951080
   vertex -70.658958 176.943710 199.978516
  endloop
 endfacet
 facet normal 0.382664 -0.856610 -0.346103
  outer loop
   vertex -70.305405 177.318314 199.051331
   vertex -70.482185 176.875809 199.951080
   vertex -70.482185 177.250427 199.023895
  endloop
 endfacet
 facet normal 0.382727 -0.856591 -0.346082
  outer loop
   vertex -70.305405 176.943710 199.978516
   vertex -70.482185 176.875809 199.951080
   vertex -70.305405 177.318314 199.051331
  endloop
 endfacet
 facet normal 0.923891 -0.354792 -0.143344
  outer loop
   vertex -70.305405 177.318314 199.051331
   vertex -70.232185 177.482224 199.117554
   vertex -70.305405 176.943710 199.978516
  endloop
 endfacet
 facet normal 0.923880 -0.354815 -0.143359
  outer loop
   vertex -70.305405 176.943710 199.978516
   vertex -70.232185 177.482224 199.117554
   vertex -70.232185 177.107605 200.044739
  endloop
 endfacet
 facet normal 0.923880 0.354815 0.143359
  outer loop
   vertex -70.232185 177.107605 200.044739
   vertex -70.232185 177.482224 199.117554
   vertex -70.305405 177.646118 199.183777
  endloop
 endfacet
 facet normal 0.923891 0.354792 0.143344
  outer loop
   vertex -70.305405 177.646118 199.183777
   vertex -70.305405 177.271515 200.110962
   vertex -70.232185 177.107605 200.044739
  endloop
 endfacet
 facet normal 0.382701 0.856600 0.346086
  outer loop
   vertex -70.482185 177.714020 199.211197
   vertex -70.305405 177.271515 200.110962
   vertex -70.305405 177.646118 199.183777
  endloop
 endfacet
 facet normal 0.382680 0.856609 0.346089
  outer loop
   vertex -69.775078 177.017776 202.154678
   vertex -70.482185 177.663940 201.337219
   vertex -70.482185 177.289337 202.264404
  endloop
 endfacet
 facet normal -0.382680 0.856609 0.346089
  outer loop
   vertex -70.482185 177.289337 202.264404
   vertex -70.482185 177.663940 201.337219
   vertex -71.189293 177.392380 201.227493
  endloop
 endfacet
 facet normal -0.382680 0.856609 0.346089
  outer loop
   vertex -71.189293 177.392380 201.227493
   vertex -71.189293 177.017776 202.154678
   vertex -70.482185 177.289337 202.264404
  endloop
 endfacet
 facet normal -0.923878 0.354823 0.143356
  outer loop
   vertex -71.482185 176.736771 200.962616
   vertex -71.189293 177.017776 202.154678
   vertex -71.189293 177.392380 201.227493
  endloop
 endfacet
 facet normal -0.923880 0.354815 0.143359
  outer loop
   vertex -71.482185 176.362152 201.889801
   vertex -71.189293 177.017776 202.154678
   vertex -71.482185 176.736771 200.962616
  endloop
 endfacet
 facet normal -0.923881 -0.354812 -0.143358
  outer loop
   vertex -71.482185 176.736771 200.962616
   vertex -71.189293 176.081146 200.697723
   vertex -71.482185 176.362152 201.889801
  endloop
 endfacet
 facet normal -0.923879 -0.354820 -0.143355
  outer loop
   vertex -71.482185 176.362152 201.889801
   vertex -71.189293 176.081146 200.697723
   vertex -71.189293 175.706543 201.624908
  endloop
 endfacet
 facet normal -0.382680 -0.856609 -0.346089
  outer loop
   vertex -71.189293 175.706543 201.624908
   vertex -71.189293 176.081146 200.697723
   vertex -70.482185 175.809586 200.587997
  endloop
 endfacet
 facet normal -0.382696 -0.856598 -0.346098
  outer loop
   vertex -70.482185 175.809586 200.587997
   vertex -70.482185 175.434967 201.515182
   vertex -71.189293 175.706543 201.624908
  endloop
 endfacet
 facet normal 0.382680 -0.856604 -0.346101
  outer loop
   vertex -69.775078 176.081146 200.697723
   vertex -70.482185 175.434967 201.515182
   vertex -70.482185 175.809586 200.587997
  endloop
 endfacet
 facet normal 0.382696 -0.856603 -0.346086
  outer loop
   vertex -69.775078 175.706543 201.624908
   vertex -70.482185 175.434967 201.515182
   vertex -69.775078 176.081146 200.697723
  endloop
 endfacet
 facet normal 0.923879 -0.354820 -0.143355
  outer loop
   vertex -69.775078 176.081146 200.697723
   vertex -69.482185 176.736755 200.962616
   vertex -69.775078 175.706543 201.624908
  endloop
 endfacet
 facet normal 0.923879 -0.354820 -0.143355
  outer loop
   vertex -69.775078 175.706543 201.624908
   vertex -69.482185 176.736755 200.962616
   vertex -69.482185 176.362152 201.889801
  endloop
 endfacet
 facet normal 0.923880 0.354817 0.143354
  outer loop
   vertex -69.482185 176.362152 201.889801
   vertex -69.482185 176.736755 200.962616
   vertex -69.775078 177.392380 201.227493
  endloop
 endfacet
 facet normal 0.923880 0.354817 0.143354
  outer loop
   vertex -69.775078 177.392380 201.227493
   vertex -69.775078 177.017776 202.154678
   vertex -69.482185 176.362152 201.889801
  endloop
 endfacet
 facet normal 0.382680 0.856609 0.346089
  outer loop
   vertex -70.482185 177.663940 201.337219
   vertex -69.775078 177.017776 202.154678
   vertex -69.775078 177.392380 201.227493
  endloop
 endfacet
 facet normal 0.314544 0.917456 -0.243590
  outer loop
   vertex -69.775078 177.392380 201.227493
   vertex -70.482185 177.343170 200.129074
   vertex -70.482185 177.663940 201.337219
  endloop
 endfacet
 facet normal -0.314618 0.917432 -0.243584
  outer loop
   vertex -70.482185 177.663940 201.337219
   vertex -70.482185 177.343170 200.129074
   vertex -70.658958 177.275269 200.101654
  endloop
 endfacet
 facet normal -0.314542 0.917454 -0.243602
  outer loop
   vertex -70.658958 177.275269 200.101654
   vertex -71.189293 177.392380 201.227493
   vertex -70.482185 177.663940 201.337219
  endloop
 endfacet
 facet normal -0.759366 0.505041 -0.410240
  outer loop
   vertex -70.732185 177.111374 200.035431
   vertex -71.189293 177.392380 201.227493
   vertex -70.658958 177.275269 200.101654
  endloop
 endfacet
 facet normal -0.759392 0.505001 -0.410240
  outer loop
   vertex -71.482185 176.736771 200.962616
   vertex -71.189293 177.392380 201.227493
   vertex -70.732185 177.111374 200.035431
  endloop
 endfacet
 facet normal -0.759391 -0.078299 -0.645906
  outer loop
   vertex -70.732185 177.111374 200.035431
   vertex -70.658958 176.947464 199.969208
   vertex -71.482185 176.736771 200.962616
  endloop
 endfacet
 facet normal -0.759393 -0.078284 -0.645905
  outer loop
   vertex -71.482185 176.736771 200.962616
   vertex -70.658958 176.947464 199.969208
   vertex -71.189293 176.081146 200.697723
  endloop
 endfacet
 facet normal -0.314564 -0.490731 -0.812547
  outer loop
   vertex -71.189293 176.081146 200.697723
   vertex -70.658958 176.947464 199.969208
   vertex -70.482185 176.879578 199.941772
  endloop
 endfacet
 facet normal -0.314553 -0.490740 -0.812546
  outer loop
   vertex -70.482185 176.879578 199.941772
   vertex -70.482185 175.809586 200.587997
   vertex -71.189293 176.081146 200.697723
  endloop
 endfacet
 facet normal 0.314553 -0.490740 -0.812546
  outer loop
   vertex -70.305405 176.947464 199.969208
   vertex -70.482185 175.809586 200.587997
   vertex -70.482185 176.879578 199.941772
  endloop
 endfacet
 facet normal 0.314553 -0.490740 -0.812546
  outer loop
   vertex -69.775078 176.081146 200.697723
   vertex -70.482185 175.809586 200.587997
   vertex -70.305405 176.947464 199.969208
  endloop
 endfacet
 facet normal 0.759404 -0.078275 -0.645893
  outer loop
   vertex -70.305405 176.947464 199.969208
   vertex -70.232185 177.111374 200.035431
   vertex -69.775078 176.081146 200.697723
  endloop
 endfacet
 facet normal 0.759394 -0.078287 -0.645904
  outer loop
   vertex -69.775078 176.081146 200.697723
   vertex -70.232185 177.111374 200.035431
   vertex -69.482185 176.736755 200.962616
  endloop
 endfacet
 facet normal 0.759392 0.505012 -0.410228
  outer loop
   vertex -69.482185 176.736755 200.962616
   vertex -70.232185 177.111374 200.035431
   vertex -70.305405 177.275269 200.101654
  endloop
 endfacet
 facet normal 0.759396 0.504993 -0.410244
  outer loop
   vertex -70.305405 177.275269 200.101654
   vertex -69.775078 177.392380 201.227493
   vertex -69.482185 176.736755 200.962616
  endloop
 endfacet
 facet normal 0.314597 0.917429 -0.243623
  outer loop
   vertex -70.482185 177.343170 200.129074
   vertex -69.775078 177.392380 201.227493
   vertex -70.305405 177.275269 200.101654
  endloop
 endfacet
 facet normal 0.382741 -0.856585 -0.346079
  outer loop
   vertex -70.305412 165.784149 194.391220
   vertex -70.305412 165.409546 195.318405
   vertex -70.482185 165.716248 194.363785
  endloop
 endfacet
 facet normal 0.382741 -0.856585 -0.346079
  outer loop
   vertex -70.482185 165.716248 194.363785
   vertex -70.305412 165.409546 195.318405
   vertex -70.482185 165.341644 195.290970
  endloop
 endfacet
 facet normal -0.382727 -0.856591 -0.346082
  outer loop
   vertex -70.482185 165.341644 195.290970
   vertex -70.658966 165.784149 194.391220
   vertex -70.482185 165.716248 194.363785
  endloop
 endfacet
 facet normal -0.382727 -0.856591 -0.346082
  outer loop
   vertex -70.658966 165.409546 195.318405
   vertex -70.658966 165.784149 194.391220
   vertex -70.482185 165.341644 195.290970
  endloop
 endfacet
 facet normal -0.923880 -0.354817 -0.143354
  outer loop
   vertex -70.732185 165.948044 194.457443
   vertex -70.658966 165.784149 194.391220
   vertex -70.658966 165.409546 195.318405
  endloop
 endfacet
 facet normal -0.923880 -0.354817 -0.143354
  outer loop
   vertex -70.658966 165.409546 195.318405
   vertex -70.732185 165.573441 195.384628
   vertex -70.732185 165.948044 194.457443
  endloop
 endfacet
 facet normal -0.923891 0.354792 0.143344
  outer loop
   vertex -70.732185 165.948044 194.457443
   vertex -70.732185 165.573441 195.384628
   vertex -70.658966 166.111954 194.523666
  endloop
 endfacet
 facet normal -0.923891 0.354792 0.143344
  outer loop
   vertex -70.658966 166.111954 194.523666
   vertex -70.732185 165.573441 195.384628
   vertex -70.658966 165.737350 195.450851
  endloop
 endfacet
 facet normal -0.382638 0.856625 0.346095
  outer loop
   vertex -70.658966 165.737350 195.450851
   vertex -70.482185 166.179840 194.551086
   vertex -70.658966 166.111954 194.523666
  endloop
 endfacet
 facet normal -0.382638 0.856625 0.346095
  outer loop
   vertex -70.482185 165.805237 195.478271
   vertex -70.482185 166.179840 194.551086
   vertex -70.658966 165.737350 195.450851
  endloop
 endfacet
 facet normal 0.382652 0.856619 0.346093
  outer loop
   vertex -70.305412 166.111954 194.523666
   vertex -70.482185 166.179840 194.551086
   vertex -70.482185 165.805237 195.478271
  endloop
 endfacet
 facet normal 0.382652 0.856619 0.346093
  outer loop
   vertex -70.482185 165.805237 195.478271
   vertex -70.305412 165.737350 195.450851
   vertex -70.305412 166.111954 194.523666
  endloop
 endfacet
 facet normal 0.923877 0.354824 0.143357
  outer loop
   vertex -70.305412 166.111954 194.523666
   vertex -70.305412 165.737350 195.450851
   vertex -70.232185 165.948044 194.457443
  endloop
 endfacet
 facet normal 0.923877 0.354824 0.143357
  outer loop
   vertex -70.232185 165.948044 194.457443
   vertex -70.305412 165.737350 195.450851
   vertex -70.232185 165.573441 195.384628
  endloop
 endfacet
 facet normal 0.923866 -0.354848 -0.143366
  outer loop
   vertex -70.232185 165.573441 195.384628
   vertex -70.305412 165.784149 194.391220
   vertex -70.232185 165.948044 194.457443
  endloop
 endfacet
 facet normal 0.923866 -0.354848 -0.143366
  outer loop
   vertex -70.305412 165.409546 195.318405
   vertex -70.305412 165.784149 194.391220
   vertex -70.232185 165.573441 195.384628
  endloop
 endfacet
endsolid