solid stl file generated from DOUG
 facet normal 0.000001 -0.000039 1.000000
  outer loop
   vertex -439.882233 31.649498 203.595535
   vertex -439.882233 32.434456 203.595566
   vertex -449.199371 30.173796 203.595490
  endloop
 endfacet
 facet normal 0.000002 -0.000040 1.000000
  outer loop
   vertex -449.199371 30.173796 203.595490
   vertex -439.882233 32.434456 203.595566
   vertex -449.441925 30.920336 203.595520
  endloop
 endfacet
 facet normal 0.000002 -0.000040 1.000000
  outer loop
   vertex -449.441925 30.920336 203.595520
   vertex -457.604492 25.891165 203.595337
   vertex -449.199371 30.173796 203.595490
  endloop
 endfacet
 facet normal 0.000005 -0.000044 1.000000
  outer loop
   vertex -458.065887 26.526207 203.595367
   vertex -457.604492 25.891165 203.595337
   vertex -449.441925 30.920336 203.595520
  endloop
 endfacet
 facet normal 0.000006 -0.000044 1.000000
  outer loop
   vertex -463.378082 21.213993 203.595169
   vertex -457.604492 25.891165 203.595337
   vertex -458.065887 26.526207 203.595367
  endloop
 endfacet
 facet normal 0.000006 0.000028 -1.000000
  outer loop
   vertex -463.378082 21.214027 202.595169
   vertex -458.065887 26.526243 202.595352
   vertex -457.604492 25.891199 202.595337
  endloop
 endfacet
 facet normal 0.000004 0.000027 -1.000000
  outer loop
   vertex -457.604492 25.891199 202.595337
   vertex -458.065887 26.526243 202.595352
   vertex -449.441925 30.920370 202.595505
  endloop
 endfacet
 facet normal -0.000004 0.000040 -1.000000
  outer loop
   vertex -449.441925 30.920370 202.595505
   vertex -449.199371 30.173830 202.595474
   vertex -457.604492 25.891199 202.595337
  endloop
 endfacet
 facet normal 0.000000 0.000041 -1.000000
  outer loop
   vertex -439.882233 31.649532 202.595535
   vertex -449.199371 30.173830 202.595474
   vertex -449.441925 30.920370 202.595505
  endloop
 endfacet
 facet normal 0.000002 0.000033 -1.000000
  outer loop
   vertex -457.604492 25.891199 202.595337
   vertex -462.781891 20.713774 202.595154
   vertex -463.378082 21.214027 202.595169
  endloop
 endfacet
 facet normal 0.000002 0.000019 -1.000000
  outer loop
   vertex -439.882233 32.434490 202.595551
   vertex -439.882233 31.649532 202.595535
   vertex -449.441925 30.920370 202.595505
  endloop
 endfacet
 facet normal -0.000002 -0.000033 1.000000
  outer loop
   vertex -462.781891 20.713739 203.595154
   vertex -457.604492 25.891165 203.595337
   vertex -463.378082 21.213993 203.595169
  endloop
 endfacet
 facet normal -0.707108 0.707105 0.000024
  outer loop
   vertex -463.378082 21.214027 202.595169
   vertex -463.378082 21.213993 203.595169
   vertex -458.065887 26.526243 202.595352
  endloop
 endfacet
 facet normal -0.707108 0.707106 0.000026
  outer loop
   vertex -458.065887 26.526243 202.595352
   vertex -463.378082 21.213993 203.595169
   vertex -458.065887 26.526207 203.595367
  endloop
 endfacet
 facet normal -0.453990 0.891007 0.000032
  outer loop
   vertex -458.065887 26.526207 203.595367
   vertex -449.441925 30.920370 202.595505
   vertex -458.065887 26.526243 202.595352
  endloop
 endfacet
 facet normal -0.453991 0.891007 0.000031
  outer loop
   vertex -449.441925 30.920336 203.595520
   vertex -449.441925 30.920370 202.595505
   vertex -458.065887 26.526207 203.595367
  endloop
 endfacet
 facet normal -0.156436 0.987688 0.000034
  outer loop
   vertex -439.882233 32.434490 202.595551
   vertex -449.441925 30.920370 202.595505
   vertex -449.441925 30.920336 203.595520
  endloop
 endfacet
 facet normal -0.156436 0.987688 0.000034
  outer loop
   vertex -449.441925 30.920336 203.595520
   vertex -439.882233 32.434456 203.595566
   vertex -439.882233 32.434490 202.595551
  endloop
 endfacet
 facet normal 0.156436 -0.987688 -0.000034
  outer loop
   vertex -439.882233 31.649532 202.595535
   vertex -439.882233 31.649498 203.595535
   vertex -449.199371 30.173830 202.595474
  endloop
 endfacet
 facet normal 0.156436 -0.987688 -0.000034
  outer loop
   vertex -449.199371 30.173830 202.595474
   vertex -439.882233 31.649498 203.595535
   vertex -449.199371 30.173796 203.595490
  endloop
 endfacet
 facet normal 0.453991 -0.891006 -0.000031
  outer loop
   vertex -449.199371 30.173796 203.595490
   vertex -457.604492 25.891199 202.595337
   vertex -449.199371 30.173830 202.595474
  endloop
 endfacet
 facet normal 0.453991 -0.891006 -0.000031
  outer loop
   vertex -457.604492 25.891165 203.595337
   vertex -457.604492 25.891199 202.595337
   vertex -449.199371 30.173796 203.595490
  endloop
 endfacet
 facet normal 0.707109 -0.707105 -0.000024
  outer loop
   vertex -462.781891 20.713774 202.595154
   vertex -457.604492 25.891199 202.595337
   vertex -457.604492 25.891165 203.595337
  endloop
 endfacet
 facet normal 0.707109 -0.707105 -0.000024
  outer loop
   vertex -457.604492 25.891165 203.595337
   vertex -462.781891 20.713739 203.595154
   vertex -462.781891 20.713774 202.595154
  endloop
 endfacet
endsolid