solid stl file generated from DOUG
 facet normal 0.000000 0.215538 -0.976495
  outer loop
   vertex -542.882202 -59.458164 155.240143
   vertex -543.882202 -59.458164 155.240143
   vertex -543.882202 -53.599194 156.533371
  endloop
 endfacet
 facet normal -1.000000 -0.000000 0.000000
  outer loop
   vertex -543.882202 -53.599194 156.533371
   vertex -543.882202 -59.458164 155.240143
   vertex -543.882202 -59.565933 155.728394
  endloop
 endfacet
 facet normal -1.000000 0.000000 -0.000000
  outer loop
   vertex -543.882202 -59.565933 155.728394
   vertex -543.882202 -53.706963 157.021622
   vertex -543.882202 -53.599194 156.533371
  endloop
 endfacet
 facet normal 0.000001 -0.215538 0.976495
  outer loop
   vertex -542.882202 -53.706959 157.021622
   vertex -543.882202 -53.706963 157.021622
   vertex -543.882202 -59.565933 155.728394
  endloop
 endfacet
 facet normal -1.000000 0.000000 0.000000
  outer loop
   vertex -543.882202 -57.410549 145.963440
   vertex -543.882202 -57.518318 146.451691
   vertex -543.882202 -51.659351 147.744919
  endloop
 endfacet
 facet normal -0.000000 -0.215538 0.976495
  outer loop
   vertex -543.882202 -51.659351 147.744919
   vertex -543.882202 -57.518318 146.451691
   vertex -542.882202 -57.518318 146.451691
  endloop
 endfacet
 facet normal 0.000000 -0.215538 0.976495
  outer loop
   vertex -542.882202 -57.518318 146.451691
   vertex -542.882202 -51.659351 147.744919
   vertex -543.882202 -51.659351 147.744919
  endloop
 endfacet
 facet normal 1.000000 -0.000000 0.000000
  outer loop
   vertex -542.882202 -51.551582 147.256668
   vertex -542.882202 -51.659351 147.744919
   vertex -542.882202 -57.518318 146.451691
  endloop
 endfacet
 facet normal 1.000000 0.000000 0.000000
  outer loop
   vertex -542.882202 -57.410549 145.963440
   vertex -542.882202 -56.434055 146.178970
   vertex -542.882202 -58.589439 155.943924
  endloop
 endfacet
 facet normal 0.000003 0.976495 0.215538
  outer loop
   vertex -542.882202 -58.589439 155.943924
   vertex -542.882202 -56.434055 146.178970
   vertex -543.882202 -56.434055 146.178986
  endloop
 endfacet
 facet normal 0.000003 0.976495 0.215538
  outer loop
   vertex -543.882202 -56.434055 146.178986
   vertex -543.882202 -58.589439 155.943939
   vertex -542.882202 -58.589439 155.943924
  endloop
 endfacet
 facet normal -1.000000 -0.000000 -0.000000
  outer loop
   vertex -543.882202 -59.565933 155.728394
   vertex -543.882202 -58.589439 155.943939
   vertex -543.882202 -56.434055 146.178986
  endloop
 endfacet
 facet normal 0.000000 0.215538 -0.976495
  outer loop
   vertex -543.882202 -51.551582 147.256668
   vertex -542.882202 -51.551582 147.256668
   vertex -543.882202 -57.410549 145.963440
  endloop
 endfacet
 facet normal -0.000000 0.215538 -0.976495
  outer loop
   vertex -543.882202 -57.410549 145.963440
   vertex -542.882202 -51.551582 147.256668
   vertex -542.882202 -57.410549 145.963440
  endloop
 endfacet
 facet normal 0.000000 -0.976495 -0.215538
  outer loop
   vertex -542.882202 -57.410549 145.963440
   vertex -543.882202 -59.565933 155.728394
   vertex -543.882202 -57.410549 145.963440
  endloop
 endfacet
 facet normal 0.000000 -0.976495 -0.215538
  outer loop
   vertex -542.882202 -59.565933 155.728394
   vertex -543.882202 -59.565933 155.728394
   vertex -542.882202 -57.410549 145.963440
  endloop
 endfacet
 facet normal 0.000000 -0.215538 0.976495
  outer loop
   vertex -542.882202 -53.706959 157.021622
   vertex -543.882202 -59.565933 155.728394
   vertex -542.882202 -59.565933 155.728394
  endloop
 endfacet
 facet normal 1.000000 -0.000000 -0.000000
  outer loop
   vertex -542.882202 -59.565933 155.728394
   vertex -542.882202 -59.458164 155.240143
   vertex -542.882202 -53.706959 157.021622
  endloop
 endfacet
 facet normal 1.000000 0.000000 0.000000
  outer loop
   vertex -542.882202 -53.706959 157.021622
   vertex -542.882202 -59.458164 155.240143
   vertex -542.882202 -53.599194 156.533371
  endloop
 endfacet
 facet normal -0.000000 0.215538 -0.976495
  outer loop
   vertex -542.882202 -53.599194 156.533371
   vertex -542.882202 -59.458164 155.240143
   vertex -543.882202 -53.599194 156.533371
  endloop
 endfacet
 facet normal 1.000000 0.000000 -0.000000
  outer loop
   vertex -542.882202 -57.518318 146.451691
   vertex -542.882202 -57.410549 145.963440
   vertex -542.882202 -51.551582 147.256668
  endloop
 endfacet
 facet normal -1.000000 -0.000000 0.000000
  outer loop
   vertex -543.882202 -51.659351 147.744919
   vertex -543.882202 -51.551582 147.256668
   vertex -543.882202 -57.410549 145.963440
  endloop
 endfacet
 facet normal 1.000000 0.000000 0.000000
  outer loop
   vertex -542.882202 -59.565933 155.728394
   vertex -542.882202 -57.410549 145.963440
   vertex -542.882202 -58.589439 155.943924
  endloop
 endfacet
 facet normal -1.000000 0.000000 0.000000
  outer loop
   vertex -543.882202 -57.410549 145.963440
   vertex -543.882202 -59.565933 155.728394
   vertex -543.882202 -56.434055 146.178986
  endloop
 endfacet
endsolid