solid stl file generated from DOUG
 facet normal -1.000000 0.000000 0.000000
  outer loop
   vertex -260.883087 49.515892 115.429428
   vertex -260.883087 34.588184 107.450394
   vertex -260.883087 34.498432 107.667076
  endloop
 endfacet
 facet normal -1.000000 -0.000000 -0.000000
  outer loop
   vertex -260.883087 34.498432 107.667076
   vertex -260.883087 34.588184 107.450394
   vertex -260.883087 17.632898 102.307068
  endloop
 endfacet
 facet normal -1.000000 0.000000 0.000000
  outer loop
   vertex -260.883087 17.632898 102.307068
   vertex -260.883087 17.587143 102.537094
   vertex -260.883087 34.498432 107.667076
  endloop
 endfacet
 facet normal -1.000000 -0.000000 -0.000000
  outer loop
   vertex -260.883087 -0.000007 100.570381
   vertex -260.883087 17.587143 102.537094
   vertex -260.883087 17.632898 102.307068
  endloop
 endfacet
 facet normal -1.000000 0.000000 0.000000
  outer loop
   vertex -260.883087 -0.000007 100.804909
   vertex -260.883087 17.587143 102.537094
   vertex -260.883087 -0.000007 100.570381
  endloop
 endfacet
 facet normal -1.000000 -0.000000 -0.000000
  outer loop
   vertex -260.883087 -0.000007 100.570381
   vertex -260.883087 -17.632912 102.307076
   vertex -260.883087 -0.000007 100.804909
  endloop
 endfacet
 facet normal -1.000000 0.000000 0.000000
  outer loop
   vertex -260.883087 -0.000007 100.804909
   vertex -260.883087 -17.632912 102.307076
   vertex -260.883087 -17.587156 102.537102
  endloop
 endfacet
 facet normal -1.000000 -0.000000 0.000000
  outer loop
   vertex -260.883087 -17.587156 102.537102
   vertex -260.883087 -17.632912 102.307076
   vertex -260.883087 -34.588196 107.450394
  endloop
 endfacet
 facet normal -1.000000 0.000000 -0.000000
  outer loop
   vertex -260.883087 -34.588196 107.450394
   vertex -260.883087 -34.498444 107.667076
   vertex -260.883087 -17.587156 102.537102
  endloop
 endfacet
 facet normal -1.000000 -0.000000 -0.000000
  outer loop
   vertex -260.883087 -50.083969 115.997734
   vertex -260.883087 -34.498444 107.667076
   vertex -260.883087 -34.588196 107.450394
  endloop
 endfacet
 facet normal 1.000000 0.000000 0.000000
  outer loop
   vertex -259.883087 34.588184 107.450394
   vertex -259.883087 34.498432 107.667076
   vertex -259.883087 17.632898 102.307068
  endloop
 endfacet
 facet normal 1.000000 -0.000000 -0.000000
  outer loop
   vertex -259.883087 17.632898 102.307068
   vertex -259.883087 34.498432 107.667076
   vertex -259.883087 17.587143 102.537094
  endloop
 endfacet
 facet normal 1.000000 0.000000 0.000000
  outer loop
   vertex -259.883087 17.587143 102.537094
   vertex -259.883087 -0.000007 100.570381
   vertex -259.883087 17.632898 102.307068
  endloop
 endfacet
 facet normal 1.000000 -0.000000 -0.000000
  outer loop
   vertex -259.883087 -0.000007 100.804909
   vertex -259.883087 -0.000007 100.570381
   vertex -259.883087 17.587143 102.537094
  endloop
 endfacet
 facet normal 1.000000 0.000000 -0.000000
  outer loop
   vertex -259.883087 -17.632912 102.307076
   vertex -259.883087 -0.000007 100.570381
   vertex -259.883087 -0.000007 100.804909
  endloop
 endfacet
 facet normal 1.000000 -0.000000 0.000000
  outer loop
   vertex -259.883087 -0.000007 100.804909
   vertex -259.883087 -17.587156 102.537102
   vertex -259.883087 -17.632912 102.307076
  endloop
 endfacet
 facet normal 1.000000 0.000000 0.000000
  outer loop
   vertex -259.883087 -17.632912 102.307076
   vertex -259.883087 -17.587156 102.537102
   vertex -259.883087 -34.588196 107.450394
  endloop
 endfacet
 facet normal 1.000000 -0.000000 -0.000000
  outer loop
   vertex -259.883087 -34.588196 107.450394
   vertex -259.883087 -17.587156 102.537102
   vertex -259.883087 -34.498444 107.667076
  endloop
 endfacet
 facet normal 1.000000 0.000000 0.000000
  outer loop
   vertex -259.883087 -34.498444 107.667076
   vertex -259.883087 -50.083969 115.997734
   vertex -259.883087 -34.588196 107.450394
  endloop
 endfacet
 facet normal 1.000000 0.000000 0.000000
  outer loop
   vertex -259.883087 -34.588196 107.450394
   vertex -259.883087 -50.083969 115.997734
   vertex -259.883087 -50.214268 115.802727
  endloop
 endfacet
 facet normal 1.000000 0.000000 -0.000000
  outer loop
   vertex -259.883087 -50.214268 115.802727
   vertex -259.883087 -50.083969 115.997734
   vertex -259.883087 -63.744801 127.208893
  endloop
 endfacet
 facet normal 1.000000 -0.000000 0.000000
  outer loop
   vertex -259.883087 -63.744801 127.208893
   vertex -259.883087 -63.910641 127.043053
   vertex -259.883087 -50.214268 115.802727
  endloop
 endfacet
 facet normal 1.000000 -0.000000 -0.000000
  outer loop
   vertex -259.883087 -74.955933 140.869720
   vertex -259.883087 -63.910641 127.043053
   vertex -259.883087 -63.744801 127.208893
  endloop
 endfacet
 facet normal 1.000000 0.000000 0.000000
  outer loop
   vertex -259.883087 -75.150940 140.739410
   vertex -259.883087 -63.910641 127.043053
   vertex -259.883087 -74.955933 140.869720
  endloop
 endfacet
 facet normal 1.000000 -0.000000 -0.000000
  outer loop
   vertex -259.883087 -74.955933 140.869720
   vertex -259.883087 -75.524193 141.437714
   vertex -259.883087 -75.150940 140.739410
  endloop
 endfacet
 facet normal -1.000000 0.000000 0.000000
  outer loop
   vertex -260.883087 -50.083969 115.997734
   vertex -260.883087 -50.214268 115.802727
   vertex -260.883087 -63.744801 127.208893
  endloop
 endfacet
 facet normal -1.000000 -0.000000 -0.000000
  outer loop
   vertex -260.883087 -63.744801 127.208893
   vertex -260.883087 -50.214268 115.802727
   vertex -260.883087 -63.910641 127.043053
  endloop
 endfacet
 facet normal -1.000000 0.000000 0.000000
  outer loop
   vertex -260.883087 -63.910641 127.043053
   vertex -260.883087 -74.955933 140.869720
   vertex -260.883087 -63.744801 127.208893
  endloop
 endfacet
 facet normal -1.000000 -0.000000 -0.000000
  outer loop
   vertex -260.883087 -75.150940 140.739410
   vertex -260.883087 -74.955933 140.869720
   vertex -260.883087 -63.910641 127.043053
  endloop
 endfacet
 facet normal -1.000000 -0.000000 0.000000
  outer loop
   vertex -260.883087 -75.524193 141.437714
   vertex -260.883087 -74.955933 140.869720
   vertex -260.883087 -75.150940 140.739410
  endloop
 endfacet
 facet normal 1.000000 0.000000 0.000000
  outer loop
   vertex -259.883087 34.588184 107.450394
   vertex -259.883087 49.515892 115.429428
   vertex -259.883087 34.498432 107.667076
  endloop
 endfacet
 facet normal 1.000000 0.000000 -0.000000
  outer loop
   vertex -259.883087 34.498432 107.667076
   vertex -259.883087 49.515892 115.429428
   vertex -259.883087 49.387405 115.625404
  endloop
 endfacet
 facet normal -1.000000 0.000000 -0.000000
  outer loop
   vertex -260.883087 34.498432 107.667076
   vertex -260.883087 49.387405 115.625404
   vertex -260.883087 49.515892 115.429428
  endloop
 endfacet
 facet normal 1.000000 0.000000 0.000000
  outer loop
   vertex -259.883087 -74.955933 140.869720
   vertex -259.883087 -75.328217 141.566193
   vertex -259.883087 -75.524193 141.437714
  endloop
 endfacet
 facet normal -1.000000 0.000000 0.000000
  outer loop
   vertex -260.883087 -34.588196 107.450394
   vertex -260.883087 -50.214268 115.802727
   vertex -260.883087 -50.083969 115.997734
  endloop
 endfacet
 facet normal -1.000000 0.000000 -0.000000
  outer loop
   vertex -260.883087 -75.524193 141.437714
   vertex -260.883087 -75.328217 141.566193
   vertex -260.883087 -74.955933 140.869720
  endloop
 endfacet
 facet normal 0.000000 -0.881920 -0.471399
  outer loop
   vertex -260.883087 -75.524193 141.437714
   vertex -260.883087 -75.150940 140.739410
   vertex -259.883087 -75.524193 141.437714
  endloop
 endfacet
 facet normal 0.000000 0.881915 0.471408
  outer loop
   vertex -259.883087 -75.328217 141.566193
   vertex -259.883087 -74.955933 140.869720
   vertex -260.883087 -75.328217 141.566193
  endloop
 endfacet
 facet normal 0.000000 -0.471397 0.881921
  outer loop
   vertex -259.883087 49.387405 115.625404
   vertex -260.883087 49.387405 115.625404
   vertex -259.883087 34.498432 107.667076
  endloop
 endfacet
 facet normal -0.000000 -0.471397 0.881921
  outer loop
   vertex -259.883087 34.498432 107.667076
   vertex -260.883087 49.387405 115.625404
   vertex -260.883087 34.498432 107.667076
  endloop
 endfacet
 facet normal 0.000000 -0.290285 0.956940
  outer loop
   vertex -260.883087 34.498432 107.667076
   vertex -259.883087 17.587143 102.537094
   vertex -259.883087 34.498432 107.667076
  endloop
 endfacet
 facet normal -0.000000 -0.290285 0.956940
  outer loop
   vertex -260.883087 17.587143 102.537094
   vertex -259.883087 17.587143 102.537094
   vertex -260.883087 34.498432 107.667076
  endloop
 endfacet
 facet normal 0.000000 -0.098017 0.995185
  outer loop
   vertex -259.883087 -0.000007 100.804909
   vertex -259.883087 17.587143 102.537094
   vertex -260.883087 17.587143 102.537094
  endloop
 endfacet
 facet normal 0.000000 -0.098017 0.995185
  outer loop
   vertex -260.883087 17.587143 102.537094
   vertex -260.883087 -0.000007 100.804909
   vertex -259.883087 -0.000007 100.804909
  endloop
 endfacet
 facet normal -0.000000 0.098018 0.995185
  outer loop
   vertex -259.883087 -0.000007 100.804909
   vertex -260.883087 -0.000007 100.804909
   vertex -259.883087 -17.587156 102.537102
  endloop
 endfacet
 facet normal -0.000000 0.098018 0.995185
  outer loop
   vertex -259.883087 -17.587156 102.537102
   vertex -260.883087 -0.000007 100.804909
   vertex -260.883087 -17.587156 102.537102
  endloop
 endfacet
 facet normal 0.000000 0.290284 0.956940
  outer loop
   vertex -260.883087 -17.587156 102.537102
   vertex -259.883087 -34.498444 107.667076
   vertex -259.883087 -17.587156 102.537102
  endloop
 endfacet
 facet normal 0.000000 0.290284 0.956940
  outer loop
   vertex -260.883087 -34.498444 107.667076
   vertex -259.883087 -34.498444 107.667076
   vertex -260.883087 -17.587156 102.537102
  endloop
 endfacet
 facet normal 0.000000 0.471398 0.881921
  outer loop
   vertex -259.883087 -50.083969 115.997734
   vertex -259.883087 -34.498444 107.667076
   vertex -260.883087 -34.498444 107.667076
  endloop
 endfacet
 facet normal -0.000000 0.471398 0.881921
  outer loop
   vertex -260.883087 -34.498444 107.667076
   vertex -260.883087 -50.083969 115.997734
   vertex -259.883087 -50.083969 115.997734
  endloop
 endfacet
 facet normal -0.000000 0.634393 0.773010
  outer loop
   vertex -259.883087 -50.083969 115.997734
   vertex -260.883087 -50.083969 115.997734
   vertex -259.883087 -63.744801 127.208893
  endloop
 endfacet
 facet normal -0.000000 0.634393 0.773010
  outer loop
   vertex -259.883087 -63.744801 127.208893
   vertex -260.883087 -50.083969 115.997734
   vertex -260.883087 -63.744801 127.208893
  endloop
 endfacet
 facet normal 0.000000 0.773011 0.634393
  outer loop
   vertex -260.883087 -63.744801 127.208893
   vertex -259.883087 -74.955933 140.869720
   vertex -259.883087 -63.744801 127.208893
  endloop
 endfacet
 facet normal 0.000000 0.773011 0.634393
  outer loop
   vertex -260.883087 -74.955933 140.869720
   vertex -259.883087 -74.955933 140.869720
   vertex -260.883087 -63.744801 127.208893
  endloop
 endfacet
 facet normal 0.000000 0.881915 0.471408
  outer loop
   vertex -260.883087 -75.328217 141.566193
   vertex -259.883087 -74.955933 140.869720
   vertex -260.883087 -74.955933 140.869720
  endloop
 endfacet
 facet normal 0.000000 0.471397 -0.881921
  outer loop
   vertex -260.883087 49.515892 115.429428
   vertex -259.883087 49.515892 115.429428
   vertex -260.883087 34.588184 107.450394
  endloop
 endfacet
 facet normal -0.000000 0.471397 -0.881921
  outer loop
   vertex -260.883087 34.588184 107.450394
   vertex -259.883087 49.515892 115.429428
   vertex -259.883087 34.588184 107.450394
  endloop
 endfacet
 facet normal 0.000000 0.290284 -0.956940
  outer loop
   vertex -259.883087 34.588184 107.450394
   vertex -260.883087 17.632898 102.307068
   vertex -260.883087 34.588184 107.450394
  endloop
 endfacet
 facet normal -0.000000 0.290284 -0.956940
  outer loop
   vertex -259.883087 17.632898 102.307068
   vertex -260.883087 17.632898 102.307068
   vertex -259.883087 34.588184 107.450394
  endloop
 endfacet
 facet normal 0.000000 0.098017 -0.995185
  outer loop
   vertex -260.883087 -0.000007 100.570381
   vertex -260.883087 17.632898 102.307068
   vertex -259.883087 17.632898 102.307068
  endloop
 endfacet
 facet normal -0.000000 0.098017 -0.995185
  outer loop
   vertex -259.883087 17.632898 102.307068
   vertex -259.883087 -0.000007 100.570381
   vertex -260.883087 -0.000007 100.570381
  endloop
 endfacet
 facet normal 0.000000 -0.098017 -0.995185
  outer loop
   vertex -260.883087 -0.000007 100.570381
   vertex -259.883087 -0.000007 100.570381
   vertex -260.883087 -17.632912 102.307076
  endloop
 endfacet
 facet normal -0.000000 -0.098017 -0.995185
  outer loop
   vertex -260.883087 -17.632912 102.307076
   vertex -259.883087 -0.000007 100.570381
   vertex -259.883087 -17.632912 102.307076
  endloop
 endfacet
 facet normal 0.000000 -0.290284 -0.956941
  outer loop
   vertex -259.883087 -17.632912 102.307076
   vertex -260.883087 -34.588196 107.450394
   vertex -260.883087 -17.632912 102.307076
  endloop
 endfacet
 facet normal 0.000000 -0.290284 -0.956941
  outer loop
   vertex -259.883087 -34.588196 107.450394
   vertex -260.883087 -34.588196 107.450394
   vertex -259.883087 -17.632912 102.307076
  endloop
 endfacet
 facet normal 0.000000 -0.471398 -0.881921
  outer loop
   vertex -260.883087 -50.214268 115.802727
   vertex -260.883087 -34.588196 107.450394
   vertex -259.883087 -34.588196 107.450394
  endloop
 endfacet
 facet normal -0.000000 -0.471398 -0.881921
  outer loop
   vertex -259.883087 -34.588196 107.450394
   vertex -259.883087 -50.214268 115.802727
   vertex -260.883087 -50.214268 115.802727
  endloop
 endfacet
 facet normal -0.000000 -0.634393 -0.773010
  outer loop
   vertex -260.883087 -50.214268 115.802727
   vertex -259.883087 -50.214268 115.802727
   vertex -260.883087 -63.910641 127.043053
  endloop
 endfacet
 facet normal -0.000000 -0.634393 -0.773010
  outer loop
   vertex -260.883087 -63.910641 127.043053
   vertex -259.883087 -50.214268 115.802727
   vertex -259.883087 -63.910641 127.043053
  endloop
 endfacet
 facet normal 0.000000 -0.773011 -0.634393
  outer loop
   vertex -259.883087 -63.910641 127.043053
   vertex -260.883087 -75.150940 140.739410
   vertex -260.883087 -63.910641 127.043053
  endloop
 endfacet
 facet normal 0.000000 -0.773011 -0.634393
  outer loop
   vertex -259.883087 -75.150940 140.739410
   vertex -260.883087 -75.150940 140.739410
   vertex -259.883087 -63.910641 127.043053
  endloop
 endfacet
 facet normal 0.000000 -0.881920 -0.471399
  outer loop
   vertex -259.883087 -75.524193 141.437714
   vertex -260.883087 -75.150940 140.739410
   vertex -259.883087 -75.150940 140.739410
  endloop
 endfacet
endsolid