solid stl file generated from DOUG
 facet normal -0.916546 0.000000 -0.399928
  outer loop
   vertex 47.786846 129.859177 -91.093521
   vertex 47.732380 129.859177 -90.968697
   vertex 47.732380 142.595840 -90.968697
  endloop
 endfacet
 facet normal -0.866016 -0.000000 0.500016
  outer loop
   vertex 47.732380 142.595840 -90.968697
   vertex 47.732380 129.859177 -90.968697
   vertex 47.783760 142.595840 -90.879707
  endloop
 endfacet
 facet normal -0.111929 0.000000 0.993716
  outer loop
   vertex 47.234577 142.595840 -92.050079
   vertex 47.099243 142.595840 -92.065323
   vertex 47.099243 129.859177 -92.065323
  endloop
 endfacet
 facet normal -0.866032 -0.000000 0.499988
  outer loop
   vertex 47.099243 129.859177 -92.065323
   vertex 47.099243 142.595840 -92.065323
   vertex 47.047867 142.595840 -92.154312
  endloop
 endfacet
 facet normal -0.866032 0.000000 0.499988
  outer loop
   vertex 47.047867 142.595840 -92.154312
   vertex 47.047867 129.859177 -92.154312
   vertex 47.099243 129.859177 -92.065323
  endloop
 endfacet
 facet normal -0.987755 0.000000 0.156015
  outer loop
   vertex 47.682426 142.595840 -92.520676
   vertex 47.682426 129.859177 -92.520676
   vertex 47.687679 142.595840 -92.487419
  endloop
 endfacet
 facet normal -0.987755 -0.000000 0.156015
  outer loop
   vertex 47.687679 142.595840 -92.487419
   vertex 47.682426 129.859177 -92.520676
   vertex 47.687679 129.859177 -92.487419
  endloop
 endfacet
 facet normal -0.499995 0.000000 -0.866028
  outer loop
   vertex 47.687679 129.859177 -92.487419
   vertex 47.189579 129.859177 -92.199844
   vertex 47.687679 142.595840 -92.487419
  endloop
 endfacet
 facet normal -0.916546 -0.000000 -0.399928
  outer loop
   vertex 47.732380 142.595840 -90.968697
   vertex 47.786846 142.595840 -91.093521
   vertex 47.786846 129.859177 -91.093521
  endloop
 endfacet
 facet normal -0.866025 -0.000000 0.500000
  outer loop
   vertex 47.786846 129.859177 -91.093521
   vertex 47.786846 142.595840 -91.093521
   vertex 47.234577 142.595840 -92.050079
  endloop
 endfacet
 facet normal -0.866025 0.000000 0.500000
  outer loop
   vertex 47.234577 142.595840 -92.050079
   vertex 47.234577 129.859177 -92.050079
   vertex 47.786846 129.859177 -91.093521
  endloop
 endfacet
 facet normal -0.111929 -0.000000 0.993716
  outer loop
   vertex 47.099243 129.859177 -92.065323
   vertex 47.234577 129.859177 -92.050079
   vertex 47.234577 142.595840 -92.050079
  endloop
 endfacet
 facet normal -0.499971 -0.000000 -0.866042
  outer loop
   vertex 47.047867 129.859177 -92.154312
   vertex 47.047867 142.595840 -92.154312
   vertex 47.163410 129.859177 -92.221016
  endloop
 endfacet
 facet normal -0.499971 -0.000000 -0.866042
  outer loop
   vertex 47.163410 129.859177 -92.221016
   vertex 47.047867 142.595840 -92.154312
   vertex 47.163410 142.595840 -92.221016
  endloop
 endfacet
 facet normal 0.628970 0.000000 -0.777430
  outer loop
   vertex 47.163410 142.595840 -92.221016
   vertex 47.189579 129.859177 -92.199844
   vertex 47.163410 129.859177 -92.221016
  endloop
 endfacet
 facet normal 0.628970 -0.000000 -0.777430
  outer loop
   vertex 47.189579 142.595840 -92.199844
   vertex 47.189579 129.859177 -92.199844
   vertex 47.163410 142.595840 -92.221016
  endloop
 endfacet
 facet normal -0.499995 0.000000 -0.866028
  outer loop
   vertex 47.687679 142.595840 -92.487419
   vertex 47.189579 129.859177 -92.199844
   vertex 47.189579 142.595840 -92.199844
  endloop
 endfacet
 facet normal 0.000016 1.000000 -0.000009
  outer loop
   vertex 47.776077 143.444061 -90.855598
   vertex 47.751041 143.444046 -92.579964
   vertex 47.023144 143.444061 -92.159714
  endloop
 endfacet
 facet normal -0.499998 -0.000000 -0.866026
  outer loop
   vertex 47.023144 143.444061 -92.159714
   vertex 47.751041 143.444046 -92.579964
   vertex 47.023144 142.444061 -92.159714
  endloop
 endfacet
 facet normal -0.866025 0.000000 0.500001
  outer loop
   vertex 47.023144 142.444061 -92.159714
   vertex 47.776077 142.444061 -90.855598
   vertex 47.023144 143.444061 -92.159714
  endloop
 endfacet
 facet normal -0.000000 -1.000000 -0.000000
  outer loop
   vertex 47.751041 142.444061 -92.579964
   vertex 47.776077 142.444061 -90.855598
   vertex 47.023144 142.444061 -92.159714
  endloop
 endfacet
 facet normal 0.000000 -1.000000 -0.000000
  outer loop
   vertex 48.503975 142.444061 -91.275848
   vertex 47.776077 142.444061 -90.855598
   vertex 47.751041 142.444061 -92.579964
  endloop
 endfacet
 facet normal 0.866025 -0.000000 -0.500001
  outer loop
   vertex 47.751041 142.444061 -92.579964
   vertex 47.751041 143.444046 -92.579964
   vertex 48.503975 142.444061 -91.275848
  endloop
 endfacet
 facet normal 0.866025 0.000000 -0.500001
  outer loop
   vertex 48.503975 142.444061 -91.275848
   vertex 47.751041 143.444046 -92.579964
   vertex 48.503975 143.444061 -91.275848
  endloop
 endfacet
 facet normal -0.000005 1.000000 -0.000009
  outer loop
   vertex 48.503975 143.444061 -91.275848
   vertex 47.751041 143.444046 -92.579964
   vertex 47.776077 143.444061 -90.855598
  endloop
 endfacet
 facet normal 0.499998 -0.000000 0.866026
  outer loop
   vertex 47.776077 143.444061 -90.855598
   vertex 47.776077 142.444061 -90.855598
   vertex 48.503975 143.444061 -91.275848
  endloop
 endfacet
 facet normal -0.866025 -0.000000 0.500001
  outer loop
   vertex 47.023144 143.444061 -92.159714
   vertex 47.776077 142.444061 -90.855598
   vertex 47.776077 143.444061 -90.855598
  endloop
 endfacet
 facet normal 0.000000 1.000000 0.000000
  outer loop
   vertex 47.023144 130.010956 -92.159714
   vertex 47.776077 130.010956 -90.855598
   vertex 47.751041 130.010956 -92.579964
  endloop
 endfacet
 facet normal -0.000000 1.000000 0.000000
  outer loop
   vertex 47.751041 130.010956 -92.579964
   vertex 47.776077 130.010956 -90.855598
   vertex 48.503975 130.010956 -91.275848
  endloop
 endfacet
 facet normal 0.866025 0.000000 -0.500001
  outer loop
   vertex 48.503975 130.010956 -91.275848
   vertex 48.503975 129.010956 -91.275848
   vertex 47.751041 130.010956 -92.579964
  endloop
 endfacet
 facet normal 0.499998 -0.000000 0.866026
  outer loop
   vertex 47.776077 130.010956 -90.855598
   vertex 48.503975 129.010956 -91.275848
   vertex 48.503975 130.010956 -91.275848
  endloop
 endfacet
 facet normal 0.500005 0.000007 0.866022
  outer loop
   vertex 47.776077 129.010971 -90.855591
   vertex 48.503975 129.010956 -91.275848
   vertex 47.776077 130.010956 -90.855598
  endloop
 endfacet
 facet normal -0.866026 0.000004 0.499999
  outer loop
   vertex 47.776077 130.010956 -90.855598
   vertex 47.023144 129.010956 -92.159714
   vertex 47.776077 129.010971 -90.855591
  endloop
 endfacet
 facet normal -0.000011 -1.000000 0.000018
  outer loop
   vertex 47.776077 129.010971 -90.855591
   vertex 47.023144 129.010956 -92.159714
   vertex 48.503975 129.010956 -91.275848
  endloop
 endfacet
 facet normal 0.000000 -1.000000 -0.000000
  outer loop
   vertex 48.503975 129.010956 -91.275848
   vertex 47.023144 129.010956 -92.159714
   vertex 47.751041 129.010956 -92.579964
  endloop
 endfacet
 facet normal 0.866025 0.000000 -0.500001
  outer loop
   vertex 47.751041 129.010956 -92.579964
   vertex 47.751041 130.010956 -92.579964
   vertex 48.503975 129.010956 -91.275848
  endloop
 endfacet
 facet normal -0.499998 -0.000000 -0.866026
  outer loop
   vertex 47.023144 129.010956 -92.159714
   vertex 47.751041 130.010956 -92.579964
   vertex 47.751041 129.010956 -92.579964
  endloop
 endfacet
 facet normal -0.499998 0.000000 -0.866026
  outer loop
   vertex 47.023144 130.010956 -92.159714
   vertex 47.751041 130.010956 -92.579964
   vertex 47.023144 129.010956 -92.159714
  endloop
 endfacet
 facet normal -0.866025 -0.000000 0.500001
  outer loop
   vertex 47.023144 129.010956 -92.159714
   vertex 47.776077 130.010956 -90.855598
   vertex 47.023144 130.010956 -92.159714
  endloop
 endfacet
 facet normal -0.866016 0.000000 0.500016
  outer loop
   vertex 47.732380 129.859177 -90.968697
   vertex 47.783760 129.859177 -90.879707
   vertex 47.783760 142.595840 -90.879707
  endloop
 endfacet
 facet normal 0.500014 -0.000000 0.866018
  outer loop
   vertex 47.783760 142.595840 -90.879707
   vertex 47.783760 129.859177 -90.879707
   vertex 47.899303 129.859177 -90.946419
  endloop
 endfacet
 facet normal 0.500014 0.000000 0.866018
  outer loop
   vertex 47.899303 129.859177 -90.946419
   vertex 47.899303 142.595840 -90.946419
   vertex 47.783760 142.595840 -90.879707
  endloop
 endfacet
 facet normal 0.987732 -0.000000 -0.156160
  outer loop
   vertex 47.894047 129.859177 -90.979668
   vertex 47.899303 142.595840 -90.946419
   vertex 47.899303 129.859177 -90.946419
  endloop
 endfacet
 facet normal 0.987732 0.000000 -0.156160
  outer loop
   vertex 47.894047 142.595840 -90.979668
   vertex 47.899303 142.595840 -90.946419
   vertex 47.894047 129.859177 -90.979668
  endloop
 endfacet
 facet normal 0.499995 -0.000000 0.866028
  outer loop
   vertex 47.894047 129.859177 -90.979668
   vertex 48.392147 129.859177 -91.267242
   vertex 47.894047 142.595840 -90.979668
  endloop
 endfacet
 facet normal 0.499995 -0.000000 0.866028
  outer loop
   vertex 47.894047 142.595840 -90.979668
   vertex 48.392147 129.859177 -91.267242
   vertex 48.392147 142.595840 -91.267242
  endloop
 endfacet
 facet normal -0.628915 -0.000000 0.777474
  outer loop
   vertex 48.392147 142.595840 -91.267242
   vertex 48.392147 129.859177 -91.267242
   vertex 48.418320 129.859177 -91.246071
  endloop
 endfacet
 facet normal -0.628915 0.000000 0.777474
  outer loop
   vertex 48.418320 129.859177 -91.246071
   vertex 48.418320 142.595840 -91.246071
   vertex 48.392147 142.595840 -91.267242
  endloop
 endfacet
 facet normal 0.499957 0.000000 0.866050
  outer loop
   vertex 48.475651 129.859177 -91.279167
   vertex 48.418320 142.595840 -91.246071
   vertex 48.418320 129.859177 -91.246071
  endloop
 endfacet
 facet normal 0.499957 0.000000 0.866050
  outer loop
   vertex 48.475651 142.595840 -91.279167
   vertex 48.418320 142.595840 -91.246071
   vertex 48.475651 129.859177 -91.279167
  endloop
 endfacet
 facet normal 0.866025 -0.000000 -0.500000
  outer loop
   vertex 48.475651 129.859177 -91.279167
   vertex 47.739758 129.859177 -92.553772
   vertex 48.475651 142.595840 -91.279167
  endloop
 endfacet
 facet normal 0.866025 0.000000 -0.500000
  outer loop
   vertex 48.475651 142.595840 -91.279167
   vertex 47.739758 129.859177 -92.553772
   vertex 47.739758 142.595840 -92.553772
  endloop
 endfacet
 facet normal -0.499957 0.000000 -0.866050
  outer loop
   vertex 47.739758 142.595840 -92.553772
   vertex 47.739758 129.859177 -92.553772
   vertex 47.682426 142.595840 -92.520676
  endloop
 endfacet
 facet normal -0.499998 0.000000 -0.866026
  outer loop
   vertex 47.751041 142.444061 -92.579964
   vertex 47.023144 142.444061 -92.159714
   vertex 47.751041 143.444046 -92.579964
  endloop
 endfacet
 facet normal 0.499998 -0.000000 0.866026
  outer loop
   vertex 47.776077 142.444061 -90.855598
   vertex 48.503975 142.444061 -91.275848
   vertex 48.503975 143.444061 -91.275848
  endloop
 endfacet
 facet normal -0.499957 0.000000 -0.866050
  outer loop
   vertex 47.739758 129.859177 -92.553772
   vertex 47.682426 129.859177 -92.520676
   vertex 47.682426 142.595840 -92.520676
  endloop
 endfacet
 facet normal 0.191341 -0.923880 0.331412
  outer loop
   vertex 49.808064 141.907501 -92.898178
   vertex 50.674088 141.907501 -93.398178
   vertex 50.161617 142.200394 -92.285805
  endloop
 endfacet
 facet normal 0.191341 -0.923880 0.331412
  outer loop
   vertex 50.161617 142.200394 -92.285805
   vertex 50.674088 141.907501 -93.398178
   vertex 51.027641 142.200394 -92.785805
  endloop
 endfacet
 facet normal 0.461940 -0.382684 0.800103
  outer loop
   vertex 51.027641 142.200394 -92.785805
   vertex 50.308064 142.907501 -92.032150
   vertex 50.161617 142.200394 -92.285805
  endloop
 endfacet
 facet normal 0.461940 -0.382684 0.800103
  outer loop
   vertex 51.174088 142.907501 -92.532150
   vertex 50.308064 142.907501 -92.032150
   vertex 51.027641 142.200394 -92.785805
  endloop
 endfacet
 facet normal 0.461940 0.382684 0.800103
  outer loop
   vertex 50.161617 143.614609 -92.285805
   vertex 50.308064 142.907501 -92.032150
   vertex 51.174088 142.907501 -92.532150
  endloop
 endfacet
 facet normal 0.461940 0.382684 0.800103
  outer loop
   vertex 51.174088 142.907501 -92.532150
   vertex 51.027641 143.614609 -92.785805
   vertex 50.161617 143.614609 -92.285805
  endloop
 endfacet
 facet normal 0.191341 0.923880 0.331412
  outer loop
   vertex 50.161617 143.614609 -92.285805
   vertex 51.027641 143.614609 -92.785805
   vertex 49.808064 143.907501 -92.898178
  endloop
 endfacet
 facet normal 0.191341 0.923880 0.331412
  outer loop
   vertex 49.808064 143.907501 -92.898178
   vertex 51.027641 143.614609 -92.785805
   vertex 50.674088 143.907501 -93.398178
  endloop
 endfacet
 facet normal -0.191343 0.923879 -0.331415
  outer loop
   vertex 50.674088 143.907501 -93.398178
   vertex 49.454510 143.614609 -93.510544
   vertex 49.808064 143.907501 -92.898178
  endloop
 endfacet
 facet normal -0.191343 0.923879 -0.331415
  outer loop
   vertex 50.320534 143.614609 -94.010544
   vertex 49.454510 143.614609 -93.510544
   vertex 50.674088 143.907501 -93.398178
  endloop
 endfacet
 facet normal -0.461940 0.382684 -0.800103
  outer loop
   vertex 49.308064 142.907501 -93.764198
   vertex 49.454510 143.614609 -93.510544
   vertex 50.320534 143.614609 -94.010544
  endloop
 endfacet
 facet normal -0.461940 0.382684 -0.800103
  outer loop
   vertex 50.320534 143.614609 -94.010544
   vertex 50.174088 142.907501 -94.264198
   vertex 49.308064 142.907501 -93.764198
  endloop
 endfacet
 facet normal -0.461940 -0.382684 -0.800103
  outer loop
   vertex 49.308064 142.907501 -93.764198
   vertex 50.174088 142.907501 -94.264198
   vertex 49.454510 142.200409 -93.510551
  endloop
 endfacet
 facet normal -0.461940 -0.382684 -0.800103
  outer loop
   vertex 49.454510 142.200409 -93.510551
   vertex 50.174088 142.907501 -94.264198
   vertex 50.320534 142.200409 -94.010551
  endloop
 endfacet
 facet normal -0.191350 -0.923873 -0.331427
  outer loop
   vertex 50.320534 142.200409 -94.010551
   vertex 49.808064 141.907501 -92.898178
   vertex 49.454510 142.200409 -93.510551
  endloop
 endfacet
 facet normal -0.191350 -0.923873 -0.331427
  outer loop
   vertex 50.674088 141.907501 -93.398178
   vertex 49.808064 141.907501 -92.898178
   vertex 50.320534 142.200409 -94.010551
  endloop
 endfacet
 facet normal -0.335969 -0.759394 0.557177
  outer loop
   vertex 48.942039 142.657501 -92.398178
   vertex 49.808064 141.907501 -92.898178
   vertex 49.030426 142.730728 -92.245079
  endloop
 endfacet
 facet normal -0.335965 -0.759393 0.557180
  outer loop
   vertex 49.030426 142.730728 -92.245079
   vertex 49.808064 141.907501 -92.898178
   vertex 50.161617 142.200394 -92.285805
  endloop
 endfacet
 facet normal -0.113532 -0.314533 0.942433
  outer loop
   vertex 50.161617 142.200394 -92.285805
   vertex 49.067039 142.907501 -92.181671
   vertex 49.030426 142.730728 -92.245079
  endloop
 endfacet
 facet normal -0.113545 -0.314552 0.942425
  outer loop
   vertex 50.308064 142.907501 -92.032150
   vertex 49.067039 142.907501 -92.181671
   vertex 50.161617 142.200394 -92.285805
  endloop
 endfacet
 facet normal -0.113547 0.314505 0.942440
  outer loop
   vertex 49.030426 143.084290 -92.245079
   vertex 49.067039 142.907501 -92.181671
   vertex 50.308064 142.907501 -92.032150
  endloop
 endfacet
 facet normal -0.113538 0.314554 0.942425
  outer loop
   vertex 50.308064 142.907501 -92.032150
   vertex 50.161617 143.614609 -92.285805
   vertex 49.030426 143.084290 -92.245079
  endloop
 endfacet
 facet normal -0.335975 0.759431 0.557122
  outer loop
   vertex 49.030426 143.084290 -92.245079
   vertex 50.161617 143.614609 -92.285805
   vertex 48.942039 143.157501 -92.398178
  endloop
 endfacet
 facet normal -0.335966 0.759393 0.557180
  outer loop
   vertex 48.942039 143.157501 -92.398178
   vertex 50.161617 143.614609 -92.285805
   vertex 49.808064 143.907501 -92.898178
  endloop
 endfacet
 facet normal -0.650499 0.759406 0.012414
  outer loop
   vertex 49.808064 143.907501 -92.898178
   vertex 48.853649 143.084290 -92.551270
   vertex 48.942039 143.157501 -92.398178
  endloop
 endfacet
 facet normal -0.650510 0.759397 0.012360
  outer loop
   vertex 49.454510 143.614609 -93.510544
   vertex 48.853649 143.084290 -92.551270
   vertex 49.808064 143.907501 -92.898178
  endloop
 endfacet
 facet normal -0.872936 0.314531 -0.372898
  outer loop
   vertex 48.817039 142.907501 -92.614685
   vertex 48.853649 143.084290 -92.551270
   vertex 49.454510 143.614609 -93.510544
  endloop
 endfacet
 facet normal -0.872936 0.314551 -0.372882
  outer loop
   vertex 49.454510 143.614609 -93.510544
   vertex 49.308064 142.907501 -93.764198
   vertex 48.817039 142.907501 -92.614685
  endloop
 endfacet
 facet normal -0.872935 -0.314552 -0.372882
  outer loop
   vertex 48.817039 142.907501 -92.614685
   vertex 49.308064 142.907501 -93.764198
   vertex 48.853649 142.730728 -92.551270
  endloop
 endfacet
 facet normal -0.872935 -0.314553 -0.372882
  outer loop
   vertex 48.853649 142.730728 -92.551270
   vertex 49.308064 142.907501 -93.764198
   vertex 49.454510 142.200409 -93.510551
  endloop
 endfacet
 facet normal -0.650516 -0.759392 0.012354
  outer loop
   vertex 49.454510 142.200409 -93.510551
   vertex 48.942039 142.657501 -92.398178
   vertex 48.853649 142.730728 -92.551270
  endloop
 endfacet
 facet normal -0.650520 -0.759389 0.012351
  outer loop
   vertex 49.808064 141.907501 -92.898178
   vertex 48.942039 142.657501 -92.398178
   vertex 49.454510 142.200409 -93.510551
  endloop
 endfacet
 facet normal 0.191352 -0.923871 0.331431
  outer loop
   vertex 48.084705 129.487503 -91.903191
   vertex 48.950729 129.487503 -92.403191
   vertex 48.173092 129.560730 -91.750099
  endloop
 endfacet
 facet normal 0.191350 -0.923872 0.331429
  outer loop
   vertex 48.173092 129.560730 -91.750099
   vertex 48.950729 129.487503 -92.403191
   vertex 49.039120 129.560730 -92.250099
  endloop
 endfacet
 facet normal 0.461935 -0.382703 0.800097
  outer loop
   vertex 49.039120 129.560730 -92.250099
   vertex 48.209705 129.737503 -91.686684
   vertex 48.173092 129.560730 -91.750099
  endloop
 endfacet
 facet normal 0.461938 -0.382694 0.800099
  outer loop
   vertex 49.075729 129.737503 -92.186684
   vertex 48.209705 129.737503 -91.686684
   vertex 49.039120 129.560730 -92.250099
  endloop
 endfacet
 facet normal 0.461942 0.382675 0.800106
  outer loop
   vertex 48.173092 129.914291 -91.750099
   vertex 48.209705 129.737503 -91.686684
   vertex 49.075729 129.737503 -92.186684
  endloop
 endfacet
 facet normal 0.461942 0.382666 0.800110
  outer loop
   vertex 49.075729 129.737503 -92.186684
   vertex 49.039120 129.914291 -92.250099
   vertex 48.173092 129.914291 -91.750099
  endloop
 endfacet
 facet normal 0.191318 0.923899 0.331373
  outer loop
   vertex 48.173092 129.914291 -91.750099
   vertex 49.039120 129.914291 -92.250099
   vertex 48.084705 129.987503 -91.903191
  endloop
 endfacet
 facet normal 0.191316 0.923901 0.331369
  outer loop
   vertex 48.084705 129.987503 -91.903191
   vertex 49.039120 129.914291 -92.250099
   vertex 48.950729 129.987503 -92.403191
  endloop
 endfacet
 facet normal -0.191312 0.923904 -0.331362
  outer loop
   vertex 48.950729 129.987503 -92.403191
   vertex 47.996319 129.914291 -92.056290
   vertex 48.084705 129.987503 -91.903191
  endloop
 endfacet
 facet normal -0.191312 0.923904 -0.331362
  outer loop
   vertex 48.862343 129.914291 -92.556290
   vertex 47.996319 129.914291 -92.056290
   vertex 48.950729 129.987503 -92.403191
  endloop
 endfacet
 facet normal -0.461948 0.382645 -0.800116
  outer loop
   vertex 47.959705 129.737503 -92.119698
   vertex 47.996319 129.914291 -92.056290
   vertex 48.862343 129.914291 -92.556290
  endloop
 endfacet
 facet normal -0.461948 0.382645 -0.800116
  outer loop
   vertex 48.862343 129.914291 -92.556290
   vertex 48.825729 129.737503 -92.619698
   vertex 47.959705 129.737503 -92.119698
  endloop
 endfacet
 facet normal -0.461942 -0.382674 -0.800106
  outer loop
   vertex 47.959705 129.737503 -92.119698
   vertex 48.825729 129.737503 -92.619698
   vertex 47.996319 129.560730 -92.056290
  endloop
 endfacet
 facet normal -0.461942 -0.382674 -0.800106
  outer loop
   vertex 47.996319 129.560730 -92.056290
   vertex 48.825729 129.737503 -92.619698
   vertex 48.862343 129.560730 -92.556290
  endloop
 endfacet
 facet normal -0.191346 -0.923876 -0.331421
  outer loop
   vertex 48.862343 129.560730 -92.556290
   vertex 48.084705 129.487503 -91.903191
   vertex 47.996319 129.560730 -92.056290
  endloop
 endfacet
 facet normal -0.191346 -0.923876 -0.331421
  outer loop
   vertex 48.950729 129.487503 -92.403191
   vertex 48.084705 129.487503 -91.903191
   vertex 48.862343 129.560730 -92.556290
  endloop
 endfacet
 facet normal 0.191343 -0.923879 0.331415
  outer loop
   vertex 49.808064 128.737503 -92.898170
   vertex 50.674088 128.737503 -93.398170
   vertex 50.161617 129.030396 -92.285805
  endloop
 endfacet
 facet normal 0.191343 -0.923879 0.331415
  outer loop
   vertex 50.161617 129.030396 -92.285805
   vertex 50.674088 128.737503 -93.398170
   vertex 51.027641 129.030396 -92.785805
  endloop
 endfacet
 facet normal 0.461940 -0.382684 0.800103
  outer loop
   vertex 51.027641 129.030396 -92.785805
   vertex 50.308064 129.737503 -92.032150
   vertex 50.161617 129.030396 -92.285805
  endloop
 endfacet
 facet normal 0.461940 -0.382684 0.800103
  outer loop
   vertex 51.174088 129.737503 -92.532150
   vertex 50.308064 129.737503 -92.032150
   vertex 51.027641 129.030396 -92.785805
  endloop
 endfacet
 facet normal 0.461940 0.382684 0.800103
  outer loop
   vertex 50.161617 130.444611 -92.285805
   vertex 50.308064 129.737503 -92.032150
   vertex 51.174088 129.737503 -92.532150
  endloop
 endfacet
 facet normal 0.461940 0.382684 0.800103
  outer loop
   vertex 51.174088 129.737503 -92.532150
   vertex 51.027641 130.444611 -92.785805
   vertex 50.161617 130.444611 -92.285805
  endloop
 endfacet
 facet normal 0.191343 0.923879 0.331415
  outer loop
   vertex 50.161617 130.444611 -92.285805
   vertex 51.027641 130.444611 -92.785805
   vertex 49.808064 130.737503 -92.898170
  endloop
 endfacet
 facet normal 0.191343 0.923879 0.331415
  outer loop
   vertex 49.808064 130.737503 -92.898170
   vertex 51.027641 130.444611 -92.785805
   vertex 50.674088 130.737503 -93.398170
  endloop
 endfacet
 facet normal -0.191341 0.923880 -0.331412
  outer loop
   vertex 50.674088 130.737503 -93.398170
   vertex 49.454510 130.444611 -93.510544
   vertex 49.808064 130.737503 -92.898170
  endloop
 endfacet
 facet normal -0.191341 0.923880 -0.331412
  outer loop
   vertex 50.320534 130.444611 -94.010544
   vertex 49.454510 130.444611 -93.510544
   vertex 50.674088 130.737503 -93.398170
  endloop
 endfacet
 facet normal -0.461940 0.382684 -0.800103
  outer loop
   vertex 49.308064 129.737503 -93.764198
   vertex 49.454510 130.444611 -93.510544
   vertex 50.320534 130.444611 -94.010544
  endloop
 endfacet
 facet normal -0.461940 0.382684 -0.800103
  outer loop
   vertex 50.320534 130.444611 -94.010544
   vertex 50.174088 129.737503 -94.264198
   vertex 49.308064 129.737503 -93.764198
  endloop
 endfacet
 facet normal -0.461940 -0.382684 -0.800103
  outer loop
   vertex 49.308064 129.737503 -93.764198
   vertex 50.174088 129.737503 -94.264198
   vertex 49.454510 129.030396 -93.510544
  endloop
 endfacet
 facet normal -0.461940 -0.382684 -0.800103
  outer loop
   vertex 49.454510 129.030396 -93.510544
   vertex 50.174088 129.737503 -94.264198
   vertex 50.320534 129.030396 -94.010544
  endloop
 endfacet
 facet normal -0.191341 -0.923880 -0.331412
  outer loop
   vertex 50.320534 129.030396 -94.010544
   vertex 49.808064 128.737503 -92.898170
   vertex 49.454510 129.030396 -93.510544
  endloop
 endfacet
 facet normal -0.191341 -0.923880 -0.331412
  outer loop
   vertex 50.674088 128.737503 -93.398170
   vertex 49.808064 128.737503 -92.898170
   vertex 50.320534 129.030396 -94.010544
  endloop
 endfacet
 facet normal -0.335972 -0.759392 0.557177
  outer loop
   vertex 48.942039 129.487503 -92.398178
   vertex 49.808064 128.737503 -92.898170
   vertex 49.030426 129.560730 -92.245079
  endloop
 endfacet
 facet normal -0.335964 -0.759390 0.557185
  outer loop
   vertex 49.030426 129.560730 -92.245079
   vertex 49.808064 128.737503 -92.898170
   vertex 50.161617 129.030396 -92.285805
  endloop
 endfacet
 facet normal -0.113532 -0.314533 0.942433
  outer loop
   vertex 50.161617 129.030396 -92.285805
   vertex 49.067039 129.737503 -92.181671
   vertex 49.030426 129.560730 -92.245079
  endloop
 endfacet
 facet normal -0.113545 -0.314552 0.942425
  outer loop
   vertex 50.308064 129.737503 -92.032150
   vertex 49.067039 129.737503 -92.181671
   vertex 50.161617 129.030396 -92.285805
  endloop
 endfacet
 facet normal -0.113547 0.314505 0.942440
  outer loop
   vertex 49.030426 129.914291 -92.245079
   vertex 49.067039 129.737503 -92.181671
   vertex 50.308064 129.737503 -92.032150
  endloop
 endfacet
 facet normal -0.113538 0.314554 0.942425
  outer loop
   vertex 50.308064 129.737503 -92.032150
   vertex 50.161617 130.444611 -92.285805
   vertex 49.030426 129.914291 -92.245079
  endloop
 endfacet
 facet normal -0.335975 0.759431 0.557122
  outer loop
   vertex 49.030426 129.914291 -92.245079
   vertex 50.161617 130.444611 -92.285805
   vertex 48.942039 129.987503 -92.398178
  endloop
 endfacet
 facet normal -0.335965 0.759389 0.557185
  outer loop
   vertex 48.942039 129.987503 -92.398178
   vertex 50.161617 130.444611 -92.285805
   vertex 49.808064 130.737503 -92.898170
  endloop
 endfacet
 facet normal -0.650499 0.759406 0.012414
  outer loop
   vertex 49.808064 130.737503 -92.898170
   vertex 48.853649 129.914291 -92.551270
   vertex 48.942039 129.987503 -92.398178
  endloop
 endfacet
 facet normal -0.650510 0.759397 0.012360
  outer loop
   vertex 49.454510 130.444611 -93.510544
   vertex 48.853649 129.914291 -92.551270
   vertex 49.808064 130.737503 -92.898170
  endloop
 endfacet
 facet normal -0.872937 0.314518 -0.372906
  outer loop
   vertex 48.817039 129.737503 -92.614677
   vertex 48.853649 129.914291 -92.551270
   vertex 49.454510 130.444611 -93.510544
  endloop
 endfacet
 facet normal -0.872937 0.314550 -0.372880
  outer loop
   vertex 49.454510 130.444611 -93.510544
   vertex 49.308064 129.737503 -93.764198
   vertex 48.817039 129.737503 -92.614677
  endloop
 endfacet
 facet normal -0.872941 -0.314537 -0.372881
  outer loop
   vertex 48.817039 129.737503 -92.614677
   vertex 49.308064 129.737503 -93.764198
   vertex 48.853649 129.560730 -92.551270
  endloop
 endfacet
 facet normal -0.872936 -0.314551 -0.372882
  outer loop
   vertex 48.853649 129.560730 -92.551270
   vertex 49.308064 129.737503 -93.764198
   vertex 49.454510 129.030396 -93.510544
  endloop
 endfacet
 facet normal -0.650521 -0.759387 0.012360
  outer loop
   vertex 49.454510 129.030396 -93.510544
   vertex 48.942039 129.487503 -92.398178
   vertex 48.853649 129.560730 -92.551270
  endloop
 endfacet
 facet normal -0.650515 -0.759392 0.012365
  outer loop
   vertex 49.808064 128.737503 -92.898170
   vertex 48.942039 129.487503 -92.398178
   vertex 49.454510 129.030396 -93.510544
  endloop
 endfacet
 facet normal -0.191346 -0.923876 -0.331421
  outer loop
   vertex 47.996319 142.730728 -92.056290
   vertex 48.862343 142.730728 -92.556290
   vertex 48.084705 142.657501 -91.903191
  endloop
 endfacet
 facet normal -0.191346 -0.923876 -0.331421
  outer loop
   vertex 48.084705 142.657501 -91.903191
   vertex 48.862343 142.730728 -92.556290
   vertex 48.950729 142.657501 -92.403191
  endloop
 endfacet
 facet normal 0.191352 -0.923871 0.331431
  outer loop
   vertex 48.950729 142.657501 -92.403191
   vertex 48.173092 142.730728 -91.750099
   vertex 48.084705 142.657501 -91.903191
  endloop
 endfacet
 facet normal 0.191350 -0.923872 0.331429
  outer loop
   vertex 49.039120 142.730728 -92.250099
   vertex 48.173092 142.730728 -91.750099
   vertex 48.950729 142.657501 -92.403191
  endloop
 endfacet
 facet normal 0.461941 -0.382674 0.800107
  outer loop
   vertex 48.209705 142.907501 -91.686691
   vertex 48.173092 142.730728 -91.750099
   vertex 49.039120 142.730728 -92.250099
  endloop
 endfacet
 facet normal 0.461944 -0.382665 0.800109
  outer loop
   vertex 49.039120 142.730728 -92.250099
   vertex 49.075729 142.907501 -92.186691
   vertex 48.209705 142.907501 -91.686691
  endloop
 endfacet
 facet normal 0.461948 0.382645 0.800116
  outer loop
   vertex 48.209705 142.907501 -91.686691
   vertex 49.075729 142.907501 -92.186691
   vertex 48.173092 143.084290 -91.750099
  endloop
 endfacet
 facet normal 0.461948 0.382637 0.800120
  outer loop
   vertex 48.173092 143.084290 -91.750099
   vertex 49.075729 142.907501 -92.186691
   vertex 49.039120 143.084290 -92.250099
  endloop
 endfacet
 facet normal 0.191318 0.923899 0.331373
  outer loop
   vertex 49.039120 143.084290 -92.250099
   vertex 48.084705 143.157501 -91.903191
   vertex 48.173092 143.084290 -91.750099
  endloop
 endfacet
 facet normal 0.191316 0.923901 0.331369
  outer loop
   vertex 48.950729 143.157501 -92.403191
   vertex 48.084705 143.157501 -91.903191
   vertex 49.039120 143.084290 -92.250099
  endloop
 endfacet
 facet normal -0.191312 0.923904 -0.331362
  outer loop
   vertex 47.996319 143.084290 -92.056290
   vertex 48.084705 143.157501 -91.903191
   vertex 48.950729 143.157501 -92.403191
  endloop
 endfacet
 facet normal -0.191312 0.923904 -0.331362
  outer loop
   vertex 48.950729 143.157501 -92.403191
   vertex 48.862343 143.084290 -92.556290
   vertex 47.996319 143.084290 -92.056290
  endloop
 endfacet
 facet normal -0.461948 0.382645 -0.800116
  outer loop
   vertex 47.996319 143.084290 -92.056290
   vertex 48.862343 143.084290 -92.556290
   vertex 47.959705 142.907501 -92.119698
  endloop
 endfacet
 facet normal -0.461948 0.382645 -0.800116
  outer loop
   vertex 47.959705 142.907501 -92.119698
   vertex 48.862343 143.084290 -92.556290
   vertex 48.825729 142.907501 -92.619698
  endloop
 endfacet
 facet normal -0.461942 -0.382674 -0.800106
  outer loop
   vertex 48.825729 142.907501 -92.619698
   vertex 47.996319 142.730728 -92.056290
   vertex 47.959705 142.907501 -92.119698
  endloop
 endfacet
 facet normal -0.461942 -0.382674 -0.800106
  outer loop
   vertex 48.862343 142.730728 -92.556290
   vertex 47.996319 142.730728 -92.056290
   vertex 48.825729 142.907501 -92.619698
  endloop
 endfacet
endsolid