solid stl file generated from DOUG
 facet normal -0.804549 0.000000 0.593887
  outer loop
   vertex 451.026459 -649.164795 287.888855
   vertex 451.107330 -649.164795 287.998413
   vertex 451.107330 -639.915283 287.998413
  endloop
 endfacet
 facet normal -0.000000 -0.000000 1.000000
  outer loop
   vertex 451.107330 -639.915283 287.998413
   vertex 451.107330 -649.164795 287.998413
   vertex 451.210083 -639.915283 287.998413
  endloop
 endfacet
 facet normal 0.804549 0.000000 0.593887
  outer loop
   vertex 449.921906 -639.915283 287.888855
   vertex 449.841034 -639.915283 287.998413
   vertex 449.841034 -649.164795 287.998413
  endloop
 endfacet
 facet normal 0.000000 0.000000 1.000000
  outer loop
   vertex 449.841034 -649.164795 287.998413
   vertex 449.841034 -639.915283 287.998413
   vertex 449.738281 -639.915283 287.998413
  endloop
 endfacet
 facet normal 0.000000 0.000000 1.000000
  outer loop
   vertex 449.738281 -639.915283 287.998413
   vertex 449.738281 -649.164795 287.998413
   vertex 449.841034 -649.164795 287.998413
  endloop
 endfacet
 facet normal -0.358858 0.000000 0.933392
  outer loop
   vertex 449.738281 -639.915283 287.265686
   vertex 449.738281 -649.164795 287.265686
   vertex 449.769714 -639.915283 287.277771
  endloop
 endfacet
 facet normal -0.358858 -0.000000 0.933392
  outer loop
   vertex 449.769714 -639.915283 287.277771
   vertex 449.738281 -649.164795 287.265686
   vertex 449.769714 -649.164795 287.277771
  endloop
 endfacet
 facet normal -1.000000 0.000000 0.000000
  outer loop
   vertex 449.769714 -649.164795 287.277771
   vertex 449.769714 -649.164795 287.852936
   vertex 449.769714 -639.915283 287.277771
  endloop
 endfacet
 facet normal -0.804549 0.000000 0.593887
  outer loop
   vertex 451.107330 -639.915283 287.998413
   vertex 451.026459 -639.915283 287.888855
   vertex 451.026459 -649.164795 287.888855
  endloop
 endfacet
 facet normal 0.000000 0.000000 1.000000
  outer loop
   vertex 451.026459 -649.164795 287.888855
   vertex 451.026459 -639.915283 287.888855
   vertex 449.921906 -639.915283 287.888855
  endloop
 endfacet
 facet normal -0.000028 -0.000003 1.000000
  outer loop
   vertex 449.921906 -639.915283 287.888855
   vertex 449.921906 -649.164795 287.888824
   vertex 451.026459 -649.164795 287.888855
  endloop
 endfacet
 facet normal 0.804628 -0.000002 0.593780
  outer loop
   vertex 449.841034 -649.164795 287.998413
   vertex 449.921906 -649.164795 287.888824
   vertex 449.921906 -639.915283 287.888855
  endloop
 endfacet
 facet normal -1.000000 -0.000000 0.000000
  outer loop
   vertex 449.738281 -649.164795 287.998413
   vertex 449.738281 -639.915283 287.998413
   vertex 449.738281 -649.164795 287.864990
  endloop
 endfacet
 facet normal -1.000000 -0.000000 -0.000000
  outer loop
   vertex 449.738281 -649.164795 287.864990
   vertex 449.738281 -639.915283 287.998413
   vertex 449.738281 -639.915283 287.865021
  endloop
 endfacet
 facet normal -0.358068 0.000003 -0.933696
  outer loop
   vertex 449.738281 -639.915283 287.865021
   vertex 449.769714 -649.164795 287.852936
   vertex 449.738281 -649.164795 287.864990
  endloop
 endfacet
 facet normal -0.358858 0.000000 -0.933392
  outer loop
   vertex 449.769714 -639.915283 287.852936
   vertex 449.769714 -649.164795 287.852936
   vertex 449.738281 -639.915283 287.865021
  endloop
 endfacet
 facet normal -1.000000 0.000000 0.000000
  outer loop
   vertex 449.769714 -639.915283 287.277771
   vertex 449.769714 -649.164795 287.852936
   vertex 449.769714 -639.915283 287.852936
  endloop
 endfacet
 facet normal 0.000000 1.000000 0.000000
  outer loop
   vertex 451.227112 -639.376953 288.017151
   vertex 449.721252 -639.376953 287.176636
   vertex 449.721252 -639.376953 288.017120
  endloop
 endfacet
 facet normal -1.000000 -0.000000 0.000000
  outer loop
   vertex 449.721252 -639.376953 288.017120
   vertex 449.721252 -639.376953 287.176636
   vertex 449.721252 -640.376953 288.017120
  endloop
 endfacet
 facet normal 0.000000 0.000000 1.000000
  outer loop
   vertex 449.721252 -640.376953 288.017120
   vertex 451.227112 -640.376953 288.017120
   vertex 449.721252 -639.376953 288.017120
  endloop
 endfacet
 facet normal -0.000000 -1.000000 -0.000000
  outer loop
   vertex 449.721252 -640.376953 287.176636
   vertex 451.227112 -640.376953 288.017120
   vertex 449.721252 -640.376953 288.017120
  endloop
 endfacet
 facet normal 0.000000 -1.000000 -0.000000
  outer loop
   vertex 451.227112 -640.376953 287.176636
   vertex 451.227112 -640.376953 288.017120
   vertex 449.721252 -640.376953 287.176636
  endloop
 endfacet
 facet normal -0.000000 -0.000000 -1.000000
  outer loop
   vertex 449.721252 -640.376953 287.176636
   vertex 449.721252 -639.376953 287.176636
   vertex 451.227112 -640.376953 287.176636
  endloop
 endfacet
 facet normal 0.000000 0.000000 -1.000000
  outer loop
   vertex 451.227112 -640.376953 287.176636
   vertex 449.721252 -639.376953 287.176636
   vertex 451.227112 -639.376953 287.176636
  endloop
 endfacet
 facet normal -0.000000 1.000000 -0.000000
  outer loop
   vertex 451.227112 -639.376953 287.176636
   vertex 449.721252 -639.376953 287.176636
   vertex 451.227112 -639.376953 288.017151
  endloop
 endfacet
 facet normal 1.000000 -0.000000 0.000000
  outer loop
   vertex 451.227112 -639.376953 288.017151
   vertex 451.227112 -640.376953 288.017120
   vertex 451.227112 -639.376953 287.176636
  endloop
 endfacet
 facet normal -0.000020 -0.000031 1.000000
  outer loop
   vertex 449.721252 -639.376953 288.017120
   vertex 451.227112 -640.376953 288.017120
   vertex 451.227112 -639.376953 288.017151
  endloop
 endfacet
 facet normal 0.000000 1.000000 0.000000
  outer loop
   vertex 449.721252 -648.703125 288.017120
   vertex 451.227112 -648.703125 288.017120
   vertex 449.721252 -648.703125 287.176636
  endloop
 endfacet
 facet normal -0.000000 1.000000 0.000000
  outer loop
   vertex 449.721252 -648.703125 287.176636
   vertex 451.227112 -648.703125 288.017120
   vertex 451.227112 -648.703125 287.176636
  endloop
 endfacet
 facet normal 0.000000 0.000000 -1.000000
  outer loop
   vertex 451.227112 -648.703125 287.176636
   vertex 451.227112 -649.703125 287.176636
   vertex 449.721252 -648.703125 287.176636
  endloop
 endfacet
 facet normal 1.000000 -0.000000 -0.000000
  outer loop
   vertex 451.227112 -648.703125 288.017120
   vertex 451.227112 -649.703125 287.176636
   vertex 451.227112 -648.703125 287.176636
  endloop
 endfacet
 facet normal 1.000000 0.000000 0.000000
  outer loop
   vertex 451.227112 -649.703125 288.017120
   vertex 451.227112 -649.703125 287.176636
   vertex 451.227112 -648.703125 288.017120
  endloop
 endfacet
 facet normal -0.000000 -0.000000 1.000000
  outer loop
   vertex 451.227112 -648.703125 288.017120
   vertex 449.721252 -649.703125 288.017120
   vertex 451.227112 -649.703125 288.017120
  endloop
 endfacet
 facet normal 0.000000 -1.000000 0.000000
  outer loop
   vertex 451.227112 -649.703125 288.017120
   vertex 449.721252 -649.703125 288.017120
   vertex 451.227112 -649.703125 287.176636
  endloop
 endfacet
 facet normal -0.000000 -1.000000 -0.000000
  outer loop
   vertex 451.227112 -649.703125 287.176636
   vertex 449.721252 -649.703125 288.017120
   vertex 449.721252 -649.703125 287.176636
  endloop
 endfacet
 facet normal 0.000000 0.000000 -1.000000
  outer loop
   vertex 449.721252 -649.703125 287.176636
   vertex 449.721252 -648.703125 287.176636
   vertex 451.227112 -649.703125 287.176636
  endloop
 endfacet
 facet normal -1.000000 -0.000000 -0.000000
  outer loop
   vertex 449.721252 -649.703125 288.017120
   vertex 449.721252 -648.703125 287.176636
   vertex 449.721252 -649.703125 287.176636
  endloop
 endfacet
 facet normal -1.000000 0.000000 0.000000
  outer loop
   vertex 449.721252 -648.703125 288.017120
   vertex 449.721252 -648.703125 287.176636
   vertex 449.721252 -649.703125 288.017120
  endloop
 endfacet
 facet normal 0.000000 -0.000000 1.000000
  outer loop
   vertex 449.721252 -649.703125 288.017120
   vertex 451.227112 -648.703125 288.017120
   vertex 449.721252 -648.703125 288.017120
  endloop
 endfacet
 facet normal 0.000000 -0.000000 1.000000
  outer loop
   vertex 451.107330 -649.164795 287.998413
   vertex 451.210083 -649.164795 287.998413
   vertex 451.210083 -639.915283 287.998413
  endloop
 endfacet
 facet normal 1.000000 -0.000000 -0.000000
  outer loop
   vertex 451.210083 -639.915283 287.998413
   vertex 451.210083 -649.164795 287.998413
   vertex 451.210083 -649.164795 287.864990
  endloop
 endfacet
 facet normal 1.000000 0.000000 -0.000000
  outer loop
   vertex 451.210083 -649.164795 287.864990
   vertex 451.210083 -639.915283 287.865021
   vertex 451.210083 -639.915283 287.998413
  endloop
 endfacet
 facet normal 0.358068 0.000003 -0.933696
  outer loop
   vertex 451.178650 -649.164795 287.852936
   vertex 451.210083 -639.915283 287.865021
   vertex 451.210083 -649.164795 287.864990
  endloop
 endfacet
 facet normal 0.358858 0.000000 -0.933392
  outer loop
   vertex 451.178650 -639.915283 287.852936
   vertex 451.210083 -639.915283 287.865021
   vertex 451.178650 -649.164795 287.852936
  endloop
 endfacet
 facet normal 1.000000 -0.000000 -0.000000
  outer loop
   vertex 451.178650 -649.164795 287.852936
   vertex 451.178650 -649.164795 287.277771
   vertex 451.178650 -639.915283 287.852936
  endloop
 endfacet
 facet normal 1.000000 0.000000 0.000000
  outer loop
   vertex 451.178650 -639.915283 287.852936
   vertex 451.178650 -649.164795 287.277771
   vertex 451.178650 -639.915283 287.277771
  endloop
 endfacet
 facet normal 0.358858 -0.000000 0.933392
  outer loop
   vertex 451.178650 -639.915283 287.277771
   vertex 451.178650 -649.164795 287.277771
   vertex 451.210083 -649.164795 287.265686
  endloop
 endfacet
 facet normal 0.358068 -0.000003 0.933696
  outer loop
   vertex 451.210083 -649.164795 287.265686
   vertex 451.210083 -639.915283 287.265717
   vertex 451.178650 -639.915283 287.277771
  endloop
 endfacet
 facet normal 1.000000 -0.000000 -0.000000
  outer loop
   vertex 451.210083 -649.164795 287.199493
   vertex 451.210083 -639.915283 287.265717
   vertex 451.210083 -649.164795 287.265686
  endloop
 endfacet
 facet normal 1.000000 0.000000 0.000000
  outer loop
   vertex 451.210083 -639.915283 287.199493
   vertex 451.210083 -639.915283 287.265717
   vertex 451.210083 -649.164795 287.199493
  endloop
 endfacet
 facet normal -0.000000 -0.000000 -1.000000
  outer loop
   vertex 451.210083 -649.164795 287.199493
   vertex 449.738281 -649.164795 287.199493
   vertex 451.210083 -639.915283 287.199493
  endloop
 endfacet
 facet normal 0.000000 0.000000 -1.000000
  outer loop
   vertex 451.210083 -639.915283 287.199493
   vertex 449.738281 -649.164795 287.199493
   vertex 449.738281 -639.915283 287.199493
  endloop
 endfacet
 facet normal -1.000000 -0.000000 -0.000000
  outer loop
   vertex 449.738281 -639.915283 287.199493
   vertex 449.738281 -649.164795 287.199493
   vertex 449.738281 -639.915283 287.265686
  endloop
 endfacet
 facet normal -1.000000 0.000000 0.000000
  outer loop
   vertex 449.721252 -640.376953 287.176636
   vertex 449.721252 -640.376953 288.017120
   vertex 449.721252 -639.376953 287.176636
  endloop
 endfacet
 facet normal 1.000000 0.000000 0.000000
  outer loop
   vertex 451.227112 -640.376953 288.017120
   vertex 451.227112 -640.376953 287.176636
   vertex 451.227112 -639.376953 287.176636
  endloop
 endfacet
 facet normal -1.000000 0.000000 0.000000
  outer loop
   vertex 449.738281 -649.164795 287.199493
   vertex 449.738281 -649.164795 287.265686
   vertex 449.738281 -639.915283 287.265686
  endloop
 endfacet
 facet normal 0.382692 -0.923876 0.000000
  outer loop
   vertex 450.474182 -650.215027 285.236084
   vertex 450.474182 -650.215027 284.236084
   vertex 451.181305 -649.922119 285.236084
  endloop
 endfacet
 facet normal 0.382692 -0.923876 -0.000000
  outer loop
   vertex 451.181305 -649.922119 285.236084
   vertex 450.474182 -650.215027 284.236084
   vertex 451.181305 -649.922119 284.236084
  endloop
 endfacet
 facet normal 0.923884 -0.382672 0.000000
  outer loop
   vertex 451.181305 -649.922119 284.236084
   vertex 451.474182 -649.215027 285.236084
   vertex 451.181305 -649.922119 285.236084
  endloop
 endfacet
 facet normal 0.923884 -0.382672 -0.000000
  outer loop
   vertex 451.474182 -649.215027 284.236084
   vertex 451.474182 -649.215027 285.236084
   vertex 451.181305 -649.922119 284.236084
  endloop
 endfacet
 facet normal 0.923884 0.382672 0.000000
  outer loop
   vertex 451.181305 -648.507935 285.236084
   vertex 451.474182 -649.215027 285.236084
   vertex 451.474182 -649.215027 284.236084
  endloop
 endfacet
 facet normal 0.923884 0.382672 -0.000000
  outer loop
   vertex 451.474182 -649.215027 284.236084
   vertex 451.181305 -648.507935 284.236084
   vertex 451.181305 -648.507935 285.236084
  endloop
 endfacet
 facet normal 0.382692 0.923876 -0.000000
  outer loop
   vertex 451.181305 -648.507935 285.236084
   vertex 451.181305 -648.507935 284.236084
   vertex 450.474182 -648.215027 285.236084
  endloop
 endfacet
 facet normal 0.382692 0.923876 -0.000000
  outer loop
   vertex 450.474182 -648.215027 285.236084
   vertex 451.181305 -648.507935 284.236084
   vertex 450.474182 -648.215027 284.236084
  endloop
 endfacet
 facet normal -0.382706 0.923870 0.000000
  outer loop
   vertex 450.474182 -648.215027 284.236084
   vertex 449.767090 -648.507935 285.236084
   vertex 450.474182 -648.215027 285.236084
  endloop
 endfacet
 facet normal -0.382706 0.923870 -0.000000
  outer loop
   vertex 449.767090 -648.507935 284.236084
   vertex 449.767090 -648.507935 285.236084
   vertex 450.474182 -648.215027 284.236084
  endloop
 endfacet
 facet normal -0.923870 0.382706 0.000000
  outer loop
   vertex 449.474182 -649.215027 285.236084
   vertex 449.767090 -648.507935 285.236084
   vertex 449.767090 -648.507935 284.236084
  endloop
 endfacet
 facet normal -0.923870 0.382706 -0.000000
  outer loop
   vertex 449.767090 -648.507935 284.236084
   vertex 449.474182 -649.215027 284.236084
   vertex 449.474182 -649.215027 285.236084
  endloop
 endfacet
 facet normal -0.923870 -0.382706 0.000000
  outer loop
   vertex 449.474182 -649.215027 285.236084
   vertex 449.474182 -649.215027 284.236084
   vertex 449.767090 -649.922119 285.236084
  endloop
 endfacet
 facet normal -0.923870 -0.382706 -0.000000
  outer loop
   vertex 449.767090 -649.922119 285.236084
   vertex 449.474182 -649.215027 284.236084
   vertex 449.767090 -649.922119 284.236084
  endloop
 endfacet
 facet normal -0.382706 -0.923870 0.000000
  outer loop
   vertex 449.767090 -649.922119 284.236084
   vertex 450.474182 -650.215027 285.236084
   vertex 449.767090 -649.922119 285.236084
  endloop
 endfacet
 facet normal -0.382706 -0.923870 -0.000000
  outer loop
   vertex 450.474182 -650.215027 284.236084
   vertex 450.474182 -650.215027 285.236084
   vertex 449.767090 -649.922119 284.236084
  endloop
 endfacet
 facet normal -0.382474 0.923966 0.000000
  outer loop
   vertex 450.297394 -639.688232 286.226044
   vertex 450.474182 -639.615051 287.226044
   vertex 450.474182 -639.615051 286.226044
  endloop
 endfacet
 facet normal 0.382474 0.923966 0.000000
  outer loop
   vertex 450.474182 -639.615051 286.226044
   vertex 450.474182 -639.615051 287.226044
   vertex 450.650970 -639.688232 287.226044
  endloop
 endfacet
 facet normal 0.382474 0.923966 -0.000000
  outer loop
   vertex 450.650970 -639.688232 287.226044
   vertex 450.650970 -639.688232 286.226044
   vertex 450.474182 -639.615051 286.226044
  endloop
 endfacet
 facet normal 0.923933 0.382554 -0.000000
  outer loop
   vertex 450.724182 -639.865051 287.226044
   vertex 450.650970 -639.688232 286.226044
   vertex 450.650970 -639.688232 287.226044
  endloop
 endfacet
 facet normal 0.923933 0.382554 0.000000
  outer loop
   vertex 450.724182 -639.865051 286.226044
   vertex 450.650970 -639.688232 286.226044
   vertex 450.724182 -639.865051 287.226044
  endloop
 endfacet
 facet normal 0.923887 -0.382666 -0.000000
  outer loop
   vertex 450.724182 -639.865051 287.226044
   vertex 450.650970 -640.041809 287.226044
   vertex 450.724182 -639.865051 286.226044
  endloop
 endfacet
 facet normal 0.923887 -0.382666 0.000000
  outer loop
   vertex 450.724182 -639.865051 286.226044
   vertex 450.650970 -640.041809 287.226044
   vertex 450.650970 -640.041809 286.226044
  endloop
 endfacet
 facet normal 0.382746 -0.923854 -0.000000
  outer loop
   vertex 450.650970 -640.041809 286.226044
   vertex 450.650970 -640.041809 287.226044
   vertex 450.474182 -640.115051 287.226044
  endloop
 endfacet
 facet normal 0.382746 -0.923854 0.000000
  outer loop
   vertex 450.474182 -640.115051 287.226044
   vertex 450.474182 -640.115051 286.226044
   vertex 450.650970 -640.041809 286.226044
  endloop
 endfacet
 facet normal -0.382746 -0.923854 0.000000
  outer loop
   vertex 450.297394 -640.041809 287.226044
   vertex 450.474182 -640.115051 286.226044
   vertex 450.474182 -640.115051 287.226044
  endloop
 endfacet
 facet normal -0.382746 -0.923854 0.000000
  outer loop
   vertex 450.297394 -640.041809 286.226044
   vertex 450.474182 -640.115051 286.226044
   vertex 450.297394 -640.041809 287.226044
  endloop
 endfacet
 facet normal -0.923887 -0.382666 -0.000000
  outer loop
   vertex 450.297394 -640.041809 287.226044
   vertex 450.224182 -639.865051 287.226044
   vertex 450.297394 -640.041809 286.226044
  endloop
 endfacet
 facet normal -0.923887 -0.382666 -0.000000
  outer loop
   vertex 450.297394 -640.041809 286.226044
   vertex 450.224182 -639.865051 287.226044
   vertex 450.224182 -639.865051 286.226044
  endloop
 endfacet
 facet normal -0.923933 0.382554 -0.000000
  outer loop
   vertex 450.224182 -639.865051 286.226044
   vertex 450.224182 -639.865051 287.226044
   vertex 450.297394 -639.688232 287.226044
  endloop
 endfacet
 facet normal -0.923933 0.382554 0.000000
  outer loop
   vertex 450.297394 -639.688232 287.226044
   vertex 450.297394 -639.688232 286.226044
   vertex 450.224182 -639.865051 286.226044
  endloop
 endfacet
 facet normal -0.382474 0.923966 -0.000000
  outer loop
   vertex 450.474182 -639.615051 287.226044
   vertex 450.297394 -639.688232 286.226044
   vertex 450.297394 -639.688232 287.226044
  endloop
 endfacet
 facet normal -0.382706 0.923870 0.000000
  outer loop
   vertex 449.767090 -639.157959 284.236084
   vertex 450.474182 -638.865051 285.236084
   vertex 450.474182 -638.865051 284.236084
  endloop
 endfacet
 facet normal 0.382692 0.923876 0.000000
  outer loop
   vertex 450.474182 -638.865051 284.236084
   vertex 450.474182 -638.865051 285.236084
   vertex 451.181305 -639.157959 285.236084
  endloop
 endfacet
 facet normal 0.382692 0.923876 -0.000000
  outer loop
   vertex 451.181305 -639.157959 285.236084
   vertex 451.181305 -639.157959 284.236084
   vertex 450.474182 -638.865051 284.236084
  endloop
 endfacet
 facet normal 0.923884 0.382672 -0.000000
  outer loop
   vertex 451.474182 -639.865051 285.236084
   vertex 451.181305 -639.157959 284.236084
   vertex 451.181305 -639.157959 285.236084
  endloop
 endfacet
 facet normal 0.923884 0.382672 0.000000
  outer loop
   vertex 451.474182 -639.865051 284.236084
   vertex 451.181305 -639.157959 284.236084
   vertex 451.474182 -639.865051 285.236084
  endloop
 endfacet
 facet normal 0.923884 -0.382672 -0.000000
  outer loop
   vertex 451.474182 -639.865051 285.236084
   vertex 451.181305 -640.572144 285.236084
   vertex 451.474182 -639.865051 284.236084
  endloop
 endfacet
 facet normal 0.923884 -0.382672 0.000000
  outer loop
   vertex 451.474182 -639.865051 284.236084
   vertex 451.181305 -640.572144 285.236084
   vertex 451.181305 -640.572144 284.236084
  endloop
 endfacet
 facet normal 0.382692 -0.923876 -0.000000
  outer loop
   vertex 451.181305 -640.572144 284.236084
   vertex 451.181305 -640.572144 285.236084
   vertex 450.474182 -640.865051 285.236084
  endloop
 endfacet
 facet normal 0.382692 -0.923876 0.000000
  outer loop
   vertex 450.474182 -640.865051 285.236084
   vertex 450.474182 -640.865051 284.236084
   vertex 451.181305 -640.572144 284.236084
  endloop
 endfacet
 facet normal -0.382706 -0.923870 0.000000
  outer loop
   vertex 449.767090 -640.572144 285.236084
   vertex 450.474182 -640.865051 284.236084
   vertex 450.474182 -640.865051 285.236084
  endloop
 endfacet
 facet normal -0.382706 -0.923870 0.000000
  outer loop
   vertex 449.767090 -640.572144 284.236084
   vertex 450.474182 -640.865051 284.236084
   vertex 449.767090 -640.572144 285.236084
  endloop
 endfacet
 facet normal -0.923870 -0.382706 -0.000000
  outer loop
   vertex 449.767090 -640.572144 285.236084
   vertex 449.474182 -639.865051 285.236084
   vertex 449.767090 -640.572144 284.236084
  endloop
 endfacet
 facet normal -0.923870 -0.382706 -0.000000
  outer loop
   vertex 449.767090 -640.572144 284.236084
   vertex 449.474182 -639.865051 285.236084
   vertex 449.474182 -639.865051 284.236084
  endloop
 endfacet
 facet normal -0.923870 0.382706 -0.000000
  outer loop
   vertex 449.474182 -639.865051 284.236084
   vertex 449.474182 -639.865051 285.236084
   vertex 449.767090 -639.157959 285.236084
  endloop
 endfacet
 facet normal -0.923870 0.382706 0.000000
  outer loop
   vertex 449.767090 -639.157959 285.236084
   vertex 449.767090 -639.157959 284.236084
   vertex 449.474182 -639.865051 284.236084
  endloop
 endfacet
 facet normal -0.382706 0.923870 -0.000000
  outer loop
   vertex 450.474182 -638.865051 285.236084
   vertex 449.767090 -639.157959 284.236084
   vertex 449.767090 -639.157959 285.236084
  endloop
 endfacet
 facet normal -0.314571 0.759387 0.569540
  outer loop
   vertex 449.767090 -639.157959 285.236084
   vertex 450.474182 -639.615051 286.236084
   vertex 450.474182 -638.865051 285.236084
  endloop
 endfacet
 facet normal 0.314369 0.759441 0.569581
  outer loop
   vertex 450.474182 -638.865051 285.236084
   vertex 450.474182 -639.615051 286.236084
   vertex 450.650970 -639.688232 286.236084
  endloop
 endfacet
 facet normal 0.314565 0.759407 0.569518
  outer loop
   vertex 450.650970 -639.688232 286.236084
   vertex 451.181305 -639.157959 285.236084
   vertex 450.474182 -638.865051 285.236084
  endloop
 endfacet
 facet normal 0.759457 0.314453 0.569512
  outer loop
   vertex 450.724182 -639.865051 286.236084
   vertex 451.181305 -639.157959 285.236084
   vertex 450.650970 -639.688232 286.236084
  endloop
 endfacet
 facet normal 0.759395 0.314541 0.569546
  outer loop
   vertex 451.474182 -639.865051 285.236084
   vertex 451.181305 -639.157959 285.236084
   vertex 450.724182 -639.865051 286.236084
  endloop
 endfacet
 facet normal 0.759396 -0.314536 0.569547
  outer loop
   vertex 450.724182 -639.865051 286.236084
   vertex 450.650970 -640.041809 286.236084
   vertex 451.474182 -639.865051 285.236084
  endloop
 endfacet
 facet normal 0.759396 -0.314541 0.569546
  outer loop
   vertex 451.474182 -639.865051 285.236084
   vertex 450.650970 -640.041809 286.236084
   vertex 451.181305 -640.572144 285.236084
  endloop
 endfacet
 facet normal 0.314599 -0.759362 0.569558
  outer loop
   vertex 451.181305 -640.572144 285.236084
   vertex 450.650970 -640.041809 286.236084
   vertex 450.474182 -640.115051 286.236084
  endloop
 endfacet
 facet normal 0.314558 -0.759391 0.569543
  outer loop
   vertex 450.474182 -640.115051 286.236084
   vertex 450.474182 -640.865051 285.236084
   vertex 451.181305 -640.572144 285.236084
  endloop
 endfacet
 facet normal -0.314605 -0.759378 0.569534
  outer loop
   vertex 450.297394 -640.041809 286.236084
   vertex 450.474182 -640.865051 285.236084
   vertex 450.474182 -640.115051 286.236084
  endloop
 endfacet
 facet normal -0.314569 -0.759384 0.569545
  outer loop
   vertex 449.767090 -640.572144 285.236084
   vertex 450.474182 -640.865051 285.236084
   vertex 450.297394 -640.041809 286.236084
  endloop
 endfacet
 facet normal -0.759408 -0.314541 0.569529
  outer loop
   vertex 450.297394 -640.041809 286.236084
   vertex 450.224182 -639.865051 286.236084
   vertex 449.767090 -640.572144 285.236084
  endloop
 endfacet
 facet normal -0.759387 -0.314571 0.569540
  outer loop
   vertex 449.767090 -640.572144 285.236084
   vertex 450.224182 -639.865051 286.236084
   vertex 449.474182 -639.865051 285.236084
  endloop
 endfacet
 facet normal -0.759422 0.314438 0.569567
  outer loop
   vertex 449.474182 -639.865051 285.236084
   vertex 450.224182 -639.865051 286.236084
   vertex 450.297394 -639.688232 286.236084
  endloop
 endfacet
 facet normal -0.759399 0.314575 0.569523
  outer loop
   vertex 450.297394 -639.688232 286.236084
   vertex 449.767090 -639.157959 285.236084
   vertex 449.474182 -639.865051 285.236084
  endloop
 endfacet
 facet normal -0.314397 0.759509 0.569474
  outer loop
   vertex 450.474182 -639.615051 286.236084
   vertex 449.767090 -639.157959 285.236084
   vertex 450.297394 -639.688232 286.236084
  endloop
 endfacet
 facet normal 0.382474 -0.923966 0.000000
  outer loop
   vertex 450.474182 -649.465027 287.226044
   vertex 450.474182 -649.465027 286.226044
   vertex 450.650970 -649.391846 287.226044
  endloop
 endfacet
 facet normal 0.382746 -0.923854 -0.000056
  outer loop
   vertex 450.650970 -649.391846 287.226044
   vertex 450.474182 -649.465027 286.226044
   vertex 450.650970 -649.391785 286.226044
  endloop
 endfacet
 facet normal 0.923933 -0.382554 -0.000023
  outer loop
   vertex 450.650970 -649.391785 286.226044
   vertex 450.724182 -649.215027 287.226044
   vertex 450.650970 -649.391846 287.226044
  endloop
 endfacet
 facet normal 0.923887 -0.382666 -0.000000
  outer loop
   vertex 450.724182 -649.215027 286.226044
   vertex 450.724182 -649.215027 287.226044
   vertex 450.650970 -649.391785 286.226044
  endloop
 endfacet
 facet normal 0.923887 0.382666 0.000000
  outer loop
   vertex 450.650970 -649.038269 287.226044
   vertex 450.724182 -649.215027 287.226044
   vertex 450.724182 -649.215027 286.226044
  endloop
 endfacet
 facet normal 0.923887 0.382666 -0.000000
  outer loop
   vertex 450.724182 -649.215027 286.226044
   vertex 450.650970 -649.038269 286.226044
   vertex 450.650970 -649.038269 287.226044
  endloop
 endfacet
 facet normal 0.382746 0.923854 -0.000000
  outer loop
   vertex 450.650970 -649.038269 287.226044
   vertex 450.650970 -649.038269 286.226044
   vertex 450.474182 -648.965027 287.226044
  endloop
 endfacet
 facet normal 0.382746 0.923854 -0.000000
  outer loop
   vertex 450.474182 -648.965027 287.226044
   vertex 450.650970 -649.038269 286.226044
   vertex 450.474182 -648.965027 286.226044
  endloop
 endfacet
 facet normal -0.382746 0.923854 0.000000
  outer loop
   vertex 450.474182 -648.965027 286.226044
   vertex 450.297394 -649.038269 287.226044
   vertex 450.474182 -648.965027 287.226044
  endloop
 endfacet
 facet normal -0.382746 0.923854 -0.000000
  outer loop
   vertex 450.297394 -649.038269 286.226044
   vertex 450.297394 -649.038269 287.226044
   vertex 450.474182 -648.965027 286.226044
  endloop
 endfacet
 facet normal -0.923887 0.382666 0.000000
  outer loop
   vertex 450.224182 -649.215027 287.226044
   vertex 450.297394 -649.038269 287.226044
   vertex 450.297394 -649.038269 286.226044
  endloop
 endfacet
 facet normal -0.923887 0.382666 -0.000000
  outer loop
   vertex 450.297394 -649.038269 286.226044
   vertex 450.224182 -649.215027 286.226044
   vertex 450.224182 -649.215027 287.226044
  endloop
 endfacet
 facet normal -0.923887 -0.382666 0.000000
  outer loop
   vertex 450.224182 -649.215027 287.226044
   vertex 450.224182 -649.215027 286.226044
   vertex 450.297394 -649.391785 287.226044
  endloop
 endfacet
 facet normal -0.923887 -0.382666 -0.000000
  outer loop
   vertex 450.297394 -649.391785 287.226044
   vertex 450.224182 -649.215027 286.226044
   vertex 450.297394 -649.391785 286.226044
  endloop
 endfacet
 facet normal -0.382746 -0.923854 0.000000
  outer loop
   vertex 450.297394 -649.391785 286.226044
   vertex 450.474182 -649.465027 287.226044
   vertex 450.297394 -649.391785 287.226044
  endloop
 endfacet
 facet normal -0.382746 -0.923854 -0.000000
  outer loop
   vertex 450.474182 -649.465027 286.226044
   vertex 450.474182 -649.465027 287.226044
   vertex 450.297394 -649.391785 286.226044
  endloop
 endfacet
 facet normal -0.314600 -0.759366 0.569552
  outer loop
   vertex 450.297394 -649.391785 286.236084
   vertex 449.767090 -649.922119 285.236084
   vertex 450.474182 -649.465027 286.236084
  endloop
 endfacet
 facet normal -0.314571 -0.759387 0.569540
  outer loop
   vertex 450.474182 -649.465027 286.236084
   vertex 449.767090 -649.922119 285.236084
   vertex 450.474182 -650.215027 285.236084
  endloop
 endfacet
 facet normal 0.314605 -0.759378 0.569534
  outer loop
   vertex 450.474182 -650.215027 285.236084
   vertex 450.650970 -649.391785 286.236084
   vertex 450.474182 -649.465027 286.236084
  endloop
 endfacet
 facet normal 0.314557 -0.759387 0.569549
  outer loop
   vertex 451.181305 -649.922119 285.236084
   vertex 450.650970 -649.391785 286.236084
   vertex 450.474182 -650.215027 285.236084
  endloop
 endfacet
 facet normal 0.759398 -0.314537 0.569545
  outer loop
   vertex 450.724182 -649.215027 286.236084
   vertex 450.650970 -649.391785 286.236084
   vertex 451.181305 -649.922119 285.236084
  endloop
 endfacet
 facet normal 0.759395 -0.314541 0.569546
  outer loop
   vertex 451.181305 -649.922119 285.236084
   vertex 451.474182 -649.215027 285.236084
   vertex 450.724182 -649.215027 286.236084
  endloop
 endfacet
 facet normal 0.759396 0.314536 0.569547
  outer loop
   vertex 450.724182 -649.215027 286.236084
   vertex 451.474182 -649.215027 285.236084
   vertex 450.650970 -649.038269 286.236084
  endloop
 endfacet
 facet normal 0.759396 0.314541 0.569546
  outer loop
   vertex 450.650970 -649.038269 286.236084
   vertex 451.474182 -649.215027 285.236084
   vertex 451.181305 -648.507935 285.236084
  endloop
 endfacet
 facet normal 0.314599 0.759362 0.569558
  outer loop
   vertex 451.181305 -648.507935 285.236084
   vertex 450.474182 -648.965027 286.236084
   vertex 450.650970 -649.038269 286.236084
  endloop
 endfacet
 facet normal 0.314558 0.759391 0.569543
  outer loop
   vertex 450.474182 -648.215027 285.236084
   vertex 450.474182 -648.965027 286.236084
   vertex 451.181305 -648.507935 285.236084
  endloop
 endfacet
 facet normal -0.314605 0.759378 0.569534
  outer loop
   vertex 450.297394 -649.038269 286.236084
   vertex 450.474182 -648.965027 286.236084
   vertex 450.474182 -648.215027 285.236084
  endloop
 endfacet
 facet normal -0.314569 0.759384 0.569545
  outer loop
   vertex 450.474182 -648.215027 285.236084
   vertex 449.767090 -648.507935 285.236084
   vertex 450.297394 -649.038269 286.236084
  endloop
 endfacet
 facet normal -0.759408 0.314541 0.569529
  outer loop
   vertex 450.297394 -649.038269 286.236084
   vertex 449.767090 -648.507935 285.236084
   vertex 450.224182 -649.215027 286.236084
  endloop
 endfacet
 facet normal -0.759387 0.314571 0.569540
  outer loop
   vertex 450.224182 -649.215027 286.236084
   vertex 449.767090 -648.507935 285.236084
   vertex 449.474182 -649.215027 285.236084
  endloop
 endfacet
 facet normal -0.759396 -0.314536 0.569547
  outer loop
   vertex 449.474182 -649.215027 285.236084
   vertex 450.297394 -649.391785 286.236084
   vertex 450.224182 -649.215027 286.236084
  endloop
 endfacet
 facet normal -0.759390 -0.314572 0.569536
  outer loop
   vertex 449.767090 -649.922119 285.236084
   vertex 450.297394 -649.391785 286.236084
   vertex 449.474182 -649.215027 285.236084
  endloop
 endfacet
endsolid