solid stl file generated from DOUG
 facet normal 0.804549 0.000000 0.593887
  outer loop
   vertex 443.967590 -664.625244 300.352478
   vertex 443.886719 -664.625244 300.462036
   vertex 443.886719 -673.874756 300.462036
  endloop
 endfacet
 facet normal -0.000000 0.000000 1.000000
  outer loop
   vertex 443.886719 -673.874756 300.462036
   vertex 443.886719 -664.625244 300.462036
   vertex 443.783966 -673.874756 300.462036
  endloop
 endfacet
 facet normal -0.804549 0.000000 0.593887
  outer loop
   vertex 445.072144 -673.874756 300.352478
   vertex 445.153015 -673.874756 300.462036
   vertex 445.153015 -664.625244 300.462036
  endloop
 endfacet
 facet normal -0.000000 -0.000000 1.000000
  outer loop
   vertex 445.153015 -664.625244 300.462036
   vertex 445.153015 -673.874756 300.462036
   vertex 445.255768 -673.874756 300.462036
  endloop
 endfacet
 facet normal 0.000000 0.000000 1.000000
  outer loop
   vertex 445.255768 -673.874756 300.462036
   vertex 445.255768 -664.625244 300.462036
   vertex 445.153015 -664.625244 300.462036
  endloop
 endfacet
 facet normal 0.358858 -0.000003 0.933392
  outer loop
   vertex 445.255768 -673.874756 299.729309
   vertex 445.255768 -664.625244 299.729340
   vertex 445.224335 -673.874756 299.741394
  endloop
 endfacet
 facet normal 0.358068 -0.000000 0.933696
  outer loop
   vertex 445.224335 -673.874756 299.741394
   vertex 445.255768 -664.625244 299.729340
   vertex 445.224335 -664.625244 299.741394
  endloop
 endfacet
 facet normal 1.000000 0.000000 0.000000
  outer loop
   vertex 445.224335 -664.625244 299.741394
   vertex 445.224335 -664.625244 300.316559
   vertex 445.224335 -673.874756 299.741394
  endloop
 endfacet
 facet normal 0.804628 -0.000002 0.593780
  outer loop
   vertex 443.886719 -673.874756 300.462036
   vertex 443.967590 -673.874756 300.352448
   vertex 443.967590 -664.625244 300.352478
  endloop
 endfacet
 facet normal -0.000028 -0.000003 1.000000
  outer loop
   vertex 443.967590 -664.625244 300.352478
   vertex 443.967590 -673.874756 300.352448
   vertex 445.072144 -673.874756 300.352478
  endloop
 endfacet
 facet normal 0.000000 0.000000 1.000000
  outer loop
   vertex 445.072144 -673.874756 300.352478
   vertex 445.072144 -664.625244 300.352478
   vertex 443.967590 -664.625244 300.352478
  endloop
 endfacet
 facet normal -0.804549 -0.000000 0.593887
  outer loop
   vertex 445.153015 -664.625244 300.462036
   vertex 445.072144 -664.625244 300.352478
   vertex 445.072144 -673.874756 300.352478
  endloop
 endfacet
 facet normal 1.000000 -0.000000 0.000000
  outer loop
   vertex 445.255768 -664.625244 300.462036
   vertex 445.255768 -673.874756 300.462036
   vertex 445.255768 -664.625244 300.328644
  endloop
 endfacet
 facet normal 1.000000 -0.000000 -0.000000
  outer loop
   vertex 445.255768 -664.625244 300.328644
   vertex 445.255768 -673.874756 300.462036
   vertex 445.255768 -673.874756 300.328613
  endloop
 endfacet
 facet normal 0.358858 0.000003 -0.933392
  outer loop
   vertex 445.255768 -673.874756 300.328613
   vertex 445.224335 -664.625244 300.316559
   vertex 445.255768 -664.625244 300.328644
  endloop
 endfacet
 facet normal 0.358068 -0.000000 -0.933696
  outer loop
   vertex 445.224335 -673.874756 300.316559
   vertex 445.224335 -664.625244 300.316559
   vertex 445.255768 -673.874756 300.328613
  endloop
 endfacet
 facet normal 1.000000 0.000000 0.000000
  outer loop
   vertex 445.224335 -673.874756 299.741394
   vertex 445.224335 -664.625244 300.316559
   vertex 445.224335 -673.874756 300.316559
  endloop
 endfacet
 facet normal 0.000000 -1.000000 0.000000
  outer loop
   vertex 443.766937 -674.413086 300.480743
   vertex 445.272797 -674.413086 299.640259
   vertex 445.272797 -674.413086 300.480743
  endloop
 endfacet
 facet normal 1.000000 -0.000000 -0.000000
  outer loop
   vertex 445.272797 -674.413086 300.480743
   vertex 445.272797 -674.413086 299.640259
   vertex 445.272797 -673.413086 300.480743
  endloop
 endfacet
 facet normal -0.000000 0.000000 1.000000
  outer loop
   vertex 445.272797 -673.413086 300.480743
   vertex 443.766937 -673.413086 300.480743
   vertex 445.272797 -674.413086 300.480743
  endloop
 endfacet
 facet normal -0.000000 1.000000 -0.000000
  outer loop
   vertex 445.272797 -673.413086 299.640259
   vertex 443.766937 -673.413086 300.480743
   vertex 445.272797 -673.413086 300.480743
  endloop
 endfacet
 facet normal 0.000000 1.000000 0.000000
  outer loop
   vertex 443.766937 -673.413086 299.640259
   vertex 443.766937 -673.413086 300.480743
   vertex 445.272797 -673.413086 299.640259
  endloop
 endfacet
 facet normal -0.000000 0.000000 -1.000000
  outer loop
   vertex 445.272797 -673.413086 299.640259
   vertex 445.272797 -674.413086 299.640259
   vertex 443.766937 -673.413086 299.640259
  endloop
 endfacet
 facet normal 0.000000 0.000000 -1.000000
  outer loop
   vertex 443.766937 -673.413086 299.640259
   vertex 445.272797 -674.413086 299.640259
   vertex 443.766937 -674.413086 299.640259
  endloop
 endfacet
 facet normal -0.000000 -1.000000 -0.000000
  outer loop
   vertex 443.766937 -674.413086 299.640259
   vertex 445.272797 -674.413086 299.640259
   vertex 443.766937 -674.413086 300.480743
  endloop
 endfacet
 facet normal -1.000000 -0.000000 0.000000
  outer loop
   vertex 443.766937 -674.413086 300.480743
   vertex 443.766937 -673.413086 300.480743
   vertex 443.766937 -674.413086 299.640259
  endloop
 endfacet
 facet normal -0.000000 -0.000000 1.000000
  outer loop
   vertex 445.272797 -674.413086 300.480743
   vertex 443.766937 -673.413086 300.480743
   vertex 443.766937 -674.413086 300.480743
  endloop
 endfacet
 facet normal 0.000000 -1.000000 0.000000
  outer loop
   vertex 445.272797 -665.086914 300.480743
   vertex 443.766937 -665.086914 300.480743
   vertex 445.272797 -665.086914 299.640259
  endloop
 endfacet
 facet normal -0.000000 -1.000000 -0.000000
  outer loop
   vertex 445.272797 -665.086914 299.640259
   vertex 443.766937 -665.086914 300.480743
   vertex 443.766937 -665.086914 299.640259
  endloop
 endfacet
 facet normal 0.000000 0.000000 -1.000000
  outer loop
   vertex 443.766937 -665.086914 299.640259
   vertex 443.766937 -664.086914 299.640259
   vertex 445.272797 -665.086914 299.640259
  endloop
 endfacet
 facet normal -1.000000 -0.000000 -0.000000
  outer loop
   vertex 443.766937 -665.086914 300.480743
   vertex 443.766937 -664.086914 299.640259
   vertex 443.766937 -665.086914 299.640259
  endloop
 endfacet
 facet normal -1.000000 0.000000 0.000000
  outer loop
   vertex 443.766937 -664.086914 300.480743
   vertex 443.766937 -664.086914 299.640259
   vertex 443.766937 -665.086914 300.480743
  endloop
 endfacet
 facet normal -0.000020 -0.000000 1.000000
  outer loop
   vertex 443.766937 -665.086914 300.480743
   vertex 445.272797 -664.086914 300.480774
   vertex 443.766937 -664.086914 300.480743
  endloop
 endfacet
 facet normal 0.000000 1.000000 0.000000
  outer loop
   vertex 443.766937 -664.086914 300.480743
   vertex 445.272797 -664.086914 300.480774
   vertex 443.766937 -664.086914 299.640259
  endloop
 endfacet
 facet normal -0.000000 1.000000 0.000000
  outer loop
   vertex 443.766937 -664.086914 299.640259
   vertex 445.272797 -664.086914 300.480774
   vertex 445.272797 -664.086914 299.640259
  endloop
 endfacet
 facet normal 0.000000 0.000000 -1.000000
  outer loop
   vertex 445.272797 -664.086914 299.640259
   vertex 445.272797 -665.086914 299.640259
   vertex 443.766937 -664.086914 299.640259
  endloop
 endfacet
 facet normal 1.000000 -0.000000 -0.000000
  outer loop
   vertex 445.272797 -664.086914 300.480774
   vertex 445.272797 -665.086914 299.640259
   vertex 445.272797 -664.086914 299.640259
  endloop
 endfacet
 facet normal 1.000000 0.000000 0.000000
  outer loop
   vertex 445.272797 -665.086914 300.480743
   vertex 445.272797 -665.086914 299.640259
   vertex 445.272797 -664.086914 300.480774
  endloop
 endfacet
 facet normal -0.000000 -0.000031 1.000000
  outer loop
   vertex 445.272797 -664.086914 300.480774
   vertex 443.766937 -665.086914 300.480743
   vertex 445.272797 -665.086914 300.480743
  endloop
 endfacet
 facet normal -0.000000 0.000000 1.000000
  outer loop
   vertex 443.886719 -664.625244 300.462036
   vertex 443.783966 -664.625244 300.462036
   vertex 443.783966 -673.874756 300.462036
  endloop
 endfacet
 facet normal -1.000000 -0.000000 -0.000000
  outer loop
   vertex 443.783966 -673.874756 300.462036
   vertex 443.783966 -664.625244 300.462036
   vertex 443.783966 -664.625244 300.328644
  endloop
 endfacet
 facet normal -1.000000 0.000000 0.000000
  outer loop
   vertex 443.783966 -664.625244 300.328644
   vertex 443.783966 -673.874756 300.328613
   vertex 443.783966 -673.874756 300.462036
  endloop
 endfacet
 facet normal -0.358858 0.000003 -0.933392
  outer loop
   vertex 443.815399 -664.625244 300.316559
   vertex 443.783966 -673.874756 300.328613
   vertex 443.783966 -664.625244 300.328644
  endloop
 endfacet
 facet normal -0.358068 0.000000 -0.933696
  outer loop
   vertex 443.815399 -673.874756 300.316559
   vertex 443.783966 -673.874756 300.328613
   vertex 443.815399 -664.625244 300.316559
  endloop
 endfacet
 facet normal -1.000000 -0.000000 0.000000
  outer loop
   vertex 443.815399 -664.625244 300.316559
   vertex 443.815399 -664.625244 299.741394
   vertex 443.815399 -673.874756 300.316559
  endloop
 endfacet
 facet normal -1.000000 0.000000 0.000000
  outer loop
   vertex 443.815399 -673.874756 300.316559
   vertex 443.815399 -664.625244 299.741394
   vertex 443.815399 -673.874756 299.741394
  endloop
 endfacet
 facet normal -0.358858 -0.000000 0.933392
  outer loop
   vertex 443.815399 -673.874756 299.741394
   vertex 443.815399 -664.625244 299.741394
   vertex 443.783966 -664.625244 299.729309
  endloop
 endfacet
 facet normal -0.358858 0.000000 0.933392
  outer loop
   vertex 443.783966 -664.625244 299.729309
   vertex 443.783966 -673.874756 299.729309
   vertex 443.815399 -673.874756 299.741394
  endloop
 endfacet
 facet normal -1.000000 0.000000 -0.000000
  outer loop
   vertex 443.783966 -664.625244 299.663116
   vertex 443.783966 -673.874756 299.729309
   vertex 443.783966 -664.625244 299.729309
  endloop
 endfacet
 facet normal -1.000000 0.000000 0.000000
  outer loop
   vertex 443.783966 -673.874756 299.663116
   vertex 443.783966 -673.874756 299.729309
   vertex 443.783966 -664.625244 299.663116
  endloop
 endfacet
 facet normal -0.000000 -0.000000 -1.000000
  outer loop
   vertex 443.783966 -664.625244 299.663116
   vertex 445.255768 -664.625244 299.663116
   vertex 443.783966 -673.874756 299.663116
  endloop
 endfacet
 facet normal 0.000000 -0.000000 -1.000000
  outer loop
   vertex 443.783966 -673.874756 299.663116
   vertex 445.255768 -664.625244 299.663116
   vertex 445.255768 -673.874756 299.663116
  endloop
 endfacet
 facet normal 1.000000 -0.000000 -0.000000
  outer loop
   vertex 445.255768 -673.874756 299.663116
   vertex 445.255768 -664.625244 299.663116
   vertex 445.255768 -673.874756 299.729309
  endloop
 endfacet
 facet normal 1.000000 0.000000 0.000000
  outer loop
   vertex 445.272797 -673.413086 299.640259
   vertex 445.272797 -673.413086 300.480743
   vertex 445.272797 -674.413086 299.640259
  endloop
 endfacet
 facet normal -1.000000 0.000000 0.000000
  outer loop
   vertex 443.766937 -673.413086 300.480743
   vertex 443.766937 -673.413086 299.640259
   vertex 443.766937 -674.413086 299.640259
  endloop
 endfacet
 facet normal 1.000000 0.000000 0.000000
  outer loop
   vertex 445.255768 -664.625244 299.663116
   vertex 445.255768 -664.625244 299.729340
   vertex 445.255768 -673.874756 299.729309
  endloop
 endfacet
 facet normal -0.382706 0.923870 0.000000
  outer loop
   vertex 444.519867 -663.575012 297.699707
   vertex 444.519867 -663.575012 296.699707
   vertex 443.812775 -663.867920 297.699707
  endloop
 endfacet
 facet normal -0.382706 0.923870 -0.000000
  outer loop
   vertex 443.812775 -663.867920 297.699707
   vertex 444.519867 -663.575012 296.699707
   vertex 443.812775 -663.867920 296.699707
  endloop
 endfacet
 facet normal -0.923870 0.382706 0.000000
  outer loop
   vertex 443.812775 -663.867920 296.699707
   vertex 443.519867 -664.575012 297.699707
   vertex 443.812775 -663.867920 297.699707
  endloop
 endfacet
 facet normal -0.923870 0.382706 -0.000000
  outer loop
   vertex 443.519867 -664.575012 296.699707
   vertex 443.519867 -664.575012 297.699707
   vertex 443.812775 -663.867920 296.699707
  endloop
 endfacet
 facet normal -0.923870 -0.382706 -0.000000
  outer loop
   vertex 443.812775 -665.282104 297.699707
   vertex 443.519867 -664.575012 297.699707
   vertex 443.519867 -664.575012 296.699707
  endloop
 endfacet
 facet normal -0.923870 -0.382706 0.000000
  outer loop
   vertex 443.519867 -664.575012 296.699707
   vertex 443.812775 -665.282104 296.699707
   vertex 443.812775 -665.282104 297.699707
  endloop
 endfacet
 facet normal -0.382706 -0.923870 0.000000
  outer loop
   vertex 443.812775 -665.282104 297.699707
   vertex 443.812775 -665.282104 296.699707
   vertex 444.519867 -665.575012 297.699707
  endloop
 endfacet
 facet normal -0.382706 -0.923870 -0.000000
  outer loop
   vertex 444.519867 -665.575012 297.699707
   vertex 443.812775 -665.282104 296.699707
   vertex 444.519867 -665.575012 296.699707
  endloop
 endfacet
 facet normal 0.382692 -0.923876 0.000000
  outer loop
   vertex 444.519867 -665.575012 296.699707
   vertex 445.226990 -665.282104 297.699707
   vertex 444.519867 -665.575012 297.699707
  endloop
 endfacet
 facet normal 0.382692 -0.923876 -0.000000
  outer loop
   vertex 445.226990 -665.282104 296.699707
   vertex 445.226990 -665.282104 297.699707
   vertex 444.519867 -665.575012 296.699707
  endloop
 endfacet
 facet normal 0.923884 -0.382672 0.000000
  outer loop
   vertex 445.519867 -664.575012 297.699707
   vertex 445.226990 -665.282104 297.699707
   vertex 445.226990 -665.282104 296.699707
  endloop
 endfacet
 facet normal 0.923884 -0.382672 -0.000000
  outer loop
   vertex 445.226990 -665.282104 296.699707
   vertex 445.519867 -664.575012 296.699707
   vertex 445.519867 -664.575012 297.699707
  endloop
 endfacet
 facet normal 0.923884 0.382672 -0.000000
  outer loop
   vertex 445.519867 -664.575012 297.699707
   vertex 445.519867 -664.575012 296.699707
   vertex 445.226990 -663.867920 297.699707
  endloop
 endfacet
 facet normal 0.923884 0.382672 -0.000000
  outer loop
   vertex 445.226990 -663.867920 297.699707
   vertex 445.519867 -664.575012 296.699707
   vertex 445.226990 -663.867920 296.699707
  endloop
 endfacet
 facet normal 0.382692 0.923876 0.000000
  outer loop
   vertex 445.226990 -663.867920 296.699707
   vertex 444.519867 -663.575012 297.699707
   vertex 445.226990 -663.867920 297.699707
  endloop
 endfacet
 facet normal 0.382692 0.923876 0.000000
  outer loop
   vertex 444.519867 -663.575012 296.699707
   vertex 444.519867 -663.575012 297.699707
   vertex 445.226990 -663.867920 296.699707
  endloop
 endfacet
 facet normal 0.382746 -0.923854 0.000000
  outer loop
   vertex 444.696655 -674.101746 298.689667
   vertex 444.519867 -674.174988 299.689667
   vertex 444.519867 -674.174988 298.689667
  endloop
 endfacet
 facet normal -0.382474 -0.923966 -0.000000
  outer loop
   vertex 444.519867 -674.174988 298.689667
   vertex 444.519867 -674.174988 299.689667
   vertex 444.343079 -674.101807 299.689667
  endloop
 endfacet
 facet normal -0.382746 -0.923854 -0.000056
  outer loop
   vertex 444.343079 -674.101807 299.689667
   vertex 444.343079 -674.101746 298.689667
   vertex 444.519867 -674.174988 298.689667
  endloop
 endfacet
 facet normal -0.923933 -0.382554 -0.000023
  outer loop
   vertex 444.269867 -673.924988 299.689667
   vertex 444.343079 -674.101746 298.689667
   vertex 444.343079 -674.101807 299.689667
  endloop
 endfacet
 facet normal -0.923887 -0.382666 0.000000
  outer loop
   vertex 444.269867 -673.924988 298.689667
   vertex 444.343079 -674.101746 298.689667
   vertex 444.269867 -673.924988 299.689667
  endloop
 endfacet
 facet normal -0.923887 0.382666 -0.000000
  outer loop
   vertex 444.269867 -673.924988 299.689667
   vertex 444.343079 -673.748230 299.689667
   vertex 444.269867 -673.924988 298.689667
  endloop
 endfacet
 facet normal -0.923887 0.382666 0.000000
  outer loop
   vertex 444.269867 -673.924988 298.689667
   vertex 444.343079 -673.748230 299.689667
   vertex 444.343079 -673.748230 298.689667
  endloop
 endfacet
 facet normal -0.382746 0.923854 -0.000000
  outer loop
   vertex 444.343079 -673.748230 298.689667
   vertex 444.343079 -673.748230 299.689667
   vertex 444.519867 -673.674988 299.689667
  endloop
 endfacet
 facet normal -0.382746 0.923854 0.000000
  outer loop
   vertex 444.519867 -673.674988 299.689667
   vertex 444.519867 -673.674988 298.689667
   vertex 444.343079 -673.748230 298.689667
  endloop
 endfacet
 facet normal 0.382746 0.923854 -0.000000
  outer loop
   vertex 444.696655 -673.748230 299.689667
   vertex 444.519867 -673.674988 298.689667
   vertex 444.519867 -673.674988 299.689667
  endloop
 endfacet
 facet normal 0.382746 0.923854 0.000000
  outer loop
   vertex 444.696655 -673.748230 298.689667
   vertex 444.519867 -673.674988 298.689667
   vertex 444.696655 -673.748230 299.689667
  endloop
 endfacet
 facet normal 0.923887 0.382666 -0.000000
  outer loop
   vertex 444.696655 -673.748230 299.689667
   vertex 444.769867 -673.924988 299.689667
   vertex 444.696655 -673.748230 298.689667
  endloop
 endfacet
 facet normal 0.923887 0.382666 0.000000
  outer loop
   vertex 444.696655 -673.748230 298.689667
   vertex 444.769867 -673.924988 299.689667
   vertex 444.769867 -673.924988 298.689667
  endloop
 endfacet
 facet normal 0.923887 -0.382666 -0.000000
  outer loop
   vertex 444.769867 -673.924988 298.689667
   vertex 444.769867 -673.924988 299.689667
   vertex 444.696655 -674.101746 299.689667
  endloop
 endfacet
 facet normal 0.923887 -0.382666 0.000000
  outer loop
   vertex 444.696655 -674.101746 299.689667
   vertex 444.696655 -674.101746 298.689667
   vertex 444.769867 -673.924988 298.689667
  endloop
 endfacet
 facet normal 0.382746 -0.923854 -0.000000
  outer loop
   vertex 444.519867 -674.174988 299.689667
   vertex 444.696655 -674.101746 298.689667
   vertex 444.696655 -674.101746 299.689667
  endloop
 endfacet
 facet normal 0.382692 -0.923876 0.000000
  outer loop
   vertex 445.226990 -674.632080 296.699707
   vertex 444.519867 -674.924988 297.699707
   vertex 444.519867 -674.924988 296.699707
  endloop
 endfacet
 facet normal -0.382706 -0.923870 -0.000000
  outer loop
   vertex 444.519867 -674.924988 296.699707
   vertex 444.519867 -674.924988 297.699707
   vertex 443.812775 -674.632080 297.699707
  endloop
 endfacet
 facet normal -0.382706 -0.923870 0.000000
  outer loop
   vertex 443.812775 -674.632080 297.699707
   vertex 443.812775 -674.632080 296.699707
   vertex 444.519867 -674.924988 296.699707
  endloop
 endfacet
 facet normal -0.923870 -0.382706 0.000000
  outer loop
   vertex 443.519867 -673.924988 297.699707
   vertex 443.812775 -674.632080 296.699707
   vertex 443.812775 -674.632080 297.699707
  endloop
 endfacet
 facet normal -0.923870 -0.382706 0.000000
  outer loop
   vertex 443.519867 -673.924988 296.699707
   vertex 443.812775 -674.632080 296.699707
   vertex 443.519867 -673.924988 297.699707
  endloop
 endfacet
 facet normal -0.923870 0.382706 -0.000000
  outer loop
   vertex 443.519867 -673.924988 297.699707
   vertex 443.812775 -673.217896 297.699707
   vertex 443.519867 -673.924988 296.699707
  endloop
 endfacet
 facet normal -0.923870 0.382706 0.000000
  outer loop
   vertex 443.519867 -673.924988 296.699707
   vertex 443.812775 -673.217896 297.699707
   vertex 443.812775 -673.217896 296.699707
  endloop
 endfacet
 facet normal -0.382706 0.923870 -0.000000
  outer loop
   vertex 443.812775 -673.217896 296.699707
   vertex 443.812775 -673.217896 297.699707
   vertex 444.519867 -672.924988 297.699707
  endloop
 endfacet
 facet normal -0.382706 0.923870 0.000000
  outer loop
   vertex 444.519867 -672.924988 297.699707
   vertex 444.519867 -672.924988 296.699707
   vertex 443.812775 -673.217896 296.699707
  endloop
 endfacet
 facet normal 0.382692 0.923876 -0.000000
  outer loop
   vertex 445.226990 -673.217896 297.699707
   vertex 444.519867 -672.924988 296.699707
   vertex 444.519867 -672.924988 297.699707
  endloop
 endfacet
 facet normal 0.382692 0.923876 0.000000
  outer loop
   vertex 445.226990 -673.217896 296.699707
   vertex 444.519867 -672.924988 296.699707
   vertex 445.226990 -673.217896 297.699707
  endloop
 endfacet
 facet normal 0.923884 0.382672 -0.000000
  outer loop
   vertex 445.226990 -673.217896 297.699707
   vertex 445.519867 -673.924988 297.699707
   vertex 445.226990 -673.217896 296.699707
  endloop
 endfacet
 facet normal 0.923884 0.382672 0.000000
  outer loop
   vertex 445.226990 -673.217896 296.699707
   vertex 445.519867 -673.924988 297.699707
   vertex 445.519867 -673.924988 296.699707
  endloop
 endfacet
 facet normal 0.923884 -0.382672 -0.000000
  outer loop
   vertex 445.519867 -673.924988 296.699707
   vertex 445.519867 -673.924988 297.699707
   vertex 445.226990 -674.632080 297.699707
  endloop
 endfacet
 facet normal 0.923884 -0.382672 0.000000
  outer loop
   vertex 445.226990 -674.632080 297.699707
   vertex 445.226990 -674.632080 296.699707
   vertex 445.519867 -673.924988 296.699707
  endloop
 endfacet
 facet normal 0.382692 -0.923876 -0.000000
  outer loop
   vertex 444.519867 -674.924988 297.699707
   vertex 445.226990 -674.632080 296.699707
   vertex 445.226990 -674.632080 297.699707
  endloop
 endfacet
 facet normal 0.314558 -0.759391 0.569543
  outer loop
   vertex 445.226990 -674.632080 297.699707
   vertex 444.519867 -674.174988 298.699707
   vertex 444.519867 -674.924988 297.699707
  endloop
 endfacet
 facet normal -0.314605 -0.759378 0.569534
  outer loop
   vertex 444.519867 -674.924988 297.699707
   vertex 444.519867 -674.174988 298.699707
   vertex 444.343079 -674.101746 298.699707
  endloop
 endfacet
 facet normal -0.314569 -0.759384 0.569545
  outer loop
   vertex 444.343079 -674.101746 298.699707
   vertex 443.812775 -674.632080 297.699707
   vertex 444.519867 -674.924988 297.699707
  endloop
 endfacet
 facet normal -0.759408 -0.314541 0.569529
  outer loop
   vertex 444.269867 -673.924988 298.699707
   vertex 443.812775 -674.632080 297.699707
   vertex 444.343079 -674.101746 298.699707
  endloop
 endfacet
 facet normal -0.759387 -0.314571 0.569540
  outer loop
   vertex 443.519867 -673.924988 297.699707
   vertex 443.812775 -674.632080 297.699707
   vertex 444.269867 -673.924988 298.699707
  endloop
 endfacet
 facet normal -0.759396 0.314536 0.569547
  outer loop
   vertex 444.269867 -673.924988 298.699707
   vertex 444.343079 -673.748230 298.699707
   vertex 443.519867 -673.924988 297.699707
  endloop
 endfacet
 facet normal -0.759390 0.314572 0.569536
  outer loop
   vertex 443.519867 -673.924988 297.699707
   vertex 444.343079 -673.748230 298.699707
   vertex 443.812775 -673.217896 297.699707
  endloop
 endfacet
 facet normal -0.314600 0.759366 0.569552
  outer loop
   vertex 443.812775 -673.217896 297.699707
   vertex 444.343079 -673.748230 298.699707
   vertex 444.519867 -673.674988 298.699707
  endloop
 endfacet
 facet normal -0.314571 0.759387 0.569540
  outer loop
   vertex 444.519867 -673.674988 298.699707
   vertex 444.519867 -672.924988 297.699707
   vertex 443.812775 -673.217896 297.699707
  endloop
 endfacet
 facet normal 0.314605 0.759378 0.569534
  outer loop
   vertex 444.696655 -673.748230 298.699707
   vertex 444.519867 -672.924988 297.699707
   vertex 444.519867 -673.674988 298.699707
  endloop
 endfacet
 facet normal 0.314557 0.759387 0.569549
  outer loop
   vertex 445.226990 -673.217896 297.699707
   vertex 444.519867 -672.924988 297.699707
   vertex 444.696655 -673.748230 298.699707
  endloop
 endfacet
 facet normal 0.759398 0.314537 0.569545
  outer loop
   vertex 444.696655 -673.748230 298.699707
   vertex 444.769867 -673.924988 298.699707
   vertex 445.226990 -673.217896 297.699707
  endloop
 endfacet
 facet normal 0.759395 0.314541 0.569546
  outer loop
   vertex 445.226990 -673.217896 297.699707
   vertex 444.769867 -673.924988 298.699707
   vertex 445.519867 -673.924988 297.699707
  endloop
 endfacet
 facet normal 0.759396 -0.314536 0.569547
  outer loop
   vertex 445.519867 -673.924988 297.699707
   vertex 444.769867 -673.924988 298.699707
   vertex 444.696655 -674.101746 298.699707
  endloop
 endfacet
 facet normal 0.759396 -0.314541 0.569546
  outer loop
   vertex 444.696655 -674.101746 298.699707
   vertex 445.226990 -674.632080 297.699707
   vertex 445.519867 -673.924988 297.699707
  endloop
 endfacet
 facet normal 0.314599 -0.759362 0.569558
  outer loop
   vertex 444.519867 -674.174988 298.699707
   vertex 445.226990 -674.632080 297.699707
   vertex 444.696655 -674.101746 298.699707
  endloop
 endfacet
 facet normal -0.382474 0.923966 0.000000
  outer loop
   vertex 444.519867 -664.325012 299.689667
   vertex 444.519867 -664.325012 298.689667
   vertex 444.343079 -664.398193 299.689667
  endloop
 endfacet
 facet normal -0.382474 0.923966 -0.000000
  outer loop
   vertex 444.343079 -664.398193 299.689667
   vertex 444.519867 -664.325012 298.689667
   vertex 444.343079 -664.398193 298.689667
  endloop
 endfacet
 facet normal -0.923933 0.382554 0.000000
  outer loop
   vertex 444.343079 -664.398193 298.689667
   vertex 444.269867 -664.575012 299.689667
   vertex 444.343079 -664.398193 299.689667
  endloop
 endfacet
 facet normal -0.923933 0.382554 -0.000000
  outer loop
   vertex 444.269867 -664.575012 298.689667
   vertex 444.269867 -664.575012 299.689667
   vertex 444.343079 -664.398193 298.689667
  endloop
 endfacet
 facet normal -0.923887 -0.382666 -0.000000
  outer loop
   vertex 444.343079 -664.751770 299.689667
   vertex 444.269867 -664.575012 299.689667
   vertex 444.269867 -664.575012 298.689667
  endloop
 endfacet
 facet normal -0.923887 -0.382666 0.000000
  outer loop
   vertex 444.269867 -664.575012 298.689667
   vertex 444.343079 -664.751770 298.689667
   vertex 444.343079 -664.751770 299.689667
  endloop
 endfacet
 facet normal -0.382746 -0.923854 0.000000
  outer loop
   vertex 444.343079 -664.751770 299.689667
   vertex 444.343079 -664.751770 298.689667
   vertex 444.519867 -664.825012 299.689667
  endloop
 endfacet
 facet normal -0.382746 -0.923854 -0.000000
  outer loop
   vertex 444.519867 -664.825012 299.689667
   vertex 444.343079 -664.751770 298.689667
   vertex 444.519867 -664.825012 298.689667
  endloop
 endfacet
 facet normal 0.382746 -0.923854 0.000000
  outer loop
   vertex 444.519867 -664.825012 298.689667
   vertex 444.696655 -664.751770 299.689667
   vertex 444.519867 -664.825012 299.689667
  endloop
 endfacet
 facet normal 0.382746 -0.923854 -0.000000
  outer loop
   vertex 444.696655 -664.751770 298.689667
   vertex 444.696655 -664.751770 299.689667
   vertex 444.519867 -664.825012 298.689667
  endloop
 endfacet
 facet normal 0.923887 -0.382666 0.000000
  outer loop
   vertex 444.769867 -664.575012 299.689667
   vertex 444.696655 -664.751770 299.689667
   vertex 444.696655 -664.751770 298.689667
  endloop
 endfacet
 facet normal 0.923887 -0.382666 -0.000000
  outer loop
   vertex 444.696655 -664.751770 298.689667
   vertex 444.769867 -664.575012 298.689667
   vertex 444.769867 -664.575012 299.689667
  endloop
 endfacet
 facet normal 0.923933 0.382554 -0.000000
  outer loop
   vertex 444.769867 -664.575012 299.689667
   vertex 444.769867 -664.575012 298.689667
   vertex 444.696655 -664.398193 299.689667
  endloop
 endfacet
 facet normal 0.923933 0.382554 -0.000000
  outer loop
   vertex 444.696655 -664.398193 299.689667
   vertex 444.769867 -664.575012 298.689667
   vertex 444.696655 -664.398193 298.689667
  endloop
 endfacet
 facet normal 0.382474 0.923966 0.000000
  outer loop
   vertex 444.696655 -664.398193 298.689667
   vertex 444.519867 -664.325012 299.689667
   vertex 444.696655 -664.398193 299.689667
  endloop
 endfacet
 facet normal 0.382474 0.923966 0.000000
  outer loop
   vertex 444.519867 -664.325012 298.689667
   vertex 444.519867 -664.325012 299.689667
   vertex 444.696655 -664.398193 298.689667
  endloop
 endfacet
 facet normal 0.314395 0.759505 0.569480
  outer loop
   vertex 444.696655 -664.398193 298.699707
   vertex 445.226990 -663.867920 297.699707
   vertex 444.519867 -664.325012 298.699707
  endloop
 endfacet
 facet normal 0.314558 0.759391 0.569543
  outer loop
   vertex 444.519867 -664.325012 298.699707
   vertex 445.226990 -663.867920 297.699707
   vertex 444.519867 -663.575012 297.699707
  endloop
 endfacet
 facet normal -0.314369 0.759441 0.569581
  outer loop
   vertex 444.519867 -663.575012 297.699707
   vertex 444.343079 -664.398193 298.699707
   vertex 444.519867 -664.325012 298.699707
  endloop
 endfacet
 facet normal -0.314578 0.759404 0.569514
  outer loop
   vertex 443.812775 -663.867920 297.699707
   vertex 444.343079 -664.398193 298.699707
   vertex 444.519867 -663.575012 297.699707
  endloop
 endfacet
 facet normal -0.759467 0.314457 0.569497
  outer loop
   vertex 444.269867 -664.575012 298.699707
   vertex 444.343079 -664.398193 298.699707
   vertex 443.812775 -663.867920 297.699707
  endloop
 endfacet
 facet normal -0.759387 0.314571 0.569540
  outer loop
   vertex 443.812775 -663.867920 297.699707
   vertex 443.519867 -664.575012 297.699707
   vertex 444.269867 -664.575012 298.699707
  endloop
 endfacet
 facet normal -0.759396 -0.314536 0.569547
  outer loop
   vertex 444.269867 -664.575012 298.699707
   vertex 443.519867 -664.575012 297.699707
   vertex 444.343079 -664.751770 298.699707
  endloop
 endfacet
 facet normal -0.759390 -0.314572 0.569536
  outer loop
   vertex 444.343079 -664.751770 298.699707
   vertex 443.519867 -664.575012 297.699707
   vertex 443.812775 -665.282104 297.699707
  endloop
 endfacet
 facet normal -0.314600 -0.759366 0.569552
  outer loop
   vertex 443.812775 -665.282104 297.699707
   vertex 444.519867 -664.825012 298.699707
   vertex 444.343079 -664.751770 298.699707
  endloop
 endfacet
 facet normal -0.314571 -0.759387 0.569540
  outer loop
   vertex 444.519867 -665.575012 297.699707
   vertex 444.519867 -664.825012 298.699707
   vertex 443.812775 -665.282104 297.699707
  endloop
 endfacet
 facet normal 0.314605 -0.759378 0.569534
  outer loop
   vertex 444.696655 -664.751770 298.699707
   vertex 444.519867 -664.825012 298.699707
   vertex 444.519867 -665.575012 297.699707
  endloop
 endfacet
 facet normal 0.314557 -0.759387 0.569549
  outer loop
   vertex 444.519867 -665.575012 297.699707
   vertex 445.226990 -665.282104 297.699707
   vertex 444.696655 -664.751770 298.699707
  endloop
 endfacet
 facet normal 0.759398 -0.314537 0.569545
  outer loop
   vertex 444.696655 -664.751770 298.699707
   vertex 445.226990 -665.282104 297.699707
   vertex 444.769867 -664.575012 298.699707
  endloop
 endfacet
 facet normal 0.759395 -0.314541 0.569546
  outer loop
   vertex 444.769867 -664.575012 298.699707
   vertex 445.226990 -665.282104 297.699707
   vertex 445.519867 -664.575012 297.699707
  endloop
 endfacet
 facet normal 0.759422 0.314438 0.569567
  outer loop
   vertex 445.519867 -664.575012 297.699707
   vertex 444.696655 -664.398193 298.699707
   vertex 444.769867 -664.575012 298.699707
  endloop
 endfacet
 facet normal 0.759404 0.314545 0.569533
  outer loop
   vertex 445.226990 -663.867920 297.699707
   vertex 444.696655 -664.398193 298.699707
   vertex 445.519867 -664.575012 297.699707
  endloop
 endfacet
endsolid