solid stl file generated from DOUG
 facet normal 0.000001 -0.804628 -0.593780
  outer loop
   vertex 420.489777 -626.950928 234.746872
   vertex 420.489777 -626.870056 234.637283
   vertex 446.948334 -626.870056 234.637329
  endloop
 endfacet
 facet normal 0.000002 -0.000000 -1.000000
  outer loop
   vertex 446.948334 -626.870056 234.637329
   vertex 420.489777 -626.870056 234.637283
   vertex 446.948334 -626.767273 234.637329
  endloop
 endfacet
 facet normal 0.000001 0.804628 -0.593780
  outer loop
   vertex 446.948334 -628.055420 234.746902
   vertex 446.948334 -628.136292 234.637314
   vertex 420.489777 -628.136292 234.637283
  endloop
 endfacet
 facet normal 0.000001 -0.000000 -1.000000
  outer loop
   vertex 420.489777 -628.136292 234.637283
   vertex 446.948334 -628.136292 234.637314
   vertex 446.948334 -628.239075 234.637314
  endloop
 endfacet
 facet normal 0.000001 0.000000 -1.000000
  outer loop
   vertex 446.948334 -628.239075 234.637314
   vertex 420.489777 -628.239075 234.637283
   vertex 420.489777 -628.136292 234.637283
  endloop
 endfacet
 facet normal 0.000001 -0.358463 -0.933544
  outer loop
   vertex 446.948334 -628.239075 235.370041
   vertex 420.489777 -628.239075 235.370010
   vertex 446.948334 -628.207642 235.357971
  endloop
 endfacet
 facet normal 0.000001 -0.358463 -0.933544
  outer loop
   vertex 446.948334 -628.207642 235.357971
   vertex 420.489777 -628.239075 235.370010
   vertex 420.489777 -628.207642 235.357941
  endloop
 endfacet
 facet normal 0.000000 -1.000000 0.000000
  outer loop
   vertex 420.489777 -628.207642 235.357941
   vertex 420.489777 -628.207642 234.782776
   vertex 446.948334 -628.207642 235.357971
  endloop
 endfacet
 facet normal 0.000001 -0.804588 -0.593833
  outer loop
   vertex 446.948334 -626.870056 234.637329
   vertex 446.948334 -626.950928 234.746902
   vertex 420.489777 -626.950928 234.746872
  endloop
 endfacet
 facet normal 0.000001 -0.000000 -1.000000
  outer loop
   vertex 420.489777 -626.950928 234.746872
   vertex 446.948334 -626.950928 234.746902
   vertex 446.948334 -628.055420 234.746902
  endloop
 endfacet
 facet normal 0.000001 0.000000 -1.000000
  outer loop
   vertex 446.948334 -628.055420 234.746902
   vertex 420.489777 -628.055420 234.746872
   vertex 420.489777 -626.950928 234.746872
  endloop
 endfacet
 facet normal 0.000001 0.804628 -0.593780
  outer loop
   vertex 420.489777 -628.136292 234.637283
   vertex 420.489777 -628.055420 234.746872
   vertex 446.948334 -628.055420 234.746902
  endloop
 endfacet
 facet normal -0.000000 -1.000000 0.000000
  outer loop
   vertex 420.489777 -628.239075 234.637283
   vertex 446.948334 -628.239075 234.637314
   vertex 420.489777 -628.239075 234.770706
  endloop
 endfacet
 facet normal -0.000000 -1.000000 0.000000
  outer loop
   vertex 420.489777 -628.239075 234.770706
   vertex 446.948334 -628.239075 234.637314
   vertex 446.948334 -628.239075 234.770737
  endloop
 endfacet
 facet normal -0.000001 -0.358463 0.933544
  outer loop
   vertex 446.948334 -628.239075 234.770737
   vertex 420.489777 -628.207642 234.782776
   vertex 420.489777 -628.239075 234.770706
  endloop
 endfacet
 facet normal -0.000002 -0.358858 0.933392
  outer loop
   vertex 446.948334 -628.207642 234.782822
   vertex 420.489777 -628.207642 234.782776
   vertex 446.948334 -628.239075 234.770737
  endloop
 endfacet
 facet normal 0.000000 -1.000000 0.000000
  outer loop
   vertex 446.948334 -628.207642 235.357971
   vertex 420.489777 -628.207642 234.782776
   vertex 446.948334 -628.207642 234.782822
  endloop
 endfacet
 facet normal 1.000000 0.000000 0.000000
  outer loop
   vertex 447.363647 -626.750244 234.618622
   vertex 447.363647 -628.256104 235.459122
   vertex 447.363647 -628.256104 234.618607
  endloop
 endfacet
 facet normal -0.000000 -1.000000 -0.000000
  outer loop
   vertex 447.363647 -628.256104 234.618607
   vertex 447.363647 -628.256104 235.459122
   vertex 446.363647 -628.256104 234.618607
  endloop
 endfacet
 facet normal 0.000000 0.000000 -1.000000
  outer loop
   vertex 446.363647 -628.256104 234.618607
   vertex 446.363647 -626.750244 234.618607
   vertex 447.363647 -628.256104 234.618607
  endloop
 endfacet
 facet normal -1.000000 -0.000000 -0.000000
  outer loop
   vertex 446.363647 -628.256104 235.459122
   vertex 446.363647 -626.750244 234.618607
   vertex 446.363647 -628.256104 234.618607
  endloop
 endfacet
 facet normal -1.000000 0.000000 0.000000
  outer loop
   vertex 446.363647 -626.750244 235.459122
   vertex 446.363647 -626.750244 234.618607
   vertex 446.363647 -628.256104 235.459122
  endloop
 endfacet
 facet normal -0.000000 -0.000000 1.000000
  outer loop
   vertex 446.363647 -628.256104 235.459122
   vertex 447.363647 -628.256104 235.459122
   vertex 446.363647 -626.750244 235.459122
  endloop
 endfacet
 facet normal 0.000000 -0.000000 1.000000
  outer loop
   vertex 446.363647 -626.750244 235.459122
   vertex 447.363647 -628.256104 235.459122
   vertex 447.363647 -626.750244 235.459122
  endloop
 endfacet
 facet normal 1.000000 -0.000000 -0.000000
  outer loop
   vertex 447.363647 -626.750244 235.459122
   vertex 447.363647 -628.256104 235.459122
   vertex 447.363647 -626.750244 234.618622
  endloop
 endfacet
 facet normal 0.000000 1.000000 0.000000
  outer loop
   vertex 447.363647 -626.750244 234.618622
   vertex 446.363647 -626.750244 234.618607
   vertex 447.363647 -626.750244 235.459122
  endloop
 endfacet
 facet normal 0.000015 0.000010 -1.000000
  outer loop
   vertex 447.363647 -628.256104 234.618607
   vertex 446.363647 -626.750244 234.618607
   vertex 447.363647 -626.750244 234.618622
  endloop
 endfacet
 facet normal 1.000000 0.000000 0.000000
  outer loop
   vertex 421.074463 -628.256104 234.618576
   vertex 421.074463 -626.750244 234.618576
   vertex 421.074463 -628.256104 235.459076
  endloop
 endfacet
 facet normal 1.000000 -0.000000 -0.000000
  outer loop
   vertex 421.074463 -628.256104 235.459076
   vertex 421.074463 -626.750244 234.618576
   vertex 421.074463 -626.750244 235.459076
  endloop
 endfacet
 facet normal -0.000000 0.000000 1.000000
  outer loop
   vertex 421.074463 -626.750244 235.459076
   vertex 420.074463 -626.750244 235.459076
   vertex 421.074463 -628.256104 235.459076
  endloop
 endfacet
 facet normal -0.000000 1.000000 -0.000000
  outer loop
   vertex 421.074463 -626.750244 234.618576
   vertex 420.074463 -626.750244 235.459076
   vertex 421.074463 -626.750244 235.459076
  endloop
 endfacet
 facet normal 0.000000 1.000000 0.000000
  outer loop
   vertex 420.074463 -626.750244 234.618576
   vertex 420.074463 -626.750244 235.459076
   vertex 421.074463 -626.750244 234.618576
  endloop
 endfacet
 facet normal -0.000000 -0.000000 -1.000000
  outer loop
   vertex 421.074463 -626.750244 234.618576
   vertex 420.074463 -628.256104 234.618576
   vertex 420.074463 -626.750244 234.618576
  endloop
 endfacet
 facet normal -1.000000 0.000000 0.000000
  outer loop
   vertex 420.074463 -626.750244 234.618576
   vertex 420.074463 -628.256104 234.618576
   vertex 420.074463 -626.750244 235.459076
  endloop
 endfacet
 facet normal -1.000000 -0.000000 -0.000000
  outer loop
   vertex 420.074463 -626.750244 235.459076
   vertex 420.074463 -628.256104 234.618576
   vertex 420.074463 -628.256104 235.459076
  endloop
 endfacet
 facet normal 0.000000 0.000000 1.000000
  outer loop
   vertex 420.074463 -628.256104 235.459076
   vertex 421.074463 -628.256104 235.459076
   vertex 420.074463 -626.750244 235.459076
  endloop
 endfacet
 facet normal -0.000000 -1.000000 -0.000000
  outer loop
   vertex 420.074463 -628.256104 234.618576
   vertex 421.074463 -628.256104 235.459076
   vertex 420.074463 -628.256104 235.459076
  endloop
 endfacet
 facet normal 0.000000 -1.000000 -0.000000
  outer loop
   vertex 421.074463 -628.256104 234.618576
   vertex 421.074463 -628.256104 235.459076
   vertex 420.074463 -628.256104 234.618576
  endloop
 endfacet
 facet normal -0.000000 -0.000000 -1.000000
  outer loop
   vertex 420.074463 -628.256104 234.618576
   vertex 421.074463 -626.750244 234.618576
   vertex 421.074463 -628.256104 234.618576
  endloop
 endfacet
 facet normal 0.000002 0.000000 -1.000000
  outer loop
   vertex 420.489777 -626.870056 234.637283
   vertex 420.489777 -626.767273 234.637283
   vertex 446.948334 -626.767273 234.637329
  endloop
 endfacet
 facet normal -0.000000 1.000000 -0.000000
  outer loop
   vertex 446.948334 -626.767273 234.637329
   vertex 420.489777 -626.767273 234.637283
   vertex 420.489777 -626.767273 234.770706
  endloop
 endfacet
 facet normal 0.000000 1.000000 0.000000
  outer loop
   vertex 420.489777 -626.767273 234.770706
   vertex 446.948334 -626.767273 234.770737
   vertex 446.948334 -626.767273 234.637329
  endloop
 endfacet
 facet normal -0.000001 0.358463 0.933544
  outer loop
   vertex 420.489777 -626.798706 234.782776
   vertex 446.948334 -626.767273 234.770737
   vertex 420.489777 -626.767273 234.770706
  endloop
 endfacet
 facet normal -0.000002 0.358858 0.933392
  outer loop
   vertex 446.948334 -626.798706 234.782822
   vertex 446.948334 -626.767273 234.770737
   vertex 420.489777 -626.798706 234.782776
  endloop
 endfacet
 facet normal -0.000000 1.000000 -0.000000
  outer loop
   vertex 420.489777 -626.798706 234.782776
   vertex 420.489777 -626.798706 235.357941
   vertex 446.948334 -626.798706 234.782822
  endloop
 endfacet
 facet normal -0.000000 1.000000 0.000000
  outer loop
   vertex 446.948334 -626.798706 234.782822
   vertex 420.489777 -626.798706 235.357941
   vertex 446.948334 -626.798706 235.357971
  endloop
 endfacet
 facet normal 0.000001 0.358463 -0.933544
  outer loop
   vertex 446.948334 -626.798706 235.357971
   vertex 420.489777 -626.798706 235.357941
   vertex 420.489777 -626.767273 235.370010
  endloop
 endfacet
 facet normal 0.000001 0.358463 -0.933544
  outer loop
   vertex 420.489777 -626.767273 235.370010
   vertex 446.948334 -626.767273 235.370041
   vertex 446.948334 -626.798706 235.357971
  endloop
 endfacet
 facet normal 0.000000 1.000000 -0.000000
  outer loop
   vertex 420.489777 -626.767273 235.436218
   vertex 446.948334 -626.767273 235.370041
   vertex 420.489777 -626.767273 235.370010
  endloop
 endfacet
 facet normal 0.000000 1.000000 -0.000000
  outer loop
   vertex 446.948334 -626.767273 235.436249
   vertex 446.948334 -626.767273 235.370041
   vertex 420.489777 -626.767273 235.436218
  endloop
 endfacet
 facet normal -0.000001 -0.000000 1.000000
  outer loop
   vertex 420.489777 -626.767273 235.436218
   vertex 420.489777 -628.239075 235.436218
   vertex 446.948334 -626.767273 235.436249
  endloop
 endfacet
 facet normal -0.000001 0.000000 1.000000
  outer loop
   vertex 446.948334 -626.767273 235.436249
   vertex 420.489777 -628.239075 235.436218
   vertex 446.948334 -628.239075 235.436249
  endloop
 endfacet
 facet normal 0.000000 -1.000000 -0.000000
  outer loop
   vertex 446.948334 -628.239075 235.436249
   vertex 420.489777 -628.239075 235.436218
   vertex 446.948334 -628.239075 235.370041
  endloop
 endfacet
 facet normal 0.000000 -1.000000 0.000000
  outer loop
   vertex 446.363647 -628.256104 235.459122
   vertex 446.363647 -628.256104 234.618607
   vertex 447.363647 -628.256104 235.459122
  endloop
 endfacet
 facet normal -0.000000 1.000000 0.000000
  outer loop
   vertex 446.363647 -626.750244 234.618607
   vertex 446.363647 -626.750244 235.459122
   vertex 447.363647 -626.750244 235.459122
  endloop
 endfacet
 facet normal 0.000000 -1.000000 0.000000
  outer loop
   vertex 420.489777 -628.239075 235.436218
   vertex 420.489777 -628.239075 235.370010
   vertex 446.948334 -628.239075 235.370041
  endloop
 endfacet
 facet normal -0.759365 0.314654 -0.569524
  outer loop
   vertex 420.359039 -627.503174 236.399612
   vertex 419.609039 -627.503174 237.399612
   vertex 420.432281 -627.326416 236.399612
  endloop
 endfacet
 facet normal -0.759380 0.314568 -0.569552
  outer loop
   vertex 420.432281 -627.326416 236.399612
   vertex 419.609039 -627.503174 237.399612
   vertex 419.901947 -626.796082 237.399612
  endloop
 endfacet
 facet normal -0.314642 0.759337 -0.569568
  outer loop
   vertex 419.901947 -626.796082 237.399612
   vertex 420.609039 -627.253174 236.399612
   vertex 420.432281 -627.326416 236.399612
  endloop
 endfacet
 facet normal -0.314571 0.759387 -0.569540
  outer loop
   vertex 420.609039 -626.503174 237.399612
   vertex 420.609039 -627.253174 236.399612
   vertex 419.901947 -626.796082 237.399612
  endloop
 endfacet
 facet normal 0.314605 0.759378 -0.569534
  outer loop
   vertex 420.785828 -627.326416 236.399612
   vertex 420.609039 -627.253174 236.399612
   vertex 420.609039 -626.503174 237.399612
  endloop
 endfacet
 facet normal 0.314568 0.759385 -0.569545
  outer loop
   vertex 420.609039 -626.503174 237.399612
   vertex 421.316162 -626.796082 237.399628
   vertex 420.785828 -627.326416 236.399612
  endloop
 endfacet
 facet normal 0.759402 0.314538 -0.569539
  outer loop
   vertex 420.785828 -627.326416 236.399612
   vertex 421.316162 -626.796082 237.399628
   vertex 420.859039 -627.503174 236.399612
  endloop
 endfacet
 facet normal 0.759399 0.314543 -0.569540
  outer loop
   vertex 420.859039 -627.503174 236.399612
   vertex 421.316162 -626.796082 237.399628
   vertex 421.609039 -627.503174 237.399628
  endloop
 endfacet
 facet normal 0.759400 -0.314537 -0.569541
  outer loop
   vertex 421.609039 -627.503174 237.399628
   vertex 420.785828 -627.679932 236.399612
   vertex 420.859039 -627.503174 236.399612
  endloop
 endfacet
 facet normal 0.759401 -0.314531 -0.569543
  outer loop
   vertex 421.316162 -628.210266 237.399612
   vertex 420.785828 -627.679932 236.399612
   vertex 421.609039 -627.503174 237.399628
  endloop
 endfacet
 facet normal 0.314599 -0.759362 -0.569558
  outer loop
   vertex 420.609039 -627.753174 236.399612
   vertex 420.785828 -627.679932 236.399612
   vertex 421.316162 -628.210266 237.399612
  endloop
 endfacet
 facet normal 0.314558 -0.759391 -0.569543
  outer loop
   vertex 421.316162 -628.210266 237.399612
   vertex 420.609039 -628.503174 237.399612
   vertex 420.609039 -627.753174 236.399612
  endloop
 endfacet
 facet normal -0.314654 -0.759365 -0.569524
  outer loop
   vertex 420.609039 -627.753174 236.399612
   vertex 420.609039 -628.503174 237.399612
   vertex 420.432281 -627.679932 236.399612
  endloop
 endfacet
 facet normal -0.314568 -0.759380 -0.569552
  outer loop
   vertex 420.432281 -627.679932 236.399612
   vertex 420.609039 -628.503174 237.399612
   vertex 419.901947 -628.210266 237.399612
  endloop
 endfacet
 facet normal -0.759337 -0.314642 -0.569568
  outer loop
   vertex 419.901947 -628.210266 237.399612
   vertex 420.359039 -627.503174 236.399612
   vertex 420.432281 -627.679932 236.399612
  endloop
 endfacet
 facet normal -0.759387 -0.314571 -0.569540
  outer loop
   vertex 419.609039 -627.503174 237.399612
   vertex 420.359039 -627.503174 236.399612
   vertex 419.901947 -628.210266 237.399612
  endloop
 endfacet
 facet normal -0.923830 0.382803 0.000000
  outer loop
   vertex 446.579041 -627.503174 235.409698
   vertex 446.579041 -627.503174 236.409698
   vertex 446.652283 -627.326416 235.409698
  endloop
 endfacet
 facet normal -0.923830 0.382803 -0.000000
  outer loop
   vertex 446.652283 -627.326416 235.409698
   vertex 446.579041 -627.503174 236.409698
   vertex 446.652283 -627.326416 236.409698
  endloop
 endfacet
 facet normal -0.382803 0.923830 0.000000
  outer loop
   vertex 446.652283 -627.326416 236.409698
   vertex 446.829041 -627.253174 235.409698
   vertex 446.652283 -627.326416 235.409698
  endloop
 endfacet
 facet normal -0.382803 0.923830 -0.000000
  outer loop
   vertex 446.829041 -627.253174 236.409698
   vertex 446.829041 -627.253174 235.409698
   vertex 446.652283 -627.326416 236.409698
  endloop
 endfacet
 facet normal 0.382746 0.923854 -0.000000
  outer loop
   vertex 447.005829 -627.326416 235.409698
   vertex 446.829041 -627.253174 235.409698
   vertex 446.829041 -627.253174 236.409698
  endloop
 endfacet
 facet normal 0.382746 0.923854 0.000000
  outer loop
   vertex 446.829041 -627.253174 236.409698
   vertex 447.005829 -627.326416 236.409698
   vertex 447.005829 -627.326416 235.409698
  endloop
 endfacet
 facet normal 0.923887 0.382666 0.000000
  outer loop
   vertex 447.005829 -627.326416 235.409698
   vertex 447.005829 -627.326416 236.409698
   vertex 447.079041 -627.503174 235.409698
  endloop
 endfacet
 facet normal 0.923887 0.382666 -0.000000
  outer loop
   vertex 447.079041 -627.503174 235.409698
   vertex 447.005829 -627.326416 236.409698
   vertex 447.079041 -627.503174 236.409698
  endloop
 endfacet
 facet normal 0.923887 -0.382666 0.000000
  outer loop
   vertex 447.079041 -627.503174 236.409698
   vertex 447.005829 -627.679932 235.409698
   vertex 447.079041 -627.503174 235.409698
  endloop
 endfacet
 facet normal 0.923887 -0.382666 -0.000000
  outer loop
   vertex 447.005829 -627.679932 236.409698
   vertex 447.005829 -627.679932 235.409698
   vertex 447.079041 -627.503174 236.409698
  endloop
 endfacet
 facet normal 0.382746 -0.923854 0.000000
  outer loop
   vertex 446.829041 -627.753174 235.409698
   vertex 447.005829 -627.679932 235.409698
   vertex 447.005829 -627.679932 236.409698
  endloop
 endfacet
 facet normal 0.382746 -0.923854 -0.000000
  outer loop
   vertex 447.005829 -627.679932 236.409698
   vertex 446.829041 -627.753174 236.409698
   vertex 446.829041 -627.753174 235.409698
  endloop
 endfacet
 facet normal -0.382803 -0.923830 -0.000000
  outer loop
   vertex 446.829041 -627.753174 235.409698
   vertex 446.829041 -627.753174 236.409698
   vertex 446.652283 -627.679932 235.409698
  endloop
 endfacet
 facet normal -0.382803 -0.923830 -0.000000
  outer loop
   vertex 446.652283 -627.679932 235.409698
   vertex 446.829041 -627.753174 236.409698
   vertex 446.652283 -627.679932 236.409698
  endloop
 endfacet
 facet normal -0.923830 -0.382803 0.000000
  outer loop
   vertex 446.652283 -627.679932 236.409698
   vertex 446.579041 -627.503174 235.409698
   vertex 446.652283 -627.679932 235.409698
  endloop
 endfacet
 facet normal -0.923830 -0.382803 0.000000
  outer loop
   vertex 446.579041 -627.503174 236.409698
   vertex 446.579041 -627.503174 235.409698
   vertex 446.652283 -627.679932 236.409698
  endloop
 endfacet
 facet normal -0.923870 0.382706 0.000000
  outer loop
   vertex 445.829041 -627.503174 237.399658
   vertex 445.829041 -627.503174 238.399658
   vertex 446.121948 -626.796082 237.399658
  endloop
 endfacet
 facet normal -0.923870 0.382706 -0.000000
  outer loop
   vertex 446.121948 -626.796082 237.399658
   vertex 445.829041 -627.503174 238.399658
   vertex 446.121948 -626.796082 238.399658
  endloop
 endfacet
 facet normal -0.382706 0.923870 0.000000
  outer loop
   vertex 446.121948 -626.796082 238.399658
   vertex 446.829041 -626.503174 237.399658
   vertex 446.121948 -626.796082 237.399658
  endloop
 endfacet
 facet normal -0.382706 0.923870 -0.000000
  outer loop
   vertex 446.829041 -626.503174 238.399658
   vertex 446.829041 -626.503174 237.399658
   vertex 446.121948 -626.796082 238.399658
  endloop
 endfacet
 facet normal 0.382692 0.923876 -0.000000
  outer loop
   vertex 447.536163 -626.796082 237.399658
   vertex 446.829041 -626.503174 237.399658
   vertex 446.829041 -626.503174 238.399658
  endloop
 endfacet
 facet normal 0.382692 0.923876 0.000000
  outer loop
   vertex 446.829041 -626.503174 238.399658
   vertex 447.536163 -626.796082 238.399658
   vertex 447.536163 -626.796082 237.399658
  endloop
 endfacet
 facet normal 0.923884 0.382672 0.000000
  outer loop
   vertex 447.536163 -626.796082 237.399658
   vertex 447.536163 -626.796082 238.399658
   vertex 447.829041 -627.503174 237.399658
  endloop
 endfacet
 facet normal 0.923884 0.382672 -0.000000
  outer loop
   vertex 447.829041 -627.503174 237.399658
   vertex 447.536163 -626.796082 238.399658
   vertex 447.829041 -627.503174 238.399658
  endloop
 endfacet
 facet normal 0.923884 -0.382672 0.000000
  outer loop
   vertex 447.829041 -627.503174 238.399658
   vertex 447.536163 -628.210266 237.399658
   vertex 447.829041 -627.503174 237.399658
  endloop
 endfacet
 facet normal 0.923884 -0.382672 -0.000000
  outer loop
   vertex 447.536163 -628.210266 238.399658
   vertex 447.536163 -628.210266 237.399658
   vertex 447.829041 -627.503174 238.399658
  endloop
 endfacet
 facet normal 0.382692 -0.923876 0.000000
  outer loop
   vertex 446.829041 -628.503174 237.399658
   vertex 447.536163 -628.210266 237.399658
   vertex 447.536163 -628.210266 238.399658
  endloop
 endfacet
 facet normal 0.382692 -0.923876 -0.000000
  outer loop
   vertex 447.536163 -628.210266 238.399658
   vertex 446.829041 -628.503174 238.399658
   vertex 446.829041 -628.503174 237.399658
  endloop
 endfacet
 facet normal -0.382706 -0.923870 -0.000000
  outer loop
   vertex 446.829041 -628.503174 237.399658
   vertex 446.829041 -628.503174 238.399658
   vertex 446.121948 -628.210266 237.399658
  endloop
 endfacet
 facet normal -0.382706 -0.923870 -0.000000
  outer loop
   vertex 446.121948 -628.210266 237.399658
   vertex 446.829041 -628.503174 238.399658
   vertex 446.121948 -628.210266 238.399658
  endloop
 endfacet
 facet normal -0.923870 -0.382706 0.000000
  outer loop
   vertex 446.121948 -628.210266 238.399658
   vertex 445.829041 -627.503174 237.399658
   vertex 446.121948 -628.210266 237.399658
  endloop
 endfacet
 facet normal -0.923870 -0.382706 0.000000
  outer loop
   vertex 445.829041 -627.503174 238.399658
   vertex 445.829041 -627.503174 237.399658
   vertex 446.121948 -628.210266 238.399658
  endloop
 endfacet
 facet normal -0.759365 0.314654 -0.569524
  outer loop
   vertex 446.579041 -627.503174 236.399658
   vertex 445.829041 -627.503174 237.399658
   vertex 446.652283 -627.326416 236.399658
  endloop
 endfacet
 facet normal -0.759380 0.314568 -0.569552
  outer loop
   vertex 446.652283 -627.326416 236.399658
   vertex 445.829041 -627.503174 237.399658
   vertex 446.121948 -626.796082 237.399658
  endloop
 endfacet
 facet normal -0.314642 0.759337 -0.569568
  outer loop
   vertex 446.121948 -626.796082 237.399658
   vertex 446.829041 -627.253174 236.399658
   vertex 446.652283 -627.326416 236.399658
  endloop
 endfacet
 facet normal -0.314571 0.759387 -0.569540
  outer loop
   vertex 446.829041 -626.503174 237.399658
   vertex 446.829041 -627.253174 236.399658
   vertex 446.121948 -626.796082 237.399658
  endloop
 endfacet
 facet normal 0.314605 0.759378 -0.569534
  outer loop
   vertex 447.005829 -627.326416 236.399658
   vertex 446.829041 -627.253174 236.399658
   vertex 446.829041 -626.503174 237.399658
  endloop
 endfacet
 facet normal 0.314557 0.759387 -0.569549
  outer loop
   vertex 446.829041 -626.503174 237.399658
   vertex 447.536163 -626.796082 237.399658
   vertex 447.005829 -627.326416 236.399658
  endloop
 endfacet
 facet normal 0.759398 0.314537 -0.569545
  outer loop
   vertex 447.005829 -627.326416 236.399658
   vertex 447.536163 -626.796082 237.399658
   vertex 447.079041 -627.503174 236.399658
  endloop
 endfacet
 facet normal 0.759395 0.314541 -0.569546
  outer loop
   vertex 447.079041 -627.503174 236.399658
   vertex 447.536163 -626.796082 237.399658
   vertex 447.829041 -627.503174 237.399658
  endloop
 endfacet
 facet normal 0.759396 -0.314536 -0.569547
  outer loop
   vertex 447.829041 -627.503174 237.399658
   vertex 447.005829 -627.679932 236.399658
   vertex 447.079041 -627.503174 236.399658
  endloop
 endfacet
 facet normal 0.759396 -0.314541 -0.569546
  outer loop
   vertex 447.536163 -628.210266 237.399658
   vertex 447.005829 -627.679932 236.399658
   vertex 447.829041 -627.503174 237.399658
  endloop
 endfacet
 facet normal 0.314599 -0.759362 -0.569558
  outer loop
   vertex 446.829041 -627.753174 236.399658
   vertex 447.005829 -627.679932 236.399658
   vertex 447.536163 -628.210266 237.399658
  endloop
 endfacet
 facet normal 0.314558 -0.759391 -0.569543
  outer loop
   vertex 447.536163 -628.210266 237.399658
   vertex 446.829041 -628.503174 237.399658
   vertex 446.829041 -627.753174 236.399658
  endloop
 endfacet
 facet normal -0.314654 -0.759365 -0.569524
  outer loop
   vertex 446.829041 -627.753174 236.399658
   vertex 446.829041 -628.503174 237.399658
   vertex 446.652283 -627.679932 236.399658
  endloop
 endfacet
 facet normal -0.314568 -0.759380 -0.569552
  outer loop
   vertex 446.652283 -627.679932 236.399658
   vertex 446.829041 -628.503174 237.399658
   vertex 446.121948 -628.210266 237.399658
  endloop
 endfacet
 facet normal -0.759337 -0.314642 -0.569568
  outer loop
   vertex 446.121948 -628.210266 237.399658
   vertex 446.579041 -627.503174 236.399658
   vertex 446.652283 -627.679932 236.399658
  endloop
 endfacet
 facet normal -0.759387 -0.314571 -0.569540
  outer loop
   vertex 445.829041 -627.503174 237.399658
   vertex 446.579041 -627.503174 236.399658
   vertex 446.121948 -628.210266 237.399658
  endloop
 endfacet
 facet normal -0.923887 0.382666 -0.000028
  outer loop
   vertex 420.359070 -627.503174 235.409653
   vertex 420.359039 -627.503174 236.409653
   vertex 420.432281 -627.326416 235.409653
  endloop
 endfacet
 facet normal -0.923830 0.382803 -0.000000
  outer loop
   vertex 420.432281 -627.326416 235.409653
   vertex 420.359039 -627.503174 236.409653
   vertex 420.432281 -627.326416 236.409653
  endloop
 endfacet
 facet normal -0.382746 0.923854 0.000000
  outer loop
   vertex 420.432281 -627.326416 236.409653
   vertex 420.609070 -627.253174 235.409653
   vertex 420.432281 -627.326416 235.409653
  endloop
 endfacet
 facet normal -0.382803 0.923830 -0.000012
  outer loop
   vertex 420.609039 -627.253174 236.409653
   vertex 420.609070 -627.253174 235.409653
   vertex 420.432281 -627.326416 236.409653
  endloop
 endfacet
 facet normal 0.382803 0.923830 0.000012
  outer loop
   vertex 420.785828 -627.326416 235.409653
   vertex 420.609070 -627.253174 235.409653
   vertex 420.609039 -627.253174 236.409653
  endloop
 endfacet
 facet normal 0.382746 0.923854 0.000000
  outer loop
   vertex 420.609039 -627.253174 236.409653
   vertex 420.785828 -627.326416 236.409653
   vertex 420.785828 -627.326416 235.409653
  endloop
 endfacet
 facet normal 0.923830 0.382803 0.000000
  outer loop
   vertex 420.785828 -627.326416 235.409653
   vertex 420.785828 -627.326416 236.409653
   vertex 420.859070 -627.503174 235.409653
  endloop
 endfacet
 facet normal 0.923887 0.382666 0.000028
  outer loop
   vertex 420.859070 -627.503174 235.409653
   vertex 420.785828 -627.326416 236.409653
   vertex 420.859039 -627.503174 236.409653
  endloop
 endfacet
 facet normal 0.923830 -0.382803 0.000028
  outer loop
   vertex 420.859039 -627.503174 236.409653
   vertex 420.785828 -627.679932 235.409653
   vertex 420.859070 -627.503174 235.409653
  endloop
 endfacet
 facet normal 0.923887 -0.382666 -0.000000
  outer loop
   vertex 420.785828 -627.679932 236.409653
   vertex 420.785828 -627.679932 235.409653
   vertex 420.859039 -627.503174 236.409653
  endloop
 endfacet
 facet normal 0.382803 -0.923830 0.000000
  outer loop
   vertex 420.609070 -627.753174 235.409653
   vertex 420.785828 -627.679932 235.409653
   vertex 420.785828 -627.679932 236.409653
  endloop
 endfacet
 facet normal 0.382746 -0.923854 0.000012
  outer loop
   vertex 420.785828 -627.679932 236.409653
   vertex 420.609039 -627.753174 236.409653
   vertex 420.609070 -627.753174 235.409653
  endloop
 endfacet
 facet normal -0.382746 -0.923854 -0.000012
  outer loop
   vertex 420.609070 -627.753174 235.409653
   vertex 420.609039 -627.753174 236.409653
   vertex 420.432281 -627.679932 235.409653
  endloop
 endfacet
 facet normal -0.382803 -0.923830 -0.000000
  outer loop
   vertex 420.432281 -627.679932 235.409653
   vertex 420.609039 -627.753174 236.409653
   vertex 420.432281 -627.679932 236.409653
  endloop
 endfacet
 facet normal -0.923887 -0.382666 0.000000
  outer loop
   vertex 420.432281 -627.679932 236.409653
   vertex 420.359070 -627.503174 235.409653
   vertex 420.432281 -627.679932 235.409653
  endloop
 endfacet
 facet normal -0.923830 -0.382803 -0.000028
  outer loop
   vertex 420.359039 -627.503174 236.409653
   vertex 420.359070 -627.503174 235.409653
   vertex 420.432281 -627.679932 236.409653
  endloop
 endfacet
 facet normal -0.923870 -0.382706 -0.000000
  outer loop
   vertex 419.901947 -628.210266 237.399612
   vertex 419.901947 -628.210266 238.399612
   vertex 419.609039 -627.503174 237.399612
  endloop
 endfacet
 facet normal -0.923870 -0.382706 -0.000000
  outer loop
   vertex 419.609039 -627.503174 237.399612
   vertex 419.901947 -628.210266 238.399612
   vertex 419.609039 -627.503174 238.399612
  endloop
 endfacet
 facet normal -0.923870 0.382706 0.000000
  outer loop
   vertex 419.609039 -627.503174 238.399612
   vertex 419.901947 -626.796082 237.399612
   vertex 419.609039 -627.503174 237.399612
  endloop
 endfacet
 facet normal -0.923870 0.382706 -0.000000
  outer loop
   vertex 419.901947 -626.796082 238.399612
   vertex 419.901947 -626.796082 237.399612
   vertex 419.609039 -627.503174 238.399612
  endloop
 endfacet
 facet normal -0.382706 0.923870 0.000000
  outer loop
   vertex 420.609039 -626.503174 237.399612
   vertex 419.901947 -626.796082 237.399612
   vertex 419.901947 -626.796082 238.399612
  endloop
 endfacet
 facet normal -0.382706 0.923870 -0.000000
  outer loop
   vertex 419.901947 -626.796082 238.399612
   vertex 420.609039 -626.503174 238.399612
   vertex 420.609039 -626.503174 237.399612
  endloop
 endfacet
 facet normal 0.382692 0.923876 0.000000
  outer loop
   vertex 420.609039 -626.503174 237.399612
   vertex 420.609039 -626.503174 238.399612
   vertex 421.316162 -626.796082 237.399628
  endloop
 endfacet
 facet normal 0.382692 0.923876 -0.000000
  outer loop
   vertex 421.316162 -626.796082 237.399628
   vertex 420.609039 -626.503174 238.399612
   vertex 421.316162 -626.796082 238.399628
  endloop
 endfacet
 facet normal 0.923884 0.382672 0.000000
  outer loop
   vertex 421.316162 -626.796082 238.399628
   vertex 421.609039 -627.503174 237.399628
   vertex 421.316162 -626.796082 237.399628
  endloop
 endfacet
 facet normal 0.923884 0.382672 -0.000000
  outer loop
   vertex 421.609039 -627.503174 238.399628
   vertex 421.609039 -627.503174 237.399628
   vertex 421.316162 -626.796082 238.399628
  endloop
 endfacet
 facet normal 0.923884 -0.382672 0.000000
  outer loop
   vertex 421.316162 -628.210266 237.399612
   vertex 421.609039 -627.503174 237.399628
   vertex 421.609039 -627.503174 238.399628
  endloop
 endfacet
 facet normal 0.923884 -0.382672 -0.000000
  outer loop
   vertex 421.609039 -627.503174 238.399628
   vertex 421.316162 -628.210266 238.399612
   vertex 421.316162 -628.210266 237.399612
  endloop
 endfacet
 facet normal 0.382692 -0.923876 0.000000
  outer loop
   vertex 421.316162 -628.210266 237.399612
   vertex 421.316162 -628.210266 238.399612
   vertex 420.609039 -628.503174 237.399612
  endloop
 endfacet
 facet normal 0.382692 -0.923876 -0.000000
  outer loop
   vertex 420.609039 -628.503174 237.399612
   vertex 421.316162 -628.210266 238.399612
   vertex 420.609039 -628.503174 238.399612
  endloop
 endfacet
 facet normal -0.382706 -0.923870 0.000000
  outer loop
   vertex 420.609039 -628.503174 238.399612
   vertex 419.901947 -628.210266 237.399612
   vertex 420.609039 -628.503174 237.399612
  endloop
 endfacet
 facet normal -0.382706 -0.923870 0.000000
  outer loop
   vertex 419.901947 -628.210266 238.399612
   vertex 419.901947 -628.210266 237.399612
   vertex 420.609039 -628.503174 238.399612
  endloop
 endfacet
endsolid