solid stl file generated from DOUG
 facet normal -0.593887 0.000000 -0.804549
  outer loop
   vertex 407.937653 -708.590149 239.390427
   vertex 407.828094 -708.590149 239.471298
   vertex 407.828094 -682.131653 239.471313
  endloop
 endfacet
 facet normal -1.000000 -0.000000 -0.000000
  outer loop
   vertex 407.828094 -682.131653 239.471313
   vertex 407.828094 -708.590149 239.471298
   vertex 407.828094 -682.131653 239.574066
  endloop
 endfacet
 facet normal -0.593887 -0.000000 0.804549
  outer loop
   vertex 407.937653 -682.131653 238.285904
   vertex 407.828094 -682.131653 238.205032
   vertex 407.828094 -708.590149 238.205017
  endloop
 endfacet
 facet normal -1.000000 -0.000000 -0.000000
  outer loop
   vertex 407.828094 -708.590149 238.205017
   vertex 407.828094 -682.131653 238.205032
   vertex 407.828094 -682.131653 238.102280
  endloop
 endfacet
 facet normal -1.000000 0.000000 0.000000
  outer loop
   vertex 407.828094 -682.131653 238.102280
   vertex 407.828094 -708.590149 238.102264
   vertex 407.828094 -708.590149 238.205017
  endloop
 endfacet
 facet normal -0.933392 0.000000 -0.358858
  outer loop
   vertex 408.560822 -682.131653 238.102280
   vertex 408.560822 -708.590149 238.102264
   vertex 408.548737 -682.131653 238.133713
  endloop
 endfacet
 facet normal -0.933334 0.000000 -0.359009
  outer loop
   vertex 408.548737 -682.131653 238.133713
   vertex 408.560822 -708.590149 238.102264
   vertex 408.548737 -708.590149 238.133682
  endloop
 endfacet
 facet normal 0.000000 0.000001 -1.000000
  outer loop
   vertex 408.548737 -708.590149 238.133682
   vertex 407.973572 -708.590149 238.133682
   vertex 408.548737 -682.131653 238.133713
  endloop
 endfacet
 facet normal -0.593887 0.000000 -0.804549
  outer loop
   vertex 407.828094 -682.131653 239.471313
   vertex 407.937653 -682.131653 239.390442
   vertex 407.937653 -708.590149 239.390427
  endloop
 endfacet
 facet normal -1.000000 -0.000000 -0.000000
  outer loop
   vertex 407.937653 -708.590149 239.390427
   vertex 407.937653 -682.131653 239.390442
   vertex 407.937653 -682.131653 238.285904
  endloop
 endfacet
 facet normal -1.000000 0.000000 0.000000
  outer loop
   vertex 407.937653 -682.131653 238.285904
   vertex 407.937653 -708.590149 238.285889
   vertex 407.937653 -708.590149 239.390427
  endloop
 endfacet
 facet normal -0.593887 -0.000000 0.804549
  outer loop
   vertex 407.828094 -708.590149 238.205017
   vertex 407.937653 -708.590149 238.285889
   vertex 407.937653 -682.131653 238.285904
  endloop
 endfacet
 facet normal 0.000000 0.000001 -1.000000
  outer loop
   vertex 407.828094 -708.590149 238.102264
   vertex 407.828094 -682.131653 238.102280
   vertex 407.961517 -708.590149 238.102264
  endloop
 endfacet
 facet normal -0.000000 0.000001 -1.000000
  outer loop
   vertex 407.961517 -708.590149 238.102264
   vertex 407.828094 -682.131653 238.102280
   vertex 407.961517 -682.131653 238.102280
  endloop
 endfacet
 facet normal 0.933637 0.000000 -0.358219
  outer loop
   vertex 407.961517 -682.131653 238.102280
   vertex 407.973572 -708.590149 238.133682
   vertex 407.961517 -708.590149 238.102264
  endloop
 endfacet
 facet normal 0.933696 0.000000 -0.358068
  outer loop
   vertex 407.973572 -682.131653 238.133713
   vertex 407.973572 -708.590149 238.133682
   vertex 407.961517 -682.131653 238.102280
  endloop
 endfacet
 facet normal 0.000000 0.000001 -1.000000
  outer loop
   vertex 408.548737 -682.131653 238.133713
   vertex 407.973572 -708.590149 238.133682
   vertex 407.973572 -682.131653 238.133713
  endloop
 endfacet
 facet normal 0.000000 1.000000 0.000000
  outer loop
   vertex 407.809387 -681.716309 239.591110
   vertex 408.649872 -681.716309 238.085236
   vertex 407.809387 -681.716309 238.085236
  endloop
 endfacet
 facet normal -0.000000 -0.000000 -1.000000
  outer loop
   vertex 407.809387 -681.716309 238.085236
   vertex 408.649872 -681.716309 238.085236
   vertex 407.809387 -682.716309 238.085236
  endloop
 endfacet
 facet normal -1.000000 0.000000 0.000000
  outer loop
   vertex 407.809387 -682.716309 238.085236
   vertex 407.809387 -682.716309 239.591110
   vertex 407.809387 -681.716309 238.085236
  endloop
 endfacet
 facet normal -0.000000 -1.000000 -0.000000
  outer loop
   vertex 408.649872 -682.716309 238.085236
   vertex 407.809387 -682.716309 239.591110
   vertex 407.809387 -682.716309 238.085236
  endloop
 endfacet
 facet normal 0.000000 -1.000000 0.000000
  outer loop
   vertex 408.649872 -682.716309 239.591110
   vertex 407.809387 -682.716309 239.591110
   vertex 408.649872 -682.716309 238.085236
  endloop
 endfacet
 facet normal 1.000000 -0.000000 -0.000000
  outer loop
   vertex 408.649872 -682.716309 238.085236
   vertex 408.649872 -681.716309 238.085236
   vertex 408.649872 -682.716309 239.591110
  endloop
 endfacet
 facet normal 1.000000 0.000000 -0.000000
  outer loop
   vertex 408.649872 -682.716309 239.591110
   vertex 408.649872 -681.716309 238.085236
   vertex 408.649872 -681.716309 239.591110
  endloop
 endfacet
 facet normal -0.000000 1.000000 -0.000000
  outer loop
   vertex 408.649872 -681.716309 239.591110
   vertex 408.649872 -681.716309 238.085236
   vertex 407.809387 -681.716309 239.591110
  endloop
 endfacet
 facet normal 0.000000 0.000000 1.000000
  outer loop
   vertex 407.809387 -681.716309 239.591110
   vertex 407.809387 -682.716309 239.591110
   vertex 408.649872 -681.716309 239.591110
  endloop
 endfacet
 facet normal -1.000000 0.000000 -0.000000
  outer loop
   vertex 407.809387 -681.716309 238.085236
   vertex 407.809387 -682.716309 239.591110
   vertex 407.809387 -681.716309 239.591110
  endloop
 endfacet
 facet normal 0.000000 1.000000 0.000000
  outer loop
   vertex 407.809387 -708.005493 238.085220
   vertex 407.809387 -708.005493 239.591095
   vertex 408.649872 -708.005493 238.085220
  endloop
 endfacet
 facet normal -0.000000 1.000000 -0.000000
  outer loop
   vertex 408.649872 -708.005493 238.085220
   vertex 407.809387 -708.005493 239.591095
   vertex 408.649872 -708.005493 239.591095
  endloop
 endfacet
 facet normal 1.000000 -0.000000 0.000000
  outer loop
   vertex 408.649872 -708.005493 239.591095
   vertex 408.649872 -709.005493 239.591095
   vertex 408.649872 -708.005493 238.085220
  endloop
 endfacet
 facet normal -0.000000 -0.000000 1.000000
  outer loop
   vertex 407.809387 -708.005493 239.591095
   vertex 408.649872 -709.005493 239.591095
   vertex 408.649872 -708.005493 239.591095
  endloop
 endfacet
 facet normal 0.000000 0.000000 1.000000
  outer loop
   vertex 407.809387 -709.005493 239.591095
   vertex 408.649872 -709.005493 239.591095
   vertex 407.809387 -708.005493 239.591095
  endloop
 endfacet
 facet normal -1.000000 -0.000000 -0.000000
  outer loop
   vertex 407.809387 -708.005493 239.591095
   vertex 407.809387 -709.005493 238.085220
   vertex 407.809387 -709.005493 239.591095
  endloop
 endfacet
 facet normal 0.000000 -1.000000 0.000000
  outer loop
   vertex 407.809387 -709.005493 239.591095
   vertex 407.809387 -709.005493 238.085220
   vertex 408.649872 -709.005493 239.591095
  endloop
 endfacet
 facet normal -0.000000 -1.000000 -0.000000
  outer loop
   vertex 408.649872 -709.005493 239.591095
   vertex 407.809387 -709.005493 238.085220
   vertex 408.649872 -709.005493 238.085220
  endloop
 endfacet
 facet normal 1.000000 0.000000 0.000000
  outer loop
   vertex 408.649872 -709.005493 238.085220
   vertex 408.649872 -708.005493 238.085220
   vertex 408.649872 -709.005493 239.591095
  endloop
 endfacet
 facet normal -0.000000 -0.000000 -1.000000
  outer loop
   vertex 407.809387 -709.005493 238.085220
   vertex 408.649872 -708.005493 238.085220
   vertex 408.649872 -709.005493 238.085220
  endloop
 endfacet
 facet normal -0.000000 0.000000 -1.000000
  outer loop
   vertex 407.809387 -708.005493 238.085220
   vertex 408.649872 -708.005493 238.085220
   vertex 407.809387 -709.005493 238.085220
  endloop
 endfacet
 facet normal -1.000000 -0.000000 -0.000000
  outer loop
   vertex 407.809387 -709.005493 238.085220
   vertex 407.809387 -708.005493 239.591095
   vertex 407.809387 -708.005493 238.085220
  endloop
 endfacet
 facet normal -1.000000 0.000000 0.000000
  outer loop
   vertex 407.828094 -708.590149 239.471298
   vertex 407.828094 -708.590149 239.574051
   vertex 407.828094 -682.131653 239.574066
  endloop
 endfacet
 facet normal -0.000000 -0.000001 1.000000
  outer loop
   vertex 407.828094 -682.131653 239.574066
   vertex 407.828094 -708.590149 239.574051
   vertex 407.961487 -708.590149 239.574051
  endloop
 endfacet
 facet normal 0.000000 -0.000001 1.000000
  outer loop
   vertex 407.961487 -708.590149 239.574051
   vertex 407.961517 -682.131653 239.574066
   vertex 407.828094 -682.131653 239.574066
  endloop
 endfacet
 facet normal 0.933392 -0.000001 0.358858
  outer loop
   vertex 407.973572 -708.590149 239.542618
   vertex 407.961517 -682.131653 239.574066
   vertex 407.961487 -708.590149 239.574051
  endloop
 endfacet
 facet normal 0.933637 -0.000000 0.358219
  outer loop
   vertex 407.973572 -682.131653 239.542648
   vertex 407.961517 -682.131653 239.574066
   vertex 407.973572 -708.590149 239.542618
  endloop
 endfacet
 facet normal -0.000000 -0.000001 1.000000
  outer loop
   vertex 407.973572 -708.590149 239.542618
   vertex 408.548737 -708.590149 239.542618
   vertex 407.973572 -682.131653 239.542648
  endloop
 endfacet
 facet normal 0.000000 -0.000001 1.000000
  outer loop
   vertex 407.973572 -682.131653 239.542648
   vertex 408.548737 -708.590149 239.542618
   vertex 408.548737 -682.131653 239.542648
  endloop
 endfacet
 facet normal -0.933392 -0.000000 0.358858
  outer loop
   vertex 408.548737 -682.131653 239.542648
   vertex 408.548737 -708.590149 239.542618
   vertex 408.560822 -708.590149 239.574051
  endloop
 endfacet
 facet normal -0.933334 -0.000000 0.359009
  outer loop
   vertex 408.560822 -708.590149 239.574051
   vertex 408.560822 -682.131653 239.574066
   vertex 408.548737 -682.131653 239.542648
  endloop
 endfacet
 facet normal -0.000000 -0.000001 1.000000
  outer loop
   vertex 408.627014 -708.590149 239.574051
   vertex 408.560822 -682.131653 239.574066
   vertex 408.560822 -708.590149 239.574051
  endloop
 endfacet
 facet normal 0.000000 -0.000001 1.000000
  outer loop
   vertex 408.627014 -682.131653 239.574066
   vertex 408.560822 -682.131653 239.574066
   vertex 408.627014 -708.590149 239.574051
  endloop
 endfacet
 facet normal 1.000000 -0.000000 -0.000000
  outer loop
   vertex 408.627014 -708.590149 239.574051
   vertex 408.627014 -708.590149 238.102264
   vertex 408.627014 -682.131653 239.574066
  endloop
 endfacet
 facet normal 1.000000 0.000000 0.000000
  outer loop
   vertex 408.627014 -682.131653 239.574066
   vertex 408.627014 -708.590149 238.102264
   vertex 408.627014 -682.131653 238.102280
  endloop
 endfacet
 facet normal -0.000000 0.000001 -1.000000
  outer loop
   vertex 408.627014 -682.131653 238.102280
   vertex 408.627014 -708.590149 238.102264
   vertex 408.560822 -682.131653 238.102280
  endloop
 endfacet
 facet normal 0.000000 0.000000 -1.000000
  outer loop
   vertex 408.649872 -682.716309 238.085236
   vertex 407.809387 -682.716309 238.085236
   vertex 408.649872 -681.716309 238.085236
  endloop
 endfacet
 facet normal 0.000000 -0.000000 1.000000
  outer loop
   vertex 407.809387 -682.716309 239.591110
   vertex 408.649872 -682.716309 239.591110
   vertex 408.649872 -681.716309 239.591110
  endloop
 endfacet
 facet normal 0.000000 0.000001 -1.000000
  outer loop
   vertex 408.627014 -708.590149 238.102264
   vertex 408.560822 -708.590149 238.102264
   vertex 408.560822 -682.131653 238.102280
  endloop
 endfacet
 facet normal -0.569581 -0.759441 0.314369
  outer loop
   vertex 409.590424 -708.720886 238.838150
   vertex 410.590424 -709.470886 238.838150
   vertex 409.590424 -708.647705 239.014938
  endloop
 endfacet
 facet normal -0.569516 -0.759405 0.314571
  outer loop
   vertex 409.590424 -708.647705 239.014938
   vertex 410.590424 -709.470886 238.838150
   vertex 410.590424 -709.177979 239.545258
  endloop
 endfacet
 facet normal -0.569504 -0.314455 0.759462
  outer loop
   vertex 410.590424 -709.177979 239.545258
   vertex 409.590424 -708.470886 239.088150
   vertex 409.590424 -708.647705 239.014938
  endloop
 endfacet
 facet normal -0.569548 -0.314568 0.759382
  outer loop
   vertex 410.590424 -708.470886 239.838165
   vertex 409.590424 -708.470886 239.088150
   vertex 410.590424 -709.177979 239.545258
  endloop
 endfacet
 facet normal -0.569555 0.314534 0.759391
  outer loop
   vertex 409.590424 -708.294128 239.014938
   vertex 409.590424 -708.470886 239.088150
   vertex 410.590424 -708.470886 239.838165
  endloop
 endfacet
 facet normal -0.569549 0.314554 0.759388
  outer loop
   vertex 410.590424 -708.470886 239.838165
   vertex 410.590424 -707.763794 239.545273
   vertex 409.590424 -708.294128 239.014938
  endloop
 endfacet
 facet normal -0.569558 0.759362 0.314599
  outer loop
   vertex 409.590424 -708.294128 239.014938
   vertex 410.590424 -707.763794 239.545273
   vertex 409.590424 -708.220886 238.838150
  endloop
 endfacet
 facet normal -0.569545 0.759387 0.314564
  outer loop
   vertex 409.590424 -708.220886 238.838150
   vertex 410.590424 -707.763794 239.545273
   vertex 410.590424 -707.470886 238.838165
  endloop
 endfacet
 facet normal -0.569525 0.759374 -0.314630
  outer loop
   vertex 410.590424 -707.470886 238.838165
   vertex 409.590424 -708.294128 238.661377
   vertex 409.590424 -708.220886 238.838150
  endloop
 endfacet
 facet normal -0.569547 0.759385 -0.314563
  outer loop
   vertex 410.590424 -707.763794 238.131058
   vertex 409.590424 -708.294128 238.661377
   vertex 410.590424 -707.470886 238.838165
  endloop
 endfacet
 facet normal -0.569549 0.314592 -0.759372
  outer loop
   vertex 409.590424 -708.470886 238.588150
   vertex 409.590424 -708.294128 238.661377
   vertex 410.590424 -707.763794 238.131058
  endloop
 endfacet
 facet normal -0.569536 0.314558 -0.759396
  outer loop
   vertex 410.590424 -707.763794 238.131058
   vertex 410.590424 -708.470886 237.838165
   vertex 409.590424 -708.470886 238.588150
  endloop
 endfacet
 facet normal -0.569547 -0.314499 -0.759412
  outer loop
   vertex 409.590424 -708.470886 238.588150
   vertex 410.590424 -708.470886 237.838165
   vertex 409.590424 -708.647705 238.661377
  endloop
 endfacet
 facet normal -0.569528 -0.314560 -0.759401
  outer loop
   vertex 409.590424 -708.647705 238.661377
   vertex 410.590424 -708.470886 237.838165
   vertex 410.590424 -709.177979 238.131058
  endloop
 endfacet
 facet normal -0.569482 -0.759494 -0.314418
  outer loop
   vertex 410.590424 -709.177979 238.131058
   vertex 409.590424 -708.720886 238.838150
   vertex 409.590424 -708.647705 238.661377
  endloop
 endfacet
 facet normal -0.569540 -0.759387 -0.314571
  outer loop
   vertex 410.590424 -709.470886 238.838150
   vertex 409.590424 -708.720886 238.838150
   vertex 410.590424 -709.177979 238.131058
  endloop
 endfacet
 facet normal 0.000000 -0.923842 0.382774
  outer loop
   vertex 408.600464 -682.500916 238.838181
   vertex 409.600464 -682.500916 238.838181
   vertex 408.600464 -682.427673 239.014954
  endloop
 endfacet
 facet normal -0.000000 -0.923842 0.382774
  outer loop
   vertex 408.600464 -682.427673 239.014954
   vertex 409.600464 -682.500916 238.838181
   vertex 409.600464 -682.427673 239.014954
  endloop
 endfacet
 facet normal 0.000000 -0.382734 0.923858
  outer loop
   vertex 409.600464 -682.427673 239.014954
   vertex 408.600464 -682.250916 239.088181
   vertex 408.600464 -682.427673 239.014954
  endloop
 endfacet
 facet normal -0.000000 -0.382734 0.923858
  outer loop
   vertex 409.600464 -682.250916 239.088181
   vertex 408.600464 -682.250916 239.088181
   vertex 409.600464 -682.427673 239.014954
  endloop
 endfacet
 facet normal -0.000000 0.382622 0.923905
  outer loop
   vertex 408.600464 -682.074097 239.014954
   vertex 408.600464 -682.250916 239.088181
   vertex 409.600464 -682.250916 239.088181
  endloop
 endfacet
 facet normal 0.000000 0.382622 0.923905
  outer loop
   vertex 409.600464 -682.250916 239.088181
   vertex 409.600464 -682.074097 239.014954
   vertex 408.600464 -682.074097 239.014954
  endloop
 endfacet
 facet normal 0.000000 0.923955 0.382502
  outer loop
   vertex 408.600464 -682.074097 239.014954
   vertex 409.600464 -682.074097 239.014954
   vertex 408.600464 -682.000916 238.838181
  endloop
 endfacet
 facet normal -0.000000 0.923955 0.382502
  outer loop
   vertex 408.600464 -682.000916 238.838181
   vertex 409.600464 -682.074097 239.014954
   vertex 409.600464 -682.000916 238.838181
  endloop
 endfacet
 facet normal 0.000000 0.923966 -0.382474
  outer loop
   vertex 409.600464 -682.000916 238.838181
   vertex 408.600464 -682.074097 238.661392
   vertex 408.600464 -682.000916 238.838181
  endloop
 endfacet
 facet normal 0.000006 0.923955 -0.382502
  outer loop
   vertex 409.600464 -682.074097 238.661407
   vertex 408.600464 -682.074097 238.661392
   vertex 409.600464 -682.000916 238.838181
  endloop
 endfacet
 facet normal 0.000014 0.382554 -0.923933
  outer loop
   vertex 408.600464 -682.250916 238.588181
   vertex 408.600464 -682.074097 238.661392
   vertex 409.600464 -682.074097 238.661407
  endloop
 endfacet
 facet normal -0.000000 0.382622 -0.923905
  outer loop
   vertex 409.600464 -682.074097 238.661407
   vertex 409.600464 -682.250916 238.588181
   vertex 408.600464 -682.250916 238.588181
  endloop
 endfacet
 facet normal -0.000000 -0.382666 -0.923887
  outer loop
   vertex 408.600464 -682.250916 238.588181
   vertex 409.600464 -682.250916 238.588181
   vertex 408.600464 -682.427673 238.661392
  endloop
 endfacet
 facet normal 0.000014 -0.382734 -0.923858
  outer loop
   vertex 408.600464 -682.427673 238.661392
   vertex 409.600464 -682.250916 238.588181
   vertex 409.600464 -682.427673 238.661407
  endloop
 endfacet
 facet normal 0.000006 -0.923854 -0.382746
  outer loop
   vertex 409.600464 -682.427673 238.661407
   vertex 408.600464 -682.500916 238.838181
   vertex 408.600464 -682.427673 238.661392
  endloop
 endfacet
 facet normal 0.000000 -0.923842 -0.382774
  outer loop
   vertex 409.600464 -682.500916 238.838181
   vertex 408.600464 -682.500916 238.838181
   vertex 409.600464 -682.427673 238.661407
  endloop
 endfacet
 facet normal 0.000000 -0.923873 0.382699
  outer loop
   vertex 410.590424 -683.250916 238.838181
   vertex 411.590424 -683.250916 238.838181
   vertex 410.590424 -682.958008 239.545288
  endloop
 endfacet
 facet normal -0.000000 -0.923873 0.382699
  outer loop
   vertex 410.590424 -682.958008 239.545288
   vertex 411.590424 -683.250916 238.838181
   vertex 411.590424 -682.958008 239.545288
  endloop
 endfacet
 facet normal 0.000000 -0.382689 0.923877
  outer loop
   vertex 411.590424 -682.958008 239.545288
   vertex 410.590424 -682.250916 239.838181
   vertex 410.590424 -682.958008 239.545288
  endloop
 endfacet
 facet normal -0.000000 -0.382689 0.923877
  outer loop
   vertex 411.590424 -682.250916 239.838181
   vertex 410.590424 -682.250916 239.838181
   vertex 411.590424 -682.958008 239.545288
  endloop
 endfacet
 facet normal -0.000000 0.382689 0.923877
  outer loop
   vertex 410.590424 -681.543823 239.545288
   vertex 410.590424 -682.250916 239.838181
   vertex 411.590424 -682.250916 239.838181
  endloop
 endfacet
 facet normal 0.000000 0.382689 0.923877
  outer loop
   vertex 411.590424 -682.250916 239.838181
   vertex 411.590424 -681.543823 239.545288
   vertex 410.590424 -681.543823 239.545288
  endloop
 endfacet
 facet normal 0.000000 0.923873 0.382699
  outer loop
   vertex 410.590424 -681.543823 239.545288
   vertex 411.590424 -681.543823 239.545288
   vertex 410.590424 -681.250916 238.838181
  endloop
 endfacet
 facet normal -0.000000 0.923873 0.382699
  outer loop
   vertex 410.590424 -681.250916 238.838181
   vertex 411.590424 -681.543823 239.545288
   vertex 411.590424 -681.250916 238.838181
  endloop
 endfacet
 facet normal 0.000000 0.923873 -0.382699
  outer loop
   vertex 411.590424 -681.250916 238.838181
   vertex 410.590424 -681.543823 238.131073
   vertex 410.590424 -681.250916 238.838181
  endloop
 endfacet
 facet normal -0.000000 0.923873 -0.382699
  outer loop
   vertex 411.590424 -681.543823 238.131073
   vertex 410.590424 -681.543823 238.131073
   vertex 411.590424 -681.250916 238.838181
  endloop
 endfacet
 facet normal 0.000000 0.382689 -0.923877
  outer loop
   vertex 410.590424 -682.250916 237.838181
   vertex 410.590424 -681.543823 238.131073
   vertex 411.590424 -681.543823 238.131073
  endloop
 endfacet
 facet normal -0.000000 0.382689 -0.923877
  outer loop
   vertex 411.590424 -681.543823 238.131073
   vertex 411.590424 -682.250916 237.838181
   vertex 410.590424 -682.250916 237.838181
  endloop
 endfacet
 facet normal -0.000000 -0.382689 -0.923877
  outer loop
   vertex 410.590424 -682.250916 237.838181
   vertex 411.590424 -682.250916 237.838181
   vertex 410.590424 -682.958008 238.131073
  endloop
 endfacet
 facet normal -0.000000 -0.382689 -0.923877
  outer loop
   vertex 410.590424 -682.958008 238.131073
   vertex 411.590424 -682.250916 237.838181
   vertex 411.590424 -682.958008 238.131073
  endloop
 endfacet
 facet normal 0.000000 -0.923873 -0.382699
  outer loop
   vertex 411.590424 -682.958008 238.131073
   vertex 410.590424 -683.250916 238.838181
   vertex 410.590424 -682.958008 238.131073
  endloop
 endfacet
 facet normal 0.000000 -0.923873 -0.382699
  outer loop
   vertex 411.590424 -683.250916 238.838181
   vertex 410.590424 -683.250916 238.838181
   vertex 411.590424 -682.958008 238.131073
  endloop
 endfacet
 facet normal -0.569529 -0.759372 0.314630
  outer loop
   vertex 409.590424 -682.500916 238.838181
   vertex 410.590424 -683.250916 238.838181
   vertex 409.590424 -682.427673 239.014954
  endloop
 endfacet
 facet normal -0.569550 -0.759383 0.314562
  outer loop
   vertex 409.590424 -682.427673 239.014954
   vertex 410.590424 -683.250916 238.838181
   vertex 410.590424 -682.958008 239.545288
  endloop
 endfacet
 facet normal -0.569556 -0.314589 0.759367
  outer loop
   vertex 410.590424 -682.958008 239.545288
   vertex 409.590424 -682.250916 239.088181
   vertex 409.590424 -682.427673 239.014954
  endloop
 endfacet
 facet normal -0.569543 -0.314556 0.759391
  outer loop
   vertex 410.590424 -682.250916 239.838181
   vertex 409.590424 -682.250916 239.088181
   vertex 410.590424 -682.958008 239.545288
  endloop
 endfacet
 facet normal -0.569555 0.314497 0.759407
  outer loop
   vertex 409.590424 -682.074097 239.014954
   vertex 409.590424 -682.250916 239.088181
   vertex 410.590424 -682.250916 239.838181
  endloop
 endfacet
 facet normal -0.569536 0.314558 0.759396
  outer loop
   vertex 410.590424 -682.250916 239.838181
   vertex 410.590424 -681.543823 239.545288
   vertex 409.590424 -682.074097 239.014954
  endloop
 endfacet
 facet normal -0.569485 0.759492 0.314417
  outer loop
   vertex 409.590424 -682.074097 239.014954
   vertex 410.590424 -681.543823 239.545288
   vertex 409.590424 -682.000916 238.838181
  endloop
 endfacet
 facet normal -0.569542 0.759389 0.314564
  outer loop
   vertex 409.590424 -682.000916 238.838181
   vertex 410.590424 -681.543823 239.545288
   vertex 410.590424 -681.250916 238.838181
  endloop
 endfacet
 facet normal -0.569576 0.759434 -0.314393
  outer loop
   vertex 410.590424 -681.250916 238.838181
   vertex 409.590424 -682.074097 238.661407
   vertex 409.590424 -682.000916 238.838181
  endloop
 endfacet
 facet normal -0.569519 0.759403 -0.314570
  outer loop
   vertex 410.590424 -681.543823 238.131073
   vertex 409.590424 -682.074097 238.661407
   vertex 410.590424 -681.250916 238.838181
  endloop
 endfacet
 facet normal -0.569524 0.314505 -0.759427
  outer loop
   vertex 409.590424 -682.250916 238.588181
   vertex 409.590424 -682.074097 238.661407
   vertex 410.590424 -681.543823 238.131073
  endloop
 endfacet
 facet normal -0.569543 0.314556 -0.759391
  outer loop
   vertex 410.590424 -681.543823 238.131073
   vertex 410.590424 -682.250916 237.838181
   vertex 409.590424 -682.250916 238.588181
  endloop
 endfacet
 facet normal -0.569536 -0.314595 -0.759381
  outer loop
   vertex 409.590424 -682.250916 238.588181
   vertex 410.590424 -682.250916 237.838181
   vertex 409.590424 -682.427673 238.661407
  endloop
 endfacet
 facet normal -0.569549 -0.314554 -0.759388
  outer loop
   vertex 409.590424 -682.427673 238.661407
   vertex 410.590424 -682.250916 237.838181
   vertex 410.590424 -682.958008 238.131073
  endloop
 endfacet
 facet normal -0.569563 -0.759350 -0.314620
  outer loop
   vertex 410.590424 -682.958008 238.131073
   vertex 409.590424 -682.500916 238.838181
   vertex 409.590424 -682.427673 238.661407
  endloop
 endfacet
 facet normal -0.569542 -0.759389 -0.314564
  outer loop
   vertex 410.590424 -683.250916 238.838181
   vertex 409.590424 -682.500916 238.838181
   vertex 410.590424 -682.958008 238.131073
  endloop
 endfacet
 facet normal 0.000000 -0.923966 0.382474
  outer loop
   vertex 408.600464 -708.720886 238.838150
   vertex 409.600464 -708.720886 238.838150
   vertex 408.600464 -708.647705 239.014938
  endloop
 endfacet
 facet normal -0.000000 -0.923966 0.382474
  outer loop
   vertex 408.600464 -708.647705 239.014938
   vertex 409.600464 -708.720886 238.838150
   vertex 409.600464 -708.647705 239.014938
  endloop
 endfacet
 facet normal 0.000000 -0.382554 0.923933
  outer loop
   vertex 409.600464 -708.647705 239.014938
   vertex 408.600464 -708.470886 239.088150
   vertex 408.600464 -708.647705 239.014938
  endloop
 endfacet
 facet normal -0.000000 -0.382554 0.923933
  outer loop
   vertex 409.600464 -708.470886 239.088150
   vertex 408.600464 -708.470886 239.088150
   vertex 409.600464 -708.647705 239.014938
  endloop
 endfacet
 facet normal -0.000000 0.382666 0.923887
  outer loop
   vertex 408.600464 -708.294128 239.014938
   vertex 408.600464 -708.470886 239.088150
   vertex 409.600464 -708.470886 239.088150
  endloop
 endfacet
 facet normal 0.000000 0.382666 0.923887
  outer loop
   vertex 409.600464 -708.470886 239.088150
   vertex 409.600464 -708.294128 239.014938
   vertex 408.600464 -708.294128 239.014938
  endloop
 endfacet
 facet normal 0.000000 0.923854 0.382746
  outer loop
   vertex 408.600464 -708.294128 239.014938
   vertex 409.600464 -708.294128 239.014938
   vertex 408.600464 -708.220886 238.838150
  endloop
 endfacet
 facet normal -0.000000 0.923854 0.382746
  outer loop
   vertex 408.600464 -708.220886 238.838150
   vertex 409.600464 -708.294128 239.014938
   vertex 409.600464 -708.220886 238.838150
  endloop
 endfacet
 facet normal 0.000000 0.923842 -0.382774
  outer loop
   vertex 409.600464 -708.220886 238.838150
   vertex 408.600464 -708.294128 238.661377
   vertex 408.600464 -708.220886 238.838150
  endloop
 endfacet
 facet normal -0.000000 0.923842 -0.382774
  outer loop
   vertex 409.600464 -708.294128 238.661377
   vertex 408.600464 -708.294128 238.661377
   vertex 409.600464 -708.220886 238.838150
  endloop
 endfacet
 facet normal 0.000000 0.382734 -0.923858
  outer loop
   vertex 408.600464 -708.470886 238.588150
   vertex 408.600464 -708.294128 238.661377
   vertex 409.600464 -708.294128 238.661377
  endloop
 endfacet
 facet normal -0.000000 0.382734 -0.923858
  outer loop
   vertex 409.600464 -708.294128 238.661377
   vertex 409.600464 -708.470886 238.588150
   vertex 408.600464 -708.470886 238.588150
  endloop
 endfacet
 facet normal -0.000000 -0.382622 -0.923905
  outer loop
   vertex 408.600464 -708.470886 238.588150
   vertex 409.600464 -708.470886 238.588150
   vertex 408.600464 -708.647705 238.661377
  endloop
 endfacet
 facet normal -0.000000 -0.382622 -0.923905
  outer loop
   vertex 408.600464 -708.647705 238.661377
   vertex 409.600464 -708.470886 238.588150
   vertex 409.600464 -708.647705 238.661377
  endloop
 endfacet
 facet normal 0.000000 -0.923955 -0.382502
  outer loop
   vertex 409.600464 -708.647705 238.661377
   vertex 408.600464 -708.720886 238.838150
   vertex 408.600464 -708.647705 238.661377
  endloop
 endfacet
 facet normal 0.000000 -0.923955 -0.382502
  outer loop
   vertex 409.600464 -708.720886 238.838150
   vertex 408.600464 -708.720886 238.838150
   vertex 409.600464 -708.647705 238.661377
  endloop
 endfacet
 facet normal -0.000000 -0.923870 -0.382706
  outer loop
   vertex 410.590424 -709.177979 238.131058
   vertex 411.590424 -709.177979 238.131058
   vertex 410.590424 -709.470886 238.838150
  endloop
 endfacet
 facet normal 0.000006 -0.923873 -0.382699
  outer loop
   vertex 410.590424 -709.470886 238.838150
   vertex 411.590424 -709.177979 238.131058
   vertex 411.590424 -709.470886 238.838165
  endloop
 endfacet
 facet normal -0.000006 -0.923873 0.382699
  outer loop
   vertex 411.590424 -709.470886 238.838165
   vertex 410.590424 -709.177979 239.545258
   vertex 410.590424 -709.470886 238.838150
  endloop
 endfacet
 facet normal -0.000006 -0.923873 0.382699
  outer loop
   vertex 411.590424 -709.177979 239.545273
   vertex 410.590424 -709.177979 239.545258
   vertex 411.590424 -709.470886 238.838165
  endloop
 endfacet
 facet normal -0.000014 -0.382706 0.923870
  outer loop
   vertex 410.590424 -708.470886 239.838165
   vertex 410.590424 -709.177979 239.545258
   vertex 411.590424 -709.177979 239.545273
  endloop
 endfacet
 facet normal -0.000000 -0.382689 0.923877
  outer loop
   vertex 411.590424 -709.177979 239.545273
   vertex 411.590424 -708.470886 239.838165
   vertex 410.590424 -708.470886 239.838165
  endloop
 endfacet
 facet normal 0.000000 0.382689 0.923877
  outer loop
   vertex 410.590424 -708.470886 239.838165
   vertex 411.590424 -708.470886 239.838165
   vertex 410.590424 -707.763794 239.545273
  endloop
 endfacet
 facet normal -0.000000 0.382689 0.923877
  outer loop
   vertex 410.590424 -707.763794 239.545273
   vertex 411.590424 -708.470886 239.838165
   vertex 411.590424 -707.763794 239.545273
  endloop
 endfacet
 facet normal 0.000000 0.923873 0.382699
  outer loop
   vertex 411.590424 -707.763794 239.545273
   vertex 410.590424 -707.470886 238.838165
   vertex 410.590424 -707.763794 239.545273
  endloop
 endfacet
 facet normal -0.000000 0.923873 0.382699
  outer loop
   vertex 411.590424 -707.470886 238.838165
   vertex 410.590424 -707.470886 238.838165
   vertex 411.590424 -707.763794 239.545273
  endloop
 endfacet
 facet normal 0.000000 0.923873 -0.382699
  outer loop
   vertex 410.590424 -707.763794 238.131058
   vertex 410.590424 -707.470886 238.838165
   vertex 411.590424 -707.470886 238.838165
  endloop
 endfacet
 facet normal -0.000000 0.923873 -0.382699
  outer loop
   vertex 411.590424 -707.470886 238.838165
   vertex 411.590424 -707.763794 238.131058
   vertex 410.590424 -707.763794 238.131058
  endloop
 endfacet
 facet normal 0.000000 0.382689 -0.923877
  outer loop
   vertex 410.590424 -707.763794 238.131058
   vertex 411.590424 -707.763794 238.131058
   vertex 410.590424 -708.470886 237.838165
  endloop
 endfacet
 facet normal -0.000000 0.382689 -0.923877
  outer loop
   vertex 410.590424 -708.470886 237.838165
   vertex 411.590424 -707.763794 238.131058
   vertex 411.590424 -708.470886 237.838165
  endloop
 endfacet
 facet normal 0.000000 -0.382689 -0.923877
  outer loop
   vertex 411.590424 -708.470886 237.838165
   vertex 410.590424 -709.177979 238.131058
   vertex 410.590424 -708.470886 237.838165
  endloop
 endfacet
 facet normal 0.000000 -0.382689 -0.923877
  outer loop
   vertex 411.590424 -709.177979 238.131058
   vertex 410.590424 -709.177979 238.131058
   vertex 411.590424 -708.470886 237.838165
  endloop
 endfacet
endsolid