solid stl file generated from DOUG
 facet normal 0.149042 0.988831 0.000000
  outer loop
   vertex 366.822418 -327.913086 45.676739
   vertex 366.687775 -327.892792 45.676735
   vertex 366.687714 -327.892792 72.135262
  endloop
 endfacet
 facet normal -0.707107 0.707107 -0.000002
  outer loop
   vertex 366.687714 -327.892792 72.135262
   vertex 366.687775 -327.892792 45.676735
   vertex 366.615051 -327.965454 72.135262
  endloop
 endfacet
 facet normal -0.988836 -0.149009 -0.000001
  outer loop
   vertex 367.603424 -327.132080 72.135269
   vertex 367.583130 -326.997406 72.135269
   vertex 367.583160 -326.997406 45.676739
  endloop
 endfacet
 facet normal -0.707255 0.706958 -0.000001
  outer loop
   vertex 367.583160 -326.997406 45.676739
   vertex 367.583130 -326.997406 72.135269
   vertex 367.655762 -326.924744 72.135269
  endloop
 endfacet
 facet normal -0.707107 0.707107 -0.000002
  outer loop
   vertex 367.655762 -326.924744 72.135269
   vertex 367.655823 -326.924744 45.676739
   vertex 367.583160 -326.997406 45.676739
  endloop
 endfacet
 facet normal -0.406138 0.913812 0.000001
  outer loop
   vertex 368.173889 -327.442871 72.135269
   vertex 368.173920 -327.442841 45.676739
   vertex 368.143127 -327.456543 72.135269
  endloop
 endfacet
 facet normal -0.406895 0.913475 -0.000000
  outer loop
   vertex 368.143127 -327.456543 72.135269
   vertex 368.173920 -327.442841 45.676739
   vertex 368.143158 -327.456543 45.676739
  endloop
 endfacet
 facet normal 0.707133 0.707080 0.000001
  outer loop
   vertex 368.143158 -327.456543 45.676739
   vertex 367.736481 -327.049835 45.676739
   vertex 368.143127 -327.456543 72.135269
  endloop
 endfacet
 facet normal 0.149228 0.988803 0.000001
  outer loop
   vertex 366.687714 -327.892792 72.135262
   vertex 366.822388 -327.913116 72.135269
   vertex 366.822418 -327.913086 45.676739
  endloop
 endfacet
 facet normal -0.707107 0.707107 -0.000000
  outer loop
   vertex 366.822418 -327.913086 45.676739
   vertex 366.822388 -327.913116 72.135269
   vertex 367.603424 -327.132080 72.135269
  endloop
 endfacet
 facet normal -0.707107 0.707107 0.000000
  outer loop
   vertex 367.603424 -327.132080 72.135269
   vertex 367.603455 -327.132050 45.676739
   vertex 366.822418 -327.913086 45.676739
  endloop
 endfacet
 facet normal -0.988831 -0.149042 -0.000001
  outer loop
   vertex 367.583160 -326.997406 45.676739
   vertex 367.603455 -327.132050 45.676739
   vertex 367.603424 -327.132080 72.135269
  endloop
 endfacet
 facet normal 0.707107 0.707107 0.000002
  outer loop
   vertex 367.655823 -326.924744 45.676739
   vertex 367.655762 -326.924744 72.135269
   vertex 367.750153 -327.019073 45.676739
  endloop
 endfacet
 facet normal 0.707107 0.707107 0.000002
  outer loop
   vertex 367.750153 -327.019073 45.676739
   vertex 367.655762 -326.924744 72.135269
   vertex 367.750122 -327.019104 72.135269
  endloop
 endfacet
 facet normal 0.913812 -0.406138 0.000001
  outer loop
   vertex 367.750122 -327.019104 72.135269
   vertex 367.736481 -327.049835 45.676739
   vertex 367.750153 -327.019073 45.676739
  endloop
 endfacet
 facet normal 0.913812 -0.406138 0.000001
  outer loop
   vertex 367.736450 -327.049866 72.135269
   vertex 367.736481 -327.049835 45.676739
   vertex 367.750122 -327.019104 72.135269
  endloop
 endfacet
 facet normal 0.707107 0.707107 0.000002
  outer loop
   vertex 368.143127 -327.456543 72.135269
   vertex 367.736481 -327.049835 45.676739
   vertex 367.736450 -327.049866 72.135269
  endloop
 endfacet
 facet normal 0.000000 0.000000 1.000000
  outer loop
   vertex 366.589783 -327.964294 72.550583
   vertex 368.248932 -327.493805 72.550583
   vertex 367.654602 -326.899475 72.550583
  endloop
 endfacet
 facet normal 0.707107 0.707107 -0.000000
  outer loop
   vertex 367.654602 -326.899475 72.550583
   vertex 368.248932 -327.493805 72.550583
   vertex 367.654602 -326.899475 71.550583
  endloop
 endfacet
 facet normal -0.707107 0.707107 0.000000
  outer loop
   vertex 367.654602 -326.899475 71.550583
   vertex 366.589783 -327.964294 71.550583
   vertex 367.654602 -326.899475 72.550583
  endloop
 endfacet
 facet normal -0.000000 -0.000000 -1.000000
  outer loop
   vertex 368.248932 -327.493805 71.550583
   vertex 366.589783 -327.964294 71.550583
   vertex 367.654602 -326.899475 71.550583
  endloop
 endfacet
 facet normal 0.000000 0.000000 -1.000000
  outer loop
   vertex 367.184113 -328.558624 71.550583
   vertex 366.589783 -327.964294 71.550583
   vertex 368.248932 -327.493805 71.550583
  endloop
 endfacet
 facet normal 0.707107 -0.707107 -0.000000
  outer loop
   vertex 368.248932 -327.493805 71.550583
   vertex 368.248932 -327.493805 72.550583
   vertex 367.184113 -328.558624 71.550583
  endloop
 endfacet
 facet normal 0.707107 -0.707107 0.000000
  outer loop
   vertex 367.184113 -328.558624 71.550583
   vertex 368.248932 -327.493805 72.550583
   vertex 367.184113 -328.558624 72.550583
  endloop
 endfacet
 facet normal -0.000000 -0.000000 1.000000
  outer loop
   vertex 367.184113 -328.558624 72.550583
   vertex 368.248932 -327.493805 72.550583
   vertex 366.589783 -327.964294 72.550583
  endloop
 endfacet
 facet normal -0.707107 -0.707107 0.000000
  outer loop
   vertex 366.589783 -327.964294 72.550583
   vertex 366.589783 -327.964294 71.550583
   vertex 367.184113 -328.558624 72.550583
  endloop
 endfacet
 facet normal -0.707107 0.707107 -0.000000
  outer loop
   vertex 367.654602 -326.899475 72.550583
   vertex 366.589783 -327.964294 71.550583
   vertex 366.589783 -327.964294 72.550583
  endloop
 endfacet
 facet normal 0.000000 0.000000 1.000000
  outer loop
   vertex 367.654633 -326.899445 46.261421
   vertex 366.589813 -327.964264 46.261421
   vertex 368.248962 -327.493774 46.261421
  endloop
 endfacet
 facet normal -0.000000 -0.000000 1.000000
  outer loop
   vertex 368.248962 -327.493774 46.261421
   vertex 366.589813 -327.964264 46.261421
   vertex 367.184143 -328.558594 46.261421
  endloop
 endfacet
 facet normal 0.707107 -0.707107 0.000000
  outer loop
   vertex 367.184143 -328.558594 46.261421
   vertex 367.184143 -328.558594 45.261421
   vertex 368.248962 -327.493774 46.261421
  endloop
 endfacet
 facet normal -0.707107 -0.707107 0.000000
  outer loop
   vertex 366.589813 -327.964264 46.261421
   vertex 367.184143 -328.558594 45.261421
   vertex 367.184143 -328.558594 46.261421
  endloop
 endfacet
 facet normal -0.707107 -0.707107 0.000000
  outer loop
   vertex 366.589813 -327.964264 45.261421
   vertex 367.184143 -328.558594 45.261421
   vertex 366.589813 -327.964264 46.261421
  endloop
 endfacet
 facet normal -0.707107 0.707107 -0.000000
  outer loop
   vertex 366.589813 -327.964264 46.261421
   vertex 367.654633 -326.899445 45.261421
   vertex 366.589813 -327.964264 45.261421
  endloop
 endfacet
 facet normal 0.000000 0.000000 -1.000000
  outer loop
   vertex 366.589813 -327.964264 45.261421
   vertex 367.654633 -326.899445 45.261421
   vertex 367.184143 -328.558594 45.261421
  endloop
 endfacet
 facet normal -0.000000 -0.000000 -1.000000
  outer loop
   vertex 367.184143 -328.558594 45.261421
   vertex 367.654633 -326.899445 45.261421
   vertex 368.248962 -327.493774 45.261421
  endloop
 endfacet
 facet normal 0.707107 -0.707107 0.000000
  outer loop
   vertex 368.248962 -327.493774 45.261421
   vertex 368.248962 -327.493774 46.261421
   vertex 367.184143 -328.558594 45.261421
  endloop
 endfacet
 facet normal 0.707107 0.707107 0.000000
  outer loop
   vertex 367.654633 -326.899445 45.261421
   vertex 368.248962 -327.493774 46.261421
   vertex 368.248962 -327.493774 45.261421
  endloop
 endfacet
 facet normal 0.707107 0.707107 0.000000
  outer loop
   vertex 367.654633 -326.899445 46.261421
   vertex 368.248962 -327.493774 46.261421
   vertex 367.654633 -326.899445 45.261421
  endloop
 endfacet
 facet normal -0.707107 0.707107 -0.000000
  outer loop
   vertex 367.654633 -326.899445 45.261421
   vertex 366.589813 -327.964264 46.261421
   vertex 367.654633 -326.899445 46.261421
  endloop
 endfacet
 facet normal -0.707107 0.707107 -0.000002
  outer loop
   vertex 366.687775 -327.892792 45.676735
   vertex 366.615112 -327.965454 45.676735
   vertex 366.615051 -327.965454 72.135262
  endloop
 endfacet
 facet normal -0.707107 -0.707107 -0.000002
  outer loop
   vertex 366.615051 -327.965454 72.135262
   vertex 366.615112 -327.965454 45.676735
   vertex 366.709442 -328.059784 45.676735
  endloop
 endfacet
 facet normal -0.707107 -0.707107 -0.000002
  outer loop
   vertex 366.709442 -328.059784 45.676735
   vertex 366.709412 -328.059814 72.135262
   vertex 366.615051 -327.965454 72.135262
  endloop
 endfacet
 facet normal 0.406138 -0.913812 -0.000001
  outer loop
   vertex 366.740204 -328.046112 45.676735
   vertex 366.709412 -328.059814 72.135262
   vertex 366.709442 -328.059784 45.676735
  endloop
 endfacet
 facet normal 0.406895 -0.913475 0.000000
  outer loop
   vertex 366.740173 -328.046112 72.135262
   vertex 366.709412 -328.059814 72.135262
   vertex 366.740204 -328.046112 45.676735
  endloop
 endfacet
 facet normal -0.707080 -0.707133 -0.000001
  outer loop
   vertex 366.740204 -328.046112 45.676735
   vertex 367.146912 -328.452789 45.676739
   vertex 366.740173 -328.046112 72.135262
  endloop
 endfacet
 facet normal -0.707133 -0.707080 -0.000002
  outer loop
   vertex 366.740173 -328.046112 72.135262
   vertex 367.146912 -328.452789 45.676739
   vertex 367.146851 -328.452820 72.135269
  endloop
 endfacet
 facet normal -0.913475 0.406895 -0.000002
  outer loop
   vertex 367.146851 -328.452820 72.135269
   vertex 367.146912 -328.452789 45.676739
   vertex 367.133209 -328.483551 45.676739
  endloop
 endfacet
 facet normal -0.913812 0.406138 -0.000001
  outer loop
   vertex 367.133209 -328.483551 45.676739
   vertex 367.133179 -328.483582 72.135269
   vertex 367.146851 -328.452820 72.135269
  endloop
 endfacet
 facet normal -0.707107 -0.707107 -0.000002
  outer loop
   vertex 367.180023 -328.530365 45.676739
   vertex 367.133179 -328.483582 72.135269
   vertex 367.133209 -328.483551 45.676739
  endloop
 endfacet
 facet normal -0.707107 -0.707107 -0.000002
  outer loop
   vertex 367.179993 -328.530396 72.135269
   vertex 367.133179 -328.483582 72.135269
   vertex 367.180023 -328.530365 45.676739
  endloop
 endfacet
 facet normal 0.707107 -0.707107 -0.000000
  outer loop
   vertex 367.180023 -328.530365 45.676739
   vertex 368.220734 -327.489655 45.676739
   vertex 367.179993 -328.530396 72.135269
  endloop
 endfacet
 facet normal 0.707107 -0.707107 0.000000
  outer loop
   vertex 367.179993 -328.530396 72.135269
   vertex 368.220734 -327.489655 45.676739
   vertex 368.220703 -327.489685 72.135269
  endloop
 endfacet
 facet normal 0.707107 0.707107 0.000002
  outer loop
   vertex 368.220703 -327.489685 72.135269
   vertex 368.220734 -327.489655 45.676739
   vertex 368.173889 -327.442871 72.135269
  endloop
 endfacet
 facet normal 0.707107 0.707107 0.000000
  outer loop
   vertex 368.248932 -327.493805 71.550583
   vertex 367.654602 -326.899475 71.550583
   vertex 368.248932 -327.493805 72.550583
  endloop
 endfacet
 facet normal -0.707107 -0.707107 0.000000
  outer loop
   vertex 366.589783 -327.964294 71.550583
   vertex 367.184113 -328.558624 71.550583
   vertex 367.184113 -328.558624 72.550583
  endloop
 endfacet
 facet normal 0.707107 0.707107 0.000002
  outer loop
   vertex 368.220734 -327.489655 45.676739
   vertex 368.173920 -327.442841 45.676739
   vertex 368.173889 -327.442871 72.135269
  endloop
 endfacet
 facet normal -0.625152 0.180314 -0.759389
  outer loop
   vertex 368.381622 -328.691254 45.546001
   vertex 369.088715 -329.398346 44.796005
   vertex 368.256622 -328.816254 45.619225
  endloop
 endfacet
 facet normal -0.625152 0.180314 -0.759389
  outer loop
   vertex 368.256622 -328.816254 45.619225
   vertex 369.088715 -329.398346 44.796005
   vertex 368.588715 -329.898346 45.088898
  endloop
 endfacet
 facet normal -0.939693 -0.134213 -0.314587
  outer loop
   vertex 368.588715 -329.898346 45.088898
   vertex 368.204834 -328.868011 45.796001
   vertex 368.256622 -328.816254 45.619225
  endloop
 endfacet
 facet normal -0.939703 -0.134250 -0.314539
  outer loop
   vertex 368.381622 -330.105469 45.796001
   vertex 368.204834 -328.868011 45.796001
   vertex 368.588715 -329.898346 45.088898
  endloop
 endfacet
 facet normal -0.939685 -0.134247 0.314595
  outer loop
   vertex 368.256622 -328.816254 45.972778
   vertex 368.204834 -328.868011 45.796001
   vertex 368.381622 -330.105469 45.796001
  endloop
 endfacet
 facet normal -0.939706 -0.134241 0.314535
  outer loop
   vertex 368.381622 -330.105469 45.796001
   vertex 368.588715 -329.898346 46.503109
   vertex 368.256622 -328.816254 45.972778
  endloop
 endfacet
 facet normal -0.625153 0.180315 0.759388
  outer loop
   vertex 368.256622 -328.816254 45.972778
   vertex 368.588715 -329.898346 46.503109
   vertex 368.381622 -328.691254 46.046001
  endloop
 endfacet
 facet normal -0.625156 0.180314 0.759385
  outer loop
   vertex 368.381622 -328.691254 46.046001
   vertex 368.588715 -329.898346 46.503109
   vertex 369.088715 -329.398346 46.796005
  endloop
 endfacet
 facet normal -0.180317 0.625154 0.759386
  outer loop
   vertex 369.088715 -329.398346 46.796005
   vertex 368.506622 -328.566254 45.972778
   vertex 368.381622 -328.691254 46.046001
  endloop
 endfacet
 facet normal -0.180317 0.625154 0.759386
  outer loop
   vertex 369.588715 -328.898346 46.503113
   vertex 368.506622 -328.566254 45.972778
   vertex 369.088715 -329.398346 46.796005
  endloop
 endfacet
 facet normal 0.134208 0.939692 0.314592
  outer loop
   vertex 368.558380 -328.514465 45.796005
   vertex 368.506622 -328.566254 45.972778
   vertex 369.588715 -328.898346 46.503113
  endloop
 endfacet
 facet normal 0.134250 0.939704 0.314537
  outer loop
   vertex 369.588715 -328.898346 46.503113
   vertex 369.795837 -328.691254 45.796005
   vertex 368.558380 -328.514465 45.796005
  endloop
 endfacet
 facet normal 0.134248 0.939687 -0.314589
  outer loop
   vertex 368.558380 -328.514465 45.796005
   vertex 369.795837 -328.691254 45.796005
   vertex 368.506622 -328.566254 45.619225
  endloop
 endfacet
 facet normal 0.134242 0.939706 -0.314535
  outer loop
   vertex 368.506622 -328.566254 45.619225
   vertex 369.795837 -328.691254 45.796005
   vertex 369.588715 -328.898346 45.088898
  endloop
 endfacet
 facet normal -0.180314 0.625152 -0.759389
  outer loop
   vertex 369.588715 -328.898346 45.088898
   vertex 368.381622 -328.691254 45.546001
   vertex 368.506622 -328.566254 45.619225
  endloop
 endfacet
 facet normal -0.180314 0.625152 -0.759389
  outer loop
   vertex 369.088715 -329.398346 44.796005
   vertex 368.381622 -328.691254 45.546001
   vertex 369.588715 -328.898346 45.088898
  endloop
 endfacet
 facet normal -0.270609 -0.270609 -0.923873
  outer loop
   vertex 367.681580 -327.991272 71.765999
   vertex 368.388672 -328.698364 71.765999
   vertex 367.556580 -328.116272 71.839226
  endloop
 endfacet
 facet normal -0.270609 -0.270609 -0.923873
  outer loop
   vertex 367.556580 -328.116272 71.839226
   vertex 368.388672 -328.698364 71.765999
   vertex 368.263672 -328.823364 71.839226
  endloop
 endfacet
 facet normal -0.653286 -0.653286 -0.382667
  outer loop
   vertex 368.263672 -328.823364 71.839226
   vertex 367.504791 -328.168030 72.015999
   vertex 367.556580 -328.116272 71.839226
  endloop
 endfacet
 facet normal -0.653286 -0.653286 -0.382667
  outer loop
   vertex 368.211914 -328.875153 72.015999
   vertex 367.504791 -328.168030 72.015999
   vertex 368.263672 -328.823364 71.839226
  endloop
 endfacet
 facet normal -0.653290 -0.653290 0.382653
  outer loop
   vertex 367.556580 -328.116272 72.192780
   vertex 367.504791 -328.168030 72.015999
   vertex 368.211914 -328.875153 72.015999
  endloop
 endfacet
 facet normal -0.653290 -0.653290 0.382653
  outer loop
   vertex 368.211914 -328.875153 72.015999
   vertex 368.263672 -328.823364 72.192780
   vertex 367.556580 -328.116272 72.192780
  endloop
 endfacet
 facet normal -0.270585 -0.270585 0.923887
  outer loop
   vertex 367.556580 -328.116272 72.192780
   vertex 368.263672 -328.823364 72.192780
   vertex 367.681580 -327.991272 72.265999
  endloop
 endfacet
 facet normal -0.270585 -0.270585 0.923887
  outer loop
   vertex 367.681580 -327.991272 72.265999
   vertex 368.263672 -328.823364 72.192780
   vertex 368.388672 -328.698364 72.265999
  endloop
 endfacet
 facet normal 0.270585 0.270585 0.923887
  outer loop
   vertex 368.388672 -328.698364 72.265999
   vertex 367.806580 -327.866272 72.192780
   vertex 367.681580 -327.991272 72.265999
  endloop
 endfacet
 facet normal 0.270585 0.270585 0.923887
  outer loop
   vertex 368.513672 -328.573364 72.192780
   vertex 367.806580 -327.866272 72.192780
   vertex 368.388672 -328.698364 72.265999
  endloop
 endfacet
 facet normal 0.653290 0.653290 0.382653
  outer loop
   vertex 367.858337 -327.814484 72.015999
   vertex 367.806580 -327.866272 72.192780
   vertex 368.513672 -328.573364 72.192780
  endloop
 endfacet
 facet normal 0.653242 0.653274 0.382764
  outer loop
   vertex 368.513672 -328.573364 72.192780
   vertex 368.565460 -328.521576 72.016006
   vertex 367.858337 -327.814484 72.015999
  endloop
 endfacet
 facet normal 0.653274 0.653298 -0.382667
  outer loop
   vertex 367.858337 -327.814484 72.015999
   vertex 368.565460 -328.521576 72.016006
   vertex 367.806580 -327.866272 71.839226
  endloop
 endfacet
 facet normal 0.653262 0.653262 -0.382749
  outer loop
   vertex 367.806580 -327.866272 71.839226
   vertex 368.565460 -328.521576 72.016006
   vertex 368.513672 -328.573364 71.839226
  endloop
 endfacet
 facet normal 0.270609 0.270609 -0.923873
  outer loop
   vertex 368.513672 -328.573364 71.839226
   vertex 367.681580 -327.991272 71.765999
   vertex 367.806580 -327.866272 71.839226
  endloop
 endfacet
 facet normal 0.270609 0.270609 -0.923873
  outer loop
   vertex 368.388672 -328.698364 71.765999
   vertex 367.681580 -327.991272 71.765999
   vertex 368.513672 -328.573364 71.839226
  endloop
 endfacet
 facet normal -0.270592 -0.270603 -0.923880
  outer loop
   vertex 369.088684 -329.398376 71.016006
   vertex 369.795807 -330.105469 71.016006
   vertex 368.588684 -329.898376 71.308899
  endloop
 endfacet
 facet normal -0.270592 -0.270603 -0.923880
  outer loop
   vertex 368.588684 -329.898376 71.308899
   vertex 369.795807 -330.105469 71.016006
   vertex 369.295807 -330.605469 71.308899
  endloop
 endfacet
 facet normal -0.653273 -0.653301 -0.382664
  outer loop
   vertex 369.295807 -330.605469 71.308899
   vertex 368.381592 -330.105469 72.015999
   vertex 368.588684 -329.898376 71.308899
  endloop
 endfacet
 facet normal -0.653287 -0.653259 -0.382712
  outer loop
   vertex 369.088684 -330.812592 72.015999
   vertex 368.381592 -330.105469 72.015999
   vertex 369.295807 -330.605469 71.308899
  endloop
 endfacet
 facet normal -0.653302 -0.653274 0.382660
  outer loop
   vertex 368.588684 -329.898376 72.723106
   vertex 368.381592 -330.105469 72.015999
   vertex 369.088684 -330.812592 72.015999
  endloop
 endfacet
 facet normal -0.653281 -0.653281 0.382684
  outer loop
   vertex 369.088684 -330.812592 72.015999
   vertex 369.295776 -330.605469 72.723106
   vertex 368.588684 -329.898376 72.723106
  endloop
 endfacet
 facet normal -0.270603 -0.270603 0.923876
  outer loop
   vertex 368.588684 -329.898376 72.723106
   vertex 369.295776 -330.605469 72.723106
   vertex 369.088684 -329.398376 73.016006
  endloop
 endfacet
 facet normal -0.270603 -0.270603 0.923876
  outer loop
   vertex 369.088684 -329.398376 73.016006
   vertex 369.295776 -330.605469 72.723106
   vertex 369.795776 -330.105469 73.016006
  endloop
 endfacet
 facet normal 0.270597 0.270597 0.923880
  outer loop
   vertex 369.795776 -330.105469 73.016006
   vertex 369.588684 -328.898376 72.723114
   vertex 369.088684 -329.398376 73.016006
  endloop
 endfacet
 facet normal 0.270597 0.270597 0.923880
  outer loop
   vertex 370.295776 -329.605469 72.723114
   vertex 369.588684 -328.898376 72.723114
   vertex 369.795776 -330.105469 73.016006
  endloop
 endfacet
 facet normal 0.653274 0.653274 0.382708
  outer loop
   vertex 369.795807 -328.691254 72.016006
   vertex 369.588684 -328.898376 72.723114
   vertex 370.295776 -329.605469 72.723114
  endloop
 endfacet
 facet normal 0.653295 0.653267 0.382684
  outer loop
   vertex 370.295776 -329.605469 72.723114
   vertex 370.502899 -329.398376 72.016006
   vertex 369.795807 -328.691254 72.016006
  endloop
 endfacet
 facet normal 0.653288 0.653260 -0.382708
  outer loop
   vertex 369.795807 -328.691254 72.016006
   vertex 370.502899 -329.398376 72.016006
   vertex 369.588684 -328.898376 71.308899
  endloop
 endfacet
 facet normal 0.653274 0.653302 -0.382660
  outer loop
   vertex 369.588684 -328.898376 71.308899
   vertex 370.502899 -329.398376 72.016006
   vertex 370.295807 -329.605469 71.308899
  endloop
 endfacet
 facet normal 0.270592 0.270603 -0.923880
  outer loop
   vertex 370.295807 -329.605469 71.308899
   vertex 369.088684 -329.398376 71.016006
   vertex 369.588684 -328.898376 71.308899
  endloop
 endfacet
 facet normal 0.270592 0.270603 -0.923880
  outer loop
   vertex 369.795807 -330.105469 71.016006
   vertex 369.088684 -329.398376 71.016006
   vertex 370.295807 -329.605469 71.308899
  endloop
 endfacet
 facet normal -0.625158 0.180296 -0.759389
  outer loop
   vertex 368.381592 -328.691254 71.765999
   vertex 369.088684 -329.398376 71.016006
   vertex 368.256592 -328.816254 71.839226
  endloop
 endfacet
 facet normal -0.625150 0.180310 -0.759391
  outer loop
   vertex 368.256592 -328.816254 71.839226
   vertex 369.088684 -329.398376 71.016006
   vertex 368.588684 -329.898376 71.308899
  endloop
 endfacet
 facet normal -0.939687 -0.134196 -0.314610
  outer loop
   vertex 368.588684 -329.898376 71.308899
   vertex 368.204803 -328.868042 72.015999
   vertex 368.256592 -328.816254 71.839226
  endloop
 endfacet
 facet normal -0.939704 -0.134253 -0.314536
  outer loop
   vertex 368.381592 -330.105469 72.015999
   vertex 368.204803 -328.868042 72.015999
   vertex 368.588684 -329.898376 71.308899
  endloop
 endfacet
 facet normal -0.939679 -0.134250 0.314610
  outer loop
   vertex 368.256592 -328.816254 72.192780
   vertex 368.204803 -328.868042 72.015999
   vertex 368.381592 -330.105469 72.015999
  endloop
 endfacet
 facet normal -0.939707 -0.134242 0.314530
  outer loop
   vertex 368.381592 -330.105469 72.015999
   vertex 368.588684 -329.898376 72.723106
   vertex 368.256592 -328.816254 72.192780
  endloop
 endfacet
 facet normal -0.625139 0.180318 0.759399
  outer loop
   vertex 368.256592 -328.816254 72.192780
   vertex 368.588684 -329.898376 72.723106
   vertex 368.381592 -328.691254 72.265999
  endloop
 endfacet
 facet normal -0.625158 0.180309 0.759386
  outer loop
   vertex 368.381592 -328.691254 72.265999
   vertex 368.588684 -329.898376 72.723106
   vertex 369.088684 -329.398376 73.016006
  endloop
 endfacet
 facet normal -0.180320 0.625140 0.759397
  outer loop
   vertex 369.088684 -329.398376 73.016006
   vertex 368.506592 -328.566254 72.192780
   vertex 368.381592 -328.691254 72.265999
  endloop
 endfacet
 facet normal -0.180306 0.625148 0.759395
  outer loop
   vertex 369.588684 -328.898376 72.723114
   vertex 368.506592 -328.566254 72.192780
   vertex 369.088684 -329.398376 73.016006
  endloop
 endfacet
 facet normal 0.134305 0.939720 0.314466
  outer loop
   vertex 368.558350 -328.514496 72.016006
   vertex 368.506592 -328.566254 72.192780
   vertex 369.588684 -328.898376 72.723114
  endloop
 endfacet
 facet normal 0.134226 0.939697 0.314569
  outer loop
   vertex 369.588684 -328.898376 72.723114
   vertex 369.795807 -328.691254 72.016006
   vertex 368.558350 -328.514496 72.016006
  endloop
 endfacet
 facet normal 0.134232 0.939740 -0.314437
  outer loop
   vertex 368.558350 -328.514496 72.016006
   vertex 369.795807 -328.691254 72.016006
   vertex 368.506592 -328.566254 71.839226
  endloop
 endfacet
 facet normal 0.134246 0.939692 -0.314573
  outer loop
   vertex 368.506592 -328.566254 71.839226
   vertex 369.795807 -328.691254 72.016006
   vertex 369.588684 -328.898376 71.308899
  endloop
 endfacet
 facet normal -0.180295 0.625157 -0.759390
  outer loop
   vertex 369.588684 -328.898376 71.308899
   vertex 368.381592 -328.691254 71.765999
   vertex 368.506592 -328.566254 71.839226
  endloop
 endfacet
 facet normal -0.180300 0.625145 -0.759398
  outer loop
   vertex 369.088684 -329.398376 71.016006
   vertex 368.381592 -328.691254 71.765999
   vertex 369.588684 -328.898376 71.308899
  endloop
 endfacet
 facet normal -0.270597 -0.270597 -0.923880
  outer loop
   vertex 367.681610 -327.991241 45.546001
   vertex 368.388702 -328.698334 45.546001
   vertex 367.556610 -328.116241 45.619225
  endloop
 endfacet
 facet normal -0.270597 -0.270597 -0.923880
  outer loop
   vertex 367.556610 -328.116241 45.619225
   vertex 368.388702 -328.698334 45.546001
   vertex 368.263702 -328.823334 45.619225
  endloop
 endfacet
 facet normal -0.653260 -0.653260 -0.382756
  outer loop
   vertex 368.263702 -328.823334 45.619225
   vertex 367.504822 -328.168030 45.796001
   vertex 367.556610 -328.116241 45.619225
  endloop
 endfacet
 facet normal -0.653274 -0.653302 -0.382660
  outer loop
   vertex 368.211945 -328.875122 45.796001
   vertex 367.504822 -328.168030 45.796001
   vertex 368.263702 -328.823334 45.619225
  endloop
 endfacet
 facet normal -0.653246 -0.653274 0.382756
  outer loop
   vertex 367.556610 -328.116241 45.972778
   vertex 367.504822 -328.168030 45.796001
   vertex 368.211945 -328.875122 45.796001
  endloop
 endfacet
 facet normal -0.653288 -0.653288 0.382660
  outer loop
   vertex 368.211945 -328.875122 45.796001
   vertex 368.263702 -328.823334 45.972778
   vertex 367.556610 -328.116241 45.972778
  endloop
 endfacet
 facet normal -0.270597 -0.270597 0.923880
  outer loop
   vertex 367.556610 -328.116241 45.972778
   vertex 368.263702 -328.823334 45.972778
   vertex 367.681610 -327.991241 46.046001
  endloop
 endfacet
 facet normal -0.270597 -0.270597 0.923880
  outer loop
   vertex 367.681610 -327.991241 46.046001
   vertex 368.263702 -328.823334 45.972778
   vertex 368.388702 -328.698334 46.046001
  endloop
 endfacet
 facet normal 0.270597 0.270597 0.923880
  outer loop
   vertex 368.388702 -328.698334 46.046001
   vertex 367.806610 -327.866241 45.972778
   vertex 367.681610 -327.991241 46.046001
  endloop
 endfacet
 facet normal 0.270597 0.270597 0.923880
  outer loop
   vertex 368.513702 -328.573334 45.972778
   vertex 367.806610 -327.866241 45.972778
   vertex 368.388702 -328.698334 46.046001
  endloop
 endfacet
 facet normal 0.653288 0.653288 0.382660
  outer loop
   vertex 367.858368 -327.814453 45.796001
   vertex 367.806610 -327.866241 45.972778
   vertex 368.513702 -328.573334 45.972778
  endloop
 endfacet
 facet normal 0.653285 0.653287 0.382667
  outer loop
   vertex 368.513702 -328.573334 45.972778
   vertex 368.565491 -328.521576 45.796005
   vertex 367.858368 -327.814453 45.796001
  endloop
 endfacet
 facet normal 0.653289 0.653287 -0.382660
  outer loop
   vertex 367.858368 -327.814453 45.796001
   vertex 368.565491 -328.521576 45.796005
   vertex 367.806610 -327.866241 45.619225
  endloop
 endfacet
 facet normal 0.653290 0.653290 -0.382653
  outer loop
   vertex 367.806610 -327.866241 45.619225
   vertex 368.565491 -328.521576 45.796005
   vertex 368.513702 -328.573334 45.619225
  endloop
 endfacet
 facet normal 0.270597 0.270597 -0.923880
  outer loop
   vertex 368.513702 -328.573334 45.619225
   vertex 367.681610 -327.991241 45.546001
   vertex 367.806610 -327.866241 45.619225
  endloop
 endfacet
 facet normal 0.270597 0.270597 -0.923880
  outer loop
   vertex 368.388702 -328.698334 45.546001
   vertex 367.681610 -327.991241 45.546001
   vertex 368.513702 -328.573334 45.619225
  endloop
 endfacet
 facet normal 0.270597 0.270597 -0.923880
  outer loop
   vertex 369.588715 -328.898346 45.088898
   vertex 370.295837 -329.605469 45.088898
   vertex 369.088715 -329.398346 44.796005
  endloop
 endfacet
 facet normal 0.270597 0.270597 -0.923880
  outer loop
   vertex 369.088715 -329.398346 44.796005
   vertex 370.295837 -329.605469 45.088898
   vertex 369.795837 -330.105469 44.796005
  endloop
 endfacet
 facet normal -0.270597 -0.270597 -0.923880
  outer loop
   vertex 369.795837 -330.105469 44.796005
   vertex 368.588715 -329.898346 45.088898
   vertex 369.088715 -329.398346 44.796005
  endloop
 endfacet
 facet normal -0.270597 -0.270597 -0.923880
  outer loop
   vertex 369.295837 -330.605469 45.088898
   vertex 368.588715 -329.898346 45.088898
   vertex 369.795837 -330.105469 44.796005
  endloop
 endfacet
 facet normal -0.653281 -0.653281 -0.382686
  outer loop
   vertex 368.381622 -330.105469 45.796001
   vertex 368.588715 -329.898346 45.088898
   vertex 369.295837 -330.605469 45.088898
  endloop
 endfacet
 facet normal -0.653281 -0.653281 -0.382686
  outer loop
   vertex 369.295837 -330.605469 45.088898
   vertex 369.088715 -330.812561 45.796001
   vertex 368.381622 -330.105469 45.796001
  endloop
 endfacet
 facet normal -0.653281 -0.653281 0.382684
  outer loop
   vertex 368.381622 -330.105469 45.796001
   vertex 369.088715 -330.812561 45.796001
   vertex 368.588715 -329.898346 46.503109
  endloop
 endfacet
 facet normal -0.653281 -0.653281 0.382684
  outer loop
   vertex 368.588715 -329.898346 46.503109
   vertex 369.088715 -330.812561 45.796001
   vertex 369.295837 -330.605469 46.503109
  endloop
 endfacet
 facet normal -0.270600 -0.270600 0.923878
  outer loop
   vertex 369.295837 -330.605469 46.503109
   vertex 369.088715 -329.398346 46.796005
   vertex 368.588715 -329.898346 46.503109
  endloop
 endfacet
 facet normal -0.270600 -0.270600 0.923878
  outer loop
   vertex 369.795837 -330.105469 46.796005
   vertex 369.088715 -329.398346 46.796005
   vertex 369.295837 -330.605469 46.503109
  endloop
 endfacet
 facet normal 0.270597 0.270597 0.923880
  outer loop
   vertex 369.588715 -328.898346 46.503113
   vertex 369.088715 -329.398346 46.796005
   vertex 369.795837 -330.105469 46.796005
  endloop
 endfacet
 facet normal 0.270597 0.270597 0.923880
  outer loop
   vertex 369.795837 -330.105469 46.796005
   vertex 370.295837 -329.605469 46.503113
   vertex 369.588715 -328.898346 46.503113
  endloop
 endfacet
 facet normal 0.653281 0.653281 0.382684
  outer loop
   vertex 369.588715 -328.898346 46.503113
   vertex 370.295837 -329.605469 46.503113
   vertex 369.795837 -328.691254 45.796005
  endloop
 endfacet
 facet normal 0.653281 0.653281 0.382684
  outer loop
   vertex 369.795837 -328.691254 45.796005
   vertex 370.295837 -329.605469 46.503113
   vertex 370.502930 -329.398346 45.796005
  endloop
 endfacet
 facet normal 0.653281 0.653281 -0.382684
  outer loop
   vertex 370.502930 -329.398346 45.796005
   vertex 369.588715 -328.898346 45.088898
   vertex 369.795837 -328.691254 45.796005
  endloop
 endfacet
 facet normal 0.653281 0.653281 -0.382684
  outer loop
   vertex 370.295837 -329.605469 45.088898
   vertex 369.588715 -328.898346 45.088898
   vertex 370.502930 -329.398346 45.796005
  endloop
 endfacet
endsolid