solid stl file generated from DOUG
 facet normal 0.281335 -0.441617 0.851954
  outer loop
   vertex 394.912598 -311.585388 94.233963
   vertex 394.850250 -311.487549 94.305267
   vertex 374.150848 -324.674316 94.305237
  endloop
 endfacet
 facet normal -0.201309 0.315995 0.927158
  outer loop
   vertex 374.150848 -324.674316 94.305237
   vertex 394.850250 -311.487549 94.305267
   vertex 374.099670 -324.593964 94.266739
  endloop
 endfacet
 facet normal -0.520373 0.816835 0.248982
  outer loop
   vertex 374.763428 -325.635895 94.647728
   vertex 374.781647 -325.664490 94.779617
   vertex 395.481079 -312.477722 94.779655
  endloop
 endfacet
 facet normal -0.201279 0.315948 0.927180
  outer loop
   vertex 395.481079 -312.477722 94.779655
   vertex 374.781647 -325.664490 94.779617
   vertex 374.832855 -325.744843 94.818115
  endloop
 endfacet
 facet normal -0.201309 0.315995 0.927158
  outer loop
   vertex 374.832855 -325.744843 94.818115
   vertex 395.532257 -312.558075 94.818153
   vertex 395.481079 -312.477722 94.779655
  endloop
 endfacet
 facet normal -0.009255 0.014526 0.999852
  outer loop
   vertex 374.980347 -325.976349 94.138756
   vertex 395.679749 -312.789612 94.138786
   vertex 374.962250 -325.947968 94.138176
  endloop
 endfacet
 facet normal -0.009127 0.014323 0.999856
  outer loop
   vertex 374.962250 -325.947968 94.138176
   vertex 395.679749 -312.789612 94.138786
   vertex 395.661652 -312.761200 94.138214
  endloop
 endfacet
 facet normal 0.498166 -0.781978 0.374621
  outer loop
   vertex 395.661652 -312.761200 94.138214
   vertex 395.545898 -312.579468 94.671486
   vertex 374.962250 -325.947968 94.138176
  endloop
 endfacet
 facet normal 0.281335 -0.441617 0.851954
  outer loop
   vertex 374.150848 -324.674316 94.305237
   vertex 374.213196 -324.772156 94.233932
   vertex 394.912598 -311.585388 94.233963
  endloop
 endfacet
 facet normal -0.201287 0.315959 0.927175
  outer loop
   vertex 394.912598 -311.585388 94.233963
   vertex 374.213196 -324.772156 94.233932
   vertex 374.763428 -325.635895 94.647728
  endloop
 endfacet
 facet normal -0.201287 0.315959 0.927175
  outer loop
   vertex 374.763428 -325.635895 94.647728
   vertex 395.462830 -312.449127 94.647758
   vertex 394.912598 -311.585388 94.233963
  endloop
 endfacet
 facet normal -0.520360 0.816813 0.249081
  outer loop
   vertex 395.481079 -312.477722 94.779655
   vertex 395.462830 -312.449127 94.647758
   vertex 374.763428 -325.635895 94.647728
  endloop
 endfacet
 facet normal 0.498141 -0.781938 0.374738
  outer loop
   vertex 395.532257 -312.558075 94.818153
   vertex 374.832855 -325.744843 94.818115
   vertex 395.559113 -312.600250 94.694450
  endloop
 endfacet
 facet normal 0.498141 -0.781938 0.374738
  outer loop
   vertex 395.559113 -312.600250 94.694450
   vertex 374.832855 -325.744843 94.818115
   vertex 374.859711 -325.787018 94.694412
  endloop
 endfacet
 facet normal 0.366424 -0.575177 -0.731372
  outer loop
   vertex 374.859711 -325.787018 94.694412
   vertex 395.545898 -312.579468 94.671486
   vertex 395.559113 -312.600250 94.694450
  endloop
 endfacet
 facet normal 0.366424 -0.575177 -0.731372
  outer loop
   vertex 374.846497 -325.766235 94.671448
   vertex 395.545898 -312.579468 94.671486
   vertex 374.859711 -325.787018 94.694412
  endloop
 endfacet
 facet normal 0.498166 -0.781978 0.374621
  outer loop
   vertex 374.962250 -325.947968 94.138176
   vertex 395.545898 -312.579468 94.671486
   vertex 374.846497 -325.766235 94.671448
  endloop
 endfacet
 facet normal -0.843399 -0.537288 -0.000012
  outer loop
   vertex 373.799774 -324.757965 94.277695
   vertex 374.719116 -326.201080 94.062553
   vertex 374.549927 -325.935516 94.841843
  endloop
 endfacet
 facet normal 0.498153 -0.781980 0.374634
  outer loop
   vertex 374.549927 -325.935516 94.841843
   vertex 374.719116 -326.201080 94.062553
   vertex 375.393341 -325.398224 94.841850
  endloop
 endfacet
 facet normal -0.201289 0.315960 0.927174
  outer loop
   vertex 375.393341 -325.398224 94.841850
   vertex 374.643158 -324.220673 94.277702
   vertex 374.549927 -325.935516 94.841843
  endloop
 endfacet
 facet normal 0.843396 0.537292 -0.000022
  outer loop
   vertex 375.562500 -325.663788 94.062553
   vertex 374.643158 -324.220673 94.277702
   vertex 375.393341 -325.398224 94.841850
  endloop
 endfacet
 facet normal 0.843399 0.537288 0.000012
  outer loop
   vertex 374.812347 -324.486237 93.498413
   vertex 374.643158 -324.220673 94.277702
   vertex 375.562500 -325.663788 94.062553
  endloop
 endfacet
 facet normal 0.201288 -0.315960 -0.927174
  outer loop
   vertex 375.562500 -325.663788 94.062553
   vertex 374.719116 -326.201080 94.062553
   vertex 374.812347 -324.486237 93.498413
  endloop
 endfacet
 facet normal 0.201289 -0.315960 -0.927174
  outer loop
   vertex 374.812347 -324.486237 93.498413
   vertex 374.719116 -326.201080 94.062553
   vertex 373.968933 -325.023529 93.498405
  endloop
 endfacet
 facet normal -0.843396 -0.537292 0.000022
  outer loop
   vertex 373.968933 -325.023529 93.498405
   vertex 374.719116 -326.201080 94.062553
   vertex 373.799774 -324.757965 94.277695
  endloop
 endfacet
 facet normal -0.498169 0.781978 -0.374617
  outer loop
   vertex 373.799774 -324.757965 94.277695
   vertex 374.643158 -324.220673 94.277702
   vertex 373.968933 -325.023529 93.498405
  endloop
 endfacet
 facet normal -0.201296 0.315960 0.927173
  outer loop
   vertex 374.549927 -325.935516 94.841843
   vertex 374.643158 -324.220673 94.277702
   vertex 373.799774 -324.757965 94.277695
  endloop
 endfacet
 facet normal -0.843390 -0.537302 -0.000006
  outer loop
   vertex 394.981232 -312.919556 94.841881
   vertex 394.231049 -311.742004 94.277733
   vertex 395.150421 -313.185120 94.062592
  endloop
 endfacet
 facet normal -0.843390 -0.537302 -0.000006
  outer loop
   vertex 395.150421 -313.185120 94.062592
   vertex 394.231049 -311.742004 94.277733
   vertex 394.400238 -312.007568 93.498444
  endloop
 endfacet
 facet normal 0.201283 -0.315964 -0.927174
  outer loop
   vertex 394.400238 -312.007568 93.498444
   vertex 395.243652 -311.470276 93.498444
   vertex 395.150421 -313.185120 94.062592
  endloop
 endfacet
 facet normal -0.498155 0.781979 -0.374634
  outer loop
   vertex 394.231049 -311.742004 94.277733
   vertex 395.243652 -311.470276 93.498444
   vertex 394.400238 -312.007568 93.498444
  endloop
 endfacet
 facet normal -0.498155 0.781979 -0.374634
  outer loop
   vertex 395.074463 -311.204712 94.277733
   vertex 395.243652 -311.470276 93.498444
   vertex 394.231049 -311.742004 94.277733
  endloop
 endfacet
 facet normal -0.201285 0.315967 0.927173
  outer loop
   vertex 394.231049 -311.742004 94.277733
   vertex 395.824615 -312.382263 94.841881
   vertex 395.074463 -311.204712 94.277733
  endloop
 endfacet
 facet normal 0.843399 0.537288 0.000012
  outer loop
   vertex 395.074463 -311.204712 94.277733
   vertex 395.824615 -312.382263 94.841881
   vertex 395.243652 -311.470276 93.498444
  endloop
 endfacet
 facet normal 0.843399 0.537288 0.000012
  outer loop
   vertex 395.243652 -311.470276 93.498444
   vertex 395.824615 -312.382263 94.841881
   vertex 395.993805 -312.647827 94.062592
  endloop
 endfacet
 facet normal 0.201290 -0.315964 -0.927173
  outer loop
   vertex 395.993805 -312.647827 94.062592
   vertex 395.150421 -313.185120 94.062592
   vertex 395.243652 -311.470276 93.498444
  endloop
 endfacet
 facet normal 0.498168 -0.781971 0.374634
  outer loop
   vertex 395.824615 -312.382263 94.841881
   vertex 395.150421 -313.185120 94.062592
   vertex 395.993805 -312.647827 94.062592
  endloop
 endfacet
 facet normal 0.498168 -0.781971 0.374634
  outer loop
   vertex 394.981232 -312.919556 94.841881
   vertex 395.150421 -313.185120 94.062592
   vertex 395.824615 -312.382263 94.841881
  endloop
 endfacet
 facet normal -0.201288 0.315961 0.927174
  outer loop
   vertex 395.824615 -312.382263 94.841881
   vertex 394.231049 -311.742004 94.277733
   vertex 394.981232 -312.919556 94.841881
  endloop
 endfacet
 facet normal -0.201275 0.315941 0.927184
  outer loop
   vertex 394.850250 -311.487549 94.305267
   vertex 394.799072 -311.407196 94.266777
   vertex 374.099670 -324.593964 94.266739
  endloop
 endfacet
 facet normal -0.498177 0.781994 -0.374573
  outer loop
   vertex 374.099670 -324.593964 94.266739
   vertex 394.799072 -311.407196 94.266777
   vertex 394.825928 -311.449341 94.143074
  endloop
 endfacet
 facet normal -0.498177 0.781994 -0.374573
  outer loop
   vertex 394.825928 -311.449341 94.143074
   vertex 374.126526 -324.636108 94.143036
   vertex 374.099670 -324.593964 94.266739
  endloop
 endfacet
 facet normal 0.009138 -0.014341 -0.999855
  outer loop
   vertex 394.843994 -311.477722 94.143646
   vertex 374.126526 -324.636108 94.143036
   vertex 394.825928 -311.449341 94.143074
  endloop
 endfacet
 facet normal 0.009260 -0.014533 -0.999852
  outer loop
   vertex 374.144592 -324.664490 94.143616
   vertex 374.126526 -324.636108 94.143036
   vertex 394.843994 -311.477722 94.143646
  endloop
 endfacet
 facet normal -0.498161 0.781969 -0.374646
  outer loop
   vertex 394.843994 -311.477722 94.143646
   vertex 394.959778 -311.659454 93.610374
   vertex 374.144592 -324.664490 94.143616
  endloop
 endfacet
 facet normal -0.498161 0.781969 -0.374646
  outer loop
   vertex 374.144592 -324.664490 94.143616
   vertex 394.959778 -311.659454 93.610374
   vertex 374.260376 -324.846222 93.610344
  endloop
 endfacet
 facet normal -0.366629 0.575499 0.731016
  outer loop
   vertex 374.260376 -324.846222 93.610344
   vertex 394.959778 -311.659454 93.610374
   vertex 394.946564 -311.638702 93.587410
  endloop
 endfacet
 facet normal -0.366694 0.575601 0.730903
  outer loop
   vertex 394.946564 -311.638702 93.587410
   vertex 374.247162 -324.825470 93.587372
   vertex 374.260376 -324.846222 93.610344
  endloop
 endfacet
 facet normal -0.498222 0.782065 -0.374364
  outer loop
   vertex 394.959869 -311.659607 93.526031
   vertex 374.247162 -324.825470 93.587372
   vertex 394.946564 -311.638702 93.587410
  endloop
 endfacet
 facet normal -0.498222 0.782065 -0.374364
  outer loop
   vertex 374.260468 -324.846375 93.525993
   vertex 374.247162 -324.825470 93.587372
   vertex 394.959869 -311.659607 93.526031
  endloop
 endfacet
 facet normal 0.201285 -0.315957 -0.927176
  outer loop
   vertex 394.959869 -311.659607 93.526031
   vertex 395.693085 -312.810516 94.077408
   vertex 374.260468 -324.846375 93.525993
  endloop
 endfacet
 facet normal 0.201289 -0.315964 -0.927173
  outer loop
   vertex 374.260468 -324.846375 93.525993
   vertex 395.693085 -312.810516 94.077408
   vertex 374.993652 -325.997284 94.077377
  endloop
 endfacet
 facet normal 0.498149 -0.781952 0.374698
  outer loop
   vertex 374.993652 -325.997284 94.077377
   vertex 395.693085 -312.810516 94.077408
   vertex 374.980347 -325.976349 94.138756
  endloop
 endfacet
 facet normal 0.498172 -0.781977 0.374614
  outer loop
   vertex 375.562500 -325.663788 94.062553
   vertex 375.393341 -325.398224 94.841850
   vertex 374.719116 -326.201080 94.062553
  endloop
 endfacet
 facet normal -0.498153 0.781980 -0.374634
  outer loop
   vertex 374.643158 -324.220673 94.277702
   vertex 374.812347 -324.486237 93.498413
   vertex 373.968933 -325.023529 93.498405
  endloop
 endfacet
 facet normal 0.498175 -0.781993 0.374577
  outer loop
   vertex 395.693085 -312.810516 94.077408
   vertex 395.679749 -312.789612 94.138786
   vertex 374.980347 -325.976349 94.138756
  endloop
 endfacet
 facet normal 0.369179 0.833901 0.410264
  outer loop
   vertex 395.595062 -312.491913 92.908478
   vertex 396.428894 -312.404907 91.981300
   vertex 395.445251 -312.393005 92.842247
  endloop
 endfacet
 facet normal 0.369138 0.833942 0.410217
  outer loop
   vertex 395.445251 -312.393005 92.842247
   vertex 396.428894 -312.404907 91.981300
   vertex 395.829620 -312.009338 91.716400
  endloop
 endfacet
 facet normal -0.227627 0.942793 0.243573
  outer loop
   vertex 395.829620 -312.009338 91.716400
   vertex 395.259674 -312.430725 92.814819
   vertex 395.445251 -312.393005 92.842247
  endloop
 endfacet
 facet normal -0.227643 0.942791 0.243564
  outer loop
   vertex 395.087341 -312.160217 91.606667
   vertex 395.259674 -312.430725 92.814819
   vertex 395.829620 -312.009338 91.716400
  endloop
 endfacet
 facet normal -0.758281 0.604722 0.243561
  outer loop
   vertex 395.147064 -312.582977 92.842247
   vertex 395.259674 -312.430725 92.814819
   vertex 395.087341 -312.160217 91.606667
  endloop
 endfacet
 facet normal -0.758223 0.604787 0.243580
  outer loop
   vertex 395.087341 -312.160217 91.606667
   vertex 394.636871 -312.769165 91.716393
   vertex 395.147064 -312.582977 92.842247
  endloop
 endfacet
 facet normal -0.911806 0.017928 0.410230
  outer loop
   vertex 395.147064 -312.582977 92.842247
   vertex 394.636871 -312.769165 91.716393
   vertex 395.173370 -312.760559 92.908478
  endloop
 endfacet
 facet normal -0.911806 0.017919 0.410230
  outer loop
   vertex 395.173370 -312.760559 92.908478
   vertex 394.636871 -312.769165 91.716393
   vertex 394.742096 -313.479492 91.981300
  endloop
 endfacet
 facet normal -0.598397 -0.474042 0.645915
  outer loop
   vertex 394.742096 -313.479492 91.981300
   vertex 395.323181 -312.859436 92.974701
   vertex 395.173370 -312.760559 92.908478
  endloop
 endfacet
 facet normal -0.598399 -0.474039 0.645914
  outer loop
   vertex 395.341400 -313.875061 92.246208
   vertex 395.323181 -312.859436 92.974701
   vertex 394.742096 -313.479492 91.981300
  endloop
 endfacet
 facet normal -0.001656 -0.582870 0.812564
  outer loop
   vertex 395.508759 -312.821716 93.002136
   vertex 395.323181 -312.859436 92.974701
   vertex 395.341400 -313.875061 92.246208
  endloop
 endfacet
 facet normal -0.001614 -0.582874 0.812561
  outer loop
   vertex 395.341400 -313.875061 92.246208
   vertex 396.083679 -313.724152 92.355934
   vertex 395.508759 -312.821716 93.002136
  endloop
 endfacet
 facet normal 0.528984 -0.244833 0.812547
  outer loop
   vertex 395.508759 -312.821716 93.002136
   vertex 396.083679 -313.724152 92.355934
   vertex 395.621368 -312.669464 92.974701
  endloop
 endfacet
 facet normal 0.528954 -0.244853 0.812560
  outer loop
   vertex 395.621368 -312.669464 92.974701
   vertex 396.083679 -313.724152 92.355934
   vertex 396.534119 -313.115204 92.246208
  endloop
 endfacet
 facet normal 0.682530 0.342027 0.645887
  outer loop
   vertex 396.534119 -313.115204 92.246208
   vertex 395.595062 -312.491913 92.908478
   vertex 395.621368 -312.669464 92.974701
  endloop
 endfacet
 facet normal 0.682526 0.342003 0.645904
  outer loop
   vertex 396.428894 -312.404907 91.981300
   vertex 395.595062 -312.491913 92.908478
   vertex 396.534119 -313.115204 92.246208
  endloop
 endfacet
 facet normal 0.588533 0.795657 -0.143384
  outer loop
   vertex 374.968750 -325.192352 93.826309
   vertex 375.170044 -325.508331 92.899132
   vertex 374.818939 -325.093475 93.760078
  endloop
 endfacet
 facet normal 0.588623 0.795602 -0.143321
  outer loop
   vertex 374.818939 -325.093475 93.760078
   vertex 375.170044 -325.508331 92.899132
   vertex 375.020233 -325.409424 92.832909
  endloop
 endfacet
 facet normal -0.137483 0.928069 -0.346103
  outer loop
   vertex 375.020233 -325.409424 92.832909
   vertex 374.633362 -325.131195 93.732651
   vertex 374.818939 -325.093475 93.760078
  endloop
 endfacet
 facet normal -0.137470 0.928072 -0.346099
  outer loop
   vertex 374.834656 -325.447144 92.805473
   vertex 374.633362 -325.131195 93.732651
   vertex 375.020233 -325.409424 92.832909
  endloop
 endfacet
 facet normal -0.782978 0.516864 -0.346116
  outer loop
   vertex 374.520752 -325.283417 93.760078
   vertex 374.633362 -325.131195 93.732651
   vertex 374.834656 -325.447144 92.805473
  endloop
 endfacet
 facet normal -0.783031 0.516782 -0.346120
  outer loop
   vertex 374.834656 -325.447144 92.805473
   vertex 374.722046 -325.599396 92.832909
   vertex 374.520752 -325.283417 93.760078
  endloop
 endfacet
 facet normal -0.969835 -0.197139 -0.143372
  outer loop
   vertex 374.520752 -325.283417 93.760078
   vertex 374.722046 -325.599396 92.832909
   vertex 374.547058 -325.460999 93.826309
  endloop
 endfacet
 facet normal -0.969836 -0.197133 -0.143373
  outer loop
   vertex 374.547058 -325.460999 93.826309
   vertex 374.722046 -325.599396 92.832909
   vertex 374.748352 -325.776978 92.899132
  endloop
 endfacet
 facet normal -0.588628 -0.795594 0.143342
  outer loop
   vertex 374.748352 -325.776978 92.899132
   vertex 374.696869 -325.559906 93.892532
   vertex 374.547058 -325.460999 93.826309
  endloop
 endfacet
 facet normal -0.588524 -0.795668 0.143364
  outer loop
   vertex 374.898163 -325.875854 92.965355
   vertex 374.696869 -325.559906 93.892532
   vertex 374.748352 -325.776978 92.899132
  endloop
 endfacet
 facet normal 0.137470 -0.928072 0.346099
  outer loop
   vertex 374.882446 -325.522186 93.919968
   vertex 374.696869 -325.559906 93.892532
   vertex 374.898163 -325.875854 92.965355
  endloop
 endfacet
 facet normal 0.137470 -0.928072 0.346099
  outer loop
   vertex 374.898163 -325.875854 92.965355
   vertex 375.083740 -325.838135 92.992790
   vertex 374.882446 -325.522186 93.919968
  endloop
 endfacet
 facet normal 0.783035 -0.516788 0.346102
  outer loop
   vertex 374.882446 -325.522186 93.919968
   vertex 375.083740 -325.838135 92.992790
   vertex 374.995056 -325.369934 93.892532
  endloop
 endfacet
 facet normal 0.782975 -0.516858 0.346133
  outer loop
   vertex 374.995056 -325.369934 93.892532
   vertex 375.083740 -325.838135 92.992790
   vertex 375.196350 -325.685913 92.965363
  endloop
 endfacet
 facet normal 0.969836 0.197134 0.143374
  outer loop
   vertex 375.196350 -325.685913 92.965363
   vertex 374.968750 -325.192352 93.826309
   vertex 374.995056 -325.369934 93.892532
  endloop
 endfacet
 facet normal 0.969836 0.197139 0.143371
  outer loop
   vertex 375.170044 -325.508331 92.899132
   vertex 374.968750 -325.192352 93.826309
   vertex 375.196350 -325.685913 92.965363
  endloop
 endfacet
 facet normal 0.588557 0.795645 -0.143349
  outer loop
   vertex 376.001862 -325.418152 91.981270
   vertex 376.203156 -325.734100 91.054092
   vertex 375.402588 -325.022583 91.716362
  endloop
 endfacet
 facet normal 0.588556 0.795646 -0.143351
  outer loop
   vertex 375.402588 -325.022583 91.716362
   vertex 376.203156 -325.734100 91.054092
   vertex 375.603882 -325.338531 90.789192
  endloop
 endfacet
 facet normal -0.137481 0.928069 -0.346103
  outer loop
   vertex 375.603882 -325.338531 90.789192
   vertex 374.660309 -325.173462 91.606636
   vertex 375.402588 -325.022583 91.716362
  endloop
 endfacet
 facet normal -0.137479 0.928070 -0.346100
  outer loop
   vertex 374.861603 -325.489410 90.679459
   vertex 374.660309 -325.173462 91.606636
   vertex 375.603882 -325.338531 90.789192
  endloop
 endfacet
 facet normal -0.782988 0.516851 -0.346114
  outer loop
   vertex 374.209839 -325.782410 91.716362
   vertex 374.660309 -325.173462 91.606636
   vertex 374.861603 -325.489410 90.679459
  endloop
 endfacet
 facet normal -0.782997 0.516829 -0.346126
  outer loop
   vertex 374.861603 -325.489410 90.679459
   vertex 374.411133 -326.098389 90.789185
   vertex 374.209839 -325.782410 91.716362
  endloop
 endfacet
 facet normal -0.969836 -0.197135 -0.143373
  outer loop
   vertex 374.209839 -325.782410 91.716362
   vertex 374.411133 -326.098389 90.789185
   vertex 374.315063 -326.492737 91.981262
  endloop
 endfacet
 facet normal -0.969834 -0.197145 -0.143376
  outer loop
   vertex 374.315063 -326.492737 91.981262
   vertex 374.411133 -326.098389 90.789185
   vertex 374.516357 -326.808685 91.054092
  endloop
 endfacet
 facet normal -0.588557 -0.795645 0.143350
  outer loop
   vertex 374.516357 -326.808685 91.054092
   vertex 374.914337 -326.888306 92.246170
   vertex 374.315063 -326.492737 91.981262
  endloop
 endfacet
 facet normal -0.588557 -0.795645 0.143350
  outer loop
   vertex 375.115631 -327.204254 91.319000
   vertex 374.914337 -326.888306 92.246170
   vertex 374.516357 -326.808685 91.054092
  endloop
 endfacet
 facet normal 0.137517 -0.928062 0.346108
  outer loop
   vertex 375.656616 -326.737396 92.355896
   vertex 374.914337 -326.888306 92.246170
   vertex 375.115631 -327.204254 91.319000
  endloop
 endfacet
 facet normal 0.137476 -0.928060 0.346129
  outer loop
   vertex 375.115631 -327.204254 91.319000
   vertex 375.857910 -327.053375 91.428726
   vertex 375.656616 -326.737396 92.355896
  endloop
 endfacet
 facet normal 0.782985 -0.516845 0.346131
  outer loop
   vertex 375.656616 -326.737396 92.355896
   vertex 375.857910 -327.053375 91.428726
   vertex 376.107086 -326.128448 92.246170
  endloop
 endfacet
 facet normal 0.782985 -0.516845 0.346131
  outer loop
   vertex 376.107086 -326.128448 92.246170
   vertex 375.857910 -327.053375 91.428726
   vertex 376.308380 -326.444427 91.319000
  endloop
 endfacet
 facet normal 0.969835 0.197142 0.143371
  outer loop
   vertex 376.308380 -326.444427 91.319000
   vertex 376.001862 -325.418152 91.981270
   vertex 376.107086 -326.128448 92.246170
  endloop
 endfacet
 facet normal 0.969835 0.197138 0.143378
  outer loop
   vertex 376.203156 -325.734100 91.054092
   vertex 376.001862 -325.418152 91.981270
   vertex 376.308380 -326.444427 91.319000
  endloop
 endfacet
 facet normal 0.369188 0.833891 0.410275
  outer loop
   vertex 375.168030 -325.505157 92.908440
   vertex 376.001862 -325.418152 91.981270
   vertex 375.018219 -325.406250 92.842216
  endloop
 endfacet
 facet normal 0.369136 0.833944 0.410214
  outer loop
   vertex 375.018219 -325.406250 92.842216
   vertex 376.001862 -325.418152 91.981270
   vertex 375.402588 -325.022583 91.716362
  endloop
 endfacet
 facet normal -0.227637 0.942792 0.243568
  outer loop
   vertex 375.402588 -325.022583 91.716362
   vertex 374.832642 -325.443970 92.814781
   vertex 375.018219 -325.406250 92.842216
  endloop
 endfacet
 facet normal -0.227641 0.942791 0.243565
  outer loop
   vertex 374.660309 -325.173462 91.606636
   vertex 374.832642 -325.443970 92.814781
   vertex 375.402588 -325.022583 91.716362
  endloop
 endfacet
 facet normal -0.758274 0.604729 0.243563
  outer loop
   vertex 374.720032 -325.596222 92.842216
   vertex 374.832642 -325.443970 92.814781
   vertex 374.660309 -325.173462 91.606636
  endloop
 endfacet
 facet normal -0.758223 0.604787 0.243580
  outer loop
   vertex 374.660309 -325.173462 91.606636
   vertex 374.209839 -325.782410 91.716362
   vertex 374.720032 -325.596222 92.842216
  endloop
 endfacet
 facet normal -0.911805 0.017912 0.410232
  outer loop
   vertex 374.720032 -325.596222 92.842216
   vertex 374.209839 -325.782410 91.716362
   vertex 374.746338 -325.773804 92.908440
  endloop
 endfacet
 facet normal -0.911805 0.017916 0.410232
  outer loop
   vertex 374.746338 -325.773804 92.908440
   vertex 374.209839 -325.782410 91.716362
   vertex 374.315063 -326.492737 91.981262
  endloop
 endfacet
 facet normal -0.598397 -0.474042 0.645915
  outer loop
   vertex 374.315063 -326.492737 91.981262
   vertex 374.896149 -325.872681 92.974663
   vertex 374.746338 -325.773804 92.908440
  endloop
 endfacet
 facet normal -0.598416 -0.474020 0.645913
  outer loop
   vertex 374.914337 -326.888306 92.246170
   vertex 374.896149 -325.872681 92.974663
   vertex 374.315063 -326.492737 91.981262
  endloop
 endfacet
 facet normal -0.001656 -0.582870 0.812564
  outer loop
   vertex 375.081726 -325.834961 93.002098
   vertex 374.896149 -325.872681 92.974663
   vertex 374.914337 -326.888306 92.246170
  endloop
 endfacet
 facet normal -0.001614 -0.582874 0.812561
  outer loop
   vertex 374.914337 -326.888306 92.246170
   vertex 375.656616 -326.737396 92.355896
   vertex 375.081726 -325.834961 93.002098
  endloop
 endfacet
 facet normal 0.528963 -0.244866 0.812550
  outer loop
   vertex 375.081726 -325.834961 93.002098
   vertex 375.656616 -326.737396 92.355896
   vertex 375.194336 -325.682739 92.974663
  endloop
 endfacet
 facet normal 0.528949 -0.244876 0.812557
  outer loop
   vertex 375.194336 -325.682739 92.974663
   vertex 375.656616 -326.737396 92.355896
   vertex 376.107086 -326.128448 92.246170
  endloop
 endfacet
 facet normal 0.682522 0.341980 0.645921
  outer loop
   vertex 376.107086 -326.128448 92.246170
   vertex 375.168030 -325.505157 92.908440
   vertex 375.194336 -325.682739 92.974663
  endloop
 endfacet
 facet normal 0.682525 0.341997 0.645908
  outer loop
   vertex 376.001862 -325.418152 91.981270
   vertex 375.168030 -325.505157 92.908440
   vertex 376.107086 -326.128448 92.246170
  endloop
 endfacet
 facet normal 0.588529 0.795660 -0.143387
  outer loop
   vertex 395.395782 -312.179108 93.826340
   vertex 395.597076 -312.495087 92.899170
   vertex 395.245972 -312.080231 93.760117
  endloop
 endfacet
 facet normal 0.588627 0.795599 -0.143318
  outer loop
   vertex 395.245972 -312.080231 93.760117
   vertex 395.597076 -312.495087 92.899170
   vertex 395.447266 -312.396179 92.832939
  endloop
 endfacet
 facet normal -0.137470 0.928072 -0.346099
  outer loop
   vertex 395.447266 -312.396179 92.832939
   vertex 395.060394 -312.117950 93.732681
   vertex 395.245972 -312.080231 93.760117
  endloop
 endfacet
 facet normal -0.137483 0.928069 -0.346103
  outer loop
   vertex 395.261688 -312.433899 92.805511
   vertex 395.060394 -312.117950 93.732681
   vertex 395.447266 -312.396179 92.832939
  endloop
 endfacet
 facet normal -0.782986 0.516852 -0.346117
  outer loop
   vertex 394.947784 -312.270172 93.760117
   vertex 395.060394 -312.117950 93.732681
   vertex 395.261688 -312.433899 92.805511
  endloop
 endfacet
 facet normal -0.783024 0.516793 -0.346119
  outer loop
   vertex 395.261688 -312.433899 92.805511
   vertex 395.149078 -312.586151 92.832939
   vertex 394.947784 -312.270172 93.760117
  endloop
 endfacet
 facet normal -0.969836 -0.197133 -0.143373
  outer loop
   vertex 394.947784 -312.270172 93.760117
   vertex 395.149078 -312.586151 92.832939
   vertex 394.974091 -312.447754 93.826340
  endloop
 endfacet
 facet normal -0.969835 -0.197139 -0.143372
  outer loop
   vertex 394.974091 -312.447754 93.826340
   vertex 395.149078 -312.586151 92.832939
   vertex 395.175385 -312.763733 92.899170
  endloop
 endfacet
 facet normal -0.588633 -0.795591 0.143341
  outer loop
   vertex 395.175385 -312.763733 92.899170
   vertex 395.123901 -312.546661 93.892570
   vertex 394.974091 -312.447754 93.826340
  endloop
 endfacet
 facet normal -0.588524 -0.795668 0.143364
  outer loop
   vertex 395.325195 -312.862610 92.965393
   vertex 395.123901 -312.546661 93.892570
   vertex 395.175385 -312.763733 92.899170
  endloop
 endfacet
 facet normal 0.137483 -0.928069 0.346101
  outer loop
   vertex 395.309479 -312.508942 93.919998
   vertex 395.123901 -312.546661 93.892570
   vertex 395.325195 -312.862610 92.965393
  endloop
 endfacet
 facet normal 0.137469 -0.928071 0.346101
  outer loop
   vertex 395.325195 -312.862610 92.965393
   vertex 395.510773 -312.824890 92.992828
   vertex 395.309479 -312.508942 93.919998
  endloop
 endfacet
 facet normal 0.783026 -0.516798 0.346107
  outer loop
   vertex 395.309479 -312.508942 93.919998
   vertex 395.510773 -312.824890 92.992828
   vertex 395.422089 -312.356689 93.892570
  endloop
 endfacet
 facet normal 0.783035 -0.516788 0.346102
  outer loop
   vertex 395.422089 -312.356689 93.892570
   vertex 395.510773 -312.824890 92.992828
   vertex 395.623383 -312.672638 92.965393
  endloop
 endfacet
 facet normal 0.969834 0.197140 0.143377
  outer loop
   vertex 395.623383 -312.672638 92.965393
   vertex 395.395782 -312.179108 93.826340
   vertex 395.422089 -312.356689 93.892570
  endloop
 endfacet
 facet normal 0.969832 0.197163 0.143363
  outer loop
   vertex 395.597076 -312.495087 92.899170
   vertex 395.395782 -312.179108 93.826340
   vertex 395.623383 -312.672638 92.965393
  endloop
 endfacet
 facet normal 0.969834 0.197145 0.143375
  outer loop
   vertex 396.534119 -313.115204 92.246208
   vertex 396.735413 -313.431152 91.319031
   vertex 396.428894 -312.404907 91.981300
  endloop
 endfacet
 facet normal 0.969834 0.197144 0.143376
  outer loop
   vertex 396.428894 -312.404907 91.981300
   vertex 396.735413 -313.431152 91.319031
   vertex 396.630188 -312.720856 91.054131
  endloop
 endfacet
 facet normal 0.588556 0.795646 -0.143351
  outer loop
   vertex 396.630188 -312.720856 91.054131
   vertex 395.829620 -312.009338 91.716400
   vertex 396.428894 -312.404907 91.981300
  endloop
 endfacet
 facet normal 0.588557 0.795645 -0.143349
  outer loop
   vertex 396.030914 -312.325287 90.789223
   vertex 395.829620 -312.009338 91.716400
   vertex 396.630188 -312.720856 91.054131
  endloop
 endfacet
 facet normal -0.137479 0.928070 -0.346100
  outer loop
   vertex 395.087341 -312.160217 91.606667
   vertex 395.829620 -312.009338 91.716400
   vertex 396.030914 -312.325287 90.789223
  endloop
 endfacet
 facet normal -0.137481 0.928069 -0.346103
  outer loop
   vertex 396.030914 -312.325287 90.789223
   vertex 395.288635 -312.476166 90.679497
   vertex 395.087341 -312.160217 91.606667
  endloop
 endfacet
 facet normal -0.782988 0.516850 -0.346116
  outer loop
   vertex 395.087341 -312.160217 91.606667
   vertex 395.288635 -312.476166 90.679497
   vertex 394.636871 -312.769165 91.716393
  endloop
 endfacet
 facet normal -0.782997 0.516828 -0.346128
  outer loop
   vertex 394.636871 -312.769165 91.716393
   vertex 395.288635 -312.476166 90.679497
   vertex 394.838165 -313.085144 90.789223
  endloop
 endfacet
 facet normal -0.969836 -0.197136 -0.143373
  outer loop
   vertex 394.838165 -313.085144 90.789223
   vertex 394.742096 -313.479492 91.981300
   vertex 394.636871 -312.769165 91.716393
  endloop
 endfacet
 facet normal -0.969834 -0.197144 -0.143375
  outer loop
   vertex 394.943390 -313.795441 91.054123
   vertex 394.742096 -313.479492 91.981300
   vertex 394.838165 -313.085144 90.789223
  endloop
 endfacet
 facet normal -0.588539 -0.795658 0.143357
  outer loop
   vertex 395.341400 -313.875061 92.246208
   vertex 394.742096 -313.479492 91.981300
   vertex 394.943390 -313.795441 91.054123
  endloop
 endfacet
 facet normal -0.588561 -0.795640 0.143366
  outer loop
   vertex 394.943390 -313.795441 91.054123
   vertex 395.542664 -314.191010 91.319031
   vertex 395.341400 -313.875061 92.246208
  endloop
 endfacet
 facet normal 0.137519 -0.928064 0.346102
  outer loop
   vertex 395.341400 -313.875061 92.246208
   vertex 395.542664 -314.191010 91.319031
   vertex 396.083679 -313.724152 92.355934
  endloop
 endfacet
 facet normal 0.137473 -0.928062 0.346125
  outer loop
   vertex 396.083679 -313.724152 92.355934
   vertex 395.542664 -314.191010 91.319031
   vertex 396.284943 -314.040131 91.428764
  endloop
 endfacet
 facet normal 0.783008 -0.516828 0.346104
  outer loop
   vertex 396.284943 -314.040131 91.428764
   vertex 396.534119 -313.115204 92.246208
   vertex 396.083679 -313.724152 92.355934
  endloop
 endfacet
 facet normal 0.783002 -0.516831 0.346110
  outer loop
   vertex 396.735413 -313.431152 91.319031
   vertex 396.534119 -313.115204 92.246208
   vertex 396.284943 -314.040131 91.428764
  endloop
 endfacet
endsolid