solid stl file generated from DOUG
 facet normal -0.453442 0.261789 0.851972
  outer loop
   vertex 500.809448 -445.961700 94.234039
   vertex 500.909943 -446.019714 94.305351
   vertex 513.181274 -424.764801 94.305382
  endloop
 endfacet
 facet normal 0.324372 -0.187275 0.927206
  outer loop
   vertex 513.181274 -424.764801 94.305382
   vertex 500.909943 -446.019714 94.305351
   vertex 513.263794 -424.812439 94.266891
  endloop
 endfacet
 facet normal 0.838755 -0.484248 0.248987
  outer loop
   vertex 512.193848 -424.194733 94.647827
   vertex 512.164490 -424.177765 94.779724
   vertex 499.893158 -445.432678 94.779686
  endloop
 endfacet
 facet normal 0.324417 -0.187301 0.927185
  outer loop
   vertex 499.893158 -445.432678 94.779686
   vertex 512.164490 -424.177765 94.779724
   vertex 512.081970 -424.130157 94.818214
  endloop
 endfacet
 facet normal 0.324427 -0.187307 0.927180
  outer loop
   vertex 512.081970 -424.130157 94.818214
   vertex 499.810638 -445.385040 94.818184
   vertex 499.893158 -445.432678 94.779686
  endloop
 endfacet
 facet normal 0.014725 -0.008503 0.999855
  outer loop
   vertex 511.844269 -423.992920 94.138840
   vertex 499.572937 -445.247803 94.138809
   vertex 511.873413 -424.009735 94.138268
  endloop
 endfacet
 facet normal 0.014914 -0.008612 0.999852
  outer loop
   vertex 511.873413 -424.009735 94.138268
   vertex 499.572937 -445.247803 94.138809
   vertex 499.602081 -445.264648 94.138229
  endloop
 endfacet
 facet normal -0.802981 0.463593 0.374571
  outer loop
   vertex 499.602081 -445.264648 94.138229
   vertex 499.788666 -445.372345 94.671509
   vertex 511.873413 -424.009735 94.138268
  endloop
 endfacet
 facet normal -0.453367 0.261746 0.852025
  outer loop
   vertex 513.181274 -424.764801 94.305382
   vertex 513.080750 -424.706787 94.234070
   vertex 500.809448 -445.961700 94.234039
  endloop
 endfacet
 facet normal 0.324414 -0.187298 0.927187
  outer loop
   vertex 500.809448 -445.961700 94.234039
   vertex 513.080750 -424.706787 94.234070
   vertex 512.193848 -424.194733 94.647827
  endloop
 endfacet
 facet normal 0.324414 -0.187298 0.927187
  outer loop
   vertex 512.193848 -424.194733 94.647827
   vertex 499.922546 -445.449646 94.647797
   vertex 500.809448 -445.961700 94.234039
  endloop
 endfacet
 facet normal 0.838712 -0.484222 0.249183
  outer loop
   vertex 499.893158 -445.432678 94.779686
   vertex 499.922546 -445.449646 94.647797
   vertex 512.193848 -424.194733 94.647827
  endloop
 endfacet
 facet normal -0.802981 0.463594 0.374568
  outer loop
   vertex 499.810638 -445.385040 94.818184
   vertex 512.081970 -424.130157 94.818214
   vertex 499.767365 -445.360046 94.694481
  endloop
 endfacet
 facet normal -0.802981 0.463594 0.374568
  outer loop
   vertex 499.767365 -445.360046 94.694481
   vertex 512.081970 -424.130157 94.818214
   vertex 512.038696 -424.105164 94.694511
  endloop
 endfacet
 facet normal -0.591115 0.341276 -0.730831
  outer loop
   vertex 512.038696 -424.105164 94.694511
   vertex 499.788666 -445.372345 94.671509
   vertex 499.767365 -445.360046 94.694481
  endloop
 endfacet
 facet normal -0.591010 0.341216 -0.730944
  outer loop
   vertex 512.059998 -424.117462 94.671547
   vertex 499.788666 -445.372345 94.671509
   vertex 512.038696 -424.105164 94.694511
  endloop
 endfacet
 facet normal -0.802972 0.463589 0.374594
  outer loop
   vertex 511.873413 -424.009735 94.138268
   vertex 499.788666 -445.372345 94.671509
   vertex 512.059998 -424.117462 94.671547
  endloop
 endfacet
 facet normal 0.499983 0.866035 -0.000013
  outer loop
   vertex 513.454041 -424.528473 94.277855
   vertex 511.972198 -423.672974 94.062637
   vertex 512.244873 -423.830383 94.841942
  endloop
 endfacet
 facet normal -0.802969 0.463593 0.374595
  outer loop
   vertex 512.244873 -423.830383 94.841942
   vertex 511.972198 -423.672974 94.062637
   vertex 511.744873 -424.696411 94.841942
  endloop
 endfacet
 facet normal 0.324410 -0.187298 0.927188
  outer loop
   vertex 511.744873 -424.696411 94.841942
   vertex 512.954041 -425.394531 94.277847
   vertex 512.244873 -423.830383 94.841942
  endloop
 endfacet
 facet normal -0.500003 -0.866024 0.000003
  outer loop
   vertex 511.472229 -424.539001 94.062637
   vertex 512.954041 -425.394531 94.277847
   vertex 511.744873 -424.696411 94.841942
  endloop
 endfacet
 facet normal -0.499999 -0.866026 -0.000033
  outer loop
   vertex 512.681396 -425.237091 93.498550
   vertex 512.954041 -425.394531 94.277847
   vertex 511.472229 -424.539001 94.062637
  endloop
 endfacet
 facet normal -0.324414 0.187289 -0.927189
  outer loop
   vertex 511.472229 -424.539001 94.062637
   vertex 511.972198 -423.672974 94.062637
   vertex 512.681396 -425.237091 93.498550
  endloop
 endfacet
 facet normal -0.324404 0.187294 -0.927191
  outer loop
   vertex 512.681396 -425.237091 93.498550
   vertex 511.972198 -423.672974 94.062637
   vertex 513.181396 -424.371063 93.498550
  endloop
 endfacet
 facet normal 0.499980 0.866037 0.000007
  outer loop
   vertex 513.181396 -424.371063 93.498550
   vertex 511.972198 -423.672974 94.062637
   vertex 513.454041 -424.528473 94.277855
  endloop
 endfacet
 facet normal 0.802987 -0.463584 -0.374568
  outer loop
   vertex 513.454041 -424.528473 94.277855
   vertex 512.954041 -425.394531 94.277847
   vertex 513.181396 -424.371063 93.498550
  endloop
 endfacet
 facet normal 0.324408 -0.187298 0.927189
  outer loop
   vertex 512.244873 -423.830383 94.841942
   vertex 512.954041 -425.394531 94.277847
   vertex 513.454041 -424.528473 94.277855
  endloop
 endfacet
 facet normal 0.499997 0.866027 -0.000020
  outer loop
   vertex 500.132507 -444.809967 94.841911
   vertex 501.341675 -445.508087 94.277817
   vertex 499.859833 -444.652557 94.062607
  endloop
 endfacet
 facet normal 0.499993 0.866029 0.000016
  outer loop
   vertex 499.859833 -444.652557 94.062607
   vertex 501.341675 -445.508087 94.277817
   vertex 501.069000 -445.350647 93.498520
  endloop
 endfacet
 facet normal -0.324405 0.187303 -0.927189
  outer loop
   vertex 501.069000 -445.350647 93.498520
   vertex 500.569000 -446.216675 93.498512
   vertex 499.859833 -444.652557 94.062607
  endloop
 endfacet
 facet normal 0.802964 -0.463587 -0.374614
  outer loop
   vertex 501.341675 -445.508087 94.277817
   vertex 500.569000 -446.216675 93.498512
   vertex 501.069000 -445.350647 93.498520
  endloop
 endfacet
 facet normal 0.802964 -0.463590 -0.374610
  outer loop
   vertex 500.841675 -446.374115 94.277817
   vertex 500.569000 -446.216675 93.498512
   vertex 501.341675 -445.508087 94.277817
  endloop
 endfacet
 facet normal 0.324410 -0.187298 0.927188
  outer loop
   vertex 501.341675 -445.508087 94.277817
   vertex 499.632507 -445.675995 94.841911
   vertex 500.841675 -446.374115 94.277817
  endloop
 endfacet
 facet normal -0.500007 -0.866021 -0.000009
  outer loop
   vertex 500.841675 -446.374115 94.277817
   vertex 499.632507 -445.675995 94.841911
   vertex 500.569000 -446.216675 93.498512
  endloop
 endfacet
 facet normal -0.499983 -0.866035 0.000013
  outer loop
   vertex 500.569000 -446.216675 93.498512
   vertex 499.632507 -445.675995 94.841911
   vertex 499.359833 -445.518585 94.062607
  endloop
 endfacet
 facet normal -0.324413 0.187299 -0.927187
  outer loop
   vertex 499.359833 -445.518585 94.062607
   vertex 499.859833 -444.652557 94.062607
   vertex 500.569000 -446.216675 93.498512
  endloop
 endfacet
 facet normal -0.802969 0.463593 0.374595
  outer loop
   vertex 499.632507 -445.675995 94.841911
   vertex 499.859833 -444.652557 94.062607
   vertex 499.359833 -445.518585 94.062607
  endloop
 endfacet
 facet normal -0.802969 0.463593 0.374595
  outer loop
   vertex 500.132507 -444.809967 94.841911
   vertex 499.859833 -444.652557 94.062607
   vertex 499.632507 -445.675995 94.841911
  endloop
 endfacet
 facet normal 0.324410 -0.187298 0.927188
  outer loop
   vertex 499.632507 -445.675995 94.841911
   vertex 501.341675 -445.508087 94.277817
   vertex 500.132507 -444.809967 94.841911
  endloop
 endfacet
 facet normal 0.324505 -0.187352 0.927144
  outer loop
   vertex 500.909943 -446.019714 94.305351
   vertex 500.992432 -446.067352 94.266853
   vertex 513.263794 -424.812439 94.266891
  endloop
 endfacet
 facet normal 0.802981 -0.463594 -0.374568
  outer loop
   vertex 513.263794 -424.812439 94.266891
   vertex 500.992432 -446.067352 94.266853
   vertex 500.949158 -446.042358 94.143150
  endloop
 endfacet
 facet normal 0.802981 -0.463594 -0.374568
  outer loop
   vertex 500.949158 -446.042358 94.143150
   vertex 513.220520 -424.787445 94.143188
   vertex 513.263794 -424.812439 94.266891
  endloop
 endfacet
 facet normal -0.014914 0.008612 -0.999852
  outer loop
   vertex 500.920013 -446.025513 94.143730
   vertex 513.220520 -424.787445 94.143188
   vertex 500.949158 -446.042358 94.143150
  endloop
 endfacet
 facet normal -0.014713 0.008496 -0.999856
  outer loop
   vertex 513.191345 -424.770630 94.143761
   vertex 513.220520 -424.787445 94.143188
   vertex 500.920013 -446.025513 94.143730
  endloop
 endfacet
 facet normal 0.802972 -0.463589 -0.374594
  outer loop
   vertex 500.920013 -446.025513 94.143730
   vertex 500.733429 -445.917786 93.610451
   vertex 513.191345 -424.770630 94.143761
  endloop
 endfacet
 facet normal 0.802972 -0.463589 -0.374594
  outer loop
   vertex 513.191345 -424.770630 94.143761
   vertex 500.733429 -445.917786 93.610451
   vertex 513.004761 -424.662903 93.610481
  endloop
 endfacet
 facet normal 0.590919 -0.341163 0.731042
  outer loop
   vertex 513.004761 -424.662903 93.610481
   vertex 500.733429 -445.917786 93.610451
   vertex 500.754730 -445.930115 93.587479
  endloop
 endfacet
 facet normal 0.591010 -0.341216 0.730944
  outer loop
   vertex 500.754730 -445.930115 93.587479
   vertex 513.026062 -424.675201 93.587517
   vertex 513.004761 -424.662903 93.610481
  endloop
 endfacet
 facet normal 0.803007 -0.463608 -0.374495
  outer loop
   vertex 500.733276 -445.917694 93.526100
   vertex 513.026062 -424.675201 93.587517
   vertex 500.754730 -445.930115 93.587479
  endloop
 endfacet
 facet normal 0.802971 -0.463587 -0.374600
  outer loop
   vertex 513.004578 -424.662811 93.526131
   vertex 513.026062 -424.675201 93.587517
   vertex 500.733276 -445.917694 93.526100
  endloop
 endfacet
 facet normal -0.324408 0.187295 -0.927189
  outer loop
   vertex 500.733276 -445.917694 93.526100
   vertex 499.551453 -445.235413 94.077423
   vertex 513.004578 -424.662811 93.526131
  endloop
 endfacet
 facet normal -0.324414 0.187299 -0.927187
  outer loop
   vertex 513.004578 -424.662811 93.526131
   vertex 499.551453 -445.235413 94.077423
   vertex 511.822784 -423.980499 94.077461
  endloop
 endfacet
 facet normal -0.802887 0.463539 0.374838
  outer loop
   vertex 511.822784 -423.980499 94.077461
   vertex 499.551453 -445.235413 94.077423
   vertex 511.844269 -423.992920 94.138840
  endloop
 endfacet
 facet normal -0.802991 0.463578 0.374568
  outer loop
   vertex 511.472229 -424.539001 94.062637
   vertex 511.744873 -424.696411 94.841942
   vertex 511.972198 -423.672974 94.062637
  endloop
 endfacet
 facet normal 0.802972 -0.463595 -0.374587
  outer loop
   vertex 512.954041 -425.394531 94.277847
   vertex 512.681396 -425.237091 93.498550
   vertex 513.181396 -424.371063 93.498550
  endloop
 endfacet
 facet normal -0.802970 0.463588 0.374600
  outer loop
   vertex 499.551453 -445.235413 94.077423
   vertex 499.572937 -445.247803 94.138809
   vertex 511.844269 -423.992920 94.138840
  endloop
 endfacet
 facet normal 0.057574 -0.910136 0.410290
  outer loop
   vertex 499.785553 -445.472778 92.908501
   vertex 499.086151 -445.934998 91.981316
   vertex 499.964111 -445.491333 92.842285
  endloop
 endfacet
 facet normal 0.057638 -0.910156 0.410236
  outer loop
   vertex 499.964111 -445.491333 92.842285
   vertex 499.086151 -445.934998 91.981316
   vertex 499.800385 -446.009155 91.716438
  endloop
 endfacet
 facet normal 0.637324 -0.731088 0.243574
  outer loop
   vertex 499.800385 -446.009155 91.716438
   vertex 500.111298 -445.372162 92.814857
   vertex 499.964111 -445.491333 92.842285
  endloop
 endfacet
 facet normal 0.637257 -0.731132 0.243618
  outer loop
   vertex 500.389130 -445.532562 91.606720
   vertex 500.111298 -445.372162 92.814857
   vertex 499.800385 -446.009155 91.716438
  endloop
 endfacet
 facet normal 0.951797 -0.186360 0.243624
  outer loop
   vertex 500.140900 -445.185120 92.842285
   vertex 500.111298 -445.372162 92.814857
   vertex 500.389130 -445.532562 91.606720
  endloop
 endfacet
 facet normal 0.951816 -0.186285 0.243607
  outer loop
   vertex 500.389130 -445.532562 91.606720
   vertex 500.507477 -444.784393 91.716438
   vertex 500.140900 -445.185120 92.842285
  endloop
 endfacet
 facet normal 0.817003 0.405219 0.410248
  outer loop
   vertex 500.140900 -445.185120 92.842285
   vertex 500.507477 -444.784393 91.716438
   vertex 500.035553 -445.039764 92.908508
  endloop
 endfacet
 facet normal 0.817039 0.405149 0.410247
  outer loop
   vertex 500.035553 -445.039764 92.908508
   vertex 500.507477 -444.784393 91.716438
   vertex 500.086151 -444.202942 91.981316
  endloop
 endfacet
 facet normal 0.311819 0.696819 0.645919
  outer loop
   vertex 500.086151 -444.202942 91.981316
   vertex 499.856995 -445.021240 92.974724
   vertex 500.035553 -445.039764 92.908508
  endloop
 endfacet
 facet normal 0.311894 0.696791 0.645913
  outer loop
   vertex 499.371918 -444.128784 92.246201
   vertex 499.856995 -445.021240 92.974724
   vertex 500.086151 -444.202942 91.981316
  endloop
 endfacet
 facet normal -0.267708 0.517785 0.812546
  outer loop
   vertex 499.709808 -445.140381 93.002151
   vertex 499.856995 -445.021240 92.974724
   vertex 499.371918 -444.128784 92.246201
  endloop
 endfacet
 facet normal -0.267728 0.517777 0.812545
  outer loop
   vertex 499.371918 -444.128784 92.246201
   vertex 498.783173 -444.605377 92.355911
   vertex 499.709808 -445.140381 93.002151
  endloop
 endfacet
 facet normal -0.582297 -0.027086 0.812525
  outer loop
   vertex 499.709808 -445.140381 93.002151
   vertex 498.783173 -444.605377 92.355911
   vertex 499.680237 -445.327423 92.974724
  endloop
 endfacet
 facet normal -0.582279 -0.027052 0.812539
  outer loop
   vertex 499.680237 -445.327423 92.974724
   vertex 498.783173 -444.605377 92.355911
   vertex 498.664825 -445.353546 92.246193
  endloop
 endfacet
 facet normal -0.447505 -0.618507 0.645901
  outer loop
   vertex 498.664825 -445.353546 92.246193
   vertex 499.785553 -445.472778 92.908501
   vertex 499.680237 -445.327423 92.974724
  endloop
 endfacet
 facet normal -0.447506 -0.618505 0.645903
  outer loop
   vertex 499.086151 -445.934998 91.981316
   vertex 499.785553 -445.472778 92.908501
   vertex 498.664825 -445.353546 92.246193
  endloop
 endfacet
 facet normal -0.154555 -0.977525 -0.143379
  outer loop
   vertex 512.216553 -424.682983 93.826416
   vertex 511.892151 -424.495697 92.899231
   vertex 512.395142 -424.701508 93.760201
  endloop
 endfacet
 facet normal -0.154560 -0.977525 -0.143376
  outer loop
   vertex 512.395142 -424.701508 93.760201
   vertex 511.892151 -424.495697 92.899231
   vertex 512.070740 -424.514221 92.833008
  endloop
 endfacet
 facet normal 0.550554 -0.759685 -0.346076
  outer loop
   vertex 512.070740 -424.514221 92.833008
   vertex 512.542297 -424.582367 93.732773
   vertex 512.395142 -424.701508 93.760201
  endloop
 endfacet
 facet normal 0.550554 -0.759685 -0.346076
  outer loop
   vertex 512.217896 -424.395081 92.805580
   vertex 512.542297 -424.582367 93.732773
   vertex 512.070740 -424.514221 92.833008
  endloop
 endfacet
 facet normal 0.933184 -0.096941 -0.346079
  outer loop
   vertex 512.571899 -424.395325 93.760201
   vertex 512.542297 -424.582367 93.732773
   vertex 512.217896 -424.395081 92.805580
  endloop
 endfacet
 facet normal 0.933184 -0.096941 -0.346079
  outer loop
   vertex 512.217896 -424.395081 92.805580
   vertex 512.247498 -424.208038 92.833008
   vertex 512.571899 -424.395325 93.760201
  endloop
 endfacet
 facet normal 0.769178 0.622755 -0.143324
  outer loop
   vertex 512.571899 -424.395325 93.760201
   vertex 512.247498 -424.208038 92.833008
   vertex 512.466553 -424.249969 93.826416
  endloop
 endfacet
 facet normal 0.769174 0.622759 -0.143323
  outer loop
   vertex 512.466553 -424.249969 93.826416
   vertex 512.247498 -424.208038 92.833008
   vertex 512.142151 -424.062683 92.899231
  endloop
 endfacet
 facet normal 0.154752 0.977505 0.143306
  outer loop
   vertex 512.142151 -424.062683 92.899231
   vertex 512.288025 -424.231415 93.892639
   vertex 512.466553 -424.249969 93.826416
  endloop
 endfacet
 facet normal 0.154721 0.977509 0.143312
  outer loop
   vertex 511.963593 -424.044128 92.965446
   vertex 512.288025 -424.231415 93.892639
   vertex 512.142151 -424.062683 92.899231
  endloop
 endfacet
 facet normal -0.550507 0.759716 0.346084
  outer loop
   vertex 512.140808 -424.350586 93.920067
   vertex 512.288025 -424.231415 93.892639
   vertex 511.963593 -424.044128 92.965446
  endloop
 endfacet
 facet normal -0.550468 0.759743 0.346086
  outer loop
   vertex 511.963593 -424.044128 92.965446
   vertex 511.816406 -424.163269 92.992882
   vertex 512.140808 -424.350586 93.920067
  endloop
 endfacet
 facet normal -0.933228 0.096649 0.346042
  outer loop
   vertex 512.140808 -424.350586 93.920067
   vertex 511.816406 -424.163269 92.992882
   vertex 512.111267 -424.537628 93.892639
  endloop
 endfacet
 facet normal -0.933199 0.096776 0.346085
  outer loop
   vertex 512.111267 -424.537628 93.892639
   vertex 511.816406 -424.163269 92.992882
   vertex 511.786835 -424.350311 92.965446
  endloop
 endfacet
 facet normal -0.769308 -0.622573 0.143411
  outer loop
   vertex 511.786835 -424.350311 92.965446
   vertex 512.216553 -424.682983 93.826416
   vertex 512.111267 -424.537628 93.892639
  endloop
 endfacet
 facet normal -0.769300 -0.622586 0.143402
  outer loop
   vertex 511.892151 -424.495697 92.899231
   vertex 512.216553 -424.682983 93.826416
   vertex 511.786835 -424.350311 92.965446
  endloop
 endfacet
 facet normal -0.154653 -0.977515 -0.143343
  outer loop
   vertex 511.196014 -424.959778 91.981346
   vertex 510.871613 -424.772491 91.054161
   vertex 511.910248 -425.033936 91.716469
  endloop
 endfacet
 facet normal -0.154653 -0.977515 -0.143343
  outer loop
   vertex 511.910248 -425.033936 91.716469
   vertex 510.871613 -424.772491 91.054161
   vertex 511.585846 -424.846649 90.789284
  endloop
 endfacet
 facet normal 0.550524 -0.759709 -0.346073
  outer loop
   vertex 511.585846 -424.846649 90.789284
   vertex 512.498962 -424.557343 91.606750
   vertex 511.910248 -425.033936 91.716469
  endloop
 endfacet
 facet normal 0.550524 -0.759709 -0.346073
  outer loop
   vertex 512.174561 -424.370056 90.679565
   vertex 512.498962 -424.557343 91.606750
   vertex 511.585846 -424.846649 90.789284
  endloop
 endfacet
 facet normal 0.933183 -0.096941 -0.346082
  outer loop
   vertex 512.617371 -423.809204 91.716469
   vertex 512.498962 -424.557343 91.606750
   vertex 512.174561 -424.370056 90.679565
  endloop
 endfacet
 facet normal 0.933175 -0.096853 -0.346126
  outer loop
   vertex 512.174561 -424.370056 90.679565
   vertex 512.292908 -423.621887 90.789284
   vertex 512.617371 -423.809204 91.716469
  endloop
 endfacet
 facet normal 0.769194 0.622726 -0.143367
  outer loop
   vertex 512.617371 -423.809204 91.716469
   vertex 512.292908 -423.621887 90.789284
   vertex 512.195984 -423.227722 91.981354
  endloop
 endfacet
 facet normal 0.769224 0.622691 -0.143353
  outer loop
   vertex 512.195984 -423.227722 91.981354
   vertex 512.292908 -423.621887 90.789284
   vertex 511.871582 -423.040436 91.054161
  endloop
 endfacet
 facet normal 0.154659 0.977514 0.143340
  outer loop
   vertex 511.871582 -423.040436 91.054161
   vertex 511.481781 -423.153564 92.246231
   vertex 512.195984 -423.227722 91.981354
  endloop
 endfacet
 facet normal 0.154651 0.977516 0.143338
  outer loop
   vertex 511.157349 -422.966278 91.319038
   vertex 511.481781 -423.153564 92.246231
   vertex 511.871582 -423.040436 91.054161
  endloop
 endfacet
 facet normal -0.550505 0.759717 0.346084
  outer loop
   vertex 510.893036 -423.630157 92.355942
   vertex 511.481781 -423.153564 92.246231
   vertex 511.157349 -422.966278 91.319038
  endloop
 endfacet
 facet normal -0.550524 0.759709 0.346073
  outer loop
   vertex 511.157349 -422.966278 91.319038
   vertex 510.568634 -423.442871 91.428757
   vertex 510.893036 -423.630157 92.355942
  endloop
 endfacet
 facet normal -0.933189 0.096904 0.346076
  outer loop
   vertex 510.893036 -423.630157 92.355942
   vertex 510.568634 -423.442871 91.428757
   vertex 510.774658 -424.378326 92.246231
  endloop
 endfacet
 facet normal -0.933190 0.096901 0.346073
  outer loop
   vertex 510.774658 -424.378326 92.246231
   vertex 510.568634 -423.442871 91.428757
   vertex 510.450256 -424.191040 91.319038
  endloop
 endfacet
 facet normal -0.769206 -0.622716 0.143342
  outer loop
   vertex 510.450256 -424.191040 91.319038
   vertex 511.196014 -424.959778 91.981346
   vertex 510.774658 -424.378326 92.246231
  endloop
 endfacet
 facet normal -0.769207 -0.622715 0.143344
  outer loop
   vertex 510.871613 -424.772491 91.054161
   vertex 511.196014 -424.959778 91.981346
   vertex 510.450256 -424.191040 91.319038
  endloop
 endfacet
 facet normal 0.057587 -0.910140 0.410279
  outer loop
   vertex 511.895416 -424.497559 92.908539
   vertex 511.196014 -424.959778 91.981346
   vertex 512.073975 -424.516113 92.842316
  endloop
 endfacet
 facet normal 0.057638 -0.910156 0.410236
  outer loop
   vertex 512.073975 -424.516113 92.842316
   vertex 511.196014 -424.959778 91.981346
   vertex 511.910248 -425.033936 91.716469
  endloop
 endfacet
 facet normal 0.637403 -0.731032 0.243536
  outer loop
   vertex 511.910248 -425.033936 91.716469
   vertex 512.221130 -424.396942 92.814888
   vertex 512.073975 -424.516113 92.842316
  endloop
 endfacet
 facet normal 0.637276 -0.731115 0.243620
  outer loop
   vertex 512.498962 -424.557343 91.606750
   vertex 512.221130 -424.396942 92.814888
   vertex 511.910248 -425.033936 91.716469
  endloop
 endfacet
 facet normal 0.951797 -0.186360 0.243624
  outer loop
   vertex 512.250732 -424.209900 92.842316
   vertex 512.221130 -424.396942 92.814888
   vertex 512.498962 -424.557343 91.606750
  endloop
 endfacet
 facet normal 0.951794 -0.186370 0.243627
  outer loop
   vertex 512.498962 -424.557343 91.606750
   vertex 512.617371 -423.809204 91.716469
   vertex 512.250732 -424.209900 92.842316
  endloop
 endfacet
 facet normal 0.816998 0.405203 0.410274
  outer loop
   vertex 512.250732 -424.209900 92.842316
   vertex 512.617371 -423.809204 91.716469
   vertex 512.145386 -424.064545 92.908539
  endloop
 endfacet
 facet normal 0.817012 0.405176 0.410274
  outer loop
   vertex 512.145386 -424.064545 92.908539
   vertex 512.617371 -423.809204 91.716469
   vertex 512.195984 -423.227722 91.981354
  endloop
 endfacet
 facet normal 0.311868 0.696803 0.645913
  outer loop
   vertex 512.195984 -423.227722 91.981354
   vertex 511.966858 -424.046021 92.974754
   vertex 512.145386 -424.064545 92.908539
  endloop
 endfacet
 facet normal 0.311899 0.696792 0.645910
  outer loop
   vertex 511.481781 -423.153564 92.246231
   vertex 511.966858 -424.046021 92.974754
   vertex 512.195984 -423.227722 91.981354
  endloop
 endfacet
 facet normal -0.267679 0.517800 0.812546
  outer loop
   vertex 511.819672 -424.165161 93.002190
   vertex 511.966858 -424.046021 92.974754
   vertex 511.481781 -423.153564 92.246231
  endloop
 endfacet
 facet normal -0.267731 0.517780 0.812542
  outer loop
   vertex 511.481781 -423.153564 92.246231
   vertex 510.893036 -423.630157 92.355942
   vertex 511.819672 -424.165161 93.002190
  endloop
 endfacet
 facet normal -0.582280 -0.027029 0.812539
  outer loop
   vertex 511.819672 -424.165161 93.002190
   vertex 510.893036 -423.630157 92.355942
   vertex 511.790070 -424.352203 92.974754
  endloop
 endfacet
 facet normal -0.582276 -0.027021 0.812542
  outer loop
   vertex 511.790070 -424.352203 92.974754
   vertex 510.893036 -423.630157 92.355942
   vertex 510.774658 -424.378326 92.246231
  endloop
 endfacet
 facet normal -0.447485 -0.618543 0.645881
  outer loop
   vertex 510.774658 -424.378326 92.246231
   vertex 511.895416 -424.497559 92.908539
   vertex 511.790070 -424.352203 92.974754
  endloop
 endfacet
 facet normal -0.447491 -0.618523 0.645895
  outer loop
   vertex 511.196014 -424.959778 91.981346
   vertex 511.895416 -424.497559 92.908539
   vertex 510.774658 -424.378326 92.246231
  endloop
 endfacet
 facet normal -0.154593 -0.977516 -0.143397
  outer loop
   vertex 500.106720 -445.658203 93.826385
   vertex 499.782318 -445.470886 92.899200
   vertex 500.285278 -445.676727 93.760162
  endloop
 endfacet
 facet normal -0.154729 -0.977507 -0.143315
  outer loop
   vertex 500.285278 -445.676727 93.760162
   vertex 499.782318 -445.470886 92.899200
   vertex 499.960876 -445.489441 92.832977
  endloop
 endfacet
 facet normal 0.550486 -0.759739 -0.346066
  outer loop
   vertex 499.960876 -445.489441 92.832977
   vertex 500.432465 -445.557587 93.732735
   vertex 500.285278 -445.676727 93.760162
  endloop
 endfacet
 facet normal 0.550548 -0.759681 -0.346094
  outer loop
   vertex 500.108032 -445.370300 92.805550
   vertex 500.432465 -445.557587 93.732735
   vertex 499.960876 -445.489441 92.832977
  endloop
 endfacet
 facet normal 0.933199 -0.096776 -0.346085
  outer loop
   vertex 500.462036 -445.370544 93.760170
   vertex 500.432465 -445.557587 93.732735
   vertex 500.108032 -445.370300 92.805550
  endloop
 endfacet
 facet normal 0.933184 -0.096941 -0.346079
  outer loop
   vertex 500.108032 -445.370300 92.805550
   vertex 500.137634 -445.183258 92.832977
   vertex 500.462036 -445.370544 93.760170
  endloop
 endfacet
 facet normal 0.769246 0.622661 -0.143367
  outer loop
   vertex 500.462036 -445.370544 93.760170
   vertex 500.137634 -445.183258 92.832977
   vertex 500.356720 -445.225189 93.826385
  endloop
 endfacet
 facet normal 0.769228 0.622685 -0.143362
  outer loop
   vertex 500.356720 -445.225189 93.826385
   vertex 500.137634 -445.183258 92.832977
   vertex 500.032288 -445.037872 92.899200
  endloop
 endfacet
 facet normal 0.154737 0.977502 0.143338
  outer loop
   vertex 500.032288 -445.037872 92.899200
   vertex 500.178162 -445.206635 93.892609
   vertex 500.356720 -445.225189 93.826385
  endloop
 endfacet
 facet normal 0.154576 0.977524 0.143365
  outer loop
   vertex 499.853729 -445.019348 92.965416
   vertex 500.178162 -445.206635 93.892609
   vertex 500.032288 -445.037872 92.899200
  endloop
 endfacet
 facet normal -0.550575 0.759661 0.346097
  outer loop
   vertex 500.030975 -445.325806 93.920036
   vertex 500.178162 -445.206635 93.892609
   vertex 499.853729 -445.019348 92.965416
  endloop
 endfacet
 facet normal -0.550547 0.759680 0.346098
  outer loop
   vertex 499.853729 -445.019348 92.965416
   vertex 499.706573 -445.138489 92.992844
   vertex 500.030975 -445.325806 93.920036
  endloop
 endfacet
 facet normal -0.933180 0.096955 0.346084
  outer loop
   vertex 500.030975 -445.325806 93.920036
   vertex 499.706573 -445.138489 92.992844
   vertex 500.001373 -445.512817 93.892609
  endloop
 endfacet
 facet normal -0.933184 0.096941 0.346079
  outer loop
   vertex 500.001373 -445.512817 93.892609
   vertex 499.706573 -445.138489 92.992844
   vertex 499.676971 -445.325531 92.965416
  endloop
 endfacet
 facet normal -0.769230 -0.622684 0.143357
  outer loop
   vertex 499.676971 -445.325531 92.965416
   vertex 500.106720 -445.658203 93.826385
   vertex 500.001373 -445.512817 93.892609
  endloop
 endfacet
 facet normal -0.769184 -0.622751 0.143308
  outer loop
   vertex 499.782318 -445.470886 92.899200
   vertex 500.106720 -445.658203 93.826385
   vertex 499.676971 -445.325531 92.965416
  endloop
 endfacet
 facet normal -0.769216 -0.622696 0.143376
  outer loop
   vertex 498.664825 -445.353546 92.246193
   vertex 498.340393 -445.166260 91.319008
   vertex 499.086151 -445.934998 91.981316
  endloop
 endfacet
 facet normal -0.769207 -0.622715 0.143344
  outer loop
   vertex 499.086151 -445.934998 91.981316
   vertex 498.340393 -445.166260 91.319008
   vertex 498.761749 -445.747711 91.054131
  endloop
 endfacet
 facet normal -0.154653 -0.977515 -0.143343
  outer loop
   vertex 498.761749 -445.747711 91.054131
   vertex 499.800385 -446.009155 91.716438
   vertex 499.086151 -445.934998 91.981316
  endloop
 endfacet
 facet normal -0.154654 -0.977515 -0.143341
  outer loop
   vertex 499.475983 -445.821869 90.789246
   vertex 499.800385 -446.009155 91.716438
   vertex 498.761749 -445.747711 91.054131
  endloop
 endfacet
 facet normal 0.550508 -0.759723 -0.346068
  outer loop
   vertex 500.389130 -445.532562 91.606720
   vertex 499.800385 -446.009155 91.716438
   vertex 499.475983 -445.821869 90.789246
  endloop
 endfacet
 facet normal 0.550521 -0.759703 -0.346089
  outer loop
   vertex 499.475983 -445.821869 90.789246
   vertex 500.064697 -445.345276 90.679535
   vertex 500.389130 -445.532562 91.606720
  endloop
 endfacet
 facet normal 0.933186 -0.096859 -0.346097
  outer loop
   vertex 500.389130 -445.532562 91.606720
   vertex 500.064697 -445.345276 90.679535
   vertex 500.507477 -444.784393 91.716438
  endloop
 endfacet
 facet normal 0.933189 -0.096900 -0.346076
  outer loop
   vertex 500.507477 -444.784393 91.716438
   vertex 500.064697 -445.345276 90.679535
   vertex 500.183075 -444.597107 90.789253
  endloop
 endfacet
 facet normal 0.769223 0.622692 -0.143354
  outer loop
   vertex 500.183075 -444.597107 90.789253
   vertex 500.086151 -444.202942 91.981316
   vertex 500.507477 -444.784393 91.716438
  endloop
 endfacet
 facet normal 0.769199 0.622719 -0.143365
  outer loop
   vertex 499.761719 -444.015656 91.054131
   vertex 500.086151 -444.202942 91.981316
   vertex 500.183075 -444.597107 90.789253
  endloop
 endfacet
 facet normal 0.154653 0.977516 0.143338
  outer loop
   vertex 499.371918 -444.128784 92.246201
   vertex 500.086151 -444.202942 91.981316
   vertex 499.761719 -444.015656 91.054131
  endloop
 endfacet
 facet normal 0.154659 0.977514 0.143340
  outer loop
   vertex 499.761719 -444.015656 91.054131
   vertex 499.047516 -443.941498 91.319008
   vertex 499.371918 -444.128784 92.246201
  endloop
 endfacet
 facet normal -0.550510 0.759721 0.346068
  outer loop
   vertex 499.371918 -444.128784 92.246201
   vertex 499.047516 -443.941498 91.319008
   vertex 498.783173 -444.605377 92.355911
  endloop
 endfacet
 facet normal -0.550507 0.759722 0.346070
  outer loop
   vertex 498.783173 -444.605377 92.355911
   vertex 499.047516 -443.941498 91.319008
   vertex 498.458771 -444.418091 91.428726
  endloop
 endfacet
 facet normal -0.933195 0.096864 0.346071
  outer loop
   vertex 498.458771 -444.418091 91.428726
   vertex 498.664825 -445.353546 92.246193
   vertex 498.783173 -444.605377 92.355911
  endloop
 endfacet
 facet normal -0.933180 0.096895 0.346102
  outer loop
   vertex 498.340393 -445.166260 91.319008
   vertex 498.664825 -445.353546 92.246193
   vertex 498.458771 -444.418091 91.428726
  endloop
 endfacet
endsolid