solid stl file generated from DOUG
 facet normal -0.261821 0.453477 0.851944
  outer loop
   vertex 464.397095 -473.390686 94.233940
   vertex 464.455109 -473.491150 94.305244
   vertex 485.709839 -461.219543 94.305283
  endloop
 endfacet
 facet normal 0.187277 -0.324371 0.927206
  outer loop
   vertex 485.709839 -461.219543 94.305283
   vertex 464.455109 -473.491150 94.305244
   vertex 485.757477 -461.302063 94.266792
  endloop
 endfacet
 facet normal 0.484257 -0.838745 0.249001
  outer loop
   vertex 485.139771 -460.232147 94.647758
   vertex 485.122803 -460.202789 94.779648
   vertex 463.868073 -472.474396 94.779610
  endloop
 endfacet
 facet normal 0.187309 -0.324426 0.927180
  outer loop
   vertex 463.868073 -472.474396 94.779610
   vertex 485.122803 -460.202789 94.779648
   vertex 485.075165 -460.120270 94.818146
  endloop
 endfacet
 facet normal 0.187309 -0.324426 0.927180
  outer loop
   vertex 485.075165 -460.120270 94.818146
   vertex 463.820435 -472.391876 94.818108
   vertex 463.868073 -472.474396 94.779610
  endloop
 endfacet
 facet normal 0.008494 -0.014715 0.999856
  outer loop
   vertex 484.937927 -459.882538 94.138771
   vertex 463.683197 -472.154175 94.138733
   vertex 484.954742 -459.911713 94.138199
  endloop
 endfacet
 facet normal 0.008501 -0.014726 0.999855
  outer loop
   vertex 484.954742 -459.911713 94.138199
   vertex 463.683197 -472.154175 94.138733
   vertex 463.700012 -472.183319 94.138161
  endloop
 endfacet
 facet normal -0.463595 0.802956 0.374621
  outer loop
   vertex 463.700012 -472.183319 94.138161
   vertex 463.807770 -472.369904 94.671432
   vertex 484.954742 -459.911713 94.138199
  endloop
 endfacet
 facet normal -0.261778 0.453402 0.851997
  outer loop
   vertex 485.709839 -461.219543 94.305283
   vertex 485.651825 -461.119049 94.233978
   vertex 464.397095 -473.390686 94.233940
  endloop
 endfacet
 facet normal 0.187310 -0.324428 0.927179
  outer loop
   vertex 464.397095 -473.390686 94.233940
   vertex 485.651825 -461.119049 94.233978
   vertex 485.139771 -460.232147 94.647758
  endloop
 endfacet
 facet normal 0.187307 -0.324423 0.927182
  outer loop
   vertex 485.139771 -460.232147 94.647758
   vertex 463.885040 -472.503784 94.647713
   vertex 464.397095 -473.390686 94.233940
  endloop
 endfacet
 facet normal 0.484236 -0.838707 0.249169
  outer loop
   vertex 463.868073 -472.474396 94.779610
   vertex 463.885040 -472.503784 94.647713
   vertex 485.139771 -460.232147 94.647758
  endloop
 endfacet
 facet normal -0.463605 0.802975 0.374568
  outer loop
   vertex 463.820435 -472.391876 94.818108
   vertex 485.075165 -460.120270 94.818146
   vertex 463.795441 -472.348602 94.694405
  endloop
 endfacet
 facet normal -0.463605 0.802975 0.374568
  outer loop
   vertex 463.795441 -472.348602 94.694405
   vertex 485.075165 -460.120270 94.818146
   vertex 485.050171 -460.076996 94.694443
  endloop
 endfacet
 facet normal -0.341169 0.590916 -0.731042
  outer loop
   vertex 485.050171 -460.076996 94.694443
   vertex 463.807770 -472.369904 94.671432
   vertex 463.795441 -472.348602 94.694405
  endloop
 endfacet
 facet normal -0.341169 0.590916 -0.731042
  outer loop
   vertex 485.062500 -460.098297 94.671471
   vertex 463.807770 -472.369904 94.671432
   vertex 485.050171 -460.076996 94.694443
  endloop
 endfacet
 facet normal -0.463595 0.802956 0.374621
  outer loop
   vertex 484.954742 -459.911713 94.138199
   vertex 463.807770 -472.369904 94.671432
   vertex 485.062500 -460.098297 94.671471
  endloop
 endfacet
 facet normal 0.866028 0.499995 0.000005
  outer loop
   vertex 486.064240 -461.151276 94.277756
   vertex 485.208710 -459.669434 94.062576
   vertex 485.366150 -459.942139 94.841873
  endloop
 endfacet
 facet normal -0.463584 0.802953 0.374641
  outer loop
   vertex 485.366150 -459.942139 94.841873
   vertex 485.208710 -459.669434 94.062576
   vertex 484.500122 -460.442139 94.841873
  endloop
 endfacet
 facet normal 0.187309 -0.324430 0.927179
  outer loop
   vertex 484.500122 -460.442139 94.841873
   vertex 485.198242 -461.651276 94.277748
   vertex 485.366150 -459.942139 94.841873
  endloop
 endfacet
 facet normal -0.866017 -0.500015 0.000006
  outer loop
   vertex 484.342682 -460.169464 94.062576
   vertex 485.198242 -461.651276 94.277748
   vertex 484.500122 -460.442139 94.841873
  endloop
 endfacet
 facet normal -0.866017 -0.500015 0.000006
  outer loop
   vertex 485.040802 -461.378601 93.498459
   vertex 485.198242 -461.651276 94.277748
   vertex 484.342682 -460.169464 94.062576
  endloop
 endfacet
 facet normal -0.187316 0.324421 -0.927180
  outer loop
   vertex 484.342682 -460.169464 94.062576
   vertex 485.208710 -459.669434 94.062576
   vertex 485.040802 -461.378601 93.498459
  endloop
 endfacet
 facet normal -0.187304 0.324421 -0.927183
  outer loop
   vertex 485.040802 -461.378601 93.498459
   vertex 485.208710 -459.669434 94.062576
   vertex 485.906830 -460.878601 93.498459
  endloop
 endfacet
 facet normal 0.866027 0.499997 0.000020
  outer loop
   vertex 485.906830 -460.878601 93.498459
   vertex 485.208710 -459.669434 94.062576
   vertex 486.064240 -461.151276 94.277756
  endloop
 endfacet
 facet normal 0.463607 -0.802960 -0.374598
  outer loop
   vertex 486.064240 -461.151276 94.277756
   vertex 485.198242 -461.651276 94.277748
   vertex 485.906830 -460.878601 93.498459
  endloop
 endfacet
 facet normal 0.187308 -0.324430 0.927179
  outer loop
   vertex 485.366150 -459.942139 94.841873
   vertex 485.198242 -461.651276 94.277748
   vertex 486.064240 -461.151276 94.277756
  endloop
 endfacet
 facet normal 0.866029 0.499993 -0.000016
  outer loop
   vertex 464.386719 -472.054779 94.841835
   vertex 465.084808 -473.263947 94.277718
   vertex 464.229279 -471.782104 94.062538
  endloop
 endfacet
 facet normal 0.866027 0.499997 0.000020
  outer loop
   vertex 464.229279 -471.782104 94.062538
   vertex 465.084808 -473.263947 94.277718
   vertex 464.927399 -472.991272 93.498421
  endloop
 endfacet
 facet normal -0.187298 0.324425 -0.927183
  outer loop
   vertex 464.927399 -472.991272 93.498421
   vertex 464.061371 -473.491272 93.498413
   vertex 464.229279 -471.782104 94.062538
  endloop
 endfacet
 facet normal 0.463595 -0.802967 -0.374598
  outer loop
   vertex 465.084808 -473.263947 94.277718
   vertex 464.061371 -473.491272 93.498413
   vertex 464.927399 -472.991272 93.498421
  endloop
 endfacet
 facet normal 0.463604 -0.802954 -0.374614
  outer loop
   vertex 464.218811 -473.763947 94.277710
   vertex 464.061371 -473.491272 93.498413
   vertex 465.084808 -473.263947 94.277718
  endloop
 endfacet
 facet normal 0.187308 -0.324431 0.927179
  outer loop
   vertex 465.084808 -473.263947 94.277718
   vertex 463.520691 -472.554810 94.841835
   vertex 464.218811 -473.763947 94.277710
  endloop
 endfacet
 facet normal -0.866017 -0.500015 0.000006
  outer loop
   vertex 464.218811 -473.763947 94.277710
   vertex 463.520691 -472.554810 94.841835
   vertex 464.061371 -473.491272 93.498413
  endloop
 endfacet
 facet normal -0.866025 -0.500001 -0.000007
  outer loop
   vertex 464.061371 -473.491272 93.498413
   vertex 463.520691 -472.554810 94.841835
   vertex 463.363251 -472.282104 94.062538
  endloop
 endfacet
 facet normal -0.187306 0.324425 -0.927181
  outer loop
   vertex 463.363251 -472.282104 94.062538
   vertex 464.229279 -471.782104 94.062538
   vertex 464.061371 -473.491272 93.498413
  endloop
 endfacet
 facet normal -0.463584 0.802953 0.374641
  outer loop
   vertex 463.520691 -472.554810 94.841835
   vertex 464.229279 -471.782104 94.062538
   vertex 463.363251 -472.282104 94.062538
  endloop
 endfacet
 facet normal -0.463611 0.802951 0.374614
  outer loop
   vertex 464.386719 -472.054779 94.841835
   vertex 464.229279 -471.782104 94.062538
   vertex 463.520691 -472.554810 94.841835
  endloop
 endfacet
 facet normal 0.187314 -0.324419 0.927182
  outer loop
   vertex 463.520691 -472.554810 94.841835
   vertex 465.084808 -473.263947 94.277718
   vertex 464.386719 -472.054779 94.841835
  endloop
 endfacet
 facet normal 0.187277 -0.324371 0.927206
  outer loop
   vertex 464.455109 -473.491150 94.305244
   vertex 464.502747 -473.573669 94.266754
   vertex 485.757477 -461.302063 94.266792
  endloop
 endfacet
 facet normal 0.463605 -0.802975 -0.374568
  outer loop
   vertex 485.757477 -461.302063 94.266792
   vertex 464.502747 -473.573669 94.266754
   vertex 464.477753 -473.530396 94.143051
  endloop
 endfacet
 facet normal 0.463572 -0.802915 -0.374738
  outer loop
   vertex 464.477753 -473.530396 94.143051
   vertex 485.732483 -461.258759 94.143089
   vertex 485.757477 -461.302063 94.266792
  endloop
 endfacet
 facet normal -0.008494 0.014715 -0.999856
  outer loop
   vertex 464.460938 -473.501221 94.143623
   vertex 485.732483 -461.258759 94.143089
   vertex 464.477753 -473.530396 94.143051
  endloop
 endfacet
 facet normal -0.008501 0.014726 -0.999855
  outer loop
   vertex 485.715668 -461.229614 94.143661
   vertex 485.732483 -461.258759 94.143089
   vertex 464.460938 -473.501221 94.143623
  endloop
 endfacet
 facet normal 0.463599 -0.802964 -0.374599
  outer loop
   vertex 464.460938 -473.501221 94.143623
   vertex 464.353210 -473.314636 93.610352
   vertex 485.715668 -461.229614 94.143661
  endloop
 endfacet
 facet normal 0.463599 -0.802964 -0.374599
  outer loop
   vertex 485.715668 -461.229614 94.143661
   vertex 464.353210 -473.314636 93.610352
   vertex 485.607941 -461.043030 93.610390
  endloop
 endfacet
 facet normal 0.341282 -0.591112 0.730831
  outer loop
   vertex 485.607941 -461.043030 93.610390
   vertex 464.353210 -473.314636 93.610352
   vertex 464.365509 -473.335938 93.587379
  endloop
 endfacet
 facet normal 0.341222 -0.591007 0.730944
  outer loop
   vertex 464.365509 -473.335938 93.587379
   vertex 485.620239 -461.064331 93.587425
   vertex 485.607941 -461.043030 93.610390
  endloop
 endfacet
 facet normal 0.463660 -0.803070 -0.374297
  outer loop
   vertex 464.353119 -473.314484 93.526001
   vertex 485.620239 -461.064331 93.587425
   vertex 464.365509 -473.335938 93.587379
  endloop
 endfacet
 facet normal 0.463600 -0.802963 -0.374600
  outer loop
   vertex 485.607849 -461.042847 93.526039
   vertex 485.620239 -461.064331 93.587425
   vertex 464.353119 -473.314484 93.526001
  endloop
 endfacet
 facet normal -0.187308 0.324424 -0.927181
  outer loop
   vertex 464.353119 -473.314484 93.526001
   vertex 463.670807 -472.132690 94.077354
   vertex 485.607849 -461.042847 93.526039
  endloop
 endfacet
 facet normal -0.187311 0.324430 -0.927179
  outer loop
   vertex 485.607849 -461.042847 93.526039
   vertex 463.670807 -472.132690 94.077354
   vertex 484.925537 -459.861084 94.077393
  endloop
 endfacet
 facet normal -0.463660 0.803070 0.374297
  outer loop
   vertex 484.925537 -459.861084 94.077393
   vertex 463.670807 -472.132690 94.077354
   vertex 484.937927 -459.882538 94.138771
  endloop
 endfacet
 facet normal -0.463611 0.802951 0.374614
  outer loop
   vertex 484.342682 -460.169464 94.062576
   vertex 484.500122 -460.442139 94.841873
   vertex 485.208710 -459.669434 94.062576
  endloop
 endfacet
 facet normal 0.463589 -0.802962 -0.374617
  outer loop
   vertex 485.198242 -461.651276 94.277748
   vertex 485.040802 -461.378601 93.498459
   vertex 485.906830 -460.878601 93.498459
  endloop
 endfacet
 facet normal -0.463592 0.802949 0.374640
  outer loop
   vertex 463.670807 -472.132690 94.077354
   vertex 463.683197 -472.154175 94.138733
   vertex 484.937927 -459.882538 94.138771
  endloop
 endfacet
 facet normal -0.405162 -0.817036 0.410239
  outer loop
   vertex 463.754822 -472.455292 92.908424
   vertex 462.917999 -472.505859 91.981247
   vertex 463.900208 -472.560638 92.842201
  endloop
 endfacet
 facet normal -0.405162 -0.817036 0.410239
  outer loop
   vertex 463.900208 -472.560638 92.842201
   vertex 462.917999 -472.505859 91.981247
   vertex 463.499481 -472.927216 91.716354
  endloop
 endfacet
 facet normal 0.186355 -0.951809 0.243580
  outer loop
   vertex 463.499481 -472.927216 91.716354
   vertex 464.087250 -472.531036 92.814774
   vertex 463.900208 -472.560638 92.842201
  endloop
 endfacet
 facet normal 0.186329 -0.951810 0.243595
  outer loop
   vertex 464.247620 -472.808838 91.606636
   vertex 464.087250 -472.531036 92.814774
   vertex 463.499481 -472.927216 91.716354
  endloop
 endfacet
 facet normal 0.731163 -0.637234 0.243583
  outer loop
   vertex 464.206390 -472.383850 92.842201
   vertex 464.087250 -472.531036 92.814774
   vertex 464.247620 -472.808838 91.606636
  endloop
 endfacet
 facet normal 0.731140 -0.637258 0.243590
  outer loop
   vertex 464.247620 -472.808838 91.606636
   vertex 464.724213 -472.220093 91.716354
   vertex 464.206390 -472.383850 92.842201
  endloop
 endfacet
 facet normal 0.910157 -0.057589 0.410241
  outer loop
   vertex 464.206390 -472.383850 92.842201
   vertex 464.724213 -472.220093 91.716354
   vertex 464.187836 -472.205292 92.908432
  endloop
 endfacet
 facet normal 0.910153 -0.057649 0.410241
  outer loop
   vertex 464.187836 -472.205292 92.908432
   vertex 464.724213 -472.220093 91.716354
   vertex 464.650055 -471.505859 91.981247
  endloop
 endfacet
 facet normal 0.618537 0.447464 0.645901
  outer loop
   vertex 464.650055 -471.505859 91.981247
   vertex 464.042480 -472.099945 92.974648
   vertex 464.187836 -472.205292 92.908432
  endloop
 endfacet
 facet normal 0.618496 0.447513 0.645906
  outer loop
   vertex 464.068573 -471.084534 92.246140
   vertex 464.042480 -472.099945 92.974648
   vertex 464.650055 -471.505859 91.981247
  endloop
 endfacet
 facet normal 0.027032 0.582268 0.812547
  outer loop
   vertex 463.855438 -472.129547 93.002083
   vertex 464.042480 -472.099945 92.974648
   vertex 464.068573 -471.084534 92.246140
  endloop
 endfacet
 facet normal 0.027041 0.582267 0.812548
  outer loop
   vertex 464.068573 -471.084534 92.246140
   vertex 463.320435 -471.202911 92.355865
   vertex 463.855438 -472.129547 93.002083
  endloop
 endfacet
 facet normal -0.517808 0.267686 0.812539
  outer loop
   vertex 463.855438 -472.129547 93.002083
   vertex 463.320435 -471.202911 92.355865
   vertex 463.736298 -472.276733 92.974648
  endloop
 endfacet
 facet normal -0.517776 0.267706 0.812552
  outer loop
   vertex 463.736298 -472.276733 92.974648
   vertex 463.320435 -471.202911 92.355865
   vertex 462.843842 -471.791656 92.246140
  endloop
 endfacet
 facet normal -0.696782 -0.311852 0.645944
  outer loop
   vertex 462.843842 -471.791656 92.246140
   vertex 463.754822 -472.455292 92.908424
   vertex 463.736298 -472.276733 92.974648
  endloop
 endfacet
 facet normal -0.696794 -0.311910 0.645902
  outer loop
   vertex 462.917999 -472.505859 91.981247
   vertex 463.754822 -472.455292 92.908424
   vertex 462.843842 -471.791656 92.246140
  endloop
 endfacet
 facet normal -0.622760 -0.769173 -0.143329
  outer loop
   vertex 484.915314 -460.666321 93.826340
   vertex 484.727997 -460.341888 92.899162
   vertex 485.060669 -460.771667 93.760117
  endloop
 endfacet
 facet normal -0.622688 -0.769221 -0.143381
  outer loop
   vertex 485.060669 -460.771667 93.760117
   vertex 484.727997 -460.341888 92.899162
   vertex 484.873383 -460.447235 92.832939
  endloop
 endfacet
 facet normal 0.096934 -0.933173 -0.346111
  outer loop
   vertex 484.873383 -460.447235 92.832939
   vertex 485.247711 -460.742065 93.732689
   vertex 485.060669 -460.771667 93.760117
  endloop
 endfacet
 facet normal 0.096921 -0.933176 -0.346106
  outer loop
   vertex 485.060425 -460.417633 92.805504
   vertex 485.247711 -460.742065 93.732689
   vertex 484.873383 -460.447235 92.832939
  endloop
 endfacet
 facet normal 0.759736 -0.550481 -0.346082
  outer loop
   vertex 485.366852 -460.594879 93.760117
   vertex 485.247711 -460.742065 93.732689
   vertex 485.060425 -460.417633 92.805504
  endloop
 endfacet
 facet normal 0.759744 -0.550469 -0.346082
  outer loop
   vertex 485.060425 -460.417633 92.805504
   vertex 485.179565 -460.270447 92.832939
   vertex 485.366852 -460.594879 93.760117
  endloop
 endfacet
 facet normal 0.977523 0.154582 -0.143366
  outer loop
   vertex 485.366852 -460.594879 93.760117
   vertex 485.179565 -460.270447 92.832939
   vertex 485.348328 -460.416321 93.826340
  endloop
 endfacet
 facet normal 0.977502 0.154737 -0.143339
  outer loop
   vertex 485.348328 -460.416321 93.826340
   vertex 485.179565 -460.270447 92.832939
   vertex 485.161011 -460.091888 92.899162
  endloop
 endfacet
 facet normal 0.622760 0.769173 0.143329
  outer loop
   vertex 485.161011 -460.091888 92.899162
   vertex 485.202972 -460.310974 93.892563
   vertex 485.348328 -460.416321 93.826340
  endloop
 endfacet
 facet normal 0.622663 0.769248 0.143349
  outer loop
   vertex 485.015656 -459.986572 92.965385
   vertex 485.202972 -460.310974 93.892563
   vertex 485.161011 -460.091888 92.899162
  endloop
 endfacet
 facet normal -0.096939 0.933181 0.346087
  outer loop
   vertex 485.015930 -460.340576 93.919991
   vertex 485.202972 -460.310974 93.892563
   vertex 485.015656 -459.986572 92.965385
  endloop
 endfacet
 facet normal -0.096788 0.933195 0.346092
  outer loop
   vertex 485.015656 -459.986572 92.965385
   vertex 484.828613 -460.016144 92.992813
   vertex 485.015930 -460.340576 93.919991
  endloop
 endfacet
 facet normal -0.759656 0.550565 0.346123
  outer loop
   vertex 485.015930 -460.340576 93.919991
   vertex 484.828613 -460.016144 92.992813
   vertex 484.896759 -460.487762 93.892563
  endloop
 endfacet
 facet normal -0.759735 0.550480 0.346084
  outer loop
   vertex 484.896759 -460.487762 93.892563
   vertex 484.828613 -460.016144 92.992813
   vertex 484.709473 -460.163330 92.965385
  endloop
 endfacet
 facet normal -0.977508 -0.154728 0.143312
  outer loop
   vertex 484.709473 -460.163330 92.965385
   vertex 484.915314 -460.666321 93.826340
   vertex 484.896759 -460.487762 93.892563
  endloop
 endfacet
 facet normal -0.977517 -0.154592 0.143393
  outer loop
   vertex 484.727997 -460.341888 92.899162
   vertex 484.915314 -460.666321 93.826340
   vertex 484.709473 -460.163330 92.965385
  endloop
 endfacet
 facet normal -0.622690 -0.769228 -0.143336
  outer loop
   vertex 483.893066 -460.395721 91.981285
   vertex 483.705750 -460.071320 91.054100
   vertex 484.474518 -460.817047 91.716393
  endloop
 endfacet
 facet normal -0.622674 -0.769236 -0.143363
  outer loop
   vertex 484.474518 -460.817047 91.716393
   vertex 483.705750 -460.071320 91.054100
   vertex 484.287231 -460.492645 90.789215
  endloop
 endfacet
 facet normal 0.096900 -0.933188 -0.346078
  outer loop
   vertex 484.287231 -460.492645 90.789215
   vertex 485.222687 -460.698669 91.606674
   vertex 484.474518 -460.817047 91.716393
  endloop
 endfacet
 facet normal 0.096900 -0.933188 -0.346079
  outer loop
   vertex 485.035370 -460.374268 90.679489
   vertex 485.222687 -460.698669 91.606674
   vertex 484.287231 -460.492645 90.789215
  endloop
 endfacet
 facet normal 0.759704 -0.550516 -0.346095
  outer loop
   vertex 485.699280 -460.109955 91.716393
   vertex 485.222687 -460.698669 91.606674
   vertex 485.035370 -460.374268 90.679489
  endloop
 endfacet
 facet normal 0.759716 -0.550490 -0.346109
  outer loop
   vertex 485.035370 -460.374268 90.679489
   vertex 485.511963 -459.785522 90.789215
   vertex 485.699280 -460.109955 91.716393
  endloop
 endfacet
 facet normal 0.977506 0.154701 -0.143353
  outer loop
   vertex 485.699280 -460.109955 91.716393
   vertex 485.511963 -459.785522 90.789215
   vertex 485.625092 -459.395721 91.981285
  endloop
 endfacet
 facet normal 0.977515 0.154655 -0.143339
  outer loop
   vertex 485.625092 -459.395721 91.981285
   vertex 485.511963 -459.785522 90.789215
   vertex 485.437805 -459.071289 91.054108
  endloop
 endfacet
 facet normal 0.622698 0.769214 0.143376
  outer loop
   vertex 485.437805 -459.071289 91.054108
   vertex 485.043640 -458.974396 92.246178
   vertex 485.625092 -459.395721 91.981285
  endloop
 endfacet
 facet normal 0.622676 0.769234 0.143367
  outer loop
   vertex 484.856323 -458.649963 91.319000
   vertex 485.043640 -458.974396 92.246178
   vertex 485.437805 -459.071289 91.054108
  endloop
 endfacet
 facet normal -0.096894 0.933178 0.346108
  outer loop
   vertex 484.295502 -459.092773 92.355904
   vertex 485.043640 -458.974396 92.246178
   vertex 484.856323 -458.649963 91.319000
  endloop
 endfacet
 facet normal -0.096898 0.933178 0.346106
  outer loop
   vertex 484.856323 -458.649963 91.319000
   vertex 484.108185 -458.768341 91.428719
   vertex 484.295502 -459.092773 92.355904
  endloop
 endfacet
 facet normal -0.759717 0.550491 0.346107
  outer loop
   vertex 484.295502 -459.092773 92.355904
   vertex 484.108185 -458.768341 91.428719
   vertex 483.818909 -459.681519 92.246178
  endloop
 endfacet
 facet normal -0.759714 0.550493 0.346110
  outer loop
   vertex 483.818909 -459.681519 92.246178
   vertex 484.108185 -458.768341 91.428719
   vertex 483.631592 -459.357086 91.319000
  endloop
 endfacet
 facet normal -0.977509 -0.154670 0.143364
  outer loop
   vertex 483.631592 -459.357086 91.319000
   vertex 483.893066 -460.395721 91.981285
   vertex 483.818909 -459.681519 92.246178
  endloop
 endfacet
 facet normal -0.977509 -0.154667 0.143369
  outer loop
   vertex 483.705750 -460.071320 91.054100
   vertex 483.893066 -460.395721 91.981285
   vertex 483.631592 -459.357086 91.319000
  endloop
 endfacet
 facet normal -0.405120 -0.817075 0.410203
  outer loop
   vertex 484.729889 -460.345154 92.908463
   vertex 483.893066 -460.395721 91.981285
   vertex 484.875244 -460.450470 92.842239
  endloop
 endfacet
 facet normal -0.405147 -0.817045 0.410236
  outer loop
   vertex 484.875244 -460.450470 92.842239
   vertex 483.893066 -460.395721 91.981285
   vertex 484.474518 -460.817047 91.716393
  endloop
 endfacet
 facet normal 0.186211 -0.951823 0.243636
  outer loop
   vertex 484.474518 -460.817047 91.716393
   vertex 485.062286 -460.420898 92.814812
   vertex 484.875244 -460.450470 92.842239
  endloop
 endfacet
 facet normal 0.186320 -0.951817 0.243576
  outer loop
   vertex 485.222687 -460.698669 91.606674
   vertex 485.062286 -460.420898 92.814812
   vertex 484.474518 -460.817047 91.716393
  endloop
 endfacet
 facet normal 0.731156 -0.637242 0.243586
  outer loop
   vertex 485.181427 -460.273712 92.842247
   vertex 485.062286 -460.420898 92.814812
   vertex 485.222687 -460.698669 91.606674
  endloop
 endfacet
 facet normal 0.731121 -0.637277 0.243597
  outer loop
   vertex 485.222687 -460.698669 91.606674
   vertex 485.699280 -460.109955 91.716393
   vertex 485.181427 -460.273712 92.842247
  endloop
 endfacet
 facet normal 0.910149 -0.057727 0.410240
  outer loop
   vertex 485.181427 -460.273712 92.842247
   vertex 485.699280 -460.109955 91.716393
   vertex 485.162903 -460.095154 92.908470
  endloop
 endfacet
 facet normal 0.910156 -0.057610 0.410241
  outer loop
   vertex 485.162903 -460.095154 92.908470
   vertex 485.699280 -460.109955 91.716393
   vertex 485.625092 -459.395721 91.981285
  endloop
 endfacet
 facet normal 0.618488 0.447527 0.645904
  outer loop
   vertex 485.625092 -459.395721 91.981285
   vertex 485.017517 -459.989807 92.974693
   vertex 485.162903 -460.095154 92.908470
  endloop
 endfacet
 facet normal 0.618514 0.447495 0.645901
  outer loop
   vertex 485.043640 -458.974396 92.246178
   vertex 485.017517 -459.989807 92.974693
   vertex 485.625092 -459.395721 91.981285
  endloop
 endfacet
 facet normal 0.027002 0.582273 0.812545
  outer loop
   vertex 484.830505 -460.019409 93.002121
   vertex 485.017517 -459.989807 92.974693
   vertex 485.043640 -458.974396 92.246178
  endloop
 endfacet
 facet normal 0.027041 0.582267 0.812548
  outer loop
   vertex 485.043640 -458.974396 92.246178
   vertex 484.295502 -459.092773 92.355904
   vertex 484.830505 -460.019409 93.002121
  endloop
 endfacet
 facet normal -0.517745 0.267738 0.812562
  outer loop
   vertex 484.830505 -460.019409 93.002121
   vertex 484.295502 -459.092773 92.355904
   vertex 484.711334 -460.166595 92.974686
  endloop
 endfacet
 facet normal -0.517784 0.267714 0.812545
  outer loop
   vertex 484.711334 -460.166595 92.974686
   vertex 484.295502 -459.092773 92.355904
   vertex 483.818909 -459.681519 92.246178
  endloop
 endfacet
 facet normal -0.696802 -0.311948 0.645876
  outer loop
   vertex 483.818909 -459.681519 92.246178
   vertex 484.729889 -460.345154 92.908463
   vertex 484.711334 -460.166595 92.974686
  endloop
 endfacet
 facet normal -0.696794 -0.311910 0.645902
  outer loop
   vertex 483.893066 -460.395721 91.981285
   vertex 484.729889 -460.345154 92.908463
   vertex 483.818909 -459.681519 92.246178
  endloop
 endfacet
 facet normal -0.622688 -0.769221 -0.143381
  outer loop
   vertex 463.940247 -472.776459 93.826302
   vertex 463.752960 -472.452026 92.899124
   vertex 464.085632 -472.881805 93.760078
  endloop
 endfacet
 facet normal -0.622760 -0.769173 -0.143329
  outer loop
   vertex 464.085632 -472.881805 93.760078
   vertex 463.752960 -472.452026 92.899124
   vertex 463.898315 -472.557373 92.832901
  endloop
 endfacet
 facet normal 0.096934 -0.933172 -0.346113
  outer loop
   vertex 463.898315 -472.557373 92.832901
   vertex 464.272675 -472.852203 93.732651
   vertex 464.085632 -472.881805 93.760078
  endloop
 endfacet
 facet normal 0.096921 -0.933175 -0.346109
  outer loop
   vertex 464.085358 -472.527771 92.805466
   vertex 464.272675 -472.852203 93.732651
   vertex 463.898315 -472.557373 92.832901
  endloop
 endfacet
 facet normal 0.759731 -0.550473 -0.346103
  outer loop
   vertex 464.391815 -472.705017 93.760078
   vertex 464.272675 -472.852203 93.732651
   vertex 464.085358 -472.527771 92.805466
  endloop
 endfacet
 facet normal 0.759740 -0.550462 -0.346104
  outer loop
   vertex 464.085358 -472.527771 92.805466
   vertex 464.204498 -472.380585 92.832901
   vertex 464.391815 -472.705017 93.760078
  endloop
 endfacet
 facet normal 0.977502 0.154737 -0.143339
  outer loop
   vertex 464.391815 -472.705017 93.760078
   vertex 464.204498 -472.380585 92.832901
   vertex 464.373260 -472.526459 93.826302
  endloop
 endfacet
 facet normal 0.977523 0.154582 -0.143366
  outer loop
   vertex 464.373260 -472.526459 93.826302
   vertex 464.204498 -472.380585 92.832901
   vertex 464.185974 -472.202026 92.899124
  endloop
 endfacet
 facet normal 0.622671 0.769234 0.143389
  outer loop
   vertex 464.185974 -472.202026 92.899124
   vertex 464.227905 -472.421143 93.892525
   vertex 464.373260 -472.526459 93.826302
  endloop
 endfacet
 facet normal 0.622592 0.769295 0.143405
  outer loop
   vertex 464.040588 -472.096710 92.965347
   vertex 464.227905 -472.421143 93.892525
   vertex 464.185974 -472.202026 92.899124
  endloop
 endfacet
 facet normal -0.096788 0.933195 0.346092
  outer loop
   vertex 464.040863 -472.450714 93.919952
   vertex 464.227905 -472.421143 93.892525
   vertex 464.040588 -472.096710 92.965347
  endloop
 endfacet
 facet normal -0.096788 0.933195 0.346092
  outer loop
   vertex 464.040588 -472.096710 92.965347
   vertex 463.853546 -472.126282 92.992775
   vertex 464.040863 -472.450714 93.919952
  endloop
 endfacet
 facet normal -0.759731 0.550472 0.346106
  outer loop
   vertex 464.040863 -472.450714 93.919952
   vertex 463.853546 -472.126282 92.992775
   vertex 463.921722 -472.597900 93.892525
  endloop
 endfacet
 facet normal -0.759731 0.550472 0.346106
  outer loop
   vertex 463.921722 -472.597900 93.892525
   vertex 463.853546 -472.126282 92.992775
   vertex 463.734406 -472.273468 92.965347
  endloop
 endfacet
 facet normal -0.977517 -0.154592 0.143393
  outer loop
   vertex 463.734406 -472.273468 92.965347
   vertex 463.940247 -472.776459 93.826302
   vertex 463.921722 -472.597900 93.892525
  endloop
 endfacet
 facet normal -0.977508 -0.154728 0.143312
  outer loop
   vertex 463.752960 -472.452026 92.899124
   vertex 463.940247 -472.776459 93.826302
   vertex 463.734406 -472.273468 92.965347
  endloop
 endfacet
 facet normal -0.977509 -0.154670 0.143363
  outer loop
   vertex 462.843842 -471.791656 92.246140
   vertex 462.656525 -471.467224 91.318954
   vertex 462.917999 -472.505859 91.981247
  endloop
 endfacet
 facet normal -0.977511 -0.154692 0.143328
  outer loop
   vertex 462.917999 -472.505859 91.981247
   vertex 462.656525 -471.467224 91.318954
   vertex 462.730713 -472.181458 91.054062
  endloop
 endfacet
 facet normal -0.622698 -0.769219 -0.143351
  outer loop
   vertex 462.730713 -472.181458 91.054062
   vertex 463.499481 -472.927216 91.716354
   vertex 462.917999 -472.505859 91.981247
  endloop
 endfacet
 facet normal -0.622695 -0.769220 -0.143357
  outer loop
   vertex 463.312164 -472.602783 90.789169
   vertex 463.499481 -472.927216 91.716354
   vertex 462.730713 -472.181458 91.054062
  endloop
 endfacet
 facet normal 0.096898 -0.933178 -0.346106
  outer loop
   vertex 464.247620 -472.808838 91.606636
   vertex 463.499481 -472.927216 91.716354
   vertex 463.312164 -472.602783 90.789169
  endloop
 endfacet
 facet normal 0.096898 -0.933178 -0.346106
  outer loop
   vertex 463.312164 -472.602783 90.789169
   vertex 464.060303 -472.484406 90.679451
   vertex 464.247620 -472.808838 91.606636
  endloop
 endfacet
 facet normal 0.759715 -0.550494 -0.346107
  outer loop
   vertex 464.247620 -472.808838 91.606636
   vertex 464.060303 -472.484406 90.679451
   vertex 464.724213 -472.220093 91.716354
  endloop
 endfacet
 facet normal 0.759716 -0.550490 -0.346109
  outer loop
   vertex 464.724213 -472.220093 91.716354
   vertex 464.060303 -472.484406 90.679451
   vertex 464.536896 -471.895660 90.789177
  endloop
 endfacet
 facet normal 0.977510 0.154664 -0.143366
  outer loop
   vertex 464.536896 -471.895660 90.789177
   vertex 464.650055 -471.505859 91.981247
   vertex 464.724213 -472.220093 91.716354
  endloop
 endfacet
 facet normal 0.977510 0.154664 -0.143366
  outer loop
   vertex 464.462738 -471.181427 91.054070
   vertex 464.650055 -471.505859 91.981247
   vertex 464.536896 -471.895660 90.789177
  endloop
 endfacet
 facet normal 0.622676 0.769234 0.143367
  outer loop
   vertex 464.068573 -471.084534 92.246140
   vertex 464.650055 -471.505859 91.981247
   vertex 464.462738 -471.181427 91.054070
  endloop
 endfacet
 facet normal 0.622698 0.769214 0.143376
  outer loop
   vertex 464.462738 -471.181427 91.054070
   vertex 463.881287 -470.760101 91.318962
   vertex 464.068573 -471.084534 92.246140
  endloop
 endfacet
 facet normal -0.096895 0.933179 0.346105
  outer loop
   vertex 464.068573 -471.084534 92.246140
   vertex 463.881287 -470.760101 91.318962
   vertex 463.320435 -471.202911 92.355865
  endloop
 endfacet
 facet normal -0.096895 0.933179 0.346105
  outer loop
   vertex 463.320435 -471.202911 92.355865
   vertex 463.881287 -470.760101 91.318962
   vertex 463.133118 -470.878479 91.428680
  endloop
 endfacet
 facet normal -0.759717 0.550491 0.346107
  outer loop
   vertex 463.133118 -470.878479 91.428680
   vertex 462.843842 -471.791656 92.246140
   vertex 463.320435 -471.202911 92.355865
  endloop
 endfacet
 facet normal -0.759717 0.550491 0.346107
  outer loop
   vertex 462.656525 -471.467224 91.318954
   vertex 462.843842 -471.791656 92.246140
   vertex 463.133118 -470.878479 91.428680
  endloop
 endfacet
endsolid