solid stl file generated from DOUG
 facet normal -0.423110 0.550559 -0.719627
  outer loop
   vertex 350.392365 -95.051773 213.233017
   vertex 350.373657 -94.950172 213.321747
   vertex 358.657440 -91.485229 211.102127
  endloop
 endfacet
 facet normal -0.361826 0.927183 0.097021
  outer loop
   vertex 358.657440 -91.485229 211.102127
   vertex 350.373657 -94.950172 213.321747
   vertex 358.684052 -91.485229 211.201370
  endloop
 endfacet
 facet normal -0.006615 0.550562 0.834768
  outer loop
   vertex 358.390289 -91.586830 209.946487
   vertex 358.329712 -91.485229 209.878998
   vertex 350.045929 -94.950172 212.098618
  endloop
 endfacet
 facet normal -0.361857 0.927183 0.096903
  outer loop
   vertex 350.045929 -94.950172 212.098618
   vertex 358.329712 -91.485229 209.878998
   vertex 358.303131 -91.485229 209.779739
  endloop
 endfacet
 facet normal -0.361825 0.927184 0.097021
  outer loop
   vertex 358.303131 -91.485229 209.779739
   vertex 350.019318 -94.950172 211.999374
   vertex 350.045929 -94.950172 212.098618
  endloop
 endfacet
 facet normal -0.430604 0.865473 -0.256000
  outer loop
   vertex 358.568268 -92.164597 209.708694
   vertex 350.284454 -95.629539 211.928329
   vertex 358.572021 -92.153404 209.740219
  endloop
 endfacet
 facet normal -0.430604 0.865473 -0.256000
  outer loop
   vertex 358.572021 -92.153404 209.740219
   vertex 350.284454 -95.629539 211.928329
   vertex 350.288208 -95.618347 211.959854
  endloop
 endfacet
 facet normal -0.258816 -0.000007 -0.965927
  outer loop
   vertex 350.288208 -95.618347 211.959854
   vertex 350.080109 -95.085068 212.015610
   vertex 358.572021 -92.153404 209.740219
  endloop
 endfacet
 facet normal -0.423108 0.550548 -0.719636
  outer loop
   vertex 358.657440 -91.485229 211.102127
   vertex 358.676178 -91.586830 211.013382
   vertex 350.392365 -95.051773 213.233017
  endloop
 endfacet
 facet normal -0.361841 0.927184 0.096960
  outer loop
   vertex 350.392365 -95.051773 213.233017
   vertex 358.676178 -91.586830 211.013382
   vertex 358.390289 -91.586830 209.946487
  endloop
 endfacet
 facet normal -0.361845 0.927183 0.096950
  outer loop
   vertex 358.390289 -91.586830 209.946487
   vertex 350.106506 -95.051773 212.166107
   vertex 350.392365 -95.051773 213.233017
  endloop
 endfacet
 facet normal -0.006615 0.550562 0.834768
  outer loop
   vertex 350.045929 -94.950172 212.098618
   vertex 350.106506 -95.051773 212.166107
   vertex 358.390289 -91.586830 209.946487
  endloop
 endfacet
 facet normal -0.258827 0.000022 -0.965924
  outer loop
   vertex 350.019318 -94.950172 211.999374
   vertex 358.303131 -91.485229 209.779739
   vertex 350.067596 -95.073875 211.986435
  endloop
 endfacet
 facet normal -0.258827 0.000022 -0.965924
  outer loop
   vertex 350.067596 -95.073875 211.986435
   vertex 358.303131 -91.485229 209.779739
   vertex 358.351410 -91.608932 209.766800
  endloop
 endfacet
 facet normal 0.244897 -0.865458 -0.437045
  outer loop
   vertex 358.351410 -91.608932 209.766800
   vertex 350.080109 -95.085068 212.015610
   vertex 350.067596 -95.073875 211.986435
  endloop
 endfacet
 facet normal 0.245055 -0.865597 -0.436681
  outer loop
   vertex 358.363892 -91.620125 209.795990
   vertex 350.080109 -95.085068 212.015610
   vertex 358.351410 -91.608932 209.766800
  endloop
 endfacet
 facet normal -0.258819 0.000005 -0.965926
  outer loop
   vertex 358.572021 -92.153404 209.740219
   vertex 350.080109 -95.085068 212.015610
   vertex 358.363892 -91.620125 209.795990
  endloop
 endfacet
 facet normal 0.895589 0.374615 -0.239965
  outer loop
   vertex 359.163818 -91.266220 211.090469
   vertex 359.078217 -92.045517 209.554413
   vertex 358.774078 -91.266212 209.635910
  endloop
 endfacet
 facet normal -0.258820 0.000004 -0.965925
  outer loop
   vertex 358.774078 -91.266212 209.635910
   vertex 359.078217 -92.045517 209.554413
   vertex 357.878479 -91.640823 209.875885
  endloop
 endfacet
 facet normal -0.361843 0.927184 0.096954
  outer loop
   vertex 357.878479 -91.640823 209.875885
   vertex 358.268219 -91.640823 211.330444
   vertex 358.774078 -91.266212 209.635910
  endloop
 endfacet
 facet normal -0.895587 -0.374618 0.239967
  outer loop
   vertex 358.182617 -92.420120 209.794388
   vertex 358.268219 -91.640823 211.330444
   vertex 357.878479 -91.640823 209.875885
  endloop
 endfacet
 facet normal -0.895587 -0.374618 0.239967
  outer loop
   vertex 358.572357 -92.420120 211.248947
   vertex 358.268219 -91.640823 211.330444
   vertex 358.182617 -92.420120 209.794388
  endloop
 endfacet
 facet normal 0.361837 -0.927186 -0.096952
  outer loop
   vertex 358.182617 -92.420120 209.794388
   vertex 359.078217 -92.045517 209.554413
   vertex 358.572357 -92.420120 211.248947
  endloop
 endfacet
 facet normal 0.361837 -0.927186 -0.096952
  outer loop
   vertex 358.572357 -92.420120 211.248947
   vertex 359.078217 -92.045517 209.554413
   vertex 359.467957 -92.045517 211.008972
  endloop
 endfacet
 facet normal 0.895587 0.374618 -0.239967
  outer loop
   vertex 359.467957 -92.045517 211.008972
   vertex 359.078217 -92.045517 209.554413
   vertex 359.163818 -91.266220 211.090469
  endloop
 endfacet
 facet normal 0.258820 -0.000004 0.965925
  outer loop
   vertex 359.163818 -91.266220 211.090469
   vertex 358.268219 -91.640823 211.330444
   vertex 359.467957 -92.045517 211.008972
  endloop
 endfacet
 facet normal -0.361836 0.927186 0.096956
  outer loop
   vertex 358.774078 -91.266212 209.635910
   vertex 358.268219 -91.640823 211.330444
   vertex 359.163818 -91.266220 211.090469
  endloop
 endfacet
 facet normal 0.895589 0.374614 -0.239967
  outer loop
   vertex 350.421600 -94.759880 211.873932
   vertex 350.811340 -94.759880 213.328491
   vertex 350.725739 -95.539177 211.792450
  endloop
 endfacet
 facet normal 0.895589 0.374615 -0.239968
  outer loop
   vertex 350.725739 -95.539177 211.792450
   vertex 350.811340 -94.759880 213.328491
   vertex 351.115479 -95.539185 213.246994
  endloop
 endfacet
 facet normal 0.361836 -0.927186 -0.096957
  outer loop
   vertex 351.115479 -95.539185 213.246994
   vertex 350.219879 -95.913788 213.486969
   vertex 350.725739 -95.539177 211.792450
  endloop
 endfacet
 facet normal 0.258820 -0.000004 0.965925
  outer loop
   vertex 350.811340 -94.759880 213.328491
   vertex 350.219879 -95.913788 213.486969
   vertex 351.115479 -95.539185 213.246994
  endloop
 endfacet
 facet normal 0.258820 -0.000004 0.965925
  outer loop
   vertex 349.915741 -95.134491 213.568466
   vertex 350.219879 -95.913788 213.486969
   vertex 350.811340 -94.759880 213.328491
  endloop
 endfacet
 facet normal -0.361843 0.927184 0.096954
  outer loop
   vertex 350.811340 -94.759880 213.328491
   vertex 349.526001 -95.134491 212.113907
   vertex 349.915741 -95.134491 213.568466
  endloop
 endfacet
 facet normal -0.895587 -0.374618 0.239967
  outer loop
   vertex 349.915741 -95.134491 213.568466
   vertex 349.526001 -95.134491 212.113907
   vertex 350.219879 -95.913788 213.486969
  endloop
 endfacet
 facet normal -0.895587 -0.374618 0.239967
  outer loop
   vertex 350.219879 -95.913788 213.486969
   vertex 349.526001 -95.134491 212.113907
   vertex 349.830139 -95.913788 212.032410
  endloop
 endfacet
 facet normal 0.361845 -0.927183 -0.096954
  outer loop
   vertex 349.830139 -95.913788 212.032410
   vertex 350.725739 -95.539177 211.792450
   vertex 350.219879 -95.913788 213.486969
  endloop
 endfacet
 facet normal -0.258807 0.000009 -0.965929
  outer loop
   vertex 349.526001 -95.134491 212.113907
   vertex 350.725739 -95.539177 211.792450
   vertex 349.830139 -95.913788 212.032410
  endloop
 endfacet
 facet normal -0.258814 -0.000012 -0.965927
  outer loop
   vertex 350.421600 -94.759880 211.873932
   vertex 350.725739 -95.539177 211.792450
   vertex 349.526001 -95.134491 212.113907
  endloop
 endfacet
 facet normal -0.361843 0.927184 0.096954
  outer loop
   vertex 349.526001 -95.134491 212.113907
   vertex 350.811340 -94.759880 213.328491
   vertex 350.421600 -94.759880 211.873932
  endloop
 endfacet
 facet normal -0.361856 0.927184 0.096903
  outer loop
   vertex 350.373657 -94.950172 213.321747
   vertex 350.400238 -94.950172 213.421005
   vertex 358.684052 -91.485229 211.201370
  endloop
 endfacet
 facet normal 0.258827 -0.000022 0.965924
  outer loop
   vertex 358.684052 -91.485229 211.201370
   vertex 350.400238 -94.950172 213.421005
   vertex 350.448517 -95.073875 213.408066
  endloop
 endfacet
 facet normal 0.258785 0.000080 0.965935
  outer loop
   vertex 350.448517 -95.073875 213.408066
   vertex 358.732330 -91.608932 211.188446
   vertex 358.684052 -91.485229 211.201370
  endloop
 endfacet
 facet normal 0.430604 -0.865474 0.256000
  outer loop
   vertex 350.444763 -95.085068 213.376541
   vertex 358.732330 -91.608932 211.188446
   vertex 350.448517 -95.073875 213.408066
  endloop
 endfacet
 facet normal 0.430604 -0.865474 0.256000
  outer loop
   vertex 358.728577 -91.620125 211.156921
   vertex 358.732330 -91.608932 211.188446
   vertex 350.444763 -95.085068 213.376541
  endloop
 endfacet
 facet normal 0.258814 0.000006 0.965927
  outer loop
   vertex 350.444763 -95.085068 213.376541
   vertex 350.652863 -95.618347 213.320786
   vertex 358.728577 -91.620125 211.156921
  endloop
 endfacet
 facet normal 0.258825 -0.000017 0.965924
  outer loop
   vertex 358.728577 -91.620125 211.156921
   vertex 350.652863 -95.618347 213.320786
   vertex 358.936676 -92.153404 211.101151
  endloop
 endfacet
 facet normal -0.244897 0.865458 0.437045
  outer loop
   vertex 358.936676 -92.153404 211.101151
   vertex 350.652863 -95.618347 213.320786
   vertex 350.665375 -95.629539 213.349960
  endloop
 endfacet
 facet normal -0.244971 0.865524 0.436873
  outer loop
   vertex 350.665375 -95.629539 213.349960
   vertex 358.949188 -92.164597 211.130341
   vertex 358.936676 -92.153404 211.101151
  endloop
 endfacet
 facet normal 0.258843 -0.000067 0.965919
  outer loop
   vertex 350.689331 -95.690918 213.343536
   vertex 358.949188 -92.164597 211.130341
   vertex 350.665375 -95.629539 213.349960
  endloop
 endfacet
 facet normal 0.258843 -0.000067 0.965919
  outer loop
   vertex 358.973145 -92.225975 211.123917
   vertex 358.949188 -92.164597 211.130341
   vertex 350.689331 -95.690918 213.343536
  endloop
 endfacet
 facet normal 0.361843 -0.927184 -0.096954
  outer loop
   vertex 350.689331 -95.690918 213.343536
   vertex 350.308411 -95.690918 211.921906
   vertex 358.973145 -92.225975 211.123917
  endloop
 endfacet
 facet normal 0.361843 -0.927184 -0.096954
  outer loop
   vertex 358.973145 -92.225975 211.123917
   vertex 350.308411 -95.690918 211.921906
   vertex 358.592224 -92.225975 209.702286
  endloop
 endfacet
 facet normal -0.258762 -0.000140 -0.965941
  outer loop
   vertex 358.592224 -92.225975 209.702286
   vertex 350.308411 -95.690918 211.921906
   vertex 358.568268 -92.164597 209.708694
  endloop
 endfacet
 facet normal -0.258820 0.000004 -0.965925
  outer loop
   vertex 358.182617 -92.420120 209.794388
   vertex 357.878479 -91.640823 209.875885
   vertex 359.078217 -92.045517 209.554413
  endloop
 endfacet
 facet normal 0.258820 -0.000004 0.965925
  outer loop
   vertex 358.268219 -91.640823 211.330444
   vertex 358.572357 -92.420120 211.248947
   vertex 359.467957 -92.045517 211.008972
  endloop
 endfacet
 facet normal -0.258844 0.000066 -0.965919
  outer loop
   vertex 350.308411 -95.690918 211.921906
   vertex 350.284454 -95.629539 211.928329
   vertex 358.568268 -92.164597 209.708694
  endloop
 endfacet
 facet normal -0.728378 -0.346098 0.591338
  outer loop
   vertex 350.268738 -97.904785 212.694382
   vertex 350.630585 -98.831963 212.597427
   vertex 350.714050 -97.795059 213.307114
  endloop
 endfacet
 facet normal -0.728381 -0.346096 0.591336
  outer loop
   vertex 350.714050 -97.795059 213.307114
   vertex 350.630585 -98.831963 212.597427
   vertex 351.075897 -98.722244 213.210159
  endloop
 endfacet
 facet normal -0.103618 -0.143358 0.984232
  outer loop
   vertex 351.075897 -98.722244 213.210159
   vertex 351.423157 -97.530174 213.420349
   vertex 350.714050 -97.795059 213.307114
  endloop
 endfacet
 facet normal -0.103623 -0.143357 0.984231
  outer loop
   vertex 351.784973 -98.457359 213.323395
   vertex 351.423157 -97.530174 213.420349
   vertex 351.075897 -98.722244 213.210159
  endloop
 endfacet
 facet normal 0.581860 0.143347 0.800556
  outer loop
   vertex 351.980621 -97.265289 212.967743
   vertex 351.423157 -97.530174 213.420349
   vertex 351.784973 -98.457359 213.323395
  endloop
 endfacet
 facet normal 0.581837 0.143355 0.800572
  outer loop
   vertex 351.784973 -98.457359 213.323395
   vertex 352.342468 -98.192474 212.870789
   vertex 351.980621 -97.265289 212.967743
  endloop
 endfacet
 facet normal 0.926464 0.346098 0.147920
  outer loop
   vertex 351.980621 -97.265289 212.967743
   vertex 352.342468 -98.192474 212.870789
   vertex 352.059906 -97.155571 212.214447
  endloop
 endfacet
 facet normal 0.926463 0.346100 0.147924
  outer loop
   vertex 352.059906 -97.155571 212.214447
   vertex 352.342468 -98.192474 212.870789
   vertex 352.421753 -98.082748 212.117493
  endloop
 endfacet
 facet normal 0.728380 0.346099 -0.591336
  outer loop
   vertex 352.421753 -98.082748 212.117493
   vertex 351.614594 -97.265289 211.601715
   vertex 352.059906 -97.155571 212.214447
  endloop
 endfacet
 facet normal 0.728379 0.346096 -0.591339
  outer loop
   vertex 351.976440 -98.192474 211.504761
   vertex 351.614594 -97.265289 211.601715
   vertex 352.421753 -98.082748 212.117493
  endloop
 endfacet
 facet normal 0.103604 0.143353 -0.984234
  outer loop
   vertex 350.905518 -97.530174 211.488495
   vertex 351.614594 -97.265289 211.601715
   vertex 351.976440 -98.192474 211.504761
  endloop
 endfacet
 facet normal 0.103604 0.143353 -0.984234
  outer loop
   vertex 351.976440 -98.192474 211.504761
   vertex 351.267365 -98.457359 211.391541
   vertex 350.905518 -97.530174 211.488495
  endloop
 endfacet
 facet normal -0.581825 -0.143350 -0.800581
  outer loop
   vertex 350.905518 -97.530174 211.488495
   vertex 351.267365 -98.457359 211.391541
   vertex 350.348022 -97.795059 211.941086
  endloop
 endfacet
 facet normal -0.581825 -0.143350 -0.800581
  outer loop
   vertex 350.348022 -97.795059 211.941086
   vertex 351.267365 -98.457359 211.391541
   vertex 350.709869 -98.722244 211.844131
  endloop
 endfacet
 facet normal -0.926464 -0.346097 -0.147924
  outer loop
   vertex 350.709869 -98.722244 211.844131
   vertex 350.268738 -97.904785 212.694382
   vertex 350.348022 -97.795059 211.941086
  endloop
 endfacet
 facet normal -0.926463 -0.346100 -0.147920
  outer loop
   vertex 350.630585 -98.831963 212.597427
   vertex 350.268738 -97.904785 212.694382
   vertex 350.709869 -98.722244 211.844131
  endloop
 endfacet
 facet normal 0.728382 0.346076 -0.591346
  outer loop
   vertex 359.292450 -93.043503 210.093491
   vertex 359.041962 -92.088890 210.343628
   vertex 359.403778 -93.016068 210.246674
  endloop
 endfacet
 facet normal 0.926466 0.346064 0.147987
  outer loop
   vertex 359.403778 -93.016068 210.246674
   vertex 359.041962 -92.088890 210.343628
   vertex 359.022125 -92.116318 210.531952
  endloop
 endfacet
 facet normal 0.926471 0.346107 0.147858
  outer loop
   vertex 359.022125 -92.116318 210.531952
   vertex 359.383972 -93.043503 210.434998
   vertex 359.403778 -93.016068 210.246674
  endloop
 endfacet
 facet normal 0.581812 0.143344 0.800592
  outer loop
   vertex 358.882751 -92.182541 210.645096
   vertex 359.383972 -93.043503 210.434998
   vertex 359.022125 -92.116318 210.531952
  endloop
 endfacet
 facet normal 0.581812 0.143344 0.800592
  outer loop
   vertex 359.244598 -93.109726 210.548141
   vertex 359.383972 -93.043503 210.434998
   vertex 358.882751 -92.182541 210.645096
  endloop
 endfacet
 facet normal -0.103599 -0.143351 0.984235
  outer loop
   vertex 358.882751 -92.182541 210.645096
   vertex 358.705475 -92.248764 210.616791
   vertex 359.244598 -93.109726 210.548141
  endloop
 endfacet
 facet normal -0.103604 -0.143354 0.984234
  outer loop
   vertex 359.244598 -93.109726 210.548141
   vertex 358.705475 -92.248764 210.616791
   vertex 359.067322 -93.175941 210.519836
  endloop
 endfacet
 facet normal -0.728382 -0.346099 0.591333
  outer loop
   vertex 359.067322 -93.175941 210.519836
   vertex 358.705475 -92.248764 210.616791
   vertex 358.594147 -92.276192 210.463608
  endloop
 endfacet
 facet normal -0.728375 -0.346095 0.591344
  outer loop
   vertex 358.594147 -92.276192 210.463608
   vertex 358.955994 -93.203377 210.366653
   vertex 359.067322 -93.175941 210.519836
  endloop
 endfacet
 facet normal -0.926457 -0.346088 -0.147990
  outer loop
   vertex 358.613983 -92.248764 210.275284
   vertex 358.955994 -93.203377 210.366653
   vertex 358.594147 -92.276192 210.463608
  endloop
 endfacet
 facet normal -0.926455 -0.346088 -0.148003
  outer loop
   vertex 358.975830 -93.175941 210.178329
   vertex 358.955994 -93.203377 210.366653
   vertex 358.613983 -92.248764 210.275284
  endloop
 endfacet
 facet normal -0.581812 -0.143345 -0.800592
  outer loop
   vertex 358.613983 -92.248764 210.275284
   vertex 358.753357 -92.182541 210.162140
   vertex 358.975830 -93.175941 210.178329
  endloop
 endfacet
 facet normal -0.581891 -0.143361 -0.800532
  outer loop
   vertex 358.975830 -93.175941 210.178329
   vertex 358.753357 -92.182541 210.162140
   vertex 359.115173 -93.109726 210.065186
  endloop
 endfacet
 facet normal 0.103615 0.143354 -0.984232
  outer loop
   vertex 359.115173 -93.109726 210.065186
   vertex 358.753357 -92.182541 210.162140
   vertex 358.930603 -92.116318 210.190445
  endloop
 endfacet
 facet normal 0.103599 0.143351 -0.984235
  outer loop
   vertex 358.930603 -92.116318 210.190445
   vertex 359.292450 -93.043503 210.093491
   vertex 359.115173 -93.109726 210.065186
  endloop
 endfacet
 facet normal 0.728316 0.346080 -0.591426
  outer loop
   vertex 359.041962 -92.088890 210.343628
   vertex 359.292450 -93.043503 210.093491
   vertex 358.930603 -92.116318 210.190445
  endloop
 endfacet
 facet normal 0.728371 0.346103 -0.591344
  outer loop
   vertex 360.350220 -94.689896 209.261032
   vertex 360.433685 -93.652992 209.970718
   vertex 360.795532 -94.580177 209.873749
  endloop
 endfacet
 facet normal 0.926465 0.346096 0.147920
  outer loop
   vertex 360.795532 -94.580177 209.873749
   vertex 360.433685 -93.652992 209.970718
   vertex 360.354401 -93.762711 210.724014
  endloop
 endfacet
 facet normal 0.926465 0.346098 0.147917
  outer loop
   vertex 360.354401 -93.762711 210.724014
   vertex 360.716248 -94.689896 210.627060
   vertex 360.795532 -94.580177 209.873749
  endloop
 endfacet
 facet normal 0.581841 0.143357 0.800568
  outer loop
   vertex 359.796936 -94.027603 211.176605
   vertex 360.716248 -94.689896 210.627060
   vertex 360.354401 -93.762711 210.724014
  endloop
 endfacet
 facet normal 0.581831 0.143334 0.800580
  outer loop
   vertex 360.158752 -94.954781 211.079651
   vertex 360.716248 -94.689896 210.627060
   vertex 359.796936 -94.027603 211.176605
  endloop
 endfacet
 facet normal -0.103601 -0.143349 0.984235
  outer loop
   vertex 359.796936 -94.027603 211.176605
   vertex 359.087830 -94.292488 211.063385
   vertex 360.158752 -94.954781 211.079651
  endloop
 endfacet
 facet normal -0.103603 -0.143352 0.984234
  outer loop
   vertex 360.158752 -94.954781 211.079651
   vertex 359.087830 -94.292488 211.063385
   vertex 359.449677 -95.219673 210.966431
  endloop
 endfacet
 facet normal -0.728381 -0.346096 0.591336
  outer loop
   vertex 359.449677 -95.219673 210.966431
   vertex 359.087830 -94.292488 211.063385
   vertex 358.642517 -94.402206 210.450653
  endloop
 endfacet
 facet normal -0.728381 -0.346096 0.591336
  outer loop
   vertex 358.642517 -94.402206 210.450653
   vertex 359.004364 -95.329391 210.353699
   vertex 359.449677 -95.219673 210.966431
  endloop
 endfacet
 facet normal -0.926464 -0.346098 -0.147920
  outer loop
   vertex 358.721802 -94.292488 209.697357
   vertex 359.004364 -95.329391 210.353699
   vertex 358.642517 -94.402206 210.450653
  endloop
 endfacet
 facet normal -0.926464 -0.346098 -0.147920
  outer loop
   vertex 359.083649 -95.219673 209.600403
   vertex 359.004364 -95.329391 210.353699
   vertex 358.721802 -94.292488 209.697357
  endloop
 endfacet
 facet normal -0.581836 -0.143355 -0.800573
  outer loop
   vertex 358.721802 -94.292488 209.697357
   vertex 359.279297 -94.027596 209.244751
   vertex 359.083649 -95.219673 209.600403
  endloop
 endfacet
 facet normal -0.581859 -0.143346 -0.800557
  outer loop
   vertex 359.083649 -95.219673 209.600403
   vertex 359.279297 -94.027596 209.244751
   vertex 359.641113 -94.954781 209.147797
  endloop
 endfacet
 facet normal 0.103623 0.143357 -0.984231
  outer loop
   vertex 359.641113 -94.954781 209.147797
   vertex 359.279297 -94.027596 209.244751
   vertex 359.988373 -93.762711 209.357986
  endloop
 endfacet
 facet normal 0.103618 0.143358 -0.984232
  outer loop
   vertex 359.988373 -93.762711 209.357986
   vertex 360.350220 -94.689896 209.261032
   vertex 359.641113 -94.954781 209.147797
  endloop
 endfacet
 facet normal 0.728381 0.346096 -0.591336
  outer loop
   vertex 360.433685 -93.652992 209.970718
   vertex 360.350220 -94.689896 209.261032
   vertex 359.988373 -93.762711 209.357986
  endloop
 endfacet
 facet normal 0.392611 0.812550 -0.430835
  outer loop
   vertex 359.988373 -93.762711 209.357986
   vertex 359.400146 -93.006767 210.247650
   vertex 360.433685 -93.652992 209.970718
  endloop
 endfacet
 facet normal 0.555422 0.812566 0.176756
  outer loop
   vertex 360.433685 -93.652992 209.970718
   vertex 359.400146 -93.006767 210.247650
   vertex 359.380341 -93.034195 210.435974
  endloop
 endfacet
 facet normal 0.555433 0.812547 0.176808
  outer loop
   vertex 359.380341 -93.034195 210.435974
   vertex 360.354401 -93.762711 210.724014
   vertex 360.433685 -93.652992 209.970718
  endloop
 endfacet
 facet normal 0.272147 0.645889 0.713277
  outer loop
   vertex 359.240967 -93.100418 210.549118
   vertex 360.354401 -93.762711 210.724014
   vertex 359.380341 -93.034195 210.435974
  endloop
 endfacet
 facet normal 0.272159 0.645904 0.713258
  outer loop
   vertex 359.796936 -94.027603 211.176605
   vertex 360.354401 -93.762711 210.724014
   vertex 359.240967 -93.100418 210.549118
  endloop
 endfacet
 facet normal -0.291237 0.410242 0.864224
  outer loop
   vertex 359.240967 -93.100418 210.549118
   vertex 359.063690 -93.166641 210.520813
   vertex 359.796936 -94.027603 211.176605
  endloop
 endfacet
 facet normal -0.291233 0.410245 0.864223
  outer loop
   vertex 359.796936 -94.027603 211.176605
   vertex 359.063690 -93.166641 210.520813
   vertex 359.087830 -94.292488 211.063385
  endloop
 endfacet
 facet normal -0.804787 0.243598 0.541275
  outer loop
   vertex 359.087830 -94.292488 211.063385
   vertex 359.063690 -93.166641 210.520813
   vertex 358.952362 -93.194069 210.367630
  endloop
 endfacet
 facet normal -0.804788 0.243596 0.541273
  outer loop
   vertex 358.952362 -93.194069 210.367630
   vertex 358.642517 -94.402206 210.450653
   vertex 359.087830 -94.292488 211.063385
  endloop
 endfacet
 facet normal -0.967600 0.243590 -0.066442
  outer loop
   vertex 358.972198 -93.166641 210.179306
   vertex 358.642517 -94.402206 210.450653
   vertex 358.952362 -93.194069 210.367630
  endloop
 endfacet
 facet normal -0.967601 0.243608 -0.066359
  outer loop
   vertex 358.721802 -94.292488 209.697357
   vertex 358.642517 -94.402206 210.450653
   vertex 358.972198 -93.166641 210.179306
  endloop
 endfacet
 facet normal -0.684391 0.410239 -0.602754
  outer loop
   vertex 358.972198 -93.166641 210.179306
   vertex 359.111542 -93.100418 210.066162
   vertex 358.721802 -94.292488 209.697357
  endloop
 endfacet
 facet normal -0.684330 0.410240 -0.602823
  outer loop
   vertex 358.721802 -94.292488 209.697357
   vertex 359.111542 -93.100418 210.066162
   vertex 359.279297 -94.027596 209.244751
  endloop
 endfacet
 facet normal -0.120932 0.645909 -0.753775
  outer loop
   vertex 359.279297 -94.027596 209.244751
   vertex 359.111542 -93.100418 210.066162
   vertex 359.288818 -93.034195 210.094467
  endloop
 endfacet
 facet normal -0.120915 0.645910 -0.753777
  outer loop
   vertex 359.288818 -93.034195 210.094467
   vertex 359.988373 -93.762711 209.357986
   vertex 359.279297 -94.027596 209.244751
  endloop
 endfacet
 facet normal 0.392618 0.812550 -0.430830
  outer loop
   vertex 359.400146 -93.006767 210.247650
   vertex 359.988373 -93.762711 209.357986
   vertex 359.288818 -93.034195 210.094467
  endloop
 endfacet
 facet normal -0.728374 -0.346097 0.591344
  outer loop
   vertex 350.220367 -95.778770 212.707352
   vertex 350.582214 -96.705948 212.610397
   vertex 350.331696 -95.751335 212.860535
  endloop
 endfacet
 facet normal -0.728383 -0.346097 0.591333
  outer loop
   vertex 350.331696 -95.751335 212.860535
   vertex 350.582214 -96.705948 212.610397
   vertex 350.693542 -96.678520 212.763580
  endloop
 endfacet
 facet normal -0.103599 -0.143351 0.984235
  outer loop
   vertex 350.693542 -96.678520 212.763580
   vertex 350.508972 -95.685112 212.888840
   vertex 350.331696 -95.751335 212.860535
  endloop
 endfacet
 facet normal -0.103599 -0.143351 0.984235
  outer loop
   vertex 350.870819 -96.612297 212.791885
   vertex 350.508972 -95.685112 212.888840
   vertex 350.693542 -96.678520 212.763580
  endloop
 endfacet
 facet normal 0.581863 0.143368 0.800550
  outer loop
   vertex 350.648346 -95.618896 212.775681
   vertex 350.508972 -95.685112 212.888840
   vertex 350.870819 -96.612297 212.791885
  endloop
 endfacet
 facet normal 0.581859 0.143367 0.800554
  outer loop
   vertex 350.870819 -96.612297 212.791885
   vertex 351.010193 -96.546074 212.678726
   vertex 350.648346 -95.618896 212.775681
  endloop
 endfacet
 facet normal 0.926455 0.346088 0.148003
  outer loop
   vertex 350.648346 -95.618896 212.775681
   vertex 351.010193 -96.546074 212.678726
   vertex 350.668182 -95.591461 212.587357
  endloop
 endfacet
 facet normal 0.926457 0.346088 0.147990
  outer loop
   vertex 350.668182 -95.591461 212.587357
   vertex 351.010193 -96.546074 212.678726
   vertex 351.030029 -96.518646 212.490402
  endloop
 endfacet
 facet normal 0.728375 0.346095 -0.591344
  outer loop
   vertex 351.030029 -96.518646 212.490402
   vertex 350.556854 -95.618896 212.434174
   vertex 350.668182 -95.591461 212.587357
  endloop
 endfacet
 facet normal 0.728323 0.346062 -0.591428
  outer loop
   vertex 350.918671 -96.546074 212.337219
   vertex 350.556854 -95.618896 212.434174
   vertex 351.030029 -96.518646 212.490402
  endloop
 endfacet
 facet normal 0.103605 0.143351 -0.984234
  outer loop
   vertex 350.379578 -95.685112 212.405869
   vertex 350.556854 -95.618896 212.434174
   vertex 350.918671 -96.546074 212.337219
  endloop
 endfacet
 facet normal 0.103614 0.143357 -0.984232
  outer loop
   vertex 350.918671 -96.546074 212.337219
   vertex 350.741425 -96.612297 212.308914
   vertex 350.379578 -95.685112 212.405869
  endloop
 endfacet
 facet normal -0.581859 -0.143366 -0.800554
  outer loop
   vertex 350.379578 -95.685112 212.405869
   vertex 350.741425 -96.612297 212.308914
   vertex 350.240204 -95.751335 212.519028
  endloop
 endfacet
 facet normal -0.581859 -0.143366 -0.800554
  outer loop
   vertex 350.240204 -95.751335 212.519028
   vertex 350.741425 -96.612297 212.308914
   vertex 350.602051 -96.678520 212.422073
  endloop
 endfacet
 facet normal -0.926455 -0.346086 -0.148003
  outer loop
   vertex 350.602051 -96.678520 212.422073
   vertex 350.220367 -95.778770 212.707352
   vertex 350.240204 -95.751335 212.519028
  endloop
 endfacet
 facet normal -0.926456 -0.346090 -0.147990
  outer loop
   vertex 350.582214 -96.705948 212.610397
   vertex 350.220367 -95.778770 212.707352
   vertex 350.602051 -96.678520 212.422073
  endloop
 endfacet
 facet normal -0.967588 0.243638 -0.066434
  outer loop
   vertex 350.598419 -96.669212 212.423035
   vertex 350.348022 -97.795059 211.941086
   vertex 350.578583 -96.696640 212.611359
  endloop
 endfacet
 facet normal -0.967604 0.243595 -0.066358
  outer loop
   vertex 350.578583 -96.696640 212.611359
   vertex 350.348022 -97.795059 211.941086
   vertex 350.268738 -97.904785 212.694382
  endloop
 endfacet
 facet normal -0.804787 0.243595 0.541276
  outer loop
   vertex 350.268738 -97.904785 212.694382
   vertex 350.689911 -96.669212 212.764542
   vertex 350.578583 -96.696640 212.611359
  endloop
 endfacet
 facet normal -0.804790 0.243596 0.541271
  outer loop
   vertex 350.714050 -97.795059 213.307114
   vertex 350.689911 -96.669212 212.764542
   vertex 350.268738 -97.904785 212.694382
  endloop
 endfacet
 facet normal -0.291237 0.410245 0.864222
  outer loop
   vertex 350.867188 -96.602989 212.792847
   vertex 350.689911 -96.669212 212.764542
   vertex 350.714050 -97.795059 213.307114
  endloop
 endfacet
 facet normal -0.291251 0.410244 0.864218
  outer loop
   vertex 350.714050 -97.795059 213.307114
   vertex 351.423157 -97.530174 213.420349
   vertex 350.867188 -96.602989 212.792847
  endloop
 endfacet
 facet normal 0.272154 0.645910 0.713255
  outer loop
   vertex 350.867188 -96.602989 212.792847
   vertex 351.423157 -97.530174 213.420349
   vertex 351.006561 -96.536774 212.679703
  endloop
 endfacet
 facet normal 0.272174 0.645912 0.713246
  outer loop
   vertex 351.006561 -96.536774 212.679703
   vertex 351.423157 -97.530174 213.420349
   vertex 351.980621 -97.265289 212.967743
  endloop
 endfacet
 facet normal 0.555439 0.812547 0.176788
  outer loop
   vertex 351.980621 -97.265289 212.967743
   vertex 351.026367 -96.509338 212.491379
   vertex 351.006561 -96.536774 212.679703
  endloop
 endfacet
 facet normal 0.555431 0.812549 0.176808
  outer loop
   vertex 352.059906 -97.155571 212.214447
   vertex 351.026367 -96.509338 212.491379
   vertex 351.980621 -97.265289 212.967743
  endloop
 endfacet
 facet normal 0.392604 0.812541 -0.430859
  outer loop
   vertex 350.915039 -96.536774 212.338196
   vertex 351.026367 -96.509338 212.491379
   vertex 352.059906 -97.155571 212.214447
  endloop
 endfacet
 facet normal 0.392612 0.812550 -0.430835
  outer loop
   vertex 352.059906 -97.155571 212.214447
   vertex 351.614594 -97.265289 211.601715
   vertex 350.915039 -96.536774 212.338196
  endloop
 endfacet
 facet normal -0.120923 0.645905 -0.753780
  outer loop
   vertex 350.915039 -96.536774 212.338196
   vertex 351.614594 -97.265289 211.601715
   vertex 350.737793 -96.602989 212.309891
  endloop
 endfacet
 facet normal -0.120927 0.645902 -0.753782
  outer loop
   vertex 350.737793 -96.602989 212.309891
   vertex 351.614594 -97.265289 211.601715
   vertex 350.905518 -97.530174 211.488495
  endloop
 endfacet
 facet normal -0.684312 0.410259 -0.602830
  outer loop
   vertex 350.905518 -97.530174 211.488495
   vertex 350.598419 -96.669212 212.423035
   vertex 350.737793 -96.602989 212.309891
  endloop
 endfacet
 facet normal -0.684318 0.410254 -0.602827
  outer loop
   vertex 350.348022 -97.795059 211.941086
   vertex 350.598419 -96.669212 212.423035
   vertex 350.905518 -97.530174 211.488495
  endloop
 endfacet
endsolid