solid stl file generated from DOUG
 facet normal -0.988833 0.000000 -0.149025
  outer loop
   vertex 367.249634 -476.224762 255.900955
   vertex 367.229340 -476.224762 256.035614
   vertex 367.229340 -466.975250 256.035645
  endloop
 endfacet
 facet normal -0.707107 -0.000002 0.707107
  outer loop
   vertex 367.229340 -466.975250 256.035645
   vertex 367.229340 -476.224762 256.035614
   vertex 367.302002 -466.975250 256.108307
  endloop
 endfacet
 facet normal 0.149118 -0.000002 0.988819
  outer loop
   vertex 366.468628 -466.975250 255.119934
   vertex 366.333954 -466.975250 255.140244
   vertex 366.333954 -476.224762 255.140228
  endloop
 endfacet
 facet normal -0.707107 -0.000001 0.707107
  outer loop
   vertex 366.333954 -476.224762 255.140228
   vertex 366.333954 -466.975250 255.140244
   vertex 366.261292 -466.975250 255.067581
  endloop
 endfacet
 facet normal -0.707033 0.000000 0.707181
  outer loop
   vertex 366.261292 -466.975250 255.067581
   vertex 366.261292 -476.224762 255.067581
   vertex 366.333954 -476.224762 255.140228
  endloop
 endfacet
 facet normal -0.913812 -0.000001 0.406138
  outer loop
   vertex 366.779419 -466.975250 254.549469
   vertex 366.779419 -476.224762 254.549454
   vertex 366.793091 -466.975250 254.580231
  endloop
 endfacet
 facet normal -0.913812 -0.000001 0.406138
  outer loop
   vertex 366.793091 -466.975250 254.580231
   vertex 366.779419 -476.224762 254.549454
   vertex 366.793091 -476.224762 254.580215
  endloop
 endfacet
 facet normal -0.707107 0.000001 -0.707107
  outer loop
   vertex 366.793091 -476.224762 254.580215
   vertex 366.386383 -476.224762 254.986923
   vertex 366.793091 -466.975250 254.580231
  endloop
 endfacet
 facet normal -0.988836 0.000000 -0.149009
  outer loop
   vertex 367.229340 -466.975250 256.035645
   vertex 367.249634 -466.975250 255.900970
   vertex 367.249634 -476.224762 255.900955
  endloop
 endfacet
 facet normal -0.707121 -0.000001 0.707093
  outer loop
   vertex 367.249634 -476.224762 255.900955
   vertex 367.249634 -466.975250 255.900970
   vertex 366.468628 -466.975250 255.119934
  endloop
 endfacet
 facet normal -0.707114 0.000000 0.707100
  outer loop
   vertex 366.468628 -466.975250 255.119934
   vertex 366.468628 -476.224762 255.119934
   vertex 367.249634 -476.224762 255.900955
  endloop
 endfacet
 facet normal 0.149009 -0.000000 0.988836
  outer loop
   vertex 366.333954 -476.224762 255.140228
   vertex 366.468628 -476.224762 255.119934
   vertex 366.468628 -466.975250 255.119934
  endloop
 endfacet
 facet normal -0.707164 -0.000000 -0.707050
  outer loop
   vertex 366.261292 -476.224762 255.067581
   vertex 366.261292 -466.975250 255.067581
   vertex 366.355621 -476.224762 254.973236
  endloop
 endfacet
 facet normal -0.707164 -0.000000 -0.707050
  outer loop
   vertex 366.355621 -476.224762 254.973236
   vertex 366.261292 -466.975250 255.067581
   vertex 366.355621 -466.975250 254.973236
  endloop
 endfacet
 facet normal 0.406517 0.000000 -0.913643
  outer loop
   vertex 366.355621 -466.975250 254.973236
   vertex 366.386383 -476.224762 254.986923
   vertex 366.355621 -476.224762 254.973236
  endloop
 endfacet
 facet normal 0.406517 -0.000000 -0.913643
  outer loop
   vertex 366.386383 -466.975250 254.986923
   vertex 366.386383 -476.224762 254.986923
   vertex 366.355621 -466.975250 254.973236
  endloop
 endfacet
 facet normal -0.707094 0.000000 -0.707120
  outer loop
   vertex 366.793091 -466.975250 254.580231
   vertex 366.386383 -476.224762 254.986923
   vertex 366.386383 -466.975250 254.986923
  endloop
 endfacet
 facet normal 0.000000 1.000000 -0.000000
  outer loop
   vertex 367.300812 -466.436890 256.133575
   vertex 366.830353 -466.436890 254.474442
   vertex 366.236023 -466.436890 255.068756
  endloop
 endfacet
 facet normal -0.707098 -0.000000 -0.707116
  outer loop
   vertex 366.236023 -466.436890 255.068756
   vertex 366.830353 -466.436890 254.474442
   vertex 366.236023 -467.436890 255.068756
  endloop
 endfacet
 facet normal -0.707117 0.000000 0.707097
  outer loop
   vertex 366.236023 -467.436890 255.068756
   vertex 367.300812 -467.436890 256.133575
   vertex 366.236023 -466.436890 255.068756
  endloop
 endfacet
 facet normal -0.000000 -1.000000 -0.000000
  outer loop
   vertex 366.830353 -467.436890 254.474442
   vertex 367.300812 -467.436890 256.133575
   vertex 366.236023 -467.436890 255.068756
  endloop
 endfacet
 facet normal 0.000000 -1.000000 -0.000000
  outer loop
   vertex 367.895142 -467.436890 255.539246
   vertex 367.300812 -467.436890 256.133575
   vertex 366.830353 -467.436890 254.474442
  endloop
 endfacet
 facet normal 0.707112 -0.000000 -0.707102
  outer loop
   vertex 366.830353 -467.436890 254.474442
   vertex 366.830353 -466.436890 254.474442
   vertex 367.895142 -467.436890 255.539246
  endloop
 endfacet
 facet normal 0.707112 0.000000 -0.707102
  outer loop
   vertex 367.895142 -467.436890 255.539246
   vertex 366.830353 -466.436890 254.474442
   vertex 367.895142 -466.436890 255.539246
  endloop
 endfacet
 facet normal -0.000000 1.000000 -0.000000
  outer loop
   vertex 367.895142 -466.436890 255.539246
   vertex 366.830353 -466.436890 254.474442
   vertex 367.300812 -466.436890 256.133575
  endloop
 endfacet
 facet normal 0.707107 -0.000000 0.707107
  outer loop
   vertex 367.300812 -466.436890 256.133575
   vertex 367.300812 -467.436890 256.133575
   vertex 367.895142 -466.436890 255.539246
  endloop
 endfacet
 facet normal -0.707117 -0.000000 0.707097
  outer loop
   vertex 366.236023 -466.436890 255.068756
   vertex 367.300812 -467.436890 256.133575
   vertex 367.300812 -466.436890 256.133575
  endloop
 endfacet
 facet normal 0.000000 1.000000 0.000000
  outer loop
   vertex 366.236023 -475.763123 255.068756
   vertex 367.300812 -475.763123 256.133575
   vertex 366.830353 -475.763123 254.474426
  endloop
 endfacet
 facet normal -0.000000 1.000000 0.000000
  outer loop
   vertex 366.830353 -475.763123 254.474426
   vertex 367.300812 -475.763123 256.133575
   vertex 367.895142 -475.763123 255.539246
  endloop
 endfacet
 facet normal 0.707117 0.000000 -0.707097
  outer loop
   vertex 367.895142 -475.763123 255.539246
   vertex 367.895142 -476.763123 255.539246
   vertex 366.830353 -475.763123 254.474426
  endloop
 endfacet
 facet normal 0.707107 -0.000000 0.707107
  outer loop
   vertex 367.300812 -475.763123 256.133575
   vertex 367.895142 -476.763123 255.539246
   vertex 367.895142 -475.763123 255.539246
  endloop
 endfacet
 facet normal 0.707107 0.000000 0.707107
  outer loop
   vertex 367.300812 -476.763123 256.133575
   vertex 367.895142 -476.763123 255.539246
   vertex 367.300812 -475.763123 256.133575
  endloop
 endfacet
 facet normal -0.707117 -0.000000 0.707097
  outer loop
   vertex 367.300812 -475.763123 256.133575
   vertex 366.236023 -476.763123 255.068756
   vertex 367.300812 -476.763123 256.133575
  endloop
 endfacet
 facet normal 0.000000 -1.000000 0.000000
  outer loop
   vertex 367.300812 -476.763123 256.133575
   vertex 366.236023 -476.763123 255.068756
   vertex 367.895142 -476.763123 255.539246
  endloop
 endfacet
 facet normal 0.000000 -1.000000 -0.000000
  outer loop
   vertex 367.895142 -476.763123 255.539246
   vertex 366.236023 -476.763123 255.068756
   vertex 366.830353 -476.763123 254.474426
  endloop
 endfacet
 facet normal 0.707117 0.000000 -0.707097
  outer loop
   vertex 366.830353 -476.763123 254.474426
   vertex 366.830353 -475.763123 254.474426
   vertex 367.895142 -476.763123 255.539246
  endloop
 endfacet
 facet normal -0.707107 -0.000000 -0.707107
  outer loop
   vertex 366.236023 -476.763123 255.068756
   vertex 366.830353 -475.763123 254.474426
   vertex 366.830353 -476.763123 254.474426
  endloop
 endfacet
 facet normal -0.707107 0.000000 -0.707107
  outer loop
   vertex 366.236023 -475.763123 255.068756
   vertex 366.830353 -475.763123 254.474426
   vertex 366.236023 -476.763123 255.068756
  endloop
 endfacet
 facet normal -0.707117 -0.000000 0.707097
  outer loop
   vertex 366.236023 -476.763123 255.068756
   vertex 367.300812 -475.763123 256.133575
   vertex 366.236023 -475.763123 255.068756
  endloop
 endfacet
 facet normal -0.707107 -0.000002 0.707107
  outer loop
   vertex 367.229340 -476.224762 256.035614
   vertex 367.302002 -476.224762 256.108276
   vertex 367.302002 -466.975250 256.108307
  endloop
 endfacet
 facet normal 0.707107 -0.000002 0.707107
  outer loop
   vertex 367.302002 -466.975250 256.108307
   vertex 367.302002 -476.224762 256.108276
   vertex 367.396332 -476.224762 256.013947
  endloop
 endfacet
 facet normal 0.707221 0.000000 0.706992
  outer loop
   vertex 367.396332 -476.224762 256.013947
   vertex 367.396332 -466.975250 256.013947
   vertex 367.302002 -466.975250 256.108307
  endloop
 endfacet
 facet normal 0.913812 -0.000000 -0.406138
  outer loop
   vertex 367.382660 -476.224762 255.983185
   vertex 367.396332 -466.975250 256.013947
   vertex 367.396332 -476.224762 256.013947
  endloop
 endfacet
 facet normal 0.913737 0.000001 -0.406307
  outer loop
   vertex 367.382660 -466.975250 255.983200
   vertex 367.396332 -466.975250 256.013947
   vertex 367.382660 -476.224762 255.983185
  endloop
 endfacet
 facet normal 0.707094 -0.000001 0.707120
  outer loop
   vertex 367.382660 -476.224762 255.983185
   vertex 367.789368 -476.224762 255.576492
   vertex 367.382660 -466.975250 255.983200
  endloop
 endfacet
 facet normal 0.707107 -0.000000 0.707107
  outer loop
   vertex 367.382660 -466.975250 255.983200
   vertex 367.789368 -476.224762 255.576492
   vertex 367.789368 -466.975250 255.576492
  endloop
 endfacet
 facet normal -0.406138 -0.000000 0.913812
  outer loop
   vertex 367.789368 -466.975250 255.576492
   vertex 367.789368 -476.224762 255.576492
   vertex 367.820129 -476.224762 255.590164
  endloop
 endfacet
 facet normal -0.406517 -0.000002 0.913643
  outer loop
   vertex 367.820129 -476.224762 255.590164
   vertex 367.820129 -466.975250 255.590179
   vertex 367.789368 -466.975250 255.576492
  endloop
 endfacet
 facet normal 0.706992 -0.000001 0.707222
  outer loop
   vertex 367.866943 -476.224762 255.543365
   vertex 367.820129 -466.975250 255.590179
   vertex 367.820129 -476.224762 255.590164
  endloop
 endfacet
 facet normal 0.707107 0.000000 0.707107
  outer loop
   vertex 367.866943 -466.975250 255.543365
   vertex 367.820129 -466.975250 255.590179
   vertex 367.866943 -476.224762 255.543365
  endloop
 endfacet
 facet normal 0.707107 -0.000000 -0.707107
  outer loop
   vertex 367.866943 -476.224762 255.543365
   vertex 366.826233 -476.224762 254.502655
   vertex 367.866943 -466.975250 255.543365
  endloop
 endfacet
 facet normal 0.707107 0.000000 -0.707107
  outer loop
   vertex 367.866943 -466.975250 255.543365
   vertex 366.826233 -476.224762 254.502655
   vertex 366.826233 -466.975250 254.502655
  endloop
 endfacet
 facet normal -0.707107 0.000000 -0.707107
  outer loop
   vertex 366.826233 -466.975250 254.502655
   vertex 366.826233 -476.224762 254.502655
   vertex 366.779419 -466.975250 254.549469
  endloop
 endfacet
 facet normal -0.707098 0.000000 -0.707116
  outer loop
   vertex 366.830353 -467.436890 254.474442
   vertex 366.236023 -467.436890 255.068756
   vertex 366.830353 -466.436890 254.474442
  endloop
 endfacet
 facet normal 0.707107 -0.000000 0.707107
  outer loop
   vertex 367.300812 -467.436890 256.133575
   vertex 367.895142 -467.436890 255.539246
   vertex 367.895142 -466.436890 255.539246
  endloop
 endfacet
 facet normal -0.706992 0.000001 -0.707222
  outer loop
   vertex 366.826233 -476.224762 254.502655
   vertex 366.779419 -476.224762 254.549454
   vertex 366.779419 -466.975250 254.549469
  endloop
 endfacet
 facet normal 0.270588 -0.923887 0.270582
  outer loop
   vertex 368.734924 -477.274994 253.634674
   vertex 369.442017 -477.274994 252.927567
   vertex 369.234924 -476.982117 254.134674
  endloop
 endfacet
 facet normal 0.270588 -0.923887 0.270582
  outer loop
   vertex 369.234924 -476.982117 254.134674
   vertex 369.442017 -477.274994 252.927567
   vertex 369.942017 -476.982117 253.427567
  endloop
 endfacet
 facet normal 0.653294 -0.382665 0.653280
  outer loop
   vertex 369.942017 -476.982117 253.427567
   vertex 369.442017 -476.274994 254.341782
   vertex 369.234924 -476.982117 254.134674
  endloop
 endfacet
 facet normal 0.653273 -0.382689 0.653287
  outer loop
   vertex 370.149139 -476.274994 253.634674
   vertex 369.442017 -476.274994 254.341782
   vertex 369.942017 -476.982117 253.427567
  endloop
 endfacet
 facet normal 0.653276 0.382679 0.653290
  outer loop
   vertex 369.234924 -475.567902 254.134674
   vertex 369.442017 -476.274994 254.341782
   vertex 370.149139 -476.274994 253.634674
  endloop
 endfacet
 facet normal 0.653283 0.382703 0.653269
  outer loop
   vertex 370.149139 -476.274994 253.634674
   vertex 369.942017 -475.567902 253.427567
   vertex 369.234924 -475.567902 254.134674
  endloop
 endfacet
 facet normal 0.270612 0.923873 0.270607
  outer loop
   vertex 369.234924 -475.567902 254.134674
   vertex 369.942017 -475.567902 253.427567
   vertex 368.734924 -475.274994 253.634674
  endloop
 endfacet
 facet normal 0.270612 0.923873 0.270607
  outer loop
   vertex 368.734924 -475.274994 253.634674
   vertex 369.942017 -475.567902 253.427567
   vertex 369.442017 -475.274994 252.927567
  endloop
 endfacet
 facet normal -0.270612 0.923873 -0.270607
  outer loop
   vertex 369.442017 -475.274994 252.927567
   vertex 368.234924 -475.567902 253.134674
   vertex 368.734924 -475.274994 253.634674
  endloop
 endfacet
 facet normal -0.270612 0.923873 -0.270607
  outer loop
   vertex 368.942017 -475.567902 252.427567
   vertex 368.234924 -475.567902 253.134674
   vertex 369.442017 -475.274994 252.927567
  endloop
 endfacet
 facet normal -0.653283 0.382703 -0.653269
  outer loop
   vertex 368.027802 -476.274994 252.927567
   vertex 368.234924 -475.567902 253.134674
   vertex 368.942017 -475.567902 252.427567
  endloop
 endfacet
 facet normal -0.653276 0.382679 -0.653290
  outer loop
   vertex 368.942017 -475.567902 252.427567
   vertex 368.734924 -476.274994 252.220459
   vertex 368.027802 -476.274994 252.927567
  endloop
 endfacet
 facet normal -0.653273 -0.382689 -0.653287
  outer loop
   vertex 368.027802 -476.274994 252.927567
   vertex 368.734924 -476.274994 252.220459
   vertex 368.234924 -476.982117 253.134674
  endloop
 endfacet
 facet normal -0.653294 -0.382665 -0.653280
  outer loop
   vertex 368.234924 -476.982117 253.134674
   vertex 368.734924 -476.274994 252.220459
   vertex 368.942017 -476.982117 252.427567
  endloop
 endfacet
 facet normal -0.270588 -0.923887 -0.270582
  outer loop
   vertex 368.942017 -476.982117 252.427567
   vertex 368.734924 -477.274994 253.634674
   vertex 368.234924 -476.982117 253.134674
  endloop
 endfacet
 facet normal -0.270588 -0.923887 -0.270582
  outer loop
   vertex 369.442017 -477.274994 252.927567
   vertex 368.734924 -477.274994 253.634674
   vertex 368.942017 -476.982117 252.427567
  endloop
 endfacet
 facet normal -0.270558 0.923901 -0.270564
  outer loop
   vertex 367.909912 -466.748230 254.209686
   vertex 367.327789 -466.675018 255.041794
   vertex 368.034912 -466.675018 254.334686
  endloop
 endfacet
 facet normal 0.270558 0.923901 0.270564
  outer loop
   vertex 368.034912 -466.675018 254.334686
   vertex 367.327789 -466.675018 255.041794
   vertex 367.452789 -466.748230 255.166794
  endloop
 endfacet
 facet normal 0.270558 0.923901 0.270564
  outer loop
   vertex 367.452789 -466.748230 255.166794
   vertex 368.159912 -466.748230 254.459686
   vertex 368.034912 -466.675018 254.334686
  endloop
 endfacet
 facet normal 0.653273 0.382687 0.653287
  outer loop
   vertex 367.504578 -466.925018 255.218567
   vertex 368.159912 -466.748230 254.459686
   vertex 367.452789 -466.748230 255.166794
  endloop
 endfacet
 facet normal 0.653316 0.382591 0.653302
  outer loop
   vertex 368.211670 -466.925018 254.511459
   vertex 368.159912 -466.748230 254.459686
   vertex 367.504578 -466.925018 255.218567
  endloop
 endfacet
 facet normal 0.653271 -0.382744 0.653257
  outer loop
   vertex 367.504578 -466.925018 255.218567
   vertex 367.452789 -467.101776 255.166794
   vertex 368.211670 -466.925018 254.511459
  endloop
 endfacet
 facet normal 0.653285 -0.382647 0.653299
  outer loop
   vertex 368.211670 -466.925018 254.511459
   vertex 367.452789 -467.101776 255.166794
   vertex 368.159912 -467.101776 254.459686
  endloop
 endfacet
 facet normal 0.270655 -0.923845 0.270661
  outer loop
   vertex 368.159912 -467.101776 254.459686
   vertex 367.452789 -467.101776 255.166794
   vertex 367.327789 -467.175018 255.041794
  endloop
 endfacet
 facet normal 0.270655 -0.923845 0.270661
  outer loop
   vertex 367.327789 -467.175018 255.041794
   vertex 368.034912 -467.175018 254.334686
   vertex 368.159912 -467.101776 254.459686
  endloop
 endfacet
 facet normal -0.270655 -0.923845 -0.270661
  outer loop
   vertex 367.202789 -467.101776 254.916794
   vertex 368.034912 -467.175018 254.334686
   vertex 367.327789 -467.175018 255.041794
  endloop
 endfacet
 facet normal -0.270655 -0.923845 -0.270661
  outer loop
   vertex 367.909912 -467.101776 254.209686
   vertex 368.034912 -467.175018 254.334686
   vertex 367.202789 -467.101776 254.916794
  endloop
 endfacet
 facet normal -0.653285 -0.382647 -0.653299
  outer loop
   vertex 367.202789 -467.101776 254.916794
   vertex 367.151031 -466.925018 254.865021
   vertex 367.909912 -467.101776 254.209686
  endloop
 endfacet
 facet normal -0.653271 -0.382744 -0.653257
  outer loop
   vertex 367.909912 -467.101776 254.209686
   vertex 367.151031 -466.925018 254.865021
   vertex 367.858124 -466.925018 254.157913
  endloop
 endfacet
 facet normal -0.653316 0.382591 -0.653302
  outer loop
   vertex 367.858124 -466.925018 254.157913
   vertex 367.151031 -466.925018 254.865021
   vertex 367.202789 -466.748230 254.916794
  endloop
 endfacet
 facet normal -0.653273 0.382687 -0.653287
  outer loop
   vertex 367.202789 -466.748230 254.916794
   vertex 367.909912 -466.748230 254.209686
   vertex 367.858124 -466.925018 254.157913
  endloop
 endfacet
 facet normal -0.270558 0.923901 -0.270564
  outer loop
   vertex 367.327789 -466.675018 255.041794
   vertex 367.909912 -466.748230 254.209686
   vertex 367.202789 -466.748230 254.916794
  endloop
 endfacet
 facet normal -0.270588 0.923887 -0.270582
  outer loop
   vertex 368.942017 -466.217896 252.427567
   vertex 368.734924 -465.925018 253.634674
   vertex 369.442017 -465.925018 252.927567
  endloop
 endfacet
 facet normal 0.270588 0.923887 0.270582
  outer loop
   vertex 369.442017 -465.925018 252.927567
   vertex 368.734924 -465.925018 253.634674
   vertex 369.234924 -466.217896 254.134674
  endloop
 endfacet
 facet normal 0.270588 0.923887 0.270582
  outer loop
   vertex 369.234924 -466.217896 254.134674
   vertex 369.942017 -466.217896 253.427567
   vertex 369.442017 -465.925018 252.927567
  endloop
 endfacet
 facet normal 0.653294 0.382665 0.653280
  outer loop
   vertex 369.442017 -466.925018 254.341782
   vertex 369.942017 -466.217896 253.427567
   vertex 369.234924 -466.217896 254.134674
  endloop
 endfacet
 facet normal 0.653273 0.382689 0.653287
  outer loop
   vertex 370.149139 -466.925018 253.634674
   vertex 369.942017 -466.217896 253.427567
   vertex 369.442017 -466.925018 254.341782
  endloop
 endfacet
 facet normal 0.653276 -0.382679 0.653290
  outer loop
   vertex 369.442017 -466.925018 254.341782
   vertex 369.234924 -467.632111 254.134674
   vertex 370.149139 -466.925018 253.634674
  endloop
 endfacet
 facet normal 0.653283 -0.382703 0.653269
  outer loop
   vertex 370.149139 -466.925018 253.634674
   vertex 369.234924 -467.632111 254.134674
   vertex 369.942017 -467.632111 253.427567
  endloop
 endfacet
 facet normal 0.270612 -0.923873 0.270607
  outer loop
   vertex 369.942017 -467.632111 253.427567
   vertex 369.234924 -467.632111 254.134674
   vertex 368.734924 -467.925018 253.634674
  endloop
 endfacet
 facet normal 0.270612 -0.923873 0.270607
  outer loop
   vertex 368.734924 -467.925018 253.634674
   vertex 369.442017 -467.925018 252.927567
   vertex 369.942017 -467.632111 253.427567
  endloop
 endfacet
 facet normal -0.270612 -0.923873 -0.270607
  outer loop
   vertex 368.234924 -467.632111 253.134674
   vertex 369.442017 -467.925018 252.927567
   vertex 368.734924 -467.925018 253.634674
  endloop
 endfacet
 facet normal -0.270612 -0.923873 -0.270607
  outer loop
   vertex 368.942017 -467.632111 252.427567
   vertex 369.442017 -467.925018 252.927567
   vertex 368.234924 -467.632111 253.134674
  endloop
 endfacet
 facet normal -0.653283 -0.382703 -0.653269
  outer loop
   vertex 368.234924 -467.632111 253.134674
   vertex 368.027802 -466.925018 252.927567
   vertex 368.942017 -467.632111 252.427567
  endloop
 endfacet
 facet normal -0.653276 -0.382679 -0.653290
  outer loop
   vertex 368.942017 -467.632111 252.427567
   vertex 368.027802 -466.925018 252.927567
   vertex 368.734924 -466.925018 252.220459
  endloop
 endfacet
 facet normal -0.653273 0.382689 -0.653287
  outer loop
   vertex 368.734924 -466.925018 252.220459
   vertex 368.027802 -466.925018 252.927567
   vertex 368.234924 -466.217896 253.134674
  endloop
 endfacet
 facet normal -0.653294 0.382665 -0.653280
  outer loop
   vertex 368.234924 -466.217896 253.134674
   vertex 368.942017 -466.217896 252.427567
   vertex 368.734924 -466.925018 252.220459
  endloop
 endfacet
 facet normal -0.270588 0.923887 -0.270582
  outer loop
   vertex 368.734924 -465.925018 253.634674
   vertex 368.942017 -466.217896 252.427567
   vertex 368.234924 -466.217896 253.134674
  endloop
 endfacet
 facet normal -0.625137 0.759401 0.180315
  outer loop
   vertex 368.234924 -466.217896 253.134674
   vertex 368.027802 -466.675018 254.341782
   vertex 368.734924 -465.925018 253.634674
  endloop
 endfacet
 facet normal -0.180344 0.759406 0.625123
  outer loop
   vertex 368.734924 -465.925018 253.634674
   vertex 368.027802 -466.675018 254.341782
   vertex 368.152802 -466.748230 254.466782
  endloop
 endfacet
 facet normal -0.180315 0.759401 0.625138
  outer loop
   vertex 368.152802 -466.748230 254.466782
   vertex 369.234924 -466.217896 254.134674
   vertex 368.734924 -465.925018 253.634674
  endloop
 endfacet
 facet normal 0.134255 0.314525 0.939707
  outer loop
   vertex 368.204590 -466.925018 254.518555
   vertex 369.234924 -466.217896 254.134674
   vertex 368.152802 -466.748230 254.466782
  endloop
 endfacet
 facet normal 0.134242 0.314542 0.939703
  outer loop
   vertex 369.442017 -466.925018 254.341782
   vertex 369.234924 -466.217896 254.134674
   vertex 368.204590 -466.925018 254.518555
  endloop
 endfacet
 facet normal 0.134240 -0.314571 0.939694
  outer loop
   vertex 368.204590 -466.925018 254.518555
   vertex 368.152802 -467.101776 254.466782
   vertex 369.442017 -466.925018 254.341782
  endloop
 endfacet
 facet normal 0.134239 -0.314554 0.939700
  outer loop
   vertex 369.442017 -466.925018 254.341782
   vertex 368.152802 -467.101776 254.466782
   vertex 369.234924 -467.632111 254.134674
  endloop
 endfacet
 facet normal -0.180272 -0.759355 0.625206
  outer loop
   vertex 369.234924 -467.632111 254.134674
   vertex 368.152802 -467.101776 254.466782
   vertex 368.027802 -467.175018 254.341782
  endloop
 endfacet
 facet normal -0.180294 -0.759390 0.625156
  outer loop
   vertex 368.027802 -467.175018 254.341782
   vertex 368.734924 -467.925018 253.634674
   vertex 369.234924 -467.632111 254.134674
  endloop
 endfacet
 facet normal -0.625187 -0.759378 0.180240
  outer loop
   vertex 367.902802 -467.101776 254.216782
   vertex 368.734924 -467.925018 253.634674
   vertex 368.027802 -467.175018 254.341782
  endloop
 endfacet
 facet normal -0.625158 -0.759388 0.180297
  outer loop
   vertex 368.234924 -467.632111 253.134674
   vertex 368.734924 -467.925018 253.634674
   vertex 367.902802 -467.101776 254.216782
  endloop
 endfacet
 facet normal -0.939712 -0.314497 -0.134285
  outer loop
   vertex 367.902802 -467.101776 254.216782
   vertex 367.851044 -466.925018 254.165009
   vertex 368.234924 -467.632111 253.134674
  endloop
 endfacet
 facet normal -0.939695 -0.314573 -0.134227
  outer loop
   vertex 368.234924 -467.632111 253.134674
   vertex 367.851044 -466.925018 254.165009
   vertex 368.027802 -466.925018 252.927567
  endloop
 endfacet
 facet normal -0.939740 0.314436 -0.134234
  outer loop
   vertex 368.027802 -466.925018 252.927567
   vertex 367.851044 -466.925018 254.165009
   vertex 367.902802 -466.748230 254.216782
  endloop
 endfacet
 facet normal -0.939695 0.314565 -0.134247
  outer loop
   vertex 367.902802 -466.748230 254.216782
   vertex 368.234924 -466.217896 253.134674
   vertex 368.027802 -466.925018 252.927567
  endloop
 endfacet
 facet normal -0.625112 0.759419 0.180326
  outer loop
   vertex 368.027802 -466.675018 254.341782
   vertex 368.234924 -466.217896 253.134674
   vertex 367.902802 -466.748230 254.216782
  endloop
 endfacet
 facet normal 0.270558 -0.923901 0.270564
  outer loop
   vertex 367.327789 -476.524994 255.041779
   vertex 368.034912 -476.524994 254.334671
   vertex 367.452789 -476.451782 255.166779
  endloop
 endfacet
 facet normal 0.270558 -0.923901 0.270564
  outer loop
   vertex 367.452789 -476.451782 255.166779
   vertex 368.034912 -476.524994 254.334671
   vertex 368.159912 -476.451782 254.459671
  endloop
 endfacet
 facet normal 0.653259 -0.382735 0.653273
  outer loop
   vertex 368.159912 -476.451782 254.459671
   vertex 367.504578 -476.274994 255.218567
   vertex 367.452789 -476.451782 255.166779
  endloop
 endfacet
 facet normal 0.653302 -0.382639 0.653287
  outer loop
   vertex 368.211670 -476.274994 254.511459
   vertex 367.504578 -476.274994 255.218567
   vertex 368.159912 -476.451782 254.459671
  endloop
 endfacet
 facet normal 0.653257 0.382792 0.653243
  outer loop
   vertex 367.452789 -476.098236 255.166779
   vertex 367.504578 -476.274994 255.218567
   vertex 368.211670 -476.274994 254.511459
  endloop
 endfacet
 facet normal 0.653271 0.382695 0.653285
  outer loop
   vertex 368.211670 -476.274994 254.511459
   vertex 368.159912 -476.098236 254.459671
   vertex 367.452789 -476.098236 255.166779
  endloop
 endfacet
 facet normal 0.270655 0.923845 0.270661
  outer loop
   vertex 367.452789 -476.098236 255.166779
   vertex 368.159912 -476.098236 254.459671
   vertex 367.327789 -476.024994 255.041779
  endloop
 endfacet
 facet normal 0.270655 0.923845 0.270661
  outer loop
   vertex 367.327789 -476.024994 255.041779
   vertex 368.159912 -476.098236 254.459671
   vertex 368.034912 -476.024994 254.334671
  endloop
 endfacet
 facet normal -0.270655 0.923845 -0.270661
  outer loop
   vertex 368.034912 -476.024994 254.334671
   vertex 367.202789 -476.098236 254.916779
   vertex 367.327789 -476.024994 255.041779
  endloop
 endfacet
 facet normal -0.270655 0.923845 -0.270661
  outer loop
   vertex 367.909912 -476.098236 254.209671
   vertex 367.202789 -476.098236 254.916779
   vertex 368.034912 -476.024994 254.334671
  endloop
 endfacet
 facet normal -0.653285 0.382647 -0.653299
  outer loop
   vertex 367.151031 -476.274994 254.865005
   vertex 367.202789 -476.098236 254.916779
   vertex 367.909912 -476.098236 254.209671
  endloop
 endfacet
 facet normal -0.653271 0.382744 -0.653257
  outer loop
   vertex 367.909912 -476.098236 254.209671
   vertex 367.858124 -476.274994 254.157898
   vertex 367.151031 -476.274994 254.865005
  endloop
 endfacet
 facet normal -0.653316 -0.382591 -0.653302
  outer loop
   vertex 367.151031 -476.274994 254.865005
   vertex 367.858124 -476.274994 254.157898
   vertex 367.202789 -476.451782 254.916779
  endloop
 endfacet
 facet normal -0.653273 -0.382687 -0.653287
  outer loop
   vertex 367.202789 -476.451782 254.916779
   vertex 367.858124 -476.274994 254.157898
   vertex 367.909912 -476.451782 254.209671
  endloop
 endfacet
 facet normal -0.270558 -0.923901 -0.270564
  outer loop
   vertex 367.909912 -476.451782 254.209671
   vertex 367.327789 -476.524994 255.041779
   vertex 367.202789 -476.451782 254.916779
  endloop
 endfacet
 facet normal -0.270558 -0.923901 -0.270564
  outer loop
   vertex 368.034912 -476.524994 254.334671
   vertex 367.327789 -476.524994 255.041779
   vertex 367.909912 -476.451782 254.209671
  endloop
 endfacet
 facet normal -0.625112 -0.759419 0.180326
  outer loop
   vertex 367.902802 -476.451782 254.216782
   vertex 368.234924 -476.982117 253.134674
   vertex 368.027802 -476.524994 254.341782
  endloop
 endfacet
 facet normal -0.625137 -0.759401 0.180315
  outer loop
   vertex 368.027802 -476.524994 254.341782
   vertex 368.234924 -476.982117 253.134674
   vertex 368.734924 -477.274994 253.634674
  endloop
 endfacet
 facet normal -0.180344 -0.759406 0.625123
  outer loop
   vertex 368.734924 -477.274994 253.634674
   vertex 368.152802 -476.451782 254.466782
   vertex 368.027802 -476.524994 254.341782
  endloop
 endfacet
 facet normal -0.180315 -0.759401 0.625138
  outer loop
   vertex 369.234924 -476.982117 254.134674
   vertex 368.152802 -476.451782 254.466782
   vertex 368.734924 -477.274994 253.634674
  endloop
 endfacet
 facet normal 0.134255 -0.314525 0.939707
  outer loop
   vertex 368.204590 -476.274994 254.518555
   vertex 368.152802 -476.451782 254.466782
   vertex 369.234924 -476.982117 254.134674
  endloop
 endfacet
 facet normal 0.134242 -0.314542 0.939703
  outer loop
   vertex 369.234924 -476.982117 254.134674
   vertex 369.442017 -476.274994 254.341782
   vertex 368.204590 -476.274994 254.518555
  endloop
 endfacet
 facet normal 0.134240 0.314571 0.939694
  outer loop
   vertex 368.204590 -476.274994 254.518555
   vertex 369.442017 -476.274994 254.341782
   vertex 368.152802 -476.098236 254.466782
  endloop
 endfacet
 facet normal 0.134239 0.314554 0.939700
  outer loop
   vertex 368.152802 -476.098236 254.466782
   vertex 369.442017 -476.274994 254.341782
   vertex 369.234924 -475.567902 254.134674
  endloop
 endfacet
 facet normal -0.180272 0.759355 0.625206
  outer loop
   vertex 369.234924 -475.567902 254.134674
   vertex 368.027802 -476.024994 254.341782
   vertex 368.152802 -476.098236 254.466782
  endloop
 endfacet
 facet normal -0.180294 0.759390 0.625156
  outer loop
   vertex 368.734924 -475.274994 253.634674
   vertex 368.027802 -476.024994 254.341782
   vertex 369.234924 -475.567902 254.134674
  endloop
 endfacet
 facet normal -0.625187 0.759378 0.180240
  outer loop
   vertex 367.902802 -476.098236 254.216782
   vertex 368.027802 -476.024994 254.341782
   vertex 368.734924 -475.274994 253.634674
  endloop
 endfacet
 facet normal -0.625158 0.759388 0.180297
  outer loop
   vertex 368.734924 -475.274994 253.634674
   vertex 368.234924 -475.567902 253.134674
   vertex 367.902802 -476.098236 254.216782
  endloop
 endfacet
 facet normal -0.939710 0.314506 -0.134280
  outer loop
   vertex 367.902802 -476.098236 254.216782
   vertex 368.234924 -475.567902 253.134674
   vertex 367.851044 -476.274994 254.164993
  endloop
 endfacet
 facet normal -0.939695 0.314573 -0.134229
  outer loop
   vertex 367.851044 -476.274994 254.164993
   vertex 368.234924 -475.567902 253.134674
   vertex 368.027802 -476.274994 252.927567
  endloop
 endfacet
 facet normal -0.939736 -0.314447 -0.134235
  outer loop
   vertex 368.027802 -476.274994 252.927567
   vertex 367.902802 -476.451782 254.216782
   vertex 367.851044 -476.274994 254.164993
  endloop
 endfacet
 facet normal -0.939695 -0.314565 -0.134247
  outer loop
   vertex 368.234924 -476.982117 253.134674
   vertex 367.902802 -476.451782 254.216782
   vertex 368.027802 -476.274994 252.927567
  endloop
 endfacet
endsolid