solid stl file generated from DOUG
 facet normal 0.065627 -0.842665 0.534423
  outer loop
   vertex 416.260590 -469.642639 105.433426
   vertex 416.246613 -469.715973 105.319511
   vertex 425.427185 -469.715973 104.192146
  endloop
 endfacet
 facet normal -0.043659 -0.933645 -0.355530
  outer loop
   vertex 425.427185 -469.715973 104.192146
   vertex 416.246613 -469.715973 105.319511
   vertex 425.415497 -469.679169 104.096931
  endloop
 endfacet
 facet normal -0.117491 -0.266034 -0.956777
  outer loop
   vertex 425.566864 -470.038422 105.329559
   vertex 425.571259 -470.169708 105.365524
   vertex 416.390686 -470.169708 106.492889
  endloop
 endfacet
 facet normal -0.043690 -0.933545 -0.355787
  outer loop
   vertex 416.390686 -470.169708 106.492889
   vertex 425.571259 -470.169708 105.365524
   vertex 425.582947 -470.206543 105.460739
  endloop
 endfacet
 facet normal -0.043688 -0.933555 -0.355763
  outer loop
   vertex 425.582947 -470.206543 105.460739
   vertex 416.402374 -470.206543 106.588112
   vertex 416.390686 -470.169708 106.492889
  endloop
 endfacet
 facet normal 0.000000 -1.000000 0.000000
  outer loop
   vertex 425.614960 -469.522461 105.721336
   vertex 416.434387 -469.522461 106.848701
   vertex 425.610870 -469.522461 105.687920
  endloop
 endfacet
 facet normal -0.000000 -1.000000 -0.000000
  outer loop
   vertex 425.610870 -469.522461 105.687920
   vertex 416.434387 -469.522461 106.848701
   vertex 416.430267 -469.522461 106.815292
  endloop
 endfacet
 facet normal 0.113791 -0.358315 0.926640
  outer loop
   vertex 416.430267 -469.522461 106.815292
   vertex 416.405151 -470.059448 106.610733
   vertex 425.610870 -469.522461 105.687920
  endloop
 endfacet
 facet normal 0.065630 -0.842649 0.534448
  outer loop
   vertex 425.427185 -469.715973 104.192146
   vertex 425.441162 -469.642639 104.306053
   vertex 416.260590 -469.642639 105.433426
  endloop
 endfacet
 facet normal -0.043674 -0.933598 -0.355652
  outer loop
   vertex 416.260590 -469.642639 105.433426
   vertex 425.441162 -469.642639 104.306053
   vertex 425.566864 -470.038422 105.329559
  endloop
 endfacet
 facet normal -0.043674 -0.933596 -0.355655
  outer loop
   vertex 425.566864 -470.038422 105.329559
   vertex 416.386261 -470.038422 106.456924
   vertex 416.260590 -469.642639 105.433426
  endloop
 endfacet
 facet normal -0.117490 -0.266060 -0.956770
  outer loop
   vertex 416.390686 -470.169708 106.492889
   vertex 416.386261 -470.038422 106.456924
   vertex 425.566864 -470.038422 105.329559
  endloop
 endfacet
 facet normal 0.113793 -0.358269 0.926658
  outer loop
   vertex 416.402374 -470.206543 106.588112
   vertex 425.582947 -470.206543 105.460739
   vertex 416.408203 -470.081970 106.635559
  endloop
 endfacet
 facet normal 0.113790 -0.358319 0.926639
  outer loop
   vertex 416.408203 -470.081970 106.635559
   vertex 425.582947 -470.206543 105.460739
   vertex 425.588776 -470.081970 105.508194
  endloop
 endfacet
 facet normal 0.081556 0.743141 0.664146
  outer loop
   vertex 425.588776 -470.081970 105.508194
   vertex 416.405151 -470.059448 106.610733
   vertex 416.408203 -470.081970 106.635559
  endloop
 endfacet
 facet normal 0.081556 0.743141 0.664146
  outer loop
   vertex 425.585724 -470.059448 105.483368
   vertex 416.405151 -470.059448 106.610733
   vertex 425.588776 -470.081970 105.508194
  endloop
 endfacet
 facet normal 0.113791 -0.358310 0.926642
  outer loop
   vertex 425.610870 -469.522461 105.687920
   vertex 416.405151 -470.059448 106.610733
   vertex 425.585724 -470.059448 105.483368
  endloop
 endfacet
 facet normal 0.992544 -0.000005 -0.121888
  outer loop
   vertex 425.947052 -469.690521 104.008873
   vertex 426.155121 -469.445404 105.703186
   vertex 426.118408 -470.230103 105.404266
  endloop
 endfacet
 facet normal 0.113786 -0.358314 0.926641
  outer loop
   vertex 426.118408 -470.230103 105.404266
   vertex 426.155121 -469.445404 105.703186
   vertex 425.125854 -470.230103 105.526146
  endloop
 endfacet
 facet normal -0.043671 -0.933599 -0.355648
  outer loop
   vertex 425.125854 -470.230103 105.526146
   vertex 424.954498 -469.690521 104.130753
   vertex 426.118408 -470.230103 105.404266
  endloop
 endfacet
 facet normal -0.992544 0.000004 0.121887
  outer loop
   vertex 425.162567 -469.445404 105.825073
   vertex 424.954498 -469.690521 104.130753
   vertex 425.125854 -470.230103 105.526146
  endloop
 endfacet
 facet normal -0.992544 0.000004 0.121887
  outer loop
   vertex 424.991211 -468.905823 104.429680
   vertex 424.954498 -469.690521 104.130753
   vertex 425.162567 -469.445404 105.825073
  endloop
 endfacet
 facet normal 0.043674 0.933599 0.355648
  outer loop
   vertex 425.162567 -469.445404 105.825073
   vertex 426.155121 -469.445404 105.703186
   vertex 424.991211 -468.905823 104.429680
  endloop
 endfacet
 facet normal 0.043674 0.933599 0.355648
  outer loop
   vertex 424.991211 -468.905823 104.429680
   vertex 426.155121 -469.445404 105.703186
   vertex 425.983765 -468.905823 104.307793
  endloop
 endfacet
 facet normal 0.992544 -0.000005 -0.121888
  outer loop
   vertex 425.983765 -468.905823 104.307793
   vertex 426.155121 -469.445404 105.703186
   vertex 425.947052 -469.690521 104.008873
  endloop
 endfacet
 facet normal -0.113786 0.358314 -0.926641
  outer loop
   vertex 425.947052 -469.690521 104.008873
   vertex 424.954498 -469.690521 104.130753
   vertex 425.983765 -468.905823 104.307793
  endloop
 endfacet
 facet normal -0.043671 -0.933599 -0.355648
  outer loop
   vertex 426.118408 -470.230103 105.404266
   vertex 424.954498 -469.690521 104.130753
   vertex 425.947052 -469.690521 104.008873
  endloop
 endfacet
 facet normal 0.992544 -0.000004 -0.121887
  outer loop
   vertex 416.861725 -470.230103 106.540977
   vertex 416.690369 -469.690521 105.145584
   vertex 416.898438 -469.445404 106.839905
  endloop
 endfacet
 facet normal 0.992544 -0.000004 -0.121887
  outer loop
   vertex 416.898438 -469.445404 106.839905
   vertex 416.690369 -469.690521 105.145584
   vertex 416.727081 -468.905823 105.444511
  endloop
 endfacet
 facet normal 0.043671 0.933599 0.355648
  outer loop
   vertex 416.727081 -468.905823 105.444511
   vertex 415.734528 -468.905823 105.566391
   vertex 416.898438 -469.445404 106.839905
  endloop
 endfacet
 facet normal -0.113786 0.358322 -0.926638
  outer loop
   vertex 416.690369 -469.690521 105.145584
   vertex 415.734528 -468.905823 105.566391
   vertex 416.727081 -468.905823 105.444511
  endloop
 endfacet
 facet normal -0.113793 0.358314 -0.926640
  outer loop
   vertex 415.697815 -469.690521 105.267471
   vertex 415.734528 -468.905823 105.566391
   vertex 416.690369 -469.690521 105.145584
  endloop
 endfacet
 facet normal -0.043674 -0.933599 -0.355648
  outer loop
   vertex 416.690369 -469.690521 105.145584
   vertex 415.869171 -470.230103 106.662865
   vertex 415.697815 -469.690521 105.267471
  endloop
 endfacet
 facet normal -0.992544 0.000005 0.121888
  outer loop
   vertex 415.697815 -469.690521 105.267471
   vertex 415.869171 -470.230103 106.662865
   vertex 415.734528 -468.905823 105.566391
  endloop
 endfacet
 facet normal -0.992544 0.000005 0.121888
  outer loop
   vertex 415.734528 -468.905823 105.566391
   vertex 415.869171 -470.230103 106.662865
   vertex 415.905884 -469.445404 106.961784
  endloop
 endfacet
 facet normal 0.043671 0.933599 0.355648
  outer loop
   vertex 415.905884 -469.445404 106.961784
   vertex 416.898438 -469.445404 106.839905
   vertex 415.734528 -468.905823 105.566391
  endloop
 endfacet
 facet normal 0.113786 -0.358314 0.926641
  outer loop
   vertex 415.869171 -470.230103 106.662865
   vertex 416.898438 -469.445404 106.839905
   vertex 415.905884 -469.445404 106.961784
  endloop
 endfacet
 facet normal 0.113793 -0.358322 0.926637
  outer loop
   vertex 416.861725 -470.230103 106.540977
   vertex 416.898438 -469.445404 106.839905
   vertex 415.869171 -470.230103 106.662865
  endloop
 endfacet
 facet normal -0.043674 -0.933599 -0.355648
  outer loop
   vertex 415.869171 -470.230103 106.662865
   vertex 416.690369 -469.690521 105.145584
   vertex 416.861725 -470.230103 106.540977
  endloop
 endfacet
 facet normal -0.043657 -0.933649 -0.355518
  outer loop
   vertex 416.246613 -469.715973 105.319511
   vertex 416.234894 -469.679169 105.224297
   vertex 425.415497 -469.679169 104.096931
  endloop
 endfacet
 facet normal -0.113790 0.358319 -0.926639
  outer loop
   vertex 425.415497 -469.679169 104.096931
   vertex 416.234894 -469.679169 105.224297
   vertex 416.240723 -469.554596 105.271751
  endloop
 endfacet
 facet normal -0.113793 0.358269 -0.926658
  outer loop
   vertex 416.240723 -469.554596 105.271751
   vertex 425.421326 -469.554596 104.144379
   vertex 425.415497 -469.679169 104.096931
  endloop
 endfacet
 facet normal -0.000000 1.000000 -0.000000
  outer loop
   vertex 416.244843 -469.554596 105.305161
   vertex 425.421326 -469.554596 104.144379
   vertex 416.240723 -469.554596 105.271751
  endloop
 endfacet
 facet normal 0.000000 1.000000 -0.000000
  outer loop
   vertex 425.425415 -469.554596 104.177795
   vertex 425.421326 -469.554596 104.144379
   vertex 416.244843 -469.554596 105.305161
  endloop
 endfacet
 facet normal -0.113791 0.358304 -0.926644
  outer loop
   vertex 416.244843 -469.554596 105.305161
   vertex 416.269958 -469.017609 105.509712
   vertex 425.425415 -469.554596 104.177795
  endloop
 endfacet
 facet normal -0.113791 0.358304 -0.926644
  outer loop
   vertex 425.425415 -469.554596 104.177795
   vertex 416.269958 -469.017609 105.509712
   vertex 425.450531 -469.017609 104.382347
  endloop
 endfacet
 facet normal -0.081570 -0.743040 -0.664257
  outer loop
   vertex 425.450531 -469.017609 104.382347
   vertex 416.269958 -469.017609 105.509712
   vertex 416.266907 -468.995087 105.484894
  endloop
 endfacet
 facet normal -0.081557 -0.743141 -0.664146
  outer loop
   vertex 416.266907 -468.995087 105.484894
   vertex 425.447479 -468.995087 104.357521
   vertex 425.450531 -469.017609 104.382347
  endloop
 endfacet
 facet normal -0.113789 0.358369 -0.926620
  outer loop
   vertex 416.269806 -468.933289 105.508438
   vertex 425.447479 -468.995087 104.357521
   vertex 416.266907 -468.995087 105.484894
  endloop
 endfacet
 facet normal -0.113789 0.358369 -0.926620
  outer loop
   vertex 425.450378 -468.933289 104.381065
   vertex 425.447479 -468.995087 104.357521
   vertex 416.269806 -468.933289 105.508438
  endloop
 endfacet
 facet normal 0.043674 0.933598 0.355652
  outer loop
   vertex 416.269806 -468.933289 105.508438
   vertex 416.437286 -469.460663 106.872246
   vertex 425.450378 -468.933289 104.381065
  endloop
 endfacet
 facet normal 0.043673 0.933598 0.355650
  outer loop
   vertex 425.450378 -468.933289 104.381065
   vertex 416.437286 -469.460663 106.872246
   vertex 425.617859 -469.460663 105.744881
  endloop
 endfacet
 facet normal 0.113788 -0.358369 0.926620
  outer loop
   vertex 425.617859 -469.460663 105.744881
   vertex 416.437286 -469.460663 106.872246
   vertex 425.614960 -469.522461 105.721336
  endloop
 endfacet
 facet normal 0.113793 -0.358322 0.926637
  outer loop
   vertex 425.162567 -469.445404 105.825073
   vertex 425.125854 -470.230103 105.526146
   vertex 426.155121 -469.445404 105.703186
  endloop
 endfacet
 facet normal -0.113793 0.358322 -0.926637
  outer loop
   vertex 424.954498 -469.690521 104.130753
   vertex 424.991211 -468.905823 104.429680
   vertex 425.983765 -468.905823 104.307793
  endloop
 endfacet
 facet normal 0.113788 -0.358369 0.926620
  outer loop
   vertex 416.437286 -469.460663 106.872246
   vertex 416.434387 -469.522461 106.848701
   vertex 425.614960 -469.522461 105.721336
  endloop
 endfacet
 facet normal -0.960541 0.137118 -0.241992
  outer loop
   vertex 415.396881 -467.363922 107.016632
   vertex 415.440552 -466.430328 107.372284
   vertex 415.607117 -467.110565 106.325699
  endloop
 endfacet
 facet normal -0.960529 0.137158 -0.242016
  outer loop
   vertex 415.607117 -467.110565 106.325699
   vertex 415.440552 -466.430328 107.372284
   vertex 415.650818 -466.176971 106.681351
  endloop
 endfacet
 facet normal -0.484951 0.331062 -0.809457
  outer loop
   vertex 415.650818 -466.176971 106.681351
   vertex 416.275635 -467.005615 105.968109
   vertex 415.607117 -467.110565 106.325699
  endloop
 endfacet
 facet normal -0.484968 0.331046 -0.809453
  outer loop
   vertex 416.319305 -466.072021 106.323761
   vertex 416.275635 -467.005615 105.968109
   vertex 415.650818 -466.176971 106.681351
  endloop
 endfacet
 facet normal 0.274706 0.331049 -0.902742
  outer loop
   vertex 417.010803 -467.110565 106.153336
   vertex 416.275635 -467.005615 105.968109
   vertex 416.319305 -466.072021 106.323761
  endloop
 endfacet
 facet normal 0.274697 0.331044 -0.902747
  outer loop
   vertex 416.319305 -466.072021 106.323761
   vertex 417.054474 -466.176971 106.508980
   vertex 417.010803 -467.110565 106.153336
  endloop
 endfacet
 facet normal 0.873453 0.137119 -0.467203
  outer loop
   vertex 417.010803 -467.110565 106.153336
   vertex 417.054474 -466.176971 106.508980
   vertex 417.381958 -467.363922 106.772865
  endloop
 endfacet
 facet normal 0.873437 0.137108 -0.467235
  outer loop
   vertex 417.381958 -467.363922 106.772865
   vertex 417.054474 -466.176971 106.508980
   vertex 417.425659 -466.430328 107.128517
  endloop
 endfacet
 facet normal 0.960541 -0.137143 0.241976
  outer loop
   vertex 417.425659 -466.430328 107.128517
   vertex 417.171722 -467.617310 107.463799
   vertex 417.381958 -467.363922 106.772865
  endloop
 endfacet
 facet normal 0.960532 -0.137129 0.242021
  outer loop
   vertex 417.215393 -466.683716 107.819450
   vertex 417.171722 -467.617310 107.463799
   vertex 417.425659 -466.430328 107.128517
  endloop
 endfacet
 facet normal 0.484952 -0.331049 0.809462
  outer loop
   vertex 416.503204 -467.722260 107.821388
   vertex 417.171722 -467.617310 107.463799
   vertex 417.215393 -466.683716 107.819450
  endloop
 endfacet
 facet normal 0.484968 -0.331060 0.809448
  outer loop
   vertex 417.215393 -466.683716 107.819450
   vertex 416.546906 -466.788666 108.177040
   vertex 416.503204 -467.722260 107.821388
  endloop
 endfacet
 facet normal -0.274708 -0.331041 0.902745
  outer loop
   vertex 416.503204 -467.722260 107.821388
   vertex 416.546906 -466.788666 108.177040
   vertex 415.768066 -467.617310 107.636169
  endloop
 endfacet
 facet normal -0.274706 -0.331043 0.902744
  outer loop
   vertex 415.768066 -467.617310 107.636169
   vertex 416.546906 -466.788666 108.177040
   vertex 415.811737 -466.683716 107.991814
  endloop
 endfacet
 facet normal -0.873441 -0.137127 0.467223
  outer loop
   vertex 415.811737 -466.683716 107.991814
   vertex 415.396881 -467.363922 107.016632
   vertex 415.768066 -467.617310 107.636169
  endloop
 endfacet
 facet normal -0.873439 -0.137132 0.467225
  outer loop
   vertex 415.440552 -466.430328 107.372284
   vertex 415.396881 -467.363922 107.016632
   vertex 415.811737 -466.683716 107.991814
  endloop
 endfacet
 facet normal 0.960504 -0.137188 0.242099
  outer loop
   vertex 425.822052 -468.351501 105.545319
   vertex 425.830933 -469.221771 105.016937
   vertex 425.874634 -468.288177 105.372589
  endloop
 endfacet
 facet normal 0.873493 0.137070 -0.467142
  outer loop
   vertex 425.874634 -468.288177 105.372589
   vertex 425.830933 -469.221771 105.016937
   vertex 425.738159 -469.158417 104.862053
  endloop
 endfacet
 facet normal 0.873427 0.137141 -0.467245
  outer loop
   vertex 425.738159 -469.158417 104.862053
   vertex 425.781830 -468.224823 105.217705
   vertex 425.874634 -468.288177 105.372589
  endloop
 endfacet
 facet normal 0.274680 0.331053 -0.902748
  outer loop
   vertex 425.554352 -469.132172 104.815750
   vertex 425.781830 -468.224823 105.217705
   vertex 425.738159 -469.158417 104.862053
  endloop
 endfacet
 facet normal 0.274680 0.331053 -0.902748
  outer loop
   vertex 425.598022 -468.198578 105.171402
   vertex 425.781830 -468.224823 105.217705
   vertex 425.554352 -469.132172 104.815750
  endloop
 endfacet
 facet normal -0.484983 0.331044 -0.809445
  outer loop
   vertex 425.554352 -469.132172 104.815750
   vertex 425.387238 -469.158417 104.905144
   vertex 425.598022 -468.198578 105.171402
  endloop
 endfacet
 facet normal -0.484983 0.331044 -0.809445
  outer loop
   vertex 425.598022 -468.198578 105.171402
   vertex 425.387238 -469.158417 104.905144
   vertex 425.430908 -468.224823 105.260796
  endloop
 endfacet
 facet normal -0.960556 0.137100 -0.241943
  outer loop
   vertex 425.430908 -468.224823 105.260796
   vertex 425.387238 -469.158417 104.905144
   vertex 425.334686 -469.221771 105.077881
  endloop
 endfacet
 facet normal -0.960553 0.137101 -0.241952
  outer loop
   vertex 425.334686 -469.221771 105.077881
   vertex 425.378357 -468.288177 105.433525
   vertex 425.430908 -468.224823 105.260796
  endloop
 endfacet
 facet normal -0.873484 -0.137098 0.467152
  outer loop
   vertex 425.427460 -469.285095 105.232765
   vertex 425.378357 -468.288177 105.433525
   vertex 425.334686 -469.221771 105.077881
  endloop
 endfacet
 facet normal -0.873484 -0.137098 0.467152
  outer loop
   vertex 425.471130 -468.351501 105.588409
   vertex 425.378357 -468.288177 105.433525
   vertex 425.427460 -469.285095 105.232765
  endloop
 endfacet
 facet normal -0.274680 -0.331046 0.902751
  outer loop
   vertex 425.427460 -469.285095 105.232765
   vertex 425.611267 -469.311340 105.279068
   vertex 425.471130 -468.351501 105.588409
  endloop
 endfacet
 facet normal -0.274715 -0.331048 0.902740
  outer loop
   vertex 425.471130 -468.351501 105.588409
   vertex 425.611267 -469.311340 105.279068
   vertex 425.654938 -468.377747 105.634720
  endloop
 endfacet
 facet normal 0.485011 -0.331039 0.809430
  outer loop
   vertex 425.654938 -468.377747 105.634720
   vertex 425.611267 -469.311340 105.279068
   vertex 425.778381 -469.285095 105.189667
  endloop
 endfacet
 facet normal 0.485011 -0.331039 0.809430
  outer loop
   vertex 425.778381 -469.285095 105.189667
   vertex 425.822052 -468.351501 105.545319
   vertex 425.654938 -468.377747 105.634720
  endloop
 endfacet
 facet normal 0.960547 -0.137110 0.241971
  outer loop
   vertex 425.830933 -469.221771 105.016937
   vertex 425.822052 -468.351501 105.545319
   vertex 425.778381 -469.285095 105.189667
  endloop
 endfacet
 facet normal 0.960542 -0.137117 0.241989
  outer loop
   vertex 426.495697 -466.683716 106.679832
   vertex 426.662262 -467.363922 105.633255
   vertex 426.705933 -466.430328 105.988907
  endloop
 endfacet
 facet normal 0.873438 0.137133 -0.467226
  outer loop
   vertex 426.705933 -466.430328 105.988907
   vertex 426.662262 -467.363922 105.633255
   vertex 426.291077 -467.110565 105.013718
  endloop
 endfacet
 facet normal 0.873454 0.137096 -0.467207
  outer loop
   vertex 426.291077 -467.110565 105.013718
   vertex 426.334778 -466.176971 105.369370
   vertex 426.705933 -466.430328 105.988907
  endloop
 endfacet
 facet normal 0.274708 0.331041 -0.902745
  outer loop
   vertex 425.555939 -467.005615 104.828499
   vertex 426.334778 -466.176971 105.369370
   vertex 426.291077 -467.110565 105.013718
  endloop
 endfacet
 facet normal 0.274697 0.331050 -0.902744
  outer loop
   vertex 425.599609 -466.072021 105.184151
   vertex 426.334778 -466.176971 105.369370
   vertex 425.555939 -467.005615 104.828499
  endloop
 endfacet
 facet normal -0.484952 0.331049 -0.809462
  outer loop
   vertex 425.555939 -467.005615 104.828499
   vertex 424.887421 -467.110565 105.186089
   vertex 425.599609 -466.072021 105.184151
  endloop
 endfacet
 facet normal -0.484952 0.331049 -0.809462
  outer loop
   vertex 425.599609 -466.072021 105.184151
   vertex 424.887421 -467.110565 105.186089
   vertex 424.931091 -466.176971 105.541740
  endloop
 endfacet
 facet normal -0.960541 0.137118 -0.241992
  outer loop
   vertex 424.931091 -466.176971 105.541740
   vertex 424.887421 -467.110565 105.186089
   vertex 424.677185 -467.363922 105.877022
  endloop
 endfacet
 facet normal -0.960541 0.137118 -0.241992
  outer loop
   vertex 424.677185 -467.363922 105.877022
   vertex 424.720856 -466.430328 106.232674
   vertex 424.931091 -466.176971 105.541740
  endloop
 endfacet
 facet normal -0.873456 -0.137121 0.467197
  outer loop
   vertex 425.048340 -467.617310 106.496552
   vertex 424.720856 -466.430328 106.232674
   vertex 424.677185 -467.363922 105.877022
  endloop
 endfacet
 facet normal -0.873456 -0.137121 0.467197
  outer loop
   vertex 425.092010 -466.683716 106.852203
   vertex 424.720856 -466.430328 106.232674
   vertex 425.048340 -467.617310 106.496552
  endloop
 endfacet
 facet normal -0.274706 -0.331049 0.902742
  outer loop
   vertex 425.048340 -467.617310 106.496552
   vertex 425.783508 -467.722260 106.681778
   vertex 425.092010 -466.683716 106.852203
  endloop
 endfacet
 facet normal -0.274697 -0.331044 0.902747
  outer loop
   vertex 425.092010 -466.683716 106.852203
   vertex 425.783508 -467.722260 106.681778
   vertex 425.827179 -466.788666 107.037422
  endloop
 endfacet
 facet normal 0.484952 -0.331043 0.809464
  outer loop
   vertex 425.827179 -466.788666 107.037422
   vertex 425.783508 -467.722260 106.681778
   vertex 426.452026 -467.617310 106.324188
  endloop
 endfacet
 facet normal 0.484952 -0.331043 0.809464
  outer loop
   vertex 426.452026 -467.617310 106.324188
   vertex 426.495697 -466.683716 106.679832
   vertex 425.827179 -466.788666 107.037422
  endloop
 endfacet
 facet normal 0.960542 -0.137114 0.241987
  outer loop
   vertex 426.662262 -467.363922 105.633255
   vertex 426.495697 -466.683716 106.679832
   vertex 426.452026 -467.617310 106.324188
  endloop
 endfacet
 facet normal 0.764660 -0.644424 -0.003662
  outer loop
   vertex 426.452026 -467.617310 106.324188
   vertex 425.874176 -468.297546 105.369019
   vertex 426.662262 -467.363922 105.633255
  endloop
 endfacet
 facet normal 0.693085 -0.419036 -0.586552
  outer loop
   vertex 426.662262 -467.363922 105.633255
   vertex 425.874176 -468.297546 105.369019
   vertex 425.781403 -468.234192 105.214134
  endloop
 endfacet
 facet normal 0.693071 -0.419003 -0.586591
  outer loop
   vertex 425.781403 -468.234192 105.214134
   vertex 426.291077 -467.110565 105.013718
   vertex 426.662262 -467.363922 105.633255
  endloop
 endfacet
 facet normal 0.200884 -0.259603 -0.944591
  outer loop
   vertex 425.597595 -468.207947 105.167831
   vertex 426.291077 -467.110565 105.013718
   vertex 425.781403 -468.234192 105.214134
  endloop
 endfacet
 facet normal 0.200922 -0.259625 -0.944577
  outer loop
   vertex 425.555939 -467.005615 104.828499
   vertex 426.291077 -467.110565 105.013718
   vertex 425.597595 -468.207947 105.167831
  endloop
 endfacet
 facet normal -0.423490 -0.259619 -0.867902
  outer loop
   vertex 425.597595 -468.207947 105.167831
   vertex 425.430481 -468.234192 105.257225
   vertex 425.555939 -467.005615 104.828499
  endloop
 endfacet
 facet normal -0.423484 -0.259621 -0.867905
  outer loop
   vertex 425.555939 -467.005615 104.828499
   vertex 425.430481 -468.234192 105.257225
   vertex 424.887421 -467.110565 105.186089
  endloop
 endfacet
 facet normal -0.814354 -0.419009 -0.401571
  outer loop
   vertex 424.887421 -467.110565 105.186089
   vertex 425.430481 -468.234192 105.257225
   vertex 425.377899 -468.297546 105.429962
  endloop
 endfacet
 facet normal -0.814412 -0.419009 -0.401453
  outer loop
   vertex 425.377899 -468.297546 105.429962
   vertex 424.677185 -467.363922 105.877022
   vertex 424.887421 -467.110565 105.186089
  endloop
 endfacet
 facet normal -0.742782 -0.644436 0.181595
  outer loop
   vertex 425.470703 -468.360870 105.584839
   vertex 424.677185 -467.363922 105.877022
   vertex 425.377899 -468.297546 105.429962
  endloop
 endfacet
 facet normal -0.742825 -0.644428 0.181449
  outer loop
   vertex 425.048340 -467.617310 106.496552
   vertex 424.677185 -467.363922 105.877022
   vertex 425.470703 -468.360870 105.584839
  endloop
 endfacet
 facet normal -0.250728 -0.803837 0.539428
  outer loop
   vertex 425.470703 -468.360870 105.584839
   vertex 425.654480 -468.387115 105.631149
   vertex 425.048340 -467.617310 106.496552
  endloop
 endfacet
 facet normal -0.250670 -0.803831 0.539463
  outer loop
   vertex 425.048340 -467.617310 106.496552
   vertex 425.654480 -468.387115 105.631149
   vertex 425.783508 -467.722260 106.681778
  endloop
 endfacet
 facet normal 0.373747 -0.803834 0.462780
  outer loop
   vertex 425.783508 -467.722260 106.681778
   vertex 425.654480 -468.387115 105.631149
   vertex 425.821625 -468.360870 105.541748
  endloop
 endfacet
 facet normal 0.373735 -0.803838 0.462782
  outer loop
   vertex 425.821625 -468.360870 105.541748
   vertex 426.452026 -467.617310 106.324188
   vertex 425.783508 -467.722260 106.681778
  endloop
 endfacet
 facet normal 0.764636 -0.644452 -0.003628
  outer loop
   vertex 425.874176 -468.297546 105.369019
   vertex 426.452026 -467.617310 106.324188
   vertex 425.821625 -468.360870 105.541748
  endloop
 endfacet
 facet normal -0.960553 0.137103 -0.241952
  outer loop
   vertex 416.054382 -469.221771 106.217491
   vertex 416.098053 -468.288177 106.573143
   vertex 416.106934 -469.158417 106.044762
  endloop
 endfacet
 facet normal -0.960556 0.137098 -0.241944
  outer loop
   vertex 416.106934 -469.158417 106.044762
   vertex 416.098053 -468.288177 106.573143
   vertex 416.150604 -468.224823 106.400406
  endloop
 endfacet
 facet normal -0.484944 0.331044 -0.809469
  outer loop
   vertex 416.150604 -468.224823 106.400406
   vertex 416.274078 -469.132172 105.955360
   vertex 416.106934 -469.158417 106.044762
  endloop
 endfacet
 facet normal -0.484915 0.331054 -0.809482
  outer loop
   vertex 416.317749 -468.198578 106.311012
   vertex 416.274078 -469.132172 105.955360
   vertex 416.150604 -468.224823 106.400406
  endloop
 endfacet
 facet normal 0.274723 0.331047 -0.902738
  outer loop
   vertex 416.457855 -469.158417 106.001663
   vertex 416.274078 -469.132172 105.955360
   vertex 416.317749 -468.198578 106.311012
  endloop
 endfacet
 facet normal 0.274723 0.331047 -0.902738
  outer loop
   vertex 416.317749 -468.198578 106.311012
   vertex 416.501526 -468.224823 106.357315
   vertex 416.457855 -469.158417 106.001663
  endloop
 endfacet
 facet normal 0.873427 0.137141 -0.467245
  outer loop
   vertex 416.457855 -469.158417 106.001663
   vertex 416.501526 -468.224823 106.357315
   vertex 416.550659 -469.221771 106.156548
  endloop
 endfacet
 facet normal 0.873427 0.137141 -0.467245
  outer loop
   vertex 416.550659 -469.221771 106.156548
   vertex 416.501526 -468.224823 106.357315
   vertex 416.594330 -468.288177 106.512199
  endloop
 endfacet
 facet normal 0.960550 -0.137107 0.241963
  outer loop
   vertex 416.594330 -468.288177 106.512199
   vertex 416.498108 -469.285095 106.329285
   vertex 416.550659 -469.221771 106.156548
  endloop
 endfacet
 facet normal 0.960547 -0.137109 0.241972
  outer loop
   vertex 416.541779 -468.351501 106.684929
   vertex 416.498108 -469.285095 106.329285
   vertex 416.594330 -468.288177 106.512199
  endloop
 endfacet
 facet normal 0.484915 -0.331048 0.809484
  outer loop
   vertex 416.330963 -469.311340 106.418678
   vertex 416.498108 -469.285095 106.329285
   vertex 416.541779 -468.351501 106.684929
  endloop
 endfacet
 facet normal 0.484943 -0.331050 0.809466
  outer loop
   vertex 416.541779 -468.351501 106.684929
   vertex 416.374634 -468.377747 106.774330
   vertex 416.330963 -469.311340 106.418678
  endloop
 endfacet
 facet normal -0.274723 -0.331047 0.902738
  outer loop
   vertex 416.330963 -469.311340 106.418678
   vertex 416.374634 -468.377747 106.774330
   vertex 416.147186 -469.285095 106.372375
  endloop
 endfacet
 facet normal -0.274723 -0.331047 0.902738
  outer loop
   vertex 416.147186 -469.285095 106.372375
   vertex 416.374634 -468.377747 106.774330
   vertex 416.190857 -468.351501 106.728027
  endloop
 endfacet
 facet normal -0.873416 -0.137148 0.467263
  outer loop
   vertex 416.190857 -468.351501 106.728027
   vertex 416.054382 -469.221771 106.217491
   vertex 416.147186 -469.285095 106.372375
  endloop
 endfacet
 facet normal -0.873416 -0.137148 0.467263
  outer loop
   vertex 416.098053 -468.288177 106.573143
   vertex 416.054382 -469.221771 106.217491
   vertex 416.190857 -468.351501 106.728027
  endloop
 endfacet
 facet normal -0.742824 -0.644423 0.181470
  outer loop
   vertex 416.190399 -468.360870 106.724457
   vertex 415.768066 -467.617310 107.636169
   vertex 416.097626 -468.297546 106.569572
  endloop
 endfacet
 facet normal -0.742816 -0.644430 0.181477
  outer loop
   vertex 416.097626 -468.297546 106.569572
   vertex 415.768066 -467.617310 107.636169
   vertex 415.396881 -467.363922 107.016632
  endloop
 endfacet
 facet normal -0.814403 -0.419030 -0.401450
  outer loop
   vertex 415.396881 -467.363922 107.016632
   vertex 416.150177 -468.234192 106.396835
   vertex 416.097626 -468.297546 106.569572
  endloop
 endfacet
 facet normal -0.814402 -0.419025 -0.401456
  outer loop
   vertex 415.607117 -467.110565 106.325699
   vertex 416.150177 -468.234192 106.396835
   vertex 415.396881 -467.363922 107.016632
  endloop
 endfacet
 facet normal -0.423434 -0.259599 -0.867936
  outer loop
   vertex 416.317322 -468.207947 106.307442
   vertex 416.150177 -468.234192 106.396835
   vertex 415.607117 -467.110565 106.325699
  endloop
 endfacet
 facet normal -0.423481 -0.259630 -0.867903
  outer loop
   vertex 415.607117 -467.110565 106.325699
   vertex 416.275635 -467.005615 105.968109
   vertex 416.317322 -468.207947 106.307442
  endloop
 endfacet
 facet normal 0.200912 -0.259622 -0.944580
  outer loop
   vertex 416.317322 -468.207947 106.307442
   vertex 416.275635 -467.005615 105.968109
   vertex 416.501099 -468.234192 106.353745
  endloop
 endfacet
 facet normal 0.200925 -0.259619 -0.944578
  outer loop
   vertex 416.501099 -468.234192 106.353745
   vertex 416.275635 -467.005615 105.968109
   vertex 417.010803 -467.110565 106.153336
  endloop
 endfacet
 facet normal 0.693026 -0.419006 -0.586641
  outer loop
   vertex 417.010803 -467.110565 106.153336
   vertex 416.593903 -468.297546 106.508629
   vertex 416.501099 -468.234192 106.353745
  endloop
 endfacet
 facet normal 0.693084 -0.419006 -0.586573
  outer loop
   vertex 417.381958 -467.363922 106.772865
   vertex 416.593903 -468.297546 106.508629
   vertex 417.010803 -467.110565 106.153336
  endloop
 endfacet
 facet normal 0.764648 -0.644439 -0.003485
  outer loop
   vertex 416.541321 -468.360870 106.681358
   vertex 416.593903 -468.297546 106.508629
   vertex 417.381958 -467.363922 106.772865
  endloop
 endfacet
 facet normal 0.764655 -0.644429 -0.003665
  outer loop
   vertex 417.381958 -467.363922 106.772865
   vertex 417.171722 -467.617310 107.463799
   vertex 416.541321 -468.360870 106.681358
  endloop
 endfacet
 facet normal 0.373792 -0.803838 0.462736
  outer loop
   vertex 416.541321 -468.360870 106.681358
   vertex 417.171722 -467.617310 107.463799
   vertex 416.374207 -468.387115 106.770760
  endloop
 endfacet
 facet normal 0.373739 -0.803831 0.462790
  outer loop
   vertex 416.374207 -468.387115 106.770760
   vertex 417.171722 -467.617310 107.463799
   vertex 416.503204 -467.722260 107.821388
  endloop
 endfacet
 facet normal -0.250671 -0.803834 0.539458
  outer loop
   vertex 416.503204 -467.722260 107.821388
   vertex 416.190399 -468.360870 106.724457
   vertex 416.374207 -468.387115 106.770760
  endloop
 endfacet
 facet normal -0.250674 -0.803833 0.539458
  outer loop
   vertex 415.768066 -467.617310 107.636169
   vertex 416.190399 -468.360870 106.724457
   vertex 416.503204 -467.722260 107.821388
  endloop
 endfacet
endsolid