solid stl file generated from DOUG
 facet normal 0.834814 0.550493 -0.006572
  outer loop
   vertex 452.636230 -95.051697 109.636612
   vertex 452.568756 -94.950096 109.576027
   vertex 450.349121 -91.485161 117.859833
  endloop
 endfacet
 facet normal 0.096941 0.927184 -0.361846
  outer loop
   vertex 450.349121 -91.485161 117.859833
   vertex 452.568756 -94.950096 109.576027
   vertex 450.249847 -91.485161 117.833237
  endloop
 endfacet
 facet normal -0.719605 0.550584 -0.423114
  outer loop
   vertex 451.483490 -91.586761 118.206291
   vertex 451.572235 -91.485161 118.187569
   vertex 453.791870 -94.950096 109.903763
  endloop
 endfacet
 facet normal 0.096969 0.927184 -0.361838
  outer loop
   vertex 453.791870 -94.950096 109.903763
   vertex 451.572235 -91.485161 118.187569
   vertex 451.671478 -91.485161 118.214165
  endloop
 endfacet
 facet normal 0.096941 0.927184 -0.361845
  outer loop
   vertex 451.671478 -91.485161 118.214165
   vertex 453.891144 -94.950096 109.930359
   vertex 453.791870 -94.950096 109.903763
  endloop
 endfacet
 facet normal 0.436775 0.865562 -0.245012
  outer loop
   vertex 451.600464 -92.164536 118.479294
   vertex 453.820099 -95.629463 110.195488
   vertex 451.571259 -92.153336 118.466797
  endloop
 endfacet
 facet normal 0.436948 0.865496 -0.244937
  outer loop
   vertex 451.571259 -92.153336 118.466797
   vertex 453.820099 -95.629463 110.195488
   vertex 453.790924 -95.618271 110.182991
  endloop
 endfacet
 facet normal 0.965927 0.000018 0.258815
  outer loop
   vertex 453.790924 -95.618271 110.182991
   vertex 453.846680 -95.084991 109.974869
   vertex 451.571259 -92.153336 118.466797
  endloop
 endfacet
 facet normal 0.834814 0.550493 -0.006572
  outer loop
   vertex 450.349121 -91.485161 117.859833
   vertex 450.416595 -91.586761 117.920418
   vertex 452.636230 -95.051697 109.636612
  endloop
 endfacet
 facet normal 0.096955 0.927184 -0.361842
  outer loop
   vertex 452.636230 -95.051697 109.636612
   vertex 450.416595 -91.586761 117.920418
   vertex 451.483490 -91.586761 118.206291
  endloop
 endfacet
 facet normal 0.096953 0.927184 -0.361842
  outer loop
   vertex 451.483490 -91.586761 118.206291
   vertex 453.703156 -95.051697 109.922485
   vertex 452.636230 -95.051697 109.636612
  endloop
 endfacet
 facet normal -0.719710 0.550463 -0.423094
  outer loop
   vertex 453.791870 -94.950096 109.903763
   vertex 453.703156 -95.051697 109.922485
   vertex 451.483490 -91.586761 118.206291
  endloop
 endfacet
 facet normal 0.965923 -0.000020 0.258830
  outer loop
   vertex 453.891144 -94.950096 109.930359
   vertex 451.671478 -91.485161 118.214165
   vertex 453.878204 -95.073799 109.978638
  endloop
 endfacet
 facet normal 0.965945 0.000183 0.258747
  outer loop
   vertex 453.878204 -95.073799 109.978638
   vertex 451.671478 -91.485161 118.214165
   vertex 451.658569 -91.608864 118.262444
  endloop
 endfacet
 facet normal 0.255817 -0.865538 0.430582
  outer loop
   vertex 451.658569 -91.608864 118.262444
   vertex 453.846680 -95.084991 109.974869
   vertex 453.878204 -95.073799 109.978638
  endloop
 endfacet
 facet normal 0.256001 -0.865473 0.430603
  outer loop
   vertex 451.627045 -91.620064 118.258675
   vertex 453.846680 -95.084991 109.974869
   vertex 451.658569 -91.608864 118.262444
  endloop
 endfacet
 facet normal 0.965923 -0.000031 0.258831
  outer loop
   vertex 451.571259 -92.153336 118.466797
   vertex 453.846680 -95.084991 109.974869
   vertex 451.627045 -91.620064 118.258675
  endloop
 endfacet
 facet normal -0.239974 0.374596 0.895595
  outer loop
   vertex 450.106018 -91.266151 118.304192
   vertex 451.479095 -92.045456 118.998062
   vertex 451.560577 -91.266151 118.693939
  endloop
 endfacet
 facet normal 0.965923 0.000014 0.258831
  outer loop
   vertex 451.560577 -91.266151 118.693939
   vertex 451.479095 -92.045456 118.998062
   vertex 451.800568 -91.640762 117.798347
  endloop
 endfacet
 facet normal 0.096956 0.927183 -0.361844
  outer loop
   vertex 451.800568 -91.640762 117.798347
   vertex 450.346008 -91.640762 117.408600
   vertex 451.560577 -91.266151 118.693939
  endloop
 endfacet
 facet normal 0.239972 -0.374615 -0.895588
  outer loop
   vertex 451.719055 -92.420059 118.102478
   vertex 450.346008 -91.640762 117.408600
   vertex 451.800568 -91.640762 117.798347
  endloop
 endfacet
 facet normal 0.239977 -0.374607 -0.895589
  outer loop
   vertex 450.264496 -92.420059 117.712723
   vertex 450.346008 -91.640762 117.408600
   vertex 451.719055 -92.420059 118.102478
  endloop
 endfacet
 facet normal -0.096957 -0.927184 0.361842
  outer loop
   vertex 451.719055 -92.420059 118.102478
   vertex 451.479095 -92.045456 118.998062
   vertex 450.264496 -92.420059 117.712723
  endloop
 endfacet
 facet normal -0.096955 -0.927185 0.361840
  outer loop
   vertex 450.264496 -92.420059 117.712723
   vertex 451.479095 -92.045456 118.998062
   vertex 450.024536 -92.045456 118.608315
  endloop
 endfacet
 facet normal -0.239974 0.374596 0.895595
  outer loop
   vertex 450.024536 -92.045456 118.608315
   vertex 451.479095 -92.045456 118.998062
   vertex 450.106018 -91.266151 118.304192
  endloop
 endfacet
 facet normal -0.965923 -0.000014 -0.258831
  outer loop
   vertex 450.106018 -91.266151 118.304192
   vertex 450.346008 -91.640762 117.408600
   vertex 450.024536 -92.045456 118.608315
  endloop
 endfacet
 facet normal 0.096956 0.927183 -0.361844
  outer loop
   vertex 451.560577 -91.266151 118.693939
   vertex 450.346008 -91.640762 117.408600
   vertex 450.106018 -91.266151 118.304192
  endloop
 endfacet
 facet normal -0.239971 0.374607 0.895591
  outer loop
   vertex 453.798615 -94.759811 110.341461
   vertex 452.344055 -94.759804 109.951714
   vertex 453.717133 -95.539108 110.645592
  endloop
 endfacet
 facet normal -0.239973 0.374604 0.895592
  outer loop
   vertex 453.717133 -95.539108 110.645592
   vertex 452.344055 -94.759804 109.951714
   vertex 452.262573 -95.539108 110.255844
  endloop
 endfacet
 facet normal -0.096954 -0.927186 0.361838
  outer loop
   vertex 452.262573 -95.539108 110.255844
   vertex 452.502563 -95.913712 109.360252
   vertex 453.717133 -95.539108 110.645592
  endloop
 endfacet
 facet normal -0.965923 -0.000016 -0.258830
  outer loop
   vertex 452.344055 -94.759804 109.951714
   vertex 452.502563 -95.913712 109.360252
   vertex 452.262573 -95.539108 110.255844
  endloop
 endfacet
 facet normal -0.965923 -0.000016 -0.258830
  outer loop
   vertex 452.584045 -95.134415 109.056122
   vertex 452.502563 -95.913712 109.360252
   vertex 452.344055 -94.759804 109.951714
  endloop
 endfacet
 facet normal 0.096956 0.927183 -0.361844
  outer loop
   vertex 452.344055 -94.759804 109.951714
   vertex 454.038605 -95.134415 109.445869
   vertex 452.584045 -95.134415 109.056122
  endloop
 endfacet
 facet normal 0.239973 -0.374607 -0.895591
  outer loop
   vertex 452.584045 -95.134415 109.056122
   vertex 454.038605 -95.134415 109.445869
   vertex 452.502563 -95.913712 109.360252
  endloop
 endfacet
 facet normal 0.239976 -0.374615 -0.895586
  outer loop
   vertex 452.502563 -95.913712 109.360252
   vertex 454.038605 -95.134415 109.445869
   vertex 453.957092 -95.913712 109.750000
  endloop
 endfacet
 facet normal -0.096957 -0.927185 0.361840
  outer loop
   vertex 453.957092 -95.913712 109.750000
   vertex 453.717133 -95.539108 110.645592
   vertex 452.502563 -95.913712 109.360252
  endloop
 endfacet
 facet normal 0.965927 -0.000027 0.258816
  outer loop
   vertex 454.038605 -95.134415 109.445869
   vertex 453.717133 -95.539108 110.645592
   vertex 453.957092 -95.913712 109.750000
  endloop
 endfacet
 facet normal 0.965923 0.000016 0.258830
  outer loop
   vertex 453.798615 -94.759811 110.341461
   vertex 453.717133 -95.539108 110.645592
   vertex 454.038605 -95.134415 109.445869
  endloop
 endfacet
 facet normal 0.096959 0.927186 -0.361836
  outer loop
   vertex 454.038605 -95.134415 109.445869
   vertex 452.344055 -94.759804 109.951714
   vertex 453.798615 -94.759811 110.341461
  endloop
 endfacet
 facet normal 0.096969 0.927184 -0.361838
  outer loop
   vertex 452.568756 -94.950096 109.576027
   vertex 452.469513 -94.950096 109.549431
   vertex 450.249847 -91.485161 117.833237
  endloop
 endfacet
 facet normal -0.965923 0.000020 -0.258830
  outer loop
   vertex 450.249847 -91.485161 117.833237
   vertex 452.469513 -94.950096 109.549431
   vertex 452.456573 -95.073799 109.597710
  endloop
 endfacet
 facet normal -0.965923 0.000020 -0.258830
  outer loop
   vertex 452.456573 -95.073799 109.597710
   vertex 450.236908 -91.608864 117.881516
   vertex 450.249847 -91.485161 117.833237
  endloop
 endfacet
 facet normal -0.436996 -0.865477 0.244916
  outer loop
   vertex 452.485748 -95.084991 109.610214
   vertex 450.236908 -91.608864 117.881516
   vertex 452.456573 -95.073799 109.597710
  endloop
 endfacet
 facet normal -0.436823 -0.865543 0.244991
  outer loop
   vertex 450.266113 -91.620064 117.894020
   vertex 450.236908 -91.608864 117.881516
   vertex 452.485748 -95.084991 109.610214
  endloop
 endfacet
 facet normal -0.965927 -0.000013 -0.258813
  outer loop
   vertex 452.485748 -95.084991 109.610214
   vertex 452.429993 -95.618271 109.818329
   vertex 450.266113 -91.620064 117.894020
  endloop
 endfacet
 facet normal -0.965922 0.000033 -0.258835
  outer loop
   vertex 450.266113 -91.620064 117.894020
   vertex 452.429993 -95.618271 109.818329
   vertex 450.210327 -92.153336 118.102135
  endloop
 endfacet
 facet normal -0.255817 0.865538 -0.430583
  outer loop
   vertex 450.210327 -92.153336 118.102135
   vertex 452.429993 -95.618271 109.818329
   vertex 452.398468 -95.629463 109.814560
  endloop
 endfacet
 facet normal -0.256001 0.865473 -0.430604
  outer loop
   vertex 452.398468 -95.629463 109.814560
   vertex 450.178802 -92.164536 118.098366
   vertex 450.210327 -92.153336 118.102135
  endloop
 endfacet
 facet normal -0.965897 0.000271 -0.258928
  outer loop
   vertex 452.392029 -95.690842 109.838516
   vertex 450.178802 -92.164536 118.098366
   vertex 452.398468 -95.629463 109.814560
  endloop
 endfacet
 facet normal -0.965941 -0.000140 -0.258764
  outer loop
   vertex 450.172394 -92.225914 118.122322
   vertex 450.178802 -92.164536 118.098366
   vertex 452.392029 -95.690842 109.838516
  endloop
 endfacet
 facet normal -0.096960 -0.927184 0.361840
  outer loop
   vertex 452.392029 -95.690842 109.838516
   vertex 453.813660 -95.690849 110.219444
   vertex 450.172394 -92.225914 118.122322
  endloop
 endfacet
 facet normal -0.096956 -0.927184 0.361842
  outer loop
   vertex 450.172394 -92.225914 118.122322
   vertex 453.813660 -95.690849 110.219444
   vertex 451.594025 -92.225914 118.503250
  endloop
 endfacet
 facet normal 0.965897 -0.000273 0.258925
  outer loop
   vertex 451.594025 -92.225914 118.503250
   vertex 453.813660 -95.690849 110.219444
   vertex 451.600464 -92.164536 118.479294
  endloop
 endfacet
 facet normal 0.965926 -0.000026 0.258818
  outer loop
   vertex 451.719055 -92.420059 118.102478
   vertex 451.800568 -91.640762 117.798347
   vertex 451.479095 -92.045456 118.998062
  endloop
 endfacet
 facet normal -0.965926 0.000029 -0.258817
  outer loop
   vertex 450.346008 -91.640762 117.408600
   vertex 450.264496 -92.420059 117.712723
   vertex 450.024536 -92.045456 118.608315
  endloop
 endfacet
 facet normal 0.965897 -0.000273 0.258925
  outer loop
   vertex 453.813660 -95.690849 110.219444
   vertex 453.820099 -95.629463 110.195488
   vertex 451.600464 -92.164536 118.479294
  endloop
 endfacet
 facet normal -0.147938 -0.346089 -0.926465
  outer loop
   vertex 453.164520 -97.904709 109.798843
   vertex 453.067566 -98.831894 110.160683
   vertex 452.411224 -97.794991 109.878143
  endloop
 endfacet
 facet normal -0.147938 -0.346089 -0.926465
  outer loop
   vertex 452.411224 -97.794991 109.878143
   vertex 453.067566 -98.831894 110.160683
   vertex 452.314270 -98.722176 110.239983
  endloop
 endfacet
 facet normal -0.800562 -0.143357 -0.581850
  outer loop
   vertex 452.314270 -98.722176 110.239983
   vertex 451.958618 -97.530098 110.435616
   vertex 452.411224 -97.794991 109.878143
  endloop
 endfacet
 facet normal -0.800562 -0.143357 -0.581850
  outer loop
   vertex 451.861664 -98.457283 110.797455
   vertex 451.958618 -97.530098 110.435616
   vertex 452.314270 -98.722176 110.239983
  endloop
 endfacet
 facet normal -0.984234 0.143352 0.103603
  outer loop
   vertex 452.071838 -97.265213 111.144699
   vertex 451.958618 -97.530098 110.435616
   vertex 451.861664 -98.457283 110.797455
  endloop
 endfacet
 facet normal -0.984234 0.143352 0.103602
  outer loop
   vertex 451.861664 -98.457283 110.797455
   vertex 451.974884 -98.192398 111.506546
   vertex 452.071838 -97.265213 111.144699
  endloop
 endfacet
 facet normal -0.591348 0.346094 0.728373
  outer loop
   vertex 452.071838 -97.265213 111.144699
   vertex 451.974884 -98.192398 111.506546
   vertex 452.684570 -97.155495 111.590027
  endloop
 endfacet
 facet normal -0.591342 0.346090 0.728379
  outer loop
   vertex 452.684570 -97.155495 111.590027
   vertex 451.974884 -98.192398 111.506546
   vertex 452.587616 -98.082680 111.951866
  endloop
 endfacet
 facet normal 0.147938 0.346089 0.926465
  outer loop
   vertex 452.587616 -98.082680 111.951866
   vertex 453.437866 -97.265213 111.510727
   vertex 452.684570 -97.155495 111.590027
  endloop
 endfacet
 facet normal 0.147938 0.346089 0.926465
  outer loop
   vertex 453.340912 -98.192398 111.872566
   vertex 453.437866 -97.265213 111.510727
   vertex 452.587616 -98.082680 111.951866
  endloop
 endfacet
 facet normal 0.800562 0.143357 0.581850
  outer loop
   vertex 453.890472 -97.530106 110.953255
   vertex 453.437866 -97.265213 111.510727
   vertex 453.340912 -98.192398 111.872566
  endloop
 endfacet
 facet normal 0.800561 0.143358 0.581851
  outer loop
   vertex 453.340912 -98.192398 111.872566
   vertex 453.793518 -98.457283 111.315094
   vertex 453.890472 -97.530106 110.953255
  endloop
 endfacet
 facet normal 0.984234 -0.143353 -0.103603
  outer loop
   vertex 453.890472 -97.530106 110.953255
   vertex 453.793518 -98.457283 111.315094
   vertex 453.777252 -97.794991 110.244171
  endloop
 endfacet
 facet normal 0.984234 -0.143351 -0.103602
  outer loop
   vertex 453.777252 -97.794991 110.244171
   vertex 453.793518 -98.457283 111.315094
   vertex 453.680298 -98.722176 110.606010
  endloop
 endfacet
 facet normal 0.591348 -0.346089 -0.728375
  outer loop
   vertex 453.680298 -98.722176 110.606010
   vertex 453.164520 -97.904709 109.798843
   vertex 453.777252 -97.794991 110.244171
  endloop
 endfacet
 facet normal 0.591348 -0.346089 -0.728375
  outer loop
   vertex 453.067566 -98.831894 110.160683
   vertex 453.164520 -97.904709 109.798843
   vertex 453.680298 -98.722176 110.606010
  endloop
 endfacet
 facet normal 0.147930 0.346092 0.926465
  outer loop
   vertex 450.905121 -93.043442 118.914078
   vertex 450.813751 -92.088829 118.572060
   vertex 450.716797 -93.016006 118.933899
  endloop
 endfacet
 facet normal -0.591296 0.346101 0.728412
  outer loop
   vertex 450.716797 -93.016006 118.933899
   vertex 450.813751 -92.088829 118.572060
   vertex 450.660553 -92.116257 118.460732
  endloop
 endfacet
 facet normal -0.591307 0.346096 0.728405
  outer loop
   vertex 450.660553 -92.116257 118.460732
   vertex 450.563599 -93.043442 118.822571
   vertex 450.716797 -93.016006 118.933899
  endloop
 endfacet
 facet normal -0.984246 0.143323 0.103527
  outer loop
   vertex 450.632263 -92.182480 118.283455
   vertex 450.563599 -93.043442 118.822571
   vertex 450.660553 -92.116257 118.460732
  endloop
 endfacet
 facet normal -0.984245 0.143328 0.103535
  outer loop
   vertex 450.535309 -93.109657 118.645302
   vertex 450.563599 -93.043442 118.822571
   vertex 450.632263 -92.182480 118.283455
  endloop
 endfacet
 facet normal -0.800612 -0.143333 -0.581787
  outer loop
   vertex 450.632263 -92.182480 118.283455
   vertex 450.745392 -92.248695 118.144089
   vertex 450.535309 -93.109657 118.645302
  endloop
 endfacet
 facet normal -0.800629 -0.143318 -0.581768
  outer loop
   vertex 450.535309 -93.109657 118.645302
   vertex 450.745392 -92.248695 118.144089
   vertex 450.648438 -93.175880 118.505928
  endloop
 endfacet
 facet normal -0.147930 -0.346090 -0.926466
  outer loop
   vertex 450.648438 -93.175880 118.505928
   vertex 450.745392 -92.248695 118.144089
   vertex 450.933716 -92.276131 118.124268
  endloop
 endfacet
 facet normal -0.147930 -0.346090 -0.926466
  outer loop
   vertex 450.933716 -92.276131 118.124268
   vertex 450.836761 -93.203316 118.486107
   vertex 450.648438 -93.175880 118.505928
  endloop
 endfacet
 facet normal 0.591307 -0.346096 -0.728405
  outer loop
   vertex 451.086914 -92.248695 118.235596
   vertex 450.836761 -93.203316 118.486107
   vertex 450.933716 -92.276131 118.124268
  endloop
 endfacet
 facet normal 0.591307 -0.346096 -0.728405
  outer loop
   vertex 450.989960 -93.175880 118.597435
   vertex 450.836761 -93.203316 118.486107
   vertex 451.086914 -92.248695 118.235596
  endloop
 endfacet
 facet normal 0.984245 -0.143326 -0.103536
  outer loop
   vertex 451.086914 -92.248695 118.235596
   vertex 451.115204 -92.182480 118.412865
   vertex 450.989960 -93.175880 118.597435
  endloop
 endfacet
 facet normal 0.984245 -0.143326 -0.103532
  outer loop
   vertex 450.989960 -93.175880 118.597435
   vertex 451.115204 -92.182480 118.412865
   vertex 451.018250 -93.109665 118.774712
  endloop
 endfacet
 facet normal 0.800629 0.143322 0.581766
  outer loop
   vertex 451.018250 -93.109665 118.774712
   vertex 451.115204 -92.182480 118.412865
   vertex 451.002075 -92.116257 118.552238
  endloop
 endfacet
 facet normal 0.800615 0.143326 0.581784
  outer loop
   vertex 451.002075 -92.116257 118.552238
   vertex 450.905121 -93.043442 118.914078
   vertex 451.018250 -93.109665 118.774712
  endloop
 endfacet
 facet normal 0.147916 0.346092 0.926467
  outer loop
   vertex 450.813751 -92.088829 118.572060
   vertex 450.905121 -93.043442 118.914078
   vertex 451.002075 -92.116257 118.552238
  endloop
 endfacet
 facet normal 0.147938 0.346089 0.926465
  outer loop
   vertex 451.097168 -94.689835 120.246346
   vertex 450.440826 -93.652931 119.963806
   vertex 450.343872 -94.580116 120.325645
  endloop
 endfacet
 facet normal -0.591348 0.346089 0.728375
  outer loop
   vertex 450.343872 -94.580116 120.325645
   vertex 450.440826 -93.652931 119.963806
   vertex 449.828094 -93.762650 119.518478
  endloop
 endfacet
 facet normal -0.591348 0.346089 0.728375
  outer loop
   vertex 449.828094 -93.762650 119.518478
   vertex 449.731140 -94.689835 119.880318
   vertex 450.343872 -94.580116 120.325645
  endloop
 endfacet
 facet normal -0.984234 0.143352 0.103603
  outer loop
   vertex 449.714874 -94.027534 118.809395
   vertex 449.731140 -94.689835 119.880318
   vertex 449.828094 -93.762650 119.518478
  endloop
 endfacet
 facet normal -0.984234 0.143352 0.103603
  outer loop
   vertex 449.617920 -94.954720 119.171234
   vertex 449.731140 -94.689835 119.880318
   vertex 449.714874 -94.027534 118.809395
  endloop
 endfacet
 facet normal -0.800562 -0.143357 -0.581850
  outer loop
   vertex 449.714874 -94.027534 118.809395
   vertex 450.167480 -94.292427 118.251923
   vertex 449.617920 -94.954720 119.171234
  endloop
 endfacet
 facet normal -0.800561 -0.143358 -0.581851
  outer loop
   vertex 449.617920 -94.954720 119.171234
   vertex 450.167480 -94.292427 118.251923
   vertex 450.070526 -95.219604 118.613762
  endloop
 endfacet
 facet normal -0.147938 -0.346091 -0.926464
  outer loop
   vertex 450.070526 -95.219604 118.613762
   vertex 450.167480 -94.292427 118.251923
   vertex 450.920776 -94.402145 118.172623
  endloop
 endfacet
 facet normal -0.147941 -0.346088 -0.926464
  outer loop
   vertex 450.920776 -94.402145 118.172623
   vertex 450.823822 -95.329330 118.534462
   vertex 450.070526 -95.219604 118.613762
  endloop
 endfacet
 facet normal 0.591348 -0.346089 -0.728375
  outer loop
   vertex 451.533508 -94.292427 118.617950
   vertex 450.823822 -95.329330 118.534462
   vertex 450.920776 -94.402145 118.172623
  endloop
 endfacet
 facet normal 0.591348 -0.346089 -0.728375
  outer loop
   vertex 451.436554 -95.219612 118.979790
   vertex 450.823822 -95.329330 118.534462
   vertex 451.533508 -94.292427 118.617950
  endloop
 endfacet
 facet normal 0.984234 -0.143352 -0.103603
  outer loop
   vertex 451.533508 -94.292427 118.617950
   vertex 451.646729 -94.027542 119.327034
   vertex 451.436554 -95.219612 118.979790
  endloop
 endfacet
 facet normal 0.984234 -0.143352 -0.103602
  outer loop
   vertex 451.436554 -95.219612 118.979790
   vertex 451.646729 -94.027542 119.327034
   vertex 451.549774 -94.954720 119.688873
  endloop
 endfacet
 facet normal 0.800562 0.143358 0.581850
  outer loop
   vertex 451.549774 -94.954720 119.688873
   vertex 451.646729 -94.027542 119.327034
   vertex 451.194122 -93.762650 119.884506
  endloop
 endfacet
 facet normal 0.800561 0.143357 0.581851
  outer loop
   vertex 451.194122 -93.762650 119.884506
   vertex 451.097168 -94.689835 120.246346
   vertex 451.549774 -94.954720 119.688873
  endloop
 endfacet
 facet normal 0.147938 0.346089 0.926465
  outer loop
   vertex 450.440826 -93.652931 119.963806
   vertex 451.097168 -94.689835 120.246346
   vertex 451.194122 -93.762650 119.884506
  endloop
 endfacet
 facet normal 0.176819 0.812550 0.555426
  outer loop
   vertex 451.194122 -93.762650 119.884506
   vertex 450.717743 -93.006706 118.930267
   vertex 450.440826 -93.652931 119.963806
  endloop
 endfacet
 facet normal -0.430861 0.812540 0.392604
  outer loop
   vertex 450.440826 -93.652931 119.963806
   vertex 450.717743 -93.006706 118.930267
   vertex 450.564575 -93.034134 118.818939
  endloop
 endfacet
 facet normal -0.430843 0.812547 0.392609
  outer loop
   vertex 450.564575 -93.034134 118.818939
   vertex 449.828094 -93.762650 119.518478
   vertex 450.440826 -93.652931 119.963806
  endloop
 endfacet
 facet normal -0.753764 0.645931 -0.120883
  outer loop
   vertex 450.536255 -93.100357 118.641670
   vertex 449.828094 -93.762650 119.518478
   vertex 450.564575 -93.034134 118.818939
  endloop
 endfacet
 facet normal -0.753785 0.645899 -0.120924
  outer loop
   vertex 449.714874 -94.027534 118.809395
   vertex 449.828094 -93.762650 119.518478
   vertex 450.536255 -93.100357 118.641670
  endloop
 endfacet
 facet normal -0.602818 0.410238 -0.684336
  outer loop
   vertex 450.536255 -93.100357 118.641670
   vertex 450.649414 -93.166573 118.502296
   vertex 449.714874 -94.027534 118.809395
  endloop
 endfacet
 facet normal -0.602813 0.410229 -0.684345
  outer loop
   vertex 449.714874 -94.027534 118.809395
   vertex 450.649414 -93.166573 118.502296
   vertex 450.167480 -94.292427 118.251923
  endloop
 endfacet
 facet normal -0.066355 0.243586 -0.967607
  outer loop
   vertex 450.167480 -94.292427 118.251923
   vertex 450.649414 -93.166573 118.502296
   vertex 450.837738 -93.194008 118.482475
  endloop
 endfacet
 facet normal -0.066379 0.243600 -0.967602
  outer loop
   vertex 450.837738 -93.194008 118.482475
   vertex 450.920776 -94.402145 118.172623
   vertex 450.167480 -94.292427 118.251923
  endloop
 endfacet
 facet normal 0.541227 0.243612 -0.804815
  outer loop
   vertex 450.990936 -93.166573 118.593803
   vertex 450.920776 -94.402145 118.172623
   vertex 450.837738 -93.194008 118.482475
  endloop
 endfacet
 facet normal 0.541287 0.243596 -0.804779
  outer loop
   vertex 451.533508 -94.292427 118.617950
   vertex 450.920776 -94.402145 118.172623
   vertex 450.990936 -93.166573 118.593803
  endloop
 endfacet
 facet normal 0.864247 0.410253 -0.291152
  outer loop
   vertex 450.990936 -93.166573 118.593803
   vertex 451.019226 -93.100357 118.771080
   vertex 451.533508 -94.292427 118.617950
  endloop
 endfacet
 facet normal 0.864216 0.410252 -0.291244
  outer loop
   vertex 451.533508 -94.292427 118.617950
   vertex 451.019226 -93.100357 118.771080
   vertex 451.646729 -94.027542 119.327034
  endloop
 endfacet
 facet normal 0.713292 0.645895 0.272093
  outer loop
   vertex 451.646729 -94.027542 119.327034
   vertex 451.019226 -93.100357 118.771080
   vertex 450.906097 -93.034134 118.910446
  endloop
 endfacet
 facet normal 0.713255 0.645901 0.272174
  outer loop
   vertex 450.906097 -93.034134 118.910446
   vertex 451.194122 -93.762650 119.884506
   vertex 451.646729 -94.027542 119.327034
  endloop
 endfacet
 facet normal 0.176772 0.812546 0.555446
  outer loop
   vertex 450.717743 -93.006706 118.930267
   vertex 451.194122 -93.762650 119.884506
   vertex 450.906097 -93.034134 118.910446
  endloop
 endfacet
 facet normal -0.147930 -0.346090 -0.926466
  outer loop
   vertex 453.177490 -95.778694 109.750488
   vertex 453.080536 -96.705879 110.112328
   vertex 452.989166 -95.751259 109.770309
  endloop
 endfacet
 facet normal -0.147967 -0.346091 -0.926459
  outer loop
   vertex 452.989166 -95.751259 109.770309
   vertex 453.080536 -96.705879 110.112328
   vertex 452.892212 -96.678444 110.132156
  endloop
 endfacet
 facet normal -0.800550 -0.143368 -0.581863
  outer loop
   vertex 452.892212 -96.678444 110.132156
   vertex 452.876007 -95.685043 109.909683
   vertex 452.989166 -95.751259 109.770309
  endloop
 endfacet
 facet normal -0.800536 -0.143372 -0.581882
  outer loop
   vertex 452.779053 -96.612228 110.271523
   vertex 452.876007 -95.685043 109.909683
   vertex 452.892212 -96.678444 110.132156
  endloop
 endfacet
 facet normal -0.984246 0.143324 0.103530
  outer loop
   vertex 452.904297 -95.618820 110.086952
   vertex 452.876007 -95.685043 109.909683
   vertex 452.779053 -96.612228 110.271523
  endloop
 endfacet
 facet normal -0.984246 0.143324 0.103530
  outer loop
   vertex 452.779053 -96.612228 110.271523
   vertex 452.807343 -96.546005 110.448792
   vertex 452.904297 -95.618820 110.086952
  endloop
 endfacet
 facet normal -0.591296 0.346098 0.728413
  outer loop
   vertex 452.904297 -95.618820 110.086952
   vertex 452.807343 -96.546005 110.448792
   vertex 453.057495 -95.591393 110.198280
  endloop
 endfacet
 facet normal -0.591329 0.346100 0.728385
  outer loop
   vertex 453.057495 -95.591393 110.198280
   vertex 452.807343 -96.546005 110.448792
   vertex 452.960541 -96.518570 110.560127
  endloop
 endfacet
 facet normal 0.147917 0.346101 0.926464
  outer loop
   vertex 452.960541 -96.518570 110.560127
   vertex 453.245819 -95.618820 110.178459
   vertex 453.057495 -95.591393 110.198280
  endloop
 endfacet
 facet normal 0.147966 0.346084 0.926462
  outer loop
   vertex 453.148865 -96.546005 110.540298
   vertex 453.245819 -95.618820 110.178459
   vertex 452.960541 -96.518570 110.560127
  endloop
 endfacet
 facet normal 0.800540 0.143370 0.581877
  outer loop
   vertex 453.358978 -95.685043 110.039093
   vertex 453.245819 -95.618820 110.178459
   vertex 453.148865 -96.546005 110.540298
  endloop
 endfacet
 facet normal 0.800540 0.143370 0.581877
  outer loop
   vertex 453.148865 -96.546005 110.540298
   vertex 453.262024 -96.612228 110.400932
   vertex 453.358978 -95.685043 110.039093
  endloop
 endfacet
 facet normal 0.984222 -0.143379 -0.103677
  outer loop
   vertex 453.358978 -95.685043 110.039093
   vertex 453.262024 -96.612228 110.400932
   vertex 453.330658 -95.751259 109.861816
  endloop
 endfacet
 facet normal 0.984222 -0.143381 -0.103681
  outer loop
   vertex 453.330658 -95.751259 109.861816
   vertex 453.262024 -96.612228 110.400932
   vertex 453.233704 -96.678444 110.223663
  endloop
 endfacet
 facet normal 0.591382 -0.346088 -0.728348
  outer loop
   vertex 453.233704 -96.678444 110.223663
   vertex 453.177490 -95.778694 109.750488
   vertex 453.330658 -95.751259 109.861816
  endloop
 endfacet
 facet normal 0.591406 -0.346079 -0.728333
  outer loop
   vertex 453.080536 -96.705879 110.112328
   vertex 453.177490 -95.778694 109.750488
   vertex 453.233704 -96.678444 110.223663
  endloop
 endfacet
 facet normal 0.541260 0.243588 -0.804800
  outer loop
   vertex 453.234680 -96.669136 110.220032
   vertex 453.777252 -97.794991 110.244171
   vertex 453.081482 -96.696571 110.108696
  endloop
 endfacet
 facet normal 0.541284 0.243606 -0.804778
  outer loop
   vertex 453.081482 -96.696571 110.108696
   vertex 453.777252 -97.794991 110.244171
   vertex 453.164520 -97.904709 109.798843
  endloop
 endfacet
 facet normal -0.066392 0.243599 -0.967601
  outer loop
   vertex 453.164520 -97.904709 109.798843
   vertex 452.893158 -96.669136 110.128525
   vertex 453.081482 -96.696571 110.108696
  endloop
 endfacet
 facet normal -0.066379 0.243601 -0.967601
  outer loop
   vertex 452.411224 -97.794991 109.878143
   vertex 452.893158 -96.669136 110.128525
   vertex 453.164520 -97.904709 109.798843
  endloop
 endfacet
 facet normal -0.602869 0.410245 -0.684286
  outer loop
   vertex 452.780029 -96.602921 110.267891
   vertex 452.893158 -96.669136 110.128525
   vertex 452.411224 -97.794991 109.878143
  endloop
 endfacet
 facet normal -0.602804 0.410243 -0.684345
  outer loop
   vertex 452.411224 -97.794991 109.878143
   vertex 451.958618 -97.530098 110.435616
   vertex 452.780029 -96.602921 110.267891
  endloop
 endfacet
 facet normal -0.753773 0.645899 -0.120999
  outer loop
   vertex 452.780029 -96.602921 110.267891
   vertex 451.958618 -97.530098 110.435616
   vertex 452.808319 -96.536697 110.445160
  endloop
 endfacet
 facet normal -0.753780 0.645904 -0.120927
  outer loop
   vertex 452.808319 -96.536697 110.445160
   vertex 451.958618 -97.530098 110.435616
   vertex 452.071838 -97.265213 111.144699
  endloop
 endfacet
 facet normal -0.430818 0.812547 0.392635
  outer loop
   vertex 452.071838 -97.265213 111.144699
   vertex 452.961517 -96.509270 110.556496
   vertex 452.808319 -96.536697 110.445160
  endloop
 endfacet
 facet normal -0.430841 0.812550 0.392606
  outer loop
   vertex 452.684570 -97.155495 111.590027
   vertex 452.961517 -96.509270 110.556496
   vertex 452.071838 -97.265213 111.144699
  endloop
 endfacet
 facet normal 0.176822 0.812545 0.555433
  outer loop
   vertex 453.149841 -96.536697 110.536667
   vertex 452.961517 -96.509270 110.556496
   vertex 452.684570 -97.155495 111.590027
  endloop
 endfacet
 facet normal 0.176819 0.812546 0.555432
  outer loop
   vertex 452.684570 -97.155495 111.590027
   vertex 453.437866 -97.265213 111.510727
   vertex 453.149841 -96.536697 110.536667
  endloop
 endfacet
 facet normal 0.713312 0.645859 0.272126
  outer loop
   vertex 453.149841 -96.536697 110.536667
   vertex 453.437866 -97.265213 111.510727
   vertex 453.262970 -96.602921 110.397301
  endloop
 endfacet
 facet normal 0.713250 0.645910 0.272166
  outer loop
   vertex 453.262970 -96.602921 110.397301
   vertex 453.437866 -97.265213 111.510727
   vertex 453.890472 -97.530106 110.953255
  endloop
 endfacet
 facet normal 0.864219 0.410295 -0.291176
  outer loop
   vertex 453.890472 -97.530106 110.953255
   vertex 453.234680 -96.669136 110.220032
   vertex 453.262970 -96.602921 110.397301
  endloop
 endfacet
 facet normal 0.864222 0.410242 -0.291241
  outer loop
   vertex 453.777252 -97.794991 110.244171
   vertex 453.234680 -96.669136 110.220032
   vertex 453.890472 -97.530106 110.953255
  endloop
 endfacet
endsolid