solid stl file generated from DOUG
 facet normal -0.040346 -0.992292 -0.117169
  outer loop
   vertex 399.499664 -472.024506 112.339874
   vertex 399.455658 -472.007629 112.212105
   vertex 408.201263 -472.007629 109.200684
  endloop
 endfacet
 facet normal -0.283946 -0.489259 -0.824621
  outer loop
   vertex 408.201263 -472.007629 109.200684
   vertex 399.455658 -472.007629 112.212105
   vertex 408.184906 -471.917999 109.153137
  endloop
 endfacet
 facet normal -0.296790 0.411110 -0.861919
  outer loop
   vertex 408.421234 -472.987762 109.839546
   vertex 408.403015 -473.111908 109.786606
   vertex 399.657440 -473.111908 112.798027
  endloop
 endfacet
 facet normal -0.283910 -0.489460 -0.824514
  outer loop
   vertex 399.657440 -473.111908 112.798027
   vertex 408.403015 -473.111908 109.786606
   vertex 408.419403 -473.201508 109.834152
  endloop
 endfacet
 facet normal -0.283923 -0.489386 -0.824554
  outer loop
   vertex 408.419403 -473.201508 109.834152
   vertex 399.673798 -473.201508 112.845573
   vertex 399.657440 -473.111908 112.798027
  endloop
 endfacet
 facet normal -0.207789 -0.769853 -0.603449
  outer loop
   vertex 408.627441 -472.842926 110.438332
   vertex 399.881836 -472.842926 113.449753
   vertex 408.618988 -472.821442 110.413834
  endloop
 endfacet
 facet normal -0.207837 -0.769732 -0.603586
  outer loop
   vertex 408.618988 -472.821442 110.413834
   vertex 399.881836 -472.842926 113.449753
   vertex 399.873413 -472.821442 113.425255
  endloop
 endfacet
 facet normal 0.159327 -0.872076 0.462708
  outer loop
   vertex 399.873413 -472.821442 113.425255
   vertex 399.710114 -473.102905 112.951004
   vertex 408.618988 -472.821442 110.413834
  endloop
 endfacet
 facet normal -0.040346 -0.992292 -0.117169
  outer loop
   vertex 408.201263 -472.007629 109.200684
   vertex 408.245270 -472.024506 109.328453
   vertex 399.499664 -472.024506 112.339874
  endloop
 endfacet
 facet normal -0.283926 -0.489370 -0.824562
  outer loop
   vertex 399.499664 -472.024506 112.339874
   vertex 408.245270 -472.024506 109.328453
   vertex 408.421234 -472.987762 109.839546
  endloop
 endfacet
 facet normal -0.283926 -0.489377 -0.824558
  outer loop
   vertex 408.421234 -472.987762 109.839546
   vertex 399.675659 -472.987762 112.850967
   vertex 399.499664 -472.024506 112.339874
  endloop
 endfacet
 facet normal -0.296790 0.411110 -0.861919
  outer loop
   vertex 399.657440 -473.111908 112.798027
   vertex 399.675659 -472.987762 112.850967
   vertex 408.421234 -472.987762 109.839546
  endloop
 endfacet
 facet normal 0.159300 -0.872122 0.462629
  outer loop
   vertex 399.673798 -473.201508 112.845573
   vertex 408.419403 -473.201508 109.834152
   vertex 399.711670 -473.136230 112.955589
  endloop
 endfacet
 facet normal 0.159300 -0.872122 0.462629
  outer loop
   vertex 399.711670 -473.136230 112.955589
   vertex 408.419403 -473.201508 109.834152
   vertex 408.457275 -473.136230 109.944168
  endloop
 endfacet
 facet normal 0.322191 0.143791 0.935691
  outer loop
   vertex 408.457275 -473.136230 109.944168
   vertex 399.710114 -473.102905 112.951004
   vertex 399.711670 -473.136230 112.955589
  endloop
 endfacet
 facet normal 0.322179 0.144079 0.935651
  outer loop
   vertex 408.455688 -473.102905 109.939583
   vertex 399.710114 -473.102905 112.951004
   vertex 408.457275 -473.136230 109.944168
  endloop
 endfacet
 facet normal 0.159327 -0.872076 0.462708
  outer loop
   vertex 408.618988 -472.821442 110.413834
   vertex 399.710114 -473.102905 112.951004
   vertex 408.455688 -473.102905 109.939583
  endloop
 endfacet
 facet normal 0.945523 0.000012 -0.325556
  outer loop
   vertex 408.685883 -471.912292 108.954559
   vertex 409.164429 -472.814209 110.344383
   vertex 408.925812 -473.225525 109.651344
  endloop
 endfacet
 facet normal 0.159328 -0.872072 0.462714
  outer loop
   vertex 408.925812 -473.225525 109.651344
   vertex 409.164429 -472.814209 110.344383
   vertex 407.980286 -473.225525 109.976921
  endloop
 endfacet
 facet normal -0.283923 -0.489378 -0.824558
  outer loop
   vertex 407.980286 -473.225525 109.976921
   vertex 407.740356 -471.912292 109.280128
   vertex 408.925812 -473.225525 109.651344
  endloop
 endfacet
 facet normal -0.945513 0.000006 0.325583
  outer loop
   vertex 408.218933 -472.814209 110.669960
   vertex 407.740356 -471.912292 109.280128
   vertex 407.980286 -473.225525 109.976921
  endloop
 endfacet
 facet normal -0.945514 0.000003 0.325582
  outer loop
   vertex 407.979004 -471.500977 109.973175
   vertex 407.740356 -471.912292 109.280128
   vertex 408.218933 -472.814209 110.669960
  endloop
 endfacet
 facet normal 0.283932 0.489375 0.824557
  outer loop
   vertex 408.218933 -472.814209 110.669960
   vertex 409.164429 -472.814209 110.344383
   vertex 407.979004 -471.500977 109.973175
  endloop
 endfacet
 facet normal 0.283932 0.489375 0.824557
  outer loop
   vertex 407.979004 -471.500977 109.973175
   vertex 409.164429 -472.814209 110.344383
   vertex 408.924500 -471.500977 109.647598
  endloop
 endfacet
 facet normal 0.945523 0.000012 -0.325556
  outer loop
   vertex 408.924500 -471.500977 109.647598
   vertex 409.164429 -472.814209 110.344383
   vertex 408.685883 -471.912292 108.954559
  endloop
 endfacet
 facet normal -0.159325 0.872072 -0.462715
  outer loop
   vertex 408.685883 -471.912292 108.954559
   vertex 407.740356 -471.912292 109.280128
   vertex 408.924500 -471.500977 109.647598
  endloop
 endfacet
 facet normal -0.283918 -0.489375 -0.824562
  outer loop
   vertex 408.925812 -473.225525 109.651344
   vertex 407.740356 -471.912292 109.280128
   vertex 408.685883 -471.912292 108.954559
  endloop
 endfacet
 facet normal 0.945523 0.000012 -0.325556
  outer loop
   vertex 400.107727 -473.225525 112.687729
   vertex 399.867798 -471.912292 111.990944
   vertex 400.346344 -472.814209 113.380768
  endloop
 endfacet
 facet normal 0.945523 0.000012 -0.325556
  outer loop
   vertex 400.346344 -472.814209 113.380768
   vertex 399.867798 -471.912292 111.990944
   vertex 400.106415 -471.500977 112.683983
  endloop
 endfacet
 facet normal 0.283932 0.489375 0.824557
  outer loop
   vertex 400.106415 -471.500977 112.683983
   vertex 399.160919 -471.500977 113.009560
   vertex 400.346344 -472.814209 113.380768
  endloop
 endfacet
 facet normal -0.159333 0.872072 -0.462712
  outer loop
   vertex 399.867798 -471.912292 111.990944
   vertex 399.160919 -471.500977 113.009560
   vertex 400.106415 -471.500977 112.683983
  endloop
 endfacet
 facet normal -0.159322 0.872077 -0.462707
  outer loop
   vertex 398.922272 -471.912292 112.316513
   vertex 399.160919 -471.500977 113.009560
   vertex 399.867798 -471.912292 111.990944
  endloop
 endfacet
 facet normal -0.283917 -0.489378 -0.824560
  outer loop
   vertex 399.867798 -471.912292 111.990944
   vertex 399.162201 -473.225525 113.013306
   vertex 398.922272 -471.912292 112.316513
  endloop
 endfacet
 facet normal -0.945514 0.000004 0.325581
  outer loop
   vertex 398.922272 -471.912292 112.316513
   vertex 399.162201 -473.225525 113.013306
   vertex 399.160919 -471.500977 113.009560
  endloop
 endfacet
 facet normal -0.945513 0.000004 0.325584
  outer loop
   vertex 399.160919 -471.500977 113.009560
   vertex 399.162201 -473.225525 113.013306
   vertex 399.400848 -472.814209 113.706345
  endloop
 endfacet
 facet normal 0.283932 0.489375 0.824557
  outer loop
   vertex 399.400848 -472.814209 113.706345
   vertex 400.346344 -472.814209 113.380768
   vertex 399.160919 -471.500977 113.009560
  endloop
 endfacet
 facet normal 0.159331 -0.872075 0.462708
  outer loop
   vertex 399.162201 -473.225525 113.013306
   vertex 400.346344 -472.814209 113.380768
   vertex 399.400848 -472.814209 113.706345
  endloop
 endfacet
 facet normal 0.159328 -0.872072 0.462714
  outer loop
   vertex 400.107727 -473.225525 112.687729
   vertex 400.346344 -472.814209 113.380768
   vertex 399.162201 -473.225525 113.013306
  endloop
 endfacet
 facet normal -0.283924 -0.489375 -0.824560
  outer loop
   vertex 399.162201 -473.225525 113.013306
   vertex 399.867798 -471.912292 111.990944
   vertex 400.107727 -473.225525 112.687729
  endloop
 endfacet
 facet normal -0.283946 -0.489259 -0.824621
  outer loop
   vertex 399.455658 -472.007629 112.212105
   vertex 399.439301 -471.917999 112.164558
   vertex 408.184906 -471.917999 109.153137
  endloop
 endfacet
 facet normal -0.159307 0.872110 -0.462651
  outer loop
   vertex 408.184906 -471.917999 109.153137
   vertex 399.439301 -471.917999 112.164558
   vertex 399.477173 -471.852722 112.274567
  endloop
 endfacet
 facet normal -0.159307 0.872110 -0.462651
  outer loop
   vertex 399.477173 -471.852722 112.274567
   vertex 408.222778 -471.852722 109.263145
   vertex 408.184906 -471.917999 109.153137
  endloop
 endfacet
 facet normal 0.207789 0.769853 0.603449
  outer loop
   vertex 399.485626 -471.874207 112.299065
   vertex 408.222778 -471.852722 109.263145
   vertex 399.477173 -471.852722 112.274567
  endloop
 endfacet
 facet normal 0.207837 0.769732 0.603586
  outer loop
   vertex 408.231201 -471.874207 109.287643
   vertex 408.222778 -471.852722 109.263145
   vertex 399.485626 -471.874207 112.299065
  endloop
 endfacet
 facet normal -0.159327 0.872076 -0.462708
  outer loop
   vertex 399.485626 -471.874207 112.299065
   vertex 399.648926 -471.592743 112.773315
   vertex 408.231201 -471.874207 109.287643
  endloop
 endfacet
 facet normal -0.159327 0.872076 -0.462708
  outer loop
   vertex 408.231201 -471.874207 109.287643
   vertex 399.648926 -471.592743 112.773315
   vertex 408.394501 -471.592743 109.761894
  endloop
 endfacet
 facet normal -0.322179 -0.144079 -0.935651
  outer loop
   vertex 408.394501 -471.592743 109.761894
   vertex 399.648926 -471.592743 112.773315
   vertex 399.647339 -471.559418 112.768730
  endloop
 endfacet
 facet normal -0.322191 -0.143791 -0.935691
  outer loop
   vertex 399.647339 -471.559418 112.768730
   vertex 408.392944 -471.559418 109.757309
   vertex 408.394501 -471.592743 109.761894
  endloop
 endfacet
 facet normal -0.159256 0.872198 -0.462502
  outer loop
   vertex 399.666138 -471.527039 112.823318
   vertex 408.392944 -471.559418 109.757309
   vertex 399.647339 -471.559418 112.768730
  endloop
 endfacet
 facet normal -0.159277 0.872162 -0.462562
  outer loop
   vertex 408.411713 -471.527039 109.811897
   vertex 408.392944 -471.559418 109.757309
   vertex 399.666138 -471.527039 112.823318
  endloop
 endfacet
 facet normal 0.283926 0.489375 0.824559
  outer loop
   vertex 399.666138 -471.527039 112.823318
   vertex 399.900635 -472.810547 113.504333
   vertex 408.411713 -471.527039 109.811897
  endloop
 endfacet
 facet normal 0.283921 0.489389 0.824553
  outer loop
   vertex 408.411713 -471.527039 109.811897
   vertex 399.900635 -472.810547 113.504333
   vertex 408.646240 -472.810516 110.492912
  endloop
 endfacet
 facet normal 0.159388 -0.871975 0.462877
  outer loop
   vertex 408.646240 -472.810516 110.492912
   vertex 399.900635 -472.810547 113.504333
   vertex 408.627441 -472.842926 110.438332
  endloop
 endfacet
 facet normal 0.159331 -0.872075 0.462708
  outer loop
   vertex 408.218933 -472.814209 110.669960
   vertex 407.980286 -473.225525 109.976921
   vertex 409.164429 -472.814209 110.344383
  endloop
 endfacet
 facet normal -0.159330 0.872077 -0.462704
  outer loop
   vertex 407.740356 -471.912292 109.280128
   vertex 407.979004 -471.500977 109.973175
   vertex 408.924500 -471.500977 109.647598
  endloop
 endfacet
 facet normal 0.159271 -0.872172 0.462546
  outer loop
   vertex 399.900635 -472.810547 113.504333
   vertex 399.881836 -472.842926 113.449753
   vertex 408.627441 -472.842926 110.438332
  endloop
 endfacet
 facet normal -0.934514 0.333728 0.123729
  outer loop
   vertex 399.347839 -471.207947 115.124695
   vertex 399.631775 -470.718567 115.949257
   vertex 399.512115 -470.591278 114.702148
  endloop
 endfacet
 facet normal -0.934530 0.333684 0.123726
  outer loop
   vertex 399.512115 -470.591278 114.702148
   vertex 399.631775 -470.718567 115.949257
   vertex 399.796021 -470.101898 115.526711
  endloop
 endfacet
 facet normal -0.509041 0.805683 -0.302907
  outer loop
   vertex 399.796021 -470.101898 115.526711
   vertex 400.134033 -470.335846 114.336411
   vertex 399.512115 -470.591278 114.702148
  endloop
 endfacet
 facet normal -0.509011 0.805703 -0.302902
  outer loop
   vertex 400.417938 -469.846497 115.160965
   vertex 400.134033 -470.335846 114.336411
   vertex 399.796021 -470.101898 115.526711
  endloop
 endfacet
 facet normal 0.214646 0.805700 -0.552065
  outer loop
   vertex 400.849274 -470.591278 114.241714
   vertex 400.134033 -470.335846 114.336411
   vertex 400.417938 -469.846497 115.160965
  endloop
 endfacet
 facet normal 0.214605 0.805698 -0.552083
  outer loop
   vertex 400.417938 -469.846497 115.160965
   vertex 401.133209 -470.101898 115.066277
   vertex 400.849274 -470.591278 114.241714
  endloop
 endfacet
 facet normal 0.812580 0.333705 -0.477865
  outer loop
   vertex 400.849274 -470.591278 114.241714
   vertex 401.133209 -470.101898 115.066277
   vertex 401.238861 -471.207947 114.473549
  endloop
 endfacet
 facet normal 0.812577 0.333707 -0.477869
  outer loop
   vertex 401.238861 -471.207947 114.473549
   vertex 401.133209 -470.101898 115.066277
   vertex 401.522797 -470.718567 115.298103
  endloop
 endfacet
 facet normal 0.934511 -0.333739 -0.123722
  outer loop
   vertex 401.522797 -470.718567 115.298103
   vertex 401.074585 -471.824585 114.896095
   vertex 401.238861 -471.207947 114.473549
  endloop
 endfacet
 facet normal 0.934511 -0.333739 -0.123722
  outer loop
   vertex 401.358521 -471.335205 115.720650
   vertex 401.074585 -471.824585 114.896095
   vertex 401.522797 -470.718567 115.298103
  endloop
 endfacet
 facet normal 0.509040 -0.805688 0.302895
  outer loop
   vertex 400.452667 -472.080017 115.261841
   vertex 401.074585 -471.824585 114.896095
   vertex 401.358521 -471.335205 115.720650
  endloop
 endfacet
 facet normal 0.509040 -0.805688 0.302895
  outer loop
   vertex 401.358521 -471.335205 115.720650
   vertex 400.736603 -471.590637 116.086395
   vertex 400.452667 -472.080017 115.261841
  endloop
 endfacet
 facet normal -0.214642 -0.805682 0.552091
  outer loop
   vertex 400.452667 -472.080017 115.261841
   vertex 400.736603 -471.590637 116.086395
   vertex 399.737427 -471.824585 115.356529
  endloop
 endfacet
 facet normal -0.214642 -0.805682 0.552091
  outer loop
   vertex 399.737427 -471.824585 115.356529
   vertex 400.736603 -471.590637 116.086395
   vertex 400.021362 -471.335205 116.181084
  endloop
 endfacet
 facet normal -0.812572 -0.333714 0.477872
  outer loop
   vertex 400.021362 -471.335205 116.181084
   vertex 399.347839 -471.207947 115.124695
   vertex 399.737427 -471.824585 115.356529
  endloop
 endfacet
 facet normal -0.812571 -0.333720 0.477870
  outer loop
   vertex 399.631775 -470.718567 115.949257
   vertex 399.347839 -471.207947 115.124695
   vertex 400.021362 -471.335205 116.181084
  endloop
 endfacet
 facet normal 0.934509 -0.333747 -0.123716
  outer loop
   vertex 409.048157 -471.846558 110.962959
   vertex 408.805298 -472.181763 110.032761
   vertex 409.089233 -471.692383 110.857323
  endloop
 endfacet
 facet normal 0.812585 0.333697 -0.477861
  outer loop
   vertex 409.089233 -471.692383 110.857323
   vertex 408.805298 -472.181763 110.032761
   vertex 408.707916 -472.027618 109.974808
  endloop
 endfacet
 facet normal 0.812535 0.333796 -0.477877
  outer loop
   vertex 408.707916 -472.027618 109.974808
   vertex 408.991821 -471.538239 110.799362
   vertex 409.089233 -471.692383 110.857323
  endloop
 endfacet
 facet normal 0.214695 0.805667 -0.552093
  outer loop
   vertex 408.529083 -471.963745 109.998474
   vertex 408.991821 -471.538239 110.799362
   vertex 408.707916 -472.027618 109.974808
  endloop
 endfacet
 facet normal 0.214706 0.805662 -0.552096
  outer loop
   vertex 408.813019 -471.474365 110.823036
   vertex 408.991821 -471.538239 110.799362
   vertex 408.529083 -471.963745 109.998474
  endloop
 endfacet
 facet normal -0.509143 0.805646 -0.302831
  outer loop
   vertex 408.529083 -471.963745 109.998474
   vertex 408.373627 -472.027618 110.089912
   vertex 408.813019 -471.474365 110.823036
  endloop
 endfacet
 facet normal -0.509073 0.805669 -0.302891
  outer loop
   vertex 408.813019 -471.474365 110.823036
   vertex 408.373627 -472.027618 110.089912
   vertex 408.657532 -471.538239 110.914467
  endloop
 endfacet
 facet normal -0.934506 0.333777 0.123663
  outer loop
   vertex 408.657532 -471.538239 110.914467
   vertex 408.373627 -472.027618 110.089912
   vertex 408.332550 -472.181763 110.195549
  endloop
 endfacet
 facet normal -0.934529 0.333670 0.123769
  outer loop
   vertex 408.332550 -472.181763 110.195549
   vertex 408.616486 -471.692383 111.020103
   vertex 408.657532 -471.538239 110.914467
  endloop
 endfacet
 facet normal -0.812555 -0.333741 0.477882
  outer loop
   vertex 408.429962 -472.335938 110.253510
   vertex 408.616486 -471.692383 111.020103
   vertex 408.332550 -472.181763 110.195549
  endloop
 endfacet
 facet normal -0.812628 -0.333649 0.477822
  outer loop
   vertex 408.713867 -471.846558 111.078064
   vertex 408.616486 -471.692383 111.020103
   vertex 408.429962 -472.335938 110.253510
  endloop
 endfacet
 facet normal -0.214587 -0.805706 0.552078
  outer loop
   vertex 408.429962 -472.335938 110.253510
   vertex 408.608765 -472.399780 110.229836
   vertex 408.713867 -471.846558 111.078064
  endloop
 endfacet
 facet normal -0.214553 -0.805714 0.552079
  outer loop
   vertex 408.713867 -471.846558 111.078064
   vertex 408.608765 -472.399780 110.229836
   vertex 408.892700 -471.910400 111.054390
  endloop
 endfacet
 facet normal 0.508974 -0.805715 0.302933
  outer loop
   vertex 408.892700 -471.910400 111.054390
   vertex 408.608765 -472.399780 110.229836
   vertex 408.764252 -472.335938 110.138397
  endloop
 endfacet
 facet normal 0.509034 -0.805686 0.302911
  outer loop
   vertex 408.764252 -472.335938 110.138397
   vertex 409.048157 -471.846558 110.962959
   vertex 408.892700 -471.910400 111.054390
  endloop
 endfacet
 facet normal 0.934549 -0.333613 -0.123774
  outer loop
   vertex 408.805298 -472.181763 110.032761
   vertex 409.048157 -471.846558 110.962959
   vertex 408.764252 -472.335938 110.138397
  endloop
 endfacet
 facet normal 0.934514 -0.333728 -0.123730
  outer loop
   vertex 410.199097 -471.335205 112.676521
   vertex 410.079437 -471.207916 111.429420
   vertex 410.363373 -470.718536 112.253975
  endloop
 endfacet
 facet normal 0.812572 0.333714 -0.477872
  outer loop
   vertex 410.363373 -470.718536 112.253975
   vertex 410.079437 -471.207916 111.429420
   vertex 409.689850 -470.591278 111.197586
  endloop
 endfacet
 facet normal 0.812571 0.333720 -0.477870
  outer loop
   vertex 409.689850 -470.591278 111.197586
   vertex 409.973785 -470.101898 112.022148
   vertex 410.363373 -470.718536 112.253975
  endloop
 endfacet
 facet normal 0.214638 0.805686 -0.552087
  outer loop
   vertex 408.974609 -470.335846 111.292282
   vertex 409.973785 -470.101898 112.022148
   vertex 409.689850 -470.591278 111.197586
  endloop
 endfacet
 facet normal 0.214636 0.805689 -0.552085
  outer loop
   vertex 409.258514 -469.846466 112.116837
   vertex 409.973785 -470.101898 112.022148
   vertex 408.974609 -470.335846 111.292282
  endloop
 endfacet
 facet normal -0.509042 0.805681 -0.302909
  outer loop
   vertex 408.974609 -470.335846 111.292282
   vertex 408.352692 -470.591278 111.658020
   vertex 409.258514 -469.846466 112.116837
  endloop
 endfacet
 facet normal -0.509044 0.805682 -0.302905
  outer loop
   vertex 409.258514 -469.846466 112.116837
   vertex 408.352692 -470.591278 111.658020
   vertex 408.636597 -470.101898 112.482582
  endloop
 endfacet
 facet normal -0.934519 0.333725 0.123698
  outer loop
   vertex 408.636597 -470.101898 112.482582
   vertex 408.352692 -470.591278 111.658020
   vertex 408.188416 -471.207916 112.080566
  endloop
 endfacet
 facet normal -0.934519 0.333703 0.123758
  outer loop
   vertex 408.188416 -471.207916 112.080566
   vertex 408.472351 -470.718567 112.905128
   vertex 408.636597 -470.101898 112.482582
  endloop
 endfacet
 facet normal -0.812583 -0.333710 0.477856
  outer loop
   vertex 408.578003 -471.824585 112.312401
   vertex 408.472351 -470.718567 112.905128
   vertex 408.188416 -471.207916 112.080566
  endloop
 endfacet
 facet normal -0.812570 -0.333718 0.477873
  outer loop
   vertex 408.861938 -471.335205 113.136955
   vertex 408.472351 -470.718567 112.905128
   vertex 408.578003 -471.824585 112.312401
  endloop
 endfacet
 facet normal -0.214612 -0.805693 0.552087
  outer loop
   vertex 408.578003 -471.824585 112.312401
   vertex 409.293243 -472.079987 112.217712
   vertex 408.861938 -471.335205 113.136955
  endloop
 endfacet
 facet normal -0.214649 -0.805694 0.552071
  outer loop
   vertex 408.861938 -471.335205 113.136955
   vertex 409.293243 -472.079987 112.217712
   vertex 409.577179 -471.590637 113.042267
  endloop
 endfacet
 facet normal 0.509007 -0.805711 0.302890
  outer loop
   vertex 409.577179 -471.590637 113.042267
   vertex 409.293243 -472.079987 112.217712
   vertex 409.915161 -471.824585 111.851967
  endloop
 endfacet
 facet normal 0.509040 -0.805688 0.302895
  outer loop
   vertex 409.915161 -471.824585 111.851967
   vertex 410.199097 -471.335205 112.676521
   vertex 409.577179 -471.590637 113.042267
  endloop
 endfacet
 facet normal 0.934514 -0.333728 -0.123730
  outer loop
   vertex 410.079437 -471.207916 111.429420
   vertex 410.199097 -471.335205 112.676521
   vertex 409.915161 -471.824585 111.851967
  endloop
 endfacet
 facet normal 0.606436 -0.553021 -0.571317
  outer loop
   vertex 409.915161 -471.824585 111.851967
   vertex 409.086395 -471.697296 110.849045
   vertex 410.079437 -471.207916 111.429420
  endloop
 endfacet
 facet normal 0.506192 -0.004389 -0.862410
  outer loop
   vertex 410.079437 -471.207916 111.429420
   vertex 409.086395 -471.697296 110.849045
   vertex 408.988983 -471.543152 110.791084
  endloop
 endfacet
 facet normal 0.506199 -0.004422 -0.862405
  outer loop
   vertex 408.988983 -471.543152 110.791084
   vertex 409.689850 -470.591278 111.197586
   vertex 410.079437 -471.207916 111.429420
  endloop
 endfacet
 facet normal 0.014734 0.383503 -0.923422
  outer loop
   vertex 408.810181 -471.479279 110.814758
   vertex 409.689850 -470.591278 111.197586
   vertex 408.988983 -471.543152 110.791084
  endloop
 endfacet
 facet normal 0.014709 0.383524 -0.923414
  outer loop
   vertex 408.974609 -470.335846 111.292282
   vertex 409.689850 -470.591278 111.197586
   vertex 408.810181 -471.479279 110.814758
  endloop
 endfacet
 facet normal -0.580130 0.383521 -0.718583
  outer loop
   vertex 408.810181 -471.479279 110.814758
   vertex 408.654694 -471.543152 110.906197
   vertex 408.974609 -470.335846 111.292282
  endloop
 endfacet
 facet normal -0.580112 0.383521 -0.718597
  outer loop
   vertex 408.974609 -470.335846 111.292282
   vertex 408.654694 -471.543152 110.906197
   vertex 408.352692 -470.591278 111.658020
  endloop
 endfacet
 facet normal -0.929832 -0.004382 -0.367958
  outer loop
   vertex 408.352692 -470.591278 111.658020
   vertex 408.654694 -471.543152 110.906197
   vertex 408.613617 -471.697296 111.011833
  endloop
 endfacet
 facet normal -0.929844 -0.004403 -0.367927
  outer loop
   vertex 408.613617 -471.697296 111.011833
   vertex 408.188416 -471.207916 112.080566
   vertex 408.352692 -470.591278 111.658020
  endloop
 endfacet
 facet normal -0.829603 -0.553043 -0.076820
  outer loop
   vertex 408.711029 -471.851471 111.069786
   vertex 408.188416 -471.207916 112.080566
   vertex 408.613617 -471.697296 111.011833
  endloop
 endfacet
 facet normal -0.829621 -0.553013 -0.076848
  outer loop
   vertex 408.578003 -471.824585 112.312401
   vertex 408.188416 -471.207916 112.080566
   vertex 408.711029 -471.851471 111.069786
  endloop
 endfacet
 facet normal -0.338082 -0.940984 -0.015833
  outer loop
   vertex 408.711029 -471.851471 111.069786
   vertex 408.889832 -471.915314 111.046112
   vertex 408.578003 -471.824585 112.312401
  endloop
 endfacet
 facet normal -0.338105 -0.940975 -0.015839
  outer loop
   vertex 408.578003 -471.824585 112.312401
   vertex 408.889832 -471.915314 111.046112
   vertex 409.293243 -472.079987 112.217712
  endloop
 endfacet
 facet normal 0.256635 -0.940990 -0.220626
  outer loop
   vertex 409.293243 -472.079987 112.217712
   vertex 408.889832 -471.915314 111.046112
   vertex 409.045319 -471.851471 110.954681
  endloop
 endfacet
 facet normal 0.256677 -0.940977 -0.220632
  outer loop
   vertex 409.045319 -471.851471 110.954681
   vertex 409.915161 -471.824585 111.851967
   vertex 409.293243 -472.079987 112.217712
  endloop
 endfacet
 facet normal 0.606435 -0.553023 -0.571316
  outer loop
   vertex 409.086395 -471.697296 110.849045
   vertex 409.915161 -471.824585 111.851967
   vertex 409.045319 -471.851471 110.954681
  endloop
 endfacet
 facet normal -0.934495 0.333796 0.123695
  outer loop
   vertex 399.491974 -472.181763 113.239677
   vertex 399.775909 -471.692413 114.064232
   vertex 399.533051 -472.027618 113.134041
  endloop
 endfacet
 facet normal -0.934549 0.333614 0.123775
  outer loop
   vertex 399.533051 -472.027618 113.134041
   vertex 399.775909 -471.692413 114.064232
   vertex 399.816956 -471.538239 113.958595
  endloop
 endfacet
 facet normal -0.509148 0.805638 -0.302846
  outer loop
   vertex 399.816956 -471.538239 113.958595
   vertex 399.688507 -471.963745 113.042603
   vertex 399.533051 -472.027618 113.134041
  endloop
 endfacet
 facet normal -0.508956 0.805732 -0.302917
  outer loop
   vertex 399.972443 -471.474396 113.867165
   vertex 399.688507 -471.963745 113.042603
   vertex 399.816956 -471.538239 113.958595
  endloop
 endfacet
 facet normal 0.214702 0.805678 -0.552074
  outer loop
   vertex 399.867340 -472.027618 113.018936
   vertex 399.688507 -471.963745 113.042603
   vertex 399.972443 -471.474396 113.867165
  endloop
 endfacet
 facet normal 0.214587 0.805706 -0.552078
  outer loop
   vertex 399.972443 -471.474396 113.867165
   vertex 400.151245 -471.538239 113.843491
   vertex 399.867340 -472.027618 113.018936
  endloop
 endfacet
 facet normal 0.812591 0.333707 -0.477844
  outer loop
   vertex 399.867340 -472.027618 113.018936
   vertex 400.151245 -471.538239 113.843491
   vertex 399.964722 -472.181763 113.076889
  endloop
 endfacet
 facet normal 0.812559 0.333748 -0.477870
  outer loop
   vertex 399.964722 -472.181763 113.076889
   vertex 400.151245 -471.538239 113.843491
   vertex 400.248657 -471.692413 113.901451
  endloop
 endfacet
 facet normal 0.934538 -0.333632 -0.123806
  outer loop
   vertex 400.248657 -471.692413 113.901451
   vertex 399.923676 -472.335938 113.182526
   vertex 399.964722 -472.181763 113.076889
  endloop
 endfacet
 facet normal 0.934506 -0.333776 -0.123663
  outer loop
   vertex 400.207581 -471.846558 114.007088
   vertex 399.923676 -472.335938 113.182526
   vertex 400.248657 -471.692413 113.901451
  endloop
 endfacet
 facet normal 0.508977 -0.805709 0.302944
  outer loop
   vertex 399.768188 -472.399780 113.273964
   vertex 399.923676 -472.335938 113.182526
   vertex 400.207581 -471.846558 114.007088
  endloop
 endfacet
 facet normal 0.509127 -0.805661 0.302819
  outer loop
   vertex 400.207581 -471.846558 114.007088
   vertex 400.052124 -471.910431 114.098518
   vertex 399.768188 -472.399780 113.273964
  endloop
 endfacet
 facet normal -0.214592 -0.805715 0.552063
  outer loop
   vertex 399.768188 -472.399780 113.273964
   vertex 400.052124 -471.910431 114.098518
   vertex 399.589386 -472.335938 113.297638
  endloop
 endfacet
 facet normal -0.214675 -0.805675 0.552090
  outer loop
   vertex 399.589386 -472.335938 113.297638
   vertex 400.052124 -471.910431 114.098518
   vertex 399.873291 -471.846558 114.122192
  endloop
 endfacet
 facet normal -0.812562 -0.333753 0.477861
  outer loop
   vertex 399.873291 -471.846558 114.122192
   vertex 399.491974 -472.181763 113.239677
   vertex 399.589386 -472.335938 113.297638
  endloop
 endfacet
 facet normal -0.812597 -0.333684 0.477850
  outer loop
   vertex 399.775909 -471.692413 114.064232
   vertex 399.491974 -472.181763 113.239677
   vertex 399.873291 -471.846558 114.122192
  endloop
 endfacet
 facet normal -0.829597 -0.553049 -0.076845
  outer loop
   vertex 399.870453 -471.851471 114.113914
   vertex 399.737427 -471.824585 115.356529
   vertex 399.773041 -471.697296 114.055962
  endloop
 endfacet
 facet normal -0.829609 -0.553031 -0.076844
  outer loop
   vertex 399.773041 -471.697296 114.055962
   vertex 399.737427 -471.824585 115.356529
   vertex 399.347839 -471.207947 115.124695
  endloop
 endfacet
 facet normal -0.929839 -0.004369 -0.367941
  outer loop
   vertex 399.347839 -471.207947 115.124695
   vertex 399.814117 -471.543152 113.950325
   vertex 399.773041 -471.697296 114.055962
  endloop
 endfacet
 facet normal -0.929842 -0.004407 -0.367932
  outer loop
   vertex 399.512115 -470.591278 114.702148
   vertex 399.814117 -471.543152 113.950325
   vertex 399.347839 -471.207947 115.124695
  endloop
 endfacet
 facet normal -0.580129 0.383509 -0.718589
  outer loop
   vertex 399.969604 -471.479279 113.858887
   vertex 399.814117 -471.543152 113.950325
   vertex 399.512115 -470.591278 114.702148
  endloop
 endfacet
 facet normal -0.580112 0.383524 -0.718596
  outer loop
   vertex 399.512115 -470.591278 114.702148
   vertex 400.134033 -470.335846 114.336411
   vertex 399.969604 -471.479279 113.858887
  endloop
 endfacet
 facet normal 0.014741 0.383520 -0.923415
  outer loop
   vertex 399.969604 -471.479279 113.858887
   vertex 400.134033 -470.335846 114.336411
   vertex 400.148407 -471.543152 113.835213
  endloop
 endfacet
 facet normal 0.014707 0.383519 -0.923416
  outer loop
   vertex 400.148407 -471.543152 113.835213
   vertex 400.134033 -470.335846 114.336411
   vertex 400.849274 -470.591278 114.241714
  endloop
 endfacet
 facet normal 0.506178 -0.004401 -0.862418
  outer loop
   vertex 400.849274 -470.591278 114.241714
   vertex 400.245819 -471.697296 113.893173
   vertex 400.148407 -471.543152 113.835213
  endloop
 endfacet
 facet normal 0.506202 -0.004418 -0.862403
  outer loop
   vertex 401.238861 -471.207947 114.473549
   vertex 400.245819 -471.697296 113.893173
   vertex 400.849274 -470.591278 114.241714
  endloop
 endfacet
 facet normal 0.606425 -0.553026 -0.571324
  outer loop
   vertex 400.204742 -471.851471 113.998810
   vertex 400.245819 -471.697296 113.893173
   vertex 401.238861 -471.207947 114.473549
  endloop
 endfacet
 facet normal 0.606427 -0.553040 -0.571308
  outer loop
   vertex 401.238861 -471.207947 114.473549
   vertex 401.074585 -471.824585 114.896095
   vertex 400.204742 -471.851471 113.998810
  endloop
 endfacet
 facet normal 0.256649 -0.940992 -0.220604
  outer loop
   vertex 400.204742 -471.851471 113.998810
   vertex 401.074585 -471.824585 114.896095
   vertex 400.049255 -471.915314 114.090240
  endloop
 endfacet
 facet normal 0.256697 -0.940964 -0.220668
  outer loop
   vertex 400.049255 -471.915314 114.090240
   vertex 401.074585 -471.824585 114.896095
   vertex 400.452667 -472.080017 115.261841
  endloop
 endfacet
 facet normal -0.338086 -0.940981 -0.015871
  outer loop
   vertex 400.452667 -472.080017 115.261841
   vertex 399.870453 -471.851471 114.113914
   vertex 400.049255 -471.915314 114.090240
  endloop
 endfacet
 facet normal -0.338141 -0.940962 -0.015840
  outer loop
   vertex 399.737427 -471.824585 115.356529
   vertex 399.870453 -471.851471 114.113914
   vertex 400.452667 -472.080017 115.261841
  endloop
 endfacet
endsolid