solid stl file generated from DOUG
 facet normal -0.866030 -0.293892 -0.404500
  outer loop
   vertex 212.244400 -72.485573 243.611801
   vertex 212.244400 -72.080116 243.317215
   vertex 212.369690 -72.613129 243.436234
  endloop
 endfacet
 facet normal -0.866030 -0.293892 -0.404500
  outer loop
   vertex 212.369690 -72.613129 243.436234
   vertex 212.244400 -72.080116 243.317215
   vertex 212.369690 -72.207672 243.141647
  endloop
 endfacet
 facet normal -0.000000 -0.587791 -0.809012
  outer loop
   vertex 212.369690 -72.207672 243.141647
   vertex 212.620270 -72.613129 243.436234
   vertex 212.369690 -72.613129 243.436234
  endloop
 endfacet
 facet normal -0.000000 -0.587791 -0.809012
  outer loop
   vertex 212.620270 -72.207672 243.141647
   vertex 212.620270 -72.613129 243.436234
   vertex 212.369690 -72.207672 243.141647
  endloop
 endfacet
 facet normal 0.866030 -0.293892 -0.404500
  outer loop
   vertex 212.745560 -72.485573 243.611801
   vertex 212.620270 -72.613129 243.436234
   vertex 212.620270 -72.207672 243.141647
  endloop
 endfacet
 facet normal 0.866030 -0.293892 -0.404500
  outer loop
   vertex 212.620270 -72.207672 243.141647
   vertex 212.745560 -72.080116 243.317215
   vertex 212.745560 -72.485573 243.611801
  endloop
 endfacet
 facet normal 0.866030 0.293892 0.404500
  outer loop
   vertex 212.745560 -72.485573 243.611801
   vertex 212.745560 -72.080116 243.317215
   vertex 212.620270 -72.358017 243.787369
  endloop
 endfacet
 facet normal 0.866030 0.293892 0.404500
  outer loop
   vertex 212.620270 -72.358017 243.787369
   vertex 212.745560 -72.080116 243.317215
   vertex 212.620270 -71.952560 243.492783
  endloop
 endfacet
 facet normal -0.000000 0.587791 0.809012
  outer loop
   vertex 212.620270 -71.952560 243.492783
   vertex 212.369690 -72.358017 243.787369
   vertex 212.620270 -72.358017 243.787369
  endloop
 endfacet
 facet normal -0.000000 0.587791 0.809012
  outer loop
   vertex 212.369690 -71.952560 243.492783
   vertex 212.369690 -72.358017 243.787369
   vertex 212.620270 -71.952560 243.492783
  endloop
 endfacet
 facet normal -0.866030 0.293892 0.404500
  outer loop
   vertex 212.244400 -72.485573 243.611801
   vertex 212.369690 -72.358017 243.787369
   vertex 212.369690 -71.952560 243.492783
  endloop
 endfacet
 facet normal -0.866030 0.293892 0.404500
  outer loop
   vertex 212.369690 -71.952560 243.492783
   vertex 212.244400 -72.080116 243.317215
   vertex 212.244400 -72.485573 243.611801
  endloop
 endfacet
 facet normal 0.866030 -0.293892 -0.404500
  outer loop
   vertex 200.595505 -72.080116 243.317200
   vertex 200.595505 -72.485573 243.611786
   vertex 200.470215 -72.207672 243.141632
  endloop
 endfacet
 facet normal 0.866030 -0.293892 -0.404500
  outer loop
   vertex 200.470215 -72.207672 243.141632
   vertex 200.595505 -72.485573 243.611786
   vertex 200.470215 -72.613129 243.436218
  endloop
 endfacet
 facet normal 0.000000 -0.587791 -0.809012
  outer loop
   vertex 200.470215 -72.613129 243.436218
   vertex 200.219635 -72.207672 243.141632
   vertex 200.470215 -72.207672 243.141632
  endloop
 endfacet
 facet normal -0.000000 -0.587791 -0.809012
  outer loop
   vertex 200.219635 -72.613129 243.436218
   vertex 200.219635 -72.207672 243.141632
   vertex 200.470215 -72.613129 243.436218
  endloop
 endfacet
 facet normal -0.866003 -0.293918 -0.404537
  outer loop
   vertex 200.094330 -72.080116 243.317200
   vertex 200.219635 -72.207672 243.141632
   vertex 200.219635 -72.613129 243.436218
  endloop
 endfacet
 facet normal -0.866003 -0.293918 -0.404537
  outer loop
   vertex 200.219635 -72.613129 243.436218
   vertex 200.094330 -72.485573 243.611786
   vertex 200.094330 -72.080116 243.317200
  endloop
 endfacet
 facet normal -0.866003 0.293918 0.404537
  outer loop
   vertex 200.094330 -72.080116 243.317200
   vertex 200.094330 -72.485573 243.611786
   vertex 200.219635 -71.952560 243.492767
  endloop
 endfacet
 facet normal -0.866003 0.293918 0.404537
  outer loop
   vertex 200.219635 -71.952560 243.492767
   vertex 200.094330 -72.485573 243.611786
   vertex 200.219635 -72.358017 243.787354
  endloop
 endfacet
 facet normal 0.000000 0.587791 0.809012
  outer loop
   vertex 200.219635 -72.358017 243.787354
   vertex 200.470215 -71.952560 243.492767
   vertex 200.219635 -71.952560 243.492767
  endloop
 endfacet
 facet normal -0.000000 0.587791 0.809012
  outer loop
   vertex 200.470215 -72.358017 243.787354
   vertex 200.470215 -71.952560 243.492767
   vertex 200.219635 -72.358017 243.787354
  endloop
 endfacet
 facet normal 0.866030 0.293892 0.404500
  outer loop
   vertex 200.595505 -72.080116 243.317200
   vertex 200.470215 -71.952560 243.492767
   vertex 200.470215 -72.358017 243.787354
  endloop
 endfacet
 facet normal 0.866030 0.293892 0.404500
  outer loop
   vertex 200.470215 -72.358017 243.787354
   vertex 200.595505 -72.485573 243.611786
   vertex 200.595505 -72.080116 243.317200
  endloop
 endfacet
 facet normal 0.000000 -0.809020 0.587781
  outer loop
   vertex 200.219635 -72.613129 243.436218
   vertex 200.470215 -72.613129 243.436218
   vertex 200.344925 -72.485573 243.611786
  endloop
 endfacet
 facet normal -0.000000 -0.809020 0.587781
  outer loop
   vertex 200.344925 -72.485573 243.611786
   vertex 200.470215 -72.613129 243.436218
   vertex 200.595505 -72.485573 243.611786
  endloop
 endfacet
 facet normal 0.000000 -0.809020 0.587781
  outer loop
   vertex 200.595505 -72.485573 243.611786
   vertex 200.470215 -72.358017 243.787354
   vertex 200.344925 -72.485573 243.611786
  endloop
 endfacet
 facet normal 0.000000 -0.809020 0.587781
  outer loop
   vertex 212.369690 -72.358017 243.787369
   vertex 212.244400 -72.485573 243.611801
   vertex 212.494980 -72.485573 243.611801
  endloop
 endfacet
 facet normal -0.000000 -0.809020 0.587781
  outer loop
   vertex 212.494980 -72.485573 243.611801
   vertex 212.244400 -72.485573 243.611801
   vertex 212.369690 -72.613129 243.436234
  endloop
 endfacet
 facet normal 0.000000 -0.809020 0.587781
  outer loop
   vertex 212.369690 -72.613129 243.436234
   vertex 212.620270 -72.613129 243.436234
   vertex 212.494980 -72.485573 243.611801
  endloop
 endfacet
 facet normal 0.000000 -0.809020 0.587781
  outer loop
   vertex 212.620270 -72.613129 243.436234
   vertex 212.745560 -72.485573 243.611801
   vertex 212.494980 -72.485573 243.611801
  endloop
 endfacet
 facet normal -0.000000 -0.809020 0.587781
  outer loop
   vertex 212.494980 -72.485573 243.611801
   vertex 212.745560 -72.485573 243.611801
   vertex 212.620270 -72.358017 243.787369
  endloop
 endfacet
 facet normal 0.000000 -0.809020 0.587781
  outer loop
   vertex 212.620270 -72.358017 243.787369
   vertex 212.369690 -72.358017 243.787369
   vertex 212.494980 -72.485573 243.611801
  endloop
 endfacet
 facet normal 0.000000 -0.809020 0.587781
  outer loop
   vertex 200.470215 -72.358017 243.787354
   vertex 200.219635 -72.358017 243.787354
   vertex 200.344925 -72.485573 243.611786
  endloop
 endfacet
 facet normal -0.000000 -0.809020 0.587781
  outer loop
   vertex 200.344925 -72.485573 243.611786
   vertex 200.219635 -72.358017 243.787354
   vertex 200.094330 -72.485573 243.611786
  endloop
 endfacet
 facet normal 0.000000 -0.809020 0.587781
  outer loop
   vertex 200.094330 -72.485573 243.611786
   vertex 200.219635 -72.613129 243.436218
   vertex 200.344925 -72.485573 243.611786
  endloop
 endfacet
 facet normal 0.000000 -0.809020 0.587780
  outer loop
   vertex 211.038376 -70.471977 242.921509
   vertex 211.038391 -71.206825 241.910065
   vertex 214.029785 -70.471977 242.921509
  endloop
 endfacet
 facet normal -0.000003 -0.809016 0.587786
  outer loop
   vertex 214.029785 -70.471977 242.921509
   vertex 211.038391 -71.206825 241.910065
   vertex 214.029785 -71.206825 241.910080
  endloop
 endfacet
 facet normal 1.000000 0.000000 0.000000
  outer loop
   vertex 214.029785 -71.206825 241.910080
   vertex 214.029785 -69.348587 242.105316
   vertex 214.029785 -70.471977 242.921509
  endloop
 endfacet
 facet normal 1.000000 -0.000000 -0.000000
  outer loop
   vertex 214.029785 -70.083435 241.093887
   vertex 214.029785 -69.348587 242.105316
   vertex 214.029785 -71.206825 241.910080
  endloop
 endfacet
 facet normal 0.000000 0.809016 -0.587786
  outer loop
   vertex 211.038391 -70.083435 241.093887
   vertex 214.029785 -69.348587 242.105316
   vertex 214.029785 -70.083435 241.093887
  endloop
 endfacet
 facet normal -0.000000 -0.587779 -0.809022
  outer loop
   vertex 214.029785 -70.083435 241.093887
   vertex 211.038391 -71.206825 241.910065
   vertex 211.038391 -70.083435 241.093887
  endloop
 endfacet
 facet normal -1.000000 -0.000007 -0.000010
  outer loop
   vertex 211.038391 -70.083435 241.093887
   vertex 211.038391 -71.206825 241.910065
   vertex 211.038376 -69.348587 242.105316
  endloop
 endfacet
 facet normal -1.000000 -0.000007 -0.000010
  outer loop
   vertex 211.038376 -69.348587 242.105316
   vertex 211.038391 -71.206825 241.910065
   vertex 211.038376 -70.471977 242.921509
  endloop
 endfacet
 facet normal 0.000000 0.587786 0.809016
  outer loop
   vertex 211.038376 -70.471977 242.921509
   vertex 214.029785 -69.348587 242.105316
   vertex 211.038376 -69.348587 242.105316
  endloop
 endfacet
 facet normal -0.000000 0.587786 0.809016
  outer loop
   vertex 214.029785 -70.471977 242.921509
   vertex 214.029785 -69.348587 242.105316
   vertex 211.038376 -70.471977 242.921509
  endloop
 endfacet
 facet normal -1.000000 0.000000 0.000000
  outer loop
   vertex 198.810120 -69.348587 242.105301
   vertex 198.810120 -70.083435 241.093872
   vertex 198.810120 -70.471977 242.921494
  endloop
 endfacet
 facet normal -1.000000 -0.000000 -0.000000
  outer loop
   vertex 198.810120 -70.471977 242.921494
   vertex 198.810120 -70.083435 241.093872
   vertex 198.810120 -71.206825 241.910049
  endloop
 endfacet
 facet normal 0.000000 -0.809020 0.587780
  outer loop
   vertex 198.810120 -71.206825 241.910049
   vertex 201.801514 -70.471977 242.921494
   vertex 198.810120 -70.471977 242.921494
  endloop
 endfacet
 facet normal -0.000003 -0.809016 0.587786
  outer loop
   vertex 201.801529 -71.206825 241.910065
   vertex 201.801514 -70.471977 242.921494
   vertex 198.810120 -71.206825 241.910049
  endloop
 endfacet
 facet normal 1.000000 0.000007 0.000010
  outer loop
   vertex 201.801529 -70.083435 241.093872
   vertex 201.801514 -70.471977 242.921494
   vertex 201.801529 -71.206825 241.910065
  endloop
 endfacet
 facet normal 0.000000 -0.587786 -0.809016
  outer loop
   vertex 201.801529 -71.206825 241.910065
   vertex 198.810120 -70.083435 241.093872
   vertex 201.801529 -70.083435 241.093872
  endloop
 endfacet
 facet normal 0.000000 0.809016 -0.587786
  outer loop
   vertex 201.801529 -70.083435 241.093872
   vertex 198.810120 -70.083435 241.093872
   vertex 201.801529 -69.348587 242.105301
  endloop
 endfacet
 facet normal -0.000000 0.809016 -0.587786
  outer loop
   vertex 201.801529 -69.348587 242.105301
   vertex 198.810120 -70.083435 241.093872
   vertex 198.810120 -69.348587 242.105301
  endloop
 endfacet
 facet normal 0.000000 0.587786 0.809016
  outer loop
   vertex 198.810120 -69.348587 242.105301
   vertex 201.801514 -70.471977 242.921494
   vertex 201.801529 -69.348587 242.105301
  endloop
 endfacet
 facet normal 0.000000 0.587786 0.809016
  outer loop
   vertex 198.810120 -70.471977 242.921494
   vertex 201.801514 -70.471977 242.921494
   vertex 198.810120 -69.348587 242.105301
  endloop
 endfacet
 facet normal 0.000004 -0.587779 -0.809022
  outer loop
   vertex 201.801529 -71.206825 241.910065
   vertex 198.810120 -71.206825 241.910049
   vertex 198.810120 -70.083435 241.093872
  endloop
 endfacet
 facet normal 0.000004 -0.587786 -0.809016
  outer loop
   vertex 214.029785 -71.206825 241.910080
   vertex 211.038391 -71.206825 241.910065
   vertex 214.029785 -70.083435 241.093887
  endloop
 endfacet
 facet normal 1.000000 -0.000009 0.000006
  outer loop
   vertex 201.801529 -70.083435 241.093872
   vertex 201.801529 -69.348587 242.105301
   vertex 201.801514 -70.471977 242.921494
  endloop
 endfacet
 facet normal 0.000000 0.809016 -0.587786
  outer loop
   vertex 211.038391 -70.083435 241.093887
   vertex 211.038376 -69.348587 242.105316
   vertex 214.029785 -69.348587 242.105316
  endloop
 endfacet
 facet normal -0.000001 -0.809061 0.587725
  outer loop
   vertex 211.419952 -72.618858 244.678940
   vertex 201.419952 -72.683281 244.590240
   vertex 211.419952 -72.683281 244.590256
  endloop
 endfacet
 facet normal 0.000000 -0.953329 -0.301933
  outer loop
   vertex 211.419952 -72.683281 244.590256
   vertex 201.419952 -72.683281 244.590240
   vertex 211.419952 -72.639420 244.451767
  endloop
 endfacet
 facet normal 0.000000 -0.959479 -0.281781
  outer loop
   vertex 202.331635 -73.579208 243.457764
   vertex 201.172928 -73.549637 243.357071
   vertex 202.331635 -73.549637 243.357071
  endloop
 endfacet
 facet normal 0.000000 -0.587791 -0.809013
  outer loop
   vertex 202.331635 -73.549637 243.357071
   vertex 201.172928 -73.549637 243.357071
   vertex 201.172928 -72.868744 242.862366
  endloop
 endfacet
 facet normal -0.000000 0.587791 0.809013
  outer loop
   vertex 211.666977 -71.891243 244.207794
   vertex 210.508255 -72.572136 244.702499
   vertex 211.666977 -72.572136 244.702499
  endloop
 endfacet
 facet normal -0.000000 -0.028498 0.999594
  outer loop
   vertex 211.666977 -72.572136 244.702499
   vertex 210.508255 -72.572136 244.702499
   vertex 210.508255 -72.677040 244.699509
  endloop
 endfacet
 facet normal -0.000002 -0.007457 0.999972
  outer loop
   vertex 201.419952 -73.331970 243.498535
   vertex 201.419952 -73.477242 243.497452
   vertex 211.419952 -73.477242 243.497467
  endloop
 endfacet
 facet normal -0.000001 -0.809013 0.587791
  outer loop
   vertex 211.419952 -73.477242 243.497467
   vertex 201.419952 -73.477242 243.497452
   vertex 211.419952 -73.541664 243.408798
  endloop
 endfacet
 facet normal -0.000001 -0.544361 0.838851
  outer loop
   vertex 201.419952 -72.016640 244.199951
   vertex 211.419952 -72.016640 244.199966
   vertex 201.419952 -71.986519 244.219498
  endloop
 endfacet
 facet normal -0.000001 -0.544361 0.838851
  outer loop
   vertex 201.419952 -71.986519 244.219498
   vertex 211.419952 -72.016640 244.199966
   vertex 211.419952 -71.986519 244.219513
  endloop
 endfacet
 facet normal -0.000001 0.587760 0.809035
  outer loop
   vertex 211.419952 -71.986519 244.219513
   vertex 201.419952 -71.929390 244.177994
   vertex 201.419952 -71.986519 244.219498
  endloop
 endfacet
 facet normal -1.000000 0.000000 0.000000
  outer loop
   vertex 201.172928 -72.572136 244.702484
   vertex 201.172928 -72.699280 244.500977
   vertex 201.172928 -72.677040 244.699493
  endloop
 endfacet
 facet normal -1.000000 -0.000000 0.000000
  outer loop
   vertex 201.172928 -72.677040 244.699493
   vertex 201.172928 -72.699280 244.500977
   vertex 201.172928 -72.770477 244.570892
  endloop
 endfacet
 facet normal 0.000000 -0.809008 0.587798
  outer loop
   vertex 201.172928 -72.770477 244.570892
   vertex 202.331635 -72.677040 244.699493
   vertex 201.172928 -72.677040 244.699493
  endloop
 endfacet
 facet normal 1.000000 0.000000 0.000000
  outer loop
   vertex 211.666977 -73.549637 243.357086
   vertex 211.666977 -73.397285 243.540268
   vertex 211.666977 -73.579208 243.457764
  endloop
 endfacet
 facet normal 1.000000 0.000000 -0.000000
  outer loop
   vertex 211.666977 -73.579208 243.457764
   vertex 211.666977 -73.397285 243.540268
   vertex 211.666977 -73.485771 243.586380
  endloop
 endfacet
 facet normal 0.000000 -0.809041 0.587752
  outer loop
   vertex 211.666977 -73.485771 243.586380
   vertex 210.508255 -73.579208 243.457764
   vertex 211.666977 -73.579208 243.457764
  endloop
 endfacet
 facet normal 1.000000 0.000000 0.000000
  outer loop
   vertex 202.331635 -73.485771 243.586365
   vertex 202.331635 -73.579208 243.457764
   vertex 202.331635 -73.397285 243.540253
  endloop
 endfacet
 facet normal 1.000000 -0.000000 -0.000000
  outer loop
   vertex 202.331635 -73.397285 243.540253
   vertex 202.331635 -73.579208 243.457764
   vertex 202.331635 -73.549637 243.357071
  endloop
 endfacet
 facet normal 1.000000 0.000000 0.000000
  outer loop
   vertex 202.331635 -73.549637 243.357071
   vertex 202.331635 -72.868744 242.862381
   vertex 202.331635 -73.397285 243.540253
  endloop
 endfacet
 facet normal 0.000011 -0.587779 -0.809021
  outer loop
   vertex 201.172928 -72.868744 242.862366
   vertex 202.331635 -72.868744 242.862381
   vertex 202.331635 -73.549637 243.357071
  endloop
 endfacet
 facet normal -0.000002 -0.007457 0.999972
  outer loop
   vertex 211.419952 -73.477242 243.497467
   vertex 211.419952 -73.331970 243.498550
   vertex 201.419952 -73.331970 243.498535
  endloop
 endfacet
 facet normal -0.000001 -0.809018 0.587784
  outer loop
   vertex 201.419952 -73.331970 243.498535
   vertex 211.419952 -73.331970 243.498550
   vertex 211.419952 -72.639420 244.451767
  endloop
 endfacet
 facet normal -0.000001 -0.809018 0.587784
  outer loop
   vertex 211.419952 -72.639420 244.451767
   vertex 201.419952 -72.639420 244.451752
   vertex 201.419952 -73.331970 243.498535
  endloop
 endfacet
 facet normal 0.000000 -0.953329 -0.301933
  outer loop
   vertex 201.419952 -72.683281 244.590240
   vertex 201.419952 -72.639420 244.451752
   vertex 211.419952 -72.639420 244.451767
  endloop
 endfacet
 facet normal -0.000000 0.587791 0.809013
  outer loop
   vertex 211.666977 -71.891243 244.207794
   vertex 210.508255 -71.891243 244.207794
   vertex 210.508255 -72.572136 244.702499
  endloop
 endfacet
 facet normal -1.000000 -0.000000 -0.000000
  outer loop
   vertex 210.508255 -72.572136 244.702499
   vertex 210.508255 -71.891243 244.207794
   vertex 210.508255 -72.699280 244.500992
  endloop
 endfacet
 facet normal -1.000000 0.000000 -0.000000
  outer loop
   vertex 210.508255 -72.699280 244.500992
   vertex 210.508255 -72.677040 244.699509
   vertex 210.508255 -72.572136 244.702499
  endloop
 endfacet
 facet normal -1.000000 -0.000000 -0.000000
  outer loop
   vertex 210.508255 -72.770477 244.570908
   vertex 210.508255 -72.677040 244.699509
   vertex 210.508255 -72.699280 244.500992
  endloop
 endfacet
 facet normal 0.000000 0.965984 -0.258602
  outer loop
   vertex 211.419952 -72.513000 244.560593
   vertex 201.419952 -72.513000 244.560577
   vertex 211.419952 -72.503716 244.595276
  endloop
 endfacet
 facet normal -0.000000 0.966012 -0.258495
  outer loop
   vertex 211.419952 -72.503716 244.595276
   vertex 201.419952 -72.513000 244.560577
   vertex 201.419952 -72.503716 244.595276
  endloop
 endfacet
 facet normal 0.000000 0.587821 0.808991
  outer loop
   vertex 201.419952 -72.503716 244.595276
   vertex 211.419952 -72.618858 244.678940
   vertex 211.419952 -72.503716 244.595276
  endloop
 endfacet
 facet normal -0.000001 0.587751 0.809042
  outer loop
   vertex 201.419952 -72.618858 244.678925
   vertex 211.419952 -72.618858 244.678940
   vertex 201.419952 -72.503716 244.595276
  endloop
 endfacet
 facet normal -0.000001 -0.809061 0.587725
  outer loop
   vertex 201.419952 -72.683281 244.590240
   vertex 211.419952 -72.618858 244.678940
   vertex 201.419952 -72.618858 244.678925
  endloop
 endfacet
 facet normal 0.000000 -0.809019 0.587782
  outer loop
   vertex 213.068863 -71.768944 243.780212
   vertex 211.420700 -72.424286 242.878204
   vertex 213.068863 -72.424286 242.878204
  endloop
 endfacet
 facet normal 0.000000 -0.587786 -0.809016
  outer loop
   vertex 213.068863 -72.424286 242.878204
   vertex 211.420700 -72.424286 242.878204
   vertex 213.068863 -71.177551 241.972397
  endloop
 endfacet
 facet normal 1.000000 0.000000 0.000000
  outer loop
   vertex 213.068863 -71.177551 241.972397
   vertex 213.068863 -70.522209 242.874405
   vertex 213.068863 -72.424286 242.878204
  endloop
 endfacet
 facet normal -0.000000 0.809019 -0.587782
  outer loop
   vertex 211.420700 -71.177551 241.972397
   vertex 213.068863 -70.522209 242.874405
   vertex 213.068863 -71.177551 241.972397
  endloop
 endfacet
 facet normal 0.000000 0.809019 -0.587782
  outer loop
   vertex 211.420700 -70.522209 242.874405
   vertex 213.068863 -70.522209 242.874405
   vertex 211.420700 -71.177551 241.972397
  endloop
 endfacet
 facet normal -1.000000 -0.000000 -0.000000
  outer loop
   vertex 211.420700 -71.177551 241.972397
   vertex 211.420700 -72.424286 242.878204
   vertex 211.420700 -70.522209 242.874405
  endloop
 endfacet
 facet normal -1.000000 0.000000 0.000000
  outer loop
   vertex 211.420700 -70.522209 242.874405
   vertex 211.420700 -72.424286 242.878204
   vertex 211.420700 -71.768944 243.780212
  endloop
 endfacet
 facet normal -0.000000 -0.809019 0.587782
  outer loop
   vertex 211.420700 -71.768944 243.780212
   vertex 211.420700 -72.424286 242.878204
   vertex 213.068863 -71.768944 243.780212
  endloop
 endfacet
 facet normal 0.000000 0.587786 0.809016
  outer loop
   vertex 213.068863 -71.768944 243.780212
   vertex 213.068863 -70.522209 242.874405
   vertex 211.420700 -71.768944 243.780212
  endloop
 endfacet
 facet normal 1.000000 -0.000000 -0.000000
  outer loop
   vertex 213.068863 -72.424286 242.878204
   vertex 213.068863 -70.522209 242.874405
   vertex 213.068863 -71.768944 243.780212
  endloop
 endfacet
 facet normal 0.000000 0.587786 0.809016
  outer loop
   vertex 199.771042 -71.768944 243.780197
   vertex 201.419189 -71.768944 243.780197
   vertex 199.771042 -70.522209 242.874390
  endloop
 endfacet
 facet normal -0.000000 0.587786 0.809016
  outer loop
   vertex 199.771042 -70.522209 242.874390
   vertex 201.419189 -71.768944 243.780197
   vertex 201.419205 -70.522209 242.874390
  endloop
 endfacet
 facet normal 0.000000 0.809019 -0.587782
  outer loop
   vertex 201.419205 -70.522209 242.874390
   vertex 199.771042 -71.177551 241.972382
   vertex 199.771042 -70.522209 242.874390
  endloop
 endfacet
 facet normal -0.000000 0.809019 -0.587782
  outer loop
   vertex 201.419205 -71.177551 241.972382
   vertex 199.771042 -71.177551 241.972382
   vertex 201.419205 -70.522209 242.874390
  endloop
 endfacet
 facet normal 0.000000 -0.587786 -0.809016
  outer loop
   vertex 201.419189 -72.424286 242.878189
   vertex 199.771042 -71.177551 241.972382
   vertex 201.419205 -71.177551 241.972382
  endloop
 endfacet
 facet normal 1.000000 -0.000008 0.000006
  outer loop
   vertex 201.419205 -71.177551 241.972382
   vertex 201.419189 -71.768944 243.780197
   vertex 201.419189 -72.424286 242.878189
  endloop
 endfacet
 facet normal 0.000000 -0.809019 0.587782
  outer loop
   vertex 201.419189 -72.424286 242.878189
   vertex 201.419189 -71.768944 243.780197
   vertex 199.771042 -72.424286 242.878189
  endloop
 endfacet
 facet normal -0.000000 -0.809019 0.587782
  outer loop
   vertex 199.771042 -72.424286 242.878189
   vertex 201.419189 -71.768944 243.780197
   vertex 199.771042 -71.768944 243.780197
  endloop
 endfacet
 facet normal -1.000000 0.000000 0.000000
  outer loop
   vertex 199.771042 -71.768944 243.780197
   vertex 199.771042 -71.177551 241.972382
   vertex 199.771042 -72.424286 242.878189
  endloop
 endfacet
 facet normal -1.000000 -0.000000 0.000000
  outer loop
   vertex 199.771042 -70.522209 242.874390
   vertex 199.771042 -71.177551 241.972382
   vertex 199.771042 -71.768944 243.780197
  endloop
 endfacet
 facet normal 0.000000 0.809019 -0.587782
  outer loop
   vertex 214.508392 -71.746017 242.765472
   vertex 214.158401 -71.746017 242.765472
   vertex 214.158401 -71.452126 243.169983
  endloop
 endfacet
 facet normal -0.000018 -0.809019 0.587782
  outer loop
   vertex 214.158401 -71.452126 243.169983
   vertex 214.158401 -71.746017 242.765472
   vertex 214.333389 -71.599075 242.967728
  endloop
 endfacet
 facet normal 0.000000 -0.809012 0.587792
  outer loop
   vertex 214.333389 -71.599075 242.967728
   vertex 214.508392 -71.452126 243.169983
   vertex 214.158401 -71.452126 243.169983
  endloop
 endfacet
 facet normal 0.000018 -0.809019 0.587782
  outer loop
   vertex 214.508392 -71.746017 242.765472
   vertex 214.508392 -71.452126 243.169983
   vertex 214.333389 -71.599075 242.967728
  endloop
 endfacet
 facet normal 1.000000 0.000000 0.000000
  outer loop
   vertex 214.508392 -70.643105 242.582199
   vertex 214.508392 -71.452126 243.169983
   vertex 214.508392 -71.746017 242.765472
  endloop
 endfacet
 facet normal 1.000000 -0.000000 -0.000000
  outer loop
   vertex 214.508392 -71.746017 242.765472
   vertex 214.508392 -70.937004 242.177689
   vertex 214.508392 -70.643105 242.582199
  endloop
 endfacet
 facet normal 0.000005 0.809012 -0.587792
  outer loop
   vertex 214.508392 -70.643105 242.582199
   vertex 214.508392 -70.937004 242.177689
   vertex 212.808395 -70.643105 242.582184
  endloop
 endfacet
 facet normal -0.000000 0.809001 -0.587807
  outer loop
   vertex 212.808395 -70.643105 242.582184
   vertex 214.508392 -70.937004 242.177689
   vertex 212.808395 -70.937004 242.177689
  endloop
 endfacet
 facet normal -1.000000 0.000000 0.000000
  outer loop
   vertex 212.808395 -70.937004 242.177689
   vertex 212.808395 -71.746017 242.765472
   vertex 212.808395 -70.643105 242.582184
  endloop
 endfacet
 facet normal -0.000020 -0.587786 -0.809016
  outer loop
   vertex 213.225388 -71.543762 242.618515
   vertex 212.808395 -71.746017 242.765472
   vertex 212.808395 -70.937004 242.177689
  endloop
 endfacet
 facet normal 0.000000 -0.587812 -0.808997
  outer loop
   vertex 213.158401 -71.746017 242.765472
   vertex 212.808395 -71.746017 242.765472
   vertex 213.225388 -71.543762 242.618515
  endloop
 endfacet
 facet normal -0.000015 0.587792 0.809012
  outer loop
   vertex 199.614517 -71.249870 243.023010
   vertex 200.031509 -71.452126 243.169968
   vertex 200.031509 -70.643105 242.582169
  endloop
 endfacet
 facet normal 1.000000 -0.000000 -0.000000
  outer loop
   vertex 200.031509 -70.643105 242.582169
   vertex 200.031509 -71.452126 243.169968
   vertex 200.031509 -70.937004 242.177673
  endloop
 endfacet
 facet normal 0.000000 0.809001 -0.587807
  outer loop
   vertex 200.031509 -70.937004 242.177673
   vertex 198.331512 -70.643105 242.582169
   vertex 200.031509 -70.643105 242.582169
  endloop
 endfacet
 facet normal 0.000005 0.809012 -0.587792
  outer loop
   vertex 198.331512 -70.937004 242.177658
   vertex 198.331512 -70.643105 242.582169
   vertex 200.031509 -70.937004 242.177673
  endloop
 endfacet
 facet normal -1.000000 -0.000000 0.000000
  outer loop
   vertex 198.331512 -71.452126 243.169952
   vertex 198.331512 -70.643105 242.582169
   vertex 198.331512 -70.937004 242.177658
  endloop
 endfacet
 facet normal -1.000000 0.000000 -0.000000
  outer loop
   vertex 198.331512 -70.937004 242.177658
   vertex 198.331512 -71.746017 242.765457
   vertex 198.331512 -71.452126 243.169952
  endloop
 endfacet
 facet normal 0.000008 -0.809009 0.587797
  outer loop
   vertex 198.331512 -71.452126 243.169952
   vertex 198.331512 -71.746017 242.765457
   vertex 198.506516 -71.599075 242.967697
  endloop
 endfacet
 facet normal -0.000000 -0.809005 0.587801
  outer loop
   vertex 198.506516 -71.599075 242.967697
   vertex 198.331512 -71.746017 242.765457
   vertex 198.681503 -71.746017 242.765457
  endloop
 endfacet
 facet normal -0.000008 -0.809009 0.587797
  outer loop
   vertex 198.681503 -71.746017 242.765457
   vertex 198.681503 -71.452126 243.169952
   vertex 198.506516 -71.599075 242.967697
  endloop
 endfacet
 facet normal -0.000000 0.809009 -0.587797
  outer loop
   vertex 198.331512 -71.452126 243.169952
   vertex 198.681503 -71.452126 243.169952
   vertex 198.681503 -71.746017 242.765457
  endloop
 endfacet
 facet normal 0.000000 -0.809012 0.587792
  outer loop
   vertex 198.506516 -71.599075 242.967697
   vertex 198.681503 -71.452126 243.169952
   vertex 198.331512 -71.452126 243.169952
  endloop
 endfacet
 facet normal -0.000001 -0.809013 0.587791
  outer loop
   vertex 201.419952 -73.477242 243.497452
   vertex 201.419952 -73.541664 243.408783
   vertex 211.419952 -73.541664 243.408798
  endloop
 endfacet
 facet normal 0.000001 -0.587776 -0.809023
  outer loop
   vertex 211.419952 -73.541664 243.408798
   vertex 201.419952 -73.541664 243.408783
   vertex 201.419952 -73.426529 243.325134
  endloop
 endfacet
 facet normal -0.000000 -0.587847 -0.808972
  outer loop
   vertex 201.419952 -73.426529 243.325134
   vertex 211.419952 -73.426529 243.325134
   vertex 211.419952 -73.541664 243.408798
  endloop
 endfacet
 facet normal -0.000000 0.544361 -0.838851
  outer loop
   vertex 201.419952 -73.396408 243.344681
   vertex 211.419952 -73.426529 243.325134
   vertex 201.419952 -73.426529 243.325134
  endloop
 endfacet
 facet normal 0.000000 0.544361 -0.838851
  outer loop
   vertex 211.419952 -73.396408 243.344681
   vertex 211.419952 -73.426529 243.325134
   vertex 201.419952 -73.396408 243.344681
  endloop
 endfacet
 facet normal -0.000000 -0.587784 -0.809018
  outer loop
   vertex 201.419952 -73.396408 243.344681
   vertex 201.419952 -72.900047 242.984055
   vertex 211.419952 -73.396408 243.344681
  endloop
 endfacet
 facet normal 0.000000 -0.587784 -0.809018
  outer loop
   vertex 211.419952 -73.396408 243.344681
   vertex 201.419952 -72.900047 242.984055
   vertex 211.419952 -72.900047 242.984055
  endloop
 endfacet
 facet normal -0.000000 -0.966012 0.258495
  outer loop
   vertex 211.419952 -72.900047 242.984055
   vertex 201.419952 -72.900047 242.984055
   vertex 201.419952 -72.909332 242.949356
  endloop
 endfacet
 facet normal -0.000000 -0.965984 0.258602
  outer loop
   vertex 201.419952 -72.909332 242.949356
   vertex 211.419952 -72.909332 242.949371
   vertex 211.419952 -72.900047 242.984055
  endloop
 endfacet
 facet normal 0.000001 -0.587709 -0.809072
  outer loop
   vertex 201.419952 -72.852196 242.907852
   vertex 211.419952 -72.909332 242.949371
   vertex 201.419952 -72.909332 242.949356
  endloop
 endfacet
 facet normal 0.000001 -0.587709 -0.809072
  outer loop
   vertex 211.419952 -72.852196 242.907867
   vertex 211.419952 -72.909332 242.949371
   vertex 201.419952 -72.852196 242.907852
  endloop
 endfacet
 facet normal 0.000001 0.809019 -0.587783
  outer loop
   vertex 201.419952 -72.852196 242.907852
   vertex 201.419952 -71.929390 244.177994
   vertex 211.419952 -72.852196 242.907867
  endloop
 endfacet
 facet normal 0.000001 0.809019 -0.587783
  outer loop
   vertex 211.419952 -72.852196 242.907867
   vertex 201.419952 -71.929390 244.177994
   vertex 211.419952 -71.929390 244.178009
  endloop
 endfacet
 facet normal -0.000001 0.587760 0.809035
  outer loop
   vertex 211.419952 -71.929390 244.178009
   vertex 201.419952 -71.929390 244.177994
   vertex 211.419952 -71.986519 244.219513
  endloop
 endfacet
 facet normal -0.000007 0.587782 0.809019
  outer loop
   vertex 213.225388 -71.249870 243.023026
   vertex 212.808395 -70.643105 242.582184
   vertex 212.808395 -71.452126 243.169968
  endloop
 endfacet
 facet normal -1.000000 -0.000000 -0.000000
  outer loop
   vertex 212.808395 -71.452126 243.169968
   vertex 212.808395 -70.643105 242.582184
   vertex 212.808395 -71.746017 242.765472
  endloop
 endfacet
 facet normal 0.000000 -0.809009 0.587797
  outer loop
   vertex 212.808395 -71.746017 242.765472
   vertex 213.158401 -71.452126 243.169968
   vertex 212.808395 -71.452126 243.169968
  endloop
 endfacet
 facet normal -0.000000 -0.809009 0.587797
  outer loop
   vertex 213.158401 -71.746017 242.765472
   vertex 213.158401 -71.452126 243.169968
   vertex 212.808395 -71.746017 242.765472
  endloop
 endfacet
 facet normal 0.000000 0.809009 -0.587797
  outer loop
   vertex 212.808395 -71.746017 242.765472
   vertex 213.158401 -71.452126 243.169968
   vertex 213.158401 -71.746017 242.765472
  endloop
 endfacet
 facet normal -0.000000 -0.587772 -0.809026
  outer loop
   vertex 213.158401 -71.746017 242.765472
   vertex 213.225388 -71.948273 242.912415
   vertex 212.808395 -71.746017 242.765472
  endloop
 endfacet
 facet normal 0.000000 -0.587772 -0.809026
  outer loop
   vertex 212.808395 -71.746017 242.765472
   vertex 213.225388 -71.948273 242.912415
   vertex 212.922272 -72.089851 243.015274
  endloop
 endfacet
 facet normal 0.000006 -0.587780 -0.809021
  outer loop
   vertex 212.922272 -72.089851 243.015274
   vertex 213.225388 -71.948273 242.912415
   vertex 213.408401 -72.096336 243.019989
  endloop
 endfacet
 facet normal 0.000005 -0.587791 -0.809013
  outer loop
   vertex 213.408401 -72.096336 243.019989
   vertex 213.233398 -72.341553 243.198151
   vertex 212.922272 -72.089851 243.015274
  endloop
 endfacet
 facet normal -0.000014 -0.587782 -0.809020
  outer loop
   vertex 213.658401 -72.150528 243.059357
   vertex 213.233398 -72.341553 243.198151
   vertex 213.408401 -72.096336 243.019989
  endloop
 endfacet
 facet normal -0.000001 -0.587801 -0.809006
  outer loop
   vertex 213.658401 -72.433685 243.265091
   vertex 213.233398 -72.341553 243.198151
   vertex 213.658401 -72.150528 243.059357
  endloop
 endfacet
 facet normal 0.000021 -0.587801 -0.809006
  outer loop
   vertex 213.658401 -72.150528 243.059357
   vertex 213.908401 -72.096336 243.019989
   vertex 213.658401 -72.433685 243.265091
  endloop
 endfacet
 facet normal -0.000002 -0.587790 -0.809014
  outer loop
   vertex 213.658401 -72.433685 243.265091
   vertex 213.908401 -72.096336 243.019989
   vertex 214.083389 -72.341553 243.198151
  endloop
 endfacet
 facet normal 0.000003 -0.587787 -0.809016
  outer loop
   vertex 214.083389 -72.341553 243.198151
   vertex 213.908401 -72.096336 243.019989
   vertex 214.091415 -71.948273 242.912415
  endloop
 endfacet
 facet normal -0.000010 -0.587787 -0.809016
  outer loop
   vertex 214.091415 -71.948273 242.912415
   vertex 214.394516 -72.089851 243.015274
   vertex 214.083389 -72.341553 243.198151
  endloop
 endfacet
 facet normal -0.000000 -0.587772 -0.809026
  outer loop
   vertex 214.158401 -71.746017 242.765472
   vertex 214.394516 -72.089851 243.015274
   vertex 214.091415 -71.948273 242.912415
  endloop
 endfacet
 facet normal 0.000000 -0.587772 -0.809026
  outer loop
   vertex 214.508392 -71.746017 242.765472
   vertex 214.394516 -72.089851 243.015274
   vertex 214.158401 -71.746017 242.765472
  endloop
 endfacet
 facet normal -0.000000 -0.587812 -0.808997
  outer loop
   vertex 214.158401 -71.746017 242.765472
   vertex 214.091415 -71.543762 242.618515
   vertex 214.508392 -71.746017 242.765472
  endloop
 endfacet
 facet normal 0.000020 -0.587786 -0.809016
  outer loop
   vertex 214.508392 -71.746017 242.765472
   vertex 214.091415 -71.543762 242.618515
   vertex 214.508392 -70.937004 242.177689
  endloop
 endfacet
 facet normal -0.000021 -0.587768 -0.809030
  outer loop
   vertex 214.508392 -70.937004 242.177689
   vertex 214.091415 -71.543762 242.618515
   vertex 213.908401 -71.395706 242.510956
  endloop
 endfacet
 facet normal 0.000012 -0.587796 -0.809009
  outer loop
   vertex 213.908401 -71.395706 242.510956
   vertex 213.658401 -71.341507 242.471573
   vertex 214.508392 -70.937004 242.177689
  endloop
 endfacet
 facet normal 0.000020 -0.587786 -0.809016
  outer loop
   vertex 199.614517 -71.543762 242.618500
   vertex 200.031509 -70.937004 242.177673
   vertex 200.031509 -71.746017 242.765457
  endloop
 endfacet
 facet normal 1.000000 -0.000000 -0.000000
  outer loop
   vertex 200.031509 -71.746017 242.765457
   vertex 200.031509 -70.937004 242.177673
   vertex 200.031509 -71.452126 243.169968
  endloop
 endfacet
 facet normal 0.000000 -0.809019 0.587782
  outer loop
   vertex 200.031509 -71.452126 243.169968
   vertex 199.681503 -71.746017 242.765457
   vertex 200.031509 -71.746017 242.765457
  endloop
 endfacet
 facet normal -0.000000 -0.809019 0.587782
  outer loop
   vertex 199.681503 -71.452126 243.169968
   vertex 199.681503 -71.746017 242.765457
   vertex 200.031509 -71.452126 243.169968
  endloop
 endfacet
 facet normal 0.000000 0.809019 -0.587782
  outer loop
   vertex 200.031509 -71.452126 243.169968
   vertex 199.681503 -71.746017 242.765457
   vertex 199.681503 -71.452126 243.169968
  endloop
 endfacet
 facet normal -0.000000 0.587772 0.809026
  outer loop
   vertex 199.681503 -71.452126 243.169968
   vertex 199.614517 -71.654381 243.316910
   vertex 200.031509 -71.452126 243.169968
  endloop
 endfacet
 facet normal 0.000000 0.587772 0.809026
  outer loop
   vertex 200.031509 -71.452126 243.169968
   vertex 199.614517 -71.654381 243.316910
   vertex 199.917633 -71.795959 243.419769
  endloop
 endfacet
 facet normal 0.000006 0.587780 0.809021
  outer loop
   vertex 199.917633 -71.795959 243.419769
   vertex 199.614517 -71.654381 243.316910
   vertex 199.431503 -71.802444 243.424484
  endloop
 endfacet
 facet normal 0.000005 0.587791 0.809013
  outer loop
   vertex 199.431503 -71.802444 243.424484
   vertex 199.606506 -72.047661 243.602646
   vertex 199.917633 -71.795959 243.419769
  endloop
 endfacet
 facet normal -0.000014 0.587782 0.809020
  outer loop
   vertex 199.181503 -71.856636 243.463852
   vertex 199.606506 -72.047661 243.602646
   vertex 199.431503 -71.802444 243.424484
  endloop
 endfacet
 facet normal -0.000021 0.587772 0.809026
  outer loop
   vertex 199.181503 -72.139793 243.669571
   vertex 199.606506 -72.047661 243.602646
   vertex 199.181503 -71.856636 243.463852
  endloop
 endfacet
 facet normal 0.000011 0.587772 0.809026
  outer loop
   vertex 199.181503 -71.856636 243.463852
   vertex 198.931503 -71.802444 243.424484
   vertex 199.181503 -72.139793 243.669571
  endloop
 endfacet
 facet normal 0.000023 0.587778 0.809022
  outer loop
   vertex 199.181503 -72.139793 243.669571
   vertex 198.931503 -71.802444 243.424484
   vertex 198.756500 -72.047661 243.602646
  endloop
 endfacet
 facet normal 0.000003 0.587787 0.809016
  outer loop
   vertex 198.756500 -72.047661 243.602646
   vertex 198.931503 -71.802444 243.424484
   vertex 198.748489 -71.654381 243.316910
  endloop
 endfacet
 facet normal -0.000010 0.587787 0.809016
  outer loop
   vertex 198.748489 -71.654381 243.316910
   vertex 198.445389 -71.795959 243.419769
   vertex 198.756500 -72.047661 243.602646
  endloop
 endfacet
 facet normal -0.000025 0.587807 0.809001
  outer loop
   vertex 198.681503 -71.452126 243.169952
   vertex 198.445389 -71.795959 243.419769
   vertex 198.748489 -71.654381 243.316910
  endloop
 endfacet
 facet normal 0.000000 0.587796 0.809009
  outer loop
   vertex 198.331512 -71.452126 243.169952
   vertex 198.445389 -71.795959 243.419769
   vertex 198.681503 -71.452126 243.169952
  endloop
 endfacet
 facet normal -0.000000 0.587772 0.809026
  outer loop
   vertex 198.681503 -71.452126 243.169952
   vertex 198.748489 -71.249870 243.023010
   vertex 198.331512 -71.452126 243.169952
  endloop
 endfacet
 facet normal -0.000007 0.587782 0.809019
  outer loop
   vertex 198.331512 -71.452126 243.169952
   vertex 198.748489 -71.249870 243.023010
   vertex 198.331512 -70.643105 242.582169
  endloop
 endfacet
 facet normal 0.000015 0.587793 0.809012
  outer loop
   vertex 198.331512 -70.643105 242.582169
   vertex 198.748489 -71.249870 243.023010
   vertex 198.931503 -71.101814 242.915436
  endloop
 endfacet
 facet normal -0.000025 0.587758 0.809036
  outer loop
   vertex 198.931503 -71.101814 242.915436
   vertex 199.181503 -71.047615 242.876068
   vertex 198.331512 -70.643105 242.582169
  endloop
 endfacet
 facet normal 0.000013 -0.154853 -0.987937
  outer loop
   vertex 201.172928 -72.868744 242.862366
   vertex 201.172928 -72.323593 242.776917
   vertex 202.331635 -72.868744 242.862381
  endloop
 endfacet
 facet normal 0.000000 -0.154880 -0.987933
  outer loop
   vertex 202.331635 -72.868744 242.862381
   vertex 201.172928 -72.323593 242.776917
   vertex 202.331635 -72.323593 242.776917
  endloop
 endfacet
 facet normal 1.000000 0.000000 0.000000
  outer loop
   vertex 202.331635 -72.323593 242.776917
   vertex 202.331635 -71.641518 243.715729
   vertex 202.331635 -72.868744 242.862381
  endloop
 endfacet
 facet normal -0.000000 0.809022 -0.587779
  outer loop
   vertex 201.172928 -72.323593 242.776917
   vertex 202.331635 -71.641518 243.715729
   vertex 202.331635 -72.323593 242.776917
  endloop
 endfacet
 facet normal 0.000000 0.809022 -0.587779
  outer loop
   vertex 201.172928 -71.641518 243.715729
   vertex 202.331635 -71.641518 243.715729
   vertex 201.172928 -72.323593 242.776917
  endloop
 endfacet
 facet normal -1.000000 -0.000000 -0.000000
  outer loop
   vertex 201.172928 -72.323593 242.776917
   vertex 201.172928 -71.891243 244.207794
   vertex 201.172928 -71.641518 243.715729
  endloop
 endfacet
 facet normal 0.000000 0.891734 0.452559
  outer loop
   vertex 201.172928 -71.641518 243.715729
   vertex 201.172928 -71.891243 244.207794
   vertex 202.331635 -71.641518 243.715729
  endloop
 endfacet
 facet normal -0.000000 0.891734 0.452559
  outer loop
   vertex 202.331635 -71.641518 243.715729
   vertex 201.172928 -71.891243 244.207794
   vertex 202.331635 -71.891243 244.207794
  endloop
 endfacet
 facet normal 1.000000 0.000000 0.000000
  outer loop
   vertex 202.331635 -71.891243 244.207794
   vertex 202.331635 -72.868744 242.862381
   vertex 202.331635 -71.641518 243.715729
  endloop
 endfacet
 facet normal 1.000000 -0.000000 -0.000000
  outer loop
   vertex 202.331635 -72.699280 244.500992
   vertex 202.331635 -72.868744 242.862381
   vertex 202.331635 -71.891243 244.207794
  endloop
 endfacet
 facet normal 1.000000 0.000000 -0.000000
  outer loop
   vertex 202.331635 -73.397285 243.540253
   vertex 202.331635 -72.868744 242.862381
   vertex 202.331635 -72.699280 244.500992
  endloop
 endfacet
 facet normal -0.000000 -0.809022 0.587779
  outer loop
   vertex 202.331635 -72.699280 244.500992
   vertex 201.172928 -73.397285 243.540253
   vertex 202.331635 -73.397285 243.540253
  endloop
 endfacet
 facet normal -0.000000 0.462137 0.886808
  outer loop
   vertex 202.331635 -73.397285 243.540253
   vertex 201.172928 -73.397285 243.540253
   vertex 202.331635 -73.485771 243.586365
  endloop
 endfacet
 facet normal -0.000000 0.462137 0.886808
  outer loop
   vertex 202.331635 -73.485771 243.586365
   vertex 201.172928 -73.397285 243.540253
   vertex 201.172928 -73.485771 243.586365
  endloop
 endfacet
 facet normal 0.000000 -0.809008 0.587798
  outer loop
   vertex 201.172928 -73.485771 243.586365
   vertex 202.331635 -73.579208 243.457764
   vertex 202.331635 -73.485771 243.586365
  endloop
 endfacet
 facet normal 0.000005 -0.808985 0.587829
  outer loop
   vertex 201.172928 -73.579216 243.457764
   vertex 202.331635 -73.579208 243.457764
   vertex 201.172928 -73.485771 243.586365
  endloop
 endfacet
 facet normal 0.000006 -0.959459 -0.281848
  outer loop
   vertex 201.172928 -73.549637 243.357071
   vertex 202.331635 -73.579208 243.457764
   vertex 201.172928 -73.579216 243.457764
  endloop
 endfacet
 facet normal -1.000000 -0.000000 -0.000000
  outer loop
   vertex 201.172928 -73.579216 243.457764
   vertex 201.172928 -73.397285 243.540253
   vertex 201.172928 -73.549637 243.357071
  endloop
 endfacet
 facet normal -1.000000 0.000000 -0.000000
  outer loop
   vertex 201.172928 -73.549637 243.357071
   vertex 201.172928 -73.397285 243.540253
   vertex 201.172928 -72.868744 242.862366
  endloop
 endfacet
 facet normal -1.000000 0.000000 -0.000000
  outer loop
   vertex 201.172928 -72.868744 242.862366
   vertex 201.172928 -73.397285 243.540253
   vertex 201.172928 -72.699280 244.500977
  endloop
 endfacet
 facet normal -1.000000 -0.000000 0.000000
  outer loop
   vertex 201.172928 -72.699280 244.500977
   vertex 201.172928 -71.891243 244.207794
   vertex 201.172928 -72.868744 242.862366
  endloop
 endfacet
 facet normal -1.000000 -0.000000 -0.000000
  outer loop
   vertex 201.172928 -72.572136 244.702484
   vertex 201.172928 -71.891243 244.207794
   vertex 201.172928 -72.699280 244.500977
  endloop
 endfacet
 facet normal -0.000000 0.587779 0.809021
  outer loop
   vertex 202.331635 -71.891243 244.207794
   vertex 201.172928 -71.891243 244.207794
   vertex 201.172928 -72.572136 244.702484
  endloop
 endfacet
 facet normal 0.000000 0.587779 0.809021
  outer loop
   vertex 201.172928 -72.572136 244.702484
   vertex 202.331635 -72.572136 244.702484
   vertex 202.331635 -71.891243 244.207794
  endloop
 endfacet
 facet normal 1.000000 0.000000 0.000000
  outer loop
   vertex 202.331635 -71.891243 244.207794
   vertex 202.331635 -72.572136 244.702484
   vertex 202.331635 -72.699280 244.500992
  endloop
 endfacet
 facet normal 1.000000 -0.000000 -0.000000
  outer loop
   vertex 202.331635 -72.699280 244.500992
   vertex 202.331635 -72.572136 244.702484
   vertex 202.331635 -72.677040 244.699493
  endloop
 endfacet
 facet normal 1.000000 -0.000000 0.000000
  outer loop
   vertex 202.331635 -72.677040 244.699493
   vertex 202.331635 -72.770477 244.570892
   vertex 202.331635 -72.699280 244.500992
  endloop
 endfacet
 facet normal -0.000000 -0.809008 0.587798
  outer loop
   vertex 201.172928 -72.770477 244.570892
   vertex 202.331635 -72.770477 244.570892
   vertex 202.331635 -72.677040 244.699493
  endloop
 endfacet
 facet normal -0.000000 -0.700577 -0.713576
  outer loop
   vertex 202.331635 -72.699280 244.500992
   vertex 202.331635 -72.770477 244.570892
   vertex 201.172928 -72.770477 244.570892
  endloop
 endfacet
 facet normal 0.000009 -0.700655 -0.713500
  outer loop
   vertex 201.172928 -72.770477 244.570892
   vertex 201.172928 -72.699280 244.500977
   vertex 202.331635 -72.699280 244.500992
  endloop
 endfacet
 facet normal -0.000008 -0.809017 0.587785
  outer loop
   vertex 202.331635 -72.699280 244.500992
   vertex 201.172928 -72.699280 244.500977
   vertex 201.172928 -73.397285 243.540253
  endloop
 endfacet
 facet normal 0.000000 0.891729 0.452570
  outer loop
   vertex 211.666977 -71.891243 244.207794
   vertex 211.666977 -71.641518 243.715744
   vertex 210.508255 -71.891243 244.207794
  endloop
 endfacet
 facet normal 0.000000 0.891729 0.452570
  outer loop
   vertex 210.508255 -71.891243 244.207794
   vertex 211.666977 -71.641518 243.715744
   vertex 210.508255 -71.641518 243.715744
  endloop
 endfacet
 facet normal -1.000000 -0.000013 -0.000007
  outer loop
   vertex 210.508255 -71.641518 243.715744
   vertex 210.508270 -72.323593 242.776932
   vertex 210.508255 -71.891243 244.207794
  endloop
 endfacet
 facet normal -0.000000 0.809022 -0.587779
  outer loop
   vertex 211.666977 -71.641518 243.715744
   vertex 210.508270 -72.323593 242.776932
   vertex 210.508255 -71.641518 243.715744
  endloop
 endfacet
 facet normal 0.000000 0.809022 -0.587779
  outer loop
   vertex 211.666977 -72.323593 242.776932
   vertex 210.508270 -72.323593 242.776932
   vertex 211.666977 -71.641518 243.715744
  endloop
 endfacet
 facet normal 1.000000 -0.000000 -0.000000
  outer loop
   vertex 211.666977 -71.641518 243.715744
   vertex 211.666977 -72.868744 242.862381
   vertex 211.666977 -72.323593 242.776932
  endloop
 endfacet
 facet normal 0.000000 -0.154853 -0.987937
  outer loop
   vertex 211.666977 -72.323593 242.776932
   vertex 211.666977 -72.868744 242.862381
   vertex 210.508270 -72.323593 242.776932
  endloop
 endfacet
 facet normal -0.000000 -0.154853 -0.987937
  outer loop
   vertex 210.508270 -72.323593 242.776932
   vertex 211.666977 -72.868744 242.862381
   vertex 210.508270 -72.868744 242.862381
  endloop
 endfacet
 facet normal -1.000000 -0.000002 -0.000010
  outer loop
   vertex 210.508270 -72.868744 242.862381
   vertex 210.508255 -71.891243 244.207794
   vertex 210.508270 -72.323593 242.776932
  endloop
 endfacet
 facet normal -1.000000 0.000007 -0.000017
  outer loop
   vertex 210.508255 -73.397285 243.540268
   vertex 210.508255 -71.891243 244.207794
   vertex 210.508270 -72.868744 242.862381
  endloop
 endfacet
 facet normal -1.000000 -0.000000 0.000000
  outer loop
   vertex 210.508255 -72.699280 244.500992
   vertex 210.508255 -71.891243 244.207794
   vertex 210.508255 -73.397285 243.540268
  endloop
 endfacet
 facet normal -0.000000 -0.809017 0.587785
  outer loop
   vertex 210.508255 -73.397285 243.540268
   vertex 211.666977 -72.699280 244.500992
   vertex 210.508255 -72.699280 244.500992
  endloop
 endfacet
 facet normal -0.000000 -0.700655 -0.713500
  outer loop
   vertex 210.508255 -72.699280 244.500992
   vertex 211.666977 -72.699280 244.500992
   vertex 210.508255 -72.770477 244.570908
  endloop
 endfacet
 facet normal -0.000000 -0.700655 -0.713500
  outer loop
   vertex 210.508255 -72.770477 244.570908
   vertex 211.666977 -72.699280 244.500992
   vertex 211.666977 -72.770477 244.570908
  endloop
 endfacet
 facet normal 0.000000 -0.809008 0.587798
  outer loop
   vertex 211.666977 -72.770477 244.570908
   vertex 210.508255 -72.677040 244.699509
   vertex 210.508255 -72.770477 244.570908
  endloop
 endfacet
 facet normal -0.000000 -0.809008 0.587798
  outer loop
   vertex 211.666977 -72.677040 244.699509
   vertex 210.508255 -72.677040 244.699509
   vertex 211.666977 -72.770477 244.570908
  endloop
 endfacet
 facet normal 0.000000 -0.028498 0.999594
  outer loop
   vertex 211.666977 -72.572136 244.702499
   vertex 210.508255 -72.677040 244.699509
   vertex 211.666977 -72.677040 244.699509
  endloop
 endfacet
 facet normal 1.000000 -0.000000 -0.000000
  outer loop
   vertex 211.666977 -72.677040 244.699509
   vertex 211.666977 -72.699280 244.500992
   vertex 211.666977 -72.572136 244.702499
  endloop
 endfacet
 facet normal 1.000000 -0.000000 0.000000
  outer loop
   vertex 211.666977 -72.572136 244.702499
   vertex 211.666977 -72.699280 244.500992
   vertex 211.666977 -71.891243 244.207794
  endloop
 endfacet
 facet normal 1.000000 -0.000000 0.000000
  outer loop
   vertex 211.666977 -71.891243 244.207794
   vertex 211.666977 -72.699280 244.500992
   vertex 211.666977 -73.397285 243.540268
  endloop
 endfacet
 facet normal 1.000000 0.000000 -0.000000
  outer loop
   vertex 211.666977 -73.397285 243.540268
   vertex 211.666977 -72.868744 242.862381
   vertex 211.666977 -71.891243 244.207794
  endloop
 endfacet
 facet normal 1.000000 -0.000000 -0.000000
  outer loop
   vertex 211.666977 -73.549637 243.357086
   vertex 211.666977 -72.868744 242.862381
   vertex 211.666977 -73.397285 243.540268
  endloop
 endfacet
 facet normal -0.000000 -0.587791 -0.809013
  outer loop
   vertex 210.508270 -72.868744 242.862381
   vertex 211.666977 -72.868744 242.862381
   vertex 211.666977 -73.549637 243.357086
  endloop
 endfacet
 facet normal 0.000000 -0.587791 -0.809013
  outer loop
   vertex 211.666977 -73.549637 243.357086
   vertex 210.508255 -73.549637 243.357086
   vertex 210.508270 -72.868744 242.862381
  endloop
 endfacet
 facet normal -1.000000 0.000014 -0.000012
  outer loop
   vertex 210.508270 -72.868744 242.862381
   vertex 210.508255 -73.549637 243.357086
   vertex 210.508255 -73.397285 243.540268
  endloop
 endfacet
 facet normal -1.000000 -0.000000 0.000000
  outer loop
   vertex 210.508255 -73.397285 243.540268
   vertex 210.508255 -73.549637 243.357086
   vertex 210.508255 -73.579208 243.457764
  endloop
 endfacet
 facet normal -1.000000 0.000000 -0.000000
  outer loop
   vertex 210.508255 -73.579208 243.457764
   vertex 210.508255 -73.485771 243.586380
   vertex 210.508255 -73.397285 243.540268
  endloop
 endfacet
 facet normal -0.000000 -0.809041 0.587752
  outer loop
   vertex 211.666977 -73.485771 243.586380
   vertex 210.508255 -73.485771 243.586380
   vertex 210.508255 -73.579208 243.457764
  endloop
 endfacet
 facet normal -0.000000 0.462137 0.886808
  outer loop
   vertex 210.508255 -73.397285 243.540268
   vertex 210.508255 -73.485771 243.586380
   vertex 211.666977 -73.485771 243.586380
  endloop
 endfacet
 facet normal 0.000000 0.462137 0.886808
  outer loop
   vertex 211.666977 -73.485771 243.586380
   vertex 211.666977 -73.397285 243.540268
   vertex 210.508255 -73.397285 243.540268
  endloop
 endfacet
 facet normal 0.000000 -0.809017 0.587785
  outer loop
   vertex 210.508255 -73.397285 243.540268
   vertex 211.666977 -73.397285 243.540268
   vertex 211.666977 -72.699280 244.500992
  endloop
 endfacet
 facet normal -0.000000 -0.587772 -0.809026
  outer loop
   vertex 199.681503 -71.746017 242.765457
   vertex 200.031509 -71.746017 242.765457
   vertex 199.614517 -71.948273 242.912399
  endloop
 endfacet
 facet normal -0.000000 -0.587772 -0.809026
  outer loop
   vertex 199.614517 -71.948273 242.912399
   vertex 200.031509 -71.746017 242.765457
   vertex 199.917633 -72.089851 243.015259
  endloop
 endfacet
 facet normal -0.000006 -0.587780 -0.809021
  outer loop
   vertex 199.917633 -72.089851 243.015259
   vertex 199.431503 -72.096336 243.019974
   vertex 199.614517 -71.948273 242.912399
  endloop
 endfacet
 facet normal -0.000005 -0.587791 -0.809013
  outer loop
   vertex 199.606506 -72.341553 243.198135
   vertex 199.431503 -72.096336 243.019974
   vertex 199.917633 -72.089851 243.015259
  endloop
 endfacet
 facet normal 0.000014 -0.587782 -0.809020
  outer loop
   vertex 199.181503 -72.150528 243.059341
   vertex 199.431503 -72.096336 243.019974
   vertex 199.606506 -72.341553 243.198135
  endloop
 endfacet
 facet normal 0.000021 -0.587772 -0.809026
  outer loop
   vertex 199.606506 -72.341553 243.198135
   vertex 199.181503 -72.433685 243.265060
   vertex 199.181503 -72.150528 243.059341
  endloop
 endfacet
 facet normal -0.000011 -0.587772 -0.809026
  outer loop
   vertex 199.181503 -72.150528 243.059341
   vertex 199.181503 -72.433685 243.265060
   vertex 198.931503 -72.096336 243.019974
  endloop
 endfacet
 facet normal -0.000023 -0.587778 -0.809022
  outer loop
   vertex 198.931503 -72.096336 243.019974
   vertex 199.181503 -72.433685 243.265060
   vertex 198.756500 -72.341553 243.198135
  endloop
 endfacet
 facet normal -0.000003 -0.587787 -0.809016
  outer loop
   vertex 198.756500 -72.341553 243.198135
   vertex 198.748489 -71.948273 242.912399
   vertex 198.931503 -72.096336 243.019974
  endloop
 endfacet
 facet normal 0.000010 -0.587787 -0.809016
  outer loop
   vertex 198.445389 -72.089851 243.015259
   vertex 198.748489 -71.948273 242.912399
   vertex 198.756500 -72.341553 243.198135
  endloop
 endfacet
 facet normal 0.000000 -0.587772 -0.809026
  outer loop
   vertex 198.681503 -71.746017 242.765457
   vertex 198.748489 -71.948273 242.912399
   vertex 198.445389 -72.089851 243.015259
  endloop
 endfacet
 facet normal 0.000000 -0.587772 -0.809026
  outer loop
   vertex 198.445389 -72.089851 243.015259
   vertex 198.331512 -71.746017 242.765457
   vertex 198.681503 -71.746017 242.765457
  endloop
 endfacet
 facet normal 0.000000 -0.587812 -0.808997
  outer loop
   vertex 198.681503 -71.746017 242.765457
   vertex 198.331512 -71.746017 242.765457
   vertex 198.748489 -71.543762 242.618500
  endloop
 endfacet
 facet normal -0.000012 -0.587796 -0.809009
  outer loop
   vertex 198.748489 -71.543762 242.618500
   vertex 198.331512 -71.746017 242.765457
   vertex 198.331512 -70.937004 242.177658
  endloop
 endfacet
 facet normal -0.000011 -0.587796 -0.809009
  outer loop
   vertex 198.331512 -70.937004 242.177658
   vertex 198.931503 -71.395706 242.510925
   vertex 198.748489 -71.543762 242.618500
  endloop
 endfacet
 facet normal 0.000026 -0.587763 -0.809033
  outer loop
   vertex 199.181503 -71.341507 242.471558
   vertex 198.931503 -71.395706 242.510925
   vertex 198.331512 -70.937004 242.177658
  endloop
 endfacet
 facet normal -0.000000 0.587812 0.808997
  outer loop
   vertex 213.158401 -71.452126 243.169968
   vertex 212.808395 -71.452126 243.169968
   vertex 213.225388 -71.654381 243.316925
  endloop
 endfacet
 facet normal -0.000015 0.587793 0.809012
  outer loop
   vertex 213.225388 -71.654381 243.316925
   vertex 212.808395 -71.452126 243.169968
   vertex 212.922272 -71.795959 243.419785
  endloop
 endfacet
 facet normal -0.000006 0.587780 0.809021
  outer loop
   vertex 212.922272 -71.795959 243.419785
   vertex 213.408401 -71.802444 243.424500
   vertex 213.225388 -71.654381 243.316925
  endloop
 endfacet
 facet normal -0.000005 0.587791 0.809013
  outer loop
   vertex 213.233398 -72.047661 243.602661
   vertex 213.408401 -71.802444 243.424500
   vertex 212.922272 -71.795959 243.419785
  endloop
 endfacet
 facet normal 0.000014 0.587782 0.809020
  outer loop
   vertex 213.658401 -71.856636 243.463867
   vertex 213.408401 -71.802444 243.424500
   vertex 213.233398 -72.047661 243.602661
  endloop
 endfacet
 facet normal 0.000021 0.587772 0.809026
  outer loop
   vertex 213.233398 -72.047661 243.602661
   vertex 213.658401 -72.139793 243.669586
   vertex 213.658401 -71.856636 243.463867
  endloop
 endfacet
 facet normal -0.000011 0.587772 0.809026
  outer loop
   vertex 213.658401 -71.856636 243.463867
   vertex 213.658401 -72.139793 243.669586
   vertex 213.908401 -71.802444 243.424500
  endloop
 endfacet
 facet normal -0.000023 0.587778 0.809022
  outer loop
   vertex 213.908401 -71.802444 243.424500
   vertex 213.658401 -72.139793 243.669586
   vertex 214.083389 -72.047661 243.602661
  endloop
 endfacet
 facet normal -0.000003 0.587787 0.809016
  outer loop
   vertex 214.083389 -72.047661 243.602661
   vertex 214.091400 -71.654381 243.316925
   vertex 213.908401 -71.802444 243.424500
  endloop
 endfacet
 facet normal 0.000010 0.587787 0.809016
  outer loop
   vertex 214.394516 -71.795959 243.419785
   vertex 214.091400 -71.654381 243.316925
   vertex 214.083389 -72.047661 243.602661
  endloop
 endfacet
 facet normal 0.000000 0.587772 0.809026
  outer loop
   vertex 214.158401 -71.452126 243.169983
   vertex 214.091400 -71.654381 243.316925
   vertex 214.394516 -71.795959 243.419785
  endloop
 endfacet
 facet normal 0.000000 0.587772 0.809026
  outer loop
   vertex 214.394516 -71.795959 243.419785
   vertex 214.508392 -71.452126 243.169983
   vertex 214.158401 -71.452126 243.169983
  endloop
 endfacet
 facet normal 0.000000 0.587812 0.808997
  outer loop
   vertex 214.158401 -71.452126 243.169983
   vertex 214.508392 -71.452126 243.169983
   vertex 214.091415 -71.249870 243.023026
  endloop
 endfacet
 facet normal -0.000022 0.587782 0.809019
  outer loop
   vertex 214.091415 -71.249870 243.023026
   vertex 214.508392 -71.452126 243.169983
   vertex 214.508392 -70.643105 242.582199
  endloop
 endfacet
 facet normal -0.000026 0.587784 0.809018
  outer loop
   vertex 214.508392 -70.643105 242.582199
   vertex 213.908401 -71.101814 242.915451
   vertex 214.091415 -71.249870 243.023026
  endloop
 endfacet
 facet normal 0.000020 0.587745 0.809046
  outer loop
   vertex 213.658401 -71.047615 242.876083
   vertex 213.908401 -71.101814 242.915451
   vertex 214.508392 -70.643105 242.582199
  endloop
 endfacet
 facet normal 0.000000 0.587792 0.809012
  outer loop
   vertex 198.331512 -70.643105 242.582169
   vertex 199.181503 -71.047615 242.876068
   vertex 200.031509 -70.643105 242.582169
  endloop
 endfacet
 facet normal 0.000025 0.587758 0.809036
  outer loop
   vertex 200.031509 -70.643105 242.582169
   vertex 199.181503 -71.047615 242.876068
   vertex 199.431503 -71.101814 242.915436
  endloop
 endfacet
 facet normal -0.000015 0.587793 0.809012
  outer loop
   vertex 199.431503 -71.101814 242.915436
   vertex 199.614517 -71.249870 243.023010
   vertex 200.031509 -70.643105 242.582169
  endloop
 endfacet
 facet normal 0.000015 0.587793 0.809012
  outer loop
   vertex 213.225388 -71.249870 243.023026
   vertex 213.408401 -71.101814 242.915451
   vertex 212.808395 -70.643105 242.582184
  endloop
 endfacet
 facet normal -0.000025 0.587758 0.809036
  outer loop
   vertex 212.808395 -70.643105 242.582184
   vertex 213.408401 -71.101814 242.915451
   vertex 213.658401 -71.047615 242.876083
  endloop
 endfacet
 facet normal -0.000007 0.587782 0.809019
  outer loop
   vertex 213.658401 -71.047615 242.876083
   vertex 214.508392 -70.643105 242.582199
   vertex 212.808395 -70.643105 242.582184
  endloop
 endfacet
 facet normal 0.000000 -0.587780 -0.809021
  outer loop
   vertex 214.508392 -70.937004 242.177689
   vertex 213.658401 -71.341507 242.471573
   vertex 212.808395 -70.937004 242.177689
  endloop
 endfacet
 facet normal 0.000022 -0.587750 -0.809043
  outer loop
   vertex 212.808395 -70.937004 242.177689
   vertex 213.658401 -71.341507 242.471573
   vertex 213.408401 -71.395706 242.510941
  endloop
 endfacet
 facet normal -0.000022 -0.587787 -0.809016
  outer loop
   vertex 213.408401 -71.395706 242.510941
   vertex 213.225388 -71.543762 242.618515
   vertex 212.808395 -70.937004 242.177689
  endloop
 endfacet
 facet normal 0.000022 -0.587787 -0.809016
  outer loop
   vertex 199.614517 -71.543762 242.618500
   vertex 199.431503 -71.395706 242.510925
   vertex 200.031509 -70.937004 242.177673
  endloop
 endfacet
 facet normal -0.000022 -0.587750 -0.809043
  outer loop
   vertex 200.031509 -70.937004 242.177673
   vertex 199.431503 -71.395706 242.510925
   vertex 199.181503 -71.341507 242.471558
  endloop
 endfacet
 facet normal 0.000007 -0.587790 -0.809014
  outer loop
   vertex 199.181503 -71.341507 242.471558
   vertex 198.331512 -70.937004 242.177658
   vertex 200.031509 -70.937004 242.177673
  endloop
 endfacet
 facet normal 0.000000 -0.959467 -0.281820
  outer loop
   vertex 211.666977 -73.549637 243.357086
   vertex 211.666977 -73.579208 243.457764
   vertex 210.508255 -73.549637 243.357086
  endloop
 endfacet
 facet normal -0.000000 -0.959467 -0.281820
  outer loop
   vertex 210.508255 -73.549637 243.357086
   vertex 211.666977 -73.579208 243.457764
   vertex 210.508255 -73.579208 243.457764
  endloop
 endfacet
 facet normal -0.000001 0.587784 0.809018
  outer loop
   vertex 201.419952 -72.016640 244.199951
   vertex 201.419952 -72.513000 244.560577
   vertex 211.419952 -72.016640 244.199966
  endloop
 endfacet
 facet normal -0.000001 0.587784 0.809018
  outer loop
   vertex 211.419952 -72.016640 244.199966
   vertex 201.419952 -72.513000 244.560577
   vertex 211.419952 -72.513000 244.560593
  endloop
 endfacet
 facet normal 0.000000 -0.028498 0.999594
  outer loop
   vertex 202.331635 -72.677040 244.699493
   vertex 202.331635 -72.572136 244.702484
   vertex 201.172928 -72.677040 244.699493
  endloop
 endfacet
 facet normal -0.000000 -0.028498 0.999594
  outer loop
   vertex 201.172928 -72.677040 244.699493
   vertex 202.331635 -72.572136 244.702484
   vertex 201.172928 -72.572136 244.702484
  endloop
 endfacet
 facet normal 0.000000 -0.809026 0.587772
  outer loop
   vertex 214.158401 -71.746017 242.765472
   vertex 214.508392 -71.746017 242.765472
   vertex 214.333389 -71.599075 242.967728
  endloop
 endfacet
 facet normal 1.000000 0.000000 0.000000
  outer loop
   vertex 211.666977 -71.891243 244.207794
   vertex 211.666977 -72.868744 242.862381
   vertex 211.666977 -71.641518 243.715744
  endloop
 endfacet
 facet normal 0.000000 0.587772 0.809026
  outer loop
   vertex 212.808395 -71.452126 243.169968
   vertex 213.158401 -71.452126 243.169968
   vertex 213.225388 -71.249870 243.023026
  endloop
 endfacet
 facet normal 0.000000 0.587812 0.808997
  outer loop
   vertex 199.681503 -71.452126 243.169968
   vertex 200.031509 -71.452126 243.169968
   vertex 199.614517 -71.249870 243.023010
  endloop
 endfacet
 facet normal 0.000000 0.809019 -0.587782
  outer loop
   vertex 214.508392 -71.746017 242.765472
   vertex 214.158401 -71.452126 243.169983
   vertex 214.508392 -71.452126 243.169983
  endloop
 endfacet
 facet normal 0.000000 -0.587786 -0.809016
  outer loop
   vertex 201.419189 -72.424286 242.878189
   vertex 199.771042 -72.424286 242.878189
   vertex 199.771042 -71.177551 241.972382
  endloop
 endfacet
 facet normal 0.000000 0.587786 0.809016
  outer loop
   vertex 211.420700 -70.522209 242.874405
   vertex 211.420700 -71.768944 243.780212
   vertex 213.068863 -70.522209 242.874405
  endloop
 endfacet
 facet normal 0.000000 0.809009 -0.587797
  outer loop
   vertex 198.331512 -71.452126 243.169952
   vertex 198.681503 -71.746017 242.765457
   vertex 198.331512 -71.746017 242.765457
  endloop
 endfacet
 facet normal -1.000000 0.000000 -0.000000
  outer loop
   vertex 201.172928 -73.579216 243.457764
   vertex 201.172928 -73.485771 243.586365
   vertex 201.172928 -73.397285 243.540253
  endloop
 endfacet
 facet normal 0.000000 0.809009 -0.587797
  outer loop
   vertex 213.158401 -71.452126 243.169968
   vertex 212.808395 -71.746017 242.765472
   vertex 212.808395 -71.452126 243.169968
  endloop
 endfacet
 facet normal -1.000000 0.000000 0.000000
  outer loop
   vertex 201.172928 -72.868744 242.862366
   vertex 201.172928 -71.891243 244.207794
   vertex 201.172928 -72.323593 242.776917
  endloop
 endfacet
 facet normal 1.000000 -0.000000 0.000000
  outer loop
   vertex 211.666977 -72.677040 244.699509
   vertex 211.666977 -72.770477 244.570908
   vertex 211.666977 -72.699280 244.500992
  endloop
 endfacet
 facet normal 0.000000 -0.587786 -0.809016
  outer loop
   vertex 211.420700 -72.424286 242.878204
   vertex 211.420700 -71.177551 241.972397
   vertex 213.068863 -71.177551 241.972397
  endloop
 endfacet
 facet normal 1.000000 -0.000008 0.000006
  outer loop
   vertex 201.419205 -71.177551 241.972382
   vertex 201.419205 -70.522209 242.874390
   vertex 201.419189 -71.768944 243.780197
  endloop
 endfacet
 facet normal 0.000000 0.809019 -0.587782
  outer loop
   vertex 199.681503 -71.746017 242.765457
   vertex 200.031509 -71.452126 243.169968
   vertex 200.031509 -71.746017 242.765457
  endloop
 endfacet
 facet normal 0.000000 -0.587812 -0.808997
  outer loop
   vertex 200.031509 -71.746017 242.765457
   vertex 199.681503 -71.746017 242.765457
   vertex 199.614517 -71.543762 242.618500
  endloop
 endfacet
 facet normal -0.707100 -0.572068 0.415629
  outer loop
   vertex 199.431503 -71.395706 242.510925
   vertex 199.614517 -71.249870 243.023010
   vertex 199.431503 -71.101814 242.915436
  endloop
 endfacet
 facet normal -0.258821 -0.781452 0.567754
  outer loop
   vertex 199.431503 -71.395706 242.510925
   vertex 199.431503 -71.101814 242.915436
   vertex 199.181503 -71.341507 242.471558
  endloop
 endfacet
 facet normal -0.258821 -0.781452 0.567754
  outer loop
   vertex 199.181503 -71.341507 242.471558
   vertex 199.431503 -71.101814 242.915436
   vertex 199.181503 -71.047615 242.876068
  endloop
 endfacet
 facet normal 0.258821 -0.781452 0.567754
  outer loop
   vertex 199.181503 -71.047615 242.876068
   vertex 198.931503 -71.395706 242.510925
   vertex 199.181503 -71.341507 242.471558
  endloop
 endfacet
 facet normal 0.258821 -0.781452 0.567754
  outer loop
   vertex 198.931503 -71.101814 242.915436
   vertex 198.931503 -71.395706 242.510925
   vertex 199.181503 -71.047615 242.876068
  endloop
 endfacet
 facet normal 0.707100 -0.572068 0.415629
  outer loop
   vertex 198.748489 -71.543762 242.618500
   vertex 198.931503 -71.395706 242.510925
   vertex 198.931503 -71.101814 242.915436
  endloop
 endfacet
 facet normal 0.707100 -0.572068 0.415629
  outer loop
   vertex 198.931503 -71.101814 242.915436
   vertex 198.748489 -71.249870 243.023010
   vertex 198.748489 -71.543762 242.618500
  endloop
 endfacet
 facet normal 0.965929 -0.209380 0.152123
  outer loop
   vertex 198.748489 -71.543762 242.618500
   vertex 198.748489 -71.249870 243.023010
   vertex 198.681503 -71.746017 242.765457
  endloop
 endfacet
 facet normal -0.965929 -0.209380 0.152123
  outer loop
   vertex 214.158401 -71.746017 242.765472
   vertex 214.158401 -71.452126 243.169983
   vertex 214.091415 -71.543762 242.618515
  endloop
 endfacet
 facet normal -0.965929 -0.209380 0.152123
  outer loop
   vertex 214.091415 -71.543762 242.618515
   vertex 214.158401 -71.452126 243.169983
   vertex 214.091415 -71.249870 243.023026
  endloop
 endfacet
 facet normal -0.707083 -0.572082 0.415639
  outer loop
   vertex 214.091415 -71.249870 243.023026
   vertex 213.908401 -71.395706 242.510956
   vertex 214.091415 -71.543762 242.618515
  endloop
 endfacet
 facet normal -0.707100 -0.572061 0.415639
  outer loop
   vertex 213.908401 -71.101814 242.915451
   vertex 213.908401 -71.395706 242.510956
   vertex 214.091415 -71.249870 243.023026
  endloop
 endfacet
 facet normal -0.258853 -0.781435 0.567763
  outer loop
   vertex 213.658401 -71.341507 242.471573
   vertex 213.908401 -71.395706 242.510956
   vertex 213.908401 -71.101814 242.915451
  endloop
 endfacet
 facet normal -0.258821 -0.781452 0.567754
  outer loop
   vertex 213.908401 -71.101814 242.915451
   vertex 213.658401 -71.047615 242.876083
   vertex 213.658401 -71.341507 242.471573
  endloop
 endfacet
 facet normal 0.258821 -0.781452 0.567754
  outer loop
   vertex 213.658401 -71.341507 242.471573
   vertex 213.658401 -71.047615 242.876083
   vertex 213.408401 -71.395706 242.510941
  endloop
 endfacet
 facet normal 0.258821 -0.781452 0.567754
  outer loop
   vertex 213.408401 -71.395706 242.510941
   vertex 213.658401 -71.047615 242.876083
   vertex 213.408401 -71.101814 242.915451
  endloop
 endfacet
 facet normal 0.707100 -0.572068 0.415629
  outer loop
   vertex 213.408401 -71.101814 242.915451
   vertex 213.225388 -71.543762 242.618515
   vertex 213.408401 -71.395706 242.510941
  endloop
 endfacet
 facet normal 0.965927 -0.209387 0.152128
  outer loop
   vertex 200.031509 -71.746017 242.765457
   vertex 200.031509 -71.452126 243.169968
   vertex 199.917633 -72.089851 243.015259
  endloop
 endfacet
 facet normal 0.965927 -0.209387 0.152128
  outer loop
   vertex 199.917633 -72.089851 243.015259
   vertex 200.031509 -71.452126 243.169968
   vertex 199.917633 -71.795959 243.419769
  endloop
 endfacet
 facet normal 0.707102 -0.572066 0.415628
  outer loop
   vertex 199.917633 -71.795959 243.419769
   vertex 199.606506 -72.341553 243.198135
   vertex 199.917633 -72.089851 243.015259
  endloop
 endfacet
 facet normal 0.707102 -0.572066 0.415628
  outer loop
   vertex 199.606506 -72.047661 243.602646
   vertex 199.606506 -72.341553 243.198135
   vertex 199.917633 -71.795959 243.419769
  endloop
 endfacet
 facet normal 0.258809 -0.781455 0.567756
  outer loop
   vertex 199.181503 -72.433685 243.265060
   vertex 199.606506 -72.341553 243.198135
   vertex 199.606506 -72.047661 243.602646
  endloop
 endfacet
 facet normal 0.258809 -0.781455 0.567756
  outer loop
   vertex 199.606506 -72.047661 243.602646
   vertex 199.181503 -72.139793 243.669571
   vertex 199.181503 -72.433685 243.265060
  endloop
 endfacet
 facet normal -0.258809 -0.781455 0.567756
  outer loop
   vertex 199.181503 -72.433685 243.265060
   vertex 199.181503 -72.139793 243.669571
   vertex 198.756500 -72.341553 243.198135
  endloop
 endfacet
 facet normal -0.258809 -0.781455 0.567756
  outer loop
   vertex 198.756500 -72.341553 243.198135
   vertex 199.181503 -72.139793 243.669571
   vertex 198.756500 -72.047661 243.602646
  endloop
 endfacet
 facet normal -0.707120 -0.572052 0.415617
  outer loop
   vertex 198.756500 -72.047661 243.602646
   vertex 198.445389 -72.089851 243.015259
   vertex 198.756500 -72.341553 243.198135
  endloop
 endfacet
 facet normal -0.707120 -0.572052 0.415617
  outer loop
   vertex 198.445389 -71.795959 243.419769
   vertex 198.445389 -72.089851 243.015259
   vertex 198.756500 -72.047661 243.602646
  endloop
 endfacet
 facet normal -0.965927 -0.209387 0.152128
  outer loop
   vertex 198.331512 -71.746017 242.765457
   vertex 198.445389 -72.089851 243.015259
   vertex 198.445389 -71.795959 243.419769
  endloop
 endfacet
 facet normal -0.965928 -0.209380 0.152128
  outer loop
   vertex 198.445389 -71.795959 243.419769
   vertex 198.331512 -71.452126 243.169952
   vertex 198.331512 -71.746017 242.765457
  endloop
 endfacet
 facet normal 0.965927 -0.209387 0.152128
  outer loop
   vertex 214.508392 -71.746017 242.765472
   vertex 214.508392 -71.452126 243.169983
   vertex 214.394516 -72.089851 243.015274
  endloop
 endfacet
 facet normal 0.965927 -0.209387 0.152128
  outer loop
   vertex 214.394516 -72.089851 243.015274
   vertex 214.508392 -71.452126 243.169983
   vertex 214.394516 -71.795959 243.419785
  endloop
 endfacet
 facet normal 0.707102 -0.572066 0.415628
  outer loop
   vertex 214.394516 -71.795959 243.419785
   vertex 214.083389 -72.341553 243.198151
   vertex 214.394516 -72.089851 243.015274
  endloop
 endfacet
 facet normal 0.707102 -0.572066 0.415628
  outer loop
   vertex 214.083389 -72.047661 243.602661
   vertex 214.083389 -72.341553 243.198151
   vertex 214.394516 -71.795959 243.419785
  endloop
 endfacet
 facet normal 0.258836 -0.781449 0.567751
  outer loop
   vertex 213.658401 -72.433685 243.265091
   vertex 214.083389 -72.341553 243.198151
   vertex 214.083389 -72.047661 243.602661
  endloop
 endfacet
 facet normal 0.258817 -0.781443 0.567768
  outer loop
   vertex 214.083389 -72.047661 243.602661
   vertex 213.658401 -72.139793 243.669586
   vertex 213.658401 -72.433685 243.265091
  endloop
 endfacet
 facet normal -0.258828 -0.781440 0.567767
  outer loop
   vertex 213.658401 -72.433685 243.265091
   vertex 213.658401 -72.139793 243.669586
   vertex 213.233398 -72.341553 243.198151
  endloop
 endfacet
 facet normal -0.258809 -0.781455 0.567756
  outer loop
   vertex 213.233398 -72.341553 243.198151
   vertex 213.658401 -72.139793 243.669586
   vertex 213.233398 -72.047661 243.602661
  endloop
 endfacet
 facet normal -0.707102 -0.572066 0.415628
  outer loop
   vertex 213.233398 -72.047661 243.602661
   vertex 212.922272 -72.089851 243.015274
   vertex 213.233398 -72.341553 243.198151
  endloop
 endfacet
 facet normal -0.707102 -0.572066 0.415628
  outer loop
   vertex 212.922272 -71.795959 243.419785
   vertex 212.922272 -72.089851 243.015274
   vertex 213.233398 -72.047661 243.602661
  endloop
 endfacet
 facet normal -0.965927 -0.209387 0.152128
  outer loop
   vertex 212.808395 -71.746017 242.765472
   vertex 212.922272 -72.089851 243.015274
   vertex 212.922272 -71.795959 243.419785
  endloop
 endfacet
 facet normal -0.965928 -0.209380 0.152128
  outer loop
   vertex 212.922272 -71.795959 243.419785
   vertex 212.808395 -71.452126 243.169968
   vertex 212.808395 -71.746017 242.765472
  endloop
 endfacet
 facet normal 0.707100 -0.572068 0.415629
  outer loop
   vertex 213.408401 -71.101814 242.915451
   vertex 213.225388 -71.249870 243.023026
   vertex 213.225388 -71.543762 242.618515
  endloop
 endfacet
 facet normal 0.965927 -0.209387 0.152128
  outer loop
   vertex 213.225388 -71.543762 242.618515
   vertex 213.225388 -71.249870 243.023026
   vertex 213.158401 -71.452126 243.169968
  endloop
 endfacet
 facet normal 0.965929 -0.209378 0.152126
  outer loop
   vertex 213.158401 -71.452126 243.169968
   vertex 213.158401 -71.746017 242.765472
   vertex 213.225388 -71.543762 242.618515
  endloop
 endfacet
 facet normal 0.965929 0.209378 -0.152126
  outer loop
   vertex 213.225388 -71.654381 243.316925
   vertex 213.158401 -71.746017 242.765472
   vertex 213.158401 -71.452126 243.169968
  endloop
 endfacet
 facet normal 0.965927 0.209387 -0.152128
  outer loop
   vertex 213.225388 -71.948273 242.912415
   vertex 213.158401 -71.746017 242.765472
   vertex 213.225388 -71.654381 243.316925
  endloop
 endfacet
 facet normal 0.707112 0.572059 -0.415622
  outer loop
   vertex 213.225388 -71.654381 243.316925
   vertex 213.408401 -71.802444 243.424500
   vertex 213.225388 -71.948273 242.912415
  endloop
 endfacet
 facet normal 0.707112 0.572059 -0.415622
  outer loop
   vertex 213.225388 -71.948273 242.912415
   vertex 213.408401 -71.802444 243.424500
   vertex 213.408401 -72.096336 243.019989
  endloop
 endfacet
 facet normal 0.258799 0.781457 -0.567757
  outer loop
   vertex 213.408401 -72.096336 243.019989
   vertex 213.408401 -71.802444 243.424500
   vertex 213.658401 -71.856636 243.463867
  endloop
 endfacet
 facet normal 0.258799 0.781457 -0.567757
  outer loop
   vertex 213.658401 -71.856636 243.463867
   vertex 213.658401 -72.150528 243.059357
   vertex 213.408401 -72.096336 243.019989
  endloop
 endfacet
 facet normal -0.258799 0.781457 -0.567757
  outer loop
   vertex 213.908401 -71.802444 243.424500
   vertex 213.658401 -72.150528 243.059357
   vertex 213.658401 -71.856636 243.463867
  endloop
 endfacet
 facet normal -0.258799 0.781457 -0.567757
  outer loop
   vertex 213.908401 -72.096336 243.019989
   vertex 213.658401 -72.150528 243.059357
   vertex 213.908401 -71.802444 243.424500
  endloop
 endfacet
 facet normal -0.707142 0.572035 -0.415604
  outer loop
   vertex 213.908401 -71.802444 243.424500
   vertex 214.091400 -71.654381 243.316925
   vertex 213.908401 -72.096336 243.019989
  endloop
 endfacet
 facet normal -0.707112 0.572046 -0.415639
  outer loop
   vertex 213.908401 -72.096336 243.019989
   vertex 214.091400 -71.654381 243.316925
   vertex 214.091415 -71.948273 242.912415
  endloop
 endfacet
 facet normal -0.965912 0.209414 -0.152184
  outer loop
   vertex 214.091415 -71.948273 242.912415
   vertex 214.091400 -71.654381 243.316925
   vertex 214.158401 -71.452126 243.169983
  endloop
 endfacet
 facet normal -0.965927 0.209387 -0.152128
  outer loop
   vertex 214.158401 -71.452126 243.169983
   vertex 214.158401 -71.746017 242.765472
   vertex 214.091415 -71.948273 242.912415
  endloop
 endfacet
 facet normal -0.707100 -0.572068 0.415629
  outer loop
   vertex 199.431503 -71.395706 242.510925
   vertex 199.614517 -71.543762 242.618500
   vertex 199.614517 -71.249870 243.023010
  endloop
 endfacet
 facet normal -0.965929 -0.209380 0.152123
  outer loop
   vertex 199.614517 -71.249870 243.023010
   vertex 199.614517 -71.543762 242.618500
   vertex 199.681503 -71.746017 242.765457
  endloop
 endfacet
 facet normal -0.965929 -0.209380 0.152123
  outer loop
   vertex 199.681503 -71.746017 242.765457
   vertex 199.681503 -71.452126 243.169968
   vertex 199.614517 -71.249870 243.023010
  endloop
 endfacet
 facet normal -0.965927 0.209387 -0.152128
  outer loop
   vertex 199.614517 -71.948273 242.912399
   vertex 199.681503 -71.452126 243.169968
   vertex 199.681503 -71.746017 242.765457
  endloop
 endfacet
 facet normal -0.965927 0.209387 -0.152128
  outer loop
   vertex 199.614517 -71.654381 243.316910
   vertex 199.681503 -71.452126 243.169968
   vertex 199.614517 -71.948273 242.912399
  endloop
 endfacet
 facet normal -0.707112 0.572059 -0.415622
  outer loop
   vertex 199.614517 -71.948273 242.912399
   vertex 199.431503 -72.096336 243.019974
   vertex 199.614517 -71.654381 243.316910
  endloop
 endfacet
 facet normal -0.707112 0.572059 -0.415622
  outer loop
   vertex 199.614517 -71.654381 243.316910
   vertex 199.431503 -72.096336 243.019974
   vertex 199.431503 -71.802444 243.424484
  endloop
 endfacet
 facet normal -0.258799 0.781457 -0.567757
  outer loop
   vertex 199.431503 -71.802444 243.424484
   vertex 199.431503 -72.096336 243.019974
   vertex 199.181503 -72.150528 243.059341
  endloop
 endfacet
 facet normal -0.258799 0.781457 -0.567757
  outer loop
   vertex 199.181503 -72.150528 243.059341
   vertex 199.181503 -71.856636 243.463852
   vertex 199.431503 -71.802444 243.424484
  endloop
 endfacet
 facet normal 0.258799 0.781457 -0.567757
  outer loop
   vertex 198.931503 -72.096336 243.019974
   vertex 199.181503 -71.856636 243.463852
   vertex 199.181503 -72.150528 243.059341
  endloop
 endfacet
 facet normal 0.258799 0.781457 -0.567757
  outer loop
   vertex 198.931503 -71.802444 243.424484
   vertex 199.181503 -71.856636 243.463852
   vertex 198.931503 -72.096336 243.019974
  endloop
 endfacet
 facet normal 0.707112 0.572059 -0.415622
  outer loop
   vertex 198.931503 -72.096336 243.019974
   vertex 198.748489 -71.948273 242.912399
   vertex 198.931503 -71.802444 243.424484
  endloop
 endfacet
 facet normal 0.707112 0.572059 -0.415622
  outer loop
   vertex 198.931503 -71.802444 243.424484
   vertex 198.748489 -71.948273 242.912399
   vertex 198.748489 -71.654381 243.316910
  endloop
 endfacet
 facet normal 0.965927 0.209387 -0.152128
  outer loop
   vertex 198.748489 -71.654381 243.316910
   vertex 198.748489 -71.948273 242.912399
   vertex 198.681503 -71.746017 242.765457
  endloop
 endfacet
 facet normal 0.965929 0.209378 -0.152126
  outer loop
   vertex 198.681503 -71.746017 242.765457
   vertex 198.681503 -71.452126 243.169952
   vertex 198.748489 -71.654381 243.316910
  endloop
 endfacet
 facet normal 0.965927 -0.209385 0.152131
  outer loop
   vertex 198.748489 -71.249870 243.023010
   vertex 198.681503 -71.452126 243.169952
   vertex 198.681503 -71.746017 242.765457
  endloop
 endfacet
endsolid