solid stl file generated from DOUG
 facet normal 0.000000 0.743138 -0.669138
  outer loop
   vertex -77.395882 11.872746 274.810699
   vertex -76.894707 11.872746 274.810699
   vertex -77.395882 11.705070 274.624481
  endloop
 endfacet
 facet normal -0.000000 0.743138 -0.669138
  outer loop
   vertex -77.395882 11.705070 274.624481
   vertex -76.894707 11.872746 274.810699
   vertex -76.894707 11.705070 274.624481
  endloop
 endfacet
 facet normal 0.000000 -0.207887 -0.978153
  outer loop
   vertex -76.894707 11.705070 274.624481
   vertex -77.395882 11.459960 274.676575
   vertex -77.395882 11.705070 274.624481
  endloop
 endfacet
 facet normal 0.000000 -0.207887 -0.978153
  outer loop
   vertex -76.894707 11.459960 274.676575
   vertex -77.395882 11.459960 274.676575
   vertex -76.894707 11.705070 274.624481
  endloop
 endfacet
 facet normal 0.000000 -0.951053 -0.309029
  outer loop
   vertex -77.395882 11.382524 274.914886
   vertex -77.395882 11.459960 274.676575
   vertex -76.894707 11.459960 274.676575
  endloop
 endfacet
 facet normal -0.000000 -0.951053 -0.309029
  outer loop
   vertex -76.894707 11.459960 274.676575
   vertex -76.894707 11.382524 274.914886
   vertex -77.395882 11.382524 274.914886
  endloop
 endfacet
 facet normal 0.000000 -0.743140 0.669136
  outer loop
   vertex -77.395882 11.382524 274.914886
   vertex -76.894707 11.382524 274.914886
   vertex -77.395882 11.550199 275.101105
  endloop
 endfacet
 facet normal -0.000000 -0.743140 0.669136
  outer loop
   vertex -77.395882 11.550199 275.101105
   vertex -76.894707 11.382524 274.914886
   vertex -76.894707 11.550199 275.101105
  endloop
 endfacet
 facet normal 0.000000 0.207887 0.978153
  outer loop
   vertex -76.894707 11.550199 275.101105
   vertex -77.395882 11.795310 275.049011
   vertex -77.395882 11.550199 275.101105
  endloop
 endfacet
 facet normal -0.000000 0.207887 0.978153
  outer loop
   vertex -76.894707 11.795310 275.049011
   vertex -77.395882 11.795310 275.049011
   vertex -76.894707 11.550199 275.101105
  endloop
 endfacet
 facet normal -0.000000 0.951053 0.309029
  outer loop
   vertex -77.395882 11.872746 274.810699
   vertex -77.395882 11.795310 275.049011
   vertex -76.894707 11.795310 275.049011
  endloop
 endfacet
 facet normal 0.000000 0.951053 0.309029
  outer loop
   vertex -76.894707 11.795310 275.049011
   vertex -76.894707 11.872746 274.810699
   vertex -77.395882 11.872746 274.810699
  endloop
 endfacet
 facet normal 0.000000 -0.951052 -0.309032
  outer loop
   vertex -76.894707 23.267075 272.388763
   vertex -77.395874 23.267075 272.388763
   vertex -76.894707 23.344511 272.150452
  endloop
 endfacet
 facet normal -0.000000 -0.951052 -0.309032
  outer loop
   vertex -76.894707 23.344511 272.150452
   vertex -77.395874 23.267075 272.388763
   vertex -77.395874 23.344511 272.150452
  endloop
 endfacet
 facet normal 0.000000 -0.207888 -0.978153
  outer loop
   vertex -77.395874 23.344511 272.150452
   vertex -76.894707 23.589621 272.098358
   vertex -76.894707 23.344511 272.150452
  endloop
 endfacet
 facet normal -0.000000 -0.207888 -0.978153
  outer loop
   vertex -77.395874 23.589621 272.098358
   vertex -76.894707 23.589621 272.098358
   vertex -77.395874 23.344511 272.150452
  endloop
 endfacet
 facet normal 0.000000 0.743138 -0.669138
  outer loop
   vertex -76.894707 23.757296 272.284576
   vertex -76.894707 23.589621 272.098358
   vertex -77.395874 23.589621 272.098358
  endloop
 endfacet
 facet normal -0.000000 0.743138 -0.669138
  outer loop
   vertex -77.395874 23.589621 272.098358
   vertex -77.395874 23.757296 272.284576
   vertex -76.894707 23.757296 272.284576
  endloop
 endfacet
 facet normal -0.000000 0.951054 0.309025
  outer loop
   vertex -76.894707 23.757296 272.284576
   vertex -77.395874 23.757296 272.284576
   vertex -76.894707 23.679861 272.522888
  endloop
 endfacet
 facet normal -0.000000 0.951054 0.309025
  outer loop
   vertex -76.894707 23.679861 272.522888
   vertex -77.395874 23.757296 272.284576
   vertex -77.395874 23.679861 272.522888
  endloop
 endfacet
 facet normal 0.000000 0.207887 0.978153
  outer loop
   vertex -77.395874 23.679861 272.522888
   vertex -76.894707 23.434750 272.574982
   vertex -76.894707 23.679861 272.522888
  endloop
 endfacet
 facet normal 0.000000 0.207887 0.978153
  outer loop
   vertex -77.395874 23.434750 272.574982
   vertex -76.894707 23.434750 272.574982
   vertex -77.395874 23.679861 272.522888
  endloop
 endfacet
 facet normal 0.000000 -0.743138 0.669138
  outer loop
   vertex -76.894707 23.267075 272.388763
   vertex -76.894707 23.434750 272.574982
   vertex -77.395874 23.434750 272.574982
  endloop
 endfacet
 facet normal -0.000000 -0.743138 0.669138
  outer loop
   vertex -77.395874 23.434750 272.574982
   vertex -77.395874 23.267075 272.388763
   vertex -76.894707 23.267075 272.388763
  endloop
 endfacet
 facet normal -1.000000 0.000000 0.000000
  outer loop
   vertex -77.395874 23.589621 272.098358
   vertex -77.395874 23.344511 272.150452
   vertex -77.395874 23.512186 272.336670
  endloop
 endfacet
 facet normal -1.000000 -0.000000 0.000000
  outer loop
   vertex -77.395874 23.512186 272.336670
   vertex -77.395874 23.344511 272.150452
   vertex -77.395874 23.267075 272.388763
  endloop
 endfacet
 facet normal -1.000000 0.000000 -0.000000
  outer loop
   vertex -77.395874 23.267075 272.388763
   vertex -77.395874 23.434750 272.574982
   vertex -77.395874 23.512186 272.336670
  endloop
 endfacet
 facet normal -1.000000 0.000000 0.000000
  outer loop
   vertex -77.395882 11.795310 275.049011
   vertex -77.395882 11.872746 274.810699
   vertex -77.395882 11.627635 274.862793
  endloop
 endfacet
 facet normal -1.000000 -0.000000 -0.000000
  outer loop
   vertex -77.395882 11.627635 274.862793
   vertex -77.395882 11.872746 274.810699
   vertex -77.395882 11.705070 274.624481
  endloop
 endfacet
 facet normal -1.000000 0.000000 0.000000
  outer loop
   vertex -77.395882 11.705070 274.624481
   vertex -77.395882 11.459960 274.676575
   vertex -77.395882 11.627635 274.862793
  endloop
 endfacet
 facet normal -1.000000 0.000000 0.000000
  outer loop
   vertex -77.395882 11.459960 274.676575
   vertex -77.395882 11.382524 274.914886
   vertex -77.395882 11.627635 274.862793
  endloop
 endfacet
 facet normal -1.000000 0.000000 -0.000000
  outer loop
   vertex -77.395882 11.627635 274.862793
   vertex -77.395882 11.382524 274.914886
   vertex -77.395882 11.550199 275.101105
  endloop
 endfacet
 facet normal -1.000000 -0.000000 0.000000
  outer loop
   vertex -77.395882 11.550199 275.101105
   vertex -77.395882 11.795310 275.049011
   vertex -77.395882 11.627635 274.862793
  endloop
 endfacet
 facet normal -1.000000 -0.000000 0.000000
  outer loop
   vertex -77.395874 23.434750 272.574982
   vertex -77.395874 23.679861 272.522888
   vertex -77.395874 23.512186 272.336670
  endloop
 endfacet
 facet normal -1.000000 -0.000000 -0.000000
  outer loop
   vertex -77.395874 23.512186 272.336670
   vertex -77.395874 23.679861 272.522888
   vertex -77.395874 23.757296 272.284576
  endloop
 endfacet
 facet normal -1.000000 0.000000 0.000000
  outer loop
   vertex -77.395874 23.757296 272.284576
   vertex -77.395874 23.589621 272.098358
   vertex -77.395874 23.512186 272.336670
  endloop
 endfacet
 facet normal -1.000000 0.000000 0.000000
  outer loop
   vertex -75.361099 13.182367 275.171387
   vertex -75.361099 12.922438 273.948517
   vertex -75.361099 10.256337 275.793335
  endloop
 endfacet
 facet normal -1.000000 -0.000000 -0.000000
  outer loop
   vertex -75.361099 10.256337 275.793335
   vertex -75.361099 12.922438 273.948517
   vertex -75.361099 9.996408 274.570465
  endloop
 endfacet
 facet normal 0.000000 -0.978147 0.207912
  outer loop
   vertex -75.361099 9.996408 274.570465
   vertex -73.972519 10.256337 275.793335
   vertex -75.361099 10.256337 275.793335
  endloop
 endfacet
 facet normal -0.000000 -0.978147 0.207912
  outer loop
   vertex -73.972511 9.996408 274.570465
   vertex -73.972519 10.256337 275.793335
   vertex -75.361099 9.996408 274.570465
  endloop
 endfacet
 facet normal 1.000000 0.000001 0.000006
  outer loop
   vertex -73.972511 12.922438 273.948517
   vertex -73.972519 10.256337 275.793335
   vertex -73.972511 9.996408 274.570465
  endloop
 endfacet
 facet normal 0.000000 -0.207912 -0.978148
  outer loop
   vertex -73.972511 9.996408 274.570465
   vertex -75.361099 12.922438 273.948517
   vertex -73.972511 12.922438 273.948517
  endloop
 endfacet
 facet normal 0.000000 0.978147 -0.207912
  outer loop
   vertex -73.972511 12.922438 273.948517
   vertex -75.361099 12.922438 273.948517
   vertex -73.972519 13.182367 275.171387
  endloop
 endfacet
 facet normal -0.000000 0.978147 -0.207912
  outer loop
   vertex -73.972519 13.182367 275.171387
   vertex -75.361099 12.922438 273.948517
   vertex -75.361099 13.182367 275.171387
  endloop
 endfacet
 facet normal 0.000000 0.207912 0.978148
  outer loop
   vertex -75.361099 13.182367 275.171387
   vertex -73.972519 10.256337 275.793335
   vertex -73.972519 13.182367 275.171387
  endloop
 endfacet
 facet normal 0.000000 0.207912 0.978148
  outer loop
   vertex -75.361099 10.256337 275.793335
   vertex -73.972519 10.256337 275.793335
   vertex -75.361099 13.182367 275.171387
  endloop
 endfacet
 facet normal 0.000000 0.978147 -0.207912
  outer loop
   vertex -73.972511 25.143412 272.628998
   vertex -73.972511 24.883482 271.406128
   vertex -75.361099 25.143412 272.628998
  endloop
 endfacet
 facet normal -0.000000 0.978147 -0.207912
  outer loop
   vertex -75.361099 25.143412 272.628998
   vertex -73.972511 24.883482 271.406128
   vertex -75.361092 24.883482 271.406128
  endloop
 endfacet
 facet normal -1.000000 -0.000001 -0.000006
  outer loop
   vertex -75.361092 24.883482 271.406128
   vertex -75.361099 22.217382 273.250946
   vertex -75.361099 25.143412 272.628998
  endloop
 endfacet
 facet normal -1.000000 0.000002 -0.000001
  outer loop
   vertex -75.361099 21.957453 272.028076
   vertex -75.361099 22.217382 273.250946
   vertex -75.361092 24.883482 271.406128
  endloop
 endfacet
 facet normal 0.000000 -0.978147 0.207912
  outer loop
   vertex -73.972511 21.957453 272.028076
   vertex -75.361099 22.217382 273.250946
   vertex -75.361099 21.957453 272.028076
  endloop
 endfacet
 facet normal -0.000000 -0.207912 -0.978147
  outer loop
   vertex -75.361099 21.957453 272.028076
   vertex -73.972511 24.883482 271.406128
   vertex -73.972511 21.957453 272.028076
  endloop
 endfacet
 facet normal 1.000000 0.000000 0.000000
  outer loop
   vertex -73.972511 21.957453 272.028076
   vertex -73.972511 24.883482 271.406128
   vertex -73.972511 22.217382 273.250946
  endloop
 endfacet
 facet normal 1.000000 -0.000000 -0.000000
  outer loop
   vertex -73.972511 22.217382 273.250946
   vertex -73.972511 24.883482 271.406128
   vertex -73.972511 25.143412 272.628998
  endloop
 endfacet
 facet normal -0.000000 0.207912 0.978147
  outer loop
   vertex -73.972511 25.143412 272.628998
   vertex -75.361099 22.217382 273.250946
   vertex -73.972511 22.217382 273.250946
  endloop
 endfacet
 facet normal -0.000000 0.207912 0.978147
  outer loop
   vertex -75.361099 25.143412 272.628998
   vertex -75.361099 22.217382 273.250946
   vertex -73.972511 25.143412 272.628998
  endloop
 endfacet
 facet normal 0.000000 -0.207912 -0.978147
  outer loop
   vertex -75.361099 21.957453 272.028076
   vertex -75.361092 24.883482 271.406128
   vertex -73.972511 24.883482 271.406128
  endloop
 endfacet
 facet normal 0.000000 -0.207912 -0.978148
  outer loop
   vertex -75.361099 9.996408 274.570465
   vertex -75.361099 12.922438 273.948517
   vertex -73.972511 9.996408 274.570465
  endloop
 endfacet
 facet normal 0.000000 -0.978147 0.207912
  outer loop
   vertex -73.972511 21.957453 272.028076
   vertex -73.972511 22.217382 273.250946
   vertex -75.361099 22.217382 273.250946
  endloop
 endfacet
 facet normal 1.000000 0.000001 0.000006
  outer loop
   vertex -73.972511 12.922438 273.948517
   vertex -73.972519 13.182367 275.171387
   vertex -73.972519 10.256337 275.793335
  endloop
 endfacet
 facet normal -1.000000 0.000000 0.000000
  outer loop
   vertex -78.130951 12.842376 275.407135
   vertex -78.130951 22.601070 273.220795
   vertex -78.130951 12.819586 275.299896
  endloop
 endfacet
 facet normal -0.593808 -0.167286 -0.787024
  outer loop
   vertex -78.130951 12.819586 275.299896
   vertex -78.130951 22.601070 273.220795
   vertex -78.014061 12.801651 275.215515
  endloop
 endfacet
 facet normal -0.610602 -0.164650 -0.774632
  outer loop
   vertex -78.190117 21.409325 271.999054
   vertex -78.107002 22.529398 271.695465
   vertex -78.107002 21.396002 271.936371
  endloop
 endfacet
 facet normal 0.000000 -0.207908 -0.978148
  outer loop
   vertex -78.107002 21.396002 271.936371
   vertex -78.107002 22.529398 271.695465
   vertex -77.265373 22.529398 271.695465
  endloop
 endfacet
 facet normal -0.000035 0.207908 0.978148
  outer loop
   vertex -77.265381 12.610423 275.503998
   vertex -78.107002 13.743817 275.263062
   vertex -78.107010 12.610423 275.503967
  endloop
 endfacet
 facet normal -0.610423 0.164683 0.774767
  outer loop
   vertex -78.107010 12.610423 275.503967
   vertex -78.107002 13.743817 275.263062
   vertex -78.190117 13.730495 275.200409
  endloop
 endfacet
 facet normal -0.593675 0.167306 0.787120
  outer loop
   vertex -78.014061 22.338169 271.983917
   vertex -78.130951 22.320234 271.899567
   vertex -78.130951 12.538749 273.978668
  endloop
 endfacet
 facet normal -1.000000 -0.000000 -0.000000
  outer loop
   vertex -78.130951 12.538749 273.978668
   vertex -78.130951 22.320234 271.899567
   vertex -78.130951 12.515960 273.871460
  endloop
 endfacet
 facet normal -0.933435 0.074587 0.350908
  outer loop
   vertex -77.362221 22.616892 273.295227
   vertex -77.362221 12.835406 275.374329
   vertex -77.349342 22.623861 273.328003
  endloop
 endfacet
 facet normal -0.933541 0.074530 0.350636
  outer loop
   vertex -77.349342 22.623861 273.328003
   vertex -77.362221 12.835406 275.374329
   vertex -77.349342 12.842376 275.407135
  endloop
 endfacet
 facet normal 0.000000 0.207913 0.978147
  outer loop
   vertex -77.349342 12.842376 275.407135
   vertex -77.278725 22.623861 273.328003
   vertex -77.349342 22.623861 273.328003
  endloop
 endfacet
 facet normal -0.000041 0.978147 -0.207915
  outer loop
   vertex -78.107002 22.875156 273.322144
   vertex -78.091423 22.825727 273.089600
   vertex -78.190117 22.861835 273.259491
  endloop
 endfacet
 facet normal -0.000043 0.978147 -0.207916
  outer loop
   vertex -78.190117 22.861835 273.259491
   vertex -78.091423 22.825727 273.089600
   vertex -78.190117 22.828785 273.104004
  endloop
 endfacet
 facet normal -1.000000 0.000000 0.000000
  outer loop
   vertex -78.190117 22.828785 273.104004
   vertex -78.190117 21.728441 273.500397
   vertex -78.190117 22.861835 273.259491
  endloop
 endfacet
 facet normal -0.000003 -0.978151 0.207894
  outer loop
   vertex -78.107002 12.264663 273.877289
   vertex -78.091423 12.314094 274.109863
   vertex -78.190117 12.277986 273.939972
  endloop
 endfacet
 facet normal -0.000032 -0.978148 0.207910
  outer loop
   vertex -78.190117 12.277986 273.939972
   vertex -78.091423 12.314094 274.109863
   vertex -78.190117 12.311035 274.095459
  endloop
 endfacet
 facet normal -1.000000 0.000000 0.000000
  outer loop
   vertex -78.190117 12.311035 274.095459
   vertex -78.190117 13.411380 273.699066
   vertex -78.190117 12.277986 273.939972
  endloop
 endfacet
 facet normal -0.000043 -0.978147 0.207916
  outer loop
   vertex -78.190117 21.442375 272.154541
   vertex -78.190117 21.409325 271.999054
   vertex -78.091423 21.445433 272.168945
  endloop
 endfacet
 facet normal -0.000003 -0.978151 0.207894
  outer loop
   vertex -78.091423 21.445433 272.168945
   vertex -78.190117 21.409325 271.999054
   vertex -78.107002 21.396002 271.936371
  endloop
 endfacet
 facet normal 0.000000 -0.978151 0.207894
  outer loop
   vertex -78.107002 21.396002 271.936371
   vertex -77.265373 21.396002 271.936371
   vertex -78.091423 21.445433 272.168945
  endloop
 endfacet
 facet normal -0.000000 -0.207908 -0.978148
  outer loop
   vertex -77.265373 22.529398 271.695465
   vertex -77.265373 21.396002 271.936371
   vertex -78.107002 21.396002 271.936371
  endloop
 endfacet
 facet normal -0.593809 0.167288 0.787023
  outer loop
   vertex -78.130951 12.538749 273.978668
   vertex -78.014061 12.556684 274.063049
   vertex -78.014061 22.338169 271.983917
  endloop
 endfacet
 facet normal -1.000000 0.000000 -0.000000
  outer loop
   vertex -78.014061 22.338169 271.983917
   vertex -78.014061 12.556684 274.063049
   vertex -78.014061 12.801651 275.215515
  endloop
 endfacet
 facet normal -1.000000 -0.000000 0.000000
  outer loop
   vertex -78.014061 12.801651 275.215515
   vertex -78.014061 22.583136 273.136414
   vertex -78.014061 22.338169 271.983917
  endloop
 endfacet
 facet normal -0.593808 -0.167286 -0.787024
  outer loop
   vertex -78.130951 22.601070 273.220795
   vertex -78.014061 22.583136 273.136414
   vertex -78.014061 12.801651 275.215515
  endloop
 endfacet
 facet normal 0.000000 0.207933 0.978143
  outer loop
   vertex -77.265381 12.610423 275.503998
   vertex -77.265381 13.743817 275.263062
   vertex -78.107002 13.743817 275.263062
  endloop
 endfacet
 facet normal -0.000000 0.978147 -0.207916
  outer loop
   vertex -78.107002 13.743817 275.263062
   vertex -77.265381 13.743817 275.263062
   vertex -78.091423 13.694387 275.030518
  endloop
 endfacet
 facet normal -0.000049 0.978146 -0.207919
  outer loop
   vertex -78.091423 13.694387 275.030518
   vertex -78.190117 13.730495 275.200409
   vertex -78.107002 13.743817 275.263062
  endloop
 endfacet
 facet normal 0.000027 0.978155 -0.207877
  outer loop
   vertex -78.190117 13.697445 275.044891
   vertex -78.190117 13.730495 275.200409
   vertex -78.091423 13.694387 275.030518
  endloop
 endfacet
 facet normal 0.933541 0.074529 0.350636
  outer loop
   vertex -77.975754 12.835406 275.374329
   vertex -77.975754 22.616892 273.295227
   vertex -77.988632 12.842376 275.407135
  endloop
 endfacet
 facet normal 0.933435 0.074588 0.350908
  outer loop
   vertex -77.988632 12.842376 275.407135
   vertex -77.975754 22.616892 273.295227
   vertex -77.988632 22.623861 273.328003
  endloop
 endfacet
 facet normal -0.000000 0.207913 0.978147
  outer loop
   vertex -77.988632 22.623861 273.328003
   vertex -78.130951 12.842376 275.407135
   vertex -77.988632 12.842376 275.407135
  endloop
 endfacet
 facet normal -0.000000 0.207913 0.978147
  outer loop
   vertex -78.130951 22.623861 273.328003
   vertex -78.130951 12.842376 275.407135
   vertex -77.988632 22.623861 273.328003
  endloop
 endfacet
 facet normal -1.000000 0.000000 0.000000
  outer loop
   vertex -78.130951 22.601070 273.220795
   vertex -78.130951 12.842376 275.407135
   vertex -78.130951 22.623861 273.328003
  endloop
 endfacet
 facet normal -1.000000 0.000000 0.000000
  outer loop
   vertex -76.915100 11.182193 275.527405
   vertex -76.915100 12.562530 274.094147
   vertex -76.915100 10.950385 274.436829
  endloop
 endfacet
 facet normal -0.000000 -0.207917 -0.978146
  outer loop
   vertex -76.915100 10.950385 274.436829
   vertex -76.915100 12.562530 274.094147
   vertex -75.374046 10.950385 274.436829
  endloop
 endfacet
 facet normal 0.000000 -0.978148 0.207910
  outer loop
   vertex -75.374046 10.950385 274.436829
   vertex -75.374054 11.182193 275.527405
   vertex -76.915100 10.950385 274.436829
  endloop
 endfacet
 facet normal 1.000000 0.000001 0.000007
  outer loop
   vertex -75.374046 12.562530 274.094147
   vertex -75.374054 11.182193 275.527405
   vertex -75.374046 10.950385 274.436829
  endloop
 endfacet
 facet normal 1.000000 0.000001 0.000007
  outer loop
   vertex -75.374054 12.794336 275.184723
   vertex -75.374054 11.182193 275.527405
   vertex -75.374046 12.562530 274.094147
  endloop
 endfacet
 facet normal -0.000000 0.978148 -0.207910
  outer loop
   vertex -75.374046 12.562530 274.094147
   vertex -76.915100 12.562530 274.094147
   vertex -75.374054 12.794336 275.184723
  endloop
 endfacet
 facet normal 0.000000 0.978148 -0.207910
  outer loop
   vertex -75.374054 12.794336 275.184723
   vertex -76.915100 12.562530 274.094147
   vertex -76.915100 12.794336 275.184723
  endloop
 endfacet
 facet normal -1.000000 -0.000000 0.000000
  outer loop
   vertex -76.915100 12.794336 275.184723
   vertex -76.915100 12.562530 274.094147
   vertex -76.915100 11.182193 275.527405
  endloop
 endfacet
 facet normal 0.000000 0.207918 0.978146
  outer loop
   vertex -76.915100 11.182193 275.527405
   vertex -75.374054 11.182193 275.527405
   vertex -76.915100 12.794336 275.184723
  endloop
 endfacet
 facet normal -0.000000 -0.978148 0.207910
  outer loop
   vertex -76.915100 10.950385 274.436829
   vertex -75.374054 11.182193 275.527405
   vertex -76.915100 11.182193 275.527405
  endloop
 endfacet
 facet normal 0.000000 0.207917 0.978146
  outer loop
   vertex -76.915100 24.189436 272.762634
   vertex -76.915100 22.577291 273.105316
   vertex -75.374046 24.189434 272.762634
  endloop
 endfacet
 facet normal 0.000000 0.207917 0.978146
  outer loop
   vertex -75.374046 24.189434 272.762634
   vertex -76.915100 22.577291 273.105316
   vertex -75.374046 22.577290 273.105316
  endloop
 endfacet
 facet normal 1.000000 0.000000 -0.000000
  outer loop
   vertex -75.374046 22.577290 273.105316
   vertex -75.374046 23.957628 271.672058
   vertex -75.374046 24.189434 272.762634
  endloop
 endfacet
 facet normal 1.000000 -0.000000 -0.000000
  outer loop
   vertex -75.374046 22.345484 272.014740
   vertex -75.374046 23.957628 271.672058
   vertex -75.374046 22.577290 273.105316
  endloop
 endfacet
 facet normal 0.000000 -0.207917 -0.978146
  outer loop
   vertex -76.915100 22.345484 272.014740
   vertex -75.374046 23.957628 271.672058
   vertex -75.374046 22.345484 272.014740
  endloop
 endfacet
 facet normal -0.000000 -0.978148 0.207910
  outer loop
   vertex -75.374046 22.345484 272.014740
   vertex -76.915100 22.577291 273.105316
   vertex -76.915100 22.345484 272.014740
  endloop
 endfacet
 facet normal -1.000000 0.000005 -0.000001
  outer loop
   vertex -76.915100 22.345484 272.014740
   vertex -76.915100 22.577291 273.105316
   vertex -76.915092 23.957628 271.672058
  endloop
 endfacet
 facet normal -1.000000 -0.000001 -0.000007
  outer loop
   vertex -76.915092 23.957628 271.672058
   vertex -76.915100 22.577291 273.105316
   vertex -76.915100 24.189436 272.762634
  endloop
 endfacet
 facet normal 0.000000 0.978148 -0.207910
  outer loop
   vertex -76.915100 24.189436 272.762634
   vertex -75.374046 23.957628 271.672058
   vertex -76.915092 23.957628 271.672058
  endloop
 endfacet
 facet normal 0.000001 0.978148 -0.207909
  outer loop
   vertex -75.374046 24.189434 272.762634
   vertex -75.374046 23.957628 271.672058
   vertex -76.915100 24.189436 272.762634
  endloop
 endfacet
 facet normal 1.000000 0.000000 -0.000000
  outer loop
   vertex -76.300102 9.606239 275.036865
   vertex -76.300102 9.948591 274.964111
   vertex -76.300102 10.052547 275.453186
  endloop
 endfacet
 facet normal -1.000000 -0.000000 0.000000
  outer loop
   vertex -76.300102 10.052547 275.453186
   vertex -76.300102 9.948591 274.964111
   vertex -76.300102 9.829393 275.245026
  endloop
 endfacet
 facet normal -1.000000 0.000000 0.000000
  outer loop
   vertex -76.300102 9.829393 275.245026
   vertex -76.300102 9.710195 275.525940
   vertex -76.300102 10.052547 275.453186
  endloop
 endfacet
 facet normal -1.000000 -0.000000 -0.000000
  outer loop
   vertex -76.300102 9.606239 275.036865
   vertex -76.300102 9.710195 275.525940
   vertex -76.300102 9.829393 275.245026
  endloop
 endfacet
 facet normal 0.000000 -0.978148 0.207910
  outer loop
   vertex -75.300102 9.710195 275.525940
   vertex -76.300102 9.710195 275.525940
   vertex -76.300102 9.606239 275.036865
  endloop
 endfacet
 facet normal -0.000000 -0.978148 0.207910
  outer loop
   vertex -76.300102 9.606239 275.036865
   vertex -75.300102 9.606239 275.036865
   vertex -75.300102 9.710195 275.525940
  endloop
 endfacet
 facet normal 1.000000 0.000000 0.000000
  outer loop
   vertex -75.300102 9.710195 275.525940
   vertex -75.300102 9.606239 275.036865
   vertex -75.300102 11.373047 275.172485
  endloop
 endfacet
 facet normal 1.000000 -0.000000 -0.000000
  outer loop
   vertex -75.300102 11.373047 275.172485
   vertex -75.300102 9.606239 275.036865
   vertex -75.300102 11.269092 274.683411
  endloop
 endfacet
 facet normal -0.000001 0.978148 -0.207910
  outer loop
   vertex -75.300102 11.269092 274.683411
   vertex -76.300102 11.269091 274.683411
   vertex -75.300102 11.373047 275.172485
  endloop
 endfacet
 facet normal 0.000000 -0.207921 -0.978146
  outer loop
   vertex -76.050102 10.861216 274.770111
   vertex -76.300102 11.269091 274.683411
   vertex -75.300102 11.269092 274.683411
  endloop
 endfacet
 facet normal -0.000056 -0.207953 -0.978139
  outer loop
   vertex -76.300102 10.926739 274.756195
   vertex -76.300102 11.269091 274.683411
   vertex -76.050102 10.861216 274.770111
  endloop
 endfacet
 facet normal -0.000000 0.207921 0.978146
  outer loop
   vertex -76.050102 24.278605 272.429352
   vertex -76.300102 23.870729 272.516052
   vertex -75.300102 23.870729 272.516052
  endloop
 endfacet
 facet normal -0.000000 -0.978148 0.207912
  outer loop
   vertex -75.300102 23.870729 272.516052
   vertex -76.300102 23.870729 272.516052
   vertex -75.300102 23.766773 272.026978
  endloop
 endfacet
 facet normal 1.000000 0.000000 0.000000
  outer loop
   vertex -75.300102 23.766773 272.026978
   vertex -75.300102 25.533581 272.162598
   vertex -75.300102 23.870729 272.516052
  endloop
 endfacet
 facet normal 1.000000 -0.000000 -0.000000
  outer loop
   vertex -75.300102 25.429625 271.673523
   vertex -75.300102 25.533581 272.162598
   vertex -75.300102 23.766773 272.026978
  endloop
 endfacet
 facet normal 0.000000 0.978148 -0.207912
  outer loop
   vertex -76.300102 25.533581 272.162598
   vertex -75.300102 25.533581 272.162598
   vertex -75.300102 25.429625 271.673523
  endloop
 endfacet
 facet normal -0.000000 0.978148 -0.207912
  outer loop
   vertex -75.300102 25.429625 271.673523
   vertex -76.300102 25.429625 271.673523
   vertex -76.300102 25.533581 272.162598
  endloop
 endfacet
 facet normal -1.000000 0.000000 0.000000
  outer loop
   vertex -76.300102 25.533581 272.162598
   vertex -76.300102 25.429625 271.673523
   vertex -76.300102 25.310427 271.954437
  endloop
 endfacet
 facet normal -1.000000 -0.000000 -0.000000
  outer loop
   vertex -76.300102 25.310427 271.954437
   vertex -76.300102 25.429625 271.673523
   vertex -76.300102 25.087273 271.746277
  endloop
 endfacet
 facet normal -1.000000 0.000000 -0.000000
  outer loop
   vertex -76.300102 25.087273 271.746277
   vertex -76.300102 25.191229 272.235352
   vertex -76.300102 25.310427 271.954437
  endloop
 endfacet
 facet normal 1.000000 -0.000000 0.000000
  outer loop
   vertex -76.300102 25.533581 272.162598
   vertex -76.300102 25.191229 272.235352
   vertex -76.300102 25.087273 271.746277
  endloop
 endfacet
 facet normal -1.000000 0.000000 0.000000
  outer loop
   vertex -76.300102 25.310427 271.954437
   vertex -76.300102 25.191229 272.235352
   vertex -76.300102 25.533581 272.162598
  endloop
 endfacet
 facet normal -1.000000 0.000000 0.000000
  outer loop
   vertex -78.130951 22.320234 271.899567
   vertex -78.130951 22.297445 271.792328
   vertex -78.130951 12.515960 273.871460
  endloop
 endfacet
 facet normal 0.000000 -0.207913 -0.978147
  outer loop
   vertex -78.130951 12.515960 273.871460
   vertex -78.130951 22.297445 271.792328
   vertex -77.988632 22.297445 271.792328
  endloop
 endfacet
 facet normal -0.000000 -0.207913 -0.978147
  outer loop
   vertex -77.988632 22.297445 271.792328
   vertex -77.988632 12.515960 273.871460
   vertex -78.130951 12.515960 273.871460
  endloop
 endfacet
 facet normal 0.933469 -0.074570 -0.350821
  outer loop
   vertex -77.975746 22.304413 271.825134
   vertex -77.988632 12.515960 273.871460
   vertex -77.988632 22.297445 271.792328
  endloop
 endfacet
 facet normal 0.933435 -0.074588 -0.350908
  outer loop
   vertex -77.975754 12.522929 273.904236
   vertex -77.988632 12.515960 273.871460
   vertex -77.975746 22.304413 271.825134
  endloop
 endfacet
 facet normal -0.000000 -0.207910 -0.978148
  outer loop
   vertex -77.975746 22.304413 271.825134
   vertex -77.362221 22.304413 271.825134
   vertex -77.975754 12.522929 273.904236
  endloop
 endfacet
 facet normal 0.000000 -0.207910 -0.978148
  outer loop
   vertex -77.975754 12.522929 273.904236
   vertex -77.362221 22.304413 271.825134
   vertex -77.362221 12.522929 273.904236
  endloop
 endfacet
 facet normal -0.933469 -0.074569 -0.350821
  outer loop
   vertex -77.362221 12.522929 273.904236
   vertex -77.362221 22.304413 271.825134
   vertex -77.349335 22.297445 271.792328
  endloop
 endfacet
 facet normal -0.933435 -0.074588 -0.350908
  outer loop
   vertex -77.349335 22.297445 271.792328
   vertex -77.349342 12.515960 273.871460
   vertex -77.362221 12.522929 273.904236
  endloop
 endfacet
 facet normal -0.000000 -0.207913 -0.978147
  outer loop
   vertex -77.278717 22.297445 271.792328
   vertex -77.349342 12.515960 273.871460
   vertex -77.349335 22.297445 271.792328
  endloop
 endfacet
 facet normal 0.000000 -0.207913 -0.978147
  outer loop
   vertex -77.278725 12.515960 273.871460
   vertex -77.349342 12.515960 273.871460
   vertex -77.278717 22.297445 271.792328
  endloop
 endfacet
 facet normal 1.000000 0.000000 0.000005
  outer loop
   vertex -77.278717 22.297445 271.792328
   vertex -77.278725 22.623861 273.328003
   vertex -77.278725 12.515960 273.871460
  endloop
 endfacet
 facet normal 1.000000 0.000000 0.000000
  outer loop
   vertex -77.278725 12.515960 273.871460
   vertex -77.278725 22.623861 273.328003
   vertex -77.278725 12.842376 275.407135
  endloop
 endfacet
 facet normal -0.000000 0.207913 0.978147
  outer loop
   vertex -77.278725 12.842376 275.407135
   vertex -77.278725 22.623861 273.328003
   vertex -77.349342 12.842376 275.407135
  endloop
 endfacet
 facet normal -0.000000 0.207921 0.978146
  outer loop
   vertex -76.050102 10.965171 275.259186
   vertex -75.300102 11.373047 275.172485
   vertex -76.300102 11.373046 275.172485
  endloop
 endfacet
 facet normal -0.000001 0.978148 -0.207910
  outer loop
   vertex -76.300102 11.373046 275.172485
   vertex -75.300102 11.373047 275.172485
   vertex -76.300102 11.269091 274.683411
  endloop
 endfacet
 facet normal -1.000000 0.000000 0.000000
  outer loop
   vertex -76.300102 11.269091 274.683411
   vertex -76.300102 11.030695 275.245270
   vertex -76.300102 11.373046 275.172485
  endloop
 endfacet
 facet normal -1.000000 -0.000000 -0.000000
  outer loop
   vertex -76.300102 10.926739 274.756195
   vertex -76.300102 11.030695 275.245270
   vertex -76.300102 11.269091 274.683411
  endloop
 endfacet
 facet normal 1.000000 0.000000 0.000000
  outer loop
   vertex -76.300102 11.269091 274.683411
   vertex -76.300102 11.030695 275.245270
   vertex -76.300102 10.926739 274.756195
  endloop
 endfacet
 facet normal 0.000056 -0.207953 -0.978139
  outer loop
   vertex -76.300102 10.926739 274.756195
   vertex -76.550102 10.861216 274.770111
   vertex -76.300102 11.269091 274.683411
  endloop
 endfacet
 facet normal -0.000011 -0.207914 -0.978147
  outer loop
   vertex -76.300102 11.269091 274.683411
   vertex -76.550102 10.861216 274.770111
   vertex -76.725105 11.157701 274.707092
  endloop
 endfacet
 facet normal -0.000019 -0.207919 -0.978146
  outer loop
   vertex -76.725105 11.157701 274.707092
   vertex -76.550102 10.861216 274.770111
   vertex -76.733116 10.682202 274.808167
  endloop
 endfacet
 facet normal -0.000028 -0.207919 -0.978146
  outer loop
   vertex -76.733116 10.682202 274.808167
   vertex -77.036224 10.853377 274.771790
   vertex -76.725105 11.157701 274.707092
  endloop
 endfacet
 facet normal -0.000008 -0.207884 -0.978153
  outer loop
   vertex -76.800102 10.437665 274.860138
   vertex -77.036224 10.853377 274.771790
   vertex -76.733116 10.682202 274.808167
  endloop
 endfacet
 facet normal 0.000000 -0.207880 -0.978154
  outer loop
   vertex -77.150101 10.437665 274.860138
   vertex -77.036224 10.853377 274.771790
   vertex -76.800102 10.437665 274.860138
  endloop
 endfacet
 facet normal -0.000000 -0.207887 -0.978153
  outer loop
   vertex -76.800102 10.437665 274.860138
   vertex -76.733116 10.193129 274.912109
   vertex -77.150101 10.437665 274.860138
  endloop
 endfacet
 facet normal -0.000045 -0.207960 -0.978137
  outer loop
   vertex -77.150101 10.437665 274.860138
   vertex -76.733116 10.193129 274.912109
   vertex -77.036224 10.021952 274.948517
  endloop
 endfacet
 facet normal -0.000037 -0.207973 -0.978135
  outer loop
   vertex -77.036224 10.021952 274.948517
   vertex -76.733116 10.193129 274.912109
   vertex -76.550102 10.014114 274.950165
  endloop
 endfacet
 facet normal -0.000036 -0.207888 -0.978153
  outer loop
   vertex -76.550102 10.014114 274.950165
   vertex -76.725105 9.717629 275.013184
   vertex -77.036224 10.021952 274.948517
  endloop
 endfacet
 facet normal 0.000066 -0.207946 -0.978140
  outer loop
   vertex -76.300102 9.948591 274.964111
   vertex -76.725105 9.717629 275.013184
   vertex -76.550102 10.014114 274.950165
  endloop
 endfacet
 facet normal 0.000023 -0.207870 -0.978156
  outer loop
   vertex -76.300102 9.606239 275.036865
   vertex -76.725105 9.717629 275.013184
   vertex -76.300102 9.948591 274.964111
  endloop
 endfacet
 facet normal -0.000086 -0.207870 -0.978156
  outer loop
   vertex -76.300102 9.948591 274.964111
   vertex -76.050102 10.014114 274.950165
   vertex -76.300102 9.606239 275.036865
  endloop
 endfacet
 facet normal 0.000000 -0.207921 -0.978146
  outer loop
   vertex -76.300102 9.606239 275.036865
   vertex -76.050102 10.014114 274.950165
   vertex -75.300102 9.606239 275.036865
  endloop
 endfacet
 facet normal -0.000006 -0.207931 -0.978144
  outer loop
   vertex -75.300102 9.606239 275.036865
   vertex -76.050102 10.014114 274.950165
   vertex -75.867088 10.193129 274.912109
  endloop
 endfacet
 facet normal 0.000032 -0.207896 -0.978151
  outer loop
   vertex -75.867088 10.193129 274.912109
   vertex -75.800102 10.437665 274.860138
   vertex -75.300102 9.606239 275.036865
  endloop
 endfacet
 facet normal -0.000000 -0.207921 -0.978146
  outer loop
   vertex -76.050102 24.174648 271.940277
   vertex -75.300102 23.766773 272.026978
   vertex -76.300102 23.766773 272.026978
  endloop
 endfacet
 facet normal -0.000000 -0.978148 0.207912
  outer loop
   vertex -76.300102 23.766773 272.026978
   vertex -75.300102 23.766773 272.026978
   vertex -76.300102 23.870729 272.516052
  endloop
 endfacet
 facet normal -1.000000 0.000000 0.000000
  outer loop
   vertex -76.300102 23.870729 272.516052
   vertex -76.300102 24.109125 271.954193
   vertex -76.300102 23.766773 272.026978
  endloop
 endfacet
 facet normal -1.000000 -0.000000 0.000000
  outer loop
   vertex -76.300102 24.213081 272.443268
   vertex -76.300102 24.109125 271.954193
   vertex -76.300102 23.870729 272.516052
  endloop
 endfacet
 facet normal 1.000000 0.000000 -0.000000
  outer loop
   vertex -76.300102 23.870729 272.516052
   vertex -76.300102 24.109125 271.954193
   vertex -76.300102 24.213081 272.443268
  endloop
 endfacet
 facet normal 0.000056 0.207953 0.978139
  outer loop
   vertex -76.300102 24.213081 272.443268
   vertex -76.550102 24.278605 272.429352
   vertex -76.300102 23.870729 272.516052
  endloop
 endfacet
 facet normal -0.000011 0.207914 0.978147
  outer loop
   vertex -76.300102 23.870729 272.516052
   vertex -76.550102 24.278605 272.429352
   vertex -76.725105 23.982119 272.492371
  endloop
 endfacet
 facet normal -0.000019 0.207918 0.978146
  outer loop
   vertex -76.725105 23.982119 272.492371
   vertex -76.550102 24.278605 272.429352
   vertex -76.733116 24.457619 272.391296
  endloop
 endfacet
 facet normal -0.000029 0.207918 0.978146
  outer loop
   vertex -76.733116 24.457619 272.391296
   vertex -77.036224 24.286442 272.427673
   vertex -76.725105 23.982119 272.492371
  endloop
 endfacet
 facet normal -0.000010 0.207885 0.978153
  outer loop
   vertex -76.800102 24.702154 272.339325
   vertex -77.036224 24.286442 272.427673
   vertex -76.733116 24.457619 272.391296
  endloop
 endfacet
 facet normal 0.000001 0.207880 0.978154
  outer loop
   vertex -77.150101 24.702156 272.339325
   vertex -77.036224 24.286442 272.427673
   vertex -76.800102 24.702154 272.339325
  endloop
 endfacet
 facet normal 0.000001 0.207886 0.978153
  outer loop
   vertex -76.800102 24.702154 272.339325
   vertex -76.733116 24.946692 272.287354
   vertex -77.150101 24.702156 272.339325
  endloop
 endfacet
 facet normal -0.000044 0.207961 0.978137
  outer loop
   vertex -77.150101 24.702156 272.339325
   vertex -76.733116 24.946692 272.287354
   vertex -77.036224 25.117868 272.250946
  endloop
 endfacet
 facet normal -0.000037 0.207973 0.978135
  outer loop
   vertex -77.036224 25.117868 272.250946
   vertex -76.733116 24.946692 272.287354
   vertex -76.550102 25.125706 272.249298
  endloop
 endfacet
 facet normal -0.000036 0.207888 0.978153
  outer loop
   vertex -76.550102 25.125706 272.249298
   vertex -76.725098 25.422192 272.186279
   vertex -77.036224 25.117868 272.250946
  endloop
 endfacet
 facet normal 0.000066 0.207945 0.978141
  outer loop
   vertex -76.300102 25.191229 272.235352
   vertex -76.725098 25.422192 272.186279
   vertex -76.550102 25.125706 272.249298
  endloop
 endfacet
 facet normal 0.000023 0.207870 0.978156
  outer loop
   vertex -76.300102 25.533581 272.162598
   vertex -76.725098 25.422192 272.186279
   vertex -76.300102 25.191229 272.235352
  endloop
 endfacet
 facet normal -0.000086 0.207870 0.978156
  outer loop
   vertex -76.300102 25.191229 272.235352
   vertex -76.050102 25.125706 272.249298
   vertex -76.300102 25.533581 272.162598
  endloop
 endfacet
 facet normal 0.000000 0.207921 0.978146
  outer loop
   vertex -76.300102 25.533581 272.162598
   vertex -76.050102 25.125706 272.249298
   vertex -75.300102 25.533581 272.162598
  endloop
 endfacet
 facet normal -0.000006 0.207931 0.978144
  outer loop
   vertex -75.300102 25.533581 272.162598
   vertex -76.050102 25.125706 272.249298
   vertex -75.867088 24.946692 272.287354
  endloop
 endfacet
 facet normal 0.000033 0.207895 0.978151
  outer loop
   vertex -75.867088 24.946692 272.287354
   vertex -75.800102 24.702154 272.339325
   vertex -75.300102 25.533581 272.162598
  endloop
 endfacet
 facet normal 0.455426 -0.185095 -0.870820
  outer loop
   vertex -77.265373 22.529398 271.695465
   vertex -76.774109 22.581644 271.941284
   vertex -77.265373 21.396002 271.936371
  endloop
 endfacet
 facet normal 0.455432 -0.185097 -0.870816
  outer loop
   vertex -77.265373 21.396002 271.936371
   vertex -76.774109 22.581644 271.941284
   vertex -76.774117 21.448250 272.182190
  endloop
 endfacet
 facet normal -0.000004 -0.978148 0.207910
  outer loop
   vertex -76.774117 21.448250 272.182190
   vertex -76.774117 21.689514 273.317261
   vertex -77.265373 21.396002 271.936371
  endloop
 endfacet
 facet normal 1.000000 -0.000006 0.000001
  outer loop
   vertex -76.774109 22.581644 271.941284
   vertex -76.774117 21.689514 273.317261
   vertex -76.774117 21.448250 272.182190
  endloop
 endfacet
 facet normal 1.000000 0.000001 0.000006
  outer loop
   vertex -76.774117 22.822910 273.076355
   vertex -76.774117 21.689514 273.317261
   vertex -76.774109 22.581644 271.941284
  endloop
 endfacet
 facet normal 0.000004 0.978148 -0.207911
  outer loop
   vertex -76.774109 22.581644 271.941284
   vertex -77.265373 22.875156 273.322144
   vertex -76.774117 22.822910 273.076355
  endloop
 endfacet
 facet normal 0.455389 0.185099 0.870838
  outer loop
   vertex -76.774117 22.822910 273.076355
   vertex -77.265373 22.875156 273.322144
   vertex -76.774117 21.689514 273.317261
  endloop
 endfacet
 facet normal 0.455432 0.185117 0.870812
  outer loop
   vertex -76.774117 21.689514 273.317261
   vertex -77.265373 22.875156 273.322144
   vertex -77.265373 21.741762 273.563080
  endloop
 endfacet
 facet normal 0.000003 -0.978148 0.207907
  outer loop
   vertex -77.265373 21.741762 273.563080
   vertex -77.265373 21.396002 271.936371
   vertex -76.774117 21.689514 273.317261
  endloop
 endfacet
 facet normal -0.000004 -0.978148 0.207907
  outer loop
   vertex -78.091423 21.692331 273.330505
   vertex -77.265373 21.396002 271.936371
   vertex -77.265373 21.741762 273.563080
  endloop
 endfacet
 facet normal 0.000006 -0.978147 0.207913
  outer loop
   vertex -78.091423 21.445433 272.168945
   vertex -77.265373 21.396002 271.936371
   vertex -78.091423 21.692331 273.330505
  endloop
 endfacet
 facet normal -1.000000 -0.000000 -0.000000
  outer loop
   vertex -78.091423 21.692331 273.330505
   vertex -78.091423 22.578827 271.928040
   vertex -78.091423 21.445433 272.168945
  endloop
 endfacet
 facet normal -0.147567 0.205632 0.967440
  outer loop
   vertex -78.091423 21.445433 272.168945
   vertex -78.091423 22.578827 271.928040
   vertex -78.190117 21.442375 272.154541
  endloop
 endfacet
 facet normal -0.147567 0.205632 0.967440
  outer loop
   vertex -78.190117 21.442375 272.154541
   vertex -78.091423 22.578827 271.928040
   vertex -78.190117 22.575769 271.913635
  endloop
 endfacet
 facet normal -1.000000 0.000000 0.000000
  outer loop
   vertex -78.190117 22.575769 271.913635
   vertex -78.190117 21.409325 271.999054
   vertex -78.190117 21.442375 272.154541
  endloop
 endfacet
 facet normal -1.000000 -0.000000 -0.000000
  outer loop
   vertex -78.190117 22.542719 271.758148
   vertex -78.190117 21.409325 271.999054
   vertex -78.190117 22.575769 271.913635
  endloop
 endfacet
 facet normal -0.610600 -0.164650 -0.774634
  outer loop
   vertex -78.107002 22.529398 271.695465
   vertex -78.190117 21.409325 271.999054
   vertex -78.190117 22.542719 271.758148
  endloop
 endfacet
 facet normal -0.000012 0.978153 -0.207886
  outer loop
   vertex -78.190117 22.542719 271.758148
   vertex -78.091423 22.578827 271.928040
   vertex -78.107002 22.529398 271.695465
  endloop
 endfacet
 facet normal 0.000000 0.978153 -0.207886
  outer loop
   vertex -78.107002 22.529398 271.695465
   vertex -78.091423 22.578827 271.928040
   vertex -77.265373 22.529398 271.695465
  endloop
 endfacet
 facet normal -0.000008 0.978147 -0.207914
  outer loop
   vertex -77.265373 22.529398 271.695465
   vertex -78.091423 22.578827 271.928040
   vertex -78.091423 22.825727 273.089600
  endloop
 endfacet
 facet normal -0.000001 0.978148 -0.207910
  outer loop
   vertex -78.091423 22.825727 273.089600
   vertex -77.265373 22.875156 273.322144
   vertex -77.265373 22.529398 271.695465
  endloop
 endfacet
 facet normal -0.000000 0.978147 -0.207912
  outer loop
   vertex -78.107002 22.875156 273.322144
   vertex -77.265373 22.875156 273.322144
   vertex -78.091423 22.825727 273.089600
  endloop
 endfacet
 facet normal 0.000000 0.207933 0.978143
  outer loop
   vertex -77.265373 21.741762 273.563080
   vertex -77.265373 22.875156 273.322144
   vertex -78.107002 22.875156 273.322144
  endloop
 endfacet
 facet normal -0.000000 0.207933 0.978143
  outer loop
   vertex -78.107002 22.875156 273.322144
   vertex -78.107002 21.741762 273.563080
   vertex -77.265373 21.741762 273.563080
  endloop
 endfacet
 facet normal 0.000000 -0.978151 0.207894
  outer loop
   vertex -77.265373 21.741762 273.563080
   vertex -78.107002 21.741762 273.563080
   vertex -78.091423 21.692331 273.330505
  endloop
 endfacet
 facet normal -0.000018 -0.978152 0.207893
  outer loop
   vertex -78.091423 21.692331 273.330505
   vertex -78.107002 21.741762 273.563080
   vertex -78.190117 21.728441 273.500397
  endloop
 endfacet
 facet normal 0.000024 -0.978147 0.207916
  outer loop
   vertex -78.190117 21.728441 273.500397
   vertex -78.190117 21.695391 273.344910
   vertex -78.091423 21.692331 273.330505
  endloop
 endfacet
 facet normal -1.000000 0.000000 -0.000000
  outer loop
   vertex -78.190117 22.828785 273.104004
   vertex -78.190117 21.695391 273.344910
   vertex -78.190117 21.728441 273.500397
  endloop
 endfacet
 facet normal -0.147571 -0.205632 -0.967439
  outer loop
   vertex -78.091423 21.692331 273.330505
   vertex -78.190117 21.695391 273.344910
   vertex -78.190117 22.828785 273.104004
  endloop
 endfacet
 facet normal -0.147567 -0.205631 -0.967440
  outer loop
   vertex -78.190117 22.828785 273.104004
   vertex -78.091423 22.825727 273.089600
   vertex -78.091423 21.692331 273.330505
  endloop
 endfacet
 facet normal -1.000000 -0.000000 0.000000
  outer loop
   vertex -78.091423 21.692331 273.330505
   vertex -78.091423 22.825727 273.089600
   vertex -78.091423 22.578827 271.928040
  endloop
 endfacet
 facet normal 0.455427 0.185117 0.870815
  outer loop
   vertex -77.265381 12.610423 275.503998
   vertex -76.774117 12.558175 275.258179
   vertex -77.265381 13.743817 275.263062
  endloop
 endfacet
 facet normal 0.455383 0.185099 0.870841
  outer loop
   vertex -77.265381 13.743817 275.263062
   vertex -76.774117 12.558175 275.258179
   vertex -76.774117 13.691570 275.017273
  endloop
 endfacet
 facet normal 0.000007 0.978148 -0.207910
  outer loop
   vertex -76.774117 13.691570 275.017273
   vertex -76.774117 13.450305 273.882202
   vertex -77.265381 13.743817 275.263062
  endloop
 endfacet
 facet normal 1.000000 -0.000000 -0.000000
  outer loop
   vertex -76.774117 12.558175 275.258179
   vertex -76.774117 13.450305 273.882202
   vertex -76.774117 13.691570 275.017273
  endloop
 endfacet
 facet normal 1.000000 0.000000 0.000000
  outer loop
   vertex -76.774117 12.316911 274.123108
   vertex -76.774117 13.450305 273.882202
   vertex -76.774117 12.558175 275.258179
  endloop
 endfacet
 facet normal -0.000004 -0.978148 0.207910
  outer loop
   vertex -76.774117 12.558175 275.258179
   vertex -77.265373 12.264663 273.877289
   vertex -76.774117 12.316911 274.123108
  endloop
 endfacet
 facet normal 0.455432 -0.185094 -0.870817
  outer loop
   vertex -76.774117 12.316911 274.123108
   vertex -77.265373 12.264663 273.877289
   vertex -76.774117 13.450305 273.882202
  endloop
 endfacet
 facet normal 0.455432 -0.185094 -0.870817
  outer loop
   vertex -76.774117 13.450305 273.882202
   vertex -77.265373 12.264663 273.877289
   vertex -77.265373 13.398058 273.636383
  endloop
 endfacet
 facet normal 0.000006 0.978148 -0.207911
  outer loop
   vertex -77.265373 13.398058 273.636383
   vertex -77.265381 13.743817 275.263062
   vertex -76.774117 13.450305 273.882202
  endloop
 endfacet
 facet normal -0.000006 0.978148 -0.207911
  outer loop
   vertex -78.091423 13.447488 273.868958
   vertex -77.265381 13.743817 275.263062
   vertex -77.265373 13.398058 273.636383
  endloop
 endfacet
 facet normal -0.000001 0.978147 -0.207914
  outer loop
   vertex -78.091423 13.694387 275.030518
   vertex -77.265381 13.743817 275.263062
   vertex -78.091423 13.447488 273.868958
  endloop
 endfacet
 facet normal -1.000000 -0.000000 -0.000000
  outer loop
   vertex -78.091423 13.447488 273.868958
   vertex -78.091423 12.560993 275.271423
   vertex -78.091423 13.694387 275.030518
  endloop
 endfacet
 facet normal -0.147275 -0.205641 -0.967482
  outer loop
   vertex -78.091423 13.694387 275.030518
   vertex -78.091423 12.560993 275.271423
   vertex -78.190117 13.697445 275.044891
  endloop
 endfacet
 facet normal -0.147567 -0.205657 -0.967434
  outer loop
   vertex -78.190117 13.697445 275.044891
   vertex -78.091423 12.560993 275.271423
   vertex -78.190117 12.564051 275.285828
  endloop
 endfacet
 facet normal -1.000000 -0.000000 0.000000
  outer loop
   vertex -78.190117 12.564051 275.285828
   vertex -78.190117 13.730495 275.200409
   vertex -78.190117 13.697445 275.044891
  endloop
 endfacet
 facet normal -1.000000 -0.000000 -0.000000
  outer loop
   vertex -78.190117 12.597101 275.441315
   vertex -78.190117 13.730495 275.200409
   vertex -78.190117 12.564051 275.285828
  endloop
 endfacet
 facet normal -0.610458 0.164673 0.774741
  outer loop
   vertex -78.107010 12.610423 275.503967
   vertex -78.190117 13.730495 275.200409
   vertex -78.190117 12.597101 275.441315
  endloop
 endfacet
 facet normal 0.000049 -0.978146 0.207919
  outer loop
   vertex -78.190117 12.597101 275.441315
   vertex -78.091423 12.560993 275.271423
   vertex -78.107010 12.610423 275.503967
  endloop
 endfacet
 facet normal -0.000008 -0.978147 0.207916
  outer loop
   vertex -78.107010 12.610423 275.503967
   vertex -78.091423 12.560993 275.271423
   vertex -77.265381 12.610423 275.503998
  endloop
 endfacet
 facet normal -0.000007 -0.978147 0.207914
  outer loop
   vertex -77.265381 12.610423 275.503998
   vertex -78.091423 12.560993 275.271423
   vertex -78.091423 12.314094 274.109863
  endloop
 endfacet
 facet normal 0.000004 -0.978148 0.207907
  outer loop
   vertex -78.091423 12.314094 274.109863
   vertex -77.265373 12.264663 273.877289
   vertex -77.265381 12.610423 275.503998
  endloop
 endfacet
 facet normal -0.000000 -0.978151 0.207894
  outer loop
   vertex -78.107002 12.264663 273.877289
   vertex -77.265373 12.264663 273.877289
   vertex -78.091423 12.314094 274.109863
  endloop
 endfacet
 facet normal -0.000000 -0.207908 -0.978148
  outer loop
   vertex -77.265373 13.398058 273.636383
   vertex -77.265373 12.264663 273.877289
   vertex -78.107002 12.264663 273.877289
  endloop
 endfacet
 facet normal 0.000000 -0.207908 -0.978148
  outer loop
   vertex -78.107002 12.264663 273.877289
   vertex -78.107002 13.398058 273.636383
   vertex -77.265373 13.398058 273.636383
  endloop
 endfacet
 facet normal 0.000000 0.978152 -0.207890
  outer loop
   vertex -77.265373 13.398058 273.636383
   vertex -78.107002 13.398058 273.636383
   vertex -78.091423 13.447488 273.868958
  endloop
 endfacet
 facet normal -0.000004 0.978152 -0.207890
  outer loop
   vertex -78.091423 13.447488 273.868958
   vertex -78.107002 13.398058 273.636383
   vertex -78.190117 13.411380 273.699066
  endloop
 endfacet
 facet normal 0.000043 0.978147 -0.207916
  outer loop
   vertex -78.190117 13.411380 273.699066
   vertex -78.190117 13.444430 273.854553
   vertex -78.091423 13.447488 273.868958
  endloop
 endfacet
 facet normal -1.000000 -0.000000 -0.000000
  outer loop
   vertex -78.190117 12.311035 274.095459
   vertex -78.190117 13.444430 273.854553
   vertex -78.190117 13.411380 273.699066
  endloop
 endfacet
 facet normal -0.147567 0.205632 0.967440
  outer loop
   vertex -78.091423 13.447488 273.868958
   vertex -78.190117 13.444430 273.854553
   vertex -78.190117 12.311035 274.095459
  endloop
 endfacet
 facet normal -0.147569 0.205632 0.967439
  outer loop
   vertex -78.190117 12.311035 274.095459
   vertex -78.091423 12.314094 274.109863
   vertex -78.091423 13.447488 273.868958
  endloop
 endfacet
 facet normal -1.000000 0.000000 0.000000
  outer loop
   vertex -78.091423 13.447488 273.868958
   vertex -78.091423 12.314094 274.109863
   vertex -78.091423 12.560993 275.271423
  endloop
 endfacet
 facet normal -0.000056 -0.207953 -0.978139
  outer loop
   vertex -76.300102 24.109125 271.954193
   vertex -76.300102 23.766773 272.026978
   vertex -76.550102 24.174648 271.940277
  endloop
 endfacet
 facet normal 0.000010 -0.207915 -0.978147
  outer loop
   vertex -76.550102 24.174648 271.940277
   vertex -76.300102 23.766773 272.026978
   vertex -76.725098 23.878164 272.003296
  endloop
 endfacet
 facet normal 0.000018 -0.207919 -0.978146
  outer loop
   vertex -76.725098 23.878164 272.003296
   vertex -76.733116 24.353662 271.902222
   vertex -76.550102 24.174648 271.940277
  endloop
 endfacet
 facet normal 0.000028 -0.207919 -0.978146
  outer loop
   vertex -77.036224 24.182487 271.938599
   vertex -76.733116 24.353662 271.902222
   vertex -76.725098 23.878164 272.003296
  endloop
 endfacet
 facet normal 0.000008 -0.207884 -0.978153
  outer loop
   vertex -76.800102 24.598200 271.850250
   vertex -76.733116 24.353662 271.902222
   vertex -77.036224 24.182487 271.938599
  endloop
 endfacet
 facet normal 0.000000 -0.207880 -0.978154
  outer loop
   vertex -77.036224 24.182487 271.938599
   vertex -77.150101 24.598200 271.850250
   vertex -76.800102 24.598200 271.850250
  endloop
 endfacet
 facet normal 0.000000 -0.207886 -0.978153
  outer loop
   vertex -76.800102 24.598200 271.850250
   vertex -77.150101 24.598200 271.850250
   vertex -76.733116 24.842737 271.798279
  endloop
 endfacet
 facet normal 0.000046 -0.207961 -0.978137
  outer loop
   vertex -76.733116 24.842737 271.798279
   vertex -77.150101 24.598200 271.850250
   vertex -77.036224 25.013912 271.761871
  endloop
 endfacet
 facet normal 0.000037 -0.207975 -0.978134
  outer loop
   vertex -77.036224 25.013912 271.761871
   vertex -76.550102 25.021749 271.760223
   vertex -76.733116 24.842737 271.798279
  endloop
 endfacet
 facet normal 0.000036 -0.207888 -0.978153
  outer loop
   vertex -76.725098 25.318235 271.697205
   vertex -76.550102 25.021749 271.760223
   vertex -77.036224 25.013912 271.761871
  endloop
 endfacet
 facet normal -0.000066 -0.207945 -0.978141
  outer loop
   vertex -76.300102 25.087273 271.746277
   vertex -76.550102 25.021749 271.760223
   vertex -76.725098 25.318235 271.697205
  endloop
 endfacet
 facet normal -0.000023 -0.207870 -0.978156
  outer loop
   vertex -76.725098 25.318235 271.697205
   vertex -76.300102 25.429625 271.673523
   vertex -76.300102 25.087273 271.746277
  endloop
 endfacet
 facet normal 0.000086 -0.207870 -0.978156
  outer loop
   vertex -76.300102 25.087273 271.746277
   vertex -76.300102 25.429625 271.673523
   vertex -76.050102 25.021749 271.760223
  endloop
 endfacet
 facet normal 0.000000 -0.207921 -0.978146
  outer loop
   vertex -76.050102 25.021749 271.760223
   vertex -76.300102 25.429625 271.673523
   vertex -75.300102 25.429625 271.673523
  endloop
 endfacet
 facet normal 0.000007 -0.207932 -0.978143
  outer loop
   vertex -75.300102 25.429625 271.673523
   vertex -75.867088 24.842737 271.798279
   vertex -76.050102 25.021749 271.760223
  endloop
 endfacet
 facet normal -0.000033 -0.207895 -0.978151
  outer loop
   vertex -75.800102 24.598200 271.850250
   vertex -75.867088 24.842737 271.798279
   vertex -75.300102 25.429625 271.673523
  endloop
 endfacet
 facet normal -0.000057 0.207954 0.978139
  outer loop
   vertex -76.300102 11.030695 275.245270
   vertex -76.300102 11.373046 275.172485
   vertex -76.550102 10.965171 275.259186
  endloop
 endfacet
 facet normal 0.000011 0.207914 0.978147
  outer loop
   vertex -76.550102 10.965171 275.259186
   vertex -76.300102 11.373046 275.172485
   vertex -76.725105 11.261656 275.196167
  endloop
 endfacet
 facet normal 0.000019 0.207919 0.978146
  outer loop
   vertex -76.725105 11.261656 275.196167
   vertex -76.733116 10.786158 275.297241
   vertex -76.550102 10.965171 275.259186
  endloop
 endfacet
 facet normal 0.000029 0.207919 0.978146
  outer loop
   vertex -77.036224 10.957334 275.260864
   vertex -76.733116 10.786158 275.297241
   vertex -76.725105 11.261656 275.196167
  endloop
 endfacet
 facet normal 0.000008 0.207884 0.978153
  outer loop
   vertex -76.800102 10.541620 275.349213
   vertex -76.733116 10.786158 275.297241
   vertex -77.036224 10.957334 275.260864
  endloop
 endfacet
 facet normal -0.000000 0.207880 0.978154
  outer loop
   vertex -77.036224 10.957334 275.260864
   vertex -77.150108 10.541620 275.349213
   vertex -76.800102 10.541620 275.349213
  endloop
 endfacet
 facet normal -0.000000 0.207887 0.978153
  outer loop
   vertex -76.800102 10.541620 275.349213
   vertex -77.150108 10.541620 275.349213
   vertex -76.733116 10.297084 275.401184
  endloop
 endfacet
 facet normal 0.000045 0.207960 0.978137
  outer loop
   vertex -76.733116 10.297084 275.401184
   vertex -77.150108 10.541620 275.349213
   vertex -77.036224 10.125907 275.437592
  endloop
 endfacet
 facet normal 0.000037 0.207973 0.978135
  outer loop
   vertex -77.036224 10.125907 275.437592
   vertex -76.550102 10.118070 275.439240
   vertex -76.733116 10.297084 275.401184
  endloop
 endfacet
 facet normal 0.000036 0.207888 0.978153
  outer loop
   vertex -76.725105 9.821585 275.502258
   vertex -76.550102 10.118070 275.439240
   vertex -77.036224 10.125907 275.437592
  endloop
 endfacet
 facet normal -0.000066 0.207946 0.978140
  outer loop
   vertex -76.300102 10.052547 275.453186
   vertex -76.550102 10.118070 275.439240
   vertex -76.725105 9.821585 275.502258
  endloop
 endfacet
 facet normal -0.000023 0.207870 0.978156
  outer loop
   vertex -76.725105 9.821585 275.502258
   vertex -76.300102 9.710195 275.525940
   vertex -76.300102 10.052547 275.453186
  endloop
 endfacet
 facet normal 0.000086 0.207870 0.978156
  outer loop
   vertex -76.300102 10.052547 275.453186
   vertex -76.300102 9.710195 275.525940
   vertex -76.050102 10.118070 275.439240
  endloop
 endfacet
 facet normal -0.000000 0.207921 0.978146
  outer loop
   vertex -76.050102 10.118070 275.439240
   vertex -76.300102 9.710195 275.525940
   vertex -75.300102 9.710195 275.525940
  endloop
 endfacet
 facet normal 0.000006 0.207931 0.978144
  outer loop
   vertex -75.300102 9.710195 275.525940
   vertex -75.867088 10.297084 275.401184
   vertex -76.050102 10.118070 275.439240
  endloop
 endfacet
 facet normal -0.000032 0.207896 0.978151
  outer loop
   vertex -75.800102 10.541620 275.349213
   vertex -75.867088 10.297084 275.401184
   vertex -75.300102 9.710195 275.525940
  endloop
 endfacet
 facet normal -0.000000 0.207914 0.978147
  outer loop
   vertex -75.300102 25.533581 272.162598
   vertex -75.800102 24.702154 272.339325
   vertex -75.300102 23.870729 272.516052
  endloop
 endfacet
 facet normal -0.000032 0.207896 0.978151
  outer loop
   vertex -75.300102 23.870729 272.516052
   vertex -75.800102 24.702154 272.339325
   vertex -75.867088 24.457619 272.391296
  endloop
 endfacet
 facet normal 0.000006 0.207931 0.978144
  outer loop
   vertex -75.867088 24.457619 272.391296
   vertex -76.050102 24.278605 272.429352
   vertex -75.300102 23.870729 272.516052
  endloop
 endfacet
 facet normal -0.000006 0.207931 0.978143
  outer loop
   vertex -76.050102 10.965171 275.259186
   vertex -75.867088 10.786158 275.297241
   vertex -75.300102 11.373047 275.172485
  endloop
 endfacet
 facet normal 0.000033 0.207895 0.978151
  outer loop
   vertex -75.300102 11.373047 275.172485
   vertex -75.867088 10.786158 275.297241
   vertex -75.800102 10.541620 275.349213
  endloop
 endfacet
 facet normal -0.000000 0.207914 0.978147
  outer loop
   vertex -75.800102 10.541620 275.349213
   vertex -75.300102 9.710195 275.525940
   vertex -75.300102 11.373047 275.172485
  endloop
 endfacet
 facet normal 0.000000 -0.207914 -0.978147
  outer loop
   vertex -75.300102 9.606239 275.036865
   vertex -75.800102 10.437665 274.860138
   vertex -75.300102 11.269092 274.683411
  endloop
 endfacet
 facet normal -0.000033 -0.207895 -0.978151
  outer loop
   vertex -75.300102 11.269092 274.683411
   vertex -75.800102 10.437665 274.860138
   vertex -75.867088 10.682202 274.808167
  endloop
 endfacet
 facet normal 0.000006 -0.207931 -0.978143
  outer loop
   vertex -75.867088 10.682202 274.808167
   vertex -76.050102 10.861216 274.770111
   vertex -75.300102 11.269092 274.683411
  endloop
 endfacet
 facet normal -0.000006 -0.207931 -0.978144
  outer loop
   vertex -76.050102 24.174648 271.940277
   vertex -75.867088 24.353662 271.902222
   vertex -75.300102 23.766773 272.026978
  endloop
 endfacet
 facet normal 0.000033 -0.207895 -0.978151
  outer loop
   vertex -75.300102 23.766773 272.026978
   vertex -75.867088 24.353662 271.902222
   vertex -75.800102 24.598200 271.850250
  endloop
 endfacet
 facet normal -0.000000 -0.207914 -0.978147
  outer loop
   vertex -75.800102 24.598200 271.850250
   vertex -75.300102 25.429625 271.673523
   vertex -75.300102 23.766773 272.026978
  endloop
 endfacet
 facet normal -0.610602 -0.164650 -0.774632
  outer loop
   vertex -78.107002 12.264663 273.877289
   vertex -78.190117 12.277986 273.939972
   vertex -78.107002 13.398058 273.636383
  endloop
 endfacet
 facet normal -0.610601 -0.164650 -0.774633
  outer loop
   vertex -78.107002 13.398058 273.636383
   vertex -78.190117 12.277986 273.939972
   vertex -78.190117 13.411380 273.699066
  endloop
 endfacet
 facet normal -0.000000 0.207910 0.978148
  outer loop
   vertex -77.362221 22.616892 273.295227
   vertex -77.975754 22.616892 273.295227
   vertex -77.362221 12.835406 275.374329
  endloop
 endfacet
 facet normal -0.000000 0.207910 0.978148
  outer loop
   vertex -77.362221 12.835406 275.374329
   vertex -77.975754 22.616892 273.295227
   vertex -77.975754 12.835406 275.374329
  endloop
 endfacet
 facet normal -0.610600 0.164650 0.774634
  outer loop
   vertex -78.190117 21.728441 273.500397
   vertex -78.107002 21.741762 273.563080
   vertex -78.190117 22.861835 273.259491
  endloop
 endfacet
 facet normal -0.610421 0.164699 0.774764
  outer loop
   vertex -78.190117 22.861835 273.259491
   vertex -78.107002 21.741762 273.563080
   vertex -78.107002 22.875156 273.322144
  endloop
 endfacet
 facet normal -1.000000 0.000000 0.000000
  outer loop
   vertex -76.300102 9.948591 274.964111
   vertex -76.300102 9.606239 275.036865
   vertex -76.300102 9.829393 275.245026
  endloop
 endfacet
 facet normal 0.000003 -0.978148 0.207907
  outer loop
   vertex -77.265381 12.610423 275.503998
   vertex -77.265373 12.264663 273.877289
   vertex -76.774117 12.558175 275.258179
  endloop
 endfacet
 facet normal 0.000057 0.207954 0.978139
  outer loop
   vertex -76.300102 11.373046 275.172485
   vertex -76.300102 11.030695 275.245270
   vertex -76.050102 10.965171 275.259186
  endloop
 endfacet
 facet normal -0.000056 0.207953 0.978139
  outer loop
   vertex -76.300102 24.213081 272.443268
   vertex -76.300102 23.870729 272.516052
   vertex -76.050102 24.278605 272.429352
  endloop
 endfacet
 facet normal 1.000000 0.000000 0.000000
  outer loop
   vertex -76.300102 9.606239 275.036865
   vertex -76.300102 10.052547 275.453186
   vertex -76.300102 9.710195 275.525940
  endloop
 endfacet
 facet normal 0.000000 -0.207917 -0.978146
  outer loop
   vertex -76.915100 22.345484 272.014740
   vertex -76.915092 23.957628 271.672058
   vertex -75.374046 23.957628 271.672058
  endloop
 endfacet
 facet normal -0.000000 0.207918 0.978146
  outer loop
   vertex -75.374054 12.794336 275.184723
   vertex -76.915100 12.794336 275.184723
   vertex -75.374054 11.182193 275.527405
  endloop
 endfacet
 facet normal 1.000000 -0.000000 0.000000
  outer loop
   vertex -76.300102 25.533581 272.162598
   vertex -76.300102 25.087273 271.746277
   vertex -76.300102 25.429625 271.673523
  endloop
 endfacet
 facet normal 0.000043 0.978147 -0.207916
  outer loop
   vertex -78.190117 22.542719 271.758148
   vertex -78.190117 22.575769 271.913635
   vertex -78.091423 22.578827 271.928040
  endloop
 endfacet
 facet normal 1.000000 0.000000 -0.000000
  outer loop
   vertex -76.300102 11.030695 275.245270
   vertex -76.300102 11.269091 274.683411
   vertex -76.300102 11.373046 275.172485
  endloop
 endfacet
 facet normal 0.000008 0.978148 -0.207910
  outer loop
   vertex -77.265373 22.529398 271.695465
   vertex -77.265373 22.875156 273.322144
   vertex -76.774109 22.581644 271.941284
  endloop
 endfacet
 facet normal 0.000043 -0.978147 0.207916
  outer loop
   vertex -78.190117 12.597101 275.441315
   vertex -78.190117 12.564051 275.285828
   vertex -78.091423 12.560993 275.271423
  endloop
 endfacet
 facet normal -0.000000 -0.207917 -0.978146
  outer loop
   vertex -76.915100 12.562530 274.094147
   vertex -75.374046 12.562530 274.094147
   vertex -75.374046 10.950385 274.436829
  endloop
 endfacet
 facet normal -0.000001 -0.978148 0.207909
  outer loop
   vertex -75.374046 22.345484 272.014740
   vertex -75.374046 22.577290 273.105316
   vertex -76.915100 22.577291 273.105316
  endloop
 endfacet
 facet normal 1.000000 0.000000 0.000000
  outer loop
   vertex -76.300102 24.109125 271.954193
   vertex -76.300102 23.870729 272.516052
   vertex -76.300102 23.766773 272.026978
  endloop
 endfacet
 facet normal 0.000056 -0.207953 -0.978139
  outer loop
   vertex -76.300102 23.766773 272.026978
   vertex -76.300102 24.109125 271.954193
   vertex -76.050102 24.174648 271.940277
  endloop
 endfacet
 facet normal -0.707108 0.691654 -0.147016
  outer loop
   vertex -75.867088 24.353662 271.902222
   vertex -76.050102 24.278605 272.429352
   vertex -75.867088 24.457619 272.391296
  endloop
 endfacet
 facet normal -0.965927 0.253160 -0.053811
  outer loop
   vertex -75.867088 24.353662 271.902222
   vertex -75.867088 24.457619 272.391296
   vertex -75.800102 24.598200 271.850250
  endloop
 endfacet
 facet normal -0.965926 0.253162 -0.053810
  outer loop
   vertex -75.800102 24.598200 271.850250
   vertex -75.867088 24.457619 272.391296
   vertex -75.800102 24.702154 272.339325
  endloop
 endfacet
 facet normal -0.965927 -0.253160 0.053810
  outer loop
   vertex -75.800102 24.702154 272.339325
   vertex -75.867088 24.842737 271.798279
   vertex -75.800102 24.598200 271.850250
  endloop
 endfacet
 facet normal -0.965927 -0.253160 0.053810
  outer loop
   vertex -75.867088 24.946692 272.287354
   vertex -75.867088 24.842737 271.798279
   vertex -75.800102 24.702154 272.339325
  endloop
 endfacet
 facet normal -0.707104 -0.691658 0.147014
  outer loop
   vertex -76.050102 25.021749 271.760223
   vertex -75.867088 24.842737 271.798279
   vertex -75.867088 24.946692 272.287354
  endloop
 endfacet
 facet normal -0.707108 -0.691654 0.147016
  outer loop
   vertex -75.867088 24.946692 272.287354
   vertex -76.050102 25.125706 272.249298
   vertex -76.050102 25.021749 271.760223
  endloop
 endfacet
 facet normal -0.258832 -0.944815 0.200827
  outer loop
   vertex -76.050102 25.021749 271.760223
   vertex -76.050102 25.125706 272.249298
   vertex -76.300102 25.087273 271.746277
  endloop
 endfacet
 facet normal -0.258832 0.944815 -0.200825
  outer loop
   vertex -76.300102 9.948591 274.964111
   vertex -76.300102 10.052547 275.453186
   vertex -76.050102 10.014114 274.950165
  endloop
 endfacet
 facet normal -0.258832 0.944815 -0.200825
  outer loop
   vertex -76.050102 10.014114 274.950165
   vertex -76.300102 10.052547 275.453186
   vertex -76.050102 10.118070 275.439240
  endloop
 endfacet
 facet normal -0.707108 0.691654 -0.147014
  outer loop
   vertex -76.050102 10.118070 275.439240
   vertex -75.867088 10.193129 274.912109
   vertex -76.050102 10.014114 274.950165
  endloop
 endfacet
 facet normal -0.707108 0.691654 -0.147014
  outer loop
   vertex -75.867088 10.297084 275.401184
   vertex -75.867088 10.193129 274.912109
   vertex -76.050102 10.118070 275.439240
  endloop
 endfacet
 facet normal -0.965927 0.253161 -0.053811
  outer loop
   vertex -75.800102 10.437665 274.860138
   vertex -75.867088 10.193129 274.912109
   vertex -75.867088 10.297084 275.401184
  endloop
 endfacet
 facet normal -0.965927 0.253161 -0.053811
  outer loop
   vertex -75.867088 10.297084 275.401184
   vertex -75.800102 10.541620 275.349213
   vertex -75.800102 10.437665 274.860138
  endloop
 endfacet
 facet normal -0.965927 -0.253160 0.053810
  outer loop
   vertex -75.800102 10.437665 274.860138
   vertex -75.800102 10.541620 275.349213
   vertex -75.867088 10.682202 274.808167
  endloop
 endfacet
 facet normal -0.965927 -0.253160 0.053810
  outer loop
   vertex -75.867088 10.682202 274.808167
   vertex -75.800102 10.541620 275.349213
   vertex -75.867088 10.786158 275.297241
  endloop
 endfacet
 facet normal -0.707106 -0.691656 0.147015
  outer loop
   vertex -75.867088 10.786158 275.297241
   vertex -76.050102 10.861216 274.770111
   vertex -75.867088 10.682202 274.808167
  endloop
 endfacet
 facet normal -0.258826 -0.944816 0.200827
  outer loop
   vertex -76.300102 23.766773 272.026978
   vertex -76.300102 23.870729 272.516052
   vertex -76.725098 23.878164 272.003296
  endloop
 endfacet
 facet normal -0.258818 -0.944820 0.200820
  outer loop
   vertex -76.725098 23.878164 272.003296
   vertex -76.300102 23.870729 272.516052
   vertex -76.725105 23.982119 272.492371
  endloop
 endfacet
 facet normal -0.707104 -0.691660 0.147003
  outer loop
   vertex -76.725105 23.982119 272.492371
   vertex -77.036224 24.182487 271.938599
   vertex -76.725098 23.878164 272.003296
  endloop
 endfacet
 facet normal -0.707113 -0.691649 0.147012
  outer loop
   vertex -77.036224 24.286442 272.427673
   vertex -77.036224 24.182487 271.938599
   vertex -76.725105 23.982119 272.492371
  endloop
 endfacet
 facet normal -0.965926 -0.253161 0.053810
  outer loop
   vertex -77.150101 24.598200 271.850250
   vertex -77.036224 24.182487 271.938599
   vertex -77.036224 24.286442 272.427673
  endloop
 endfacet
 facet normal -0.965927 -0.253160 0.053811
  outer loop
   vertex -77.036224 24.286442 272.427673
   vertex -77.150101 24.702156 272.339325
   vertex -77.150101 24.598200 271.850250
  endloop
 endfacet
 facet normal -0.965927 0.253157 -0.053810
  outer loop
   vertex -77.150101 24.598200 271.850250
   vertex -77.150101 24.702156 272.339325
   vertex -77.036224 25.013912 271.761871
  endloop
 endfacet
 facet normal -0.965927 0.253157 -0.053810
  outer loop
   vertex -77.036224 25.013912 271.761871
   vertex -77.150101 24.702156 272.339325
   vertex -77.036224 25.117868 272.250946
  endloop
 endfacet
 facet normal -0.707097 0.691664 -0.147018
  outer loop
   vertex -77.036224 25.117868 272.250946
   vertex -76.725098 25.318235 271.697205
   vertex -77.036224 25.013912 271.761871
  endloop
 endfacet
 facet normal -0.707097 0.691664 -0.147018
  outer loop
   vertex -76.725098 25.422192 272.186279
   vertex -76.725098 25.318235 271.697205
   vertex -77.036224 25.117868 272.250946
  endloop
 endfacet
 facet normal -0.258822 0.944817 -0.200827
  outer loop
   vertex -76.300102 25.429625 271.673523
   vertex -76.725098 25.318235 271.697205
   vertex -76.725098 25.422192 272.186279
  endloop
 endfacet
 facet normal -0.258822 0.944817 -0.200827
  outer loop
   vertex -76.725098 25.422192 272.186279
   vertex -76.300102 25.533581 272.162598
   vertex -76.300102 25.429625 271.673523
  endloop
 endfacet
 facet normal -0.258820 -0.944818 0.200826
  outer loop
   vertex -76.300102 9.606239 275.036865
   vertex -76.300102 9.710195 275.525940
   vertex -76.725105 9.717629 275.013184
  endloop
 endfacet
 facet normal -0.258820 -0.944818 0.200826
  outer loop
   vertex -76.725105 9.717629 275.013184
   vertex -76.300102 9.710195 275.525940
   vertex -76.725105 9.821585 275.502258
  endloop
 endfacet
 facet normal -0.707104 -0.691657 0.147015
  outer loop
   vertex -76.725105 9.821585 275.502258
   vertex -77.036224 10.021952 274.948517
   vertex -76.725105 9.717629 275.013184
  endloop
 endfacet
 facet normal -0.707104 -0.691657 0.147015
  outer loop
   vertex -77.036224 10.125907 275.437592
   vertex -77.036224 10.021952 274.948517
   vertex -76.725105 9.821585 275.502258
  endloop
 endfacet
 facet normal -0.965928 -0.253157 0.053810
  outer loop
   vertex -77.150101 10.437665 274.860138
   vertex -77.036224 10.021952 274.948517
   vertex -77.036224 10.125907 275.437592
  endloop
 endfacet
 facet normal -0.965923 -0.253176 0.053799
  outer loop
   vertex -77.036224 10.125907 275.437592
   vertex -77.150108 10.541620 275.349213
   vertex -77.150101 10.437665 274.860138
  endloop
 endfacet
 facet normal -0.965926 0.253158 -0.053825
  outer loop
   vertex -77.150101 10.437665 274.860138
   vertex -77.150108 10.541620 275.349213
   vertex -77.036224 10.853377 274.771790
  endloop
 endfacet
 facet normal -0.965922 0.253176 -0.053814
  outer loop
   vertex -77.036224 10.853377 274.771790
   vertex -77.150108 10.541620 275.349213
   vertex -77.036224 10.957334 275.260864
  endloop
 endfacet
 facet normal -0.707113 0.691649 -0.147015
  outer loop
   vertex -77.036224 10.957334 275.260864
   vertex -76.725105 11.157701 274.707092
   vertex -77.036224 10.853377 274.771790
  endloop
 endfacet
 facet normal -0.707112 0.691650 -0.147014
  outer loop
   vertex -76.725105 11.261656 275.196167
   vertex -76.725105 11.157701 274.707092
   vertex -77.036224 10.957334 275.260864
  endloop
 endfacet
 facet normal -0.258820 0.944818 -0.200826
  outer loop
   vertex -76.300102 11.269091 274.683411
   vertex -76.725105 11.157701 274.707092
   vertex -76.725105 11.261656 275.196167
  endloop
 endfacet
 facet normal -0.258820 0.944818 -0.200826
  outer loop
   vertex -76.725105 11.261656 275.196167
   vertex -76.300102 11.373046 275.172485
   vertex -76.300102 11.269091 274.683411
  endloop
 endfacet
 facet normal -0.707106 -0.691656 0.147015
  outer loop
   vertex -75.867088 10.786158 275.297241
   vertex -76.050102 10.965171 275.259186
   vertex -76.050102 10.861216 274.770111
  endloop
 endfacet
 facet normal -0.258813 -0.944820 0.200826
  outer loop
   vertex -76.050102 10.861216 274.770111
   vertex -76.050102 10.965171 275.259186
   vertex -76.300102 11.030695 275.245270
  endloop
 endfacet
 facet normal -0.258809 -0.944820 0.200828
  outer loop
   vertex -76.300102 11.030695 275.245270
   vertex -76.300102 10.926739 274.756195
   vertex -76.050102 10.861216 274.770111
  endloop
 endfacet
 facet normal 0.258813 -0.944820 0.200828
  outer loop
   vertex -76.550102 10.965171 275.259186
   vertex -76.300102 10.926739 274.756195
   vertex -76.300102 11.030695 275.245270
  endloop
 endfacet
 facet normal 0.258809 -0.944821 0.200826
  outer loop
   vertex -76.550102 10.861216 274.770111
   vertex -76.300102 10.926739 274.756195
   vertex -76.550102 10.965171 275.259186
  endloop
 endfacet
 facet normal 0.707106 -0.691656 0.147015
  outer loop
   vertex -76.550102 10.965171 275.259186
   vertex -76.733116 10.786158 275.297241
   vertex -76.550102 10.861216 274.770111
  endloop
 endfacet
 facet normal 0.707106 -0.691656 0.147015
  outer loop
   vertex -76.550102 10.861216 274.770111
   vertex -76.733116 10.786158 275.297241
   vertex -76.733116 10.682202 274.808167
  endloop
 endfacet
 facet normal 0.965927 -0.253160 0.053810
  outer loop
   vertex -76.733116 10.682202 274.808167
   vertex -76.733116 10.786158 275.297241
   vertex -76.800102 10.541620 275.349213
  endloop
 endfacet
 facet normal 0.965927 -0.253160 0.053810
  outer loop
   vertex -76.800102 10.541620 275.349213
   vertex -76.800102 10.437665 274.860138
   vertex -76.733116 10.682202 274.808167
  endloop
 endfacet
 facet normal 0.965927 0.253161 -0.053811
  outer loop
   vertex -76.733116 10.297084 275.401184
   vertex -76.800102 10.437665 274.860138
   vertex -76.800102 10.541620 275.349213
  endloop
 endfacet
 facet normal 0.965927 0.253161 -0.053811
  outer loop
   vertex -76.733116 10.193129 274.912109
   vertex -76.800102 10.437665 274.860138
   vertex -76.733116 10.297084 275.401184
  endloop
 endfacet
 facet normal 0.707108 0.691654 -0.147014
  outer loop
   vertex -76.733116 10.297084 275.401184
   vertex -76.550102 10.118070 275.439240
   vertex -76.733116 10.193129 274.912109
  endloop
 endfacet
 facet normal 0.707108 0.691654 -0.147014
  outer loop
   vertex -76.733116 10.193129 274.912109
   vertex -76.550102 10.118070 275.439240
   vertex -76.550102 10.014114 274.950165
  endloop
 endfacet
 facet normal 0.258832 0.944815 -0.200825
  outer loop
   vertex -76.550102 10.014114 274.950165
   vertex -76.550102 10.118070 275.439240
   vertex -76.300102 10.052547 275.453186
  endloop
 endfacet
 facet normal 0.258832 0.944815 -0.200825
  outer loop
   vertex -76.300102 10.052547 275.453186
   vertex -76.300102 9.948591 274.964111
   vertex -76.550102 10.014114 274.950165
  endloop
 endfacet
 facet normal -0.707108 0.691654 -0.147016
  outer loop
   vertex -75.867088 24.353662 271.902222
   vertex -76.050102 24.174648 271.940277
   vertex -76.050102 24.278605 272.429352
  endloop
 endfacet
 facet normal -0.258809 0.944820 -0.200828
  outer loop
   vertex -76.050102 24.278605 272.429352
   vertex -76.050102 24.174648 271.940277
   vertex -76.300102 24.109125 271.954193
  endloop
 endfacet
 facet normal -0.258809 0.944820 -0.200828
  outer loop
   vertex -76.300102 24.109125 271.954193
   vertex -76.300102 24.213081 272.443268
   vertex -76.050102 24.278605 272.429352
  endloop
 endfacet
 facet normal 0.258809 0.944820 -0.200828
  outer loop
   vertex -76.550102 24.174648 271.940277
   vertex -76.300102 24.213081 272.443268
   vertex -76.300102 24.109125 271.954193
  endloop
 endfacet
 facet normal 0.258809 0.944820 -0.200828
  outer loop
   vertex -76.550102 24.278605 272.429352
   vertex -76.300102 24.213081 272.443268
   vertex -76.550102 24.174648 271.940277
  endloop
 endfacet
 facet normal 0.707108 0.691654 -0.147016
  outer loop
   vertex -76.550102 24.174648 271.940277
   vertex -76.733116 24.353662 271.902222
   vertex -76.550102 24.278605 272.429352
  endloop
 endfacet
 facet normal 0.707108 0.691654 -0.147016
  outer loop
   vertex -76.550102 24.278605 272.429352
   vertex -76.733116 24.353662 271.902222
   vertex -76.733116 24.457619 272.391296
  endloop
 endfacet
 facet normal 0.965927 0.253160 -0.053811
  outer loop
   vertex -76.733116 24.457619 272.391296
   vertex -76.733116 24.353662 271.902222
   vertex -76.800102 24.598200 271.850250
  endloop
 endfacet
 facet normal 0.965926 0.253162 -0.053810
  outer loop
   vertex -76.800102 24.598200 271.850250
   vertex -76.800102 24.702154 272.339325
   vertex -76.733116 24.457619 272.391296
  endloop
 endfacet
 facet normal 0.965927 -0.253160 0.053810
  outer loop
   vertex -76.733116 24.842737 271.798279
   vertex -76.800102 24.702154 272.339325
   vertex -76.800102 24.598200 271.850250
  endloop
 endfacet
 facet normal 0.965927 -0.253160 0.053810
  outer loop
   vertex -76.733116 24.946692 272.287354
   vertex -76.800102 24.702154 272.339325
   vertex -76.733116 24.842737 271.798279
  endloop
 endfacet
 facet normal 0.707104 -0.691658 0.147014
  outer loop
   vertex -76.733116 24.842737 271.798279
   vertex -76.550102 25.021749 271.760223
   vertex -76.733116 24.946692 272.287354
  endloop
 endfacet
 facet normal 0.707108 -0.691654 0.147016
  outer loop
   vertex -76.733116 24.946692 272.287354
   vertex -76.550102 25.021749 271.760223
   vertex -76.550102 25.125706 272.249298
  endloop
 endfacet
 facet normal 0.258832 -0.944815 0.200827
  outer loop
   vertex -76.550102 25.125706 272.249298
   vertex -76.550102 25.021749 271.760223
   vertex -76.300102 25.087273 271.746277
  endloop
 endfacet
 facet normal 0.258832 -0.944815 0.200827
  outer loop
   vertex -76.300102 25.087273 271.746277
   vertex -76.300102 25.191229 272.235352
   vertex -76.550102 25.125706 272.249298
  endloop
 endfacet
 facet normal -0.258832 -0.944815 0.200827
  outer loop
   vertex -76.050102 25.125706 272.249298
   vertex -76.300102 25.191229 272.235352
   vertex -76.300102 25.087273 271.746277
  endloop
 endfacet
endsolid