solid stl file generated from DOUG
 facet normal -0.866028 -0.475525 0.154504
  outer loop
   vertex 193.466965 27.687540 276.163269
   vertex 193.466965 27.532669 275.686615
   vertex 193.592255 27.481146 276.230316
  endloop
 endfacet
 facet normal -0.866026 -0.475528 0.154503
  outer loop
   vertex 193.592255 27.481146 276.230316
   vertex 193.466965 27.532669 275.686615
   vertex 193.592255 27.326277 275.753662
  endloop
 endfacet
 facet normal 0.000000 -0.951060 0.309008
  outer loop
   vertex 193.592255 27.326277 275.753662
   vertex 193.842850 27.481146 276.230316
   vertex 193.592255 27.481146 276.230316
  endloop
 endfacet
 facet normal -0.000000 -0.951060 0.309008
  outer loop
   vertex 193.842850 27.326277 275.753662
   vertex 193.842850 27.481146 276.230316
   vertex 193.592255 27.326277 275.753662
  endloop
 endfacet
 facet normal 0.866028 -0.475525 0.154502
  outer loop
   vertex 193.968140 27.687540 276.163269
   vertex 193.842850 27.481146 276.230316
   vertex 193.842850 27.326277 275.753662
  endloop
 endfacet
 facet normal 0.866026 -0.475528 0.154505
  outer loop
   vertex 193.842850 27.326277 275.753662
   vertex 193.968140 27.532669 275.686615
   vertex 193.968140 27.687540 276.163269
  endloop
 endfacet
 facet normal 0.866036 0.475512 -0.154500
  outer loop
   vertex 193.968140 27.687540 276.163269
   vertex 193.968140 27.532669 275.686615
   vertex 193.842850 27.893932 276.096191
  endloop
 endfacet
 facet normal 0.866026 0.475525 -0.154514
  outer loop
   vertex 193.842850 27.893932 276.096191
   vertex 193.968140 27.532669 275.686615
   vertex 193.842850 27.739061 275.619568
  endloop
 endfacet
 facet normal 0.000000 0.951053 -0.309029
  outer loop
   vertex 193.842850 27.739061 275.619568
   vertex 193.592255 27.893932 276.096191
   vertex 193.842850 27.893932 276.096191
  endloop
 endfacet
 facet normal -0.000000 0.951053 -0.309029
  outer loop
   vertex 193.592255 27.739061 275.619568
   vertex 193.592255 27.893932 276.096191
   vertex 193.842850 27.739061 275.619568
  endloop
 endfacet
 facet normal -0.866036 0.475509 -0.154509
  outer loop
   vertex 193.466965 27.687540 276.163269
   vertex 193.592255 27.893932 276.096191
   vertex 193.592255 27.739061 275.619568
  endloop
 endfacet
 facet normal -0.866026 0.475528 -0.154505
  outer loop
   vertex 193.592255 27.739061 275.619568
   vertex 193.466965 27.532669 275.686615
   vertex 193.466965 27.687540 276.163269
  endloop
 endfacet
 facet normal 0.866009 -0.475556 0.154514
  outer loop
   vertex 171.872849 27.532669 275.686584
   vertex 171.872849 27.687540 276.163239
   vertex 171.747543 27.326277 275.753662
  endloop
 endfacet
 facet normal 0.866002 -0.475566 0.154525
  outer loop
   vertex 171.747543 27.326277 275.753662
   vertex 171.872849 27.687540 276.163239
   vertex 171.747543 27.481146 276.230286
  endloop
 endfacet
 facet normal 0.000000 -0.951054 0.309025
  outer loop
   vertex 171.747543 27.481146 276.230286
   vertex 171.496964 27.326277 275.753662
   vertex 171.747543 27.326277 275.753662
  endloop
 endfacet
 facet normal -0.000000 -0.951054 0.309025
  outer loop
   vertex 171.496964 27.481146 276.230286
   vertex 171.496964 27.326277 275.753662
   vertex 171.747543 27.481146 276.230286
  endloop
 endfacet
 facet normal -0.866036 -0.475510 0.154507
  outer loop
   vertex 171.371674 27.532669 275.686584
   vertex 171.496964 27.326277 275.753662
   vertex 171.496964 27.481146 276.230286
  endloop
 endfacet
 facet normal -0.866028 -0.475525 0.154504
  outer loop
   vertex 171.496964 27.481146 276.230286
   vertex 171.371674 27.687540 276.163239
   vertex 171.371674 27.532669 275.686584
  endloop
 endfacet
 facet normal -0.866026 0.475528 -0.154505
  outer loop
   vertex 171.371674 27.532669 275.686584
   vertex 171.371674 27.687540 276.163239
   vertex 171.496964 27.739061 275.619537
  endloop
 endfacet
 facet normal -0.866036 0.475509 -0.154509
  outer loop
   vertex 171.496964 27.739061 275.619537
   vertex 171.371674 27.687540 276.163239
   vertex 171.496964 27.893932 276.096161
  endloop
 endfacet
 facet normal 0.000000 0.951053 -0.309029
  outer loop
   vertex 171.496964 27.893932 276.096161
   vertex 171.747543 27.739061 275.619537
   vertex 171.496964 27.739061 275.619537
  endloop
 endfacet
 facet normal -0.000000 0.951053 -0.309029
  outer loop
   vertex 171.747543 27.893932 276.096161
   vertex 171.747543 27.739061 275.619537
   vertex 171.496964 27.893932 276.096161
  endloop
 endfacet
 facet normal 0.866000 0.475568 -0.154528
  outer loop
   vertex 171.872849 27.532669 275.686584
   vertex 171.747543 27.739061 275.619537
   vertex 171.747543 27.893932 276.096161
  endloop
 endfacet
 facet normal 0.866009 0.475556 -0.154514
  outer loop
   vertex 171.747543 27.893932 276.096161
   vertex 171.872849 27.687540 276.163239
   vertex 171.872849 27.532669 275.686584
  endloop
 endfacet
 facet normal 0.000000 0.308957 0.951076
  outer loop
   vertex 171.496964 27.481146 276.230286
   vertex 171.747543 27.481146 276.230286
   vertex 171.622253 27.687540 276.163239
  endloop
 endfacet
 facet normal -0.000000 0.308957 0.951076
  outer loop
   vertex 171.622253 27.687540 276.163239
   vertex 171.747543 27.481146 276.230286
   vertex 171.872849 27.687540 276.163239
  endloop
 endfacet
 facet normal 0.000000 0.309087 0.951034
  outer loop
   vertex 171.872849 27.687540 276.163239
   vertex 171.747543 27.893932 276.096161
   vertex 171.622253 27.687540 276.163239
  endloop
 endfacet
 facet normal -0.000000 0.309087 0.951034
  outer loop
   vertex 193.592255 27.893932 276.096191
   vertex 193.466965 27.687540 276.163269
   vertex 193.717560 27.687540 276.163269
  endloop
 endfacet
 facet normal -0.000000 0.308957 0.951076
  outer loop
   vertex 193.717560 27.687540 276.163269
   vertex 193.466965 27.687540 276.163269
   vertex 193.592255 27.481146 276.230316
  endloop
 endfacet
 facet normal 0.000000 0.308957 0.951076
  outer loop
   vertex 193.592255 27.481146 276.230316
   vertex 193.842850 27.481146 276.230316
   vertex 193.717560 27.687540 276.163269
  endloop
 endfacet
 facet normal 0.000000 0.308957 0.951076
  outer loop
   vertex 193.842850 27.481146 276.230316
   vertex 193.968140 27.687540 276.163269
   vertex 193.717560 27.687540 276.163269
  endloop
 endfacet
 facet normal 0.000000 0.309087 0.951034
  outer loop
   vertex 193.717560 27.687540 276.163269
   vertex 193.968140 27.687540 276.163269
   vertex 193.842850 27.893932 276.096191
  endloop
 endfacet
 facet normal -0.000000 0.309087 0.951034
  outer loop
   vertex 193.842850 27.893932 276.096191
   vertex 193.592255 27.893932 276.096191
   vertex 193.717560 27.687540 276.163269
  endloop
 endfacet
 facet normal -0.000000 0.309087 0.951034
  outer loop
   vertex 171.747543 27.893932 276.096161
   vertex 171.496964 27.893932 276.096161
   vertex 171.622253 27.687540 276.163239
  endloop
 endfacet
 facet normal -0.000000 0.309087 0.951034
  outer loop
   vertex 171.622253 27.687540 276.163239
   vertex 171.496964 27.893932 276.096161
   vertex 171.371674 27.687540 276.163239
  endloop
 endfacet
 facet normal 0.000000 0.308957 0.951076
  outer loop
   vertex 171.371674 27.687540 276.163239
   vertex 171.496964 27.481146 276.230286
   vertex 171.622253 27.687540 276.163239
  endloop
 endfacet
 facet normal 0.000000 0.309009 0.951059
  outer loop
   vertex 192.260956 27.653265 274.034912
   vertex 192.260956 26.464254 274.421234
   vertex 195.252350 27.653265 274.034912
  endloop
 endfacet
 facet normal -0.000000 0.309009 0.951059
  outer loop
   vertex 195.252350 27.653265 274.034912
   vertex 192.260956 26.464254 274.421234
   vertex 195.252350 26.464254 274.421234
  endloop
 endfacet
 facet normal 1.000000 0.000003 0.000010
  outer loop
   vertex 195.252350 26.464254 274.421234
   vertex 195.252365 27.224171 272.714294
   vertex 195.252350 27.653265 274.034912
  endloop
 endfacet
 facet normal 1.000000 0.000003 0.000010
  outer loop
   vertex 195.252365 26.035160 273.100616
   vertex 195.252365 27.224171 272.714294
   vertex 195.252350 26.464254 274.421234
  endloop
 endfacet
 facet normal 0.000000 -0.309009 -0.951059
  outer loop
   vertex 192.260956 26.035160 273.100616
   vertex 195.252365 27.224171 272.714294
   vertex 195.252365 26.035160 273.100616
  endloop
 endfacet
 facet normal -0.000000 -0.951057 0.309017
  outer loop
   vertex 195.252365 26.035160 273.100616
   vertex 192.260956 26.464254 274.421234
   vertex 192.260956 26.035160 273.100616
  endloop
 endfacet
 facet normal -1.000000 0.000000 -0.000000
  outer loop
   vertex 192.260956 26.035160 273.100616
   vertex 192.260956 26.464254 274.421234
   vertex 192.260956 27.224171 272.714264
  endloop
 endfacet
 facet normal -1.000000 -0.000000 -0.000000
  outer loop
   vertex 192.260956 27.224171 272.714264
   vertex 192.260956 26.464254 274.421234
   vertex 192.260956 27.653265 274.034912
  endloop
 endfacet
 facet normal 0.000003 0.951059 -0.309010
  outer loop
   vertex 192.260956 27.653265 274.034912
   vertex 195.252365 27.224171 272.714294
   vertex 192.260956 27.224171 272.714264
  endloop
 endfacet
 facet normal -0.000000 0.951057 -0.309017
  outer loop
   vertex 195.252350 27.653265 274.034912
   vertex 195.252365 27.224171 272.714294
   vertex 192.260956 27.653265 274.034912
  endloop
 endfacet
 facet normal -1.000000 0.000000 0.000000
  outer loop
   vertex 170.087463 27.224171 272.714264
   vertex 170.087463 26.035160 273.100586
   vertex 170.087463 27.653265 274.034882
  endloop
 endfacet
 facet normal -1.000000 -0.000000 -0.000000
  outer loop
   vertex 170.087463 27.653265 274.034882
   vertex 170.087463 26.035160 273.100586
   vertex 170.087463 26.464254 274.421204
  endloop
 endfacet
 facet normal 0.000000 0.309009 0.951059
  outer loop
   vertex 170.087463 26.464254 274.421204
   vertex 173.078857 27.653265 274.034882
   vertex 170.087463 27.653265 274.034882
  endloop
 endfacet
 facet normal -0.000000 0.309009 0.951059
  outer loop
   vertex 173.078857 26.464254 274.421204
   vertex 173.078857 27.653265 274.034882
   vertex 170.087463 26.464254 274.421204
  endloop
 endfacet
 facet normal 1.000000 0.000000 0.000000
  outer loop
   vertex 173.078857 26.035160 273.100586
   vertex 173.078857 27.653265 274.034882
   vertex 173.078857 26.464254 274.421204
  endloop
 endfacet
 facet normal -0.000000 -0.951057 0.309017
  outer loop
   vertex 173.078857 26.464254 274.421204
   vertex 170.087463 26.035160 273.100586
   vertex 173.078857 26.035160 273.100586
  endloop
 endfacet
 facet normal 0.000000 -0.309009 -0.951059
  outer loop
   vertex 173.078857 26.035160 273.100586
   vertex 170.087463 26.035160 273.100586
   vertex 173.078857 27.224171 272.714264
  endloop
 endfacet
 facet normal -0.000000 -0.309009 -0.951059
  outer loop
   vertex 173.078857 27.224171 272.714264
   vertex 170.087463 26.035160 273.100586
   vertex 170.087463 27.224171 272.714264
  endloop
 endfacet
 facet normal 0.000000 0.951057 -0.309017
  outer loop
   vertex 170.087463 27.224171 272.714264
   vertex 173.078857 27.653265 274.034882
   vertex 173.078857 27.224171 272.714264
  endloop
 endfacet
 facet normal -0.000000 0.951057 -0.309017
  outer loop
   vertex 170.087463 27.653265 274.034882
   vertex 173.078857 27.653265 274.034882
   vertex 170.087463 27.224171 272.714264
  endloop
 endfacet
 facet normal 0.000000 -0.951057 0.309017
  outer loop
   vertex 173.078857 26.464254 274.421204
   vertex 170.087463 26.464254 274.421204
   vertex 170.087463 26.035160 273.100586
  endloop
 endfacet
 facet normal 0.000000 -0.951057 0.309017
  outer loop
   vertex 195.252350 26.464254 274.421234
   vertex 192.260956 26.464254 274.421234
   vertex 195.252365 26.035160 273.100616
  endloop
 endfacet
 facet normal 1.000000 0.000000 -0.000000
  outer loop
   vertex 173.078857 26.035160 273.100586
   vertex 173.078857 27.224171 272.714264
   vertex 173.078857 27.653265 274.034882
  endloop
 endfacet
 facet normal 0.000010 -0.309031 -0.951052
  outer loop
   vertex 192.260956 26.035160 273.100616
   vertex 192.260956 27.224171 272.714264
   vertex 195.252365 27.224171 272.714294
  endloop
 endfacet
 facet normal -0.000001 0.309036 0.951050
  outer loop
   vertex 192.478409 28.661261 276.619781
   vertex 172.861404 28.557013 276.653625
   vertex 192.478409 28.557013 276.653656
  endloop
 endfacet
 facet normal -0.000001 -0.581701 0.813402
  outer loop
   vertex 192.478409 28.557013 276.653656
   vertex 172.861404 28.557013 276.653625
   vertex 192.478409 28.438850 276.569153
  endloop
 endfacet
 facet normal 0.000000 -0.564666 0.825319
  outer loop
   vertex 173.608978 27.203096 277.155762
   vertex 172.450256 27.116474 277.096497
   vertex 173.608978 27.116474 277.096497
  endloop
 endfacet
 facet normal -0.000000 -0.951054 0.309023
  outer loop
   vertex 173.608978 27.116474 277.096497
   vertex 172.450256 27.116474 277.096497
   vertex 172.450256 26.856398 276.296082
  endloop
 endfacet
 facet normal 0.000000 0.951058 -0.309013
  outer loop
   vertex 192.889557 28.438026 275.782196
   vertex 191.730835 28.698103 276.582642
   vertex 192.889557 28.698103 276.582642
  endloop
 endfacet
 facet normal -0.000000 0.941845 0.336048
  outer loop
   vertex 192.889557 28.698103 276.582642
   vertex 191.730835 28.698103 276.582642
   vertex 191.730835 28.662846 276.681458
  endloop
 endfacet
 facet normal -0.000000 0.948741 0.316054
  outer loop
   vertex 172.861404 27.318285 276.933197
   vertex 172.861404 27.272364 277.071045
   vertex 192.478409 27.272364 277.071045
  endloop
 endfacet
 facet normal -0.000000 0.309041 0.951049
  outer loop
   vertex 192.478409 27.272364 277.071045
   vertex 172.861404 27.272364 277.071045
   vertex 192.478409 27.168118 277.104919
  endloop
 endfacet
 facet normal 0.000000 0.629682 0.776853
  outer loop
   vertex 172.861404 28.391830 275.899017
   vertex 192.478409 28.391830 275.899017
   vertex 172.861404 28.419729 275.876404
  endloop
 endfacet
 facet normal -0.000001 0.629169 0.777268
  outer loop
   vertex 172.861404 28.419729 275.876404
   vertex 192.478409 28.391830 275.899017
   vertex 192.478409 28.419729 275.876434
  endloop
 endfacet
 facet normal 0.000000 0.951067 -0.308983
  outer loop
   vertex 192.478409 28.419729 275.876434
   vertex 172.861404 28.397907 275.809235
   vertex 172.861404 28.419729 275.876404
  endloop
 endfacet
 facet normal -1.000000 0.000000 0.000000
  outer loop
   vertex 172.450256 28.698103 276.582611
   vertex 172.450256 28.467176 276.641266
   vertex 172.450256 28.662846 276.681458
  endloop
 endfacet
 facet normal -1.000000 -0.000000 -0.000000
  outer loop
   vertex 172.450256 28.662846 276.681458
   vertex 172.450256 28.467176 276.641266
   vertex 172.450256 28.511662 276.730560
  endloop
 endfacet
 facet normal 0.000000 0.308904 0.951093
  outer loop
   vertex 172.450256 28.511662 276.730560
   vertex 173.608978 28.662846 276.681458
   vertex 172.450256 28.662846 276.681458
  endloop
 endfacet
 facet normal 1.000000 0.000000 0.000000
  outer loop
   vertex 192.889557 27.116474 277.096527
   vertex 192.889557 27.337770 277.008240
   vertex 192.889557 27.203096 277.155762
  endloop
 endfacet
 facet normal 1.000000 -0.000000 -0.000000
  outer loop
   vertex 192.889557 27.203096 277.155762
   vertex 192.889557 27.337770 277.008240
   vertex 192.889557 27.354282 277.106659
  endloop
 endfacet
 facet normal -0.000000 0.308900 0.951094
  outer loop
   vertex 192.889557 27.354282 277.106659
   vertex 191.730835 27.203096 277.155762
   vertex 192.889557 27.203096 277.155762
  endloop
 endfacet
 facet normal 1.000000 0.000000 0.000000
  outer loop
   vertex 173.608978 27.354282 277.106628
   vertex 173.608978 27.203096 277.155762
   vertex 173.608978 27.337770 277.008209
  endloop
 endfacet
 facet normal 1.000000 -0.000000 0.000000
  outer loop
   vertex 173.608978 27.337770 277.008209
   vertex 173.608978 27.203096 277.155762
   vertex 173.608978 27.116474 277.096497
  endloop
 endfacet
 facet normal 1.000000 0.000000 0.000000
  outer loop
   vertex 173.608978 27.116474 277.096497
   vertex 173.608978 26.856398 276.296082
   vertex 173.608978 27.337770 277.008209
  endloop
 endfacet
 facet normal -0.000000 -0.951054 0.309023
  outer loop
   vertex 172.450256 26.856398 276.296082
   vertex 173.608978 26.856398 276.296082
   vertex 173.608978 27.116474 277.096497
  endloop
 endfacet
 facet normal -0.000000 0.948720 0.316117
  outer loop
   vertex 192.478409 27.272364 277.071045
   vertex 192.478409 27.318285 276.933228
   vertex 172.861404 27.318285 276.933197
  endloop
 endfacet
 facet normal -0.000001 0.309002 0.951061
  outer loop
   vertex 172.861404 27.318285 276.933197
   vertex 192.478409 27.318285 276.933228
   vertex 192.478409 28.438850 276.569153
  endloop
 endfacet
 facet normal -0.000001 0.309002 0.951061
  outer loop
   vertex 192.478409 28.438850 276.569153
   vertex 172.861404 28.438850 276.569122
   vertex 172.861404 27.318285 276.933197
  endloop
 endfacet
 facet normal -0.000001 -0.581701 0.813402
  outer loop
   vertex 172.861404 28.557013 276.653625
   vertex 172.861404 28.438850 276.569122
   vertex 192.478409 28.438850 276.569153
  endloop
 endfacet
 facet normal 0.000000 0.951058 -0.309013
  outer loop
   vertex 192.889557 28.438026 275.782196
   vertex 191.730835 28.438026 275.782196
   vertex 191.730835 28.698103 276.582642
  endloop
 endfacet
 facet normal -1.000000 -0.000000 -0.000000
  outer loop
   vertex 191.730835 28.698103 276.582642
   vertex 191.730835 28.438026 275.782196
   vertex 191.730835 28.467176 276.641266
  endloop
 endfacet
 facet normal -1.000000 0.000000 -0.000000
  outer loop
   vertex 191.730835 28.467176 276.641266
   vertex 191.730835 28.662846 276.681458
   vertex 191.730835 28.698103 276.582642
  endloop
 endfacet
 facet normal -1.000000 -0.000000 -0.000000
  outer loop
   vertex 191.730835 28.511662 276.730591
   vertex 191.730835 28.662846 276.681458
   vertex 191.730835 28.467176 276.641266
  endloop
 endfacet
 facet normal 0.000002 0.052690 -0.998611
  outer loop
   vertex 192.478409 28.581421 276.482544
   vertex 172.861404 28.581421 276.482513
   vertex 192.478409 28.617281 276.484436
  endloop
 endfacet
 facet normal 0.000002 0.052690 -0.998611
  outer loop
   vertex 192.478409 28.617281 276.484436
   vertex 172.861404 28.581421 276.482513
   vertex 172.861404 28.617281 276.484406
  endloop
 endfacet
 facet normal 0.000000 0.951050 -0.309038
  outer loop
   vertex 172.861404 28.617281 276.484406
   vertex 192.478409 28.661261 276.619781
   vertex 192.478409 28.617281 276.484436
  endloop
 endfacet
 facet normal 0.000000 0.951050 -0.309038
  outer loop
   vertex 172.861404 28.661261 276.619751
   vertex 192.478409 28.661261 276.619781
   vertex 172.861404 28.617281 276.484406
  endloop
 endfacet
 facet normal -0.000001 0.309036 0.951050
  outer loop
   vertex 172.861404 28.557013 276.653625
   vertex 192.478409 28.661261 276.619781
   vertex 172.861404 28.661261 276.619751
  endloop
 endfacet
 facet normal -0.000000 0.309000 0.951062
  outer loop
   vertex 194.291443 28.069155 275.533752
   vertex 192.643280 27.008787 275.878265
   vertex 194.291443 27.008787 275.878265
  endloop
 endfacet
 facet normal -0.000000 -0.951056 0.309020
  outer loop
   vertex 194.291443 27.008787 275.878265
   vertex 192.643280 27.008787 275.878265
   vertex 194.291443 26.532578 274.412659
  endloop
 endfacet
 facet normal 1.000000 0.000000 0.000000
  outer loop
   vertex 194.291443 26.532578 274.412659
   vertex 194.291443 27.592945 274.068115
   vertex 194.291443 27.008787 275.878265
  endloop
 endfacet
 facet normal -0.000000 -0.309024 -0.951054
  outer loop
   vertex 192.643280 26.532578 274.412659
   vertex 194.291443 27.592945 274.068115
   vertex 194.291443 26.532578 274.412659
  endloop
 endfacet
 facet normal -0.000000 -0.309024 -0.951054
  outer loop
   vertex 192.643280 27.592945 274.068115
   vertex 194.291443 27.592945 274.068115
   vertex 192.643280 26.532578 274.412659
  endloop
 endfacet
 facet normal -1.000000 -0.000000 -0.000000
  outer loop
   vertex 192.643280 26.532578 274.412659
   vertex 192.643280 27.008787 275.878265
   vertex 192.643280 27.592945 274.068115
  endloop
 endfacet
 facet normal -1.000000 0.000000 0.000000
  outer loop
   vertex 192.643280 27.592945 274.068115
   vertex 192.643280 27.008787 275.878265
   vertex 192.643280 28.069155 275.533752
  endloop
 endfacet
 facet normal -0.000000 0.309000 0.951062
  outer loop
   vertex 192.643280 28.069155 275.533752
   vertex 192.643280 27.008787 275.878265
   vertex 194.291443 28.069155 275.533752
  endloop
 endfacet
 facet normal 0.000000 0.951057 -0.309014
  outer loop
   vertex 194.291443 28.069155 275.533752
   vertex 194.291443 27.592945 274.068115
   vertex 192.643280 28.069155 275.533752
  endloop
 endfacet
 facet normal 1.000000 -0.000000 -0.000000
  outer loop
   vertex 194.291443 27.008787 275.878265
   vertex 194.291443 27.592945 274.068115
   vertex 194.291443 28.069155 275.533752
  endloop
 endfacet
 facet normal 0.000000 0.951057 -0.309014
  outer loop
   vertex 171.048370 28.069155 275.533722
   vertex 172.696533 28.069155 275.533722
   vertex 171.048370 27.592945 274.068085
  endloop
 endfacet
 facet normal -0.000000 0.951057 -0.309014
  outer loop
   vertex 171.048370 27.592945 274.068085
   vertex 172.696533 28.069155 275.533722
   vertex 172.696533 27.592945 274.068085
  endloop
 endfacet
 facet normal 0.000000 -0.309024 -0.951054
  outer loop
   vertex 172.696533 27.592945 274.068085
   vertex 171.048370 26.532578 274.412628
   vertex 171.048370 27.592945 274.068085
  endloop
 endfacet
 facet normal 0.000000 -0.309024 -0.951054
  outer loop
   vertex 172.696533 26.532578 274.412628
   vertex 171.048370 26.532578 274.412628
   vertex 172.696533 27.592945 274.068085
  endloop
 endfacet
 facet normal 0.000000 -0.951057 0.309014
  outer loop
   vertex 172.696533 27.008787 275.878265
   vertex 171.048370 26.532578 274.412628
   vertex 172.696533 26.532578 274.412628
  endloop
 endfacet
 facet normal 1.000000 0.000000 -0.000000
  outer loop
   vertex 172.696533 26.532578 274.412628
   vertex 172.696533 28.069155 275.533722
   vertex 172.696533 27.008787 275.878265
  endloop
 endfacet
 facet normal 0.000000 0.309024 0.951054
  outer loop
   vertex 172.696533 27.008787 275.878265
   vertex 172.696533 28.069155 275.533722
   vertex 171.048370 27.008787 275.878265
  endloop
 endfacet
 facet normal 0.000000 0.309024 0.951054
  outer loop
   vertex 171.048370 27.008787 275.878265
   vertex 172.696533 28.069155 275.533722
   vertex 171.048370 28.069155 275.533722
  endloop
 endfacet
 facet normal -1.000000 0.000000 0.000000
  outer loop
   vertex 171.048370 28.069155 275.533722
   vertex 171.048370 26.532578 274.412628
   vertex 171.048370 27.008787 275.878265
  endloop
 endfacet
 facet normal -1.000000 0.000000 -0.000000
  outer loop
   vertex 171.048370 27.592945 274.068085
   vertex 171.048370 26.532578 274.412628
   vertex 171.048370 28.069155 275.533722
  endloop
 endfacet
 facet normal 0.000000 -0.309020 -0.951055
  outer loop
   vertex 195.730972 27.111162 275.198364
   vertex 195.380966 27.111162 275.198364
   vertex 195.380966 27.586691 275.043854
  endloop
 endfacet
 facet normal -0.000083 0.309020 0.951055
  outer loop
   vertex 195.380966 27.586691 275.043854
   vertex 195.380966 27.111162 275.198364
   vertex 195.555969 27.348927 275.121124
  endloop
 endfacet
 facet normal 0.000000 0.309076 0.951037
  outer loop
   vertex 195.555969 27.348927 275.121124
   vertex 195.730972 27.586691 275.043854
   vertex 195.380966 27.586691 275.043854
  endloop
 endfacet
 facet normal 0.000083 0.309020 0.951055
  outer loop
   vertex 195.730972 27.111162 275.198364
   vertex 195.730972 27.586691 275.043854
   vertex 195.555969 27.348927 275.121124
  endloop
 endfacet
 facet normal 1.000000 0.000000 0.000000
  outer loop
   vertex 195.730972 27.277676 274.092804
   vertex 195.730972 27.586691 275.043854
   vertex 195.730972 27.111162 275.198364
  endloop
 endfacet
 facet normal 1.000000 -0.000000 -0.000000
  outer loop
   vertex 195.730972 27.111162 275.198364
   vertex 195.730972 26.802147 274.247314
   vertex 195.730972 27.277676 274.092804
  endloop
 endfacet
 facet normal 0.000000 -0.309020 -0.951055
  outer loop
   vertex 195.730972 27.277676 274.092804
   vertex 195.730972 26.802147 274.247314
   vertex 194.030975 27.277676 274.092804
  endloop
 endfacet
 facet normal -0.000000 -0.309020 -0.951055
  outer loop
   vertex 194.030975 27.277676 274.092804
   vertex 195.730972 26.802147 274.247314
   vertex 194.030975 26.802147 274.247314
  endloop
 endfacet
 facet normal -1.000000 0.000000 -0.000000
  outer loop
   vertex 194.030975 26.802147 274.247314
   vertex 194.030975 27.111162 275.198364
   vertex 194.030975 27.277676 274.092804
  endloop
 endfacet
 facet normal 0.000001 -0.951056 0.309017
  outer loop
   vertex 194.447952 27.033909 274.960602
   vertex 194.030975 27.111162 275.198364
   vertex 194.030975 26.802147 274.247314
  endloop
 endfacet
 facet normal 0.000000 -0.951057 0.309016
  outer loop
   vertex 194.380966 27.111162 275.198364
   vertex 194.030975 27.111162 275.198364
   vertex 194.447952 27.033909 274.960602
  endloop
 endfacet
 facet normal 0.000001 0.951056 -0.309017
  outer loop
   vertex 170.891861 27.509438 274.806061
   vertex 171.308838 27.586691 275.043823
   vertex 171.308838 27.277676 274.092773
  endloop
 endfacet
 facet normal 1.000000 -0.000000 -0.000000
  outer loop
   vertex 171.308838 27.277676 274.092773
   vertex 171.308838 27.586691 275.043823
   vertex 171.308838 26.802147 274.247284
  endloop
 endfacet
 facet normal 0.000000 -0.309020 -0.951055
  outer loop
   vertex 171.308838 26.802147 274.247284
   vertex 169.608841 27.277676 274.092773
   vertex 171.308838 27.277676 274.092773
  endloop
 endfacet
 facet normal -0.000000 -0.309020 -0.951055
  outer loop
   vertex 169.608841 26.802147 274.247284
   vertex 169.608841 27.277676 274.092773
   vertex 171.308838 26.802147 274.247284
  endloop
 endfacet
 facet normal -1.000000 0.000000 0.000000
  outer loop
   vertex 169.608841 27.586691 275.043823
   vertex 169.608841 27.277676 274.092773
   vertex 169.608841 26.802147 274.247284
  endloop
 endfacet
 facet normal -1.000000 -0.000000 -0.000000
  outer loop
   vertex 169.608841 26.802147 274.247284
   vertex 169.608841 27.111162 275.198334
   vertex 169.608841 27.586691 275.043823
  endloop
 endfacet
 facet normal -0.000083 0.309020 0.951055
  outer loop
   vertex 169.608841 27.586691 275.043823
   vertex 169.608841 27.111162 275.198334
   vertex 169.783844 27.348927 275.121094
  endloop
 endfacet
 facet normal -0.000000 0.308965 0.951073
  outer loop
   vertex 169.783844 27.348927 275.121094
   vertex 169.608841 27.111162 275.198334
   vertex 169.958847 27.111162 275.198334
  endloop
 endfacet
 facet normal 0.000083 0.309020 0.951055
  outer loop
   vertex 169.958847 27.111162 275.198334
   vertex 169.958847 27.586691 275.043823
   vertex 169.783844 27.348927 275.121094
  endloop
 endfacet
 facet normal -0.000000 -0.309020 -0.951055
  outer loop
   vertex 169.608841 27.586691 275.043823
   vertex 169.958847 27.586691 275.043823
   vertex 169.958847 27.111162 275.198334
  endloop
 endfacet
 facet normal 0.000000 0.309076 0.951037
  outer loop
   vertex 169.783844 27.348927 275.121094
   vertex 169.958847 27.586691 275.043823
   vertex 169.608841 27.586691 275.043823
  endloop
 endfacet
 facet normal -0.000000 0.309041 0.951049
  outer loop
   vertex 172.861404 27.272364 277.071045
   vertex 172.861404 27.168118 277.104919
   vertex 192.478409 27.168118 277.104919
  endloop
 endfacet
 facet normal -0.000000 -0.951074 0.308962
  outer loop
   vertex 192.478409 27.168118 277.104919
   vertex 172.861404 27.168118 277.104919
   vertex 172.861404 27.124140 276.969543
  endloop
 endfacet
 facet normal -0.000000 -0.951054 0.309025
  outer loop
   vertex 172.861404 27.124140 276.969543
   vertex 192.478409 27.124140 276.969574
   vertex 192.478409 27.168118 277.104919
  endloop
 endfacet
 facet normal 0.000001 -0.629682 -0.776853
  outer loop
   vertex 172.861404 27.152039 276.946930
   vertex 192.478409 27.124140 276.969574
   vertex 172.861404 27.124140 276.969543
  endloop
 endfacet
 facet normal 0.000001 -0.629682 -0.776853
  outer loop
   vertex 192.478409 27.152039 276.946960
   vertex 192.478409 27.124140 276.969574
   vertex 172.861404 27.152039 276.946930
  endloop
 endfacet
 facet normal -0.000000 -0.951055 0.309021
  outer loop
   vertex 172.861404 27.152039 276.946930
   vertex 172.861404 26.962446 276.363434
   vertex 192.478409 27.152039 276.946960
  endloop
 endfacet
 facet normal -0.000000 -0.951055 0.309021
  outer loop
   vertex 192.478409 27.152039 276.946960
   vertex 172.861404 26.962446 276.363434
   vertex 192.478409 26.962446 276.363464
  endloop
 endfacet
 facet normal -0.000002 -0.052690 0.998611
  outer loop
   vertex 192.478409 26.962446 276.363464
   vertex 172.861404 26.962446 276.363434
   vertex 172.861404 26.926586 276.361542
  endloop
 endfacet
 facet normal -0.000002 -0.052690 0.998611
  outer loop
   vertex 172.861404 26.926586 276.361542
   vertex 192.478409 26.926586 276.361572
   vertex 192.478409 26.962446 276.363464
  endloop
 endfacet
 facet normal -0.000000 -0.951034 0.309086
  outer loop
   vertex 172.861404 26.904766 276.294403
   vertex 192.478409 26.926586 276.361572
   vertex 172.861404 26.926586 276.361542
  endloop
 endfacet
 facet normal 0.000000 -0.951075 0.308959
  outer loop
   vertex 192.478409 26.904766 276.294403
   vertex 192.478409 26.926586 276.361572
   vertex 172.861404 26.904766 276.294403
  endloop
 endfacet
 facet normal -0.000000 -0.309027 -0.951053
  outer loop
   vertex 172.861404 26.904766 276.294403
   vertex 172.861404 28.397907 275.809235
   vertex 192.478409 26.904766 276.294403
  endloop
 endfacet
 facet normal 0.000001 -0.309009 -0.951059
  outer loop
   vertex 192.478409 26.904766 276.294403
   vertex 172.861404 28.397907 275.809235
   vertex 192.478409 28.397907 275.809265
  endloop
 endfacet
 facet normal 0.000000 0.951067 -0.308983
  outer loop
   vertex 192.478409 28.397907 275.809265
   vertex 172.861404 28.397907 275.809235
   vertex 192.478409 28.419729 275.876434
  endloop
 endfacet
 facet normal -0.000001 0.951056 -0.309017
  outer loop
   vertex 194.447952 27.509438 274.806091
   vertex 194.030975 27.277676 274.092804
   vertex 194.030975 27.586691 275.043854
  endloop
 endfacet
 facet normal -1.000000 -0.000000 0.000000
  outer loop
   vertex 194.030975 27.586691 275.043854
   vertex 194.030975 27.277676 274.092804
   vertex 194.030975 27.111162 275.198364
  endloop
 endfacet
 facet normal 0.000000 0.309020 0.951055
  outer loop
   vertex 194.030975 27.111162 275.198364
   vertex 194.380966 27.586691 275.043854
   vertex 194.030975 27.586691 275.043854
  endloop
 endfacet
 facet normal -0.000000 0.309020 0.951055
  outer loop
   vertex 194.380966 27.111162 275.198364
   vertex 194.380966 27.586691 275.043854
   vertex 194.030975 27.111162 275.198364
  endloop
 endfacet
 facet normal 0.000000 -0.309020 -0.951055
  outer loop
   vertex 194.030975 27.111162 275.198364
   vertex 194.380966 27.586691 275.043854
   vertex 194.380966 27.111162 275.198364
  endloop
 endfacet
 facet normal -0.000000 -0.951055 0.309023
  outer loop
   vertex 194.380966 27.111162 275.198364
   vertex 194.447952 27.188417 275.436127
   vertex 194.030975 27.111162 275.198364
  endloop
 endfacet
 facet normal 0.000007 -0.951058 0.309011
  outer loop
   vertex 194.030975 27.111162 275.198364
   vertex 194.447952 27.188417 275.436127
   vertex 194.144852 27.242495 275.602570
  endloop
 endfacet
 facet normal -0.000006 -0.951065 0.308990
  outer loop
   vertex 194.144852 27.242495 275.602570
   vertex 194.447952 27.188417 275.436127
   vertex 194.630966 27.244970 275.610199
  endloop
 endfacet
 facet normal -0.000006 -0.951056 0.309019
  outer loop
   vertex 194.630966 27.244970 275.610199
   vertex 194.455963 27.338636 275.898468
   vertex 194.144852 27.242495 275.602570
  endloop
 endfacet
 facet normal 0.000019 -0.951051 0.309033
  outer loop
   vertex 194.880966 27.265671 275.673889
   vertex 194.455963 27.338636 275.898468
   vertex 194.630966 27.244970 275.610199
  endloop
 endfacet
 facet normal 0.000003 -0.951061 0.309004
  outer loop
   vertex 194.880966 27.373827 276.006775
   vertex 194.455963 27.338636 275.898468
   vertex 194.880966 27.265671 275.673889
  endloop
 endfacet
 facet normal -0.000027 -0.951061 0.309004
  outer loop
   vertex 194.880966 27.265671 275.673889
   vertex 195.130966 27.244970 275.610199
   vertex 194.880966 27.373827 276.006775
  endloop
 endfacet
 facet normal 0.000002 -0.951055 0.309021
  outer loop
   vertex 194.880966 27.373827 276.006775
   vertex 195.130966 27.244970 275.610199
   vertex 195.305969 27.338636 275.898468
  endloop
 endfacet
 facet normal 0.000025 -0.951059 0.309008
  outer loop
   vertex 195.305969 27.338636 275.898468
   vertex 195.130966 27.244970 275.610199
   vertex 195.313980 27.188417 275.436127
  endloop
 endfacet
 facet normal -0.000005 -0.951059 0.309008
  outer loop
   vertex 195.313980 27.188417 275.436127
   vertex 195.617096 27.242495 275.602570
   vertex 195.305969 27.338636 275.898468
  endloop
 endfacet
 facet normal -0.000012 -0.951056 0.309019
  outer loop
   vertex 195.380966 27.111162 275.198364
   vertex 195.617096 27.242495 275.602570
   vertex 195.313980 27.188417 275.436127
  endloop
 endfacet
 facet normal 0.000000 -0.951058 0.309013
  outer loop
   vertex 195.730972 27.111162 275.198364
   vertex 195.617096 27.242495 275.602570
   vertex 195.380966 27.111162 275.198364
  endloop
 endfacet
 facet normal -0.000000 -0.951057 0.309016
  outer loop
   vertex 195.380966 27.111162 275.198364
   vertex 195.313980 27.033909 274.960602
   vertex 195.730972 27.111162 275.198364
  endloop
 endfacet
 facet normal -0.000001 -0.951056 0.309017
  outer loop
   vertex 195.730972 27.111162 275.198364
   vertex 195.313980 27.033909 274.960602
   vertex 195.730972 26.802147 274.247314
  endloop
 endfacet
 facet normal 0.000010 -0.951054 0.309023
  outer loop
   vertex 195.730972 26.802147 274.247314
   vertex 195.313980 27.033909 274.960602
   vertex 195.130966 26.977356 274.786560
  endloop
 endfacet
 facet normal -0.000010 -0.951061 0.309003
  outer loop
   vertex 195.130966 26.977356 274.786560
   vertex 194.880966 26.956656 274.722839
   vertex 195.730972 26.802147 274.247314
  endloop
 endfacet
 facet normal -0.000001 -0.951056 0.309017
  outer loop
   vertex 170.891861 27.033909 274.960571
   vertex 171.308838 26.802147 274.247284
   vertex 171.308838 27.111162 275.198334
  endloop
 endfacet
 facet normal 1.000000 -0.000000 -0.000000
  outer loop
   vertex 171.308838 27.111162 275.198334
   vertex 171.308838 26.802147 274.247284
   vertex 171.308838 27.586691 275.043823
  endloop
 endfacet
 facet normal -0.000000 0.309020 0.951055
  outer loop
   vertex 171.308838 27.586691 275.043823
   vertex 170.958847 27.111162 275.198334
   vertex 171.308838 27.111162 275.198334
  endloop
 endfacet
 facet normal -0.000000 0.309020 0.951055
  outer loop
   vertex 170.958847 27.586691 275.043823
   vertex 170.958847 27.111162 275.198334
   vertex 171.308838 27.586691 275.043823
  endloop
 endfacet
 facet normal 0.000000 -0.309020 -0.951055
  outer loop
   vertex 171.308838 27.586691 275.043823
   vertex 170.958847 27.111162 275.198334
   vertex 170.958847 27.586691 275.043823
  endloop
 endfacet
 facet normal -0.000000 0.951055 -0.309023
  outer loop
   vertex 170.958847 27.586691 275.043823
   vertex 170.891861 27.663946 275.281586
   vertex 171.308838 27.586691 275.043823
  endloop
 endfacet
 facet normal 0.000007 0.951058 -0.309011
  outer loop
   vertex 171.308838 27.586691 275.043823
   vertex 170.891861 27.663946 275.281586
   vertex 171.194962 27.718023 275.448029
  endloop
 endfacet
 facet normal -0.000006 0.951065 -0.308990
  outer loop
   vertex 171.194962 27.718023 275.448029
   vertex 170.891861 27.663946 275.281586
   vertex 170.708847 27.720499 275.455658
  endloop
 endfacet
 facet normal -0.000006 0.951056 -0.309019
  outer loop
   vertex 170.708847 27.720499 275.455658
   vertex 170.883835 27.814165 275.743927
   vertex 171.194962 27.718023 275.448029
  endloop
 endfacet
 facet normal 0.000019 0.951051 -0.309033
  outer loop
   vertex 170.458847 27.741199 275.519348
   vertex 170.883835 27.814165 275.743927
   vertex 170.708847 27.720499 275.455658
  endloop
 endfacet
 facet normal 0.000003 0.951061 -0.309004
  outer loop
   vertex 170.458847 27.849356 275.852234
   vertex 170.883835 27.814165 275.743927
   vertex 170.458847 27.741199 275.519348
  endloop
 endfacet
 facet normal -0.000027 0.951061 -0.309004
  outer loop
   vertex 170.458847 27.741199 275.519348
   vertex 170.208847 27.720499 275.455658
   vertex 170.458847 27.849356 275.852234
  endloop
 endfacet
 facet normal 0.000002 0.951055 -0.309021
  outer loop
   vertex 170.458847 27.849356 275.852234
   vertex 170.208847 27.720499 275.455658
   vertex 170.033844 27.814165 275.743927
  endloop
 endfacet
 facet normal 0.000025 0.951059 -0.309008
  outer loop
   vertex 170.033844 27.814165 275.743927
   vertex 170.208847 27.720499 275.455658
   vertex 170.025833 27.663946 275.281586
  endloop
 endfacet
 facet normal -0.000005 0.951059 -0.309008
  outer loop
   vertex 170.025833 27.663946 275.281586
   vertex 169.722717 27.718023 275.448029
   vertex 170.033844 27.814165 275.743927
  endloop
 endfacet
 facet normal -0.000012 0.951056 -0.309019
  outer loop
   vertex 169.958847 27.586691 275.043823
   vertex 169.722717 27.718023 275.448029
   vertex 170.025833 27.663946 275.281586
  endloop
 endfacet
 facet normal 0.000000 0.951058 -0.309013
  outer loop
   vertex 169.608841 27.586691 275.043823
   vertex 169.722717 27.718023 275.448029
   vertex 169.958847 27.586691 275.043823
  endloop
 endfacet
 facet normal -0.000000 0.951057 -0.309016
  outer loop
   vertex 169.958847 27.586691 275.043823
   vertex 170.025833 27.509438 274.806061
   vertex 169.608841 27.586691 275.043823
  endloop
 endfacet
 facet normal -0.000001 0.951056 -0.309017
  outer loop
   vertex 169.608841 27.586691 275.043823
   vertex 170.025833 27.509438 274.806061
   vertex 169.608841 27.277676 274.092773
  endloop
 endfacet
 facet normal 0.000017 0.951053 -0.309027
  outer loop
   vertex 169.608841 27.277676 274.092773
   vertex 170.025833 27.509438 274.806061
   vertex 170.208847 27.452883 274.632019
  endloop
 endfacet
 facet normal -0.000015 0.951064 -0.308995
  outer loop
   vertex 170.208847 27.452883 274.632019
   vertex 170.458847 27.432184 274.568298
   vertex 169.608841 27.277676 274.092773
  endloop
 endfacet
 facet normal 0.000000 -0.987438 -0.158008
  outer loop
   vertex 172.450256 26.856398 276.296082
   vertex 172.450256 26.943590 275.751190
   vertex 173.608978 26.856398 276.296082
  endloop
 endfacet
 facet normal 0.000000 -0.987438 -0.158008
  outer loop
   vertex 173.608978 26.856398 276.296082
   vertex 172.450256 26.943590 275.751190
   vertex 173.608978 26.943590 275.751190
  endloop
 endfacet
 facet normal 1.000000 0.000000 0.000000
  outer loop
   vertex 173.608978 26.943590 275.751190
   vertex 173.608978 28.047220 275.392609
   vertex 173.608978 26.856398 276.296082
  endloop
 endfacet
 facet normal -0.000000 -0.309010 -0.951059
  outer loop
   vertex 172.450256 26.943590 275.751190
   vertex 173.608978 28.047220 275.392609
   vertex 173.608978 26.943590 275.751190
  endloop
 endfacet
 facet normal -0.000000 -0.309010 -0.951059
  outer loop
   vertex 172.450256 28.047220 275.392609
   vertex 173.608978 28.047220 275.392609
   vertex 172.450256 26.943590 275.751190
  endloop
 endfacet
 facet normal -1.000000 -0.000000 -0.000000
  outer loop
   vertex 172.450256 26.943590 275.751190
   vertex 172.450256 28.438026 275.782166
   vertex 172.450256 28.047220 275.392609
  endloop
 endfacet
 facet normal 0.000000 0.705974 -0.708238
  outer loop
   vertex 172.450256 28.047220 275.392609
   vertex 172.450256 28.438026 275.782166
   vertex 173.608978 28.047220 275.392609
  endloop
 endfacet
 facet normal -0.000000 0.705974 -0.708238
  outer loop
   vertex 173.608978 28.047220 275.392609
   vertex 172.450256 28.438026 275.782166
   vertex 173.608978 28.438026 275.782166
  endloop
 endfacet
 facet normal 1.000000 0.000000 0.000000
  outer loop
   vertex 173.608978 28.438026 275.782166
   vertex 173.608978 26.856398 276.296082
   vertex 173.608978 28.047220 275.392609
  endloop
 endfacet
 facet normal 1.000000 -0.000000 -0.000000
  outer loop
   vertex 173.608978 28.467176 276.641266
   vertex 173.608978 26.856398 276.296082
   vertex 173.608978 28.438026 275.782166
  endloop
 endfacet
 facet normal 1.000000 0.000000 0.000000
  outer loop
   vertex 173.608978 27.337770 277.008209
   vertex 173.608978 26.856398 276.296082
   vertex 173.608978 28.467176 276.641266
  endloop
 endfacet
 facet normal -0.000000 0.309000 0.951062
  outer loop
   vertex 173.608978 28.467176 276.641266
   vertex 172.450256 27.337770 277.008209
   vertex 173.608978 27.337770 277.008209
  endloop
 endfacet
 facet normal 0.000000 0.986217 -0.165459
  outer loop
   vertex 173.608978 27.337770 277.008209
   vertex 172.450256 27.337770 277.008209
   vertex 173.608978 27.354282 277.106628
  endloop
 endfacet
 facet normal -0.000000 0.986217 -0.165459
  outer loop
   vertex 173.608978 27.354282 277.106628
   vertex 172.450256 27.337770 277.008209
   vertex 172.450256 27.354282 277.106628
  endloop
 endfacet
 facet normal 0.000000 0.309074 0.951038
  outer loop
   vertex 172.450256 27.354282 277.106628
   vertex 173.608978 27.203096 277.155762
   vertex 173.608978 27.354282 277.106628
  endloop
 endfacet
 facet normal 0.000000 0.309074 0.951038
  outer loop
   vertex 172.450256 27.203096 277.155762
   vertex 173.608978 27.203096 277.155762
   vertex 172.450256 27.354282 277.106628
  endloop
 endfacet
 facet normal 0.000000 -0.564666 0.825319
  outer loop
   vertex 172.450256 27.116474 277.096497
   vertex 173.608978 27.203096 277.155762
   vertex 172.450256 27.203096 277.155762
  endloop
 endfacet
 facet normal -1.000000 -0.000000 -0.000000
  outer loop
   vertex 172.450256 27.203096 277.155762
   vertex 172.450256 27.337770 277.008209
   vertex 172.450256 27.116474 277.096497
  endloop
 endfacet
 facet normal -1.000000 -0.000000 0.000000
  outer loop
   vertex 172.450256 27.116474 277.096497
   vertex 172.450256 27.337770 277.008209
   vertex 172.450256 26.856398 276.296082
  endloop
 endfacet
 facet normal -1.000000 -0.000000 -0.000000
  outer loop
   vertex 172.450256 26.856398 276.296082
   vertex 172.450256 27.337770 277.008209
   vertex 172.450256 28.467176 276.641266
  endloop
 endfacet
 facet normal -1.000000 0.000000 0.000000
  outer loop
   vertex 172.450256 28.467176 276.641266
   vertex 172.450256 28.438026 275.782166
   vertex 172.450256 26.856398 276.296082
  endloop
 endfacet
 facet normal -1.000000 -0.000000 -0.000000
  outer loop
   vertex 172.450256 28.698103 276.582611
   vertex 172.450256 28.438026 275.782166
   vertex 172.450256 28.467176 276.641266
  endloop
 endfacet
 facet normal 0.000000 0.951058 -0.309013
  outer loop
   vertex 173.608978 28.438026 275.782166
   vertex 172.450256 28.438026 275.782166
   vertex 172.450256 28.698103 276.582611
  endloop
 endfacet
 facet normal -0.000000 0.951058 -0.309013
  outer loop
   vertex 172.450256 28.698103 276.582611
   vertex 173.608978 28.698103 276.582611
   vertex 173.608978 28.438026 275.782166
  endloop
 endfacet
 facet normal 1.000000 0.000000 0.000000
  outer loop
   vertex 173.608978 28.438026 275.782166
   vertex 173.608978 28.698103 276.582611
   vertex 173.608978 28.467176 276.641266
  endloop
 endfacet
 facet normal 1.000000 -0.000000 -0.000000
  outer loop
   vertex 173.608978 28.467176 276.641266
   vertex 173.608978 28.698103 276.582611
   vertex 173.608978 28.662846 276.681458
  endloop
 endfacet
 facet normal 1.000000 0.000000 0.000000
  outer loop
   vertex 173.608978 28.662846 276.681458
   vertex 173.608978 28.511662 276.730560
   vertex 173.608978 28.467176 276.641266
  endloop
 endfacet
 facet normal 0.000000 0.308904 0.951093
  outer loop
   vertex 172.450256 28.511662 276.730560
   vertex 173.608978 28.511662 276.730560
   vertex 173.608978 28.662846 276.681458
  endloop
 endfacet
 facet normal 0.000000 -0.895076 0.445913
  outer loop
   vertex 173.608978 28.467176 276.641266
   vertex 173.608978 28.511662 276.730560
   vertex 172.450256 28.511662 276.730560
  endloop
 endfacet
 facet normal -0.000000 -0.895076 0.445913
  outer loop
   vertex 172.450256 28.511662 276.730560
   vertex 172.450256 28.467176 276.641266
   vertex 173.608978 28.467176 276.641266
  endloop
 endfacet
 facet normal -0.000000 0.309000 0.951062
  outer loop
   vertex 173.608978 28.467176 276.641266
   vertex 172.450256 28.467176 276.641266
   vertex 172.450256 27.337770 277.008209
  endloop
 endfacet
 facet normal 0.000000 0.705974 -0.708238
  outer loop
   vertex 192.889557 28.438026 275.782196
   vertex 192.889557 28.047220 275.392639
   vertex 191.730835 28.438026 275.782196
  endloop
 endfacet
 facet normal -0.000000 0.705974 -0.708238
  outer loop
   vertex 191.730835 28.438026 275.782196
   vertex 192.889557 28.047220 275.392639
   vertex 191.730835 28.047220 275.392639
  endloop
 endfacet
 facet normal -1.000000 0.000000 0.000000
  outer loop
   vertex 191.730835 28.047220 275.392639
   vertex 191.730835 26.943590 275.751221
   vertex 191.730835 28.438026 275.782196
  endloop
 endfacet
 facet normal -0.000000 -0.309010 -0.951059
  outer loop
   vertex 192.889557 28.047220 275.392639
   vertex 191.730835 26.943590 275.751221
   vertex 191.730835 28.047220 275.392639
  endloop
 endfacet
 facet normal 0.000000 -0.309010 -0.951059
  outer loop
   vertex 192.889557 26.943590 275.751221
   vertex 191.730835 26.943590 275.751221
   vertex 192.889557 28.047220 275.392639
  endloop
 endfacet
 facet normal 1.000000 -0.000000 -0.000000
  outer loop
   vertex 192.889557 28.047220 275.392639
   vertex 192.889557 26.856398 276.296082
   vertex 192.889557 26.943590 275.751221
  endloop
 endfacet
 facet normal 0.000000 -0.987436 -0.158017
  outer loop
   vertex 192.889557 26.943590 275.751221
   vertex 192.889557 26.856398 276.296082
   vertex 191.730835 26.943590 275.751221
  endloop
 endfacet
 facet normal -0.000000 -0.987436 -0.158017
  outer loop
   vertex 191.730835 26.943590 275.751221
   vertex 192.889557 26.856398 276.296082
   vertex 191.730835 26.856398 276.296082
  endloop
 endfacet
 facet normal -1.000000 -0.000000 0.000000
  outer loop
   vertex 191.730835 26.856398 276.296082
   vertex 191.730835 28.438026 275.782196
   vertex 191.730835 26.943590 275.751221
  endloop
 endfacet
 facet normal -1.000000 -0.000000 -0.000000
  outer loop
   vertex 191.730835 27.337770 277.008240
   vertex 191.730835 28.438026 275.782196
   vertex 191.730835 26.856398 276.296082
  endloop
 endfacet
 facet normal -1.000000 0.000000 0.000000
  outer loop
   vertex 191.730835 28.467176 276.641266
   vertex 191.730835 28.438026 275.782196
   vertex 191.730835 27.337770 277.008240
  endloop
 endfacet
 facet normal 0.000000 0.309023 0.951055
  outer loop
   vertex 191.730835 27.337770 277.008240
   vertex 192.889557 28.467176 276.641266
   vertex 191.730835 28.467176 276.641266
  endloop
 endfacet
 facet normal 0.000000 -0.895137 0.445791
  outer loop
   vertex 191.730835 28.467176 276.641266
   vertex 192.889557 28.467176 276.641266
   vertex 191.730835 28.511662 276.730591
  endloop
 endfacet
 facet normal -0.000000 -0.895137 0.445791
  outer loop
   vertex 191.730835 28.511662 276.730591
   vertex 192.889557 28.467176 276.641266
   vertex 192.889557 28.511662 276.730591
  endloop
 endfacet
 facet normal 0.000000 0.309077 0.951037
  outer loop
   vertex 192.889557 28.511662 276.730591
   vertex 191.730835 28.662846 276.681458
   vertex 191.730835 28.511662 276.730591
  endloop
 endfacet
 facet normal -0.000000 0.309077 0.951037
  outer loop
   vertex 192.889557 28.662846 276.681458
   vertex 191.730835 28.662846 276.681458
   vertex 192.889557 28.511662 276.730591
  endloop
 endfacet
 facet normal -0.000000 0.941845 0.336048
  outer loop
   vertex 192.889557 28.698103 276.582642
   vertex 191.730835 28.662846 276.681458
   vertex 192.889557 28.662846 276.681458
  endloop
 endfacet
 facet normal 1.000000 -0.000000 -0.000000
  outer loop
   vertex 192.889557 28.662846 276.681458
   vertex 192.889557 28.467176 276.641266
   vertex 192.889557 28.698103 276.582642
  endloop
 endfacet
 facet normal 1.000000 0.000000 0.000000
  outer loop
   vertex 192.889557 28.698103 276.582642
   vertex 192.889557 28.467176 276.641266
   vertex 192.889557 28.438026 275.782196
  endloop
 endfacet
 facet normal 1.000000 0.000000 -0.000000
  outer loop
   vertex 192.889557 28.438026 275.782196
   vertex 192.889557 28.467176 276.641266
   vertex 192.889557 27.337770 277.008240
  endloop
 endfacet
 facet normal 1.000000 -0.000000 0.000000
  outer loop
   vertex 192.889557 27.337770 277.008240
   vertex 192.889557 26.856398 276.296082
   vertex 192.889557 28.438026 275.782196
  endloop
 endfacet
 facet normal 1.000000 -0.000000 -0.000000
  outer loop
   vertex 192.889557 27.116474 277.096527
   vertex 192.889557 26.856398 276.296082
   vertex 192.889557 27.337770 277.008240
  endloop
 endfacet
 facet normal 0.000000 -0.951058 0.309013
  outer loop
   vertex 191.730835 26.856398 276.296082
   vertex 192.889557 26.856398 276.296082
   vertex 192.889557 27.116474 277.096527
  endloop
 endfacet
 facet normal -0.000000 -0.951058 0.309013
  outer loop
   vertex 192.889557 27.116474 277.096527
   vertex 191.730835 27.116474 277.096527
   vertex 191.730835 26.856398 276.296082
  endloop
 endfacet
 facet normal -1.000000 0.000000 -0.000000
  outer loop
   vertex 191.730835 26.856398 276.296082
   vertex 191.730835 27.116474 277.096527
   vertex 191.730835 27.337770 277.008240
  endloop
 endfacet
 facet normal -1.000000 0.000000 -0.000000
  outer loop
   vertex 191.730835 27.337770 277.008240
   vertex 191.730835 27.116474 277.096527
   vertex 191.730835 27.203096 277.155762
  endloop
 endfacet
 facet normal -1.000000 -0.000000 0.000000
  outer loop
   vertex 191.730835 27.203096 277.155762
   vertex 191.730835 27.354282 277.106659
   vertex 191.730835 27.337770 277.008240
  endloop
 endfacet
 facet normal -0.000000 0.308900 0.951094
  outer loop
   vertex 192.889557 27.354282 277.106659
   vertex 191.730835 27.354282 277.106659
   vertex 191.730835 27.203096 277.155762
  endloop
 endfacet
 facet normal 0.000000 0.986217 -0.165459
  outer loop
   vertex 191.730835 27.337770 277.008240
   vertex 191.730835 27.354282 277.106659
   vertex 192.889557 27.354282 277.106659
  endloop
 endfacet
 facet normal -0.000000 0.986217 -0.165459
  outer loop
   vertex 192.889557 27.354282 277.106659
   vertex 192.889557 27.337770 277.008240
   vertex 191.730835 27.337770 277.008240
  endloop
 endfacet
 facet normal 0.000000 0.309023 0.951055
  outer loop
   vertex 191.730835 27.337770 277.008240
   vertex 192.889557 27.337770 277.008240
   vertex 192.889557 28.467176 276.641266
  endloop
 endfacet
 facet normal 0.000000 -0.951055 0.309023
  outer loop
   vertex 170.958847 27.111162 275.198334
   vertex 171.308838 27.111162 275.198334
   vertex 170.891861 27.188417 275.436096
  endloop
 endfacet
 facet normal -0.000007 -0.951058 0.309011
  outer loop
   vertex 170.891861 27.188417 275.436096
   vertex 171.308838 27.111162 275.198334
   vertex 171.194962 27.242495 275.602539
  endloop
 endfacet
 facet normal 0.000006 -0.951065 0.308990
  outer loop
   vertex 171.194962 27.242495 275.602539
   vertex 170.708847 27.244970 275.610168
   vertex 170.891861 27.188417 275.436096
  endloop
 endfacet
 facet normal 0.000006 -0.951056 0.309019
  outer loop
   vertex 170.883835 27.338636 275.898438
   vertex 170.708847 27.244970 275.610168
   vertex 171.194962 27.242495 275.602539
  endloop
 endfacet
 facet normal -0.000019 -0.951051 0.309033
  outer loop
   vertex 170.458847 27.265671 275.673859
   vertex 170.708847 27.244970 275.610168
   vertex 170.883835 27.338636 275.898438
  endloop
 endfacet
 facet normal -0.000003 -0.951061 0.309004
  outer loop
   vertex 170.883835 27.338636 275.898438
   vertex 170.458847 27.373827 276.006744
   vertex 170.458847 27.265671 275.673859
  endloop
 endfacet
 facet normal 0.000027 -0.951061 0.309004
  outer loop
   vertex 170.458847 27.265671 275.673859
   vertex 170.458847 27.373827 276.006744
   vertex 170.208847 27.244970 275.610168
  endloop
 endfacet
 facet normal -0.000002 -0.951055 0.309021
  outer loop
   vertex 170.208847 27.244970 275.610168
   vertex 170.458847 27.373827 276.006744
   vertex 170.033844 27.338636 275.898438
  endloop
 endfacet
 facet normal -0.000025 -0.951059 0.309008
  outer loop
   vertex 170.033844 27.338636 275.898438
   vertex 170.025833 27.188417 275.436096
   vertex 170.208847 27.244970 275.610168
  endloop
 endfacet
 facet normal 0.000005 -0.951059 0.309008
  outer loop
   vertex 169.722717 27.242495 275.602539
   vertex 170.025833 27.188417 275.436096
   vertex 170.033844 27.338636 275.898438
  endloop
 endfacet
 facet normal 0.000012 -0.951056 0.309019
  outer loop
   vertex 169.958847 27.111162 275.198334
   vertex 170.025833 27.188417 275.436096
   vertex 169.722717 27.242495 275.602539
  endloop
 endfacet
 facet normal -0.000000 -0.951058 0.309013
  outer loop
   vertex 169.722717 27.242495 275.602539
   vertex 169.608841 27.111162 275.198334
   vertex 169.958847 27.111162 275.198334
  endloop
 endfacet
 facet normal 0.000000 -0.951057 0.309016
  outer loop
   vertex 169.958847 27.111162 275.198334
   vertex 169.608841 27.111162 275.198334
   vertex 170.025833 27.033909 274.960571
  endloop
 endfacet
 facet normal 0.000001 -0.951056 0.309017
  outer loop
   vertex 170.025833 27.033909 274.960571
   vertex 169.608841 27.111162 275.198334
   vertex 169.608841 26.802147 274.247284
  endloop
 endfacet
 facet normal -0.000017 -0.951053 0.309027
  outer loop
   vertex 169.608841 26.802147 274.247284
   vertex 170.208847 26.977354 274.786530
   vertex 170.025833 27.033909 274.960571
  endloop
 endfacet
 facet normal 0.000015 -0.951064 0.308995
  outer loop
   vertex 170.458847 26.956656 274.722809
   vertex 170.208847 26.977354 274.786530
   vertex 169.608841 26.802147 274.247284
  endloop
 endfacet
 facet normal 0.000000 0.951055 -0.309023
  outer loop
   vertex 194.380966 27.586691 275.043854
   vertex 194.030975 27.586691 275.043854
   vertex 194.447952 27.663946 275.281616
  endloop
 endfacet
 facet normal -0.000007 0.951058 -0.309011
  outer loop
   vertex 194.447952 27.663946 275.281616
   vertex 194.030975 27.586691 275.043854
   vertex 194.144852 27.718023 275.448059
  endloop
 endfacet
 facet normal 0.000006 0.951065 -0.308990
  outer loop
   vertex 194.144852 27.718023 275.448059
   vertex 194.630966 27.720499 275.455688
   vertex 194.447952 27.663946 275.281616
  endloop
 endfacet
 facet normal 0.000006 0.951056 -0.309019
  outer loop
   vertex 194.455963 27.814165 275.743958
   vertex 194.630966 27.720499 275.455688
   vertex 194.144852 27.718023 275.448059
  endloop
 endfacet
 facet normal -0.000019 0.951051 -0.309033
  outer loop
   vertex 194.880966 27.741199 275.519379
   vertex 194.630966 27.720499 275.455688
   vertex 194.455963 27.814165 275.743958
  endloop
 endfacet
 facet normal -0.000003 0.951061 -0.309004
  outer loop
   vertex 194.455963 27.814165 275.743958
   vertex 194.880966 27.849356 275.852264
   vertex 194.880966 27.741199 275.519379
  endloop
 endfacet
 facet normal 0.000027 0.951061 -0.309004
  outer loop
   vertex 194.880966 27.741199 275.519379
   vertex 194.880966 27.849356 275.852264
   vertex 195.130966 27.720499 275.455688
  endloop
 endfacet
 facet normal -0.000002 0.951055 -0.309021
  outer loop
   vertex 195.130966 27.720499 275.455688
   vertex 194.880966 27.849356 275.852264
   vertex 195.305969 27.814165 275.743958
  endloop
 endfacet
 facet normal -0.000025 0.951059 -0.309008
  outer loop
   vertex 195.305969 27.814165 275.743958
   vertex 195.313980 27.663946 275.281616
   vertex 195.130966 27.720499 275.455688
  endloop
 endfacet
 facet normal 0.000005 0.951059 -0.309008
  outer loop
   vertex 195.617096 27.718023 275.448059
   vertex 195.313980 27.663946 275.281616
   vertex 195.305969 27.814165 275.743958
  endloop
 endfacet
 facet normal 0.000012 0.951056 -0.309019
  outer loop
   vertex 195.380966 27.586691 275.043854
   vertex 195.313980 27.663946 275.281616
   vertex 195.617096 27.718023 275.448059
  endloop
 endfacet
 facet normal -0.000000 0.951058 -0.309013
  outer loop
   vertex 195.617096 27.718023 275.448059
   vertex 195.730972 27.586691 275.043854
   vertex 195.380966 27.586691 275.043854
  endloop
 endfacet
 facet normal 0.000000 0.951057 -0.309016
  outer loop
   vertex 195.380966 27.586691 275.043854
   vertex 195.730972 27.586691 275.043854
   vertex 195.313980 27.509438 274.806091
  endloop
 endfacet
 facet normal 0.000001 0.951056 -0.309017
  outer loop
   vertex 195.313980 27.509438 274.806091
   vertex 195.730972 27.586691 275.043854
   vertex 195.730972 27.277676 274.092804
  endloop
 endfacet
 facet normal -0.000017 0.951053 -0.309027
  outer loop
   vertex 195.730972 27.277676 274.092804
   vertex 195.130966 27.452883 274.632050
   vertex 195.313980 27.509438 274.806091
  endloop
 endfacet
 facet normal 0.000015 0.951064 -0.308995
  outer loop
   vertex 194.880966 27.432184 274.568329
   vertex 195.130966 27.452883 274.632050
   vertex 195.730972 27.277676 274.092804
  endloop
 endfacet
 facet normal 0.000000 0.951056 -0.309019
  outer loop
   vertex 169.608841 27.277676 274.092773
   vertex 170.458847 27.432184 274.568298
   vertex 171.308838 27.277676 274.092773
  endloop
 endfacet
 facet normal 0.000015 0.951064 -0.308995
  outer loop
   vertex 171.308838 27.277676 274.092773
   vertex 170.458847 27.432184 274.568298
   vertex 170.708847 27.452883 274.632019
  endloop
 endfacet
 facet normal -0.000017 0.951053 -0.309027
  outer loop
   vertex 170.708847 27.452883 274.632019
   vertex 170.891861 27.509438 274.806061
   vertex 171.308838 27.277676 274.092773
  endloop
 endfacet
 facet normal 0.000017 0.951053 -0.309027
  outer loop
   vertex 194.447952 27.509438 274.806091
   vertex 194.630966 27.452883 274.632050
   vertex 194.030975 27.277676 274.092804
  endloop
 endfacet
 facet normal -0.000015 0.951064 -0.308995
  outer loop
   vertex 194.030975 27.277676 274.092804
   vertex 194.630966 27.452883 274.632050
   vertex 194.880966 27.432184 274.568329
  endloop
 endfacet
 facet normal 0.000000 0.951056 -0.309019
  outer loop
   vertex 194.880966 27.432184 274.568329
   vertex 195.730972 27.277676 274.092804
   vertex 194.030975 27.277676 274.092804
  endloop
 endfacet
 facet normal 0.000000 -0.951056 0.309019
  outer loop
   vertex 195.730972 26.802147 274.247314
   vertex 194.880966 26.956656 274.722839
   vertex 194.030975 26.802147 274.247314
  endloop
 endfacet
 facet normal 0.000010 -0.951061 0.309003
  outer loop
   vertex 194.030975 26.802147 274.247314
   vertex 194.880966 26.956656 274.722839
   vertex 194.630966 26.977356 274.786560
  endloop
 endfacet
 facet normal -0.000010 -0.951054 0.309023
  outer loop
   vertex 194.630966 26.977356 274.786560
   vertex 194.447952 27.033909 274.960602
   vertex 194.030975 26.802147 274.247314
  endloop
 endfacet
 facet normal 0.000017 -0.951053 0.309027
  outer loop
   vertex 170.891861 27.033909 274.960571
   vertex 170.708847 26.977354 274.786530
   vertex 171.308838 26.802147 274.247284
  endloop
 endfacet
 facet normal -0.000015 -0.951064 0.308995
  outer loop
   vertex 171.308838 26.802147 274.247284
   vertex 170.708847 26.977354 274.786530
   vertex 170.458847 26.956656 274.722809
  endloop
 endfacet
 facet normal 0.000000 -0.951056 0.309019
  outer loop
   vertex 170.458847 26.956656 274.722809
   vertex 169.608841 26.802147 274.247284
   vertex 171.308838 26.802147 274.247284
  endloop
 endfacet
 facet normal 0.000000 -0.564468 0.825455
  outer loop
   vertex 192.889557 27.116474 277.096527
   vertex 192.889557 27.203096 277.155762
   vertex 191.730835 27.116474 277.096527
  endloop
 endfacet
 facet normal -0.000000 -0.564468 0.825455
  outer loop
   vertex 191.730835 27.116474 277.096527
   vertex 192.889557 27.203096 277.155762
   vertex 191.730835 27.203096 277.155762
  endloop
 endfacet
 facet normal 0.000000 0.951056 -0.309019
  outer loop
   vertex 172.861404 28.391830 275.899017
   vertex 172.861404 28.581421 276.482513
   vertex 192.478409 28.391830 275.899017
  endloop
 endfacet
 facet normal 0.000000 0.951061 -0.309004
  outer loop
   vertex 192.478409 28.391830 275.899017
   vertex 172.861404 28.581421 276.482513
   vertex 192.478409 28.581421 276.482544
  endloop
 endfacet
 facet normal 0.000000 0.941878 0.335956
  outer loop
   vertex 173.608978 28.662846 276.681458
   vertex 173.608978 28.698103 276.582611
   vertex 172.450256 28.662846 276.681458
  endloop
 endfacet
 facet normal 0.000000 0.941878 0.335956
  outer loop
   vertex 172.450256 28.662846 276.681458
   vertex 173.608978 28.698103 276.582611
   vertex 172.450256 28.698103 276.582611
  endloop
 endfacet
 facet normal 0.000000 0.308965 0.951073
  outer loop
   vertex 195.380966 27.111162 275.198364
   vertex 195.730972 27.111162 275.198364
   vertex 195.555969 27.348927 275.121124
  endloop
 endfacet
 facet normal 1.000000 0.000000 0.000000
  outer loop
   vertex 192.889557 28.438026 275.782196
   vertex 192.889557 26.856398 276.296082
   vertex 192.889557 28.047220 275.392639
  endloop
 endfacet
 facet normal 0.000000 0.951057 -0.309016
  outer loop
   vertex 194.030975 27.586691 275.043854
   vertex 194.380966 27.586691 275.043854
   vertex 194.447952 27.509438 274.806091
  endloop
 endfacet
 facet normal 0.000000 0.951057 -0.309016
  outer loop
   vertex 170.958847 27.586691 275.043823
   vertex 171.308838 27.586691 275.043823
   vertex 170.891861 27.509438 274.806061
  endloop
 endfacet
 facet normal 0.000000 -0.309020 -0.951055
  outer loop
   vertex 195.730972 27.111162 275.198364
   vertex 195.380966 27.586691 275.043854
   vertex 195.730972 27.586691 275.043854
  endloop
 endfacet
 facet normal 0.000000 -0.951057 0.309014
  outer loop
   vertex 172.696533 27.008787 275.878265
   vertex 171.048370 27.008787 275.878265
   vertex 171.048370 26.532578 274.412628
  endloop
 endfacet
 facet normal 0.000000 0.951057 -0.309014
  outer loop
   vertex 192.643280 27.592945 274.068115
   vertex 192.643280 28.069155 275.533752
   vertex 194.291443 27.592945 274.068115
  endloop
 endfacet
 facet normal -0.000000 -0.309020 -0.951055
  outer loop
   vertex 169.608841 27.586691 275.043823
   vertex 169.958847 27.111162 275.198334
   vertex 169.608841 27.111162 275.198334
  endloop
 endfacet
 facet normal -1.000000 -0.000000 0.000000
  outer loop
   vertex 172.450256 27.203096 277.155762
   vertex 172.450256 27.354282 277.106628
   vertex 172.450256 27.337770 277.008209
  endloop
 endfacet
 facet normal 0.000000 -0.309020 -0.951055
  outer loop
   vertex 194.380966 27.586691 275.043854
   vertex 194.030975 27.111162 275.198364
   vertex 194.030975 27.586691 275.043854
  endloop
 endfacet
 facet normal -1.000000 -0.000000 0.000000
  outer loop
   vertex 172.450256 26.856398 276.296082
   vertex 172.450256 28.438026 275.782166
   vertex 172.450256 26.943590 275.751190
  endloop
 endfacet
 facet normal 1.000000 0.000000 0.000000
  outer loop
   vertex 192.889557 28.662846 276.681458
   vertex 192.889557 28.511662 276.730591
   vertex 192.889557 28.467176 276.641266
  endloop
 endfacet
 facet normal 0.000000 -0.951056 0.309020
  outer loop
   vertex 192.643280 27.008787 275.878265
   vertex 192.643280 26.532578 274.412659
   vertex 194.291443 26.532578 274.412659
  endloop
 endfacet
 facet normal 1.000000 0.000000 -0.000000
  outer loop
   vertex 172.696533 26.532578 274.412628
   vertex 172.696533 27.592945 274.068085
   vertex 172.696533 28.069155 275.533722
  endloop
 endfacet
 facet normal 0.000000 -0.309020 -0.951055
  outer loop
   vertex 170.958847 27.111162 275.198334
   vertex 171.308838 27.586691 275.043823
   vertex 171.308838 27.111162 275.198334
  endloop
 endfacet
 facet normal 0.000000 -0.951057 0.309016
  outer loop
   vertex 171.308838 27.111162 275.198334
   vertex 170.958847 27.111162 275.198334
   vertex 170.891861 27.033909 274.960571
  endloop
 endfacet
 facet normal -0.707080 0.218519 0.672523
  outer loop
   vertex 170.708847 26.977354 274.786530
   vertex 170.891861 27.509438 274.806061
   vertex 170.708847 27.452883 274.632019
  endloop
 endfacet
 facet normal -0.258858 0.298487 0.918639
  outer loop
   vertex 170.708847 26.977354 274.786530
   vertex 170.708847 27.452883 274.632019
   vertex 170.458847 26.956656 274.722809
  endloop
 endfacet
 facet normal -0.258858 0.298487 0.918639
  outer loop
   vertex 170.458847 26.956656 274.722809
   vertex 170.708847 27.452883 274.632019
   vertex 170.458847 27.432184 274.568298
  endloop
 endfacet
 facet normal 0.258858 0.298487 0.918639
  outer loop
   vertex 170.458847 27.432184 274.568298
   vertex 170.208847 26.977354 274.786530
   vertex 170.458847 26.956656 274.722809
  endloop
 endfacet
 facet normal 0.258858 0.298487 0.918639
  outer loop
   vertex 170.208847 27.452883 274.632019
   vertex 170.208847 26.977354 274.786530
   vertex 170.458847 27.432184 274.568298
  endloop
 endfacet
 facet normal 0.707080 0.218519 0.672523
  outer loop
   vertex 170.025833 27.033909 274.960571
   vertex 170.208847 26.977354 274.786530
   vertex 170.208847 27.452883 274.632019
  endloop
 endfacet
 facet normal 0.707080 0.218519 0.672523
  outer loop
   vertex 170.208847 27.452883 274.632019
   vertex 170.025833 27.509438 274.806061
   vertex 170.025833 27.033909 274.960571
  endloop
 endfacet
 facet normal 0.965927 0.079980 0.246149
  outer loop
   vertex 170.025833 27.033909 274.960571
   vertex 170.025833 27.509438 274.806061
   vertex 169.958847 27.111162 275.198334
  endloop
 endfacet
 facet normal -0.965927 0.079980 0.246149
  outer loop
   vertex 195.380966 27.111162 275.198364
   vertex 195.380966 27.586691 275.043854
   vertex 195.313980 27.033909 274.960602
  endloop
 endfacet
 facet normal -0.965927 0.079980 0.246149
  outer loop
   vertex 195.313980 27.033909 274.960602
   vertex 195.380966 27.586691 275.043854
   vertex 195.313980 27.509438 274.806091
  endloop
 endfacet
 facet normal -0.707079 0.218519 0.672525
  outer loop
   vertex 195.313980 27.509438 274.806091
   vertex 195.130966 26.977356 274.786560
   vertex 195.313980 27.033909 274.960602
  endloop
 endfacet
 facet normal -0.707080 0.218520 0.672523
  outer loop
   vertex 195.130966 27.452883 274.632050
   vertex 195.130966 26.977356 274.786560
   vertex 195.313980 27.509438 274.806091
  endloop
 endfacet
 facet normal -0.258860 0.298488 0.918638
  outer loop
   vertex 194.880966 26.956656 274.722839
   vertex 195.130966 26.977356 274.786560
   vertex 195.130966 27.452883 274.632050
  endloop
 endfacet
 facet normal -0.258858 0.298487 0.918639
  outer loop
   vertex 195.130966 27.452883 274.632050
   vertex 194.880966 27.432184 274.568329
   vertex 194.880966 26.956656 274.722839
  endloop
 endfacet
 facet normal 0.258860 0.298487 0.918638
  outer loop
   vertex 194.880966 26.956656 274.722839
   vertex 194.880966 27.432184 274.568329
   vertex 194.630966 26.977356 274.786560
  endloop
 endfacet
 facet normal 0.258858 0.298489 0.918639
  outer loop
   vertex 194.630966 26.977356 274.786560
   vertex 194.880966 27.432184 274.568329
   vertex 194.630966 27.452883 274.632050
  endloop
 endfacet
 facet normal 0.707079 0.218520 0.672524
  outer loop
   vertex 194.630966 27.452883 274.632050
   vertex 194.447952 27.033909 274.960602
   vertex 194.630966 26.977356 274.786560
  endloop
 endfacet
 facet normal 0.965928 0.079978 0.246144
  outer loop
   vertex 171.308838 27.111162 275.198334
   vertex 171.308838 27.586691 275.043823
   vertex 171.194962 27.242495 275.602539
  endloop
 endfacet
 facet normal 0.965928 0.079978 0.246144
  outer loop
   vertex 171.194962 27.242495 275.602539
   vertex 171.308838 27.586691 275.043823
   vertex 171.194962 27.718023 275.448029
  endloop
 endfacet
 facet normal 0.707106 0.218511 0.672499
  outer loop
   vertex 171.194962 27.718023 275.448029
   vertex 170.883835 27.338636 275.898438
   vertex 171.194962 27.242495 275.602539
  endloop
 endfacet
 facet normal 0.707106 0.218511 0.672499
  outer loop
   vertex 170.883835 27.814165 275.743927
   vertex 170.883835 27.338636 275.898438
   vertex 171.194962 27.718023 275.448029
  endloop
 endfacet
 facet normal 0.258830 0.298490 0.918646
  outer loop
   vertex 170.458847 27.373827 276.006744
   vertex 170.883835 27.338636 275.898438
   vertex 170.883835 27.814165 275.743927
  endloop
 endfacet
 facet normal 0.258830 0.298490 0.918646
  outer loop
   vertex 170.883835 27.814165 275.743927
   vertex 170.458847 27.849356 275.852234
   vertex 170.458847 27.373827 276.006744
  endloop
 endfacet
 facet normal -0.258822 0.298491 0.918648
  outer loop
   vertex 170.458847 27.373827 276.006744
   vertex 170.458847 27.849356 275.852234
   vertex 170.033844 27.338636 275.898438
  endloop
 endfacet
 facet normal -0.258822 0.298491 0.918648
  outer loop
   vertex 170.033844 27.338636 275.898438
   vertex 170.458847 27.849356 275.852234
   vertex 170.033844 27.814165 275.743927
  endloop
 endfacet
 facet normal -0.707106 0.218511 0.672499
  outer loop
   vertex 170.033844 27.814165 275.743927
   vertex 169.722717 27.242495 275.602539
   vertex 170.033844 27.338636 275.898438
  endloop
 endfacet
 facet normal -0.707106 0.218511 0.672499
  outer loop
   vertex 169.722717 27.718023 275.448029
   vertex 169.722717 27.242495 275.602539
   vertex 170.033844 27.814165 275.743927
  endloop
 endfacet
 facet normal -0.965928 0.079978 0.246144
  outer loop
   vertex 169.608841 27.111162 275.198334
   vertex 169.722717 27.242495 275.602539
   vertex 169.722717 27.718023 275.448029
  endloop
 endfacet
 facet normal -0.965928 0.079978 0.246144
  outer loop
   vertex 169.722717 27.718023 275.448029
   vertex 169.608841 27.586691 275.043823
   vertex 169.608841 27.111162 275.198334
  endloop
 endfacet
 facet normal 0.965928 0.079978 0.246144
  outer loop
   vertex 195.730972 27.111162 275.198364
   vertex 195.730972 27.586691 275.043854
   vertex 195.617096 27.242495 275.602570
  endloop
 endfacet
 facet normal 0.965928 0.079978 0.246144
  outer loop
   vertex 195.617096 27.242495 275.602570
   vertex 195.730972 27.586691 275.043854
   vertex 195.617096 27.718023 275.448059
  endloop
 endfacet
 facet normal 0.707106 0.218511 0.672499
  outer loop
   vertex 195.617096 27.718023 275.448059
   vertex 195.305969 27.338636 275.898468
   vertex 195.617096 27.242495 275.602570
  endloop
 endfacet
 facet normal 0.707106 0.218511 0.672499
  outer loop
   vertex 195.305969 27.814165 275.743958
   vertex 195.305969 27.338636 275.898468
   vertex 195.617096 27.718023 275.448059
  endloop
 endfacet
 facet normal 0.258822 0.298491 0.918648
  outer loop
   vertex 194.880966 27.373827 276.006775
   vertex 195.305969 27.338636 275.898468
   vertex 195.305969 27.814165 275.743958
  endloop
 endfacet
 facet normal 0.258822 0.298491 0.918648
  outer loop
   vertex 195.305969 27.814165 275.743958
   vertex 194.880966 27.849356 275.852264
   vertex 194.880966 27.373827 276.006775
  endloop
 endfacet
 facet normal -0.258822 0.298491 0.918648
  outer loop
   vertex 194.880966 27.373827 276.006775
   vertex 194.880966 27.849356 275.852264
   vertex 194.455963 27.338636 275.898468
  endloop
 endfacet
 facet normal -0.258822 0.298491 0.918648
  outer loop
   vertex 194.455963 27.338636 275.898468
   vertex 194.880966 27.849356 275.852264
   vertex 194.455963 27.814165 275.743958
  endloop
 endfacet
 facet normal -0.707123 0.218505 0.672482
  outer loop
   vertex 194.455963 27.814165 275.743958
   vertex 194.144852 27.242495 275.602570
   vertex 194.455963 27.338636 275.898468
  endloop
 endfacet
 facet normal -0.707123 0.218505 0.672482
  outer loop
   vertex 194.144852 27.718023 275.448059
   vertex 194.144852 27.242495 275.602570
   vertex 194.455963 27.814165 275.743958
  endloop
 endfacet
 facet normal -0.965928 0.079978 0.246144
  outer loop
   vertex 194.030975 27.111162 275.198364
   vertex 194.144852 27.242495 275.602570
   vertex 194.144852 27.718023 275.448059
  endloop
 endfacet
 facet normal -0.965928 0.079978 0.246144
  outer loop
   vertex 194.144852 27.718023 275.448059
   vertex 194.030975 27.586691 275.043854
   vertex 194.030975 27.111162 275.198364
  endloop
 endfacet
 facet normal 0.707080 0.218519 0.672523
  outer loop
   vertex 194.630966 27.452883 274.632050
   vertex 194.447952 27.509438 274.806091
   vertex 194.447952 27.033909 274.960602
  endloop
 endfacet
 facet normal 0.965927 0.079980 0.246149
  outer loop
   vertex 194.447952 27.033909 274.960602
   vertex 194.447952 27.509438 274.806091
   vertex 194.380966 27.586691 275.043854
  endloop
 endfacet
 facet normal 0.965927 0.079980 0.246149
  outer loop
   vertex 194.380966 27.586691 275.043854
   vertex 194.380966 27.111162 275.198364
   vertex 194.447952 27.033909 274.960602
  endloop
 endfacet
 facet normal 0.965927 -0.079979 -0.246148
  outer loop
   vertex 194.447952 27.663946 275.281616
   vertex 194.380966 27.111162 275.198364
   vertex 194.380966 27.586691 275.043854
  endloop
 endfacet
 facet normal 0.965927 -0.079979 -0.246148
  outer loop
   vertex 194.447952 27.188417 275.436127
   vertex 194.380966 27.111162 275.198364
   vertex 194.447952 27.663946 275.281616
  endloop
 endfacet
 facet normal 0.707135 -0.218502 -0.672471
  outer loop
   vertex 194.447952 27.663946 275.281616
   vertex 194.630966 27.720499 275.455688
   vertex 194.447952 27.188417 275.436127
  endloop
 endfacet
 facet normal 0.707135 -0.218502 -0.672471
  outer loop
   vertex 194.447952 27.188417 275.436127
   vertex 194.630966 27.720499 275.455688
   vertex 194.630966 27.244970 275.610199
  endloop
 endfacet
 facet normal 0.258756 -0.298496 -0.918665
  outer loop
   vertex 194.630966 27.244970 275.610199
   vertex 194.630966 27.720499 275.455688
   vertex 194.880966 27.741199 275.519379
  endloop
 endfacet
 facet normal 0.258756 -0.298496 -0.918665
  outer loop
   vertex 194.880966 27.741199 275.519379
   vertex 194.880966 27.265671 275.673889
   vertex 194.630966 27.244970 275.610199
  endloop
 endfacet
 facet normal -0.258756 -0.298496 -0.918665
  outer loop
   vertex 195.130966 27.720499 275.455688
   vertex 194.880966 27.265671 275.673889
   vertex 194.880966 27.741199 275.519379
  endloop
 endfacet
 facet normal -0.258756 -0.298496 -0.918665
  outer loop
   vertex 195.130966 27.244970 275.610199
   vertex 194.880966 27.265671 275.673889
   vertex 195.130966 27.720499 275.455688
  endloop
 endfacet
 facet normal -0.707135 -0.218502 -0.672471
  outer loop
   vertex 195.130966 27.720499 275.455688
   vertex 195.313980 27.663946 275.281616
   vertex 195.130966 27.244970 275.610199
  endloop
 endfacet
 facet normal -0.707135 -0.218502 -0.672471
  outer loop
   vertex 195.130966 27.244970 275.610199
   vertex 195.313980 27.663946 275.281616
   vertex 195.313980 27.188417 275.436127
  endloop
 endfacet
 facet normal -0.965927 -0.079979 -0.246148
  outer loop
   vertex 195.313980 27.188417 275.436127
   vertex 195.313980 27.663946 275.281616
   vertex 195.380966 27.586691 275.043854
  endloop
 endfacet
 facet normal -0.965927 -0.079979 -0.246148
  outer loop
   vertex 195.380966 27.586691 275.043854
   vertex 195.380966 27.111162 275.198364
   vertex 195.313980 27.188417 275.436127
  endloop
 endfacet
 facet normal -0.707080 0.218519 0.672523
  outer loop
   vertex 170.708847 26.977354 274.786530
   vertex 170.891861 27.033909 274.960571
   vertex 170.891861 27.509438 274.806061
  endloop
 endfacet
 facet normal -0.965927 0.079980 0.246149
  outer loop
   vertex 170.891861 27.509438 274.806061
   vertex 170.891861 27.033909 274.960571
   vertex 170.958847 27.111162 275.198334
  endloop
 endfacet
 facet normal -0.965927 0.079980 0.246149
  outer loop
   vertex 170.958847 27.111162 275.198334
   vertex 170.958847 27.586691 275.043823
   vertex 170.891861 27.509438 274.806061
  endloop
 endfacet
 facet normal -0.965927 -0.079979 -0.246148
  outer loop
   vertex 170.891861 27.188417 275.436096
   vertex 170.958847 27.586691 275.043823
   vertex 170.958847 27.111162 275.198334
  endloop
 endfacet
 facet normal -0.965927 -0.079979 -0.246148
  outer loop
   vertex 170.891861 27.663946 275.281586
   vertex 170.958847 27.586691 275.043823
   vertex 170.891861 27.188417 275.436096
  endloop
 endfacet
 facet normal -0.707135 -0.218502 -0.672471
  outer loop
   vertex 170.891861 27.188417 275.436096
   vertex 170.708847 27.244970 275.610168
   vertex 170.891861 27.663946 275.281586
  endloop
 endfacet
 facet normal -0.707135 -0.218502 -0.672471
  outer loop
   vertex 170.891861 27.663946 275.281586
   vertex 170.708847 27.244970 275.610168
   vertex 170.708847 27.720499 275.455658
  endloop
 endfacet
 facet normal -0.258756 -0.298496 -0.918665
  outer loop
   vertex 170.708847 27.720499 275.455658
   vertex 170.708847 27.244970 275.610168
   vertex 170.458847 27.265671 275.673859
  endloop
 endfacet
 facet normal -0.258756 -0.298496 -0.918665
  outer loop
   vertex 170.458847 27.265671 275.673859
   vertex 170.458847 27.741199 275.519348
   vertex 170.708847 27.720499 275.455658
  endloop
 endfacet
 facet normal 0.258756 -0.298496 -0.918665
  outer loop
   vertex 170.208847 27.244970 275.610168
   vertex 170.458847 27.741199 275.519348
   vertex 170.458847 27.265671 275.673859
  endloop
 endfacet
 facet normal 0.258756 -0.298496 -0.918665
  outer loop
   vertex 170.208847 27.720499 275.455658
   vertex 170.458847 27.741199 275.519348
   vertex 170.208847 27.244970 275.610168
  endloop
 endfacet
 facet normal 0.707135 -0.218502 -0.672471
  outer loop
   vertex 170.208847 27.244970 275.610168
   vertex 170.025833 27.188417 275.436096
   vertex 170.208847 27.720499 275.455658
  endloop
 endfacet
 facet normal 0.707135 -0.218502 -0.672471
  outer loop
   vertex 170.208847 27.720499 275.455658
   vertex 170.025833 27.188417 275.436096
   vertex 170.025833 27.663946 275.281586
  endloop
 endfacet
 facet normal 0.965927 -0.079979 -0.246148
  outer loop
   vertex 170.025833 27.663946 275.281586
   vertex 170.025833 27.188417 275.436096
   vertex 169.958847 27.111162 275.198334
  endloop
 endfacet
 facet normal 0.965927 -0.079979 -0.246148
  outer loop
   vertex 169.958847 27.111162 275.198334
   vertex 169.958847 27.586691 275.043823
   vertex 170.025833 27.663946 275.281586
  endloop
 endfacet
 facet normal 0.965927 0.079980 0.246149
  outer loop
   vertex 170.025833 27.509438 274.806061
   vertex 169.958847 27.586691 275.043823
   vertex 169.958847 27.111162 275.198334
  endloop
 endfacet
endsolid