solid stl file generated from DOUG
 facet normal -0.866016 -0.000000 -0.500016
  outer loop
   vertex 193.467056 -89.595764 190.949905
   vertex 193.467056 -89.094597 190.949905
   vertex 193.592361 -89.595764 190.732880
  endloop
 endfacet
 facet normal -0.866016 -0.000000 -0.500016
  outer loop
   vertex 193.592361 -89.595764 190.732880
   vertex 193.467056 -89.094597 190.949905
   vertex 193.592361 -89.094597 190.732880
  endloop
 endfacet
 facet normal 0.000000 0.000000 -1.000000
  outer loop
   vertex 193.592361 -89.094597 190.732880
   vertex 193.842941 -89.595764 190.732880
   vertex 193.592361 -89.595764 190.732880
  endloop
 endfacet
 facet normal -0.000000 0.000000 -1.000000
  outer loop
   vertex 193.842941 -89.094597 190.732880
   vertex 193.842941 -89.595764 190.732880
   vertex 193.592361 -89.094597 190.732880
  endloop
 endfacet
 facet normal 0.866043 0.000000 -0.499970
  outer loop
   vertex 193.968231 -89.595764 190.949905
   vertex 193.842941 -89.595764 190.732880
   vertex 193.842941 -89.094597 190.732880
  endloop
 endfacet
 facet normal 0.866043 -0.000000 -0.499970
  outer loop
   vertex 193.842941 -89.094597 190.732880
   vertex 193.968231 -89.094597 190.949905
   vertex 193.968231 -89.595764 190.949905
  endloop
 endfacet
 facet normal 0.866027 0.000000 0.499997
  outer loop
   vertex 193.968231 -89.595764 190.949905
   vertex 193.968231 -89.094597 190.949905
   vertex 193.842941 -89.595764 191.166916
  endloop
 endfacet
 facet normal 0.866027 -0.000000 0.499997
  outer loop
   vertex 193.842941 -89.595764 191.166916
   vertex 193.968231 -89.094597 190.949905
   vertex 193.842941 -89.094597 191.166916
  endloop
 endfacet
 facet normal 0.000000 0.000000 1.000000
  outer loop
   vertex 193.842941 -89.094597 191.166916
   vertex 193.592346 -89.595764 191.166916
   vertex 193.842941 -89.595764 191.166916
  endloop
 endfacet
 facet normal -0.000000 -0.000000 1.000000
  outer loop
   vertex 193.592346 -89.094597 191.166916
   vertex 193.592346 -89.595764 191.166916
   vertex 193.842941 -89.094597 191.166916
  endloop
 endfacet
 facet normal -0.866027 0.000000 0.499997
  outer loop
   vertex 193.467056 -89.595764 190.949905
   vertex 193.592346 -89.595764 191.166916
   vertex 193.592346 -89.094597 191.166916
  endloop
 endfacet
 facet normal -0.866027 -0.000000 0.499997
  outer loop
   vertex 193.592346 -89.094597 191.166916
   vertex 193.467056 -89.094597 190.949905
   vertex 193.467056 -89.595764 190.949905
  endloop
 endfacet
 facet normal 0.866027 0.000000 -0.499997
  outer loop
   vertex 171.872940 -89.094597 190.949875
   vertex 171.872940 -89.595764 190.949875
   vertex 171.747650 -89.094597 190.732864
  endloop
 endfacet
 facet normal 0.866027 -0.000000 -0.499997
  outer loop
   vertex 171.747650 -89.094597 190.732864
   vertex 171.872940 -89.595764 190.949875
   vertex 171.747650 -89.595764 190.732864
  endloop
 endfacet
 facet normal 0.000000 0.000000 -1.000000
  outer loop
   vertex 171.747650 -89.595764 190.732864
   vertex 171.497055 -89.094597 190.732864
   vertex 171.747650 -89.094597 190.732864
  endloop
 endfacet
 facet normal -0.000000 -0.000000 -1.000000
  outer loop
   vertex 171.497055 -89.595764 190.732864
   vertex 171.497055 -89.094597 190.732864
   vertex 171.747650 -89.595764 190.732864
  endloop
 endfacet
 facet normal -0.866027 -0.000000 -0.499997
  outer loop
   vertex 171.371765 -89.094597 190.949875
   vertex 171.497055 -89.094597 190.732864
   vertex 171.497055 -89.595764 190.732864
  endloop
 endfacet
 facet normal -0.866027 0.000000 -0.499997
  outer loop
   vertex 171.497055 -89.595764 190.732864
   vertex 171.371765 -89.595764 190.949875
   vertex 171.371765 -89.094597 190.949875
  endloop
 endfacet
 facet normal -0.866027 0.000000 0.499997
  outer loop
   vertex 171.371765 -89.094597 190.949875
   vertex 171.371765 -89.595764 190.949875
   vertex 171.497055 -89.094597 191.166885
  endloop
 endfacet
 facet normal -0.866027 -0.000000 0.499997
  outer loop
   vertex 171.497055 -89.094597 191.166885
   vertex 171.371765 -89.595764 190.949875
   vertex 171.497055 -89.595764 191.166885
  endloop
 endfacet
 facet normal 0.000000 0.000000 1.000000
  outer loop
   vertex 171.497055 -89.595764 191.166885
   vertex 171.747635 -89.094597 191.166885
   vertex 171.497055 -89.094597 191.166885
  endloop
 endfacet
 facet normal -0.000000 0.000000 1.000000
  outer loop
   vertex 171.747635 -89.595764 191.166885
   vertex 171.747635 -89.094597 191.166885
   vertex 171.497055 -89.595764 191.166885
  endloop
 endfacet
 facet normal 0.866001 0.000000 0.500042
  outer loop
   vertex 171.872940 -89.094597 190.949875
   vertex 171.747635 -89.094597 191.166885
   vertex 171.747635 -89.595764 191.166885
  endloop
 endfacet
 facet normal 0.866001 -0.000000 0.500042
  outer loop
   vertex 171.747635 -89.595764 191.166885
   vertex 171.872940 -89.595764 190.949875
   vertex 171.872940 -89.094597 190.949875
  endloop
 endfacet
 facet normal 0.000000 -1.000000 0.000000
  outer loop
   vertex 171.497055 -89.595764 190.732864
   vertex 171.747650 -89.595764 190.732864
   vertex 171.622345 -89.595764 190.949875
  endloop
 endfacet
 facet normal -0.000000 -1.000000 0.000000
  outer loop
   vertex 171.622345 -89.595764 190.949875
   vertex 171.747650 -89.595764 190.732864
   vertex 171.872940 -89.595764 190.949875
  endloop
 endfacet
 facet normal 0.000000 -1.000000 -0.000000
  outer loop
   vertex 171.872940 -89.595764 190.949875
   vertex 171.747635 -89.595764 191.166885
   vertex 171.622345 -89.595764 190.949875
  endloop
 endfacet
 facet normal 0.000000 -1.000000 0.000000
  outer loop
   vertex 193.592346 -89.595764 191.166916
   vertex 193.467056 -89.595764 190.949905
   vertex 193.717651 -89.595764 190.949905
  endloop
 endfacet
 facet normal 0.000000 -1.000000 -0.000000
  outer loop
   vertex 193.717651 -89.595764 190.949905
   vertex 193.467056 -89.595764 190.949905
   vertex 193.592361 -89.595764 190.732880
  endloop
 endfacet
 facet normal 0.000000 -1.000000 0.000000
  outer loop
   vertex 193.592361 -89.595764 190.732880
   vertex 193.842941 -89.595764 190.732880
   vertex 193.717651 -89.595764 190.949905
  endloop
 endfacet
 facet normal -0.000000 -1.000000 0.000000
  outer loop
   vertex 193.842941 -89.595764 190.732880
   vertex 193.968231 -89.595764 190.949905
   vertex 193.717651 -89.595764 190.949905
  endloop
 endfacet
 facet normal -0.000000 -1.000000 -0.000000
  outer loop
   vertex 193.717651 -89.595764 190.949905
   vertex 193.968231 -89.595764 190.949905
   vertex 193.842941 -89.595764 191.166916
  endloop
 endfacet
 facet normal 0.000000 -1.000000 0.000000
  outer loop
   vertex 193.842941 -89.595764 191.166916
   vertex 193.592346 -89.595764 191.166916
   vertex 193.717651 -89.595764 190.949905
  endloop
 endfacet
 facet normal 0.000000 -1.000000 0.000000
  outer loop
   vertex 171.747635 -89.595764 191.166885
   vertex 171.497055 -89.595764 191.166885
   vertex 171.622345 -89.595764 190.949875
  endloop
 endfacet
 facet normal -0.000000 -1.000000 -0.000000
  outer loop
   vertex 171.622345 -89.595764 190.949875
   vertex 171.497055 -89.595764 191.166885
   vertex 171.371765 -89.595764 190.949875
  endloop
 endfacet
 facet normal 0.000000 -1.000000 0.000000
  outer loop
   vertex 171.371765 -89.595764 190.949875
   vertex 171.497055 -89.595764 190.732864
   vertex 171.622345 -89.595764 190.949875
  endloop
 endfacet
 facet normal 0.000000 -1.000000 0.000000
  outer loop
   vertex 192.261047 -87.560989 191.574997
   vertex 192.261047 -87.560989 190.324799
   vertex 195.252441 -87.560989 191.574997
  endloop
 endfacet
 facet normal -0.000000 -1.000000 -0.000000
  outer loop
   vertex 195.252441 -87.560989 191.574997
   vertex 192.261047 -87.560989 190.324799
   vertex 195.252441 -87.560989 190.324799
  endloop
 endfacet
 facet normal 1.000000 0.000000 0.000000
  outer loop
   vertex 195.252441 -87.560989 190.324799
   vertex 195.252441 -86.172401 191.575012
   vertex 195.252441 -87.560989 191.574997
  endloop
 endfacet
 facet normal 1.000000 -0.000000 0.000000
  outer loop
   vertex 195.252441 -86.172401 190.324814
   vertex 195.252441 -86.172401 191.575012
   vertex 195.252441 -87.560989 190.324799
  endloop
 endfacet
 facet normal 0.000000 1.000000 0.000000
  outer loop
   vertex 192.261047 -86.172401 190.324799
   vertex 195.252441 -86.172401 191.575012
   vertex 195.252441 -86.172401 190.324814
  endloop
 endfacet
 facet normal 0.000005 -0.000000 -1.000000
  outer loop
   vertex 195.252441 -86.172401 190.324814
   vertex 192.261047 -87.560989 190.324799
   vertex 192.261047 -86.172401 190.324799
  endloop
 endfacet
 facet normal -1.000000 0.000000 0.000000
  outer loop
   vertex 192.261047 -86.172401 190.324799
   vertex 192.261047 -87.560989 190.324799
   vertex 192.261047 -86.172401 191.574997
  endloop
 endfacet
 facet normal -1.000000 -0.000000 -0.000000
  outer loop
   vertex 192.261047 -86.172401 191.574997
   vertex 192.261047 -87.560989 190.324799
   vertex 192.261047 -87.560989 191.574997
  endloop
 endfacet
 facet normal -0.000005 0.000000 1.000000
  outer loop
   vertex 192.261047 -87.560989 191.574997
   vertex 195.252441 -86.172401 191.575012
   vertex 192.261047 -86.172401 191.574997
  endloop
 endfacet
 facet normal -0.000000 -0.000011 1.000000
  outer loop
   vertex 195.252441 -87.560989 191.574997
   vertex 195.252441 -86.172401 191.575012
   vertex 192.261047 -87.560989 191.574997
  endloop
 endfacet
 facet normal -1.000000 0.000000 0.000000
  outer loop
   vertex 170.087555 -86.172401 191.574982
   vertex 170.087555 -86.172401 190.324783
   vertex 170.087555 -87.560989 191.574982
  endloop
 endfacet
 facet normal -1.000000 -0.000000 -0.000000
  outer loop
   vertex 170.087555 -87.560989 191.574982
   vertex 170.087555 -86.172401 190.324783
   vertex 170.087555 -87.560989 190.324783
  endloop
 endfacet
 facet normal -0.000000 -1.000000 0.000000
  outer loop
   vertex 170.087555 -87.560989 190.324783
   vertex 173.078949 -87.560989 191.574982
   vertex 170.087555 -87.560989 191.574982
  endloop
 endfacet
 facet normal -0.000000 -1.000000 -0.000000
  outer loop
   vertex 173.078949 -87.560989 190.324783
   vertex 173.078949 -87.560989 191.574982
   vertex 170.087555 -87.560989 190.324783
  endloop
 endfacet
 facet normal 1.000000 0.000000 0.000000
  outer loop
   vertex 173.078949 -86.172401 190.324783
   vertex 173.078949 -87.560989 191.574982
   vertex 173.078949 -87.560989 190.324783
  endloop
 endfacet
 facet normal 0.000000 -0.000000 -1.000000
  outer loop
   vertex 173.078949 -87.560989 190.324783
   vertex 170.087555 -86.172401 190.324783
   vertex 173.078949 -86.172401 190.324783
  endloop
 endfacet
 facet normal 0.000000 1.000000 0.000000
  outer loop
   vertex 173.078949 -86.172401 190.324783
   vertex 170.087555 -86.172401 190.324783
   vertex 173.078949 -86.172401 191.574982
  endloop
 endfacet
 facet normal -0.000000 1.000000 -0.000000
  outer loop
   vertex 173.078949 -86.172401 191.574982
   vertex 170.087555 -86.172401 190.324783
   vertex 170.087555 -86.172401 191.574982
  endloop
 endfacet
 facet normal 0.000000 -0.000000 1.000000
  outer loop
   vertex 170.087555 -86.172401 191.574982
   vertex 173.078949 -87.560989 191.574982
   vertex 173.078949 -86.172401 191.574982
  endloop
 endfacet
 facet normal -0.000000 -0.000000 1.000000
  outer loop
   vertex 170.087555 -87.560989 191.574982
   vertex 173.078949 -87.560989 191.574982
   vertex 170.087555 -86.172401 191.574982
  endloop
 endfacet
 facet normal 0.000000 0.000000 -1.000000
  outer loop
   vertex 173.078949 -87.560989 190.324783
   vertex 170.087555 -87.560989 190.324783
   vertex 170.087555 -86.172401 190.324783
  endloop
 endfacet
 facet normal 0.000000 0.000011 -1.000000
  outer loop
   vertex 195.252441 -87.560989 190.324799
   vertex 192.261047 -87.560989 190.324799
   vertex 195.252441 -86.172401 190.324814
  endloop
 endfacet
 facet normal 1.000000 0.000000 0.000000
  outer loop
   vertex 173.078949 -86.172401 190.324783
   vertex 173.078949 -86.172401 191.574982
   vertex 173.078949 -87.560989 191.574982
  endloop
 endfacet
 facet normal -0.000000 1.000000 0.000000
  outer loop
   vertex 192.261047 -86.172401 190.324799
   vertex 192.261047 -86.172401 191.574997
   vertex 195.252441 -86.172401 191.575012
  endloop
 endfacet
 facet normal 0.000000 -1.000000 0.000000
  outer loop
   vertex 192.478500 -90.330841 191.734894
   vertex 172.861496 -90.330841 191.625259
   vertex 192.478500 -90.330841 191.625275
  endloop
 endfacet
 facet normal 0.000001 -0.593772 -0.804633
  outer loop
   vertex 192.478500 -90.330841 191.625275
   vertex 172.861496 -90.330841 191.625259
   vertex 192.478500 -90.213951 191.539017
  endloop
 endfacet
 facet normal 0.000000 -0.610624 -0.791921
  outer loop
   vertex 173.609070 -90.390007 190.182449
   vertex 172.450348 -90.306892 190.118362
   vertex 173.609070 -90.306892 190.118362
  endloop
 endfacet
 facet normal -0.000000 -0.000000 -1.000000
  outer loop
   vertex 173.609070 -90.306892 190.118362
   vertex 172.450348 -90.306892 190.118362
   vertex 172.450348 -89.465263 190.118362
  endloop
 endfacet
 facet normal 0.000000 -0.000018 1.000000
  outer loop
   vertex 192.889648 -89.465263 191.781418
   vertex 191.730927 -90.306892 191.781403
   vertex 192.889648 -90.306892 191.781403
  endloop
 endfacet
 facet normal -0.000000 -0.610533 0.791991
  outer loop
   vertex 192.889648 -90.306892 191.781403
   vertex 191.730927 -90.306892 191.781403
   vertex 191.730927 -90.390007 191.717331
  endloop
 endfacet
 facet normal -0.000001 -0.593840 0.804583
  outer loop
   vertex 172.861496 -90.213951 190.360764
   vertex 172.861496 -90.330841 190.274490
   vertex 192.478500 -90.330841 190.274521
  endloop
 endfacet
 facet normal 0.000000 -1.000000 -0.000000
  outer loop
   vertex 192.478500 -90.330841 190.274521
   vertex 172.861496 -90.330841 190.274490
   vertex 192.478500 -90.330841 190.164902
  endloop
 endfacet
 facet normal -0.000000 -0.933433 0.358751
  outer loop
   vertex 172.861496 -89.562111 191.701355
   vertex 192.478500 -89.562111 191.701370
   vertex 172.861496 -89.549232 191.734863
  endloop
 endfacet
 facet normal -0.000001 -0.933488 0.358609
  outer loop
   vertex 172.861496 -89.549232 191.734863
   vertex 192.478500 -89.562111 191.701370
   vertex 192.478500 -89.549232 191.734894
  endloop
 endfacet
 facet normal -0.000002 0.000000 1.000000
  outer loop
   vertex 192.478500 -89.549232 191.734894
   vertex 172.861496 -89.478615 191.734863
   vertex 172.861496 -89.549232 191.734863
  endloop
 endfacet
 facet normal -1.000000 0.000000 0.000000
  outer loop
   vertex 172.450348 -90.306892 191.781387
   vertex 172.450348 -90.291313 191.543640
   vertex 172.450348 -90.390007 191.717316
  endloop
 endfacet
 facet normal -1.000000 -0.000000 -0.000000
  outer loop
   vertex 172.450348 -90.390007 191.717316
   vertex 172.450348 -90.291313 191.543640
   vertex 172.450348 -90.390007 191.558350
  endloop
 endfacet
 facet normal -0.000000 -1.000000 0.000000
  outer loop
   vertex 172.450348 -90.390007 191.558350
   vertex 173.609070 -90.390007 191.717316
   vertex 172.450348 -90.390007 191.717316
  endloop
 endfacet
 facet normal 1.000000 0.000000 0.000000
  outer loop
   vertex 192.889648 -90.306892 190.118393
   vertex 192.889648 -90.291313 190.356140
   vertex 192.889648 -90.390007 190.182465
  endloop
 endfacet
 facet normal 1.000000 -0.000000 -0.000000
  outer loop
   vertex 192.889648 -90.390007 190.182465
   vertex 192.889648 -90.291313 190.356140
   vertex 192.889648 -90.390007 190.341431
  endloop
 endfacet
 facet normal 0.000000 -1.000000 0.000000
  outer loop
   vertex 192.889648 -90.390007 190.341431
   vertex 191.730927 -90.390007 190.182465
   vertex 192.889648 -90.390007 190.182465
  endloop
 endfacet
 facet normal 1.000000 0.000000 0.000000
  outer loop
   vertex 173.609070 -90.390007 190.341400
   vertex 173.609070 -90.390007 190.182449
   vertex 173.609070 -90.291313 190.356110
  endloop
 endfacet
 facet normal 1.000000 -0.000000 -0.000000
  outer loop
   vertex 173.609070 -90.291313 190.356110
   vertex 173.609070 -90.390007 190.182449
   vertex 173.609070 -90.306892 190.118362
  endloop
 endfacet
 facet normal 1.000000 0.000000 0.000000
  outer loop
   vertex 173.609070 -90.306892 190.118362
   vertex 173.609070 -89.465263 190.118362
   vertex 173.609070 -90.291313 190.356110
  endloop
 endfacet
 facet normal -0.000000 -0.000000 -1.000000
  outer loop
   vertex 172.450348 -89.465263 190.118362
   vertex 173.609070 -89.465263 190.118362
   vertex 173.609070 -90.306892 190.118362
  endloop
 endfacet
 facet normal -0.000001 -0.593772 0.804633
  outer loop
   vertex 192.478500 -90.330841 190.274521
   vertex 192.478500 -90.213951 190.360779
   vertex 172.861496 -90.213951 190.360764
  endloop
 endfacet
 facet normal -0.000000 -1.000000 0.000000
  outer loop
   vertex 172.861496 -90.213951 190.360764
   vertex 192.478500 -90.213951 190.360779
   vertex 192.478500 -90.213951 191.539017
  endloop
 endfacet
 facet normal 0.000000 -1.000000 0.000000
  outer loop
   vertex 192.478500 -90.213951 191.539017
   vertex 172.861496 -90.213951 191.538986
   vertex 172.861496 -90.213951 190.360764
  endloop
 endfacet
 facet normal 0.000001 -0.593840 -0.804583
  outer loop
   vertex 172.861496 -90.330841 191.625259
   vertex 172.861496 -90.213951 191.538986
   vertex 192.478500 -90.213951 191.539017
  endloop
 endfacet
 facet normal -0.000013 0.000000 1.000000
  outer loop
   vertex 192.889648 -89.465263 191.781418
   vertex 191.730927 -89.465263 191.781403
   vertex 191.730927 -90.306892 191.781403
  endloop
 endfacet
 facet normal -1.000000 -0.000000 -0.000000
  outer loop
   vertex 191.730927 -90.306892 191.781403
   vertex 191.730927 -89.465263 191.781403
   vertex 191.730927 -90.291313 191.543655
  endloop
 endfacet
 facet normal -1.000000 0.000000 0.000000
  outer loop
   vertex 191.730927 -90.291313 191.543655
   vertex 191.730927 -90.390007 191.717331
   vertex 191.730927 -90.306892 191.781403
  endloop
 endfacet
 facet normal -1.000000 -0.000000 -0.000000
  outer loop
   vertex 191.730927 -90.390007 191.558365
   vertex 191.730927 -90.390007 191.717331
   vertex 191.730927 -90.291313 191.543655
  endloop
 endfacet
 facet normal -0.000000 0.933488 0.358609
  outer loop
   vertex 192.478500 -90.175644 191.701370
   vertex 172.861496 -90.175644 191.701355
   vertex 192.478500 -90.188522 191.734894
  endloop
 endfacet
 facet normal -0.000001 0.933433 0.358751
  outer loop
   vertex 192.478500 -90.188522 191.734894
   vertex 172.861496 -90.175644 191.701355
   vertex 172.861496 -90.188522 191.734863
  endloop
 endfacet
 facet normal -0.000002 0.000000 1.000000
  outer loop
   vertex 172.861496 -90.188522 191.734863
   vertex 192.478500 -90.330841 191.734894
   vertex 192.478500 -90.188522 191.734894
  endloop
 endfacet
 facet normal -0.000002 -0.000000 1.000000
  outer loop
   vertex 172.861496 -90.330841 191.734863
   vertex 192.478500 -90.330841 191.734894
   vertex 172.861496 -90.188522 191.734863
  endloop
 endfacet
 facet normal 0.000000 -1.000000 0.000000
  outer loop
   vertex 172.861496 -90.330841 191.625259
   vertex 192.478500 -90.330841 191.734894
   vertex 172.861496 -90.330841 191.734863
  endloop
 endfacet
 facet normal 0.000000 -1.000000 0.000000
  outer loop
   vertex 194.291534 -89.114990 191.507370
   vertex 192.643372 -89.114990 190.392426
   vertex 194.291534 -89.114990 190.392441
  endloop
 endfacet
 facet normal 0.000009 -0.000000 -1.000000
  outer loop
   vertex 194.291534 -89.114990 190.392441
   vertex 192.643372 -89.114990 190.392426
   vertex 194.291534 -87.573936 190.392441
  endloop
 endfacet
 facet normal 1.000000 0.000000 0.000000
  outer loop
   vertex 194.291534 -87.573936 190.392441
   vertex 194.291534 -87.573936 191.507370
   vertex 194.291534 -89.114990 190.392441
  endloop
 endfacet
 facet normal -0.000000 1.000000 0.000000
  outer loop
   vertex 192.643372 -87.573936 190.392426
   vertex 194.291534 -87.573936 191.507370
   vertex 194.291534 -87.573936 190.392441
  endloop
 endfacet
 facet normal 0.000000 1.000000 0.000000
  outer loop
   vertex 192.643372 -87.573936 191.507370
   vertex 194.291534 -87.573936 191.507370
   vertex 192.643372 -87.573936 190.392426
  endloop
 endfacet
 facet normal -1.000000 -0.000000 -0.000000
  outer loop
   vertex 192.643372 -87.573936 190.392426
   vertex 192.643372 -89.114990 190.392426
   vertex 192.643372 -87.573936 191.507370
  endloop
 endfacet
 facet normal -1.000000 0.000000 0.000000
  outer loop
   vertex 192.643372 -87.573936 191.507370
   vertex 192.643372 -89.114990 190.392426
   vertex 192.643372 -89.114990 191.507370
  endloop
 endfacet
 facet normal -0.000000 -1.000000 -0.000000
  outer loop
   vertex 192.643372 -89.114990 191.507370
   vertex 192.643372 -89.114990 190.392426
   vertex 194.291534 -89.114990 191.507370
  endloop
 endfacet
 facet normal 0.000000 0.000000 1.000000
  outer loop
   vertex 194.291534 -89.114990 191.507370
   vertex 194.291534 -87.573936 191.507370
   vertex 192.643372 -89.114990 191.507370
  endloop
 endfacet
 facet normal 1.000000 0.000000 -0.000000
  outer loop
   vertex 194.291534 -89.114990 190.392441
   vertex 194.291534 -87.573936 191.507370
   vertex 194.291534 -89.114990 191.507370
  endloop
 endfacet
 facet normal 0.000000 0.000000 1.000000
  outer loop
   vertex 171.048462 -89.114990 191.507339
   vertex 172.696625 -89.114990 191.507339
   vertex 171.048462 -87.573936 191.507339
  endloop
 endfacet
 facet normal -0.000000 -0.000000 1.000000
  outer loop
   vertex 171.048462 -87.573936 191.507339
   vertex 172.696625 -89.114990 191.507339
   vertex 172.696625 -87.573936 191.507339
  endloop
 endfacet
 facet normal 0.000000 1.000000 0.000000
  outer loop
   vertex 172.696625 -87.573936 191.507339
   vertex 171.048462 -87.573936 190.392410
   vertex 171.048462 -87.573936 191.507339
  endloop
 endfacet
 facet normal -0.000000 1.000000 -0.000000
  outer loop
   vertex 172.696625 -87.573936 190.392410
   vertex 171.048462 -87.573936 190.392410
   vertex 172.696625 -87.573936 191.507339
  endloop
 endfacet
 facet normal 0.000000 0.000000 -1.000000
  outer loop
   vertex 172.696625 -89.114990 190.392410
   vertex 171.048462 -87.573936 190.392410
   vertex 172.696625 -87.573936 190.392410
  endloop
 endfacet
 facet normal 1.000000 -0.000000 -0.000000
  outer loop
   vertex 172.696625 -87.573936 190.392410
   vertex 172.696625 -89.114990 191.507339
   vertex 172.696625 -89.114990 190.392410
  endloop
 endfacet
 facet normal 0.000000 -1.000000 -0.000000
  outer loop
   vertex 172.696625 -89.114990 190.392410
   vertex 172.696625 -89.114990 191.507339
   vertex 171.048462 -89.114990 190.392410
  endloop
 endfacet
 facet normal -0.000000 -1.000000 -0.000000
  outer loop
   vertex 171.048462 -89.114990 190.392410
   vertex 172.696625 -89.114990 191.507339
   vertex 171.048462 -89.114990 191.507339
  endloop
 endfacet
 facet normal -1.000000 0.000000 0.000000
  outer loop
   vertex 171.048462 -89.114990 191.507339
   vertex 171.048462 -87.573936 190.392410
   vertex 171.048462 -89.114990 190.392410
  endloop
 endfacet
 facet normal -1.000000 -0.000000 0.000000
  outer loop
   vertex 171.048462 -87.573936 191.507339
   vertex 171.048462 -87.573936 190.392410
   vertex 171.048462 -89.114990 191.507339
  endloop
 endfacet
 facet normal 0.000000 1.000000 0.000000
  outer loop
   vertex 195.731064 -88.499992 190.699905
   vertex 195.381058 -88.499992 190.699905
   vertex 195.381058 -88.499992 191.199905
  endloop
 endfacet
 facet normal -0.000000 -1.000000 -0.000000
  outer loop
   vertex 195.381058 -88.499992 191.199905
   vertex 195.381058 -88.499992 190.699905
   vertex 195.556061 -88.499992 190.949905
  endloop
 endfacet
 facet normal -0.000000 -1.000000 0.000000
  outer loop
   vertex 195.556061 -88.499992 190.949905
   vertex 195.731064 -88.499992 191.199905
   vertex 195.381058 -88.499992 191.199905
  endloop
 endfacet
 facet normal -0.000000 -1.000000 -0.000000
  outer loop
   vertex 195.731064 -88.499992 190.699905
   vertex 195.731064 -88.499992 191.199905
   vertex 195.556061 -88.499992 190.949905
  endloop
 endfacet
 facet normal 1.000000 -0.000000 0.000000
  outer loop
   vertex 195.731064 -87.499992 191.199905
   vertex 195.731064 -88.499992 191.199905
   vertex 195.731064 -88.499992 190.699905
  endloop
 endfacet
 facet normal 1.000000 -0.000000 -0.000000
  outer loop
   vertex 195.731064 -88.499992 190.699905
   vertex 195.731064 -87.499992 190.699905
   vertex 195.731064 -87.499992 191.199905
  endloop
 endfacet
 facet normal 0.000000 1.000000 -0.000000
  outer loop
   vertex 195.731064 -87.499992 191.199905
   vertex 195.731064 -87.499992 190.699905
   vertex 194.031067 -87.499992 191.199905
  endloop
 endfacet
 facet normal -0.000000 1.000000 -0.000000
  outer loop
   vertex 194.031067 -87.499992 191.199905
   vertex 195.731064 -87.499992 190.699905
   vertex 194.031067 -87.499992 190.699905
  endloop
 endfacet
 facet normal -1.000000 0.000000 0.000000
  outer loop
   vertex 194.031067 -87.499992 190.699905
   vertex 194.031067 -88.499992 190.699905
   vertex 194.031067 -87.499992 191.199905
  endloop
 endfacet
 facet normal -0.000000 -0.000000 -1.000000
  outer loop
   vertex 194.448044 -88.249992 190.699905
   vertex 194.031067 -88.499992 190.699905
   vertex 194.031067 -87.499992 190.699905
  endloop
 endfacet
 facet normal 0.000000 0.000000 -1.000000
  outer loop
   vertex 194.381058 -88.499992 190.699905
   vertex 194.031067 -88.499992 190.699905
   vertex 194.448044 -88.249992 190.699905
  endloop
 endfacet
 facet normal 0.000000 -0.000000 1.000000
  outer loop
   vertex 170.891953 -88.249992 191.199875
   vertex 171.308929 -88.499992 191.199875
   vertex 171.308929 -87.499992 191.199875
  endloop
 endfacet
 facet normal 1.000000 -0.000000 -0.000000
  outer loop
   vertex 171.308929 -87.499992 191.199875
   vertex 171.308929 -88.499992 191.199875
   vertex 171.308929 -87.499992 190.699875
  endloop
 endfacet
 facet normal -0.000000 1.000000 0.000000
  outer loop
   vertex 171.308929 -87.499992 190.699875
   vertex 169.608932 -87.499992 191.199875
   vertex 171.308929 -87.499992 191.199875
  endloop
 endfacet
 facet normal -0.000000 1.000000 -0.000000
  outer loop
   vertex 169.608932 -87.499992 190.699875
   vertex 169.608932 -87.499992 191.199875
   vertex 171.308929 -87.499992 190.699875
  endloop
 endfacet
 facet normal -1.000000 -0.000000 -0.000000
  outer loop
   vertex 169.608932 -88.499992 191.199875
   vertex 169.608932 -87.499992 191.199875
   vertex 169.608932 -87.499992 190.699875
  endloop
 endfacet
 facet normal -1.000000 -0.000000 -0.000000
  outer loop
   vertex 169.608932 -87.499992 190.699875
   vertex 169.608932 -88.499992 190.699875
   vertex 169.608932 -88.499992 191.199875
  endloop
 endfacet
 facet normal 0.000000 -1.000000 0.000000
  outer loop
   vertex 169.608932 -88.499992 191.199875
   vertex 169.608932 -88.499992 190.699875
   vertex 169.783936 -88.499992 190.949875
  endloop
 endfacet
 facet normal -0.000000 -1.000000 -0.000000
  outer loop
   vertex 169.783936 -88.499992 190.949875
   vertex 169.608932 -88.499992 190.699875
   vertex 169.958939 -88.499992 190.699875
  endloop
 endfacet
 facet normal 0.000000 -1.000000 -0.000000
  outer loop
   vertex 169.958939 -88.499992 190.699875
   vertex 169.958939 -88.499992 191.199875
   vertex 169.783936 -88.499992 190.949875
  endloop
 endfacet
 facet normal 0.000000 1.000000 0.000000
  outer loop
   vertex 169.608932 -88.499992 191.199875
   vertex 169.958939 -88.499992 191.199875
   vertex 169.958939 -88.499992 190.699875
  endloop
 endfacet
 facet normal -0.000000 -1.000000 0.000000
  outer loop
   vertex 169.783936 -88.499992 190.949875
   vertex 169.958939 -88.499992 191.199875
   vertex 169.608932 -88.499992 191.199875
  endloop
 endfacet
 facet normal 0.000000 -1.000000 0.000000
  outer loop
   vertex 172.861496 -90.330841 190.274490
   vertex 172.861496 -90.330841 190.164886
   vertex 192.478500 -90.330841 190.164902
  endloop
 endfacet
 facet normal 0.000001 -0.000000 -1.000000
  outer loop
   vertex 192.478500 -90.330841 190.164902
   vertex 172.861496 -90.330841 190.164886
   vertex 172.861496 -90.188522 190.164886
  endloop
 endfacet
 facet normal 0.000001 0.000000 -1.000000
  outer loop
   vertex 172.861496 -90.188522 190.164886
   vertex 192.478500 -90.188522 190.164902
   vertex 192.478500 -90.330841 190.164902
  endloop
 endfacet
 facet normal 0.000000 0.933488 -0.358609
  outer loop
   vertex 172.861496 -90.175644 190.198410
   vertex 192.478500 -90.188522 190.164902
   vertex 172.861496 -90.188522 190.164886
  endloop
 endfacet
 facet normal 0.000000 0.933488 -0.358609
  outer loop
   vertex 192.478500 -90.175644 190.198425
   vertex 192.478500 -90.188522 190.164902
   vertex 172.861496 -90.175644 190.198410
  endloop
 endfacet
 facet normal 0.000001 -0.000000 -1.000000
  outer loop
   vertex 172.861496 -90.175644 190.198410
   vertex 172.861496 -89.562111 190.198410
   vertex 192.478500 -90.175644 190.198425
  endloop
 endfacet
 facet normal 0.000001 0.000000 -1.000000
  outer loop
   vertex 192.478500 -90.175644 190.198425
   vertex 172.861496 -89.562111 190.198410
   vertex 192.478500 -89.562111 190.198425
  endloop
 endfacet
 facet normal 0.000000 -0.933417 -0.358794
  outer loop
   vertex 192.478500 -89.562111 190.198425
   vertex 172.861496 -89.562111 190.198410
   vertex 172.861496 -89.549225 190.164886
  endloop
 endfacet
 facet normal 0.000000 -0.933417 -0.358794
  outer loop
   vertex 172.861496 -89.549225 190.164886
   vertex 192.478500 -89.549225 190.164902
   vertex 192.478500 -89.562111 190.198425
  endloop
 endfacet
 facet normal 0.000001 -0.000000 -1.000000
  outer loop
   vertex 172.861496 -89.478615 190.164886
   vertex 192.478500 -89.549225 190.164902
   vertex 172.861496 -89.549225 190.164886
  endloop
 endfacet
 facet normal 0.000001 0.000000 -1.000000
  outer loop
   vertex 192.478500 -89.478615 190.164902
   vertex 192.478500 -89.549225 190.164902
   vertex 172.861496 -89.478615 190.164886
  endloop
 endfacet
 facet normal -0.000000 1.000000 -0.000000
  outer loop
   vertex 172.861496 -89.478615 190.164886
   vertex 172.861496 -89.478615 191.734863
   vertex 192.478500 -89.478615 190.164902
  endloop
 endfacet
 facet normal -0.000000 1.000000 0.000000
  outer loop
   vertex 192.478500 -89.478615 190.164902
   vertex 172.861496 -89.478615 191.734863
   vertex 192.478500 -89.478615 191.734894
  endloop
 endfacet
 facet normal -0.000002 -0.000000 1.000000
  outer loop
   vertex 192.478500 -89.478615 191.734894
   vertex 172.861496 -89.478615 191.734863
   vertex 192.478500 -89.549232 191.734894
  endloop
 endfacet
 facet normal 0.000000 0.000000 1.000000
  outer loop
   vertex 194.448044 -88.249992 191.199905
   vertex 194.031067 -87.499992 191.199905
   vertex 194.031067 -88.499992 191.199905
  endloop
 endfacet
 facet normal -1.000000 -0.000000 -0.000000
  outer loop
   vertex 194.031067 -88.499992 191.199905
   vertex 194.031067 -87.499992 191.199905
   vertex 194.031067 -88.499992 190.699905
  endloop
 endfacet
 facet normal -0.000000 -1.000000 0.000000
  outer loop
   vertex 194.031067 -88.499992 190.699905
   vertex 194.381058 -88.499992 191.199905
   vertex 194.031067 -88.499992 191.199905
  endloop
 endfacet
 facet normal -0.000000 -1.000000 -0.000000
  outer loop
   vertex 194.381058 -88.499992 190.699905
   vertex 194.381058 -88.499992 191.199905
   vertex 194.031067 -88.499992 190.699905
  endloop
 endfacet
 facet normal 0.000000 1.000000 0.000000
  outer loop
   vertex 194.031067 -88.499992 190.699905
   vertex 194.381058 -88.499992 191.199905
   vertex 194.381058 -88.499992 190.699905
  endloop
 endfacet
 facet normal -0.000000 -0.000000 -1.000000
  outer loop
   vertex 194.381058 -88.499992 190.699905
   vertex 194.448044 -88.749992 190.699905
   vertex 194.031067 -88.499992 190.699905
  endloop
 endfacet
 facet normal -0.000000 0.000000 -1.000000
  outer loop
   vertex 194.031067 -88.499992 190.699905
   vertex 194.448044 -88.749992 190.699905
   vertex 194.144943 -88.924995 190.699905
  endloop
 endfacet
 facet normal -0.000000 -0.000000 -1.000000
  outer loop
   vertex 194.144943 -88.924995 190.699905
   vertex 194.448044 -88.749992 190.699905
   vertex 194.631058 -88.933006 190.699905
  endloop
 endfacet
 facet normal 0.000000 0.000000 -1.000000
  outer loop
   vertex 194.631058 -88.933006 190.699905
   vertex 194.456070 -89.236115 190.699905
   vertex 194.144943 -88.924995 190.699905
  endloop
 endfacet
 facet normal -0.000000 -0.000000 -1.000000
  outer loop
   vertex 194.881058 -88.999992 190.699905
   vertex 194.456070 -89.236115 190.699905
   vertex 194.631058 -88.933006 190.699905
  endloop
 endfacet
 facet normal 0.000000 0.000000 -1.000000
  outer loop
   vertex 194.881058 -89.349991 190.699905
   vertex 194.456070 -89.236115 190.699905
   vertex 194.881058 -88.999992 190.699905
  endloop
 endfacet
 facet normal -0.000000 -0.000000 -1.000000
  outer loop
   vertex 194.881058 -88.999992 190.699905
   vertex 195.131058 -88.933006 190.699905
   vertex 194.881058 -89.349991 190.699905
  endloop
 endfacet
 facet normal 0.000000 -0.000000 -1.000000
  outer loop
   vertex 194.881058 -89.349991 190.699905
   vertex 195.131058 -88.933006 190.699905
   vertex 195.306061 -89.236115 190.699905
  endloop
 endfacet
 facet normal 0.000000 -0.000000 -1.000000
  outer loop
   vertex 195.306061 -89.236115 190.699905
   vertex 195.131058 -88.933006 190.699905
   vertex 195.314072 -88.749992 190.699905
  endloop
 endfacet
 facet normal -0.000000 0.000000 -1.000000
  outer loop
   vertex 195.314072 -88.749992 190.699905
   vertex 195.617188 -88.924995 190.699905
   vertex 195.306061 -89.236115 190.699905
  endloop
 endfacet
 facet normal -0.000000 -0.000000 -1.000000
  outer loop
   vertex 195.381058 -88.499992 190.699905
   vertex 195.617188 -88.924995 190.699905
   vertex 195.314072 -88.749992 190.699905
  endloop
 endfacet
 facet normal 0.000000 0.000000 -1.000000
  outer loop
   vertex 195.731064 -88.499992 190.699905
   vertex 195.617188 -88.924995 190.699905
   vertex 195.381058 -88.499992 190.699905
  endloop
 endfacet
 facet normal -0.000000 -0.000000 -1.000000
  outer loop
   vertex 195.381058 -88.499992 190.699905
   vertex 195.314072 -88.249992 190.699905
   vertex 195.731064 -88.499992 190.699905
  endloop
 endfacet
 facet normal 0.000000 0.000000 -1.000000
  outer loop
   vertex 195.731064 -88.499992 190.699905
   vertex 195.314072 -88.249992 190.699905
   vertex 195.731064 -87.499992 190.699905
  endloop
 endfacet
 facet normal -0.000000 0.000000 -1.000000
  outer loop
   vertex 195.731064 -87.499992 190.699905
   vertex 195.314072 -88.249992 190.699905
   vertex 195.131058 -88.066978 190.699905
  endloop
 endfacet
 facet normal 0.000000 0.000000 -1.000000
  outer loop
   vertex 195.131058 -88.066978 190.699905
   vertex 194.881058 -87.999992 190.699905
   vertex 195.731064 -87.499992 190.699905
  endloop
 endfacet
 facet normal 0.000000 -0.000000 -1.000000
  outer loop
   vertex 170.891953 -88.249992 190.699875
   vertex 171.308929 -87.499992 190.699875
   vertex 171.308929 -88.499992 190.699875
  endloop
 endfacet
 facet normal 1.000000 -0.000000 -0.000000
  outer loop
   vertex 171.308929 -88.499992 190.699875
   vertex 171.308929 -87.499992 190.699875
   vertex 171.308929 -88.499992 191.199875
  endloop
 endfacet
 facet normal 0.000000 -1.000000 0.000000
  outer loop
   vertex 171.308929 -88.499992 191.199875
   vertex 170.958939 -88.499992 190.699875
   vertex 171.308929 -88.499992 190.699875
  endloop
 endfacet
 facet normal -0.000000 -1.000000 -0.000000
  outer loop
   vertex 170.958939 -88.499992 191.199875
   vertex 170.958939 -88.499992 190.699875
   vertex 171.308929 -88.499992 191.199875
  endloop
 endfacet
 facet normal 0.000000 1.000000 0.000000
  outer loop
   vertex 171.308929 -88.499992 191.199875
   vertex 170.958939 -88.499992 190.699875
   vertex 170.958939 -88.499992 191.199875
  endloop
 endfacet
 facet normal -0.000000 -0.000000 1.000000
  outer loop
   vertex 170.958939 -88.499992 191.199875
   vertex 170.891953 -88.749992 191.199875
   vertex 171.308929 -88.499992 191.199875
  endloop
 endfacet
 facet normal -0.000000 0.000000 1.000000
  outer loop
   vertex 171.308929 -88.499992 191.199875
   vertex 170.891953 -88.749992 191.199875
   vertex 171.195053 -88.924995 191.199875
  endloop
 endfacet
 facet normal -0.000000 0.000000 1.000000
  outer loop
   vertex 171.195053 -88.924995 191.199875
   vertex 170.891953 -88.749992 191.199875
   vertex 170.708939 -88.933006 191.199875
  endloop
 endfacet
 facet normal 0.000000 -0.000000 1.000000
  outer loop
   vertex 170.708939 -88.933006 191.199875
   vertex 170.883926 -89.236115 191.199875
   vertex 171.195053 -88.924995 191.199875
  endloop
 endfacet
 facet normal -0.000000 -0.000000 1.000000
  outer loop
   vertex 170.458939 -88.999992 191.199875
   vertex 170.883926 -89.236115 191.199875
   vertex 170.708939 -88.933006 191.199875
  endloop
 endfacet
 facet normal 0.000000 0.000000 1.000000
  outer loop
   vertex 170.458939 -89.349991 191.199875
   vertex 170.883926 -89.236115 191.199875
   vertex 170.458939 -88.999992 191.199875
  endloop
 endfacet
 facet normal -0.000000 -0.000000 1.000000
  outer loop
   vertex 170.458939 -88.999992 191.199875
   vertex 170.208939 -88.933006 191.199875
   vertex 170.458939 -89.349991 191.199875
  endloop
 endfacet
 facet normal 0.000000 0.000000 1.000000
  outer loop
   vertex 170.458939 -89.349991 191.199875
   vertex 170.208939 -88.933006 191.199875
   vertex 170.033936 -89.236115 191.199875
  endloop
 endfacet
 facet normal 0.000000 -0.000000 1.000000
  outer loop
   vertex 170.033936 -89.236115 191.199875
   vertex 170.208939 -88.933006 191.199875
   vertex 170.025925 -88.749992 191.199875
  endloop
 endfacet
 facet normal -0.000000 0.000000 1.000000
  outer loop
   vertex 170.025925 -88.749992 191.199875
   vertex 169.722809 -88.924995 191.199875
   vertex 170.033936 -89.236115 191.199875
  endloop
 endfacet
 facet normal -0.000000 -0.000000 1.000000
  outer loop
   vertex 169.958939 -88.499992 191.199875
   vertex 169.722809 -88.924995 191.199875
   vertex 170.025925 -88.749992 191.199875
  endloop
 endfacet
 facet normal 0.000000 -0.000000 1.000000
  outer loop
   vertex 169.608932 -88.499992 191.199875
   vertex 169.722809 -88.924995 191.199875
   vertex 169.958939 -88.499992 191.199875
  endloop
 endfacet
 facet normal -0.000000 -0.000000 1.000000
  outer loop
   vertex 169.958939 -88.499992 191.199875
   vertex 170.025925 -88.249992 191.199875
   vertex 169.608932 -88.499992 191.199875
  endloop
 endfacet
 facet normal 0.000000 0.000000 1.000000
  outer loop
   vertex 169.608932 -88.499992 191.199875
   vertex 170.025925 -88.249992 191.199875
   vertex 169.608932 -87.499992 191.199875
  endloop
 endfacet
 facet normal -0.000000 -0.000000 1.000000
  outer loop
   vertex 169.608932 -87.499992 191.199875
   vertex 170.025925 -88.249992 191.199875
   vertex 170.208939 -88.066978 191.199875
  endloop
 endfacet
 facet normal 0.000000 0.000000 1.000000
  outer loop
   vertex 170.208939 -88.066978 191.199875
   vertex 170.458939 -87.999992 191.199875
   vertex 169.608932 -87.499992 191.199875
  endloop
 endfacet
 facet normal 0.000000 0.455413 -0.890280
  outer loop
   vertex 172.450348 -89.465263 190.118362
   vertex 172.450348 -88.974007 190.369659
   vertex 173.609070 -89.465263 190.118362
  endloop
 endfacet
 facet normal -0.000000 0.455413 -0.890280
  outer loop
   vertex 173.609070 -89.465263 190.118362
   vertex 172.450348 -88.974007 190.369659
   vertex 173.609070 -88.974007 190.369659
  endloop
 endfacet
 facet normal 1.000000 0.000000 0.000000
  outer loop
   vertex 173.609070 -88.974007 190.369659
   vertex 173.609070 -88.974007 191.530090
   vertex 173.609070 -89.465263 190.118362
  endloop
 endfacet
 facet normal -0.000000 1.000000 0.000000
  outer loop
   vertex 172.450348 -88.974007 190.369659
   vertex 173.609070 -88.974007 191.530090
   vertex 173.609070 -88.974007 190.369659
  endloop
 endfacet
 facet normal 0.000000 1.000000 0.000000
  outer loop
   vertex 172.450348 -88.974007 191.530090
   vertex 173.609070 -88.974007 191.530090
   vertex 172.450348 -88.974007 190.369659
  endloop
 endfacet
 facet normal -1.000000 -0.000000 -0.000000
  outer loop
   vertex 172.450348 -88.974007 190.369659
   vertex 172.450348 -89.465263 191.781387
   vertex 172.450348 -88.974007 191.530090
  endloop
 endfacet
 facet normal 0.000000 0.455413 0.890280
  outer loop
   vertex 172.450348 -88.974007 191.530090
   vertex 172.450348 -89.465263 191.781387
   vertex 173.609070 -88.974007 191.530090
  endloop
 endfacet
 facet normal -0.000000 0.455413 0.890280
  outer loop
   vertex 173.609070 -88.974007 191.530090
   vertex 172.450348 -89.465263 191.781387
   vertex 173.609070 -89.465263 191.781387
  endloop
 endfacet
 facet normal 1.000000 0.000000 0.000000
  outer loop
   vertex 173.609070 -89.465263 191.781387
   vertex 173.609070 -89.465263 190.118362
   vertex 173.609070 -88.974007 191.530090
  endloop
 endfacet
 facet normal 1.000000 -0.000000 -0.000000
  outer loop
   vertex 173.609070 -90.291313 191.543640
   vertex 173.609070 -89.465263 190.118362
   vertex 173.609070 -89.465263 191.781387
  endloop
 endfacet
 facet normal 1.000000 0.000000 0.000000
  outer loop
   vertex 173.609070 -90.291313 190.356110
   vertex 173.609070 -89.465263 190.118362
   vertex 173.609070 -90.291313 191.543640
  endloop
 endfacet
 facet normal -0.000000 -1.000000 -0.000000
  outer loop
   vertex 173.609070 -90.291313 191.543640
   vertex 172.450348 -90.291313 190.356110
   vertex 173.609070 -90.291313 190.356110
  endloop
 endfacet
 facet normal 0.000000 -0.147413 0.989075
  outer loop
   vertex 173.609070 -90.291313 190.356110
   vertex 172.450348 -90.291313 190.356110
   vertex 173.609070 -90.390007 190.341400
  endloop
 endfacet
 facet normal -0.000000 -0.147413 0.989075
  outer loop
   vertex 173.609070 -90.390007 190.341400
   vertex 172.450348 -90.291313 190.356110
   vertex 172.450348 -90.390007 190.341400
  endloop
 endfacet
 facet normal 0.000000 -1.000000 0.000000
  outer loop
   vertex 172.450348 -90.390007 190.341400
   vertex 173.609070 -90.390007 190.182449
   vertex 173.609070 -90.390007 190.341400
  endloop
 endfacet
 facet normal -0.000000 -1.000000 -0.000000
  outer loop
   vertex 172.450348 -90.390007 190.182434
   vertex 173.609070 -90.390007 190.182449
   vertex 172.450348 -90.390007 190.341400
  endloop
 endfacet
 facet normal 0.000010 -0.610533 -0.791991
  outer loop
   vertex 172.450348 -90.306892 190.118362
   vertex 173.609070 -90.390007 190.182449
   vertex 172.450348 -90.390007 190.182434
  endloop
 endfacet
 facet normal -1.000000 -0.000000 -0.000000
  outer loop
   vertex 172.450348 -90.390007 190.182434
   vertex 172.450348 -90.291313 190.356110
   vertex 172.450348 -90.306892 190.118362
  endloop
 endfacet
 facet normal -1.000000 0.000000 -0.000000
  outer loop
   vertex 172.450348 -90.306892 190.118362
   vertex 172.450348 -90.291313 190.356110
   vertex 172.450348 -89.465263 190.118362
  endloop
 endfacet
 facet normal -1.000000 0.000000 -0.000000
  outer loop
   vertex 172.450348 -89.465263 190.118362
   vertex 172.450348 -90.291313 190.356110
   vertex 172.450348 -90.291313 191.543640
  endloop
 endfacet
 facet normal -1.000000 0.000000 -0.000000
  outer loop
   vertex 172.450348 -90.291313 191.543640
   vertex 172.450348 -89.465263 191.781387
   vertex 172.450348 -89.465263 190.118362
  endloop
 endfacet
 facet normal -1.000000 -0.000000 -0.000000
  outer loop
   vertex 172.450348 -90.306892 191.781387
   vertex 172.450348 -89.465263 191.781387
   vertex 172.450348 -90.291313 191.543640
  endloop
 endfacet
 facet normal -0.000000 0.000000 1.000000
  outer loop
   vertex 173.609070 -89.465263 191.781387
   vertex 172.450348 -89.465263 191.781387
   vertex 172.450348 -90.306892 191.781387
  endloop
 endfacet
 facet normal -0.000000 -0.000000 1.000000
  outer loop
   vertex 172.450348 -90.306892 191.781387
   vertex 173.609070 -90.306892 191.781387
   vertex 173.609070 -89.465263 191.781387
  endloop
 endfacet
 facet normal 1.000000 -0.000000 0.000000
  outer loop
   vertex 173.609070 -89.465263 191.781387
   vertex 173.609070 -90.306892 191.781387
   vertex 173.609070 -90.291313 191.543640
  endloop
 endfacet
 facet normal 1.000000 -0.000000 0.000000
  outer loop
   vertex 173.609070 -90.291313 191.543640
   vertex 173.609070 -90.306892 191.781387
   vertex 173.609070 -90.390007 191.717316
  endloop
 endfacet
 facet normal 1.000000 -0.000000 0.000000
  outer loop
   vertex 173.609070 -90.390007 191.717316
   vertex 173.609070 -90.390007 191.558350
   vertex 173.609070 -90.291313 191.543640
  endloop
 endfacet
 facet normal -0.000000 -1.000000 0.000000
  outer loop
   vertex 172.450348 -90.390007 191.558350
   vertex 173.609070 -90.390007 191.558350
   vertex 173.609070 -90.390007 191.717316
  endloop
 endfacet
 facet normal -0.000000 -0.147413 -0.989075
  outer loop
   vertex 173.609070 -90.291313 191.543640
   vertex 173.609070 -90.390007 191.558350
   vertex 172.450348 -90.390007 191.558350
  endloop
 endfacet
 facet normal 0.000000 -0.147413 -0.989075
  outer loop
   vertex 172.450348 -90.390007 191.558350
   vertex 172.450348 -90.291313 191.543640
   vertex 173.609070 -90.291313 191.543640
  endloop
 endfacet
 facet normal 0.000000 -1.000000 0.000000
  outer loop
   vertex 173.609070 -90.291313 191.543640
   vertex 172.450348 -90.291313 191.543640
   vertex 172.450348 -90.291313 190.356110
  endloop
 endfacet
 facet normal -0.000012 0.455435 0.890269
  outer loop
   vertex 192.889648 -89.465263 191.781418
   vertex 192.889648 -88.974007 191.530106
   vertex 191.730927 -89.465263 191.781403
  endloop
 endfacet
 facet normal 0.000000 0.455413 0.890280
  outer loop
   vertex 191.730927 -89.465263 191.781403
   vertex 192.889648 -88.974007 191.530106
   vertex 191.730927 -88.974007 191.530106
  endloop
 endfacet
 facet normal -1.000000 0.000000 0.000000
  outer loop
   vertex 191.730927 -88.974007 191.530106
   vertex 191.730927 -88.974007 190.369690
   vertex 191.730927 -89.465263 191.781403
  endloop
 endfacet
 facet normal -0.000000 1.000000 -0.000000
  outer loop
   vertex 192.889648 -88.974007 191.530106
   vertex 191.730927 -88.974007 190.369690
   vertex 191.730927 -88.974007 191.530106
  endloop
 endfacet
 facet normal 0.000000 1.000000 0.000000
  outer loop
   vertex 192.889648 -88.974007 190.369690
   vertex 191.730927 -88.974007 190.369690
   vertex 192.889648 -88.974007 191.530106
  endloop
 endfacet
 facet normal 1.000000 -0.000000 -0.000000
  outer loop
   vertex 192.889648 -88.974007 191.530106
   vertex 192.889648 -89.465263 190.118393
   vertex 192.889648 -88.974007 190.369690
  endloop
 endfacet
 facet normal 0.000000 0.455413 -0.890280
  outer loop
   vertex 192.889648 -88.974007 190.369690
   vertex 192.889648 -89.465263 190.118393
   vertex 191.730927 -88.974007 190.369690
  endloop
 endfacet
 facet normal -0.000000 0.455413 -0.890280
  outer loop
   vertex 191.730927 -88.974007 190.369690
   vertex 192.889648 -89.465263 190.118393
   vertex 191.730927 -89.465263 190.118393
  endloop
 endfacet
 facet normal -1.000000 0.000000 0.000000
  outer loop
   vertex 191.730927 -89.465263 190.118393
   vertex 191.730927 -89.465263 191.781403
   vertex 191.730927 -88.974007 190.369690
  endloop
 endfacet
 facet normal -1.000000 -0.000000 -0.000000
  outer loop
   vertex 191.730927 -90.291313 190.356140
   vertex 191.730927 -89.465263 191.781403
   vertex 191.730927 -89.465263 190.118393
  endloop
 endfacet
 facet normal -1.000000 0.000000 0.000000
  outer loop
   vertex 191.730927 -90.291313 191.543655
   vertex 191.730927 -89.465263 191.781403
   vertex 191.730927 -90.291313 190.356140
  endloop
 endfacet
 facet normal -0.000000 -1.000000 -0.000000
  outer loop
   vertex 191.730927 -90.291313 190.356140
   vertex 192.889648 -90.291313 191.543655
   vertex 191.730927 -90.291313 191.543655
  endloop
 endfacet
 facet normal -0.000000 -0.147413 -0.989075
  outer loop
   vertex 191.730927 -90.291313 191.543655
   vertex 192.889648 -90.291313 191.543655
   vertex 191.730927 -90.390007 191.558365
  endloop
 endfacet
 facet normal -0.000000 -0.147413 -0.989075
  outer loop
   vertex 191.730927 -90.390007 191.558365
   vertex 192.889648 -90.291313 191.543655
   vertex 192.889648 -90.390007 191.558365
  endloop
 endfacet
 facet normal 0.000000 -1.000000 0.000000
  outer loop
   vertex 192.889648 -90.390007 191.558365
   vertex 191.730927 -90.390007 191.717331
   vertex 191.730927 -90.390007 191.558365
  endloop
 endfacet
 facet normal 0.000000 -1.000000 -0.000000
  outer loop
   vertex 192.889648 -90.390007 191.717331
   vertex 191.730927 -90.390007 191.717331
   vertex 192.889648 -90.390007 191.558365
  endloop
 endfacet
 facet normal 0.000000 -0.610533 0.791991
  outer loop
   vertex 192.889648 -90.306892 191.781403
   vertex 191.730927 -90.390007 191.717331
   vertex 192.889648 -90.390007 191.717331
  endloop
 endfacet
 facet normal 1.000000 -0.000000 -0.000000
  outer loop
   vertex 192.889648 -90.390007 191.717331
   vertex 192.889648 -90.291313 191.543655
   vertex 192.889648 -90.306892 191.781403
  endloop
 endfacet
 facet normal 1.000000 0.000000 -0.000000
  outer loop
   vertex 192.889648 -90.306892 191.781403
   vertex 192.889648 -90.291313 191.543655
   vertex 192.889648 -89.465263 191.781418
  endloop
 endfacet
 facet normal 1.000000 -0.000000 -0.000000
  outer loop
   vertex 192.889648 -89.465263 191.781418
   vertex 192.889648 -90.291313 191.543655
   vertex 192.889648 -90.291313 190.356140
  endloop
 endfacet
 facet normal 1.000000 0.000000 -0.000000
  outer loop
   vertex 192.889648 -90.291313 190.356140
   vertex 192.889648 -89.465263 190.118393
   vertex 192.889648 -89.465263 191.781418
  endloop
 endfacet
 facet normal 1.000000 -0.000000 -0.000000
  outer loop
   vertex 192.889648 -90.306892 190.118393
   vertex 192.889648 -89.465263 190.118393
   vertex 192.889648 -90.291313 190.356140
  endloop
 endfacet
 facet normal -0.000000 -0.000000 -1.000000
  outer loop
   vertex 191.730927 -89.465263 190.118393
   vertex 192.889648 -89.465263 190.118393
   vertex 192.889648 -90.306892 190.118393
  endloop
 endfacet
 facet normal -0.000000 -0.000000 -1.000000
  outer loop
   vertex 192.889648 -90.306892 190.118393
   vertex 191.730927 -90.306892 190.118393
   vertex 191.730927 -89.465263 190.118393
  endloop
 endfacet
 facet normal -1.000000 0.000000 0.000000
  outer loop
   vertex 191.730927 -89.465263 190.118393
   vertex 191.730927 -90.306892 190.118393
   vertex 191.730927 -90.291313 190.356140
  endloop
 endfacet
 facet normal -1.000000 -0.000000 0.000000
  outer loop
   vertex 191.730927 -90.291313 190.356140
   vertex 191.730927 -90.306892 190.118393
   vertex 191.730927 -90.390007 190.182465
  endloop
 endfacet
 facet normal -1.000000 0.000000 0.000000
  outer loop
   vertex 191.730927 -90.390007 190.182465
   vertex 191.730927 -90.390007 190.341431
   vertex 191.730927 -90.291313 190.356140
  endloop
 endfacet
 facet normal 0.000000 -1.000000 -0.000000
  outer loop
   vertex 192.889648 -90.390007 190.341431
   vertex 191.730927 -90.390007 190.341431
   vertex 191.730927 -90.390007 190.182465
  endloop
 endfacet
 facet normal 0.000000 -0.147413 0.989075
  outer loop
   vertex 191.730927 -90.291313 190.356140
   vertex 191.730927 -90.390007 190.341431
   vertex 192.889648 -90.390007 190.341431
  endloop
 endfacet
 facet normal -0.000000 -0.147413 0.989075
  outer loop
   vertex 192.889648 -90.390007 190.341431
   vertex 192.889648 -90.291313 190.356140
   vertex 191.730927 -90.291313 190.356140
  endloop
 endfacet
 facet normal 0.000000 -1.000000 0.000000
  outer loop
   vertex 191.730927 -90.291313 190.356140
   vertex 192.889648 -90.291313 190.356140
   vertex 192.889648 -90.291313 191.543655
  endloop
 endfacet
 facet normal -0.000000 0.000000 -1.000000
  outer loop
   vertex 170.958939 -88.499992 190.699875
   vertex 171.308929 -88.499992 190.699875
   vertex 170.891953 -88.749992 190.699875
  endloop
 endfacet
 facet normal -0.000000 -0.000000 -1.000000
  outer loop
   vertex 170.891953 -88.749992 190.699875
   vertex 171.308929 -88.499992 190.699875
   vertex 171.195053 -88.924995 190.699875
  endloop
 endfacet
 facet normal 0.000000 0.000000 -1.000000
  outer loop
   vertex 171.195053 -88.924995 190.699875
   vertex 170.708939 -88.933006 190.699875
   vertex 170.891953 -88.749992 190.699875
  endloop
 endfacet
 facet normal 0.000000 -0.000000 -1.000000
  outer loop
   vertex 170.883942 -89.236115 190.699875
   vertex 170.708939 -88.933006 190.699875
   vertex 171.195053 -88.924995 190.699875
  endloop
 endfacet
 facet normal 0.000000 -0.000000 -1.000000
  outer loop
   vertex 170.458939 -88.999992 190.699875
   vertex 170.708939 -88.933006 190.699875
   vertex 170.883942 -89.236115 190.699875
  endloop
 endfacet
 facet normal -0.000000 -0.000000 -1.000000
  outer loop
   vertex 170.883942 -89.236115 190.699875
   vertex 170.458939 -89.349991 190.699875
   vertex 170.458939 -88.999992 190.699875
  endloop
 endfacet
 facet normal 0.000000 0.000000 -1.000000
  outer loop
   vertex 170.458939 -88.999992 190.699875
   vertex 170.458939 -89.349991 190.699875
   vertex 170.208939 -88.933006 190.699875
  endloop
 endfacet
 facet normal -0.000000 -0.000000 -1.000000
  outer loop
   vertex 170.208939 -88.933006 190.699875
   vertex 170.458939 -89.349991 190.699875
   vertex 170.033936 -89.236115 190.699875
  endloop
 endfacet
 facet normal 0.000000 0.000000 -1.000000
  outer loop
   vertex 170.033936 -89.236115 190.699875
   vertex 170.025925 -88.749992 190.699875
   vertex 170.208939 -88.933006 190.699875
  endloop
 endfacet
 facet normal -0.000000 -0.000000 -1.000000
  outer loop
   vertex 169.722809 -88.924995 190.699875
   vertex 170.025925 -88.749992 190.699875
   vertex 170.033936 -89.236115 190.699875
  endloop
 endfacet
 facet normal -0.000000 0.000000 -1.000000
  outer loop
   vertex 169.958939 -88.499992 190.699875
   vertex 170.025925 -88.749992 190.699875
   vertex 169.722809 -88.924995 190.699875
  endloop
 endfacet
 facet normal 0.000000 -0.000000 -1.000000
  outer loop
   vertex 169.722809 -88.924995 190.699875
   vertex 169.608932 -88.499992 190.699875
   vertex 169.958939 -88.499992 190.699875
  endloop
 endfacet
 facet normal 0.000000 0.000000 -1.000000
  outer loop
   vertex 169.958939 -88.499992 190.699875
   vertex 169.608932 -88.499992 190.699875
   vertex 170.025925 -88.249992 190.699875
  endloop
 endfacet
 facet normal -0.000000 -0.000000 -1.000000
  outer loop
   vertex 170.025925 -88.249992 190.699875
   vertex 169.608932 -88.499992 190.699875
   vertex 169.608932 -87.499992 190.699875
  endloop
 endfacet
 facet normal -0.000000 0.000000 -1.000000
  outer loop
   vertex 169.608932 -87.499992 190.699875
   vertex 170.208939 -88.066978 190.699875
   vertex 170.025925 -88.249992 190.699875
  endloop
 endfacet
 facet normal -0.000000 0.000000 -1.000000
  outer loop
   vertex 170.458939 -87.999992 190.699875
   vertex 170.208939 -88.066978 190.699875
   vertex 169.608932 -87.499992 190.699875
  endloop
 endfacet
 facet normal -0.000000 0.000000 1.000000
  outer loop
   vertex 194.381058 -88.499992 191.199905
   vertex 194.031067 -88.499992 191.199905
   vertex 194.448044 -88.749992 191.199905
  endloop
 endfacet
 facet normal -0.000000 -0.000000 1.000000
  outer loop
   vertex 194.448044 -88.749992 191.199905
   vertex 194.031067 -88.499992 191.199905
   vertex 194.144943 -88.924995 191.199905
  endloop
 endfacet
 facet normal 0.000000 0.000000 1.000000
  outer loop
   vertex 194.144943 -88.924995 191.199905
   vertex 194.631058 -88.933006 191.199905
   vertex 194.448044 -88.749992 191.199905
  endloop
 endfacet
 facet normal 0.000000 -0.000000 1.000000
  outer loop
   vertex 194.456055 -89.236115 191.199905
   vertex 194.631058 -88.933006 191.199905
   vertex 194.144943 -88.924995 191.199905
  endloop
 endfacet
 facet normal 0.000000 0.000000 1.000000
  outer loop
   vertex 194.881058 -88.999992 191.199905
   vertex 194.631058 -88.933006 191.199905
   vertex 194.456055 -89.236115 191.199905
  endloop
 endfacet
 facet normal -0.000000 -0.000000 1.000000
  outer loop
   vertex 194.456055 -89.236115 191.199905
   vertex 194.881058 -89.349991 191.199905
   vertex 194.881058 -88.999992 191.199905
  endloop
 endfacet
 facet normal 0.000000 0.000000 1.000000
  outer loop
   vertex 194.881058 -88.999992 191.199905
   vertex 194.881058 -89.349991 191.199905
   vertex 195.131058 -88.933006 191.199905
  endloop
 endfacet
 facet normal -0.000000 -0.000000 1.000000
  outer loop
   vertex 195.131058 -88.933006 191.199905
   vertex 194.881058 -89.349991 191.199905
   vertex 195.306061 -89.236115 191.199905
  endloop
 endfacet
 facet normal 0.000000 0.000000 1.000000
  outer loop
   vertex 195.306061 -89.236115 191.199905
   vertex 195.314072 -88.749992 191.199905
   vertex 195.131058 -88.933006 191.199905
  endloop
 endfacet
 facet normal -0.000000 0.000000 1.000000
  outer loop
   vertex 195.617188 -88.924995 191.199905
   vertex 195.314072 -88.749992 191.199905
   vertex 195.306061 -89.236115 191.199905
  endloop
 endfacet
 facet normal -0.000000 0.000000 1.000000
  outer loop
   vertex 195.381058 -88.499992 191.199905
   vertex 195.314072 -88.749992 191.199905
   vertex 195.617188 -88.924995 191.199905
  endloop
 endfacet
 facet normal 0.000000 -0.000000 1.000000
  outer loop
   vertex 195.617188 -88.924995 191.199905
   vertex 195.731064 -88.499992 191.199905
   vertex 195.381058 -88.499992 191.199905
  endloop
 endfacet
 facet normal 0.000000 0.000000 1.000000
  outer loop
   vertex 195.381058 -88.499992 191.199905
   vertex 195.731064 -88.499992 191.199905
   vertex 195.314072 -88.249992 191.199905
  endloop
 endfacet
 facet normal -0.000000 -0.000000 1.000000
  outer loop
   vertex 195.314072 -88.249992 191.199905
   vertex 195.731064 -88.499992 191.199905
   vertex 195.731064 -87.499992 191.199905
  endloop
 endfacet
 facet normal -0.000000 0.000000 1.000000
  outer loop
   vertex 195.731064 -87.499992 191.199905
   vertex 195.131058 -88.066978 191.199905
   vertex 195.314072 -88.249992 191.199905
  endloop
 endfacet
 facet normal -0.000000 -0.000000 1.000000
  outer loop
   vertex 194.881058 -87.999992 191.199905
   vertex 195.131058 -88.066978 191.199905
   vertex 195.731064 -87.499992 191.199905
  endloop
 endfacet
 facet normal 0.000000 -0.000000 1.000000
  outer loop
   vertex 169.608932 -87.499992 191.199875
   vertex 170.458939 -87.999992 191.199875
   vertex 171.308929 -87.499992 191.199875
  endloop
 endfacet
 facet normal -0.000000 -0.000000 1.000000
  outer loop
   vertex 171.308929 -87.499992 191.199875
   vertex 170.458939 -87.999992 191.199875
   vertex 170.708939 -88.066978 191.199875
  endloop
 endfacet
 facet normal 0.000000 -0.000000 1.000000
  outer loop
   vertex 170.708939 -88.066978 191.199875
   vertex 170.891953 -88.249992 191.199875
   vertex 171.308929 -87.499992 191.199875
  endloop
 endfacet
 facet normal 0.000000 0.000000 1.000000
  outer loop
   vertex 194.448044 -88.249992 191.199905
   vertex 194.631058 -88.066978 191.199905
   vertex 194.031067 -87.499992 191.199905
  endloop
 endfacet
 facet normal -0.000000 -0.000000 1.000000
  outer loop
   vertex 194.031067 -87.499992 191.199905
   vertex 194.631058 -88.066978 191.199905
   vertex 194.881058 -87.999992 191.199905
  endloop
 endfacet
 facet normal 0.000000 0.000000 1.000000
  outer loop
   vertex 194.881058 -87.999992 191.199905
   vertex 195.731064 -87.499992 191.199905
   vertex 194.031067 -87.499992 191.199905
  endloop
 endfacet
 facet normal 0.000000 0.000000 -1.000000
  outer loop
   vertex 195.731064 -87.499992 190.699905
   vertex 194.881058 -87.999992 190.699905
   vertex 194.031067 -87.499992 190.699905
  endloop
 endfacet
 facet normal -0.000000 -0.000000 -1.000000
  outer loop
   vertex 194.031067 -87.499992 190.699905
   vertex 194.881058 -87.999992 190.699905
   vertex 194.631058 -88.066978 190.699905
  endloop
 endfacet
 facet normal 0.000000 0.000000 -1.000000
  outer loop
   vertex 194.631058 -88.066978 190.699905
   vertex 194.448044 -88.249992 190.699905
   vertex 194.031067 -87.499992 190.699905
  endloop
 endfacet
 facet normal 0.000000 0.000000 -1.000000
  outer loop
   vertex 170.891953 -88.249992 190.699875
   vertex 170.708939 -88.066978 190.699875
   vertex 171.308929 -87.499992 190.699875
  endloop
 endfacet
 facet normal -0.000000 0.000000 -1.000000
  outer loop
   vertex 171.308929 -87.499992 190.699875
   vertex 170.708939 -88.066978 190.699875
   vertex 170.458939 -87.999992 190.699875
  endloop
 endfacet
 facet normal 0.000000 0.000000 -1.000000
  outer loop
   vertex 170.458939 -87.999992 190.699875
   vertex 169.608932 -87.499992 190.699875
   vertex 171.308929 -87.499992 190.699875
  endloop
 endfacet
 facet normal 0.000000 -0.610533 -0.791991
  outer loop
   vertex 192.889648 -90.306892 190.118393
   vertex 192.889648 -90.390007 190.182465
   vertex 191.730927 -90.306892 190.118393
  endloop
 endfacet
 facet normal -0.000000 -0.610533 -0.791991
  outer loop
   vertex 191.730927 -90.306892 190.118393
   vertex 192.889648 -90.390007 190.182465
   vertex 191.730927 -90.390007 190.182465
  endloop
 endfacet
 facet normal -0.000001 0.000000 1.000000
  outer loop
   vertex 172.861496 -89.562111 191.701355
   vertex 172.861496 -90.175644 191.701355
   vertex 192.478500 -89.562111 191.701370
  endloop
 endfacet
 facet normal -0.000001 -0.000000 1.000000
  outer loop
   vertex 192.478500 -89.562111 191.701370
   vertex 172.861496 -90.175644 191.701355
   vertex 192.478500 -90.175644 191.701370
  endloop
 endfacet
 facet normal 0.000000 -0.610533 0.791991
  outer loop
   vertex 173.609070 -90.390007 191.717316
   vertex 173.609070 -90.306892 191.781387
   vertex 172.450348 -90.390007 191.717316
  endloop
 endfacet
 facet normal -0.000000 -0.610533 0.791991
  outer loop
   vertex 172.450348 -90.390007 191.717316
   vertex 173.609070 -90.306892 191.781387
   vertex 172.450348 -90.306892 191.781387
  endloop
 endfacet
 facet normal 0.000000 -1.000000 0.000000
  outer loop
   vertex 195.381058 -88.499992 190.699905
   vertex 195.731064 -88.499992 190.699905
   vertex 195.556061 -88.499992 190.949905
  endloop
 endfacet
 facet normal 1.000000 0.000000 0.000000
  outer loop
   vertex 192.889648 -89.465263 191.781418
   vertex 192.889648 -89.465263 190.118393
   vertex 192.889648 -88.974007 191.530106
  endloop
 endfacet
 facet normal 0.000000 -0.000000 1.000000
  outer loop
   vertex 194.031067 -88.499992 191.199905
   vertex 194.381058 -88.499992 191.199905
   vertex 194.448044 -88.249992 191.199905
  endloop
 endfacet
 facet normal 0.000000 0.000000 1.000000
  outer loop
   vertex 170.958939 -88.499992 191.199875
   vertex 171.308929 -88.499992 191.199875
   vertex 170.891953 -88.249992 191.199875
  endloop
 endfacet
 facet normal -0.000000 1.000000 0.000000
  outer loop
   vertex 195.731064 -88.499992 190.699905
   vertex 195.381058 -88.499992 191.199905
   vertex 195.731064 -88.499992 191.199905
  endloop
 endfacet
 facet normal 0.000000 0.000000 -1.000000
  outer loop
   vertex 172.696625 -89.114990 190.392410
   vertex 171.048462 -89.114990 190.392410
   vertex 171.048462 -87.573936 190.392410
  endloop
 endfacet
 facet normal 0.000000 0.000000 1.000000
  outer loop
   vertex 192.643372 -87.573936 191.507370
   vertex 192.643372 -89.114990 191.507370
   vertex 194.291534 -87.573936 191.507370
  endloop
 endfacet
 facet normal 0.000000 1.000000 0.000000
  outer loop
   vertex 169.608932 -88.499992 191.199875
   vertex 169.958939 -88.499992 190.699875
   vertex 169.608932 -88.499992 190.699875
  endloop
 endfacet
 facet normal -1.000000 0.000000 0.000000
  outer loop
   vertex 172.450348 -90.390007 190.182434
   vertex 172.450348 -90.390007 190.341400
   vertex 172.450348 -90.291313 190.356110
  endloop
 endfacet
 facet normal 0.000000 1.000000 0.000000
  outer loop
   vertex 194.381058 -88.499992 191.199905
   vertex 194.031067 -88.499992 190.699905
   vertex 194.031067 -88.499992 191.199905
  endloop
 endfacet
 facet normal -1.000000 0.000000 0.000000
  outer loop
   vertex 172.450348 -89.465263 190.118362
   vertex 172.450348 -89.465263 191.781387
   vertex 172.450348 -88.974007 190.369659
  endloop
 endfacet
 facet normal 1.000000 -0.000000 0.000000
  outer loop
   vertex 192.889648 -90.390007 191.717331
   vertex 192.889648 -90.390007 191.558365
   vertex 192.889648 -90.291313 191.543655
  endloop
 endfacet
 facet normal 0.000009 0.000000 -1.000000
  outer loop
   vertex 192.643372 -89.114990 190.392426
   vertex 192.643372 -87.573936 190.392426
   vertex 194.291534 -87.573936 190.392441
  endloop
 endfacet
 facet normal 1.000000 0.000000 0.000000
  outer loop
   vertex 172.696625 -87.573936 190.392410
   vertex 172.696625 -87.573936 191.507339
   vertex 172.696625 -89.114990 191.507339
  endloop
 endfacet
 facet normal 0.000000 1.000000 0.000000
  outer loop
   vertex 170.958939 -88.499992 190.699875
   vertex 171.308929 -88.499992 191.199875
   vertex 171.308929 -88.499992 190.699875
  endloop
 endfacet
 facet normal 0.000000 0.000000 -1.000000
  outer loop
   vertex 171.308929 -88.499992 190.699875
   vertex 170.958939 -88.499992 190.699875
   vertex 170.891953 -88.249992 190.699875
  endloop
 endfacet
 facet normal -0.707107 -0.707107 0.000000
  outer loop
   vertex 170.708939 -88.066978 190.699875
   vertex 170.891953 -88.249992 191.199875
   vertex 170.708939 -88.066978 191.199875
  endloop
 endfacet
 facet normal -0.258815 -0.965927 -0.000000
  outer loop
   vertex 170.708939 -88.066978 190.699875
   vertex 170.708939 -88.066978 191.199875
   vertex 170.458939 -87.999992 190.699875
  endloop
 endfacet
 facet normal -0.258815 -0.965927 -0.000000
  outer loop
   vertex 170.458939 -87.999992 190.699875
   vertex 170.708939 -88.066978 191.199875
   vertex 170.458939 -87.999992 191.199875
  endloop
 endfacet
 facet normal 0.258815 -0.965927 0.000000
  outer loop
   vertex 170.458939 -87.999992 191.199875
   vertex 170.208939 -88.066978 190.699875
   vertex 170.458939 -87.999992 190.699875
  endloop
 endfacet
 facet normal 0.258815 -0.965927 -0.000000
  outer loop
   vertex 170.208939 -88.066978 191.199875
   vertex 170.208939 -88.066978 190.699875
   vertex 170.458939 -87.999992 191.199875
  endloop
 endfacet
 facet normal 0.707107 -0.707107 0.000000
  outer loop
   vertex 170.025925 -88.249992 190.699875
   vertex 170.208939 -88.066978 190.699875
   vertex 170.208939 -88.066978 191.199875
  endloop
 endfacet
 facet normal 0.707107 -0.707107 -0.000000
  outer loop
   vertex 170.208939 -88.066978 191.199875
   vertex 170.025925 -88.249992 191.199875
   vertex 170.025925 -88.249992 190.699875
  endloop
 endfacet
 facet normal 0.965927 -0.258815 0.000000
  outer loop
   vertex 170.025925 -88.249992 190.699875
   vertex 170.025925 -88.249992 191.199875
   vertex 169.958939 -88.499992 190.699875
  endloop
 endfacet
 facet normal -0.965927 -0.258815 -0.000000
  outer loop
   vertex 195.381058 -88.499992 190.699905
   vertex 195.381058 -88.499992 191.199905
   vertex 195.314072 -88.249992 190.699905
  endloop
 endfacet
 facet normal -0.965927 -0.258815 -0.000000
  outer loop
   vertex 195.314072 -88.249992 190.699905
   vertex 195.381058 -88.499992 191.199905
   vertex 195.314072 -88.249992 191.199905
  endloop
 endfacet
 facet normal -0.707107 -0.707107 0.000000
  outer loop
   vertex 195.314072 -88.249992 191.199905
   vertex 195.131058 -88.066978 190.699905
   vertex 195.314072 -88.249992 190.699905
  endloop
 endfacet
 facet normal -0.707107 -0.707107 0.000000
  outer loop
   vertex 195.131058 -88.066978 191.199905
   vertex 195.131058 -88.066978 190.699905
   vertex 195.314072 -88.249992 191.199905
  endloop
 endfacet
 facet normal -0.258815 -0.965927 0.000000
  outer loop
   vertex 194.881058 -87.999992 190.699905
   vertex 195.131058 -88.066978 190.699905
   vertex 195.131058 -88.066978 191.199905
  endloop
 endfacet
 facet normal -0.258815 -0.965927 -0.000000
  outer loop
   vertex 195.131058 -88.066978 191.199905
   vertex 194.881058 -87.999992 191.199905
   vertex 194.881058 -87.999992 190.699905
  endloop
 endfacet
 facet normal 0.258815 -0.965927 0.000000
  outer loop
   vertex 194.881058 -87.999992 190.699905
   vertex 194.881058 -87.999992 191.199905
   vertex 194.631058 -88.066978 190.699905
  endloop
 endfacet
 facet normal 0.258815 -0.965927 -0.000000
  outer loop
   vertex 194.631058 -88.066978 190.699905
   vertex 194.881058 -87.999992 191.199905
   vertex 194.631058 -88.066978 191.199905
  endloop
 endfacet
 facet normal 0.707107 -0.707107 0.000000
  outer loop
   vertex 194.631058 -88.066978 191.199905
   vertex 194.448044 -88.249992 190.699905
   vertex 194.631058 -88.066978 190.699905
  endloop
 endfacet
 facet normal 0.965927 -0.258813 0.000000
  outer loop
   vertex 171.308929 -88.499992 190.699875
   vertex 171.308929 -88.499992 191.199875
   vertex 171.195053 -88.924995 190.699875
  endloop
 endfacet
 facet normal 0.965927 -0.258813 -0.000000
  outer loop
   vertex 171.195053 -88.924995 190.699875
   vertex 171.308929 -88.499992 191.199875
   vertex 171.195053 -88.924995 191.199875
  endloop
 endfacet
 facet normal 0.707115 -0.707098 0.000000
  outer loop
   vertex 171.195053 -88.924995 191.199875
   vertex 170.883942 -89.236115 190.699875
   vertex 171.195053 -88.924995 190.699875
  endloop
 endfacet
 facet normal 0.707098 -0.707115 0.000022
  outer loop
   vertex 170.883926 -89.236115 191.199875
   vertex 170.883942 -89.236115 190.699875
   vertex 171.195053 -88.924995 191.199875
  endloop
 endfacet
 facet normal 0.258813 -0.965927 0.000008
  outer loop
   vertex 170.458939 -89.349991 190.699875
   vertex 170.883942 -89.236115 190.699875
   vertex 170.883926 -89.236115 191.199875
  endloop
 endfacet
 facet normal 0.258822 -0.965925 -0.000000
  outer loop
   vertex 170.883926 -89.236115 191.199875
   vertex 170.458939 -89.349991 191.199875
   vertex 170.458939 -89.349991 190.699875
  endloop
 endfacet
 facet normal -0.258813 -0.965927 -0.000000
  outer loop
   vertex 170.458939 -89.349991 190.699875
   vertex 170.458939 -89.349991 191.199875
   vertex 170.033936 -89.236115 190.699875
  endloop
 endfacet
 facet normal -0.258813 -0.965927 -0.000000
  outer loop
   vertex 170.033936 -89.236115 190.699875
   vertex 170.458939 -89.349991 191.199875
   vertex 170.033936 -89.236115 191.199875
  endloop
 endfacet
 facet normal -0.707098 -0.707115 0.000000
  outer loop
   vertex 170.033936 -89.236115 191.199875
   vertex 169.722809 -88.924995 190.699875
   vertex 170.033936 -89.236115 190.699875
  endloop
 endfacet
 facet normal -0.707098 -0.707115 0.000000
  outer loop
   vertex 169.722809 -88.924995 191.199875
   vertex 169.722809 -88.924995 190.699875
   vertex 170.033936 -89.236115 191.199875
  endloop
 endfacet
 facet normal -0.965927 -0.258813 0.000000
  outer loop
   vertex 169.608932 -88.499992 190.699875
   vertex 169.722809 -88.924995 190.699875
   vertex 169.722809 -88.924995 191.199875
  endloop
 endfacet
 facet normal -0.965927 -0.258813 -0.000000
  outer loop
   vertex 169.722809 -88.924995 191.199875
   vertex 169.608932 -88.499992 191.199875
   vertex 169.608932 -88.499992 190.699875
  endloop
 endfacet
 facet normal 0.965927 -0.258813 0.000000
  outer loop
   vertex 195.731064 -88.499992 190.699905
   vertex 195.731064 -88.499992 191.199905
   vertex 195.617188 -88.924995 190.699905
  endloop
 endfacet
 facet normal 0.965927 -0.258813 -0.000000
  outer loop
   vertex 195.617188 -88.924995 190.699905
   vertex 195.731064 -88.499992 191.199905
   vertex 195.617188 -88.924995 191.199905
  endloop
 endfacet
 facet normal 0.707098 -0.707115 0.000000
  outer loop
   vertex 195.617188 -88.924995 191.199905
   vertex 195.306061 -89.236115 190.699905
   vertex 195.617188 -88.924995 190.699905
  endloop
 endfacet
 facet normal 0.707098 -0.707115 -0.000000
  outer loop
   vertex 195.306061 -89.236115 191.199905
   vertex 195.306061 -89.236115 190.699905
   vertex 195.617188 -88.924995 191.199905
  endloop
 endfacet
 facet normal 0.258813 -0.965927 0.000000
  outer loop
   vertex 194.881058 -89.349991 190.699905
   vertex 195.306061 -89.236115 190.699905
   vertex 195.306061 -89.236115 191.199905
  endloop
 endfacet
 facet normal 0.258813 -0.965927 -0.000000
  outer loop
   vertex 195.306061 -89.236115 191.199905
   vertex 194.881058 -89.349991 191.199905
   vertex 194.881058 -89.349991 190.699905
  endloop
 endfacet
 facet normal -0.258822 -0.965925 -0.000000
  outer loop
   vertex 194.881058 -89.349991 190.699905
   vertex 194.881058 -89.349991 191.199905
   vertex 194.456070 -89.236115 190.699905
  endloop
 endfacet
 facet normal -0.258813 -0.965927 -0.000008
  outer loop
   vertex 194.456070 -89.236115 190.699905
   vertex 194.881058 -89.349991 191.199905
   vertex 194.456055 -89.236115 191.199905
  endloop
 endfacet
 facet normal -0.707098 -0.707115 -0.000022
  outer loop
   vertex 194.456055 -89.236115 191.199905
   vertex 194.144943 -88.924995 190.699905
   vertex 194.456070 -89.236115 190.699905
  endloop
 endfacet
 facet normal -0.707115 -0.707098 0.000000
  outer loop
   vertex 194.144943 -88.924995 191.199905
   vertex 194.144943 -88.924995 190.699905
   vertex 194.456055 -89.236115 191.199905
  endloop
 endfacet
 facet normal -0.965927 -0.258813 0.000000
  outer loop
   vertex 194.031067 -88.499992 190.699905
   vertex 194.144943 -88.924995 190.699905
   vertex 194.144943 -88.924995 191.199905
  endloop
 endfacet
 facet normal -0.965927 -0.258813 -0.000000
  outer loop
   vertex 194.144943 -88.924995 191.199905
   vertex 194.031067 -88.499992 191.199905
   vertex 194.031067 -88.499992 190.699905
  endloop
 endfacet
 facet normal 0.707107 -0.707107 0.000000
  outer loop
   vertex 194.631058 -88.066978 191.199905
   vertex 194.448044 -88.249992 191.199905
   vertex 194.448044 -88.249992 190.699905
  endloop
 endfacet
 facet normal 0.965927 -0.258815 -0.000000
  outer loop
   vertex 194.448044 -88.249992 190.699905
   vertex 194.448044 -88.249992 191.199905
   vertex 194.381058 -88.499992 191.199905
  endloop
 endfacet
 facet normal 0.965927 -0.258815 0.000000
  outer loop
   vertex 194.381058 -88.499992 191.199905
   vertex 194.381058 -88.499992 190.699905
   vertex 194.448044 -88.249992 190.699905
  endloop
 endfacet
 facet normal 0.965927 0.258815 -0.000000
  outer loop
   vertex 194.448044 -88.749992 191.199905
   vertex 194.381058 -88.499992 190.699905
   vertex 194.381058 -88.499992 191.199905
  endloop
 endfacet
 facet normal 0.965927 0.258815 0.000000
  outer loop
   vertex 194.448044 -88.749992 190.699905
   vertex 194.381058 -88.499992 190.699905
   vertex 194.448044 -88.749992 191.199905
  endloop
 endfacet
 facet normal 0.707107 0.707107 -0.000000
  outer loop
   vertex 194.448044 -88.749992 191.199905
   vertex 194.631058 -88.933006 191.199905
   vertex 194.448044 -88.749992 190.699905
  endloop
 endfacet
 facet normal 0.707107 0.707107 0.000000
  outer loop
   vertex 194.448044 -88.749992 190.699905
   vertex 194.631058 -88.933006 191.199905
   vertex 194.631058 -88.933006 190.699905
  endloop
 endfacet
 facet normal 0.258815 0.965927 0.000000
  outer loop
   vertex 194.631058 -88.933006 190.699905
   vertex 194.631058 -88.933006 191.199905
   vertex 194.881058 -88.999992 191.199905
  endloop
 endfacet
 facet normal 0.258815 0.965927 -0.000000
  outer loop
   vertex 194.881058 -88.999992 191.199905
   vertex 194.881058 -88.999992 190.699905
   vertex 194.631058 -88.933006 190.699905
  endloop
 endfacet
 facet normal -0.258815 0.965927 -0.000000
  outer loop
   vertex 195.131058 -88.933006 191.199905
   vertex 194.881058 -88.999992 190.699905
   vertex 194.881058 -88.999992 191.199905
  endloop
 endfacet
 facet normal -0.258815 0.965927 0.000000
  outer loop
   vertex 195.131058 -88.933006 190.699905
   vertex 194.881058 -88.999992 190.699905
   vertex 195.131058 -88.933006 191.199905
  endloop
 endfacet
 facet normal -0.707107 0.707107 -0.000000
  outer loop
   vertex 195.131058 -88.933006 191.199905
   vertex 195.314072 -88.749992 191.199905
   vertex 195.131058 -88.933006 190.699905
  endloop
 endfacet
 facet normal -0.707107 0.707107 0.000000
  outer loop
   vertex 195.131058 -88.933006 190.699905
   vertex 195.314072 -88.749992 191.199905
   vertex 195.314072 -88.749992 190.699905
  endloop
 endfacet
 facet normal -0.965927 0.258815 -0.000000
  outer loop
   vertex 195.314072 -88.749992 190.699905
   vertex 195.314072 -88.749992 191.199905
   vertex 195.381058 -88.499992 191.199905
  endloop
 endfacet
 facet normal -0.965927 0.258815 0.000000
  outer loop
   vertex 195.381058 -88.499992 191.199905
   vertex 195.381058 -88.499992 190.699905
   vertex 195.314072 -88.749992 190.699905
  endloop
 endfacet
 facet normal -0.707107 -0.707107 0.000000
  outer loop
   vertex 170.708939 -88.066978 190.699875
   vertex 170.891953 -88.249992 190.699875
   vertex 170.891953 -88.249992 191.199875
  endloop
 endfacet
 facet normal -0.965927 -0.258815 0.000000
  outer loop
   vertex 170.891953 -88.249992 191.199875
   vertex 170.891953 -88.249992 190.699875
   vertex 170.958939 -88.499992 190.699875
  endloop
 endfacet
 facet normal -0.965927 -0.258815 -0.000000
  outer loop
   vertex 170.958939 -88.499992 190.699875
   vertex 170.958939 -88.499992 191.199875
   vertex 170.891953 -88.249992 191.199875
  endloop
 endfacet
 facet normal -0.965927 0.258815 -0.000000
  outer loop
   vertex 170.891953 -88.749992 190.699875
   vertex 170.958939 -88.499992 191.199875
   vertex 170.958939 -88.499992 190.699875
  endloop
 endfacet
 facet normal -0.965927 0.258815 0.000000
  outer loop
   vertex 170.891953 -88.749992 191.199875
   vertex 170.958939 -88.499992 191.199875
   vertex 170.891953 -88.749992 190.699875
  endloop
 endfacet
 facet normal -0.707107 0.707107 -0.000000
  outer loop
   vertex 170.891953 -88.749992 190.699875
   vertex 170.708939 -88.933006 190.699875
   vertex 170.891953 -88.749992 191.199875
  endloop
 endfacet
 facet normal -0.707107 0.707107 0.000000
  outer loop
   vertex 170.891953 -88.749992 191.199875
   vertex 170.708939 -88.933006 190.699875
   vertex 170.708939 -88.933006 191.199875
  endloop
 endfacet
 facet normal -0.258815 0.965927 -0.000000
  outer loop
   vertex 170.708939 -88.933006 191.199875
   vertex 170.708939 -88.933006 190.699875
   vertex 170.458939 -88.999992 190.699875
  endloop
 endfacet
 facet normal -0.258815 0.965927 0.000000
  outer loop
   vertex 170.458939 -88.999992 190.699875
   vertex 170.458939 -88.999992 191.199875
   vertex 170.708939 -88.933006 191.199875
  endloop
 endfacet
 facet normal 0.258815 0.965927 0.000000
  outer loop
   vertex 170.208939 -88.933006 190.699875
   vertex 170.458939 -88.999992 191.199875
   vertex 170.458939 -88.999992 190.699875
  endloop
 endfacet
 facet normal 0.258815 0.965927 0.000000
  outer loop
   vertex 170.208939 -88.933006 191.199875
   vertex 170.458939 -88.999992 191.199875
   vertex 170.208939 -88.933006 190.699875
  endloop
 endfacet
 facet normal 0.707107 0.707107 -0.000000
  outer loop
   vertex 170.208939 -88.933006 190.699875
   vertex 170.025925 -88.749992 190.699875
   vertex 170.208939 -88.933006 191.199875
  endloop
 endfacet
 facet normal 0.707107 0.707107 -0.000000
  outer loop
   vertex 170.208939 -88.933006 191.199875
   vertex 170.025925 -88.749992 190.699875
   vertex 170.025925 -88.749992 191.199875
  endloop
 endfacet
 facet normal 0.965927 0.258815 -0.000000
  outer loop
   vertex 170.025925 -88.749992 191.199875
   vertex 170.025925 -88.749992 190.699875
   vertex 169.958939 -88.499992 190.699875
  endloop
 endfacet
 facet normal 0.965927 0.258815 0.000000
  outer loop
   vertex 169.958939 -88.499992 190.699875
   vertex 169.958939 -88.499992 191.199875
   vertex 170.025925 -88.749992 191.199875
  endloop
 endfacet
 facet normal 0.965927 -0.258815 -0.000000
  outer loop
   vertex 170.025925 -88.249992 191.199875
   vertex 169.958939 -88.499992 191.199875
   vertex 169.958939 -88.499992 190.699875
  endloop
 endfacet
endsolid