solid stl file generated from DOUG
 facet normal -1.000000 -0.000000 0.000000
  outer loop
   vertex -412.882141 -97.773918 249.530350
   vertex -412.882141 -95.538231 246.806152
   vertex -412.882141 -96.351913 246.123398
  endloop
 endfacet
 facet normal -0.000000 0.642784 -0.766047
  outer loop
   vertex -412.882141 -96.351913 246.123398
   vertex -412.882141 -95.538231 246.806152
   vertex -411.882141 -95.538231 246.806152
  endloop
 endfacet
 facet normal 0.000000 0.642784 -0.766047
  outer loop
   vertex -411.882141 -95.538231 246.806152
   vertex -411.882141 -96.351913 246.123398
   vertex -412.882141 -96.351913 246.123398
  endloop
 endfacet
 facet normal 1.000000 -0.000000 -0.000000
  outer loop
   vertex -411.882141 -97.773918 249.530350
   vertex -411.882141 -96.351913 246.123398
   vertex -411.882141 -95.538231 246.806152
  endloop
 endfacet
 facet normal 1.000000 0.000000 0.000000
  outer loop
   vertex -411.882141 -98.661316 248.937408
   vertex -411.882141 -96.351913 246.123398
   vertex -411.882141 -97.773918 249.530350
  endloop
 endfacet
 facet normal 1.000000 -0.000000 -0.000000
  outer loop
   vertex -411.882141 -97.773918 249.530350
   vertex -411.882141 -101.751175 254.718124
   vertex -411.882141 -98.661316 248.937408
  endloop
 endfacet
 facet normal 1.000000 0.000000 0.000000
  outer loop
   vertex -411.882141 -97.773918 249.530350
   vertex -411.882141 -100.765152 255.126541
   vertex -411.882141 -101.751175 254.718124
  endloop
 endfacet
 facet normal 1.000000 0.000000 -0.000000
  outer loop
   vertex -411.882141 -101.751175 254.718124
   vertex -411.882141 -100.765152 255.126541
   vertex -411.882141 -102.607140 261.198761
  endloop
 endfacet
 facet normal 1.000000 -0.000000 0.000000
  outer loop
   vertex -411.882141 -102.607140 261.198761
   vertex -411.882141 -103.653893 260.990540
   vertex -411.882141 -101.751175 254.718124
  endloop
 endfacet
 facet normal 1.000000 -0.000000 -0.000000
  outer loop
   vertex -411.882141 -103.229103 267.513672
   vertex -411.882141 -103.653893 260.990540
   vertex -411.882141 -102.607140 261.198761
  endloop
 endfacet
 facet normal 1.000000 0.000000 -0.000000
  outer loop
   vertex -411.882141 -104.296364 267.513672
   vertex -411.882141 -103.653893 260.990540
   vertex -411.882141 -103.229103 267.513672
  endloop
 endfacet
 facet normal -1.000000 -0.000000 0.000000
  outer loop
   vertex -412.882141 -103.229103 267.513672
   vertex -412.882141 -102.607140 261.198761
   vertex -412.882141 -103.653893 260.990540
  endloop
 endfacet
 facet normal -1.000000 -0.000000 -0.000000
  outer loop
   vertex -412.882141 -103.653893 260.990540
   vertex -412.882141 -102.607140 261.198761
   vertex -412.882141 -100.765152 255.126541
  endloop
 endfacet
 facet normal -1.000000 0.000000 0.000000
  outer loop
   vertex -412.882141 -100.765152 255.126541
   vertex -412.882141 -101.751175 254.718124
   vertex -412.882141 -103.653893 260.990540
  endloop
 endfacet
 facet normal -1.000000 0.000000 -0.000000
  outer loop
   vertex -412.882141 -98.661316 248.937408
   vertex -412.882141 -101.751175 254.718124
   vertex -412.882141 -100.765152 255.126541
  endloop
 endfacet
 facet normal -0.000000 0.000000 1.000000
  outer loop
   vertex -411.882141 -103.229103 267.513641
   vertex -412.882141 -103.229103 267.513641
   vertex -411.882141 -104.296364 267.513641
  endloop
 endfacet
 facet normal -0.000000 -0.000000 1.000000
  outer loop
   vertex -411.882141 -104.296364 267.513641
   vertex -412.882141 -103.229103 267.513641
   vertex -412.882141 -104.296364 267.513641
  endloop
 endfacet
 facet normal -1.000000 0.000000 0.000000
  outer loop
   vertex -412.882141 -96.351913 246.123398
   vertex -412.882141 -98.661316 248.937408
   vertex -412.882141 -97.773918 249.530350
  endloop
 endfacet
 facet normal -1.000000 -0.000000 0.000000
  outer loop
   vertex -412.882141 -97.773918 249.530350
   vertex -412.882141 -98.661316 248.937408
   vertex -412.882141 -100.765152 255.126541
  endloop
 endfacet
 facet normal -1.000000 0.000000 0.000000
  outer loop
   vertex -412.882141 -103.229103 267.513672
   vertex -412.882141 -103.653893 260.990540
   vertex -412.882141 -104.296364 267.513672
  endloop
 endfacet
 facet normal 0.000000 -0.995185 -0.098017
  outer loop
   vertex -411.882141 -104.296364 267.513672
   vertex -412.882141 -104.296364 267.513672
   vertex -411.882141 -103.653893 260.990540
  endloop
 endfacet
 facet normal -0.000000 -0.995185 -0.098017
  outer loop
   vertex -411.882141 -103.653893 260.990540
   vertex -412.882141 -104.296364 267.513672
   vertex -412.882141 -103.653893 260.990540
  endloop
 endfacet
 facet normal 0.000000 -0.956940 -0.290285
  outer loop
   vertex -412.882141 -103.653893 260.990540
   vertex -411.882141 -101.751175 254.718124
   vertex -411.882141 -103.653893 260.990540
  endloop
 endfacet
 facet normal -0.000000 -0.956940 -0.290285
  outer loop
   vertex -412.882141 -101.751175 254.718124
   vertex -411.882141 -101.751175 254.718124
   vertex -412.882141 -103.653893 260.990540
  endloop
 endfacet
 facet normal -0.000000 -0.881921 -0.471397
  outer loop
   vertex -411.882141 -98.661316 248.937408
   vertex -411.882141 -101.751175 254.718124
   vertex -412.882141 -101.751175 254.718124
  endloop
 endfacet
 facet normal 0.000000 -0.881921 -0.471397
  outer loop
   vertex -412.882141 -101.751175 254.718124
   vertex -412.882141 -98.661316 248.937408
   vertex -411.882141 -98.661316 248.937408
  endloop
 endfacet
 facet normal 0.000000 -0.773010 -0.634394
  outer loop
   vertex -411.882141 -98.661316 248.937408
   vertex -412.882141 -98.661316 248.937408
   vertex -411.882141 -96.351913 246.123398
  endloop
 endfacet
 facet normal -0.000000 -0.773010 -0.634394
  outer loop
   vertex -411.882141 -96.351913 246.123398
   vertex -412.882141 -98.661316 248.937408
   vertex -412.882141 -96.351913 246.123398
  endloop
 endfacet
 facet normal -0.000000 0.773011 0.634393
  outer loop
   vertex -411.882141 -95.538231 246.806152
   vertex -412.882141 -95.538231 246.806152
   vertex -411.882141 -97.773918 249.530350
  endloop
 endfacet
 facet normal -0.000000 0.773011 0.634393
  outer loop
   vertex -411.882141 -97.773918 249.530350
   vertex -412.882141 -95.538231 246.806152
   vertex -412.882141 -97.773918 249.530350
  endloop
 endfacet
 facet normal 0.000000 0.881921 0.471398
  outer loop
   vertex -412.882141 -97.773918 249.530350
   vertex -411.882141 -100.765152 255.126541
   vertex -411.882141 -97.773918 249.530350
  endloop
 endfacet
 facet normal 0.000000 0.881921 0.471398
  outer loop
   vertex -412.882141 -100.765152 255.126541
   vertex -411.882141 -100.765152 255.126541
   vertex -412.882141 -97.773918 249.530350
  endloop
 endfacet
 facet normal 0.000000 0.956940 0.290285
  outer loop
   vertex -411.882141 -102.607140 261.198761
   vertex -411.882141 -100.765152 255.126541
   vertex -412.882141 -100.765152 255.126541
  endloop
 endfacet
 facet normal -0.000000 0.956940 0.290285
  outer loop
   vertex -412.882141 -100.765152 255.126541
   vertex -412.882141 -102.607140 261.198761
   vertex -411.882141 -102.607140 261.198761
  endloop
 endfacet
 facet normal -0.000000 0.995185 0.098017
  outer loop
   vertex -411.882141 -102.607140 261.198761
   vertex -412.882141 -102.607140 261.198761
   vertex -411.882141 -103.229103 267.513672
  endloop
 endfacet
 facet normal -0.000000 0.995185 0.098017
  outer loop
   vertex -411.882141 -103.229103 267.513672
   vertex -412.882141 -102.607140 261.198761
   vertex -412.882141 -103.229103 267.513672
  endloop
 endfacet
endsolid