solid stl file generated from DOUG
 facet normal 1.000000 -0.000000 0.000000
  outer loop
   vertex -411.882172 -77.174889 299.260773
   vertex -411.882172 -82.257797 298.828796
   vertex -411.882172 -81.893990 297.829254
  endloop
 endfacet
 facet normal -0.000000 -0.939691 -0.342024
  outer loop
   vertex -411.882172 -81.893990 297.829254
   vertex -411.882172 -82.257797 298.828796
   vertex -412.882172 -82.257797 298.828796
  endloop
 endfacet
 facet normal 0.000000 -0.939691 -0.342024
  outer loop
   vertex -412.882172 -82.257797 298.828796
   vertex -412.882172 -81.893990 297.829254
   vertex -411.882172 -81.893990 297.829254
  endloop
 endfacet
 facet normal 1.000000 0.000000 0.000000
  outer loop
   vertex -411.882172 -61.441753 298.319366
   vertex -411.882172 -61.131218 299.335083
   vertex -411.882172 -64.545097 299.260773
  endloop
 endfacet
 facet normal 1.000000 0.000000 -0.000000
  outer loop
   vertex -411.882172 -64.545097 299.260773
   vertex -411.882172 -61.131218 299.335083
   vertex -411.882172 -64.336884 300.307526
  endloop
 endfacet
 facet normal 1.000000 -0.000000 0.000000
  outer loop
   vertex -411.882172 -64.336884 300.307526
   vertex -411.882172 -70.859993 299.882721
   vertex -411.882172 -64.545097 299.260773
  endloop
 endfacet
 facet normal 1.000000 -0.000000 -0.000000
  outer loop
   vertex -411.882172 -70.859993 300.949982
   vertex -411.882172 -70.859993 299.882721
   vertex -411.882172 -64.336884 300.307526
  endloop
 endfacet
 facet normal 1.000000 0.000000 -0.000000
  outer loop
   vertex -411.882172 -77.174889 299.260773
   vertex -411.882172 -70.859993 299.882721
   vertex -411.882172 -70.859993 300.949982
  endloop
 endfacet
 facet normal 1.000000 -0.000000 -0.000000
  outer loop
   vertex -411.882172 -70.859993 300.949982
   vertex -411.882172 -77.383102 300.307526
   vertex -411.882172 -77.174889 299.260773
  endloop
 endfacet
 facet normal 1.000000 0.000000 0.000000
  outer loop
   vertex -411.882172 -77.174889 299.260773
   vertex -411.882172 -77.383102 300.307526
   vertex -411.882172 -82.257797 298.828796
  endloop
 endfacet
 facet normal -1.000000 0.000000 0.000000
  outer loop
   vertex -412.882172 -81.893990 297.829254
   vertex -412.882172 -82.257797 298.828796
   vertex -412.882172 -77.174889 299.260773
  endloop
 endfacet
 facet normal -1.000000 -0.000000 -0.000000
  outer loop
   vertex -412.882172 -77.174889 299.260773
   vertex -412.882172 -82.257797 298.828796
   vertex -412.882172 -77.383102 300.307526
  endloop
 endfacet
 facet normal -1.000000 -0.000000 0.000000
  outer loop
   vertex -412.882172 -77.383102 300.307526
   vertex -412.882172 -70.859993 299.882721
   vertex -412.882172 -77.174889 299.260773
  endloop
 endfacet
 facet normal -1.000000 -0.000000 0.000000
  outer loop
   vertex -412.882172 -70.859993 300.949982
   vertex -412.882172 -70.859993 299.882721
   vertex -412.882172 -77.383102 300.307526
  endloop
 endfacet
 facet normal -1.000000 0.000000 0.000000
  outer loop
   vertex -412.882172 -64.336884 300.307526
   vertex -412.882172 -70.859993 299.882721
   vertex -412.882172 -70.859993 300.949982
  endloop
 endfacet
 facet normal -1.000000 0.000000 0.000000
  outer loop
   vertex -412.882172 -70.859993 299.882721
   vertex -412.882172 -64.336884 300.307526
   vertex -412.882172 -64.545097 299.260773
  endloop
 endfacet
 facet normal -1.000000 -0.000000 -0.000000
  outer loop
   vertex -412.882172 -64.545097 299.260773
   vertex -412.882172 -64.336884 300.307526
   vertex -412.882172 -61.131218 299.335083
  endloop
 endfacet
 facet normal -1.000000 0.000000 0.000000
  outer loop
   vertex -412.882172 -61.131218 299.335083
   vertex -412.882172 -61.441753 298.319366
   vertex -412.882172 -64.545097 299.260773
  endloop
 endfacet
 facet normal -0.000000 0.290289 0.956939
  outer loop
   vertex -411.882172 -61.131218 299.335083
   vertex -412.882172 -61.131218 299.335083
   vertex -411.882172 -64.336884 300.307526
  endloop
 endfacet
 facet normal -0.000000 0.290289 0.956939
  outer loop
   vertex -411.882172 -64.336884 300.307526
   vertex -412.882172 -61.131218 299.335083
   vertex -412.882172 -64.336884 300.307526
  endloop
 endfacet
 facet normal 0.000000 0.098015 0.995185
  outer loop
   vertex -412.882172 -64.336884 300.307526
   vertex -411.882172 -70.859993 300.949982
   vertex -411.882172 -64.336884 300.307526
  endloop
 endfacet
 facet normal 0.000000 0.098015 0.995185
  outer loop
   vertex -412.882172 -70.859993 300.949982
   vertex -411.882172 -70.859993 300.949982
   vertex -412.882172 -64.336884 300.307526
  endloop
 endfacet
 facet normal 0.000000 -0.098015 0.995185
  outer loop
   vertex -411.882172 -77.383102 300.307526
   vertex -411.882172 -70.859993 300.949982
   vertex -412.882172 -70.859993 300.949982
  endloop
 endfacet
 facet normal -0.000000 -0.098015 0.995185
  outer loop
   vertex -412.882172 -70.859993 300.949982
   vertex -412.882172 -77.383102 300.307526
   vertex -411.882172 -77.383102 300.307526
  endloop
 endfacet
 facet normal 0.000000 -0.290286 0.956940
  outer loop
   vertex -411.882172 -77.383102 300.307526
   vertex -412.882172 -77.383102 300.307526
   vertex -411.882172 -82.257797 298.828796
  endloop
 endfacet
 facet normal -0.000000 -0.290286 0.956940
  outer loop
   vertex -411.882172 -82.257797 298.828796
   vertex -412.882172 -77.383102 300.307526
   vertex -412.882172 -82.257797 298.828796
  endloop
 endfacet
 facet normal 0.000000 0.290284 -0.956941
  outer loop
   vertex -411.882172 -81.893990 297.829254
   vertex -412.882172 -81.893990 297.829254
   vertex -411.882172 -77.174889 299.260773
  endloop
 endfacet
 facet normal -0.000000 0.290284 -0.956941
  outer loop
   vertex -411.882172 -77.174889 299.260773
   vertex -412.882172 -81.893990 297.829254
   vertex -412.882172 -77.174889 299.260773
  endloop
 endfacet
 facet normal 0.000000 0.098015 -0.995185
  outer loop
   vertex -412.882172 -77.174889 299.260773
   vertex -411.882172 -70.859993 299.882721
   vertex -411.882172 -77.174889 299.260773
  endloop
 endfacet
 facet normal -0.000000 0.098015 -0.995185
  outer loop
   vertex -412.882172 -70.859993 299.882721
   vertex -411.882172 -70.859993 299.882721
   vertex -412.882172 -77.174889 299.260773
  endloop
 endfacet
 facet normal -0.000000 -0.098015 -0.995185
  outer loop
   vertex -411.882172 -64.545097 299.260773
   vertex -411.882172 -70.859993 299.882721
   vertex -412.882172 -70.859993 299.882721
  endloop
 endfacet
 facet normal 0.000000 -0.098015 -0.995185
  outer loop
   vertex -412.882172 -70.859993 299.882721
   vertex -412.882172 -64.545097 299.260773
   vertex -411.882172 -64.545097 299.260773
  endloop
 endfacet
 facet normal 0.000000 -0.290290 -0.956939
  outer loop
   vertex -411.882172 -64.545097 299.260773
   vertex -412.882172 -64.545097 299.260773
   vertex -411.882172 -61.441753 298.319366
  endloop
 endfacet
 facet normal -0.000000 -0.290290 -0.956939
  outer loop
   vertex -411.882172 -61.441753 298.319366
   vertex -412.882172 -64.545097 299.260773
   vertex -412.882172 -61.441753 298.319366
  endloop
 endfacet
endsolid