solid stl file generated from DOUG
 facet normal -0.000000 0.000000 1.000000
  outer loop
   vertex -420.403625 -35.285027 220.746414
   vertex -426.144745 -37.663078 220.746414
   vertex -425.818573 -38.666927 220.746414
  endloop
 endfacet
 facet normal -0.951056 -0.309018 -0.000000
  outer loop
   vertex -425.818573 -38.666927 220.746414
   vertex -426.144745 -37.663078 220.746414
   vertex -426.144745 -37.663078 219.746414
  endloop
 endfacet
 facet normal -0.951056 -0.309018 0.000000
  outer loop
   vertex -426.144745 -37.663078 219.746414
   vertex -425.818573 -38.666927 219.746414
   vertex -425.818573 -38.666927 220.746414
  endloop
 endfacet
 facet normal -0.000000 0.000000 -1.000000
  outer loop
   vertex -420.403625 -35.285027 219.746414
   vertex -425.818573 -38.666927 219.746414
   vertex -426.144745 -37.663078 219.746414
  endloop
 endfacet
 facet normal 0.000000 0.000000 -1.000000
  outer loop
   vertex -419.924408 -36.225491 219.746414
   vertex -425.818573 -38.666927 219.746414
   vertex -420.403625 -35.285027 219.746414
  endloop
 endfacet
 facet normal -0.000000 -0.000000 -1.000000
  outer loop
   vertex -420.403625 -35.285027 219.746414
   vertex -414.484741 -32.892059 219.746414
   vertex -419.924408 -36.225491 219.746414
  endloop
 endfacet
 facet normal 0.000000 -0.000000 -1.000000
  outer loop
   vertex -406.344086 -23.277075 219.746414
   vertex -405.801697 -22.391993 219.746414
   vertex -404.933319 -22.988815 219.746414
  endloop
 endfacet
 facet normal 0.566408 0.824125 -0.000000
  outer loop
   vertex -404.933319 -22.988815 219.746414
   vertex -405.801697 -22.391993 219.746414
   vertex -405.801697 -22.391993 220.746414
  endloop
 endfacet
 facet normal 0.566408 0.824125 0.000000
  outer loop
   vertex -405.801697 -22.391993 220.746414
   vertex -404.933319 -22.988815 220.746414
   vertex -404.933319 -22.988815 219.746414
  endloop
 endfacet
 facet normal 0.000000 -0.000000 1.000000
  outer loop
   vertex -406.344086 -23.277075 220.746414
   vertex -404.933319 -22.988815 220.746414
   vertex -405.801697 -22.391993 220.746414
  endloop
 endfacet
 facet normal 0.000000 0.000000 1.000000
  outer loop
   vertex -405.490173 -23.897488 220.746414
   vertex -404.933319 -22.988815 220.746414
   vertex -406.344086 -23.277075 220.746414
  endloop
 endfacet
 facet normal -0.000000 -0.000000 1.000000
  outer loop
   vertex -406.344086 -23.277075 220.746414
   vertex -410.379852 -28.002365 220.746414
   vertex -405.490173 -23.897488 220.746414
  endloop
 endfacet
 facet normal -0.000000 0.000000 1.000000
  outer loop
   vertex -405.490173 -23.897488 220.746414
   vertex -410.379852 -28.002365 220.746414
   vertex -409.633514 -28.748722 220.746414
  endloop
 endfacet
 facet normal -0.000000 0.000000 1.000000
  outer loop
   vertex -409.633514 -28.748722 220.746414
   vertex -410.379852 -28.002365 220.746414
   vertex -414.484741 -32.892059 220.746414
  endloop
 endfacet
 facet normal 0.000000 -0.000000 -1.000000
  outer loop
   vertex -420.403625 -35.285027 219.746414
   vertex -415.105164 -32.038136 219.746414
   vertex -414.484741 -32.892059 219.746414
  endloop
 endfacet
 facet normal 0.000000 -0.000000 -1.000000
  outer loop
   vertex -414.484741 -32.892059 219.746414
   vertex -415.105164 -32.038136 219.746414
   vertex -410.379852 -28.002365 219.746414
  endloop
 endfacet
 facet normal -0.000000 0.000000 -1.000000
  outer loop
   vertex -410.379852 -28.002365 219.746414
   vertex -409.633514 -28.748722 219.746414
   vertex -414.484741 -32.892059 219.746414
  endloop
 endfacet
 facet normal -0.000000 0.000000 -1.000000
  outer loop
   vertex -405.490173 -23.897488 219.746414
   vertex -409.633514 -28.748722 219.746414
   vertex -410.379852 -28.002365 219.746414
  endloop
 endfacet
 facet normal -0.000000 0.000000 1.000000
  outer loop
   vertex -410.379852 -28.002365 220.746414
   vertex -415.105164 -32.038136 220.746414
   vertex -414.484741 -32.892059 220.746414
  endloop
 endfacet
 facet normal -0.000000 0.000000 1.000000
  outer loop
   vertex -414.484741 -32.892059 220.746414
   vertex -415.105164 -32.038136 220.746414
   vertex -420.403625 -35.285027 220.746414
  endloop
 endfacet
 facet normal 0.000000 -0.000000 1.000000
  outer loop
   vertex -420.403625 -35.285027 220.746414
   vertex -419.924408 -36.225491 220.746414
   vertex -414.484741 -32.892059 220.746414
  endloop
 endfacet
 facet normal 0.000000 -0.000000 1.000000
  outer loop
   vertex -425.818573 -38.666927 220.746414
   vertex -419.924408 -36.225491 220.746414
   vertex -420.403625 -35.285027 220.746414
  endloop
 endfacet
 facet normal 0.000000 -0.000000 -1.000000
  outer loop
   vertex -410.379852 -28.002365 219.746414
   vertex -406.344086 -23.277075 219.746414
   vertex -405.490173 -23.897488 219.746414
  endloop
 endfacet
 facet normal 0.000000 -0.000000 -1.000000
  outer loop
   vertex -405.490173 -23.897488 219.746414
   vertex -406.344086 -23.277075 219.746414
   vertex -404.933319 -22.988815 219.746414
  endloop
 endfacet
 facet normal 0.852632 -0.522512 0.000000
  outer loop
   vertex -404.933319 -22.988815 219.746414
   vertex -404.933319 -22.988815 220.746414
   vertex -405.490173 -23.897488 219.746414
  endloop
 endfacet
 facet normal 0.852632 -0.522512 -0.000000
  outer loop
   vertex -405.490173 -23.897488 219.746414
   vertex -404.933319 -22.988815 220.746414
   vertex -405.490173 -23.897488 220.746414
  endloop
 endfacet
 facet normal 0.760406 -0.649448 0.000000
  outer loop
   vertex -405.490173 -23.897488 220.746414
   vertex -409.633514 -28.748722 219.746414
   vertex -405.490173 -23.897488 219.746414
  endloop
 endfacet
 facet normal 0.760406 -0.649448 -0.000000
  outer loop
   vertex -409.633514 -28.748722 220.746414
   vertex -409.633514 -28.748722 219.746414
   vertex -405.490173 -23.897488 220.746414
  endloop
 endfacet
 facet normal 0.649448 -0.760406 0.000000
  outer loop
   vertex -414.484741 -32.892059 219.746414
   vertex -409.633514 -28.748722 219.746414
   vertex -409.633514 -28.748722 220.746414
  endloop
 endfacet
 facet normal 0.649448 -0.760406 -0.000000
  outer loop
   vertex -409.633514 -28.748722 220.746414
   vertex -414.484741 -32.892059 220.746414
   vertex -414.484741 -32.892059 219.746414
  endloop
 endfacet
 facet normal 0.522498 -0.852640 0.000000
  outer loop
   vertex -414.484741 -32.892059 219.746414
   vertex -414.484741 -32.892059 220.746414
   vertex -419.924408 -36.225491 219.746414
  endloop
 endfacet
 facet normal 0.522498 -0.852640 -0.000000
  outer loop
   vertex -419.924408 -36.225491 219.746414
   vertex -414.484741 -32.892059 220.746414
   vertex -419.924408 -36.225491 220.746414
  endloop
 endfacet
 facet normal 0.382683 -0.923880 0.000000
  outer loop
   vertex -419.924408 -36.225491 220.746414
   vertex -425.818573 -38.666927 219.746414
   vertex -419.924408 -36.225491 219.746414
  endloop
 endfacet
 facet normal 0.382683 -0.923880 -0.000000
  outer loop
   vertex -425.818573 -38.666927 220.746414
   vertex -425.818573 -38.666927 219.746414
   vertex -419.924408 -36.225491 220.746414
  endloop
 endfacet
 facet normal -0.852636 0.522505 0.000000
  outer loop
   vertex -405.801697 -22.391993 220.746414
   vertex -405.801697 -22.391993 219.746414
   vertex -406.344086 -23.277075 220.746414
  endloop
 endfacet
 facet normal -0.852636 0.522505 -0.000000
  outer loop
   vertex -406.344086 -23.277075 220.746414
   vertex -405.801697 -22.391993 219.746414
   vertex -406.344086 -23.277075 219.746414
  endloop
 endfacet
 facet normal -0.760407 0.649447 0.000000
  outer loop
   vertex -406.344086 -23.277075 219.746414
   vertex -410.379852 -28.002365 220.746414
   vertex -406.344086 -23.277075 220.746414
  endloop
 endfacet
 facet normal -0.760407 0.649447 -0.000000
  outer loop
   vertex -410.379852 -28.002365 219.746414
   vertex -410.379852 -28.002365 220.746414
   vertex -406.344086 -23.277075 219.746414
  endloop
 endfacet
 facet normal -0.649446 0.760408 0.000000
  outer loop
   vertex -415.105164 -32.038136 220.746414
   vertex -410.379852 -28.002365 220.746414
   vertex -410.379852 -28.002365 219.746414
  endloop
 endfacet
 facet normal -0.649446 0.760408 -0.000000
  outer loop
   vertex -410.379852 -28.002365 219.746414
   vertex -415.105164 -32.038136 219.746414
   vertex -415.105164 -32.038136 220.746414
  endloop
 endfacet
 facet normal -0.522497 0.852641 0.000000
  outer loop
   vertex -415.105164 -32.038136 220.746414
   vertex -415.105164 -32.038136 219.746414
   vertex -420.403625 -35.285027 220.746414
  endloop
 endfacet
 facet normal -0.522497 0.852641 -0.000000
  outer loop
   vertex -420.403625 -35.285027 220.746414
   vertex -415.105164 -32.038136 219.746414
   vertex -420.403625 -35.285027 219.746414
  endloop
 endfacet
 facet normal -0.382684 0.923879 0.000000
  outer loop
   vertex -420.403625 -35.285027 219.746414
   vertex -426.144745 -37.663078 220.746414
   vertex -420.403625 -35.285027 220.746414
  endloop
 endfacet
 facet normal -0.382684 0.923879 -0.000000
  outer loop
   vertex -426.144745 -37.663078 219.746414
   vertex -426.144745 -37.663078 220.746414
   vertex -420.403625 -35.285027 219.746414
  endloop
 endfacet
endsolid