solid stl file generated from DOUG
 facet normal 0.000000 0.000000 -1.000000
  outer loop
   vertex -484.395508 23.445042 261.482239
   vertex -486.941010 17.299704 261.482239
   vertex -488.190796 17.744955 261.482239
  endloop
 endfacet
 facet normal -0.335600 -0.942004 0.000000
  outer loop
   vertex -488.190796 17.744955 261.482239
   vertex -486.941010 17.299704 261.482239
   vertex -486.941010 17.299704 262.482239
  endloop
 endfacet
 facet normal -0.335600 -0.942004 -0.000000
  outer loop
   vertex -486.941010 17.299704 262.482239
   vertex -488.190796 17.744955 262.482239
   vertex -488.190796 17.744955 261.482239
  endloop
 endfacet
 facet normal -0.000000 -0.000000 1.000000
  outer loop
   vertex -484.395508 23.445042 262.482239
   vertex -488.190796 17.744955 262.482239
   vertex -486.941010 17.299704 262.482239
  endloop
 endfacet
 facet normal 0.000000 0.000000 1.000000
  outer loop
   vertex -485.579773 24.048458 262.482239
   vertex -488.190796 17.744955 262.482239
   vertex -484.395508 23.445042 262.482239
  endloop
 endfacet
 facet normal 0.000000 -0.000000 1.000000
  outer loop
   vertex -485.579773 24.048458 262.482239
   vertex -484.395508 23.445042 262.482239
   vertex -481.236694 31.135712 262.482239
  endloop
 endfacet
 facet normal -0.000000 -0.000000 1.000000
  outer loop
   vertex -481.236694 31.135712 262.482239
   vertex -484.395508 23.445042 262.482239
   vertex -480.161377 30.354464 262.482239
  endloop
 endfacet
 facet normal 0.000000 0.000000 1.000000
  outer loop
   vertex -480.161377 30.354464 262.482239
   vertex -479.735229 32.893696 262.482239
   vertex -481.236694 31.135712 262.482239
  endloop
 endfacet
 facet normal -0.000000 0.000000 1.000000
  outer loop
   vertex -478.697601 32.068333 262.482239
   vertex -479.735229 32.893696 262.482239
   vertex -480.161377 30.354464 262.482239
  endloop
 endfacet
 facet normal 0.622513 0.782609 0.000000
  outer loop
   vertex -479.735229 32.893696 261.482239
   vertex -479.735229 32.893696 262.482239
   vertex -478.697601 32.068333 262.482239
  endloop
 endfacet
 facet normal 0.622513 0.782609 -0.000000
  outer loop
   vertex -478.697601 32.068333 262.482239
   vertex -478.697601 32.068333 261.482239
   vertex -479.735229 32.893696 261.482239
  endloop
 endfacet
 facet normal -0.000000 0.000000 -1.000000
  outer loop
   vertex -479.735229 32.893696 261.482239
   vertex -478.697601 32.068333 261.482239
   vertex -480.161377 30.354464 261.482239
  endloop
 endfacet
 facet normal 0.000000 0.000000 -1.000000
  outer loop
   vertex -479.735229 32.893696 261.482239
   vertex -480.161377 30.354464 261.482239
   vertex -481.236694 31.135712 261.482239
  endloop
 endfacet
 facet normal -0.000000 -0.000000 -1.000000
  outer loop
   vertex -481.236694 31.135712 261.482239
   vertex -480.161377 30.354464 261.482239
   vertex -484.395508 23.445042 261.482239
  endloop
 endfacet
 facet normal 0.000000 0.000000 -1.000000
  outer loop
   vertex -484.395508 23.445042 261.482239
   vertex -485.579773 24.048458 261.482239
   vertex -481.236694 31.135712 261.482239
  endloop
 endfacet
 facet normal -0.000000 -0.000000 -1.000000
  outer loop
   vertex -488.190796 17.744955 261.482239
   vertex -485.579773 24.048458 261.482239
   vertex -484.395508 23.445042 261.482239
  endloop
 endfacet
 facet normal 0.923879 -0.382686 0.000000
  outer loop
   vertex -486.941010 17.299704 261.482239
   vertex -484.395508 23.445042 262.482239
   vertex -486.941010 17.299704 262.482239
  endloop
 endfacet
 facet normal 0.923879 -0.382686 0.000000
  outer loop
   vertex -486.941010 17.299704 261.482239
   vertex -484.395508 23.445042 261.482239
   vertex -484.395508 23.445042 262.482239
  endloop
 endfacet
 facet normal 0.852638 -0.522501 -0.000000
  outer loop
   vertex -484.395508 23.445042 262.482239
   vertex -484.395508 23.445042 261.482239
   vertex -480.161377 30.354464 261.482239
  endloop
 endfacet
 facet normal 0.852638 -0.522501 0.000000
  outer loop
   vertex -480.161377 30.354464 261.482239
   vertex -480.161377 30.354464 262.482239
   vertex -484.395508 23.445042 262.482239
  endloop
 endfacet
 facet normal 0.760407 -0.649446 -0.000000
  outer loop
   vertex -478.697601 32.068333 261.482239
   vertex -480.161377 30.354464 262.482239
   vertex -480.161377 30.354464 261.482239
  endloop
 endfacet
 facet normal 0.760407 -0.649446 0.000000
  outer loop
   vertex -478.697601 32.068333 262.482239
   vertex -480.161377 30.354464 262.482239
   vertex -478.697601 32.068333 261.482239
  endloop
 endfacet
 facet normal -0.760405 0.649449 0.000000
  outer loop
   vertex -479.735229 32.893696 262.482239
   vertex -479.735229 32.893696 261.482239
   vertex -481.236694 31.135712 262.482239
  endloop
 endfacet
 facet normal -0.760405 0.649449 -0.000000
  outer loop
   vertex -481.236694 31.135712 262.482239
   vertex -479.735229 32.893696 261.482239
   vertex -481.236694 31.135712 261.482239
  endloop
 endfacet
 facet normal -0.852640 0.522499 0.000000
  outer loop
   vertex -481.236694 31.135712 261.482239
   vertex -485.579773 24.048458 262.482239
   vertex -481.236694 31.135712 262.482239
  endloop
 endfacet
 facet normal -0.852640 0.522499 -0.000000
  outer loop
   vertex -485.579773 24.048458 261.482239
   vertex -485.579773 24.048458 262.482239
   vertex -481.236694 31.135712 261.482239
  endloop
 endfacet
 facet normal -0.923878 0.382687 0.000000
  outer loop
   vertex -488.190796 17.744955 262.482239
   vertex -485.579773 24.048458 262.482239
   vertex -485.579773 24.048458 261.482239
  endloop
 endfacet
 facet normal -0.923878 0.382687 -0.000000
  outer loop
   vertex -485.579773 24.048458 261.482239
   vertex -488.190796 17.744955 261.482239
   vertex -488.190796 17.744955 262.482239
  endloop
 endfacet
endsolid