solid stl file generated from DOUG
 facet normal 0.000000 0.000000 1.000000
  outer loop
   vertex -388.718536 -14.443897 267.971069
   vertex -387.449127 -9.849327 267.971069
   vertex -388.600616 -9.626656 267.971069
  endloop
 endfacet
 facet normal -0.000000 -0.000000 1.000000
  outer loop
   vertex -388.600616 -9.626656 267.971069
   vertex -387.449127 -9.849327 267.971069
   vertex -386.535431 -1.760376 267.971069
  endloop
 endfacet
 facet normal 0.000000 0.000000 1.000000
  outer loop
   vertex -386.535431 -1.760376 267.971069
   vertex -387.707550 -1.720577 267.971069
   vertex -388.600616 -9.626656 267.971069
  endloop
 endfacet
 facet normal -0.000000 -0.000000 1.000000
  outer loop
   vertex -386.798798 4.140851 267.971069
   vertex -387.707550 -1.720577 267.971069
   vertex -386.535431 -1.760376 267.971069
  endloop
 endfacet
 facet normal 0.000000 -0.000000 1.000000
  outer loop
   vertex -387.964966 4.047235 267.971069
   vertex -387.707550 -1.720577 267.971069
   vertex -386.798798 4.140851 267.971069
  endloop
 endfacet
 facet normal -0.080020 0.996793 -0.000000
  outer loop
   vertex -386.798798 4.140851 267.971069
   vertex -386.798798 4.140851 266.971069
   vertex -387.964966 4.047235 267.971069
  endloop
 endfacet
 facet normal -0.080020 0.996793 0.000000
  outer loop
   vertex -387.964966 4.047235 267.971069
   vertex -386.798798 4.140851 266.971069
   vertex -387.964966 4.047235 266.971069
  endloop
 endfacet
 facet normal -0.000000 0.000005 -1.000000
  outer loop
   vertex -387.964966 4.047235 266.971069
   vertex -386.798798 4.140851 266.971069
   vertex -387.707550 -1.720577 266.971039
  endloop
 endfacet
 facet normal 0.000000 0.000005 -1.000000
  outer loop
   vertex -386.798798 4.140851 266.971069
   vertex -386.535431 -1.760376 266.971039
   vertex -387.707550 -1.720577 266.971039
  endloop
 endfacet
 facet normal -0.000000 -0.000000 -1.000000
  outer loop
   vertex -387.707550 -1.720577 266.971039
   vertex -386.535431 -1.760376 266.971039
   vertex -387.449127 -9.849327 266.971039
  endloop
 endfacet
 facet normal 0.000000 0.000000 -1.000000
  outer loop
   vertex -387.449127 -9.849327 266.971039
   vertex -388.600616 -9.626656 266.971039
   vertex -387.707550 -1.720577 266.971039
  endloop
 endfacet
 facet normal -0.000000 -0.000000 -1.000000
  outer loop
   vertex -388.718536 -14.443897 266.971039
   vertex -388.600616 -9.626656 266.971039
   vertex -387.449127 -9.849327 266.971039
  endloop
 endfacet
 facet normal 0.000000 0.000000 -1.000000
  outer loop
   vertex -389.844055 -14.127208 266.971039
   vertex -388.600616 -9.626656 266.971039
   vertex -388.718536 -14.443897 266.971039
  endloop
 endfacet
 facet normal -0.270854 -0.962620 -0.000000
  outer loop
   vertex -388.718536 -14.443897 266.971039
   vertex -388.718536 -14.443897 267.971069
   vertex -389.844055 -14.127208 266.971039
  endloop
 endfacet
 facet normal -0.270854 -0.962620 0.000000
  outer loop
   vertex -389.844055 -14.127208 266.971039
   vertex -388.718536 -14.443897 267.971069
   vertex -389.844055 -14.127208 267.971069
  endloop
 endfacet
 facet normal -0.000000 -0.000000 1.000000
  outer loop
   vertex -389.844055 -14.127208 267.971069
   vertex -388.718536 -14.443897 267.971069
   vertex -388.600616 -9.626656 267.971069
  endloop
 endfacet
 facet normal 0.000000 0.000000 -1.000000
  outer loop
   vertex -398.946594 2.602089 220.683075
   vertex -399.025055 3.599010 220.683075
   vertex -398.629181 2.627069 220.683075
  endloop
 endfacet
 facet normal 0.000000 -0.000000 -1.000000
  outer loop
   vertex -398.629181 2.627069 220.683075
   vertex -399.025055 3.599010 220.683075
   vertex -398.707642 3.623990 220.683075
  endloop
 endfacet
 facet normal -0.999006 -0.044585 0.000000
  outer loop
   vertex -387.964966 4.047235 267.971069
   vertex -387.964966 4.047235 266.971069
   vertex -387.707550 -1.720577 267.971069
  endloop
 endfacet
 facet normal -0.999006 -0.044585 -0.000000
  outer loop
   vertex -387.707550 -1.720577 267.971069
   vertex -387.964966 4.047235 266.971069
   vertex -387.707550 -1.720577 266.971039
  endloop
 endfacet
 facet normal -0.993680 0.112246 0.000000
  outer loop
   vertex -387.707550 -1.720577 266.971039
   vertex -388.600616 -9.626656 267.971069
   vertex -387.707550 -1.720577 267.971069
  endloop
 endfacet
 facet normal -0.993680 0.112246 -0.000000
  outer loop
   vertex -388.600616 -9.626656 266.971039
   vertex -388.600616 -9.626656 267.971069
   vertex -387.707550 -1.720577 266.971039
  endloop
 endfacet
 facet normal -0.963888 0.266309 0.000000
  outer loop
   vertex -389.844055 -14.127208 267.971069
   vertex -388.600616 -9.626656 267.971069
   vertex -388.600616 -9.626656 266.971039
  endloop
 endfacet
 facet normal -0.963888 0.266309 -0.000000
  outer loop
   vertex -388.600616 -9.626656 266.971039
   vertex -389.844055 -14.127208 266.971039
   vertex -389.844055 -14.127208 267.971069
  endloop
 endfacet
 facet normal 0.999006 0.044585 0.000000
  outer loop
   vertex -386.798798 4.140851 266.971069
   vertex -386.798798 4.140851 267.971069
   vertex -386.535431 -1.760376 266.971039
  endloop
 endfacet
 facet normal 0.999006 0.044585 0.000000
  outer loop
   vertex -386.535431 -1.760376 266.971039
   vertex -386.798798 4.140851 267.971069
   vertex -386.535431 -1.760376 267.971069
  endloop
 endfacet
 facet normal 0.993681 -0.112242 0.000000
  outer loop
   vertex -386.535431 -1.760376 267.971069
   vertex -387.449127 -9.849327 266.971039
   vertex -386.535431 -1.760376 266.971039
  endloop
 endfacet
 facet normal 0.993681 -0.112242 -0.000000
  outer loop
   vertex -387.449127 -9.849327 267.971069
   vertex -387.449127 -9.849327 266.971039
   vertex -386.535431 -1.760376 267.971069
  endloop
 endfacet
 facet normal 0.963888 -0.266307 0.000000
  outer loop
   vertex -388.718536 -14.443897 266.971039
   vertex -387.449127 -9.849327 266.971039
   vertex -387.449127 -9.849327 267.971069
  endloop
 endfacet
 facet normal 0.963888 -0.266307 -0.000000
  outer loop
   vertex -387.449127 -9.849327 267.971069
   vertex -388.718536 -14.443897 267.971069
   vertex -388.718536 -14.443897 266.971039
  endloop
 endfacet
endsolid