solid stl file generated from DOUG
 facet normal 0.000000 0.000000 1.000000
  outer loop
   vertex -477.983490 0.000053 220.746429
   vertex -477.631561 4.471873 220.746429
   vertex -478.677673 4.591064 220.746429
  endloop
 endfacet
 facet normal 0.113205 0.993572 0.000000
  outer loop
   vertex -478.677673 4.591064 220.746429
   vertex -477.631561 4.471873 220.746429
   vertex -477.631561 4.471873 219.746429
  endloop
 endfacet
 facet normal 0.113205 0.993572 -0.000000
  outer loop
   vertex -477.631561 4.471873 219.746429
   vertex -478.677673 4.591064 219.746429
   vertex -478.677673 4.591064 220.746429
  endloop
 endfacet
 facet normal -0.000000 -0.000000 -1.000000
  outer loop
   vertex -477.983490 0.000054 219.746429
   vertex -478.677673 4.591064 219.746429
   vertex -477.631561 4.471873 219.746429
  endloop
 endfacet
 facet normal 0.000000 -0.000000 -1.000000
  outer loop
   vertex -479.039001 0.000055 219.746429
   vertex -478.677673 4.591064 219.746429
   vertex -477.983490 0.000054 219.746429
  endloop
 endfacet
 facet normal -0.000000 0.000000 -1.000000
  outer loop
   vertex -477.983490 0.000054 219.746429
   vertex -478.538452 -6.360074 219.746429
   vertex -479.039001 0.000055 219.746429
  endloop
 endfacet
 facet normal -0.000000 0.000000 -1.000000
  outer loop
   vertex -473.667236 -17.978569 219.746429
   vertex -471.323425 -21.803341 219.746429
   vertex -472.201416 -22.384474 219.746429
  endloop
 endfacet
 facet normal 0.551939 -0.833884 -0.000000
  outer loop
   vertex -472.201416 -22.384474 219.746429
   vertex -471.323425 -21.803341 219.746429
   vertex -471.323425 -21.803341 220.746429
  endloop
 endfacet
 facet normal 0.551939 -0.833884 0.000000
  outer loop
   vertex -471.323425 -21.803341 220.746429
   vertex -472.201416 -22.384474 220.746429
   vertex -472.201416 -22.384474 219.746429
  endloop
 endfacet
 facet normal -0.000000 -0.000000 1.000000
  outer loop
   vertex -473.667236 -17.978569 220.746429
   vertex -472.201416 -22.384474 220.746429
   vertex -471.323425 -21.803341 220.746429
  endloop
 endfacet
 facet normal 0.000000 0.000000 1.000000
  outer loop
   vertex -474.607697 -18.457758 220.746429
   vertex -472.201416 -22.384474 220.746429
   vertex -473.667236 -17.978569 220.746429
  endloop
 endfacet
 facet normal -0.000000 -0.000000 1.000000
  outer loop
   vertex -473.667236 -17.978569 220.746429
   vertex -477.049133 -12.563596 220.746429
   vertex -474.607697 -18.457758 220.746429
  endloop
 endfacet
 facet normal 0.000000 0.000000 -1.000000
  outer loop
   vertex -472.201416 -22.384474 219.746429
   vertex -474.607697 -18.457758 219.746429
   vertex -473.667236 -17.978569 219.746429
  endloop
 endfacet
 facet normal -0.000000 0.000000 -1.000000
  outer loop
   vertex -473.667236 -17.978569 219.746429
   vertex -474.607697 -18.457758 219.746429
   vertex -477.049133 -12.563596 219.746429
  endloop
 endfacet
 facet normal 0.000000 -0.000000 -1.000000
  outer loop
   vertex -477.049133 -12.563596 219.746429
   vertex -476.045288 -12.237428 219.746429
   vertex -473.667236 -17.978569 219.746429
  endloop
 endfacet
 facet normal -0.000000 -0.000000 -1.000000
  outer loop
   vertex -478.538452 -6.360074 219.746429
   vertex -476.045288 -12.237428 219.746429
   vertex -477.049133 -12.563596 219.746429
  endloop
 endfacet
 facet normal 0.000000 0.000000 -1.000000
  outer loop
   vertex -477.495941 -6.194957 219.746429
   vertex -476.045288 -12.237428 219.746429
   vertex -478.538452 -6.360074 219.746429
  endloop
 endfacet
 facet normal -0.000000 -0.000000 -1.000000
  outer loop
   vertex -478.538452 -6.360074 219.746429
   vertex -477.983490 0.000054 219.746429
   vertex -477.495941 -6.194957 219.746429
  endloop
 endfacet
 facet normal 0.000000 0.000000 1.000000
  outer loop
   vertex -476.045288 -12.237428 220.746429
   vertex -477.495941 -6.194957 220.746429
   vertex -478.538452 -6.360074 220.746429
  endloop
 endfacet
 facet normal 0.000000 -0.000000 1.000000
  outer loop
   vertex -478.538452 -6.360074 220.746429
   vertex -477.495941 -6.194957 220.746429
   vertex -477.983490 0.000053 220.746429
  endloop
 endfacet
 facet normal 0.000000 0.000000 1.000000
  outer loop
   vertex -477.983490 0.000053 220.746429
   vertex -479.039001 0.000055 220.746429
   vertex -478.538452 -6.360074 220.746429
  endloop
 endfacet
 facet normal -0.000000 -0.000000 1.000000
  outer loop
   vertex -478.677673 4.591064 220.746429
   vertex -479.039001 0.000055 220.746429
   vertex -477.983490 0.000053 220.746429
  endloop
 endfacet
 facet normal 0.000000 0.000000 1.000000
  outer loop
   vertex -473.667236 -17.978569 220.746429
   vertex -476.045288 -12.237428 220.746429
   vertex -477.049133 -12.563596 220.746429
  endloop
 endfacet
 facet normal 0.000000 -0.000000 1.000000
  outer loop
   vertex -477.049133 -12.563596 220.746429
   vertex -476.045288 -12.237428 220.746429
   vertex -478.538452 -6.360074 220.746429
  endloop
 endfacet
 facet normal -0.996917 0.078461 0.000000
  outer loop
   vertex -478.677673 4.591064 220.746429
   vertex -478.677673 4.591064 219.746429
   vertex -479.039001 0.000055 220.746429
  endloop
 endfacet
 facet normal -0.996917 0.078461 0.000000
  outer loop
   vertex -479.039001 0.000055 220.746429
   vertex -478.677673 4.591064 219.746429
   vertex -479.039001 0.000055 219.746429
  endloop
 endfacet
 facet normal -0.996917 -0.078459 -0.000000
  outer loop
   vertex -479.039001 0.000055 219.746429
   vertex -478.538452 -6.360074 220.746429
   vertex -479.039001 0.000055 220.746429
  endloop
 endfacet
 facet normal -0.996917 -0.078459 -0.000000
  outer loop
   vertex -478.538452 -6.360074 219.746429
   vertex -478.538452 -6.360074 220.746429
   vertex -479.039001 0.000055 219.746429
  endloop
 endfacet
 facet normal -0.972370 -0.233443 -0.000000
  outer loop
   vertex -477.049133 -12.563596 220.746429
   vertex -478.538452 -6.360074 220.746429
   vertex -478.538452 -6.360074 219.746429
  endloop
 endfacet
 facet normal -0.972370 -0.233443 0.000000
  outer loop
   vertex -478.538452 -6.360074 219.746429
   vertex -477.049133 -12.563596 219.746429
   vertex -477.049133 -12.563596 220.746429
  endloop
 endfacet
 facet normal -0.923880 -0.382683 0.000000
  outer loop
   vertex -477.049133 -12.563596 220.746429
   vertex -477.049133 -12.563596 219.746429
   vertex -474.607697 -18.457758 220.746429
  endloop
 endfacet
 facet normal -0.923880 -0.382683 -0.000000
  outer loop
   vertex -474.607697 -18.457758 220.746429
   vertex -477.049133 -12.563596 219.746429
   vertex -474.607697 -18.457758 219.746429
  endloop
 endfacet
 facet normal -0.852642 -0.522496 0.000000
  outer loop
   vertex -474.607697 -18.457758 219.746429
   vertex -472.201416 -22.384474 220.746429
   vertex -474.607697 -18.457758 220.746429
  endloop
 endfacet
 facet normal -0.852642 -0.522496 -0.000000
  outer loop
   vertex -472.201416 -22.384474 219.746429
   vertex -472.201416 -22.384474 220.746429
   vertex -474.607697 -18.457758 219.746429
  endloop
 endfacet
 facet normal 0.996918 -0.078457 0.000000
  outer loop
   vertex -477.631561 4.471873 219.746429
   vertex -477.631561 4.471873 220.746429
   vertex -477.983490 0.000054 219.746429
  endloop
 endfacet
 facet normal 0.996918 -0.078457 -0.000000
  outer loop
   vertex -477.983490 0.000054 219.746429
   vertex -477.631561 4.471873 220.746429
   vertex -477.983490 0.000053 220.746429
  endloop
 endfacet
 facet normal 0.996917 0.078458 0.000000
  outer loop
   vertex -477.983490 0.000053 220.746429
   vertex -477.495941 -6.194957 219.746429
   vertex -477.983490 0.000054 219.746429
  endloop
 endfacet
 facet normal 0.996917 0.078458 -0.000000
  outer loop
   vertex -477.495941 -6.194957 220.746429
   vertex -477.495941 -6.194957 219.746429
   vertex -477.983490 0.000053 220.746429
  endloop
 endfacet
 facet normal 0.972370 0.233443 -0.000000
  outer loop
   vertex -476.045288 -12.237428 219.746429
   vertex -477.495941 -6.194957 219.746429
   vertex -477.495941 -6.194957 220.746429
  endloop
 endfacet
 facet normal 0.972370 0.233443 0.000000
  outer loop
   vertex -477.495941 -6.194957 220.746429
   vertex -476.045288 -12.237428 220.746429
   vertex -476.045288 -12.237428 219.746429
  endloop
 endfacet
 facet normal 0.923880 0.382682 0.000000
  outer loop
   vertex -476.045288 -12.237428 219.746429
   vertex -476.045288 -12.237428 220.746429
   vertex -473.667236 -17.978569 219.746429
  endloop
 endfacet
 facet normal 0.923880 0.382682 -0.000000
  outer loop
   vertex -473.667236 -17.978569 219.746429
   vertex -476.045288 -12.237428 220.746429
   vertex -473.667236 -17.978569 220.746429
  endloop
 endfacet
 facet normal 0.852641 0.522497 0.000000
  outer loop
   vertex -473.667236 -17.978569 220.746429
   vertex -471.323425 -21.803341 219.746429
   vertex -473.667236 -17.978569 219.746429
  endloop
 endfacet
 facet normal 0.852641 0.522497 -0.000000
  outer loop
   vertex -471.323425 -21.803341 220.746429
   vertex -471.323425 -21.803341 219.746429
   vertex -473.667236 -17.978569 220.746429
  endloop
 endfacet
endsolid