solid stl file generated from DOUG
 facet normal -0.838666 -0.544646 0.000000
  outer loop
   vertex -466.904877 43.003067 398.301514
   vertex -466.360229 42.164398 398.301514
   vertex -466.360229 42.164398 416.704437
  endloop
 endfacet
 facet normal 0.544633 -0.838674 -0.000000
  outer loop
   vertex -466.360229 42.164398 416.704437
   vertex -466.360229 42.164398 398.301514
   vertex -465.521545 42.709038 416.704437
  endloop
 endfacet
 facet normal -0.838672 -0.544637 0.000001
  outer loop
   vertex -466.360229 42.164398 416.704437
   vertex -466.904877 43.003086 416.704437
   vertex -466.904877 43.003067 398.301514
  endloop
 endfacet
 facet normal -0.544647 0.838665 -0.000001
  outer loop
   vertex -466.904877 43.003067 398.301514
   vertex -466.904877 43.003086 416.704437
   vertex -466.066223 43.547726 416.704437
  endloop
 endfacet
 facet normal -0.544633 0.838674 -0.000002
  outer loop
   vertex -466.066223 43.547726 416.704437
   vertex -466.066193 43.547707 398.301514
   vertex -466.904877 43.003067 398.301514
  endloop
 endfacet
 facet normal 0.838658 0.544658 0.000001
  outer loop
   vertex -465.521545 42.709038 416.704437
   vertex -466.066193 43.547707 398.301514
   vertex -466.066223 43.547726 416.704437
  endloop
 endfacet
 facet normal 0.838680 0.544624 -0.000001
  outer loop
   vertex -465.521576 42.709038 398.301514
   vertex -466.066193 43.547707 398.301514
   vertex -465.521545 42.709038 416.704437
  endloop
 endfacet
 facet normal 0.544647 -0.838665 -0.000001
  outer loop
   vertex -465.521545 42.709038 416.704437
   vertex -466.360229 42.164398 398.301514
   vertex -465.521576 42.709038 398.301514
  endloop
 endfacet
 facet normal 0.000000 0.000000 -1.000000
  outer loop
   vertex -465.521576 42.709038 398.301514
   vertex -466.360229 42.164398 398.301514
   vertex -466.066193 43.547707 398.301514
  endloop
 endfacet
 facet normal -0.000000 0.000000 -1.000000
  outer loop
   vertex -466.066193 43.547707 398.301514
   vertex -466.360229 42.164398 398.301514
   vertex -466.904877 43.003067 398.301514
  endloop
 endfacet
endsolid