solid stl file generated from DOUG
 facet normal -0.683017 -0.683009 -0.258816
  outer loop
   vertex -957.124695 -45.172646 65.411270
   vertex -955.536011 -46.204002 63.940449
   vertex -955.247009 -46.794907 64.737152
  endloop
 endfacet
 facet normal 0.674705 -0.454309 -0.581702
  outer loop
   vertex -955.247009 -46.794907 64.737152
   vertex -955.536011 -46.204002 63.940449
   vertex -954.852966 -45.520996 64.199272
  endloop
 endfacet
 facet normal 0.674702 -0.454309 -0.581705
  outer loop
   vertex -954.852966 -45.520996 64.199272
   vertex -954.563965 -46.111893 64.995964
   vertex -955.247009 -46.794907 64.737152
  endloop
 endfacet
 facet normal 0.683004 0.683019 0.258826
  outer loop
   vertex -956.441711 -44.489639 65.670082
   vertex -954.563965 -46.111893 64.995964
   vertex -954.852966 -45.520996 64.199272
  endloop
 endfacet
 facet normal -0.683018 -0.683004 -0.258830
  outer loop
   vertex -955.247009 -46.794907 64.737152
   vertex -956.847534 -45.756599 66.220825
   vertex -957.124695 -45.172646 65.411270
  endloop
 endfacet
 facet normal -0.683021 -0.683002 -0.258827
  outer loop
   vertex -957.124695 -45.172646 65.411270
   vertex -956.847534 -45.756599 66.220825
   vertex -959.676575 -43.677780 68.200737
  endloop
 endfacet
 facet normal -0.683014 -0.683013 -0.258815
  outer loop
   vertex -959.676575 -43.677780 68.200737
   vertex -959.840210 -43.176292 67.309143
   vertex -957.124695 -45.172646 65.411270
  endloop
 endfacet
 facet normal -0.683006 -0.683020 -0.258820
  outer loop
   vertex -962.610352 -41.293552 69.650826
   vertex -959.840210 -43.176292 67.309143
   vertex -959.676575 -43.677780 68.200737
  endloop
 endfacet
 facet normal -0.683013 -0.683004 -0.258841
  outer loop
   vertex -962.656372 -40.886871 68.699150
   vertex -959.840210 -43.176292 67.309143
   vertex -962.610352 -41.293552 69.650826
  endloop
 endfacet
 facet normal -0.683015 -0.683003 -0.258840
  outer loop
   vertex -962.610352 -41.293552 69.650826
   vertex -965.576477 -38.662613 70.535416
   vertex -962.656372 -40.886871 68.699150
  endloop
 endfacet
 facet normal -0.683014 -0.683005 -0.258837
  outer loop
   vertex -962.656372 -40.886871 68.699150
   vertex -965.576477 -38.662613 70.535416
   vertex -965.503784 -38.360760 69.547081
  endloop
 endfacet
 facet normal -0.683015 -0.683004 -0.258837
  outer loop
   vertex -965.503784 -38.360760 69.547081
   vertex -965.576477 -38.662613 70.535416
   vertex -968.501953 -35.849758 70.832718
  endloop
 endfacet
 facet normal -0.683013 -0.683016 -0.258809
  outer loop
   vertex -968.501953 -35.849758 70.832718
   vertex -968.312378 -35.660164 69.832062
   vertex -965.503784 -38.360760 69.547081
  endloop
 endfacet
 facet normal 0.683013 0.683016 0.258811
  outer loop
   vertex -967.629395 -34.977154 70.090874
   vertex -967.818970 -35.166752 71.091530
   vertex -964.820801 -37.677753 69.805901
  endloop
 endfacet
 facet normal 0.683012 0.683021 0.258799
  outer loop
   vertex -964.820801 -37.677753 69.805901
   vertex -967.818970 -35.166752 71.091530
   vertex -964.893433 -37.979603 70.794228
  endloop
 endfacet
 facet normal 0.683015 0.683019 0.258798
  outer loop
   vertex -964.893433 -37.979603 70.794228
   vertex -961.973389 -40.203865 68.957970
   vertex -964.820801 -37.677753 69.805901
  endloop
 endfacet
 facet normal 0.683015 0.683018 0.258800
  outer loop
   vertex -961.927307 -40.610542 69.909645
   vertex -961.973389 -40.203865 68.957970
   vertex -964.893433 -37.979603 70.794228
  endloop
 endfacet
 facet normal 0.683009 0.683023 0.258802
  outer loop
   vertex -959.157227 -42.493286 67.567955
   vertex -961.973389 -40.203865 68.957970
   vertex -961.927307 -40.610542 69.909645
  endloop
 endfacet
 facet normal 0.683013 0.683014 0.258813
  outer loop
   vertex -961.927307 -40.610542 69.909645
   vertex -958.993591 -42.994774 68.459557
   vertex -959.157227 -42.493286 67.567955
  endloop
 endfacet
 facet normal 0.683013 0.683014 0.258813
  outer loop
   vertex -959.157227 -42.493286 67.567955
   vertex -958.993591 -42.994774 68.459557
   vertex -956.441711 -44.489639 65.670082
  endloop
 endfacet
 facet normal 0.683005 0.683029 0.258798
  outer loop
   vertex -956.441711 -44.489639 65.670082
   vertex -958.993591 -42.994774 68.459557
   vertex -956.164490 -45.073589 66.479637
  endloop
 endfacet
 facet normal 0.683004 0.683030 0.258799
  outer loop
   vertex -956.164490 -45.073589 66.479637
   vertex -954.563965 -46.111893 64.995964
   vertex -956.441711 -44.489639 65.670082
  endloop
 endfacet
 facet normal 0.129088 0.235889 -0.963168
  outer loop
   vertex -968.312378 -35.660164 69.832062
   vertex -967.629395 -34.977154 70.090874
   vertex -965.503784 -38.360760 69.547081
  endloop
 endfacet
 facet normal -0.307579 0.590376 -0.746224
  outer loop
   vertex -954.852966 -45.520996 64.199272
   vertex -955.536011 -46.204002 63.940449
   vertex -956.441711 -44.489639 65.670082
  endloop
 endfacet
 facet normal -0.307606 0.590363 -0.746224
  outer loop
   vertex -956.441711 -44.489639 65.670082
   vertex -955.536011 -46.204002 63.940449
   vertex -957.124695 -45.172646 65.411270
  endloop
 endfacet
 facet normal -0.201551 0.516825 -0.832027
  outer loop
   vertex -957.124695 -45.172646 65.411270
   vertex -959.157227 -42.493286 67.567955
   vertex -956.441711 -44.489639 65.670082
  endloop
 endfacet
 facet normal 0.202025 -0.517185 0.831688
  outer loop
   vertex -959.676575 -43.677780 68.200737
   vertex -956.847534 -45.756599 66.220825
   vertex -956.164490 -45.073589 66.479637
  endloop
 endfacet
 facet normal 0.308100 -0.590702 0.745752
  outer loop
   vertex -956.164490 -45.073589 66.479637
   vertex -956.847534 -45.756599 66.220825
   vertex -955.247009 -46.794907 64.737152
  endloop
 endfacet
 facet normal 0.308102 -0.590701 0.745752
  outer loop
   vertex -955.247009 -46.794907 64.737152
   vertex -954.563965 -46.111893 64.995964
   vertex -956.164490 -45.073589 66.479637
  endloop
 endfacet
 facet normal 0.129095 0.235893 -0.963166
  outer loop
   vertex -967.629395 -34.977154 70.090874
   vertex -964.820801 -37.677753 69.805901
   vertex -965.503784 -38.360760 69.547081
  endloop
 endfacet
 facet normal 0.019147 0.337489 -0.941135
  outer loop
   vertex -965.503784 -38.360760 69.547081
   vertex -964.820801 -37.677753 69.805901
   vertex -961.973389 -40.203865 68.957970
  endloop
 endfacet
 facet normal 0.019147 0.337489 -0.941135
  outer loop
   vertex -961.973389 -40.203865 68.957970
   vertex -962.656372 -40.886871 68.699150
   vertex -965.503784 -38.360760 69.547081
  endloop
 endfacet
 facet normal -0.091820 0.431829 -0.897270
  outer loop
   vertex -959.157227 -42.493286 67.567955
   vertex -962.656372 -40.886871 68.699150
   vertex -961.973389 -40.203865 68.957970
  endloop
 endfacet
 facet normal -0.091823 0.431824 -0.897272
  outer loop
   vertex -959.840210 -43.176292 67.309143
   vertex -962.656372 -40.886871 68.699150
   vertex -959.157227 -42.493286 67.567955
  endloop
 endfacet
 facet normal -0.201551 0.516825 -0.832027
  outer loop
   vertex -959.157227 -42.493286 67.567955
   vertex -957.124695 -45.172646 65.411270
   vertex -959.840210 -43.176292 67.309143
  endloop
 endfacet
 facet normal 0.202027 -0.517182 0.831690
  outer loop
   vertex -956.164490 -45.073589 66.479637
   vertex -958.993591 -42.994774 68.459557
   vertex -959.676575 -43.677780 68.200737
  endloop
 endfacet
 facet normal 0.092207 -0.432144 0.897078
  outer loop
   vertex -959.676575 -43.677780 68.200737
   vertex -958.993591 -42.994774 68.459557
   vertex -961.927307 -40.610542 69.909645
  endloop
 endfacet
 facet normal 0.092204 -0.432147 0.897077
  outer loop
   vertex -961.927307 -40.610542 69.909645
   vertex -962.610352 -41.293552 69.650826
   vertex -959.676575 -43.677780 68.200737
  endloop
 endfacet
 facet normal -0.018895 -0.337709 0.941061
  outer loop
   vertex -964.893433 -37.979603 70.794228
   vertex -962.610352 -41.293552 69.650826
   vertex -961.927307 -40.610542 69.909645
  endloop
 endfacet
 facet normal -0.018889 -0.337705 0.941062
  outer loop
   vertex -965.576477 -38.662613 70.535416
   vertex -962.610352 -41.293552 69.650826
   vertex -964.893433 -37.979603 70.794228
  endloop
 endfacet
 facet normal -0.128997 -0.235966 0.963161
  outer loop
   vertex -964.893433 -37.979603 70.794228
   vertex -967.818970 -35.166752 71.091530
   vertex -965.576477 -38.662613 70.535416
  endloop
 endfacet
 facet normal -0.129005 -0.235970 0.963159
  outer loop
   vertex -965.576477 -38.662613 70.535416
   vertex -967.818970 -35.166752 71.091530
   vertex -968.501953 -35.849758 70.832718
  endloop
 endfacet
 facet normal -0.707123 0.707091 0.000010
  outer loop
   vertex -967.629395 -34.977154 70.090874
   vertex -968.312378 -35.660164 69.832062
   vertex -967.818970 -35.166752 71.091530
  endloop
 endfacet
 facet normal -0.707120 0.707093 0.000008
  outer loop
   vertex -967.818970 -35.166752 71.091530
   vertex -968.312378 -35.660164 69.832062
   vertex -968.501953 -35.849758 70.832718
  endloop
 endfacet
endsolid