solid stl file generated from DOUG
 facet normal 0.000000 -0.000000 1.000000
  outer loop
   vertex -949.124390 -46.678928 15.533397
   vertex -933.893555 -49.484489 15.533394
   vertex -933.868530 -48.484806 15.533394
  endloop
 endfacet
 facet normal 0.000000 -0.000000 1.000000
  outer loop
   vertex -933.868530 -48.484806 15.533394
   vertex -933.893555 -49.484489 15.533394
   vertex -928.012512 -48.703659 15.533393
  endloop
 endfacet
 facet normal 0.000000 -0.000001 1.000000
  outer loop
   vertex -928.012512 -48.703659 15.533393
   vertex -928.106201 -47.719749 15.533394
   vertex -933.868530 -48.484806 15.533394
  endloop
 endfacet
 facet normal 0.995497 0.094792 -0.000000
  outer loop
   vertex -928.012512 -48.703659 14.533393
   vertex -928.106201 -47.719749 15.533394
   vertex -928.012512 -48.703659 15.533393
  endloop
 endfacet
 facet normal 0.995497 0.094792 0.000000
  outer loop
   vertex -928.106201 -47.719749 14.533394
   vertex -928.106201 -47.719749 15.533394
   vertex -928.012512 -48.703659 14.533393
  endloop
 endfacet
 facet normal -0.000000 0.000001 -1.000000
  outer loop
   vertex -928.012512 -48.703659 14.533393
   vertex -933.868530 -48.484806 14.533394
   vertex -928.106201 -47.719749 14.533394
  endloop
 endfacet
 facet normal 0.000000 -0.000000 1.000000
  outer loop
   vertex -948.791626 -45.735924 15.533397
   vertex -955.463257 -42.123024 15.533399
   vertex -955.933533 -42.991531 15.533399
  endloop
 endfacet
 facet normal -0.879362 0.476153 -0.000000
  outer loop
   vertex -955.933533 -42.991531 15.533399
   vertex -955.463257 -42.123024 15.533399
   vertex -955.463257 -42.123024 14.533399
  endloop
 endfacet
 facet normal -0.879362 0.476153 0.000000
  outer loop
   vertex -955.463257 -42.123024 14.533399
   vertex -955.933533 -42.991531 14.533399
   vertex -955.933533 -42.991531 15.533399
  endloop
 endfacet
 facet normal -0.000000 0.000000 -1.000000
  outer loop
   vertex -948.791626 -45.735924 14.533397
   vertex -955.933533 -42.991531 14.533399
   vertex -955.463257 -42.123024 14.533399
  endloop
 endfacet
 facet normal -0.000000 0.000000 -1.000000
  outer loop
   vertex -949.124390 -46.678928 14.533397
   vertex -955.933533 -42.991531 14.533399
   vertex -948.791626 -45.735924 14.533397
  endloop
 endfacet
 facet normal -0.000000 0.000000 -1.000000
  outer loop
   vertex -948.791626 -45.735924 14.533397
   vertex -933.893555 -49.484489 14.533394
   vertex -949.124390 -46.678928 14.533397
  endloop
 endfacet
 facet normal -0.000000 0.000000 -1.000000
  outer loop
   vertex -928.012512 -48.703659 14.533393
   vertex -933.893555 -49.484489 14.533394
   vertex -933.868530 -48.484806 14.533394
  endloop
 endfacet
 facet normal -0.000000 0.000000 -1.000000
  outer loop
   vertex -933.868530 -48.484806 14.533394
   vertex -933.893555 -49.484489 14.533394
   vertex -948.791626 -45.735924 14.533397
  endloop
 endfacet
 facet normal 0.000000 -0.000000 1.000000
  outer loop
   vertex -933.868530 -48.484806 15.533394
   vertex -948.791626 -45.735924 15.533397
   vertex -949.124390 -46.678928 15.533397
  endloop
 endfacet
 facet normal 0.000000 -0.000000 1.000000
  outer loop
   vertex -949.124390 -46.678928 15.533397
   vertex -948.791626 -45.735924 15.533397
   vertex -955.933533 -42.991531 15.533399
  endloop
 endfacet
 facet normal 0.131616 -0.991301 0.000000
  outer loop
   vertex -928.012512 -48.703659 14.533393
   vertex -928.012512 -48.703659 15.533393
   vertex -933.893555 -49.484489 14.533394
  endloop
 endfacet
 facet normal 0.131616 -0.991301 -0.000000
  outer loop
   vertex -933.893555 -49.484489 14.533394
   vertex -928.012512 -48.703659 15.533393
   vertex -933.893555 -49.484489 15.533394
  endloop
 endfacet
 facet normal -0.181155 -0.983455 0.000000
  outer loop
   vertex -933.893555 -49.484489 15.533394
   vertex -949.124390 -46.678928 14.533397
   vertex -933.893555 -49.484489 14.533394
  endloop
 endfacet
 facet normal -0.181155 -0.983455 0.000000
  outer loop
   vertex -949.124390 -46.678928 15.533397
   vertex -949.124390 -46.678928 14.533397
   vertex -933.893555 -49.484489 15.533394
  endloop
 endfacet
 facet normal -0.476194 -0.879340 0.000000
  outer loop
   vertex -955.933533 -42.991531 14.533399
   vertex -949.124390 -46.678928 14.533397
   vertex -949.124390 -46.678928 15.533397
  endloop
 endfacet
 facet normal -0.476194 -0.879340 -0.000000
  outer loop
   vertex -949.124390 -46.678928 15.533397
   vertex -955.933533 -42.991531 15.533399
   vertex -955.933533 -42.991531 14.533399
  endloop
 endfacet
 facet normal 0.476191 0.879342 0.000000
  outer loop
   vertex -955.463257 -42.123024 14.533399
   vertex -955.463257 -42.123024 15.533399
   vertex -948.791626 -45.735924 14.533397
  endloop
 endfacet
 facet normal 0.476191 0.879342 -0.000000
  outer loop
   vertex -948.791626 -45.735924 14.533397
   vertex -955.463257 -42.123024 15.533399
   vertex -948.791626 -45.735924 15.533397
  endloop
 endfacet
 facet normal 0.181155 0.983454 0.000000
  outer loop
   vertex -948.791626 -45.735924 15.533397
   vertex -933.868530 -48.484806 14.533394
   vertex -948.791626 -45.735924 14.533397
  endloop
 endfacet
 facet normal 0.181155 0.983454 -0.000000
  outer loop
   vertex -933.868530 -48.484806 15.533394
   vertex -933.868530 -48.484806 14.533394
   vertex -948.791626 -45.735924 15.533397
  endloop
 endfacet
 facet normal -0.131614 0.991301 0.000000
  outer loop
   vertex -928.106201 -47.719749 14.533394
   vertex -933.868530 -48.484806 14.533394
   vertex -933.868530 -48.484806 15.533394
  endloop
 endfacet
 facet normal -0.131614 0.991301 -0.000000
  outer loop
   vertex -933.868530 -48.484806 15.533394
   vertex -928.106201 -47.719749 15.533394
   vertex -928.106201 -47.719749 14.533394
  endloop
 endfacet
endsolid