solid stl file generated from DOUG
 facet normal 0.198199 0.815776 0.543347
  outer loop
   vertex 503.037933 67.500252 247.211685
   vertex 503.171417 67.477791 247.196716
   vertex 503.171448 77.906029 231.539856
  endloop
 endfacet
 facet normal 0.906299 0.351754 0.234287
  outer loop
   vertex 503.171448 77.906029 231.539856
   vertex 503.171417 67.477791 247.196716
   vertex 503.214874 77.828522 231.488235
  endloop
 endfacet
 facet normal 0.878239 -0.398019 -0.265098
  outer loop
   vertex 502.571167 78.761650 232.109741
   vertex 502.636292 78.861191 232.176041
   vertex 502.636261 68.432953 247.832901
  endloop
 endfacet
 facet normal 0.906299 0.351754 0.234287
  outer loop
   vertex 502.636261 68.432953 247.832901
   vertex 502.636292 78.861191 232.176041
   vertex 502.592865 78.938698 232.227661
  endloop
 endfacet
 facet normal 0.906325 0.351708 0.234256
  outer loop
   vertex 502.592865 78.938698 232.227661
   vertex 502.592834 68.510468 247.884537
   vertex 502.636261 68.432953 247.832901
  endloop
 endfacet
 facet normal 0.694711 0.598655 0.398735
  outer loop
   vertex 501.928802 78.680977 232.056000
   vertex 501.928772 68.252739 247.712875
   vertex 501.953003 78.661522 232.043045
  endloop
 endfacet
 facet normal 0.694257 0.599020 0.398976
  outer loop
   vertex 501.953003 78.661522 232.043045
   vertex 501.928772 68.252739 247.712875
   vertex 501.953003 68.233284 247.699921
  endloop
 endfacet
 facet normal -0.422604 0.754315 0.502410
  outer loop
   vertex 501.953003 68.233284 247.699921
   vertex 502.474274 68.435585 247.834656
   vertex 501.953003 78.661522 232.043045
  endloop
 endfacet
 facet normal 0.198051 0.815802 0.543363
  outer loop
   vertex 503.171448 77.906029 231.539856
   vertex 503.037933 77.928482 231.554810
   vertex 503.037933 67.500252 247.211685
  endloop
 endfacet
 facet normal 0.906320 0.351718 0.234261
  outer loop
   vertex 503.037933 67.500252 247.211685
   vertex 503.037933 77.928482 231.554810
   vertex 502.571167 78.761650 232.109741
  endloop
 endfacet
 facet normal 0.906307 0.351741 0.234278
  outer loop
   vertex 502.571167 78.761650 232.109741
   vertex 502.571136 68.333412 247.766602
   vertex 503.037933 67.500252 247.211685
  endloop
 endfacet
 facet normal 0.878239 -0.398019 -0.265098
  outer loop
   vertex 502.636261 68.432953 247.832901
   vertex 502.571136 68.333412 247.766602
   vertex 502.571167 78.761650 232.109741
  endloop
 endfacet
 facet normal -0.422668 0.754290 0.502393
  outer loop
   vertex 502.592834 68.510468 247.884537
   vertex 502.592865 78.938698 232.227661
   vertex 502.471924 68.463539 247.853271
  endloop
 endfacet
 facet normal -0.422577 0.754325 0.502417
  outer loop
   vertex 502.471924 68.463539 247.853271
   vertex 502.592865 78.938698 232.227661
   vertex 502.471954 78.891777 232.196411
  endloop
 endfacet
 facet normal -0.997561 -0.058089 -0.038692
  outer loop
   vertex 502.471954 78.891777 232.196411
   vertex 502.474274 68.435585 247.834656
   vertex 502.471924 68.463539 247.853271
  endloop
 endfacet
 facet normal -0.997624 -0.057339 -0.038191
  outer loop
   vertex 502.474274 78.863823 232.177795
   vertex 502.474274 68.435585 247.834656
   vertex 502.471954 78.891777 232.196411
  endloop
 endfacet
 facet normal -0.422616 0.754310 0.502407
  outer loop
   vertex 501.953003 78.661522 232.043045
   vertex 502.474274 68.435585 247.834656
   vertex 502.474274 78.863823 232.177795
  endloop
 endfacet
 facet normal -0.000006 0.554344 -0.832287
  outer loop
   vertex 503.239014 78.086388 231.087463
   vertex 501.840851 78.926643 231.647125
   vertex 502.602631 79.222275 231.844025
  endloop
 endfacet
 facet normal -0.422595 0.754318 0.502411
  outer loop
   vertex 502.602631 79.222275 231.844025
   vertex 501.840851 78.926643 231.647125
   vertex 502.602631 78.667931 232.676315
  endloop
 endfacet
 facet normal 0.906314 0.351729 0.234268
  outer loop
   vertex 502.602631 78.667931 232.676315
   vertex 503.239014 77.532043 231.919754
   vertex 502.602631 79.222275 231.844025
  endloop
 endfacet
 facet normal -0.000008 -0.554350 0.832284
  outer loop
   vertex 501.840851 78.372299 232.479401
   vertex 503.239014 77.532043 231.919754
   vertex 502.602631 78.667931 232.676315
  endloop
 endfacet
 facet normal 0.000006 -0.554334 0.832294
  outer loop
   vertex 502.477264 77.236404 231.722855
   vertex 503.239014 77.532043 231.919754
   vertex 501.840851 78.372299 232.479401
  endloop
 endfacet
 facet normal -0.906306 -0.351742 -0.234281
  outer loop
   vertex 501.840851 78.372299 232.479401
   vertex 501.840851 78.926643 231.647125
   vertex 502.477264 77.236404 231.722855
  endloop
 endfacet
 facet normal -0.906307 -0.351742 -0.234276
  outer loop
   vertex 502.477264 77.236404 231.722855
   vertex 501.840851 78.926643 231.647125
   vertex 502.477264 77.790749 230.890564
  endloop
 endfacet
 facet normal -0.000010 0.554340 -0.832290
  outer loop
   vertex 502.477264 77.790749 230.890564
   vertex 501.840851 78.926643 231.647125
   vertex 503.239014 78.086388 231.087463
  endloop
 endfacet
 facet normal 0.422616 -0.754311 -0.502406
  outer loop
   vertex 503.239014 78.086388 231.087463
   vertex 503.239014 77.532043 231.919754
   vertex 502.477264 77.790749 230.890564
  endloop
 endfacet
 facet normal 0.906314 0.351729 0.234268
  outer loop
   vertex 502.602631 79.222275 231.844025
   vertex 503.239014 77.532043 231.919754
   vertex 503.239014 78.086388 231.087463
  endloop
 endfacet
 facet normal 0.000008 0.554350 -0.832284
  outer loop
   vertex 502.602600 68.820099 247.461777
   vertex 503.238983 67.684212 246.705215
   vertex 501.840851 68.524467 247.264862
  endloop
 endfacet
 facet normal 0.000004 0.554346 -0.832287
  outer loop
   vertex 501.840851 68.524467 247.264862
   vertex 503.238983 67.684212 246.705215
   vertex 502.477234 67.388573 246.508301
  endloop
 endfacet
 facet normal -0.906315 -0.351729 -0.234265
  outer loop
   vertex 502.477234 67.388573 246.508301
   vertex 502.477234 66.834236 247.340591
   vertex 501.840851 68.524467 247.264862
  endloop
 endfacet
 facet normal 0.422624 -0.754311 -0.502399
  outer loop
   vertex 503.238983 67.684212 246.705215
   vertex 502.477234 66.834236 247.340591
   vertex 502.477234 67.388573 246.508301
  endloop
 endfacet
 facet normal 0.422618 -0.754310 -0.502405
  outer loop
   vertex 503.238983 67.129868 247.537506
   vertex 502.477234 66.834236 247.340591
   vertex 503.238983 67.684212 246.705215
  endloop
 endfacet
 facet normal 0.906314 0.351730 0.234268
  outer loop
   vertex 503.238983 67.684212 246.705215
   vertex 502.602600 68.265762 248.294052
   vertex 503.238983 67.129868 247.537506
  endloop
 endfacet
 facet normal -0.000012 -0.554341 0.832290
  outer loop
   vertex 503.238983 67.129868 247.537506
   vertex 502.602600 68.265762 248.294052
   vertex 502.477234 66.834236 247.340591
  endloop
 endfacet
 facet normal 0.000011 -0.554343 0.832289
  outer loop
   vertex 502.477234 66.834236 247.340591
   vertex 502.602600 68.265762 248.294052
   vertex 501.840851 67.970123 248.097153
  endloop
 endfacet
 facet normal -0.906314 -0.351729 -0.234268
  outer loop
   vertex 501.840851 67.970123 248.097153
   vertex 501.840851 68.524467 247.264862
   vertex 502.477234 66.834236 247.340591
  endloop
 endfacet
 facet normal -0.422616 0.754311 0.502406
  outer loop
   vertex 502.602600 68.265762 248.294052
   vertex 501.840851 68.524467 247.264862
   vertex 501.840851 67.970123 248.097153
  endloop
 endfacet
 facet normal -0.422618 0.754309 0.502407
  outer loop
   vertex 502.602600 68.820099 247.461777
   vertex 501.840851 68.524467 247.264862
   vertex 502.602600 68.265762 248.294052
  endloop
 endfacet
 facet normal 0.906314 0.351729 0.234269
  outer loop
   vertex 502.602600 68.265762 248.294052
   vertex 503.238983 67.684212 246.705215
   vertex 502.602600 68.820099 247.461777
  endloop
 endfacet
 facet normal 0.906299 0.351754 0.234287
  outer loop
   vertex 503.171417 67.477791 247.196716
   vertex 503.214844 67.400284 247.145096
   vertex 503.214874 77.828522 231.488235
  endloop
 endfacet
 facet normal 0.422616 -0.754310 -0.502407
  outer loop
   vertex 503.214874 77.828522 231.488235
   vertex 503.214844 67.400284 247.145096
   vertex 503.093933 67.353355 247.113846
  endloop
 endfacet
 facet normal 0.422580 -0.754324 -0.502416
  outer loop
   vertex 503.093933 67.353355 247.113846
   vertex 503.093933 77.781593 231.456970
   vertex 503.214874 77.828522 231.488235
  endloop
 endfacet
 facet normal -0.694257 -0.599020 -0.398976
  outer loop
   vertex 503.069702 67.372810 247.126801
   vertex 503.093933 77.781593 231.456970
   vertex 503.093933 67.353355 247.113846
  endloop
 endfacet
 facet normal -0.694711 -0.598655 -0.398735
  outer loop
   vertex 503.069733 77.801048 231.469925
   vertex 503.093933 77.781593 231.456970
   vertex 503.069702 67.372810 247.126801
  endloop
 endfacet
 facet normal 0.422616 -0.754310 -0.502406
  outer loop
   vertex 503.069702 67.372810 247.126801
   vertex 502.548431 67.170509 246.992050
   vertex 503.069733 77.801048 231.469925
  endloop
 endfacet
 facet normal 0.422613 -0.754311 -0.502407
  outer loop
   vertex 503.069733 77.801048 231.469925
   vertex 502.548431 67.170509 246.992050
   vertex 502.548462 77.598740 231.335190
  endloop
 endfacet
 facet normal 0.997624 0.057339 0.038192
  outer loop
   vertex 502.548462 77.598740 231.335190
   vertex 502.548431 67.170509 246.992050
   vertex 502.550751 67.142555 246.973434
  endloop
 endfacet
 facet normal 0.997623 0.057349 0.038199
  outer loop
   vertex 502.550751 67.142555 246.973434
   vertex 502.550781 77.570793 231.316574
   vertex 502.548462 77.598740 231.335190
  endloop
 endfacet
 facet normal 0.422573 -0.754326 -0.502418
  outer loop
   vertex 502.490753 67.119270 246.957932
   vertex 502.550781 77.570793 231.316574
   vertex 502.550751 67.142555 246.973434
  endloop
 endfacet
 facet normal 0.422678 -0.754286 -0.502390
  outer loop
   vertex 502.490784 77.547508 231.301056
   vertex 502.550781 77.570793 231.316574
   vertex 502.490753 67.119270 246.957932
  endloop
 endfacet
 facet normal -0.906315 -0.351726 -0.234269
  outer loop
   vertex 502.490753 67.119270 246.957932
   vertex 501.868774 68.229454 247.697372
   vertex 502.490784 77.547508 231.301056
  endloop
 endfacet
 facet normal -0.906315 -0.351726 -0.234269
  outer loop
   vertex 502.490784 77.547508 231.301056
   vertex 501.868774 68.229454 247.697372
   vertex 501.868805 78.657692 232.040497
  endloop
 endfacet
 facet normal -0.422573 0.754327 0.502417
  outer loop
   vertex 501.868805 78.657692 232.040497
   vertex 501.868774 68.229454 247.697372
   vertex 501.928802 78.680977 232.056000
  endloop
 endfacet
 facet normal -0.422604 0.754311 0.502415
  outer loop
   vertex 501.840851 78.372299 232.479401
   vertex 502.602631 78.667931 232.676315
   vertex 501.840851 78.926643 231.647125
  endloop
 endfacet
 facet normal 0.422616 -0.754311 -0.502406
  outer loop
   vertex 503.239014 77.532043 231.919754
   vertex 502.477264 77.236404 231.722855
   vertex 502.477264 77.790749 230.890564
  endloop
 endfacet
 facet normal -0.422573 0.754327 0.502417
  outer loop
   vertex 501.868774 68.229454 247.697372
   vertex 501.928772 68.252739 247.712875
   vertex 501.928802 78.680977 232.056000
  endloop
 endfacet
 facet normal 0.649124 -0.457931 0.607402
  outer loop
   vertex 501.306610 67.216827 247.280121
   vertex 500.400299 66.449333 247.670059
   vertex 501.381317 67.124077 247.130356
  endloop
 endfacet
 facet normal 0.649116 -0.457885 0.607445
  outer loop
   vertex 501.381317 67.124077 247.130356
   vertex 500.400299 66.449333 247.670059
   vertex 500.699158 66.078316 247.071030
  endloop
 endfacet
 facet normal 0.837123 -0.546842 0.013726
  outer loop
   vertex 500.699158 66.078316 247.071030
   vertex 501.412262 67.166832 246.946442
   vertex 501.381317 67.124077 247.130356
  endloop
 endfacet
 facet normal 0.837122 -0.546844 0.013702
  outer loop
   vertex 500.822937 66.249367 246.335373
   vertex 501.412262 67.166832 246.946442
   vertex 500.699158 66.078316 247.071030
  endloop
 endfacet
 facet normal 0.837116 -0.198104 -0.509893
  outer loop
   vertex 501.381317 67.320061 246.836105
   vertex 501.412262 67.166832 246.946442
   vertex 500.822937 66.249367 246.335373
  endloop
 endfacet
 facet normal 0.837124 -0.198116 -0.509876
  outer loop
   vertex 500.822937 66.249367 246.335373
   vertex 500.699158 66.862282 245.893997
   vertex 501.381317 67.320061 246.836105
  endloop
 endfacet
 facet normal 0.649147 0.384000 -0.656622
  outer loop
   vertex 501.381317 67.320061 246.836105
   vertex 500.699158 66.862282 245.893997
   vertex 501.306610 67.493996 246.863968
  endloop
 endfacet
 facet normal 0.649113 0.384044 -0.656629
  outer loop
   vertex 501.306610 67.493996 246.863968
   vertex 500.699158 66.862282 245.893997
   vertex 500.400299 67.558022 246.005478
  endloop
 endfacet
 facet normal 0.383257 0.858558 -0.340575
  outer loop
   vertex 500.400299 67.558022 246.005478
   vertex 501.231903 67.586754 247.013733
   vertex 501.306610 67.493996 246.863968
  endloop
 endfacet
 facet normal 0.383255 0.858560 -0.340573
  outer loop
   vertex 500.101471 67.929039 246.604507
   vertex 501.231903 67.586754 247.013733
   vertex 500.400299 67.558022 246.005478
  endloop
 endfacet
 facet normal 0.195252 0.947515 0.253164
  outer loop
   vertex 501.200958 67.543991 247.197647
   vertex 501.231903 67.586754 247.013733
   vertex 500.101471 67.929039 246.604507
  endloop
 endfacet
 facet normal 0.195255 0.947516 0.253159
  outer loop
   vertex 500.101471 67.929039 246.604507
   vertex 499.977692 67.757988 247.340179
   vertex 501.200958 67.543991 247.197647
  endloop
 endfacet
 facet normal 0.195253 0.598760 0.776764
  outer loop
   vertex 501.200958 67.543991 247.197647
   vertex 499.977692 67.757988 247.340179
   vertex 501.231903 67.390762 247.307983
  endloop
 endfacet
 facet normal 0.195257 0.598773 0.776753
  outer loop
   vertex 501.231903 67.390762 247.307983
   vertex 499.977692 67.757988 247.340179
   vertex 500.101471 67.145073 247.781540
  endloop
 endfacet
 facet normal 0.383244 0.016673 0.923497
  outer loop
   vertex 500.101471 67.145073 247.781540
   vertex 501.306610 67.216827 247.280121
   vertex 501.231903 67.390762 247.307983
  endloop
 endfacet
 facet normal 0.383246 0.016634 0.923496
  outer loop
   vertex 500.400299 66.449333 247.670059
   vertex 501.306610 67.216827 247.280121
   vertex 500.101471 67.145073 247.781540
  endloop
 endfacet
 facet normal 0.161738 -0.800830 0.576639
  outer loop
   vertex 502.203857 77.953438 231.914978
   vertex 501.297546 77.601700 231.680695
   vertex 502.278564 77.860687 231.765213
  endloop
 endfacet
 facet normal 0.161728 -0.800804 0.576677
  outer loop
   vertex 502.278564 77.860687 231.765213
   vertex 501.297546 77.601700 231.680695
   vertex 501.372253 77.508949 231.530945
  endloop
 endfacet
 facet normal 0.390446 -0.909029 -0.145667
  outer loop
   vertex 501.372253 77.508949 231.530945
   vertex 502.309509 77.903450 231.581299
   vertex 502.278564 77.860687 231.765213
  endloop
 endfacet
 facet normal 0.390446 -0.909029 -0.145667
  outer loop
   vertex 501.403198 77.551712 231.347031
   vertex 502.309509 77.903450 231.581299
   vertex 501.372253 77.508949 231.530945
  endloop
 endfacet
 facet normal 0.390438 -0.484739 -0.782679
  outer loop
   vertex 502.278564 78.056679 231.470963
   vertex 502.309509 77.903450 231.581299
   vertex 501.403198 77.551712 231.347031
  endloop
 endfacet
 facet normal 0.390458 -0.484785 -0.782640
  outer loop
   vertex 501.403198 77.551712 231.347031
   vertex 501.372253 77.704941 231.236679
   vertex 502.278564 78.056679 231.470963
  endloop
 endfacet
 facet normal 0.161752 0.223449 -0.961201
  outer loop
   vertex 502.278564 78.056679 231.470963
   vertex 501.372253 77.704941 231.236679
   vertex 502.203857 78.230614 231.498825
  endloop
 endfacet
 facet normal 0.161709 0.223513 -0.961193
  outer loop
   vertex 502.203857 78.230614 231.498825
   vertex 501.372253 77.704941 231.236679
   vertex 501.297546 77.878876 231.264557
  endloop
 endfacet
 facet normal -0.161746 0.800826 -0.576641
  outer loop
   vertex 501.297546 77.878876 231.264557
   vertex 502.129150 78.323364 231.648590
   vertex 502.203857 78.230614 231.498825
  endloop
 endfacet
 facet normal -0.161720 0.800807 -0.576675
  outer loop
   vertex 501.222839 77.971626 231.414307
   vertex 502.129150 78.323364 231.648590
   vertex 501.297546 77.878876 231.264557
  endloop
 endfacet
 facet normal -0.390448 0.909028 0.145667
  outer loop
   vertex 502.098206 78.280602 231.832504
   vertex 502.129150 78.323364 231.648590
   vertex 501.222839 77.971626 231.414307
  endloop
 endfacet
 facet normal -0.390448 0.909028 0.145667
  outer loop
   vertex 501.222839 77.971626 231.414307
   vertex 501.191895 77.928864 231.598221
   vertex 502.098206 78.280602 231.832504
  endloop
 endfacet
 facet normal -0.390448 0.484735 0.782676
  outer loop
   vertex 502.098206 78.280602 231.832504
   vertex 501.191895 77.928864 231.598221
   vertex 502.129150 78.127373 231.942841
  endloop
 endfacet
 facet normal -0.390448 0.484789 0.782643
  outer loop
   vertex 502.129150 78.127373 231.942841
   vertex 501.191895 77.928864 231.598221
   vertex 501.222839 77.775635 231.708572
  endloop
 endfacet
 facet normal -0.161739 -0.223444 0.961204
  outer loop
   vertex 501.222839 77.775635 231.708572
   vertex 502.203857 77.953438 231.914978
   vertex 502.129150 78.127373 231.942841
  endloop
 endfacet
 facet normal -0.161722 -0.223518 0.961190
  outer loop
   vertex 501.297546 77.601700 231.680695
   vertex 502.203857 77.953438 231.914978
   vertex 501.222839 77.775635 231.708572
  endloop
 endfacet
 facet normal 0.161730 -0.800806 0.576674
  outer loop
   vertex 500.400330 76.837738 232.072983
   vertex 499.494019 76.486000 231.838715
   vertex 500.699158 76.466728 231.473969
  endloop
 endfacet
 facet normal 0.161726 -0.800815 0.576663
  outer loop
   vertex 500.699158 76.466728 231.473969
   vertex 499.494019 76.486000 231.838715
   vertex 499.792847 76.114990 231.239685
  endloop
 endfacet
 facet normal 0.390446 -0.909031 -0.145655
  outer loop
   vertex 499.792847 76.114990 231.239685
   vertex 500.822937 76.637772 230.738297
   vertex 500.699158 76.466728 231.473969
  endloop
 endfacet
 facet normal 0.390446 -0.909031 -0.145655
  outer loop
   vertex 499.916626 76.286034 230.504013
   vertex 500.822937 76.637772 230.738297
   vertex 499.792847 76.114990 231.239685
  endloop
 endfacet
 facet normal 0.390451 -0.484747 -0.782667
  outer loop
   vertex 500.699158 77.250687 230.296936
   vertex 500.822937 76.637772 230.738297
   vertex 499.916626 76.286034 230.504013
  endloop
 endfacet
 facet normal 0.390451 -0.484747 -0.782667
  outer loop
   vertex 499.916626 76.286034 230.504013
   vertex 499.792847 76.898949 230.062653
   vertex 500.699158 77.250687 230.296936
  endloop
 endfacet
 facet normal 0.161737 0.223484 -0.961195
  outer loop
   vertex 500.699158 77.250687 230.296936
   vertex 499.792847 76.898949 230.062653
   vertex 500.400330 77.946426 230.408417
  endloop
 endfacet
 facet normal 0.161737 0.223484 -0.961195
  outer loop
   vertex 500.400330 77.946426 230.408417
   vertex 499.792847 76.898949 230.062653
   vertex 499.494019 77.594688 230.174133
  endloop
 endfacet
 facet normal -0.161723 0.800811 -0.576670
  outer loop
   vertex 499.494019 77.594688 230.174133
   vertex 500.101501 78.317444 231.007446
   vertex 500.400330 77.946426 230.408417
  endloop
 endfacet
 facet normal -0.161723 0.800811 -0.576670
  outer loop
   vertex 499.195190 77.965706 230.773163
   vertex 500.101501 78.317444 231.007446
   vertex 499.494019 77.594688 230.174133
  endloop
 endfacet
 facet normal -0.390448 0.909028 0.145667
  outer loop
   vertex 499.977722 78.146393 231.743103
   vertex 500.101501 78.317444 231.007446
   vertex 499.195190 77.965706 230.773163
  endloop
 endfacet
 facet normal -0.390445 0.909029 0.145665
  outer loop
   vertex 499.195190 77.965706 230.773163
   vertex 499.071411 77.794655 231.508835
   vertex 499.977722 78.146393 231.743103
  endloop
 endfacet
 facet normal -0.390443 0.484764 0.782661
  outer loop
   vertex 499.977722 78.146393 231.743103
   vertex 499.071411 77.794655 231.508835
   vertex 500.101501 77.533478 232.184479
  endloop
 endfacet
 facet normal -0.390448 0.484752 0.782666
  outer loop
   vertex 500.101501 77.533478 232.184479
   vertex 499.071411 77.794655 231.508835
   vertex 499.195190 77.181747 231.950195
  endloop
 endfacet
 facet normal -0.161732 -0.223502 0.961192
  outer loop
   vertex 499.195190 77.181747 231.950195
   vertex 500.400330 76.837738 232.072983
   vertex 500.101501 77.533478 232.184479
  endloop
 endfacet
 facet normal -0.161725 -0.223476 0.961199
  outer loop
   vertex 499.494019 76.486000 231.838715
   vertex 500.400330 76.837738 232.072983
   vertex 499.195190 77.181747 231.950195
  endloop
 endfacet
 facet normal 0.649113 -0.457899 0.607438
  outer loop
   vertex 501.306641 77.605232 231.683044
   vertex 500.400330 76.837738 232.072983
   vertex 501.381348 77.512482 231.533295
  endloop
 endfacet
 facet normal 0.649114 -0.457905 0.607432
  outer loop
   vertex 501.381348 77.512482 231.533295
   vertex 500.400330 76.837738 232.072983
   vertex 500.699158 76.466728 231.473969
  endloop
 endfacet
 facet normal 0.837111 -0.546861 0.013697
  outer loop
   vertex 500.699158 76.466728 231.473969
   vertex 501.412292 77.555244 231.349380
   vertex 501.381348 77.512482 231.533295
  endloop
 endfacet
 facet normal 0.837112 -0.546860 0.013702
  outer loop
   vertex 500.822937 76.637772 230.738297
   vertex 501.412292 77.555244 231.349380
   vertex 500.699158 76.466728 231.473969
  endloop
 endfacet
 facet normal 0.837121 -0.198139 -0.509872
  outer loop
   vertex 501.381348 77.708473 231.239029
   vertex 501.412292 77.555244 231.349380
   vertex 500.822937 76.637772 230.738297
  endloop
 endfacet
 facet normal 0.837110 -0.198121 -0.509897
  outer loop
   vertex 500.822937 76.637772 230.738297
   vertex 500.699158 77.250687 230.296936
   vertex 501.381348 77.708473 231.239029
  endloop
 endfacet
 facet normal 0.649101 0.384041 -0.656643
  outer loop
   vertex 501.381348 77.708473 231.239029
   vertex 500.699158 77.250687 230.296936
   vertex 501.306641 77.882408 231.266907
  endloop
 endfacet
 facet normal 0.649118 0.384019 -0.656639
  outer loop
   vertex 501.306641 77.882408 231.266907
   vertex 500.699158 77.250687 230.296936
   vertex 500.400330 77.946426 230.408417
  endloop
 endfacet
 facet normal 0.383249 0.858563 -0.340573
  outer loop
   vertex 500.400330 77.946426 230.408417
   vertex 501.231934 77.975159 231.416656
   vertex 501.306641 77.882408 231.266907
  endloop
 endfacet
 facet normal 0.383251 0.858561 -0.340576
  outer loop
   vertex 500.101501 78.317444 231.007446
   vertex 501.231934 77.975159 231.416656
   vertex 500.400330 77.946426 230.408417
  endloop
 endfacet
 facet normal 0.195263 0.947518 0.253145
  outer loop
   vertex 501.200989 77.932396 231.600586
   vertex 501.231934 77.975159 231.416656
   vertex 500.101501 78.317444 231.007446
  endloop
 endfacet
 facet normal 0.195252 0.947515 0.253164
  outer loop
   vertex 500.101501 78.317444 231.007446
   vertex 499.977722 78.146393 231.743103
   vertex 501.200989 77.932396 231.600586
  endloop
 endfacet
 facet normal 0.195244 0.598760 0.776766
  outer loop
   vertex 501.200989 77.932396 231.600586
   vertex 499.977722 78.146393 231.743103
   vertex 501.231934 77.779167 231.710922
  endloop
 endfacet
 facet normal 0.195251 0.598785 0.776745
  outer loop
   vertex 501.231934 77.779167 231.710922
   vertex 499.977722 78.146393 231.743103
   vertex 500.101501 77.533478 232.184479
  endloop
 endfacet
 facet normal 0.383258 0.016599 0.923492
  outer loop
   vertex 500.101501 77.533478 232.184479
   vertex 501.306641 77.605232 231.683044
   vertex 501.231934 77.779167 231.710922
  endloop
 endfacet
 facet normal 0.383257 0.016619 0.923492
  outer loop
   vertex 500.400330 76.837738 232.072983
   vertex 501.306641 77.605232 231.683044
   vertex 500.101501 77.533478 232.184479
  endloop
 endfacet
 facet normal 0.161728 -0.800804 0.576677
  outer loop
   vertex 502.203827 67.565033 247.512039
   vertex 501.297516 67.213295 247.277771
   vertex 502.278534 67.472282 247.362289
  endloop
 endfacet
 facet normal 0.161738 -0.800830 0.576639
  outer loop
   vertex 502.278534 67.472282 247.362289
   vertex 501.297516 67.213295 247.277771
   vertex 501.372223 67.120544 247.128006
  endloop
 endfacet
 facet normal 0.390442 -0.909036 -0.145632
  outer loop
   vertex 501.372223 67.120544 247.128006
   vertex 502.309479 67.515038 247.178375
   vertex 502.278534 67.472282 247.362289
  endloop
 endfacet
 facet normal 0.390441 -0.909030 -0.145669
  outer loop
   vertex 501.403168 67.163307 246.944092
   vertex 502.309479 67.515038 247.178375
   vertex 501.372223 67.120544 247.128006
  endloop
 endfacet
 facet normal 0.390455 -0.484786 -0.782641
  outer loop
   vertex 502.278534 67.668266 247.068024
   vertex 502.309479 67.515038 247.178375
   vertex 501.403168 67.163307 246.944092
  endloop
 endfacet
 facet normal 0.390434 -0.484740 -0.782680
  outer loop
   vertex 501.403168 67.163307 246.944092
   vertex 501.372223 67.316536 246.833755
   vertex 502.278534 67.668266 247.068024
  endloop
 endfacet
 facet normal 0.161711 0.223514 -0.961193
  outer loop
   vertex 502.278534 67.668266 247.068024
   vertex 501.372223 67.316536 246.833755
   vertex 502.203827 67.842201 247.095901
  endloop
 endfacet
 facet normal 0.161754 0.223449 -0.961200
  outer loop
   vertex 502.203827 67.842201 247.095901
   vertex 501.372223 67.316536 246.833755
   vertex 501.297516 67.490471 246.861618
  endloop
 endfacet
 facet normal -0.161702 0.800794 -0.576699
  outer loop
   vertex 501.297516 67.490471 246.861618
   vertex 502.129120 67.934959 247.245651
   vertex 502.203827 67.842201 247.095901
  endloop
 endfacet
 facet normal -0.161746 0.800826 -0.576641
  outer loop
   vertex 501.222809 67.583221 247.011383
   vertex 502.129120 67.934959 247.245651
   vertex 501.297516 67.490471 246.861618
  endloop
 endfacet
 facet normal -0.390446 0.909029 0.145667
  outer loop
   vertex 502.098175 67.892197 247.429565
   vertex 502.129120 67.934959 247.245651
   vertex 501.222809 67.583221 247.011383
  endloop
 endfacet
 facet normal -0.390446 0.909029 0.145667
  outer loop
   vertex 501.222809 67.583221 247.011383
   vertex 501.191864 67.540459 247.195297
   vertex 502.098175 67.892197 247.429565
  endloop
 endfacet
 facet normal -0.390448 0.484789 0.782643
  outer loop
   vertex 502.098175 67.892197 247.429565
   vertex 501.191864 67.540459 247.195297
   vertex 502.129120 67.738968 247.539917
  endloop
 endfacet
 facet normal -0.390448 0.484735 0.782676
  outer loop
   vertex 502.129120 67.738968 247.539917
   vertex 501.191864 67.540459 247.195297
   vertex 501.222809 67.387230 247.305634
  endloop
 endfacet
 facet normal -0.161722 -0.223518 0.961190
  outer loop
   vertex 501.222809 67.387230 247.305634
   vertex 502.203827 67.565033 247.512039
   vertex 502.129120 67.738968 247.539917
  endloop
 endfacet
 facet normal -0.161739 -0.223444 0.961204
  outer loop
   vertex 501.297516 67.213295 247.277771
   vertex 502.203827 67.565033 247.512039
   vertex 501.222809 67.387230 247.305634
  endloop
 endfacet
 facet normal -0.161726 -0.223479 0.961198
  outer loop
   vertex 500.101471 67.145073 247.781540
   vertex 499.195160 66.793343 247.547272
   vertex 500.400299 66.449333 247.670059
  endloop
 endfacet
 facet normal -0.161725 -0.223476 0.961199
  outer loop
   vertex 500.400299 66.449333 247.670059
   vertex 499.195160 66.793343 247.547272
   vertex 499.493988 66.097595 247.435791
  endloop
 endfacet
 facet normal 0.161729 -0.800804 0.576677
  outer loop
   vertex 499.493988 66.097595 247.435791
   vertex 500.699158 66.078316 247.071030
   vertex 500.400299 66.449333 247.670059
  endloop
 endfacet
 facet normal 0.161726 -0.800811 0.576669
  outer loop
   vertex 499.792847 65.726585 246.836761
   vertex 500.699158 66.078316 247.071030
   vertex 499.493988 66.097595 247.435791
  endloop
 endfacet
 facet normal 0.390439 -0.909031 -0.145669
  outer loop
   vertex 500.822937 66.249367 246.335373
   vertex 500.699158 66.078316 247.071030
   vertex 499.792847 65.726585 246.836761
  endloop
 endfacet
 facet normal 0.390446 -0.909031 -0.145655
  outer loop
   vertex 499.792847 65.726585 246.836761
   vertex 499.916626 65.897629 246.101089
   vertex 500.822937 66.249367 246.335373
  endloop
 endfacet
 facet normal 0.390453 -0.484760 -0.782658
  outer loop
   vertex 500.822937 66.249367 246.335373
   vertex 499.916626 65.897629 246.101089
   vertex 500.699158 66.862282 245.893997
  endloop
 endfacet
 facet normal 0.390440 -0.484751 -0.782670
  outer loop
   vertex 500.699158 66.862282 245.893997
   vertex 499.916626 65.897629 246.101089
   vertex 499.792847 66.510544 245.659729
  endloop
 endfacet
 facet normal 0.161722 0.223484 -0.961198
  outer loop
   vertex 499.792847 66.510544 245.659729
   vertex 500.400299 67.558022 246.005478
   vertex 500.699158 66.862282 245.893997
  endloop
 endfacet
 facet normal 0.161729 0.223480 -0.961197
  outer loop
   vertex 499.494019 67.206284 245.771210
   vertex 500.400299 67.558022 246.005478
   vertex 499.792847 66.510544 245.659729
  endloop
 endfacet
 facet normal -0.161736 0.800806 -0.576673
  outer loop
   vertex 500.101471 67.929039 246.604507
   vertex 500.400299 67.558022 246.005478
   vertex 499.494019 67.206284 245.771210
  endloop
 endfacet
 facet normal -0.161729 0.800804 -0.576677
  outer loop
   vertex 499.494019 67.206284 245.771210
   vertex 499.195160 67.577301 246.370239
   vertex 500.101471 67.929039 246.604507
  endloop
 endfacet
 facet normal -0.390445 0.909029 0.145665
  outer loop
   vertex 500.101471 67.929039 246.604507
   vertex 499.195160 67.577301 246.370239
   vertex 499.977692 67.757988 247.340179
  endloop
 endfacet
 facet normal -0.390445 0.909029 0.145665
  outer loop
   vertex 499.977692 67.757988 247.340179
   vertex 499.195160 67.577301 246.370239
   vertex 499.071381 67.406250 247.105911
  endloop
 endfacet
 facet normal -0.390440 0.484751 0.782670
  outer loop
   vertex 499.071381 67.406250 247.105911
   vertex 500.101471 67.145073 247.781540
   vertex 499.977692 67.757988 247.340179
  endloop
 endfacet
 facet normal -0.390438 0.484756 0.782668
  outer loop
   vertex 499.195160 66.793343 247.547272
   vertex 500.101471 67.145073 247.781540
   vertex 499.071381 67.406250 247.105911
  endloop
 endfacet
endsolid