solid stl file generated from DOUG
 facet normal -0.866008 0.279618 -0.414541
  outer loop
   vertex 437.244507 -75.137428 140.278137
   vertex 437.244507 -74.721939 140.558395
   vertex 437.369812 -75.016075 140.098221
  endloop
 endfacet
 facet normal -0.866008 0.279618 -0.414541
  outer loop
   vertex 437.369812 -75.016075 140.098221
   vertex 437.244507 -74.721939 140.558395
   vertex 437.369812 -74.600586 140.378479
  endloop
 endfacet
 facet normal 0.000000 0.559203 -0.829031
  outer loop
   vertex 437.369812 -74.600586 140.378479
   vertex 437.620392 -75.016075 140.098221
   vertex 437.369812 -75.016075 140.098221
  endloop
 endfacet
 facet normal -0.000000 0.559203 -0.829031
  outer loop
   vertex 437.620392 -74.600586 140.378479
   vertex 437.620392 -75.016075 140.098221
   vertex 437.369812 -74.600586 140.378479
  endloop
 endfacet
 facet normal 0.866008 0.279618 -0.414541
  outer loop
   vertex 437.745697 -75.137428 140.278137
   vertex 437.620392 -75.016075 140.098221
   vertex 437.620392 -74.600586 140.378479
  endloop
 endfacet
 facet normal 0.866008 0.279618 -0.414541
  outer loop
   vertex 437.620392 -74.600586 140.378479
   vertex 437.745697 -74.721939 140.558395
   vertex 437.745697 -75.137428 140.278137
  endloop
 endfacet
 facet normal 0.866008 -0.279618 0.414541
  outer loop
   vertex 437.745697 -75.137428 140.278137
   vertex 437.745697 -74.721939 140.558395
   vertex 437.620392 -75.258781 140.458054
  endloop
 endfacet
 facet normal 0.865995 -0.279620 0.414566
  outer loop
   vertex 437.620392 -75.258781 140.458054
   vertex 437.745697 -74.721939 140.558395
   vertex 437.620392 -74.843292 140.738297
  endloop
 endfacet
 facet normal 0.000000 -0.559182 0.829045
  outer loop
   vertex 437.620392 -74.843292 140.738297
   vertex 437.369812 -75.258781 140.458054
   vertex 437.620392 -75.258781 140.458054
  endloop
 endfacet
 facet normal -0.000000 -0.559182 0.829045
  outer loop
   vertex 437.369812 -74.843292 140.738297
   vertex 437.369812 -75.258781 140.458054
   vertex 437.620392 -74.843292 140.738297
  endloop
 endfacet
 facet normal -0.866008 -0.279608 0.414548
  outer loop
   vertex 437.244507 -75.137428 140.278137
   vertex 437.369812 -75.258781 140.458054
   vertex 437.369812 -74.843292 140.738297
  endloop
 endfacet
 facet normal -0.865995 -0.279631 0.414559
  outer loop
   vertex 437.369812 -74.843292 140.738297
   vertex 437.244507 -74.721939 140.558395
   vertex 437.244507 -75.137428 140.278137
  endloop
 endfacet
 facet normal 0.866008 0.279618 -0.414541
  outer loop
   vertex 425.595642 -74.721939 140.558380
   vertex 425.595642 -75.137428 140.278122
   vertex 425.470337 -74.600586 140.378464
  endloop
 endfacet
 facet normal 0.866008 0.279618 -0.414541
  outer loop
   vertex 425.470337 -74.600586 140.378464
   vertex 425.595642 -75.137428 140.278122
   vertex 425.470337 -75.016075 140.098206
  endloop
 endfacet
 facet normal 0.000000 0.559203 -0.829031
  outer loop
   vertex 425.470337 -75.016075 140.098206
   vertex 425.219757 -74.600586 140.378464
   vertex 425.470337 -74.600586 140.378464
  endloop
 endfacet
 facet normal -0.000000 0.559203 -0.829031
  outer loop
   vertex 425.219757 -75.016075 140.098206
   vertex 425.219757 -74.600586 140.378464
   vertex 425.470337 -75.016075 140.098206
  endloop
 endfacet
 facet normal -0.866008 0.279618 -0.414541
  outer loop
   vertex 425.094452 -74.721939 140.558380
   vertex 425.219757 -74.600586 140.378464
   vertex 425.219757 -75.016075 140.098206
  endloop
 endfacet
 facet normal -0.866008 0.279618 -0.414541
  outer loop
   vertex 425.219757 -75.016075 140.098206
   vertex 425.094452 -75.137428 140.278122
   vertex 425.094452 -74.721939 140.558380
  endloop
 endfacet
 facet normal -0.865995 -0.279631 0.414559
  outer loop
   vertex 425.094452 -74.721939 140.558380
   vertex 425.094452 -75.137428 140.278122
   vertex 425.219757 -74.843292 140.738281
  endloop
 endfacet
 facet normal -0.866008 -0.279608 0.414548
  outer loop
   vertex 425.219757 -74.843292 140.738281
   vertex 425.094452 -75.137428 140.278122
   vertex 425.219757 -75.258781 140.458038
  endloop
 endfacet
 facet normal 0.000000 -0.559182 0.829045
  outer loop
   vertex 425.219757 -75.258781 140.458038
   vertex 425.470337 -74.843292 140.738281
   vertex 425.219757 -74.843292 140.738281
  endloop
 endfacet
 facet normal -0.000000 -0.559182 0.829045
  outer loop
   vertex 425.470337 -75.258781 140.458038
   vertex 425.470337 -74.843292 140.738281
   vertex 425.219757 -75.258781 140.458038
  endloop
 endfacet
 facet normal 0.865995 -0.279620 0.414566
  outer loop
   vertex 425.595642 -74.721939 140.558380
   vertex 425.470337 -74.843292 140.738281
   vertex 425.470337 -75.258781 140.458038
  endloop
 endfacet
 facet normal 0.866008 -0.279618 0.414541
  outer loop
   vertex 425.470337 -75.258781 140.458038
   vertex 425.595642 -75.137428 140.278122
   vertex 425.595642 -74.721939 140.558380
  endloop
 endfacet
 facet normal -0.000000 -0.829042 -0.559187
  outer loop
   vertex 425.219757 -75.016075 140.098206
   vertex 425.470337 -75.016075 140.098206
   vertex 425.345062 -75.137428 140.278122
  endloop
 endfacet
 facet normal -0.000000 -0.829042 -0.559187
  outer loop
   vertex 425.345062 -75.137428 140.278122
   vertex 425.470337 -75.016075 140.098206
   vertex 425.595642 -75.137428 140.278122
  endloop
 endfacet
 facet normal 0.000000 -0.829042 -0.559187
  outer loop
   vertex 425.595642 -75.137428 140.278122
   vertex 425.470337 -75.258781 140.458038
   vertex 425.345062 -75.137428 140.278122
  endloop
 endfacet
 facet normal 0.000000 -0.829042 -0.559187
  outer loop
   vertex 437.369812 -75.258781 140.458054
   vertex 437.244507 -75.137428 140.278137
   vertex 437.495117 -75.137428 140.278137
  endloop
 endfacet
 facet normal 0.000000 -0.829042 -0.559187
  outer loop
   vertex 437.495117 -75.137428 140.278137
   vertex 437.244507 -75.137428 140.278137
   vertex 437.369812 -75.016075 140.098221
  endloop
 endfacet
 facet normal -0.000000 -0.829042 -0.559187
  outer loop
   vertex 437.369812 -75.016075 140.098221
   vertex 437.620392 -75.016075 140.098221
   vertex 437.495117 -75.137428 140.278137
  endloop
 endfacet
 facet normal -0.000000 -0.829042 -0.559187
  outer loop
   vertex 437.620392 -75.016075 140.098221
   vertex 437.745697 -75.137428 140.278137
   vertex 437.495117 -75.137428 140.278137
  endloop
 endfacet
 facet normal -0.000000 -0.829042 -0.559187
  outer loop
   vertex 437.495117 -75.137428 140.278137
   vertex 437.745697 -75.137428 140.278137
   vertex 437.620392 -75.258781 140.458054
  endloop
 endfacet
 facet normal 0.000000 -0.829042 -0.559187
  outer loop
   vertex 437.620392 -75.258781 140.458054
   vertex 437.369812 -75.258781 140.458054
   vertex 437.495117 -75.137428 140.278137
  endloop
 endfacet
 facet normal 0.000000 -0.829042 -0.559187
  outer loop
   vertex 425.470337 -75.258781 140.458038
   vertex 425.219757 -75.258781 140.458038
   vertex 425.345062 -75.137428 140.278122
  endloop
 endfacet
 facet normal -0.000000 -0.829042 -0.559187
  outer loop
   vertex 425.345062 -75.137428 140.278122
   vertex 425.219757 -75.258781 140.458038
   vertex 425.094452 -75.137428 140.278122
  endloop
 endfacet
 facet normal 0.000000 -0.829042 -0.559187
  outer loop
   vertex 425.094452 -75.137428 140.278122
   vertex 425.219757 -75.016075 140.098206
   vertex 425.345062 -75.137428 140.278122
  endloop
 endfacet
 facet normal 0.000000 -0.829039 -0.559192
  outer loop
   vertex 436.038513 -73.800072 141.934204
   vertex 436.038513 -73.100967 140.897736
   vertex 439.029907 -73.800072 141.934204
  endloop
 endfacet
 facet normal 0.000003 -0.829035 -0.559197
  outer loop
   vertex 439.029907 -73.800072 141.934204
   vertex 436.038513 -73.100967 140.897736
   vertex 439.029907 -73.100967 140.897751
  endloop
 endfacet
 facet normal 1.000000 0.000000 0.000000
  outer loop
   vertex 439.029907 -73.100967 140.897751
   vertex 439.029907 -72.648888 142.710693
   vertex 439.029907 -73.800072 141.934204
  endloop
 endfacet
 facet normal 1.000000 -0.000000 0.000000
  outer loop
   vertex 439.029907 -71.949783 141.674225
   vertex 439.029907 -72.648888 142.710693
   vertex 439.029907 -73.100967 140.897751
  endloop
 endfacet
 facet normal 0.000000 0.829039 0.559192
  outer loop
   vertex 436.038513 -71.949783 141.674225
   vertex 439.029907 -72.648888 142.710693
   vertex 439.029907 -71.949783 141.674225
  endloop
 endfacet
 facet normal -0.000000 0.559196 -0.829036
  outer loop
   vertex 439.029907 -71.949783 141.674225
   vertex 436.038513 -73.100967 140.897736
   vertex 436.038513 -71.949783 141.674225
  endloop
 endfacet
 facet normal -1.000000 0.000000 0.000000
  outer loop
   vertex 436.038513 -71.949783 141.674225
   vertex 436.038513 -73.100967 140.897736
   vertex 436.038513 -72.648888 142.710693
  endloop
 endfacet
 facet normal -1.000000 -0.000000 0.000000
  outer loop
   vertex 436.038513 -72.648888 142.710693
   vertex 436.038513 -73.100967 140.897736
   vertex 436.038513 -73.800072 141.934204
  endloop
 endfacet
 facet normal 0.000000 -0.559196 0.829036
  outer loop
   vertex 436.038513 -73.800072 141.934204
   vertex 439.029907 -72.648888 142.710693
   vertex 436.038513 -72.648888 142.710693
  endloop
 endfacet
 facet normal -0.000000 -0.559196 0.829036
  outer loop
   vertex 439.029907 -73.800072 141.934204
   vertex 439.029907 -72.648888 142.710693
   vertex 436.038513 -73.800072 141.934204
  endloop
 endfacet
 facet normal -1.000000 0.000000 0.000000
  outer loop
   vertex 423.810242 -72.648888 142.710678
   vertex 423.810242 -71.949783 141.674210
   vertex 423.810242 -73.800072 141.934189
  endloop
 endfacet
 facet normal -1.000000 -0.000000 -0.000000
  outer loop
   vertex 423.810242 -73.800072 141.934189
   vertex 423.810242 -71.949783 141.674210
   vertex 423.810242 -73.100967 140.897720
  endloop
 endfacet
 facet normal -0.000000 -0.829039 -0.559192
  outer loop
   vertex 423.810242 -73.100967 140.897720
   vertex 426.801636 -73.800072 141.934189
   vertex 423.810242 -73.800072 141.934189
  endloop
 endfacet
 facet normal 0.000001 -0.829038 -0.559193
  outer loop
   vertex 426.801636 -73.100975 140.897736
   vertex 426.801636 -73.800072 141.934189
   vertex 423.810242 -73.100967 140.897720
  endloop
 endfacet
 facet normal 1.000000 0.000000 0.000000
  outer loop
   vertex 426.801636 -71.949783 141.674210
   vertex 426.801636 -73.800072 141.934189
   vertex 426.801636 -73.100975 140.897736
  endloop
 endfacet
 facet normal -0.000000 0.559186 -0.829042
  outer loop
   vertex 426.801636 -73.100975 140.897736
   vertex 423.810242 -71.949783 141.674210
   vertex 426.801636 -71.949783 141.674210
  endloop
 endfacet
 facet normal -0.000000 0.829039 0.559192
  outer loop
   vertex 426.801636 -71.949783 141.674210
   vertex 423.810242 -71.949783 141.674210
   vertex 426.801636 -72.648888 142.710678
  endloop
 endfacet
 facet normal -0.000000 0.829039 0.559192
  outer loop
   vertex 426.801636 -72.648888 142.710678
   vertex 423.810242 -71.949783 141.674210
   vertex 423.810242 -72.648888 142.710678
  endloop
 endfacet
 facet normal 0.000000 -0.559196 0.829036
  outer loop
   vertex 423.810242 -72.648888 142.710678
   vertex 426.801636 -73.800072 141.934189
   vertex 426.801636 -72.648888 142.710678
  endloop
 endfacet
 facet normal -0.000000 -0.559196 0.829036
  outer loop
   vertex 423.810242 -73.800072 141.934189
   vertex 426.801636 -73.800072 141.934189
   vertex 423.810242 -72.648888 142.710678
  endloop
 endfacet
 facet normal 0.000006 0.559196 -0.829036
  outer loop
   vertex 426.801636 -73.100975 140.897736
   vertex 423.810242 -73.100967 140.897720
   vertex 423.810242 -71.949783 141.674210
  endloop
 endfacet
 facet normal 0.000004 0.559188 -0.829041
  outer loop
   vertex 439.029907 -73.100967 140.897751
   vertex 436.038513 -73.100967 140.897736
   vertex 439.029907 -71.949783 141.674225
  endloop
 endfacet
 facet normal 1.000000 0.000000 0.000000
  outer loop
   vertex 426.801636 -71.949783 141.674210
   vertex 426.801636 -72.648888 142.710678
   vertex 426.801636 -73.800072 141.934189
  endloop
 endfacet
 facet normal -0.000000 0.829039 0.559192
  outer loop
   vertex 436.038513 -71.949783 141.674225
   vertex 436.038513 -72.648888 142.710693
   vertex 439.029907 -72.648888 142.710693
  endloop
 endfacet
 facet normal 0.000001 -0.829018 -0.559222
  outer loop
   vertex 436.420074 -76.185799 140.517868
   vertex 426.420074 -76.124504 140.426987
   vertex 436.420074 -76.124504 140.427002
  endloop
 endfacet
 facet normal 0.000002 -0.042327 -0.999104
  outer loop
   vertex 436.420074 -76.124504 140.427002
   vertex 426.420074 -76.124504 140.426987
   vertex 436.420074 -75.979355 140.420853
  endloop
 endfacet
 facet normal 0.000000 -0.063252 -0.997998
  outer loop
   vertex 427.331757 -75.366737 139.197754
   vertex 426.173065 -75.262009 139.191116
   vertex 427.331757 -75.262009 139.191116
  endloop
 endfacet
 facet normal -0.000000 0.559186 -0.829043
  outer loop
   vertex 427.331757 -75.262009 139.191116
   vertex 426.173065 -75.262009 139.191116
   vertex 426.173065 -74.564262 139.661743
  endloop
 endfacet
 facet normal -0.000011 -0.559190 0.829040
  outer loop
   vertex 436.667114 -75.494217 141.040466
   vertex 435.508392 -76.191956 140.569824
   vertex 436.667114 -76.191956 140.569839
  endloop
 endfacet
 facet normal -0.000004 -0.949039 0.315159
  outer loop
   vertex 436.667114 -76.191956 140.569839
   vertex 435.508392 -76.191956 140.569824
   vertex 435.508392 -76.225029 140.470230
  endloop
 endfacet
 facet normal -0.000001 -0.942204 0.335039
  outer loop
   vertex 426.420074 -75.320496 139.444046
   vertex 426.420074 -75.369171 139.307159
   vertex 436.420074 -75.369171 139.307175
  endloop
 endfacet
 facet normal 0.000001 -0.829062 -0.559157
  outer loop
   vertex 436.420074 -75.369171 139.307175
   vertex 426.420074 -75.369171 139.307159
   vertex 436.420074 -75.307877 139.216293
  endloop
 endfacet
 facet normal 0.000000 -0.974452 -0.224596
  outer loop
   vertex 426.420074 -75.529747 140.919937
   vertex 436.420074 -75.529747 140.919952
   vertex 426.420074 -75.537811 140.954926
  endloop
 endfacet
 facet normal 0.000000 -0.974452 -0.224596
  outer loop
   vertex 426.420074 -75.537811 140.954926
   vertex 436.420074 -75.529747 140.919952
   vertex 436.420074 -75.537811 140.954941
  endloop
 endfacet
 facet normal -0.000001 -0.559230 0.829013
  outer loop
   vertex 436.420074 -75.537811 140.954941
   vertex 426.420074 -75.479271 140.994415
   vertex 426.420074 -75.537811 140.954926
  endloop
 endfacet
 facet normal -1.000000 0.000000 0.000000
  outer loop
   vertex 426.173035 -76.191956 140.569824
   vertex 426.173035 -76.046089 140.381424
   vertex 426.173035 -76.225029 140.470215
  endloop
 endfacet
 facet normal -1.000000 -0.000000 -0.000000
  outer loop
   vertex 426.173035 -76.225029 140.470215
   vertex 426.173035 -76.046089 140.381424
   vertex 426.173035 -76.136139 140.338440
  endloop
 endfacet
 facet normal 0.000007 -0.829018 -0.559222
  outer loop
   vertex 426.173035 -76.136139 140.338440
   vertex 427.331757 -76.225029 140.470230
   vertex 426.173035 -76.225029 140.470215
  endloop
 endfacet
 facet normal 1.000000 0.000000 0.000000
  outer loop
   vertex 436.667114 -75.262009 139.191132
   vertex 436.667114 -75.382034 139.396942
   vertex 436.667114 -75.366737 139.197769
  endloop
 endfacet
 facet normal 1.000000 -0.000000 0.000000
  outer loop
   vertex 436.667114 -75.366737 139.197769
   vertex 436.667114 -75.382034 139.396942
   vertex 436.667114 -75.455627 139.329559
  endloop
 endfacet
 facet normal 0.000000 -0.829048 -0.559178
  outer loop
   vertex 436.667114 -75.455627 139.329559
   vertex 435.508392 -75.366737 139.197769
   vertex 436.667114 -75.366737 139.197769
  endloop
 endfacet
 facet normal 1.000000 0.000000 0.000000
  outer loop
   vertex 427.331757 -75.455635 139.329544
   vertex 427.331757 -75.366737 139.197754
   vertex 427.331757 -75.382034 139.396927
  endloop
 endfacet
 facet normal 1.000000 -0.000000 -0.000000
  outer loop
   vertex 427.331757 -75.382034 139.396927
   vertex 427.331757 -75.366737 139.197754
   vertex 427.331757 -75.262009 139.191116
  endloop
 endfacet
 facet normal 1.000000 0.000000 0.000000
  outer loop
   vertex 427.331757 -75.262009 139.191116
   vertex 427.331757 -74.564262 139.661743
   vertex 427.331757 -75.382034 139.396927
  endloop
 endfacet
 facet normal -0.000000 0.559186 -0.829043
  outer loop
   vertex 426.173065 -74.564262 139.661743
   vertex 427.331757 -74.564262 139.661743
   vertex 427.331757 -75.262009 139.191116
  endloop
 endfacet
 facet normal 0.000000 -0.942193 0.335072
  outer loop
   vertex 436.420074 -75.369171 139.307175
   vertex 436.420074 -75.320496 139.444046
   vertex 426.420074 -75.320496 139.444046
  endloop
 endfacet
 facet normal -0.000000 -0.829040 -0.559190
  outer loop
   vertex 426.420074 -75.320496 139.444046
   vertex 436.420074 -75.320496 139.444046
   vertex 436.420074 -75.979355 140.420853
  endloop
 endfacet
 facet normal 0.000001 -0.829036 -0.559196
  outer loop
   vertex 436.420074 -75.979355 140.420853
   vertex 426.420074 -75.979355 140.420837
   vertex 426.420074 -75.320496 139.444046
  endloop
 endfacet
 facet normal 0.000002 -0.042327 -0.999104
  outer loop
   vertex 426.420074 -76.124504 140.426987
   vertex 426.420074 -75.979355 140.420837
   vertex 436.420074 -75.979355 140.420853
  endloop
 endfacet
 facet normal 0.000000 -0.559202 0.829031
  outer loop
   vertex 436.667114 -75.494217 141.040466
   vertex 435.508392 -75.494217 141.040466
   vertex 435.508392 -76.191956 140.569824
  endloop
 endfacet
 facet normal -1.000000 -0.000000 -0.000000
  outer loop
   vertex 435.508392 -76.191956 140.569824
   vertex 435.508392 -75.494217 141.040466
   vertex 435.508392 -76.046089 140.381439
  endloop
 endfacet
 facet normal -1.000000 0.000000 0.000000
  outer loop
   vertex 435.508392 -76.046089 140.381439
   vertex 435.508392 -76.225029 140.470230
   vertex 435.508392 -76.191956 140.569824
  endloop
 endfacet
 facet normal -1.000000 -0.000000 -0.000000
  outer loop
   vertex 435.508392 -76.136139 140.338440
   vertex 435.508392 -76.225029 140.470230
   vertex 435.508392 -76.046089 140.381439
  endloop
 endfacet
 facet normal -0.000001 0.573191 0.819422
  outer loop
   vertex 436.420074 -76.038383 140.576874
   vertex 426.420074 -76.038383 140.576859
   vertex 436.420074 -76.067810 140.597458
  endloop
 endfacet
 facet normal -0.000001 0.573191 0.819422
  outer loop
   vertex 436.420074 -76.067810 140.597458
   vertex 426.420074 -76.038383 140.576859
   vertex 426.420074 -76.067810 140.597443
  endloop
 endfacet
 facet normal -0.000001 -0.559220 0.829020
  outer loop
   vertex 426.420074 -76.067810 140.597443
   vertex 436.420074 -76.185799 140.517868
   vertex 436.420074 -76.067810 140.597458
  endloop
 endfacet
 facet normal -0.000001 -0.559220 0.829020
  outer loop
   vertex 426.420074 -76.185799 140.517853
   vertex 436.420074 -76.185799 140.517868
   vertex 426.420074 -76.067810 140.597443
  endloop
 endfacet
 facet normal 0.000001 -0.829018 -0.559222
  outer loop
   vertex 426.420074 -76.124504 140.426987
   vertex 436.420074 -76.185799 140.517868
   vertex 426.420074 -76.185799 140.517853
  endloop
 endfacet
 facet normal 0.000000 -0.829039 -0.559191
  outer loop
   vertex 438.069000 -75.050583 141.009155
   vertex 436.420837 -74.427116 140.084824
   vertex 438.069000 -74.427116 140.084824
  endloop
 endfacet
 facet normal -0.000000 0.559191 -0.829039
  outer loop
   vertex 438.069000 -74.427116 140.084824
   vertex 436.420837 -74.427116 140.084824
   vertex 438.069000 -73.149529 140.946564
  endloop
 endfacet
 facet normal 1.000000 0.000000 0.000000
  outer loop
   vertex 438.069000 -73.149529 140.946564
   vertex 438.069000 -73.772995 141.870895
   vertex 438.069000 -74.427116 140.084824
  endloop
 endfacet
 facet normal -0.000000 0.829039 0.559191
  outer loop
   vertex 436.420837 -73.149529 140.946564
   vertex 438.069000 -73.772995 141.870895
   vertex 438.069000 -73.149529 140.946564
  endloop
 endfacet
 facet normal 0.000000 0.829039 0.559191
  outer loop
   vertex 436.420837 -73.772995 141.870895
   vertex 438.069000 -73.772995 141.870895
   vertex 436.420837 -73.149529 140.946564
  endloop
 endfacet
 facet normal -1.000000 -0.000000 -0.000000
  outer loop
   vertex 436.420837 -73.149529 140.946564
   vertex 436.420837 -74.427116 140.084824
   vertex 436.420837 -73.772995 141.870895
  endloop
 endfacet
 facet normal -1.000000 0.000000 0.000000
  outer loop
   vertex 436.420837 -73.772995 141.870895
   vertex 436.420837 -74.427116 140.084824
   vertex 436.420837 -75.050583 141.009140
  endloop
 endfacet
 facet normal 0.000005 -0.829035 -0.559197
  outer loop
   vertex 436.420837 -75.050583 141.009140
   vertex 436.420837 -74.427116 140.084824
   vertex 438.069000 -75.050583 141.009155
  endloop
 endfacet
 facet normal -0.000008 -0.559191 0.829039
  outer loop
   vertex 438.069000 -75.050583 141.009155
   vertex 438.069000 -73.772995 141.870895
   vertex 436.420837 -75.050583 141.009140
  endloop
 endfacet
 facet normal 1.000000 -0.000000 -0.000000
  outer loop
   vertex 438.069000 -74.427116 140.084824
   vertex 438.069000 -73.772995 141.870895
   vertex 438.069000 -75.050583 141.009155
  endloop
 endfacet
 facet normal -0.000008 -0.559198 0.829034
  outer loop
   vertex 424.771149 -75.050583 141.009125
   vertex 426.419312 -75.050583 141.009140
   vertex 424.771149 -73.772995 141.870880
  endloop
 endfacet
 facet normal -0.000000 -0.559191 0.829039
  outer loop
   vertex 424.771149 -73.772995 141.870880
   vertex 426.419312 -75.050583 141.009140
   vertex 426.419312 -73.772995 141.870880
  endloop
 endfacet
 facet normal 0.000000 0.829039 0.559191
  outer loop
   vertex 426.419312 -73.772995 141.870880
   vertex 424.771149 -73.149529 140.946548
   vertex 424.771149 -73.772995 141.870880
  endloop
 endfacet
 facet normal -0.000000 0.829039 0.559191
  outer loop
   vertex 426.419312 -73.149529 140.946548
   vertex 424.771149 -73.149529 140.946548
   vertex 426.419312 -73.772995 141.870880
  endloop
 endfacet
 facet normal 0.000000 0.559191 -0.829039
  outer loop
   vertex 426.419312 -74.427116 140.084808
   vertex 424.771149 -73.149529 140.946548
   vertex 426.419312 -73.149529 140.946548
  endloop
 endfacet
 facet normal 1.000000 -0.000000 -0.000000
  outer loop
   vertex 426.419312 -73.149529 140.946548
   vertex 426.419312 -75.050583 141.009140
   vertex 426.419312 -74.427116 140.084808
  endloop
 endfacet
 facet normal 0.000000 -0.829039 -0.559191
  outer loop
   vertex 426.419312 -74.427116 140.084808
   vertex 426.419312 -75.050583 141.009140
   vertex 424.771149 -74.427116 140.084808
  endloop
 endfacet
 facet normal 0.000005 -0.829035 -0.559197
  outer loop
   vertex 424.771149 -74.427116 140.084808
   vertex 426.419312 -75.050583 141.009140
   vertex 424.771149 -75.050583 141.009125
  endloop
 endfacet
 facet normal -1.000000 -0.000000 0.000000
  outer loop
   vertex 424.771149 -75.050583 141.009125
   vertex 424.771149 -73.149529 140.946548
   vertex 424.771149 -74.427116 140.084808
  endloop
 endfacet
 facet normal -1.000000 -0.000000 -0.000000
  outer loop
   vertex 424.771149 -73.772995 141.870880
   vertex 424.771149 -73.149529 140.946548
   vertex 424.771149 -75.050583 141.009125
  endloop
 endfacet
 facet normal -0.000000 0.829040 0.559189
  outer loop
   vertex 439.508514 -74.089195 140.683624
   vertex 439.158508 -74.089195 140.683624
   vertex 439.158508 -74.368790 141.098145
  endloop
 endfacet
 facet normal -0.000018 -0.829040 -0.559189
  outer loop
   vertex 439.158508 -74.368790 141.098145
   vertex 439.158508 -74.089195 140.683624
   vertex 439.333527 -74.228996 140.890884
  endloop
 endfacet
 facet normal -0.000000 -0.829047 -0.559178
  outer loop
   vertex 439.333527 -74.228996 140.890884
   vertex 439.508514 -74.368790 141.098145
   vertex 439.158508 -74.368790 141.098145
  endloop
 endfacet
 facet normal 0.000018 -0.829040 -0.559189
  outer loop
   vertex 439.508514 -74.089195 140.683624
   vertex 439.508514 -74.368790 141.098145
   vertex 439.333527 -74.228996 140.890884
  endloop
 endfacet
 facet normal 1.000000 -0.000000 0.000000
  outer loop
   vertex 439.508514 -73.539757 141.657349
   vertex 439.508514 -74.368790 141.098145
   vertex 439.508514 -74.089195 140.683624
  endloop
 endfacet
 facet normal 1.000000 0.000000 -0.000000
  outer loop
   vertex 439.508514 -74.089195 140.683624
   vertex 439.508514 -73.260155 141.242828
   vertex 439.508514 -73.539757 141.657349
  endloop
 endfacet
 facet normal 0.000000 0.829033 0.559199
  outer loop
   vertex 439.508514 -73.539757 141.657349
   vertex 439.508514 -73.260155 141.242828
   vertex 437.808502 -73.539757 141.657349
  endloop
 endfacet
 facet normal 0.000000 0.829033 0.559199
  outer loop
   vertex 437.808502 -73.539757 141.657349
   vertex 439.508514 -73.260155 141.242828
   vertex 437.808533 -73.260155 141.242828
  endloop
 endfacet
 facet normal -1.000000 0.000034 -0.000051
  outer loop
   vertex 437.808533 -73.260155 141.242828
   vertex 437.808533 -74.089195 140.683624
   vertex 437.808502 -73.539757 141.657349
  endloop
 endfacet
 facet normal -0.000000 0.559199 -0.829033
  outer loop
   vertex 438.225494 -73.881935 140.823425
   vertex 437.808533 -74.089195 140.683624
   vertex 437.808533 -73.260155 141.242828
  endloop
 endfacet
 facet normal 0.000000 0.559199 -0.829033
  outer loop
   vertex 438.158508 -74.089195 140.683624
   vertex 437.808533 -74.089195 140.683624
   vertex 438.225494 -73.881935 140.823425
  endloop
 endfacet
 facet normal 0.000005 -0.559192 0.829038
  outer loop
   vertex 424.614655 -74.161530 141.237930
   vertex 425.031616 -74.368790 141.098129
   vertex 425.031616 -73.539757 141.657318
  endloop
 endfacet
 facet normal 1.000000 -0.000034 0.000051
  outer loop
   vertex 425.031616 -73.539757 141.657318
   vertex 425.031616 -74.368790 141.098129
   vertex 425.031647 -73.260155 141.242798
  endloop
 endfacet
 facet normal -0.000000 0.829033 0.559199
  outer loop
   vertex 425.031647 -73.260155 141.242798
   vertex 423.331635 -73.539757 141.657318
   vertex 425.031616 -73.539757 141.657318
  endloop
 endfacet
 facet normal -0.000000 0.829033 0.559199
  outer loop
   vertex 423.331635 -73.260155 141.242798
   vertex 423.331635 -73.539757 141.657318
   vertex 425.031647 -73.260155 141.242798
  endloop
 endfacet
 facet normal -1.000000 0.000000 -0.000000
  outer loop
   vertex 423.331635 -74.368790 141.098129
   vertex 423.331635 -73.539757 141.657318
   vertex 423.331635 -73.260155 141.242798
  endloop
 endfacet
 facet normal -1.000000 -0.000000 0.000000
  outer loop
   vertex 423.331635 -73.260155 141.242798
   vertex 423.331635 -74.089195 140.683609
   vertex 423.331635 -74.368790 141.098129
  endloop
 endfacet
 facet normal -0.000018 -0.829040 -0.559189
  outer loop
   vertex 423.331635 -74.368790 141.098129
   vertex 423.331635 -74.089195 140.683609
   vertex 423.506622 -74.228996 140.890869
  endloop
 endfacet
 facet normal 0.000000 -0.829033 -0.559199
  outer loop
   vertex 423.506622 -74.228996 140.890869
   vertex 423.331635 -74.089195 140.683609
   vertex 423.681641 -74.089195 140.683609
  endloop
 endfacet
 facet normal 0.000018 -0.829040 -0.559189
  outer loop
   vertex 423.681641 -74.089195 140.683609
   vertex 423.681641 -74.368790 141.098129
   vertex 423.506622 -74.228996 140.890869
  endloop
 endfacet
 facet normal 0.000000 0.829040 0.559189
  outer loop
   vertex 423.331635 -74.368790 141.098129
   vertex 423.681641 -74.368790 141.098129
   vertex 423.681641 -74.089195 140.683609
  endloop
 endfacet
 facet normal -0.000000 -0.829047 -0.559178
  outer loop
   vertex 423.506622 -74.228996 140.890869
   vertex 423.681641 -74.368790 141.098129
   vertex 423.331635 -74.368790 141.098129
  endloop
 endfacet
 facet normal 0.000000 -0.829018 -0.559222
  outer loop
   vertex 426.420074 -75.369171 139.307159
   vertex 426.420074 -75.307877 139.216293
   vertex 436.420074 -75.307877 139.216293
  endloop
 endfacet
 facet normal -0.000000 0.559146 -0.829069
  outer loop
   vertex 436.420074 -75.307877 139.216293
   vertex 426.420074 -75.307877 139.216293
   vertex 426.420074 -75.189888 139.295868
  endloop
 endfacet
 facet normal 0.000001 0.559220 -0.829020
  outer loop
   vertex 426.420074 -75.189888 139.295868
   vertex 436.420074 -75.189888 139.295883
   vertex 436.420074 -75.307877 139.216293
  endloop
 endfacet
 facet normal -0.000000 0.974452 0.224596
  outer loop
   vertex 426.420074 -75.197952 139.330856
   vertex 436.420074 -75.189888 139.295883
   vertex 426.420074 -75.189888 139.295868
  endloop
 endfacet
 facet normal -0.000000 0.974452 0.224596
  outer loop
   vertex 436.420074 -75.197952 139.330872
   vertex 436.420074 -75.189888 139.295883
   vertex 426.420074 -75.197952 139.330856
  endloop
 endfacet
 facet normal 0.000001 0.559203 -0.829031
  outer loop
   vertex 426.420074 -75.197952 139.330856
   vertex 426.420074 -74.689308 139.673950
   vertex 436.420074 -75.197952 139.330872
  endloop
 endfacet
 facet normal 0.000001 0.559203 -0.829031
  outer loop
   vertex 436.420074 -75.197952 139.330872
   vertex 426.420074 -74.689308 139.673950
   vertex 436.420074 -74.689308 139.673965
  endloop
 endfacet
 facet normal 0.000001 -0.573291 -0.819352
  outer loop
   vertex 436.420074 -74.689308 139.673965
   vertex 426.420074 -74.689308 139.673950
   vertex 426.420074 -74.659889 139.653366
  endloop
 endfacet
 facet normal -0.000000 -0.573576 -0.819152
  outer loop
   vertex 426.420074 -74.659889 139.653366
   vertex 436.420074 -74.659889 139.653366
   vertex 436.420074 -74.689308 139.673965
  endloop
 endfacet
 facet normal -0.000000 0.559031 -0.829147
  outer loop
   vertex 426.420074 -74.601341 139.692841
   vertex 436.420074 -74.659889 139.653366
   vertex 426.420074 -74.659889 139.653366
  endloop
 endfacet
 facet normal 0.000001 0.559180 -0.829047
  outer loop
   vertex 436.420074 -74.601341 139.692856
   vertex 436.420074 -74.659889 139.653366
   vertex 426.420074 -74.601341 139.692841
  endloop
 endfacet
 facet normal -0.000001 0.829036 0.559196
  outer loop
   vertex 426.420074 -74.601341 139.692841
   vertex 426.420074 -75.479271 140.994415
   vertex 436.420074 -74.601341 139.692856
  endloop
 endfacet
 facet normal -0.000001 0.829036 0.559196
  outer loop
   vertex 436.420074 -74.601341 139.692856
   vertex 426.420074 -75.479271 140.994415
   vertex 436.420074 -75.479271 140.994431
  endloop
 endfacet
 facet normal -0.000001 -0.559230 0.829013
  outer loop
   vertex 436.420074 -75.479271 140.994431
   vertex 426.420074 -75.479271 140.994415
   vertex 436.420074 -75.537811 140.954941
  endloop
 endfacet
 facet normal 0.000003 -0.559203 0.829031
  outer loop
   vertex 438.225494 -74.161530 141.237946
   vertex 437.808502 -73.539757 141.657349
   vertex 437.808533 -74.368790 141.098145
  endloop
 endfacet
 facet normal -1.000000 -0.000025 -0.000017
  outer loop
   vertex 437.808533 -74.368790 141.098145
   vertex 437.808502 -73.539757 141.657349
   vertex 437.808533 -74.089195 140.683624
  endloop
 endfacet
 facet normal -0.000000 -0.829040 -0.559189
  outer loop
   vertex 437.808533 -74.089195 140.683624
   vertex 438.158508 -74.368790 141.098145
   vertex 437.808533 -74.368790 141.098145
  endloop
 endfacet
 facet normal -0.000000 -0.829040 -0.559189
  outer loop
   vertex 438.158508 -74.089195 140.683624
   vertex 438.158508 -74.368790 141.098145
   vertex 437.808533 -74.089195 140.683624
  endloop
 endfacet
 facet normal 0.000000 0.829040 0.559189
  outer loop
   vertex 437.808533 -74.089195 140.683624
   vertex 438.158508 -74.368790 141.098145
   vertex 438.158508 -74.089195 140.683624
  endloop
 endfacet
 facet normal -0.000000 0.559157 -0.829062
  outer loop
   vertex 438.158508 -74.089195 140.683624
   vertex 438.225494 -74.296455 140.543839
   vertex 437.808533 -74.089195 140.683624
  endloop
 endfacet
 facet normal 0.000029 0.559197 -0.829034
  outer loop
   vertex 437.808533 -74.089195 140.683624
   vertex 438.225494 -74.296455 140.543839
   vertex 437.922394 -74.441536 140.445969
  endloop
 endfacet
 facet normal 0.000020 0.559211 -0.829026
  outer loop
   vertex 437.922394 -74.441536 140.445969
   vertex 438.225494 -74.296455 140.543839
   vertex 438.408508 -74.448181 140.441498
  endloop
 endfacet
 facet normal 0.000020 0.559213 -0.829024
  outer loop
   vertex 438.408508 -74.448181 140.441498
   vertex 438.233521 -74.699471 140.271988
   vertex 437.922394 -74.441536 140.445969
  endloop
 endfacet
 facet normal 0.000003 0.559221 -0.829018
  outer loop
   vertex 438.658508 -74.503716 140.404037
   vertex 438.233521 -74.699471 140.271988
   vertex 438.408508 -74.448181 140.441498
  endloop
 endfacet
 facet normal 0.000011 0.559209 -0.829027
  outer loop
   vertex 438.658508 -74.793877 140.208313
   vertex 438.233521 -74.699471 140.271988
   vertex 438.658508 -74.503716 140.404037
  endloop
 endfacet
 facet normal 0.000001 0.559209 -0.829027
  outer loop
   vertex 438.658508 -74.503716 140.404037
   vertex 438.908508 -74.448181 140.441498
   vertex 438.658508 -74.793877 140.208313
  endloop
 endfacet
 facet normal 0.000022 0.559199 -0.829034
  outer loop
   vertex 438.658508 -74.793877 140.208313
   vertex 438.908508 -74.448181 140.441498
   vertex 439.083527 -74.699471 140.272003
  endloop
 endfacet
 facet normal 0.000005 0.559190 -0.829039
  outer loop
   vertex 439.083527 -74.699471 140.272003
   vertex 438.908508 -74.448181 140.441498
   vertex 439.091522 -74.296455 140.543839
  endloop
 endfacet
 facet normal -0.000034 0.559191 -0.829039
  outer loop
   vertex 439.091522 -74.296455 140.543839
   vertex 439.394653 -74.441536 140.445969
   vertex 439.083527 -74.699471 140.272003
  endloop
 endfacet
 facet normal -0.000049 0.559168 -0.829054
  outer loop
   vertex 439.158508 -74.089195 140.683624
   vertex 439.394653 -74.441536 140.445969
   vertex 439.091522 -74.296455 140.543839
  endloop
 endfacet
 facet normal 0.000000 0.559191 -0.829039
  outer loop
   vertex 439.508514 -74.089195 140.683624
   vertex 439.394653 -74.441536 140.445969
   vertex 439.158508 -74.089195 140.683624
  endloop
 endfacet
 facet normal -0.000000 0.559199 -0.829033
  outer loop
   vertex 439.158508 -74.089195 140.683624
   vertex 439.091522 -73.881935 140.823425
   vertex 439.508514 -74.089195 140.683624
  endloop
 endfacet
 facet normal 0.000000 0.559199 -0.829033
  outer loop
   vertex 439.508514 -74.089195 140.683624
   vertex 439.091522 -73.881935 140.823425
   vertex 439.508514 -73.260155 141.242828
  endloop
 endfacet
 facet normal 0.000004 0.559197 -0.829034
  outer loop
   vertex 439.508514 -73.260155 141.242828
   vertex 439.091522 -73.881935 140.823425
   vertex 438.908508 -73.730209 140.925766
  endloop
 endfacet
 facet normal -0.000003 0.559203 -0.829030
  outer loop
   vertex 438.908508 -73.730209 140.925766
   vertex 438.658508 -73.674675 140.963226
   vertex 439.508514 -73.260155 141.242828
  endloop
 endfacet
 facet normal -0.000008 0.559189 -0.829040
  outer loop
   vertex 424.614655 -73.881935 140.823410
   vertex 425.031647 -73.260155 141.242798
   vertex 425.031647 -74.089195 140.683609
  endloop
 endfacet
 facet normal 1.000000 -0.000034 0.000051
  outer loop
   vertex 425.031647 -74.089195 140.683609
   vertex 425.031647 -73.260155 141.242798
   vertex 425.031616 -74.368790 141.098129
  endloop
 endfacet
 facet normal 0.000000 -0.829040 -0.559189
  outer loop
   vertex 425.031616 -74.368790 141.098129
   vertex 424.681641 -74.089195 140.683609
   vertex 425.031647 -74.089195 140.683609
  endloop
 endfacet
 facet normal -0.000000 -0.829040 -0.559189
  outer loop
   vertex 424.681641 -74.368790 141.098129
   vertex 424.681641 -74.089195 140.683609
   vertex 425.031616 -74.368790 141.098129
  endloop
 endfacet
 facet normal 0.000000 0.829040 0.559189
  outer loop
   vertex 425.031616 -74.368790 141.098129
   vertex 424.681641 -74.089195 140.683609
   vertex 424.681641 -74.368790 141.098129
  endloop
 endfacet
 facet normal -0.000000 -0.559199 0.829033
  outer loop
   vertex 424.681641 -74.368790 141.098129
   vertex 424.614655 -74.576050 140.958328
   vertex 425.031616 -74.368790 141.098129
  endloop
 endfacet
 facet normal -0.000007 -0.559189 0.829040
  outer loop
   vertex 425.031616 -74.368790 141.098129
   vertex 424.614655 -74.576050 140.958328
   vertex 424.917755 -74.721130 140.860474
  endloop
 endfacet
 facet normal -0.000007 -0.559189 0.829040
  outer loop
   vertex 424.917755 -74.721130 140.860474
   vertex 424.614655 -74.576050 140.958328
   vertex 424.431641 -74.727776 140.855988
  endloop
 endfacet
 facet normal -0.000007 -0.559191 0.829039
  outer loop
   vertex 424.431641 -74.727776 140.855988
   vertex 424.606628 -74.979065 140.686493
   vertex 424.917755 -74.721130 140.860474
  endloop
 endfacet
 facet normal -0.000007 -0.559191 0.829039
  outer loop
   vertex 424.181641 -74.783310 140.818527
   vertex 424.606628 -74.979065 140.686493
   vertex 424.431641 -74.727776 140.855988
  endloop
 endfacet
 facet normal 0.000001 -0.559179 0.829047
  outer loop
   vertex 424.181641 -75.073471 140.622818
   vertex 424.606628 -74.979065 140.686493
   vertex 424.181641 -74.783310 140.818527
  endloop
 endfacet
 facet normal 0.000011 -0.559179 0.829047
  outer loop
   vertex 424.181641 -74.783310 140.818527
   vertex 423.931641 -74.727776 140.855988
   vertex 424.181641 -75.073471 140.622818
  endloop
 endfacet
 facet normal -0.000003 -0.559186 0.829042
  outer loop
   vertex 424.181641 -75.073471 140.622818
   vertex 423.931641 -74.727776 140.855988
   vertex 423.756622 -74.979065 140.686493
  endloop
 endfacet
 facet normal 0.000005 -0.559190 0.829039
  outer loop
   vertex 423.756622 -74.979065 140.686493
   vertex 423.931641 -74.727776 140.855988
   vertex 423.748627 -74.576050 140.958328
  endloop
 endfacet
 facet normal 0.000008 -0.559190 0.829039
  outer loop
   vertex 423.748627 -74.576050 140.958328
   vertex 423.445496 -74.721130 140.860474
   vertex 423.756622 -74.979065 140.686493
  endloop
 endfacet
 facet normal 0.000012 -0.559197 0.829035
  outer loop
   vertex 423.681641 -74.368790 141.098129
   vertex 423.445496 -74.721130 140.860474
   vertex 423.748627 -74.576050 140.958328
  endloop
 endfacet
 facet normal 0.000000 -0.559191 0.829039
  outer loop
   vertex 423.331635 -74.368790 141.098129
   vertex 423.445496 -74.721130 140.860474
   vertex 423.681641 -74.368790 141.098129
  endloop
 endfacet
 facet normal -0.000000 -0.559199 0.829033
  outer loop
   vertex 423.681641 -74.368790 141.098129
   vertex 423.748627 -74.161530 141.237930
   vertex 423.331635 -74.368790 141.098129
  endloop
 endfacet
 facet normal -0.000005 -0.559192 0.829038
  outer loop
   vertex 423.331635 -74.368790 141.098129
   vertex 423.748627 -74.161530 141.237930
   vertex 423.331635 -73.539757 141.657318
  endloop
 endfacet
 facet normal -0.000003 -0.559192 0.829039
  outer loop
   vertex 423.331635 -73.539757 141.657318
   vertex 423.748627 -74.161530 141.237930
   vertex 423.931641 -74.009804 141.340271
  endloop
 endfacet
 facet normal -0.000006 -0.559194 0.829037
  outer loop
   vertex 423.931641 -74.009804 141.340271
   vertex 424.181641 -73.954269 141.377731
   vertex 423.331635 -73.539757 141.657318
  endloop
 endfacet
 facet normal 0.000000 0.875396 -0.483407
  outer loop
   vertex 426.173065 -74.564262 139.661743
   vertex 426.173035 -74.297516 140.144791
   vertex 427.331757 -74.564262 139.661743
  endloop
 endfacet
 facet normal -0.000000 0.875396 -0.483407
  outer loop
   vertex 427.331757 -74.564262 139.661743
   vertex 426.173035 -74.297516 140.144791
   vertex 427.331757 -74.297516 140.144791
  endloop
 endfacet
 facet normal 1.000000 0.000000 0.000000
  outer loop
   vertex 427.331757 -74.297516 140.144791
   vertex 427.331757 -74.946419 141.106827
   vertex 427.331757 -74.564262 139.661743
  endloop
 endfacet
 facet normal -0.000000 0.829037 0.559194
  outer loop
   vertex 426.173035 -74.297516 140.144791
   vertex 427.331757 -74.946419 141.106827
   vertex 427.331757 -74.297516 140.144791
  endloop
 endfacet
 facet normal 0.000000 0.829037 0.559194
  outer loop
   vertex 426.173035 -74.946419 141.106827
   vertex 427.331757 -74.946419 141.106827
   vertex 426.173035 -74.297516 140.144791
  endloop
 endfacet
 facet normal -1.000000 0.000000 -0.000000
  outer loop
   vertex 426.173035 -74.297516 140.144791
   vertex 426.173035 -75.494217 141.040451
   vertex 426.173035 -74.946419 141.106827
  endloop
 endfacet
 facet normal 0.000000 -0.120288 0.992739
  outer loop
   vertex 426.173035 -74.946419 141.106827
   vertex 426.173035 -75.494217 141.040451
   vertex 427.331757 -74.946419 141.106827
  endloop
 endfacet
 facet normal -0.000000 -0.120288 0.992739
  outer loop
   vertex 427.331757 -74.946419 141.106827
   vertex 426.173035 -75.494217 141.040451
   vertex 427.331757 -75.494217 141.040451
  endloop
 endfacet
 facet normal 1.000000 0.000000 0.000000
  outer loop
   vertex 427.331757 -75.494217 141.040451
   vertex 427.331757 -74.564262 139.661743
   vertex 427.331757 -74.946419 141.106827
  endloop
 endfacet
 facet normal 1.000000 -0.000000 -0.000000
  outer loop
   vertex 427.331757 -76.046089 140.381424
   vertex 427.331757 -74.564262 139.661743
   vertex 427.331757 -75.494217 141.040451
  endloop
 endfacet
 facet normal 1.000000 0.000000 0.000000
  outer loop
   vertex 427.331757 -75.382034 139.396927
   vertex 427.331757 -74.564262 139.661743
   vertex 427.331757 -76.046089 140.381424
  endloop
 endfacet
 facet normal 0.000000 -0.829036 -0.559195
  outer loop
   vertex 427.331757 -76.046089 140.381424
   vertex 426.173065 -75.382034 139.396927
   vertex 427.331757 -75.382034 139.396927
  endloop
 endfacet
 facet normal 0.000000 -0.675264 0.737576
  outer loop
   vertex 427.331757 -75.382034 139.396927
   vertex 426.173065 -75.382034 139.396927
   vertex 427.331757 -75.455635 139.329544
  endloop
 endfacet
 facet normal -0.000004 -0.675302 0.737541
  outer loop
   vertex 427.331757 -75.455635 139.329544
   vertex 426.173065 -75.382034 139.396927
   vertex 426.173065 -75.455627 139.329544
  endloop
 endfacet
 facet normal -0.000005 -0.829026 -0.559211
  outer loop
   vertex 426.173065 -75.455627 139.329544
   vertex 427.331757 -75.366737 139.197754
   vertex 427.331757 -75.455635 139.329544
  endloop
 endfacet
 facet normal -0.000000 -0.829048 -0.559178
  outer loop
   vertex 426.173065 -75.366737 139.197754
   vertex 427.331757 -75.366737 139.197754
   vertex 426.173065 -75.455627 139.329544
  endloop
 endfacet
 facet normal -0.000000 -0.063252 -0.997998
  outer loop
   vertex 426.173065 -75.262009 139.191116
   vertex 427.331757 -75.366737 139.197754
   vertex 426.173065 -75.366737 139.197754
  endloop
 endfacet
 facet normal -1.000000 -0.000000 -0.000000
  outer loop
   vertex 426.173065 -75.366737 139.197754
   vertex 426.173065 -75.382034 139.396927
   vertex 426.173065 -75.262009 139.191116
  endloop
 endfacet
 facet normal -1.000000 0.000000 0.000000
  outer loop
   vertex 426.173065 -75.262009 139.191116
   vertex 426.173065 -75.382034 139.396927
   vertex 426.173065 -74.564262 139.661743
  endloop
 endfacet
 facet normal -1.000000 0.000008 -0.000025
  outer loop
   vertex 426.173065 -74.564262 139.661743
   vertex 426.173065 -75.382034 139.396927
   vertex 426.173035 -76.046089 140.381424
  endloop
 endfacet
 facet normal -1.000000 0.000015 -0.000012
  outer loop
   vertex 426.173035 -76.046089 140.381424
   vertex 426.173035 -75.494217 141.040451
   vertex 426.173065 -74.564262 139.661743
  endloop
 endfacet
 facet normal -1.000000 -0.000000 -0.000000
  outer loop
   vertex 426.173035 -76.191956 140.569824
   vertex 426.173035 -75.494217 141.040451
   vertex 426.173035 -76.046089 140.381424
  endloop
 endfacet
 facet normal 0.000000 -0.559190 0.829040
  outer loop
   vertex 427.331757 -75.494217 141.040451
   vertex 426.173035 -75.494217 141.040451
   vertex 426.173035 -76.191956 140.569824
  endloop
 endfacet
 facet normal -0.000000 -0.559190 0.829040
  outer loop
   vertex 426.173035 -76.191956 140.569824
   vertex 427.331757 -76.191956 140.569824
   vertex 427.331757 -75.494217 141.040451
  endloop
 endfacet
 facet normal 1.000000 -0.000000 0.000000
  outer loop
   vertex 427.331757 -75.494217 141.040451
   vertex 427.331757 -76.191956 140.569824
   vertex 427.331757 -76.046089 140.381424
  endloop
 endfacet
 facet normal 1.000000 -0.000000 0.000000
  outer loop
   vertex 427.331757 -76.046089 140.381424
   vertex 427.331757 -76.191956 140.569824
   vertex 427.331757 -76.225029 140.470230
  endloop
 endfacet
 facet normal 1.000000 0.000000 -0.000000
  outer loop
   vertex 427.331757 -76.225029 140.470230
   vertex 427.331757 -76.136139 140.338440
   vertex 427.331757 -76.046089 140.381424
  endloop
 endfacet
 facet normal -0.000000 -0.829048 -0.559178
  outer loop
   vertex 426.173035 -76.136139 140.338440
   vertex 427.331757 -76.136139 140.338440
   vertex 427.331757 -76.225029 140.470230
  endloop
 endfacet
 facet normal 0.000000 0.430776 -0.902459
  outer loop
   vertex 427.331757 -76.046089 140.381424
   vertex 427.331757 -76.136139 140.338440
   vertex 426.173035 -76.136139 140.338440
  endloop
 endfacet
 facet normal -0.000000 0.430776 -0.902459
  outer loop
   vertex 426.173035 -76.136139 140.338440
   vertex 426.173035 -76.046089 140.381424
   vertex 427.331757 -76.046089 140.381424
  endloop
 endfacet
 facet normal 0.000000 -0.829036 -0.559195
  outer loop
   vertex 427.331757 -76.046089 140.381424
   vertex 426.173035 -76.046089 140.381424
   vertex 426.173065 -75.382034 139.396927
  endloop
 endfacet
 facet normal 0.000000 -0.120288 0.992739
  outer loop
   vertex 436.667114 -75.494217 141.040466
   vertex 436.667114 -74.946419 141.106842
   vertex 435.508392 -75.494217 141.040466
  endloop
 endfacet
 facet normal -0.000000 -0.120288 0.992739
  outer loop
   vertex 435.508392 -75.494217 141.040466
   vertex 436.667114 -74.946419 141.106842
   vertex 435.508392 -74.946419 141.106842
  endloop
 endfacet
 facet normal -1.000000 0.000000 0.000000
  outer loop
   vertex 435.508392 -74.946419 141.106842
   vertex 435.508392 -74.297516 140.144806
   vertex 435.508392 -75.494217 141.040466
  endloop
 endfacet
 facet normal -0.000000 0.829037 0.559194
  outer loop
   vertex 436.667114 -74.946419 141.106842
   vertex 435.508392 -74.297516 140.144806
   vertex 435.508392 -74.946419 141.106842
  endloop
 endfacet
 facet normal -0.000000 0.829037 0.559194
  outer loop
   vertex 436.667114 -74.297516 140.144806
   vertex 435.508392 -74.297516 140.144806
   vertex 436.667114 -74.946419 141.106842
  endloop
 endfacet
 facet normal 1.000000 -0.000000 -0.000000
  outer loop
   vertex 436.667114 -74.946419 141.106842
   vertex 436.667114 -74.564262 139.661758
   vertex 436.667114 -74.297516 140.144806
  endloop
 endfacet
 facet normal 0.000000 0.875396 -0.483407
  outer loop
   vertex 436.667114 -74.297516 140.144806
   vertex 436.667114 -74.564262 139.661758
   vertex 435.508392 -74.297516 140.144806
  endloop
 endfacet
 facet normal -0.000000 0.875396 -0.483407
  outer loop
   vertex 435.508392 -74.297516 140.144806
   vertex 436.667114 -74.564262 139.661758
   vertex 435.508392 -74.564262 139.661758
  endloop
 endfacet
 facet normal -1.000000 0.000000 0.000000
  outer loop
   vertex 435.508392 -74.564262 139.661758
   vertex 435.508392 -75.494217 141.040466
   vertex 435.508392 -74.297516 140.144806
  endloop
 endfacet
 facet normal -1.000000 -0.000000 -0.000000
  outer loop
   vertex 435.508392 -75.382034 139.396942
   vertex 435.508392 -75.494217 141.040466
   vertex 435.508392 -74.564262 139.661758
  endloop
 endfacet
 facet normal -1.000000 0.000000 -0.000000
  outer loop
   vertex 435.508392 -76.046089 140.381439
   vertex 435.508392 -75.494217 141.040466
   vertex 435.508392 -75.382034 139.396942
  endloop
 endfacet
 facet normal -0.000000 -0.829036 -0.559195
  outer loop
   vertex 435.508392 -75.382034 139.396942
   vertex 436.667114 -76.046089 140.381439
   vertex 435.508392 -76.046089 140.381439
  endloop
 endfacet
 facet normal 0.000000 0.430901 -0.902399
  outer loop
   vertex 435.508392 -76.046089 140.381439
   vertex 436.667114 -76.046089 140.381439
   vertex 435.508392 -76.136139 140.338440
  endloop
 endfacet
 facet normal 0.000012 0.430776 -0.902459
  outer loop
   vertex 435.508392 -76.136139 140.338440
   vertex 436.667114 -76.046089 140.381439
   vertex 436.667114 -76.136139 140.338455
  endloop
 endfacet
 facet normal 0.000007 -0.829048 -0.559178
  outer loop
   vertex 436.667114 -76.136139 140.338455
   vertex 435.508392 -76.225029 140.470230
   vertex 435.508392 -76.136139 140.338440
  endloop
 endfacet
 facet normal 0.000000 -0.829018 -0.559222
  outer loop
   vertex 436.667114 -76.225029 140.470230
   vertex 435.508392 -76.225029 140.470230
   vertex 436.667114 -76.136139 140.338455
  endloop
 endfacet
 facet normal 0.000000 -0.949053 0.315115
  outer loop
   vertex 436.667114 -76.191956 140.569839
   vertex 435.508392 -76.225029 140.470230
   vertex 436.667114 -76.225029 140.470230
  endloop
 endfacet
 facet normal 1.000000 -0.000000 -0.000000
  outer loop
   vertex 436.667114 -76.225029 140.470230
   vertex 436.667114 -76.046089 140.381439
   vertex 436.667114 -76.191956 140.569839
  endloop
 endfacet
 facet normal 1.000000 0.000000 -0.000000
  outer loop
   vertex 436.667114 -76.191956 140.569839
   vertex 436.667114 -76.046089 140.381439
   vertex 436.667114 -75.494217 141.040466
  endloop
 endfacet
 facet normal 1.000000 -0.000000 -0.000000
  outer loop
   vertex 436.667114 -75.494217 141.040466
   vertex 436.667114 -76.046089 140.381439
   vertex 436.667114 -75.382034 139.396942
  endloop
 endfacet
 facet normal 1.000000 0.000000 0.000000
  outer loop
   vertex 436.667114 -75.382034 139.396942
   vertex 436.667114 -74.564262 139.661758
   vertex 436.667114 -75.494217 141.040466
  endloop
 endfacet
 facet normal 1.000000 -0.000000 -0.000000
  outer loop
   vertex 436.667114 -75.262009 139.191132
   vertex 436.667114 -74.564262 139.661758
   vertex 436.667114 -75.382034 139.396942
  endloop
 endfacet
 facet normal 0.000000 0.559186 -0.829043
  outer loop
   vertex 435.508392 -74.564262 139.661758
   vertex 436.667114 -74.564262 139.661758
   vertex 436.667114 -75.262009 139.191132
  endloop
 endfacet
 facet normal -0.000000 0.559186 -0.829043
  outer loop
   vertex 436.667114 -75.262009 139.191132
   vertex 435.508392 -75.262009 139.191132
   vertex 435.508392 -74.564262 139.661758
  endloop
 endfacet
 facet normal -1.000000 0.000000 0.000000
  outer loop
   vertex 435.508392 -74.564262 139.661758
   vertex 435.508392 -75.262009 139.191132
   vertex 435.508392 -75.382034 139.396942
  endloop
 endfacet
 facet normal -1.000000 -0.000000 -0.000000
  outer loop
   vertex 435.508392 -75.382034 139.396942
   vertex 435.508392 -75.262009 139.191132
   vertex 435.508392 -75.366737 139.197769
  endloop
 endfacet
 facet normal -1.000000 0.000000 0.000000
  outer loop
   vertex 435.508392 -75.366737 139.197769
   vertex 435.508392 -75.455627 139.329559
   vertex 435.508392 -75.382034 139.396942
  endloop
 endfacet
 facet normal 0.000000 -0.829048 -0.559178
  outer loop
   vertex 436.667114 -75.455627 139.329559
   vertex 435.508392 -75.455627 139.329559
   vertex 435.508392 -75.366737 139.197769
  endloop
 endfacet
 facet normal 0.000000 -0.675302 0.737541
  outer loop
   vertex 435.508392 -75.382034 139.396942
   vertex 435.508392 -75.455627 139.329559
   vertex 436.667114 -75.455627 139.329559
  endloop
 endfacet
 facet normal -0.000000 -0.675302 0.737541
  outer loop
   vertex 436.667114 -75.455627 139.329559
   vertex 436.667114 -75.382034 139.396942
   vertex 435.508392 -75.382034 139.396942
  endloop
 endfacet
 facet normal -0.000000 -0.829036 -0.559195
  outer loop
   vertex 435.508392 -75.382034 139.396942
   vertex 436.667114 -75.382034 139.396942
   vertex 436.667114 -76.046089 140.381439
  endloop
 endfacet
 facet normal 0.000000 0.559199 -0.829033
  outer loop
   vertex 424.681641 -74.089195 140.683609
   vertex 425.031647 -74.089195 140.683609
   vertex 424.614655 -74.296455 140.543808
  endloop
 endfacet
 facet normal 0.000007 0.559189 -0.829040
  outer loop
   vertex 424.614655 -74.296455 140.543808
   vertex 425.031647 -74.089195 140.683609
   vertex 424.917755 -74.441536 140.445953
  endloop
 endfacet
 facet normal 0.000007 0.559189 -0.829040
  outer loop
   vertex 424.917755 -74.441536 140.445953
   vertex 424.431641 -74.448181 140.441467
   vertex 424.614655 -74.296455 140.543808
  endloop
 endfacet
 facet normal 0.000007 0.559191 -0.829039
  outer loop
   vertex 424.606628 -74.699471 140.271973
   vertex 424.431641 -74.448181 140.441467
   vertex 424.917755 -74.441536 140.445953
  endloop
 endfacet
 facet normal 0.000007 0.559191 -0.829039
  outer loop
   vertex 424.181641 -74.503716 140.404007
   vertex 424.431641 -74.448181 140.441467
   vertex 424.606628 -74.699471 140.271973
  endloop
 endfacet
 facet normal -0.000001 0.559179 -0.829047
  outer loop
   vertex 424.606628 -74.699471 140.271973
   vertex 424.181641 -74.793877 140.208298
   vertex 424.181641 -74.503716 140.404007
  endloop
 endfacet
 facet normal -0.000011 0.559179 -0.829047
  outer loop
   vertex 424.181641 -74.503716 140.404007
   vertex 424.181641 -74.793877 140.208298
   vertex 423.931641 -74.448181 140.441467
  endloop
 endfacet
 facet normal 0.000003 0.559186 -0.829042
  outer loop
   vertex 423.931641 -74.448181 140.441467
   vertex 424.181641 -74.793877 140.208298
   vertex 423.756622 -74.699471 140.271973
  endloop
 endfacet
 facet normal -0.000005 0.559190 -0.829039
  outer loop
   vertex 423.756622 -74.699471 140.271973
   vertex 423.748627 -74.296455 140.543808
   vertex 423.931641 -74.448181 140.441467
  endloop
 endfacet
 facet normal -0.000008 0.559190 -0.829039
  outer loop
   vertex 423.445496 -74.441536 140.445953
   vertex 423.748627 -74.296455 140.543808
   vertex 423.756622 -74.699471 140.271973
  endloop
 endfacet
 facet normal -0.000012 0.559197 -0.829035
  outer loop
   vertex 423.681641 -74.089195 140.683609
   vertex 423.748627 -74.296455 140.543808
   vertex 423.445496 -74.441536 140.445953
  endloop
 endfacet
 facet normal -0.000000 0.559191 -0.829039
  outer loop
   vertex 423.445496 -74.441536 140.445953
   vertex 423.331635 -74.089195 140.683609
   vertex 423.681641 -74.089195 140.683609
  endloop
 endfacet
 facet normal 0.000000 0.559199 -0.829033
  outer loop
   vertex 423.681641 -74.089195 140.683609
   vertex 423.331635 -74.089195 140.683609
   vertex 423.748627 -73.881935 140.823410
  endloop
 endfacet
 facet normal 0.000008 0.559189 -0.829040
  outer loop
   vertex 423.748627 -73.881935 140.823410
   vertex 423.331635 -74.089195 140.683609
   vertex 423.331635 -73.260155 141.242798
  endloop
 endfacet
 facet normal 0.000007 0.559188 -0.829041
  outer loop
   vertex 423.331635 -73.260155 141.242798
   vertex 423.931641 -73.730209 140.925751
   vertex 423.748627 -73.881935 140.823410
  endloop
 endfacet
 facet normal 0.000008 0.559189 -0.829040
  outer loop
   vertex 424.181641 -73.674675 140.963211
   vertex 423.931641 -73.730209 140.925751
   vertex 423.331635 -73.260155 141.242798
  endloop
 endfacet
 facet normal 0.000000 -0.559199 0.829033
  outer loop
   vertex 438.158508 -74.368790 141.098145
   vertex 437.808533 -74.368790 141.098145
   vertex 438.225494 -74.576050 140.958344
  endloop
 endfacet
 facet normal 0.000007 -0.559189 0.829040
  outer loop
   vertex 438.225494 -74.576050 140.958344
   vertex 437.808533 -74.368790 141.098145
   vertex 437.922394 -74.721130 140.860489
  endloop
 endfacet
 facet normal -0.000019 -0.559152 0.829065
  outer loop
   vertex 437.922394 -74.721130 140.860489
   vertex 438.408508 -74.727776 140.856018
   vertex 438.225494 -74.576050 140.958344
  endloop
 endfacet
 facet normal -0.000020 -0.559213 0.829024
  outer loop
   vertex 438.233521 -74.979065 140.686508
   vertex 438.408508 -74.727776 140.856018
   vertex 437.922394 -74.721130 140.860489
  endloop
 endfacet
 facet normal -0.000003 -0.559221 0.829018
  outer loop
   vertex 438.658508 -74.783310 140.818558
   vertex 438.408508 -74.727776 140.856018
   vertex 438.233521 -74.979065 140.686508
  endloop
 endfacet
 facet normal -0.000011 -0.559209 0.829027
  outer loop
   vertex 438.233521 -74.979065 140.686508
   vertex 438.658508 -75.073471 140.622833
   vertex 438.658508 -74.783310 140.818558
  endloop
 endfacet
 facet normal -0.000001 -0.559209 0.829027
  outer loop
   vertex 438.658508 -74.783310 140.818558
   vertex 438.658508 -75.073471 140.622833
   vertex 438.908508 -74.727776 140.856018
  endloop
 endfacet
 facet normal 0.000013 -0.559216 0.829022
  outer loop
   vertex 438.908508 -74.727776 140.856018
   vertex 438.658508 -75.073471 140.622833
   vertex 439.083527 -74.979065 140.686508
  endloop
 endfacet
 facet normal 0.000065 -0.559191 0.829039
  outer loop
   vertex 439.083527 -74.979065 140.686508
   vertex 439.091522 -74.576050 140.958344
   vertex 438.908508 -74.727776 140.856018
  endloop
 endfacet
 facet normal -0.000008 -0.559190 0.829039
  outer loop
   vertex 439.394653 -74.721130 140.860489
   vertex 439.091522 -74.576050 140.958344
   vertex 439.083527 -74.979065 140.686508
  endloop
 endfacet
 facet normal -0.000012 -0.559197 0.829035
  outer loop
   vertex 439.158508 -74.368790 141.098145
   vertex 439.091522 -74.576050 140.958344
   vertex 439.394653 -74.721130 140.860489
  endloop
 endfacet
 facet normal -0.000000 -0.559191 0.829039
  outer loop
   vertex 439.394653 -74.721130 140.860489
   vertex 439.508514 -74.368790 141.098145
   vertex 439.158508 -74.368790 141.098145
  endloop
 endfacet
 facet normal 0.000000 -0.559199 0.829033
  outer loop
   vertex 439.158508 -74.368790 141.098145
   vertex 439.508514 -74.368790 141.098145
   vertex 439.091522 -74.161530 141.237946
  endloop
 endfacet
 facet normal -0.000003 -0.559203 0.829031
  outer loop
   vertex 439.091522 -74.161530 141.237946
   vertex 439.508514 -74.368790 141.098145
   vertex 439.508514 -73.539757 141.657349
  endloop
 endfacet
 facet normal 0.000008 -0.559207 0.829028
  outer loop
   vertex 439.508514 -73.539757 141.657349
   vertex 438.908508 -74.009811 141.340286
   vertex 439.091522 -74.161530 141.237946
  endloop
 endfacet
 facet normal -0.000010 -0.559192 0.829038
  outer loop
   vertex 438.658508 -73.954269 141.377747
   vertex 438.908508 -74.009811 141.340286
   vertex 439.508514 -73.539757 141.657349
  endloop
 endfacet
 facet normal 0.000000 -0.559185 0.829043
  outer loop
   vertex 423.331635 -73.539757 141.657318
   vertex 424.181641 -73.954269 141.377731
   vertex 425.031616 -73.539757 141.657318
  endloop
 endfacet
 facet normal 0.000006 -0.559194 0.829037
  outer loop
   vertex 425.031616 -73.539757 141.657318
   vertex 424.181641 -73.954269 141.377731
   vertex 424.431641 -74.009804 141.340271
  endloop
 endfacet
 facet normal 0.000003 -0.559192 0.829039
  outer loop
   vertex 424.431641 -74.009804 141.340271
   vertex 424.614655 -74.161530 141.237930
   vertex 425.031616 -73.539757 141.657318
  endloop
 endfacet
 facet normal 0.000007 -0.559201 0.829032
  outer loop
   vertex 438.225494 -74.161530 141.237946
   vertex 438.408508 -74.009804 141.340286
   vertex 437.808502 -73.539757 141.657349
  endloop
 endfacet
 facet normal -0.000001 -0.559208 0.829027
  outer loop
   vertex 437.808502 -73.539757 141.657349
   vertex 438.408508 -74.009804 141.340286
   vertex 438.658508 -73.954269 141.377747
  endloop
 endfacet
 facet normal 0.000000 -0.559206 0.829029
  outer loop
   vertex 438.658508 -73.954269 141.377747
   vertex 439.508514 -73.539757 141.657349
   vertex 437.808502 -73.539757 141.657349
  endloop
 endfacet
 facet normal 0.000000 0.559199 -0.829033
  outer loop
   vertex 439.508514 -73.260155 141.242828
   vertex 438.658508 -73.674675 140.963226
   vertex 437.808533 -73.260155 141.242828
  endloop
 endfacet
 facet normal 0.000003 0.559203 -0.829030
  outer loop
   vertex 437.808533 -73.260155 141.242828
   vertex 438.658508 -73.674675 140.963226
   vertex 438.408508 -73.730209 140.925766
  endloop
 endfacet
 facet normal -0.000004 0.559197 -0.829034
  outer loop
   vertex 438.408508 -73.730209 140.925766
   vertex 438.225494 -73.881935 140.823425
   vertex 437.808533 -73.260155 141.242828
  endloop
 endfacet
 facet normal -0.000007 0.559188 -0.829041
  outer loop
   vertex 424.614655 -73.881935 140.823410
   vertex 424.431641 -73.730209 140.925751
   vertex 425.031647 -73.260155 141.242798
  endloop
 endfacet
 facet normal -0.000008 0.559189 -0.829040
  outer loop
   vertex 425.031647 -73.260155 141.242798
   vertex 424.431641 -73.730209 140.925751
   vertex 424.181641 -73.674675 140.963211
  endloop
 endfacet
 facet normal 0.000000 0.559178 -0.829047
  outer loop
   vertex 424.181641 -73.674675 140.963211
   vertex 423.331635 -73.260155 141.242798
   vertex 425.031647 -73.260155 141.242798
  endloop
 endfacet
 facet normal 0.000000 -0.063252 -0.997998
  outer loop
   vertex 436.667114 -75.262009 139.191132
   vertex 436.667114 -75.366737 139.197769
   vertex 435.508392 -75.262009 139.191132
  endloop
 endfacet
 facet normal -0.000000 -0.063252 -0.997998
  outer loop
   vertex 435.508392 -75.262009 139.191132
   vertex 436.667114 -75.366737 139.197769
   vertex 435.508392 -75.366737 139.197769
  endloop
 endfacet
 facet normal -0.000001 -0.559192 0.829038
  outer loop
   vertex 426.420074 -75.529747 140.919937
   vertex 426.420074 -76.038383 140.576859
   vertex 436.420074 -75.529747 140.919952
  endloop
 endfacet
 facet normal -0.000001 -0.559192 0.829038
  outer loop
   vertex 436.420074 -75.529747 140.919952
   vertex 426.420074 -76.038383 140.576859
   vertex 436.420074 -76.038383 140.576874
  endloop
 endfacet
 facet normal -0.000004 -0.949039 0.315159
  outer loop
   vertex 427.331757 -76.225029 140.470230
   vertex 427.331757 -76.191956 140.569824
   vertex 426.173035 -76.225029 140.470215
  endloop
 endfacet
 facet normal -0.000000 -0.949053 0.315115
  outer loop
   vertex 426.173035 -76.225029 140.470215
   vertex 427.331757 -76.191956 140.569824
   vertex 426.173035 -76.191956 140.569824
  endloop
 endfacet
 facet normal -0.000000 -0.829033 -0.559199
  outer loop
   vertex 439.158508 -74.089195 140.683624
   vertex 439.508514 -74.089195 140.683624
   vertex 439.333527 -74.228996 140.890884
  endloop
 endfacet
 facet normal 1.000000 0.000000 0.000000
  outer loop
   vertex 436.667114 -75.494217 141.040466
   vertex 436.667114 -74.564262 139.661758
   vertex 436.667114 -74.946419 141.106842
  endloop
 endfacet
 facet normal 0.000000 -0.559199 0.829033
  outer loop
   vertex 437.808533 -74.368790 141.098145
   vertex 438.158508 -74.368790 141.098145
   vertex 438.225494 -74.161530 141.237946
  endloop
 endfacet
 facet normal 0.000000 -0.559199 0.829033
  outer loop
   vertex 424.681641 -74.368790 141.098129
   vertex 425.031616 -74.368790 141.098129
   vertex 424.614655 -74.161530 141.237930
  endloop
 endfacet
 facet normal -0.000000 0.829040 0.559189
  outer loop
   vertex 439.508514 -74.089195 140.683624
   vertex 439.158508 -74.368790 141.098145
   vertex 439.508514 -74.368790 141.098145
  endloop
 endfacet
 facet normal 0.000000 0.559191 -0.829039
  outer loop
   vertex 426.419312 -74.427116 140.084808
   vertex 424.771149 -74.427116 140.084808
   vertex 424.771149 -73.149529 140.946548
  endloop
 endfacet
 facet normal 0.000000 -0.559198 0.829034
  outer loop
   vertex 436.420837 -73.772995 141.870895
   vertex 436.420837 -75.050583 141.009140
   vertex 438.069000 -73.772995 141.870895
  endloop
 endfacet
 facet normal 0.000000 0.829040 0.559189
  outer loop
   vertex 423.331635 -74.368790 141.098129
   vertex 423.681641 -74.089195 140.683609
   vertex 423.331635 -74.089195 140.683609
  endloop
 endfacet
 facet normal -1.000000 0.000000 0.000000
  outer loop
   vertex 426.173065 -75.366737 139.197754
   vertex 426.173065 -75.455627 139.329544
   vertex 426.173065 -75.382034 139.396927
  endloop
 endfacet
 facet normal 0.000000 0.829040 0.559189
  outer loop
   vertex 438.158508 -74.368790 141.098145
   vertex 437.808533 -74.089195 140.683624
   vertex 437.808533 -74.368790 141.098145
  endloop
 endfacet
 facet normal -1.000000 -0.000033 -0.000045
  outer loop
   vertex 426.173065 -74.564262 139.661743
   vertex 426.173035 -75.494217 141.040451
   vertex 426.173035 -74.297516 140.144791
  endloop
 endfacet
 facet normal 1.000000 0.000000 -0.000000
  outer loop
   vertex 436.667114 -76.225029 140.470230
   vertex 436.667114 -76.136139 140.338455
   vertex 436.667114 -76.046089 140.381439
  endloop
 endfacet
 facet normal 0.000000 0.559191 -0.829039
  outer loop
   vertex 436.420837 -74.427116 140.084824
   vertex 436.420837 -73.149529 140.946564
   vertex 438.069000 -73.149529 140.946564
  endloop
 endfacet
 facet normal 1.000000 0.000000 0.000000
  outer loop
   vertex 426.419312 -73.149529 140.946548
   vertex 426.419312 -73.772995 141.870880
   vertex 426.419312 -75.050583 141.009140
  endloop
 endfacet
 facet normal 0.000000 0.829040 0.559189
  outer loop
   vertex 424.681641 -74.089195 140.683609
   vertex 425.031616 -74.368790 141.098129
   vertex 425.031647 -74.089195 140.683609
  endloop
 endfacet
 facet normal 0.000000 0.559199 -0.829033
  outer loop
   vertex 425.031647 -74.089195 140.683609
   vertex 424.681641 -74.089195 140.683609
   vertex 424.614655 -73.881935 140.823410
  endloop
 endfacet
 facet normal -0.707108 -0.586219 -0.395405
  outer loop
   vertex 424.431641 -73.730209 140.925751
   vertex 424.614655 -74.161530 141.237930
   vertex 424.431641 -74.009804 141.340271
  endloop
 endfacet
 facet normal -0.258820 -0.800791 -0.540135
  outer loop
   vertex 424.431641 -73.730209 140.925751
   vertex 424.431641 -74.009804 141.340271
   vertex 424.181641 -73.674675 140.963211
  endloop
 endfacet
 facet normal -0.258820 -0.800791 -0.540135
  outer loop
   vertex 424.181641 -73.674675 140.963211
   vertex 424.431641 -74.009804 141.340271
   vertex 424.181641 -73.954269 141.377731
  endloop
 endfacet
 facet normal 0.258820 -0.800791 -0.540135
  outer loop
   vertex 424.181641 -73.954269 141.377731
   vertex 423.931641 -73.730209 140.925751
   vertex 424.181641 -73.674675 140.963211
  endloop
 endfacet
 facet normal 0.258820 -0.800791 -0.540135
  outer loop
   vertex 423.931641 -74.009804 141.340271
   vertex 423.931641 -73.730209 140.925751
   vertex 424.181641 -73.954269 141.377731
  endloop
 endfacet
 facet normal 0.707108 -0.586219 -0.395405
  outer loop
   vertex 423.748627 -73.881935 140.823410
   vertex 423.931641 -73.730209 140.925751
   vertex 423.931641 -74.009804 141.340271
  endloop
 endfacet
 facet normal 0.707108 -0.586219 -0.395405
  outer loop
   vertex 423.931641 -74.009804 141.340271
   vertex 423.748627 -74.161530 141.237930
   vertex 423.748627 -73.881935 140.823410
  endloop
 endfacet
 facet normal 0.965928 -0.214566 -0.144725
  outer loop
   vertex 423.748627 -73.881935 140.823410
   vertex 423.748627 -74.161530 141.237930
   vertex 423.681641 -74.089195 140.683609
  endloop
 endfacet
 facet normal -0.965928 -0.214566 -0.144725
  outer loop
   vertex 439.158508 -74.089195 140.683624
   vertex 439.158508 -74.368790 141.098145
   vertex 439.091522 -73.881935 140.823425
  endloop
 endfacet
 facet normal -0.965928 -0.214566 -0.144725
  outer loop
   vertex 439.091522 -73.881935 140.823425
   vertex 439.158508 -74.368790 141.098145
   vertex 439.091522 -74.161530 141.237946
  endloop
 endfacet
 facet normal -0.707108 -0.586219 -0.395405
  outer loop
   vertex 439.091522 -74.161530 141.237946
   vertex 438.908508 -73.730209 140.925766
   vertex 439.091522 -73.881935 140.823425
  endloop
 endfacet
 facet normal -0.707096 -0.586224 -0.395420
  outer loop
   vertex 438.908508 -74.009811 141.340286
   vertex 438.908508 -73.730209 140.925766
   vertex 439.091522 -74.161530 141.237946
  endloop
 endfacet
 facet normal -0.258820 -0.800784 -0.540145
  outer loop
   vertex 438.658508 -73.674675 140.963226
   vertex 438.908508 -73.730209 140.925766
   vertex 438.908508 -74.009811 141.340286
  endloop
 endfacet
 facet normal -0.258843 -0.800786 -0.540131
  outer loop
   vertex 438.908508 -74.009811 141.340286
   vertex 438.658508 -73.954269 141.377747
   vertex 438.658508 -73.674675 140.963226
  endloop
 endfacet
 facet normal 0.258820 -0.800791 -0.540135
  outer loop
   vertex 438.658508 -73.674675 140.963226
   vertex 438.658508 -73.954269 141.377747
   vertex 438.408508 -73.730209 140.925766
  endloop
 endfacet
 facet normal 0.258820 -0.800791 -0.540135
  outer loop
   vertex 438.408508 -73.730209 140.925766
   vertex 438.658508 -73.954269 141.377747
   vertex 438.408508 -74.009804 141.340286
  endloop
 endfacet
 facet normal 0.707108 -0.586219 -0.395405
  outer loop
   vertex 438.408508 -74.009804 141.340286
   vertex 438.225494 -73.881935 140.823425
   vertex 438.408508 -73.730209 140.925766
  endloop
 endfacet
 facet normal 0.965918 -0.214628 -0.144696
  outer loop
   vertex 425.031647 -74.089195 140.683609
   vertex 425.031616 -74.368790 141.098129
   vertex 424.917755 -74.441536 140.445953
  endloop
 endfacet
 facet normal 0.965936 -0.214541 -0.144708
  outer loop
   vertex 424.917755 -74.441536 140.445953
   vertex 425.031616 -74.368790 141.098129
   vertex 424.917755 -74.721130 140.860474
  endloop
 endfacet
 facet normal 0.707106 -0.586221 -0.395406
  outer loop
   vertex 424.917755 -74.721130 140.860474
   vertex 424.606628 -74.699471 140.271973
   vertex 424.917755 -74.441536 140.445953
  endloop
 endfacet
 facet normal 0.707106 -0.586221 -0.395406
  outer loop
   vertex 424.606628 -74.979065 140.686493
   vertex 424.606628 -74.699471 140.271973
   vertex 424.917755 -74.721130 140.860474
  endloop
 endfacet
 facet normal 0.258814 -0.800793 -0.540136
  outer loop
   vertex 424.181641 -74.793877 140.208298
   vertex 424.606628 -74.699471 140.271973
   vertex 424.606628 -74.979065 140.686493
  endloop
 endfacet
 facet normal 0.258814 -0.800793 -0.540136
  outer loop
   vertex 424.606628 -74.979065 140.686493
   vertex 424.181641 -75.073471 140.622818
   vertex 424.181641 -74.793877 140.208298
  endloop
 endfacet
 facet normal -0.258797 -0.800796 -0.540138
  outer loop
   vertex 424.181641 -74.793877 140.208298
   vertex 424.181641 -75.073471 140.622818
   vertex 423.756622 -74.699471 140.271973
  endloop
 endfacet
 facet normal -0.258797 -0.800796 -0.540138
  outer loop
   vertex 423.756622 -74.699471 140.271973
   vertex 424.181641 -75.073471 140.622818
   vertex 423.756622 -74.979065 140.686493
  endloop
 endfacet
 facet normal -0.707106 -0.586221 -0.395406
  outer loop
   vertex 423.756622 -74.979065 140.686493
   vertex 423.445496 -74.441536 140.445953
   vertex 423.756622 -74.699471 140.271973
  endloop
 endfacet
 facet normal -0.707106 -0.586221 -0.395406
  outer loop
   vertex 423.445496 -74.721130 140.860474
   vertex 423.445496 -74.441536 140.445953
   vertex 423.756622 -74.979065 140.686493
  endloop
 endfacet
 facet normal -0.965936 -0.214541 -0.144708
  outer loop
   vertex 423.331635 -74.089195 140.683609
   vertex 423.445496 -74.441536 140.445953
   vertex 423.445496 -74.721130 140.860474
  endloop
 endfacet
 facet normal -0.965936 -0.214541 -0.144708
  outer loop
   vertex 423.445496 -74.721130 140.860474
   vertex 423.331635 -74.368790 141.098129
   vertex 423.331635 -74.089195 140.683609
  endloop
 endfacet
 facet normal 0.965936 -0.214541 -0.144708
  outer loop
   vertex 439.508514 -74.089195 140.683624
   vertex 439.508514 -74.368790 141.098145
   vertex 439.394653 -74.441536 140.445969
  endloop
 endfacet
 facet normal 0.965936 -0.214541 -0.144708
  outer loop
   vertex 439.394653 -74.441536 140.445969
   vertex 439.508514 -74.368790 141.098145
   vertex 439.394653 -74.721130 140.860489
  endloop
 endfacet
 facet normal 0.707097 -0.586229 -0.395412
  outer loop
   vertex 439.394653 -74.721130 140.860489
   vertex 439.083527 -74.699471 140.272003
   vertex 439.394653 -74.441536 140.445969
  endloop
 endfacet
 facet normal 0.707106 -0.586214 -0.395416
  outer loop
   vertex 439.083527 -74.979065 140.686508
   vertex 439.083527 -74.699471 140.272003
   vertex 439.394653 -74.721130 140.860489
  endloop
 endfacet
 facet normal 0.258815 -0.800783 -0.540149
  outer loop
   vertex 438.658508 -74.793877 140.208313
   vertex 439.083527 -74.699471 140.272003
   vertex 439.083527 -74.979065 140.686508
  endloop
 endfacet
 facet normal 0.258797 -0.800796 -0.540138
  outer loop
   vertex 439.083527 -74.979065 140.686508
   vertex 438.658508 -75.073471 140.622833
   vertex 438.658508 -74.793877 140.208313
  endloop
 endfacet
 facet normal -0.258814 -0.800793 -0.540136
  outer loop
   vertex 438.658508 -74.793877 140.208313
   vertex 438.658508 -75.073471 140.622833
   vertex 438.233521 -74.699471 140.271988
  endloop
 endfacet
 facet normal -0.258814 -0.800793 -0.540136
  outer loop
   vertex 438.233521 -74.699471 140.271988
   vertex 438.658508 -75.073471 140.622833
   vertex 438.233521 -74.979065 140.686508
  endloop
 endfacet
 facet normal -0.707106 -0.586221 -0.395406
  outer loop
   vertex 438.233521 -74.979065 140.686508
   vertex 437.922394 -74.441536 140.445969
   vertex 438.233521 -74.699471 140.271988
  endloop
 endfacet
 facet normal -0.707106 -0.586221 -0.395406
  outer loop
   vertex 437.922394 -74.721130 140.860489
   vertex 437.922394 -74.441536 140.445969
   vertex 438.233521 -74.979065 140.686508
  endloop
 endfacet
 facet normal -0.965936 -0.214541 -0.144708
  outer loop
   vertex 437.808533 -74.089195 140.683624
   vertex 437.922394 -74.441536 140.445969
   vertex 437.922394 -74.721130 140.860489
  endloop
 endfacet
 facet normal -0.965936 -0.214541 -0.144708
  outer loop
   vertex 437.922394 -74.721130 140.860489
   vertex 437.808533 -74.368790 141.098145
   vertex 437.808533 -74.089195 140.683624
  endloop
 endfacet
 facet normal 0.707108 -0.586219 -0.395405
  outer loop
   vertex 438.408508 -74.009804 141.340286
   vertex 438.225494 -74.161530 141.237946
   vertex 438.225494 -73.881935 140.823425
  endloop
 endfacet
 facet normal 0.965928 -0.214566 -0.144725
  outer loop
   vertex 438.225494 -73.881935 140.823425
   vertex 438.225494 -74.161530 141.237946
   vertex 438.158508 -74.368790 141.098145
  endloop
 endfacet
 facet normal 0.965928 -0.214566 -0.144725
  outer loop
   vertex 438.158508 -74.368790 141.098145
   vertex 438.158508 -74.089195 140.683624
   vertex 438.225494 -73.881935 140.823425
  endloop
 endfacet
 facet normal 0.965928 0.214566 0.144725
  outer loop
   vertex 438.225494 -74.576050 140.958344
   vertex 438.158508 -74.089195 140.683624
   vertex 438.158508 -74.368790 141.098145
  endloop
 endfacet
 facet normal 0.965925 0.214570 0.144733
  outer loop
   vertex 438.225494 -74.296455 140.543839
   vertex 438.158508 -74.089195 140.683624
   vertex 438.225494 -74.576050 140.958344
  endloop
 endfacet
 facet normal 0.707092 0.586226 0.395425
  outer loop
   vertex 438.225494 -74.576050 140.958344
   vertex 438.408508 -74.727776 140.856018
   vertex 438.225494 -74.296455 140.543839
  endloop
 endfacet
 facet normal 0.707108 0.586219 0.395405
  outer loop
   vertex 438.225494 -74.296455 140.543839
   vertex 438.408508 -74.727776 140.856018
   vertex 438.408508 -74.448181 140.441498
  endloop
 endfacet
 facet normal 0.258820 0.800791 0.540135
  outer loop
   vertex 438.408508 -74.448181 140.441498
   vertex 438.408508 -74.727776 140.856018
   vertex 438.658508 -74.783310 140.818558
  endloop
 endfacet
 facet normal 0.258820 0.800791 0.540135
  outer loop
   vertex 438.658508 -74.783310 140.818558
   vertex 438.658508 -74.503716 140.404037
   vertex 438.408508 -74.448181 140.441498
  endloop
 endfacet
 facet normal -0.258820 0.800791 0.540135
  outer loop
   vertex 438.908508 -74.727776 140.856018
   vertex 438.658508 -74.503716 140.404037
   vertex 438.658508 -74.783310 140.818558
  endloop
 endfacet
 facet normal -0.258820 0.800791 0.540135
  outer loop
   vertex 438.908508 -74.448181 140.441498
   vertex 438.658508 -74.503716 140.404037
   vertex 438.908508 -74.727776 140.856018
  endloop
 endfacet
 facet normal -0.707092 0.586233 0.395415
  outer loop
   vertex 438.908508 -74.727776 140.856018
   vertex 439.091522 -74.576050 140.958344
   vertex 438.908508 -74.448181 140.441498
  endloop
 endfacet
 facet normal -0.707108 0.586212 0.395415
  outer loop
   vertex 438.908508 -74.448181 140.441498
   vertex 439.091522 -74.576050 140.958344
   vertex 439.091522 -74.296455 140.543839
  endloop
 endfacet
 facet normal -0.965928 0.214564 0.144729
  outer loop
   vertex 439.091522 -74.296455 140.543839
   vertex 439.091522 -74.576050 140.958344
   vertex 439.158508 -74.368790 141.098145
  endloop
 endfacet
 facet normal -0.965925 0.214573 0.144730
  outer loop
   vertex 439.158508 -74.368790 141.098145
   vertex 439.158508 -74.089195 140.683624
   vertex 439.091522 -74.296455 140.543839
  endloop
 endfacet
 facet normal -0.707108 -0.586219 -0.395405
  outer loop
   vertex 424.431641 -73.730209 140.925751
   vertex 424.614655 -73.881935 140.823410
   vertex 424.614655 -74.161530 141.237930
  endloop
 endfacet
 facet normal -0.965928 -0.214566 -0.144725
  outer loop
   vertex 424.614655 -74.161530 141.237930
   vertex 424.614655 -73.881935 140.823410
   vertex 424.681641 -74.089195 140.683609
  endloop
 endfacet
 facet normal -0.965928 -0.214566 -0.144725
  outer loop
   vertex 424.681641 -74.089195 140.683609
   vertex 424.681641 -74.368790 141.098129
   vertex 424.614655 -74.161530 141.237930
  endloop
 endfacet
 facet normal -0.965928 0.214566 0.144725
  outer loop
   vertex 424.614655 -74.296455 140.543808
   vertex 424.681641 -74.368790 141.098129
   vertex 424.681641 -74.089195 140.683609
  endloop
 endfacet
 facet normal -0.965928 0.214566 0.144725
  outer loop
   vertex 424.614655 -74.576050 140.958328
   vertex 424.681641 -74.368790 141.098129
   vertex 424.614655 -74.296455 140.543808
  endloop
 endfacet
 facet normal -0.707108 0.586219 0.395405
  outer loop
   vertex 424.614655 -74.296455 140.543808
   vertex 424.431641 -74.448181 140.441467
   vertex 424.614655 -74.576050 140.958328
  endloop
 endfacet
 facet normal -0.707108 0.586219 0.395405
  outer loop
   vertex 424.614655 -74.576050 140.958328
   vertex 424.431641 -74.448181 140.441467
   vertex 424.431641 -74.727776 140.855988
  endloop
 endfacet
 facet normal -0.258820 0.800791 0.540135
  outer loop
   vertex 424.431641 -74.727776 140.855988
   vertex 424.431641 -74.448181 140.441467
   vertex 424.181641 -74.503716 140.404007
  endloop
 endfacet
 facet normal -0.258820 0.800791 0.540135
  outer loop
   vertex 424.181641 -74.503716 140.404007
   vertex 424.181641 -74.783310 140.818527
   vertex 424.431641 -74.727776 140.855988
  endloop
 endfacet
 facet normal 0.258820 0.800791 0.540135
  outer loop
   vertex 423.931641 -74.448181 140.441467
   vertex 424.181641 -74.783310 140.818527
   vertex 424.181641 -74.503716 140.404007
  endloop
 endfacet
 facet normal 0.258820 0.800791 0.540135
  outer loop
   vertex 423.931641 -74.727776 140.855988
   vertex 424.181641 -74.783310 140.818527
   vertex 423.931641 -74.448181 140.441467
  endloop
 endfacet
 facet normal 0.707108 0.586219 0.395405
  outer loop
   vertex 423.931641 -74.448181 140.441467
   vertex 423.748627 -74.296455 140.543808
   vertex 423.931641 -74.727776 140.855988
  endloop
 endfacet
 facet normal 0.707108 0.586219 0.395405
  outer loop
   vertex 423.931641 -74.727776 140.855988
   vertex 423.748627 -74.296455 140.543808
   vertex 423.748627 -74.576050 140.958328
  endloop
 endfacet
 facet normal 0.965928 0.214566 0.144725
  outer loop
   vertex 423.748627 -74.576050 140.958328
   vertex 423.748627 -74.296455 140.543808
   vertex 423.681641 -74.089195 140.683609
  endloop
 endfacet
 facet normal 0.965928 0.214566 0.144725
  outer loop
   vertex 423.681641 -74.089195 140.683609
   vertex 423.681641 -74.368790 141.098129
   vertex 423.748627 -74.576050 140.958328
  endloop
 endfacet
 facet normal 0.965928 -0.214566 -0.144725
  outer loop
   vertex 423.748627 -74.161530 141.237930
   vertex 423.681641 -74.368790 141.098129
   vertex 423.681641 -74.089195 140.683609
  endloop
 endfacet
endsolid