solid stl file generated from DOUG
 facet normal -0.866015 -0.293896 0.404527
  outer loop
   vertex 473.762756 74.061272 245.696335
   vertex 473.762756 73.655815 245.401764
   vertex 473.888062 73.933716 245.871918
  endloop
 endfacet
 facet normal -0.866008 -0.293910 0.404534
  outer loop
   vertex 473.888062 73.933716 245.871918
   vertex 473.762756 73.655815 245.401764
   vertex 473.888062 73.528252 245.577332
  endloop
 endfacet
 facet normal 0.000000 -0.587784 0.809018
  outer loop
   vertex 473.888062 73.528252 245.577332
   vertex 474.138641 73.933716 245.871918
   vertex 473.888062 73.933716 245.871918
  endloop
 endfacet
 facet normal -0.000000 -0.587784 0.809018
  outer loop
   vertex 474.138641 73.528252 245.577332
   vertex 474.138641 73.933716 245.871918
   vertex 473.888062 73.528252 245.577332
  endloop
 endfacet
 facet normal 0.866003 -0.293915 0.404540
  outer loop
   vertex 474.263947 74.061272 245.696350
   vertex 474.138641 73.933716 245.871918
   vertex 474.138641 73.528252 245.577332
  endloop
 endfacet
 facet normal 0.866008 -0.293914 0.404531
  outer loop
   vertex 474.138641 73.528252 245.577332
   vertex 474.263947 73.655815 245.401764
   vertex 474.263947 74.061272 245.696350
  endloop
 endfacet
 facet normal 0.866015 0.293906 -0.404520
  outer loop
   vertex 474.263947 74.061272 245.696350
   vertex 474.263947 73.655815 245.401764
   vertex 474.138641 74.188828 245.520767
  endloop
 endfacet
 facet normal 0.866003 0.293908 -0.404545
  outer loop
   vertex 474.138641 74.188828 245.520767
   vertex 474.263947 73.655815 245.401764
   vertex 474.138641 73.783371 245.226196
  endloop
 endfacet
 facet normal 0.000000 0.587772 -0.809027
  outer loop
   vertex 474.138641 73.783371 245.226196
   vertex 473.888062 74.188828 245.520767
   vertex 474.138641 74.188828 245.520767
  endloop
 endfacet
 facet normal -0.000000 0.587772 -0.809027
  outer loop
   vertex 473.888062 73.783371 245.226196
   vertex 473.888062 74.188828 245.520767
   vertex 474.138641 73.783371 245.226196
  endloop
 endfacet
 facet normal -0.866003 0.293908 -0.404545
  outer loop
   vertex 473.762756 74.061272 245.696335
   vertex 473.888062 74.188828 245.520767
   vertex 473.888062 73.783371 245.226196
  endloop
 endfacet
 facet normal -0.866003 0.293908 -0.404545
  outer loop
   vertex 473.888062 73.783371 245.226196
   vertex 473.762756 73.655815 245.401764
   vertex 473.762756 74.061272 245.696335
  endloop
 endfacet
 facet normal 0.866008 -0.293914 0.404531
  outer loop
   vertex 455.077148 73.655815 245.401733
   vertex 455.077148 74.061272 245.696320
   vertex 454.951843 73.528252 245.577301
  endloop
 endfacet
 facet normal 0.866003 -0.293915 0.404540
  outer loop
   vertex 454.951843 73.528252 245.577301
   vertex 455.077148 74.061272 245.696320
   vertex 454.951843 73.933716 245.871887
  endloop
 endfacet
 facet normal 0.000000 -0.587784 0.809018
  outer loop
   vertex 454.951843 73.933716 245.871887
   vertex 454.701263 73.528252 245.577301
   vertex 454.951843 73.528252 245.577301
  endloop
 endfacet
 facet normal -0.000000 -0.587784 0.809018
  outer loop
   vertex 454.701263 73.933716 245.871887
   vertex 454.701263 73.528252 245.577301
   vertex 454.951843 73.933716 245.871887
  endloop
 endfacet
 facet normal -0.866008 -0.293910 0.404534
  outer loop
   vertex 454.575958 73.655815 245.401733
   vertex 454.701263 73.528252 245.577301
   vertex 454.701263 73.933716 245.871887
  endloop
 endfacet
 facet normal -0.866003 -0.293918 0.404537
  outer loop
   vertex 454.701263 73.933716 245.871887
   vertex 454.575958 74.061272 245.696320
   vertex 454.575958 73.655815 245.401733
  endloop
 endfacet
 facet normal -0.866003 0.293918 -0.404537
  outer loop
   vertex 454.575958 73.655815 245.401733
   vertex 454.575958 74.061272 245.696320
   vertex 454.701263 73.783371 245.226166
  endloop
 endfacet
 facet normal -0.866003 0.293918 -0.404537
  outer loop
   vertex 454.701263 73.783371 245.226166
   vertex 454.575958 74.061272 245.696320
   vertex 454.701263 74.188828 245.520752
  endloop
 endfacet
 facet normal 0.000000 0.587791 -0.809012
  outer loop
   vertex 454.701263 74.188828 245.520752
   vertex 454.951843 73.783371 245.226166
   vertex 454.701263 73.783371 245.226166
  endloop
 endfacet
 facet normal -0.000000 0.587791 -0.809012
  outer loop
   vertex 454.951843 74.188828 245.520752
   vertex 454.951843 73.783371 245.226166
   vertex 454.701263 74.188828 245.520752
  endloop
 endfacet
 facet normal 0.866003 0.293918 -0.404537
  outer loop
   vertex 455.077148 73.655815 245.401733
   vertex 454.951843 73.783371 245.226166
   vertex 454.951843 74.188828 245.520752
  endloop
 endfacet
 facet normal 0.866003 0.293918 -0.404537
  outer loop
   vertex 454.951843 74.188828 245.520752
   vertex 455.077148 74.061272 245.696320
   vertex 455.077148 73.655815 245.401733
  endloop
 endfacet
 facet normal 0.000000 0.809020 0.587781
  outer loop
   vertex 454.701263 73.933716 245.871887
   vertex 454.951843 73.933716 245.871887
   vertex 454.826538 74.061272 245.696320
  endloop
 endfacet
 facet normal -0.000000 0.809020 0.587781
  outer loop
   vertex 454.826538 74.061272 245.696320
   vertex 454.951843 73.933716 245.871887
   vertex 455.077148 74.061272 245.696320
  endloop
 endfacet
 facet normal 0.000000 0.809020 0.587781
  outer loop
   vertex 455.077148 74.061272 245.696320
   vertex 454.951843 74.188828 245.520752
   vertex 454.826538 74.061272 245.696320
  endloop
 endfacet
 facet normal -0.000000 0.809020 0.587781
  outer loop
   vertex 473.888062 74.188828 245.520767
   vertex 473.762756 74.061272 245.696335
   vertex 474.013336 74.061272 245.696335
  endloop
 endfacet
 facet normal -0.000000 0.809045 0.587747
  outer loop
   vertex 474.013336 74.061272 245.696335
   vertex 473.762756 74.061272 245.696335
   vertex 473.888062 73.933716 245.871918
  endloop
 endfacet
 facet normal 0.000000 0.809045 0.587747
  outer loop
   vertex 473.888062 73.933716 245.871918
   vertex 474.138641 73.933716 245.871918
   vertex 474.013336 74.061272 245.696335
  endloop
 endfacet
 facet normal -0.000036 0.809032 0.587764
  outer loop
   vertex 474.138641 73.933716 245.871918
   vertex 474.263947 74.061272 245.696350
   vertex 474.013336 74.061272 245.696335
  endloop
 endfacet
 facet normal -0.000036 0.809032 0.587764
  outer loop
   vertex 474.013336 74.061272 245.696335
   vertex 474.263947 74.061272 245.696350
   vertex 474.138641 74.188828 245.520767
  endloop
 endfacet
 facet normal -0.000000 0.809020 0.587781
  outer loop
   vertex 474.138641 74.188828 245.520767
   vertex 473.888062 74.188828 245.520767
   vertex 474.013336 74.061272 245.696335
  endloop
 endfacet
 facet normal -0.000000 0.809020 0.587781
  outer loop
   vertex 454.951843 74.188828 245.520752
   vertex 454.701263 74.188828 245.520752
   vertex 454.826538 74.061272 245.696320
  endloop
 endfacet
 facet normal -0.000000 0.809020 0.587781
  outer loop
   vertex 454.826538 74.061272 245.696320
   vertex 454.701263 74.188828 245.520752
   vertex 454.575958 74.061272 245.696320
  endloop
 endfacet
 facet normal 0.000000 0.809020 0.587781
  outer loop
   vertex 454.575958 74.061272 245.696320
   vertex 454.701263 73.933716 245.871887
   vertex 454.826538 74.061272 245.696320
  endloop
 endfacet
 facet normal 0.000000 0.809016 0.587786
  outer loop
   vertex 472.556763 72.782524 243.994614
   vertex 472.556763 72.047676 245.006042
   vertex 475.548157 72.782524 243.994614
  endloop
 endfacet
 facet normal -0.000000 0.809016 0.587786
  outer loop
   vertex 475.548157 72.782524 243.994614
   vertex 472.556763 72.047676 245.006042
   vertex 475.548157 72.047676 245.006042
  endloop
 endfacet
 facet normal 1.000000 0.000000 0.000000
  outer loop
   vertex 475.548157 72.047676 245.006042
   vertex 475.548157 71.659134 243.178421
   vertex 475.548157 72.782524 243.994614
  endloop
 endfacet
 facet normal 1.000000 -0.000000 -0.000000
  outer loop
   vertex 475.548157 70.924286 244.189850
   vertex 475.548157 71.659134 243.178421
   vertex 475.548157 72.047676 245.006042
  endloop
 endfacet
 facet normal 0.000000 -0.809016 -0.587786
  outer loop
   vertex 472.556763 70.924286 244.189850
   vertex 475.548157 71.659134 243.178421
   vertex 475.548157 70.924286 244.189850
  endloop
 endfacet
 facet normal -0.000000 -0.587786 0.809016
  outer loop
   vertex 475.548157 70.924286 244.189850
   vertex 472.556763 72.047676 245.006042
   vertex 472.556763 70.924286 244.189850
  endloop
 endfacet
 facet normal -1.000000 0.000000 0.000000
  outer loop
   vertex 472.556763 70.924286 244.189850
   vertex 472.556763 72.047676 245.006042
   vertex 472.556763 71.659134 243.178421
  endloop
 endfacet
 facet normal -1.000000 -0.000000 -0.000000
  outer loop
   vertex 472.556763 71.659134 243.178421
   vertex 472.556763 72.047676 245.006042
   vertex 472.556763 72.782524 243.994614
  endloop
 endfacet
 facet normal 0.000000 0.587786 -0.809016
  outer loop
   vertex 472.556763 72.782524 243.994614
   vertex 475.548157 71.659134 243.178421
   vertex 472.556763 71.659134 243.178421
  endloop
 endfacet
 facet normal -0.000000 0.587786 -0.809016
  outer loop
   vertex 475.548157 72.782524 243.994614
   vertex 475.548157 71.659134 243.178421
   vertex 472.556763 72.782524 243.994614
  endloop
 endfacet
 facet normal -1.000000 0.000000 0.000000
  outer loop
   vertex 453.291748 71.659134 243.178391
   vertex 453.291748 70.924286 244.189819
   vertex 453.291748 72.782524 243.994583
  endloop
 endfacet
 facet normal -1.000000 0.000000 -0.000000
  outer loop
   vertex 453.291748 72.782524 243.994583
   vertex 453.291748 70.924286 244.189819
   vertex 453.291748 72.047676 245.006012
  endloop
 endfacet
 facet normal 0.000000 0.809016 0.587786
  outer loop
   vertex 453.291748 72.047676 245.006012
   vertex 456.283142 72.782524 243.994583
   vertex 453.291748 72.782524 243.994583
  endloop
 endfacet
 facet normal -0.000000 0.809016 0.587786
  outer loop
   vertex 456.283142 72.047676 245.006012
   vertex 456.283142 72.782524 243.994583
   vertex 453.291748 72.047676 245.006012
  endloop
 endfacet
 facet normal 1.000000 0.000000 0.000000
  outer loop
   vertex 456.283142 70.924286 244.189835
   vertex 456.283142 72.782524 243.994583
   vertex 456.283142 72.047676 245.006012
  endloop
 endfacet
 facet normal -0.000004 -0.587779 0.809022
  outer loop
   vertex 456.283142 72.047676 245.006012
   vertex 453.291748 70.924286 244.189819
   vertex 456.283142 70.924286 244.189835
  endloop
 endfacet
 facet normal 0.000003 -0.809020 -0.587780
  outer loop
   vertex 456.283142 70.924286 244.189835
   vertex 453.291748 70.924286 244.189819
   vertex 456.283142 71.659134 243.178391
  endloop
 endfacet
 facet normal -0.000000 -0.809016 -0.587786
  outer loop
   vertex 456.283142 71.659134 243.178391
   vertex 453.291748 70.924286 244.189819
   vertex 453.291748 71.659134 243.178391
  endloop
 endfacet
 facet normal 0.000000 0.587786 -0.809016
  outer loop
   vertex 453.291748 71.659134 243.178391
   vertex 456.283142 72.782524 243.994583
   vertex 456.283142 71.659134 243.178391
  endloop
 endfacet
 facet normal -0.000000 0.587786 -0.809016
  outer loop
   vertex 453.291748 72.782524 243.994583
   vertex 456.283142 72.782524 243.994583
   vertex 453.291748 71.659134 243.178391
  endloop
 endfacet
 facet normal 0.000000 -0.587786 0.809016
  outer loop
   vertex 456.283142 72.047676 245.006012
   vertex 453.291748 72.047676 245.006012
   vertex 453.291748 70.924286 244.189819
  endloop
 endfacet
 facet normal 0.000000 -0.587786 0.809016
  outer loop
   vertex 475.548157 72.047676 245.006042
   vertex 472.556763 72.047676 245.006042
   vertex 475.548157 70.924286 244.189850
  endloop
 endfacet
 facet normal 1.000000 0.000000 -0.000000
  outer loop
   vertex 456.283142 70.924286 244.189835
   vertex 456.283142 71.659134 243.178391
   vertex 456.283142 72.782524 243.994583
  endloop
 endfacet
 facet normal 0.000000 -0.809016 -0.587786
  outer loop
   vertex 472.556763 70.924286 244.189850
   vertex 472.556763 71.659134 243.178421
   vertex 475.548157 71.659134 243.178421
  endloop
 endfacet
 facet normal -0.000001 0.809028 0.587770
  outer loop
   vertex 472.860168 75.117363 245.493332
   vertex 455.979736 75.052933 245.581985
   vertex 472.860168 75.052933 245.582016
  endloop
 endfacet
 facet normal -0.000002 0.007457 0.999972
  outer loop
   vertex 472.860168 75.052933 245.582016
   vertex 455.979736 75.052933 245.581985
   vertex 472.860168 74.907661 245.583099
  endloop
 endfacet
 facet normal -0.000000 0.028500 0.999594
  outer loop
   vertex 456.813263 74.252731 246.784027
   vertex 455.654541 74.147835 246.787018
   vertex 456.813263 74.147835 246.787018
  endloop
 endfacet
 facet normal -0.000000 -0.587791 0.809013
  outer loop
   vertex 456.813263 74.147835 246.787018
   vertex 455.654541 74.147835 246.787018
   vertex 455.654541 73.466942 246.292313
  endloop
 endfacet
 facet normal 0.000000 0.587779 -0.809021
  outer loop
   vertex 473.185364 74.444443 244.946930
   vertex 472.026642 75.125336 245.441620
   vertex 473.185364 75.125336 245.441620
  endloop
 endfacet
 facet normal -0.000000 0.959479 -0.281781
  outer loop
   vertex 473.185364 75.125336 245.441620
   vertex 472.026642 75.125336 245.441620
   vertex 472.026642 75.154907 245.542313
  endloop
 endfacet
 facet normal 0.000001 0.953329 -0.301933
  outer loop
   vertex 455.979736 74.215118 246.536285
   vertex 455.979736 74.258980 246.674774
   vertex 472.860168 74.258980 246.674805
  endloop
 endfacet
 facet normal -0.000001 0.808980 0.587836
  outer loop
   vertex 472.860168 74.258980 246.674805
   vertex 455.979736 74.258980 246.674774
   vertex 472.860168 74.194550 246.763474
  endloop
 endfacet
 facet normal -0.000000 0.966066 0.258297
  outer loop
   vertex 455.979736 74.475746 245.068588
   vertex 472.860168 74.475746 245.068604
   vertex 455.979736 74.485023 245.033890
  endloop
 endfacet
 facet normal -0.000000 0.966037 0.258403
  outer loop
   vertex 455.979736 74.485023 245.033890
   vertex 472.860168 74.475746 245.068604
   vertex 472.860168 74.485023 245.033920
  endloop
 endfacet
 facet normal 0.000001 0.587760 -0.809035
  outer loop
   vertex 472.860168 74.485023 245.033920
   vertex 455.979736 74.427895 244.992386
   vertex 455.979736 74.485023 245.033890
  endloop
 endfacet
 facet normal -1.000000 0.000000 0.000000
  outer loop
   vertex 455.654541 75.125336 245.441605
   vertex 455.654541 74.972984 245.624786
   vertex 455.654541 75.154907 245.542297
  endloop
 endfacet
 facet normal -1.000000 0.000000 -0.000000
  outer loop
   vertex 455.654541 75.154907 245.542297
   vertex 455.654541 74.972984 245.624786
   vertex 455.654541 75.061470 245.670898
  endloop
 endfacet
 facet normal 0.000000 0.809008 0.587798
  outer loop
   vertex 455.654541 75.061470 245.670898
   vertex 456.813263 75.154907 245.542297
   vertex 455.654541 75.154907 245.542297
  endloop
 endfacet
 facet normal 1.000000 0.000000 0.000000
  outer loop
   vertex 473.185333 74.147835 246.787033
   vertex 473.185333 74.274971 246.585541
   vertex 473.185333 74.252731 246.784058
  endloop
 endfacet
 facet normal 1.000000 -0.000000 -0.000000
  outer loop
   vertex 473.185333 74.252731 246.784058
   vertex 473.185333 74.274971 246.585541
   vertex 473.185333 74.346169 246.655441
  endloop
 endfacet
 facet normal -0.000008 0.809041 0.587752
  outer loop
   vertex 473.185333 74.346169 246.655441
   vertex 472.026642 74.252731 246.784042
   vertex 473.185333 74.252731 246.784058
  endloop
 endfacet
 facet normal 1.000000 0.000000 0.000000
  outer loop
   vertex 456.813263 74.346169 246.655426
   vertex 456.813263 74.252731 246.784027
   vertex 456.813263 74.274971 246.585510
  endloop
 endfacet
 facet normal 1.000000 0.000000 0.000000
  outer loop
   vertex 456.813263 74.274971 246.585510
   vertex 456.813263 74.252731 246.784027
   vertex 456.813263 74.147835 246.787018
  endloop
 endfacet
 facet normal 1.000000 0.000000 0.000000
  outer loop
   vertex 456.813263 74.147835 246.787018
   vertex 456.813263 73.466942 246.292313
   vertex 456.813263 74.274971 246.585510
  endloop
 endfacet
 facet normal -0.000000 -0.587791 0.809013
  outer loop
   vertex 455.654541 73.466942 246.292313
   vertex 456.813263 73.466942 246.292313
   vertex 456.813263 74.147835 246.787018
  endloop
 endfacet
 facet normal 0.000000 0.953339 -0.301903
  outer loop
   vertex 472.860168 74.258980 246.674805
   vertex 472.860168 74.215118 246.536301
   vertex 455.979736 74.215118 246.536285
  endloop
 endfacet
 facet normal -0.000001 0.809016 0.587786
  outer loop
   vertex 455.979736 74.215118 246.536285
   vertex 472.860168 74.215118 246.536301
   vertex 472.860168 74.907661 245.583099
  endloop
 endfacet
 facet normal -0.000001 0.809021 0.587780
  outer loop
   vertex 472.860168 74.907661 245.583099
   vertex 455.979736 74.907661 245.583069
   vertex 455.979736 74.215118 246.536285
  endloop
 endfacet
 facet normal -0.000002 0.007457 0.999972
  outer loop
   vertex 455.979736 75.052933 245.581985
   vertex 455.979736 74.907661 245.583069
   vertex 472.860168 74.907661 245.583099
  endloop
 endfacet
 facet normal 0.000000 0.587779 -0.809021
  outer loop
   vertex 473.185364 74.444443 244.946930
   vertex 472.026642 74.444443 244.946930
   vertex 472.026642 75.125336 245.441620
  endloop
 endfacet
 facet normal -1.000000 -0.000000 -0.000000
  outer loop
   vertex 472.026642 75.125336 245.441620
   vertex 472.026642 74.444443 244.946930
   vertex 472.026642 74.972984 245.624802
  endloop
 endfacet
 facet normal -1.000000 -0.000000 0.000000
  outer loop
   vertex 472.026642 74.972984 245.624802
   vertex 472.026642 75.154907 245.542313
   vertex 472.026642 75.125336 245.441620
  endloop
 endfacet
 facet normal -1.000000 -0.000000 -0.000000
  outer loop
   vertex 472.026642 75.061470 245.670914
   vertex 472.026642 75.154907 245.542313
   vertex 472.026642 74.972984 245.624802
  endloop
 endfacet
 facet normal 0.000001 -0.544264 -0.838914
  outer loop
   vertex 472.860168 74.972099 245.429230
   vertex 455.979736 74.972099 245.429214
   vertex 472.860168 75.002228 245.409683
  endloop
 endfacet
 facet normal 0.000001 -0.544264 -0.838914
  outer loop
   vertex 472.860168 75.002228 245.409683
   vertex 455.979736 74.972099 245.429214
   vertex 455.979736 75.002228 245.409668
  endloop
 endfacet
 facet normal 0.000001 0.587776 -0.809023
  outer loop
   vertex 455.979736 75.002228 245.409668
   vertex 472.860168 75.117363 245.493332
   vertex 472.860168 75.002228 245.409683
  endloop
 endfacet
 facet normal 0.000001 0.587776 -0.809023
  outer loop
   vertex 455.979736 75.117363 245.493317
   vertex 472.860168 75.117363 245.493332
   vertex 455.979736 75.002228 245.409668
  endloop
 endfacet
 facet normal -0.000001 0.808980 0.587836
  outer loop
   vertex 455.979736 75.052933 245.581985
   vertex 472.860168 75.117363 245.493332
   vertex 455.979736 75.117363 245.493317
  endloop
 endfacet
 facet normal -0.000000 0.809014 0.587789
  outer loop
   vertex 474.587250 73.999985 244.962753
   vertex 472.939087 73.344643 245.864746
   vertex 474.587250 73.344643 245.864746
  endloop
 endfacet
 facet normal -0.000000 -0.587786 0.809016
  outer loop
   vertex 474.587250 73.344643 245.864746
   vertex 472.939087 73.344643 245.864746
   vertex 474.587250 72.097908 244.958939
  endloop
 endfacet
 facet normal 1.000000 0.000000 -0.000000
  outer loop
   vertex 474.587250 72.097908 244.958939
   vertex 474.587250 72.753250 244.056946
   vertex 474.587250 73.344643 245.864746
  endloop
 endfacet
 facet normal -0.000000 -0.809014 -0.587789
  outer loop
   vertex 472.939087 72.097908 244.958939
   vertex 474.587250 72.753250 244.056946
   vertex 474.587250 72.097908 244.958939
  endloop
 endfacet
 facet normal 0.000005 -0.809019 -0.587782
  outer loop
   vertex 472.939087 72.753250 244.056931
   vertex 474.587250 72.753250 244.056946
   vertex 472.939087 72.097908 244.958939
  endloop
 endfacet
 facet normal -1.000000 -0.000000 -0.000000
  outer loop
   vertex 472.939087 72.097908 244.958939
   vertex 472.939087 73.344643 245.864746
   vertex 472.939087 72.753250 244.056931
  endloop
 endfacet
 facet normal -1.000000 0.000000 -0.000000
  outer loop
   vertex 472.939087 72.753250 244.056931
   vertex 472.939087 73.344643 245.864746
   vertex 472.939087 73.999985 244.962738
  endloop
 endfacet
 facet normal -0.000005 0.809019 0.587782
  outer loop
   vertex 472.939087 73.999985 244.962738
   vertex 472.939087 73.344643 245.864746
   vertex 474.587250 73.999985 244.962753
  endloop
 endfacet
 facet normal 0.000007 0.587786 -0.809016
  outer loop
   vertex 474.587250 73.999985 244.962753
   vertex 474.587250 72.753250 244.056946
   vertex 472.939087 73.999985 244.962738
  endloop
 endfacet
 facet normal 1.000000 -0.000000 -0.000000
  outer loop
   vertex 474.587250 73.344643 245.864746
   vertex 474.587250 72.753250 244.056946
   vertex 474.587250 73.999985 244.962753
  endloop
 endfacet
 facet normal 0.000000 0.587786 -0.809016
  outer loop
   vertex 454.252655 73.999985 244.962723
   vertex 455.900818 73.999985 244.962723
   vertex 454.252655 72.753250 244.056915
  endloop
 endfacet
 facet normal -0.000000 0.587786 -0.809016
  outer loop
   vertex 454.252655 72.753250 244.056915
   vertex 455.900818 73.999985 244.962723
   vertex 455.900818 72.753250 244.056915
  endloop
 endfacet
 facet normal 0.000000 -0.809014 -0.587789
  outer loop
   vertex 455.900818 72.753250 244.056915
   vertex 454.252655 72.097908 244.958908
   vertex 454.252655 72.753250 244.056915
  endloop
 endfacet
 facet normal 0.000005 -0.809019 -0.587782
  outer loop
   vertex 455.900818 72.097908 244.958923
   vertex 454.252655 72.097908 244.958908
   vertex 455.900818 72.753250 244.056915
  endloop
 endfacet
 facet normal -0.000007 -0.587786 0.809016
  outer loop
   vertex 455.900818 73.344643 245.864731
   vertex 454.252655 72.097908 244.958908
   vertex 455.900818 72.097908 244.958923
  endloop
 endfacet
 facet normal 1.000000 0.000000 -0.000000
  outer loop
   vertex 455.900818 72.097908 244.958923
   vertex 455.900818 73.999985 244.962723
   vertex 455.900818 73.344643 245.864731
  endloop
 endfacet
 facet normal -0.000005 0.809019 0.587782
  outer loop
   vertex 455.900818 73.344643 245.864731
   vertex 455.900818 73.999985 244.962723
   vertex 454.252655 73.344643 245.864716
  endloop
 endfacet
 facet normal 0.000000 0.809014 0.587789
  outer loop
   vertex 454.252655 73.344643 245.864716
   vertex 455.900818 73.999985 244.962723
   vertex 454.252655 73.999985 244.962723
  endloop
 endfacet
 facet normal -1.000000 0.000000 0.000000
  outer loop
   vertex 454.252655 73.999985 244.962723
   vertex 454.252655 72.097908 244.958908
   vertex 454.252655 73.344643 245.864716
  endloop
 endfacet
 facet normal -1.000000 0.000000 -0.000000
  outer loop
   vertex 454.252655 72.753250 244.056915
   vertex 454.252655 72.097908 244.958908
   vertex 454.252655 73.999985 244.962723
  endloop
 endfacet
 facet normal 0.000000 -0.809019 -0.587782
  outer loop
   vertex 476.026764 73.027824 245.254517
   vertex 475.676758 73.027824 245.254517
   vertex 475.676758 73.321716 244.850006
  endloop
 endfacet
 facet normal 0.000018 0.809019 0.587782
  outer loop
   vertex 475.676758 73.321716 244.850006
   vertex 475.676758 73.027824 245.254517
   vertex 475.851776 73.174767 245.052261
  endloop
 endfacet
 facet normal 0.000000 0.809012 0.587792
  outer loop
   vertex 475.851776 73.174767 245.052261
   vertex 476.026764 73.321716 244.850006
   vertex 475.676758 73.321716 244.850006
  endloop
 endfacet
 facet normal -0.000018 0.809019 0.587782
  outer loop
   vertex 476.026764 73.027824 245.254517
   vertex 476.026764 73.321716 244.850006
   vertex 475.851776 73.174767 245.052261
  endloop
 endfacet
 facet normal 1.000000 0.000000 0.000000
  outer loop
   vertex 476.026764 72.512703 244.262222
   vertex 476.026764 73.321716 244.850006
   vertex 476.026764 73.027824 245.254517
  endloop
 endfacet
 facet normal 1.000000 -0.000000 -0.000000
  outer loop
   vertex 476.026764 73.027824 245.254517
   vertex 476.026764 72.218803 244.666733
   vertex 476.026764 72.512703 244.262222
  endloop
 endfacet
 facet normal 0.000000 -0.809012 -0.587792
  outer loop
   vertex 476.026764 72.512703 244.262222
   vertex 476.026764 72.218803 244.666733
   vertex 474.326782 72.512703 244.262222
  endloop
 endfacet
 facet normal -0.000000 -0.809012 -0.587792
  outer loop
   vertex 474.326782 72.512703 244.262222
   vertex 476.026764 72.218803 244.666733
   vertex 474.326752 72.218803 244.666733
  endloop
 endfacet
 facet normal -1.000000 0.000036 -0.000049
  outer loop
   vertex 474.326752 72.218803 244.666733
   vertex 474.326752 73.027824 245.254517
   vertex 474.326782 72.512703 244.262222
  endloop
 endfacet
 facet normal -0.000007 -0.587782 0.809019
  outer loop
   vertex 474.743744 72.825569 245.107574
   vertex 474.326752 73.027824 245.254517
   vertex 474.326752 72.218803 244.666733
  endloop
 endfacet
 facet normal 0.000000 -0.587772 0.809026
  outer loop
   vertex 474.676758 73.027824 245.254517
   vertex 474.326752 73.027824 245.254517
   vertex 474.743744 72.825569 245.107574
  endloop
 endfacet
 facet normal -0.000010 0.587786 -0.809016
  outer loop
   vertex 454.096161 73.119461 244.703033
   vertex 454.513123 73.321716 244.849976
   vertex 454.513153 72.512703 244.262192
  endloop
 endfacet
 facet normal 1.000000 -0.000011 0.000067
  outer loop
   vertex 454.513153 72.512703 244.262192
   vertex 454.513123 73.321716 244.849976
   vertex 454.513123 72.218803 244.666702
  endloop
 endfacet
 facet normal 0.000000 -0.809012 -0.587792
  outer loop
   vertex 454.513123 72.218803 244.666702
   vertex 452.813141 72.512703 244.262192
   vertex 454.513153 72.512703 244.262192
  endloop
 endfacet
 facet normal -0.000000 -0.809012 -0.587792
  outer loop
   vertex 452.813141 72.218803 244.666702
   vertex 452.813141 72.512703 244.262192
   vertex 454.513123 72.218803 244.666702
  endloop
 endfacet
 facet normal -1.000000 0.000000 0.000000
  outer loop
   vertex 452.813141 73.321716 244.849976
   vertex 452.813141 72.512703 244.262192
   vertex 452.813141 72.218803 244.666702
  endloop
 endfacet
 facet normal -1.000000 -0.000000 -0.000000
  outer loop
   vertex 452.813141 72.218803 244.666702
   vertex 452.813141 73.027824 245.254486
   vertex 452.813141 73.321716 244.849976
  endloop
 endfacet
 facet normal 0.000018 0.809019 0.587782
  outer loop
   vertex 452.813141 73.321716 244.849976
   vertex 452.813141 73.027824 245.254486
   vertex 452.988129 73.174767 245.052231
  endloop
 endfacet
 facet normal -0.000000 0.809026 0.587772
  outer loop
   vertex 452.988129 73.174767 245.052231
   vertex 452.813141 73.027824 245.254486
   vertex 453.163147 73.027824 245.254486
  endloop
 endfacet
 facet normal -0.000018 0.809019 0.587782
  outer loop
   vertex 453.163147 73.027824 245.254486
   vertex 453.163147 73.321716 244.849976
   vertex 452.988129 73.174767 245.052231
  endloop
 endfacet
 facet normal -0.000000 -0.809019 -0.587782
  outer loop
   vertex 452.813141 73.321716 244.849976
   vertex 453.163147 73.321716 244.849976
   vertex 453.163147 73.027824 245.254486
  endloop
 endfacet
 facet normal 0.000000 0.809012 0.587792
  outer loop
   vertex 452.988129 73.174767 245.052231
   vertex 453.163147 73.321716 244.849976
   vertex 452.813141 73.321716 244.849976
  endloop
 endfacet
 facet normal -0.000001 0.809028 0.587770
  outer loop
   vertex 455.979736 74.258980 246.674774
   vertex 455.979736 74.194550 246.763458
   vertex 472.860168 74.194550 246.763474
  endloop
 endfacet
 facet normal -0.000001 -0.587776 0.809023
  outer loop
   vertex 472.860168 74.194550 246.763474
   vertex 455.979736 74.194550 246.763458
   vertex 455.979736 74.079414 246.679810
  endloop
 endfacet
 facet normal -0.000001 -0.587776 0.809023
  outer loop
   vertex 455.979736 74.079414 246.679810
   vertex 472.860168 74.079414 246.679825
   vertex 472.860168 74.194550 246.763474
  endloop
 endfacet
 facet normal 0.000000 -0.966066 -0.258297
  outer loop
   vertex 455.979736 74.088692 246.645111
   vertex 472.860168 74.079414 246.679825
   vertex 455.979736 74.079414 246.679810
  endloop
 endfacet
 facet normal 0.000000 -0.966037 -0.258403
  outer loop
   vertex 472.860168 74.088692 246.645142
   vertex 472.860168 74.079414 246.679825
   vertex 455.979736 74.088692 246.645111
  endloop
 endfacet
 facet normal -0.000001 -0.587790 0.809013
  outer loop
   vertex 455.979736 74.088692 246.645111
   vertex 455.979736 73.592339 246.284485
   vertex 472.860168 74.088692 246.645142
  endloop
 endfacet
 facet normal -0.000001 -0.587790 0.809013
  outer loop
   vertex 472.860168 74.088692 246.645142
   vertex 455.979736 73.592339 246.284485
   vertex 472.860168 73.592339 246.284515
  endloop
 endfacet
 facet normal -0.000002 0.544264 0.838914
  outer loop
   vertex 472.860168 73.592339 246.284515
   vertex 455.979736 73.592339 246.284485
   vertex 455.979736 73.562210 246.304031
  endloop
 endfacet
 facet normal -0.000002 0.544264 0.838914
  outer loop
   vertex 455.979736 73.562210 246.304031
   vertex 472.860168 73.562210 246.304062
   vertex 472.860168 73.592339 246.284515
  endloop
 endfacet
 facet normal -0.000001 -0.587760 0.809035
  outer loop
   vertex 455.979736 73.505081 246.262527
   vertex 472.860168 73.562210 246.304062
   vertex 455.979736 73.562210 246.304031
  endloop
 endfacet
 facet normal -0.000001 -0.587902 0.808932
  outer loop
   vertex 472.860168 73.505081 246.262543
   vertex 472.860168 73.562210 246.304062
   vertex 455.979736 73.505081 246.262527
  endloop
 endfacet
 facet normal 0.000001 -0.809017 -0.587786
  outer loop
   vertex 455.979736 73.505081 246.262527
   vertex 455.979736 74.427895 244.992386
   vertex 472.860168 73.505081 246.262543
  endloop
 endfacet
 facet normal 0.000001 -0.809017 -0.587786
  outer loop
   vertex 472.860168 73.505081 246.262543
   vertex 455.979736 74.427895 244.992386
   vertex 472.860168 74.427895 244.992401
  endloop
 endfacet
 facet normal 0.000001 0.587902 -0.808932
  outer loop
   vertex 472.860168 74.427895 244.992401
   vertex 455.979736 74.427895 244.992386
   vertex 472.860168 74.485023 245.033920
  endloop
 endfacet
 facet normal 0.000010 0.587786 -0.809016
  outer loop
   vertex 474.743744 73.119461 244.703064
   vertex 474.326782 72.512703 244.262222
   vertex 474.326752 73.321716 244.850006
  endloop
 endfacet
 facet normal -1.000000 -0.000025 -0.000018
  outer loop
   vertex 474.326752 73.321716 244.850006
   vertex 474.326782 72.512703 244.262222
   vertex 474.326752 73.027824 245.254517
  endloop
 endfacet
 facet normal 0.000000 0.809019 0.587782
  outer loop
   vertex 474.326752 73.027824 245.254517
   vertex 474.676758 73.321716 244.850006
   vertex 474.326752 73.321716 244.850006
  endloop
 endfacet
 facet normal -0.000000 0.809019 0.587782
  outer loop
   vertex 474.676758 73.027824 245.254517
   vertex 474.676758 73.321716 244.850006
   vertex 474.326752 73.027824 245.254517
  endloop
 endfacet
 facet normal 0.000000 -0.809019 -0.587782
  outer loop
   vertex 474.326752 73.027824 245.254517
   vertex 474.676758 73.321716 244.850006
   vertex 474.676758 73.027824 245.254517
  endloop
 endfacet
 facet normal -0.000000 -0.587772 0.809026
  outer loop
   vertex 474.676758 73.027824 245.254517
   vertex 474.743744 73.230080 245.401459
   vertex 474.326752 73.027824 245.254517
  endloop
 endfacet
 facet normal 0.000000 -0.587772 0.809026
  outer loop
   vertex 474.326752 73.027824 245.254517
   vertex 474.743744 73.230080 245.401459
   vertex 474.440643 73.371658 245.504318
  endloop
 endfacet
 facet normal -0.000015 -0.587793 0.809011
  outer loop
   vertex 474.440643 73.371658 245.504318
   vertex 474.743744 73.230080 245.401459
   vertex 474.926758 73.378136 245.509033
  endloop
 endfacet
 facet normal -0.000015 -0.587783 0.809018
  outer loop
   vertex 474.926758 73.378136 245.509033
   vertex 474.751770 73.623360 245.687195
   vertex 474.440643 73.371658 245.504318
  endloop
 endfacet
 facet normal -0.000016 -0.587784 0.809018
  outer loop
   vertex 475.176758 73.432335 245.548416
   vertex 474.751770 73.623360 245.687195
   vertex 474.926758 73.378136 245.509033
  endloop
 endfacet
 facet normal -0.000015 -0.587783 0.809019
  outer loop
   vertex 475.176758 73.715485 245.754135
   vertex 474.751770 73.623360 245.687195
   vertex 475.176758 73.432335 245.548416
  endloop
 endfacet
 facet normal 0.000017 -0.587783 0.809019
  outer loop
   vertex 475.176758 73.432335 245.548416
   vertex 475.426758 73.378136 245.509033
   vertex 475.176758 73.715485 245.754135
  endloop
 endfacet
 facet normal 0.000015 -0.587784 0.809018
  outer loop
   vertex 475.176758 73.715485 245.754135
   vertex 475.426758 73.378136 245.509033
   vertex 475.601776 73.623360 245.687195
  endloop
 endfacet
 facet normal 0.000022 -0.587787 0.809016
  outer loop
   vertex 475.601776 73.623360 245.687195
   vertex 475.426758 73.378136 245.509033
   vertex 475.609772 73.230080 245.401459
  endloop
 endfacet
 facet normal -0.000030 -0.587788 0.809015
  outer loop
   vertex 475.609772 73.230080 245.401459
   vertex 475.912903 73.371658 245.504333
   vertex 475.601776 73.623360 245.687195
  endloop
 endfacet
 facet normal -0.000035 -0.587780 0.809021
  outer loop
   vertex 475.676758 73.027824 245.254517
   vertex 475.912903 73.371658 245.504333
   vertex 475.609772 73.230080 245.401459
  endloop
 endfacet
 facet normal 0.000000 -0.587796 0.809009
  outer loop
   vertex 476.026764 73.027824 245.254517
   vertex 475.912903 73.371658 245.504333
   vertex 475.676758 73.027824 245.254517
  endloop
 endfacet
 facet normal -0.000000 -0.587772 0.809026
  outer loop
   vertex 475.676758 73.027824 245.254517
   vertex 475.609772 72.825569 245.107574
   vertex 476.026764 73.027824 245.254517
  endloop
 endfacet
 facet normal 0.000007 -0.587782 0.809019
  outer loop
   vertex 476.026764 73.027824 245.254517
   vertex 475.609772 72.825569 245.107574
   vertex 476.026764 72.218803 244.666733
  endloop
 endfacet
 facet normal 0.000001 -0.587785 0.809017
  outer loop
   vertex 476.026764 72.218803 244.666733
   vertex 475.609772 72.825569 245.107574
   vertex 475.426758 72.677505 245.000000
  endloop
 endfacet
 facet normal -0.000026 -0.587808 0.809000
  outer loop
   vertex 475.426758 72.677505 245.000000
   vertex 475.176758 72.623314 244.960617
   vertex 476.026764 72.218803 244.666733
  endloop
 endfacet
 facet normal 0.000007 -0.587782 0.809019
  outer loop
   vertex 454.096161 72.825569 245.107544
   vertex 454.513123 72.218803 244.666702
   vertex 454.513123 73.027824 245.254486
  endloop
 endfacet
 facet normal 1.000000 -0.000000 -0.000000
  outer loop
   vertex 454.513123 73.027824 245.254486
   vertex 454.513123 72.218803 244.666702
   vertex 454.513123 73.321716 244.849976
  endloop
 endfacet
 facet normal -0.000000 0.809019 0.587782
  outer loop
   vertex 454.513123 73.321716 244.849976
   vertex 454.163147 73.027824 245.254486
   vertex 454.513123 73.027824 245.254486
  endloop
 endfacet
 facet normal -0.000000 0.809019 0.587782
  outer loop
   vertex 454.163147 73.321716 244.849976
   vertex 454.163147 73.027824 245.254486
   vertex 454.513123 73.321716 244.849976
  endloop
 endfacet
 facet normal 0.000000 -0.809019 -0.587782
  outer loop
   vertex 454.513123 73.321716 244.849976
   vertex 454.163147 73.027824 245.254486
   vertex 454.163147 73.321716 244.849976
  endloop
 endfacet
 facet normal -0.000000 0.587812 -0.808997
  outer loop
   vertex 454.163147 73.321716 244.849976
   vertex 454.096161 73.523972 244.996933
   vertex 454.513123 73.321716 244.849976
  endloop
 endfacet
 facet normal -0.000015 0.587793 -0.809012
  outer loop
   vertex 454.513123 73.321716 244.849976
   vertex 454.096161 73.523972 244.996933
   vertex 454.399261 73.665550 245.099792
  endloop
 endfacet
 facet normal 0.000010 0.587758 -0.809037
  outer loop
   vertex 454.399261 73.665550 245.099792
   vertex 454.096161 73.523972 244.996933
   vertex 453.913147 73.672028 245.104492
  endloop
 endfacet
 facet normal 0.000011 0.587804 -0.809003
  outer loop
   vertex 453.913147 73.672028 245.104492
   vertex 454.088135 73.917252 245.282669
   vertex 454.399261 73.665550 245.099792
  endloop
 endfacet
 facet normal -0.000007 0.587813 -0.808997
  outer loop
   vertex 453.663147 73.726227 245.143875
   vertex 454.088135 73.917252 245.282669
   vertex 453.913147 73.672028 245.104492
  endloop
 endfacet
 facet normal 0.000021 0.587772 -0.809026
  outer loop
   vertex 453.663147 74.009384 245.349594
   vertex 454.088135 73.917252 245.282669
   vertex 453.663147 73.726227 245.143875
  endloop
 endfacet
 facet normal 0.000020 0.587772 -0.809026
  outer loop
   vertex 453.663147 73.726227 245.143875
   vertex 453.413147 73.672028 245.104492
   vertex 453.663147 74.009384 245.349594
  endloop
 endfacet
 facet normal 0.000006 0.587779 -0.809021
  outer loop
   vertex 453.663147 74.009384 245.349594
   vertex 453.413147 73.672028 245.104492
   vertex 453.238129 73.917252 245.282654
  endloop
 endfacet
 facet normal -0.000021 0.587767 -0.809030
  outer loop
   vertex 453.238129 73.917252 245.282654
   vertex 453.413147 73.672028 245.104492
   vertex 453.230133 73.523972 244.996933
  endloop
 endfacet
 facet normal -0.000004 0.587767 -0.809030
  outer loop
   vertex 453.230133 73.523972 244.996933
   vertex 452.927002 73.665550 245.099792
   vertex 453.238129 73.917252 245.282654
  endloop
 endfacet
 facet normal 0.000025 0.587807 -0.809001
  outer loop
   vertex 453.163147 73.321716 244.849976
   vertex 452.927002 73.665550 245.099792
   vertex 453.230133 73.523972 244.996933
  endloop
 endfacet
 facet normal 0.000000 0.587796 -0.809009
  outer loop
   vertex 452.813141 73.321716 244.849976
   vertex 452.927002 73.665550 245.099792
   vertex 453.163147 73.321716 244.849976
  endloop
 endfacet
 facet normal -0.000000 0.587772 -0.809026
  outer loop
   vertex 453.163147 73.321716 244.849976
   vertex 453.230133 73.119461 244.703033
   vertex 452.813141 73.321716 244.849976
  endloop
 endfacet
 facet normal 0.000010 0.587786 -0.809016
  outer loop
   vertex 452.813141 73.321716 244.849976
   vertex 453.230133 73.119461 244.703033
   vertex 452.813141 72.512703 244.262192
  endloop
 endfacet
 facet normal -0.000011 0.587796 -0.809009
  outer loop
   vertex 452.813141 72.512703 244.262192
   vertex 453.230133 73.119461 244.703033
   vertex 453.413147 72.971405 244.595459
  endloop
 endfacet
 facet normal 0.000026 0.587763 -0.809033
  outer loop
   vertex 453.413147 72.971405 244.595459
   vertex 453.663147 72.917206 244.556091
   vertex 452.813141 72.512703 244.262192
  endloop
 endfacet
 facet normal 0.000000 -0.891723 0.452581
  outer loop
   vertex 455.654541 73.466942 246.292313
   vertex 455.654541 73.217209 245.800262
   vertex 456.813263 73.466942 246.292313
  endloop
 endfacet
 facet normal -0.000000 -0.891723 0.452581
  outer loop
   vertex 456.813263 73.466942 246.292313
   vertex 455.654541 73.217209 245.800262
   vertex 456.813263 73.217209 245.800262
  endloop
 endfacet
 facet normal 1.000000 0.000000 0.000000
  outer loop
   vertex 456.813263 73.217209 245.800262
   vertex 456.813263 73.899292 244.861450
   vertex 456.813263 73.466942 246.292313
  endloop
 endfacet
 facet normal -0.000000 -0.809019 -0.587783
  outer loop
   vertex 455.654541 73.217209 245.800262
   vertex 456.813263 73.899292 244.861450
   vertex 456.813263 73.217209 245.800262
  endloop
 endfacet
 facet normal -0.000000 -0.809019 -0.587783
  outer loop
   vertex 455.654541 73.899292 244.861450
   vertex 456.813263 73.899292 244.861450
   vertex 455.654541 73.217209 245.800262
  endloop
 endfacet
 facet normal -1.000000 -0.000000 -0.000000
  outer loop
   vertex 455.654541 73.217209 245.800262
   vertex 455.654541 74.444443 244.946899
   vertex 455.654541 73.899292 244.861450
  endloop
 endfacet
 facet normal 0.000000 0.154853 -0.987937
  outer loop
   vertex 455.654541 73.899292 244.861450
   vertex 455.654541 74.444443 244.946899
   vertex 456.813263 73.899292 244.861450
  endloop
 endfacet
 facet normal -0.000000 0.154853 -0.987937
  outer loop
   vertex 456.813263 73.899292 244.861450
   vertex 455.654541 74.444443 244.946899
   vertex 456.813263 74.444443 244.946899
  endloop
 endfacet
 facet normal 1.000000 0.000000 0.000000
  outer loop
   vertex 456.813263 74.444443 244.946899
   vertex 456.813263 73.466942 246.292313
   vertex 456.813263 73.899292 244.861450
  endloop
 endfacet
 facet normal 1.000000 -0.000000 -0.000000
  outer loop
   vertex 456.813263 74.972984 245.624786
   vertex 456.813263 73.466942 246.292313
   vertex 456.813263 74.444443 244.946899
  endloop
 endfacet
 facet normal 1.000000 -0.000000 0.000000
  outer loop
   vertex 456.813263 74.274971 246.585510
   vertex 456.813263 73.466942 246.292313
   vertex 456.813263 74.972984 245.624786
  endloop
 endfacet
 facet normal -0.000000 0.809014 0.587789
  outer loop
   vertex 456.813263 74.972984 245.624786
   vertex 455.654541 74.274971 246.585510
   vertex 456.813263 74.274971 246.585510
  endloop
 endfacet
 facet normal 0.000000 0.700655 -0.713500
  outer loop
   vertex 456.813263 74.274971 246.585510
   vertex 455.654541 74.274971 246.585510
   vertex 456.813263 74.346169 246.655426
  endloop
 endfacet
 facet normal -0.000000 0.700655 -0.713500
  outer loop
   vertex 456.813263 74.346169 246.655426
   vertex 455.654541 74.274971 246.585510
   vertex 455.654541 74.346169 246.655426
  endloop
 endfacet
 facet normal 0.000000 0.809008 0.587798
  outer loop
   vertex 455.654541 74.346169 246.655426
   vertex 456.813263 74.252731 246.784027
   vertex 456.813263 74.346169 246.655426
  endloop
 endfacet
 facet normal 0.000000 0.809008 0.587798
  outer loop
   vertex 455.654541 74.252731 246.784027
   vertex 456.813263 74.252731 246.784027
   vertex 455.654541 74.346169 246.655426
  endloop
 endfacet
 facet normal 0.000000 0.028500 0.999594
  outer loop
   vertex 455.654541 74.147835 246.787018
   vertex 456.813263 74.252731 246.784027
   vertex 455.654541 74.252731 246.784027
  endloop
 endfacet
 facet normal -1.000000 -0.000000 -0.000000
  outer loop
   vertex 455.654541 74.252731 246.784027
   vertex 455.654541 74.274971 246.585510
   vertex 455.654541 74.147835 246.787018
  endloop
 endfacet
 facet normal -1.000000 -0.000000 0.000000
  outer loop
   vertex 455.654541 74.147835 246.787018
   vertex 455.654541 74.274971 246.585510
   vertex 455.654541 73.466942 246.292313
  endloop
 endfacet
 facet normal -1.000000 -0.000000 -0.000000
  outer loop
   vertex 455.654541 73.466942 246.292313
   vertex 455.654541 74.274971 246.585510
   vertex 455.654541 74.972984 245.624786
  endloop
 endfacet
 facet normal -1.000000 0.000000 0.000000
  outer loop
   vertex 455.654541 74.972984 245.624786
   vertex 455.654541 74.444443 244.946899
   vertex 455.654541 73.466942 246.292313
  endloop
 endfacet
 facet normal -1.000000 -0.000000 -0.000000
  outer loop
   vertex 455.654541 75.125336 245.441605
   vertex 455.654541 74.444443 244.946899
   vertex 455.654541 74.972984 245.624786
  endloop
 endfacet
 facet normal 0.000000 0.587791 -0.809013
  outer loop
   vertex 456.813263 74.444443 244.946899
   vertex 455.654541 74.444443 244.946899
   vertex 455.654541 75.125336 245.441605
  endloop
 endfacet
 facet normal -0.000000 0.587791 -0.809013
  outer loop
   vertex 455.654541 75.125336 245.441605
   vertex 456.813263 75.125336 245.441605
   vertex 456.813263 74.444443 244.946899
  endloop
 endfacet
 facet normal 1.000000 0.000000 0.000000
  outer loop
   vertex 456.813263 74.444443 244.946899
   vertex 456.813263 75.125336 245.441605
   vertex 456.813263 74.972984 245.624786
  endloop
 endfacet
 facet normal 1.000000 -0.000000 -0.000000
  outer loop
   vertex 456.813263 74.972984 245.624786
   vertex 456.813263 75.125336 245.441605
   vertex 456.813263 75.154907 245.542297
  endloop
 endfacet
 facet normal 1.000000 0.000000 0.000000
  outer loop
   vertex 456.813263 75.154907 245.542297
   vertex 456.813263 75.061470 245.670898
   vertex 456.813263 74.972984 245.624786
  endloop
 endfacet
 facet normal 0.000000 0.809008 0.587798
  outer loop
   vertex 455.654541 75.061470 245.670898
   vertex 456.813263 75.061470 245.670898
   vertex 456.813263 75.154907 245.542297
  endloop
 endfacet
 facet normal 0.000000 -0.462137 0.886808
  outer loop
   vertex 456.813263 74.972984 245.624786
   vertex 456.813263 75.061470 245.670898
   vertex 455.654541 75.061470 245.670898
  endloop
 endfacet
 facet normal -0.000000 -0.462137 0.886808
  outer loop
   vertex 455.654541 75.061470 245.670898
   vertex 455.654541 74.972984 245.624786
   vertex 456.813263 74.972984 245.624786
  endloop
 endfacet
 facet normal -0.000000 0.809014 0.587789
  outer loop
   vertex 456.813263 74.972984 245.624786
   vertex 455.654541 74.972984 245.624786
   vertex 455.654541 74.274971 246.585510
  endloop
 endfacet
 facet normal 0.000000 0.154853 -0.987937
  outer loop
   vertex 473.185364 74.444443 244.946930
   vertex 473.185364 73.899292 244.861481
   vertex 472.026642 74.444443 244.946930
  endloop
 endfacet
 facet normal -0.000000 0.154853 -0.987937
  outer loop
   vertex 472.026642 74.444443 244.946930
   vertex 473.185364 73.899292 244.861481
   vertex 472.026642 73.899292 244.861481
  endloop
 endfacet
 facet normal -1.000000 0.000000 0.000000
  outer loop
   vertex 472.026642 73.899292 244.861481
   vertex 472.026642 73.217209 245.800278
   vertex 472.026642 74.444443 244.946930
  endloop
 endfacet
 facet normal -0.000000 -0.809014 -0.587789
  outer loop
   vertex 473.185364 73.899292 244.861481
   vertex 472.026642 73.217209 245.800278
   vertex 472.026642 73.899292 244.861481
  endloop
 endfacet
 facet normal 0.000000 -0.809014 -0.587789
  outer loop
   vertex 473.185364 73.217209 245.800278
   vertex 472.026642 73.217209 245.800278
   vertex 473.185364 73.899292 244.861481
  endloop
 endfacet
 facet normal 1.000000 0.000050 0.000037
  outer loop
   vertex 473.185364 73.899292 244.861481
   vertex 473.185333 73.466942 246.292343
   vertex 473.185364 73.217209 245.800278
  endloop
 endfacet
 facet normal 0.000000 -0.891729 0.452570
  outer loop
   vertex 473.185364 73.217209 245.800278
   vertex 473.185333 73.466942 246.292343
   vertex 472.026642 73.217209 245.800278
  endloop
 endfacet
 facet normal -0.000000 -0.891729 0.452570
  outer loop
   vertex 472.026642 73.217209 245.800278
   vertex 473.185333 73.466942 246.292343
   vertex 472.026642 73.466942 246.292343
  endloop
 endfacet
 facet normal -1.000000 0.000000 0.000000
  outer loop
   vertex 472.026642 73.466942 246.292343
   vertex 472.026642 74.444443 244.946930
   vertex 472.026642 73.217209 245.800278
  endloop
 endfacet
 facet normal -1.000000 -0.000000 -0.000000
  outer loop
   vertex 472.026642 74.274971 246.585541
   vertex 472.026642 74.444443 244.946930
   vertex 472.026642 73.466942 246.292343
  endloop
 endfacet
 facet normal -1.000000 0.000000 0.000000
  outer loop
   vertex 472.026642 74.972984 245.624802
   vertex 472.026642 74.444443 244.946930
   vertex 472.026642 74.274971 246.585541
  endloop
 endfacet
 facet normal 0.000000 0.809019 0.587783
  outer loop
   vertex 472.026642 74.274971 246.585541
   vertex 473.185364 74.972984 245.624802
   vertex 472.026642 74.972984 245.624802
  endloop
 endfacet
 facet normal 0.000000 -0.462137 0.886808
  outer loop
   vertex 472.026642 74.972984 245.624802
   vertex 473.185364 74.972984 245.624802
   vertex 472.026642 75.061470 245.670914
  endloop
 endfacet
 facet normal -0.000000 -0.462137 0.886808
  outer loop
   vertex 472.026642 75.061470 245.670914
   vertex 473.185364 74.972984 245.624802
   vertex 473.185364 75.061470 245.670914
  endloop
 endfacet
 facet normal 0.000000 0.809008 0.587798
  outer loop
   vertex 473.185364 75.061470 245.670914
   vertex 472.026642 75.154907 245.542313
   vertex 472.026642 75.061470 245.670914
  endloop
 endfacet
 facet normal -0.000000 0.809008 0.587798
  outer loop
   vertex 473.185364 75.154907 245.542313
   vertex 472.026642 75.154907 245.542313
   vertex 473.185364 75.061470 245.670914
  endloop
 endfacet
 facet normal 0.000000 0.959479 -0.281781
  outer loop
   vertex 473.185364 75.125336 245.441620
   vertex 472.026642 75.154907 245.542313
   vertex 473.185364 75.154907 245.542313
  endloop
 endfacet
 facet normal 1.000000 -0.000000 -0.000000
  outer loop
   vertex 473.185364 75.154907 245.542313
   vertex 473.185364 74.972984 245.624802
   vertex 473.185364 75.125336 245.441620
  endloop
 endfacet
 facet normal 1.000000 0.000000 0.000000
  outer loop
   vertex 473.185364 75.125336 245.441620
   vertex 473.185364 74.972984 245.624802
   vertex 473.185364 74.444443 244.946930
  endloop
 endfacet
 facet normal 1.000000 -0.000021 0.000016
  outer loop
   vertex 473.185364 74.444443 244.946930
   vertex 473.185364 74.972984 245.624802
   vertex 473.185333 74.274971 246.585541
  endloop
 endfacet
 facet normal 1.000000 -0.000007 0.000018
  outer loop
   vertex 473.185333 74.274971 246.585541
   vertex 473.185333 73.466942 246.292343
   vertex 473.185364 74.444443 244.946930
  endloop
 endfacet
 facet normal 1.000000 -0.000000 -0.000000
  outer loop
   vertex 473.185333 74.147835 246.787033
   vertex 473.185333 73.466942 246.292343
   vertex 473.185333 74.274971 246.585541
  endloop
 endfacet
 facet normal 0.000000 -0.587779 0.809021
  outer loop
   vertex 472.026642 73.466942 246.292343
   vertex 473.185333 73.466942 246.292343
   vertex 473.185333 74.147835 246.787033
  endloop
 endfacet
 facet normal -0.000000 -0.587779 0.809021
  outer loop
   vertex 473.185333 74.147835 246.787033
   vertex 472.026642 74.147835 246.787033
   vertex 472.026642 73.466942 246.292343
  endloop
 endfacet
 facet normal -1.000000 0.000000 -0.000000
  outer loop
   vertex 472.026642 73.466942 246.292343
   vertex 472.026642 74.147835 246.787033
   vertex 472.026642 74.274971 246.585541
  endloop
 endfacet
 facet normal -1.000000 -0.000000 -0.000000
  outer loop
   vertex 472.026642 74.274971 246.585541
   vertex 472.026642 74.147835 246.787033
   vertex 472.026642 74.252731 246.784042
  endloop
 endfacet
 facet normal -1.000000 -0.000000 0.000000
  outer loop
   vertex 472.026642 74.252731 246.784042
   vertex 472.026642 74.346169 246.655441
   vertex 472.026642 74.274971 246.585541
  endloop
 endfacet
 facet normal -0.000000 0.809008 0.587798
  outer loop
   vertex 473.185333 74.346169 246.655441
   vertex 472.026642 74.346169 246.655441
   vertex 472.026642 74.252731 246.784042
  endloop
 endfacet
 facet normal 0.000000 0.700577 -0.713576
  outer loop
   vertex 472.026642 74.274971 246.585541
   vertex 472.026642 74.346169 246.655441
   vertex 473.185333 74.346169 246.655441
  endloop
 endfacet
 facet normal -0.000000 0.700577 -0.713576
  outer loop
   vertex 473.185333 74.346169 246.655441
   vertex 473.185333 74.274971 246.585541
   vertex 472.026642 74.274971 246.585541
  endloop
 endfacet
 facet normal 0.000000 0.809019 0.587783
  outer loop
   vertex 472.026642 74.274971 246.585541
   vertex 473.185333 74.274971 246.585541
   vertex 473.185364 74.972984 245.624802
  endloop
 endfacet
 facet normal 0.000000 -0.587772 0.809026
  outer loop
   vertex 454.163147 73.027824 245.254486
   vertex 454.513123 73.027824 245.254486
   vertex 454.096161 73.230080 245.401428
  endloop
 endfacet
 facet normal -0.000021 -0.587800 0.809006
  outer loop
   vertex 454.096161 73.230080 245.401428
   vertex 454.513123 73.027824 245.254486
   vertex 454.399261 73.371658 245.504303
  endloop
 endfacet
 facet normal -0.000011 -0.587814 0.808996
  outer loop
   vertex 454.399261 73.371658 245.504303
   vertex 453.913147 73.378136 245.509003
   vertex 454.096161 73.230080 245.401428
  endloop
 endfacet
 facet normal -0.000010 -0.587772 0.809027
  outer loop
   vertex 454.088135 73.623360 245.687164
   vertex 453.913147 73.378136 245.509003
   vertex 454.399261 73.371658 245.504303
  endloop
 endfacet
 facet normal 0.000016 -0.587784 0.809018
  outer loop
   vertex 453.663147 73.432335 245.548386
   vertex 453.913147 73.378136 245.509003
   vertex 454.088135 73.623360 245.687164
  endloop
 endfacet
 facet normal 0.000015 -0.587783 0.809019
  outer loop
   vertex 454.088135 73.623360 245.687164
   vertex 453.663147 73.715485 245.754105
   vertex 453.663147 73.432335 245.548386
  endloop
 endfacet
 facet normal -0.000017 -0.587783 0.809019
  outer loop
   vertex 453.663147 73.432335 245.548386
   vertex 453.663147 73.715485 245.754105
   vertex 453.413147 73.378136 245.509003
  endloop
 endfacet
 facet normal -0.000015 -0.587784 0.809018
  outer loop
   vertex 453.413147 73.378136 245.509003
   vertex 453.663147 73.715485 245.754105
   vertex 453.238129 73.623360 245.687164
  endloop
 endfacet
 facet normal -0.000022 -0.587787 0.809016
  outer loop
   vertex 453.238129 73.623360 245.687164
   vertex 453.230133 73.230080 245.401428
   vertex 453.413147 73.378136 245.509003
  endloop
 endfacet
 facet normal 0.000030 -0.587788 0.809015
  outer loop
   vertex 452.927002 73.371658 245.504303
   vertex 453.230133 73.230080 245.401428
   vertex 453.238129 73.623360 245.687164
  endloop
 endfacet
 facet normal 0.000035 -0.587780 0.809021
  outer loop
   vertex 453.163147 73.027824 245.254486
   vertex 453.230133 73.230080 245.401428
   vertex 452.927002 73.371658 245.504303
  endloop
 endfacet
 facet normal -0.000000 -0.587796 0.809009
  outer loop
   vertex 452.927002 73.371658 245.504303
   vertex 452.813141 73.027824 245.254486
   vertex 453.163147 73.027824 245.254486
  endloop
 endfacet
 facet normal 0.000000 -0.587772 0.809026
  outer loop
   vertex 453.163147 73.027824 245.254486
   vertex 452.813141 73.027824 245.254486
   vertex 453.230133 72.825569 245.107544
  endloop
 endfacet
 facet normal -0.000007 -0.587782 0.809019
  outer loop
   vertex 453.230133 72.825569 245.107544
   vertex 452.813141 73.027824 245.254486
   vertex 452.813141 72.218803 244.666702
  endloop
 endfacet
 facet normal -0.000001 -0.587785 0.809017
  outer loop
   vertex 452.813141 72.218803 244.666702
   vertex 453.413147 72.677505 244.999969
   vertex 453.230133 72.825569 245.107544
  endloop
 endfacet
 facet normal -0.000012 -0.587775 0.809024
  outer loop
   vertex 453.663147 72.623314 244.960602
   vertex 453.413147 72.677505 244.999969
   vertex 452.813141 72.218803 244.666702
  endloop
 endfacet
 facet normal 0.000000 0.587772 -0.809026
  outer loop
   vertex 474.676758 73.321716 244.850006
   vertex 474.326752 73.321716 244.850006
   vertex 474.743744 73.523972 244.996948
  endloop
 endfacet
 facet normal -0.000021 0.587800 -0.809006
  outer loop
   vertex 474.743744 73.523972 244.996948
   vertex 474.326752 73.321716 244.850006
   vertex 474.440643 73.665550 245.099823
  endloop
 endfacet
 facet normal -0.000011 0.587814 -0.808996
  outer loop
   vertex 474.440643 73.665550 245.099823
   vertex 474.926758 73.672028 245.104523
   vertex 474.743744 73.523972 244.996948
  endloop
 endfacet
 facet normal -0.000010 0.587772 -0.809027
  outer loop
   vertex 474.751770 73.917252 245.282684
   vertex 474.926758 73.672028 245.104523
   vertex 474.440643 73.665550 245.099823
  endloop
 endfacet
 facet normal 0.000016 0.587784 -0.809018
  outer loop
   vertex 475.176758 73.726227 245.143906
   vertex 474.926758 73.672028 245.104523
   vertex 474.751770 73.917252 245.282684
  endloop
 endfacet
 facet normal 0.000008 0.587772 -0.809026
  outer loop
   vertex 474.751770 73.917252 245.282684
   vertex 475.176758 74.009384 245.349625
   vertex 475.176758 73.726227 245.143906
  endloop
 endfacet
 facet normal -0.000020 0.587772 -0.809026
  outer loop
   vertex 475.176758 73.726227 245.143906
   vertex 475.176758 74.009384 245.349625
   vertex 475.426758 73.672028 245.104523
  endloop
 endfacet
 facet normal -0.000006 0.587779 -0.809021
  outer loop
   vertex 475.426758 73.672028 245.104523
   vertex 475.176758 74.009384 245.349625
   vertex 475.601776 73.917252 245.282684
  endloop
 endfacet
 facet normal -0.000022 0.587787 -0.809016
  outer loop
   vertex 475.601776 73.917252 245.282684
   vertex 475.609772 73.523972 244.996948
   vertex 475.426758 73.672028 245.104523
  endloop
 endfacet
 facet normal 0.000030 0.587788 -0.809015
  outer loop
   vertex 475.912903 73.665550 245.099823
   vertex 475.609772 73.523972 244.996948
   vertex 475.601776 73.917252 245.282684
  endloop
 endfacet
 facet normal 0.000035 0.587780 -0.809021
  outer loop
   vertex 475.676758 73.321716 244.850006
   vertex 475.609772 73.523972 244.996948
   vertex 475.912903 73.665550 245.099823
  endloop
 endfacet
 facet normal -0.000000 0.587796 -0.809009
  outer loop
   vertex 475.912903 73.665550 245.099823
   vertex 476.026764 73.321716 244.850006
   vertex 475.676758 73.321716 244.850006
  endloop
 endfacet
 facet normal 0.000000 0.587772 -0.809026
  outer loop
   vertex 475.676758 73.321716 244.850006
   vertex 476.026764 73.321716 244.850006
   vertex 475.609772 73.119461 244.703064
  endloop
 endfacet
 facet normal -0.000010 0.587786 -0.809016
  outer loop
   vertex 475.609772 73.119461 244.703064
   vertex 476.026764 73.321716 244.850006
   vertex 476.026764 72.512703 244.262222
  endloop
 endfacet
 facet normal 0.000011 0.587796 -0.809009
  outer loop
   vertex 476.026764 72.512703 244.262222
   vertex 475.426758 72.971405 244.595490
   vertex 475.609772 73.119461 244.703064
  endloop
 endfacet
 facet normal -0.000026 0.587763 -0.809033
  outer loop
   vertex 475.176758 72.917206 244.556122
   vertex 475.426758 72.971405 244.595490
   vertex 476.026764 72.512703 244.262222
  endloop
 endfacet
 facet normal 0.000000 0.587800 -0.809007
  outer loop
   vertex 452.813141 72.512703 244.262192
   vertex 453.663147 72.917206 244.556091
   vertex 454.513153 72.512703 244.262192
  endloop
 endfacet
 facet normal -0.000026 0.587763 -0.809033
  outer loop
   vertex 454.513153 72.512703 244.262192
   vertex 453.663147 72.917206 244.556091
   vertex 453.913147 72.971405 244.595459
  endloop
 endfacet
 facet normal 0.000011 0.587796 -0.809009
  outer loop
   vertex 453.913147 72.971405 244.595459
   vertex 454.096161 73.119461 244.703033
   vertex 454.513153 72.512703 244.262192
  endloop
 endfacet
 facet normal -0.000011 0.587796 -0.809009
  outer loop
   vertex 474.743744 73.119461 244.703064
   vertex 474.926758 72.971405 244.595490
   vertex 474.326782 72.512703 244.262222
  endloop
 endfacet
 facet normal 0.000026 0.587763 -0.809033
  outer loop
   vertex 474.326782 72.512703 244.262222
   vertex 474.926758 72.971405 244.595490
   vertex 475.176758 72.917206 244.556122
  endloop
 endfacet
 facet normal 0.000000 0.587800 -0.809007
  outer loop
   vertex 475.176758 72.917206 244.556122
   vertex 476.026764 72.512703 244.262222
   vertex 474.326782 72.512703 244.262222
  endloop
 endfacet
 facet normal 0.000000 -0.587772 0.809026
  outer loop
   vertex 476.026764 72.218803 244.666733
   vertex 475.176758 72.623314 244.960617
   vertex 474.326752 72.218803 244.666733
  endloop
 endfacet
 facet normal 0.000026 -0.587808 0.809000
  outer loop
   vertex 474.326752 72.218803 244.666733
   vertex 475.176758 72.623314 244.960617
   vertex 474.926758 72.677505 245.000000
  endloop
 endfacet
 facet normal -0.000001 -0.587785 0.809017
  outer loop
   vertex 474.926758 72.677505 245.000000
   vertex 474.743744 72.825569 245.107574
   vertex 474.326752 72.218803 244.666733
  endloop
 endfacet
 facet normal 0.000001 -0.587785 0.809017
  outer loop
   vertex 454.096161 72.825569 245.107544
   vertex 453.913147 72.677505 244.999969
   vertex 454.513123 72.218803 244.666702
  endloop
 endfacet
 facet normal 0.000012 -0.587775 0.809024
  outer loop
   vertex 454.513123 72.218803 244.666702
   vertex 453.913147 72.677505 244.999969
   vertex 453.663147 72.623314 244.960602
  endloop
 endfacet
 facet normal 0.000000 -0.587792 0.809012
  outer loop
   vertex 453.663147 72.623314 244.960602
   vertex 452.813141 72.218803 244.666702
   vertex 454.513123 72.218803 244.666702
  endloop
 endfacet
 facet normal 0.000000 0.028354 0.999598
  outer loop
   vertex 473.185333 74.147835 246.787033
   vertex 473.185333 74.252731 246.784058
   vertex 472.026642 74.147835 246.787033
  endloop
 endfacet
 facet normal -0.000013 0.028500 0.999594
  outer loop
   vertex 472.026642 74.147835 246.787033
   vertex 473.185333 74.252731 246.784058
   vertex 472.026642 74.252731 246.784042
  endloop
 endfacet
 facet normal 0.000001 0.587790 -0.809013
  outer loop
   vertex 455.979736 74.475746 245.068588
   vertex 455.979736 74.972099 245.429214
   vertex 472.860168 74.475746 245.068604
  endloop
 endfacet
 facet normal 0.000001 0.587790 -0.809013
  outer loop
   vertex 472.860168 74.475746 245.068604
   vertex 455.979736 74.972099 245.429214
   vertex 472.860168 74.972099 245.429230
  endloop
 endfacet
 facet normal 0.000000 0.959479 -0.281781
  outer loop
   vertex 456.813263 75.154907 245.542297
   vertex 456.813263 75.125336 245.441605
   vertex 455.654541 75.154907 245.542297
  endloop
 endfacet
 facet normal -0.000000 0.959479 -0.281781
  outer loop
   vertex 455.654541 75.154907 245.542297
   vertex 456.813263 75.125336 245.441605
   vertex 455.654541 75.125336 245.441605
  endloop
 endfacet
 facet normal 0.000000 0.809026 0.587772
  outer loop
   vertex 475.676758 73.027824 245.254517
   vertex 476.026764 73.027824 245.254517
   vertex 475.851776 73.174767 245.052261
  endloop
 endfacet
 facet normal 1.000000 -0.000003 0.000020
  outer loop
   vertex 473.185364 74.444443 244.946930
   vertex 473.185333 73.466942 246.292343
   vertex 473.185364 73.899292 244.861481
  endloop
 endfacet
 facet normal 0.000000 0.587772 -0.809026
  outer loop
   vertex 474.326752 73.321716 244.850006
   vertex 474.676758 73.321716 244.850006
   vertex 474.743744 73.119461 244.703064
  endloop
 endfacet
 facet normal 0.000000 0.587772 -0.809026
  outer loop
   vertex 454.163147 73.321716 244.849976
   vertex 454.513123 73.321716 244.849976
   vertex 454.096161 73.119461 244.703033
  endloop
 endfacet
 facet normal 0.000000 -0.809019 -0.587782
  outer loop
   vertex 476.026764 73.027824 245.254517
   vertex 475.676758 73.321716 244.850006
   vertex 476.026764 73.321716 244.850006
  endloop
 endfacet
 facet normal -0.000007 -0.587786 0.809016
  outer loop
   vertex 455.900818 73.344643 245.864731
   vertex 454.252655 73.344643 245.864716
   vertex 454.252655 72.097908 244.958908
  endloop
 endfacet
 facet normal 0.000007 0.587786 -0.809016
  outer loop
   vertex 472.939087 72.753250 244.056931
   vertex 472.939087 73.999985 244.962738
   vertex 474.587250 72.753250 244.056946
  endloop
 endfacet
 facet normal -0.000000 -0.809019 -0.587782
  outer loop
   vertex 452.813141 73.321716 244.849976
   vertex 453.163147 73.027824 245.254486
   vertex 452.813141 73.027824 245.254486
  endloop
 endfacet
 facet normal -1.000000 -0.000000 0.000000
  outer loop
   vertex 455.654541 74.252731 246.784027
   vertex 455.654541 74.346169 246.655426
   vertex 455.654541 74.274971 246.585510
  endloop
 endfacet
 facet normal 0.000000 -0.809019 -0.587782
  outer loop
   vertex 474.676758 73.321716 244.850006
   vertex 474.326752 73.027824 245.254517
   vertex 474.326752 73.321716 244.850006
  endloop
 endfacet
 facet normal -1.000000 0.000000 0.000000
  outer loop
   vertex 455.654541 73.466942 246.292313
   vertex 455.654541 74.444443 244.946899
   vertex 455.654541 73.217209 245.800262
  endloop
 endfacet
 facet normal 1.000000 0.000000 0.000000
  outer loop
   vertex 473.185364 75.154907 245.542313
   vertex 473.185364 75.061470 245.670914
   vertex 473.185364 74.972984 245.624802
  endloop
 endfacet
 facet normal 0.000000 -0.587786 0.809016
  outer loop
   vertex 472.939087 73.344643 245.864746
   vertex 472.939087 72.097908 244.958939
   vertex 474.587250 72.097908 244.958939
  endloop
 endfacet
 facet normal 1.000000 0.000000 -0.000000
  outer loop
   vertex 455.900818 72.097908 244.958923
   vertex 455.900818 72.753250 244.056915
   vertex 455.900818 73.999985 244.962723
  endloop
 endfacet
 facet normal 0.000000 -0.809019 -0.587782
  outer loop
   vertex 454.163147 73.027824 245.254486
   vertex 454.513123 73.321716 244.849976
   vertex 454.513123 73.027824 245.254486
  endloop
 endfacet
 facet normal 0.000000 -0.587772 0.809026
  outer loop
   vertex 454.513123 73.027824 245.254486
   vertex 454.163147 73.027824 245.254486
   vertex 454.096161 72.825569 245.107544
  endloop
 endfacet
 facet normal -0.707100 0.572063 0.415636
  outer loop
   vertex 453.913147 72.677505 244.999969
   vertex 454.096161 73.119461 244.703033
   vertex 453.913147 72.971405 244.595459
  endloop
 endfacet
 facet normal -0.258799 0.781450 0.567767
  outer loop
   vertex 453.913147 72.677505 244.999969
   vertex 453.913147 72.971405 244.595459
   vertex 453.663147 72.623314 244.960602
  endloop
 endfacet
 facet normal -0.258821 0.781452 0.567754
  outer loop
   vertex 453.663147 72.623314 244.960602
   vertex 453.913147 72.971405 244.595459
   vertex 453.663147 72.917206 244.556091
  endloop
 endfacet
 facet normal 0.258799 0.781457 0.567757
  outer loop
   vertex 453.663147 72.917206 244.556091
   vertex 453.413147 72.677505 244.999969
   vertex 453.663147 72.623314 244.960602
  endloop
 endfacet
 facet normal 0.258821 0.781445 0.567764
  outer loop
   vertex 453.413147 72.971405 244.595459
   vertex 453.413147 72.677505 244.999969
   vertex 453.663147 72.917206 244.556091
  endloop
 endfacet
 facet normal 0.707112 0.572053 0.415629
  outer loop
   vertex 453.230133 72.825569 245.107544
   vertex 453.413147 72.677505 244.999969
   vertex 453.413147 72.971405 244.595459
  endloop
 endfacet
 facet normal 0.707100 0.572068 0.415629
  outer loop
   vertex 453.413147 72.971405 244.595459
   vertex 453.230133 73.119461 244.703033
   vertex 453.230133 72.825569 245.107544
  endloop
 endfacet
 facet normal 0.965927 0.209387 0.152128
  outer loop
   vertex 453.230133 72.825569 245.107544
   vertex 453.230133 73.119461 244.703033
   vertex 453.163147 73.027824 245.254486
  endloop
 endfacet
 facet normal -0.965927 0.209387 0.152128
  outer loop
   vertex 475.676758 73.027824 245.254517
   vertex 475.676758 73.321716 244.850006
   vertex 475.609772 72.825569 245.107574
  endloop
 endfacet
 facet normal -0.965927 0.209387 0.152128
  outer loop
   vertex 475.609772 72.825569 245.107574
   vertex 475.676758 73.321716 244.850006
   vertex 475.609772 73.119461 244.703064
  endloop
 endfacet
 facet normal -0.707112 0.572059 0.415622
  outer loop
   vertex 475.609772 73.119461 244.703064
   vertex 475.426758 72.677505 245.000000
   vertex 475.609772 72.825569 245.107574
  endloop
 endfacet
 facet normal -0.707100 0.572063 0.415636
  outer loop
   vertex 475.426758 72.971405 244.595490
   vertex 475.426758 72.677505 245.000000
   vertex 475.609772 73.119461 244.703064
  endloop
 endfacet
 facet normal -0.258831 0.781443 0.567762
  outer loop
   vertex 475.176758 72.623314 244.960617
   vertex 475.426758 72.677505 245.000000
   vertex 475.426758 72.971405 244.595490
  endloop
 endfacet
 facet normal -0.258821 0.781442 0.567768
  outer loop
   vertex 475.426758 72.971405 244.595490
   vertex 475.176758 72.917206 244.556122
   vertex 475.176758 72.623314 244.960617
  endloop
 endfacet
 facet normal 0.258831 0.781440 0.567766
  outer loop
   vertex 475.176758 72.623314 244.960617
   vertex 475.176758 72.917206 244.556122
   vertex 474.926758 72.677505 245.000000
  endloop
 endfacet
 facet normal 0.258821 0.781445 0.567764
  outer loop
   vertex 474.926758 72.677505 245.000000
   vertex 475.176758 72.917206 244.556122
   vertex 474.926758 72.971405 244.595490
  endloop
 endfacet
 facet normal 0.707112 0.572053 0.415629
  outer loop
   vertex 474.926758 72.971405 244.595490
   vertex 474.743744 72.825569 245.107574
   vertex 474.926758 72.677505 245.000000
  endloop
 endfacet
 facet normal 0.965937 0.209357 0.152106
  outer loop
   vertex 454.513123 73.027824 245.254486
   vertex 454.513123 73.321716 244.849976
   vertex 454.399261 73.371658 245.504303
  endloop
 endfacet
 facet normal 0.965937 0.209357 0.152106
  outer loop
   vertex 454.399261 73.371658 245.504303
   vertex 454.513123 73.321716 244.849976
   vertex 454.399261 73.665550 245.099792
  endloop
 endfacet
 facet normal 0.707092 0.572075 0.415634
  outer loop
   vertex 454.399261 73.665550 245.099792
   vertex 454.088135 73.623360 245.687164
   vertex 454.399261 73.371658 245.504303
  endloop
 endfacet
 facet normal 0.707102 0.572059 0.415638
  outer loop
   vertex 454.088135 73.917252 245.282669
   vertex 454.088135 73.623360 245.687164
   vertex 454.399261 73.665550 245.099792
  endloop
 endfacet
 facet normal 0.258823 0.781441 0.567768
  outer loop
   vertex 453.663147 73.715485 245.754105
   vertex 454.088135 73.623360 245.687164
   vertex 454.088135 73.917252 245.282669
  endloop
 endfacet
 facet normal 0.258817 0.781446 0.567764
  outer loop
   vertex 454.088135 73.917252 245.282669
   vertex 453.663147 74.009384 245.349594
   vertex 453.663147 73.715485 245.754105
  endloop
 endfacet
 facet normal -0.258806 0.781448 0.567766
  outer loop
   vertex 453.663147 73.715485 245.754105
   vertex 453.663147 74.009384 245.349594
   vertex 453.238129 73.623360 245.687164
  endloop
 endfacet
 facet normal -0.258819 0.781452 0.567754
  outer loop
   vertex 453.238129 73.623360 245.687164
   vertex 453.663147 74.009384 245.349594
   vertex 453.238129 73.917252 245.282654
  endloop
 endfacet
 facet normal -0.707092 0.572075 0.415634
  outer loop
   vertex 453.238129 73.917252 245.282654
   vertex 452.927002 73.371658 245.504303
   vertex 453.238129 73.623360 245.687164
  endloop
 endfacet
 facet normal -0.707092 0.572075 0.415634
  outer loop
   vertex 452.927002 73.665550 245.099792
   vertex 452.927002 73.371658 245.504303
   vertex 453.238129 73.917252 245.282654
  endloop
 endfacet
 facet normal -0.965937 0.209357 0.152106
  outer loop
   vertex 452.813141 73.027824 245.254486
   vertex 452.927002 73.371658 245.504303
   vertex 452.927002 73.665550 245.099792
  endloop
 endfacet
 facet normal -0.965937 0.209357 0.152106
  outer loop
   vertex 452.927002 73.665550 245.099792
   vertex 452.813141 73.321716 244.849976
   vertex 452.813141 73.027824 245.254486
  endloop
 endfacet
 facet normal 0.965937 0.209357 0.152106
  outer loop
   vertex 476.026764 73.027824 245.254517
   vertex 476.026764 73.321716 244.850006
   vertex 475.912903 73.371658 245.504333
  endloop
 endfacet
 facet normal 0.965937 0.209357 0.152106
  outer loop
   vertex 475.912903 73.371658 245.504333
   vertex 476.026764 73.321716 244.850006
   vertex 475.912903 73.665550 245.099823
  endloop
 endfacet
 facet normal 0.707092 0.572075 0.415634
  outer loop
   vertex 475.912903 73.665550 245.099823
   vertex 475.601776 73.623360 245.687195
   vertex 475.912903 73.371658 245.504333
  endloop
 endfacet
 facet normal 0.707092 0.572075 0.415634
  outer loop
   vertex 475.601776 73.917252 245.282684
   vertex 475.601776 73.623360 245.687195
   vertex 475.912903 73.665550 245.099823
  endloop
 endfacet
 facet normal 0.258806 0.781455 0.567756
  outer loop
   vertex 475.176758 73.715485 245.754135
   vertex 475.601776 73.623360 245.687195
   vertex 475.601776 73.917252 245.282684
  endloop
 endfacet
 facet normal 0.258819 0.781445 0.567764
  outer loop
   vertex 475.601776 73.917252 245.282684
   vertex 475.176758 74.009384 245.349625
   vertex 475.176758 73.715485 245.754135
  endloop
 endfacet
 facet normal -0.258823 0.781444 0.567763
  outer loop
   vertex 475.176758 73.715485 245.754135
   vertex 475.176758 74.009384 245.349625
   vertex 474.751770 73.623360 245.687195
  endloop
 endfacet
 facet normal -0.258836 0.781449 0.567751
  outer loop
   vertex 474.751770 73.623360 245.687195
   vertex 475.176758 74.009384 245.349625
   vertex 474.751770 73.917252 245.282684
  endloop
 endfacet
 facet normal -0.707102 0.572066 0.415628
  outer loop
   vertex 474.751770 73.917252 245.282684
   vertex 474.440643 73.371658 245.504318
   vertex 474.751770 73.623360 245.687195
  endloop
 endfacet
 facet normal -0.707092 0.572067 0.415644
  outer loop
   vertex 474.440643 73.665550 245.099823
   vertex 474.440643 73.371658 245.504318
   vertex 474.751770 73.917252 245.282684
  endloop
 endfacet
 facet normal -0.965918 0.209411 0.152150
  outer loop
   vertex 474.326752 73.027824 245.254517
   vertex 474.440643 73.371658 245.504318
   vertex 474.440643 73.665550 245.099823
  endloop
 endfacet
 facet normal -0.965919 0.209409 0.152144
  outer loop
   vertex 474.440643 73.665550 245.099823
   vertex 474.326752 73.321716 244.850006
   vertex 474.326752 73.027824 245.254517
  endloop
 endfacet
 facet normal 0.707100 0.572068 0.415629
  outer loop
   vertex 474.926758 72.971405 244.595490
   vertex 474.743744 73.119461 244.703064
   vertex 474.743744 72.825569 245.107574
  endloop
 endfacet
 facet normal 0.965927 0.209387 0.152128
  outer loop
   vertex 474.743744 72.825569 245.107574
   vertex 474.743744 73.119461 244.703064
   vertex 474.676758 73.321716 244.850006
  endloop
 endfacet
 facet normal 0.965927 0.209387 0.152128
  outer loop
   vertex 474.676758 73.321716 244.850006
   vertex 474.676758 73.027824 245.254517
   vertex 474.743744 72.825569 245.107574
  endloop
 endfacet
 facet normal 0.965927 -0.209387 -0.152128
  outer loop
   vertex 474.743744 73.523972 244.996948
   vertex 474.676758 73.027824 245.254517
   vertex 474.676758 73.321716 244.850006
  endloop
 endfacet
 facet normal 0.965927 -0.209387 -0.152128
  outer loop
   vertex 474.743744 73.230080 245.401459
   vertex 474.676758 73.027824 245.254517
   vertex 474.743744 73.523972 244.996948
  endloop
 endfacet
 facet normal 0.707100 -0.572068 -0.415629
  outer loop
   vertex 474.743744 73.523972 244.996948
   vertex 474.926758 73.672028 245.104523
   vertex 474.743744 73.230080 245.401459
  endloop
 endfacet
 facet normal 0.707100 -0.572068 -0.415629
  outer loop
   vertex 474.743744 73.230080 245.401459
   vertex 474.926758 73.672028 245.104523
   vertex 474.926758 73.378136 245.509033
  endloop
 endfacet
 facet normal 0.258853 -0.781445 -0.567749
  outer loop
   vertex 474.926758 73.378136 245.509033
   vertex 474.926758 73.672028 245.104523
   vertex 475.176758 73.726227 245.143906
  endloop
 endfacet
 facet normal 0.258853 -0.781445 -0.567749
  outer loop
   vertex 475.176758 73.726227 245.143906
   vertex 475.176758 73.432335 245.548416
   vertex 474.926758 73.378136 245.509033
  endloop
 endfacet
 facet normal -0.258853 -0.781445 -0.567749
  outer loop
   vertex 475.426758 73.672028 245.104523
   vertex 475.176758 73.432335 245.548416
   vertex 475.176758 73.726227 245.143906
  endloop
 endfacet
 facet normal -0.258853 -0.781445 -0.567749
  outer loop
   vertex 475.426758 73.378136 245.509033
   vertex 475.176758 73.432335 245.548416
   vertex 475.426758 73.672028 245.104523
  endloop
 endfacet
 facet normal -0.707100 -0.572068 -0.415629
  outer loop
   vertex 475.426758 73.672028 245.104523
   vertex 475.609772 73.523972 244.996948
   vertex 475.426758 73.378136 245.509033
  endloop
 endfacet
 facet normal -0.707100 -0.572068 -0.415629
  outer loop
   vertex 475.426758 73.378136 245.509033
   vertex 475.609772 73.523972 244.996948
   vertex 475.609772 73.230080 245.401459
  endloop
 endfacet
 facet normal -0.965927 -0.209387 -0.152128
  outer loop
   vertex 475.609772 73.230080 245.401459
   vertex 475.609772 73.523972 244.996948
   vertex 475.676758 73.321716 244.850006
  endloop
 endfacet
 facet normal -0.965927 -0.209387 -0.152128
  outer loop
   vertex 475.676758 73.321716 244.850006
   vertex 475.676758 73.027824 245.254517
   vertex 475.609772 73.230080 245.401459
  endloop
 endfacet
 facet normal -0.707112 0.572059 0.415622
  outer loop
   vertex 453.913147 72.677505 244.999969
   vertex 454.096161 72.825569 245.107544
   vertex 454.096161 73.119461 244.703033
  endloop
 endfacet
 facet normal -0.965927 0.209387 0.152128
  outer loop
   vertex 454.096161 73.119461 244.703033
   vertex 454.096161 72.825569 245.107544
   vertex 454.163147 73.027824 245.254486
  endloop
 endfacet
 facet normal -0.965927 0.209387 0.152128
  outer loop
   vertex 454.163147 73.027824 245.254486
   vertex 454.163147 73.321716 244.849976
   vertex 454.096161 73.119461 244.703033
  endloop
 endfacet
 facet normal -0.965927 -0.209387 -0.152128
  outer loop
   vertex 454.096161 73.230080 245.401428
   vertex 454.163147 73.321716 244.849976
   vertex 454.163147 73.027824 245.254486
  endloop
 endfacet
 facet normal -0.965929 -0.209378 -0.152126
  outer loop
   vertex 454.096161 73.523972 244.996933
   vertex 454.163147 73.321716 244.849976
   vertex 454.096161 73.230080 245.401428
  endloop
 endfacet
 facet normal -0.707100 -0.572061 -0.415639
  outer loop
   vertex 454.096161 73.230080 245.401428
   vertex 453.913147 73.378136 245.509003
   vertex 454.096161 73.523972 244.996933
  endloop
 endfacet
 facet normal -0.707083 -0.572082 -0.415639
  outer loop
   vertex 454.096161 73.523972 244.996933
   vertex 453.913147 73.378136 245.509003
   vertex 453.913147 73.672028 245.104492
  endloop
 endfacet
 facet normal -0.258853 -0.781445 -0.567749
  outer loop
   vertex 453.913147 73.672028 245.104492
   vertex 453.913147 73.378136 245.509003
   vertex 453.663147 73.432335 245.548386
  endloop
 endfacet
 facet normal -0.258853 -0.781445 -0.567749
  outer loop
   vertex 453.663147 73.432335 245.548386
   vertex 453.663147 73.726227 245.143875
   vertex 453.913147 73.672028 245.104492
  endloop
 endfacet
 facet normal 0.258853 -0.781445 -0.567749
  outer loop
   vertex 453.413147 73.378136 245.509003
   vertex 453.663147 73.726227 245.143875
   vertex 453.663147 73.432335 245.548386
  endloop
 endfacet
 facet normal 0.258853 -0.781445 -0.567749
  outer loop
   vertex 453.413147 73.672028 245.104492
   vertex 453.663147 73.726227 245.143875
   vertex 453.413147 73.378136 245.509003
  endloop
 endfacet
 facet normal 0.707100 -0.572068 -0.415629
  outer loop
   vertex 453.413147 73.378136 245.509003
   vertex 453.230133 73.230080 245.401428
   vertex 453.413147 73.672028 245.104492
  endloop
 endfacet
 facet normal 0.707083 -0.572075 -0.415649
  outer loop
   vertex 453.413147 73.672028 245.104492
   vertex 453.230133 73.230080 245.401428
   vertex 453.230133 73.523972 244.996933
  endloop
 endfacet
 facet normal 0.965927 -0.209385 -0.152131
  outer loop
   vertex 453.230133 73.523972 244.996933
   vertex 453.230133 73.230080 245.401428
   vertex 453.163147 73.027824 245.254486
  endloop
 endfacet
 facet normal 0.965929 -0.209380 -0.152123
  outer loop
   vertex 453.163147 73.027824 245.254486
   vertex 453.163147 73.321716 244.849976
   vertex 453.230133 73.523972 244.996933
  endloop
 endfacet
 facet normal 0.965927 0.209387 0.152128
  outer loop
   vertex 453.230133 73.119461 244.703033
   vertex 453.163147 73.321716 244.849976
   vertex 453.163147 73.027824 245.254486
  endloop
 endfacet
endsolid