solid stl file generated from DOUG
 facet normal 0.219202 0.473158 -0.853271
  outer loop
   vertex 266.924835 -56.237232 123.092995
   vertex 267.375275 -56.115761 123.276070
   vertex 267.019958 -56.449471 122.999741
  endloop
 endfacet
 facet normal 0.219165 0.473191 -0.853263
  outer loop
   vertex 267.019958 -56.449471 122.999741
   vertex 267.375275 -56.115761 123.276070
   vertex 267.470428 -56.328003 123.182808
  endloop
 endfacet
 facet normal 0.438357 -0.496922 -0.748941
  outer loop
   vertex 267.470428 -56.328003 123.182808
   vertex 267.019958 -56.658276 123.138283
   vertex 267.019958 -56.449471 122.999741
  endloop
 endfacet
 facet normal 0.438357 -0.496922 -0.748941
  outer loop
   vertex 267.470428 -56.536808 123.321350
   vertex 267.019958 -56.658276 123.138283
   vertex 267.470428 -56.328003 123.182808
  endloop
 endfacet
 facet normal 0.219188 -0.970090 0.104317
  outer loop
   vertex 266.924835 -56.654842 123.370079
   vertex 267.019958 -56.658276 123.138283
   vertex 267.470428 -56.536808 123.321350
  endloop
 endfacet
 facet normal 0.219190 -0.970085 0.104360
  outer loop
   vertex 267.470428 -56.536808 123.321350
   vertex 267.375275 -56.533371 123.553154
   vertex 266.924835 -56.654842 123.370079
  endloop
 endfacet
 facet normal -0.219205 -0.473152 0.853274
  outer loop
   vertex 266.924835 -56.654842 123.370079
   vertex 267.375275 -56.533371 123.553154
   vertex 266.829712 -56.442600 123.463333
  endloop
 endfacet
 facet normal -0.219205 -0.473152 0.853274
  outer loop
   vertex 266.829712 -56.442600 123.463333
   vertex 267.375275 -56.533371 123.553154
   vertex 267.280151 -56.321129 123.646408
  endloop
 endfacet
 facet normal -0.438394 0.496912 0.748925
  outer loop
   vertex 267.280151 -56.321129 123.646408
   vertex 266.829712 -56.233795 123.324791
   vertex 266.829712 -56.442600 123.463333
  endloop
 endfacet
 facet normal -0.438391 0.496919 0.748922
  outer loop
   vertex 267.280151 -56.112328 123.507866
   vertex 266.829712 -56.233795 123.324791
   vertex 267.280151 -56.321129 123.646408
  endloop
 endfacet
 facet normal -0.219192 0.970087 -0.104335
  outer loop
   vertex 266.924835 -56.237232 123.092995
   vertex 266.829712 -56.233795 123.324791
   vertex 267.280151 -56.112328 123.507866
  endloop
 endfacet
 facet normal -0.219205 0.970085 -0.104324
  outer loop
   vertex 267.280151 -56.112328 123.507866
   vertex 267.375275 -56.115761 123.276070
   vertex 266.924835 -56.237232 123.092995
  endloop
 endfacet
 facet normal 0.219194 -0.970087 0.104332
  outer loop
   vertex 267.375305 -40.545696 112.945259
   vertex 266.924866 -40.667164 112.762184
   vertex 267.470428 -40.549133 112.713455
  endloop
 endfacet
 facet normal 0.219194 -0.970087 0.104332
  outer loop
   vertex 267.470428 -40.549133 112.713455
   vertex 266.924866 -40.667164 112.762184
   vertex 267.019989 -40.670601 112.530380
  endloop
 endfacet
 facet normal 0.438391 -0.496913 -0.748927
  outer loop
   vertex 267.019989 -40.670601 112.530380
   vertex 267.470428 -40.340328 112.574913
   vertex 267.470428 -40.549133 112.713455
  endloop
 endfacet
 facet normal 0.438391 -0.496913 -0.748927
  outer loop
   vertex 267.019989 -40.461796 112.391838
   vertex 267.470428 -40.340328 112.574913
   vertex 267.019989 -40.670601 112.530380
  endloop
 endfacet
 facet normal 0.219208 0.473153 -0.853273
  outer loop
   vertex 267.375305 -40.128086 112.668167
   vertex 267.470428 -40.340328 112.574913
   vertex 267.019989 -40.461796 112.391838
  endloop
 endfacet
 facet normal 0.219181 0.473177 -0.853266
  outer loop
   vertex 267.019989 -40.461796 112.391838
   vertex 266.924866 -40.249557 112.485100
   vertex 267.375305 -40.128086 112.668167
  endloop
 endfacet
 facet normal -0.219197 0.970085 -0.104347
  outer loop
   vertex 267.375305 -40.128086 112.668167
   vertex 266.924866 -40.249557 112.485100
   vertex 267.280151 -40.124653 112.899971
  endloop
 endfacet
 facet normal -0.219182 0.970087 -0.104360
  outer loop
   vertex 267.280151 -40.124653 112.899971
   vertex 266.924866 -40.249557 112.485100
   vertex 266.829712 -40.246120 112.716896
  endloop
 endfacet
 facet normal -0.438391 0.496919 0.748922
  outer loop
   vertex 266.829712 -40.246120 112.716896
   vertex 267.280151 -40.333454 113.038513
   vertex 267.280151 -40.124653 112.899971
  endloop
 endfacet
 facet normal -0.438394 0.496912 0.748925
  outer loop
   vertex 266.829712 -40.454926 112.855438
   vertex 267.280151 -40.333454 113.038513
   vertex 266.829712 -40.246120 112.716896
  endloop
 endfacet
 facet normal -0.219195 -0.473175 0.853264
  outer loop
   vertex 267.375305 -40.545696 112.945259
   vertex 267.280151 -40.333454 113.038513
   vertex 266.829712 -40.454926 112.855438
  endloop
 endfacet
 facet normal -0.219195 -0.473182 0.853260
  outer loop
   vertex 266.829712 -40.454926 112.855438
   vertex 266.924866 -40.667164 112.762184
   vertex 267.375305 -40.545696 112.945259
  endloop
 endfacet
 facet normal -0.898812 -0.242342 -0.365248
  outer loop
   vertex 267.019989 -40.461796 112.391838
   vertex 267.019989 -40.670601 112.530380
   vertex 266.924866 -40.458363 112.623642
  endloop
 endfacet
 facet normal -0.898813 -0.242344 -0.365245
  outer loop
   vertex 266.924866 -40.458363 112.623642
   vertex 267.019989 -40.670601 112.530380
   vertex 266.924866 -40.667164 112.762184
  endloop
 endfacet
 facet normal -0.898752 -0.242413 -0.365349
  outer loop
   vertex 266.924866 -40.667164 112.762184
   vertex 266.829712 -40.454926 112.855438
   vertex 266.924866 -40.458363 112.623642
  endloop
 endfacet
 facet normal -0.898809 -0.242347 -0.365255
  outer loop
   vertex 266.829712 -56.233795 123.324791
   vertex 266.924835 -56.237232 123.092995
   vertex 266.924835 -56.446037 123.231537
  endloop
 endfacet
 facet normal -0.898807 -0.242349 -0.365258
  outer loop
   vertex 266.924835 -56.446037 123.231537
   vertex 266.924835 -56.237232 123.092995
   vertex 267.019958 -56.449471 122.999741
  endloop
 endfacet
 facet normal -0.898807 -0.242349 -0.365258
  outer loop
   vertex 267.019958 -56.449471 122.999741
   vertex 267.019958 -56.658276 123.138283
   vertex 266.924835 -56.446037 123.231537
  endloop
 endfacet
 facet normal -0.898807 -0.242349 -0.365258
  outer loop
   vertex 267.019958 -56.658276 123.138283
   vertex 266.924835 -56.654842 123.370079
   vertex 266.924835 -56.446037 123.231537
  endloop
 endfacet
 facet normal -0.898809 -0.242347 -0.365255
  outer loop
   vertex 266.924835 -56.446037 123.231537
   vertex 266.924835 -56.654842 123.370079
   vertex 266.829712 -56.442600 123.463333
  endloop
 endfacet
 facet normal -0.898809 -0.242347 -0.365255
  outer loop
   vertex 266.829712 -56.442600 123.463333
   vertex 266.829712 -56.233795 123.324791
   vertex 266.924835 -56.446037 123.231537
  endloop
 endfacet
 facet normal -0.898753 -0.242409 -0.365349
  outer loop
   vertex 266.829712 -40.454926 112.855438
   vertex 266.829712 -40.246120 112.716896
   vertex 266.924866 -40.458363 112.623642
  endloop
 endfacet
 facet normal -0.898753 -0.242409 -0.365349
  outer loop
   vertex 266.924866 -40.458363 112.623642
   vertex 266.829712 -40.246120 112.716896
   vertex 266.924866 -40.249557 112.485100
  endloop
 endfacet
 facet normal -0.898812 -0.242342 -0.365248
  outer loop
   vertex 266.924866 -40.249557 112.485100
   vertex 267.019989 -40.461796 112.391838
   vertex 266.924866 -40.458363 112.623642
  endloop
 endfacet
 facet normal -0.898788 -0.242371 -0.365289
  outer loop
   vertex 268.479645 -54.428513 123.637657
   vertex 269.027710 -55.049755 122.701347
   vertex 268.479645 -56.921139 125.291527
  endloop
 endfacet
 facet normal -0.898789 -0.242370 -0.365288
  outer loop
   vertex 268.479645 -56.921139 125.291527
   vertex 269.027710 -55.049755 122.701347
   vertex 269.027710 -57.542385 124.355217
  endloop
 endfacet
 facet normal -0.000003 -0.833265 0.552874
  outer loop
   vertex 269.027710 -57.542385 124.355217
   vertex 269.727692 -56.584587 125.798767
   vertex 268.479645 -56.921139 125.291527
  endloop
 endfacet
 facet normal -0.000003 -0.833265 0.552874
  outer loop
   vertex 270.275757 -57.205833 124.862457
   vertex 269.727692 -56.584587 125.798767
   vertex 269.027710 -57.542385 124.355217
  endloop
 endfacet
 facet normal 0.898789 0.242370 0.365288
  outer loop
   vertex 270.275757 -54.713203 123.208588
   vertex 269.727692 -56.584587 125.798767
   vertex 270.275757 -57.205833 124.862457
  endloop
 endfacet
 facet normal 0.438385 -0.496917 -0.748928
  outer loop
   vertex 270.275757 -57.205833 124.862457
   vertex 269.027710 -55.049755 122.701347
   vertex 270.275757 -54.713203 123.208588
  endloop
 endfacet
 facet normal 0.000002 0.833266 -0.552872
  outer loop
   vertex 270.275757 -54.713203 123.208588
   vertex 269.027710 -55.049755 122.701347
   vertex 269.727692 -54.091961 124.144897
  endloop
 endfacet
 facet normal 0.000002 0.833266 -0.552872
  outer loop
   vertex 269.727692 -54.091961 124.144897
   vertex 269.027710 -55.049755 122.701347
   vertex 268.479645 -54.428513 123.637657
  endloop
 endfacet
 facet normal -0.438385 0.496917 0.748928
  outer loop
   vertex 268.479645 -54.428513 123.637657
   vertex 269.727692 -56.584587 125.798767
   vertex 269.727692 -54.091961 124.144897
  endloop
 endfacet
 facet normal -0.438385 0.496917 0.748928
  outer loop
   vertex 268.479645 -56.921139 125.291527
   vertex 269.727692 -56.584587 125.798767
   vertex 268.479645 -54.428513 123.637657
  endloop
 endfacet
 facet normal -0.000000 0.833264 -0.552875
  outer loop
   vertex 269.727692 -38.039120 113.493759
   vertex 270.275757 -38.660366 112.557449
   vertex 268.479645 -38.375671 112.986526
  endloop
 endfacet
 facet normal -0.000000 0.833264 -0.552875
  outer loop
   vertex 268.479645 -38.375671 112.986526
   vertex 270.275757 -38.660366 112.557449
   vertex 269.027710 -38.996918 112.050217
  endloop
 endfacet
 facet normal -0.898789 -0.242371 -0.365288
  outer loop
   vertex 269.027710 -38.996918 112.050217
   vertex 268.479645 -40.868298 114.640396
   vertex 268.479645 -38.375671 112.986526
  endloop
 endfacet
 facet normal -0.898789 -0.242371 -0.365288
  outer loop
   vertex 269.027710 -41.489544 113.704086
   vertex 268.479645 -40.868298 114.640396
   vertex 269.027710 -38.996918 112.050217
  endloop
 endfacet
 facet normal 0.000000 -0.833264 0.552875
  outer loop
   vertex 270.275757 -41.152992 114.211319
   vertex 268.479645 -40.868298 114.640396
   vertex 269.027710 -41.489544 113.704086
  endloop
 endfacet
 facet normal 0.438381 -0.496918 -0.748929
  outer loop
   vertex 269.027710 -41.489544 113.704086
   vertex 270.275757 -38.660366 112.557449
   vertex 270.275757 -41.152992 114.211319
  endloop
 endfacet
 facet normal 0.898789 0.242371 0.365288
  outer loop
   vertex 270.275757 -41.152992 114.211319
   vertex 270.275757 -38.660366 112.557449
   vertex 269.727692 -40.531746 115.147629
  endloop
 endfacet
 facet normal 0.898789 0.242371 0.365288
  outer loop
   vertex 269.727692 -40.531746 115.147629
   vertex 270.275757 -38.660366 112.557449
   vertex 269.727692 -38.039120 113.493759
  endloop
 endfacet
 facet normal -0.438381 0.496918 0.748929
  outer loop
   vertex 269.727692 -38.039120 113.493759
   vertex 268.479645 -40.868298 114.640396
   vertex 269.727692 -40.531746 115.147629
  endloop
 endfacet
 facet normal -0.438381 0.496918 0.748929
  outer loop
   vertex 268.479645 -38.375671 112.986526
   vertex 268.479645 -40.868298 114.640396
   vertex 269.727692 -38.039120 113.493759
  endloop
 endfacet
 facet normal 0.438381 -0.496918 -0.748929
  outer loop
   vertex 269.027710 -41.489544 113.704086
   vertex 269.027710 -38.996918 112.050217
   vertex 270.275757 -38.660366 112.557449
  endloop
 endfacet
 facet normal 0.438385 -0.496917 -0.748928
  outer loop
   vertex 269.027710 -57.542385 124.355217
   vertex 269.027710 -55.049755 122.701347
   vertex 270.275757 -57.205833 124.862457
  endloop
 endfacet
 facet normal 0.000000 -0.833264 0.552875
  outer loop
   vertex 270.275757 -41.152992 114.211319
   vertex 269.727692 -40.531746 115.147629
   vertex 268.479645 -40.868298 114.640396
  endloop
 endfacet
 facet normal 0.898788 0.242371 0.365289
  outer loop
   vertex 270.275757 -54.713203 123.208588
   vertex 269.727692 -54.091961 124.144897
   vertex 269.727692 -56.584587 125.798767
  endloop
 endfacet
 facet normal -0.898839 -0.242312 -0.365203
  outer loop
   vertex 265.920044 -55.273224 122.913361
   vertex 265.968109 -41.261810 113.498497
   vertex 265.968079 -55.327690 122.831276
  endloop
 endfacet
 facet normal -0.180983 -0.543745 -0.819504
  outer loop
   vertex 265.968079 -55.327690 122.831276
   vertex 265.968109 -41.261810 113.498497
   vertex 266.110962 -55.342224 122.809364
  endloop
 endfacet
 facet normal -0.201585 -0.541524 -0.816159
  outer loop
   vertex 266.547424 -42.687672 112.857162
   vertex 266.650208 -41.733852 112.198914
   vertex 266.650208 -42.699371 112.839539
  endloop
 endfacet
 facet normal 0.438367 -0.496921 -0.748935
  outer loop
   vertex 266.650208 -42.699371 112.839539
   vertex 266.650208 -41.733852 112.198914
   vertex 267.406677 -41.529869 112.506348
  endloop
 endfacet
 facet normal -0.438384 0.496918 0.748927
  outer loop
   vertex 266.677612 -55.311268 123.444168
   vertex 265.921173 -54.549740 122.496109
   vertex 265.921173 -55.515255 123.136734
  endloop
 endfacet
 facet normal -0.895885 0.245634 0.370207
  outer loop
   vertex 265.921173 -55.515255 123.136734
   vertex 265.921173 -54.549740 122.496109
   vertex 265.874542 -54.601723 122.417755
  endloop
 endfacet
 facet normal -0.886373 0.255966 0.385779
  outer loop
   vertex 266.627502 -41.861832 112.594177
   vertex 266.560242 -41.933029 112.486877
   vertex 266.560242 -55.998905 121.819649
  endloop
 endfacet
 facet normal -0.898854 -0.242297 -0.365177
  outer loop
   vertex 266.560242 -55.998905 121.819649
   vertex 266.560242 -41.933029 112.486877
   vertex 266.608276 -56.053375 121.737556
  endloop
 endfacet
 facet normal -0.996236 -0.047925 -0.072234
  outer loop
   vertex 266.625671 -41.037682 113.836296
   vertex 266.625641 -55.103561 123.169067
   vertex 266.622559 -41.017902 113.866104
  endloop
 endfacet
 facet normal -0.996236 -0.047925 -0.072234
  outer loop
   vertex 266.622559 -41.017902 113.866104
   vertex 266.625641 -55.103561 123.169067
   vertex 266.622528 -55.083782 123.198875
  endloop
 endfacet
 facet normal -0.438321 0.496934 0.748953
  outer loop
   vertex 266.622528 -55.083782 123.198875
   vertex 266.686035 -41.000790 113.891899
   vertex 266.622559 -41.017902 113.866104
  endloop
 endfacet
 facet normal -0.000012 0.833250 -0.552896
  outer loop
   vertex 265.921173 -40.907467 113.444397
   vertex 266.039398 -41.021835 113.272034
   vertex 265.874573 -40.959454 113.366051
  endloop
 endfacet
 facet normal 0.000030 0.833285 -0.552844
  outer loop
   vertex 265.874573 -40.959454 113.366051
   vertex 266.039398 -41.021835 113.272034
   vertex 265.944244 -41.038445 113.246994
  endloop
 endfacet
 facet normal -0.898830 -0.242324 -0.365217
  outer loop
   vertex 265.944244 -41.038445 113.246994
   vertex 265.874573 -41.924969 114.006676
   vertex 265.874573 -40.959454 113.366051
  endloop
 endfacet
 facet normal -0.000020 -0.833266 0.552872
  outer loop
   vertex 266.650208 -56.341640 121.891251
   vertex 266.559998 -56.219723 122.074997
   vertex 266.547424 -56.329945 121.908875
  endloop
 endfacet
 facet normal -0.000009 -0.833267 0.552871
  outer loop
   vertex 266.547424 -56.329945 121.908875
   vertex 266.559998 -56.219723 122.074997
   vertex 266.477722 -56.250950 122.027931
  endloop
 endfacet
 facet normal -0.898757 -0.242406 -0.365343
  outer loop
   vertex 266.477722 -56.250950 122.027931
   vertex 266.547424 -55.364426 121.268250
   vertex 266.547424 -56.329945 121.908875
  endloop
 endfacet
 facet normal 0.000002 -0.833276 0.552857
  outer loop
   vertex 266.477753 -42.608681 112.976219
   vertex 266.547424 -42.687672 112.857162
   vertex 266.559998 -42.577454 113.023285
  endloop
 endfacet
 facet normal -0.000053 -0.833274 0.552860
  outer loop
   vertex 266.559998 -42.577454 113.023285
   vertex 266.547424 -42.687672 112.857162
   vertex 266.650208 -42.699371 112.839539
  endloop
 endfacet
 facet normal 0.000001 -0.833262 0.552879
  outer loop
   vertex 266.650208 -42.699371 112.839539
   vertex 267.406677 -42.495384 113.146973
   vertex 266.559998 -42.577454 113.023285
  endloop
 endfacet
 facet normal 0.438369 -0.496922 -0.748933
  outer loop
   vertex 267.406677 -41.529869 112.506348
   vertex 267.406677 -42.495384 113.146973
   vertex 266.650208 -42.699371 112.839539
  endloop
 endfacet
 facet normal -0.886468 0.255866 0.385625
  outer loop
   vertex 266.560242 -55.998905 121.819649
   vertex 266.627472 -55.927708 121.926956
   vertex 266.627502 -41.861832 112.594177
  endloop
 endfacet
 facet normal -0.898790 -0.242368 -0.365287
  outer loop
   vertex 266.627502 -41.861832 112.594177
   vertex 266.627472 -55.927708 121.926956
   vertex 266.110962 -55.342224 122.809364
  endloop
 endfacet
 facet normal -0.898780 -0.242380 -0.365303
  outer loop
   vertex 266.110962 -55.342224 122.809364
   vertex 266.110962 -41.276348 113.476585
   vertex 266.627502 -41.861832 112.594177
  endloop
 endfacet
 facet normal -0.181034 -0.543740 -0.819496
  outer loop
   vertex 265.968109 -41.261810 113.498497
   vertex 266.110962 -41.276348 113.476585
   vertex 266.110962 -55.342224 122.809364
  endloop
 endfacet
 facet normal -0.438384 0.496918 0.748927
  outer loop
   vertex 266.677612 -55.311268 123.444168
   vertex 266.677612 -54.345753 122.803543
   vertex 265.921173 -54.549740 122.496109
  endloop
 endfacet
 facet normal -0.000002 0.833262 -0.552878
  outer loop
   vertex 265.921173 -54.549740 122.496109
   vertex 266.677612 -54.345753 122.803543
   vertex 266.039398 -54.664104 122.323746
  endloop
 endfacet
 facet normal 0.000047 0.833277 -0.552855
  outer loop
   vertex 266.039398 -54.664104 122.323746
   vertex 265.874542 -54.601723 122.417755
   vertex 265.921173 -54.549740 122.496109
  endloop
 endfacet
 facet normal 0.000015 0.833252 -0.552894
  outer loop
   vertex 265.944244 -54.680717 122.298706
   vertex 265.874542 -54.601723 122.417755
   vertex 266.039398 -54.664104 122.323746
  endloop
 endfacet
 facet normal 0.681699 0.404501 0.609643
  outer loop
   vertex 266.074219 -55.252262 122.944954
   vertex 266.074219 -41.186386 113.612175
   vertex 266.047943 -55.238728 122.965355
  endloop
 endfacet
 facet normal 0.682123 0.404282 0.609315
  outer loop
   vertex 266.047943 -55.238728 122.965355
   vertex 266.074219 -41.186386 113.612175
   vertex 266.047974 -41.172852 113.632576
  endloop
 endfacet
 facet normal -0.438465 0.496896 0.748894
  outer loop
   vertex 266.047974 -41.172852 113.632576
   vertex 265.920044 -55.273224 122.913361
   vertex 266.047943 -55.238728 122.965355
  endloop
 endfacet
 facet normal -0.438333 0.496931 0.748949
  outer loop
   vertex 265.920044 -41.207344 113.580589
   vertex 265.920044 -55.273224 122.913361
   vertex 266.047974 -41.172852 113.632576
  endloop
 endfacet
 facet normal -0.898740 -0.242425 -0.365371
  outer loop
   vertex 265.968109 -41.261810 113.498497
   vertex 265.920044 -55.273224 122.913361
   vertex 265.920044 -41.207344 113.580589
  endloop
 endfacet
 facet normal -0.898788 -0.242371 -0.365289
  outer loop
   vertex 267.112579 -56.530693 124.141953
   vertex 267.601349 -55.711372 122.395721
   vertex 267.601349 -57.084724 123.306946
  endloop
 endfacet
 facet normal 0.438384 -0.496917 -0.748928
  outer loop
   vertex 267.601349 -57.084724 123.306946
   vertex 267.601349 -55.711372 122.395721
   vertex 268.986420 -56.711220 123.869873
  endloop
 endfacet
 facet normal -0.000000 -0.833264 0.552875
  outer loop
   vertex 268.986420 -56.711220 123.869873
   vertex 268.497650 -56.157188 124.704880
   vertex 267.601349 -57.084724 123.306946
  endloop
 endfacet
 facet normal 0.898788 0.242370 0.365290
  outer loop
   vertex 268.986420 -55.337864 122.958649
   vertex 268.497650 -56.157188 124.704880
   vertex 268.986420 -56.711220 123.869873
  endloop
 endfacet
 facet normal 0.898788 0.242371 0.365290
  outer loop
   vertex 268.497650 -54.783836 123.793655
   vertex 268.497650 -56.157188 124.704880
   vertex 268.986420 -55.337864 122.958649
  endloop
 endfacet
 facet normal -0.000003 0.833265 -0.552874
  outer loop
   vertex 268.986420 -55.337864 122.958649
   vertex 267.601349 -55.711372 122.395721
   vertex 268.497650 -54.783836 123.793655
  endloop
 endfacet
 facet normal 0.000000 0.833264 -0.552875
  outer loop
   vertex 268.497650 -54.783836 123.793655
   vertex 267.601349 -55.711372 122.395721
   vertex 267.112579 -55.157341 123.230728
  endloop
 endfacet
 facet normal -0.898788 -0.242371 -0.365289
  outer loop
   vertex 267.112579 -55.157341 123.230728
   vertex 267.601349 -55.711372 122.395721
   vertex 267.112579 -56.530693 124.141953
  endloop
 endfacet
 facet normal -0.438384 0.496917 0.748928
  outer loop
   vertex 267.112579 -56.530693 124.141953
   vertex 268.497650 -56.157188 124.704880
   vertex 267.112579 -55.157341 123.230728
  endloop
 endfacet
 facet normal -0.000000 -0.833264 0.552875
  outer loop
   vertex 267.601349 -57.084724 123.306946
   vertex 268.497650 -56.157188 124.704880
   vertex 267.112579 -56.530693 124.141953
  endloop
 endfacet
 facet normal -0.438384 0.496917 0.748928
  outer loop
   vertex 267.112579 -39.586620 112.899483
   vertex 267.112579 -40.959972 113.810707
   vertex 268.497650 -39.213116 113.462410
  endloop
 endfacet
 facet normal -0.438384 0.496917 0.748928
  outer loop
   vertex 268.497650 -39.213116 113.462410
   vertex 267.112579 -40.959972 113.810707
   vertex 268.497650 -40.586468 114.373634
  endloop
 endfacet
 facet normal 0.898788 0.242371 0.365289
  outer loop
   vertex 268.497650 -40.586468 114.373634
   vertex 268.986420 -39.767147 112.627403
   vertex 268.497650 -39.213116 113.462410
  endloop
 endfacet
 facet normal 0.898788 0.242371 0.365289
  outer loop
   vertex 268.986420 -41.140499 113.538628
   vertex 268.986420 -39.767147 112.627403
   vertex 268.497650 -40.586468 114.373634
  endloop
 endfacet
 facet normal 0.438384 -0.496917 -0.748928
  outer loop
   vertex 267.601349 -41.514004 112.975700
   vertex 268.986420 -39.767147 112.627403
   vertex 268.986420 -41.140499 113.538628
  endloop
 endfacet
 facet normal -0.000000 -0.833264 0.552875
  outer loop
   vertex 268.986420 -41.140499 113.538628
   vertex 267.112579 -40.959972 113.810707
   vertex 267.601349 -41.514004 112.975700
  endloop
 endfacet
 facet normal -0.898788 -0.242371 -0.365289
  outer loop
   vertex 267.601349 -41.514004 112.975700
   vertex 267.112579 -40.959972 113.810707
   vertex 267.601349 -40.140652 112.064476
  endloop
 endfacet
 facet normal -0.898788 -0.242371 -0.365289
  outer loop
   vertex 267.601349 -40.140652 112.064476
   vertex 267.112579 -40.959972 113.810707
   vertex 267.112579 -39.586620 112.899483
  endloop
 endfacet
 facet normal 0.000000 0.833264 -0.552875
  outer loop
   vertex 267.112579 -39.586620 112.899483
   vertex 268.986420 -39.767147 112.627403
   vertex 267.601349 -40.140652 112.064476
  endloop
 endfacet
 facet normal 0.000000 0.833264 -0.552875
  outer loop
   vertex 268.497650 -39.213116 113.462410
   vertex 268.986420 -39.767147 112.627403
   vertex 267.112579 -39.586620 112.899483
  endloop
 endfacet
 facet normal 0.898798 0.242359 0.365273
  outer loop
   vertex 268.019287 -57.982388 124.557747
   vertex 268.019287 -57.690746 124.364243
   vertex 267.800110 -57.442287 124.738701
  endloop
 endfacet
 facet normal -0.898798 -0.242359 -0.365273
  outer loop
   vertex 267.800110 -57.442287 124.738701
   vertex 268.019287 -57.690746 124.364243
   vertex 267.909698 -57.712337 124.648224
  endloop
 endfacet
 facet normal -0.898800 -0.242363 -0.365265
  outer loop
   vertex 267.909698 -57.712337 124.648224
   vertex 267.800110 -57.733929 124.932213
   vertex 267.800110 -57.442287 124.738701
  endloop
 endfacet
 facet normal -0.898800 -0.242363 -0.365265
  outer loop
   vertex 268.019287 -57.982388 124.557747
   vertex 267.800110 -57.733929 124.932213
   vertex 267.909698 -57.712337 124.648224
  endloop
 endfacet
 facet normal 0.000001 -0.833265 0.552874
  outer loop
   vertex 268.698914 -57.491558 125.297501
   vertex 267.800110 -57.733929 124.932213
   vertex 268.019287 -57.982388 124.557747
  endloop
 endfacet
 facet normal 0.000001 -0.833265 0.552874
  outer loop
   vertex 268.019287 -57.982388 124.557747
   vertex 268.918091 -57.740017 124.923035
   vertex 268.698914 -57.491558 125.297501
  endloop
 endfacet
 facet normal 0.898800 0.242358 0.365269
  outer loop
   vertex 268.698914 -57.491558 125.297501
   vertex 268.918091 -57.740017 124.923035
   vertex 268.698914 -56.075008 124.357613
  endloop
 endfacet
 facet normal 0.898800 0.242358 0.365269
  outer loop
   vertex 268.698914 -56.075008 124.357613
   vertex 268.918091 -57.740017 124.923035
   vertex 268.918091 -56.323467 123.983147
  endloop
 endfacet
 facet normal -0.000001 0.833265 -0.552874
  outer loop
   vertex 268.918091 -56.323467 123.983147
   vertex 268.019318 -56.565838 123.617859
   vertex 268.698914 -56.075008 124.357613
  endloop
 endfacet
 facet normal 0.438388 -0.496931 -0.748916
  outer loop
   vertex 268.243988 -56.852707 123.939720
   vertex 268.019318 -56.565838 123.617859
   vertex 268.918091 -56.323467 123.983147
  endloop
 endfacet
 facet normal 0.438427 -0.496899 -0.748915
  outer loop
   vertex 268.019318 -56.857483 123.811363
   vertex 268.019318 -56.565838 123.617859
   vertex 268.243988 -56.852707 123.939720
  endloop
 endfacet
 facet normal -0.438381 0.496910 0.748934
  outer loop
   vertex 268.024811 -39.399338 112.898651
   vertex 267.800110 -39.807392 113.037865
   vertex 268.698914 -39.565022 113.403160
  endloop
 endfacet
 facet normal -0.000003 -0.833266 0.552872
  outer loop
   vertex 268.698914 -39.565022 113.403160
   vertex 267.800110 -39.807392 113.037865
   vertex 268.918091 -39.813480 113.028694
  endloop
 endfacet
 facet normal 0.898800 0.242358 0.365269
  outer loop
   vertex 268.918091 -39.813480 113.028694
   vertex 268.698914 -38.148472 112.463272
   vertex 268.698914 -39.565022 113.403160
  endloop
 endfacet
 facet normal 0.898776 0.242371 0.365319
  outer loop
   vertex 268.918121 -38.396931 112.088806
   vertex 268.698914 -38.148472 112.463272
   vertex 268.918091 -39.813480 113.028694
  endloop
 endfacet
 facet normal -0.000001 0.833265 -0.552874
  outer loop
   vertex 267.800140 -38.390842 112.097984
   vertex 268.698914 -38.148472 112.463272
   vertex 268.918121 -38.396931 112.088806
  endloop
 endfacet
 facet normal -0.000001 0.833265 -0.552874
  outer loop
   vertex 268.918121 -38.396931 112.088806
   vertex 268.019318 -38.639301 111.723518
   vertex 267.800140 -38.390842 112.097984
  endloop
 endfacet
 facet normal -0.898800 -0.242350 -0.365274
  outer loop
   vertex 267.800140 -38.390842 112.097984
   vertex 268.019318 -38.639301 111.723518
   vertex 267.909729 -38.660892 112.007500
  endloop
 endfacet
 facet normal -0.898798 -0.242359 -0.365273
  outer loop
   vertex 267.909729 -38.660892 112.007500
   vertex 268.019318 -38.639301 111.723518
   vertex 268.019318 -38.930943 111.917023
  endloop
 endfacet
 facet normal -0.898800 -0.242363 -0.365265
  outer loop
   vertex 268.019318 -38.930943 111.917023
   vertex 267.800140 -38.682484 112.291489
   vertex 267.909729 -38.660892 112.007500
  endloop
 endfacet
 facet normal 0.898800 0.242357 0.365269
  outer loop
   vertex 267.800140 -38.390842 112.097984
   vertex 267.800140 -38.682484 112.291489
   vertex 268.019318 -38.930943 111.917023
  endloop
 endfacet
 facet normal -0.898803 -0.242354 -0.365265
  outer loop
   vertex 267.909729 -38.660892 112.007500
   vertex 267.800140 -38.682484 112.291489
   vertex 267.800140 -38.390842 112.097984
  endloop
 endfacet
 facet normal -0.898740 -0.242424 -0.365372
  outer loop
   vertex 266.560242 -41.933029 112.486877
   vertex 266.608307 -41.987495 112.404785
   vertex 266.608276 -56.053375 121.737556
  endloop
 endfacet
 facet normal 0.438417 -0.496909 -0.748914
  outer loop
   vertex 266.608276 -56.053375 121.737556
   vertex 266.608307 -41.987495 112.404785
   vertex 266.736206 -41.953003 112.456772
  endloop
 endfacet
 facet normal 0.438381 -0.496918 -0.748929
  outer loop
   vertex 266.736206 -41.953003 112.456772
   vertex 266.736206 -56.018879 121.789551
   vertex 266.608276 -56.053375 121.737556
  endloop
 endfacet
 facet normal 0.996236 0.047927 0.072233
  outer loop
   vertex 266.733093 -41.933224 112.486580
   vertex 266.736206 -56.018879 121.789551
   vertex 266.736206 -41.953003 112.456772
  endloop
 endfacet
 facet normal 0.996236 0.047927 0.072233
  outer loop
   vertex 266.733093 -55.999100 121.819359
   vertex 266.736206 -56.018879 121.789551
   vertex 266.733093 -41.933224 112.486580
  endloop
 endfacet
 facet normal 0.438379 -0.496919 -0.748930
  outer loop
   vertex 266.733093 -41.933224 112.486580
   vertex 267.284546 -41.784519 112.710701
   vertex 266.733093 -55.999100 121.819359
  endloop
 endfacet
 facet normal 0.438387 -0.496917 -0.748926
  outer loop
   vertex 266.733093 -55.999100 121.819359
   vertex 267.284546 -41.784519 112.710701
   vertex 267.284515 -55.850399 122.043472
  endloop
 endfacet
 facet normal -0.682123 -0.404282 -0.609315
  outer loop
   vertex 267.284515 -55.850399 122.043472
   vertex 267.284546 -41.784519 112.710701
   vertex 267.310791 -41.798054 112.690300
  endloop
 endfacet
 facet normal -0.681699 -0.404501 -0.609644
  outer loop
   vertex 267.310791 -41.798054 112.690300
   vertex 267.310791 -55.863934 122.023071
   vertex 267.284515 -55.850399 122.043472
  endloop
 endfacet
 facet normal 0.438321 -0.496934 -0.748953
  outer loop
   vertex 267.374268 -41.780941 112.716095
   vertex 267.310791 -55.863934 122.023071
   vertex 267.310791 -41.798054 112.690300
  endloop
 endfacet
 facet normal 0.438418 -0.496908 -0.748914
  outer loop
   vertex 267.374268 -55.846817 122.048874
   vertex 267.310791 -55.863934 122.023071
   vertex 267.374268 -41.780941 112.716095
  endloop
 endfacet
 facet normal 0.898794 0.242365 0.365280
  outer loop
   vertex 267.374268 -41.780941 112.716095
   vertex 266.686035 -41.000790 113.891899
   vertex 267.374268 -55.846817 122.048874
  endloop
 endfacet
 facet normal 0.898785 0.242373 0.365295
  outer loop
   vertex 267.374268 -55.846817 122.048874
   vertex 266.686035 -41.000790 113.891899
   vertex 266.686005 -55.066666 123.224670
  endloop
 endfacet
 facet normal -0.438346 0.496928 0.748943
  outer loop
   vertex 266.686005 -55.066666 123.224670
   vertex 266.686035 -41.000790 113.891899
   vertex 266.622528 -55.083782 123.198875
  endloop
 endfacet
 facet normal -0.438376 0.496915 0.748934
  outer loop
   vertex 268.024811 -56.604248 124.314186
   vertex 268.698914 -56.075008 124.357613
   vertex 267.800110 -56.317379 123.992325
  endloop
 endfacet
 facet normal -0.000001 0.833265 -0.552874
  outer loop
   vertex 267.800110 -56.317379 123.992325
   vertex 268.698914 -56.075008 124.357613
   vertex 268.019318 -56.565838 123.617859
  endloop
 endfacet
 facet normal -0.898776 -0.242382 -0.365312
  outer loop
   vertex 268.019318 -56.565838 123.617859
   vertex 267.800110 -56.609024 124.185829
   vertex 267.800110 -56.317379 123.992325
  endloop
 endfacet
 facet normal -0.898776 -0.242382 -0.365312
  outer loop
   vertex 268.019318 -56.857483 123.811363
   vertex 267.800110 -56.609024 124.185829
   vertex 268.019318 -56.565838 123.617859
  endloop
 endfacet
 facet normal 0.898776 0.242382 0.365312
  outer loop
   vertex 268.019318 -56.565838 123.617859
   vertex 267.800110 -56.609024 124.185829
   vertex 268.019318 -56.857483 123.811363
  endloop
 endfacet
 facet normal 0.438363 -0.496917 -0.748941
  outer loop
   vertex 268.019318 -56.857483 123.811363
   vertex 267.794617 -56.973892 123.757080
   vertex 268.019318 -56.565838 123.617859
  endloop
 endfacet
 facet normal 0.438377 -0.496921 -0.748929
  outer loop
   vertex 268.019318 -56.565838 123.617859
   vertex 267.794617 -56.973892 123.757080
   vertex 267.637329 -56.763737 123.525574
  endloop
 endfacet
 facet normal 0.438376 -0.496922 -0.748929
  outer loop
   vertex 267.637329 -56.763737 123.525574
   vertex 267.794617 -56.973892 123.757080
   vertex 267.630127 -57.170746 123.791412
  endloop
 endfacet
 facet normal 0.438400 -0.496916 -0.748920
  outer loop
   vertex 267.630127 -57.170746 123.791412
   vertex 267.357697 -57.098392 123.583931
   vertex 267.637329 -56.763737 123.525574
  endloop
 endfacet
 facet normal 0.438399 -0.496916 -0.748919
  outer loop
   vertex 267.569916 -57.395298 123.905159
   vertex 267.357697 -57.098392 123.583931
   vertex 267.630127 -57.170746 123.791412
  endloop
 endfacet
 facet normal 0.438390 -0.496924 -0.748920
  outer loop
   vertex 267.255341 -57.480129 123.777306
   vertex 267.357697 -57.098392 123.583931
   vertex 267.569916 -57.395298 123.905159
  endloop
 endfacet
 facet normal 0.438390 -0.496908 -0.748930
  outer loop
   vertex 267.569916 -57.395298 123.905159
   vertex 267.630127 -57.587379 124.067848
   vertex 267.255341 -57.480129 123.777306
  endloop
 endfacet
 facet normal 0.438386 -0.496916 -0.748928
  outer loop
   vertex 267.255341 -57.480129 123.777306
   vertex 267.630127 -57.587379 124.067848
   vertex 267.357697 -57.806667 124.053879
  endloop
 endfacet
 facet normal 0.438386 -0.496916 -0.748928
  outer loop
   vertex 267.357697 -57.806667 124.053879
   vertex 267.630127 -57.587379 124.067848
   vertex 267.794617 -57.695522 124.235886
  endloop
 endfacet
 facet normal 0.438386 -0.496915 -0.748928
  outer loop
   vertex 267.794617 -57.695522 124.235886
   vertex 267.637329 -57.990505 124.339539
   vertex 267.357697 -57.806667 124.053879
  endloop
 endfacet
 facet normal 0.438420 -0.496924 -0.748902
  outer loop
   vertex 268.019287 -57.690746 124.364243
   vertex 267.637329 -57.990505 124.339539
   vertex 267.794617 -57.695522 124.235886
  endloop
 endfacet
 facet normal 0.438409 -0.496908 -0.748919
  outer loop
   vertex 268.019287 -57.982388 124.557747
   vertex 267.637329 -57.990505 124.339539
   vertex 268.019287 -57.690746 124.364243
  endloop
 endfacet
 facet normal 0.438364 -0.496921 -0.748937
  outer loop
   vertex 268.019287 -57.690746 124.364243
   vertex 268.243988 -57.574337 124.418526
   vertex 268.019287 -57.982388 124.557747
  endloop
 endfacet
 facet normal 0.438376 -0.496924 -0.748928
  outer loop
   vertex 268.019287 -57.982388 124.557747
   vertex 268.243988 -57.574337 124.418526
   vertex 268.918091 -57.740017 124.923035
  endloop
 endfacet
 facet normal 0.438380 -0.496916 -0.748931
  outer loop
   vertex 268.918091 -57.740017 124.923035
   vertex 268.243988 -57.574337 124.418526
   vertex 268.408478 -57.377480 124.384193
  endloop
 endfacet
 facet normal 0.438380 -0.496917 -0.748931
  outer loop
   vertex 268.408478 -57.377480 124.384193
   vertex 268.468689 -57.152927 124.270447
   vertex 268.918091 -57.740017 124.923035
  endloop
 endfacet
 facet normal 0.438388 -0.496924 -0.748921
  outer loop
   vertex 268.244019 -39.647797 112.524185
   vertex 268.918091 -39.813480 113.028694
   vertex 268.019318 -40.055851 112.663406
  endloop
 endfacet
 facet normal -0.000003 -0.833261 0.552880
  outer loop
   vertex 268.019318 -40.055851 112.663406
   vertex 268.918091 -39.813480 113.028694
   vertex 267.800110 -39.807392 113.037865
  endloop
 endfacet
 facet normal -0.898774 -0.242391 -0.365312
  outer loop
   vertex 267.800110 -39.807392 113.037865
   vertex 268.019318 -39.764206 112.469894
   vertex 268.019318 -40.055851 112.663406
  endloop
 endfacet
 facet normal -0.898800 -0.242289 -0.365314
  outer loop
   vertex 267.800140 -39.515747 112.844360
   vertex 268.019318 -39.764206 112.469894
   vertex 267.800110 -39.807392 113.037865
  endloop
 endfacet
 facet normal 0.898800 0.242289 0.365314
  outer loop
   vertex 267.800110 -39.807392 113.037865
   vertex 268.019318 -39.764206 112.469894
   vertex 267.800140 -39.515747 112.844360
  endloop
 endfacet
 facet normal -0.438370 0.496947 0.748917
  outer loop
   vertex 267.800140 -39.515747 112.844360
   vertex 267.575439 -39.520523 112.716003
   vertex 267.800110 -39.807392 113.037865
  endloop
 endfacet
 facet normal -0.438403 0.496919 0.748915
  outer loop
   vertex 267.800110 -39.807392 113.037865
   vertex 267.575439 -39.520523 112.716003
   vertex 267.418152 -39.815506 112.819656
  endloop
 endfacet
 facet normal -0.438387 0.496915 0.748928
  outer loop
   vertex 267.418152 -39.815506 112.819656
   vertex 267.575439 -39.520523 112.716003
   vertex 267.410950 -39.412380 112.547966
  endloop
 endfacet
 facet normal -0.438386 0.496915 0.748928
  outer loop
   vertex 267.410950 -39.412380 112.547966
   vertex 267.138519 -39.631668 112.533997
   vertex 267.418152 -39.815506 112.819656
  endloop
 endfacet
 facet normal -0.438387 0.496916 0.748927
  outer loop
   vertex 267.350739 -39.220303 112.385277
   vertex 267.138519 -39.631668 112.533997
   vertex 267.410950 -39.412380 112.547966
  endloop
 endfacet
 facet normal -0.438370 0.496912 0.748939
  outer loop
   vertex 267.036163 -39.305130 112.257431
   vertex 267.138519 -39.631668 112.533997
   vertex 267.350739 -39.220303 112.385277
  endloop
 endfacet
 facet normal -0.438370 0.496917 0.748936
  outer loop
   vertex 267.350739 -39.220303 112.385277
   vertex 267.410950 -38.995750 112.271530
   vertex 267.036163 -39.305130 112.257431
  endloop
 endfacet
 facet normal -0.438376 0.496924 0.748928
  outer loop
   vertex 267.036163 -39.305130 112.257431
   vertex 267.410950 -38.995750 112.271530
   vertex 267.138519 -38.923393 112.064056
  endloop
 endfacet
 facet normal -0.438380 0.496916 0.748931
  outer loop
   vertex 267.138519 -38.923393 112.064056
   vertex 267.410950 -38.995750 112.271530
   vertex 267.575439 -38.798893 112.237198
  endloop
 endfacet
 facet normal -0.438380 0.496918 0.748929
  outer loop
   vertex 267.575439 -38.798893 112.237198
   vertex 267.418152 -38.588737 112.005692
   vertex 267.138519 -38.923393 112.064056
  endloop
 endfacet
 facet normal -0.438385 0.496915 0.748929
  outer loop
   vertex 267.800140 -38.682484 112.291489
   vertex 267.418152 -38.588737 112.005692
   vertex 267.575439 -38.798893 112.237198
  endloop
 endfacet
 facet normal -0.438384 0.496915 0.748929
  outer loop
   vertex 267.800140 -38.390842 112.097984
   vertex 267.418152 -38.588737 112.005692
   vertex 267.800140 -38.682484 112.291489
  endloop
 endfacet
 facet normal -0.438426 0.496904 0.748912
  outer loop
   vertex 267.800140 -38.682484 112.291489
   vertex 268.024811 -38.677708 112.419846
   vertex 267.800140 -38.390842 112.097984
  endloop
 endfacet
 facet normal -0.438388 0.496935 0.748913
  outer loop
   vertex 267.800140 -38.390842 112.097984
   vertex 268.024811 -38.677708 112.419846
   vertex 268.698914 -38.148472 112.463272
  endloop
 endfacet
 facet normal -0.438380 0.496923 0.748926
  outer loop
   vertex 268.698914 -38.148472 112.463272
   vertex 268.024811 -38.677708 112.419846
   vertex 268.189301 -38.785851 112.587883
  endloop
 endfacet
 facet normal -0.438371 0.496918 0.748935
  outer loop
   vertex 268.189301 -38.785851 112.587883
   vertex 268.249512 -38.977932 112.750572
   vertex 268.698914 -38.148472 112.463272
  endloop
 endfacet
 facet normal 0.799618 -0.332007 -0.500382
  outer loop
   vertex 267.406677 -41.529869 112.506348
   vertex 267.738037 -41.285927 112.874008
   vertex 267.406677 -42.495384 113.146973
  endloop
 endfacet
 facet normal 0.799618 -0.332007 -0.500382
  outer loop
   vertex 267.406677 -42.495384 113.146973
   vertex 267.738037 -41.285927 112.874008
   vertex 267.738037 -42.251442 113.514633
  endloop
 endfacet
 facet normal -0.000006 -0.833264 0.552875
  outer loop
   vertex 267.738037 -42.251442 113.514633
   vertex 267.229340 -41.674805 114.383705
   vertex 267.406677 -42.495384 113.146973
  endloop
 endfacet
 facet normal 0.898792 0.242366 0.365282
  outer loop
   vertex 267.738037 -41.285927 112.874008
   vertex 267.229340 -41.674805 114.383705
   vertex 267.738037 -42.251442 113.514633
  endloop
 endfacet
 facet normal 0.898792 0.242366 0.365282
  outer loop
   vertex 267.229340 -40.709290 113.743080
   vertex 267.229340 -41.674805 114.383705
   vertex 267.738037 -41.285927 112.874008
  endloop
 endfacet
 facet normal -0.000001 0.833262 -0.552878
  outer loop
   vertex 267.738037 -41.285927 112.874008
   vertex 266.677612 -40.703484 113.751831
   vertex 267.229340 -40.709290 113.743080
  endloop
 endfacet
 facet normal 0.019031 0.552775 0.833113
  outer loop
   vertex 267.229340 -40.709290 113.743080
   vertex 266.677612 -40.703484 113.751831
   vertex 267.229340 -41.674805 114.383705
  endloop
 endfacet
 facet normal 0.019031 0.552775 0.833113
  outer loop
   vertex 267.229340 -41.674805 114.383705
   vertex 266.677612 -40.703484 113.751831
   vertex 266.677612 -41.668999 114.392456
  endloop
 endfacet
 facet normal 0.000000 -0.833264 0.552876
  outer loop
   vertex 266.677612 -41.668999 114.392456
   vertex 267.406677 -42.495384 113.146973
   vertex 267.229340 -41.674805 114.383705
  endloop
 endfacet
 facet normal 0.000003 -0.833263 0.552877
  outer loop
   vertex 266.039398 -41.987350 113.912659
   vertex 267.406677 -42.495384 113.146973
   vertex 266.677612 -41.668999 114.392456
  endloop
 endfacet
 facet normal 0.000002 -0.833264 0.552875
  outer loop
   vertex 266.559998 -42.577454 113.023285
   vertex 267.406677 -42.495384 113.146973
   vertex 266.039398 -41.987350 113.912659
  endloop
 endfacet
 facet normal -0.898786 -0.242373 -0.365293
  outer loop
   vertex 266.039398 -41.987350 113.912659
   vertex 266.559998 -41.611935 112.382660
   vertex 266.559998 -42.577454 113.023285
  endloop
 endfacet
 facet normal -0.566117 0.455748 0.686881
  outer loop
   vertex 266.559998 -42.577454 113.023285
   vertex 266.559998 -41.611935 112.382660
   vertex 266.477753 -42.608681 112.976219
  endloop
 endfacet
 facet normal -0.566132 0.455744 0.686872
  outer loop
   vertex 266.477753 -42.608681 112.976219
   vertex 266.559998 -41.611935 112.382660
   vertex 266.477753 -41.643166 112.335594
  endloop
 endfacet
 facet normal -0.898830 -0.242324 -0.365217
  outer loop
   vertex 266.477753 -41.643166 112.335594
   vertex 266.547424 -42.687672 112.857162
   vertex 266.477753 -42.608681 112.976219
  endloop
 endfacet
 facet normal -0.898830 -0.242324 -0.365217
  outer loop
   vertex 266.547424 -41.722157 112.216537
   vertex 266.547424 -42.687672 112.857162
   vertex 266.477753 -41.643166 112.335594
  endloop
 endfacet
 facet normal -0.201566 -0.541528 -0.816161
  outer loop
   vertex 266.650208 -41.733852 112.198914
   vertex 266.547424 -42.687672 112.857162
   vertex 266.547424 -41.722157 112.216537
  endloop
 endfacet
 facet normal 0.000020 0.833266 -0.552872
  outer loop
   vertex 266.547424 -41.722157 112.216537
   vertex 266.559998 -41.611935 112.382660
   vertex 266.650208 -41.733852 112.198914
  endloop
 endfacet
 facet normal 0.000002 0.833262 -0.552878
  outer loop
   vertex 266.650208 -41.733852 112.198914
   vertex 266.559998 -41.611935 112.382660
   vertex 267.406677 -41.529869 112.506348
  endloop
 endfacet
 facet normal 0.000001 0.833267 -0.552872
  outer loop
   vertex 267.406677 -41.529869 112.506348
   vertex 266.559998 -41.611935 112.382660
   vertex 266.039398 -41.021835 113.272034
  endloop
 endfacet
 facet normal -0.000003 0.833263 -0.552877
  outer loop
   vertex 266.039398 -41.021835 113.272034
   vertex 266.677612 -40.703484 113.751831
   vertex 267.406677 -41.529869 112.506348
  endloop
 endfacet
 facet normal 0.000008 0.833257 -0.552887
  outer loop
   vertex 265.921173 -40.907467 113.444397
   vertex 266.677612 -40.703484 113.751831
   vertex 266.039398 -41.021835 113.272034
  endloop
 endfacet
 facet normal -0.438382 0.496918 0.748928
  outer loop
   vertex 266.677612 -41.668999 114.392456
   vertex 266.677612 -40.703484 113.751831
   vertex 265.921173 -40.907467 113.444397
  endloop
 endfacet
 facet normal -0.438384 0.496916 0.748928
  outer loop
   vertex 265.921173 -40.907467 113.444397
   vertex 265.921173 -41.872986 114.085022
   vertex 266.677612 -41.668999 114.392456
  endloop
 endfacet
 facet normal 0.000002 -0.833262 0.552878
  outer loop
   vertex 266.677612 -41.668999 114.392456
   vertex 265.921173 -41.872986 114.085022
   vertex 266.039398 -41.987350 113.912659
  endloop
 endfacet
 facet normal -0.000005 -0.833264 0.552875
  outer loop
   vertex 266.039398 -41.987350 113.912659
   vertex 265.921173 -41.872986 114.085022
   vertex 265.874573 -41.924969 114.006676
  endloop
 endfacet
 facet normal -0.000007 -0.833266 0.552872
  outer loop
   vertex 265.874573 -41.924969 114.006676
   vertex 265.944244 -42.003963 113.887619
   vertex 266.039398 -41.987350 113.912659
  endloop
 endfacet
 facet normal -0.898833 -0.242320 -0.365213
  outer loop
   vertex 265.944244 -41.038445 113.246994
   vertex 265.944244 -42.003963 113.887619
   vertex 265.874573 -41.924969 114.006676
  endloop
 endfacet
 facet normal 0.301141 -0.527209 -0.794585
  outer loop
   vertex 266.039398 -41.987350 113.912659
   vertex 265.944244 -42.003963 113.887619
   vertex 265.944244 -41.038445 113.246994
  endloop
 endfacet
 facet normal 0.301121 -0.527214 -0.794589
  outer loop
   vertex 265.944244 -41.038445 113.246994
   vertex 266.039398 -41.021835 113.272034
   vertex 266.039398 -41.987350 113.912659
  endloop
 endfacet
 facet normal -0.898786 -0.242374 -0.365293
  outer loop
   vertex 266.039398 -41.987350 113.912659
   vertex 266.039398 -41.021835 113.272034
   vertex 266.559998 -41.611935 112.382660
  endloop
 endfacet
 facet normal 0.019036 0.552775 0.833113
  outer loop
   vertex 266.677612 -55.311268 123.444168
   vertex 267.229309 -55.317078 123.435417
   vertex 266.677612 -54.345753 122.803543
  endloop
 endfacet
 facet normal 0.019036 0.552775 0.833113
  outer loop
   vertex 266.677612 -54.345753 122.803543
   vertex 267.229309 -55.317078 123.435417
   vertex 267.229309 -54.351562 122.794792
  endloop
 endfacet
 facet normal 0.000005 0.833266 -0.552873
  outer loop
   vertex 267.229309 -54.351562 122.794792
   vertex 267.738037 -54.928196 121.925720
   vertex 266.677612 -54.345753 122.803543
  endloop
 endfacet
 facet normal 0.898782 0.242379 0.365300
  outer loop
   vertex 267.229309 -55.317078 123.435417
   vertex 267.738037 -54.928196 121.925720
   vertex 267.229309 -54.351562 122.794792
  endloop
 endfacet
 facet normal 0.898782 0.242379 0.365300
  outer loop
   vertex 267.738037 -55.893711 122.566345
   vertex 267.738037 -54.928196 121.925720
   vertex 267.229309 -55.317078 123.435417
  endloop
 endfacet
 facet normal -0.000003 -0.833265 0.552873
  outer loop
   vertex 267.229309 -55.317078 123.435417
   vertex 267.406647 -56.137653 122.198685
   vertex 267.738037 -55.893711 122.566345
  endloop
 endfacet
 facet normal 0.799591 -0.332026 -0.500412
  outer loop
   vertex 267.738037 -55.893711 122.566345
   vertex 267.406647 -56.137653 122.198685
   vertex 267.738037 -54.928196 121.925720
  endloop
 endfacet
 facet normal 0.799591 -0.332026 -0.500412
  outer loop
   vertex 267.738037 -54.928196 121.925720
   vertex 267.406647 -56.137653 122.198685
   vertex 267.406647 -55.172138 121.558060
  endloop
 endfacet
 facet normal 0.000004 0.833265 -0.552874
  outer loop
   vertex 267.406647 -55.172138 121.558060
   vertex 266.677612 -54.345753 122.803543
   vertex 267.738037 -54.928196 121.925720
  endloop
 endfacet
 facet normal -0.000002 0.833263 -0.552876
  outer loop
   vertex 266.559998 -55.254208 121.434372
   vertex 266.677612 -54.345753 122.803543
   vertex 267.406647 -55.172138 121.558060
  endloop
 endfacet
 facet normal -0.000004 0.833264 -0.552876
  outer loop
   vertex 266.039398 -54.664104 122.323746
   vertex 266.677612 -54.345753 122.803543
   vertex 266.559998 -55.254208 121.434372
  endloop
 endfacet
 facet normal -0.898786 -0.242372 -0.365294
  outer loop
   vertex 266.559998 -55.254208 121.434372
   vertex 266.039398 -55.629620 122.964363
   vertex 266.039398 -54.664104 122.323746
  endloop
 endfacet
 facet normal 0.301141 -0.527207 -0.794586
  outer loop
   vertex 266.039398 -54.664104 122.323746
   vertex 266.039398 -55.629620 122.964363
   vertex 265.944244 -54.680717 122.298706
  endloop
 endfacet
 facet normal 0.301083 -0.527221 -0.794599
  outer loop
   vertex 265.944244 -54.680717 122.298706
   vertex 266.039398 -55.629620 122.964363
   vertex 265.944244 -55.646233 122.939331
  endloop
 endfacet
 facet normal -0.898749 -0.242415 -0.365355
  outer loop
   vertex 265.944244 -55.646233 122.939331
   vertex 265.874542 -54.601723 122.417755
   vertex 265.944244 -54.680717 122.298706
  endloop
 endfacet
 facet normal -0.898749 -0.242415 -0.365355
  outer loop
   vertex 265.874542 -55.567238 123.058380
   vertex 265.874542 -54.601723 122.417755
   vertex 265.944244 -55.646233 122.939331
  endloop
 endfacet
 facet normal -0.895885 0.245634 0.370207
  outer loop
   vertex 265.921173 -55.515255 123.136734
   vertex 265.874542 -54.601723 122.417755
   vertex 265.874542 -55.567238 123.058380
  endloop
 endfacet
 facet normal -0.000028 -0.833283 0.552847
  outer loop
   vertex 265.874542 -55.567238 123.058380
   vertex 266.039398 -55.629620 122.964363
   vertex 265.921173 -55.515255 123.136734
  endloop
 endfacet
 facet normal 0.000009 -0.833271 0.552865
  outer loop
   vertex 265.921173 -55.515255 123.136734
   vertex 266.039398 -55.629620 122.964363
   vertex 266.677612 -55.311268 123.444168
  endloop
 endfacet
 facet normal -0.000003 -0.833263 0.552876
  outer loop
   vertex 266.677612 -55.311268 123.444168
   vertex 266.039398 -55.629620 122.964363
   vertex 266.559998 -56.219723 122.074997
  endloop
 endfacet
 facet normal 0.000002 -0.833263 0.552876
  outer loop
   vertex 266.559998 -56.219723 122.074997
   vertex 267.406647 -56.137653 122.198685
   vertex 266.677612 -55.311268 123.444168
  endloop
 endfacet
 facet normal 0.000001 -0.833262 0.552879
  outer loop
   vertex 266.650208 -56.341640 121.891251
   vertex 267.406647 -56.137653 122.198685
   vertex 266.559998 -56.219723 122.074997
  endloop
 endfacet
 facet normal 0.438384 -0.496918 -0.748927
  outer loop
   vertex 267.406647 -55.172138 121.558060
   vertex 267.406647 -56.137653 122.198685
   vertex 266.650208 -56.341640 121.891251
  endloop
 endfacet
 facet normal 0.438384 -0.496918 -0.748927
  outer loop
   vertex 266.650208 -56.341640 121.891251
   vertex 266.650208 -55.376125 121.250626
   vertex 267.406647 -55.172138 121.558060
  endloop
 endfacet
 facet normal -0.000001 0.833262 -0.552879
  outer loop
   vertex 267.406647 -55.172138 121.558060
   vertex 266.650208 -55.376125 121.250626
   vertex 266.559998 -55.254208 121.434372
  endloop
 endfacet
 facet normal 0.000053 0.833274 -0.552860
  outer loop
   vertex 266.559998 -55.254208 121.434372
   vertex 266.650208 -55.376125 121.250626
   vertex 266.547424 -55.364426 121.268250
  endloop
 endfacet
 facet normal -0.000002 0.833276 -0.552857
  outer loop
   vertex 266.547424 -55.364426 121.268250
   vertex 266.477722 -55.285435 121.387306
   vertex 266.559998 -55.254208 121.434372
  endloop
 endfacet
 facet normal -0.898754 -0.242410 -0.365347
  outer loop
   vertex 266.477722 -56.250950 122.027931
   vertex 266.477722 -55.285435 121.387306
   vertex 266.547424 -55.364426 121.268250
  endloop
 endfacet
 facet normal -0.565974 0.455803 0.686962
  outer loop
   vertex 266.559998 -55.254208 121.434372
   vertex 266.477722 -55.285435 121.387306
   vertex 266.477722 -56.250950 122.027931
  endloop
 endfacet
 facet normal -0.565974 0.455803 0.686962
  outer loop
   vertex 266.477722 -56.250950 122.027931
   vertex 266.559998 -56.219723 122.074997
   vertex 266.559998 -55.254208 121.434372
  endloop
 endfacet
 facet normal -0.898785 -0.242375 -0.365294
  outer loop
   vertex 266.559998 -55.254208 121.434372
   vertex 266.559998 -56.219723 122.074997
   vertex 266.039398 -55.629620 122.964363
  endloop
 endfacet
 facet normal 0.438375 -0.496927 -0.748927
  outer loop
   vertex 268.019318 -39.764206 112.469894
   vertex 268.019318 -40.055851 112.663406
   vertex 267.794617 -39.768982 112.341537
  endloop
 endfacet
 facet normal 0.438374 -0.496927 -0.748927
  outer loop
   vertex 267.794617 -39.768982 112.341537
   vertex 268.019318 -40.055851 112.663406
   vertex 267.637329 -40.063965 112.445198
  endloop
 endfacet
 facet normal 0.438358 -0.496923 -0.748939
  outer loop
   vertex 267.637329 -40.063965 112.445198
   vertex 267.630127 -39.660839 112.173508
   vertex 267.794617 -39.768982 112.341537
  endloop
 endfacet
 facet normal 0.438402 -0.496910 -0.748922
  outer loop
   vertex 267.357697 -39.880127 112.159531
   vertex 267.630127 -39.660839 112.173508
   vertex 267.637329 -40.063965 112.445198
  endloop
 endfacet
 facet normal 0.438401 -0.496909 -0.748923
  outer loop
   vertex 267.569916 -39.468761 112.010818
   vertex 267.630127 -39.660839 112.173508
   vertex 267.357697 -39.880127 112.159531
  endloop
 endfacet
 facet normal 0.438385 -0.496905 -0.748935
  outer loop
   vertex 267.357697 -39.880127 112.159531
   vertex 267.255341 -39.553589 111.882965
   vertex 267.569916 -39.468761 112.010818
  endloop
 endfacet
 facet normal 0.438385 -0.496936 -0.748915
  outer loop
   vertex 267.569916 -39.468761 112.010818
   vertex 267.255341 -39.553589 111.882965
   vertex 267.630127 -39.244209 111.897064
  endloop
 endfacet
 facet normal 0.438376 -0.496924 -0.748928
  outer loop
   vertex 267.630127 -39.244209 111.897064
   vertex 267.255341 -39.553589 111.882965
   vertex 267.357697 -39.171852 111.689590
  endloop
 endfacet
 facet normal 0.438390 -0.496896 -0.748938
  outer loop
   vertex 267.357697 -39.171852 111.689590
   vertex 267.794617 -39.047352 111.862740
   vertex 267.630127 -39.244209 111.897064
  endloop
 endfacet
 facet normal 0.438391 -0.496925 -0.748918
  outer loop
   vertex 267.637329 -38.837196 111.631226
   vertex 267.794617 -39.047352 111.862740
   vertex 267.357697 -39.171852 111.689590
  endloop
 endfacet
 facet normal 0.438371 -0.496942 -0.748919
  outer loop
   vertex 268.019318 -38.930943 111.917023
   vertex 267.794617 -39.047352 111.862740
   vertex 267.637329 -38.837196 111.631226
  endloop
 endfacet
 facet normal 0.438384 -0.496915 -0.748929
  outer loop
   vertex 267.637329 -38.837196 111.631226
   vertex 268.019318 -38.639301 111.723518
   vertex 268.019318 -38.930943 111.917023
  endloop
 endfacet
 facet normal 0.438378 -0.496917 -0.748932
  outer loop
   vertex 268.019318 -38.930943 111.917023
   vertex 268.019318 -38.639301 111.723518
   vertex 268.244019 -38.926167 112.045380
  endloop
 endfacet
 facet normal 0.438376 -0.496918 -0.748932
  outer loop
   vertex 268.244019 -38.926167 112.045380
   vertex 268.019318 -38.639301 111.723518
   vertex 268.918121 -38.396931 112.088806
  endloop
 endfacet
 facet normal 0.438380 -0.496923 -0.748926
  outer loop
   vertex 268.918121 -38.396931 112.088806
   vertex 268.408508 -39.034309 112.213417
   vertex 268.244019 -38.926167 112.045380
  endloop
 endfacet
 facet normal 0.438371 -0.496918 -0.748935
  outer loop
   vertex 268.468719 -39.226391 112.376106
   vertex 268.408508 -39.034309 112.213417
   vertex 268.918121 -38.396931 112.088806
  endloop
 endfacet
 facet normal -0.438363 0.496917 0.748941
  outer loop
   vertex 267.800110 -56.609024 124.185829
   vertex 267.800110 -56.317379 123.992325
   vertex 267.575409 -56.725433 124.131546
  endloop
 endfacet
 facet normal -0.438377 0.496921 0.748929
  outer loop
   vertex 267.575409 -56.725433 124.131546
   vertex 267.800110 -56.317379 123.992325
   vertex 267.418121 -56.515278 123.900040
  endloop
 endfacet
 facet normal -0.438394 0.496907 0.748929
  outer loop
   vertex 267.418121 -56.515278 123.900040
   vertex 267.410919 -56.922287 124.165871
   vertex 267.575409 -56.725433 124.131546
  endloop
 endfacet
 facet normal -0.438389 0.496909 0.748931
  outer loop
   vertex 267.138489 -56.849934 123.958397
   vertex 267.410919 -56.922287 124.165871
   vertex 267.418121 -56.515278 123.900040
  endloop
 endfacet
 facet normal -0.438374 0.496936 0.748921
  outer loop
   vertex 267.350708 -57.146839 124.279625
   vertex 267.410919 -56.922287 124.165871
   vertex 267.138489 -56.849934 123.958397
  endloop
 endfacet
 facet normal -0.438390 0.496924 0.748920
  outer loop
   vertex 267.138489 -56.849934 123.958397
   vertex 267.036133 -57.231670 124.151772
   vertex 267.350708 -57.146839 124.279625
  endloop
 endfacet
 facet normal -0.438390 0.496908 0.748930
  outer loop
   vertex 267.350708 -57.146839 124.279625
   vertex 267.036133 -57.231670 124.151772
   vertex 267.410919 -57.338921 124.442314
  endloop
 endfacet
 facet normal -0.438386 0.496916 0.748928
  outer loop
   vertex 267.410919 -57.338921 124.442314
   vertex 267.036133 -57.231670 124.151772
   vertex 267.138489 -57.558208 124.428345
  endloop
 endfacet
 facet normal -0.438376 0.496902 0.748943
  outer loop
   vertex 267.138489 -57.558208 124.428345
   vertex 267.575409 -57.447063 124.610344
   vertex 267.410919 -57.338921 124.442314
  endloop
 endfacet
 facet normal -0.438375 0.496927 0.748926
  outer loop
   vertex 267.418121 -57.742046 124.714005
   vertex 267.575409 -57.447063 124.610344
   vertex 267.138489 -57.558208 124.428345
  endloop
 endfacet
 facet normal -0.438375 0.496927 0.748926
  outer loop
   vertex 267.800110 -57.442287 124.738701
   vertex 267.575409 -57.447063 124.610344
   vertex 267.418121 -57.742046 124.714005
  endloop
 endfacet
 facet normal -0.438377 0.496931 0.748923
  outer loop
   vertex 267.418121 -57.742046 124.714005
   vertex 267.800110 -57.733929 124.932213
   vertex 267.800110 -57.442287 124.738701
  endloop
 endfacet
 facet normal -0.438389 0.496928 0.748918
  outer loop
   vertex 267.800110 -57.442287 124.738701
   vertex 267.800110 -57.733929 124.932213
   vertex 268.024811 -57.325878 124.792992
  endloop
 endfacet
 facet normal -0.438376 0.496924 0.748928
  outer loop
   vertex 268.024811 -57.325878 124.792992
   vertex 267.800110 -57.733929 124.932213
   vertex 268.698914 -57.491558 125.297501
  endloop
 endfacet
 facet normal -0.438380 0.496916 0.748931
  outer loop
   vertex 268.698914 -57.491558 125.297501
   vertex 268.189301 -57.129021 124.758659
   vertex 268.024811 -57.325878 124.792992
  endloop
 endfacet
 facet normal -0.438380 0.496917 0.748931
  outer loop
   vertex 268.249512 -56.904469 124.644913
   vertex 268.189301 -57.129021 124.758659
   vertex 268.698914 -57.491558 125.297501
  endloop
 endfacet
 facet normal -0.438376 0.496920 0.748931
  outer loop
   vertex 268.698914 -38.148472 112.463272
   vertex 268.249512 -38.977932 112.750572
   vertex 268.698914 -39.565022 113.403160
  endloop
 endfacet
 facet normal -0.438380 0.496917 0.748931
  outer loop
   vertex 268.698914 -39.565022 113.403160
   vertex 268.249512 -38.977932 112.750572
   vertex 268.189301 -39.202484 112.864319
  endloop
 endfacet
 facet normal -0.438376 0.496921 0.748930
  outer loop
   vertex 268.189301 -39.202484 112.864319
   vertex 268.024811 -39.399338 112.898651
   vertex 268.698914 -39.565022 113.403160
  endloop
 endfacet
 facet normal -0.438381 0.496922 0.748927
  outer loop
   vertex 268.024811 -56.604248 124.314186
   vertex 268.189301 -56.712391 124.482224
   vertex 268.698914 -56.075008 124.357613
  endloop
 endfacet
 facet normal -0.438379 0.496920 0.748929
  outer loop
   vertex 268.698914 -56.075008 124.357613
   vertex 268.189301 -56.712391 124.482224
   vertex 268.249512 -56.904469 124.644913
  endloop
 endfacet
 facet normal -0.438376 0.496920 0.748931
  outer loop
   vertex 268.249512 -56.904469 124.644913
   vertex 268.698914 -57.491558 125.297501
   vertex 268.698914 -56.075008 124.357613
  endloop
 endfacet
 facet normal 0.438376 -0.496920 -0.748931
  outer loop
   vertex 268.918091 -57.740017 124.923035
   vertex 268.468689 -57.152927 124.270447
   vertex 268.918091 -56.323467 123.983147
  endloop
 endfacet
 facet normal 0.438379 -0.496920 -0.748929
  outer loop
   vertex 268.918091 -56.323467 123.983147
   vertex 268.468689 -57.152927 124.270447
   vertex 268.408478 -56.960850 124.107758
  endloop
 endfacet
 facet normal 0.438381 -0.496922 -0.748927
  outer loop
   vertex 268.408478 -56.960850 124.107758
   vertex 268.243988 -56.852707 123.939720
   vertex 268.918091 -56.323467 123.983147
  endloop
 endfacet
 facet normal 0.438389 -0.496922 -0.748922
  outer loop
   vertex 268.244019 -39.647797 112.524185
   vertex 268.408508 -39.450939 112.489853
   vertex 268.918091 -39.813480 113.028694
  endloop
 endfacet
 facet normal 0.438388 -0.496923 -0.748922
  outer loop
   vertex 268.918091 -39.813480 113.028694
   vertex 268.408508 -39.450939 112.489853
   vertex 268.468719 -39.226391 112.376106
  endloop
 endfacet
 facet normal 0.438388 -0.496923 -0.748922
  outer loop
   vertex 268.468719 -39.226391 112.376106
   vertex 268.918121 -38.396931 112.088806
   vertex 268.918091 -39.813480 113.028694
  endloop
 endfacet
 facet normal -0.201566 -0.541528 -0.816161
  outer loop
   vertex 266.650208 -56.341640 121.891251
   vertex 266.547424 -56.329945 121.908875
   vertex 266.650208 -55.376125 121.250626
  endloop
 endfacet
 facet normal -0.201585 -0.541524 -0.816159
  outer loop
   vertex 266.650208 -55.376125 121.250626
   vertex 266.547424 -56.329945 121.908875
   vertex 266.547424 -55.364426 121.268250
  endloop
 endfacet
 facet normal -0.438379 0.496919 0.748930
  outer loop
   vertex 266.625671 -41.037682 113.836296
   vertex 266.074219 -41.186386 113.612175
   vertex 266.625641 -55.103561 123.169067
  endloop
 endfacet
 facet normal -0.438387 0.496916 0.748926
  outer loop
   vertex 266.625641 -55.103561 123.169067
   vertex 266.074219 -41.186386 113.612175
   vertex 266.074219 -55.252262 122.944954
  endloop
 endfacet
 facet normal -0.895989 0.245519 0.370032
  outer loop
   vertex 265.874573 -41.924969 114.006676
   vertex 265.921173 -41.872986 114.085022
   vertex 265.874573 -40.959454 113.366051
  endloop
 endfacet
 facet normal -0.895993 0.245514 0.370026
  outer loop
   vertex 265.874573 -40.959454 113.366051
   vertex 265.921173 -41.872986 114.085022
   vertex 265.921173 -40.907467 113.444397
  endloop
 endfacet
 facet normal -0.898798 -0.242359 -0.365273
  outer loop
   vertex 268.019287 -57.690746 124.364243
   vertex 268.019287 -57.982388 124.557747
   vertex 267.909698 -57.712337 124.648224
  endloop
 endfacet
 facet normal -0.000005 -0.833265 0.552873
  outer loop
   vertex 266.677612 -55.311268 123.444168
   vertex 267.406647 -56.137653 122.198685
   vertex 267.229309 -55.317078 123.435417
  endloop
 endfacet
 facet normal -0.438379 0.496912 0.748934
  outer loop
   vertex 267.800110 -56.317379 123.992325
   vertex 267.800110 -56.609024 124.185829
   vertex 268.024811 -56.604248 124.314186
  endloop
 endfacet
 facet normal -0.438441 0.496927 0.748888
  outer loop
   vertex 267.800140 -39.515747 112.844360
   vertex 267.800110 -39.807392 113.037865
   vertex 268.024811 -39.399338 112.898651
  endloop
 endfacet
 facet normal 0.898800 0.242363 0.365265
  outer loop
   vertex 268.019287 -57.982388 124.557747
   vertex 267.800110 -57.442287 124.738701
   vertex 267.800110 -57.733929 124.932213
  endloop
 endfacet
 facet normal 0.438384 -0.496917 -0.748928
  outer loop
   vertex 267.601349 -41.514004 112.975700
   vertex 267.601349 -40.140652 112.064476
   vertex 268.986420 -39.767147 112.627403
  endloop
 endfacet
 facet normal -0.438384 0.496917 0.748928
  outer loop
   vertex 268.497650 -54.783836 123.793655
   vertex 267.112579 -55.157341 123.230728
   vertex 268.497650 -56.157188 124.704880
  endloop
 endfacet
 facet normal 0.898800 0.242357 0.365269
  outer loop
   vertex 267.800140 -38.390842 112.097984
   vertex 268.019318 -38.930943 111.917023
   vertex 268.019318 -38.639301 111.723518
  endloop
 endfacet
 facet normal -0.000031 0.833268 -0.552869
  outer loop
   vertex 266.547424 -41.722157 112.216537
   vertex 266.477753 -41.643166 112.335594
   vertex 266.559998 -41.611935 112.382660
  endloop
 endfacet
 facet normal 0.898776 0.242382 0.365312
  outer loop
   vertex 267.800110 -56.609024 124.185829
   vertex 268.019318 -56.565838 123.617859
   vertex 267.800110 -56.317379 123.992325
  endloop
 endfacet
 facet normal 0.000004 0.833265 -0.552874
  outer loop
   vertex 267.406677 -41.529869 112.506348
   vertex 266.677612 -40.703484 113.751831
   vertex 267.738037 -41.285927 112.874008
  endloop
 endfacet
 facet normal 0.000023 -0.833242 0.552909
  outer loop
   vertex 265.874542 -55.567238 123.058380
   vertex 265.944244 -55.646233 122.939331
   vertex 266.039398 -55.629620 122.964363
  endloop
 endfacet
 facet normal 0.438385 -0.496915 -0.748928
  outer loop
   vertex 267.601349 -55.711372 122.395721
   vertex 268.986420 -55.337864 122.958649
   vertex 268.986420 -56.711220 123.869873
  endloop
 endfacet
 facet normal -0.000000 -0.833264 0.552875
  outer loop
   vertex 268.986420 -41.140499 113.538628
   vertex 268.497650 -40.586468 114.373634
   vertex 267.112579 -40.959972 113.810707
  endloop
 endfacet
 facet normal 0.898774 0.242391 0.365312
  outer loop
   vertex 268.019318 -39.764206 112.469894
   vertex 267.800110 -39.807392 113.037865
   vertex 268.019318 -40.055851 112.663406
  endloop
 endfacet
 facet normal 0.438387 -0.496924 -0.748922
  outer loop
   vertex 268.019318 -40.055851 112.663406
   vertex 268.019318 -39.764206 112.469894
   vertex 268.244019 -39.647797 112.524185
  endloop
 endfacet
 facet normal -0.635534 0.417816 -0.649251
  outer loop
   vertex 268.408508 -39.450939 112.489853
   vertex 268.024811 -39.399338 112.898651
   vertex 268.189301 -39.202484 112.864319
  endloop
 endfacet
 facet normal -0.868147 -0.018446 -0.495964
  outer loop
   vertex 268.408508 -39.450939 112.489853
   vertex 268.189301 -39.202484 112.864319
   vertex 268.468719 -39.226391 112.376106
  endloop
 endfacet
 facet normal -0.868147 -0.018446 -0.495964
  outer loop
   vertex 268.468719 -39.226391 112.376106
   vertex 268.189301 -39.202484 112.864319
   vertex 268.249512 -38.977932 112.750572
  endloop
 endfacet
 facet normal -0.868148 -0.449799 -0.209761
  outer loop
   vertex 268.249512 -38.977932 112.750572
   vertex 268.408508 -39.034309 112.213417
   vertex 268.468719 -39.226391 112.376106
  endloop
 endfacet
 facet normal -0.868148 -0.449799 -0.209761
  outer loop
   vertex 268.189301 -38.785851 112.587883
   vertex 268.408508 -39.034309 112.213417
   vertex 268.249512 -38.977932 112.750572
  endloop
 endfacet
 facet normal -0.635534 -0.760597 0.132624
  outer loop
   vertex 268.244019 -38.926167 112.045380
   vertex 268.408508 -39.034309 112.213417
   vertex 268.189301 -38.785851 112.587883
  endloop
 endfacet
 facet normal -0.635534 -0.760597 0.132624
  outer loop
   vertex 268.189301 -38.785851 112.587883
   vertex 268.024811 -38.677708 112.419846
   vertex 268.244019 -38.926167 112.045380
  endloop
 endfacet
 facet normal -0.232611 -0.867606 0.439490
  outer loop
   vertex 268.244019 -38.926167 112.045380
   vertex 268.024811 -38.677708 112.419846
   vertex 268.019318 -38.930943 111.917023
  endloop
 endfacet
 facet normal -0.232624 0.742141 -0.628581
  outer loop
   vertex 268.019287 -57.690746 124.364243
   vertex 267.800110 -57.442287 124.738701
   vertex 268.243988 -57.574337 124.418526
  endloop
 endfacet
 facet normal -0.232612 0.742154 -0.628570
  outer loop
   vertex 268.243988 -57.574337 124.418526
   vertex 267.800110 -57.442287 124.738701
   vertex 268.024811 -57.325878 124.792992
  endloop
 endfacet
 facet normal -0.635553 0.417829 -0.649223
  outer loop
   vertex 268.024811 -57.325878 124.792992
   vertex 268.408478 -57.377480 124.384193
   vertex 268.243988 -57.574337 124.418526
  endloop
 endfacet
 facet normal -0.635553 0.417829 -0.649223
  outer loop
   vertex 268.189301 -57.129021 124.758659
   vertex 268.408478 -57.377480 124.384193
   vertex 268.024811 -57.325878 124.792992
  endloop
 endfacet
 facet normal -0.868170 -0.018420 -0.495924
  outer loop
   vertex 268.468689 -57.152927 124.270447
   vertex 268.408478 -57.377480 124.384193
   vertex 268.189301 -57.129021 124.758659
  endloop
 endfacet
 facet normal -0.868170 -0.018420 -0.495924
  outer loop
   vertex 268.189301 -57.129021 124.758659
   vertex 268.249512 -56.904469 124.644913
   vertex 268.468689 -57.152927 124.270447
  endloop
 endfacet
 facet normal -0.868170 -0.449778 -0.209717
  outer loop
   vertex 268.468689 -57.152927 124.270447
   vertex 268.249512 -56.904469 124.644913
   vertex 268.408478 -56.960850 124.107758
  endloop
 endfacet
 facet normal -0.868170 -0.449778 -0.209717
  outer loop
   vertex 268.408478 -56.960850 124.107758
   vertex 268.249512 -56.904469 124.644913
   vertex 268.189301 -56.712391 124.482224
  endloop
 endfacet
 facet normal -0.635551 -0.760578 0.132653
  outer loop
   vertex 268.189301 -56.712391 124.482224
   vertex 268.243988 -56.852707 123.939720
   vertex 268.408478 -56.960850 124.107758
  endloop
 endfacet
 facet normal -0.232626 -0.867603 0.439489
  outer loop
   vertex 268.019318 -40.055851 112.663406
   vertex 267.800110 -39.807392 113.037865
   vertex 267.637329 -40.063965 112.445198
  endloop
 endfacet
 facet normal -0.232646 -0.867596 0.439491
  outer loop
   vertex 267.637329 -40.063965 112.445198
   vertex 267.800110 -39.807392 113.037865
   vertex 267.418152 -39.815506 112.819656
  endloop
 endfacet
 facet normal -0.635547 -0.760580 0.132659
  outer loop
   vertex 267.418152 -39.815506 112.819656
   vertex 267.357697 -39.880127 112.159531
   vertex 267.637329 -40.063965 112.445198
  endloop
 endfacet
 facet normal -0.635545 -0.760582 0.132659
  outer loop
   vertex 267.138519 -39.631668 112.533997
   vertex 267.357697 -39.880127 112.159531
   vertex 267.418152 -39.815506 112.819656
  endloop
 endfacet
 facet normal -0.868173 -0.449766 -0.209726
  outer loop
   vertex 267.255341 -39.553589 111.882965
   vertex 267.357697 -39.880127 112.159531
   vertex 267.138519 -39.631668 112.533997
  endloop
 endfacet
 facet normal -0.868173 -0.449766 -0.209726
  outer loop
   vertex 267.138519 -39.631668 112.533997
   vertex 267.036163 -39.305130 112.257431
   vertex 267.255341 -39.553589 111.882965
  endloop
 endfacet
 facet normal -0.868173 -0.018430 -0.495919
  outer loop
   vertex 267.255341 -39.553589 111.882965
   vertex 267.036163 -39.305130 112.257431
   vertex 267.357697 -39.171852 111.689590
  endloop
 endfacet
 facet normal -0.868173 -0.018430 -0.495919
  outer loop
   vertex 267.357697 -39.171852 111.689590
   vertex 267.036163 -39.305130 112.257431
   vertex 267.138519 -38.923393 112.064056
  endloop
 endfacet
 facet normal -0.635552 0.417830 -0.649224
  outer loop
   vertex 267.138519 -38.923393 112.064056
   vertex 267.637329 -38.837196 111.631226
   vertex 267.357697 -39.171852 111.689590
  endloop
 endfacet
 facet normal -0.635552 0.417830 -0.649224
  outer loop
   vertex 267.418152 -38.588737 112.005692
   vertex 267.637329 -38.837196 111.631226
   vertex 267.138519 -38.923393 112.064056
  endloop
 endfacet
 facet normal -0.232614 0.742153 -0.628570
  outer loop
   vertex 268.019318 -38.639301 111.723518
   vertex 267.637329 -38.837196 111.631226
   vertex 267.418152 -38.588737 112.005692
  endloop
 endfacet
 facet normal -0.232614 0.742153 -0.628570
  outer loop
   vertex 267.418152 -38.588737 112.005692
   vertex 267.800140 -38.390842 112.097984
   vertex 268.019318 -38.639301 111.723518
  endloop
 endfacet
 facet normal -0.232637 -0.867599 0.439490
  outer loop
   vertex 268.019287 -57.982388 124.557747
   vertex 267.800110 -57.733929 124.932213
   vertex 267.637329 -57.990505 124.339539
  endloop
 endfacet
 facet normal -0.232617 -0.867606 0.439487
  outer loop
   vertex 267.637329 -57.990505 124.339539
   vertex 267.800110 -57.733929 124.932213
   vertex 267.418121 -57.742046 124.714005
  endloop
 endfacet
 facet normal -0.635528 -0.760601 0.132630
  outer loop
   vertex 267.418121 -57.742046 124.714005
   vertex 267.357697 -57.806667 124.053879
   vertex 267.637329 -57.990505 124.339539
  endloop
 endfacet
 facet normal -0.635528 -0.760601 0.132630
  outer loop
   vertex 267.138489 -57.558208 124.428345
   vertex 267.357697 -57.806667 124.053879
   vertex 267.418121 -57.742046 124.714005
  endloop
 endfacet
 facet normal -0.868149 -0.449795 -0.209764
  outer loop
   vertex 267.255341 -57.480129 123.777306
   vertex 267.357697 -57.806667 124.053879
   vertex 267.138489 -57.558208 124.428345
  endloop
 endfacet
 facet normal -0.868149 -0.449795 -0.209764
  outer loop
   vertex 267.138489 -57.558208 124.428345
   vertex 267.036133 -57.231670 124.151772
   vertex 267.255341 -57.480129 123.777306
  endloop
 endfacet
 facet normal -0.868150 -0.018456 -0.495959
  outer loop
   vertex 267.255341 -57.480129 123.777306
   vertex 267.036133 -57.231670 124.151772
   vertex 267.357697 -57.098392 123.583931
  endloop
 endfacet
 facet normal -0.868150 -0.018456 -0.495959
  outer loop
   vertex 267.357697 -57.098392 123.583931
   vertex 267.036133 -57.231670 124.151772
   vertex 267.138489 -56.849934 123.958397
  endloop
 endfacet
 facet normal -0.635528 0.417819 -0.649254
  outer loop
   vertex 267.138489 -56.849934 123.958397
   vertex 267.637329 -56.763737 123.525574
   vertex 267.357697 -57.098392 123.583931
  endloop
 endfacet
 facet normal -0.635528 0.417819 -0.649254
  outer loop
   vertex 267.418121 -56.515278 123.900040
   vertex 267.637329 -56.763737 123.525574
   vertex 267.138489 -56.849934 123.958397
  endloop
 endfacet
 facet normal -0.232623 0.742138 -0.628584
  outer loop
   vertex 268.019318 -56.565838 123.617859
   vertex 267.637329 -56.763737 123.525574
   vertex 267.418121 -56.515278 123.900040
  endloop
 endfacet
 facet normal -0.232623 0.742138 -0.628584
  outer loop
   vertex 267.418121 -56.515278 123.900040
   vertex 267.800110 -56.317379 123.992325
   vertex 268.019318 -56.565838 123.617859
  endloop
 endfacet
 facet normal -0.635551 -0.760578 0.132653
  outer loop
   vertex 268.189301 -56.712391 124.482224
   vertex 268.024811 -56.604248 124.314186
   vertex 268.243988 -56.852707 123.939720
  endloop
 endfacet
 facet normal -0.232617 -0.867599 0.439501
  outer loop
   vertex 268.243988 -56.852707 123.939720
   vertex 268.024811 -56.604248 124.314186
   vertex 267.800110 -56.609024 124.185829
  endloop
 endfacet
 facet normal -0.232635 -0.867606 0.439477
  outer loop
   vertex 267.800110 -56.609024 124.185829
   vertex 268.019318 -56.857483 123.811363
   vertex 268.243988 -56.852707 123.939720
  endloop
 endfacet
 facet normal 0.232622 -0.742138 0.628584
  outer loop
   vertex 267.575409 -56.725433 124.131546
   vertex 268.019318 -56.857483 123.811363
   vertex 267.800110 -56.609024 124.185829
  endloop
 endfacet
 facet normal 0.232622 -0.742138 0.628584
  outer loop
   vertex 267.794617 -56.973892 123.757080
   vertex 268.019318 -56.857483 123.811363
   vertex 267.575409 -56.725433 124.131546
  endloop
 endfacet
 facet normal 0.635520 -0.417829 0.649256
  outer loop
   vertex 267.575409 -56.725433 124.131546
   vertex 267.410919 -56.922287 124.165871
   vertex 267.794617 -56.973892 123.757080
  endloop
 endfacet
 facet normal 0.635528 -0.417809 0.649261
  outer loop
   vertex 267.794617 -56.973892 123.757080
   vertex 267.410919 -56.922287 124.165871
   vertex 267.630127 -57.170746 123.791412
  endloop
 endfacet
 facet normal 0.868147 0.018462 0.495963
  outer loop
   vertex 267.630127 -57.170746 123.791412
   vertex 267.410919 -56.922287 124.165871
   vertex 267.350708 -57.146839 124.279625
  endloop
 endfacet
 facet normal 0.868147 0.018446 0.495964
  outer loop
   vertex 267.350708 -57.146839 124.279625
   vertex 267.569916 -57.395298 123.905159
   vertex 267.630127 -57.170746 123.791412
  endloop
 endfacet
 facet normal 0.868148 0.449799 0.209761
  outer loop
   vertex 267.410919 -57.338921 124.442314
   vertex 267.569916 -57.395298 123.905159
   vertex 267.350708 -57.146839 124.279625
  endloop
 endfacet
 facet normal 0.868148 0.449799 0.209761
  outer loop
   vertex 267.630127 -57.587379 124.067848
   vertex 267.569916 -57.395298 123.905159
   vertex 267.410919 -57.338921 124.442314
  endloop
 endfacet
 facet normal 0.635532 0.760598 -0.132626
  outer loop
   vertex 267.410919 -57.338921 124.442314
   vertex 267.575409 -57.447063 124.610344
   vertex 267.630127 -57.587379 124.067848
  endloop
 endfacet
 facet normal 0.635535 0.760596 -0.132625
  outer loop
   vertex 267.630127 -57.587379 124.067848
   vertex 267.575409 -57.447063 124.610344
   vertex 267.794617 -57.695522 124.235886
  endloop
 endfacet
 facet normal 0.232614 0.867603 -0.439495
  outer loop
   vertex 267.794617 -57.695522 124.235886
   vertex 267.575409 -57.447063 124.610344
   vertex 267.800110 -57.442287 124.738701
  endloop
 endfacet
 facet normal 0.232644 0.867596 -0.439493
  outer loop
   vertex 267.800110 -57.442287 124.738701
   vertex 268.019287 -57.690746 124.364243
   vertex 267.794617 -57.695522 124.235886
  endloop
 endfacet
 facet normal -0.635536 0.417809 -0.649253
  outer loop
   vertex 268.408508 -39.450939 112.489853
   vertex 268.244019 -39.647797 112.524185
   vertex 268.024811 -39.399338 112.898651
  endloop
 endfacet
 facet normal -0.232606 0.742147 -0.628580
  outer loop
   vertex 268.024811 -39.399338 112.898651
   vertex 268.244019 -39.647797 112.524185
   vertex 268.019318 -39.764206 112.469894
  endloop
 endfacet
 facet normal -0.232636 0.742141 -0.628575
  outer loop
   vertex 268.019318 -39.764206 112.469894
   vertex 267.800140 -39.515747 112.844360
   vertex 268.024811 -39.399338 112.898651
  endloop
 endfacet
 facet normal 0.232617 0.867599 -0.439501
  outer loop
   vertex 267.794617 -39.768982 112.341537
   vertex 267.800140 -39.515747 112.844360
   vertex 268.019318 -39.764206 112.469894
  endloop
 endfacet
 facet normal 0.232617 0.867599 -0.439501
  outer loop
   vertex 267.575439 -39.520523 112.716003
   vertex 267.800140 -39.515747 112.844360
   vertex 267.794617 -39.768982 112.341537
  endloop
 endfacet
 facet normal 0.635549 0.760579 -0.132655
  outer loop
   vertex 267.794617 -39.768982 112.341537
   vertex 267.630127 -39.660839 112.173508
   vertex 267.575439 -39.520523 112.716003
  endloop
 endfacet
 facet normal 0.635552 0.760577 -0.132654
  outer loop
   vertex 267.575439 -39.520523 112.716003
   vertex 267.630127 -39.660839 112.173508
   vertex 267.410950 -39.412380 112.547966
  endloop
 endfacet
 facet normal 0.868168 0.449779 0.209719
  outer loop
   vertex 267.410950 -39.412380 112.547966
   vertex 267.630127 -39.660839 112.173508
   vertex 267.569916 -39.468761 112.010818
  endloop
 endfacet
 facet normal 0.868168 0.449779 0.209719
  outer loop
   vertex 267.569916 -39.468761 112.010818
   vertex 267.350739 -39.220303 112.385277
   vertex 267.410950 -39.412380 112.547966
  endloop
 endfacet
 facet normal 0.868171 0.018436 0.495923
  outer loop
   vertex 267.630127 -39.244209 111.897064
   vertex 267.350739 -39.220303 112.385277
   vertex 267.569916 -39.468761 112.010818
  endloop
 endfacet
 facet normal 0.868170 0.018420 0.495924
  outer loop
   vertex 267.410950 -38.995750 112.271530
   vertex 267.350739 -39.220303 112.385277
   vertex 267.630127 -39.244209 111.897064
  endloop
 endfacet
 facet normal 0.635541 -0.417843 0.649226
  outer loop
   vertex 267.630127 -39.244209 111.897064
   vertex 267.794617 -39.047352 111.862740
   vertex 267.410950 -38.995750 112.271530
  endloop
 endfacet
 facet normal 0.635549 -0.417824 0.649231
  outer loop
   vertex 267.410950 -38.995750 112.271530
   vertex 267.794617 -39.047352 111.862740
   vertex 267.575439 -38.798893 112.237198
  endloop
 endfacet
 facet normal 0.232624 -0.742141 0.628581
  outer loop
   vertex 267.575439 -38.798893 112.237198
   vertex 267.794617 -39.047352 111.862740
   vertex 268.019318 -38.930943 111.917023
  endloop
 endfacet
 facet normal 0.232612 -0.742154 0.628570
  outer loop
   vertex 268.019318 -38.930943 111.917023
   vertex 267.800140 -38.682484 112.291489
   vertex 267.575439 -38.798893 112.237198
  endloop
 endfacet
 facet normal -0.232641 -0.867599 0.439487
  outer loop
   vertex 268.024811 -38.677708 112.419846
   vertex 267.800140 -38.682484 112.291489
   vertex 268.019318 -38.930943 111.917023
  endloop
 endfacet
endsolid