solid stl file generated from DOUG
 facet normal -0.866013 -0.414539 -0.279604
  outer loop
   vertex 437.244354 -50.671993 266.087616
   vertex 437.244354 -50.391743 265.672119
   vertex 437.369659 -50.851906 265.966248
  endloop
 endfacet
 facet normal -0.865996 -0.414554 -0.279635
  outer loop
   vertex 437.369659 -50.851906 265.966248
   vertex 437.244354 -50.391743 265.672119
   vertex 437.369659 -50.571655 265.550781
  endloop
 endfacet
 facet normal -0.000000 -0.829024 -0.559213
  outer loop
   vertex 437.369659 -50.571655 265.550781
   vertex 437.620239 -50.851906 265.966248
   vertex 437.369659 -50.851906 265.966248
  endloop
 endfacet
 facet normal -0.000000 -0.829024 -0.559213
  outer loop
   vertex 437.620239 -50.571655 265.550781
   vertex 437.620239 -50.851906 265.966248
   vertex 437.369659 -50.571655 265.550781
  endloop
 endfacet
 facet normal 0.866013 -0.414529 -0.279619
  outer loop
   vertex 437.745544 -50.671993 266.087616
   vertex 437.620239 -50.851906 265.966248
   vertex 437.620239 -50.571655 265.550781
  endloop
 endfacet
 facet normal 0.865996 -0.414563 -0.279621
  outer loop
   vertex 437.620239 -50.571655 265.550781
   vertex 437.745544 -50.391743 265.672119
   vertex 437.745544 -50.671993 266.087616
  endloop
 endfacet
 facet normal 0.865996 0.414563 0.279621
  outer loop
   vertex 437.745544 -50.671993 266.087616
   vertex 437.745544 -50.391743 265.672119
   vertex 437.620239 -50.492081 266.208954
  endloop
 endfacet
 facet normal 0.866013 0.414529 0.279619
  outer loop
   vertex 437.620239 -50.492081 266.208954
   vertex 437.745544 -50.391743 265.672119
   vertex 437.620239 -50.211830 265.793488
  endloop
 endfacet
 facet normal -0.000000 0.829024 0.559213
  outer loop
   vertex 437.620239 -50.211830 265.793488
   vertex 437.369659 -50.492081 266.208954
   vertex 437.620239 -50.492081 266.208954
  endloop
 endfacet
 facet normal -0.000000 0.829024 0.559213
  outer loop
   vertex 437.369659 -50.211830 265.793488
   vertex 437.369659 -50.492081 266.208954
   vertex 437.620239 -50.211830 265.793488
  endloop
 endfacet
 facet normal -0.865996 0.414554 0.279635
  outer loop
   vertex 437.244354 -50.671993 266.087616
   vertex 437.369659 -50.492081 266.208954
   vertex 437.369659 -50.211830 265.793488
  endloop
 endfacet
 facet normal -0.866013 0.414539 0.279604
  outer loop
   vertex 437.369659 -50.211830 265.793488
   vertex 437.244354 -50.391743 265.672119
   vertex 437.244354 -50.671993 266.087616
  endloop
 endfacet
 facet normal 0.866013 -0.414529 -0.279619
  outer loop
   vertex 425.595490 -50.391743 265.672119
   vertex 425.595490 -50.671993 266.087585
   vertex 425.470184 -50.571655 265.550751
  endloop
 endfacet
 facet normal 0.865996 -0.414563 -0.279621
  outer loop
   vertex 425.470184 -50.571655 265.550751
   vertex 425.595490 -50.671993 266.087585
   vertex 425.470184 -50.851906 265.966248
  endloop
 endfacet
 facet normal 0.000000 -0.829043 -0.559185
  outer loop
   vertex 425.470184 -50.851906 265.966248
   vertex 425.219604 -50.571655 265.550751
   vertex 425.470184 -50.571655 265.550751
  endloop
 endfacet
 facet normal -0.000000 -0.829043 -0.559185
  outer loop
   vertex 425.219604 -50.851906 265.966248
   vertex 425.219604 -50.571655 265.550751
   vertex 425.470184 -50.851906 265.966248
  endloop
 endfacet
 facet normal -0.866013 -0.414539 -0.279604
  outer loop
   vertex 425.094299 -50.391743 265.672119
   vertex 425.219604 -50.571655 265.550751
   vertex 425.219604 -50.851906 265.966248
  endloop
 endfacet
 facet normal -0.865996 -0.414554 -0.279635
  outer loop
   vertex 425.219604 -50.851906 265.966248
   vertex 425.094299 -50.671993 266.087585
   vertex 425.094299 -50.391743 265.672119
  endloop
 endfacet
 facet normal -0.865996 0.414554 0.279635
  outer loop
   vertex 425.094299 -50.391743 265.672119
   vertex 425.094299 -50.671993 266.087585
   vertex 425.219604 -50.211830 265.793457
  endloop
 endfacet
 facet normal -0.866013 0.414539 0.279604
  outer loop
   vertex 425.219604 -50.211830 265.793457
   vertex 425.094299 -50.671993 266.087585
   vertex 425.219604 -50.492081 266.208954
  endloop
 endfacet
 facet normal 0.000000 0.829043 0.559185
  outer loop
   vertex 425.219604 -50.492081 266.208954
   vertex 425.470184 -50.211830 265.793457
   vertex 425.219604 -50.211830 265.793457
  endloop
 endfacet
 facet normal -0.000000 0.829043 0.559185
  outer loop
   vertex 425.470184 -50.492081 266.208954
   vertex 425.470184 -50.211830 265.793457
   vertex 425.219604 -50.492081 266.208954
  endloop
 endfacet
 facet normal 0.865996 0.414563 0.279621
  outer loop
   vertex 425.595490 -50.391743 265.672119
   vertex 425.470184 -50.211830 265.793457
   vertex 425.470184 -50.492081 266.208954
  endloop
 endfacet
 facet normal 0.866013 0.414529 0.279619
  outer loop
   vertex 425.470184 -50.492081 266.208954
   vertex 425.595490 -50.671993 266.087585
   vertex 425.595490 -50.391743 265.672119
  endloop
 endfacet
 facet normal 0.000000 -0.559146 0.829069
  outer loop
   vertex 425.219604 -50.851906 265.966248
   vertex 425.470184 -50.851906 265.966248
   vertex 425.344879 -50.671993 266.087585
  endloop
 endfacet
 facet normal -0.000000 -0.559146 0.829069
  outer loop
   vertex 425.344879 -50.671993 266.087585
   vertex 425.470184 -50.851906 265.966248
   vertex 425.595490 -50.671993 266.087585
  endloop
 endfacet
 facet normal 0.000000 -0.559243 0.829004
  outer loop
   vertex 425.595490 -50.671993 266.087585
   vertex 425.470184 -50.492081 266.208954
   vertex 425.344879 -50.671993 266.087585
  endloop
 endfacet
 facet normal 0.000000 -0.559146 0.829069
  outer loop
   vertex 437.369659 -50.492081 266.208954
   vertex 437.244354 -50.671993 266.087616
   vertex 437.494934 -50.671993 266.087616
  endloop
 endfacet
 facet normal -0.000000 -0.559243 0.829004
  outer loop
   vertex 437.494934 -50.671993 266.087616
   vertex 437.244354 -50.671993 266.087616
   vertex 437.369659 -50.851906 265.966248
  endloop
 endfacet
 facet normal 0.000000 -0.559243 0.829004
  outer loop
   vertex 437.369659 -50.851906 265.966248
   vertex 437.620239 -50.851906 265.966248
   vertex 437.494934 -50.671993 266.087616
  endloop
 endfacet
 facet normal 0.000000 -0.559243 0.829004
  outer loop
   vertex 437.620239 -50.851906 265.966248
   vertex 437.745544 -50.671993 266.087616
   vertex 437.494934 -50.671993 266.087616
  endloop
 endfacet
 facet normal -0.000000 -0.559146 0.829069
  outer loop
   vertex 437.494934 -50.671993 266.087616
   vertex 437.745544 -50.671993 266.087616
   vertex 437.620239 -50.492081 266.208954
  endloop
 endfacet
 facet normal 0.000000 -0.559146 0.829069
  outer loop
   vertex 437.620239 -50.492081 266.208954
   vertex 437.369659 -50.492081 266.208954
   vertex 437.494934 -50.671993 266.087616
  endloop
 endfacet
 facet normal 0.000000 -0.559243 0.829004
  outer loop
   vertex 425.470184 -50.492081 266.208954
   vertex 425.219604 -50.492081 266.208954
   vertex 425.344879 -50.671993 266.087585
  endloop
 endfacet
 facet normal -0.000000 -0.559243 0.829004
  outer loop
   vertex 425.344879 -50.671993 266.087585
   vertex 425.219604 -50.492081 266.208954
   vertex 425.094299 -50.671993 266.087585
  endloop
 endfacet
 facet normal 0.000000 -0.559146 0.829069
  outer loop
   vertex 425.094299 -50.671993 266.087585
   vertex 425.219604 -50.851906 265.966248
   vertex 425.344879 -50.671993 266.087585
  endloop
 endfacet
 facet normal 0.000000 -0.559190 0.829039
  outer loop
   vertex 436.038361 -49.015926 264.750244
   vertex 436.038361 -50.052387 264.051147
   vertex 439.029755 -49.015926 264.750244
  endloop
 endfacet
 facet normal -0.000000 -0.559190 0.829039
  outer loop
   vertex 439.029755 -49.015926 264.750244
   vertex 436.038361 -50.052387 264.051147
   vertex 439.029755 -50.052387 264.051147
  endloop
 endfacet
 facet normal 1.000000 0.000000 0.000000
  outer loop
   vertex 439.029755 -50.052387 264.051147
   vertex 439.029755 -48.239441 263.599060
   vertex 439.029755 -49.015926 264.750244
  endloop
 endfacet
 facet normal 1.000000 0.000000 -0.000000
  outer loop
   vertex 439.029755 -49.275902 262.899963
   vertex 439.029755 -48.239441 263.599060
   vertex 439.029755 -50.052387 264.051147
  endloop
 endfacet
 facet normal 0.000000 0.559190 -0.829039
  outer loop
   vertex 436.038361 -49.275902 262.899963
   vertex 439.029755 -48.239441 263.599060
   vertex 439.029755 -49.275902 262.899963
  endloop
 endfacet
 facet normal -0.000000 -0.829037 -0.559194
  outer loop
   vertex 439.029755 -49.275902 262.899963
   vertex 436.038361 -50.052387 264.051147
   vertex 436.038361 -49.275902 262.899963
  endloop
 endfacet
 facet normal -1.000000 0.000000 0.000000
  outer loop
   vertex 436.038361 -49.275902 262.899963
   vertex 436.038361 -50.052387 264.051147
   vertex 436.038361 -48.239441 263.599060
  endloop
 endfacet
 facet normal -1.000000 0.000000 -0.000000
  outer loop
   vertex 436.038361 -48.239441 263.599060
   vertex 436.038361 -50.052387 264.051147
   vertex 436.038361 -49.015926 264.750244
  endloop
 endfacet
 facet normal 0.000000 0.829037 0.559194
  outer loop
   vertex 436.038361 -49.015926 264.750244
   vertex 439.029755 -48.239441 263.599060
   vertex 436.038361 -48.239441 263.599060
  endloop
 endfacet
 facet normal -0.000000 0.829037 0.559194
  outer loop
   vertex 439.029755 -49.015926 264.750244
   vertex 439.029755 -48.239441 263.599060
   vertex 436.038361 -49.015926 264.750244
  endloop
 endfacet
 facet normal -1.000000 0.000000 0.000000
  outer loop
   vertex 423.810089 -48.239441 263.599060
   vertex 423.810089 -49.275902 262.899933
   vertex 423.810089 -49.015926 264.750244
  endloop
 endfacet
 facet normal -1.000000 -0.000000 0.000000
  outer loop
   vertex 423.810089 -49.015926 264.750244
   vertex 423.810089 -49.275902 262.899933
   vertex 423.810089 -50.052387 264.051147
  endloop
 endfacet
 facet normal 0.000000 -0.559190 0.829039
  outer loop
   vertex 423.810089 -50.052387 264.051147
   vertex 426.801483 -49.015926 264.750244
   vertex 423.810089 -49.015926 264.750244
  endloop
 endfacet
 facet normal -0.000000 -0.559190 0.829039
  outer loop
   vertex 426.801483 -50.052387 264.051147
   vertex 426.801483 -49.015926 264.750244
   vertex 423.810089 -50.052387 264.051147
  endloop
 endfacet
 facet normal 1.000000 0.000000 0.000000
  outer loop
   vertex 426.801483 -49.275902 262.899963
   vertex 426.801483 -49.015926 264.750244
   vertex 426.801483 -50.052387 264.051147
  endloop
 endfacet
 facet normal 0.000006 -0.829037 -0.559194
  outer loop
   vertex 426.801483 -50.052387 264.051147
   vertex 423.810089 -49.275902 262.899933
   vertex 426.801483 -49.275902 262.899963
  endloop
 endfacet
 facet normal 0.000008 0.559190 -0.829039
  outer loop
   vertex 426.801483 -49.275902 262.899963
   vertex 423.810089 -49.275902 262.899933
   vertex 426.801483 -48.239441 263.599060
  endloop
 endfacet
 facet normal -0.000000 0.559207 -0.829028
  outer loop
   vertex 426.801483 -48.239441 263.599060
   vertex 423.810089 -49.275902 262.899933
   vertex 423.810089 -48.239441 263.599060
  endloop
 endfacet
 facet normal 0.000000 0.829037 0.559194
  outer loop
   vertex 423.810089 -48.239441 263.599060
   vertex 426.801483 -49.015926 264.750244
   vertex 426.801483 -48.239441 263.599060
  endloop
 endfacet
 facet normal 0.000000 0.829037 0.559194
  outer loop
   vertex 423.810089 -49.015926 264.750244
   vertex 426.801483 -49.015926 264.750244
   vertex 423.810089 -48.239441 263.599060
  endloop
 endfacet
 facet normal 0.000000 -0.829044 -0.559184
  outer loop
   vertex 426.801483 -50.052387 264.051147
   vertex 423.810089 -50.052387 264.051147
   vertex 423.810089 -49.275902 262.899933
  endloop
 endfacet
 facet normal 0.000000 -0.829037 -0.559194
  outer loop
   vertex 439.029755 -50.052387 264.051147
   vertex 436.038361 -50.052387 264.051147
   vertex 439.029755 -49.275902 262.899963
  endloop
 endfacet
 facet normal 1.000000 0.000000 0.000000
  outer loop
   vertex 426.801483 -49.275902 262.899963
   vertex 426.801483 -48.239441 263.599060
   vertex 426.801483 -49.015926 264.750244
  endloop
 endfacet
 facet normal 0.000000 0.559190 -0.829039
  outer loop
   vertex 436.038361 -49.275902 262.899963
   vertex 436.038361 -48.239441 263.599060
   vertex 439.029755 -48.239441 263.599060
  endloop
 endfacet
 facet normal 0.000000 -0.559285 0.828975
  outer loop
   vertex 436.419922 -50.432255 267.135986
   vertex 426.419922 -50.523129 267.074677
   vertex 436.419922 -50.523129 267.074677
  endloop
 endfacet
 facet normal -0.000000 -0.999103 0.042356
  outer loop
   vertex 436.419922 -50.523129 267.074677
   vertex 426.419922 -50.523129 267.074677
   vertex 436.419922 -50.529282 266.929535
  endloop
 endfacet
 facet normal 0.000000 -0.997991 0.063356
  outer loop
   vertex 427.331604 -51.752357 266.316895
   vertex 426.172882 -51.759007 266.212158
   vertex 427.331604 -51.759007 266.212158
  endloop
 endfacet
 facet normal 0.000000 -0.829030 -0.559204
  outer loop
   vertex 427.331604 -51.759007 266.212158
   vertex 426.172882 -51.759007 266.212158
   vertex 426.172882 -51.288372 265.514435
  endloop
 endfacet
 facet normal -0.000015 0.829041 0.559188
  outer loop
   vertex 436.666931 -49.909664 266.444397
   vertex 435.508240 -50.380299 267.142120
   vertex 436.666931 -50.380299 267.142151
  endloop
 endfacet
 facet normal -0.000025 0.315224 0.949017
  outer loop
   vertex 436.666931 -50.380299 267.142151
   vertex 435.508240 -50.380299 267.142120
   vertex 435.508240 -50.479893 267.175201
  endloop
 endfacet
 facet normal -0.000000 0.335047 0.942201
  outer loop
   vertex 426.419922 -51.506077 266.270660
   vertex 426.419922 -51.642960 266.319336
   vertex 436.419922 -51.642960 266.319336
  endloop
 endfacet
 facet normal -0.000000 -0.559110 0.829094
  outer loop
   vertex 436.419922 -51.642960 266.319336
   vertex 426.419922 -51.642960 266.319336
   vertex 436.419922 -51.733829 266.258057
  endloop
 endfacet
 facet normal 0.000000 -0.224371 0.974504
  outer loop
   vertex 426.419922 -50.030174 266.479919
   vertex 436.419922 -50.030174 266.479919
   vertex 426.419922 -49.995182 266.487976
  endloop
 endfacet
 facet normal -0.000000 -0.224371 0.974504
  outer loop
   vertex 426.419922 -49.995182 266.487976
   vertex 436.419922 -50.030174 266.479919
   vertex 436.419922 -49.995182 266.487976
  endloop
 endfacet
 facet normal 0.000000 0.829004 0.559243
  outer loop
   vertex 436.419922 -49.995182 266.487976
   vertex 426.419922 -49.955696 266.429443
   vertex 426.419922 -49.995182 266.487976
  endloop
 endfacet
 facet normal -1.000000 0.000000 0.000000
  outer loop
   vertex 426.172882 -50.380299 267.142120
   vertex 426.172882 -50.568687 266.996246
   vertex 426.172882 -50.479897 267.175201
  endloop
 endfacet
 facet normal -1.000000 -0.000000 0.000000
  outer loop
   vertex 426.172882 -50.479897 267.175201
   vertex 426.172882 -50.568687 266.996246
   vertex 426.172882 -50.611683 267.086304
  endloop
 endfacet
 facet normal 0.000000 -0.559222 0.829018
  outer loop
   vertex 426.172882 -50.611683 267.086304
   vertex 427.331604 -50.479897 267.175201
   vertex 426.172882 -50.479897 267.175201
  endloop
 endfacet
 facet normal 1.000000 0.000000 0.000000
  outer loop
   vertex 436.666931 -51.759003 266.212189
   vertex 436.666931 -51.553192 266.332214
   vertex 436.666931 -51.752357 266.316925
  endloop
 endfacet
 facet normal 1.000000 0.000000 -0.000000
  outer loop
   vertex 436.666931 -51.752357 266.316925
   vertex 436.666931 -51.553192 266.332214
   vertex 436.666931 -51.620571 266.405823
  endloop
 endfacet
 facet normal 0.000000 -0.559222 0.829018
  outer loop
   vertex 436.666931 -51.620571 266.405823
   vertex 435.508240 -51.752357 266.316925
   vertex 436.666931 -51.752357 266.316925
  endloop
 endfacet
 facet normal 1.000000 0.000000 0.000000
  outer loop
   vertex 427.331604 -51.620571 266.405792
   vertex 427.331604 -51.752357 266.316895
   vertex 427.331604 -51.553192 266.332214
  endloop
 endfacet
 facet normal 1.000000 -0.000000 0.000000
  outer loop
   vertex 427.331604 -51.553192 266.332214
   vertex 427.331604 -51.752357 266.316895
   vertex 427.331604 -51.759007 266.212158
  endloop
 endfacet
 facet normal 1.000000 0.000000 0.000000
  outer loop
   vertex 427.331604 -51.759007 266.212158
   vertex 427.331604 -51.288372 265.514435
   vertex 427.331604 -51.553192 266.332214
  endloop
 endfacet
 facet normal -0.000000 -0.829030 -0.559204
  outer loop
   vertex 426.172882 -51.288372 265.514435
   vertex 427.331604 -51.288372 265.514435
   vertex 427.331604 -51.759007 266.212158
  endloop
 endfacet
 facet normal -0.000003 0.334860 0.942268
  outer loop
   vertex 436.419922 -51.642960 266.319336
   vertex 436.419922 -51.506077 266.270691
   vertex 426.419922 -51.506077 266.270660
  endloop
 endfacet
 facet normal -0.000003 -0.559186 0.829043
  outer loop
   vertex 426.419922 -51.506077 266.270660
   vertex 436.419922 -51.506077 266.270691
   vertex 436.419922 -50.529282 266.929535
  endloop
 endfacet
 facet normal 0.000000 -0.559203 0.829031
  outer loop
   vertex 436.419922 -50.529282 266.929535
   vertex 426.419922 -50.529282 266.929535
   vertex 426.419922 -51.506077 266.270660
  endloop
 endfacet
 facet normal -0.000000 -0.999103 0.042356
  outer loop
   vertex 426.419922 -50.523129 267.074677
   vertex 426.419922 -50.529282 266.929535
   vertex 436.419922 -50.529282 266.929535
  endloop
 endfacet
 facet normal -0.000000 0.829030 0.559204
  outer loop
   vertex 436.666931 -49.909664 266.444397
   vertex 435.508240 -49.909664 266.444397
   vertex 435.508240 -50.380299 267.142120
  endloop
 endfacet
 facet normal -1.000000 -0.000000 -0.000000
  outer loop
   vertex 435.508240 -50.380299 267.142120
   vertex 435.508240 -49.909664 266.444397
   vertex 435.508240 -50.568687 266.996277
  endloop
 endfacet
 facet normal -1.000000 0.000000 -0.000000
  outer loop
   vertex 435.508240 -50.568687 266.996277
   vertex 435.508240 -50.479893 267.175201
   vertex 435.508240 -50.380299 267.142120
  endloop
 endfacet
 facet normal -1.000000 -0.000000 -0.000000
  outer loop
   vertex 435.508240 -50.611683 267.086304
   vertex 435.508240 -50.479893 267.175201
   vertex 435.508240 -50.568687 266.996277
  endloop
 endfacet
 facet normal 0.000000 0.819302 -0.573363
  outer loop
   vertex 436.419922 -50.373260 266.988556
   vertex 426.419922 -50.373260 266.988556
   vertex 436.419922 -50.352673 267.017975
  endloop
 endfacet
 facet normal -0.000000 0.819302 -0.573363
  outer loop
   vertex 436.419922 -50.352673 267.017975
   vertex 426.419922 -50.373260 266.988556
   vertex 426.419922 -50.352673 267.017975
  endloop
 endfacet
 facet normal 0.000000 0.829095 0.559108
  outer loop
   vertex 426.419922 -50.352673 267.017975
   vertex 436.419922 -50.432255 267.135986
   vertex 436.419922 -50.352673 267.017975
  endloop
 endfacet
 facet normal -0.000002 0.829028 0.559208
  outer loop
   vertex 426.419922 -50.432255 267.135956
   vertex 436.419922 -50.432255 267.135986
   vertex 426.419922 -50.352673 267.017975
  endloop
 endfacet
 facet normal -0.000003 -0.559094 0.829104
  outer loop
   vertex 426.419922 -50.523129 267.074677
   vertex 436.419922 -50.432255 267.135986
   vertex 426.419922 -50.432255 267.135956
  endloop
 endfacet
 facet normal 0.000000 -0.559199 0.829034
  outer loop
   vertex 438.068848 -49.940983 266.000763
   vertex 436.420685 -50.865307 265.377289
   vertex 438.068848 -50.865307 265.377289
  endloop
 endfacet
 facet normal 0.000000 -0.829038 -0.559193
  outer loop
   vertex 438.068848 -50.865307 265.377289
   vertex 436.420685 -50.865307 265.377289
   vertex 438.068848 -50.003563 264.099701
  endloop
 endfacet
 facet normal 1.000000 0.000000 0.000000
  outer loop
   vertex 438.068848 -50.003563 264.099701
   vertex 438.068848 -49.079239 264.723175
   vertex 438.068848 -50.865307 265.377289
  endloop
 endfacet
 facet normal -0.000000 0.559199 -0.829034
  outer loop
   vertex 436.420685 -50.003563 264.099701
   vertex 438.068848 -49.079239 264.723175
   vertex 438.068848 -50.003563 264.099701
  endloop
 endfacet
 facet normal 0.000000 0.559199 -0.829034
  outer loop
   vertex 436.420685 -49.079239 264.723175
   vertex 438.068848 -49.079239 264.723175
   vertex 436.420685 -50.003563 264.099701
  endloop
 endfacet
 facet normal -1.000000 -0.000000 -0.000000
  outer loop
   vertex 436.420685 -50.003563 264.099701
   vertex 436.420685 -50.865307 265.377289
   vertex 436.420685 -49.079239 264.723175
  endloop
 endfacet
 facet normal -1.000000 0.000000 0.000000
  outer loop
   vertex 436.420685 -49.079239 264.723175
   vertex 436.420685 -50.865307 265.377289
   vertex 436.420685 -49.940983 266.000763
  endloop
 endfacet
 facet normal -0.000000 -0.559199 0.829034
  outer loop
   vertex 436.420685 -49.940983 266.000763
   vertex 436.420685 -50.865307 265.377289
   vertex 438.068848 -49.940983 266.000763
  endloop
 endfacet
 facet normal 0.000000 0.829038 0.559193
  outer loop
   vertex 438.068848 -49.940983 266.000763
   vertex 438.068848 -49.079239 264.723175
   vertex 436.420685 -49.940983 266.000763
  endloop
 endfacet
 facet normal 1.000000 -0.000000 -0.000000
  outer loop
   vertex 438.068848 -50.865307 265.377289
   vertex 438.068848 -49.079239 264.723175
   vertex 438.068848 -49.940983 266.000763
  endloop
 endfacet
 facet normal 0.000000 0.829038 0.559193
  outer loop
   vertex 424.770996 -49.940983 266.000732
   vertex 426.419159 -49.940983 266.000732
   vertex 424.770996 -49.079239 264.723145
  endloop
 endfacet
 facet normal -0.000000 0.829038 0.559193
  outer loop
   vertex 424.770996 -49.079239 264.723145
   vertex 426.419159 -49.940983 266.000732
   vertex 426.419159 -49.079239 264.723145
  endloop
 endfacet
 facet normal 0.000000 0.559180 -0.829046
  outer loop
   vertex 426.419159 -49.079239 264.723145
   vertex 424.770996 -50.003563 264.099701
   vertex 424.770996 -49.079239 264.723145
  endloop
 endfacet
 facet normal -0.000000 0.559180 -0.829046
  outer loop
   vertex 426.419159 -50.003563 264.099701
   vertex 424.770996 -50.003563 264.099701
   vertex 426.419159 -49.079239 264.723145
  endloop
 endfacet
 facet normal 0.000000 -0.829038 -0.559193
  outer loop
   vertex 426.419159 -50.865307 265.377289
   vertex 424.770996 -50.003563 264.099701
   vertex 426.419159 -50.003563 264.099701
  endloop
 endfacet
 facet normal 1.000000 -0.000000 -0.000000
  outer loop
   vertex 426.419159 -50.003563 264.099701
   vertex 426.419159 -49.940983 266.000732
   vertex 426.419159 -50.865307 265.377289
  endloop
 endfacet
 facet normal 0.000000 -0.559180 0.829046
  outer loop
   vertex 426.419159 -50.865307 265.377289
   vertex 426.419159 -49.940983 266.000732
   vertex 424.770996 -50.865307 265.377289
  endloop
 endfacet
 facet normal -0.000000 -0.559180 0.829046
  outer loop
   vertex 424.770996 -50.865307 265.377289
   vertex 426.419159 -49.940983 266.000732
   vertex 424.770996 -49.940983 266.000732
  endloop
 endfacet
 facet normal -1.000000 0.000000 0.000000
  outer loop
   vertex 424.770996 -49.940983 266.000732
   vertex 424.770996 -50.003563 264.099701
   vertex 424.770996 -50.865307 265.377289
  endloop
 endfacet
 facet normal -1.000000 -0.000000 -0.000000
  outer loop
   vertex 424.770996 -49.079239 264.723145
   vertex 424.770996 -50.003563 264.099701
   vertex 424.770996 -49.940983 266.000732
  endloop
 endfacet
 facet normal 0.000000 0.559203 -0.829031
  outer loop
   vertex 439.508362 -50.266502 265.039368
   vertex 439.158356 -50.266502 265.039368
   vertex 439.158356 -49.851986 265.318970
  endloop
 endfacet
 facet normal 0.000006 -0.559203 0.829031
  outer loop
   vertex 439.158356 -49.851986 265.318970
   vertex 439.158356 -50.266502 265.039368
   vertex 439.333374 -50.059242 265.179169
  endloop
 endfacet
 facet normal 0.000000 -0.559206 0.829029
  outer loop
   vertex 439.333374 -50.059242 265.179169
   vertex 439.508362 -49.851986 265.318970
   vertex 439.158356 -49.851986 265.318970
  endloop
 endfacet
 facet normal -0.000006 -0.559203 0.829031
  outer loop
   vertex 439.508362 -50.266502 265.039368
   vertex 439.508362 -49.851986 265.318970
   vertex 439.333374 -50.059242 265.179169
  endloop
 endfacet
 facet normal 1.000000 0.000000 0.000000
  outer loop
   vertex 439.508362 -49.292789 264.489929
   vertex 439.508362 -49.851986 265.318970
   vertex 439.508362 -50.266502 265.039368
  endloop
 endfacet
 facet normal 1.000000 -0.000000 -0.000000
  outer loop
   vertex 439.508362 -50.266502 265.039368
   vertex 439.508362 -49.707310 264.210327
   vertex 439.508362 -49.292789 264.489929
  endloop
 endfacet
 facet normal 0.000000 0.559199 -0.829033
  outer loop
   vertex 439.508362 -49.292789 264.489929
   vertex 439.508362 -49.707310 264.210327
   vertex 437.808350 -49.292789 264.489929
  endloop
 endfacet
 facet normal -0.000000 0.559199 -0.829033
  outer loop
   vertex 437.808350 -49.292789 264.489929
   vertex 439.508362 -49.707310 264.210327
   vertex 437.808380 -49.707310 264.210327
  endloop
 endfacet
 facet normal -1.000000 -0.000034 -0.000059
  outer loop
   vertex 437.808380 -49.707310 264.210327
   vertex 437.808350 -50.266502 265.039368
   vertex 437.808350 -49.292789 264.489929
  endloop
 endfacet
 facet normal 0.000019 -0.829039 -0.559191
  outer loop
   vertex 438.225342 -50.126705 264.832123
   vertex 437.808350 -50.266502 265.039368
   vertex 437.808380 -49.707310 264.210327
  endloop
 endfacet
 facet normal 0.000000 -0.829021 -0.559217
  outer loop
   vertex 438.158356 -50.266502 265.039368
   vertex 437.808350 -50.266502 265.039368
   vertex 438.225342 -50.126705 264.832123
  endloop
 endfacet
 facet normal -0.000017 0.829037 0.559194
  outer loop
   vertex 424.614502 -49.712185 265.111694
   vertex 425.031464 -49.851986 265.318970
   vertex 425.031464 -49.292789 264.489929
  endloop
 endfacet
 facet normal 1.000000 0.000051 0.000034
  outer loop
   vertex 425.031464 -49.292789 264.489929
   vertex 425.031464 -49.851986 265.318970
   vertex 425.031494 -49.707310 264.210327
  endloop
 endfacet
 facet normal 0.000000 0.559199 -0.829033
  outer loop
   vertex 425.031494 -49.707310 264.210327
   vertex 423.331482 -49.292789 264.489929
   vertex 425.031464 -49.292789 264.489929
  endloop
 endfacet
 facet normal -0.000000 0.559199 -0.829033
  outer loop
   vertex 423.331482 -49.707310 264.210327
   vertex 423.331482 -49.292789 264.489929
   vertex 425.031494 -49.707310 264.210327
  endloop
 endfacet
 facet normal -1.000000 -0.000000 0.000000
  outer loop
   vertex 423.331482 -49.851986 265.318939
   vertex 423.331482 -49.292789 264.489929
   vertex 423.331482 -49.707310 264.210327
  endloop
 endfacet
 facet normal -1.000000 0.000000 -0.000000
  outer loop
   vertex 423.331482 -49.707310 264.210327
   vertex 423.331482 -50.266502 265.039368
   vertex 423.331482 -49.851986 265.318939
  endloop
 endfacet
 facet normal -0.000066 -0.559161 0.829059
  outer loop
   vertex 423.331482 -49.851986 265.318939
   vertex 423.331482 -50.266502 265.039368
   vertex 423.506470 -50.059242 265.179169
  endloop
 endfacet
 facet normal -0.000000 -0.559199 0.829033
  outer loop
   vertex 423.506470 -50.059242 265.179169
   vertex 423.331482 -50.266502 265.039368
   vertex 423.681488 -50.266502 265.039368
  endloop
 endfacet
 facet normal 0.000066 -0.559161 0.829059
  outer loop
   vertex 423.681488 -50.266502 265.039368
   vertex 423.681488 -49.851986 265.318939
   vertex 423.506470 -50.059242 265.179169
  endloop
 endfacet
 facet normal -0.000000 0.559161 -0.829059
  outer loop
   vertex 423.331482 -49.851986 265.318939
   vertex 423.681488 -49.851986 265.318939
   vertex 423.681488 -50.266502 265.039368
  endloop
 endfacet
 facet normal 0.000000 -0.559122 0.829085
  outer loop
   vertex 423.506470 -50.059242 265.179169
   vertex 423.681488 -49.851986 265.318939
   vertex 423.331482 -49.851986 265.318939
  endloop
 endfacet
 facet normal -0.000003 -0.559301 0.828964
  outer loop
   vertex 426.419922 -51.642960 266.319336
   vertex 426.419922 -51.733829 266.258026
   vertex 436.419922 -51.733829 266.258057
  endloop
 endfacet
 facet normal 0.000002 -0.829028 -0.559208
  outer loop
   vertex 436.419922 -51.733829 266.258057
   vertex 426.419922 -51.733829 266.258026
   vertex 426.419922 -51.654247 266.140045
  endloop
 endfacet
 facet normal 0.000002 -0.829028 -0.559208
  outer loop
   vertex 426.419922 -51.654247 266.140045
   vertex 436.419922 -51.654247 266.140076
   vertex 436.419922 -51.733829 266.258057
  endloop
 endfacet
 facet normal 0.000003 0.224347 -0.974509
  outer loop
   vertex 426.419922 -51.619251 266.148102
   vertex 436.419922 -51.654247 266.140076
   vertex 426.419922 -51.654247 266.140045
  endloop
 endfacet
 facet normal 0.000003 0.224347 -0.974509
  outer loop
   vertex 436.419922 -51.619251 266.148132
   vertex 436.419922 -51.654247 266.140076
   vertex 426.419922 -51.619251 266.148102
  endloop
 endfacet
 facet normal 0.000002 -0.829035 -0.559196
  outer loop
   vertex 426.419922 -51.619251 266.148102
   vertex 426.419922 -51.276169 265.639465
   vertex 436.419922 -51.619251 266.148132
  endloop
 endfacet
 facet normal 0.000002 -0.829035 -0.559196
  outer loop
   vertex 436.419922 -51.619251 266.148132
   vertex 426.419922 -51.276169 265.639465
   vertex 436.419922 -51.276169 265.639496
  endloop
 endfacet
 facet normal -0.000002 -0.819302 0.573363
  outer loop
   vertex 436.419922 -51.276169 265.639496
   vertex 426.419922 -51.276169 265.639465
   vertex 426.419922 -51.296757 265.610046
  endloop
 endfacet
 facet normal -0.000002 -0.819302 0.573363
  outer loop
   vertex 426.419922 -51.296757 265.610046
   vertex 436.419922 -51.296757 265.610077
   vertex 436.419922 -51.276169 265.639496
  endloop
 endfacet
 facet normal 0.000002 -0.828979 -0.559280
  outer loop
   vertex 426.419922 -51.257267 265.551514
   vertex 436.419922 -51.296757 265.610077
   vertex 426.419922 -51.296757 265.610046
  endloop
 endfacet
 facet normal 0.000000 -0.829114 -0.559080
  outer loop
   vertex 436.419922 -51.257267 265.551514
   vertex 436.419922 -51.296757 265.610077
   vertex 426.419922 -51.257267 265.551514
  endloop
 endfacet
 facet normal -0.000000 0.559197 -0.829035
  outer loop
   vertex 426.419922 -51.257267 265.551514
   vertex 426.419922 -49.955696 266.429443
   vertex 436.419922 -51.257267 265.551514
  endloop
 endfacet
 facet normal 0.000000 0.559197 -0.829035
  outer loop
   vertex 436.419922 -51.257267 265.551514
   vertex 426.419922 -49.955696 266.429443
   vertex 436.419922 -49.955696 266.429443
  endloop
 endfacet
 facet normal -0.000000 0.829004 0.559243
  outer loop
   vertex 436.419922 -49.955696 266.429443
   vertex 426.419922 -49.955696 266.429443
   vertex 436.419922 -49.995182 266.487976
  endloop
 endfacet
 facet normal -0.000024 0.829037 0.559194
  outer loop
   vertex 438.225342 -49.712185 265.111725
   vertex 437.808350 -49.292789 264.489929
   vertex 437.808350 -49.851986 265.318970
  endloop
 endfacet
 facet normal -1.000000 -0.000000 -0.000000
  outer loop
   vertex 437.808350 -49.851986 265.318970
   vertex 437.808350 -49.292789 264.489929
   vertex 437.808350 -50.266502 265.039368
  endloop
 endfacet
 facet normal 0.000000 -0.559203 0.829031
  outer loop
   vertex 437.808350 -50.266502 265.039368
   vertex 438.158356 -49.851986 265.318970
   vertex 437.808350 -49.851986 265.318970
  endloop
 endfacet
 facet normal -0.000000 -0.559203 0.829031
  outer loop
   vertex 438.158356 -50.266502 265.039368
   vertex 438.158356 -49.851986 265.318970
   vertex 437.808350 -50.266502 265.039368
  endloop
 endfacet
 facet normal 0.000000 0.559203 -0.829031
  outer loop
   vertex 437.808350 -50.266502 265.039368
   vertex 438.158356 -49.851986 265.318970
   vertex 438.158356 -50.266502 265.039368
  endloop
 endfacet
 facet normal -0.000000 -0.829059 -0.559160
  outer loop
   vertex 438.158356 -50.266502 265.039368
   vertex 438.225342 -50.406300 265.246643
   vertex 437.808350 -50.266502 265.039368
  endloop
 endfacet
 facet normal 0.000017 -0.829043 -0.559184
  outer loop
   vertex 437.808350 -50.266502 265.039368
   vertex 438.225342 -50.406300 265.246643
   vertex 437.922241 -50.504162 265.391724
  endloop
 endfacet
 facet normal -0.000019 -0.829008 -0.559237
  outer loop
   vertex 437.922241 -50.504162 265.391724
   vertex 438.225342 -50.406300 265.246643
   vertex 438.408356 -50.508640 265.398346
  endloop
 endfacet
 facet normal -0.000020 -0.829052 -0.559171
  outer loop
   vertex 438.408356 -50.508640 265.398346
   vertex 438.233368 -50.678139 265.649658
   vertex 437.922241 -50.504162 265.391724
  endloop
 endfacet
 facet normal 0.000000 -0.829059 -0.559161
  outer loop
   vertex 438.658356 -50.546101 265.453888
   vertex 438.233368 -50.678139 265.649658
   vertex 438.408356 -50.508640 265.398346
  endloop
 endfacet
 facet normal -0.000022 -0.829037 -0.559194
  outer loop
   vertex 438.658356 -50.741817 265.744049
   vertex 438.233368 -50.678139 265.649658
   vertex 438.658356 -50.546101 265.453888
  endloop
 endfacet
 facet normal -0.000011 -0.829037 -0.559194
  outer loop
   vertex 438.658356 -50.546101 265.453888
   vertex 438.908356 -50.508640 265.398346
   vertex 438.658356 -50.741817 265.744049
  endloop
 endfacet
 facet normal 0.000028 -0.829050 -0.559175
  outer loop
   vertex 438.658356 -50.741817 265.744049
   vertex 438.908356 -50.508640 265.398346
   vertex 439.083374 -50.678139 265.649658
  endloop
 endfacet
 facet normal 0.000069 -0.829036 -0.559195
  outer loop
   vertex 439.083374 -50.678139 265.649658
   vertex 438.908356 -50.508640 265.398346
   vertex 439.091370 -50.406300 265.246643
  endloop
 endfacet
 facet normal -0.000009 -0.829036 -0.559196
  outer loop
   vertex 439.091370 -50.406300 265.246643
   vertex 439.394501 -50.504162 265.391724
   vertex 439.083374 -50.678139 265.649658
  endloop
 endfacet
 facet normal -0.000029 -0.829055 -0.559167
  outer loop
   vertex 439.158356 -50.266502 265.039368
   vertex 439.394501 -50.504162 265.391724
   vertex 439.091370 -50.406300 265.246643
  endloop
 endfacet
 facet normal 0.000000 -0.829046 -0.559181
  outer loop
   vertex 439.508362 -50.266502 265.039368
   vertex 439.394501 -50.504162 265.391724
   vertex 439.158356 -50.266502 265.039368
  endloop
 endfacet
 facet normal -0.000000 -0.829021 -0.559217
  outer loop
   vertex 439.158356 -50.266502 265.039368
   vertex 439.091370 -50.126705 264.832123
   vertex 439.508362 -50.266502 265.039368
  endloop
 endfacet
 facet normal -0.000019 -0.829039 -0.559191
  outer loop
   vertex 439.508362 -50.266502 265.039368
   vertex 439.091370 -50.126705 264.832123
   vertex 439.508362 -49.707310 264.210327
  endloop
 endfacet
 facet normal 0.000006 -0.829046 -0.559180
  outer loop
   vertex 439.508362 -49.707310 264.210327
   vertex 439.091370 -50.126705 264.832123
   vertex 438.908356 -50.024364 264.680389
  endloop
 endfacet
 facet normal 0.000006 -0.829046 -0.559180
  outer loop
   vertex 438.908356 -50.024364 264.680389
   vertex 438.658356 -49.986904 264.624847
   vertex 439.508362 -49.707310 264.210327
  endloop
 endfacet
 facet normal 0.000022 -0.829039 -0.559191
  outer loop
   vertex 424.614502 -50.126705 264.832092
   vertex 425.031494 -49.707310 264.210327
   vertex 425.031464 -50.266502 265.039368
  endloop
 endfacet
 facet normal 1.000000 -0.000017 0.000025
  outer loop
   vertex 425.031464 -50.266502 265.039368
   vertex 425.031494 -49.707310 264.210327
   vertex 425.031464 -49.851986 265.318970
  endloop
 endfacet
 facet normal 0.000000 -0.559203 0.829031
  outer loop
   vertex 425.031464 -49.851986 265.318970
   vertex 424.681488 -50.266502 265.039368
   vertex 425.031464 -50.266502 265.039368
  endloop
 endfacet
 facet normal -0.000000 -0.559203 0.829031
  outer loop
   vertex 424.681488 -49.851986 265.318970
   vertex 424.681488 -50.266502 265.039368
   vertex 425.031464 -49.851986 265.318970
  endloop
 endfacet
 facet normal 0.000000 0.559203 -0.829031
  outer loop
   vertex 425.031464 -49.851986 265.318970
   vertex 424.681488 -50.266502 265.039368
   vertex 424.681488 -49.851986 265.318970
  endloop
 endfacet
 facet normal -0.000000 0.829021 0.559217
  outer loop
   vertex 424.681488 -49.851986 265.318970
   vertex 424.614502 -49.991783 265.526215
   vertex 425.031464 -49.851986 265.318970
  endloop
 endfacet
 facet normal -0.000008 0.829029 0.559206
  outer loop
   vertex 425.031464 -49.851986 265.318970
   vertex 424.614502 -49.991783 265.526215
   vertex 424.917603 -50.089642 265.671295
  endloop
 endfacet
 facet normal 0.000009 0.829045 0.559182
  outer loop
   vertex 424.917603 -50.089642 265.671295
   vertex 424.614502 -49.991783 265.526215
   vertex 424.431488 -50.094124 265.677948
  endloop
 endfacet
 facet normal 0.000009 0.829036 0.559195
  outer loop
   vertex 424.431488 -50.094124 265.677948
   vertex 424.606476 -50.263618 265.929230
   vertex 424.917603 -50.089642 265.671295
  endloop
 endfacet
 facet normal -0.000037 0.829021 0.559217
  outer loop
   vertex 424.181488 -50.131580 265.733459
   vertex 424.606476 -50.263618 265.929230
   vertex 424.431488 -50.094124 265.677948
  endloop
 endfacet
 facet normal 0.000005 0.829064 0.559154
  outer loop
   vertex 424.181488 -50.327297 266.023651
   vertex 424.606476 -50.263618 265.929230
   vertex 424.181488 -50.131580 265.733459
  endloop
 endfacet
 facet normal 0.000058 0.829064 0.559154
  outer loop
   vertex 424.181488 -50.131580 265.733459
   vertex 423.931488 -50.094124 265.677948
   vertex 424.181488 -50.327297 266.023651
  endloop
 endfacet
 facet normal -0.000018 0.829039 0.559191
  outer loop
   vertex 424.181488 -50.327297 266.023651
   vertex 423.931488 -50.094124 265.677948
   vertex 423.756470 -50.263618 265.929230
  endloop
 endfacet
 facet normal -0.000019 0.829039 0.559191
  outer loop
   vertex 423.756470 -50.263618 265.929230
   vertex 423.931488 -50.094124 265.677948
   vertex 423.748474 -49.991783 265.526215
  endloop
 endfacet
 facet normal -0.000003 0.829039 0.559190
  outer loop
   vertex 423.748474 -49.991783 265.526215
   vertex 423.445343 -50.089642 265.671295
   vertex 423.756470 -50.263618 265.929230
  endloop
 endfacet
 facet normal -0.000020 0.829056 0.559165
  outer loop
   vertex 423.681488 -49.851986 265.318939
   vertex 423.445343 -50.089642 265.671295
   vertex 423.748474 -49.991783 265.526215
  endloop
 endfacet
 facet normal 0.000000 0.829050 0.559174
  outer loop
   vertex 423.331482 -49.851986 265.318939
   vertex 423.445343 -50.089642 265.671295
   vertex 423.681488 -49.851986 265.318939
  endloop
 endfacet
 facet normal -0.000000 0.829014 0.559228
  outer loop
   vertex 423.681488 -49.851986 265.318939
   vertex 423.748474 -49.712185 265.111694
   vertex 423.331482 -49.851986 265.318939
  endloop
 endfacet
 facet normal -0.000014 0.829027 0.559208
  outer loop
   vertex 423.331482 -49.851986 265.318939
   vertex 423.748474 -49.712185 265.111694
   vertex 423.331482 -49.292789 264.489929
  endloop
 endfacet
 facet normal 0.000032 0.829042 0.559187
  outer loop
   vertex 423.331482 -49.292789 264.489929
   vertex 423.748474 -49.712185 265.111694
   vertex 423.931488 -49.609848 264.959961
  endloop
 endfacet
 facet normal -0.000039 0.828999 0.559249
  outer loop
   vertex 423.931488 -49.609848 264.959961
   vertex 424.181488 -49.572388 264.904449
   vertex 423.331482 -49.292789 264.489929
  endloop
 endfacet
 facet normal 0.000000 -0.483418 -0.875390
  outer loop
   vertex 426.172882 -51.288372 265.514435
   vertex 426.172882 -50.805325 265.247681
   vertex 427.331604 -51.288372 265.514435
  endloop
 endfacet
 facet normal 0.000000 -0.483418 -0.875390
  outer loop
   vertex 427.331604 -51.288372 265.514435
   vertex 426.172882 -50.805325 265.247681
   vertex 427.331604 -50.805325 265.247681
  endloop
 endfacet
 facet normal 1.000000 0.000000 0.000000
  outer loop
   vertex 427.331604 -50.805325 265.247681
   vertex 427.331604 -49.843288 265.896576
   vertex 427.331604 -51.288372 265.514435
  endloop
 endfacet
 facet normal -0.000000 0.559189 -0.829040
  outer loop
   vertex 426.172882 -50.805325 265.247681
   vertex 427.331604 -49.843288 265.896576
   vertex 427.331604 -50.805325 265.247681
  endloop
 endfacet
 facet normal 0.000000 0.559189 -0.829040
  outer loop
   vertex 426.172882 -49.843288 265.896576
   vertex 427.331604 -49.843288 265.896576
   vertex 426.172882 -50.805325 265.247681
  endloop
 endfacet
 facet normal -1.000000 -0.000000 -0.000000
  outer loop
   vertex 426.172882 -50.805325 265.247681
   vertex 426.172882 -49.909664 266.444366
   vertex 426.172882 -49.843288 265.896576
  endloop
 endfacet
 facet normal 0.000000 0.992739 0.120290
  outer loop
   vertex 426.172882 -49.843288 265.896576
   vertex 426.172882 -49.909664 266.444366
   vertex 427.331604 -49.843288 265.896576
  endloop
 endfacet
 facet normal -0.000003 0.992740 0.120283
  outer loop
   vertex 427.331604 -49.843288 265.896576
   vertex 426.172882 -49.909664 266.444366
   vertex 427.331604 -49.909664 266.444397
  endloop
 endfacet
 facet normal 1.000000 0.000000 0.000000
  outer loop
   vertex 427.331604 -49.909664 266.444397
   vertex 427.331604 -51.288372 265.514435
   vertex 427.331604 -49.843288 265.896576
  endloop
 endfacet
 facet normal 1.000000 -0.000000 -0.000000
  outer loop
   vertex 427.331604 -50.568687 266.996246
   vertex 427.331604 -51.288372 265.514435
   vertex 427.331604 -49.909664 266.444397
  endloop
 endfacet
 facet normal 1.000000 0.000000 -0.000000
  outer loop
   vertex 427.331604 -51.553192 266.332214
   vertex 427.331604 -51.288372 265.514435
   vertex 427.331604 -50.568687 266.996246
  endloop
 endfacet
 facet normal -0.000000 -0.559179 0.829047
  outer loop
   vertex 427.331604 -50.568687 266.996246
   vertex 426.172882 -51.553192 266.332214
   vertex 427.331604 -51.553192 266.332214
  endloop
 endfacet
 facet normal -0.000000 0.737491 0.675357
  outer loop
   vertex 427.331604 -51.553192 266.332214
   vertex 426.172882 -51.553192 266.332214
   vertex 427.331604 -51.620571 266.405792
  endloop
 endfacet
 facet normal -0.000000 0.737491 0.675357
  outer loop
   vertex 427.331604 -51.620571 266.405792
   vertex 426.172882 -51.553192 266.332214
   vertex 426.172882 -51.620571 266.405792
  endloop
 endfacet
 facet normal 0.000000 -0.559222 0.829018
  outer loop
   vertex 426.172882 -51.620571 266.405792
   vertex 427.331604 -51.752357 266.316895
   vertex 427.331604 -51.620571 266.405792
  endloop
 endfacet
 facet normal -0.000000 -0.559222 0.829018
  outer loop
   vertex 426.172882 -51.752357 266.316895
   vertex 427.331604 -51.752357 266.316895
   vertex 426.172882 -51.620571 266.405792
  endloop
 endfacet
 facet normal 0.000000 -0.997991 0.063356
  outer loop
   vertex 426.172882 -51.759007 266.212158
   vertex 427.331604 -51.752357 266.316895
   vertex 426.172882 -51.752357 266.316895
  endloop
 endfacet
 facet normal -1.000000 -0.000000 -0.000000
  outer loop
   vertex 426.172882 -51.752357 266.316895
   vertex 426.172882 -51.553192 266.332214
   vertex 426.172882 -51.759007 266.212158
  endloop
 endfacet
 facet normal -1.000000 0.000000 -0.000000
  outer loop
   vertex 426.172882 -51.759007 266.212158
   vertex 426.172882 -51.553192 266.332214
   vertex 426.172882 -51.288372 265.514435
  endloop
 endfacet
 facet normal -1.000000 0.000000 -0.000000
  outer loop
   vertex 426.172882 -51.288372 265.514435
   vertex 426.172882 -51.553192 266.332214
   vertex 426.172882 -50.568687 266.996246
  endloop
 endfacet
 facet normal -1.000000 -0.000000 0.000000
  outer loop
   vertex 426.172882 -50.568687 266.996246
   vertex 426.172882 -49.909664 266.444366
   vertex 426.172882 -51.288372 265.514435
  endloop
 endfacet
 facet normal -1.000000 -0.000000 -0.000000
  outer loop
   vertex 426.172882 -50.380299 267.142120
   vertex 426.172882 -49.909664 266.444366
   vertex 426.172882 -50.568687 266.996246
  endloop
 endfacet
 facet normal -0.000015 0.829041 0.559188
  outer loop
   vertex 427.331604 -49.909664 266.444397
   vertex 426.172882 -49.909664 266.444366
   vertex 426.172882 -50.380299 267.142120
  endloop
 endfacet
 facet normal 0.000000 0.829030 0.559204
  outer loop
   vertex 426.172882 -50.380299 267.142120
   vertex 427.331604 -50.380299 267.142120
   vertex 427.331604 -49.909664 266.444397
  endloop
 endfacet
 facet normal 1.000000 0.000000 0.000000
  outer loop
   vertex 427.331604 -49.909664 266.444397
   vertex 427.331604 -50.380299 267.142120
   vertex 427.331604 -50.568687 266.996246
  endloop
 endfacet
 facet normal 1.000000 0.000000 -0.000000
  outer loop
   vertex 427.331604 -50.568687 266.996246
   vertex 427.331604 -50.380299 267.142120
   vertex 427.331604 -50.479897 267.175201
  endloop
 endfacet
 facet normal 1.000000 -0.000000 0.000000
  outer loop
   vertex 427.331604 -50.479897 267.175201
   vertex 427.331604 -50.611683 267.086304
   vertex 427.331604 -50.568687 266.996246
  endloop
 endfacet
 facet normal -0.000000 -0.559222 0.829018
  outer loop
   vertex 426.172882 -50.611683 267.086304
   vertex 427.331604 -50.611683 267.086304
   vertex 427.331604 -50.479897 267.175201
  endloop
 endfacet
 facet normal -0.000000 -0.902428 -0.430840
  outer loop
   vertex 427.331604 -50.568687 266.996246
   vertex 427.331604 -50.611683 267.086304
   vertex 426.172882 -50.611683 267.086304
  endloop
 endfacet
 facet normal 0.000000 -0.902428 -0.430840
  outer loop
   vertex 426.172882 -50.611683 267.086304
   vertex 426.172882 -50.568687 266.996246
   vertex 427.331604 -50.568687 266.996246
  endloop
 endfacet
 facet normal 0.000000 -0.559179 0.829047
  outer loop
   vertex 427.331604 -50.568687 266.996246
   vertex 426.172882 -50.568687 266.996246
   vertex 426.172882 -51.553192 266.332214
  endloop
 endfacet
 facet normal 0.000000 0.992739 0.120290
  outer loop
   vertex 436.666931 -49.909664 266.444397
   vertex 436.666931 -49.843288 265.896606
   vertex 435.508240 -49.909664 266.444397
  endloop
 endfacet
 facet normal 0.000000 0.992739 0.120290
  outer loop
   vertex 435.508240 -49.909664 266.444397
   vertex 436.666931 -49.843288 265.896606
   vertex 435.508240 -49.843288 265.896606
  endloop
 endfacet
 facet normal -1.000000 0.000000 0.000000
  outer loop
   vertex 435.508240 -49.843288 265.896606
   vertex 435.508240 -50.805325 265.247681
   vertex 435.508240 -49.909664 266.444397
  endloop
 endfacet
 facet normal -0.000000 0.559207 -0.829028
  outer loop
   vertex 436.666931 -49.843288 265.896606
   vertex 435.508240 -50.805325 265.247681
   vertex 435.508240 -49.843288 265.896606
  endloop
 endfacet
 facet normal 0.000000 0.559207 -0.829028
  outer loop
   vertex 436.666962 -50.805325 265.247681
   vertex 435.508240 -50.805325 265.247681
   vertex 436.666931 -49.843288 265.896606
  endloop
 endfacet
 facet normal 1.000000 0.000014 0.000026
  outer loop
   vertex 436.666931 -49.843288 265.896606
   vertex 436.666962 -51.288372 265.514435
   vertex 436.666962 -50.805325 265.247681
  endloop
 endfacet
 facet normal 0.000000 -0.483418 -0.875390
  outer loop
   vertex 436.666962 -50.805325 265.247681
   vertex 436.666962 -51.288372 265.514435
   vertex 435.508240 -50.805325 265.247681
  endloop
 endfacet
 facet normal -0.000000 -0.483418 -0.875390
  outer loop
   vertex 435.508240 -50.805325 265.247681
   vertex 436.666962 -51.288372 265.514435
   vertex 435.508240 -51.288372 265.514435
  endloop
 endfacet
 facet normal -1.000000 0.000000 0.000000
  outer loop
   vertex 435.508240 -51.288372 265.514435
   vertex 435.508240 -49.909664 266.444397
   vertex 435.508240 -50.805325 265.247681
  endloop
 endfacet
 facet normal -1.000000 -0.000000 -0.000000
  outer loop
   vertex 435.508240 -51.553192 266.332214
   vertex 435.508240 -49.909664 266.444397
   vertex 435.508240 -51.288372 265.514435
  endloop
 endfacet
 facet normal -1.000000 -0.000000 0.000000
  outer loop
   vertex 435.508240 -50.568687 266.996277
   vertex 435.508240 -49.909664 266.444397
   vertex 435.508240 -51.553192 266.332214
  endloop
 endfacet
 facet normal -0.000000 -0.559196 0.829035
  outer loop
   vertex 435.508240 -51.553192 266.332214
   vertex 436.666931 -50.568687 266.996277
   vertex 435.508240 -50.568687 266.996277
  endloop
 endfacet
 facet normal -0.000000 -0.902372 -0.430959
  outer loop
   vertex 435.508240 -50.568687 266.996277
   vertex 436.666931 -50.568687 266.996277
   vertex 435.508240 -50.611683 267.086304
  endloop
 endfacet
 facet normal -0.000000 -0.902372 -0.430959
  outer loop
   vertex 435.508240 -50.611683 267.086304
   vertex 436.666931 -50.568687 266.996277
   vertex 436.666931 -50.611683 267.086304
  endloop
 endfacet
 facet normal 0.000000 -0.559211 0.829026
  outer loop
   vertex 436.666931 -50.611683 267.086304
   vertex 435.508240 -50.479893 267.175201
   vertex 435.508240 -50.611683 267.086304
  endloop
 endfacet
 facet normal -0.000000 -0.559211 0.829026
  outer loop
   vertex 436.666931 -50.479893 267.175201
   vertex 435.508240 -50.479893 267.175201
   vertex 436.666931 -50.611683 267.086304
  endloop
 endfacet
 facet normal -0.000000 0.314962 0.949104
  outer loop
   vertex 436.666931 -50.380299 267.142151
   vertex 435.508240 -50.479893 267.175201
   vertex 436.666931 -50.479893 267.175201
  endloop
 endfacet
 facet normal 1.000000 -0.000000 -0.000000
  outer loop
   vertex 436.666931 -50.479893 267.175201
   vertex 436.666931 -50.568687 266.996277
   vertex 436.666931 -50.380299 267.142151
  endloop
 endfacet
 facet normal 1.000000 -0.000000 0.000000
  outer loop
   vertex 436.666931 -50.380299 267.142151
   vertex 436.666931 -50.568687 266.996277
   vertex 436.666931 -49.909664 266.444397
  endloop
 endfacet
 facet normal 1.000000 -0.000000 0.000000
  outer loop
   vertex 436.666931 -49.909664 266.444397
   vertex 436.666931 -50.568687 266.996277
   vertex 436.666931 -51.553192 266.332214
  endloop
 endfacet
 facet normal 1.000000 -0.000002 0.000037
  outer loop
   vertex 436.666931 -51.553192 266.332214
   vertex 436.666962 -51.288372 265.514435
   vertex 436.666931 -49.909664 266.444397
  endloop
 endfacet
 facet normal 1.000000 -0.000018 0.000031
  outer loop
   vertex 436.666931 -51.759003 266.212189
   vertex 436.666962 -51.288372 265.514435
   vertex 436.666931 -51.553192 266.332214
  endloop
 endfacet
 facet normal -0.000000 -0.829043 -0.559184
  outer loop
   vertex 435.508240 -51.288372 265.514435
   vertex 436.666962 -51.288372 265.514435
   vertex 436.666931 -51.759003 266.212189
  endloop
 endfacet
 facet normal 0.000000 -0.829043 -0.559184
  outer loop
   vertex 436.666931 -51.759003 266.212189
   vertex 435.508240 -51.759003 266.212189
   vertex 435.508240 -51.288372 265.514435
  endloop
 endfacet
 facet normal -1.000000 0.000000 0.000000
  outer loop
   vertex 435.508240 -51.288372 265.514435
   vertex 435.508240 -51.759003 266.212189
   vertex 435.508240 -51.553192 266.332214
  endloop
 endfacet
 facet normal -1.000000 -0.000000 -0.000000
  outer loop
   vertex 435.508240 -51.553192 266.332214
   vertex 435.508240 -51.759003 266.212189
   vertex 435.508240 -51.752357 266.316925
  endloop
 endfacet
 facet normal -1.000000 0.000000 -0.000000
  outer loop
   vertex 435.508240 -51.752357 266.316925
   vertex 435.508240 -51.620571 266.405823
   vertex 435.508240 -51.553192 266.332214
  endloop
 endfacet
 facet normal -0.000000 -0.559222 0.829018
  outer loop
   vertex 436.666931 -51.620571 266.405823
   vertex 435.508240 -51.620571 266.405823
   vertex 435.508240 -51.752357 266.316925
  endloop
 endfacet
 facet normal -0.000000 0.737630 0.675205
  outer loop
   vertex 435.508240 -51.553192 266.332214
   vertex 435.508240 -51.620571 266.405823
   vertex 436.666931 -51.620571 266.405823
  endloop
 endfacet
 facet normal 0.000000 0.737630 0.675205
  outer loop
   vertex 436.666931 -51.620571 266.405823
   vertex 436.666931 -51.553192 266.332214
   vertex 435.508240 -51.553192 266.332214
  endloop
 endfacet
 facet normal 0.000000 -0.559196 0.829035
  outer loop
   vertex 435.508240 -51.553192 266.332214
   vertex 436.666931 -51.553192 266.332214
   vertex 436.666931 -50.568687 266.996277
  endloop
 endfacet
 facet normal -0.000000 -0.829021 -0.559217
  outer loop
   vertex 424.681488 -50.266502 265.039368
   vertex 425.031464 -50.266502 265.039368
   vertex 424.614502 -50.406300 265.246613
  endloop
 endfacet
 facet normal 0.000003 -0.829024 -0.559213
  outer loop
   vertex 424.614502 -50.406300 265.246613
   vertex 425.031464 -50.266502 265.039368
   vertex 424.917603 -50.504162 265.391693
  endloop
 endfacet
 facet normal -0.000015 -0.829041 -0.559188
  outer loop
   vertex 424.917603 -50.504162 265.391693
   vertex 424.431488 -50.508640 265.398346
   vertex 424.614502 -50.406300 265.246613
  endloop
 endfacet
 facet normal -0.000015 -0.829032 -0.559201
  outer loop
   vertex 424.606476 -50.678139 265.649628
   vertex 424.431488 -50.508640 265.398346
   vertex 424.917603 -50.504162 265.391693
  endloop
 endfacet
 facet normal -0.000014 -0.829032 -0.559202
  outer loop
   vertex 424.181488 -50.546101 265.453888
   vertex 424.431488 -50.508640 265.398346
   vertex 424.606476 -50.678139 265.649628
  endloop
 endfacet
 facet normal -0.000019 -0.829037 -0.559194
  outer loop
   vertex 424.606476 -50.678139 265.649628
   vertex 424.181488 -50.741817 265.744049
   vertex 424.181488 -50.546101 265.453888
  endloop
 endfacet
 facet normal 0.000011 -0.829037 -0.559194
  outer loop
   vertex 424.181488 -50.546101 265.453888
   vertex 424.181488 -50.741817 265.744049
   vertex 423.931488 -50.508640 265.398346
  endloop
 endfacet
 facet normal 0.000020 -0.829034 -0.559199
  outer loop
   vertex 423.931488 -50.508640 265.398346
   vertex 424.181488 -50.741817 265.744049
   vertex 423.756470 -50.678139 265.649628
  endloop
 endfacet
 facet normal 0.000025 -0.829035 -0.559196
  outer loop
   vertex 423.756470 -50.678139 265.649628
   vertex 423.748474 -50.406300 265.246613
   vertex 423.931488 -50.508640 265.398346
  endloop
 endfacet
 facet normal 0.000009 -0.829036 -0.559196
  outer loop
   vertex 423.445343 -50.504162 265.391693
   vertex 423.748474 -50.406300 265.246613
   vertex 423.756470 -50.678139 265.649628
  endloop
 endfacet
 facet normal -0.000005 -0.829022 -0.559216
  outer loop
   vertex 423.681488 -50.266502 265.039368
   vertex 423.748474 -50.406300 265.246613
   vertex 423.445343 -50.504162 265.391693
  endloop
 endfacet
 facet normal 0.000000 -0.829023 -0.559214
  outer loop
   vertex 423.445343 -50.504162 265.391693
   vertex 423.331482 -50.266502 265.039368
   vertex 423.681488 -50.266502 265.039368
  endloop
 endfacet
 facet normal 0.000000 -0.829059 -0.559160
  outer loop
   vertex 423.681488 -50.266502 265.039368
   vertex 423.331482 -50.266502 265.039368
   vertex 423.748474 -50.126705 264.832092
  endloop
 endfacet
 facet normal -0.000022 -0.829039 -0.559191
  outer loop
   vertex 423.748474 -50.126705 264.832092
   vertex 423.331482 -50.266502 265.039368
   vertex 423.331482 -49.707310 264.210327
  endloop
 endfacet
 facet normal -0.000021 -0.829038 -0.559192
  outer loop
   vertex 423.331482 -49.707310 264.210327
   vertex 423.931488 -50.024364 264.680359
   vertex 423.748474 -50.126705 264.832092
  endloop
 endfacet
 facet normal 0.000040 -0.829002 -0.559246
  outer loop
   vertex 424.181488 -49.986904 264.624847
   vertex 423.931488 -50.024364 264.680359
   vertex 423.331482 -49.707310 264.210327
  endloop
 endfacet
 facet normal -0.000000 0.829059 0.559160
  outer loop
   vertex 438.158356 -49.851986 265.318970
   vertex 437.808350 -49.851986 265.318970
   vertex 438.225342 -49.991783 265.526245
  endloop
 endfacet
 facet normal -0.000012 0.829048 0.559177
  outer loop
   vertex 438.225342 -49.991783 265.526245
   vertex 437.808350 -49.851986 265.318970
   vertex 437.922241 -50.089642 265.671326
  endloop
 endfacet
 facet normal 0.000026 0.829012 0.559231
  outer loop
   vertex 437.922241 -50.089642 265.671326
   vertex 438.408356 -50.094124 265.677948
   vertex 438.225342 -49.991783 265.526245
  endloop
 endfacet
 facet normal 0.000027 0.829056 0.559166
  outer loop
   vertex 438.233368 -50.263618 265.929260
   vertex 438.408356 -50.094124 265.677948
   vertex 437.922241 -50.089642 265.671326
  endloop
 endfacet
 facet normal -0.000009 0.829067 0.559149
  outer loop
   vertex 438.658356 -50.131580 265.733490
   vertex 438.408356 -50.094124 265.677948
   vertex 438.233368 -50.263618 265.929260
  endloop
 endfacet
 facet normal 0.000022 0.829037 0.559194
  outer loop
   vertex 438.233368 -50.263618 265.929260
   vertex 438.658356 -50.327297 266.023651
   vertex 438.658356 -50.131580 265.733490
  endloop
 endfacet
 facet normal 0.000024 0.829037 0.559194
  outer loop
   vertex 438.658356 -50.131580 265.733490
   vertex 438.658356 -50.327297 266.023651
   vertex 438.908356 -50.094124 265.677948
  endloop
 endfacet
 facet normal -0.000030 0.829055 0.559167
  outer loop
   vertex 438.908356 -50.094124 265.677948
   vertex 438.658356 -50.327297 266.023651
   vertex 439.083374 -50.263618 265.929260
  endloop
 endfacet
 facet normal -0.000076 0.829040 0.559189
  outer loop
   vertex 439.083374 -50.263618 265.929260
   vertex 439.091370 -49.991783 265.526245
   vertex 438.908356 -50.094124 265.677948
  endloop
 endfacet
 facet normal 0.000003 0.829039 0.559190
  outer loop
   vertex 439.394501 -50.089642 265.671326
   vertex 439.091370 -49.991783 265.526245
   vertex 439.083374 -50.263618 265.929260
  endloop
 endfacet
 facet normal 0.000020 0.829056 0.559165
  outer loop
   vertex 439.158356 -49.851986 265.318970
   vertex 439.091370 -49.991783 265.526245
   vertex 439.394501 -50.089642 265.671326
  endloop
 endfacet
 facet normal 0.000000 0.829050 0.559174
  outer loop
   vertex 439.394501 -50.089642 265.671326
   vertex 439.508362 -49.851986 265.318970
   vertex 439.158356 -49.851986 265.318970
  endloop
 endfacet
 facet normal 0.000000 0.829014 0.559228
  outer loop
   vertex 439.158356 -49.851986 265.318970
   vertex 439.508362 -49.851986 265.318970
   vertex 439.091370 -49.712185 265.111725
  endloop
 endfacet
 facet normal 0.000024 0.829037 0.559194
  outer loop
   vertex 439.091370 -49.712185 265.111725
   vertex 439.508362 -49.851986 265.318970
   vertex 439.508362 -49.292789 264.489929
  endloop
 endfacet
 facet normal -0.000006 0.829046 0.559180
  outer loop
   vertex 439.508362 -49.292789 264.489929
   vertex 438.908356 -49.609844 264.959991
   vertex 439.091370 -49.712185 265.111725
  endloop
 endfacet
 facet normal -0.000016 0.829052 0.559171
  outer loop
   vertex 438.658356 -49.572388 264.904449
   vertex 438.908356 -49.609844 264.959991
   vertex 439.508362 -49.292789 264.489929
  endloop
 endfacet
 facet normal 0.000000 0.829037 0.559194
  outer loop
   vertex 423.331482 -49.292789 264.489929
   vertex 424.181488 -49.572388 264.904449
   vertex 425.031464 -49.292789 264.489929
  endloop
 endfacet
 facet normal 0.000031 0.829008 0.559237
  outer loop
   vertex 425.031464 -49.292789 264.489929
   vertex 424.181488 -49.572388 264.904449
   vertex 424.431488 -49.609844 264.959961
  endloop
 endfacet
 facet normal -0.000021 0.829038 0.559192
  outer loop
   vertex 424.431488 -49.609844 264.959961
   vertex 424.614502 -49.712185 265.111694
   vertex 425.031464 -49.292789 264.489929
  endloop
 endfacet
 facet normal 0.000006 0.829046 0.559180
  outer loop
   vertex 438.225342 -49.712185 265.111725
   vertex 438.408356 -49.609844 264.959991
   vertex 437.808350 -49.292789 264.489929
  endloop
 endfacet
 facet normal 0.000016 0.829052 0.559171
  outer loop
   vertex 437.808350 -49.292789 264.489929
   vertex 438.408356 -49.609844 264.959991
   vertex 438.658356 -49.572388 264.904449
  endloop
 endfacet
 facet normal 0.000000 0.829037 0.559194
  outer loop
   vertex 438.658356 -49.572388 264.904449
   vertex 439.508362 -49.292789 264.489929
   vertex 437.808350 -49.292789 264.489929
  endloop
 endfacet
 facet normal 0.000000 -0.829040 -0.559189
  outer loop
   vertex 439.508362 -49.707310 264.210327
   vertex 438.658356 -49.986904 264.624847
   vertex 437.808380 -49.707310 264.210327
  endloop
 endfacet
 facet normal -0.000006 -0.829046 -0.559180
  outer loop
   vertex 437.808380 -49.707310 264.210327
   vertex 438.658356 -49.986904 264.624847
   vertex 438.408356 -50.024364 264.680389
  endloop
 endfacet
 facet normal -0.000006 -0.829046 -0.559180
  outer loop
   vertex 438.408356 -50.024364 264.680389
   vertex 438.225342 -50.126705 264.832123
   vertex 437.808380 -49.707310 264.210327
  endloop
 endfacet
 facet normal 0.000021 -0.829038 -0.559192
  outer loop
   vertex 424.614502 -50.126705 264.832092
   vertex 424.431488 -50.024364 264.680359
   vertex 425.031494 -49.707310 264.210327
  endloop
 endfacet
 facet normal -0.000040 -0.829002 -0.559246
  outer loop
   vertex 425.031494 -49.707310 264.210327
   vertex 424.431488 -50.024364 264.680359
   vertex 424.181488 -49.986904 264.624847
  endloop
 endfacet
 facet normal 0.000000 -0.829040 -0.559189
  outer loop
   vertex 424.181488 -49.986904 264.624847
   vertex 423.331482 -49.707310 264.210327
   vertex 425.031494 -49.707310 264.210327
  endloop
 endfacet
 facet normal 0.000000 -0.997993 0.063320
  outer loop
   vertex 436.666931 -51.759003 266.212189
   vertex 436.666931 -51.752357 266.316925
   vertex 435.508240 -51.759003 266.212189
  endloop
 endfacet
 facet normal -0.000000 -0.997993 0.063320
  outer loop
   vertex 435.508240 -51.759003 266.212189
   vertex 436.666931 -51.752357 266.316925
   vertex 435.508240 -51.752357 266.316925
  endloop
 endfacet
 facet normal 0.000000 0.829033 0.559200
  outer loop
   vertex 426.419922 -50.030174 266.479919
   vertex 426.419922 -50.373260 266.988556
   vertex 436.419922 -50.030174 266.479919
  endloop
 endfacet
 facet normal -0.000000 0.829033 0.559200
  outer loop
   vertex 436.419922 -50.030174 266.479919
   vertex 426.419922 -50.373260 266.988556
   vertex 436.419922 -50.373260 266.988556
  endloop
 endfacet
 facet normal 0.000000 0.315213 0.949021
  outer loop
   vertex 427.331604 -50.479897 267.175201
   vertex 427.331604 -50.380299 267.142120
   vertex 426.172882 -50.479897 267.175201
  endloop
 endfacet
 facet normal 0.000000 0.315213 0.949021
  outer loop
   vertex 426.172882 -50.479897 267.175201
   vertex 427.331604 -50.380299 267.142120
   vertex 426.172882 -50.380299 267.142120
  endloop
 endfacet
 facet normal 0.000000 -0.559199 0.829033
  outer loop
   vertex 439.158356 -50.266502 265.039368
   vertex 439.508362 -50.266502 265.039368
   vertex 439.333374 -50.059242 265.179169
  endloop
 endfacet
 facet normal 1.000000 0.000020 0.000002
  outer loop
   vertex 436.666931 -49.909664 266.444397
   vertex 436.666962 -51.288372 265.514435
   vertex 436.666931 -49.843288 265.896606
  endloop
 endfacet
 facet normal 0.000000 0.829014 0.559228
  outer loop
   vertex 437.808350 -49.851986 265.318970
   vertex 438.158356 -49.851986 265.318970
   vertex 438.225342 -49.712185 265.111725
  endloop
 endfacet
 facet normal 0.000000 0.829052 0.559171
  outer loop
   vertex 424.681488 -49.851986 265.318970
   vertex 425.031464 -49.851986 265.318970
   vertex 424.614502 -49.712185 265.111694
  endloop
 endfacet
 facet normal 0.000000 0.559203 -0.829031
  outer loop
   vertex 439.508362 -50.266502 265.039368
   vertex 439.158356 -49.851986 265.318970
   vertex 439.508362 -49.851986 265.318970
  endloop
 endfacet
 facet normal 0.000000 -0.829038 -0.559193
  outer loop
   vertex 426.419159 -50.865307 265.377289
   vertex 424.770996 -50.865307 265.377289
   vertex 424.770996 -50.003563 264.099701
  endloop
 endfacet
 facet normal 0.000000 0.829038 0.559193
  outer loop
   vertex 436.420685 -49.079239 264.723175
   vertex 436.420685 -49.940983 266.000763
   vertex 438.068848 -49.079239 264.723175
  endloop
 endfacet
 facet normal 0.000000 0.559161 -0.829059
  outer loop
   vertex 423.331482 -49.851986 265.318939
   vertex 423.681488 -50.266502 265.039368
   vertex 423.331482 -50.266502 265.039368
  endloop
 endfacet
 facet normal -1.000000 0.000000 -0.000000
  outer loop
   vertex 426.172882 -51.752357 266.316895
   vertex 426.172882 -51.620571 266.405792
   vertex 426.172882 -51.553192 266.332214
  endloop
 endfacet
 facet normal 0.000000 0.559203 -0.829031
  outer loop
   vertex 438.158356 -49.851986 265.318970
   vertex 437.808350 -50.266502 265.039368
   vertex 437.808350 -49.851986 265.318970
  endloop
 endfacet
 facet normal -1.000000 0.000000 0.000000
  outer loop
   vertex 426.172882 -51.288372 265.514435
   vertex 426.172882 -49.909664 266.444366
   vertex 426.172882 -50.805325 265.247681
  endloop
 endfacet
 facet normal 1.000000 -0.000000 0.000000
  outer loop
   vertex 436.666931 -50.479893 267.175201
   vertex 436.666931 -50.611683 267.086304
   vertex 436.666931 -50.568687 266.996277
  endloop
 endfacet
 facet normal 0.000000 -0.829038 -0.559193
  outer loop
   vertex 436.420685 -50.865307 265.377289
   vertex 436.420685 -50.003563 264.099701
   vertex 438.068848 -50.003563 264.099701
  endloop
 endfacet
 facet normal 1.000000 0.000000 0.000000
  outer loop
   vertex 426.419159 -50.003563 264.099701
   vertex 426.419159 -49.079239 264.723145
   vertex 426.419159 -49.940983 266.000732
  endloop
 endfacet
 facet normal 0.000000 0.559203 -0.829031
  outer loop
   vertex 424.681488 -50.266502 265.039368
   vertex 425.031464 -49.851986 265.318970
   vertex 425.031464 -50.266502 265.039368
  endloop
 endfacet
 facet normal 0.000000 -0.829059 -0.559160
  outer loop
   vertex 425.031464 -50.266502 265.039368
   vertex 424.681488 -50.266502 265.039368
   vertex 424.614502 -50.126705 264.832092
  endloop
 endfacet
 facet normal -0.707120 -0.395406 0.586204
  outer loop
   vertex 424.431488 -50.024364 264.680359
   vertex 424.614502 -49.712185 265.111694
   vertex 424.431488 -49.609844 264.959961
  endloop
 endfacet
 facet normal -0.258752 -0.540155 0.800800
  outer loop
   vertex 424.431488 -50.024364 264.680359
   vertex 424.431488 -49.609844 264.959961
   vertex 424.181488 -49.986904 264.624847
  endloop
 endfacet
 facet normal -0.258744 -0.540160 0.800799
  outer loop
   vertex 424.181488 -49.986904 264.624847
   vertex 424.431488 -49.609844 264.959961
   vertex 424.181488 -49.572388 264.904449
  endloop
 endfacet
 facet normal 0.258752 -0.540158 0.800797
  outer loop
   vertex 424.181488 -49.572388 264.904449
   vertex 423.931488 -50.024364 264.680359
   vertex 424.181488 -49.986904 264.624847
  endloop
 endfacet
 facet normal 0.258752 -0.540158 0.800797
  outer loop
   vertex 423.931488 -49.609848 264.959961
   vertex 423.931488 -50.024364 264.680359
   vertex 424.181488 -49.572388 264.904449
  endloop
 endfacet
 facet normal 0.707120 -0.395409 0.586202
  outer loop
   vertex 423.748474 -50.126705 264.832092
   vertex 423.931488 -50.024364 264.680359
   vertex 423.931488 -49.609848 264.959961
  endloop
 endfacet
 facet normal 0.707116 -0.395408 0.586207
  outer loop
   vertex 423.931488 -49.609848 264.959961
   vertex 423.748474 -49.712185 265.111694
   vertex 423.748474 -50.126705 264.832092
  endloop
 endfacet
 facet normal 0.965930 -0.144722 0.214556
  outer loop
   vertex 423.748474 -50.126705 264.832092
   vertex 423.748474 -49.712185 265.111694
   vertex 423.681488 -50.266502 265.039368
  endloop
 endfacet
 facet normal -0.965924 -0.144737 0.214575
  outer loop
   vertex 439.158356 -50.266502 265.039368
   vertex 439.158356 -49.851986 265.318970
   vertex 439.091370 -50.126705 264.832123
  endloop
 endfacet
 facet normal -0.965924 -0.144735 0.214574
  outer loop
   vertex 439.091370 -50.126705 264.832123
   vertex 439.158356 -49.851986 265.318970
   vertex 439.091370 -49.712185 265.111725
  endloop
 endfacet
 facet normal -0.707120 -0.395406 0.586204
  outer loop
   vertex 439.091370 -49.712185 265.111725
   vertex 438.908356 -50.024364 264.680389
   vertex 439.091370 -50.126705 264.832123
  endloop
 endfacet
 facet normal -0.707120 -0.395406 0.586204
  outer loop
   vertex 438.908356 -49.609844 264.959991
   vertex 438.908356 -50.024364 264.680389
   vertex 439.091370 -49.712185 265.111725
  endloop
 endfacet
 facet normal -0.258843 -0.540141 0.800779
  outer loop
   vertex 438.658356 -49.986904 264.624847
   vertex 438.908356 -50.024364 264.680389
   vertex 438.908356 -49.609844 264.959991
  endloop
 endfacet
 facet normal -0.258835 -0.540146 0.800779
  outer loop
   vertex 438.908356 -49.609844 264.959991
   vertex 438.658356 -49.572388 264.904449
   vertex 438.658356 -49.986904 264.624847
  endloop
 endfacet
 facet normal 0.258843 -0.540145 0.800777
  outer loop
   vertex 438.658356 -49.986904 264.624847
   vertex 438.658356 -49.572388 264.904449
   vertex 438.408356 -50.024364 264.680389
  endloop
 endfacet
 facet normal 0.258835 -0.540143 0.800781
  outer loop
   vertex 438.408356 -50.024364 264.680389
   vertex 438.658356 -49.572388 264.904449
   vertex 438.408356 -49.609844 264.959991
  endloop
 endfacet
 facet normal 0.707120 -0.395406 0.586204
  outer loop
   vertex 438.408356 -49.609844 264.959991
   vertex 438.225342 -50.126705 264.832123
   vertex 438.408356 -50.024364 264.680389
  endloop
 endfacet
 facet normal 0.965934 -0.144715 0.214544
  outer loop
   vertex 425.031464 -50.266502 265.039368
   vertex 425.031464 -49.851986 265.318970
   vertex 424.917603 -50.504162 265.391693
  endloop
 endfacet
 facet normal 0.965934 -0.144715 0.214546
  outer loop
   vertex 424.917603 -50.504162 265.391693
   vertex 425.031464 -49.851986 265.318970
   vertex 424.917603 -50.089642 265.671295
  endloop
 endfacet
 facet normal 0.707104 -0.395415 0.586218
  outer loop
   vertex 424.917603 -50.089642 265.671295
   vertex 424.606476 -50.678139 265.649628
   vertex 424.917603 -50.504162 265.391693
  endloop
 endfacet
 facet normal 0.707104 -0.395415 0.586218
  outer loop
   vertex 424.606476 -50.263618 265.929230
   vertex 424.606476 -50.678139 265.649628
   vertex 424.917603 -50.089642 265.671295
  endloop
 endfacet
 facet normal 0.258845 -0.540141 0.800779
  outer loop
   vertex 424.181488 -50.741817 265.744049
   vertex 424.606476 -50.678139 265.649628
   vertex 424.606476 -50.263618 265.929230
  endloop
 endfacet
 facet normal 0.258845 -0.540141 0.800779
  outer loop
   vertex 424.606476 -50.263618 265.929230
   vertex 424.181488 -50.327297 266.023651
   vertex 424.181488 -50.741817 265.744049
  endloop
 endfacet
 facet normal -0.258828 -0.540144 0.800783
  outer loop
   vertex 424.181488 -50.741817 265.744049
   vertex 424.181488 -50.327297 266.023651
   vertex 423.756470 -50.678139 265.649628
  endloop
 endfacet
 facet normal -0.258828 -0.540144 0.800783
  outer loop
   vertex 423.756470 -50.678139 265.649628
   vertex 424.181488 -50.327297 266.023651
   vertex 423.756470 -50.263618 265.929230
  endloop
 endfacet
 facet normal -0.707104 -0.395415 0.586218
  outer loop
   vertex 423.756470 -50.263618 265.929230
   vertex 423.445343 -50.504162 265.391693
   vertex 423.756470 -50.678139 265.649628
  endloop
 endfacet
 facet normal -0.707104 -0.395415 0.586218
  outer loop
   vertex 423.445343 -50.089642 265.671295
   vertex 423.445343 -50.504162 265.391693
   vertex 423.756470 -50.263618 265.929230
  endloop
 endfacet
 facet normal -0.965934 -0.144715 0.214545
  outer loop
   vertex 423.331482 -50.266502 265.039368
   vertex 423.445343 -50.504162 265.391693
   vertex 423.445343 -50.089642 265.671295
  endloop
 endfacet
 facet normal -0.965937 -0.144697 0.214540
  outer loop
   vertex 423.445343 -50.089642 265.671295
   vertex 423.331482 -49.851986 265.318939
   vertex 423.331482 -50.266502 265.039368
  endloop
 endfacet
 facet normal 0.965938 -0.144707 0.214532
  outer loop
   vertex 439.508362 -50.266502 265.039368
   vertex 439.508362 -49.851986 265.318970
   vertex 439.394501 -50.504162 265.391724
  endloop
 endfacet
 facet normal 0.965937 -0.144707 0.214534
  outer loop
   vertex 439.394501 -50.504162 265.391724
   vertex 439.508362 -49.851986 265.318970
   vertex 439.394501 -50.089642 265.671326
  endloop
 endfacet
 facet normal 0.707104 -0.395415 0.586218
  outer loop
   vertex 439.394501 -50.089642 265.671326
   vertex 439.083374 -50.678139 265.649658
   vertex 439.394501 -50.504162 265.391724
  endloop
 endfacet
 facet normal 0.707104 -0.395415 0.586218
  outer loop
   vertex 439.083374 -50.263618 265.929260
   vertex 439.083374 -50.678139 265.649658
   vertex 439.394501 -50.089642 265.671326
  endloop
 endfacet
 facet normal 0.258774 -0.540152 0.800795
  outer loop
   vertex 438.658356 -50.741817 265.744049
   vertex 439.083374 -50.678139 265.649658
   vertex 439.083374 -50.263618 265.929260
  endloop
 endfacet
 facet normal 0.258774 -0.540152 0.800795
  outer loop
   vertex 439.083374 -50.263618 265.929260
   vertex 438.658356 -50.327297 266.023651
   vertex 438.658356 -50.741817 265.744049
  endloop
 endfacet
 facet normal -0.258792 -0.540149 0.800791
  outer loop
   vertex 438.658356 -50.741817 265.744049
   vertex 438.658356 -50.327297 266.023651
   vertex 438.233368 -50.678139 265.649658
  endloop
 endfacet
 facet normal -0.258792 -0.540149 0.800791
  outer loop
   vertex 438.233368 -50.678139 265.649658
   vertex 438.658356 -50.327297 266.023651
   vertex 438.233368 -50.263618 265.929260
  endloop
 endfacet
 facet normal -0.707104 -0.395415 0.586218
  outer loop
   vertex 438.233368 -50.263618 265.929260
   vertex 437.922241 -50.504162 265.391724
   vertex 438.233368 -50.678139 265.649658
  endloop
 endfacet
 facet normal -0.707104 -0.395415 0.586218
  outer loop
   vertex 437.922241 -50.089642 265.671326
   vertex 437.922241 -50.504162 265.391724
   vertex 438.233368 -50.263618 265.929260
  endloop
 endfacet
 facet normal -0.965920 -0.144743 0.214586
  outer loop
   vertex 437.808350 -50.266502 265.039368
   vertex 437.922241 -50.504162 265.391724
   vertex 437.922241 -50.089642 265.671326
  endloop
 endfacet
 facet normal -0.965920 -0.144744 0.214587
  outer loop
   vertex 437.922241 -50.089642 265.671326
   vertex 437.808350 -49.851986 265.318970
   vertex 437.808350 -50.266502 265.039368
  endloop
 endfacet
 facet normal 0.707120 -0.395406 0.586204
  outer loop
   vertex 438.408356 -49.609844 264.959991
   vertex 438.225342 -49.712185 265.111725
   vertex 438.225342 -50.126705 264.832123
  endloop
 endfacet
 facet normal 0.965924 -0.144735 0.214574
  outer loop
   vertex 438.225342 -50.126705 264.832123
   vertex 438.225342 -49.712185 265.111725
   vertex 438.158356 -49.851986 265.318970
  endloop
 endfacet
 facet normal 0.965924 -0.144737 0.214575
  outer loop
   vertex 438.158356 -49.851986 265.318970
   vertex 438.158356 -50.266502 265.039368
   vertex 438.225342 -50.126705 264.832123
  endloop
 endfacet
 facet normal 0.965930 0.144723 -0.214555
  outer loop
   vertex 438.225342 -49.991783 265.526245
   vertex 438.158356 -50.266502 265.039368
   vertex 438.158356 -49.851986 265.318970
  endloop
 endfacet
 facet normal 0.965930 0.144723 -0.214555
  outer loop
   vertex 438.225342 -50.406300 265.246643
   vertex 438.158356 -50.266502 265.039368
   vertex 438.225342 -49.991783 265.526245
  endloop
 endfacet
 facet normal 0.707071 0.395436 -0.586243
  outer loop
   vertex 438.225342 -49.991783 265.526245
   vertex 438.408356 -50.094124 265.677948
   vertex 438.225342 -50.406300 265.246643
  endloop
 endfacet
 facet normal 0.707071 0.395436 -0.586243
  outer loop
   vertex 438.225342 -50.406300 265.246643
   vertex 438.408356 -50.094124 265.677948
   vertex 438.408356 -50.508640 265.398346
  endloop
 endfacet
 facet normal 0.258835 0.540146 -0.800779
  outer loop
   vertex 438.408356 -50.508640 265.398346
   vertex 438.408356 -50.094124 265.677948
   vertex 438.658356 -50.131580 265.733490
  endloop
 endfacet
 facet normal 0.258843 0.540141 -0.800779
  outer loop
   vertex 438.658356 -50.131580 265.733490
   vertex 438.658356 -50.546101 265.453888
   vertex 438.408356 -50.508640 265.398346
  endloop
 endfacet
 facet normal -0.258835 0.540143 -0.800781
  outer loop
   vertex 438.908356 -50.094124 265.677948
   vertex 438.658356 -50.546101 265.453888
   vertex 438.658356 -50.131580 265.733490
  endloop
 endfacet
 facet normal -0.258843 0.540145 -0.800777
  outer loop
   vertex 438.908356 -50.508640 265.398346
   vertex 438.658356 -50.546101 265.453888
   vertex 438.908356 -50.094124 265.677948
  endloop
 endfacet
 facet normal -0.707071 0.395436 -0.586243
  outer loop
   vertex 438.908356 -50.094124 265.677948
   vertex 439.091370 -49.991783 265.526245
   vertex 438.908356 -50.508640 265.398346
  endloop
 endfacet
 facet normal -0.707071 0.395436 -0.586243
  outer loop
   vertex 438.908356 -50.508640 265.398346
   vertex 439.091370 -49.991783 265.526245
   vertex 439.091370 -50.406300 265.246643
  endloop
 endfacet
 facet normal -0.965930 0.144723 -0.214555
  outer loop
   vertex 439.091370 -50.406300 265.246643
   vertex 439.091370 -49.991783 265.526245
   vertex 439.158356 -49.851986 265.318970
  endloop
 endfacet
 facet normal -0.965930 0.144723 -0.214555
  outer loop
   vertex 439.158356 -49.851986 265.318970
   vertex 439.158356 -50.266502 265.039368
   vertex 439.091370 -50.406300 265.246643
  endloop
 endfacet
 facet normal -0.707120 -0.395406 0.586204
  outer loop
   vertex 424.431488 -50.024364 264.680359
   vertex 424.614502 -50.126705 264.832092
   vertex 424.614502 -49.712185 265.111694
  endloop
 endfacet
 facet normal -0.965930 -0.144722 0.214556
  outer loop
   vertex 424.614502 -49.712185 265.111694
   vertex 424.614502 -50.126705 264.832092
   vertex 424.681488 -50.266502 265.039368
  endloop
 endfacet
 facet normal -0.965931 -0.144722 0.214553
  outer loop
   vertex 424.681488 -50.266502 265.039368
   vertex 424.681488 -49.851986 265.318970
   vertex 424.614502 -49.712185 265.111694
  endloop
 endfacet
 facet normal -0.965924 0.144737 -0.214575
  outer loop
   vertex 424.614502 -50.406300 265.246613
   vertex 424.681488 -49.851986 265.318970
   vertex 424.681488 -50.266502 265.039368
  endloop
 endfacet
 facet normal -0.965924 0.144737 -0.214575
  outer loop
   vertex 424.614502 -49.991783 265.526215
   vertex 424.681488 -49.851986 265.318970
   vertex 424.614502 -50.406300 265.246613
  endloop
 endfacet
 facet normal -0.707120 0.395409 -0.586202
  outer loop
   vertex 424.614502 -50.406300 265.246613
   vertex 424.431488 -50.508640 265.398346
   vertex 424.614502 -49.991783 265.526215
  endloop
 endfacet
 facet normal -0.707120 0.395409 -0.586202
  outer loop
   vertex 424.614502 -49.991783 265.526215
   vertex 424.431488 -50.508640 265.398346
   vertex 424.431488 -50.094124 265.677948
  endloop
 endfacet
 facet normal -0.258843 0.540145 -0.800777
  outer loop
   vertex 424.431488 -50.094124 265.677948
   vertex 424.431488 -50.508640 265.398346
   vertex 424.181488 -50.546101 265.453888
  endloop
 endfacet
 facet normal -0.258744 0.540116 -0.800829
  outer loop
   vertex 424.181488 -50.546101 265.453888
   vertex 424.181488 -50.131580 265.733459
   vertex 424.431488 -50.094124 265.677948
  endloop
 endfacet
 facet normal 0.258843 0.540101 -0.800807
  outer loop
   vertex 423.931488 -50.508640 265.398346
   vertex 424.181488 -50.131580 265.733459
   vertex 424.181488 -50.546101 265.453888
  endloop
 endfacet
 facet normal 0.258744 0.540160 -0.800799
  outer loop
   vertex 423.931488 -50.094124 265.677948
   vertex 424.181488 -50.131580 265.733459
   vertex 423.931488 -50.508640 265.398346
  endloop
 endfacet
 facet normal 0.707120 0.395409 -0.586202
  outer loop
   vertex 423.931488 -50.508640 265.398346
   vertex 423.748474 -50.406300 265.246613
   vertex 423.931488 -50.094124 265.677948
  endloop
 endfacet
 facet normal 0.707120 0.395409 -0.586202
  outer loop
   vertex 423.931488 -50.094124 265.677948
   vertex 423.748474 -50.406300 265.246613
   vertex 423.748474 -49.991783 265.526215
  endloop
 endfacet
 facet normal 0.965924 0.144737 -0.214575
  outer loop
   vertex 423.748474 -49.991783 265.526215
   vertex 423.748474 -50.406300 265.246613
   vertex 423.681488 -50.266502 265.039368
  endloop
 endfacet
 facet normal 0.965930 0.144712 -0.214563
  outer loop
   vertex 423.681488 -50.266502 265.039368
   vertex 423.681488 -49.851986 265.318939
   vertex 423.748474 -49.991783 265.526215
  endloop
 endfacet
 facet normal 0.965924 -0.144725 0.214581
  outer loop
   vertex 423.748474 -49.712185 265.111694
   vertex 423.681488 -49.851986 265.318939
   vertex 423.681488 -50.266502 265.039368
  endloop
 endfacet
endsolid