solid stl file generated from DOUG
 facet normal -0.866010 0.278898 0.415021
  outer loop
   vertex 473.762909 75.195137 140.420197
   vertex 473.762909 74.779160 140.699738
   vertex 473.888214 75.316177 140.600327
  endloop
 endfacet
 facet normal -0.865998 0.278900 0.415046
  outer loop
   vertex 473.888214 75.316177 140.600327
   vertex 473.762909 74.779160 140.699738
   vertex 473.888214 74.900200 140.879852
  endloop
 endfacet
 facet normal 0.000000 0.557746 0.830012
  outer loop
   vertex 473.888214 74.900200 140.879852
   vertex 474.138794 75.316177 140.600327
   vertex 473.888214 75.316177 140.600327
  endloop
 endfacet
 facet normal -0.000000 0.557746 0.830012
  outer loop
   vertex 474.138794 74.900200 140.879852
   vertex 474.138794 75.316177 140.600327
   vertex 473.888214 74.900200 140.879852
  endloop
 endfacet
 facet normal 0.866010 0.278887 0.415028
  outer loop
   vertex 474.264099 75.195137 140.420197
   vertex 474.138794 75.316177 140.600327
   vertex 474.138794 74.900200 140.879852
  endloop
 endfacet
 facet normal 0.865998 0.278910 0.415039
  outer loop
   vertex 474.138794 74.900200 140.879852
   vertex 474.264099 74.779160 140.699738
   vertex 474.264099 75.195137 140.420197
  endloop
 endfacet
 facet normal 0.865998 -0.278910 -0.415039
  outer loop
   vertex 474.264099 75.195137 140.420197
   vertex 474.264099 74.779160 140.699738
   vertex 474.138794 75.074097 140.240082
  endloop
 endfacet
 facet normal 0.866010 -0.278887 -0.415028
  outer loop
   vertex 474.138794 75.074097 140.240082
   vertex 474.264099 74.779160 140.699738
   vertex 474.138794 74.658119 140.519608
  endloop
 endfacet
 facet normal 0.000000 -0.557746 -0.830012
  outer loop
   vertex 474.138794 74.658119 140.519608
   vertex 473.888214 75.074097 140.240082
   vertex 474.138794 75.074097 140.240082
  endloop
 endfacet
 facet normal -0.000000 -0.557746 -0.830012
  outer loop
   vertex 473.888214 74.658119 140.519608
   vertex 473.888214 75.074097 140.240082
   vertex 474.138794 74.658119 140.519608
  endloop
 endfacet
 facet normal -0.865998 -0.278900 -0.415046
  outer loop
   vertex 473.762909 75.195137 140.420197
   vertex 473.888214 75.074097 140.240082
   vertex 473.888214 74.658119 140.519608
  endloop
 endfacet
 facet normal -0.866010 -0.278898 -0.415021
  outer loop
   vertex 473.888214 74.658119 140.519608
   vertex 473.762909 74.779160 140.699738
   vertex 473.762909 75.195137 140.420197
  endloop
 endfacet
 facet normal 0.866010 0.278887 0.415028
  outer loop
   vertex 455.077301 74.779160 140.699707
   vertex 455.077301 75.195137 140.420181
   vertex 454.951996 74.900200 140.879837
  endloop
 endfacet
 facet normal 0.865998 0.278910 0.415039
  outer loop
   vertex 454.951996 74.900200 140.879837
   vertex 455.077301 75.195137 140.420181
   vertex 454.951996 75.316177 140.600296
  endloop
 endfacet
 facet normal -0.000051 0.557767 0.829998
  outer loop
   vertex 454.951996 75.316177 140.600296
   vertex 454.701416 74.900200 140.879822
   vertex 454.951996 74.900200 140.879837
  endloop
 endfacet
 facet normal -0.000000 0.557746 0.830012
  outer loop
   vertex 454.701416 75.316177 140.600296
   vertex 454.701416 74.900200 140.879822
   vertex 454.951996 75.316177 140.600296
  endloop
 endfacet
 facet normal -0.865998 0.278900 0.415046
  outer loop
   vertex 454.576111 74.779160 140.699707
   vertex 454.701416 74.900200 140.879822
   vertex 454.701416 75.316177 140.600296
  endloop
 endfacet
 facet normal -0.865998 0.278900 0.415046
  outer loop
   vertex 454.701416 75.316177 140.600296
   vertex 454.576111 75.195137 140.420181
   vertex 454.576111 74.779160 140.699707
  endloop
 endfacet
 facet normal -0.866010 -0.278887 -0.415028
  outer loop
   vertex 454.576111 74.779160 140.699707
   vertex 454.576111 75.195137 140.420181
   vertex 454.701416 74.658119 140.519577
  endloop
 endfacet
 facet normal -0.866010 -0.278887 -0.415028
  outer loop
   vertex 454.701416 74.658119 140.519577
   vertex 454.576111 75.195137 140.420181
   vertex 454.701416 75.074097 140.240051
  endloop
 endfacet
 facet normal -0.000000 -0.557746 -0.830012
  outer loop
   vertex 454.701416 75.074097 140.240051
   vertex 454.951996 74.658119 140.519577
   vertex 454.701416 74.658119 140.519577
  endloop
 endfacet
 facet normal -0.000000 -0.557746 -0.830012
  outer loop
   vertex 454.951996 75.074097 140.240051
   vertex 454.951996 74.658119 140.519577
   vertex 454.701416 75.074097 140.240051
  endloop
 endfacet
 facet normal 0.866010 -0.278887 -0.415028
  outer loop
   vertex 455.077301 74.779160 140.699707
   vertex 454.951996 74.658119 140.519577
   vertex 454.951996 75.074097 140.240051
  endloop
 endfacet
 facet normal 0.866010 -0.278887 -0.415028
  outer loop
   vertex 454.951996 75.074097 140.240051
   vertex 455.077301 75.195137 140.420181
   vertex 455.077301 74.779160 140.699707
  endloop
 endfacet
 facet normal 0.000000 0.829995 -0.557771
  outer loop
   vertex 454.701416 75.316177 140.600296
   vertex 454.951996 75.316177 140.600296
   vertex 454.826721 75.195137 140.420181
  endloop
 endfacet
 facet normal -0.000000 0.829995 -0.557771
  outer loop
   vertex 454.826721 75.195137 140.420181
   vertex 454.951996 75.316177 140.600296
   vertex 455.077301 75.195137 140.420181
  endloop
 endfacet
 facet normal 0.000000 0.830017 -0.557739
  outer loop
   vertex 455.077301 75.195137 140.420181
   vertex 454.951996 75.074097 140.240051
   vertex 454.826721 75.195137 140.420181
  endloop
 endfacet
 facet normal 0.000000 0.829995 -0.557771
  outer loop
   vertex 473.888214 75.074097 140.240082
   vertex 473.762909 75.195137 140.420197
   vertex 474.013519 75.195137 140.420197
  endloop
 endfacet
 facet normal -0.000000 0.830017 -0.557739
  outer loop
   vertex 474.013519 75.195137 140.420197
   vertex 473.762909 75.195137 140.420197
   vertex 473.888214 75.316177 140.600327
  endloop
 endfacet
 facet normal 0.000000 0.830017 -0.557739
  outer loop
   vertex 473.888214 75.316177 140.600327
   vertex 474.138794 75.316177 140.600327
   vertex 474.013519 75.195137 140.420197
  endloop
 endfacet
 facet normal 0.000000 0.830017 -0.557739
  outer loop
   vertex 474.138794 75.316177 140.600327
   vertex 474.264099 75.195137 140.420197
   vertex 474.013519 75.195137 140.420197
  endloop
 endfacet
 facet normal -0.000000 0.829995 -0.557771
  outer loop
   vertex 474.013519 75.195137 140.420197
   vertex 474.264099 75.195137 140.420197
   vertex 474.138794 75.074097 140.240082
  endloop
 endfacet
 facet normal 0.000000 0.829995 -0.557771
  outer loop
   vertex 474.138794 75.074097 140.240082
   vertex 473.888214 75.074097 140.240082
   vertex 474.013519 75.195137 140.420197
  endloop
 endfacet
 facet normal 0.000000 0.830017 -0.557739
  outer loop
   vertex 454.951996 75.074097 140.240051
   vertex 454.701416 75.074097 140.240051
   vertex 454.826721 75.195137 140.420181
  endloop
 endfacet
 facet normal -0.000000 0.830017 -0.557739
  outer loop
   vertex 454.826721 75.195137 140.420181
   vertex 454.701416 75.074097 140.240051
   vertex 454.576111 75.195137 140.420181
  endloop
 endfacet
 facet normal 0.000000 0.829995 -0.557771
  outer loop
   vertex 454.576111 75.195137 140.420181
   vertex 454.701416 75.316177 140.600296
   vertex 454.826721 75.195137 140.420181
  endloop
 endfacet
 facet normal 0.000000 0.830006 -0.557754
  outer loop
   vertex 472.556915 73.157600 141.036270
   vertex 472.556915 73.854904 142.073944
   vertex 475.548309 73.157600 141.036270
  endloop
 endfacet
 facet normal -0.000000 0.830006 -0.557754
  outer loop
   vertex 475.548309 73.157600 141.036270
   vertex 472.556915 73.854904 142.073944
   vertex 475.548309 73.854904 142.073944
  endloop
 endfacet
 facet normal 1.000000 -0.000000 0.000000
  outer loop
   vertex 475.548309 73.854904 142.073944
   vertex 475.548309 72.005066 141.810760
   vertex 475.548309 73.157600 141.036270
  endloop
 endfacet
 facet normal 1.000000 -0.000000 -0.000000
  outer loop
   vertex 475.548309 72.702370 142.848434
   vertex 475.548309 72.005066 141.810760
   vertex 475.548309 73.854904 142.073944
  endloop
 endfacet
 facet normal -0.000003 -0.830006 0.557754
  outer loop
   vertex 472.556915 72.702370 142.848419
   vertex 475.548309 72.005066 141.810760
   vertex 475.548309 72.702370 142.848434
  endloop
 endfacet
 facet normal -0.000004 0.557747 0.830011
  outer loop
   vertex 475.548309 72.702370 142.848434
   vertex 472.556915 73.854904 142.073944
   vertex 472.556915 72.702370 142.848419
  endloop
 endfacet
 facet normal -1.000000 -0.000000 0.000000
  outer loop
   vertex 472.556915 72.702370 142.848419
   vertex 472.556915 73.854904 142.073944
   vertex 472.556915 72.005066 141.810745
  endloop
 endfacet
 facet normal -1.000000 -0.000000 -0.000000
  outer loop
   vertex 472.556915 72.005066 141.810745
   vertex 472.556915 73.854904 142.073944
   vertex 472.556915 73.157600 141.036270
  endloop
 endfacet
 facet normal 0.000004 -0.557747 -0.830011
  outer loop
   vertex 472.556915 73.157600 141.036270
   vertex 475.548309 72.005066 141.810760
   vertex 472.556915 72.005066 141.810745
  endloop
 endfacet
 facet normal -0.000000 -0.557755 -0.830006
  outer loop
   vertex 475.548309 73.157600 141.036270
   vertex 475.548309 72.005066 141.810760
   vertex 472.556915 73.157600 141.036270
  endloop
 endfacet
 facet normal -1.000000 0.000000 -0.000000
  outer loop
   vertex 453.291901 72.005066 141.810730
   vertex 453.291901 72.702370 142.848404
   vertex 453.291901 73.157600 141.036240
  endloop
 endfacet
 facet normal -1.000000 -0.000000 -0.000000
  outer loop
   vertex 453.291901 73.157600 141.036240
   vertex 453.291901 72.702370 142.848404
   vertex 453.291901 73.854904 142.073914
  endloop
 endfacet
 facet normal 0.000000 0.830006 -0.557754
  outer loop
   vertex 453.291901 73.854904 142.073914
   vertex 456.283295 73.157600 141.036240
   vertex 453.291901 73.157600 141.036240
  endloop
 endfacet
 facet normal -0.000000 0.830006 -0.557754
  outer loop
   vertex 456.283295 73.854904 142.073914
   vertex 456.283295 73.157600 141.036240
   vertex 453.291901 73.854904 142.073914
  endloop
 endfacet
 facet normal 1.000000 0.000000 -0.000000
  outer loop
   vertex 456.283295 72.702370 142.848404
   vertex 456.283295 73.157600 141.036240
   vertex 456.283295 73.854904 142.073914
  endloop
 endfacet
 facet normal -0.000000 0.557755 0.830006
  outer loop
   vertex 456.283295 73.854904 142.073914
   vertex 453.291901 72.702370 142.848404
   vertex 456.283295 72.702370 142.848404
  endloop
 endfacet
 facet normal 0.000000 -0.830006 0.557754
  outer loop
   vertex 456.283295 72.702370 142.848404
   vertex 453.291901 72.702370 142.848404
   vertex 456.283295 72.005066 141.810730
  endloop
 endfacet
 facet normal -0.000000 -0.830006 0.557754
  outer loop
   vertex 456.283295 72.005066 141.810730
   vertex 453.291901 72.702370 142.848404
   vertex 453.291901 72.005066 141.810730
  endloop
 endfacet
 facet normal 0.000000 -0.557755 -0.830006
  outer loop
   vertex 453.291901 72.005066 141.810730
   vertex 456.283295 73.157600 141.036240
   vertex 456.283295 72.005066 141.810730
  endloop
 endfacet
 facet normal -0.000000 -0.557755 -0.830006
  outer loop
   vertex 453.291901 73.157600 141.036240
   vertex 456.283295 73.157600 141.036240
   vertex 453.291901 72.005066 141.810730
  endloop
 endfacet
 facet normal -0.000000 0.557755 0.830006
  outer loop
   vertex 456.283295 73.854904 142.073914
   vertex 453.291901 73.854904 142.073914
   vertex 453.291901 72.702370 142.848404
  endloop
 endfacet
 facet normal -0.000000 0.557755 0.830006
  outer loop
   vertex 475.548309 73.854904 142.073944
   vertex 472.556915 73.854904 142.073944
   vertex 475.548309 72.702370 142.848434
  endloop
 endfacet
 facet normal 1.000000 -0.000000 0.000000
  outer loop
   vertex 456.283295 72.702370 142.848404
   vertex 456.283295 72.005066 141.810730
   vertex 456.283295 73.157600 141.036240
  endloop
 endfacet
 facet normal -0.000003 -0.830006 0.557754
  outer loop
   vertex 472.556915 72.702370 142.848419
   vertex 472.556915 72.005066 141.810745
   vertex 475.548309 72.005066 141.810760
  endloop
 endfacet
 facet normal 0.000001 0.830043 -0.557700
  outer loop
   vertex 472.860321 75.367424 139.358658
   vertex 455.979889 75.428558 139.449615
   vertex 472.860321 75.428558 139.449646
  endloop
 endfacet
 facet normal -0.000001 0.941635 0.336636
  outer loop
   vertex 472.860321 75.428558 139.449646
   vertex 455.979889 75.428558 139.449615
   vertex 472.860321 75.379654 139.586441
  endloop
 endfacet
 facet normal -0.000004 0.948494 0.316795
  outer loop
   vertex 456.813416 76.282402 140.614166
   vertex 455.654694 76.249153 140.713699
   vertex 456.813416 76.249153 140.713715
  endloop
 endfacet
 facet normal -0.000011 0.557755 0.830006
  outer loop
   vertex 456.813416 76.249153 140.713715
   vertex 455.654694 76.249153 140.713699
   vertex 455.654694 75.550598 141.183121
  endloop
 endfacet
 facet normal 0.000000 -0.557755 -0.830006
  outer loop
   vertex 473.185516 74.623047 139.802826
   vertex 472.026794 75.321602 139.333405
   vertex 473.185516 75.321602 139.333405
  endloop
 endfacet
 facet normal -0.000000 0.065139 -0.997876
  outer loop
   vertex 473.185516 75.321602 139.333405
   vertex 472.026794 75.321602 139.333405
   vertex 472.026794 75.426323 139.340240
  endloop
 endfacet
 facet normal 0.000002 0.044007 -0.999031
  outer loop
   vertex 455.979889 76.036812 140.564362
   vertex 455.979889 76.181953 140.570755
   vertex 472.860321 76.181953 140.570786
  endloop
 endfacet
 facet normal 0.000001 0.829999 -0.557765
  outer loop
   vertex 472.860321 76.181953 140.570786
   vertex 455.979889 76.181953 140.570755
   vertex 472.860321 76.243088 140.661758
  endloop
 endfacet
 facet normal 0.000001 0.574546 -0.818473
  outer loop
   vertex 455.979889 74.748070 139.815216
   vertex 472.860321 74.748070 139.815247
   vertex 455.979889 74.718681 139.794586
  endloop
 endfacet
 facet normal 0.000001 0.574830 -0.818273
  outer loop
   vertex 455.979889 74.718681 139.794586
   vertex 472.860321 74.748070 139.815247
   vertex 472.860321 74.718681 139.794601
  endloop
 endfacet
 facet normal 0.000001 -0.557688 -0.830050
  outer loop
   vertex 472.860321 74.718681 139.794601
   vertex 455.979889 74.660065 139.833969
   vertex 455.979889 74.718681 139.794586
  endloop
 endfacet
 facet normal -1.000000 0.000000 0.000000
  outer loop
   vertex 455.654724 75.321602 139.333389
   vertex 455.654724 75.441277 139.539413
   vertex 455.654724 75.426323 139.340210
  endloop
 endfacet
 facet normal -1.000000 -0.000000 -0.000000
  outer loop
   vertex 455.654724 75.426323 139.340210
   vertex 455.654724 75.441277 139.539413
   vertex 455.654724 75.514984 139.472153
  endloop
 endfacet
 facet normal 0.000000 0.830014 -0.557742
  outer loop
   vertex 455.654724 75.514984 139.472153
   vertex 456.813416 75.426323 139.340210
   vertex 455.654724 75.426323 139.340210
  endloop
 endfacet
 facet normal 1.000000 0.000000 0.000000
  outer loop
   vertex 473.185516 76.249153 140.713730
   vertex 473.185516 76.103615 140.525085
   vertex 473.185516 76.282402 140.614197
  endloop
 endfacet
 facet normal 1.000000 -0.000000 -0.000000
  outer loop
   vertex 473.185516 76.282402 140.614197
   vertex 473.185516 76.103615 140.525085
   vertex 473.185516 76.193733 140.482254
  endloop
 endfacet
 facet normal 0.000007 0.829992 -0.557775
  outer loop
   vertex 473.185516 76.193733 140.482254
   vertex 472.026794 76.282402 140.614182
   vertex 473.185516 76.282402 140.614197
  endloop
 endfacet
 facet normal 1.000000 0.000000 0.000000
  outer loop
   vertex 456.813416 76.193733 140.482224
   vertex 456.813416 76.282402 140.614166
   vertex 456.813416 76.103615 140.525070
  endloop
 endfacet
 facet normal 1.000000 0.000000 -0.000000
  outer loop
   vertex 456.813416 76.103615 140.525070
   vertex 456.813416 76.282402 140.614166
   vertex 456.813416 76.249153 140.713715
  endloop
 endfacet
 facet normal 1.000000 0.000000 0.000000
  outer loop
   vertex 456.813416 76.249153 140.713715
   vertex 456.813416 75.550598 141.183121
   vertex 456.813416 76.103615 140.525070
  endloop
 endfacet
 facet normal 0.000000 0.557742 0.830014
  outer loop
   vertex 455.654694 75.550598 141.183121
   vertex 456.813416 75.550598 141.183121
   vertex 456.813416 76.249153 140.713715
  endloop
 endfacet
 facet normal 0.000001 0.044112 -0.999027
  outer loop
   vertex 472.860321 76.181953 140.570786
   vertex 472.860321 76.036812 140.564377
   vertex 455.979889 76.036812 140.564362
  endloop
 endfacet
 facet normal 0.000001 0.830007 -0.557752
  outer loop
   vertex 455.979889 76.036812 140.564362
   vertex 472.860321 76.036812 140.564377
   vertex 472.860321 75.379654 139.586441
  endloop
 endfacet
 facet normal 0.000001 0.830011 -0.557746
  outer loop
   vertex 472.860321 75.379654 139.586441
   vertex 455.979889 75.379654 139.586411
   vertex 455.979889 76.036812 140.564362
  endloop
 endfacet
 facet normal -0.000001 0.941635 0.336636
  outer loop
   vertex 455.979889 75.428558 139.449615
   vertex 455.979889 75.379654 139.586411
   vertex 472.860321 75.379654 139.586441
  endloop
 endfacet
 facet normal 0.000000 -0.557755 -0.830006
  outer loop
   vertex 473.185516 74.623047 139.802826
   vertex 472.026794 74.623047 139.802826
   vertex 472.026794 75.321602 139.333405
  endloop
 endfacet
 facet normal -1.000000 -0.000000 -0.000000
  outer loop
   vertex 472.026794 75.321602 139.333405
   vertex 472.026794 74.623047 139.802826
   vertex 472.026794 75.441277 139.539429
  endloop
 endfacet
 facet normal -1.000000 -0.000000 0.000000
  outer loop
   vertex 472.026794 75.441277 139.539429
   vertex 472.026794 75.426323 139.340240
   vertex 472.026794 75.321602 139.333405
  endloop
 endfacet
 facet normal -1.000000 -0.000000 -0.000000
  outer loop
   vertex 472.026794 75.514984 139.472183
   vertex 472.026794 75.426323 139.340240
   vertex 472.026794 75.441277 139.539429
  endloop
 endfacet
 facet normal -0.000000 -0.974865 0.222796
  outer loop
   vertex 472.860321 75.257301 139.473053
   vertex 455.979889 75.257301 139.473022
   vertex 472.860321 75.249298 139.438034
  endloop
 endfacet
 facet normal -0.000000 -0.974844 0.222888
  outer loop
   vertex 472.860321 75.249298 139.438034
   vertex 455.979889 75.257301 139.473022
   vertex 455.979889 75.249298 139.438019
  endloop
 endfacet
 facet normal 0.000001 -0.557740 -0.830016
  outer loop
   vertex 455.979889 75.249298 139.438019
   vertex 472.860321 75.367424 139.358658
   vertex 472.860321 75.249298 139.438034
  endloop
 endfacet
 facet normal 0.000001 -0.557740 -0.830016
  outer loop
   vertex 455.979889 75.367424 139.358643
   vertex 472.860321 75.367424 139.358658
   vertex 455.979889 75.249298 139.438019
  endloop
 endfacet
 facet normal 0.000001 0.829999 -0.557765
  outer loop
   vertex 455.979889 75.428558 139.449615
   vertex 472.860321 75.367424 139.358658
   vertex 455.979889 75.367424 139.358643
  endloop
 endfacet
 facet normal 0.000000 0.830007 -0.557754
  outer loop
   vertex 474.587402 74.485161 140.225662
   vertex 472.939240 75.107018 141.151062
   vertex 474.587402 75.107018 141.151062
  endloop
 endfacet
 facet normal -0.000000 0.557754 0.830006
  outer loop
   vertex 474.587402 75.107018 141.151062
   vertex 472.939240 75.107018 141.151062
   vertex 474.587402 73.827934 142.010590
  endloop
 endfacet
 facet normal 1.000000 0.000000 0.000000
  outer loop
   vertex 474.587402 73.827934 142.010590
   vertex 474.587402 73.206078 141.085175
   vertex 474.587402 75.107018 141.151062
  endloop
 endfacet
 facet normal -0.000005 -0.830011 0.557747
  outer loop
   vertex 472.939240 73.827934 142.010574
   vertex 474.587402 73.206078 141.085175
   vertex 474.587402 73.827934 142.010590
  endloop
 endfacet
 facet normal 0.000000 -0.830007 0.557754
  outer loop
   vertex 472.939240 73.206078 141.085175
   vertex 474.587402 73.206078 141.085175
   vertex 472.939240 73.827934 142.010574
  endloop
 endfacet
 facet normal -1.000000 -0.000000 -0.000000
  outer loop
   vertex 472.939240 73.827934 142.010574
   vertex 472.939240 75.107018 141.151062
   vertex 472.939240 73.206078 141.085175
  endloop
 endfacet
 facet normal -1.000000 0.000000 0.000000
  outer loop
   vertex 472.939240 73.206078 141.085175
   vertex 472.939240 75.107018 141.151062
   vertex 472.939240 74.485161 140.225647
  endloop
 endfacet
 facet normal 0.000005 0.830011 -0.557747
  outer loop
   vertex 472.939240 74.485161 140.225647
   vertex 472.939240 75.107018 141.151062
   vertex 474.587402 74.485161 140.225662
  endloop
 endfacet
 facet normal 0.000008 -0.557747 -0.830011
  outer loop
   vertex 474.587402 74.485161 140.225662
   vertex 474.587402 73.206078 141.085175
   vertex 472.939240 74.485161 140.225647
  endloop
 endfacet
 facet normal 1.000000 -0.000000 -0.000000
  outer loop
   vertex 474.587402 75.107018 141.151062
   vertex 474.587402 73.206078 141.085175
   vertex 474.587402 74.485161 140.225662
  endloop
 endfacet
 facet normal -0.000000 -0.557747 -0.830011
  outer loop
   vertex 454.252808 74.485161 140.225632
   vertex 455.900970 74.485161 140.225632
   vertex 454.252808 73.206078 141.085144
  endloop
 endfacet
 facet normal 0.000008 -0.557754 -0.830006
  outer loop
   vertex 454.252808 73.206078 141.085144
   vertex 455.900970 74.485161 140.225632
   vertex 455.900970 73.206078 141.085159
  endloop
 endfacet
 facet normal -0.000005 -0.830011 0.557747
  outer loop
   vertex 455.900970 73.206078 141.085159
   vertex 454.252808 73.827934 142.010559
   vertex 454.252808 73.206078 141.085144
  endloop
 endfacet
 facet normal -0.000000 -0.830007 0.557754
  outer loop
   vertex 455.900970 73.827934 142.010559
   vertex 454.252808 73.827934 142.010559
   vertex 455.900970 73.206078 141.085159
  endloop
 endfacet
 facet normal -0.000000 0.557754 0.830006
  outer loop
   vertex 455.900970 75.107018 141.151031
   vertex 454.252808 73.827934 142.010559
   vertex 455.900970 73.827934 142.010559
  endloop
 endfacet
 facet normal 1.000000 -0.000000 -0.000000
  outer loop
   vertex 455.900970 73.827934 142.010559
   vertex 455.900970 74.485161 140.225632
   vertex 455.900970 75.107018 141.151031
  endloop
 endfacet
 facet normal 0.000000 0.830007 -0.557754
  outer loop
   vertex 455.900970 75.107018 141.151031
   vertex 455.900970 74.485161 140.225632
   vertex 454.252808 75.107018 141.151031
  endloop
 endfacet
 facet normal -0.000000 0.830007 -0.557754
  outer loop
   vertex 454.252808 75.107018 141.151031
   vertex 455.900970 74.485161 140.225632
   vertex 454.252808 74.485161 140.225632
  endloop
 endfacet
 facet normal -1.000000 0.000000 0.000000
  outer loop
   vertex 454.252808 74.485161 140.225632
   vertex 454.252808 73.827934 142.010559
   vertex 454.252808 75.107018 141.151031
  endloop
 endfacet
 facet normal -1.000000 -0.000000 -0.000000
  outer loop
   vertex 454.252808 73.206078 141.085144
   vertex 454.252808 73.827934 142.010559
   vertex 454.252808 74.485161 140.225632
  endloop
 endfacet
 facet normal 0.000000 -0.830009 0.557749
  outer loop
   vertex 476.026917 74.425072 141.238876
   vertex 475.676910 74.425072 141.238876
   vertex 475.676910 74.146194 140.823868
  endloop
 endfacet
 facet normal -0.000018 0.830009 -0.557749
  outer loop
   vertex 475.676910 74.146194 140.823868
   vertex 475.676910 74.425072 141.238876
   vertex 475.851929 74.285637 141.031372
  endloop
 endfacet
 facet normal 0.000000 0.830002 -0.557760
  outer loop
   vertex 475.851929 74.285637 141.031372
   vertex 476.026917 74.146194 140.823868
   vertex 475.676910 74.146194 140.823868
  endloop
 endfacet
 facet normal 0.000018 0.830009 -0.557749
  outer loop
   vertex 476.026917 74.425072 141.238876
   vertex 476.026917 74.146194 140.823868
   vertex 475.851929 74.285637 141.031372
  endloop
 endfacet
 facet normal 1.000000 0.000000 -0.000000
  outer loop
   vertex 476.026917 73.316193 141.381622
   vertex 476.026917 74.146194 140.823868
   vertex 476.026917 74.425072 141.238876
  endloop
 endfacet
 facet normal 1.000000 -0.000000 0.000000
  outer loop
   vertex 476.026917 74.425072 141.238876
   vertex 476.026917 73.595062 141.796631
   vertex 476.026917 73.316193 141.381622
  endloop
 endfacet
 facet normal 0.000000 -0.830016 0.557739
  outer loop
   vertex 476.026917 73.316193 141.381622
   vertex 476.026917 73.595062 141.796631
   vertex 474.326935 73.316193 141.381622
  endloop
 endfacet
 facet normal -0.000000 -0.830016 0.557739
  outer loop
   vertex 474.326935 73.316193 141.381622
   vertex 476.026917 73.595062 141.796631
   vertex 474.326904 73.595062 141.796631
  endloop
 endfacet
 facet normal -1.000000 -0.000009 -0.000068
  outer loop
   vertex 474.326904 73.595062 141.796631
   vertex 474.326935 74.425072 141.238876
   vertex 474.326935 73.316193 141.381622
  endloop
 endfacet
 facet normal 0.000010 0.557753 0.830007
  outer loop
   vertex 474.743896 74.217567 141.378311
   vertex 474.326935 74.425072 141.238876
   vertex 474.326904 73.595062 141.796631
  endloop
 endfacet
 facet normal -0.000000 0.557739 0.830016
  outer loop
   vertex 474.676910 74.425072 141.238876
   vertex 474.326935 74.425072 141.238876
   vertex 474.743896 74.217567 141.378311
  endloop
 endfacet
 facet normal -0.000028 -0.557756 -0.830005
  outer loop
   vertex 454.096313 73.938698 140.963287
   vertex 454.513306 74.146194 140.823837
   vertex 454.513306 73.316193 141.381592
  endloop
 endfacet
 facet normal 1.000000 0.000034 0.000051
  outer loop
   vertex 454.513306 73.316193 141.381592
   vertex 454.513306 74.146194 140.823837
   vertex 454.513275 73.595062 141.796600
  endloop
 endfacet
 facet normal 0.000000 -0.830016 0.557739
  outer loop
   vertex 454.513275 73.595062 141.796600
   vertex 452.813293 73.316193 141.381592
   vertex 454.513306 73.316193 141.381592
  endloop
 endfacet
 facet normal -0.000000 -0.830016 0.557739
  outer loop
   vertex 452.813293 73.595062 141.796600
   vertex 452.813293 73.316193 141.381592
   vertex 454.513275 73.595062 141.796600
  endloop
 endfacet
 facet normal -1.000000 0.000000 0.000000
  outer loop
   vertex 452.813293 74.146194 140.823837
   vertex 452.813293 73.316193 141.381592
   vertex 452.813293 73.595062 141.796600
  endloop
 endfacet
 facet normal -1.000000 -0.000000 -0.000000
  outer loop
   vertex 452.813293 73.595062 141.796600
   vertex 452.813293 74.425072 141.238846
   vertex 452.813293 74.146194 140.823837
  endloop
 endfacet
 facet normal -0.000018 0.830009 -0.557749
  outer loop
   vertex 452.813293 74.146194 140.823837
   vertex 452.813293 74.425072 141.238846
   vertex 452.988281 74.285637 141.031342
  endloop
 endfacet
 facet normal -0.000000 0.830016 -0.557739
  outer loop
   vertex 452.988281 74.285637 141.031342
   vertex 452.813293 74.425072 141.238846
   vertex 453.163300 74.425072 141.238846
  endloop
 endfacet
 facet normal 0.000018 0.830009 -0.557749
  outer loop
   vertex 453.163300 74.425072 141.238846
   vertex 453.163300 74.146194 140.823837
   vertex 452.988281 74.285637 141.031342
  endloop
 endfacet
 facet normal -0.000000 -0.830009 0.557749
  outer loop
   vertex 452.813293 74.146194 140.823837
   vertex 453.163300 74.146194 140.823837
   vertex 453.163300 74.425072 141.238846
  endloop
 endfacet
 facet normal 0.000000 0.830002 -0.557760
  outer loop
   vertex 452.988281 74.285637 141.031342
   vertex 453.163300 74.146194 140.823837
   vertex 452.813293 74.146194 140.823837
  endloop
 endfacet
 facet normal 0.000001 0.830043 -0.557700
  outer loop
   vertex 455.979889 76.181953 140.570755
   vertex 455.979889 76.243088 140.661743
   vertex 472.860321 76.243088 140.661758
  endloop
 endfacet
 facet normal -0.000001 0.557740 0.830016
  outer loop
   vertex 472.860321 76.243088 140.661758
   vertex 455.979889 76.243088 140.661743
   vertex 455.979889 76.124962 140.741119
  endloop
 endfacet
 facet normal -0.000001 0.557740 0.830016
  outer loop
   vertex 455.979889 76.124962 140.741119
   vertex 472.860321 76.124962 140.741135
   vertex 472.860321 76.243088 140.661758
  endloop
 endfacet
 facet normal -0.000001 -0.574830 0.818273
  outer loop
   vertex 455.979889 76.095573 140.720474
   vertex 472.860321 76.124962 140.741135
   vertex 455.979889 76.124962 140.741119
  endloop
 endfacet
 facet normal -0.000001 -0.574546 0.818473
  outer loop
   vertex 472.860321 76.095573 140.720505
   vertex 472.860321 76.124962 140.741135
   vertex 455.979889 76.095573 140.720474
  endloop
 endfacet
 facet normal -0.000002 0.557761 0.830001
  outer loop
   vertex 455.979889 76.095573 140.720474
   vertex 455.979889 75.586334 141.062683
   vertex 472.860321 76.095573 140.720505
  endloop
 endfacet
 facet normal -0.000001 0.557744 0.830013
  outer loop
   vertex 472.860321 76.095573 140.720505
   vertex 455.979889 75.586334 141.062683
   vertex 472.860321 75.586334 141.062698
  endloop
 endfacet
 facet normal 0.000000 0.974844 -0.222888
  outer loop
   vertex 472.860321 75.586334 141.062698
   vertex 455.979889 75.586334 141.062683
   vertex 455.979889 75.594337 141.097687
  endloop
 endfacet
 facet normal 0.000000 0.974844 -0.222888
  outer loop
   vertex 455.979889 75.594337 141.097687
   vertex 472.860321 75.594337 141.097702
   vertex 472.860321 75.586334 141.062698
  endloop
 endfacet
 facet normal -0.000001 0.557738 0.830017
  outer loop
   vertex 455.979889 75.535728 141.137070
   vertex 472.860321 75.594337 141.097702
   vertex 455.979889 75.594337 141.097687
  endloop
 endfacet
 facet normal -0.000001 0.557738 0.830017
  outer loop
   vertex 472.860321 75.535728 141.137085
   vertex 472.860321 75.594337 141.097702
   vertex 455.979889 75.535728 141.137070
  endloop
 endfacet
 facet normal -0.000001 -0.830007 0.557752
  outer loop
   vertex 455.979889 75.535728 141.137070
   vertex 455.979889 74.660065 139.833969
   vertex 472.860321 75.535728 141.137085
  endloop
 endfacet
 facet normal -0.000001 -0.830004 0.557757
  outer loop
   vertex 472.860321 75.535728 141.137085
   vertex 455.979889 74.660065 139.833969
   vertex 472.860321 74.660065 139.834000
  endloop
 endfacet
 facet normal 0.000002 -0.557837 -0.829950
  outer loop
   vertex 472.860321 74.660065 139.834000
   vertex 455.979889 74.660065 139.833969
   vertex 472.860321 74.718681 139.794601
  endloop
 endfacet
 facet normal -0.000002 -0.557756 -0.830005
  outer loop
   vertex 474.743896 73.938698 140.963303
   vertex 474.326935 73.316193 141.381622
   vertex 474.326935 74.146194 140.823868
  endloop
 endfacet
 facet normal -1.000000 -0.000000 -0.000000
  outer loop
   vertex 474.326935 74.146194 140.823868
   vertex 474.326935 73.316193 141.381622
   vertex 474.326935 74.425072 141.238876
  endloop
 endfacet
 facet normal 0.000000 0.830009 -0.557749
  outer loop
   vertex 474.326935 74.425072 141.238876
   vertex 474.676910 74.146194 140.823868
   vertex 474.326935 74.146194 140.823868
  endloop
 endfacet
 facet normal -0.000000 0.830009 -0.557749
  outer loop
   vertex 474.676910 74.425072 141.238876
   vertex 474.676910 74.146194 140.823868
   vertex 474.326935 74.425072 141.238876
  endloop
 endfacet
 facet normal 0.000000 -0.830009 0.557749
  outer loop
   vertex 474.326935 74.425072 141.238876
   vertex 474.676910 74.146194 140.823868
   vertex 474.676910 74.425072 141.238876
  endloop
 endfacet
 facet normal -0.000000 0.557739 0.830016
  outer loop
   vertex 474.676910 74.425072 141.238876
   vertex 474.743896 74.632576 141.099442
   vertex 474.326935 74.425072 141.238876
  endloop
 endfacet
 facet normal -0.000013 0.557757 0.830005
  outer loop
   vertex 474.326935 74.425072 141.238876
   vertex 474.743896 74.632576 141.099442
   vertex 474.440796 74.777824 141.001831
  endloop
 endfacet
 facet normal -0.000000 0.557775 0.829992
  outer loop
   vertex 474.440796 74.777824 141.001831
   vertex 474.743896 74.632576 141.099442
   vertex 474.926910 74.784477 140.997360
  endloop
 endfacet
 facet normal 0.000001 0.557729 0.830023
  outer loop
   vertex 474.926910 74.784477 140.997360
   vertex 474.751923 75.036064 140.828308
   vertex 474.440796 74.777824 141.001831
  endloop
 endfacet
 facet normal -0.000025 0.557717 0.830031
  outer loop
   vertex 475.176910 74.840080 140.960007
   vertex 474.751923 75.036064 140.828308
   vertex 474.926910 74.784477 140.997360
  endloop
 endfacet
 facet normal 0.000014 0.557775 0.829992
  outer loop
   vertex 475.176910 75.130577 140.764786
   vertex 474.751923 75.036064 140.828308
   vertex 475.176910 74.840080 140.960007
  endloop
 endfacet
 facet normal 0.000043 0.557775 0.829992
  outer loop
   vertex 475.176910 74.840080 140.960007
   vertex 475.426910 74.784477 140.997360
   vertex 475.176910 75.130577 140.764786
  endloop
 endfacet
 facet normal -0.000025 0.557741 0.830015
  outer loop
   vertex 475.176910 75.130577 140.764786
   vertex 475.426910 74.784477 140.997360
   vertex 475.601929 75.036064 140.828308
  endloop
 endfacet
 facet normal -0.000035 0.557746 0.830012
  outer loop
   vertex 475.601929 75.036064 140.828308
   vertex 475.426910 74.784477 140.997360
   vertex 475.609924 74.632576 141.099442
  endloop
 endfacet
 facet normal 0.000020 0.557746 0.830011
  outer loop
   vertex 475.609924 74.632576 141.099442
   vertex 475.913055 74.777824 141.001831
   vertex 475.601929 75.036064 140.828308
  endloop
 endfacet
 facet normal 0.000022 0.557744 0.830013
  outer loop
   vertex 475.676910 74.425072 141.238876
   vertex 475.913055 74.777824 141.001831
   vertex 475.609924 74.632576 141.099442
  endloop
 endfacet
 facet normal 0.000000 0.557754 0.830006
  outer loop
   vertex 476.026917 74.425072 141.238876
   vertex 475.913055 74.777824 141.001831
   vertex 475.676910 74.425072 141.238876
  endloop
 endfacet
 facet normal -0.000000 0.557753 0.830007
  outer loop
   vertex 475.676910 74.425072 141.238876
   vertex 475.609924 74.217575 141.378311
   vertex 476.026917 74.425072 141.238876
  endloop
 endfacet
 facet normal 0.000000 0.557753 0.830007
  outer loop
   vertex 476.026917 74.425072 141.238876
   vertex 475.609924 74.217575 141.378311
   vertex 476.026917 73.595062 141.796631
  endloop
 endfacet
 facet normal 0.000002 0.557754 0.830006
  outer loop
   vertex 476.026917 73.595062 141.796631
   vertex 475.609924 74.217575 141.378311
   vertex 475.426910 74.065666 141.480392
  endloop
 endfacet
 facet normal -0.000015 0.557739 0.830016
  outer loop
   vertex 475.426910 74.065666 141.480392
   vertex 475.176910 74.010071 141.517746
   vertex 476.026917 73.595062 141.796631
  endloop
 endfacet
 facet normal -0.000010 0.557753 0.830007
  outer loop
   vertex 454.096313 74.217567 141.378281
   vertex 454.513275 73.595062 141.796600
   vertex 454.513306 74.425072 141.238846
  endloop
 endfacet
 facet normal 1.000000 -0.000025 0.000017
  outer loop
   vertex 454.513306 74.425072 141.238846
   vertex 454.513275 73.595062 141.796600
   vertex 454.513306 74.146194 140.823837
  endloop
 endfacet
 facet normal 0.000000 0.830009 -0.557749
  outer loop
   vertex 454.513306 74.146194 140.823837
   vertex 454.163300 74.425072 141.238846
   vertex 454.513306 74.425072 141.238846
  endloop
 endfacet
 facet normal -0.000000 0.830009 -0.557749
  outer loop
   vertex 454.163300 74.146194 140.823837
   vertex 454.163300 74.425072 141.238846
   vertex 454.513306 74.146194 140.823837
  endloop
 endfacet
 facet normal 0.000000 -0.830009 0.557749
  outer loop
   vertex 454.513306 74.146194 140.823837
   vertex 454.163300 74.425072 141.238846
   vertex 454.163300 74.146194 140.823837
  endloop
 endfacet
 facet normal -0.000000 -0.557739 -0.830016
  outer loop
   vertex 454.163300 74.146194 140.823837
   vertex 454.096313 74.353699 140.684402
   vertex 454.513306 74.146194 140.823837
  endloop
 endfacet
 facet normal -0.000006 -0.557747 -0.830011
  outer loop
   vertex 454.513306 74.146194 140.823837
   vertex 454.096313 74.353699 140.684402
   vertex 454.399414 74.498955 140.586792
  endloop
 endfacet
 facet normal -0.000016 -0.557731 -0.830022
  outer loop
   vertex 454.399414 74.498955 140.586792
   vertex 454.096313 74.353699 140.684402
   vertex 453.913300 74.505600 140.582336
  endloop
 endfacet
 facet normal -0.000017 -0.557755 -0.830006
  outer loop
   vertex 453.913300 74.505600 140.582336
   vertex 454.088287 74.757187 140.413269
   vertex 454.399414 74.498955 140.586792
  endloop
 endfacet
 facet normal 0.000010 -0.557768 -0.829997
  outer loop
   vertex 453.663300 74.561203 140.544968
   vertex 454.088287 74.757187 140.413269
   vertex 453.913300 74.505600 140.582336
  endloop
 endfacet
 facet normal 0.000008 -0.557765 -0.829999
  outer loop
   vertex 453.663300 74.851707 140.349747
   vertex 454.088287 74.757187 140.413269
   vertex 453.663300 74.561203 140.544968
  endloop
 endfacet
 facet normal -0.000011 -0.557765 -0.829999
  outer loop
   vertex 453.663300 74.561203 140.544968
   vertex 453.413300 74.505600 140.582336
   vertex 453.663300 74.851707 140.349747
  endloop
 endfacet
 facet normal -0.000007 -0.557767 -0.829998
  outer loop
   vertex 453.663300 74.851707 140.349747
   vertex 453.413300 74.505600 140.582336
   vertex 453.238281 74.757187 140.413269
  endloop
 endfacet
 facet normal 0.000035 -0.557746 -0.830011
  outer loop
   vertex 453.238281 74.757187 140.413269
   vertex 453.413300 74.505600 140.582336
   vertex 453.230286 74.353699 140.684402
  endloop
 endfacet
 facet normal 0.000006 -0.557746 -0.830012
  outer loop
   vertex 453.230286 74.353699 140.684402
   vertex 452.927155 74.498955 140.586792
   vertex 453.238281 74.757187 140.413269
  endloop
 endfacet
 facet normal 0.000010 -0.557741 -0.830015
  outer loop
   vertex 453.163300 74.146194 140.823837
   vertex 452.927155 74.498955 140.586792
   vertex 453.230286 74.353699 140.684402
  endloop
 endfacet
 facet normal 0.000000 -0.557745 -0.830012
  outer loop
   vertex 452.813293 74.146194 140.823837
   vertex 452.927155 74.498955 140.586792
   vertex 453.163300 74.146194 140.823837
  endloop
 endfacet
 facet normal -0.000000 -0.557795 -0.829979
  outer loop
   vertex 453.163300 74.146194 140.823837
   vertex 453.230286 73.938698 140.963287
   vertex 452.813293 74.146194 140.823837
  endloop
 endfacet
 facet normal 0.000028 -0.557756 -0.830005
  outer loop
   vertex 452.813293 74.146194 140.823837
   vertex 453.230286 73.938698 140.963287
   vertex 452.813293 73.316193 141.381592
  endloop
 endfacet
 facet normal -0.000020 -0.557734 -0.830020
  outer loop
   vertex 452.813293 73.316193 141.381592
   vertex 453.230286 73.938698 140.963287
   vertex 453.413300 73.786797 141.065353
  endloop
 endfacet
 facet normal 0.000011 -0.557762 -0.830001
  outer loop
   vertex 453.413300 73.786797 141.065353
   vertex 453.663300 73.731194 141.102722
   vertex 452.813293 73.316193 141.381592
  endloop
 endfacet
 facet normal 0.000000 0.118574 0.992945
  outer loop
   vertex 455.654694 75.550598 141.183121
   vertex 455.654694 75.002686 141.248550
   vertex 456.813416 75.550598 141.183121
  endloop
 endfacet
 facet normal -0.000000 0.118574 0.992945
  outer loop
   vertex 456.813416 75.550598 141.183121
   vertex 455.654694 75.002686 141.248550
   vertex 456.813416 75.002686 141.248550
  endloop
 endfacet
 facet normal 1.000000 0.000000 0.000000
  outer loop
   vertex 456.813416 75.002686 141.248550
   vertex 456.813416 74.355453 140.285385
   vertex 456.813416 75.550598 141.183121
  endloop
 endfacet
 facet normal -0.000000 -0.830008 0.557752
  outer loop
   vertex 455.654694 75.002686 141.248550
   vertex 456.813416 74.355453 140.285385
   vertex 456.813416 75.002686 141.248550
  endloop
 endfacet
 facet normal 0.000000 -0.830008 0.557752
  outer loop
   vertex 455.654694 74.355453 140.285385
   vertex 456.813416 74.355453 140.285385
   vertex 455.654694 75.002686 141.248550
  endloop
 endfacet
 facet normal -1.000000 0.000052 -0.000035
  outer loop
   vertex 455.654694 75.002686 141.248550
   vertex 455.654724 74.623047 139.802811
   vertex 455.654694 74.355453 140.285385
  endloop
 endfacet
 facet normal 0.000000 -0.874544 -0.484945
  outer loop
   vertex 455.654694 74.355453 140.285385
   vertex 455.654724 74.623047 139.802811
   vertex 456.813416 74.355453 140.285385
  endloop
 endfacet
 facet normal 0.000000 -0.874544 -0.484945
  outer loop
   vertex 456.813416 74.355453 140.285385
   vertex 455.654724 74.623047 139.802811
   vertex 456.813416 74.623047 139.802811
  endloop
 endfacet
 facet normal 1.000000 0.000000 0.000000
  outer loop
   vertex 456.813416 74.623047 139.802811
   vertex 456.813416 75.550598 141.183121
   vertex 456.813416 74.355453 140.285385
  endloop
 endfacet
 facet normal 1.000000 -0.000000 -0.000000
  outer loop
   vertex 456.813416 75.441277 139.539413
   vertex 456.813416 75.550598 141.183121
   vertex 456.813416 74.623047 139.802811
  endloop
 endfacet
 facet normal 1.000000 0.000000 0.000000
  outer loop
   vertex 456.813416 76.103615 140.525070
   vertex 456.813416 75.550598 141.183121
   vertex 456.813416 75.441277 139.539413
  endloop
 endfacet
 facet normal -0.000000 0.830011 -0.557748
  outer loop
   vertex 456.813416 75.441277 139.539413
   vertex 455.654694 76.103615 140.525070
   vertex 456.813416 76.103615 140.525070
  endloop
 endfacet
 facet normal 0.000000 -0.429387 -0.903120
  outer loop
   vertex 456.813416 76.103615 140.525070
   vertex 455.654694 76.103615 140.525070
   vertex 456.813416 76.193733 140.482224
  endloop
 endfacet
 facet normal -0.000000 -0.429387 -0.903120
  outer loop
   vertex 456.813416 76.193733 140.482224
   vertex 455.654694 76.103615 140.525070
   vertex 455.654694 76.193733 140.482224
  endloop
 endfacet
 facet normal 0.000000 0.829992 -0.557775
  outer loop
   vertex 455.654694 76.193733 140.482224
   vertex 456.813416 76.282402 140.614166
   vertex 456.813416 76.193733 140.482224
  endloop
 endfacet
 facet normal -0.000000 0.829992 -0.557775
  outer loop
   vertex 455.654694 76.282402 140.614166
   vertex 456.813416 76.282402 140.614166
   vertex 455.654694 76.193733 140.482224
  endloop
 endfacet
 facet normal 0.000000 0.948480 0.316838
  outer loop
   vertex 455.654694 76.249153 140.713699
   vertex 456.813416 76.282402 140.614166
   vertex 455.654694 76.282402 140.614166
  endloop
 endfacet
 facet normal -1.000000 -0.000000 -0.000000
  outer loop
   vertex 455.654694 76.282402 140.614166
   vertex 455.654694 76.103615 140.525070
   vertex 455.654694 76.249153 140.713699
  endloop
 endfacet
 facet normal -1.000000 0.000000 0.000000
  outer loop
   vertex 455.654694 76.249153 140.713699
   vertex 455.654694 76.103615 140.525070
   vertex 455.654694 75.550598 141.183121
  endloop
 endfacet
 facet normal -1.000000 -0.000020 -0.000017
  outer loop
   vertex 455.654694 75.550598 141.183121
   vertex 455.654694 76.103615 140.525070
   vertex 455.654724 75.441277 139.539413
  endloop
 endfacet
 facet normal -1.000000 -0.000006 -0.000018
  outer loop
   vertex 455.654724 75.441277 139.539413
   vertex 455.654724 74.623047 139.802811
   vertex 455.654694 75.550598 141.183121
  endloop
 endfacet
 facet normal -1.000000 -0.000000 -0.000000
  outer loop
   vertex 455.654724 75.321602 139.333389
   vertex 455.654724 74.623047 139.802811
   vertex 455.654724 75.441277 139.539413
  endloop
 endfacet
 facet normal 0.000000 -0.557755 -0.830006
  outer loop
   vertex 456.813416 74.623047 139.802811
   vertex 455.654724 74.623047 139.802811
   vertex 455.654724 75.321602 139.333389
  endloop
 endfacet
 facet normal -0.000000 -0.557755 -0.830006
  outer loop
   vertex 455.654724 75.321602 139.333389
   vertex 456.813416 75.321602 139.333389
   vertex 456.813416 74.623047 139.802811
  endloop
 endfacet
 facet normal 1.000000 0.000000 -0.000000
  outer loop
   vertex 456.813416 74.623047 139.802811
   vertex 456.813416 75.321602 139.333389
   vertex 456.813416 75.441277 139.539413
  endloop
 endfacet
 facet normal 1.000000 -0.000000 -0.000000
  outer loop
   vertex 456.813416 75.441277 139.539413
   vertex 456.813416 75.321602 139.333389
   vertex 456.813416 75.426323 139.340210
  endloop
 endfacet
 facet normal 1.000000 0.000000 0.000000
  outer loop
   vertex 456.813416 75.426323 139.340210
   vertex 456.813416 75.514984 139.472153
   vertex 456.813416 75.441277 139.539413
  endloop
 endfacet
 facet normal -0.000000 0.830014 -0.557742
  outer loop
   vertex 455.654724 75.514984 139.472153
   vertex 456.813416 75.514984 139.472153
   vertex 456.813416 75.426323 139.340210
  endloop
 endfacet
 facet normal 0.000000 0.674064 0.738673
  outer loop
   vertex 456.813416 75.441277 139.539413
   vertex 456.813416 75.514984 139.472153
   vertex 455.654724 75.514984 139.472153
  endloop
 endfacet
 facet normal -0.000000 0.674064 0.738673
  outer loop
   vertex 455.654724 75.514984 139.472153
   vertex 455.654724 75.441277 139.539413
   vertex 456.813416 75.441277 139.539413
  endloop
 endfacet
 facet normal 0.000000 0.830011 -0.557748
  outer loop
   vertex 456.813416 75.441277 139.539413
   vertex 455.654724 75.441277 139.539413
   vertex 455.654694 76.103615 140.525070
  endloop
 endfacet
 facet normal 0.000000 -0.874551 -0.484934
  outer loop
   vertex 473.185516 74.623047 139.802826
   vertex 473.185516 74.355453 140.285416
   vertex 472.026794 74.623047 139.802826
  endloop
 endfacet
 facet normal 0.000006 -0.874544 -0.484945
  outer loop
   vertex 472.026794 74.623047 139.802826
   vertex 473.185516 74.355453 140.285416
   vertex 472.026794 74.355453 140.285400
  endloop
 endfacet
 facet normal -1.000000 0.000000 0.000000
  outer loop
   vertex 472.026794 74.355453 140.285400
   vertex 472.026794 75.002686 141.248566
   vertex 472.026794 74.623047 139.802826
  endloop
 endfacet
 facet normal -0.000007 -0.830008 0.557752
  outer loop
   vertex 473.185516 74.355453 140.285416
   vertex 472.026794 75.002686 141.248566
   vertex 472.026794 74.355453 140.285400
  endloop
 endfacet
 facet normal 0.000000 -0.830003 0.557758
  outer loop
   vertex 473.185516 75.002686 141.248566
   vertex 472.026794 75.002686 141.248566
   vertex 473.185516 74.355453 140.285416
  endloop
 endfacet
 facet normal 1.000000 0.000000 -0.000000
  outer loop
   vertex 473.185516 74.355453 140.285416
   vertex 473.185516 75.550598 141.183151
   vertex 473.185516 75.002686 141.248566
  endloop
 endfacet
 facet normal 0.000000 0.118547 0.992948
  outer loop
   vertex 473.185516 75.002686 141.248566
   vertex 473.185516 75.550598 141.183151
   vertex 472.026794 75.002686 141.248566
  endloop
 endfacet
 facet normal 0.000000 0.118547 0.992948
  outer loop
   vertex 472.026794 75.002686 141.248566
   vertex 473.185516 75.550598 141.183151
   vertex 472.026794 75.550598 141.183151
  endloop
 endfacet
 facet normal -1.000000 0.000000 0.000000
  outer loop
   vertex 472.026794 75.550598 141.183151
   vertex 472.026794 74.623047 139.802826
   vertex 472.026794 75.002686 141.248566
  endloop
 endfacet
 facet normal -1.000000 -0.000000 -0.000000
  outer loop
   vertex 472.026794 76.103615 140.525085
   vertex 472.026794 74.623047 139.802826
   vertex 472.026794 75.550598 141.183151
  endloop
 endfacet
 facet normal -1.000000 0.000000 0.000000
  outer loop
   vertex 472.026794 75.441277 139.539429
   vertex 472.026794 74.623047 139.802826
   vertex 472.026794 76.103615 140.525085
  endloop
 endfacet
 facet normal -0.000000 0.830011 -0.557748
  outer loop
   vertex 472.026794 76.103615 140.525085
   vertex 473.185516 75.441277 139.539429
   vertex 472.026794 75.441277 139.539429
  endloop
 endfacet
 facet normal 0.000000 0.673981 0.738749
  outer loop
   vertex 472.026794 75.441277 139.539429
   vertex 473.185516 75.441277 139.539429
   vertex 472.026794 75.514984 139.472183
  endloop
 endfacet
 facet normal -0.000000 0.673981 0.738749
  outer loop
   vertex 472.026794 75.514984 139.472183
   vertex 473.185516 75.441277 139.539429
   vertex 473.185516 75.514984 139.472183
  endloop
 endfacet
 facet normal 0.000000 0.830014 -0.557742
  outer loop
   vertex 473.185516 75.514984 139.472183
   vertex 472.026794 75.426323 139.340240
   vertex 472.026794 75.514984 139.472183
  endloop
 endfacet
 facet normal -0.000000 0.830014 -0.557742
  outer loop
   vertex 473.185516 75.426323 139.340240
   vertex 472.026794 75.426323 139.340240
   vertex 473.185516 75.514984 139.472183
  endloop
 endfacet
 facet normal 0.000000 0.065139 -0.997876
  outer loop
   vertex 473.185516 75.321602 139.333405
   vertex 472.026794 75.426323 139.340240
   vertex 473.185516 75.426323 139.340240
  endloop
 endfacet
 facet normal 1.000000 -0.000000 -0.000000
  outer loop
   vertex 473.185516 75.426323 139.340240
   vertex 473.185516 75.441277 139.539429
   vertex 473.185516 75.321602 139.333405
  endloop
 endfacet
 facet normal 1.000000 0.000000 0.000000
  outer loop
   vertex 473.185516 75.321602 139.333405
   vertex 473.185516 75.441277 139.539429
   vertex 473.185516 74.623047 139.802826
  endloop
 endfacet
 facet normal 1.000000 -0.000000 -0.000000
  outer loop
   vertex 473.185516 74.623047 139.802826
   vertex 473.185516 75.441277 139.539429
   vertex 473.185516 76.103615 140.525085
  endloop
 endfacet
 facet normal 1.000000 0.000000 0.000000
  outer loop
   vertex 473.185516 76.103615 140.525085
   vertex 473.185516 75.550598 141.183151
   vertex 473.185516 74.623047 139.802826
  endloop
 endfacet
 facet normal 1.000000 -0.000000 -0.000000
  outer loop
   vertex 473.185516 76.249153 140.713730
   vertex 473.185516 75.550598 141.183151
   vertex 473.185516 76.103615 140.525085
  endloop
 endfacet
 facet normal 0.000000 0.557755 0.830006
  outer loop
   vertex 472.026794 75.550598 141.183151
   vertex 473.185516 75.550598 141.183151
   vertex 473.185516 76.249153 140.713730
  endloop
 endfacet
 facet normal -0.000000 0.557755 0.830006
  outer loop
   vertex 473.185516 76.249153 140.713730
   vertex 472.026794 76.249153 140.713730
   vertex 472.026794 75.550598 141.183151
  endloop
 endfacet
 facet normal -1.000000 -0.000000 0.000000
  outer loop
   vertex 472.026794 75.550598 141.183151
   vertex 472.026794 76.249153 140.713730
   vertex 472.026794 76.103615 140.525085
  endloop
 endfacet
 facet normal -1.000000 -0.000000 -0.000000
  outer loop
   vertex 472.026794 76.103615 140.525085
   vertex 472.026794 76.249153 140.713730
   vertex 472.026794 76.282402 140.614182
  endloop
 endfacet
 facet normal -1.000000 0.000000 0.000000
  outer loop
   vertex 472.026794 76.282402 140.614182
   vertex 472.026794 76.193733 140.482254
   vertex 472.026794 76.103615 140.525085
  endloop
 endfacet
 facet normal -0.000000 0.829962 -0.557820
  outer loop
   vertex 473.185516 76.193733 140.482254
   vertex 472.026794 76.193733 140.482254
   vertex 472.026794 76.282402 140.614182
  endloop
 endfacet
 facet normal 0.000000 -0.429263 -0.903180
  outer loop
   vertex 472.026794 76.103615 140.525085
   vertex 472.026794 76.193733 140.482254
   vertex 473.185516 76.193733 140.482254
  endloop
 endfacet
 facet normal -0.000000 -0.429263 -0.903180
  outer loop
   vertex 473.185516 76.193733 140.482254
   vertex 473.185516 76.103615 140.525085
   vertex 472.026794 76.103615 140.525085
  endloop
 endfacet
 facet normal 0.000000 0.830011 -0.557748
  outer loop
   vertex 472.026794 76.103615 140.525085
   vertex 473.185516 76.103615 140.525085
   vertex 473.185516 75.441277 139.539429
  endloop
 endfacet
 facet normal 0.000000 0.557739 0.830016
  outer loop
   vertex 454.163300 74.425072 141.238846
   vertex 454.513306 74.425072 141.238846
   vertex 454.096313 74.632576 141.099411
  endloop
 endfacet
 facet normal 0.000013 0.557757 0.830005
  outer loop
   vertex 454.096313 74.632576 141.099411
   vertex 454.513306 74.425072 141.238846
   vertex 454.399414 74.777824 141.001801
  endloop
 endfacet
 facet normal 0.000000 0.557775 0.829992
  outer loop
   vertex 454.399414 74.777824 141.001801
   vertex 453.913300 74.784477 140.997330
   vertex 454.096313 74.632576 141.099411
  endloop
 endfacet
 facet normal -0.000001 0.557729 0.830023
  outer loop
   vertex 454.088287 75.036064 140.828278
   vertex 453.913300 74.784477 140.997330
   vertex 454.399414 74.777824 141.001801
  endloop
 endfacet
 facet normal 0.000025 0.557717 0.830031
  outer loop
   vertex 453.663300 74.840080 140.959976
   vertex 453.913300 74.784477 140.997330
   vertex 454.088287 75.036064 140.828278
  endloop
 endfacet
 facet normal -0.000014 0.557775 0.829992
  outer loop
   vertex 454.088287 75.036064 140.828278
   vertex 453.663300 75.130577 140.764755
   vertex 453.663300 74.840080 140.959976
  endloop
 endfacet
 facet normal -0.000043 0.557775 0.829992
  outer loop
   vertex 453.663300 74.840080 140.959976
   vertex 453.663300 75.130577 140.764755
   vertex 453.413300 74.784477 140.997330
  endloop
 endfacet
 facet normal 0.000025 0.557741 0.830015
  outer loop
   vertex 453.413300 74.784477 140.997330
   vertex 453.663300 75.130577 140.764755
   vertex 453.238281 75.036064 140.828278
  endloop
 endfacet
 facet normal 0.000035 0.557746 0.830012
  outer loop
   vertex 453.238281 75.036064 140.828278
   vertex 453.230286 74.632576 141.099411
   vertex 453.413300 74.784477 140.997330
  endloop
 endfacet
 facet normal -0.000020 0.557746 0.830011
  outer loop
   vertex 452.927155 74.777824 141.001801
   vertex 453.230286 74.632576 141.099411
   vertex 453.238281 75.036064 140.828278
  endloop
 endfacet
 facet normal -0.000022 0.557744 0.830013
  outer loop
   vertex 453.163300 74.425072 141.238846
   vertex 453.230286 74.632576 141.099411
   vertex 452.927155 74.777824 141.001801
  endloop
 endfacet
 facet normal -0.000000 0.557754 0.830006
  outer loop
   vertex 452.927155 74.777824 141.001801
   vertex 452.813293 74.425072 141.238846
   vertex 453.163300 74.425072 141.238846
  endloop
 endfacet
 facet normal -0.000000 0.557753 0.830007
  outer loop
   vertex 453.163300 74.425072 141.238846
   vertex 452.813293 74.425072 141.238846
   vertex 453.230286 74.217575 141.378281
  endloop
 endfacet
 facet normal -0.000000 0.557753 0.830007
  outer loop
   vertex 453.230286 74.217575 141.378281
   vertex 452.813293 74.425072 141.238846
   vertex 452.813293 73.595062 141.796600
  endloop
 endfacet
 facet normal -0.000002 0.557754 0.830006
  outer loop
   vertex 452.813293 73.595062 141.796600
   vertex 453.413300 74.065666 141.480362
   vertex 453.230286 74.217575 141.378281
  endloop
 endfacet
 facet normal -0.000025 0.557774 0.829993
  outer loop
   vertex 453.663300 74.010071 141.517731
   vertex 453.413300 74.065666 141.480362
   vertex 452.813293 73.595062 141.796600
  endloop
 endfacet
 facet normal 0.000000 -0.557739 -0.830016
  outer loop
   vertex 474.676910 74.146194 140.823868
   vertex 474.326935 74.146194 140.823868
   vertex 474.743896 74.353699 140.684433
  endloop
 endfacet
 facet normal 0.000006 -0.557747 -0.830011
  outer loop
   vertex 474.743896 74.353699 140.684433
   vertex 474.326935 74.146194 140.823868
   vertex 474.440796 74.498955 140.586823
  endloop
 endfacet
 facet normal -0.000009 -0.557768 -0.829997
  outer loop
   vertex 474.440796 74.498955 140.586823
   vertex 474.926910 74.505600 140.582352
   vertex 474.743896 74.353699 140.684433
  endloop
 endfacet
 facet normal -0.000010 -0.557733 -0.830020
  outer loop
   vertex 474.751923 74.757187 140.413300
   vertex 474.926910 74.505600 140.582352
   vertex 474.440796 74.498955 140.586823
  endloop
 endfacet
 facet normal 0.000025 -0.557717 -0.830031
  outer loop
   vertex 475.176910 74.561203 140.544998
   vertex 474.926910 74.505600 140.582352
   vertex 474.751923 74.757187 140.413300
  endloop
 endfacet
 facet normal -0.000008 -0.557765 -0.829999
  outer loop
   vertex 474.751923 74.757187 140.413300
   vertex 475.176910 74.851707 140.349777
   vertex 475.176910 74.561203 140.544998
  endloop
 endfacet
 facet normal -0.000040 -0.557765 -0.829999
  outer loop
   vertex 475.176910 74.561203 140.544998
   vertex 475.176910 74.851707 140.349777
   vertex 475.426910 74.505600 140.582352
  endloop
 endfacet
 facet normal 0.000017 -0.557737 -0.830018
  outer loop
   vertex 475.426910 74.505600 140.582352
   vertex 475.176910 74.851707 140.349777
   vertex 475.601929 74.757187 140.413300
  endloop
 endfacet
 facet normal 0.000035 -0.557746 -0.830012
  outer loop
   vertex 475.601929 74.757187 140.413300
   vertex 475.609924 74.353699 140.684433
   vertex 475.426910 74.505600 140.582352
  endloop
 endfacet
 facet normal -0.000006 -0.557746 -0.830012
  outer loop
   vertex 475.913055 74.498955 140.586823
   vertex 475.609924 74.353699 140.684433
   vertex 475.601929 74.757187 140.413300
  endloop
 endfacet
 facet normal -0.000010 -0.557741 -0.830015
  outer loop
   vertex 475.676910 74.146194 140.823868
   vertex 475.609924 74.353699 140.684433
   vertex 475.913055 74.498955 140.586823
  endloop
 endfacet
 facet normal -0.000000 -0.557745 -0.830012
  outer loop
   vertex 475.913055 74.498955 140.586823
   vertex 476.026917 74.146194 140.823868
   vertex 475.676910 74.146194 140.823868
  endloop
 endfacet
 facet normal -0.000000 -0.557795 -0.829979
  outer loop
   vertex 475.676910 74.146194 140.823868
   vertex 476.026917 74.146194 140.823868
   vertex 475.609924 73.938698 140.963318
  endloop
 endfacet
 facet normal -0.000028 -0.557756 -0.830005
  outer loop
   vertex 475.609924 73.938698 140.963318
   vertex 476.026917 74.146194 140.823868
   vertex 476.026917 73.316193 141.381622
  endloop
 endfacet
 facet normal 0.000020 -0.557734 -0.830020
  outer loop
   vertex 476.026917 73.316193 141.381622
   vertex 475.426910 73.786797 141.065384
   vertex 475.609924 73.938698 140.963318
  endloop
 endfacet
 facet normal -0.000011 -0.557762 -0.830001
  outer loop
   vertex 475.176910 73.731194 141.102753
   vertex 475.426910 73.786797 141.065384
   vertex 476.026917 73.316193 141.381622
  endloop
 endfacet
 facet normal 0.000000 -0.557746 -0.830012
  outer loop
   vertex 452.813293 73.316193 141.381592
   vertex 453.663300 73.731194 141.102722
   vertex 454.513306 73.316193 141.381592
  endloop
 endfacet
 facet normal -0.000011 -0.557762 -0.830001
  outer loop
   vertex 454.513306 73.316193 141.381592
   vertex 453.663300 73.731194 141.102722
   vertex 453.913300 73.786797 141.065353
  endloop
 endfacet
 facet normal 0.000020 -0.557734 -0.830020
  outer loop
   vertex 453.913300 73.786797 141.065353
   vertex 454.096313 73.938698 140.963287
   vertex 454.513306 73.316193 141.381592
  endloop
 endfacet
 facet normal 0.000013 -0.557764 -0.830000
  outer loop
   vertex 474.743896 73.938698 140.963303
   vertex 474.926910 73.786797 141.065384
   vertex 474.326935 73.316193 141.381622
  endloop
 endfacet
 facet normal 0.000011 -0.557762 -0.830001
  outer loop
   vertex 474.326935 73.316193 141.381622
   vertex 474.926910 73.786797 141.065384
   vertex 475.176910 73.731194 141.102753
  endloop
 endfacet
 facet normal -0.000000 -0.557746 -0.830012
  outer loop
   vertex 475.176910 73.731194 141.102753
   vertex 476.026917 73.316193 141.381622
   vertex 474.326935 73.316193 141.381622
  endloop
 endfacet
 facet normal 0.000000 0.557760 0.830002
  outer loop
   vertex 476.026917 73.595062 141.796631
   vertex 475.176910 74.010071 141.517746
   vertex 474.326904 73.595062 141.796631
  endloop
 endfacet
 facet normal 0.000015 0.557739 0.830016
  outer loop
   vertex 474.326904 73.595062 141.796631
   vertex 475.176910 74.010071 141.517746
   vertex 474.926910 74.065666 141.480392
  endloop
 endfacet
 facet normal -0.000013 0.557764 0.830000
  outer loop
   vertex 474.926910 74.065666 141.480392
   vertex 474.743896 74.217567 141.378311
   vertex 474.326904 73.595062 141.796631
  endloop
 endfacet
 facet normal 0.000013 0.557764 0.830000
  outer loop
   vertex 454.096313 74.217567 141.378281
   vertex 453.913300 74.065666 141.480362
   vertex 454.513275 73.595062 141.796600
  endloop
 endfacet
 facet normal 0.000025 0.557774 0.829993
  outer loop
   vertex 454.513275 73.595062 141.796600
   vertex 453.913300 74.065666 141.480362
   vertex 453.663300 74.010071 141.517731
  endloop
 endfacet
 facet normal -0.000000 0.557739 0.830016
  outer loop
   vertex 453.663300 74.010071 141.517731
   vertex 452.813293 73.595062 141.796600
   vertex 454.513275 73.595062 141.796600
  endloop
 endfacet
 facet normal 0.000000 0.948480 0.316838
  outer loop
   vertex 473.185516 76.249153 140.713730
   vertex 473.185516 76.282402 140.614197
   vertex 472.026794 76.249153 140.713730
  endloop
 endfacet
 facet normal -0.000004 0.948494 0.316795
  outer loop
   vertex 472.026794 76.249153 140.713730
   vertex 473.185516 76.282402 140.614197
   vertex 472.026794 76.282402 140.614182
  endloop
 endfacet
 facet normal 0.000002 -0.557750 -0.830009
  outer loop
   vertex 455.979889 74.748070 139.815216
   vertex 455.979889 75.257301 139.473022
   vertex 472.860321 74.748070 139.815247
  endloop
 endfacet
 facet normal 0.000002 -0.557750 -0.830009
  outer loop
   vertex 472.860321 74.748070 139.815247
   vertex 455.979889 75.257301 139.473022
   vertex 472.860321 75.257301 139.473053
  endloop
 endfacet
 facet normal 0.000000 0.064994 -0.997886
  outer loop
   vertex 456.813416 75.426323 139.340210
   vertex 456.813416 75.321602 139.333389
   vertex 455.654724 75.426323 139.340210
  endloop
 endfacet
 facet normal -0.000000 0.064994 -0.997886
  outer loop
   vertex 455.654724 75.426323 139.340210
   vertex 456.813416 75.321602 139.333389
   vertex 455.654724 75.321602 139.333389
  endloop
 endfacet
 facet normal 0.000000 0.830016 -0.557739
  outer loop
   vertex 475.676910 74.425072 141.238876
   vertex 476.026917 74.425072 141.238876
   vertex 475.851929 74.285637 141.031372
  endloop
 endfacet
 facet normal 1.000000 0.000000 0.000000
  outer loop
   vertex 473.185516 74.623047 139.802826
   vertex 473.185516 75.550598 141.183151
   vertex 473.185516 74.355453 140.285416
  endloop
 endfacet
 facet normal -0.000000 -0.557753 -0.830007
  outer loop
   vertex 474.326935 74.146194 140.823868
   vertex 474.676910 74.146194 140.823868
   vertex 474.743896 73.938698 140.963303
  endloop
 endfacet
 facet normal -0.000000 -0.557795 -0.829979
  outer loop
   vertex 454.163300 74.146194 140.823837
   vertex 454.513306 74.146194 140.823837
   vertex 454.096313 73.938698 140.963287
  endloop
 endfacet
 facet normal 0.000000 -0.830009 0.557749
  outer loop
   vertex 476.026917 74.425072 141.238876
   vertex 475.676910 74.146194 140.823868
   vertex 476.026917 74.146194 140.823868
  endloop
 endfacet
 facet normal -0.000000 0.557754 0.830006
  outer loop
   vertex 455.900970 75.107018 141.151031
   vertex 454.252808 75.107018 141.151031
   vertex 454.252808 73.827934 142.010559
  endloop
 endfacet
 facet normal 0.000000 -0.557754 -0.830006
  outer loop
   vertex 472.939240 73.206078 141.085175
   vertex 472.939240 74.485161 140.225647
   vertex 474.587402 73.206078 141.085175
  endloop
 endfacet
 facet normal 0.000000 -0.830009 0.557749
  outer loop
   vertex 452.813293 74.146194 140.823837
   vertex 453.163300 74.425072 141.238846
   vertex 452.813293 74.425072 141.238846
  endloop
 endfacet
 facet normal -1.000000 0.000000 0.000000
  outer loop
   vertex 455.654694 76.282402 140.614166
   vertex 455.654694 76.193733 140.482224
   vertex 455.654694 76.103615 140.525070
  endloop
 endfacet
 facet normal 0.000000 -0.830009 0.557749
  outer loop
   vertex 474.676910 74.146194 140.823868
   vertex 474.326935 74.425072 141.238876
   vertex 474.326935 74.146194 140.823868
  endloop
 endfacet
 facet normal -1.000000 -0.000002 -0.000020
  outer loop
   vertex 455.654694 75.550598 141.183121
   vertex 455.654724 74.623047 139.802811
   vertex 455.654694 75.002686 141.248550
  endloop
 endfacet
 facet normal 1.000000 0.000000 0.000000
  outer loop
   vertex 473.185516 75.426323 139.340240
   vertex 473.185516 75.514984 139.472183
   vertex 473.185516 75.441277 139.539429
  endloop
 endfacet
 facet normal -0.000008 0.557747 0.830011
  outer loop
   vertex 472.939240 75.107018 141.151062
   vertex 472.939240 73.827934 142.010574
   vertex 474.587402 73.827934 142.010590
  endloop
 endfacet
 facet normal 1.000000 -0.000000 0.000000
  outer loop
   vertex 455.900970 73.827934 142.010559
   vertex 455.900970 73.206078 141.085159
   vertex 455.900970 74.485161 140.225632
  endloop
 endfacet
 facet normal 0.000000 -0.830009 0.557749
  outer loop
   vertex 454.163300 74.425072 141.238846
   vertex 454.513306 74.146194 140.823837
   vertex 454.513306 74.425072 141.238846
  endloop
 endfacet
 facet normal -0.000000 0.557739 0.830016
  outer loop
   vertex 454.513306 74.425072 141.238846
   vertex 454.163300 74.425072 141.238846
   vertex 454.096313 74.217567 141.378281
  endloop
 endfacet
 facet normal -0.707093 0.586922 -0.394389
  outer loop
   vertex 453.913300 74.065666 141.480362
   vertex 454.096313 73.938698 140.963287
   vertex 453.913300 73.786797 141.065353
  endloop
 endfacet
 facet normal -0.258818 0.801735 -0.538734
  outer loop
   vertex 453.913300 74.065666 141.480362
   vertex 453.913300 73.786797 141.065353
   vertex 453.663300 74.010071 141.517731
  endloop
 endfacet
 facet normal -0.258841 0.801723 -0.538741
  outer loop
   vertex 453.663300 74.010071 141.517731
   vertex 453.913300 73.786797 141.065353
   vertex 453.663300 73.731194 141.102722
  endloop
 endfacet
 facet normal 0.258818 0.801728 -0.538745
  outer loop
   vertex 453.663300 73.731194 141.102722
   vertex 453.413300 74.065666 141.480362
   vertex 453.663300 74.010071 141.517731
  endloop
 endfacet
 facet normal 0.258841 0.801729 -0.538731
  outer loop
   vertex 453.413300 73.786797 141.065353
   vertex 453.413300 74.065666 141.480362
   vertex 453.663300 73.731194 141.102722
  endloop
 endfacet
 facet normal 0.707122 0.586898 -0.394373
  outer loop
   vertex 453.230286 74.217575 141.378281
   vertex 453.413300 74.065666 141.480362
   vertex 453.413300 73.786797 141.065353
  endloop
 endfacet
 facet normal 0.707093 0.586910 -0.394406
  outer loop
   vertex 453.413300 73.786797 141.065353
   vertex 453.230286 73.938698 140.963287
   vertex 453.230286 74.217575 141.378281
  endloop
 endfacet
 facet normal 0.965925 0.214821 -0.144361
  outer loop
   vertex 453.230286 74.217575 141.378281
   vertex 453.230286 73.938698 140.963287
   vertex 453.163300 74.425072 141.238846
  endloop
 endfacet
 facet normal -0.965925 0.214824 -0.144357
  outer loop
   vertex 475.676910 74.425072 141.238876
   vertex 475.676910 74.146194 140.823868
   vertex 475.609924 74.217575 141.378311
  endloop
 endfacet
 facet normal -0.965928 0.214814 -0.144356
  outer loop
   vertex 475.609924 74.217575 141.378311
   vertex 475.676910 74.146194 140.823868
   vertex 475.609924 73.938698 140.963318
  endloop
 endfacet
 facet normal -0.707122 0.586886 -0.394390
  outer loop
   vertex 475.609924 73.938698 140.963318
   vertex 475.426910 74.065666 141.480392
   vertex 475.609924 74.217575 141.378311
  endloop
 endfacet
 facet normal -0.707093 0.586922 -0.394389
  outer loop
   vertex 475.426910 73.786797 141.065384
   vertex 475.426910 74.065666 141.480392
   vertex 475.609924 73.938698 140.963318
  endloop
 endfacet
 facet normal -0.258788 0.801741 -0.538739
  outer loop
   vertex 475.176910 74.010071 141.517746
   vertex 475.426910 74.065666 141.480392
   vertex 475.426910 73.786797 141.065384
  endloop
 endfacet
 facet normal -0.258841 0.801713 -0.538755
  outer loop
   vertex 475.426910 73.786797 141.065384
   vertex 475.176910 73.731194 141.102753
   vertex 475.176910 74.010071 141.517746
  endloop
 endfacet
 facet normal 0.258788 0.801725 -0.538763
  outer loop
   vertex 475.176910 74.010071 141.517746
   vertex 475.176910 73.731194 141.102753
   vertex 474.926910 74.065666 141.480392
  endloop
 endfacet
 facet normal 0.258841 0.801729 -0.538731
  outer loop
   vertex 474.926910 74.065666 141.480392
   vertex 475.176910 73.731194 141.102753
   vertex 474.926910 73.786797 141.065384
  endloop
 endfacet
 facet normal 0.707109 0.586908 -0.394379
  outer loop
   vertex 474.926910 73.786797 141.065384
   vertex 474.743896 74.217567 141.378311
   vertex 474.926910 74.065666 141.480392
  endloop
 endfacet
 facet normal 0.965918 0.214846 -0.144372
  outer loop
   vertex 454.513306 74.425072 141.238846
   vertex 454.513306 74.146194 140.823837
   vertex 454.399414 74.777824 141.001801
  endloop
 endfacet
 facet normal 0.965919 0.214844 -0.144367
  outer loop
   vertex 454.399414 74.777824 141.001801
   vertex 454.513306 74.146194 140.823837
   vertex 454.399414 74.498955 140.586792
  endloop
 endfacet
 facet normal 0.707103 0.586913 -0.394383
  outer loop
   vertex 454.399414 74.498955 140.586792
   vertex 454.088287 75.036064 140.828278
   vertex 454.399414 74.777824 141.001801
  endloop
 endfacet
 facet normal 0.707096 0.586914 -0.394394
  outer loop
   vertex 454.088287 74.757187 140.413269
   vertex 454.088287 75.036064 140.828278
   vertex 454.399414 74.498955 140.586792
  endloop
 endfacet
 facet normal 0.258821 0.801727 -0.538744
  outer loop
   vertex 453.663300 75.130577 140.764755
   vertex 454.088287 75.036064 140.828278
   vertex 454.088287 74.757187 140.413269
  endloop
 endfacet
 facet normal 0.258835 0.801731 -0.538732
  outer loop
   vertex 454.088287 74.757187 140.413269
   vertex 453.663300 74.851707 140.349747
   vertex 453.663300 75.130577 140.764755
  endloop
 endfacet
 facet normal -0.258804 0.801738 -0.538737
  outer loop
   vertex 453.663300 75.130577 140.764755
   vertex 453.663300 74.851707 140.349747
   vertex 453.238281 75.036064 140.828278
  endloop
 endfacet
 facet normal -0.258817 0.801728 -0.538745
  outer loop
   vertex 453.238281 75.036064 140.828278
   vertex 453.663300 74.851707 140.349747
   vertex 453.238281 74.757187 140.413269
  endloop
 endfacet
 facet normal -0.707103 0.586908 -0.394390
  outer loop
   vertex 453.238281 74.757187 140.413269
   vertex 452.927155 74.777824 141.001801
   vertex 453.238281 75.036064 140.828278
  endloop
 endfacet
 facet normal -0.707096 0.586919 -0.394387
  outer loop
   vertex 452.927155 74.498955 140.586792
   vertex 452.927155 74.777824 141.001801
   vertex 453.238281 74.757187 140.413269
  endloop
 endfacet
 facet normal -0.965936 0.214794 -0.144333
  outer loop
   vertex 452.813293 74.425072 141.238846
   vertex 452.927155 74.777824 141.001801
   vertex 452.927155 74.498955 140.586792
  endloop
 endfacet
 facet normal -0.965937 0.214789 -0.144334
  outer loop
   vertex 452.927155 74.498955 140.586792
   vertex 452.813293 74.146194 140.823837
   vertex 452.813293 74.425072 141.238846
  endloop
 endfacet
 facet normal 0.965936 0.214792 -0.144336
  outer loop
   vertex 476.026917 74.425072 141.238876
   vertex 476.026917 74.146194 140.823868
   vertex 475.913055 74.777824 141.001831
  endloop
 endfacet
 facet normal 0.965937 0.214791 -0.144331
  outer loop
   vertex 475.913055 74.777824 141.001831
   vertex 476.026917 74.146194 140.823868
   vertex 475.913055 74.498955 140.586823
  endloop
 endfacet
 facet normal 0.707103 0.586913 -0.394383
  outer loop
   vertex 475.913055 74.498955 140.586823
   vertex 475.601929 75.036064 140.828308
   vertex 475.913055 74.777824 141.001831
  endloop
 endfacet
 facet normal 0.707096 0.586914 -0.394394
  outer loop
   vertex 475.601929 74.757187 140.413300
   vertex 475.601929 75.036064 140.828308
   vertex 475.913055 74.498955 140.586823
  endloop
 endfacet
 facet normal 0.258804 0.801731 -0.538747
  outer loop
   vertex 475.176910 75.130577 140.764786
   vertex 475.601929 75.036064 140.828308
   vertex 475.601929 74.757187 140.413300
  endloop
 endfacet
 facet normal 0.258817 0.801735 -0.538735
  outer loop
   vertex 475.601929 74.757187 140.413300
   vertex 475.176910 74.851707 140.349777
   vertex 475.176910 75.130577 140.764786
  endloop
 endfacet
 facet normal -0.258821 0.801734 -0.538734
  outer loop
   vertex 475.176910 75.130577 140.764786
   vertex 475.176910 74.851707 140.349777
   vertex 474.751923 75.036064 140.828308
  endloop
 endfacet
 facet normal -0.258835 0.801724 -0.538742
  outer loop
   vertex 474.751923 75.036064 140.828308
   vertex 475.176910 74.851707 140.349777
   vertex 474.751923 74.757187 140.413300
  endloop
 endfacet
 facet normal -0.707103 0.586908 -0.394390
  outer loop
   vertex 474.751923 74.757187 140.413300
   vertex 474.440796 74.777824 141.001831
   vertex 474.751923 75.036064 140.828308
  endloop
 endfacet
 facet normal -0.707096 0.586919 -0.394387
  outer loop
   vertex 474.440796 74.498955 140.586823
   vertex 474.440796 74.777824 141.001831
   vertex 474.751923 74.757187 140.413300
  endloop
 endfacet
 facet normal -0.965936 0.214794 -0.144333
  outer loop
   vertex 474.326935 74.425072 141.238876
   vertex 474.440796 74.777824 141.001831
   vertex 474.440796 74.498955 140.586823
  endloop
 endfacet
 facet normal -0.965937 0.214789 -0.144334
  outer loop
   vertex 474.440796 74.498955 140.586823
   vertex 474.326935 74.146194 140.823868
   vertex 474.326935 74.425072 141.238876
  endloop
 endfacet
 facet normal 0.707109 0.586908 -0.394379
  outer loop
   vertex 474.926910 73.786797 141.065384
   vertex 474.743896 73.938698 140.963303
   vertex 474.743896 74.217567 141.378311
  endloop
 endfacet
 facet normal 0.965925 0.214825 -0.144354
  outer loop
   vertex 474.743896 74.217567 141.378311
   vertex 474.743896 73.938698 140.963303
   vertex 474.676910 74.146194 140.823868
  endloop
 endfacet
 facet normal 0.965927 0.214818 -0.144354
  outer loop
   vertex 474.676910 74.146194 140.823868
   vertex 474.676910 74.425072 141.238876
   vertex 474.743896 74.217567 141.378311
  endloop
 endfacet
 facet normal 0.965927 -0.214818 0.144354
  outer loop
   vertex 474.743896 74.353699 140.684433
   vertex 474.676910 74.425072 141.238876
   vertex 474.676910 74.146194 140.823868
  endloop
 endfacet
 facet normal 0.965927 -0.214818 0.144354
  outer loop
   vertex 474.743896 74.632576 141.099442
   vertex 474.676910 74.425072 141.238876
   vertex 474.743896 74.353699 140.684433
  endloop
 endfacet
 facet normal 0.707109 -0.586903 0.394387
  outer loop
   vertex 474.743896 74.353699 140.684433
   vertex 474.926910 74.505600 140.582352
   vertex 474.743896 74.632576 141.099442
  endloop
 endfacet
 facet normal 0.707109 -0.586903 0.394387
  outer loop
   vertex 474.743896 74.632576 141.099442
   vertex 474.926910 74.505600 140.582352
   vertex 474.926910 74.784477 140.997360
  endloop
 endfacet
 facet normal 0.258811 -0.801729 0.538746
  outer loop
   vertex 474.926910 74.784477 140.997360
   vertex 474.926910 74.505600 140.582352
   vertex 475.176910 74.561203 140.544998
  endloop
 endfacet
 facet normal 0.258811 -0.801729 0.538746
  outer loop
   vertex 475.176910 74.561203 140.544998
   vertex 475.176910 74.840080 140.960007
   vertex 474.926910 74.784477 140.997360
  endloop
 endfacet
 facet normal -0.258811 -0.801729 0.538746
  outer loop
   vertex 475.426910 74.505600 140.582352
   vertex 475.176910 74.840080 140.960007
   vertex 475.176910 74.561203 140.544998
  endloop
 endfacet
 facet normal -0.258811 -0.801729 0.538746
  outer loop
   vertex 475.426910 74.784477 140.997360
   vertex 475.176910 74.840080 140.960007
   vertex 475.426910 74.505600 140.582352
  endloop
 endfacet
 facet normal -0.707109 -0.586903 0.394387
  outer loop
   vertex 475.426910 74.505600 140.582352
   vertex 475.609924 74.353699 140.684433
   vertex 475.426910 74.784477 140.997360
  endloop
 endfacet
 facet normal -0.707109 -0.586903 0.394387
  outer loop
   vertex 475.426910 74.784477 140.997360
   vertex 475.609924 74.353699 140.684433
   vertex 475.609924 74.632576 141.099442
  endloop
 endfacet
 facet normal -0.965927 -0.214818 0.144354
  outer loop
   vertex 475.609924 74.632576 141.099442
   vertex 475.609924 74.353699 140.684433
   vertex 475.676910 74.146194 140.823868
  endloop
 endfacet
 facet normal -0.965927 -0.214818 0.144354
  outer loop
   vertex 475.676910 74.146194 140.823868
   vertex 475.676910 74.425072 141.238876
   vertex 475.609924 74.632576 141.099442
  endloop
 endfacet
 facet normal -0.707109 0.586901 -0.394389
  outer loop
   vertex 453.913300 74.065666 141.480362
   vertex 454.096313 74.217567 141.378281
   vertex 454.096313 73.938698 140.963287
  endloop
 endfacet
 facet normal -0.965927 0.214818 -0.144355
  outer loop
   vertex 454.096313 73.938698 140.963287
   vertex 454.096313 74.217567 141.378281
   vertex 454.163300 74.425072 141.238846
  endloop
 endfacet
 facet normal -0.965928 0.214817 -0.144352
  outer loop
   vertex 454.163300 74.425072 141.238846
   vertex 454.163300 74.146194 140.823837
   vertex 454.096313 73.938698 140.963287
  endloop
 endfacet
 facet normal -0.965927 -0.214818 0.144354
  outer loop
   vertex 454.096313 74.632576 141.099411
   vertex 454.163300 74.146194 140.823837
   vertex 454.163300 74.425072 141.238846
  endloop
 endfacet
 facet normal -0.965927 -0.214818 0.144354
  outer loop
   vertex 454.096313 74.353699 140.684402
   vertex 454.163300 74.146194 140.823837
   vertex 454.096313 74.632576 141.099411
  endloop
 endfacet
 facet normal -0.707109 -0.586903 0.394387
  outer loop
   vertex 454.096313 74.632576 141.099411
   vertex 453.913300 74.784477 140.997330
   vertex 454.096313 74.353699 140.684402
  endloop
 endfacet
 facet normal -0.707093 -0.586910 0.394406
  outer loop
   vertex 454.096313 74.353699 140.684402
   vertex 453.913300 74.784477 140.997330
   vertex 453.913300 74.505600 140.582336
  endloop
 endfacet
 facet normal -0.258811 -0.801720 0.538759
  outer loop
   vertex 453.913300 74.505600 140.582336
   vertex 453.913300 74.784477 140.997330
   vertex 453.663300 74.840080 140.959976
  endloop
 endfacet
 facet normal -0.258841 -0.801723 0.538741
  outer loop
   vertex 453.663300 74.840080 140.959976
   vertex 453.663300 74.561203 140.544968
   vertex 453.913300 74.505600 140.582336
  endloop
 endfacet
 facet normal 0.258811 -0.801729 0.538746
  outer loop
   vertex 453.413300 74.784477 140.997330
   vertex 453.663300 74.561203 140.544968
   vertex 453.663300 74.840080 140.959976
  endloop
 endfacet
 facet normal 0.258841 -0.801713 0.538755
  outer loop
   vertex 453.413300 74.505600 140.582336
   vertex 453.663300 74.561203 140.544968
   vertex 453.413300 74.784477 140.997330
  endloop
 endfacet
 facet normal 0.707109 -0.586896 0.394397
  outer loop
   vertex 453.413300 74.784477 140.997330
   vertex 453.230286 74.632576 141.099411
   vertex 453.413300 74.505600 140.582336
  endloop
 endfacet
 facet normal 0.707093 -0.586917 0.394396
  outer loop
   vertex 453.413300 74.505600 140.582336
   vertex 453.230286 74.632576 141.099411
   vertex 453.230286 74.353699 140.684402
  endloop
 endfacet
 facet normal 0.965927 -0.214818 0.144354
  outer loop
   vertex 453.230286 74.353699 140.684402
   vertex 453.230286 74.632576 141.099411
   vertex 453.163300 74.425072 141.238846
  endloop
 endfacet
 facet normal 0.965927 -0.214818 0.144354
  outer loop
   vertex 453.163300 74.425072 141.238846
   vertex 453.163300 74.146194 140.823837
   vertex 453.230286 74.353699 140.684402
  endloop
 endfacet
 facet normal 0.965928 0.214817 -0.144352
  outer loop
   vertex 453.230286 73.938698 140.963287
   vertex 453.163300 74.146194 140.823837
   vertex 453.163300 74.425072 141.238846
  endloop
 endfacet
endsolid