solid stl file generated from DOUG
 facet normal -0.649057 -0.582907 0.488819
  outer loop
   vertex -225.961349 -336.252441 139.293518
   vertex -225.918945 -336.360016 139.221542
   vertex -212.861343 -339.949493 152.279129
  endloop
 endfacet
 facet normal -0.134923 -0.981627 -0.134923
  outer loop
   vertex -212.861343 -339.949493 152.279129
   vertex -225.918945 -336.360016 139.221542
   vertex -212.788681 -339.949493 152.206467
  endloop
 endfacet
 facet normal 0.488818 -0.582906 -0.649058
  outer loop
   vertex -213.684769 -339.841919 153.132111
   vertex -213.756744 -339.949493 153.174515
   vertex -226.814346 -336.360016 140.116943
  endloop
 endfacet
 facet normal -0.134937 -0.981627 -0.134908
  outer loop
   vertex -226.814346 -336.360016 140.116943
   vertex -213.756744 -339.949493 153.174515
   vertex -213.829391 -339.949493 153.247177
  endloop
 endfacet
 facet normal -0.134923 -0.981627 -0.134923
  outer loop
   vertex -213.829391 -339.949493 153.247177
   vertex -226.886993 -336.360016 140.189590
   vertex -226.814346 -336.360016 140.116943
  endloop
 endfacet
 facet normal -0.379926 -0.916105 0.128093
  outer loop
   vertex -213.730530 -339.230225 153.346039
   vertex -226.788132 -335.640747 140.288452
   vertex -213.709946 -339.242096 153.322189
  endloop
 endfacet
 facet normal -0.379926 -0.916105 0.128093
  outer loop
   vertex -213.709946 -339.242096 153.322189
   vertex -226.788132 -335.640747 140.288452
   vertex -226.767548 -335.652618 140.264603
  endloop
 endfacet
 facet normal -0.707104 0.000018 0.707110
  outer loop
   vertex -226.767548 -335.652618 140.264603
   vertex -226.845154 -336.217194 140.187012
   vertex -213.709946 -339.242096 153.322189
  endloop
 endfacet
 facet normal -0.649074 -0.582863 0.488849
  outer loop
   vertex -212.861343 -339.949493 152.279129
   vertex -212.903748 -339.841919 152.351089
   vertex -225.961349 -336.252441 139.293518
  endloop
 endfacet
 facet normal -0.134923 -0.981627 -0.134923
  outer loop
   vertex -225.961349 -336.252441 139.293518
   vertex -212.903748 -339.841919 152.351089
   vertex -213.684769 -339.841919 153.132111
  endloop
 endfacet
 facet normal -0.134923 -0.981627 -0.134923
  outer loop
   vertex -213.684769 -339.841919 153.132111
   vertex -226.742371 -336.252441 140.074539
   vertex -225.961349 -336.252441 139.293518
  endloop
 endfacet
 facet normal 0.488818 -0.582906 -0.649058
  outer loop
   vertex -226.814346 -336.360016 140.116943
   vertex -226.742371 -336.252441 140.074539
   vertex -213.684769 -339.841919 153.132111
  endloop
 endfacet
 facet normal -0.707117 -0.000080 0.707096
  outer loop
   vertex -226.886993 -336.360016 140.189590
   vertex -213.829391 -339.949493 153.247177
   vertex -226.869003 -336.229065 140.207596
  endloop
 endfacet
 facet normal -0.707106 -0.000000 0.707108
  outer loop
   vertex -226.869003 -336.229065 140.207596
   vertex -213.829391 -339.949493 153.247177
   vertex -213.811401 -339.818512 153.265167
  endloop
 endfacet
 facet normal -0.128094 0.916105 0.379926
  outer loop
   vertex -213.811401 -339.818512 153.265167
   vertex -226.845154 -336.217194 140.187012
   vertex -226.869003 -336.229065 140.207596
  endloop
 endfacet
 facet normal -0.127504 0.916397 0.379419
  outer loop
   vertex -213.787552 -339.806671 153.244583
   vertex -226.845154 -336.217194 140.187012
   vertex -213.811401 -339.818512 153.265167
  endloop
 endfacet
 facet normal -0.707106 -0.000000 0.707108
  outer loop
   vertex -213.709946 -339.242096 153.322189
   vertex -226.845154 -336.217194 140.187012
   vertex -213.787552 -339.806671 153.244583
  endloop
 endfacet
 facet normal 0.694122 -0.190795 0.694112
  outer loop
   vertex -212.448425 -340.058777 152.522629
   vertex -213.399826 -339.233704 153.700836
   vertex -213.513229 -340.058777 153.587448
  endloop
 endfacet
 facet normal -0.707113 0.000015 0.707101
  outer loop
   vertex -213.513229 -340.058777 153.587448
   vertex -213.399826 -339.233704 153.700836
   vertex -214.207336 -339.867981 152.893326
  endloop
 endfacet
 facet normal -0.134914 -0.981630 -0.134914
  outer loop
   vertex -214.207336 -339.867981 152.893326
   vertex -213.142532 -339.867981 151.828522
   vertex -213.513229 -340.058777 153.587448
  endloop
 endfacet
 facet normal -0.694117 0.190795 -0.694117
  outer loop
   vertex -214.093948 -339.042908 153.006729
   vertex -213.142532 -339.867981 151.828522
   vertex -214.207336 -339.867981 152.893326
  endloop
 endfacet
 facet normal -0.694110 0.190807 -0.694120
  outer loop
   vertex -213.029129 -339.042908 151.941925
   vertex -213.142532 -339.867981 151.828522
   vertex -214.093948 -339.042908 153.006729
  endloop
 endfacet
 facet normal 0.134913 0.981630 0.134914
  outer loop
   vertex -214.093948 -339.042908 153.006729
   vertex -213.399826 -339.233704 153.700836
   vertex -213.029129 -339.042908 151.941925
  endloop
 endfacet
 facet normal 0.134915 0.981629 0.134915
  outer loop
   vertex -213.029129 -339.042908 151.941925
   vertex -213.399826 -339.233704 153.700836
   vertex -212.335022 -339.233704 152.636032
  endloop
 endfacet
 facet normal 0.694115 -0.190807 0.694115
  outer loop
   vertex -212.335022 -339.233704 152.636032
   vertex -213.399826 -339.233704 153.700836
   vertex -212.448425 -340.058777 152.522629
  endloop
 endfacet
 facet normal 0.707107 0.000000 -0.707107
  outer loop
   vertex -212.448425 -340.058777 152.522629
   vertex -213.142532 -339.867981 151.828522
   vertex -212.335022 -339.233704 152.636032
  endloop
 endfacet
 facet normal -0.134916 -0.981629 -0.134914
  outer loop
   vertex -213.513229 -340.058777 153.587448
   vertex -213.142532 -339.867981 151.828522
   vertex -212.448425 -340.058777 152.522629
  endloop
 endfacet
 facet normal 0.694115 -0.190814 0.694115
  outer loop
   vertex -226.538208 -336.478271 140.562500
   vertex -225.473389 -336.478271 139.497681
   vertex -226.424805 -335.653229 140.675903
  endloop
 endfacet
 facet normal 0.694115 -0.190814 0.694115
  outer loop
   vertex -226.424805 -335.653229 140.675903
   vertex -225.473389 -336.478271 139.497681
   vertex -225.359985 -335.653229 139.611084
  endloop
 endfacet
 facet normal 0.134934 0.981624 0.134934
  outer loop
   vertex -225.359985 -335.653229 139.611084
   vertex -226.054108 -335.462402 138.916977
   vertex -226.424805 -335.653229 140.675903
  endloop
 endfacet
 facet normal 0.707099 0.000002 -0.707114
  outer loop
   vertex -225.473389 -336.478271 139.497681
   vertex -226.054108 -335.462402 138.916977
   vertex -225.359985 -335.653229 139.611084
  endloop
 endfacet
 facet normal 0.707099 0.000002 -0.707114
  outer loop
   vertex -226.167511 -336.287476 138.803574
   vertex -226.054108 -335.462402 138.916977
   vertex -225.473389 -336.478271 139.497681
  endloop
 endfacet
 facet normal -0.134914 -0.981630 -0.134914
  outer loop
   vertex -225.473389 -336.478271 139.497681
   vertex -227.232315 -336.287476 139.868378
   vertex -226.167511 -336.287476 138.803574
  endloop
 endfacet
 facet normal -0.694115 0.190807 -0.694115
  outer loop
   vertex -226.167511 -336.287476 138.803574
   vertex -227.232315 -336.287476 139.868378
   vertex -226.054108 -335.462402 138.916977
  endloop
 endfacet
 facet normal -0.694115 0.190807 -0.694115
  outer loop
   vertex -226.054108 -335.462402 138.916977
   vertex -227.232315 -336.287476 139.868378
   vertex -227.118912 -335.462402 139.981781
  endloop
 endfacet
 facet normal 0.134934 0.981624 0.134934
  outer loop
   vertex -227.118912 -335.462402 139.981781
   vertex -226.424805 -335.653229 140.675903
   vertex -226.054108 -335.462402 138.916977
  endloop
 endfacet
 facet normal -0.707114 0.000002 0.707099
  outer loop
   vertex -227.232315 -336.287476 139.868378
   vertex -226.424805 -335.653229 140.675903
   vertex -227.118912 -335.462402 139.981781
  endloop
 endfacet
 facet normal -0.707114 0.000002 0.707099
  outer loop
   vertex -226.538208 -336.478271 140.562500
   vertex -226.424805 -335.653229 140.675903
   vertex -227.232315 -336.287476 139.868378
  endloop
 endfacet
 facet normal -0.134914 -0.981630 -0.134914
  outer loop
   vertex -227.232315 -336.287476 139.868378
   vertex -225.473389 -336.478271 139.497681
   vertex -226.538208 -336.478271 140.562500
  endloop
 endfacet
 facet normal -0.134937 -0.981627 -0.134908
  outer loop
   vertex -225.918945 -336.360016 139.221542
   vertex -225.846298 -336.360016 139.148880
   vertex -212.788681 -339.949493 152.206467
  endloop
 endfacet
 facet normal 0.707106 0.000000 -0.707108
  outer loop
   vertex -212.788681 -339.949493 152.206467
   vertex -225.846298 -336.360016 139.148880
   vertex -225.828293 -336.229065 139.166885
  endloop
 endfacet
 facet normal 0.707106 0.000000 -0.707108
  outer loop
   vertex -225.828293 -336.229065 139.166885
   vertex -212.770691 -339.818512 152.224457
   vertex -212.788681 -339.949493 152.206467
  endloop
 endfacet
 facet normal 0.379925 0.916105 -0.128094
  outer loop
   vertex -225.848877 -336.217194 139.190735
   vertex -212.770691 -339.818512 152.224457
   vertex -225.828293 -336.229065 139.166885
  endloop
 endfacet
 facet normal 0.379418 0.916398 -0.127505
  outer loop
   vertex -212.791275 -339.806671 152.248306
   vertex -212.770691 -339.818512 152.224457
   vertex -225.848877 -336.217194 139.190735
  endloop
 endfacet
 facet normal 0.707109 0.000019 -0.707105
  outer loop
   vertex -225.848877 -336.217194 139.190735
   vertex -225.771286 -335.652618 139.268341
   vertex -212.791275 -339.806671 152.248306
  endloop
 endfacet
 facet normal 0.707109 0.000019 -0.707105
  outer loop
   vertex -212.791275 -339.806671 152.248306
   vertex -225.771286 -335.652618 139.268341
   vertex -212.713684 -339.242096 152.325912
  endloop
 endfacet
 facet normal 0.127971 -0.916166 -0.379821
  outer loop
   vertex -212.713684 -339.242096 152.325912
   vertex -225.771286 -335.652618 139.268341
   vertex -225.747437 -335.640747 139.247742
  endloop
 endfacet
 facet normal 0.128093 -0.916105 -0.379926
  outer loop
   vertex -225.747437 -335.640747 139.247742
   vertex -212.689835 -339.230225 152.305328
   vertex -212.713684 -339.242096 152.325912
  endloop
 endfacet
 facet normal 0.707106 0.000000 -0.707107
  outer loop
   vertex -225.738495 -335.575775 139.256683
   vertex -212.689835 -339.230225 152.305328
   vertex -225.747437 -335.640747 139.247742
  endloop
 endfacet
 facet normal 0.707084 -0.000160 -0.707130
  outer loop
   vertex -212.680893 -339.165253 152.314255
   vertex -212.689835 -339.230225 152.305328
   vertex -225.738495 -335.575775 139.256683
  endloop
 endfacet
 facet normal 0.134923 0.981627 0.134923
  outer loop
   vertex -225.738495 -335.575775 139.256683
   vertex -226.779205 -335.575775 140.297394
   vertex -212.680893 -339.165253 152.314255
  endloop
 endfacet
 facet normal 0.134923 0.981627 0.134923
  outer loop
   vertex -212.680893 -339.165253 152.314255
   vertex -226.779205 -335.575775 140.297394
   vertex -213.721603 -339.165253 153.354965
  endloop
 endfacet
 facet normal -0.707106 -0.000000 0.707108
  outer loop
   vertex -213.721603 -339.165253 153.354965
   vertex -226.779205 -335.575775 140.297394
   vertex -213.730530 -339.230225 153.346039
  endloop
 endfacet
 facet normal -0.707101 -0.000015 0.707113
  outer loop
   vertex -214.093948 -339.042908 153.006729
   vertex -214.207336 -339.867981 152.893326
   vertex -213.399826 -339.233704 153.700836
  endloop
 endfacet
 facet normal 0.707107 0.000000 -0.707107
  outer loop
   vertex -213.142532 -339.867981 151.828522
   vertex -213.029129 -339.042908 151.941925
   vertex -212.335022 -339.233704 152.636032
  endloop
 endfacet
 facet normal -0.707128 -0.000160 0.707085
  outer loop
   vertex -226.779205 -335.575775 140.297394
   vertex -226.788132 -335.640747 140.288452
   vertex -213.730530 -339.230225 153.346039
  endloop
 endfacet
 facet normal -0.381472 -0.414167 -0.826405
  outer loop
   vertex -226.277466 -334.589233 139.758423
   vertex -226.663132 -333.464478 139.372757
   vertex -226.101639 -334.603180 139.684250
  endloop
 endfacet
 facet normal -0.381530 -0.414186 -0.826368
  outer loop
   vertex -226.101639 -334.603180 139.684250
   vertex -226.663132 -333.464478 139.372757
   vertex -225.959824 -333.520386 139.076065
  endloop
 endfacet
 facet normal 0.241712 -0.499070 -0.832168
  outer loop
   vertex -225.959824 -333.520386 139.076065
   vertex -225.927155 -334.636932 139.755173
   vertex -226.101639 -334.603180 139.684250
  endloop
 endfacet
 facet normal 0.241796 -0.499058 -0.832151
  outer loop
   vertex -225.261902 -333.655304 139.359772
   vertex -225.927155 -334.636932 139.755173
   vertex -225.959824 -333.520386 139.076065
  endloop
 endfacet
 facet normal 0.678490 -0.619097 -0.395437
  outer loop
   vertex -225.856232 -334.670654 139.929657
   vertex -225.927155 -334.636932 139.755173
   vertex -225.261902 -333.655304 139.359772
  endloop
 endfacet
 facet normal 0.678461 -0.619103 -0.395477
  outer loop
   vertex -225.261902 -333.655304 139.359772
   vertex -224.978195 -333.790222 140.057693
   vertex -225.856232 -334.670654 139.929657
  endloop
 endfacet
 facet normal 0.672686 -0.703985 0.227812
  outer loop
   vertex -225.856232 -334.670654 139.929657
   vertex -224.978195 -333.790222 140.057693
   vertex -225.930405 -334.684631 140.105484
  endloop
 endfacet
 facet normal 0.672682 -0.703979 0.227846
  outer loop
   vertex -225.930405 -334.684631 140.105484
   vertex -224.978195 -333.790222 140.057693
   vertex -225.274887 -333.846100 140.760986
  endloop
 endfacet
 facet normal 0.227820 -0.703967 0.672703
  outer loop
   vertex -225.274887 -333.846100 140.760986
   vertex -226.106232 -334.670654 140.179657
   vertex -225.930405 -334.684631 140.105484
  endloop
 endfacet
 facet normal 0.227853 -0.703981 0.672676
  outer loop
   vertex -225.978195 -333.790222 141.057693
   vertex -226.106232 -334.670654 140.179657
   vertex -225.274887 -333.846100 140.760986
  endloop
 endfacet
 facet normal -0.395434 -0.619119 0.678471
  outer loop
   vertex -226.280716 -334.636932 140.108734
   vertex -226.106232 -334.670654 140.179657
   vertex -225.978195 -333.790222 141.057693
  endloop
 endfacet
 facet normal -0.395478 -0.619097 0.678466
  outer loop
   vertex -225.978195 -333.790222 141.057693
   vertex -226.676117 -333.655304 140.773987
   vertex -226.280716 -334.636932 140.108734
  endloop
 endfacet
 facet normal -0.832189 -0.499027 0.241729
  outer loop
   vertex -226.280716 -334.636932 140.108734
   vertex -226.676117 -333.655304 140.773987
   vertex -226.351639 -334.603180 139.934250
  endloop
 endfacet
 facet normal -0.832146 -0.499068 0.241792
  outer loop
   vertex -226.351639 -334.603180 139.934250
   vertex -226.676117 -333.655304 140.773987
   vertex -226.959824 -333.520386 140.076065
  endloop
 endfacet
 facet normal -0.826388 -0.414205 -0.381468
  outer loop
   vertex -226.959824 -333.520386 140.076065
   vertex -226.277466 -334.589233 139.758423
   vertex -226.351639 -334.603180 139.934250
  endloop
 endfacet
 facet normal -0.826373 -0.414176 -0.381531
  outer loop
   vertex -226.663132 -333.464478 139.372757
   vertex -226.277466 -334.589233 139.758423
   vertex -226.959824 -333.520386 140.076065
  endloop
 endfacet
 facet normal -0.370694 0.176280 -0.911872
  outer loop
   vertex -213.403290 -339.136749 152.632568
   vertex -213.268372 -338.155121 152.767487
   vertex -213.227478 -339.150726 152.558395
  endloop
 endfacet
 facet normal -0.370666 0.176284 -0.911883
  outer loop
   vertex -213.227478 -339.150726 152.558395
   vertex -213.268372 -338.155121 152.767487
   vertex -213.092545 -338.169098 152.693314
  endloop
 endfacet
 facet normal 0.387626 0.073017 -0.918920
  outer loop
   vertex -213.092545 -338.169098 152.693314
   vertex -213.052994 -339.184448 152.629318
   vertex -213.227478 -339.150726 152.558395
  endloop
 endfacet
 facet normal 0.387655 0.073017 -0.918908
  outer loop
   vertex -212.918076 -338.202820 152.764236
   vertex -213.052994 -339.184448 152.629318
   vertex -213.092545 -338.169098 152.693314
  endloop
 endfacet
 facet normal 0.918915 -0.073020 -0.387638
  outer loop
   vertex -212.982071 -339.218201 152.803802
   vertex -213.052994 -339.184448 152.629318
   vertex -212.918076 -338.202820 152.764236
  endloop
 endfacet
 facet normal 0.918886 -0.073021 -0.387707
  outer loop
   vertex -212.918076 -338.202820 152.764236
   vertex -212.847137 -338.236572 152.938721
   vertex -212.982071 -339.218201 152.803802
  endloop
 endfacet
 facet normal 0.911860 -0.176296 0.370718
  outer loop
   vertex -212.982071 -339.218201 152.803802
   vertex -212.847137 -338.236572 152.938721
   vertex -213.056244 -339.232147 152.979614
  endloop
 endfacet
 facet normal 0.911870 -0.176299 0.370690
  outer loop
   vertex -213.056244 -339.232147 152.979614
   vertex -212.847137 -338.236572 152.938721
   vertex -212.921310 -338.250519 153.114548
  endloop
 endfacet
 facet normal 0.370757 -0.176305 0.911842
  outer loop
   vertex -212.921310 -338.250519 153.114548
   vertex -213.232071 -339.218201 153.053802
   vertex -213.056244 -339.232147 152.979614
  endloop
 endfacet
 facet normal 0.370692 -0.176286 0.911872
  outer loop
   vertex -213.097137 -338.236572 153.188721
   vertex -213.232071 -339.218201 153.053802
   vertex -212.921310 -338.250519 153.114548
  endloop
 endfacet
 facet normal -0.387732 -0.072996 0.918877
  outer loop
   vertex -213.406540 -339.184448 152.982864
   vertex -213.232071 -339.218201 153.053802
   vertex -213.097137 -338.236572 153.188721
  endloop
 endfacet
 facet normal -0.387640 -0.073034 0.918913
  outer loop
   vertex -213.097137 -338.236572 153.188721
   vertex -213.271622 -338.202820 153.117798
   vertex -213.406540 -339.184448 152.982864
  endloop
 endfacet
 facet normal -0.918882 0.072998 0.387721
  outer loop
   vertex -213.406540 -339.184448 152.982864
   vertex -213.271622 -338.202820 153.117798
   vertex -213.477478 -339.150726 152.808395
  endloop
 endfacet
 facet normal -0.918918 0.073036 0.387629
  outer loop
   vertex -213.477478 -339.150726 152.808395
   vertex -213.271622 -338.202820 153.117798
   vertex -213.342545 -338.169098 152.943314
  endloop
 endfacet
 facet normal -0.911854 0.176297 -0.370732
  outer loop
   vertex -213.342545 -338.169098 152.943314
   vertex -213.403290 -339.136749 152.632568
   vertex -213.477478 -339.150726 152.808395
  endloop
 endfacet
 facet normal -0.911884 0.176278 -0.370667
  outer loop
   vertex -213.268372 -338.155121 152.767487
   vertex -213.403290 -339.136749 152.632568
   vertex -213.342545 -338.169098 152.943314
  endloop
 endfacet
 facet normal -0.370672 0.176292 -0.911879
  outer loop
   vertex -213.655396 -337.040253 152.380463
   vertex -213.520477 -336.058624 152.515396
   vertex -212.952087 -337.096130 152.083771
  endloop
 endfacet
 facet normal -0.370690 0.176280 -0.911874
  outer loop
   vertex -212.952087 -337.096130 152.083771
   vertex -213.520477 -336.058624 152.515396
   vertex -212.817169 -336.114502 152.218689
  endloop
 endfacet
 facet normal 0.387654 0.073017 -0.918909
  outer loop
   vertex -212.817169 -336.114502 152.218689
   vertex -212.254166 -337.231049 152.367477
   vertex -212.952087 -337.096130 152.083771
  endloop
 endfacet
 facet normal 0.387654 0.073017 -0.918909
  outer loop
   vertex -212.119247 -336.249420 152.502396
   vertex -212.254166 -337.231049 152.367477
   vertex -212.817169 -336.114502 152.218689
  endloop
 endfacet
 facet normal 0.918909 -0.073017 -0.387654
  outer loop
   vertex -211.970459 -337.365967 153.065399
   vertex -212.254166 -337.231049 152.367477
   vertex -212.119247 -336.249420 152.502396
  endloop
 endfacet
 facet normal 0.918909 -0.073017 -0.387654
  outer loop
   vertex -212.119247 -336.249420 152.502396
   vertex -211.835541 -336.384338 153.200317
   vertex -211.970459 -337.365967 153.065399
  endloop
 endfacet
 facet normal 0.911874 -0.176280 0.370691
  outer loop
   vertex -211.970459 -337.365967 153.065399
   vertex -211.835541 -336.384338 153.200317
   vertex -212.267166 -337.421875 153.768692
  endloop
 endfacet
 facet normal 0.911881 -0.176297 0.370664
  outer loop
   vertex -212.267166 -337.421875 153.768692
   vertex -211.835541 -336.384338 153.200317
   vertex -212.132233 -336.440247 153.903625
  endloop
 endfacet
 facet normal 0.370688 -0.176299 0.911871
  outer loop
   vertex -212.132233 -336.440247 153.903625
   vertex -212.970459 -337.365967 154.065399
   vertex -212.267166 -337.421875 153.768692
  endloop
 endfacet
 facet normal 0.370667 -0.176278 0.911884
  outer loop
   vertex -212.835541 -336.384338 154.200317
   vertex -212.970459 -337.365967 154.065399
   vertex -212.132233 -336.440247 153.903625
  endloop
 endfacet
 facet normal -0.387654 -0.073017 0.918909
  outer loop
   vertex -213.668381 -337.231049 153.781693
   vertex -212.970459 -337.365967 154.065399
   vertex -212.835541 -336.384338 154.200317
  endloop
 endfacet
 facet normal -0.387654 -0.073017 0.918909
  outer loop
   vertex -212.835541 -336.384338 154.200317
   vertex -213.533463 -336.249420 153.916611
   vertex -213.668381 -337.231049 153.781693
  endloop
 endfacet
 facet normal -0.918909 0.073017 0.387654
  outer loop
   vertex -213.668381 -337.231049 153.781693
   vertex -213.533463 -336.249420 153.916611
   vertex -213.952087 -337.096130 153.083771
  endloop
 endfacet
 facet normal -0.918909 0.073017 0.387654
  outer loop
   vertex -213.952087 -337.096130 153.083771
   vertex -213.533463 -336.249420 153.916611
   vertex -213.817169 -336.114502 153.218689
  endloop
 endfacet
 facet normal -0.911881 0.176278 -0.370674
  outer loop
   vertex -213.817169 -336.114502 153.218689
   vertex -213.655396 -337.040253 152.380463
   vertex -213.952087 -337.096130 153.083771
  endloop
 endfacet
 facet normal -0.911877 0.176285 -0.370680
  outer loop
   vertex -213.520477 -336.058624 152.515396
   vertex -213.655396 -337.040253 152.380463
   vertex -213.817169 -336.114502 153.218689
  endloop
 endfacet
 facet normal -0.381530 -0.414186 -0.826368
  outer loop
   vertex -213.269730 -338.164978 152.766129
   vertex -213.655396 -337.040253 152.380463
   vertex -213.093903 -338.178955 152.691956
  endloop
 endfacet
 facet normal -0.381516 -0.414181 -0.826378
  outer loop
   vertex -213.093903 -338.178955 152.691956
   vertex -213.655396 -337.040253 152.380463
   vertex -212.952087 -337.096130 152.083771
  endloop
 endfacet
 facet normal 0.241795 -0.499058 -0.832152
  outer loop
   vertex -212.952087 -337.096130 152.083771
   vertex -212.919418 -338.212677 152.762878
   vertex -213.093903 -338.178955 152.691956
  endloop
 endfacet
 facet normal 0.241796 -0.499058 -0.832151
  outer loop
   vertex -212.254166 -337.231049 152.367477
   vertex -212.919418 -338.212677 152.762878
   vertex -212.952087 -337.096130 152.083771
  endloop
 endfacet
 facet normal 0.678438 -0.619098 -0.395525
  outer loop
   vertex -212.848495 -338.246429 152.937363
   vertex -212.919418 -338.212677 152.762878
   vertex -212.254166 -337.231049 152.367477
  endloop
 endfacet
 facet normal 0.678471 -0.619091 -0.395479
  outer loop
   vertex -212.254166 -337.231049 152.367477
   vertex -211.970459 -337.365967 153.065399
   vertex -212.848495 -338.246429 152.937363
  endloop
 endfacet
 facet normal 0.672670 -0.703962 0.227929
  outer loop
   vertex -212.848495 -338.246429 152.937363
   vertex -211.970459 -337.365967 153.065399
   vertex -212.922668 -338.260376 153.113190
  endloop
 endfacet
 facet normal 0.672684 -0.703982 0.227831
  outer loop
   vertex -212.922668 -338.260376 153.113190
   vertex -211.970459 -337.365967 153.065399
   vertex -212.267166 -337.421875 153.768692
  endloop
 endfacet
 facet normal 0.227910 -0.704004 0.672633
  outer loop
   vertex -212.267166 -337.421875 153.768692
   vertex -213.098495 -338.246429 153.187363
   vertex -212.922668 -338.260376 153.113190
  endloop
 endfacet
 facet normal 0.227835 -0.703971 0.672693
  outer loop
   vertex -212.970459 -337.365967 154.065399
   vertex -213.098495 -338.246429 153.187363
   vertex -212.267166 -337.421875 153.768692
  endloop
 endfacet
 facet normal -0.395528 -0.619072 0.678459
  outer loop
   vertex -213.272980 -338.212677 153.116440
   vertex -213.098495 -338.246429 153.187363
   vertex -212.970459 -337.365967 154.065399
  endloop
 endfacet
 facet normal -0.395478 -0.619097 0.678466
  outer loop
   vertex -212.970459 -337.365967 154.065399
   vertex -213.668381 -337.231049 153.781693
   vertex -213.272980 -338.212677 153.116440
  endloop
 endfacet
 facet normal -0.832152 -0.499057 0.241795
  outer loop
   vertex -213.272980 -338.212677 153.116440
   vertex -213.668381 -337.231049 153.781693
   vertex -213.343903 -338.178955 152.941956
  endloop
 endfacet
 facet normal -0.832151 -0.499058 0.241796
  outer loop
   vertex -213.343903 -338.178955 152.941956
   vertex -213.668381 -337.231049 153.781693
   vertex -213.952087 -337.096130 153.083771
  endloop
 endfacet
 facet normal -0.826373 -0.414176 -0.381531
  outer loop
   vertex -213.952087 -337.096130 153.083771
   vertex -213.269730 -338.164978 152.766129
   vertex -213.343903 -338.178955 152.941956
  endloop
 endfacet
 facet normal -0.826376 -0.414183 -0.381515
  outer loop
   vertex -213.655396 -337.040253 152.380463
   vertex -213.269730 -338.164978 152.766129
   vertex -213.952087 -337.096130 153.083771
  endloop
 endfacet
 facet normal -0.370693 0.176280 -0.911873
  outer loop
   vertex -226.411026 -335.561005 139.624863
   vertex -226.276108 -334.579376 139.759781
   vertex -226.235199 -335.574951 139.550690
  endloop
 endfacet
 facet normal -0.370666 0.176283 -0.911883
  outer loop
   vertex -226.235199 -335.574951 139.550690
   vertex -226.276108 -334.579376 139.759781
   vertex -226.100281 -334.593353 139.685608
  endloop
 endfacet
 facet normal 0.387666 0.073017 -0.918903
  outer loop
   vertex -226.100281 -334.593353 139.685608
   vertex -226.060730 -335.608704 139.621613
   vertex -226.235199 -335.574951 139.550690
  endloop
 endfacet
 facet normal 0.387626 0.073017 -0.918920
  outer loop
   vertex -225.925797 -334.627075 139.756531
   vertex -226.060730 -335.608704 139.621613
   vertex -226.100281 -334.593353 139.685608
  endloop
 endfacet
 facet normal 0.918890 -0.073023 -0.387696
  outer loop
   vertex -225.989792 -335.642426 139.796097
   vertex -226.060730 -335.608704 139.621613
   vertex -225.925797 -334.627075 139.756531
  endloop
 endfacet
 facet normal 0.918919 -0.073023 -0.387627
  outer loop
   vertex -225.925797 -334.627075 139.756531
   vertex -225.854874 -334.660797 139.931015
   vertex -225.989792 -335.642426 139.796097
  endloop
 endfacet
 facet normal 0.911872 -0.176280 0.370694
  outer loop
   vertex -225.989792 -335.642426 139.796097
   vertex -225.854874 -334.660797 139.931015
   vertex -226.063965 -335.656403 139.971909
  endloop
 endfacet
 facet normal 0.911883 -0.176284 0.370666
  outer loop
   vertex -226.063965 -335.656403 139.971909
   vertex -225.854874 -334.660797 139.931015
   vertex -225.929047 -334.674774 140.106842
  endloop
 endfacet
 facet normal 0.370732 -0.176297 0.911854
  outer loop
   vertex -225.929047 -334.674774 140.106842
   vertex -226.239792 -335.642426 140.046097
   vertex -226.063965 -335.656403 139.971909
  endloop
 endfacet
 facet normal 0.370667 -0.176278 0.911884
  outer loop
   vertex -226.104874 -334.660797 140.181015
   vertex -226.239792 -335.642426 140.046097
   vertex -225.929047 -334.674774 140.106842
  endloop
 endfacet
 facet normal -0.387694 -0.073010 0.918892
  outer loop
   vertex -226.414276 -335.608704 139.975159
   vertex -226.239792 -335.642426 140.046097
   vertex -226.104874 -334.660797 140.181015
  endloop
 endfacet
 facet normal -0.387629 -0.073036 0.918918
  outer loop
   vertex -226.104874 -334.660797 140.181015
   vertex -226.279358 -334.627075 140.110092
   vertex -226.414276 -335.608704 139.975159
  endloop
 endfacet
 facet normal -0.918904 0.073009 0.387665
  outer loop
   vertex -226.414276 -335.608704 139.975159
   vertex -226.279358 -334.627075 140.110092
   vertex -226.485199 -335.574951 139.800690
  endloop
 endfacet
 facet normal -0.918919 0.073025 0.387628
  outer loop
   vertex -226.485199 -335.574951 139.800690
   vertex -226.279358 -334.627075 140.110092
   vertex -226.350281 -334.593353 139.935608
  endloop
 endfacet
 facet normal -0.911872 0.176285 -0.370692
  outer loop
   vertex -226.350281 -334.593353 139.935608
   vertex -226.411026 -335.561005 139.624863
   vertex -226.485199 -335.574951 139.800690
  endloop
 endfacet
 facet normal -0.911884 0.176278 -0.370667
  outer loop
   vertex -226.276108 -334.579376 139.759781
   vertex -226.411026 -335.561005 139.624863
   vertex -226.350281 -334.593353 139.935608
  endloop
 endfacet
 facet normal -0.911884 0.176278 -0.370667
  outer loop
   vertex -226.959824 -333.520386 140.076065
   vertex -226.824905 -332.538757 140.210983
   vertex -226.663132 -333.464478 139.372757
  endloop
 endfacet
 facet normal -0.911871 0.176299 -0.370688
  outer loop
   vertex -226.663132 -333.464478 139.372757
   vertex -226.824905 -332.538757 140.210983
   vertex -226.528198 -332.482849 139.507690
  endloop
 endfacet
 facet normal -0.370664 0.176297 -0.911881
  outer loop
   vertex -226.528198 -332.482849 139.507690
   vertex -225.959824 -333.520386 139.076065
   vertex -226.663132 -333.464478 139.372757
  endloop
 endfacet
 facet normal -0.370691 0.176280 -0.911874
  outer loop
   vertex -225.824905 -332.538757 139.210983
   vertex -225.959824 -333.520386 139.076065
   vertex -226.528198 -332.482849 139.507690
  endloop
 endfacet
 facet normal 0.387654 0.073017 -0.918909
  outer loop
   vertex -225.261902 -333.655304 139.359772
   vertex -225.959824 -333.520386 139.076065
   vertex -225.824905 -332.538757 139.210983
  endloop
 endfacet
 facet normal 0.387654 0.073017 -0.918909
  outer loop
   vertex -225.824905 -332.538757 139.210983
   vertex -225.126984 -332.673676 139.494690
   vertex -225.261902 -333.655304 139.359772
  endloop
 endfacet
 facet normal 0.918909 -0.073017 -0.387654
  outer loop
   vertex -225.261902 -333.655304 139.359772
   vertex -225.126984 -332.673676 139.494690
   vertex -224.978195 -333.790222 140.057693
  endloop
 endfacet
 facet normal 0.918909 -0.073017 -0.387654
  outer loop
   vertex -224.978195 -333.790222 140.057693
   vertex -225.126984 -332.673676 139.494690
   vertex -224.843277 -332.808594 140.192612
  endloop
 endfacet
 facet normal 0.911878 -0.176279 0.370680
  outer loop
   vertex -224.843277 -332.808594 140.192612
   vertex -225.274887 -333.846100 140.760986
   vertex -224.978195 -333.790222 140.057693
  endloop
 endfacet
 facet normal 0.911880 -0.176284 0.370673
  outer loop
   vertex -225.139969 -332.864471 140.895920
   vertex -225.274887 -333.846100 140.760986
   vertex -224.843277 -332.808594 140.192612
  endloop
 endfacet
 facet normal 0.370688 -0.176293 0.911872
  outer loop
   vertex -225.978195 -333.790222 141.057693
   vertex -225.274887 -333.846100 140.760986
   vertex -225.139969 -332.864471 140.895920
  endloop
 endfacet
 facet normal 0.370674 -0.176278 0.911881
  outer loop
   vertex -225.139969 -332.864471 140.895920
   vertex -225.843277 -332.808594 141.192612
   vertex -225.978195 -333.790222 141.057693
  endloop
 endfacet
 facet normal -0.387654 -0.073017 0.918909
  outer loop
   vertex -225.978195 -333.790222 141.057693
   vertex -225.843277 -332.808594 141.192612
   vertex -226.676117 -333.655304 140.773987
  endloop
 endfacet
 facet normal -0.387654 -0.073017 0.918909
  outer loop
   vertex -226.676117 -333.655304 140.773987
   vertex -225.843277 -332.808594 141.192612
   vertex -226.541199 -332.673676 140.908905
  endloop
 endfacet
 facet normal -0.918909 0.073017 0.387654
  outer loop
   vertex -226.541199 -332.673676 140.908905
   vertex -226.959824 -333.520386 140.076065
   vertex -226.676117 -333.655304 140.773987
  endloop
 endfacet
 facet normal -0.918909 0.073017 0.387654
  outer loop
   vertex -226.824905 -332.538757 140.210983
   vertex -226.959824 -333.520386 140.076065
   vertex -226.541199 -332.673676 140.908905
  endloop
 endfacet
endsolid