solid stl file generated from DOUG
 facet normal -0.194360 -0.198224 0.960693
  outer loop
   vertex -201.627258 -333.248016 274.721252
   vertex -201.621902 -333.381500 274.694794
   vertex -183.183609 -333.381500 278.425079
  endloop
 endfacet
 facet normal -0.083804 -0.906305 0.414233
  outer loop
   vertex -183.183609 -333.381500 278.425079
   vertex -201.621902 -333.381500 274.694794
   vertex -183.165146 -333.424927 278.333801
  endloop
 endfacet
 facet normal 0.094865 -0.878139 -0.468906
  outer loop
   vertex -183.387451 -332.781158 279.432678
   vertex -183.411179 -332.846313 279.549896
   vertex -201.849472 -332.846313 275.819641
  endloop
 endfacet
 facet normal -0.083852 -0.906191 0.414472
  outer loop
   vertex -201.849472 -332.846313 275.819641
   vertex -183.411179 -332.846313 279.549896
   vertex -183.429642 -332.802856 279.641174
  endloop
 endfacet
 facet normal -0.083802 -0.906305 0.414233
  outer loop
   vertex -183.429642 -332.802856 279.641174
   vertex -201.867935 -332.802887 275.910919
   vertex -201.849472 -332.846313 275.819641
  endloop
 endfacet
 facet normal -0.142698 -0.694364 0.705334
  outer loop
   vertex -183.368225 -332.138794 279.337646
   vertex -201.806519 -332.138794 275.607361
   vertex -183.363602 -332.163025 279.314728
  endloop
 endfacet
 facet normal -0.142698 -0.694364 0.705334
  outer loop
   vertex -183.363602 -332.163025 279.314728
   vertex -201.806519 -332.138794 275.607361
   vertex -201.801895 -332.163025 275.584442
  endloop
 endfacet
 facet normal -0.179711 0.422669 0.888288
  outer loop
   vertex -201.801895 -332.163025 275.584442
   vertex -201.850098 -332.684296 275.822723
   vertex -183.363602 -332.163025 279.314728
  endloop
 endfacet
 facet normal -0.194367 -0.197992 0.960740
  outer loop
   vertex -183.183609 -333.381500 278.425079
   vertex -183.188950 -333.248016 278.451508
   vertex -201.627258 -333.248016 274.721252
  endloop
 endfacet
 facet normal -0.083811 -0.906287 0.414271
  outer loop
   vertex -201.627258 -333.248016 274.721252
   vertex -183.188950 -333.248016 278.451508
   vertex -183.387451 -332.781158 279.432678
  endloop
 endfacet
 facet normal -0.083814 -0.906281 0.414282
  outer loop
   vertex -183.387451 -332.781158 279.432678
   vertex -201.825745 -332.781158 275.702393
   vertex -201.627258 -333.248016 274.721252
  endloop
 endfacet
 facet normal 0.094847 -0.878189 -0.468816
  outer loop
   vertex -201.849472 -332.846313 275.819641
   vertex -201.825745 -332.781158 275.702393
   vertex -183.387451 -332.781158 279.432678
  endloop
 endfacet
 facet normal -0.179703 0.422753 0.888249
  outer loop
   vertex -201.867935 -332.802887 275.910919
   vertex -183.429642 -332.802856 279.641174
   vertex -201.856750 -332.681946 275.855621
  endloop
 endfacet
 facet normal -0.179712 0.422656 0.888293
  outer loop
   vertex -201.856750 -332.681946 275.855621
   vertex -183.429642 -332.802856 279.641174
   vertex -183.418457 -332.681946 279.585907
  endloop
 endfacet
 facet normal 0.013849 0.997558 -0.068454
  outer loop
   vertex -183.418457 -332.681946 279.585907
   vertex -201.850098 -332.684296 275.822723
   vertex -201.856750 -332.681946 275.855621
  endloop
 endfacet
 facet normal 0.013837 0.997563 -0.068393
  outer loop
   vertex -183.411804 -332.684296 279.552979
   vertex -201.850098 -332.684296 275.822723
   vertex -183.418457 -332.681946 279.585907
  endloop
 endfacet
 facet normal -0.179714 0.422626 0.888308
  outer loop
   vertex -183.363602 -332.163025 279.314728
   vertex -201.850098 -332.684296 275.822723
   vertex -183.411804 -332.684296 279.552979
  endloop
 endfacet
 facet normal 0.980141 -0.000008 0.198304
  outer loop
   vertex -182.696609 -333.449066 278.420898
   vertex -182.896790 -332.050873 279.410370
   vertex -182.967239 -332.812622 279.758545
  endloop
 endfacet
 facet normal -0.179723 0.422639 0.888299
  outer loop
   vertex -182.967239 -332.812622 279.758545
   vertex -182.896790 -332.050873 279.410370
   vertex -183.947372 -332.812622 279.560242
  endloop
 endfacet
 facet normal -0.083813 -0.906294 0.414253
  outer loop
   vertex -183.947372 -332.812622 279.560242
   vertex -183.676758 -333.449066 278.222595
   vertex -182.967239 -332.812622 279.758545
  endloop
 endfacet
 facet normal -0.980144 -0.000004 -0.198288
  outer loop
   vertex -183.876938 -332.050873 279.212067
   vertex -183.676758 -333.449066 278.222595
   vertex -183.947372 -332.812622 279.560242
  endloop
 endfacet
 facet normal -0.980141 0.000008 -0.198304
  outer loop
   vertex -183.606308 -332.687347 277.874420
   vertex -183.676758 -333.449066 278.222595
   vertex -183.876938 -332.050873 279.212067
  endloop
 endfacet
 facet normal 0.083815 0.906287 -0.414269
  outer loop
   vertex -183.876938 -332.050873 279.212067
   vertex -182.896790 -332.050873 279.410370
   vertex -183.606308 -332.687347 277.874420
  endloop
 endfacet
 facet normal 0.083816 0.906287 -0.414270
  outer loop
   vertex -183.606308 -332.687347 277.874420
   vertex -182.896790 -332.050873 279.410370
   vertex -182.626175 -332.687347 278.072723
  endloop
 endfacet
 facet normal 0.980144 0.000004 0.198288
  outer loop
   vertex -182.626175 -332.687347 278.072723
   vertex -182.896790 -332.050873 279.410370
   vertex -182.696609 -333.449066 278.420898
  endloop
 endfacet
 facet normal 0.179719 -0.422650 -0.888295
  outer loop
   vertex -182.696609 -333.449066 278.420898
   vertex -183.676758 -333.449066 278.222595
   vertex -182.626175 -332.687347 278.072723
  endloop
 endfacet
 facet normal -0.083811 -0.906295 0.414253
  outer loop
   vertex -182.967239 -332.812622 279.758545
   vertex -183.676758 -333.449066 278.222595
   vertex -182.696609 -333.449066 278.420898
  endloop
 endfacet
 facet normal 0.980144 0.000004 0.198288
  outer loop
   vertex -201.359451 -332.812622 276.037598
   vertex -201.088837 -333.449097 274.699951
   vertex -201.289017 -332.050873 275.689423
  endloop
 endfacet
 facet normal 0.980142 -0.000003 0.198297
  outer loop
   vertex -201.289017 -332.050873 275.689423
   vertex -201.088837 -333.449097 274.699951
   vertex -201.018387 -332.687347 274.351746
  endloop
 endfacet
 facet normal 0.083801 0.906291 -0.414264
  outer loop
   vertex -201.018387 -332.687347 274.351746
   vertex -201.998535 -332.687347 274.153473
   vertex -201.289017 -332.050873 275.689423
  endloop
 endfacet
 facet normal 0.179691 -0.422668 -0.888292
  outer loop
   vertex -201.088837 -333.449097 274.699951
   vertex -201.998535 -332.687347 274.153473
   vertex -201.018387 -332.687347 274.351746
  endloop
 endfacet
 facet normal 0.179723 -0.422636 -0.888301
  outer loop
   vertex -202.068970 -333.449097 274.501648
   vertex -201.998535 -332.687347 274.153473
   vertex -201.088837 -333.449097 274.699951
  endloop
 endfacet
 facet normal -0.083816 -0.906287 0.414269
  outer loop
   vertex -201.088837 -333.449097 274.699951
   vertex -202.339600 -332.812622 275.839294
   vertex -202.068970 -333.449097 274.501648
  endloop
 endfacet
 facet normal -0.980142 -0.000008 -0.198297
  outer loop
   vertex -202.068970 -333.449097 274.501648
   vertex -202.339600 -332.812622 275.839294
   vertex -201.998535 -332.687347 274.153473
  endloop
 endfacet
 facet normal -0.980142 0.000012 -0.198295
  outer loop
   vertex -201.998535 -332.687347 274.153473
   vertex -202.339600 -332.812622 275.839294
   vertex -202.269150 -332.050873 275.491119
  endloop
 endfacet
 facet normal 0.083816 0.906287 -0.414270
  outer loop
   vertex -202.269150 -332.050873 275.491119
   vertex -201.289017 -332.050873 275.689423
   vertex -201.998535 -332.687347 274.153473
  endloop
 endfacet
 facet normal -0.179723 0.422639 0.888299
  outer loop
   vertex -202.339600 -332.812622 275.839294
   vertex -201.289017 -332.050873 275.689423
   vertex -202.269150 -332.050873 275.491119
  endloop
 endfacet
 facet normal -0.179721 0.422636 0.888301
  outer loop
   vertex -201.359451 -332.812622 276.037598
   vertex -201.289017 -332.050873 275.689423
   vertex -202.339600 -332.812622 275.839294
  endloop
 endfacet
 facet normal -0.083815 -0.906287 0.414270
  outer loop
   vertex -202.339600 -332.812622 275.839294
   vertex -201.088837 -333.449097 274.699951
   vertex -201.359451 -332.812622 276.037598
  endloop
 endfacet
 facet normal -0.083804 -0.906305 0.414233
  outer loop
   vertex -201.621902 -333.381500 274.694794
   vertex -201.603439 -333.424927 274.603516
   vertex -183.165146 -333.424927 278.333801
  endloop
 endfacet
 facet normal 0.179712 -0.422656 -0.888293
  outer loop
   vertex -183.165146 -333.424927 278.333801
   vertex -201.603439 -333.424927 274.603516
   vertex -201.592255 -333.304016 274.548248
  endloop
 endfacet
 facet normal 0.179712 -0.422656 -0.888293
  outer loop
   vertex -201.592255 -333.304016 274.548248
   vertex -183.153961 -333.304016 278.278534
   vertex -183.165146 -333.424927 278.333801
  endloop
 endfacet
 facet normal 0.142689 0.694410 -0.705290
  outer loop
   vertex -201.596893 -333.279785 274.571167
   vertex -183.153961 -333.304016 278.278534
   vertex -201.592255 -333.304016 274.548248
  endloop
 endfacet
 facet normal 0.142776 0.693950 -0.705726
  outer loop
   vertex -183.158600 -333.279785 278.301422
   vertex -183.153961 -333.304016 278.278534
   vertex -201.596893 -333.279785 274.571167
  endloop
 endfacet
 facet normal 0.179714 -0.422626 -0.888308
  outer loop
   vertex -201.596893 -333.279785 274.571167
   vertex -201.548691 -332.758514 274.332916
   vertex -183.158600 -333.279785 278.301422
  endloop
 endfacet
 facet normal 0.179714 -0.422626 -0.888308
  outer loop
   vertex -183.158600 -333.279785 278.301422
   vertex -201.548691 -332.758514 274.332916
   vertex -183.110397 -332.758514 278.063171
  endloop
 endfacet
 facet normal -0.013835 -0.997563 0.068387
  outer loop
   vertex -183.110397 -332.758514 278.063171
   vertex -201.548691 -332.758514 274.332916
   vertex -201.542023 -332.760864 274.299988
  endloop
 endfacet
 facet normal -0.013835 -0.997563 0.068387
  outer loop
   vertex -201.542023 -332.760864 274.299988
   vertex -183.103729 -332.760864 278.030243
   vertex -183.110397 -332.758514 278.063171
  endloop
 endfacet
 facet normal 0.179701 -0.422761 -0.888246
  outer loop
   vertex -201.536484 -332.700867 274.272552
   vertex -183.103729 -332.760864 278.030243
   vertex -201.542023 -332.760864 274.299988
  endloop
 endfacet
 facet normal 0.179737 -0.422390 -0.888415
  outer loop
   vertex -183.098190 -332.700867 278.002838
   vertex -183.103729 -332.760864 278.030243
   vertex -201.536484 -332.700867 274.272552
  endloop
 endfacet
 facet normal 0.083807 0.906298 -0.414246
  outer loop
   vertex -201.536484 -332.700867 274.272552
   vertex -201.800980 -332.078827 275.579956
   vertex -183.098190 -332.700867 278.002838
  endloop
 endfacet
 facet normal 0.083810 0.906287 -0.414271
  outer loop
   vertex -183.098190 -332.700867 278.002838
   vertex -201.800980 -332.078827 275.579956
   vertex -183.362686 -332.078796 279.310211
  endloop
 endfacet
 facet normal -0.179702 0.422761 0.888246
  outer loop
   vertex -183.362686 -332.078796 279.310211
   vertex -201.800980 -332.078827 275.579956
   vertex -183.368225 -332.138794 279.337646
  endloop
 endfacet
 facet normal -0.179721 0.422636 0.888301
  outer loop
   vertex -183.876938 -332.050873 279.212067
   vertex -183.947372 -332.812622 279.560242
   vertex -182.896790 -332.050873 279.410370
  endloop
 endfacet
 facet normal 0.179722 -0.422653 -0.888293
  outer loop
   vertex -183.676758 -333.449066 278.222595
   vertex -183.606308 -332.687347 277.874420
   vertex -182.626175 -332.687347 278.072723
  endloop
 endfacet
 facet normal -0.179721 0.422567 0.888334
  outer loop
   vertex -201.800980 -332.078827 275.579956
   vertex -201.806519 -332.138794 275.607361
   vertex -183.368225 -332.138794 279.337646
  endloop
 endfacet
 facet normal -0.735523 -0.649115 -0.194053
  outer loop
   vertex -201.797806 -331.516724 274.484711
   vertex -202.449112 -330.610413 273.921722
   vertex -201.694275 -331.591431 274.342194
  endloop
 endfacet
 facet normal -0.735518 -0.649116 -0.194064
  outer loop
   vertex -201.694275 -331.591431 274.342194
   vertex -202.449112 -330.610413 273.921722
   vertex -202.034958 -330.909271 273.351685
  endloop
 endfacet
 facet normal -0.219567 -0.837128 -0.501007
  outer loop
   vertex -202.034958 -330.909271 273.351685
   vertex -201.507843 -331.622375 274.312195
   vertex -201.694275 -331.591431 274.342194
  endloop
 endfacet
 facet normal -0.219584 -0.837128 -0.500998
  outer loop
   vertex -201.289246 -331.033081 273.231720
   vertex -201.507843 -331.622375 274.312195
   vertex -202.034958 -330.909271 273.351685
  endloop
 endfacet
 facet normal 0.397022 -0.837141 -0.376255
  outer loop
   vertex -201.347733 -331.591431 274.412292
   vertex -201.507843 -331.622375 274.312195
   vertex -201.289246 -331.033081 273.231720
  endloop
 endfacet
 facet normal 0.397063 -0.837126 -0.376246
  outer loop
   vertex -201.289246 -331.033081 273.231720
   vertex -200.648819 -330.909271 273.632111
   vertex -201.347733 -331.591431 274.412292
  endloop
 endfacet
 facet normal 0.753109 -0.649120 0.107097
  outer loop
   vertex -201.347733 -331.591431 274.412292
   vertex -200.648819 -330.909271 273.632111
   vertex -201.307739 -331.516724 274.583862
  endloop
 endfacet
 facet normal 0.753113 -0.649115 0.107103
  outer loop
   vertex -201.307739 -331.516724 274.583862
   vertex -200.648819 -330.909271 273.632111
   vertex -200.488815 -330.610413 274.318298
  endloop
 endfacet
 facet normal 0.640017 -0.383154 0.666011
  outer loop
   vertex -200.488815 -330.610413 274.318298
   vertex -201.411270 -331.441986 274.726349
   vertex -201.307739 -331.516724 274.583862
  endloop
 endfacet
 facet normal 0.640059 -0.383246 0.665919
  outer loop
   vertex -200.902969 -330.311554 274.888367
   vertex -201.411270 -331.441986 274.726349
   vertex -200.488815 -330.610413 274.318298
  endloop
 endfacet
 facet normal 0.124135 -0.195252 0.972865
  outer loop
   vertex -201.597702 -331.411041 274.756348
   vertex -201.411270 -331.441986 274.726349
   vertex -200.902969 -330.311554 274.888367
  endloop
 endfacet
 facet normal 0.124067 -0.195212 0.972882
  outer loop
   vertex -200.902969 -330.311554 274.888367
   vertex -201.648682 -330.187775 275.008301
   vertex -201.597702 -331.411041 274.756348
  endloop
 endfacet
 facet normal -0.492506 -0.195213 0.848133
  outer loop
   vertex -201.597702 -331.411041 274.756348
   vertex -201.648682 -330.187775 275.008301
   vertex -201.757812 -331.441986 274.656250
  endloop
 endfacet
 facet normal -0.492515 -0.195211 0.848128
  outer loop
   vertex -201.757812 -331.441986 274.656250
   vertex -201.648682 -330.187775 275.008301
   vertex -202.289108 -330.311554 274.607910
  endloop
 endfacet
 facet normal -0.848565 -0.383220 0.364802
  outer loop
   vertex -202.289108 -330.311554 274.607910
   vertex -201.797806 -331.516724 274.484711
   vertex -201.757812 -331.441986 274.656250
  endloop
 endfacet
 facet normal -0.848575 -0.383222 0.364775
  outer loop
   vertex -202.449112 -330.610413 273.921722
   vertex -201.797806 -331.516724 274.484711
   vertex -202.289108 -330.311554 274.607910
  endloop
 endfacet
 facet normal -0.836749 -0.161751 -0.523153
  outer loop
   vertex -183.512909 -332.413910 278.610840
   vertex -183.429092 -331.507599 278.196564
   vertex -183.409363 -332.488617 278.468323
  endloop
 endfacet
 facet normal -0.836800 -0.161730 -0.523076
  outer loop
   vertex -183.409363 -332.488617 278.468323
   vertex -183.429092 -331.507599 278.196564
   vertex -183.325562 -331.582336 278.054047
  endloop
 endfacet
 facet normal -0.209096 -0.390492 -0.896546
  outer loop
   vertex -183.325562 -331.582336 278.054047
   vertex -183.222946 -332.519562 278.438324
   vertex -183.409363 -332.488617 278.468323
  endloop
 endfacet
 facet normal -0.208938 -0.390490 -0.896584
  outer loop
   vertex -183.139130 -331.613281 278.024078
   vertex -183.222946 -332.519562 278.438324
   vertex -183.325562 -331.582336 278.054047
  endloop
 endfacet
 facet normal 0.541104 -0.390480 -0.744803
  outer loop
   vertex -183.062836 -332.488617 278.538422
   vertex -183.222946 -332.519562 278.438324
   vertex -183.139130 -331.613281 278.024078
  endloop
 endfacet
 facet normal 0.541104 -0.390480 -0.744803
  outer loop
   vertex -183.139130 -331.613281 278.024078
   vertex -182.979019 -331.582336 278.124176
   vertex -183.062836 -332.488617 278.538422
  endloop
 endfacet
 facet normal 0.974294 -0.161770 -0.156785
  outer loop
   vertex -183.062836 -332.488617 278.538422
   vertex -182.979019 -331.582336 278.124176
   vertex -183.022827 -332.413910 278.709961
  endloop
 endfacet
 facet normal 0.974317 -0.161712 -0.156700
  outer loop
   vertex -183.022827 -332.413910 278.709961
   vertex -182.979019 -331.582336 278.124176
   vertex -182.939026 -331.507599 278.295715
  endloop
 endfacet
 facet normal 0.836748 0.161748 0.523154
  outer loop
   vertex -182.939026 -331.507599 278.295715
   vertex -183.126373 -332.339203 278.852478
   vertex -183.022827 -332.413910 278.709961
  endloop
 endfacet
 facet normal 0.836783 0.161710 0.523110
  outer loop
   vertex -183.042557 -331.432892 278.438232
   vertex -183.126373 -332.339203 278.852478
   vertex -182.939026 -331.507599 278.295715
  endloop
 endfacet
 facet normal 0.209153 0.390443 0.896554
  outer loop
   vertex -183.312790 -332.308228 278.882477
   vertex -183.126373 -332.339203 278.852478
   vertex -183.042557 -331.432892 278.438232
  endloop
 endfacet
 facet normal 0.209078 0.390470 0.896560
  outer loop
   vertex -183.042557 -331.432892 278.438232
   vertex -183.228989 -331.401947 278.468231
   vertex -183.312790 -332.308228 278.882477
  endloop
 endfacet
 facet normal -0.541157 0.390463 0.744774
  outer loop
   vertex -183.312790 -332.308228 278.882477
   vertex -183.228989 -331.401947 278.468231
   vertex -183.472900 -332.339203 278.782379
  endloop
 endfacet
 facet normal -0.541106 0.390462 0.744811
  outer loop
   vertex -183.472900 -332.339203 278.782379
   vertex -183.228989 -331.401947 278.468231
   vertex -183.389099 -331.432892 278.368134
  endloop
 endfacet
 facet normal -0.974296 0.161752 0.156793
  outer loop
   vertex -183.389099 -331.432892 278.368134
   vertex -183.512909 -332.413910 278.610840
   vertex -183.472900 -332.339203 278.782379
  endloop
 endfacet
 facet normal -0.974316 0.161730 0.156693
  outer loop
   vertex -183.429092 -331.507599 278.196564
   vertex -183.512909 -332.413910 278.610840
   vertex -183.389099 -331.432892 278.368134
  endloop
 endfacet
 facet normal -0.836759 -0.161748 -0.523136
  outer loop
   vertex -184.081238 -330.610413 277.637756
   vertex -183.997421 -329.704132 277.223480
   vertex -183.667084 -330.909271 277.067719
  endloop
 endfacet
 facet normal -0.836759 -0.161748 -0.523136
  outer loop
   vertex -183.667084 -330.909271 277.067719
   vertex -183.997421 -329.704132 277.223480
   vertex -183.583267 -330.002991 276.653442
  endloop
 endfacet
 facet normal -0.209068 -0.390494 -0.896552
  outer loop
   vertex -183.583267 -330.002991 276.653442
   vertex -182.921387 -331.033081 276.947754
   vertex -183.667084 -330.909271 277.067719
  endloop
 endfacet
 facet normal -0.209052 -0.390485 -0.896559
  outer loop
   vertex -182.837570 -330.126770 276.533478
   vertex -182.921387 -331.033081 276.947754
   vertex -183.583267 -330.002991 276.653442
  endloop
 endfacet
 facet normal 0.541116 -0.390488 -0.744790
  outer loop
   vertex -182.280945 -330.909271 277.348145
   vertex -182.921387 -331.033081 276.947754
   vertex -182.837570 -330.126770 276.533478
  endloop
 endfacet
 facet normal 0.541112 -0.390492 -0.744791
  outer loop
   vertex -182.837570 -330.126770 276.533478
   vertex -182.197144 -330.002991 276.933868
   vertex -182.280945 -330.909271 277.348145
  endloop
 endfacet
 facet normal 0.974310 -0.161733 -0.156725
  outer loop
   vertex -182.280945 -330.909271 277.348145
   vertex -182.197144 -330.002991 276.933868
   vertex -182.120956 -330.610413 278.034332
  endloop
 endfacet
 facet normal 0.974306 -0.161748 -0.156733
  outer loop
   vertex -182.120956 -330.610413 278.034332
   vertex -182.197144 -330.002991 276.933868
   vertex -182.037140 -329.704132 277.620087
  endloop
 endfacet
 facet normal 0.836767 0.161727 0.523131
  outer loop
   vertex -182.037140 -329.704132 277.620087
   vertex -182.535095 -330.311554 278.604370
   vertex -182.120956 -330.610413 278.034332
  endloop
 endfacet
 facet normal 0.836759 0.161745 0.523138
  outer loop
   vertex -182.451294 -329.405273 278.190125
   vertex -182.535095 -330.311554 278.604370
   vertex -182.037140 -329.704132 277.620087
  endloop
 endfacet
 facet normal 0.209047 0.390475 0.896565
  outer loop
   vertex -183.280807 -330.187775 278.724335
   vertex -182.535095 -330.311554 278.604370
   vertex -182.451294 -329.405273 278.190125
  endloop
 endfacet
 facet normal 0.209065 0.390458 0.896568
  outer loop
   vertex -182.451294 -329.405273 278.190125
   vertex -183.196991 -329.281464 278.310089
   vertex -183.280807 -330.187775 278.724335
  endloop
 endfacet
 facet normal -0.541114 0.390468 0.744802
  outer loop
   vertex -183.280807 -330.187775 278.724335
   vertex -183.196991 -329.281464 278.310089
   vertex -183.921234 -330.311554 278.323944
  endloop
 endfacet
 facet normal -0.541126 0.390476 0.744789
  outer loop
   vertex -183.921234 -330.311554 278.323944
   vertex -183.196991 -329.281464 278.310089
   vertex -183.837418 -329.405273 277.909698
  endloop
 endfacet
 facet normal -0.974305 0.161750 0.156738
  outer loop
   vertex -183.837418 -329.405273 277.909698
   vertex -184.081238 -330.610413 277.637756
   vertex -183.921234 -330.311554 278.323944
  endloop
 endfacet
 facet normal -0.974306 0.161752 0.156731
  outer loop
   vertex -183.997421 -329.704132 277.223480
   vertex -184.081238 -330.610413 277.637756
   vertex -183.837418 -329.405273 277.909698
  endloop
 endfacet
 facet normal -0.735511 -0.649119 -0.194084
  outer loop
   vertex -183.429932 -331.516724 278.200714
   vertex -184.081238 -330.610413 277.637756
   vertex -183.326401 -331.591431 278.058228
  endloop
 endfacet
 facet normal -0.735518 -0.649116 -0.194064
  outer loop
   vertex -183.326401 -331.591431 278.058228
   vertex -184.081238 -330.610413 277.637756
   vertex -183.667084 -330.909271 277.067719
  endloop
 endfacet
 facet normal -0.219567 -0.837128 -0.501007
  outer loop
   vertex -183.667084 -330.909271 277.067719
   vertex -183.139969 -331.622375 278.028229
   vertex -183.326401 -331.591431 278.058228
  endloop
 endfacet
 facet normal -0.219588 -0.837129 -0.500996
  outer loop
   vertex -182.921387 -331.033081 276.947754
   vertex -183.139969 -331.622375 278.028229
   vertex -183.667084 -330.909271 277.067719
  endloop
 endfacet
 facet normal 0.397024 -0.837138 -0.376259
  outer loop
   vertex -182.979858 -331.591431 278.128326
   vertex -183.139969 -331.622375 278.028229
   vertex -182.921387 -331.033081 276.947754
  endloop
 endfacet
 facet normal 0.397057 -0.837126 -0.376252
  outer loop
   vertex -182.921387 -331.033081 276.947754
   vertex -182.280945 -330.909271 277.348145
   vertex -182.979858 -331.591431 278.128326
  endloop
 endfacet
 facet normal 0.753115 -0.649111 0.107110
  outer loop
   vertex -182.979858 -331.591431 278.128326
   vertex -182.280945 -330.909271 277.348145
   vertex -182.939865 -331.516724 278.299866
  endloop
 endfacet
 facet normal 0.753118 -0.649107 0.107115
  outer loop
   vertex -182.939865 -331.516724 278.299866
   vertex -182.280945 -330.909271 277.348145
   vertex -182.120956 -330.610413 278.034332
  endloop
 endfacet
 facet normal 0.640056 -0.383224 0.665933
  outer loop
   vertex -182.120956 -330.610413 278.034332
   vertex -183.043396 -331.441986 278.442383
   vertex -182.939865 -331.516724 278.299866
  endloop
 endfacet
 facet normal 0.640059 -0.383229 0.665928
  outer loop
   vertex -182.535095 -330.311554 278.604370
   vertex -183.043396 -331.441986 278.442383
   vertex -182.120956 -330.610413 278.034332
  endloop
 endfacet
 facet normal 0.124140 -0.195229 0.972870
  outer loop
   vertex -183.229828 -331.411041 278.472382
   vertex -183.043396 -331.441986 278.442383
   vertex -182.535095 -330.311554 278.604370
  endloop
 endfacet
 facet normal 0.124107 -0.195209 0.972878
  outer loop
   vertex -182.535095 -330.311554 278.604370
   vertex -183.280807 -330.187775 278.724335
   vertex -183.229828 -331.411041 278.472382
  endloop
 endfacet
 facet normal -0.492506 -0.195213 0.848133
  outer loop
   vertex -183.229828 -331.411041 278.472382
   vertex -183.280807 -330.187775 278.724335
   vertex -183.389938 -331.441986 278.372284
  endloop
 endfacet
 facet normal -0.492515 -0.195211 0.848128
  outer loop
   vertex -183.389938 -331.441986 278.372284
   vertex -183.280807 -330.187775 278.724335
   vertex -183.921234 -330.311554 278.323944
  endloop
 endfacet
 facet normal -0.848584 -0.383231 0.364746
  outer loop
   vertex -183.921234 -330.311554 278.323944
   vertex -183.429932 -331.516724 278.200714
   vertex -183.389938 -331.441986 278.372284
  endloop
 endfacet
 facet normal -0.848571 -0.383229 0.364778
  outer loop
   vertex -184.081238 -330.610413 277.637756
   vertex -183.429932 -331.516724 278.200714
   vertex -183.921234 -330.311554 278.323944
  endloop
 endfacet
 facet normal -0.836747 -0.161736 -0.523159
  outer loop
   vertex -201.880783 -332.413910 274.894806
   vertex -201.796967 -331.507599 274.480560
   vertex -201.777237 -332.488617 274.752289
  endloop
 endfacet
 facet normal -0.836799 -0.161716 -0.523083
  outer loop
   vertex -201.777237 -332.488617 274.752289
   vertex -201.796967 -331.507599 274.480560
   vertex -201.693436 -331.582336 274.338043
  endloop
 endfacet
 facet normal -0.209094 -0.390467 -0.896557
  outer loop
   vertex -201.693436 -331.582336 274.338043
   vertex -201.590820 -332.519562 274.722290
   vertex -201.777237 -332.488617 274.752289
  endloop
 endfacet
 facet normal -0.209077 -0.390467 -0.896561
  outer loop
   vertex -201.507004 -331.613281 274.308044
   vertex -201.590820 -332.519562 274.722290
   vertex -201.693436 -331.582336 274.338043
  endloop
 endfacet
 facet normal 0.541104 -0.390480 -0.744803
  outer loop
   vertex -201.430710 -332.488617 274.822388
   vertex -201.590820 -332.519562 274.722290
   vertex -201.507004 -331.613281 274.308044
  endloop
 endfacet
 facet normal 0.541104 -0.390480 -0.744803
  outer loop
   vertex -201.507004 -331.613281 274.308044
   vertex -201.346893 -331.582336 274.408142
   vertex -201.430710 -332.488617 274.822388
  endloop
 endfacet
 facet normal 0.974299 -0.161761 -0.156762
  outer loop
   vertex -201.430710 -332.488617 274.822388
   vertex -201.346893 -331.582336 274.408142
   vertex -201.390701 -332.413910 274.993958
  endloop
 endfacet
 facet normal 0.974317 -0.161716 -0.156698
  outer loop
   vertex -201.390701 -332.413910 274.993958
   vertex -201.346893 -331.582336 274.408142
   vertex -201.306900 -331.507599 274.579681
  endloop
 endfacet
 facet normal 0.836750 0.161762 0.523147
  outer loop
   vertex -201.306900 -331.507599 274.579681
   vertex -201.494247 -332.339203 275.136475
   vertex -201.390701 -332.413910 274.993958
  endloop
 endfacet
 facet normal 0.836785 0.161724 0.523103
  outer loop
   vertex -201.410431 -331.432892 274.722198
   vertex -201.494247 -332.339203 275.136475
   vertex -201.306900 -331.507599 274.579681
  endloop
 endfacet
 facet normal 0.209016 0.390491 0.896565
  outer loop
   vertex -201.680664 -332.308228 275.166443
   vertex -201.494247 -332.339203 275.136475
   vertex -201.410431 -331.432892 274.722198
  endloop
 endfacet
 facet normal 0.209078 0.390470 0.896560
  outer loop
   vertex -201.410431 -331.432892 274.722198
   vertex -201.596863 -331.401947 274.752197
   vertex -201.680664 -332.308228 275.166443
  endloop
 endfacet
 facet normal -0.541157 0.390463 0.744774
  outer loop
   vertex -201.680664 -332.308228 275.166443
   vertex -201.596863 -331.401947 274.752197
   vertex -201.840775 -332.339203 275.066345
  endloop
 endfacet
 facet normal -0.541106 0.390462 0.744811
  outer loop
   vertex -201.840775 -332.339203 275.066345
   vertex -201.596863 -331.401947 274.752197
   vertex -201.756973 -331.432892 274.652100
  endloop
 endfacet
 facet normal -0.974296 0.161752 0.156793
  outer loop
   vertex -201.756973 -331.432892 274.652100
   vertex -201.880783 -332.413910 274.894806
   vertex -201.840775 -332.339203 275.066345
  endloop
 endfacet
 facet normal -0.974311 0.161735 0.156717
  outer loop
   vertex -201.796967 -331.507599 274.480560
   vertex -201.880783 -332.413910 274.894806
   vertex -201.756973 -331.432892 274.652100
  endloop
 endfacet
 facet normal -0.974305 0.161750 0.156738
  outer loop
   vertex -202.289108 -330.311554 274.607910
   vertex -202.205292 -329.405273 274.193665
   vertex -202.449112 -330.610413 273.921722
  endloop
 endfacet
 facet normal -0.974305 0.161750 0.156738
  outer loop
   vertex -202.449112 -330.610413 273.921722
   vertex -202.205292 -329.405273 274.193665
   vertex -202.365295 -329.704132 273.507477
  endloop
 endfacet
 facet normal -0.836758 -0.161733 -0.523143
  outer loop
   vertex -202.365295 -329.704132 273.507477
   vertex -202.034958 -330.909271 273.351685
   vertex -202.449112 -330.610413 273.921722
  endloop
 endfacet
 facet normal -0.836758 -0.161733 -0.523143
  outer loop
   vertex -201.951141 -330.002991 272.937439
   vertex -202.034958 -330.909271 273.351685
   vertex -202.365295 -329.704132 273.507477
  endloop
 endfacet
 facet normal -0.209062 -0.390469 -0.896564
  outer loop
   vertex -201.289246 -331.033081 273.231720
   vertex -202.034958 -330.909271 273.351685
   vertex -201.951141 -330.002991 272.937439
  endloop
 endfacet
 facet normal -0.209050 -0.390463 -0.896569
  outer loop
   vertex -201.951141 -330.002991 272.937439
   vertex -201.205444 -330.126770 272.817474
   vertex -201.289246 -331.033081 273.231720
  endloop
 endfacet
 facet normal 0.541128 -0.390458 -0.744798
  outer loop
   vertex -201.289246 -331.033081 273.231720
   vertex -201.205444 -330.126770 272.817474
   vertex -200.648819 -330.909271 273.632111
  endloop
 endfacet
 facet normal 0.541114 -0.390471 -0.744801
  outer loop
   vertex -200.648819 -330.909271 273.632111
   vertex -201.205444 -330.126770 272.817474
   vertex -200.565018 -330.002991 273.217865
  endloop
 endfacet
 facet normal 0.974306 -0.161737 -0.156744
  outer loop
   vertex -200.565018 -330.002991 273.217865
   vertex -200.488815 -330.610413 274.318298
   vertex -200.648819 -330.909271 273.632111
  endloop
 endfacet
 facet normal 0.974306 -0.161737 -0.156744
  outer loop
   vertex -200.405014 -329.704132 273.904053
   vertex -200.488815 -330.610413 274.318298
   vertex -200.565018 -330.002991 273.217865
  endloop
 endfacet
 facet normal 0.836770 0.161737 0.523122
  outer loop
   vertex -200.902969 -330.311554 274.888367
   vertex -200.488815 -330.610413 274.318298
   vertex -200.405014 -329.704132 273.904053
  endloop
 endfacet
 facet normal 0.836760 0.161759 0.523131
  outer loop
   vertex -200.405014 -329.704132 273.904053
   vertex -200.819168 -329.405273 274.474091
   vertex -200.902969 -330.311554 274.888367
  endloop
 endfacet
 facet normal 0.209014 0.390505 0.896559
  outer loop
   vertex -200.902969 -330.311554 274.888367
   vertex -200.819168 -329.405273 274.474091
   vertex -201.648682 -330.187775 275.008301
  endloop
 endfacet
 facet normal 0.209065 0.390458 0.896568
  outer loop
   vertex -201.648682 -330.187775 275.008301
   vertex -200.819168 -329.405273 274.474091
   vertex -201.564865 -329.281464 274.594055
  endloop
 endfacet
 facet normal -0.541114 0.390468 0.744802
  outer loop
   vertex -201.564865 -329.281464 274.594055
   vertex -202.289108 -330.311554 274.607910
   vertex -201.648682 -330.187775 275.008301
  endloop
 endfacet
 facet normal -0.541126 0.390476 0.744789
  outer loop
   vertex -202.205292 -329.405273 274.193665
   vertex -202.289108 -330.311554 274.607910
   vertex -201.564865 -329.281464 274.594055
  endloop
 endfacet
endsolid