solid stl file generated from DOUG
 facet normal -0.542615 -0.198125 -0.816281
  outer loop
   vertex -215.613800 -333.247986 112.986809
   vertex -215.598862 -333.381470 113.009277
   vertex -231.265182 -333.381470 123.423317
  endloop
 endfacet
 facet normal -0.233945 -0.906318 -0.351934
  outer loop
   vertex -231.265182 -333.381470 123.423317
   vertex -215.598862 -333.381470 113.009277
   vertex -231.213623 -333.424896 123.500877
  endloop
 endfacet
 facet normal 0.264834 -0.878145 0.398402
  outer loop
   vertex -231.834290 -332.781189 122.567177
   vertex -231.900497 -332.846344 122.467575
   vertex -216.234177 -332.846344 112.053535
  endloop
 endfacet
 facet normal -0.233958 -0.906307 -0.351954
  outer loop
   vertex -216.234177 -332.846344 112.053535
   vertex -231.900497 -332.846344 122.467575
   vertex -231.952057 -332.802917 122.390022
  endloop
 endfacet
 facet normal -0.233945 -0.906318 -0.351934
  outer loop
   vertex -231.952057 -332.802917 122.390022
   vertex -216.285736 -332.802917 111.975975
   vertex -216.234177 -332.846344 112.053535
  endloop
 endfacet
 facet normal -0.398398 -0.694323 -0.599328
  outer loop
   vertex -231.780624 -332.138824 122.647896
   vertex -216.114319 -332.138824 112.233856
   vertex -231.767685 -332.163055 122.667366
  endloop
 endfacet
 facet normal -0.398398 -0.694323 -0.599328
  outer loop
   vertex -231.767685 -332.163055 122.667366
   vertex -216.114319 -332.138824 112.233856
   vertex -216.101379 -332.163055 112.253326
  endloop
 endfacet
 facet normal -0.501726 0.422604 -0.754769
  outer loop
   vertex -216.101379 -332.163055 112.253326
   vertex -216.235931 -332.684326 112.050903
   vertex -231.767685 -332.163055 122.667366
  endloop
 endfacet
 facet normal -0.542615 -0.198125 -0.816281
  outer loop
   vertex -231.265182 -333.381470 123.423317
   vertex -231.280121 -333.247986 123.400848
   vertex -215.613800 -333.247986 112.986809
  endloop
 endfacet
 facet normal -0.233956 -0.906309 -0.351950
  outer loop
   vertex -215.613800 -333.247986 112.986809
   vertex -231.280121 -333.247986 123.400848
   vertex -231.834290 -332.781189 122.567177
  endloop
 endfacet
 facet normal -0.233956 -0.906309 -0.351950
  outer loop
   vertex -231.834290 -332.781189 122.567177
   vertex -216.167969 -332.781189 112.153137
   vertex -215.613800 -333.247986 112.986809
  endloop
 endfacet
 facet normal 0.264834 -0.878145 0.398402
  outer loop
   vertex -216.234177 -332.846344 112.053535
   vertex -216.167969 -332.781189 112.153137
   vertex -231.834290 -332.781189 122.567177
  endloop
 endfacet
 facet normal -0.501723 0.422616 -0.754765
  outer loop
   vertex -216.285736 -332.802917 111.975975
   vertex -231.952057 -332.802917 122.390022
   vertex -216.254532 -332.682007 112.022934
  endloop
 endfacet
 facet normal -0.501720 0.422629 -0.754759
  outer loop
   vertex -216.254532 -332.682007 112.022934
   vertex -231.952057 -332.802917 122.390022
   vertex -231.920837 -332.682007 122.436974
  endloop
 endfacet
 facet normal 0.038134 0.997625 0.057367
  outer loop
   vertex -231.920837 -332.682007 122.436974
   vertex -216.235931 -332.684326 112.050903
   vertex -216.254532 -332.682007 112.022934
  endloop
 endfacet
 facet normal 0.038144 0.997623 0.057381
  outer loop
   vertex -231.902252 -332.684326 122.464943
   vertex -216.235931 -332.684326 112.050903
   vertex -231.920837 -332.682007 122.436974
  endloop
 endfacet
 facet normal -0.501723 0.422616 -0.754765
  outer loop
   vertex -231.767685 -332.163055 122.667366
   vertex -216.235931 -332.684326 112.050903
   vertex -231.902252 -332.684326 122.464943
  endloop
 endfacet
 facet normal -0.832788 -0.000002 0.553592
  outer loop
   vertex -231.606262 -333.449066 123.770935
   vertex -232.165161 -332.050903 122.930168
   vertex -232.361801 -332.812653 122.634354
  endloop
 endfacet
 facet normal -0.501720 0.422618 -0.754765
  outer loop
   vertex -232.361801 -332.812653 122.634354
   vertex -232.165161 -332.050903 122.930168
   vertex -231.529007 -332.812653 122.080765
  endloop
 endfacet
 facet normal -0.233957 -0.906307 -0.351955
  outer loop
   vertex -231.529007 -332.812653 122.080765
   vertex -230.773483 -333.449066 123.217346
   vertex -232.361801 -332.812653 122.634354
  endloop
 endfacet
 facet normal 0.832792 -0.000002 -0.553586
  outer loop
   vertex -231.332367 -332.050903 122.376579
   vertex -230.773483 -333.449066 123.217346
   vertex -231.529007 -332.812653 122.080765
  endloop
 endfacet
 facet normal 0.832790 -0.000005 -0.553590
  outer loop
   vertex -230.576843 -332.687317 123.513153
   vertex -230.773483 -333.449066 123.217346
   vertex -231.332367 -332.050903 122.376579
  endloop
 endfacet
 facet normal 0.233958 0.906306 0.351956
  outer loop
   vertex -231.332367 -332.050903 122.376579
   vertex -232.165161 -332.050903 122.930168
   vertex -230.576843 -332.687317 123.513153
  endloop
 endfacet
 facet normal 0.233958 0.906306 0.351956
  outer loop
   vertex -230.576843 -332.687317 123.513153
   vertex -232.165161 -332.050903 122.930168
   vertex -231.409637 -332.687317 124.066742
  endloop
 endfacet
 facet normal -0.832793 -0.000008 0.553584
  outer loop
   vertex -231.409637 -332.687317 124.066742
   vertex -232.165161 -332.050903 122.930168
   vertex -231.606262 -333.449066 123.770935
  endloop
 endfacet
 facet normal 0.501730 -0.422603 0.754767
  outer loop
   vertex -231.606262 -333.449066 123.770935
   vertex -230.773483 -333.449066 123.217346
   vertex -231.409637 -332.687317 124.066742
  endloop
 endfacet
 facet normal -0.233959 -0.906308 -0.351951
  outer loop
   vertex -232.361801 -332.812653 122.634354
   vertex -230.773483 -333.449066 123.217346
   vertex -231.606262 -333.449066 123.770935
  endloop
 endfacet
 facet normal -0.832792 0.000002 0.553586
  outer loop
   vertex -216.734634 -332.812653 112.246338
   vertex -215.979111 -333.449066 113.382919
   vertex -216.537994 -332.050903 112.542152
  endloop
 endfacet
 facet normal -0.832790 0.000005 0.553590
  outer loop
   vertex -216.537994 -332.050903 112.542152
   vertex -215.979111 -333.449066 113.382919
   vertex -215.782471 -332.687286 113.678726
  endloop
 endfacet
 facet normal 0.233949 0.906314 0.351942
  outer loop
   vertex -215.782471 -332.687286 113.678726
   vertex -214.949677 -332.687286 113.125137
   vertex -216.537994 -332.050903 112.542152
  endloop
 endfacet
 facet normal 0.501725 -0.422598 0.754773
  outer loop
   vertex -215.979111 -333.449066 113.382919
   vertex -214.949677 -332.687286 113.125137
   vertex -215.782471 -332.687286 113.678726
  endloop
 endfacet
 facet normal 0.501725 -0.422598 0.754773
  outer loop
   vertex -215.146317 -333.449066 112.829330
   vertex -214.949677 -332.687286 113.125137
   vertex -215.979111 -333.449066 113.382919
  endloop
 endfacet
 facet normal -0.233957 -0.906307 -0.351955
  outer loop
   vertex -215.979111 -333.449066 113.382919
   vertex -215.901840 -332.812653 111.692749
   vertex -215.146317 -333.449066 112.829330
  endloop
 endfacet
 facet normal 0.832791 -0.000007 -0.553588
  outer loop
   vertex -215.146317 -333.449066 112.829330
   vertex -215.901840 -332.812653 111.692749
   vertex -214.949677 -332.687286 113.125137
  endloop
 endfacet
 facet normal 0.832791 -0.000007 -0.553588
  outer loop
   vertex -214.949677 -332.687286 113.125137
   vertex -215.901840 -332.812653 111.692749
   vertex -215.705200 -332.050903 111.988556
  endloop
 endfacet
 facet normal 0.233950 0.906314 0.351940
  outer loop
   vertex -215.705200 -332.050903 111.988556
   vertex -216.537994 -332.050903 112.542152
   vertex -214.949677 -332.687286 113.125137
  endloop
 endfacet
 facet normal -0.501727 0.422612 -0.754765
  outer loop
   vertex -215.901840 -332.812653 111.692749
   vertex -216.537994 -332.050903 112.542152
   vertex -215.705200 -332.050903 111.988556
  endloop
 endfacet
 facet normal -0.501720 0.422618 -0.754765
  outer loop
   vertex -216.734634 -332.812653 112.246338
   vertex -216.537994 -332.050903 112.542152
   vertex -215.901840 -332.812653 111.692749
  endloop
 endfacet
 facet normal -0.233957 -0.906307 -0.351955
  outer loop
   vertex -215.901840 -332.812653 111.692749
   vertex -215.979111 -333.449066 113.382919
   vertex -216.734634 -332.812653 112.246338
  endloop
 endfacet
 facet normal -0.233945 -0.906318 -0.351934
  outer loop
   vertex -215.598862 -333.381470 113.009277
   vertex -215.547302 -333.424896 113.086838
   vertex -231.213623 -333.424896 123.500877
  endloop
 endfacet
 facet normal 0.501733 -0.422577 0.754780
  outer loop
   vertex -231.213623 -333.424896 123.500877
   vertex -215.547302 -333.424896 113.086838
   vertex -215.516098 -333.303986 113.133789
  endloop
 endfacet
 facet normal 0.501720 -0.422629 0.754759
  outer loop
   vertex -215.516098 -333.303986 113.133789
   vertex -231.182404 -333.303986 123.547829
   vertex -231.213623 -333.424896 123.500877
  endloop
 endfacet
 facet normal 0.398398 0.694323 0.599328
  outer loop
   vertex -215.529037 -333.279755 113.114319
   vertex -231.182404 -333.303986 123.547829
   vertex -215.516098 -333.303986 113.133789
  endloop
 endfacet
 facet normal 0.398451 0.694225 0.599407
  outer loop
   vertex -231.195343 -333.279755 123.528366
   vertex -231.182404 -333.303986 123.547829
   vertex -215.529037 -333.279755 113.114319
  endloop
 endfacet
 facet normal 0.501723 -0.422616 0.754764
  outer loop
   vertex -215.529037 -333.279755 113.114319
   vertex -215.394470 -332.758484 113.316742
   vertex -231.195343 -333.279755 123.528366
  endloop
 endfacet
 facet normal 0.501726 -0.422604 0.754769
  outer loop
   vertex -231.195343 -333.279755 123.528366
   vertex -215.394470 -332.758484 113.316742
   vertex -231.060791 -332.758484 123.730789
  endloop
 endfacet
 facet normal -0.038643 -0.997561 -0.058133
  outer loop
   vertex -231.060791 -332.758484 123.730789
   vertex -215.394470 -332.758484 113.316742
   vertex -215.375885 -332.760834 113.344711
  endloop
 endfacet
 facet normal -0.038650 -0.997560 -0.058144
  outer loop
   vertex -215.375885 -332.760834 113.344711
   vertex -231.042206 -332.760834 123.758751
   vertex -231.060791 -332.758484 123.730789
  endloop
 endfacet
 facet normal 0.501720 -0.422626 0.754761
  outer loop
   vertex -215.360397 -332.700836 113.368011
   vertex -231.042206 -332.760834 123.758751
   vertex -215.375885 -332.760834 113.344711
  endloop
 endfacet
 facet normal 0.501720 -0.422626 0.754761
  outer loop
   vertex -231.026718 -332.700836 123.782051
   vertex -231.042206 -332.760834 123.758751
   vertex -215.360397 -332.700836 113.368011
  endloop
 endfacet
 facet normal 0.233958 0.906307 0.351953
  outer loop
   vertex -215.360397 -332.700836 113.368011
   vertex -216.098831 -332.078827 112.257156
   vertex -231.026718 -332.700836 123.782051
  endloop
 endfacet
 facet normal 0.233959 0.906306 0.351955
  outer loop
   vertex -231.026718 -332.700836 123.782051
   vertex -216.098831 -332.078827 112.257156
   vertex -231.765137 -332.078827 122.671196
  endloop
 endfacet
 facet normal -0.501721 0.422626 -0.754761
  outer loop
   vertex -231.765137 -332.078827 122.671196
   vertex -216.098831 -332.078827 112.257156
   vertex -231.780624 -332.138824 122.647896
  endloop
 endfacet
 facet normal -0.501720 0.422618 -0.754765
  outer loop
   vertex -231.332367 -332.050903 122.376579
   vertex -231.529007 -332.812653 122.080765
   vertex -232.165161 -332.050903 122.930168
  endloop
 endfacet
 facet normal 0.501722 -0.422612 0.754768
  outer loop
   vertex -230.773483 -333.449066 123.217346
   vertex -230.576843 -332.687317 123.513153
   vertex -231.409637 -332.687317 124.066742
  endloop
 endfacet
 facet normal -0.501721 0.422626 -0.754761
  outer loop
   vertex -216.098831 -332.078827 112.257156
   vertex -216.114319 -332.138824 112.233856
   vertex -231.780624 -332.138824 122.647896
  endloop
 endfacet
 facet normal 0.656986 -0.649122 -0.383420
  outer loop
   vertex -215.325943 -331.516693 113.033142
   vertex -214.467392 -330.610382 112.969894
   vertex -215.298233 -331.591400 113.207100
  endloop
 endfacet
 facet normal 0.656981 -0.649120 -0.383429
  outer loop
   vertex -215.298233 -331.591400 113.207100
   vertex -214.467392 -330.610382 112.969894
   vertex -214.356537 -330.909210 113.665733
  endloop
 endfacet
 facet normal 0.509720 -0.837113 0.198566
  outer loop
   vertex -214.356537 -330.909210 113.665733
   vertex -215.408707 -331.622345 113.360229
   vertex -215.298233 -331.591400 113.207100
  endloop
 endfacet
 facet normal 0.509713 -0.837112 0.198586
  outer loop
   vertex -214.798462 -331.032990 114.278252
   vertex -215.408707 -331.622345 113.360229
   vertex -214.356537 -330.909210 113.665733
  endloop
 endfacet
 facet normal -0.014195 -0.837111 0.546848
  outer loop
   vertex -215.592667 -331.591400 113.402824
   vertex -215.408707 -331.622345 113.360229
   vertex -214.798462 -331.032990 114.278252
  endloop
 endfacet
 facet normal -0.014195 -0.837111 0.546848
  outer loop
   vertex -214.798462 -331.032990 114.278252
   vertex -215.534286 -330.909210 114.448631
   vertex -215.592667 -331.591400 113.402824
  endloop
 endfacet
 facet normal -0.607836 -0.649121 0.457359
  outer loop
   vertex -215.592667 -331.591400 113.402824
   vertex -215.534286 -330.909210 114.448631
   vertex -215.742340 -331.516693 113.309937
  endloop
 endfacet
 facet normal -0.607840 -0.649118 0.457358
  outer loop
   vertex -215.742340 -331.516693 113.309937
   vertex -215.534286 -330.909210 114.448631
   vertex -216.132980 -330.610382 114.077072
  endloop
 endfacet
 facet normal -0.923482 -0.383244 -0.017482
  outer loop
   vertex -216.132980 -330.610382 114.077072
   vertex -215.770050 -331.441986 113.135971
   vertex -215.742340 -331.516693 113.309937
  endloop
 endfacet
 facet normal -0.923477 -0.383256 -0.017469
  outer loop
   vertex -216.243835 -330.311554 113.381226
   vertex -215.770050 -331.441986 113.135971
   vertex -216.132980 -330.610382 114.077072
  endloop
 endfacet
 facet normal -0.776221 -0.195273 -0.599457
  outer loop
   vertex -215.659576 -331.411041 112.982841
   vertex -215.770050 -331.441986 113.135971
   vertex -216.243835 -330.311554 113.381226
  endloop
 endfacet
 facet normal -0.776204 -0.195253 -0.599487
  outer loop
   vertex -216.243835 -330.311554 113.381226
   vertex -215.801910 -330.187775 112.768715
   vertex -215.659576 -331.411041 112.982841
  endloop
 endfacet
 facet normal -0.252290 -0.195254 -0.947748
  outer loop
   vertex -215.659576 -331.411041 112.982841
   vertex -215.801910 -330.187775 112.768715
   vertex -215.475616 -331.441986 112.940247
  endloop
 endfacet
 facet normal -0.252295 -0.195255 -0.947746
  outer loop
   vertex -215.475616 -331.441986 112.940247
   vertex -215.801910 -330.187775 112.768715
   vertex -215.066086 -330.311554 112.598335
  endloop
 endfacet
 facet normal 0.341375 -0.383257 -0.858241
  outer loop
   vertex -215.066086 -330.311554 112.598335
   vertex -215.325943 -331.516693 113.033142
   vertex -215.475616 -331.441986 112.940247
  endloop
 endfacet
 facet normal 0.341349 -0.383255 -0.858252
  outer loop
   vertex -214.467392 -330.610382 112.969894
   vertex -215.325943 -331.516693 113.033142
   vertex -215.066086 -330.311554 112.598335
  endloop
 endfacet
 facet normal 0.961389 -0.161713 -0.222664
  outer loop
   vertex -231.164032 -332.413910 123.058990
   vertex -230.930069 -331.507599 123.410942
   vertex -231.136307 -332.488617 123.232956
  endloop
 endfacet
 facet normal 0.961402 -0.161728 -0.222598
  outer loop
   vertex -231.136307 -332.488617 123.232956
   vertex -230.930069 -331.507599 123.410942
   vertex -230.902359 -331.582306 123.584900
  endloop
 endfacet
 facet normal 0.782209 -0.390442 0.485493
  outer loop
   vertex -230.902359 -331.582306 123.584900
   vertex -231.246796 -332.519562 123.386086
   vertex -231.136307 -332.488617 123.232956
  endloop
 endfacet
 facet normal 0.782243 -0.390443 0.485438
  outer loop
   vertex -231.012833 -331.613251 123.738029
   vertex -231.246796 -332.519562 123.386086
   vertex -230.902359 -331.582306 123.584900
  endloop
 endfacet
 facet normal 0.144845 -0.390442 0.909161
  outer loop
   vertex -231.430740 -332.488617 123.428680
   vertex -231.246796 -332.519562 123.386086
   vertex -231.012833 -331.613251 123.738029
  endloop
 endfacet
 facet normal 0.144834 -0.390439 0.909165
  outer loop
   vertex -231.012833 -331.613251 123.738029
   vertex -231.196793 -331.582306 123.780624
   vertex -231.430740 -332.488617 123.428680
  endloop
 endfacet
 facet normal -0.577389 -0.161731 0.800291
  outer loop
   vertex -231.430740 -332.488617 123.428680
   vertex -231.196793 -331.582306 123.780624
   vertex -231.580414 -332.413910 123.335793
  endloop
 endfacet
 facet normal -0.577389 -0.161731 0.800291
  outer loop
   vertex -231.580414 -332.413910 123.335793
   vertex -231.196793 -331.582306 123.780624
   vertex -231.346466 -331.507599 123.687737
  endloop
 endfacet
 facet normal -0.961392 0.161702 0.222659
  outer loop
   vertex -231.346466 -331.507599 123.687737
   vertex -231.608139 -332.339203 123.161827
   vertex -231.580414 -332.413910 123.335793
  endloop
 endfacet
 facet normal -0.961400 0.161745 0.222595
  outer loop
   vertex -231.374176 -331.432892 123.513771
   vertex -231.608139 -332.339203 123.161827
   vertex -231.346466 -331.507599 123.687737
  endloop
 endfacet
 facet normal -0.782207 0.390453 -0.485488
  outer loop
   vertex -231.497650 -332.308258 123.008698
   vertex -231.608139 -332.339203 123.161827
   vertex -231.374176 -331.432892 123.513771
  endloop
 endfacet
 facet normal -0.782245 0.390432 -0.485443
  outer loop
   vertex -231.374176 -331.432892 123.513771
   vertex -231.263702 -331.401947 123.360641
   vertex -231.497650 -332.308258 123.008698
  endloop
 endfacet
 facet normal -0.144834 0.390439 -0.909165
  outer loop
   vertex -231.497650 -332.308258 123.008698
   vertex -231.263702 -331.401947 123.360641
   vertex -231.313690 -332.339203 122.966103
  endloop
 endfacet
 facet normal -0.144834 0.390439 -0.909165
  outer loop
   vertex -231.313690 -332.339203 122.966103
   vertex -231.263702 -331.401947 123.360641
   vertex -231.079742 -331.432892 123.318047
  endloop
 endfacet
 facet normal 0.577425 0.161713 -0.800268
  outer loop
   vertex -231.079742 -331.432892 123.318047
   vertex -231.164032 -332.413910 123.058990
   vertex -231.313690 -332.339203 122.966103
  endloop
 endfacet
 facet normal 0.577413 0.161716 -0.800276
  outer loop
   vertex -230.930069 -331.507599 123.410942
   vertex -231.164032 -332.413910 123.058990
   vertex -231.079742 -331.432892 123.318047
  endloop
 endfacet
 facet normal 0.961397 -0.161734 -0.222616
  outer loop
   vertex -230.073883 -330.610382 123.344154
   vertex -229.839920 -329.704071 123.696106
   vertex -229.963028 -330.909210 124.040001
  endloop
 endfacet
 facet normal 0.961396 -0.161735 -0.222618
  outer loop
   vertex -229.963028 -330.909210 124.040001
   vertex -229.839920 -329.704071 123.696106
   vertex -229.729065 -330.002899 124.391945
  endloop
 endfacet
 facet normal 0.782231 -0.390447 0.485455
  outer loop
   vertex -229.729065 -330.002899 124.391945
   vertex -230.404938 -331.032990 124.652512
   vertex -229.963028 -330.909210 124.040001
  endloop
 endfacet
 facet normal 0.782225 -0.390438 0.485472
  outer loop
   vertex -230.170990 -330.126678 125.004456
   vertex -230.404938 -331.032990 124.652512
   vertex -229.729065 -330.002899 124.391945
  endloop
 endfacet
 facet normal 0.144846 -0.390440 0.909162
  outer loop
   vertex -231.140762 -330.909210 124.822899
   vertex -230.404938 -331.032990 124.652512
   vertex -230.170990 -330.126678 125.004456
  endloop
 endfacet
 facet normal 0.144846 -0.390440 0.909162
  outer loop
   vertex -230.170990 -330.126678 125.004456
   vertex -230.906815 -330.002899 125.174843
   vertex -231.140762 -330.909210 124.822899
  endloop
 endfacet
 facet normal -0.577395 -0.161728 0.800287
  outer loop
   vertex -231.140762 -330.909210 124.822899
   vertex -230.906815 -330.002899 125.174843
   vertex -231.739456 -330.610382 124.451340
  endloop
 endfacet
 facet normal -0.577395 -0.161728 0.800287
  outer loop
   vertex -231.739456 -330.610382 124.451340
   vertex -230.906815 -330.002899 125.174843
   vertex -231.505508 -329.704071 124.803284
  endloop
 endfacet
 facet normal -0.961400 0.161722 0.222611
  outer loop
   vertex -231.505508 -329.704071 124.803284
   vertex -231.850311 -330.311554 123.755493
   vertex -231.739456 -330.610382 124.451340
  endloop
 endfacet
 facet normal -0.961400 0.161722 0.222611
  outer loop
   vertex -231.616364 -329.405243 124.107437
   vertex -231.850311 -330.311554 123.755493
   vertex -231.505508 -329.704071 124.803284
  endloop
 endfacet
 facet normal -0.782225 0.390438 -0.485472
  outer loop
   vertex -231.408386 -330.187775 123.142982
   vertex -231.850311 -330.311554 123.755493
   vertex -231.616364 -329.405243 124.107437
  endloop
 endfacet
 facet normal -0.782225 0.390438 -0.485472
  outer loop
   vertex -231.616364 -329.405243 124.107437
   vertex -231.174438 -329.281464 123.494926
   vertex -231.408386 -330.187775 123.142982
  endloop
 endfacet
 facet normal -0.144849 0.390441 -0.909162
  outer loop
   vertex -231.408386 -330.187775 123.142982
   vertex -231.174438 -329.281464 123.494926
   vertex -230.672577 -330.311554 122.972595
  endloop
 endfacet
 facet normal -0.144835 0.390447 -0.909161
  outer loop
   vertex -230.672577 -330.311554 122.972595
   vertex -231.174438 -329.281464 123.494926
   vertex -230.438614 -329.405243 123.324547
  endloop
 endfacet
 facet normal 0.577394 0.161726 -0.800288
  outer loop
   vertex -230.438614 -329.405243 123.324547
   vertex -230.073883 -330.610382 123.344154
   vertex -230.672577 -330.311554 122.972595
  endloop
 endfacet
 facet normal 0.577394 0.161726 -0.800288
  outer loop
   vertex -229.839920 -329.704071 123.696106
   vertex -230.073883 -330.610382 123.344154
   vertex -230.438614 -329.405243 123.324547
  endloop
 endfacet
 facet normal 0.656996 -0.649120 -0.383405
  outer loop
   vertex -230.932419 -331.516693 123.407402
   vertex -230.073883 -330.610382 123.344154
   vertex -230.904709 -331.591400 123.581367
  endloop
 endfacet
 facet normal 0.656987 -0.649117 -0.383425
  outer loop
   vertex -230.904709 -331.591400 123.581367
   vertex -230.073883 -330.610382 123.344154
   vertex -229.963028 -330.909210 124.040001
  endloop
 endfacet
 facet normal 0.509724 -0.837109 0.198569
  outer loop
   vertex -229.963028 -330.909210 124.040001
   vertex -231.015182 -331.622345 123.734497
   vertex -230.904709 -331.591400 123.581367
  endloop
 endfacet
 facet normal 0.509720 -0.837109 0.198582
  outer loop
   vertex -230.404938 -331.032990 124.652512
   vertex -231.015182 -331.622345 123.734497
   vertex -229.963028 -330.909210 124.040001
  endloop
 endfacet
 facet normal -0.014194 -0.837110 0.546851
  outer loop
   vertex -231.199142 -331.591400 123.777092
   vertex -231.015182 -331.622345 123.734497
   vertex -230.404938 -331.032990 124.652512
  endloop
 endfacet
 facet normal -0.014190 -0.837112 0.546848
  outer loop
   vertex -230.404938 -331.032990 124.652512
   vertex -231.140762 -330.909210 124.822899
   vertex -231.199142 -331.591400 123.777092
  endloop
 endfacet
 facet normal -0.607836 -0.649121 0.457359
  outer loop
   vertex -231.199142 -331.591400 123.777092
   vertex -231.140762 -330.909210 124.822899
   vertex -231.348816 -331.516693 123.684204
  endloop
 endfacet
 facet normal -0.607840 -0.649118 0.457358
  outer loop
   vertex -231.348816 -331.516693 123.684204
   vertex -231.140762 -330.909210 124.822899
   vertex -231.739456 -330.610382 124.451340
  endloop
 endfacet
 facet normal -0.923482 -0.383244 -0.017482
  outer loop
   vertex -231.739456 -330.610382 124.451340
   vertex -231.376526 -331.441986 123.510239
   vertex -231.348816 -331.516693 123.684204
  endloop
 endfacet
 facet normal -0.923477 -0.383256 -0.017469
  outer loop
   vertex -231.850311 -330.311554 123.755493
   vertex -231.376526 -331.441986 123.510239
   vertex -231.739456 -330.610382 124.451340
  endloop
 endfacet
 facet normal -0.776221 -0.195273 -0.599457
  outer loop
   vertex -231.266052 -331.411041 123.357109
   vertex -231.376526 -331.441986 123.510239
   vertex -231.850311 -330.311554 123.755493
  endloop
 endfacet
 facet normal -0.776204 -0.195253 -0.599487
  outer loop
   vertex -231.850311 -330.311554 123.755493
   vertex -231.408386 -330.187775 123.142982
   vertex -231.266052 -331.411041 123.357109
  endloop
 endfacet
 facet normal -0.252290 -0.195254 -0.947748
  outer loop
   vertex -231.266052 -331.411041 123.357109
   vertex -231.408386 -330.187775 123.142982
   vertex -231.082092 -331.441986 123.314514
  endloop
 endfacet
 facet normal -0.252310 -0.195258 -0.947742
  outer loop
   vertex -231.082092 -331.441986 123.314514
   vertex -231.408386 -330.187775 123.142982
   vertex -230.672577 -330.311554 122.972595
  endloop
 endfacet
 facet normal 0.341343 -0.383251 -0.858256
  outer loop
   vertex -230.672577 -330.311554 122.972595
   vertex -230.932419 -331.516693 123.407402
   vertex -231.082092 -331.441986 123.314514
  endloop
 endfacet
 facet normal 0.341352 -0.383252 -0.858252
  outer loop
   vertex -230.073883 -330.610382 123.344154
   vertex -230.932419 -331.516693 123.407402
   vertex -230.672577 -330.311554 122.972595
  endloop
 endfacet
 facet normal 0.961402 -0.161728 -0.222598
  outer loop
   vertex -215.557541 -332.413910 112.684731
   vertex -215.323593 -331.507599 113.036674
   vertex -215.529831 -332.488617 112.858688
  endloop
 endfacet
 facet normal 0.961402 -0.161728 -0.222598
  outer loop
   vertex -215.529831 -332.488617 112.858688
   vertex -215.323593 -331.507599 113.036674
   vertex -215.295883 -331.582306 113.210632
  endloop
 endfacet
 facet normal 0.782245 -0.390432 0.485443
  outer loop
   vertex -215.295883 -331.582306 113.210632
   vertex -215.640305 -332.519562 113.011818
   vertex -215.529831 -332.488617 112.858688
  endloop
 endfacet
 facet normal 0.782245 -0.390432 0.485443
  outer loop
   vertex -215.406357 -331.613251 113.363762
   vertex -215.640305 -332.519562 113.011818
   vertex -215.295883 -331.582306 113.210632
  endloop
 endfacet
 facet normal 0.144834 -0.390439 0.909165
  outer loop
   vertex -215.824265 -332.488617 113.054413
   vertex -215.640305 -332.519562 113.011818
   vertex -215.406357 -331.613251 113.363762
  endloop
 endfacet
 facet normal 0.144834 -0.390439 0.909165
  outer loop
   vertex -215.406357 -331.613251 113.363762
   vertex -215.590317 -331.582306 113.406357
   vertex -215.824265 -332.488617 113.054413
  endloop
 endfacet
 facet normal -0.577389 -0.161731 0.800291
  outer loop
   vertex -215.824265 -332.488617 113.054413
   vertex -215.590317 -331.582306 113.406357
   vertex -215.973938 -332.413910 112.961525
  endloop
 endfacet
 facet normal -0.577389 -0.161731 0.800291
  outer loop
   vertex -215.973938 -332.413910 112.961525
   vertex -215.590317 -331.582306 113.406357
   vertex -215.739990 -331.507599 113.313469
  endloop
 endfacet
 facet normal -0.961404 0.161732 0.222590
  outer loop
   vertex -215.739990 -331.507599 113.313469
   vertex -216.001648 -332.339203 112.787560
   vertex -215.973938 -332.413910 112.961525
  endloop
 endfacet
 facet normal -0.961404 0.161732 0.222590
  outer loop
   vertex -215.767700 -331.432892 113.139503
   vertex -216.001648 -332.339203 112.787560
   vertex -215.739990 -331.507599 113.313469
  endloop
 endfacet
 facet normal -0.782245 0.390432 -0.485443
  outer loop
   vertex -215.891174 -332.308258 112.634430
   vertex -216.001648 -332.339203 112.787560
   vertex -215.767700 -331.432892 113.139503
  endloop
 endfacet
 facet normal -0.782245 0.390432 -0.485443
  outer loop
   vertex -215.767700 -331.432892 113.139503
   vertex -215.657227 -331.401947 112.986374
   vertex -215.891174 -332.308258 112.634430
  endloop
 endfacet
 facet normal -0.144834 0.390439 -0.909165
  outer loop
   vertex -215.891174 -332.308258 112.634430
   vertex -215.657227 -331.401947 112.986374
   vertex -215.707214 -332.339203 112.591835
  endloop
 endfacet
 facet normal -0.144834 0.390439 -0.909165
  outer loop
   vertex -215.707214 -332.339203 112.591835
   vertex -215.657227 -331.401947 112.986374
   vertex -215.473267 -331.432892 112.943779
  endloop
 endfacet
 facet normal 0.577414 0.161719 -0.800275
  outer loop
   vertex -215.473267 -331.432892 112.943779
   vertex -215.557541 -332.413910 112.684731
   vertex -215.707214 -332.339203 112.591835
  endloop
 endfacet
 facet normal 0.577414 0.161719 -0.800275
  outer loop
   vertex -215.323593 -331.507599 113.036674
   vertex -215.557541 -332.413910 112.684731
   vertex -215.473267 -331.432892 112.943779
  endloop
 endfacet
 facet normal 0.577394 0.161724 -0.800289
  outer loop
   vertex -215.066086 -330.311554 112.598335
   vertex -214.832138 -329.405212 112.950279
   vertex -214.467392 -330.610382 112.969894
  endloop
 endfacet
 facet normal 0.577400 0.161726 -0.800284
  outer loop
   vertex -214.467392 -330.610382 112.969894
   vertex -214.832138 -329.405212 112.950279
   vertex -214.233444 -329.704071 113.321838
  endloop
 endfacet
 facet normal 0.961400 -0.161721 -0.222613
  outer loop
   vertex -214.233444 -329.704071 113.321838
   vertex -214.356537 -330.909210 113.665733
   vertex -214.467392 -330.610382 112.969894
  endloop
 endfacet
 facet normal 0.961400 -0.161721 -0.222613
  outer loop
   vertex -214.122589 -330.002899 114.017677
   vertex -214.356537 -330.909210 113.665733
   vertex -214.233444 -329.704071 113.321838
  endloop
 endfacet
 facet normal 0.782227 -0.390437 0.485468
  outer loop
   vertex -214.798462 -331.032990 114.278252
   vertex -214.356537 -330.909210 113.665733
   vertex -214.122589 -330.002899 114.017677
  endloop
 endfacet
 facet normal 0.782227 -0.390437 0.485468
  outer loop
   vertex -214.122589 -330.002899 114.017677
   vertex -214.564514 -330.126678 114.630196
   vertex -214.798462 -331.032990 114.278252
  endloop
 endfacet
 facet normal 0.144837 -0.390439 0.909164
  outer loop
   vertex -214.798462 -331.032990 114.278252
   vertex -214.564514 -330.126678 114.630196
   vertex -215.534286 -330.909210 114.448631
  endloop
 endfacet
 facet normal 0.144837 -0.390439 0.909164
  outer loop
   vertex -215.534286 -330.909210 114.448631
   vertex -214.564514 -330.126678 114.630196
   vertex -215.300339 -330.002899 114.800575
  endloop
 endfacet
 facet normal -0.577395 -0.161728 0.800287
  outer loop
   vertex -215.300339 -330.002899 114.800575
   vertex -216.132980 -330.610382 114.077072
   vertex -215.534286 -330.909210 114.448631
  endloop
 endfacet
 facet normal -0.577395 -0.161728 0.800287
  outer loop
   vertex -215.899033 -329.704071 114.429016
   vertex -216.132980 -330.610382 114.077072
   vertex -215.300339 -330.002899 114.800575
  endloop
 endfacet
 facet normal -0.961400 0.161722 0.222611
  outer loop
   vertex -216.243835 -330.311554 113.381226
   vertex -216.132980 -330.610382 114.077072
   vertex -215.899033 -329.704071 114.429016
  endloop
 endfacet
 facet normal -0.961399 0.161743 0.222599
  outer loop
   vertex -215.899033 -329.704071 114.429016
   vertex -216.009872 -329.405243 113.733170
   vertex -216.243835 -330.311554 113.381226
  endloop
 endfacet
 facet normal -0.782222 0.390449 -0.485467
  outer loop
   vertex -216.243835 -330.311554 113.381226
   vertex -216.009872 -329.405243 113.733170
   vertex -215.801910 -330.187775 112.768715
  endloop
 endfacet
 facet normal -0.782234 0.390436 -0.485459
  outer loop
   vertex -215.801910 -330.187775 112.768715
   vertex -216.009872 -329.405243 113.733170
   vertex -215.567963 -329.281464 113.120659
  endloop
 endfacet
 facet normal -0.144837 0.390439 -0.909164
  outer loop
   vertex -215.567963 -329.281464 113.120659
   vertex -215.066086 -330.311554 112.598335
   vertex -215.801910 -330.187775 112.768715
  endloop
 endfacet
 facet normal -0.144855 0.390431 -0.909165
  outer loop
   vertex -214.832138 -329.405212 112.950279
   vertex -215.066086 -330.311554 112.598335
   vertex -215.567963 -329.281464 113.120659
  endloop
 endfacet
endsolid