solid stl file generated from DOUG
 facet normal 0.541001 -0.198081 0.817363
  outer loop
   vertex -135.261292 -333.247772 268.164459
   vertex -135.276184 -333.381256 268.141968
   vertex -119.589256 -333.381256 257.759003
  endloop
 endfacet
 facet normal 0.233246 -0.906319 0.352396
  outer loop
   vertex -119.589256 -333.381256 257.759003
   vertex -135.276184 -333.381256 268.141968
   vertex -119.640656 -333.424683 257.681335
  endloop
 endfacet
 facet normal -0.264046 -0.878143 -0.398930
  outer loop
   vertex -119.021843 -332.780975 258.616272
   vertex -118.955833 -332.846130 258.716003
   vertex -134.642761 -332.846130 269.098938
  endloop
 endfacet
 facet normal 0.233298 -0.906274 0.352475
  outer loop
   vertex -134.642761 -332.846130 269.098938
   vertex -118.955833 -332.846130 258.716003
   vertex -118.904434 -332.802704 258.793640
  endloop
 endfacet
 facet normal 0.233255 -0.906311 0.352409
  outer loop
   vertex -118.904434 -332.802704 258.793640
   vertex -134.591370 -332.802704 269.176605
   vertex -134.642761 -332.846130 269.098938
  endloop
 endfacet
 facet normal 0.397174 -0.694390 0.600063
  outer loop
   vertex -119.075348 -332.138611 258.535431
   vertex -134.762283 -332.138611 268.918396
   vertex -119.088249 -332.162842 258.515930
  endloop
 endfacet
 facet normal 0.397208 -0.694325 0.600115
  outer loop
   vertex -119.088249 -332.162842 258.515930
   vertex -134.762283 -332.138611 268.918396
   vertex -134.775177 -332.162842 268.898895
  endloop
 endfacet
 facet normal 0.500225 0.422618 0.755757
  outer loop
   vertex -134.775177 -332.162842 268.898895
   vertex -134.641022 -332.684113 269.101593
   vertex -119.088249 -332.162842 258.515930
  endloop
 endfacet
 facet normal 0.541001 -0.198081 0.817363
  outer loop
   vertex -119.589256 -333.381256 257.759003
   vertex -119.574364 -333.247772 257.781494
   vertex -135.261292 -333.247772 268.164459
  endloop
 endfacet
 facet normal 0.233256 -0.906311 0.352410
  outer loop
   vertex -135.261292 -333.247772 268.164459
   vertex -119.574364 -333.247772 257.781494
   vertex -119.021843 -332.780975 258.616272
  endloop
 endfacet
 facet normal 0.233260 -0.906306 0.352418
  outer loop
   vertex -119.021843 -332.780975 258.616272
   vertex -134.708771 -332.780975 268.999207
   vertex -135.261292 -333.247772 268.164459
  endloop
 endfacet
 facet normal -0.264046 -0.878143 -0.398930
  outer loop
   vertex -134.642761 -332.846130 269.098938
   vertex -134.708771 -332.780975 268.999207
   vertex -119.021843 -332.780975 258.616272
  endloop
 endfacet
 facet normal 0.500238 0.422570 0.755776
  outer loop
   vertex -134.591370 -332.802704 269.176605
   vertex -118.904434 -332.802704 258.793640
   vertex -134.622482 -332.681763 269.129578
  endloop
 endfacet
 facet normal 0.500270 0.422439 0.755827
  outer loop
   vertex -134.622482 -332.681763 269.129578
   vertex -118.904434 -332.802704 258.793640
   vertex -118.935555 -332.681763 258.746643
  endloop
 endfacet
 facet normal -0.038542 0.997559 -0.058231
  outer loop
   vertex -118.935555 -332.681763 258.746643
   vertex -134.641022 -332.684113 269.101593
   vertex -134.622482 -332.681763 269.129578
  endloop
 endfacet
 facet normal -0.038518 0.997562 -0.058194
  outer loop
   vertex -118.954086 -332.684113 258.718628
   vertex -134.641022 -332.684113 269.101593
   vertex -118.935555 -332.681763 258.746643
  endloop
 endfacet
 facet normal 0.500224 0.422624 0.755755
  outer loop
   vertex -119.088249 -332.162842 258.515930
   vertex -134.641022 -332.684113 269.101593
   vertex -118.954086 -332.684113 258.718628
  endloop
 endfacet
 facet normal 0.833894 -0.000015 -0.551924
  outer loop
   vertex -119.247475 -333.448853 257.412048
   vertex -118.690254 -332.050690 258.253906
   vertex -118.494202 -332.812439 258.550140
  endloop
 endfacet
 facet normal 0.500202 0.422642 0.755759
  outer loop
   vertex -118.494202 -332.812439 258.550140
   vertex -118.690254 -332.050690 258.253906
   vertex -119.328087 -332.812439 259.102051
  endloop
 endfacet
 facet normal 0.233254 -0.906305 0.352425
  outer loop
   vertex -119.328087 -332.812439 259.102051
   vertex -120.081360 -333.448853 257.963989
   vertex -118.494202 -332.812439 258.550140
  endloop
 endfacet
 facet normal -0.833884 0.000002 0.551940
  outer loop
   vertex -119.524139 -332.050690 258.805847
   vertex -120.081360 -333.448853 257.963989
   vertex -119.328087 -332.812439 259.102051
  endloop
 endfacet
 facet normal -0.833884 0.000002 0.551940
  outer loop
   vertex -120.277412 -332.687103 257.667786
   vertex -120.081360 -333.448853 257.963989
   vertex -119.524139 -332.050690 258.805847
  endloop
 endfacet
 facet normal -0.233263 0.906305 -0.352419
  outer loop
   vertex -119.524139 -332.050690 258.805847
   vertex -118.690254 -332.050690 258.253906
   vertex -120.277412 -332.687103 257.667786
  endloop
 endfacet
 facet normal -0.233263 0.906305 -0.352419
  outer loop
   vertex -120.277412 -332.687103 257.667786
   vertex -118.690254 -332.050690 258.253906
   vertex -119.443527 -332.687103 257.115845
  endloop
 endfacet
 facet normal 0.833884 -0.000002 -0.551940
  outer loop
   vertex -119.443527 -332.687103 257.115845
   vertex -118.690254 -332.050690 258.253906
   vertex -119.247475 -333.448853 257.412048
  endloop
 endfacet
 facet normal -0.500228 -0.422617 -0.755756
  outer loop
   vertex -119.247475 -333.448853 257.412048
   vertex -120.081360 -333.448853 257.963989
   vertex -119.443527 -332.687103 257.115845
  endloop
 endfacet
 facet normal 0.233259 -0.906308 0.352414
  outer loop
   vertex -118.494202 -332.812439 258.550140
   vertex -120.081360 -333.448853 257.963989
   vertex -119.247475 -333.448853 257.412048
  endloop
 endfacet
 facet normal 0.833888 -0.000007 -0.551934
  outer loop
   vertex -134.141937 -332.812439 268.907135
   vertex -134.895203 -333.448853 267.769073
   vertex -134.337982 -332.050690 268.610931
  endloop
 endfacet
 facet normal 0.833880 0.000003 -0.551945
  outer loop
   vertex -134.337982 -332.050690 268.610931
   vertex -134.895203 -333.448853 267.769073
   vertex -135.091263 -332.687103 267.472870
  endloop
 endfacet
 facet normal -0.233264 0.906306 -0.352417
  outer loop
   vertex -135.091263 -332.687103 267.472870
   vertex -135.925140 -332.687103 268.024811
   vertex -134.337982 -332.050690 268.610931
  endloop
 endfacet
 facet normal -0.500230 -0.422622 -0.755752
  outer loop
   vertex -134.895203 -333.448853 267.769073
   vertex -135.925140 -332.687103 268.024811
   vertex -135.091263 -332.687103 267.472870
  endloop
 endfacet
 facet normal -0.500226 -0.422613 -0.755759
  outer loop
   vertex -135.729095 -333.448853 268.321014
   vertex -135.925140 -332.687103 268.024811
   vertex -134.895203 -333.448853 267.769073
  endloop
 endfacet
 facet normal 0.233261 -0.906306 0.352419
  outer loop
   vertex -134.895203 -333.448853 267.769073
   vertex -134.975815 -332.812439 269.459076
   vertex -135.729095 -333.448853 268.321014
  endloop
 endfacet
 facet normal -0.833884 0.000010 0.551940
  outer loop
   vertex -135.729095 -333.448853 268.321014
   vertex -134.975815 -332.812439 269.459076
   vertex -135.925140 -332.687103 268.024811
  endloop
 endfacet
 facet normal -0.833884 -0.000007 0.551939
  outer loop
   vertex -135.925140 -332.687103 268.024811
   vertex -134.975815 -332.812439 269.459076
   vertex -135.171875 -332.050690 269.162872
  endloop
 endfacet
 facet normal -0.233262 0.906305 -0.352421
  outer loop
   vertex -135.171875 -332.050690 269.162872
   vertex -134.337982 -332.050690 268.610931
   vertex -135.925140 -332.687103 268.024811
  endloop
 endfacet
 facet normal 0.500224 0.422622 0.755756
  outer loop
   vertex -134.975815 -332.812439 269.459076
   vertex -134.337982 -332.050690 268.610931
   vertex -135.171875 -332.050690 269.162872
  endloop
 endfacet
 facet normal 0.500232 0.422613 0.755755
  outer loop
   vertex -134.141937 -332.812439 268.907135
   vertex -134.337982 -332.050690 268.610931
   vertex -134.975815 -332.812439 269.459076
  endloop
 endfacet
 facet normal 0.233265 -0.906305 0.352419
  outer loop
   vertex -134.975815 -332.812439 269.459076
   vertex -134.895203 -333.448853 267.769073
   vertex -134.141937 -332.812439 268.907135
  endloop
 endfacet
 facet normal 0.233237 -0.906326 0.352383
  outer loop
   vertex -135.276184 -333.381256 268.141968
   vertex -135.327591 -333.424683 268.064301
   vertex -119.640656 -333.424683 257.681335
  endloop
 endfacet
 facet normal -0.500215 -0.422657 -0.755742
  outer loop
   vertex -119.640656 -333.424683 257.681335
   vertex -135.327591 -333.424683 268.064301
   vertex -135.358704 -333.303772 268.017273
  endloop
 endfacet
 facet normal -0.500209 -0.422683 -0.755732
  outer loop
   vertex -135.358704 -333.303772 268.017273
   vertex -119.671776 -333.303772 257.634308
   vertex -119.640656 -333.424683 257.681335
  endloop
 endfacet
 facet normal -0.397208 0.694325 -0.600115
  outer loop
   vertex -135.345810 -333.279541 268.036774
   vertex -119.671776 -333.303772 257.634308
   vertex -135.358704 -333.303772 268.017273
  endloop
 endfacet
 facet normal -0.397174 0.694390 -0.600063
  outer loop
   vertex -119.658875 -333.279541 257.653809
   vertex -119.671776 -333.303772 257.634308
   vertex -135.345810 -333.279541 268.036774
  endloop
 endfacet
 facet normal -0.500225 -0.422618 -0.755757
  outer loop
   vertex -135.345810 -333.279541 268.036774
   vertex -135.479965 -332.758270 267.834076
   vertex -119.658875 -333.279541 257.653809
  endloop
 endfacet
 facet normal -0.500224 -0.422624 -0.755755
  outer loop
   vertex -119.658875 -333.279541 257.653809
   vertex -135.479965 -332.758270 267.834076
   vertex -119.793037 -332.758270 257.451111
  endloop
 endfacet
 facet normal 0.038513 -0.997563 0.058187
  outer loop
   vertex -119.793037 -332.758270 257.451111
   vertex -135.479965 -332.758270 267.834076
   vertex -135.498505 -332.760620 267.806061
  endloop
 endfacet
 facet normal 0.038547 -0.997558 0.058238
  outer loop
   vertex -135.498505 -332.760620 267.806061
   vertex -119.811569 -332.760620 257.423126
   vertex -119.793037 -332.758270 257.451111
  endloop
 endfacet
 facet normal -0.500262 -0.422470 -0.755815
  outer loop
   vertex -135.513947 -332.700623 267.782745
   vertex -119.811569 -332.760620 257.423126
   vertex -135.498505 -332.760620 267.806061
  endloop
 endfacet
 facet normal -0.500182 -0.422786 -0.755692
  outer loop
   vertex -119.827011 -332.700623 257.399780
   vertex -119.811569 -332.760620 257.423126
   vertex -135.513947 -332.700623 267.782745
  endloop
 endfacet
 facet normal -0.233262 0.906305 -0.352420
  outer loop
   vertex -135.513947 -332.700623 267.782745
   vertex -134.777725 -332.078613 268.895050
   vertex -119.827011 -332.700623 257.399780
  endloop
 endfacet
 facet normal -0.233262 0.906305 -0.352420
  outer loop
   vertex -119.827011 -332.700623 257.399780
   vertex -134.777725 -332.078613 268.895050
   vertex -119.090790 -332.078613 258.512085
  endloop
 endfacet
 facet normal 0.500182 0.422786 0.755692
  outer loop
   vertex -119.090790 -332.078613 258.512085
   vertex -134.777725 -332.078613 268.895050
   vertex -119.075348 -332.138611 258.535431
  endloop
 endfacet
 facet normal 0.500228 0.422617 0.755756
  outer loop
   vertex -119.524139 -332.050690 258.805847
   vertex -119.328087 -332.812439 259.102051
   vertex -118.690254 -332.050690 258.253906
  endloop
 endfacet
 facet normal -0.500228 -0.422617 -0.755756
  outer loop
   vertex -120.081360 -333.448853 257.963989
   vertex -120.277412 -332.687103 257.667786
   vertex -119.443527 -332.687103 257.115845
  endloop
 endfacet
 facet normal 0.500182 0.422786 0.755692
  outer loop
   vertex -134.777725 -332.078613 268.895050
   vertex -134.762283 -332.138611 268.918396
   vertex -119.075348 -332.138611 258.535431
  endloop
 endfacet
 facet normal -0.657749 -0.649127 0.382100
  outer loop
   vertex -135.549072 -331.516479 268.117523
   vertex -136.407745 -330.610168 268.179077
   vertex -135.576431 -331.591187 267.943512
  endloop
 endfacet
 facet normal -0.657744 -0.649126 0.382111
  outer loop
   vertex -135.576431 -331.591187 267.943512
   vertex -136.407745 -330.610168 268.179077
   vertex -136.517212 -330.908997 267.483002
  endloop
 endfacet
 facet normal -0.509315 -0.837113 -0.199597
  outer loop
   vertex -136.517212 -330.908997 267.483002
   vertex -135.465652 -331.622131 267.790619
   vertex -135.576431 -331.591187 267.943512
  endloop
 endfacet
 facet normal -0.509317 -0.837114 -0.199591
  outer loop
   vertex -136.074081 -331.032776 266.871368
   vertex -135.465652 -331.622131 267.790619
   vertex -136.517212 -330.908997 267.483002
  endloop
 endfacet
 facet normal 0.015266 -0.837121 -0.546805
  outer loop
   vertex -135.281616 -331.591187 267.748383
   vertex -135.465652 -331.622131 267.790619
   vertex -136.074081 -331.032776 266.871368
  endloop
 endfacet
 facet normal 0.015285 -0.837113 -0.546816
  outer loop
   vertex -136.074081 -331.032776 266.871368
   vertex -135.337921 -330.908997 266.702454
   vertex -135.281616 -331.591187 267.748383
  endloop
 endfacet
 facet normal 0.608710 -0.649144 -0.456162
  outer loop
   vertex -135.281616 -331.591187 267.748383
   vertex -135.337921 -330.908997 266.702454
   vertex -135.132126 -331.516479 267.841553
  endloop
 endfacet
 facet normal 0.608751 -0.649113 -0.456153
  outer loop
   vertex -135.132126 -331.516479 267.841553
   vertex -135.337921 -330.908997 266.702454
   vertex -134.739975 -330.610168 267.075195
  endloop
 endfacet
 facet normal 0.923437 -0.383265 0.019272
  outer loop
   vertex -134.739975 -330.610168 267.075195
   vertex -135.104752 -331.441772 268.015594
   vertex -135.132126 -331.516479 267.841553
  endloop
 endfacet
 facet normal 0.923443 -0.383250 0.019288
  outer loop
   vertex -134.630493 -330.311340 267.771271
   vertex -135.104752 -331.441772 268.015594
   vertex -134.739975 -330.610168 267.075195
  endloop
 endfacet
 facet normal 0.774970 -0.195213 0.601093
  outer loop
   vertex -135.215546 -331.410828 268.168488
   vertex -135.104752 -331.441772 268.015594
   vertex -134.630493 -330.311340 267.771271
  endloop
 endfacet
 facet normal 0.775016 -0.195264 0.601018
  outer loop
   vertex -134.630493 -330.311340 267.771271
   vertex -135.073624 -330.187561 268.382904
   vertex -135.215546 -331.410828 268.168488
  endloop
 endfacet
 facet normal 0.250452 -0.195265 0.948233
  outer loop
   vertex -135.215546 -331.410828 268.168488
   vertex -135.073624 -330.187561 268.382904
   vertex -135.399582 -331.441772 268.210724
  endloop
 endfacet
 facet normal 0.250409 -0.195256 0.948246
  outer loop
   vertex -135.399582 -331.441772 268.210724
   vertex -135.073624 -330.187561 268.382904
   vertex -135.809784 -330.311340 268.551819
  endloop
 endfacet
 facet normal -0.343111 -0.383260 0.857547
  outer loop
   vertex -135.809784 -330.311340 268.551819
   vertex -135.549072 -331.516479 268.117523
   vertex -135.399582 -331.441772 268.210724
  endloop
 endfacet
 facet normal -0.343043 -0.383256 0.857576
  outer loop
   vertex -136.407745 -330.610168 268.179077
   vertex -135.549072 -331.516479 268.117523
   vertex -135.809784 -330.311340 268.551819
  endloop
 endfacet
 facet normal -0.961838 -0.161732 0.220703
  outer loop
   vertex -119.691132 -332.413696 258.123108
   vertex -119.924393 -331.507385 257.770691
   vertex -119.718498 -332.488403 257.949097
  endloop
 endfacet
 facet normal -0.961838 -0.161732 0.220703
  outer loop
   vertex -119.718498 -332.488403 257.949097
   vertex -119.924393 -331.507385 257.770691
   vertex -119.951759 -331.582092 257.596680
  endloop
 endfacet
 facet normal -0.781294 -0.390441 -0.486966
  outer loop
   vertex -119.951759 -331.582092 257.596680
   vertex -119.607719 -332.519348 257.796173
   vertex -119.718498 -332.488403 257.949097
  endloop
 endfacet
 facet normal -0.781235 -0.390439 -0.487061
  outer loop
   vertex -119.840973 -331.613037 257.443787
   vertex -119.607719 -332.519348 257.796173
   vertex -119.951759 -331.582092 257.596680
  endloop
 endfacet
 facet normal -0.142925 -0.390403 -0.909482
  outer loop
   vertex -119.423676 -332.488403 257.753967
   vertex -119.607719 -332.519348 257.796173
   vertex -119.840973 -331.613037 257.443787
  endloop
 endfacet
 facet normal -0.143063 -0.390454 -0.909439
  outer loop
   vertex -119.840973 -331.613037 257.443787
   vertex -119.656937 -331.582092 257.401550
   vertex -119.423676 -332.488403 257.753967
  endloop
 endfacet
 facet normal 0.578943 -0.161748 -0.799164
  outer loop
   vertex -119.423676 -332.488403 257.753967
   vertex -119.656937 -331.582092 257.401550
   vertex -119.274193 -332.413696 257.847137
  endloop
 endfacet
 facet normal 0.578926 -0.161761 -0.799174
  outer loop
   vertex -119.274193 -332.413696 257.847137
   vertex -119.656937 -331.582092 257.401550
   vertex -119.507446 -331.507385 257.494720
  endloop
 endfacet
 facet normal 0.961834 0.161711 -0.220735
  outer loop
   vertex -119.507446 -331.507385 257.494720
   vertex -119.246819 -332.338989 258.021149
   vertex -119.274193 -332.413696 257.847137
  endloop
 endfacet
 facet normal 0.961838 0.161732 -0.220703
  outer loop
   vertex -119.480080 -331.432678 257.668732
   vertex -119.246819 -332.338989 258.021149
   vertex -119.507446 -331.507385 257.494720
  endloop
 endfacet
 facet normal 0.781276 0.390446 0.486991
  outer loop
   vertex -119.357605 -332.308044 258.174072
   vertex -119.246819 -332.338989 258.021149
   vertex -119.480080 -331.432678 257.668732
  endloop
 endfacet
 facet normal 0.781276 0.390446 0.486991
  outer loop
   vertex -119.480080 -331.432678 257.668732
   vertex -119.590866 -331.401733 257.821655
   vertex -119.357605 -332.308044 258.174072
  endloop
 endfacet
 facet normal 0.143058 0.390453 0.909440
  outer loop
   vertex -119.357605 -332.308044 258.174072
   vertex -119.590866 -331.401733 257.821655
   vertex -119.541649 -332.338989 258.216309
  endloop
 endfacet
 facet normal 0.143063 0.390453 0.909439
  outer loop
   vertex -119.541649 -332.338989 258.216309
   vertex -119.590866 -331.401733 257.821655
   vertex -119.774902 -331.432678 257.863892
  endloop
 endfacet
 facet normal -0.579043 0.161702 0.799100
  outer loop
   vertex -119.774902 -331.432678 257.863892
   vertex -119.691132 -332.413696 258.123108
   vertex -119.541649 -332.338989 258.216309
  endloop
 endfacet
 facet normal -0.579024 0.161707 0.799113
  outer loop
   vertex -119.924393 -331.507385 257.770691
   vertex -119.691132 -332.413696 258.123108
   vertex -119.774902 -331.432678 257.863892
  endloop
 endfacet
 facet normal -0.961838 -0.161732 0.220704
  outer loop
   vertex -120.780724 -330.610168 257.835785
   vertex -121.013985 -329.703857 257.483368
   vertex -120.890198 -330.908997 257.139709
  endloop
 endfacet
 facet normal -0.961838 -0.161732 0.220704
  outer loop
   vertex -120.890198 -330.908997 257.139709
   vertex -121.013985 -329.703857 257.483368
   vertex -121.123459 -330.002686 256.787292
  endloop
 endfacet
 facet normal -0.781258 -0.390451 -0.487016
  outer loop
   vertex -121.123459 -330.002686 256.787292
   vertex -120.447060 -331.032776 256.528076
   vertex -120.890198 -330.908997 257.139709
  endloop
 endfacet
 facet normal -0.781258 -0.390451 -0.487016
  outer loop
   vertex -120.680321 -330.126465 256.175659
   vertex -120.447060 -331.032776 256.528076
   vertex -121.123459 -330.002686 256.787292
  endloop
 endfacet
 facet normal -0.143027 -0.390448 -0.909447
  outer loop
   vertex -119.710907 -330.908997 256.359161
   vertex -120.447060 -331.032776 256.528076
   vertex -120.680321 -330.126465 256.175659
  endloop
 endfacet
 facet normal -0.143026 -0.390447 -0.909448
  outer loop
   vertex -120.680321 -330.126465 256.175659
   vertex -119.944160 -330.002686 256.006744
   vertex -119.710907 -330.908997 256.359161
  endloop
 endfacet
 facet normal 0.578980 -0.161734 -0.799140
  outer loop
   vertex -119.710907 -330.908997 256.359161
   vertex -119.944160 -330.002686 256.006744
   vertex -119.112953 -330.610168 256.731903
  endloop
 endfacet
 facet normal 0.578984 -0.161728 -0.799138
  outer loop
   vertex -119.112953 -330.610168 256.731903
   vertex -119.944160 -330.002686 256.006744
   vertex -119.346214 -329.703857 256.379486
  endloop
 endfacet
 facet normal 0.961837 0.161729 -0.220712
  outer loop
   vertex -119.346214 -329.703857 256.379486
   vertex -119.003479 -330.311340 257.427948
   vertex -119.112953 -330.610168 256.731903
  endloop
 endfacet
 facet normal 0.961837 0.161729 -0.220712
  outer loop
   vertex -119.236740 -329.405029 257.075531
   vertex -119.003479 -330.311340 257.427948
   vertex -119.346214 -329.703857 256.379486
  endloop
 endfacet
 facet normal 0.781262 0.390449 0.487010
  outer loop
   vertex -119.446609 -330.187561 258.039581
   vertex -119.003479 -330.311340 257.427948
   vertex -119.236740 -329.405029 257.075531
  endloop
 endfacet
 facet normal 0.781262 0.390449 0.487010
  outer loop
   vertex -119.236740 -329.405029 257.075531
   vertex -119.679871 -329.281250 257.687164
   vertex -119.446609 -330.187561 258.039581
  endloop
 endfacet
 facet normal 0.143060 0.390453 0.909439
  outer loop
   vertex -119.446609 -330.187561 258.039581
   vertex -119.679871 -329.281250 257.687164
   vertex -120.182770 -330.311340 258.208527
  endloop
 endfacet
 facet normal 0.143060 0.390453 0.909439
  outer loop
   vertex -120.182770 -330.311340 258.208527
   vertex -119.679871 -329.281250 257.687164
   vertex -120.416031 -329.405029 257.856110
  endloop
 endfacet
 facet normal -0.578979 0.161730 0.799141
  outer loop
   vertex -120.416031 -329.405029 257.856110
   vertex -120.780724 -330.610168 257.835785
   vertex -120.182770 -330.311340 258.208527
  endloop
 endfacet
 facet normal -0.578979 0.161730 0.799141
  outer loop
   vertex -121.013985 -329.703857 257.483368
   vertex -120.780724 -330.610168 257.835785
   vertex -120.416031 -329.405029 257.856110
  endloop
 endfacet
 facet normal -0.657741 -0.649121 0.382125
  outer loop
   vertex -119.922050 -331.516479 257.774231
   vertex -120.780724 -330.610168 257.835785
   vertex -119.949417 -331.591187 257.600220
  endloop
 endfacet
 facet normal -0.657744 -0.649122 0.382117
  outer loop
   vertex -119.949417 -331.591187 257.600220
   vertex -120.780724 -330.610168 257.835785
   vertex -120.890198 -330.908997 257.139709
  endloop
 endfacet
 facet normal -0.509329 -0.837112 -0.199567
  outer loop
   vertex -120.890198 -330.908997 257.139709
   vertex -119.838638 -331.622131 257.447296
   vertex -119.949417 -331.591187 257.600220
  endloop
 endfacet
 facet normal -0.509319 -0.837111 -0.199599
  outer loop
   vertex -120.447060 -331.032776 256.528076
   vertex -119.838638 -331.622131 257.447296
   vertex -120.890198 -330.908997 257.139709
  endloop
 endfacet
 facet normal 0.015340 -0.837089 -0.546851
  outer loop
   vertex -119.654594 -331.591187 257.405090
   vertex -119.838638 -331.622131 257.447296
   vertex -120.447060 -331.032776 256.528076
  endloop
 endfacet
 facet normal 0.015285 -0.837113 -0.546816
  outer loop
   vertex -120.447060 -331.032776 256.528076
   vertex -119.710907 -330.908997 256.359161
   vertex -119.654594 -331.591187 257.405090
  endloop
 endfacet
 facet normal 0.608711 -0.649142 -0.456165
  outer loop
   vertex -119.654594 -331.591187 257.405090
   vertex -119.710907 -330.908997 256.359161
   vertex -119.505104 -331.516479 257.498260
  endloop
 endfacet
 facet normal 0.608746 -0.649114 -0.456157
  outer loop
   vertex -119.505104 -331.516479 257.498260
   vertex -119.710907 -330.908997 256.359161
   vertex -119.112953 -330.610168 256.731903
  endloop
 endfacet
 facet normal 0.923446 -0.383242 0.019305
  outer loop
   vertex -119.112953 -330.610168 256.731903
   vertex -119.477737 -331.441772 257.672272
   vertex -119.505104 -331.516479 257.498260
  endloop
 endfacet
 facet normal 0.923444 -0.383248 0.019298
  outer loop
   vertex -119.003479 -330.311340 257.427948
   vertex -119.477737 -331.441772 257.672272
   vertex -119.112953 -330.610168 256.731903
  endloop
 endfacet
 facet normal 0.775036 -0.195262 0.600992
  outer loop
   vertex -119.588524 -331.410828 257.825195
   vertex -119.477737 -331.441772 257.672272
   vertex -119.003479 -330.311340 257.427948
  endloop
 endfacet
 facet normal 0.775021 -0.195245 0.601018
  outer loop
   vertex -119.003479 -330.311340 257.427948
   vertex -119.446609 -330.187561 258.039581
   vertex -119.588524 -331.410828 257.825195
  endloop
 endfacet
 facet normal 0.250450 -0.195241 0.948238
  outer loop
   vertex -119.588524 -331.410828 257.825195
   vertex -119.446609 -330.187561 258.039581
   vertex -119.772560 -331.441772 257.867432
  endloop
 endfacet
 facet normal 0.250445 -0.195240 0.948240
  outer loop
   vertex -119.772560 -331.441772 257.867432
   vertex -119.446609 -330.187561 258.039581
   vertex -120.182770 -330.311340 258.208527
  endloop
 endfacet
 facet normal -0.343110 -0.383262 0.857547
  outer loop
   vertex -120.182770 -330.311340 258.208527
   vertex -119.922050 -331.516479 257.774231
   vertex -119.772560 -331.441772 257.867432
  endloop
 endfacet
 facet normal -0.343045 -0.383258 0.857574
  outer loop
   vertex -120.780724 -330.610168 257.835785
   vertex -119.922050 -331.516479 257.774231
   vertex -120.182770 -330.311340 258.208527
  endloop
 endfacet
 facet normal -0.961833 -0.161717 0.220738
  outer loop
   vertex -135.318146 -332.413696 268.466400
   vertex -135.551407 -331.507385 268.113983
   vertex -135.345520 -332.488403 268.292389
  endloop
 endfacet
 facet normal -0.961833 -0.161717 0.220738
  outer loop
   vertex -135.345520 -332.488403 268.292389
   vertex -135.551407 -331.507385 268.113983
   vertex -135.578781 -331.582092 267.939972
  endloop
 endfacet
 facet normal -0.781249 -0.390453 -0.487029
  outer loop
   vertex -135.578781 -331.582092 267.939972
   vertex -135.234741 -332.519348 268.139496
   vertex -135.345520 -332.488403 268.292389
  endloop
 endfacet
 facet normal -0.781249 -0.390453 -0.487029
  outer loop
   vertex -135.468002 -331.613037 267.787079
   vertex -135.234741 -332.519348 268.139496
   vertex -135.578781 -331.582092 267.939972
  endloop
 endfacet
 facet normal -0.143052 -0.390452 -0.909441
  outer loop
   vertex -135.050690 -332.488403 268.097260
   vertex -135.234741 -332.519348 268.139496
   vertex -135.468002 -331.613037 267.787079
  endloop
 endfacet
 facet normal -0.143052 -0.390452 -0.909441
  outer loop
   vertex -135.468002 -331.613037 267.787079
   vertex -135.283951 -331.582092 267.744843
   vertex -135.050690 -332.488403 268.097260
  endloop
 endfacet
 facet normal 0.578961 -0.161739 -0.799153
  outer loop
   vertex -135.050690 -332.488403 268.097260
   vertex -135.283951 -331.582092 267.744843
   vertex -134.901215 -332.413696 268.190430
  endloop
 endfacet
 facet normal 0.579021 -0.161693 -0.799118
  outer loop
   vertex -134.901215 -332.413696 268.190430
   vertex -135.283951 -331.582092 267.744843
   vertex -135.134460 -331.507385 267.838043
  endloop
 endfacet
 facet normal 0.961840 0.161724 -0.220703
  outer loop
   vertex -135.134460 -331.507385 267.838043
   vertex -134.873840 -332.338989 268.364471
   vertex -134.901215 -332.413696 268.190430
  endloop
 endfacet
 facet normal 0.961844 0.161747 -0.220668
  outer loop
   vertex -135.107101 -331.432678 268.012054
   vertex -134.873840 -332.338989 268.364471
   vertex -135.134460 -331.507385 267.838043
  endloop
 endfacet
 facet normal 0.781249 0.390453 0.487029
  outer loop
   vertex -134.984619 -332.308044 268.517365
   vertex -134.873840 -332.338989 268.364471
   vertex -135.107101 -331.432678 268.012054
  endloop
 endfacet
 facet normal 0.781249 0.390453 0.487029
  outer loop
   vertex -135.107101 -331.432678 268.012054
   vertex -135.217880 -331.401733 268.164948
   vertex -134.984619 -332.308044 268.517365
  endloop
 endfacet
 facet normal 0.143052 0.390452 0.909441
  outer loop
   vertex -134.984619 -332.308044 268.517365
   vertex -135.217880 -331.401733 268.164948
   vertex -135.168671 -332.338989 268.559601
  endloop
 endfacet
 facet normal 0.143064 0.390452 0.909439
  outer loop
   vertex -135.168671 -332.338989 268.559601
   vertex -135.217880 -331.401733 268.164948
   vertex -135.401917 -331.432678 268.207184
  endloop
 endfacet
 facet normal -0.579062 0.161697 0.799087
  outer loop
   vertex -135.401917 -331.432678 268.207184
   vertex -135.318146 -332.413696 268.466400
   vertex -135.168671 -332.338989 268.559601
  endloop
 endfacet
 facet normal -0.579024 0.161707 0.799113
  outer loop
   vertex -135.551407 -331.507385 268.113983
   vertex -135.318146 -332.413696 268.466400
   vertex -135.401917 -331.432678 268.207184
  endloop
 endfacet
 facet normal -0.578975 0.161732 0.799144
  outer loop
   vertex -135.809784 -330.311340 268.551819
   vertex -136.043045 -329.405029 268.199402
   vertex -136.407745 -330.610168 268.179077
  endloop
 endfacet
 facet normal -0.578975 0.161732 0.799144
  outer loop
   vertex -136.407745 -330.610168 268.179077
   vertex -136.043045 -329.405029 268.199402
   vertex -136.641006 -329.703857 267.826660
  endloop
 endfacet
 facet normal -0.961839 -0.161736 0.220695
  outer loop
   vertex -136.641006 -329.703857 267.826660
   vertex -136.517212 -330.908997 267.483002
   vertex -136.407745 -330.610168 268.179077
  endloop
 endfacet
 facet normal -0.961839 -0.161736 0.220695
  outer loop
   vertex -136.750473 -330.002686 267.130585
   vertex -136.517212 -330.908997 267.483002
   vertex -136.641006 -329.703857 267.826660
  endloop
 endfacet
 facet normal -0.781262 -0.390449 -0.487010
  outer loop
   vertex -136.074081 -331.032776 266.871368
   vertex -136.517212 -330.908997 267.483002
   vertex -136.750473 -330.002686 267.130585
  endloop
 endfacet
 facet normal -0.781262 -0.390449 -0.487010
  outer loop
   vertex -136.750473 -330.002686 267.130585
   vertex -136.307343 -330.126465 266.518951
   vertex -136.074081 -331.032776 266.871368
  endloop
 endfacet
 facet normal -0.143026 -0.390448 -0.909447
  outer loop
   vertex -136.074081 -331.032776 266.871368
   vertex -136.307343 -330.126465 266.518951
   vertex -135.337921 -330.908997 266.702454
  endloop
 endfacet
 facet normal -0.143026 -0.390448 -0.909447
  outer loop
   vertex -135.337921 -330.908997 266.702454
   vertex -136.307343 -330.126465 266.518951
   vertex -135.571182 -330.002686 266.350037
  endloop
 endfacet
 facet normal 0.578984 -0.161728 -0.799138
  outer loop
   vertex -135.571182 -330.002686 266.350037
   vertex -134.739975 -330.610168 267.075195
   vertex -135.337921 -330.908997 266.702454
  endloop
 endfacet
 facet normal 0.578984 -0.161728 -0.799138
  outer loop
   vertex -134.973236 -329.703857 266.722778
   vertex -134.739975 -330.610168 267.075195
   vertex -135.571182 -330.002686 266.350037
  endloop
 endfacet
 facet normal 0.961837 0.161728 -0.220713
  outer loop
   vertex -134.630493 -330.311340 267.771271
   vertex -134.739975 -330.610168 267.075195
   vertex -134.973236 -329.703857 266.722778
  endloop
 endfacet
 facet normal 0.961837 0.161728 -0.220713
  outer loop
   vertex -134.973236 -329.703857 266.722778
   vertex -134.863754 -329.405029 267.418854
   vertex -134.630493 -330.311340 267.771271
  endloop
 endfacet
 facet normal 0.781262 0.390449 0.487010
  outer loop
   vertex -134.630493 -330.311340 267.771271
   vertex -134.863754 -329.405029 267.418854
   vertex -135.073624 -330.187561 268.382904
  endloop
 endfacet
 facet normal 0.781262 0.390449 0.487010
  outer loop
   vertex -135.073624 -330.187561 268.382904
   vertex -134.863754 -329.405029 267.418854
   vertex -135.306885 -329.281250 268.030487
  endloop
 endfacet
 facet normal 0.143026 0.390448 0.909447
  outer loop
   vertex -135.306885 -329.281250 268.030487
   vertex -135.809784 -330.311340 268.551819
   vertex -135.073624 -330.187561 268.382904
  endloop
 endfacet
 facet normal 0.143026 0.390448 0.909447
  outer loop
   vertex -136.043045 -329.405029 268.199402
   vertex -135.809784 -330.311340 268.551819
   vertex -135.306885 -329.281250 268.030487
  endloop
 endfacet
endsolid