solid stl file generated from DOUG
 facet normal 0.000000 0.130492 0.991449
  outer loop
   vertex -286.177979 82.661850 213.508469
   vertex -285.676819 82.661850 213.508469
   vertex -286.177979 82.910294 213.475769
  endloop
 endfacet
 facet normal -0.000000 0.130492 0.991449
  outer loop
   vertex -286.177979 82.910294 213.475769
   vertex -285.676819 82.661850 213.508469
   vertex -285.676819 82.910294 213.475769
  endloop
 endfacet
 facet normal 0.000000 0.923887 0.382665
  outer loop
   vertex -285.676819 82.910294 213.475769
   vertex -286.177979 83.006187 213.244247
   vertex -286.177979 82.910294 213.475769
  endloop
 endfacet
 facet normal -0.000000 0.923887 0.382665
  outer loop
   vertex -285.676819 83.006187 213.244247
   vertex -286.177979 83.006187 213.244247
   vertex -285.676819 82.910294 213.475769
  endloop
 endfacet
 facet normal 0.000000 0.793331 -0.608791
  outer loop
   vertex -286.177979 82.853638 213.045456
   vertex -286.177979 83.006187 213.244247
   vertex -285.676819 83.006187 213.244247
  endloop
 endfacet
 facet normal -0.000000 0.793331 -0.608791
  outer loop
   vertex -285.676819 83.006187 213.244247
   vertex -285.676819 82.853638 213.045456
   vertex -286.177979 82.853638 213.045456
  endloop
 endfacet
 facet normal -0.000000 -0.130492 -0.991449
  outer loop
   vertex -286.177979 82.853638 213.045456
   vertex -285.676819 82.853638 213.045456
   vertex -286.177979 82.605194 213.078156
  endloop
 endfacet
 facet normal -0.000000 -0.130492 -0.991449
  outer loop
   vertex -286.177979 82.605194 213.078156
   vertex -285.676819 82.853638 213.045456
   vertex -285.676819 82.605194 213.078156
  endloop
 endfacet
 facet normal 0.000000 -0.923878 -0.382686
  outer loop
   vertex -285.676819 82.605194 213.078156
   vertex -286.177979 82.509300 213.309662
   vertex -286.177979 82.605194 213.078156
  endloop
 endfacet
 facet normal 0.000000 -0.923878 -0.382686
  outer loop
   vertex -285.676819 82.509300 213.309662
   vertex -286.177979 82.509300 213.309662
   vertex -285.676819 82.605194 213.078156
  endloop
 endfacet
 facet normal 0.000000 -0.793353 0.608761
  outer loop
   vertex -286.177979 82.661850 213.508469
   vertex -286.177979 82.509300 213.309662
   vertex -285.676819 82.509300 213.309662
  endloop
 endfacet
 facet normal -0.000000 -0.793353 0.608761
  outer loop
   vertex -285.676819 82.509300 213.309662
   vertex -285.676819 82.661850 213.508469
   vertex -286.177979 82.661850 213.508469
  endloop
 endfacet
 facet normal 0.000000 0.793353 -0.608761
  outer loop
   vertex -285.676819 74.398132 233.458847
   vertex -286.177979 74.398132 233.458847
   vertex -285.676819 74.550682 233.657654
  endloop
 endfacet
 facet normal -0.000000 0.793353 -0.608761
  outer loop
   vertex -285.676819 74.550682 233.657654
   vertex -286.177979 74.398132 233.458847
   vertex -286.177979 74.550682 233.657654
  endloop
 endfacet
 facet normal 0.000000 0.923878 0.382686
  outer loop
   vertex -286.177979 74.550682 233.657654
   vertex -285.676819 74.454788 233.889160
   vertex -285.676819 74.550682 233.657654
  endloop
 endfacet
 facet normal 0.000000 0.923878 0.382686
  outer loop
   vertex -286.177979 74.454788 233.889160
   vertex -285.676819 74.454788 233.889160
   vertex -286.177979 74.550682 233.657654
  endloop
 endfacet
 facet normal 0.000000 0.130492 0.991449
  outer loop
   vertex -285.676819 74.206345 233.921860
   vertex -285.676819 74.454788 233.889160
   vertex -286.177979 74.454788 233.889160
  endloop
 endfacet
 facet normal -0.000000 0.130492 0.991449
  outer loop
   vertex -286.177979 74.454788 233.889160
   vertex -286.177979 74.206345 233.921860
   vertex -285.676819 74.206345 233.921860
  endloop
 endfacet
 facet normal 0.000000 -0.793331 0.608791
  outer loop
   vertex -285.676819 74.206345 233.921860
   vertex -286.177979 74.206345 233.921860
   vertex -285.676819 74.053795 233.723068
  endloop
 endfacet
 facet normal -0.000000 -0.793331 0.608791
  outer loop
   vertex -285.676819 74.053795 233.723068
   vertex -286.177979 74.206345 233.921860
   vertex -286.177979 74.053795 233.723068
  endloop
 endfacet
 facet normal 0.000000 -0.923887 -0.382665
  outer loop
   vertex -286.177979 74.053795 233.723068
   vertex -285.676819 74.149689 233.491547
   vertex -285.676819 74.053795 233.723068
  endloop
 endfacet
 facet normal -0.000000 -0.923887 -0.382665
  outer loop
   vertex -286.177979 74.149689 233.491547
   vertex -285.676819 74.149689 233.491547
   vertex -286.177979 74.053795 233.723068
  endloop
 endfacet
 facet normal -0.000000 -0.130492 -0.991449
  outer loop
   vertex -285.676819 74.398132 233.458847
   vertex -285.676819 74.149689 233.491547
   vertex -286.177979 74.149689 233.491547
  endloop
 endfacet
 facet normal 0.000000 -0.130492 -0.991449
  outer loop
   vertex -286.177979 74.149689 233.491547
   vertex -286.177979 74.398132 233.458847
   vertex -285.676819 74.398132 233.458847
  endloop
 endfacet
 facet normal -1.000000 0.000000 0.000000
  outer loop
   vertex -286.177979 74.454788 233.889160
   vertex -286.177979 74.550682 233.657654
   vertex -286.177979 74.302238 233.690353
  endloop
 endfacet
 facet normal -1.000000 -0.000000 -0.000000
  outer loop
   vertex -286.177979 74.302238 233.690353
   vertex -286.177979 74.550682 233.657654
   vertex -286.177979 74.398132 233.458847
  endloop
 endfacet
 facet normal -1.000000 0.000000 0.000000
  outer loop
   vertex -286.177979 74.398132 233.458847
   vertex -286.177979 74.149689 233.491547
   vertex -286.177979 74.302238 233.690353
  endloop
 endfacet
 facet normal -1.000000 0.000000 -0.000000
  outer loop
   vertex -286.177979 82.509300 213.309662
   vertex -286.177979 82.661850 213.508469
   vertex -286.177979 82.757744 213.276962
  endloop
 endfacet
 facet normal -1.000000 -0.000000 -0.000000
  outer loop
   vertex -286.177979 82.757744 213.276962
   vertex -286.177979 82.661850 213.508469
   vertex -286.177979 82.910294 213.475769
  endloop
 endfacet
 facet normal -1.000000 0.000000 0.000000
  outer loop
   vertex -286.177979 82.910294 213.475769
   vertex -286.177979 83.006187 213.244247
   vertex -286.177979 82.757744 213.276962
  endloop
 endfacet
 facet normal -1.000000 0.000000 0.000000
  outer loop
   vertex -286.177979 83.006187 213.244247
   vertex -286.177979 82.853638 213.045456
   vertex -286.177979 82.757744 213.276962
  endloop
 endfacet
 facet normal -1.000000 -0.000000 -0.000000
  outer loop
   vertex -286.177979 82.757744 213.276962
   vertex -286.177979 82.853638 213.045456
   vertex -286.177979 82.605194 213.078156
  endloop
 endfacet
 facet normal -1.000000 0.000000 0.000000
  outer loop
   vertex -286.177979 82.605194 213.078156
   vertex -286.177979 82.509300 213.309662
   vertex -286.177979 82.757744 213.276962
  endloop
 endfacet
 facet normal -1.000000 0.000000 0.000000
  outer loop
   vertex -286.177979 74.149689 233.491547
   vertex -286.177979 74.053795 233.723068
   vertex -286.177979 74.302238 233.690353
  endloop
 endfacet
 facet normal -1.000000 0.000000 -0.000000
  outer loop
   vertex -286.177979 74.302238 233.690353
   vertex -286.177979 74.053795 233.723068
   vertex -286.177979 74.206345 233.921860
  endloop
 endfacet
 facet normal -1.000000 -0.000000 0.000000
  outer loop
   vertex -286.177979 74.206345 233.921860
   vertex -286.177979 74.454788 233.889160
   vertex -286.177979 74.302238 233.690353
  endloop
 endfacet
 facet normal -1.000000 0.000000 0.000000
  outer loop
   vertex -284.143219 81.622810 214.383469
   vertex -284.143219 82.777840 214.861893
   vertex -284.143219 82.767570 211.619766
  endloop
 endfacet
 facet normal -1.000000 -0.000000 -0.000000
  outer loop
   vertex -284.143219 82.767570 211.619766
   vertex -284.143219 82.777840 214.861893
   vertex -284.143219 83.922600 212.098206
  endloop
 endfacet
 facet normal 0.000000 0.382691 -0.923877
  outer loop
   vertex -284.143219 83.922600 212.098206
   vertex -282.754639 82.767570 211.619766
   vertex -284.143219 82.767570 211.619766
  endloop
 endfacet
 facet normal -0.000000 0.382691 -0.923877
  outer loop
   vertex -282.754639 83.922600 212.098206
   vertex -282.754639 82.767570 211.619766
   vertex -284.143219 83.922600 212.098206
  endloop
 endfacet
 facet normal 1.000000 0.000000 0.000000
  outer loop
   vertex -282.754639 82.777840 214.861893
   vertex -282.754639 82.767570 211.619766
   vertex -282.754639 83.922600 212.098206
  endloop
 endfacet
 facet normal -0.000000 0.923879 0.382684
  outer loop
   vertex -282.754639 83.922600 212.098206
   vertex -284.143219 82.777840 214.861893
   vertex -282.754639 82.777840 214.861893
  endloop
 endfacet
 facet normal 0.000000 -0.382680 0.923881
  outer loop
   vertex -282.754639 82.777840 214.861893
   vertex -284.143219 82.777840 214.861893
   vertex -282.754639 81.622810 214.383469
  endloop
 endfacet
 facet normal -0.000000 -0.382680 0.923881
  outer loop
   vertex -282.754639 81.622810 214.383469
   vertex -284.143219 82.777840 214.861893
   vertex -284.143219 81.622810 214.383469
  endloop
 endfacet
 facet normal 0.000000 -0.923880 -0.382683
  outer loop
   vertex -284.143219 81.622810 214.383469
   vertex -282.754639 82.767570 211.619766
   vertex -282.754639 81.622810 214.383469
  endloop
 endfacet
 facet normal -0.000000 -0.923880 -0.382683
  outer loop
   vertex -284.143219 82.767570 211.619766
   vertex -282.754639 82.767570 211.619766
   vertex -284.143219 81.622810 214.383469
  endloop
 endfacet
 facet normal 0.000000 -0.382691 0.923877
  outer loop
   vertex -282.754639 73.137383 234.869110
   vertex -282.754639 74.292412 235.347549
   vertex -284.143219 73.137383 234.869110
  endloop
 endfacet
 facet normal -0.000000 -0.382691 0.923877
  outer loop
   vertex -284.143219 73.137383 234.869110
   vertex -282.754639 74.292412 235.347549
   vertex -284.143219 74.292412 235.347549
  endloop
 endfacet
 facet normal -1.000000 0.000000 0.000000
  outer loop
   vertex -284.143219 74.292412 235.347549
   vertex -284.143219 74.282143 232.105423
   vertex -284.143219 73.137383 234.869110
  endloop
 endfacet
 facet normal -1.000000 -0.000000 -0.000000
  outer loop
   vertex -284.143219 75.437172 232.583847
   vertex -284.143219 74.282143 232.105423
   vertex -284.143219 74.292412 235.347549
  endloop
 endfacet
 facet normal 0.000000 0.382680 -0.923881
  outer loop
   vertex -282.754639 75.437172 232.583847
   vertex -284.143219 74.282143 232.105423
   vertex -284.143219 75.437172 232.583847
  endloop
 endfacet
 facet normal -0.000000 0.923880 0.382683
  outer loop
   vertex -284.143219 75.437172 232.583847
   vertex -282.754639 74.292412 235.347549
   vertex -282.754639 75.437172 232.583847
  endloop
 endfacet
 facet normal 1.000000 0.000000 0.000000
  outer loop
   vertex -282.754639 75.437172 232.583847
   vertex -282.754639 74.292412 235.347549
   vertex -282.754639 74.282143 232.105423
  endloop
 endfacet
 facet normal 1.000000 -0.000000 -0.000000
  outer loop
   vertex -282.754639 74.282143 232.105423
   vertex -282.754639 74.292412 235.347549
   vertex -282.754639 73.137383 234.869110
  endloop
 endfacet
 facet normal 0.000000 -0.923879 -0.382684
  outer loop
   vertex -282.754639 73.137383 234.869110
   vertex -284.143219 74.282143 232.105423
   vertex -282.754639 74.282143 232.105423
  endloop
 endfacet
 facet normal -0.000000 -0.923879 -0.382684
  outer loop
   vertex -284.143219 73.137383 234.869110
   vertex -284.143219 74.282143 232.105423
   vertex -282.754639 73.137383 234.869110
  endloop
 endfacet
 facet normal -0.000000 0.923880 0.382683
  outer loop
   vertex -284.143219 75.437172 232.583847
   vertex -284.143219 74.292412 235.347549
   vertex -282.754639 74.292412 235.347549
  endloop
 endfacet
 facet normal 0.000000 0.923879 0.382684
  outer loop
   vertex -284.143219 83.922600 212.098206
   vertex -284.143219 82.777840 214.861893
   vertex -282.754639 83.922600 212.098206
  endloop
 endfacet
 facet normal 0.000000 0.382680 -0.923881
  outer loop
   vertex -282.754639 75.437172 232.583847
   vertex -282.754639 74.282143 232.105423
   vertex -284.143219 74.282143 232.105423
  endloop
 endfacet
 facet normal 1.000000 -0.000000 0.000000
  outer loop
   vertex -282.754639 82.777840 214.861893
   vertex -282.754639 81.622810 214.383469
   vertex -282.754639 82.767570 211.619766
  endloop
 endfacet
 facet normal -1.000000 0.000000 0.000000
  outer loop
   vertex -286.913055 81.558304 214.121384
   vertex -286.913055 74.152473 232.287079
   vertex -286.913055 81.659569 214.163330
  endloop
 endfacet
 facet normal -0.593840 0.743338 0.307900
  outer loop
   vertex -286.913055 81.659569 214.163330
   vertex -286.913055 74.152473 232.287079
   vertex -286.796173 81.739273 214.196335
  endloop
 endfacet
 facet normal -0.610660 0.731614 0.303045
  outer loop
   vertex -286.972229 75.771538 232.148560
   vertex -286.889130 75.387321 233.243591
   vertex -286.889130 75.830742 232.173080
  endloop
 endfacet
 facet normal -0.000000 0.923879 0.382684
  outer loop
   vertex -286.889130 75.830742 232.173080
   vertex -286.889130 75.387321 233.243591
   vertex -286.047485 75.387321 233.243591
  endloop
 endfacet
 facet normal 0.000000 -0.923881 -0.382679
  outer loop
   vertex -286.047485 81.672661 213.723724
   vertex -286.889130 81.229240 214.794250
   vertex -286.889130 81.672661 213.723724
  endloop
 endfacet
 facet normal -0.610625 -0.731640 -0.303051
  outer loop
   vertex -286.889130 81.672661 213.723724
   vertex -286.889130 81.229240 214.794250
   vertex -286.972229 81.288445 214.818756
  endloop
 endfacet
 facet normal -0.593809 -0.743359 -0.307909
  outer loop
   vertex -286.796173 75.320717 232.770981
   vertex -286.913055 75.400414 232.803986
   vertex -286.913055 82.907509 214.680237
  endloop
 endfacet
 facet normal -1.000000 -0.000000 -0.000000
  outer loop
   vertex -286.913055 82.907509 214.680237
   vertex -286.913055 75.400414 232.803986
   vertex -286.913055 83.008781 214.722183
  endloop
 endfacet
 facet normal -0.933484 -0.331321 -0.137236
  outer loop
   vertex -286.144318 74.082176 232.257950
   vertex -286.144348 81.589272 214.134216
   vertex -286.131439 74.051201 232.245132
  endloop
 endfacet
 facet normal -0.933195 -0.332015 -0.137525
  outer loop
   vertex -286.131439 74.051201 232.245132
   vertex -286.144348 81.589272 214.134216
   vertex -286.131439 81.558304 214.121384
  endloop
 endfacet
 facet normal -0.000000 -0.923880 -0.382683
  outer loop
   vertex -286.131439 81.558304 214.121384
   vertex -286.060822 74.051201 232.245132
   vertex -286.131439 74.051201 232.245132
  endloop
 endfacet
 facet normal 0.000002 -0.382650 0.923893
  outer loop
   vertex -286.889130 73.850883 232.607178
   vertex -286.873535 74.070534 232.698151
   vertex -286.972229 73.910088 232.631699
  endloop
 endfacet
 facet normal 0.000128 -0.382716 0.923866
  outer loop
   vertex -286.972229 73.910088 232.631699
   vertex -286.873535 74.070534 232.698151
   vertex -286.972229 74.056946 232.692535
  endloop
 endfacet
 facet normal -1.000000 0.000000 0.000000
  outer loop
   vertex -286.972229 74.056946 232.692535
   vertex -286.972229 74.353508 231.561188
   vertex -286.972229 73.910088 232.631699
  endloop
 endfacet
 facet normal 0.000002 0.382650 -0.923893
  outer loop
   vertex -286.889130 83.209099 214.360138
   vertex -286.873535 82.989449 214.269165
   vertex -286.972229 83.149895 214.335617
  endloop
 endfacet
 facet normal 0.000128 0.382716 -0.923866
  outer loop
   vertex -286.972229 83.149895 214.335617
   vertex -286.873535 82.989449 214.269165
   vertex -286.972229 83.003036 214.274780
  endloop
 endfacet
 facet normal -1.000000 0.000000 0.000000
  outer loop
   vertex -286.972229 83.003036 214.274780
   vertex -286.972229 82.706474 215.406128
   vertex -286.972229 83.149895 214.335617
  endloop
 endfacet
 facet normal -0.000015 0.382716 -0.923866
  outer loop
   vertex -286.972229 75.624680 232.087723
   vertex -286.972229 75.771538 232.148560
   vertex -286.873535 75.611092 232.082092
  endloop
 endfacet
 facet normal -0.000041 0.382703 -0.923872
  outer loop
   vertex -286.873535 75.611092 232.082092
   vertex -286.972229 75.771538 232.148560
   vertex -286.889130 75.830742 232.173080
  endloop
 endfacet
 facet normal 0.000000 0.382705 -0.923871
  outer loop
   vertex -286.889130 75.830742 232.173080
   vertex -286.047485 75.830742 232.173080
   vertex -286.873535 75.611092 232.082092
  endloop
 endfacet
 facet normal 0.000000 0.923879 0.382684
  outer loop
   vertex -286.047485 75.387321 233.243591
   vertex -286.047485 75.830742 232.173080
   vertex -286.889130 75.830742 232.173080
  endloop
 endfacet
 facet normal -0.593809 -0.743359 -0.307909
  outer loop
   vertex -286.913055 82.907509 214.680237
   vertex -286.796173 82.827812 214.647232
   vertex -286.796173 75.320717 232.770981
  endloop
 endfacet
 facet normal -1.000000 -0.000000 -0.000000
  outer loop
   vertex -286.796173 75.320717 232.770981
   vertex -286.796173 82.827812 214.647232
   vertex -286.796173 81.739273 214.196335
  endloop
 endfacet
 facet normal -1.000000 0.000000 0.000000
  outer loop
   vertex -286.796173 81.739273 214.196335
   vertex -286.796173 74.232170 232.320084
   vertex -286.796173 75.320717 232.770981
  endloop
 endfacet
 facet normal -0.593809 0.743359 0.307910
  outer loop
   vertex -286.913055 74.152473 232.287079
   vertex -286.796173 74.232170 232.320084
   vertex -286.796173 81.739273 214.196335
  endloop
 endfacet
 facet normal -0.000007 -0.923879 -0.382684
  outer loop
   vertex -286.047485 81.672661 213.723724
   vertex -286.047485 81.229240 214.794235
   vertex -286.889130 81.229240 214.794250
  endloop
 endfacet
 facet normal 0.000017 -0.382651 0.923893
  outer loop
   vertex -286.889130 81.229240 214.794250
   vertex -286.047485 81.229240 214.794235
   vertex -286.873535 81.448891 214.885223
  endloop
 endfacet
 facet normal -0.000159 -0.382641 0.923897
  outer loop
   vertex -286.873535 81.448891 214.885223
   vertex -286.972229 81.288445 214.818756
   vertex -286.889130 81.229240 214.794250
  endloop
 endfacet
 facet normal -0.000015 -0.382716 0.923866
  outer loop
   vertex -286.972229 81.435303 214.879593
   vertex -286.972229 81.288445 214.818756
   vertex -286.873535 81.448891 214.885223
  endloop
 endfacet
 facet normal 0.933480 -0.331331 -0.137242
  outer loop
   vertex -286.757874 81.589272 214.134216
   vertex -286.757874 74.082176 232.257950
   vertex -286.770752 81.558304 214.121384
  endloop
 endfacet
 facet normal 0.933484 -0.331321 -0.137238
  outer loop
   vertex -286.770752 81.558304 214.121384
   vertex -286.757874 74.082176 232.257950
   vertex -286.770752 74.051201 232.245132
  endloop
 endfacet
 facet normal 0.000000 -0.923880 -0.382683
  outer loop
   vertex -286.770752 74.051201 232.245132
   vertex -286.913055 81.558304 214.121384
   vertex -286.770752 81.558304 214.121384
  endloop
 endfacet
 facet normal -0.000000 -0.923880 -0.382683
  outer loop
   vertex -286.913055 74.051201 232.245132
   vertex -286.913055 81.558304 214.121384
   vertex -286.770752 74.051201 232.245132
  endloop
 endfacet
 facet normal -1.000000 0.000000 0.000000
  outer loop
   vertex -286.913055 74.152473 232.287079
   vertex -286.913055 81.558304 214.121384
   vertex -286.913055 74.051201 232.245132
  endloop
 endfacet
 facet normal -1.000000 0.000000 -0.000000
  outer loop
   vertex -285.697205 82.462326 212.533432
   vertex -285.697205 82.861671 214.482788
   vertex -285.697205 83.492393 212.960098
  endloop
 endfacet
 facet normal -0.000000 0.923879 0.382685
  outer loop
   vertex -285.697205 83.492393 212.960098
   vertex -285.697205 82.861671 214.482788
   vertex -284.156158 83.492393 212.960098
  endloop
 endfacet
 facet normal 0.000000 0.382682 -0.923880
  outer loop
   vertex -284.156158 83.492393 212.960098
   vertex -284.156158 82.462326 212.533432
   vertex -285.697205 83.492393 212.960098
  endloop
 endfacet
 facet normal 1.000000 -0.000000 -0.000000
  outer loop
   vertex -284.156158 82.861671 214.482788
   vertex -284.156158 82.462326 212.533432
   vertex -284.156158 83.492393 212.960098
  endloop
 endfacet
 facet normal 1.000000 0.000000 -0.000000
  outer loop
   vertex -284.156158 81.831604 214.056122
   vertex -284.156158 82.462326 212.533432
   vertex -284.156158 82.861671 214.482788
  endloop
 endfacet
 facet normal -0.000000 -0.382682 0.923880
  outer loop
   vertex -284.156158 82.861671 214.482788
   vertex -285.697205 82.861671 214.482788
   vertex -284.156158 81.831604 214.056122
  endloop
 endfacet
 facet normal 0.000000 -0.382682 0.923880
  outer loop
   vertex -284.156158 81.831604 214.056122
   vertex -285.697205 82.861671 214.482788
   vertex -285.697205 81.831604 214.056122
  endloop
 endfacet
 facet normal -1.000000 -0.000000 -0.000000
  outer loop
   vertex -285.697205 81.831604 214.056122
   vertex -285.697205 82.861671 214.482788
   vertex -285.697205 82.462326 212.533432
  endloop
 endfacet
 facet normal -0.000000 -0.923879 -0.382685
  outer loop
   vertex -285.697205 82.462326 212.533432
   vertex -284.156158 82.462326 212.533432
   vertex -285.697205 81.831604 214.056122
  endloop
 endfacet
 facet normal -0.000000 0.382682 -0.923880
  outer loop
   vertex -285.697205 83.492393 212.960098
   vertex -284.156158 82.462326 212.533432
   vertex -285.697205 82.462326 212.533432
  endloop
 endfacet
 facet normal 0.000000 -0.923879 -0.382685
  outer loop
   vertex -285.697205 73.567589 234.007217
   vertex -285.697205 74.198311 232.484528
   vertex -284.156158 73.567589 234.007217
  endloop
 endfacet
 facet normal 0.000000 -0.923879 -0.382685
  outer loop
   vertex -284.156158 73.567589 234.007217
   vertex -285.697205 74.198311 232.484528
   vertex -284.156158 74.198311 232.484528
  endloop
 endfacet
 facet normal 1.000000 0.000000 0.000000
  outer loop
   vertex -284.156158 74.198311 232.484528
   vertex -284.156158 74.597656 234.433884
   vertex -284.156158 73.567589 234.007217
  endloop
 endfacet
 facet normal 1.000000 -0.000000 0.000000
  outer loop
   vertex -284.156158 75.228378 232.911194
   vertex -284.156158 74.597656 234.433884
   vertex -284.156158 74.198311 232.484528
  endloop
 endfacet
 facet normal 0.000000 0.923879 0.382685
  outer loop
   vertex -285.697205 75.228378 232.911194
   vertex -284.156158 74.597656 234.433884
   vertex -284.156158 75.228378 232.911194
  endloop
 endfacet
 facet normal -0.000000 0.382682 -0.923880
  outer loop
   vertex -284.156158 75.228378 232.911194
   vertex -285.697205 74.198311 232.484528
   vertex -285.697205 75.228378 232.911194
  endloop
 endfacet
 facet normal -1.000000 0.000000 0.000000
  outer loop
   vertex -285.697205 75.228378 232.911194
   vertex -285.697205 74.198311 232.484528
   vertex -285.697205 74.597656 234.433899
  endloop
 endfacet
 facet normal -1.000000 -0.000000 0.000000
  outer loop
   vertex -285.697205 74.597656 234.433899
   vertex -285.697205 74.198311 232.484528
   vertex -285.697205 73.567589 234.007217
  endloop
 endfacet
 facet normal 0.000009 -0.382694 0.923875
  outer loop
   vertex -285.697205 73.567589 234.007217
   vertex -284.156158 74.597656 234.433884
   vertex -285.697205 74.597656 234.433899
  endloop
 endfacet
 facet normal -0.000000 -0.382682 0.923880
  outer loop
   vertex -284.156158 73.567589 234.007217
   vertex -284.156158 74.597656 234.433884
   vertex -285.697205 73.567589 234.007217
  endloop
 endfacet
 facet normal 1.000000 0.000000 0.000000
  outer loop
   vertex -285.082214 83.759216 211.512482
   vertex -285.082214 83.625275 211.835831
   vertex -285.082214 83.163338 211.644501
  endloop
 endfacet
 facet normal -1.000000 -0.000000 -0.000000
  outer loop
   vertex -285.082214 83.163338 211.644501
   vertex -285.082214 83.625275 211.835831
   vertex -285.082214 83.461273 211.578491
  endloop
 endfacet
 facet normal -1.000000 0.000000 0.000000
  outer loop
   vertex -285.082214 83.461273 211.578491
   vertex -285.082214 83.297272 211.321136
   vertex -285.082214 83.163338 211.644501
  endloop
 endfacet
 facet normal -1.000000 -0.000000 -0.000000
  outer loop
   vertex -285.082214 83.759216 211.512482
   vertex -285.082214 83.297272 211.321136
   vertex -285.082214 83.461273 211.578491
  endloop
 endfacet
 facet normal 0.000000 0.382686 -0.923878
  outer loop
   vertex -284.082214 83.297272 211.321136
   vertex -285.082214 83.297272 211.321136
   vertex -285.082214 83.759216 211.512482
  endloop
 endfacet
 facet normal -0.000000 0.382686 -0.923878
  outer loop
   vertex -285.082214 83.759216 211.512482
   vertex -284.082214 83.759216 211.512482
   vertex -284.082214 83.297272 211.321136
  endloop
 endfacet
 facet normal 1.000000 0.000000 0.000000
  outer loop
   vertex -284.082214 83.297272 211.321136
   vertex -284.082214 83.759216 211.512482
   vertex -284.082214 82.646713 212.891739
  endloop
 endfacet
 facet normal 1.000000 -0.000000 -0.000000
  outer loop
   vertex -284.082214 82.646713 212.891739
   vertex -284.082214 83.759216 211.512482
   vertex -284.082214 83.108650 213.083069
  endloop
 endfacet
 facet normal 0.000000 -0.382665 0.923887
  outer loop
   vertex -284.082214 83.108650 213.083069
   vertex -285.082214 83.108650 213.083069
   vertex -284.082214 82.646713 212.891739
  endloop
 endfacet
 facet normal -0.000000 0.923875 0.382694
  outer loop
   vertex -284.832214 83.268227 212.697830
   vertex -285.082214 83.108650 213.083069
   vertex -284.082214 83.108650 213.083069
  endloop
 endfacet
 facet normal 0.000007 0.923873 0.382698
  outer loop
   vertex -285.082214 83.242592 212.759720
   vertex -285.082214 83.108650 213.083069
   vertex -284.832214 83.268227 212.697830
  endloop
 endfacet
 facet normal 0.000000 -0.923875 -0.382694
  outer loop
   vertex -284.832214 73.791756 234.269485
   vertex -285.082214 73.951332 233.884247
   vertex -284.082214 73.951332 233.884247
  endloop
 endfacet
 facet normal -0.000000 0.382665 -0.923887
  outer loop
   vertex -284.082214 73.951332 233.884247
   vertex -285.082214 73.951332 233.884247
   vertex -284.082214 74.413269 234.075577
  endloop
 endfacet
 facet normal 1.000000 0.000000 0.000000
  outer loop
   vertex -284.082214 74.413269 234.075577
   vertex -284.082214 73.300766 235.454834
   vertex -284.082214 73.951332 233.884247
  endloop
 endfacet
 facet normal 1.000000 -0.000000 -0.000000
  outer loop
   vertex -284.082214 73.762711 235.646179
   vertex -284.082214 73.300766 235.454834
   vertex -284.082214 74.413269 234.075577
  endloop
 endfacet
 facet normal 0.000000 -0.382686 0.923878
  outer loop
   vertex -285.082214 73.300766 235.454834
   vertex -284.082214 73.300766 235.454834
   vertex -284.082214 73.762711 235.646179
  endloop
 endfacet
 facet normal -0.000000 -0.382686 0.923878
  outer loop
   vertex -284.082214 73.762711 235.646179
   vertex -285.082214 73.762711 235.646179
   vertex -285.082214 73.300766 235.454834
  endloop
 endfacet
 facet normal -1.000000 0.000000 0.000000
  outer loop
   vertex -285.082214 73.300766 235.454834
   vertex -285.082214 73.762711 235.646179
   vertex -285.082214 73.598709 235.388824
  endloop
 endfacet
 facet normal -1.000000 -0.000000 -0.000000
  outer loop
   vertex -285.082214 73.598709 235.388824
   vertex -285.082214 73.762711 235.646179
   vertex -285.082214 73.896652 235.322815
  endloop
 endfacet
 facet normal -1.000000 0.000000 0.000000
  outer loop
   vertex -285.082214 73.896652 235.322815
   vertex -285.082214 73.434708 235.131485
   vertex -285.082214 73.598709 235.388824
  endloop
 endfacet
 facet normal 1.000000 -0.000000 -0.000000
  outer loop
   vertex -285.082214 73.300766 235.454834
   vertex -285.082214 73.434708 235.131485
   vertex -285.082214 73.896652 235.322815
  endloop
 endfacet
 facet normal -1.000000 0.000000 0.000000
  outer loop
   vertex -285.082214 73.598709 235.388824
   vertex -285.082214 73.434708 235.131485
   vertex -285.082214 73.300766 235.454834
  endloop
 endfacet
 facet normal -1.000000 0.000000 -0.000000
  outer loop
   vertex -286.913055 75.400414 232.803986
   vertex -286.913055 75.501678 232.845932
   vertex -286.913055 83.008781 214.722183
  endloop
 endfacet
 facet normal -0.000000 0.923880 0.382683
  outer loop
   vertex -286.913055 83.008781 214.722183
   vertex -286.913055 75.501678 232.845932
   vertex -286.770752 75.501678 232.845932
  endloop
 endfacet
 facet normal 0.000000 0.923880 0.382683
  outer loop
   vertex -286.770752 75.501678 232.845932
   vertex -286.770752 83.008781 214.722183
   vertex -286.913055 83.008781 214.722183
  endloop
 endfacet
 facet normal 0.933480 0.331331 0.137242
  outer loop
   vertex -286.757874 75.470711 232.833099
   vertex -286.770752 83.008781 214.722183
   vertex -286.770752 75.501678 232.845932
  endloop
 endfacet
 facet normal 0.933484 0.331321 0.137238
  outer loop
   vertex -286.757874 82.977806 214.709366
   vertex -286.770752 83.008781 214.722183
   vertex -286.757874 75.470711 232.833099
  endloop
 endfacet
 facet normal 0.000000 0.923880 0.382683
  outer loop
   vertex -286.757874 75.470711 232.833099
   vertex -286.144318 75.470711 232.833099
   vertex -286.757874 82.977806 214.709366
  endloop
 endfacet
 facet normal 0.000000 0.923880 0.382683
  outer loop
   vertex -286.757874 82.977806 214.709366
   vertex -286.144318 75.470711 232.833099
   vertex -286.144348 82.977806 214.709366
  endloop
 endfacet
 facet normal -0.933480 0.331331 0.137243
  outer loop
   vertex -286.144348 82.977806 214.709366
   vertex -286.144318 75.470711 232.833099
   vertex -286.131439 75.501678 232.845932
  endloop
 endfacet
 facet normal -0.933199 0.332005 0.137521
  outer loop
   vertex -286.131439 75.501678 232.845932
   vertex -286.131439 83.008781 214.722183
   vertex -286.144348 82.977806 214.709366
  endloop
 endfacet
 facet normal -0.000000 0.923880 0.382683
  outer loop
   vertex -286.060822 75.501678 232.845932
   vertex -286.131439 83.008781 214.722183
   vertex -286.131439 75.501678 232.845932
  endloop
 endfacet
 facet normal -0.000000 0.923880 0.382683
  outer loop
   vertex -286.060822 83.008781 214.722183
   vertex -286.131439 83.008781 214.722183
   vertex -286.060822 75.501678 232.845932
  endloop
 endfacet
 facet normal 1.000000 -0.000000 -0.000000
  outer loop
   vertex -286.060822 75.501678 232.845932
   vertex -286.060822 74.051201 232.245132
   vertex -286.060822 83.008781 214.722183
  endloop
 endfacet
 facet normal 1.000000 0.000000 0.000000
  outer loop
   vertex -286.060822 83.008781 214.722183
   vertex -286.060822 74.051201 232.245132
   vertex -286.060822 81.558304 214.121384
  endloop
 endfacet
 facet normal -0.000000 -0.923880 -0.382683
  outer loop
   vertex -286.060822 81.558304 214.121384
   vertex -286.060822 74.051201 232.245132
   vertex -286.131439 81.558304 214.121384
  endloop
 endfacet
 facet normal -0.000000 -0.923887 -0.382666
  outer loop
   vertex -284.832214 82.806282 212.506485
   vertex -284.082214 82.646713 212.891739
   vertex -285.082214 82.646713 212.891739
  endloop
 endfacet
 facet normal -0.000000 -0.382665 0.923887
  outer loop
   vertex -285.082214 82.646713 212.891739
   vertex -284.082214 82.646713 212.891739
   vertex -285.082214 83.108650 213.083069
  endloop
 endfacet
 facet normal -1.000000 0.000000 0.000000
  outer loop
   vertex -285.082214 83.108650 213.083069
   vertex -285.082214 82.780647 212.568375
   vertex -285.082214 82.646713 212.891739
  endloop
 endfacet
 facet normal -1.000000 -0.000000 -0.000000
  outer loop
   vertex -285.082214 83.242592 212.759720
   vertex -285.082214 82.780647 212.568375
   vertex -285.082214 83.108650 213.083069
  endloop
 endfacet
 facet normal 1.000000 0.000000 0.000000
  outer loop
   vertex -285.082214 83.108650 213.083069
   vertex -285.082214 82.780647 212.568375
   vertex -285.082214 83.242592 212.759720
  endloop
 endfacet
 facet normal -0.000007 0.923873 0.382698
  outer loop
   vertex -285.082214 83.242592 212.759720
   vertex -285.332214 83.268227 212.697830
   vertex -285.082214 83.108650 213.083069
  endloop
 endfacet
 facet normal -0.000004 0.923874 0.382697
  outer loop
   vertex -285.082214 83.108650 213.083069
   vertex -285.332214 83.268227 212.697830
   vertex -285.507202 83.152229 212.977859
  endloop
 endfacet
 facet normal -0.000006 0.923874 0.382696
  outer loop
   vertex -285.507202 83.152229 212.977859
   vertex -285.332214 83.268227 212.697830
   vertex -285.515228 83.338264 212.528748
  endloop
 endfacet
 facet normal 0.000008 0.923875 0.382695
  outer loop
   vertex -285.515228 83.338264 212.528748
   vertex -285.818329 83.271294 212.690430
   vertex -285.507202 83.152229 212.977859
  endloop
 endfacet
 facet normal -0.000012 0.923888 0.382663
  outer loop
   vertex -285.582214 83.433929 212.297775
   vertex -285.818329 83.271294 212.690430
   vertex -285.515228 83.338264 212.528748
  endloop
 endfacet
 facet normal 0.000000 0.923885 0.382669
  outer loop
   vertex -285.932220 83.433929 212.297775
   vertex -285.818329 83.271294 212.690430
   vertex -285.582214 83.433929 212.297775
  endloop
 endfacet
 facet normal -0.000000 0.923878 0.382686
  outer loop
   vertex -285.582214 83.433929 212.297775
   vertex -285.515228 83.529602 212.066803
   vertex -285.932220 83.433929 212.297775
  endloop
 endfacet
 facet normal -0.000001 0.923879 0.382684
  outer loop
   vertex -285.932220 83.433929 212.297775
   vertex -285.515228 83.529602 212.066803
   vertex -285.818329 83.596573 211.905121
  endloop
 endfacet
 facet normal -0.000003 0.923878 0.382688
  outer loop
   vertex -285.818329 83.596573 211.905121
   vertex -285.515228 83.529602 212.066803
   vertex -285.332214 83.599640 211.897720
  endloop
 endfacet
 facet normal -0.000003 0.923873 0.382700
  outer loop
   vertex -285.332214 83.599640 211.897720
   vertex -285.507202 83.715637 211.617691
   vertex -285.818329 83.596573 211.905121
  endloop
 endfacet
 facet normal 0.000006 0.923875 0.382695
  outer loop
   vertex -285.082214 83.625275 211.835831
   vertex -285.507202 83.715637 211.617691
   vertex -285.332214 83.599640 211.897720
  endloop
 endfacet
 facet normal 0.000004 0.923873 0.382698
  outer loop
   vertex -285.082214 83.759216 211.512482
   vertex -285.507202 83.715637 211.617691
   vertex -285.082214 83.625275 211.835831
  endloop
 endfacet
 facet normal -0.000007 0.923873 0.382698
  outer loop
   vertex -285.082214 83.625275 211.835831
   vertex -284.832214 83.599640 211.897720
   vertex -285.082214 83.759216 211.512482
  endloop
 endfacet
 facet normal 0.000000 0.923875 0.382694
  outer loop
   vertex -285.082214 83.759216 211.512482
   vertex -284.832214 83.599640 211.897720
   vertex -284.082214 83.759216 211.512482
  endloop
 endfacet
 facet normal -0.000001 0.923876 0.382692
  outer loop
   vertex -284.082214 83.759216 211.512482
   vertex -284.832214 83.599640 211.897720
   vertex -284.649200 83.529602 212.066803
  endloop
 endfacet
 facet normal -0.000006 0.923878 0.382688
  outer loop
   vertex -284.649200 83.529602 212.066803
   vertex -284.582214 83.433929 212.297775
   vertex -284.082214 83.759216 211.512482
  endloop
 endfacet
 facet normal 0.000000 0.923887 0.382666
  outer loop
   vertex -284.832214 74.253700 234.460831
   vertex -284.082214 74.413269 234.075577
   vertex -285.082214 74.413269 234.075577
  endloop
 endfacet
 facet normal -0.000000 0.382665 -0.923887
  outer loop
   vertex -285.082214 74.413269 234.075577
   vertex -284.082214 74.413269 234.075577
   vertex -285.082214 73.951332 233.884247
  endloop
 endfacet
 facet normal -1.000000 0.000000 -0.000000
  outer loop
   vertex -285.082214 73.951332 233.884247
   vertex -285.082214 74.279335 234.398941
   vertex -285.082214 74.413269 234.075577
  endloop
 endfacet
 facet normal -1.000000 -0.000000 -0.000000
  outer loop
   vertex -285.082214 73.817390 234.207596
   vertex -285.082214 74.279335 234.398941
   vertex -285.082214 73.951332 233.884247
  endloop
 endfacet
 facet normal 1.000000 0.000000 0.000000
  outer loop
   vertex -285.082214 73.951332 233.884247
   vertex -285.082214 74.279335 234.398941
   vertex -285.082214 73.817390 234.207596
  endloop
 endfacet
 facet normal -0.000007 -0.923873 -0.382698
  outer loop
   vertex -285.082214 73.817390 234.207596
   vertex -285.332214 73.791756 234.269485
   vertex -285.082214 73.951332 233.884247
  endloop
 endfacet
 facet normal -0.000004 -0.923874 -0.382697
  outer loop
   vertex -285.082214 73.951332 233.884247
   vertex -285.332214 73.791756 234.269485
   vertex -285.507202 73.907753 233.989456
  endloop
 endfacet
 facet normal -0.000006 -0.923874 -0.382696
  outer loop
   vertex -285.507202 73.907753 233.989456
   vertex -285.332214 73.791756 234.269485
   vertex -285.515228 73.721718 234.438568
  endloop
 endfacet
 facet normal 0.000008 -0.923875 -0.382695
  outer loop
   vertex -285.515228 73.721718 234.438568
   vertex -285.818329 73.788689 234.276886
   vertex -285.507202 73.907753 233.989456
  endloop
 endfacet
 facet normal -0.000012 -0.923888 -0.382663
  outer loop
   vertex -285.582214 73.626053 234.669540
   vertex -285.818329 73.788689 234.276886
   vertex -285.515228 73.721718 234.438568
  endloop
 endfacet
 facet normal 0.000000 -0.923885 -0.382669
  outer loop
   vertex -285.932220 73.626053 234.669540
   vertex -285.818329 73.788689 234.276886
   vertex -285.582214 73.626053 234.669540
  endloop
 endfacet
 facet normal -0.000000 -0.923878 -0.382686
  outer loop
   vertex -285.582214 73.626053 234.669540
   vertex -285.515228 73.530380 234.900513
   vertex -285.932220 73.626053 234.669540
  endloop
 endfacet
 facet normal -0.000001 -0.923879 -0.382684
  outer loop
   vertex -285.932220 73.626053 234.669540
   vertex -285.515228 73.530380 234.900513
   vertex -285.818329 73.463409 235.062195
  endloop
 endfacet
 facet normal -0.000003 -0.923878 -0.382688
  outer loop
   vertex -285.818329 73.463409 235.062195
   vertex -285.515228 73.530380 234.900513
   vertex -285.332214 73.460342 235.069595
  endloop
 endfacet
 facet normal -0.000003 -0.923873 -0.382700
  outer loop
   vertex -285.332214 73.460342 235.069595
   vertex -285.507202 73.344345 235.349625
   vertex -285.818329 73.463409 235.062195
  endloop
 endfacet
 facet normal 0.000006 -0.923875 -0.382695
  outer loop
   vertex -285.082214 73.434708 235.131485
   vertex -285.507202 73.344345 235.349625
   vertex -285.332214 73.460342 235.069595
  endloop
 endfacet
 facet normal 0.000004 -0.923873 -0.382698
  outer loop
   vertex -285.082214 73.300766 235.454834
   vertex -285.507202 73.344345 235.349625
   vertex -285.082214 73.434708 235.131485
  endloop
 endfacet
 facet normal -0.000007 -0.923873 -0.382698
  outer loop
   vertex -285.082214 73.434708 235.131485
   vertex -284.832214 73.460342 235.069595
   vertex -285.082214 73.300766 235.454834
  endloop
 endfacet
 facet normal 0.000000 -0.923875 -0.382694
  outer loop
   vertex -285.082214 73.300766 235.454834
   vertex -284.832214 73.460342 235.069595
   vertex -284.082214 73.300766 235.454834
  endloop
 endfacet
 facet normal -0.000001 -0.923876 -0.382692
  outer loop
   vertex -284.082214 73.300766 235.454834
   vertex -284.832214 73.460342 235.069595
   vertex -284.649200 73.530380 234.900513
  endloop
 endfacet
 facet normal -0.000006 -0.923878 -0.382688
  outer loop
   vertex -284.649200 73.530380 234.900513
   vertex -284.582214 73.626053 234.669540
   vertex -284.082214 73.300766 235.454834
  endloop
 endfacet
 facet normal 0.455409 0.822513 0.340696
  outer loop
   vertex -286.047485 75.387321 233.243591
   vertex -285.556213 75.155151 233.147415
   vertex -286.047485 75.830742 232.173080
  endloop
 endfacet
 facet normal 0.455409 0.822513 0.340696
  outer loop
   vertex -286.047485 75.830742 232.173080
   vertex -285.556213 75.155151 233.147415
   vertex -285.556213 75.598572 232.076904
  endloop
 endfacet
 facet normal -0.000016 0.382683 -0.923880
  outer loop
   vertex -285.556213 75.598572 232.076904
   vertex -285.556213 74.526474 231.632828
   vertex -286.047485 75.830742 232.173080
  endloop
 endfacet
 facet normal 1.000000 -0.000000 -0.000000
  outer loop
   vertex -285.556213 75.155151 233.147415
   vertex -285.556213 74.526474 231.632828
   vertex -285.556213 75.598572 232.076904
  endloop
 endfacet
 facet normal 1.000000 0.000000 -0.000000
  outer loop
   vertex -285.556213 74.083054 232.703339
   vertex -285.556213 74.526474 231.632828
   vertex -285.556213 75.155151 233.147415
  endloop
 endfacet
 facet normal 0.000013 -0.382683 0.923880
  outer loop
   vertex -285.556213 75.155151 233.147415
   vertex -286.047485 73.850883 232.607178
   vertex -285.556213 74.083054 232.703339
  endloop
 endfacet
 facet normal 0.455401 -0.822517 -0.340698
  outer loop
   vertex -285.556213 74.083054 232.703339
   vertex -286.047485 73.850883 232.607178
   vertex -285.556213 74.526474 231.632828
  endloop
 endfacet
 facet normal 0.455401 -0.822517 -0.340698
  outer loop
   vertex -285.556213 74.526474 231.632828
   vertex -286.047485 73.850883 232.607178
   vertex -286.047485 74.294304 231.536667
  endloop
 endfacet
 facet normal -0.000013 0.382683 -0.923880
  outer loop
   vertex -286.047485 74.294304 231.536667
   vertex -286.047485 75.830742 232.173080
   vertex -285.556213 74.526474 231.632828
  endloop
 endfacet
 facet normal 0.000010 0.382683 -0.923880
  outer loop
   vertex -286.873535 74.513954 231.627640
   vertex -286.047485 75.830742 232.173080
   vertex -286.047485 74.294304 231.536667
  endloop
 endfacet
 facet normal 0.000006 0.382686 -0.923879
  outer loop
   vertex -286.873535 75.611092 232.082092
   vertex -286.047485 75.830742 232.173080
   vertex -286.873535 74.513954 231.627640
  endloop
 endfacet
 facet normal -1.000000 -0.000000 -0.000000
  outer loop
   vertex -286.873535 74.513954 231.627640
   vertex -286.873535 75.167671 233.152603
   vertex -286.873535 75.611092 232.082092
  endloop
 endfacet
 facet normal -0.147402 -0.913788 -0.378503
  outer loop
   vertex -286.873535 75.611092 232.082092
   vertex -286.873535 75.167671 233.152603
   vertex -286.972229 75.624680 232.087723
  endloop
 endfacet
 facet normal -0.147333 -0.913795 -0.378513
  outer loop
   vertex -286.972229 75.624680 232.087723
   vertex -286.873535 75.167671 233.152603
   vertex -286.972229 75.181252 233.158234
  endloop
 endfacet
 facet normal -1.000000 -0.000000 0.000000
  outer loop
   vertex -286.972229 75.181252 233.158234
   vertex -286.972229 75.771538 232.148560
   vertex -286.972229 75.624680 232.087723
  endloop
 endfacet
 facet normal -1.000000 -0.000000 -0.000000
  outer loop
   vertex -286.972229 75.328117 233.219070
   vertex -286.972229 75.771538 232.148560
   vertex -286.972229 75.181252 233.158234
  endloop
 endfacet
 facet normal -0.610660 0.731614 0.303045
  outer loop
   vertex -286.889130 75.387321 233.243591
   vertex -286.972229 75.771538 232.148560
   vertex -286.972229 75.328117 233.219070
  endloop
 endfacet
 facet normal 0.000041 -0.382703 0.923872
  outer loop
   vertex -286.972229 75.328117 233.219070
   vertex -286.873535 75.167671 233.152603
   vertex -286.889130 75.387321 233.243591
  endloop
 endfacet
 facet normal 0.000000 -0.382705 0.923871
  outer loop
   vertex -286.889130 75.387321 233.243591
   vertex -286.873535 75.167671 233.152603
   vertex -286.047485 75.387321 233.243591
  endloop
 endfacet
 facet normal -0.000006 -0.382686 0.923879
  outer loop
   vertex -286.047485 75.387321 233.243591
   vertex -286.873535 75.167671 233.152603
   vertex -286.873535 74.070534 232.698151
  endloop
 endfacet
 facet normal -0.000010 -0.382683 0.923880
  outer loop
   vertex -286.873535 74.070534 232.698151
   vertex -286.047485 73.850883 232.607178
   vertex -286.047485 75.387321 233.243591
  endloop
 endfacet
 facet normal -0.000000 -0.382650 0.923893
  outer loop
   vertex -286.889130 73.850883 232.607178
   vertex -286.047485 73.850883 232.607178
   vertex -286.873535 74.070534 232.698151
  endloop
 endfacet
 facet normal -0.000000 -0.923879 -0.382684
  outer loop
   vertex -286.047485 74.294304 231.536667
   vertex -286.047485 73.850883 232.607178
   vertex -286.889130 73.850883 232.607178
  endloop
 endfacet
 facet normal 0.000000 -0.923879 -0.382684
  outer loop
   vertex -286.889130 73.850883 232.607178
   vertex -286.889130 74.294304 231.536667
   vertex -286.047485 74.294304 231.536667
  endloop
 endfacet
 facet normal 0.000000 0.382650 -0.923893
  outer loop
   vertex -286.047485 74.294304 231.536667
   vertex -286.889130 74.294304 231.536667
   vertex -286.873535 74.513954 231.627640
  endloop
 endfacet
 facet normal -0.000002 0.382650 -0.923893
  outer loop
   vertex -286.873535 74.513954 231.627640
   vertex -286.889130 74.294304 231.536667
   vertex -286.972229 74.353508 231.561188
  endloop
 endfacet
 facet normal 0.000061 0.382617 -0.923907
  outer loop
   vertex -286.972229 74.353508 231.561188
   vertex -286.972229 74.500374 231.622009
   vertex -286.873535 74.513954 231.627640
  endloop
 endfacet
 facet normal -1.000000 -0.000000 -0.000000
  outer loop
   vertex -286.972229 74.056946 232.692535
   vertex -286.972229 74.500374 231.622009
   vertex -286.972229 74.353508 231.561188
  endloop
 endfacet
 facet normal -0.147333 0.913797 0.378508
  outer loop
   vertex -286.873535 74.513954 231.627640
   vertex -286.972229 74.500374 231.622009
   vertex -286.972229 74.056946 232.692535
  endloop
 endfacet
 facet normal -0.147345 0.913795 0.378507
  outer loop
   vertex -286.972229 74.056946 232.692535
   vertex -286.873535 74.070534 232.698151
   vertex -286.873535 74.513954 231.627640
  endloop
 endfacet
 facet normal -1.000000 0.000000 0.000000
  outer loop
   vertex -286.873535 74.513954 231.627640
   vertex -286.873535 74.070534 232.698151
   vertex -286.873535 75.167671 233.152603
  endloop
 endfacet
 facet normal 0.455409 -0.822513 -0.340696
  outer loop
   vertex -286.047485 81.672661 213.723724
   vertex -285.556213 81.904831 213.819901
   vertex -286.047485 81.229240 214.794235
  endloop
 endfacet
 facet normal 0.455409 -0.822513 -0.340696
  outer loop
   vertex -286.047485 81.229240 214.794235
   vertex -285.556213 81.904831 213.819901
   vertex -285.556213 81.461411 214.890411
  endloop
 endfacet
 facet normal -0.000016 -0.382683 0.923880
  outer loop
   vertex -285.556213 81.461411 214.890411
   vertex -285.556213 82.533508 215.334488
   vertex -286.047485 81.229240 214.794235
  endloop
 endfacet
 facet normal 1.000000 -0.000000 -0.000000
  outer loop
   vertex -285.556213 81.904831 213.819901
   vertex -285.556213 82.533508 215.334488
   vertex -285.556213 81.461411 214.890411
  endloop
 endfacet
 facet normal 1.000000 0.000000 0.000000
  outer loop
   vertex -285.556213 82.976929 214.263977
   vertex -285.556213 82.533508 215.334488
   vertex -285.556213 81.904831 213.819901
  endloop
 endfacet
 facet normal 0.000013 0.382683 -0.923880
  outer loop
   vertex -285.556213 81.904831 213.819901
   vertex -286.047485 83.209099 214.360138
   vertex -285.556213 82.976929 214.263977
  endloop
 endfacet
 facet normal 0.455401 0.822517 0.340698
  outer loop
   vertex -285.556213 82.976929 214.263977
   vertex -286.047485 83.209099 214.360138
   vertex -285.556213 82.533508 215.334488
  endloop
 endfacet
 facet normal 0.455401 0.822517 0.340698
  outer loop
   vertex -285.556213 82.533508 215.334488
   vertex -286.047485 83.209099 214.360138
   vertex -286.047485 82.765678 215.430649
  endloop
 endfacet
 facet normal -0.000013 -0.382683 0.923880
  outer loop
   vertex -286.047485 82.765678 215.430649
   vertex -286.047485 81.229240 214.794235
   vertex -285.556213 82.533508 215.334488
  endloop
 endfacet
 facet normal 0.000010 -0.382683 0.923880
  outer loop
   vertex -286.873535 82.546028 215.339676
   vertex -286.047485 81.229240 214.794235
   vertex -286.047485 82.765678 215.430649
  endloop
 endfacet
 facet normal 0.000006 -0.382686 0.923879
  outer loop
   vertex -286.873535 81.448891 214.885223
   vertex -286.047485 81.229240 214.794235
   vertex -286.873535 82.546028 215.339676
  endloop
 endfacet
 facet normal -1.000000 -0.000000 0.000000
  outer loop
   vertex -286.873535 82.546028 215.339676
   vertex -286.873535 81.892311 213.814713
   vertex -286.873535 81.448891 214.885223
  endloop
 endfacet
 facet normal -0.147402 0.913788 0.378503
  outer loop
   vertex -286.873535 81.448891 214.885223
   vertex -286.873535 81.892311 213.814713
   vertex -286.972229 81.435303 214.879593
  endloop
 endfacet
 facet normal -0.147333 0.913795 0.378513
  outer loop
   vertex -286.972229 81.435303 214.879593
   vertex -286.873535 81.892311 213.814713
   vertex -286.972229 81.878731 213.809082
  endloop
 endfacet
 facet normal -1.000000 0.000000 0.000000
  outer loop
   vertex -286.972229 81.878731 213.809082
   vertex -286.972229 81.288445 214.818756
   vertex -286.972229 81.435303 214.879593
  endloop
 endfacet
 facet normal -1.000000 -0.000000 -0.000000
  outer loop
   vertex -286.972229 81.731865 213.748245
   vertex -286.972229 81.288445 214.818756
   vertex -286.972229 81.878731 213.809082
  endloop
 endfacet
 facet normal -0.610660 -0.731614 -0.303045
  outer loop
   vertex -286.889130 81.672661 213.723724
   vertex -286.972229 81.288445 214.818756
   vertex -286.972229 81.731865 213.748245
  endloop
 endfacet
 facet normal 0.000041 0.382703 -0.923872
  outer loop
   vertex -286.972229 81.731865 213.748245
   vertex -286.873535 81.892311 213.814713
   vertex -286.889130 81.672661 213.723724
  endloop
 endfacet
 facet normal 0.000000 0.382705 -0.923871
  outer loop
   vertex -286.889130 81.672661 213.723724
   vertex -286.873535 81.892311 213.814713
   vertex -286.047485 81.672661 213.723724
  endloop
 endfacet
 facet normal -0.000006 0.382686 -0.923879
  outer loop
   vertex -286.047485 81.672661 213.723724
   vertex -286.873535 81.892311 213.814713
   vertex -286.873535 82.989449 214.269165
  endloop
 endfacet
 facet normal -0.000010 0.382683 -0.923880
  outer loop
   vertex -286.873535 82.989449 214.269165
   vertex -286.047485 83.209099 214.360138
   vertex -286.047485 81.672661 213.723724
  endloop
 endfacet
 facet normal -0.000000 0.382650 -0.923893
  outer loop
   vertex -286.889130 83.209099 214.360138
   vertex -286.047485 83.209099 214.360138
   vertex -286.873535 82.989449 214.269165
  endloop
 endfacet
 facet normal 0.000000 0.923879 0.382684
  outer loop
   vertex -286.047485 82.765678 215.430649
   vertex -286.047485 83.209099 214.360138
   vertex -286.889130 83.209099 214.360138
  endloop
 endfacet
 facet normal -0.000000 0.923879 0.382684
  outer loop
   vertex -286.889130 83.209099 214.360138
   vertex -286.889130 82.765678 215.430649
   vertex -286.047485 82.765678 215.430649
  endloop
 endfacet
 facet normal 0.000000 -0.382650 0.923893
  outer loop
   vertex -286.047485 82.765678 215.430649
   vertex -286.889130 82.765678 215.430649
   vertex -286.873535 82.546028 215.339676
  endloop
 endfacet
 facet normal -0.000002 -0.382650 0.923893
  outer loop
   vertex -286.873535 82.546028 215.339676
   vertex -286.889130 82.765678 215.430649
   vertex -286.972229 82.706474 215.406128
  endloop
 endfacet
 facet normal 0.000061 -0.382617 0.923907
  outer loop
   vertex -286.972229 82.706474 215.406128
   vertex -286.972229 82.559608 215.345306
   vertex -286.873535 82.546028 215.339676
  endloop
 endfacet
 facet normal -1.000000 0.000000 -0.000000
  outer loop
   vertex -286.972229 83.003036 214.274780
   vertex -286.972229 82.559608 215.345306
   vertex -286.972229 82.706474 215.406128
  endloop
 endfacet
 facet normal -0.147333 -0.913797 -0.378508
  outer loop
   vertex -286.873535 82.546028 215.339676
   vertex -286.972229 82.559608 215.345306
   vertex -286.972229 83.003036 214.274780
  endloop
 endfacet
 facet normal -0.147345 -0.913795 -0.378507
  outer loop
   vertex -286.972229 83.003036 214.274780
   vertex -286.873535 82.989449 214.269165
   vertex -286.873535 82.546028 215.339676
  endloop
 endfacet
 facet normal -1.000000 -0.000000 0.000000
  outer loop
   vertex -286.873535 82.546028 215.339676
   vertex -286.873535 82.989449 214.269165
   vertex -286.873535 81.892311 213.814713
  endloop
 endfacet
 facet normal -0.000003 0.923887 0.382664
  outer loop
   vertex -285.082214 74.279335 234.398941
   vertex -285.082214 74.413269 234.075577
   vertex -285.332214 74.253700 234.460831
  endloop
 endfacet
 facet normal 0.000010 0.923884 0.382672
  outer loop
   vertex -285.332214 74.253700 234.460831
   vertex -285.082214 74.413269 234.075577
   vertex -285.507202 74.369690 234.180801
  endloop
 endfacet
 facet normal -0.000009 0.923880 0.382682
  outer loop
   vertex -285.507202 74.369690 234.180801
   vertex -285.515228 74.183662 234.629913
   vertex -285.332214 74.253700 234.460831
  endloop
 endfacet
 facet normal 0.000000 0.923880 0.382682
  outer loop
   vertex -285.818329 74.250633 234.468231
   vertex -285.515228 74.183662 234.629913
   vertex -285.507202 74.369690 234.180801
  endloop
 endfacet
 facet normal -0.000002 0.923879 0.382686
  outer loop
   vertex -285.582214 74.087990 234.860886
   vertex -285.515228 74.183662 234.629913
   vertex -285.818329 74.250633 234.468231
  endloop
 endfacet
 facet normal -0.000000 0.923879 0.382685
  outer loop
   vertex -285.818329 74.250633 234.468231
   vertex -285.932220 74.087990 234.860886
   vertex -285.582214 74.087990 234.860886
  endloop
 endfacet
 facet normal -0.000000 0.923878 0.382686
  outer loop
   vertex -285.582214 74.087990 234.860886
   vertex -285.932220 74.087990 234.860886
   vertex -285.515228 73.992317 235.091858
  endloop
 endfacet
 facet normal -0.000009 0.923873 0.382700
  outer loop
   vertex -285.515228 73.992317 235.091858
   vertex -285.932220 74.087990 234.860886
   vertex -285.818329 73.925346 235.253525
  endloop
 endfacet
 facet normal -0.000023 0.923882 0.382676
  outer loop
   vertex -285.818329 73.925346 235.253525
   vertex -285.332214 73.922287 235.260941
   vertex -285.515228 73.992317 235.091858
  endloop
 endfacet
 facet normal -0.000023 0.923878 0.382686
  outer loop
   vertex -285.507202 73.806290 235.540970
   vertex -285.332214 73.922287 235.260941
   vertex -285.818329 73.925346 235.253525
  endloop
 endfacet
 facet normal 0.000014 0.923870 0.382706
  outer loop
   vertex -285.082214 73.896652 235.322815
   vertex -285.332214 73.922287 235.260941
   vertex -285.507202 73.806290 235.540970
  endloop
 endfacet
 facet normal 0.000000 0.923880 0.382683
  outer loop
   vertex -285.507202 73.806290 235.540970
   vertex -285.082214 73.762711 235.646179
   vertex -285.082214 73.896652 235.322815
  endloop
 endfacet
 facet normal -0.000021 0.923880 0.382683
  outer loop
   vertex -285.082214 73.896652 235.322815
   vertex -285.082214 73.762711 235.646179
   vertex -284.832214 73.922287 235.260941
  endloop
 endfacet
 facet normal -0.000000 0.923875 0.382694
  outer loop
   vertex -284.832214 73.922287 235.260941
   vertex -285.082214 73.762711 235.646179
   vertex -284.082214 73.762711 235.646179
  endloop
 endfacet
 facet normal 0.000015 0.923886 0.382669
  outer loop
   vertex -284.082214 73.762711 235.646179
   vertex -284.649200 73.992317 235.091858
   vertex -284.832214 73.922287 235.260941
  endloop
 endfacet
 facet normal -0.000003 0.923879 0.382685
  outer loop
   vertex -284.582214 74.087990 234.860886
   vertex -284.649200 73.992317 235.091858
   vertex -284.082214 73.762711 235.646179
  endloop
 endfacet
 facet normal -0.000003 -0.923887 -0.382664
  outer loop
   vertex -285.082214 82.780647 212.568375
   vertex -285.082214 82.646713 212.891739
   vertex -285.332214 82.806282 212.506485
  endloop
 endfacet
 facet normal 0.000010 -0.923884 -0.382672
  outer loop
   vertex -285.332214 82.806282 212.506485
   vertex -285.082214 82.646713 212.891739
   vertex -285.507202 82.690292 212.786514
  endloop
 endfacet
 facet normal -0.000009 -0.923880 -0.382682
  outer loop
   vertex -285.507202 82.690292 212.786514
   vertex -285.515228 82.876320 212.337402
   vertex -285.332214 82.806282 212.506485
  endloop
 endfacet
 facet normal 0.000000 -0.923880 -0.382682
  outer loop
   vertex -285.818329 82.809349 212.499084
   vertex -285.515228 82.876320 212.337402
   vertex -285.507202 82.690292 212.786514
  endloop
 endfacet
 facet normal -0.000002 -0.923879 -0.382686
  outer loop
   vertex -285.582214 82.971992 212.106430
   vertex -285.515228 82.876320 212.337402
   vertex -285.818329 82.809349 212.499084
  endloop
 endfacet
 facet normal 0.000000 -0.923879 -0.382685
  outer loop
   vertex -285.818329 82.809349 212.499084
   vertex -285.932220 82.971992 212.106430
   vertex -285.582214 82.971992 212.106430
  endloop
 endfacet
 facet normal 0.000000 -0.923878 -0.382686
  outer loop
   vertex -285.582214 82.971992 212.106430
   vertex -285.932220 82.971992 212.106430
   vertex -285.515228 83.067665 211.875458
  endloop
 endfacet
 facet normal -0.000009 -0.923873 -0.382700
  outer loop
   vertex -285.515228 83.067665 211.875458
   vertex -285.932220 82.971992 212.106430
   vertex -285.818329 83.134636 211.713791
  endloop
 endfacet
 facet normal -0.000009 -0.923873 -0.382699
  outer loop
   vertex -285.818329 83.134636 211.713791
   vertex -285.332214 83.137703 211.706375
   vertex -285.515228 83.067665 211.875458
  endloop
 endfacet
 facet normal -0.000009 -0.923884 -0.382672
  outer loop
   vertex -285.507202 83.253693 211.426346
   vertex -285.332214 83.137703 211.706375
   vertex -285.818329 83.134636 211.713791
  endloop
 endfacet
 facet normal 0.000019 -0.923878 -0.382687
  outer loop
   vertex -285.082214 83.163338 211.644501
   vertex -285.332214 83.137703 211.706375
   vertex -285.507202 83.253693 211.426346
  endloop
 endfacet
 facet normal 0.000005 -0.923887 -0.382664
  outer loop
   vertex -285.507202 83.253693 211.426346
   vertex -285.082214 83.297272 211.321136
   vertex -285.082214 83.163338 211.644501
  endloop
 endfacet
 facet normal -0.000026 -0.923887 -0.382664
  outer loop
   vertex -285.082214 83.163338 211.644501
   vertex -285.082214 83.297272 211.321136
   vertex -284.832214 83.137703 211.706375
  endloop
 endfacet
 facet normal 0.000000 -0.923881 -0.382679
  outer loop
   vertex -284.832214 83.137703 211.706375
   vertex -285.082214 83.297272 211.321136
   vertex -284.082214 83.297272 211.321136
  endloop
 endfacet
 facet normal -0.000005 -0.923878 -0.382686
  outer loop
   vertex -284.082214 83.297272 211.321136
   vertex -284.649200 83.067665 211.875458
   vertex -284.832214 83.137703 211.706375
  endloop
 endfacet
 facet normal -0.000003 -0.923879 -0.382685
  outer loop
   vertex -284.582214 82.971992 212.106430
   vertex -284.649200 83.067665 211.875458
   vertex -284.082214 83.297272 211.321136
  endloop
 endfacet
 facet normal -0.000007 -0.923878 -0.382687
  outer loop
   vertex -284.082214 73.300766 235.454834
   vertex -284.582214 73.626053 234.669540
   vertex -284.082214 73.951332 233.884247
  endloop
 endfacet
 facet normal 0.000030 -0.923886 -0.382667
  outer loop
   vertex -284.082214 73.951332 233.884247
   vertex -284.582214 73.626053 234.669540
   vertex -284.649200 73.721718 234.438568
  endloop
 endfacet
 facet normal 0.000001 -0.923876 -0.382692
  outer loop
   vertex -284.649200 73.721718 234.438568
   vertex -284.832214 73.791756 234.269485
   vertex -284.082214 73.951332 233.884247
  endloop
 endfacet
 facet normal 0.000010 -0.923880 -0.382682
  outer loop
   vertex -284.832214 82.806282 212.506485
   vertex -284.649200 82.876320 212.337402
   vertex -284.082214 82.646713 212.891739
  endloop
 endfacet
 facet normal 0.000011 -0.923880 -0.382683
  outer loop
   vertex -284.082214 82.646713 212.891739
   vertex -284.649200 82.876320 212.337402
   vertex -284.582214 82.971992 212.106430
  endloop
 endfacet
 facet normal 0.000006 -0.923881 -0.382680
  outer loop
   vertex -284.582214 82.971992 212.106430
   vertex -284.082214 83.297272 211.321136
   vertex -284.082214 82.646713 212.891739
  endloop
 endfacet
 facet normal -0.000007 0.923878 0.382687
  outer loop
   vertex -284.082214 83.759216 211.512482
   vertex -284.582214 83.433929 212.297775
   vertex -284.082214 83.108650 213.083069
  endloop
 endfacet
 facet normal 0.000030 0.923886 0.382667
  outer loop
   vertex -284.082214 83.108650 213.083069
   vertex -284.582214 83.433929 212.297775
   vertex -284.649200 83.338264 212.528748
  endloop
 endfacet
 facet normal 0.000001 0.923876 0.382692
  outer loop
   vertex -284.649200 83.338264 212.528748
   vertex -284.832214 83.268227 212.697830
   vertex -284.082214 83.108650 213.083069
  endloop
 endfacet
 facet normal 0.000010 0.923880 0.382682
  outer loop
   vertex -284.832214 74.253700 234.460831
   vertex -284.649200 74.183662 234.629913
   vertex -284.082214 74.413269 234.075577
  endloop
 endfacet
 facet normal 0.000011 0.923880 0.382683
  outer loop
   vertex -284.082214 74.413269 234.075577
   vertex -284.649200 74.183662 234.629913
   vertex -284.582214 74.087990 234.860886
  endloop
 endfacet
 facet normal 0.000006 0.923881 0.382680
  outer loop
   vertex -284.582214 74.087990 234.860886
   vertex -284.082214 73.762711 235.646179
   vertex -284.082214 74.413269 234.075577
  endloop
 endfacet
 facet normal -0.610660 0.731614 0.303045
  outer loop
   vertex -286.889130 83.209099 214.360138
   vertex -286.972229 83.149895 214.335617
   vertex -286.889130 82.765678 215.430649
  endloop
 endfacet
 facet normal -0.610660 0.731614 0.303045
  outer loop
   vertex -286.889130 82.765678 215.430649
   vertex -286.972229 83.149895 214.335617
   vertex -286.972229 82.706474 215.406128
  endloop
 endfacet
 facet normal 0.000000 -0.923880 -0.382683
  outer loop
   vertex -286.144318 74.082176 232.257950
   vertex -286.757874 74.082176 232.257950
   vertex -286.144348 81.589272 214.134216
  endloop
 endfacet
 facet normal -0.000000 -0.923880 -0.382683
  outer loop
   vertex -286.144348 81.589272 214.134216
   vertex -286.757874 74.082176 232.257950
   vertex -286.757874 81.589272 214.134216
  endloop
 endfacet
 facet normal -0.610660 -0.731614 -0.303045
  outer loop
   vertex -286.972229 74.353508 231.561188
   vertex -286.889130 74.294304 231.536667
   vertex -286.972229 73.910088 232.631699
  endloop
 endfacet
 facet normal -0.610660 -0.731614 -0.303045
  outer loop
   vertex -286.972229 73.910088 232.631699
   vertex -286.889130 74.294304 231.536667
   vertex -286.889130 73.850883 232.607178
  endloop
 endfacet
 facet normal -1.000000 0.000000 0.000000
  outer loop
   vertex -285.082214 83.625275 211.835831
   vertex -285.082214 83.759216 211.512482
   vertex -285.082214 83.461273 211.578491
  endloop
 endfacet
 facet normal 0.000015 0.382683 -0.923880
  outer loop
   vertex -286.047485 81.672661 213.723724
   vertex -286.047485 83.209099 214.360138
   vertex -285.556213 81.904831 213.819901
  endloop
 endfacet
 facet normal 0.000003 -0.923887 -0.382664
  outer loop
   vertex -285.082214 82.646713 212.891739
   vertex -285.082214 82.780647 212.568375
   vertex -284.832214 82.806282 212.506485
  endloop
 endfacet
 facet normal 0.000007 -0.923873 -0.382698
  outer loop
   vertex -285.082214 73.817390 234.207596
   vertex -285.082214 73.951332 233.884247
   vertex -284.832214 73.791756 234.269485
  endloop
 endfacet
 facet normal 1.000000 0.000000 0.000000
  outer loop
   vertex -285.082214 83.759216 211.512482
   vertex -285.082214 83.163338 211.644501
   vertex -285.082214 83.297272 211.321136
  endloop
 endfacet
 facet normal 0.000004 0.923880 0.382682
  outer loop
   vertex -285.697205 75.228378 232.911194
   vertex -285.697205 74.597656 234.433899
   vertex -284.156158 74.597656 234.433884
  endloop
 endfacet
 facet normal 0.000000 -0.923879 -0.382685
  outer loop
   vertex -284.156158 81.831604 214.056122
   vertex -285.697205 81.831604 214.056122
   vertex -284.156158 82.462326 212.533432
  endloop
 endfacet
 facet normal 1.000000 0.000000 0.000000
  outer loop
   vertex -285.082214 73.300766 235.454834
   vertex -285.082214 73.896652 235.322815
   vertex -285.082214 73.762711 235.646179
  endloop
 endfacet
 facet normal 0.000047 -0.382699 0.923873
  outer loop
   vertex -286.972229 75.328117 233.219070
   vertex -286.972229 75.181252 233.158234
   vertex -286.873535 75.167671 233.152603
  endloop
 endfacet
 facet normal 1.000000 0.000000 0.000000
  outer loop
   vertex -285.082214 82.780647 212.568375
   vertex -285.082214 83.108650 213.083069
   vertex -285.082214 82.646713 212.891739
  endloop
 endfacet
 facet normal 0.000015 -0.382683 0.923880
  outer loop
   vertex -286.047485 75.387321 233.243591
   vertex -286.047485 73.850883 232.607178
   vertex -285.556213 75.155151 233.147415
  endloop
 endfacet
 facet normal 0.000047 0.382699 -0.923873
  outer loop
   vertex -286.972229 81.731865 213.748245
   vertex -286.972229 81.878731 213.809082
   vertex -286.873535 81.892311 213.814713
  endloop
 endfacet
 facet normal 0.000000 0.923879 0.382685
  outer loop
   vertex -285.697205 82.861671 214.482788
   vertex -284.156158 82.861671 214.482788
   vertex -284.156158 83.492393 212.960098
  endloop
 endfacet
 facet normal 0.000000 0.382682 -0.923880
  outer loop
   vertex -284.156158 75.228378 232.911194
   vertex -284.156158 74.198311 232.484528
   vertex -285.697205 74.198311 232.484528
  endloop
 endfacet
 facet normal 1.000000 0.000000 0.000000
  outer loop
   vertex -285.082214 74.279335 234.398941
   vertex -285.082214 73.951332 233.884247
   vertex -285.082214 74.413269 234.075577
  endloop
 endfacet
 facet normal 0.000003 0.923887 0.382664
  outer loop
   vertex -285.082214 74.413269 234.075577
   vertex -285.082214 74.279335 234.398941
   vertex -284.832214 74.253700 234.460831
  endloop
 endfacet
 facet normal -0.707108 -0.270600 0.653280
  outer loop
   vertex -284.649200 74.183662 234.629913
   vertex -284.832214 73.791756 234.269485
   vertex -284.649200 73.721718 234.438568
  endloop
 endfacet
 facet normal -0.965928 -0.099044 0.239111
  outer loop
   vertex -284.649200 74.183662 234.629913
   vertex -284.649200 73.721718 234.438568
   vertex -284.582214 74.087990 234.860886
  endloop
 endfacet
 facet normal -0.965927 -0.099046 0.239113
  outer loop
   vertex -284.582214 74.087990 234.860886
   vertex -284.649200 73.721718 234.438568
   vertex -284.582214 73.626053 234.669540
  endloop
 endfacet
 facet normal -0.965928 0.099045 -0.239110
  outer loop
   vertex -284.582214 73.626053 234.669540
   vertex -284.649200 73.992317 235.091858
   vertex -284.582214 74.087990 234.860886
  endloop
 endfacet
 facet normal -0.965928 0.099045 -0.239110
  outer loop
   vertex -284.649200 73.530380 234.900513
   vertex -284.649200 73.992317 235.091858
   vertex -284.582214 73.626053 234.669540
  endloop
 endfacet
 facet normal -0.707102 0.270606 -0.653284
  outer loop
   vertex -284.832214 73.922287 235.260941
   vertex -284.649200 73.992317 235.091858
   vertex -284.649200 73.530380 234.900513
  endloop
 endfacet
 facet normal -0.707108 0.270600 -0.653280
  outer loop
   vertex -284.649200 73.530380 234.900513
   vertex -284.832214 73.460342 235.069595
   vertex -284.832214 73.922287 235.260941
  endloop
 endfacet
 facet normal -0.258773 0.369651 -0.892410
  outer loop
   vertex -284.832214 73.922287 235.260941
   vertex -284.832214 73.460342 235.069595
   vertex -285.082214 73.896652 235.322815
  endloop
 endfacet
 facet normal -0.258824 -0.369626 0.892405
  outer loop
   vertex -285.082214 83.625275 211.835831
   vertex -285.082214 83.163338 211.644501
   vertex -284.832214 83.599640 211.897720
  endloop
 endfacet
 facet normal -0.258773 -0.369656 0.892407
  outer loop
   vertex -284.832214 83.599640 211.897720
   vertex -285.082214 83.163338 211.644501
   vertex -284.832214 83.137703 211.706375
  endloop
 endfacet
 facet normal -0.707108 -0.270603 0.653278
  outer loop
   vertex -284.832214 83.137703 211.706375
   vertex -284.649200 83.529602 212.066803
   vertex -284.832214 83.599640 211.897720
  endloop
 endfacet
 facet normal -0.707108 -0.270603 0.653278
  outer loop
   vertex -284.649200 83.067665 211.875458
   vertex -284.649200 83.529602 212.066803
   vertex -284.832214 83.137703 211.706375
  endloop
 endfacet
 facet normal -0.965928 -0.099045 0.239110
  outer loop
   vertex -284.582214 83.433929 212.297775
   vertex -284.649200 83.529602 212.066803
   vertex -284.649200 83.067665 211.875458
  endloop
 endfacet
 facet normal -0.965928 -0.099045 0.239110
  outer loop
   vertex -284.649200 83.067665 211.875458
   vertex -284.582214 82.971992 212.106430
   vertex -284.582214 83.433929 212.297775
  endloop
 endfacet
 facet normal -0.965927 0.099046 -0.239113
  outer loop
   vertex -284.582214 83.433929 212.297775
   vertex -284.582214 82.971992 212.106430
   vertex -284.649200 83.338264 212.528748
  endloop
 endfacet
 facet normal -0.965928 0.099044 -0.239111
  outer loop
   vertex -284.649200 83.338264 212.528748
   vertex -284.582214 82.971992 212.106430
   vertex -284.649200 82.876320 212.337402
  endloop
 endfacet
 facet normal -0.707108 0.270600 -0.653280
  outer loop
   vertex -284.649200 82.876320 212.337402
   vertex -284.832214 83.268227 212.697830
   vertex -284.649200 83.338264 212.528748
  endloop
 endfacet
 facet normal -0.258855 0.369623 -0.892398
  outer loop
   vertex -285.082214 74.413269 234.075577
   vertex -285.082214 73.951332 233.884247
   vertex -285.507202 74.369690 234.180801
  endloop
 endfacet
 facet normal -0.258825 0.369651 -0.892395
  outer loop
   vertex -285.507202 74.369690 234.180801
   vertex -285.082214 73.951332 233.884247
   vertex -285.507202 73.907753 233.989456
  endloop
 endfacet
 facet normal -0.707090 0.270610 -0.653295
  outer loop
   vertex -285.507202 73.907753 233.989456
   vertex -285.818329 74.250633 234.468231
   vertex -285.507202 74.369690 234.180801
  endloop
 endfacet
 facet normal -0.707093 0.270605 -0.653294
  outer loop
   vertex -285.818329 73.788689 234.276886
   vertex -285.818329 74.250633 234.468231
   vertex -285.507202 73.907753 233.989456
  endloop
 endfacet
 facet normal -0.965919 0.099056 -0.239140
  outer loop
   vertex -285.932220 74.087990 234.860886
   vertex -285.818329 74.250633 234.468231
   vertex -285.818329 73.788689 234.276886
  endloop
 endfacet
 facet normal -0.965919 0.099058 -0.239141
  outer loop
   vertex -285.818329 73.788689 234.276886
   vertex -285.932220 73.626053 234.669540
   vertex -285.932220 74.087990 234.860886
  endloop
 endfacet
 facet normal -0.965917 -0.099060 0.239147
  outer loop
   vertex -285.932220 74.087990 234.860886
   vertex -285.932220 73.626053 234.669540
   vertex -285.818329 73.925346 235.253525
  endloop
 endfacet
 facet normal -0.965919 -0.099050 0.239142
  outer loop
   vertex -285.818329 73.925346 235.253525
   vertex -285.932220 73.626053 234.669540
   vertex -285.818329 73.463409 235.062195
  endloop
 endfacet
 facet normal -0.707106 -0.270586 0.653288
  outer loop
   vertex -285.818329 73.463409 235.062195
   vertex -285.507202 73.806290 235.540970
   vertex -285.818329 73.925346 235.253525
  endloop
 endfacet
 facet normal -0.707093 -0.270605 0.653294
  outer loop
   vertex -285.507202 73.344345 235.349625
   vertex -285.507202 73.806290 235.540970
   vertex -285.818329 73.463409 235.062195
  endloop
 endfacet
 facet normal -0.258825 -0.369646 0.892397
  outer loop
   vertex -285.082214 73.762711 235.646179
   vertex -285.507202 73.806290 235.540970
   vertex -285.507202 73.344345 235.349625
  endloop
 endfacet
 facet normal -0.258825 -0.369646 0.892397
  outer loop
   vertex -285.507202 73.344345 235.349625
   vertex -285.082214 73.300766 235.454834
   vertex -285.082214 73.762711 235.646179
  endloop
 endfacet
 facet normal -0.258825 0.369646 -0.892397
  outer loop
   vertex -285.082214 83.759216 211.512482
   vertex -285.082214 83.297272 211.321136
   vertex -285.507202 83.715637 211.617691
  endloop
 endfacet
 facet normal -0.258825 0.369646 -0.892397
  outer loop
   vertex -285.507202 83.715637 211.617691
   vertex -285.082214 83.297272 211.321136
   vertex -285.507202 83.253693 211.426346
  endloop
 endfacet
 facet normal -0.707093 0.270605 -0.653294
  outer loop
   vertex -285.507202 83.253693 211.426346
   vertex -285.818329 83.596573 211.905121
   vertex -285.507202 83.715637 211.617691
  endloop
 endfacet
 facet normal -0.707106 0.270586 -0.653288
  outer loop
   vertex -285.818329 83.134636 211.713791
   vertex -285.818329 83.596573 211.905121
   vertex -285.507202 83.253693 211.426346
  endloop
 endfacet
 facet normal -0.965919 0.099050 -0.239142
  outer loop
   vertex -285.932220 83.433929 212.297775
   vertex -285.818329 83.596573 211.905121
   vertex -285.818329 83.134636 211.713791
  endloop
 endfacet
 facet normal -0.965917 0.099060 -0.239147
  outer loop
   vertex -285.818329 83.134636 211.713791
   vertex -285.932220 82.971992 212.106430
   vertex -285.932220 83.433929 212.297775
  endloop
 endfacet
 facet normal -0.965919 -0.099058 0.239141
  outer loop
   vertex -285.932220 83.433929 212.297775
   vertex -285.932220 82.971992 212.106430
   vertex -285.818329 83.271294 212.690430
  endloop
 endfacet
 facet normal -0.965919 -0.099056 0.239140
  outer loop
   vertex -285.818329 83.271294 212.690430
   vertex -285.932220 82.971992 212.106430
   vertex -285.818329 82.809349 212.499084
  endloop
 endfacet
 facet normal -0.707093 -0.270605 0.653294
  outer loop
   vertex -285.818329 82.809349 212.499084
   vertex -285.507202 83.152229 212.977859
   vertex -285.818329 83.271294 212.690430
  endloop
 endfacet
 facet normal -0.707090 -0.270610 0.653295
  outer loop
   vertex -285.507202 82.690292 212.786514
   vertex -285.507202 83.152229 212.977859
   vertex -285.818329 82.809349 212.499084
  endloop
 endfacet
 facet normal -0.258825 -0.369651 0.892395
  outer loop
   vertex -285.082214 83.108650 213.083069
   vertex -285.507202 83.152229 212.977859
   vertex -285.507202 82.690292 212.786514
  endloop
 endfacet
 facet normal -0.258855 -0.369623 0.892398
  outer loop
   vertex -285.507202 82.690292 212.786514
   vertex -285.082214 82.646713 212.891739
   vertex -285.082214 83.108650 213.083069
  endloop
 endfacet
 facet normal -0.707108 0.270600 -0.653280
  outer loop
   vertex -284.649200 82.876320 212.337402
   vertex -284.832214 82.806282 212.506485
   vertex -284.832214 83.268227 212.697830
  endloop
 endfacet
 facet normal -0.258824 0.369646 -0.892397
  outer loop
   vertex -284.832214 83.268227 212.697830
   vertex -284.832214 82.806282 212.506485
   vertex -285.082214 82.780647 212.568375
  endloop
 endfacet
 facet normal -0.258824 0.369646 -0.892397
  outer loop
   vertex -285.082214 82.780647 212.568375
   vertex -285.082214 83.242592 212.759720
   vertex -284.832214 83.268227 212.697830
  endloop
 endfacet
 facet normal 0.258824 0.369646 -0.892397
  outer loop
   vertex -285.332214 82.806282 212.506485
   vertex -285.082214 83.242592 212.759720
   vertex -285.082214 82.780647 212.568375
  endloop
 endfacet
 facet normal 0.258824 0.369646 -0.892397
  outer loop
   vertex -285.332214 83.268227 212.697830
   vertex -285.082214 83.242592 212.759720
   vertex -285.332214 82.806282 212.506485
  endloop
 endfacet
 facet normal 0.707108 0.270600 -0.653280
  outer loop
   vertex -285.332214 82.806282 212.506485
   vertex -285.515228 82.876320 212.337402
   vertex -285.332214 83.268227 212.697830
  endloop
 endfacet
 facet normal 0.707108 0.270600 -0.653280
  outer loop
   vertex -285.332214 83.268227 212.697830
   vertex -285.515228 82.876320 212.337402
   vertex -285.515228 83.338264 212.528748
  endloop
 endfacet
 facet normal 0.965928 0.099044 -0.239111
  outer loop
   vertex -285.515228 83.338264 212.528748
   vertex -285.515228 82.876320 212.337402
   vertex -285.582214 82.971992 212.106430
  endloop
 endfacet
 facet normal 0.965927 0.099046 -0.239113
  outer loop
   vertex -285.582214 82.971992 212.106430
   vertex -285.582214 83.433929 212.297775
   vertex -285.515228 83.338264 212.528748
  endloop
 endfacet
 facet normal 0.965928 -0.099045 0.239110
  outer loop
   vertex -285.515228 83.067665 211.875458
   vertex -285.582214 83.433929 212.297775
   vertex -285.582214 82.971992 212.106430
  endloop
 endfacet
 facet normal 0.965928 -0.099045 0.239110
  outer loop
   vertex -285.515228 83.529602 212.066803
   vertex -285.582214 83.433929 212.297775
   vertex -285.515228 83.067665 211.875458
  endloop
 endfacet
 facet normal 0.707108 -0.270603 0.653278
  outer loop
   vertex -285.515228 83.067665 211.875458
   vertex -285.332214 83.137703 211.706375
   vertex -285.515228 83.529602 212.066803
  endloop
 endfacet
 facet normal 0.707108 -0.270603 0.653278
  outer loop
   vertex -285.515228 83.529602 212.066803
   vertex -285.332214 83.137703 211.706375
   vertex -285.332214 83.599640 211.897720
  endloop
 endfacet
 facet normal 0.258773 -0.369656 0.892407
  outer loop
   vertex -285.332214 83.599640 211.897720
   vertex -285.332214 83.137703 211.706375
   vertex -285.082214 83.163338 211.644501
  endloop
 endfacet
 facet normal 0.258824 -0.369626 0.892405
  outer loop
   vertex -285.082214 83.163338 211.644501
   vertex -285.082214 83.625275 211.835831
   vertex -285.332214 83.599640 211.897720
  endloop
 endfacet
 facet normal -0.707108 -0.270600 0.653280
  outer loop
   vertex -284.649200 74.183662 234.629913
   vertex -284.832214 74.253700 234.460831
   vertex -284.832214 73.791756 234.269485
  endloop
 endfacet
 facet normal -0.258824 -0.369646 0.892397
  outer loop
   vertex -284.832214 73.791756 234.269485
   vertex -284.832214 74.253700 234.460831
   vertex -285.082214 74.279335 234.398941
  endloop
 endfacet
 facet normal -0.258824 -0.369646 0.892397
  outer loop
   vertex -285.082214 74.279335 234.398941
   vertex -285.082214 73.817390 234.207596
   vertex -284.832214 73.791756 234.269485
  endloop
 endfacet
 facet normal 0.258824 -0.369646 0.892397
  outer loop
   vertex -285.332214 74.253700 234.460831
   vertex -285.082214 73.817390 234.207596
   vertex -285.082214 74.279335 234.398941
  endloop
 endfacet
 facet normal 0.258824 -0.369646 0.892397
  outer loop
   vertex -285.332214 73.791756 234.269485
   vertex -285.082214 73.817390 234.207596
   vertex -285.332214 74.253700 234.460831
  endloop
 endfacet
 facet normal 0.707108 -0.270600 0.653280
  outer loop
   vertex -285.332214 74.253700 234.460831
   vertex -285.515228 74.183662 234.629913
   vertex -285.332214 73.791756 234.269485
  endloop
 endfacet
 facet normal 0.707108 -0.270600 0.653280
  outer loop
   vertex -285.332214 73.791756 234.269485
   vertex -285.515228 74.183662 234.629913
   vertex -285.515228 73.721718 234.438568
  endloop
 endfacet
 facet normal 0.965928 -0.099044 0.239111
  outer loop
   vertex -285.515228 73.721718 234.438568
   vertex -285.515228 74.183662 234.629913
   vertex -285.582214 74.087990 234.860886
  endloop
 endfacet
 facet normal 0.965927 -0.099046 0.239113
  outer loop
   vertex -285.582214 74.087990 234.860886
   vertex -285.582214 73.626053 234.669540
   vertex -285.515228 73.721718 234.438568
  endloop
 endfacet
 facet normal 0.965928 0.099045 -0.239110
  outer loop
   vertex -285.515228 73.992317 235.091858
   vertex -285.582214 73.626053 234.669540
   vertex -285.582214 74.087990 234.860886
  endloop
 endfacet
 facet normal 0.965928 0.099045 -0.239110
  outer loop
   vertex -285.515228 73.530380 234.900513
   vertex -285.582214 73.626053 234.669540
   vertex -285.515228 73.992317 235.091858
  endloop
 endfacet
 facet normal 0.707102 0.270606 -0.653284
  outer loop
   vertex -285.515228 73.992317 235.091858
   vertex -285.332214 73.922287 235.260941
   vertex -285.515228 73.530380 234.900513
  endloop
 endfacet
 facet normal 0.707108 0.270600 -0.653280
  outer loop
   vertex -285.515228 73.530380 234.900513
   vertex -285.332214 73.922287 235.260941
   vertex -285.332214 73.460342 235.069595
  endloop
 endfacet
 facet normal 0.258773 0.369651 -0.892410
  outer loop
   vertex -285.332214 73.460342 235.069595
   vertex -285.332214 73.922287 235.260941
   vertex -285.082214 73.896652 235.322815
  endloop
 endfacet
 facet normal 0.258824 0.369621 -0.892407
  outer loop
   vertex -285.082214 73.896652 235.322815
   vertex -285.082214 73.434708 235.131485
   vertex -285.332214 73.460342 235.069595
  endloop
 endfacet
 facet normal -0.258824 0.369621 -0.892407
  outer loop
   vertex -284.832214 73.460342 235.069595
   vertex -285.082214 73.434708 235.131485
   vertex -285.082214 73.896652 235.322815
  endloop
 endfacet
endsolid