solid stl file generated from DOUG
 facet normal -0.000000 -0.130492 -0.991449
  outer loop
   vertex -286.177979 -82.661850 168.398849
   vertex -285.676819 -82.661850 168.398849
   vertex -286.177979 -82.910294 168.431549
  endloop
 endfacet
 facet normal -0.000000 -0.130492 -0.991449
  outer loop
   vertex -286.177979 -82.910294 168.431549
   vertex -285.676819 -82.661850 168.398849
   vertex -285.676819 -82.910294 168.431549
  endloop
 endfacet
 facet normal 0.000000 -0.923887 -0.382665
  outer loop
   vertex -285.676819 -82.910294 168.431549
   vertex -286.177979 -83.006187 168.663071
   vertex -286.177979 -82.910294 168.431549
  endloop
 endfacet
 facet normal 0.000000 -0.923887 -0.382665
  outer loop
   vertex -285.676819 -83.006187 168.663071
   vertex -286.177979 -83.006187 168.663071
   vertex -285.676819 -82.910294 168.431549
  endloop
 endfacet
 facet normal 0.000000 -0.793353 0.608761
  outer loop
   vertex -286.177979 -82.853638 168.861877
   vertex -286.177979 -83.006187 168.663071
   vertex -285.676819 -83.006187 168.663071
  endloop
 endfacet
 facet normal 0.000019 -0.793331 0.608791
  outer loop
   vertex -285.676819 -83.006187 168.663071
   vertex -285.676819 -82.853638 168.861862
   vertex -286.177979 -82.853638 168.861877
  endloop
 endfacet
 facet normal 0.000030 0.130552 0.991441
  outer loop
   vertex -286.177979 -82.853638 168.861877
   vertex -285.676819 -82.853638 168.861862
   vertex -286.177979 -82.605194 168.829163
  endloop
 endfacet
 facet normal -0.000000 0.130492 0.991449
  outer loop
   vertex -286.177979 -82.605194 168.829163
   vertex -285.676819 -82.853638 168.861862
   vertex -285.676819 -82.605194 168.829163
  endloop
 endfacet
 facet normal 0.000000 0.923878 0.382686
  outer loop
   vertex -285.676819 -82.605194 168.829163
   vertex -286.177979 -82.509300 168.597656
   vertex -286.177979 -82.605194 168.829163
  endloop
 endfacet
 facet normal -0.000000 0.923878 0.382686
  outer loop
   vertex -285.676819 -82.509300 168.597656
   vertex -286.177979 -82.509300 168.597656
   vertex -285.676819 -82.605194 168.829163
  endloop
 endfacet
 facet normal 0.000000 0.793353 -0.608761
  outer loop
   vertex -286.177979 -82.661850 168.398849
   vertex -286.177979 -82.509300 168.597656
   vertex -285.676819 -82.509300 168.597656
  endloop
 endfacet
 facet normal -0.000000 0.793353 -0.608761
  outer loop
   vertex -285.676819 -82.509300 168.597656
   vertex -285.676819 -82.661850 168.398849
   vertex -286.177979 -82.661850 168.398849
  endloop
 endfacet
 facet normal 0.000000 -0.793353 0.608761
  outer loop
   vertex -285.676819 -74.398132 148.448471
   vertex -286.177979 -74.398132 148.448471
   vertex -285.676819 -74.550682 148.249664
  endloop
 endfacet
 facet normal -0.000000 -0.793353 0.608761
  outer loop
   vertex -285.676819 -74.550682 148.249664
   vertex -286.177979 -74.398132 148.448471
   vertex -286.177979 -74.550682 148.249664
  endloop
 endfacet
 facet normal 0.000000 -0.923878 -0.382686
  outer loop
   vertex -286.177979 -74.550682 148.249664
   vertex -285.676819 -74.454788 148.018158
   vertex -285.676819 -74.550682 148.249664
  endloop
 endfacet
 facet normal -0.000000 -0.923878 -0.382686
  outer loop
   vertex -286.177979 -74.454788 148.018158
   vertex -285.676819 -74.454788 148.018158
   vertex -286.177979 -74.550682 148.249664
  endloop
 endfacet
 facet normal -0.000000 -0.130492 -0.991449
  outer loop
   vertex -285.676819 -74.206345 147.985458
   vertex -285.676819 -74.454788 148.018158
   vertex -286.177979 -74.454788 148.018158
  endloop
 endfacet
 facet normal 0.000000 -0.130492 -0.991449
  outer loop
   vertex -286.177979 -74.454788 148.018158
   vertex -286.177979 -74.206345 147.985458
   vertex -285.676819 -74.206345 147.985458
  endloop
 endfacet
 facet normal 0.000000 0.793331 -0.608791
  outer loop
   vertex -285.676819 -74.206345 147.985458
   vertex -286.177979 -74.206345 147.985458
   vertex -285.676819 -74.053795 148.184250
  endloop
 endfacet
 facet normal -0.000000 0.793331 -0.608791
  outer loop
   vertex -285.676819 -74.053795 148.184250
   vertex -286.177979 -74.206345 147.985458
   vertex -286.177979 -74.053795 148.184250
  endloop
 endfacet
 facet normal 0.000000 0.923887 0.382665
  outer loop
   vertex -286.177979 -74.053795 148.184250
   vertex -285.676819 -74.149689 148.415771
   vertex -285.676819 -74.053795 148.184250
  endloop
 endfacet
 facet normal 0.000000 0.923887 0.382665
  outer loop
   vertex -286.177979 -74.149689 148.415771
   vertex -285.676819 -74.149689 148.415771
   vertex -286.177979 -74.053795 148.184250
  endloop
 endfacet
 facet normal 0.000000 0.130492 0.991449
  outer loop
   vertex -285.676819 -74.398132 148.448471
   vertex -285.676819 -74.149689 148.415771
   vertex -286.177979 -74.149689 148.415771
  endloop
 endfacet
 facet normal -0.000000 0.130492 0.991449
  outer loop
   vertex -286.177979 -74.149689 148.415771
   vertex -286.177979 -74.398132 148.448471
   vertex -285.676819 -74.398132 148.448471
  endloop
 endfacet
 facet normal -1.000000 0.000000 0.000000
  outer loop
   vertex -286.177979 -74.454788 148.018158
   vertex -286.177979 -74.550682 148.249664
   vertex -286.177979 -74.302238 148.216965
  endloop
 endfacet
 facet normal -1.000000 0.000000 -0.000000
  outer loop
   vertex -286.177979 -74.302238 148.216965
   vertex -286.177979 -74.550682 148.249664
   vertex -286.177979 -74.398132 148.448471
  endloop
 endfacet
 facet normal -1.000000 -0.000000 0.000000
  outer loop
   vertex -286.177979 -74.398132 148.448471
   vertex -286.177979 -74.149689 148.415771
   vertex -286.177979 -74.302238 148.216965
  endloop
 endfacet
 facet normal -1.000000 0.000000 0.000000
  outer loop
   vertex -286.177979 -82.509300 168.597656
   vertex -286.177979 -82.661850 168.398849
   vertex -286.177979 -82.757744 168.630356
  endloop
 endfacet
 facet normal -1.000000 -0.000000 -0.000000
  outer loop
   vertex -286.177979 -82.757744 168.630356
   vertex -286.177979 -82.661850 168.398849
   vertex -286.177979 -82.910294 168.431549
  endloop
 endfacet
 facet normal -1.000000 0.000000 0.000000
  outer loop
   vertex -286.177979 -82.910294 168.431549
   vertex -286.177979 -83.006187 168.663071
   vertex -286.177979 -82.757744 168.630356
  endloop
 endfacet
 facet normal -1.000000 0.000000 -0.000000
  outer loop
   vertex -286.177979 -83.006187 168.663071
   vertex -286.177979 -82.853638 168.861877
   vertex -286.177979 -82.757744 168.630356
  endloop
 endfacet
 facet normal -1.000000 -0.000000 -0.000000
  outer loop
   vertex -286.177979 -82.757744 168.630356
   vertex -286.177979 -82.853638 168.861877
   vertex -286.177979 -82.605194 168.829163
  endloop
 endfacet
 facet normal -1.000000 0.000000 0.000000
  outer loop
   vertex -286.177979 -82.605194 168.829163
   vertex -286.177979 -82.509300 168.597656
   vertex -286.177979 -82.757744 168.630356
  endloop
 endfacet
 facet normal -1.000000 0.000000 0.000000
  outer loop
   vertex -286.177979 -74.149689 148.415771
   vertex -286.177979 -74.053795 148.184250
   vertex -286.177979 -74.302238 148.216965
  endloop
 endfacet
 facet normal -1.000000 -0.000000 -0.000000
  outer loop
   vertex -286.177979 -74.302238 148.216965
   vertex -286.177979 -74.053795 148.184250
   vertex -286.177979 -74.206345 147.985458
  endloop
 endfacet
 facet normal -1.000000 0.000000 0.000000
  outer loop
   vertex -286.177979 -74.206345 147.985458
   vertex -286.177979 -74.454788 148.018158
   vertex -286.177979 -74.302238 148.216965
  endloop
 endfacet
 facet normal -1.000000 0.000000 0.000000
  outer loop
   vertex -284.143219 -81.622810 167.523849
   vertex -284.143219 -82.777840 167.045425
   vertex -284.143219 -82.767570 170.287552
  endloop
 endfacet
 facet normal -1.000000 -0.000000 0.000000
  outer loop
   vertex -284.143219 -82.767570 170.287552
   vertex -284.143219 -82.777840 167.045425
   vertex -284.143219 -83.922600 169.809113
  endloop
 endfacet
 facet normal 0.000010 -0.382691 0.923877
  outer loop
   vertex -284.143219 -83.922600 169.809113
   vertex -282.754608 -82.767570 170.287537
   vertex -284.143219 -82.767570 170.287552
  endloop
 endfacet
 facet normal -0.000000 -0.382680 0.923881
  outer loop
   vertex -282.754608 -83.922600 169.809113
   vertex -282.754608 -82.767570 170.287537
   vertex -284.143219 -83.922600 169.809113
  endloop
 endfacet
 facet normal 1.000000 0.000004 -0.000009
  outer loop
   vertex -282.754639 -82.777840 167.045425
   vertex -282.754608 -82.767570 170.287537
   vertex -282.754608 -83.922600 169.809113
  endloop
 endfacet
 facet normal 0.000000 -0.923879 -0.382684
  outer loop
   vertex -282.754608 -83.922600 169.809113
   vertex -284.143219 -82.777840 167.045425
   vertex -282.754639 -82.777840 167.045425
  endloop
 endfacet
 facet normal 0.000000 0.382680 -0.923881
  outer loop
   vertex -282.754639 -82.777840 167.045425
   vertex -284.143219 -82.777840 167.045425
   vertex -282.754639 -81.622810 167.523849
  endloop
 endfacet
 facet normal -0.000000 0.382680 -0.923881
  outer loop
   vertex -282.754639 -81.622810 167.523849
   vertex -284.143219 -82.777840 167.045425
   vertex -284.143219 -81.622810 167.523849
  endloop
 endfacet
 facet normal 0.000000 0.923879 0.382684
  outer loop
   vertex -284.143219 -81.622810 167.523849
   vertex -282.754608 -82.767570 170.287537
   vertex -282.754639 -81.622810 167.523849
  endloop
 endfacet
 facet normal 0.000004 0.923880 0.382683
  outer loop
   vertex -284.143219 -82.767570 170.287552
   vertex -282.754608 -82.767570 170.287537
   vertex -284.143219 -81.622810 167.523849
  endloop
 endfacet
 facet normal 0.000000 0.382691 -0.923877
  outer loop
   vertex -282.754639 -73.137383 147.038208
   vertex -282.754639 -74.292412 146.559769
   vertex -284.143219 -73.137383 147.038208
  endloop
 endfacet
 facet normal -0.000000 0.382691 -0.923877
  outer loop
   vertex -284.143219 -73.137383 147.038208
   vertex -282.754639 -74.292412 146.559769
   vertex -284.143219 -74.292412 146.559769
  endloop
 endfacet
 facet normal -1.000000 0.000000 -0.000000
  outer loop
   vertex -284.143219 -74.292412 146.559769
   vertex -284.143219 -74.282143 149.801895
   vertex -284.143219 -73.137383 147.038208
  endloop
 endfacet
 facet normal -1.000000 -0.000000 -0.000000
  outer loop
   vertex -284.143219 -75.437172 149.323471
   vertex -284.143219 -74.282143 149.801895
   vertex -284.143219 -74.292412 146.559769
  endloop
 endfacet
 facet normal 0.000000 -0.382680 0.923881
  outer loop
   vertex -282.754639 -75.437172 149.323471
   vertex -284.143219 -74.282143 149.801895
   vertex -284.143219 -75.437172 149.323471
  endloop
 endfacet
 facet normal -0.000000 -0.923880 -0.382683
  outer loop
   vertex -284.143219 -75.437172 149.323471
   vertex -282.754639 -74.292412 146.559769
   vertex -282.754639 -75.437172 149.323471
  endloop
 endfacet
 facet normal 1.000000 0.000000 -0.000000
  outer loop
   vertex -282.754639 -75.437172 149.323471
   vertex -282.754639 -74.292412 146.559769
   vertex -282.754639 -74.282143 149.801895
  endloop
 endfacet
 facet normal 1.000000 -0.000000 -0.000000
  outer loop
   vertex -282.754639 -74.282143 149.801895
   vertex -282.754639 -74.292412 146.559769
   vertex -282.754639 -73.137383 147.038208
  endloop
 endfacet
 facet normal -0.000000 0.923879 0.382684
  outer loop
   vertex -282.754639 -73.137383 147.038208
   vertex -284.143219 -74.282143 149.801895
   vertex -282.754639 -74.282143 149.801895
  endloop
 endfacet
 facet normal -0.000000 0.923879 0.382684
  outer loop
   vertex -284.143219 -73.137383 147.038208
   vertex -284.143219 -74.282143 149.801895
   vertex -282.754639 -73.137383 147.038208
  endloop
 endfacet
 facet normal 0.000000 -0.923880 -0.382683
  outer loop
   vertex -284.143219 -75.437172 149.323471
   vertex -284.143219 -74.292412 146.559769
   vertex -282.754639 -74.292412 146.559769
  endloop
 endfacet
 facet normal 0.000000 -0.923879 -0.382684
  outer loop
   vertex -284.143219 -83.922600 169.809113
   vertex -284.143219 -82.777840 167.045425
   vertex -282.754608 -83.922600 169.809113
  endloop
 endfacet
 facet normal 0.000000 -0.382680 0.923881
  outer loop
   vertex -282.754639 -75.437172 149.323471
   vertex -282.754639 -74.282143 149.801895
   vertex -284.143219 -74.282143 149.801895
  endloop
 endfacet
 facet normal 1.000000 0.000004 -0.000009
  outer loop
   vertex -282.754639 -82.777840 167.045425
   vertex -282.754639 -81.622810 167.523849
   vertex -282.754608 -82.767570 170.287537
  endloop
 endfacet
 facet normal -1.000000 0.000000 0.000000
  outer loop
   vertex -286.913055 -81.558304 167.785934
   vertex -286.913055 -74.152473 149.620239
   vertex -286.913055 -81.659569 167.743988
  endloop
 endfacet
 facet normal -0.593840 -0.743338 -0.307900
  outer loop
   vertex -286.913055 -81.659569 167.743988
   vertex -286.913055 -74.152473 149.620239
   vertex -286.796173 -81.739273 167.710983
  endloop
 endfacet
 facet normal -0.610660 -0.731615 -0.303041
  outer loop
   vertex -286.972229 -75.771538 149.758774
   vertex -286.889130 -75.387321 148.663727
   vertex -286.889130 -75.830742 149.734253
  endloop
 endfacet
 facet normal 0.000000 -0.923881 -0.382679
  outer loop
   vertex -286.889130 -75.830742 149.734253
   vertex -286.889130 -75.387321 148.663727
   vertex -286.047485 -75.387321 148.663727
  endloop
 endfacet
 facet normal 0.000000 0.923879 0.382684
  outer loop
   vertex -286.047485 -81.672661 168.183594
   vertex -286.889099 -81.229240 167.113083
   vertex -286.889099 -81.672661 168.183594
  endloop
 endfacet
 facet normal -0.610519 0.731714 0.303086
  outer loop
   vertex -286.889099 -81.672661 168.183594
   vertex -286.889099 -81.229240 167.113083
   vertex -286.972229 -81.288445 167.088562
  endloop
 endfacet
 facet normal -0.593840 0.743338 0.307900
  outer loop
   vertex -286.796173 -75.320709 149.136337
   vertex -286.913055 -75.400414 149.103333
   vertex -286.913055 -82.907509 167.227081
  endloop
 endfacet
 facet normal -1.000000 -0.000000 -0.000000
  outer loop
   vertex -286.913055 -82.907509 167.227081
   vertex -286.913055 -75.400414 149.103333
   vertex -286.913055 -83.008781 167.185135
  endloop
 endfacet
 facet normal -0.933174 0.332065 0.137547
  outer loop
   vertex -286.144348 -74.082169 149.649368
   vertex -286.144318 -81.589272 167.773102
   vertex -286.131439 -74.051201 149.662186
  endloop
 endfacet
 facet normal -0.933480 0.331331 0.137242
  outer loop
   vertex -286.131439 -74.051201 149.662186
   vertex -286.144318 -81.589272 167.773102
   vertex -286.131439 -81.558304 167.785934
  endloop
 endfacet
 facet normal 0.000000 0.923880 0.382683
  outer loop
   vertex -286.131439 -81.558304 167.785934
   vertex -286.060822 -74.051201 149.662186
   vertex -286.131439 -74.051201 149.662186
  endloop
 endfacet
 facet normal 0.000002 0.382650 -0.923893
  outer loop
   vertex -286.889130 -73.850883 149.300140
   vertex -286.873535 -74.070534 149.209167
   vertex -286.972229 -73.910088 149.275620
  endloop
 endfacet
 facet normal 0.000128 0.382716 -0.923866
  outer loop
   vertex -286.972229 -73.910088 149.275620
   vertex -286.873535 -74.070534 149.209167
   vertex -286.972229 -74.056946 149.214783
  endloop
 endfacet
 facet normal -1.000000 0.000000 0.000000
  outer loop
   vertex -286.972229 -74.056946 149.214783
   vertex -286.972229 -74.353508 150.346130
   vertex -286.972229 -73.910088 149.275620
  endloop
 endfacet
 facet normal -0.000041 -0.382703 0.923872
  outer loop
   vertex -286.889099 -83.209099 167.547180
   vertex -286.873535 -82.989449 167.638168
   vertex -286.972229 -83.149895 167.571701
  endloop
 endfacet
 facet normal -0.000047 -0.382699 0.923873
  outer loop
   vertex -286.972229 -83.149895 167.571701
   vertex -286.873535 -82.989449 167.638168
   vertex -286.972229 -83.003029 167.632538
  endloop
 endfacet
 facet normal -1.000000 0.000000 0.000000
  outer loop
   vertex -286.972229 -83.003029 167.632538
   vertex -286.972229 -82.706474 166.501190
   vertex -286.972229 -83.149895 167.571701
  endloop
 endfacet
 facet normal -0.000061 -0.382617 0.923907
  outer loop
   vertex -286.972229 -75.624672 149.819595
   vertex -286.972229 -75.771538 149.758774
   vertex -286.873535 -75.611092 149.825226
  endloop
 endfacet
 facet normal 0.000002 -0.382650 0.923893
  outer loop
   vertex -286.873535 -75.611092 149.825226
   vertex -286.972229 -75.771538 149.758774
   vertex -286.889130 -75.830742 149.734253
  endloop
 endfacet
 facet normal 0.000000 -0.382650 0.923893
  outer loop
   vertex -286.889130 -75.830742 149.734253
   vertex -286.047485 -75.830742 149.734253
   vertex -286.873535 -75.611092 149.825226
  endloop
 endfacet
 facet normal -0.000000 -0.923881 -0.382679
  outer loop
   vertex -286.047485 -75.387321 148.663727
   vertex -286.047485 -75.830742 149.734253
   vertex -286.889130 -75.830742 149.734253
  endloop
 endfacet
 facet normal -0.593809 0.743359 0.307910
  outer loop
   vertex -286.913055 -82.907509 167.227081
   vertex -286.796173 -82.827812 167.260086
   vertex -286.796173 -75.320709 149.136337
  endloop
 endfacet
 facet normal -1.000000 0.000000 -0.000000
  outer loop
   vertex -286.796173 -75.320709 149.136337
   vertex -286.796173 -82.827812 167.260086
   vertex -286.796173 -81.739273 167.710983
  endloop
 endfacet
 facet normal -1.000000 -0.000000 0.000000
  outer loop
   vertex -286.796173 -81.739273 167.710983
   vertex -286.796173 -74.232170 149.587234
   vertex -286.796173 -75.320709 149.136337
  endloop
 endfacet
 facet normal -0.593809 -0.743359 -0.307910
  outer loop
   vertex -286.913055 -74.152473 149.620239
   vertex -286.796173 -74.232170 149.587234
   vertex -286.796173 -81.739273 167.710983
  endloop
 endfacet
 facet normal 0.000000 0.923879 0.382684
  outer loop
   vertex -286.047485 -81.672661 168.183594
   vertex -286.047485 -81.229240 167.113083
   vertex -286.889099 -81.229240 167.113083
  endloop
 endfacet
 facet normal -0.000000 0.382705 -0.923871
  outer loop
   vertex -286.889099 -81.229240 167.113083
   vertex -286.047485 -81.229240 167.113083
   vertex -286.873535 -81.448891 167.022095
  endloop
 endfacet
 facet normal -0.000041 0.382703 -0.923872
  outer loop
   vertex -286.873535 -81.448891 167.022095
   vertex -286.972229 -81.288445 167.088562
   vertex -286.889099 -81.229240 167.113083
  endloop
 endfacet
 facet normal -0.000015 0.382716 -0.923866
  outer loop
   vertex -286.972229 -81.435303 167.027725
   vertex -286.972229 -81.288445 167.088562
   vertex -286.873535 -81.448891 167.022095
  endloop
 endfacet
 facet normal 0.933480 0.331331 0.137242
  outer loop
   vertex -286.757874 -81.589272 167.773102
   vertex -286.757874 -74.082169 149.649368
   vertex -286.770752 -81.558304 167.785934
  endloop
 endfacet
 facet normal 0.933459 0.331381 0.137263
  outer loop
   vertex -286.770752 -81.558304 167.785934
   vertex -286.757874 -74.082169 149.649368
   vertex -286.770752 -74.051201 149.662186
  endloop
 endfacet
 facet normal -0.000000 0.923880 0.382683
  outer loop
   vertex -286.770752 -74.051201 149.662186
   vertex -286.913055 -81.558304 167.785934
   vertex -286.770752 -81.558304 167.785934
  endloop
 endfacet
 facet normal -0.000000 0.923880 0.382683
  outer loop
   vertex -286.913055 -74.051201 149.662186
   vertex -286.913055 -81.558304 167.785934
   vertex -286.770752 -74.051201 149.662186
  endloop
 endfacet
 facet normal -1.000000 0.000000 0.000000
  outer loop
   vertex -286.913055 -74.152473 149.620239
   vertex -286.913055 -81.558304 167.785934
   vertex -286.913055 -74.051201 149.662186
  endloop
 endfacet
 facet normal -1.000000 0.000000 0.000000
  outer loop
   vertex -285.697205 -82.462326 169.373901
   vertex -285.697205 -82.861671 167.424530
   vertex -285.697205 -83.492393 168.947220
  endloop
 endfacet
 facet normal -0.000000 -0.923879 -0.382685
  outer loop
   vertex -285.697205 -83.492393 168.947220
   vertex -285.697205 -82.861671 167.424530
   vertex -284.156158 -83.492393 168.947220
  endloop
 endfacet
 facet normal 0.000000 -0.382682 0.923880
  outer loop
   vertex -284.156158 -83.492393 168.947220
   vertex -284.156158 -82.462326 169.373886
   vertex -285.697205 -83.492393 168.947220
  endloop
 endfacet
 facet normal 1.000000 -0.000000 -0.000000
  outer loop
   vertex -284.156158 -82.861671 167.424530
   vertex -284.156158 -82.462326 169.373886
   vertex -284.156158 -83.492393 168.947220
  endloop
 endfacet
 facet normal 1.000000 0.000000 0.000000
  outer loop
   vertex -284.156158 -81.831604 167.851196
   vertex -284.156158 -82.462326 169.373886
   vertex -284.156158 -82.861671 167.424530
  endloop
 endfacet
 facet normal -0.000000 0.382682 -0.923880
  outer loop
   vertex -284.156158 -82.861671 167.424530
   vertex -285.697205 -82.861671 167.424530
   vertex -284.156158 -81.831604 167.851196
  endloop
 endfacet
 facet normal 0.000000 0.382682 -0.923880
  outer loop
   vertex -284.156158 -81.831604 167.851196
   vertex -285.697205 -82.861671 167.424530
   vertex -285.697205 -81.831604 167.851196
  endloop
 endfacet
 facet normal -1.000000 -0.000000 -0.000000
  outer loop
   vertex -285.697205 -81.831604 167.851196
   vertex -285.697205 -82.861671 167.424530
   vertex -285.697205 -82.462326 169.373901
  endloop
 endfacet
 facet normal 0.000004 0.923880 0.382682
  outer loop
   vertex -285.697205 -82.462326 169.373901
   vertex -284.156158 -82.462326 169.373886
   vertex -285.697205 -81.831604 167.851196
  endloop
 endfacet
 facet normal 0.000009 -0.382694 0.923875
  outer loop
   vertex -285.697205 -83.492393 168.947220
   vertex -284.156158 -82.462326 169.373886
   vertex -285.697205 -82.462326 169.373901
  endloop
 endfacet
 facet normal 0.000000 0.923879 0.382685
  outer loop
   vertex -285.697205 -73.567589 147.900101
   vertex -285.697205 -74.198311 149.422791
   vertex -284.156158 -73.567589 147.900101
  endloop
 endfacet
 facet normal -0.000000 0.923879 0.382685
  outer loop
   vertex -284.156158 -73.567589 147.900101
   vertex -285.697205 -74.198311 149.422791
   vertex -284.156158 -74.198311 149.422791
  endloop
 endfacet
 facet normal 1.000000 0.000000 0.000000
  outer loop
   vertex -284.156158 -74.198311 149.422791
   vertex -284.156158 -74.597656 147.473434
   vertex -284.156158 -73.567589 147.900101
  endloop
 endfacet
 facet normal 1.000000 -0.000000 -0.000000
  outer loop
   vertex -284.156158 -75.228378 148.996124
   vertex -284.156158 -74.597656 147.473434
   vertex -284.156158 -74.198311 149.422791
  endloop
 endfacet
 facet normal 0.000000 -0.923879 -0.382685
  outer loop
   vertex -285.697205 -75.228378 148.996124
   vertex -284.156158 -74.597656 147.473434
   vertex -284.156158 -75.228378 148.996124
  endloop
 endfacet
 facet normal -0.000000 -0.382682 0.923880
  outer loop
   vertex -284.156158 -75.228378 148.996124
   vertex -285.697205 -74.198311 149.422791
   vertex -285.697205 -75.228378 148.996124
  endloop
 endfacet
 facet normal -1.000000 0.000000 0.000000
  outer loop
   vertex -285.697205 -75.228378 148.996124
   vertex -285.697205 -74.198311 149.422791
   vertex -285.697205 -74.597656 147.473434
  endloop
 endfacet
 facet normal -1.000000 -0.000000 -0.000000
  outer loop
   vertex -285.697205 -74.597656 147.473434
   vertex -285.697205 -74.198311 149.422791
   vertex -285.697205 -73.567589 147.900101
  endloop
 endfacet
 facet normal 0.000000 0.382682 -0.923880
  outer loop
   vertex -285.697205 -73.567589 147.900101
   vertex -284.156158 -74.597656 147.473434
   vertex -285.697205 -74.597656 147.473434
  endloop
 endfacet
 facet normal -0.000000 0.382682 -0.923880
  outer loop
   vertex -284.156158 -73.567589 147.900101
   vertex -284.156158 -74.597656 147.473434
   vertex -285.697205 -73.567589 147.900101
  endloop
 endfacet
 facet normal 1.000000 0.000000 -0.000000
  outer loop
   vertex -285.082214 -83.759216 170.394836
   vertex -285.082214 -83.625275 170.071487
   vertex -285.082214 -83.163338 170.262817
  endloop
 endfacet
 facet normal -1.000000 -0.000000 -0.000000
  outer loop
   vertex -285.082214 -83.163338 170.262817
   vertex -285.082214 -83.625275 170.071487
   vertex -285.082214 -83.461273 170.328827
  endloop
 endfacet
 facet normal -1.000000 0.000000 -0.000000
  outer loop
   vertex -285.082214 -83.461273 170.328827
   vertex -285.082214 -83.297272 170.586182
   vertex -285.082214 -83.163338 170.262817
  endloop
 endfacet
 facet normal -1.000000 -0.000000 -0.000000
  outer loop
   vertex -285.082214 -83.759216 170.394836
   vertex -285.082214 -83.297272 170.586182
   vertex -285.082214 -83.461273 170.328827
  endloop
 endfacet
 facet normal 0.000000 -0.382686 0.923878
  outer loop
   vertex -284.082214 -83.297272 170.586182
   vertex -285.082214 -83.297272 170.586182
   vertex -285.082214 -83.759216 170.394836
  endloop
 endfacet
 facet normal -0.000000 -0.382686 0.923878
  outer loop
   vertex -285.082214 -83.759216 170.394836
   vertex -284.082214 -83.759216 170.394836
   vertex -284.082214 -83.297272 170.586182
  endloop
 endfacet
 facet normal 1.000000 -0.000000 0.000000
  outer loop
   vertex -284.082214 -83.297272 170.586182
   vertex -284.082214 -83.759216 170.394836
   vertex -284.082214 -82.646713 169.015579
  endloop
 endfacet
 facet normal 1.000000 -0.000000 -0.000000
  outer loop
   vertex -284.082214 -82.646713 169.015579
   vertex -284.082214 -83.759216 170.394836
   vertex -284.082214 -83.108650 168.824249
  endloop
 endfacet
 facet normal 0.000000 0.382665 -0.923887
  outer loop
   vertex -284.082214 -83.108650 168.824249
   vertex -285.082214 -83.108650 168.824249
   vertex -284.082214 -82.646713 169.015579
  endloop
 endfacet
 facet normal 0.000000 -0.923875 -0.382694
  outer loop
   vertex -284.832214 -83.268227 169.209488
   vertex -285.082214 -83.108650 168.824249
   vertex -284.082214 -83.108650 168.824249
  endloop
 endfacet
 facet normal 0.000007 -0.923873 -0.382698
  outer loop
   vertex -285.082214 -83.242592 169.147598
   vertex -285.082214 -83.108650 168.824249
   vertex -284.832214 -83.268227 169.209488
  endloop
 endfacet
 facet normal -0.000000 0.923875 0.382694
  outer loop
   vertex -284.832214 -73.791756 147.637833
   vertex -285.082214 -73.951332 148.023071
   vertex -284.082214 -73.951332 148.023071
  endloop
 endfacet
 facet normal -0.000000 -0.382665 0.923887
  outer loop
   vertex -284.082214 -73.951332 148.023071
   vertex -285.082214 -73.951332 148.023071
   vertex -284.082214 -74.413269 147.831741
  endloop
 endfacet
 facet normal 1.000000 0.000000 0.000000
  outer loop
   vertex -284.082214 -74.413269 147.831741
   vertex -284.082214 -73.300766 146.452484
   vertex -284.082214 -73.951332 148.023071
  endloop
 endfacet
 facet normal 1.000000 0.000000 -0.000000
  outer loop
   vertex -284.082214 -73.762711 146.261139
   vertex -284.082214 -73.300766 146.452484
   vertex -284.082214 -74.413269 147.831741
  endloop
 endfacet
 facet normal 0.000000 0.382686 -0.923878
  outer loop
   vertex -285.082214 -73.300766 146.452484
   vertex -284.082214 -73.300766 146.452484
   vertex -284.082214 -73.762711 146.261139
  endloop
 endfacet
 facet normal -0.000000 0.382686 -0.923878
  outer loop
   vertex -284.082214 -73.762711 146.261139
   vertex -285.082214 -73.762711 146.261139
   vertex -285.082214 -73.300766 146.452484
  endloop
 endfacet
 facet normal -1.000000 0.000000 0.000000
  outer loop
   vertex -285.082214 -73.300766 146.452484
   vertex -285.082214 -73.762711 146.261139
   vertex -285.082214 -73.598709 146.518494
  endloop
 endfacet
 facet normal -1.000000 -0.000000 0.000000
  outer loop
   vertex -285.082214 -73.598709 146.518494
   vertex -285.082214 -73.762711 146.261139
   vertex -285.082214 -73.896645 146.584503
  endloop
 endfacet
 facet normal -1.000000 0.000000 0.000000
  outer loop
   vertex -285.082214 -73.896645 146.584503
   vertex -285.082214 -73.434708 146.775833
   vertex -285.082214 -73.598709 146.518494
  endloop
 endfacet
 facet normal 1.000000 -0.000000 0.000000
  outer loop
   vertex -285.082214 -73.300766 146.452484
   vertex -285.082214 -73.434708 146.775833
   vertex -285.082214 -73.896645 146.584503
  endloop
 endfacet
 facet normal -1.000000 0.000000 -0.000000
  outer loop
   vertex -285.082214 -73.598709 146.518494
   vertex -285.082214 -73.434708 146.775833
   vertex -285.082214 -73.300766 146.452484
  endloop
 endfacet
 facet normal -1.000000 0.000000 0.000000
  outer loop
   vertex -286.913055 -75.400414 149.103333
   vertex -286.913055 -75.501678 149.061386
   vertex -286.913055 -83.008781 167.185135
  endloop
 endfacet
 facet normal 0.000000 -0.923880 -0.382683
  outer loop
   vertex -286.913055 -83.008781 167.185135
   vertex -286.913055 -75.501678 149.061386
   vertex -286.770752 -75.501678 149.061386
  endloop
 endfacet
 facet normal -0.000000 -0.923880 -0.382683
  outer loop
   vertex -286.770752 -75.501678 149.061386
   vertex -286.770752 -83.008781 167.185135
   vertex -286.913055 -83.008781 167.185135
  endloop
 endfacet
 facet normal 0.933480 -0.331331 -0.137242
  outer loop
   vertex -286.757874 -75.470711 149.074219
   vertex -286.770752 -83.008781 167.185135
   vertex -286.770752 -75.501678 149.061386
  endloop
 endfacet
 facet normal 0.933484 -0.331321 -0.137238
  outer loop
   vertex -286.757874 -82.977806 167.197952
   vertex -286.770752 -83.008781 167.185135
   vertex -286.757874 -75.470711 149.074219
  endloop
 endfacet
 facet normal -0.000000 -0.923880 -0.382683
  outer loop
   vertex -286.757874 -75.470711 149.074219
   vertex -286.144348 -75.470711 149.074219
   vertex -286.757874 -82.977806 167.197952
  endloop
 endfacet
 facet normal 0.000000 -0.923880 -0.382683
  outer loop
   vertex -286.757874 -82.977806 167.197952
   vertex -286.144348 -75.470711 149.074219
   vertex -286.144318 -82.977806 167.197952
  endloop
 endfacet
 facet normal -0.933195 -0.332016 -0.137524
  outer loop
   vertex -286.144318 -82.977806 167.197952
   vertex -286.144348 -75.470711 149.074219
   vertex -286.131439 -75.501678 149.061386
  endloop
 endfacet
 facet normal -0.933484 -0.331321 -0.137238
  outer loop
   vertex -286.131439 -75.501678 149.061386
   vertex -286.131439 -83.008781 167.185135
   vertex -286.144318 -82.977806 167.197952
  endloop
 endfacet
 facet normal -0.000000 -0.923880 -0.382683
  outer loop
   vertex -286.060852 -75.501678 149.061386
   vertex -286.131439 -83.008781 167.185135
   vertex -286.131439 -75.501678 149.061386
  endloop
 endfacet
 facet normal 0.000000 -0.923880 -0.382683
  outer loop
   vertex -286.060822 -83.008781 167.185135
   vertex -286.131439 -83.008781 167.185135
   vertex -286.060852 -75.501678 149.061386
  endloop
 endfacet
 facet normal 1.000000 -0.000017 -0.000009
  outer loop
   vertex -286.060852 -75.501678 149.061386
   vertex -286.060822 -74.051201 149.662186
   vertex -286.060822 -83.008781 167.185135
  endloop
 endfacet
 facet normal 1.000000 0.000000 0.000000
  outer loop
   vertex -286.060822 -83.008781 167.185135
   vertex -286.060822 -74.051201 149.662186
   vertex -286.060822 -81.558304 167.785934
  endloop
 endfacet
 facet normal -0.000000 0.923880 0.382683
  outer loop
   vertex -286.060822 -81.558304 167.785934
   vertex -286.060822 -74.051201 149.662186
   vertex -286.131439 -81.558304 167.785934
  endloop
 endfacet
 facet normal 0.000000 0.923887 0.382666
  outer loop
   vertex -284.832214 -82.806282 169.400833
   vertex -284.082214 -82.646713 169.015579
   vertex -285.082214 -82.646713 169.015579
  endloop
 endfacet
 facet normal -0.000000 0.382665 -0.923887
  outer loop
   vertex -285.082214 -82.646713 169.015579
   vertex -284.082214 -82.646713 169.015579
   vertex -285.082214 -83.108650 168.824249
  endloop
 endfacet
 facet normal -1.000000 0.000000 -0.000000
  outer loop
   vertex -285.082214 -83.108650 168.824249
   vertex -285.082214 -82.780647 169.338943
   vertex -285.082214 -82.646713 169.015579
  endloop
 endfacet
 facet normal -1.000000 -0.000000 -0.000000
  outer loop
   vertex -285.082214 -83.242592 169.147598
   vertex -285.082214 -82.780647 169.338943
   vertex -285.082214 -83.108650 168.824249
  endloop
 endfacet
 facet normal 1.000000 0.000000 0.000000
  outer loop
   vertex -285.082214 -83.108650 168.824249
   vertex -285.082214 -82.780647 169.338943
   vertex -285.082214 -83.242592 169.147598
  endloop
 endfacet
 facet normal -0.000007 -0.923873 -0.382698
  outer loop
   vertex -285.082214 -83.242592 169.147598
   vertex -285.332214 -83.268227 169.209488
   vertex -285.082214 -83.108650 168.824249
  endloop
 endfacet
 facet normal -0.000004 -0.923874 -0.382697
  outer loop
   vertex -285.082214 -83.108650 168.824249
   vertex -285.332214 -83.268227 169.209488
   vertex -285.507202 -83.152229 168.929459
  endloop
 endfacet
 facet normal -0.000006 -0.923874 -0.382696
  outer loop
   vertex -285.507202 -83.152229 168.929459
   vertex -285.332214 -83.268227 169.209488
   vertex -285.515228 -83.338264 169.378571
  endloop
 endfacet
 facet normal 0.000008 -0.923875 -0.382695
  outer loop
   vertex -285.515228 -83.338264 169.378571
   vertex -285.818329 -83.271294 169.216888
   vertex -285.507202 -83.152229 168.929459
  endloop
 endfacet
 facet normal -0.000012 -0.923888 -0.382663
  outer loop
   vertex -285.582214 -83.433929 169.609543
   vertex -285.818329 -83.271294 169.216888
   vertex -285.515228 -83.338264 169.378571
  endloop
 endfacet
 facet normal 0.000000 -0.923885 -0.382669
  outer loop
   vertex -285.932220 -83.433929 169.609543
   vertex -285.818329 -83.271294 169.216888
   vertex -285.582214 -83.433929 169.609543
  endloop
 endfacet
 facet normal -0.000000 -0.923878 -0.382686
  outer loop
   vertex -285.582214 -83.433929 169.609543
   vertex -285.515228 -83.529602 169.840515
   vertex -285.932220 -83.433929 169.609543
  endloop
 endfacet
 facet normal -0.000001 -0.923879 -0.382684
  outer loop
   vertex -285.932220 -83.433929 169.609543
   vertex -285.515228 -83.529602 169.840515
   vertex -285.818329 -83.596573 170.002197
  endloop
 endfacet
 facet normal -0.000003 -0.923878 -0.382688
  outer loop
   vertex -285.818329 -83.596573 170.002197
   vertex -285.515228 -83.529602 169.840515
   vertex -285.332214 -83.599640 170.009598
  endloop
 endfacet
 facet normal -0.000003 -0.923873 -0.382700
  outer loop
   vertex -285.332214 -83.599640 170.009598
   vertex -285.507202 -83.715637 170.289627
   vertex -285.818329 -83.596573 170.002197
  endloop
 endfacet
 facet normal 0.000006 -0.923875 -0.382695
  outer loop
   vertex -285.082214 -83.625275 170.071487
   vertex -285.507202 -83.715637 170.289627
   vertex -285.332214 -83.599640 170.009598
  endloop
 endfacet
 facet normal 0.000004 -0.923873 -0.382698
  outer loop
   vertex -285.082214 -83.759216 170.394836
   vertex -285.507202 -83.715637 170.289627
   vertex -285.082214 -83.625275 170.071487
  endloop
 endfacet
 facet normal -0.000007 -0.923873 -0.382698
  outer loop
   vertex -285.082214 -83.625275 170.071487
   vertex -284.832214 -83.599640 170.009598
   vertex -285.082214 -83.759216 170.394836
  endloop
 endfacet
 facet normal 0.000000 -0.923875 -0.382694
  outer loop
   vertex -285.082214 -83.759216 170.394836
   vertex -284.832214 -83.599640 170.009598
   vertex -284.082214 -83.759216 170.394836
  endloop
 endfacet
 facet normal -0.000001 -0.923876 -0.382692
  outer loop
   vertex -284.082214 -83.759216 170.394836
   vertex -284.832214 -83.599640 170.009598
   vertex -284.649200 -83.529602 169.840515
  endloop
 endfacet
 facet normal -0.000006 -0.923878 -0.382688
  outer loop
   vertex -284.649200 -83.529602 169.840515
   vertex -284.582214 -83.433929 169.609543
   vertex -284.082214 -83.759216 170.394836
  endloop
 endfacet
 facet normal -0.000000 -0.923887 -0.382666
  outer loop
   vertex -284.832214 -74.253700 147.446487
   vertex -284.082214 -74.413269 147.831741
   vertex -285.082214 -74.413269 147.831741
  endloop
 endfacet
 facet normal -0.000000 -0.382665 0.923887
  outer loop
   vertex -285.082214 -74.413269 147.831741
   vertex -284.082214 -74.413269 147.831741
   vertex -285.082214 -73.951332 148.023071
  endloop
 endfacet
 facet normal -1.000000 0.000000 0.000000
  outer loop
   vertex -285.082214 -73.951332 148.023071
   vertex -285.082214 -74.279335 147.508377
   vertex -285.082214 -74.413269 147.831741
  endloop
 endfacet
 facet normal -1.000000 -0.000000 -0.000000
  outer loop
   vertex -285.082214 -73.817390 147.699722
   vertex -285.082214 -74.279335 147.508377
   vertex -285.082214 -73.951332 148.023071
  endloop
 endfacet
 facet normal 1.000000 0.000000 0.000000
  outer loop
   vertex -285.082214 -73.951332 148.023071
   vertex -285.082214 -74.279335 147.508377
   vertex -285.082214 -73.817390 147.699722
  endloop
 endfacet
 facet normal -0.000007 0.923873 0.382698
  outer loop
   vertex -285.082214 -73.817390 147.699722
   vertex -285.332214 -73.791756 147.637833
   vertex -285.082214 -73.951332 148.023071
  endloop
 endfacet
 facet normal -0.000004 0.923874 0.382697
  outer loop
   vertex -285.082214 -73.951332 148.023071
   vertex -285.332214 -73.791756 147.637833
   vertex -285.507202 -73.907753 147.917862
  endloop
 endfacet
 facet normal -0.000006 0.923874 0.382696
  outer loop
   vertex -285.507202 -73.907753 147.917862
   vertex -285.332214 -73.791756 147.637833
   vertex -285.515228 -73.721718 147.468750
  endloop
 endfacet
 facet normal 0.000008 0.923875 0.382695
  outer loop
   vertex -285.515228 -73.721718 147.468750
   vertex -285.818329 -73.788689 147.630432
   vertex -285.507202 -73.907753 147.917862
  endloop
 endfacet
 facet normal -0.000012 0.923888 0.382663
  outer loop
   vertex -285.582214 -73.626053 147.237778
   vertex -285.818329 -73.788689 147.630432
   vertex -285.515228 -73.721718 147.468750
  endloop
 endfacet
 facet normal 0.000000 0.923885 0.382669
  outer loop
   vertex -285.932220 -73.626053 147.237778
   vertex -285.818329 -73.788689 147.630432
   vertex -285.582214 -73.626053 147.237778
  endloop
 endfacet
 facet normal -0.000000 0.923878 0.382686
  outer loop
   vertex -285.582214 -73.626053 147.237778
   vertex -285.515228 -73.530380 147.006805
   vertex -285.932220 -73.626053 147.237778
  endloop
 endfacet
 facet normal -0.000001 0.923879 0.382684
  outer loop
   vertex -285.932220 -73.626053 147.237778
   vertex -285.515228 -73.530380 147.006805
   vertex -285.818329 -73.463409 146.845123
  endloop
 endfacet
 facet normal -0.000003 0.923878 0.382688
  outer loop
   vertex -285.818329 -73.463409 146.845123
   vertex -285.515228 -73.530380 147.006805
   vertex -285.332214 -73.460342 146.837723
  endloop
 endfacet
 facet normal -0.000003 0.923873 0.382700
  outer loop
   vertex -285.332214 -73.460342 146.837723
   vertex -285.507233 -73.344345 146.557693
   vertex -285.818329 -73.463409 146.845123
  endloop
 endfacet
 facet normal 0.000006 0.923875 0.382695
  outer loop
   vertex -285.082214 -73.434708 146.775833
   vertex -285.507233 -73.344345 146.557693
   vertex -285.332214 -73.460342 146.837723
  endloop
 endfacet
 facet normal 0.000004 0.923873 0.382698
  outer loop
   vertex -285.082214 -73.300766 146.452484
   vertex -285.507233 -73.344345 146.557693
   vertex -285.082214 -73.434708 146.775833
  endloop
 endfacet
 facet normal -0.000007 0.923873 0.382698
  outer loop
   vertex -285.082214 -73.434708 146.775833
   vertex -284.832214 -73.460342 146.837723
   vertex -285.082214 -73.300766 146.452484
  endloop
 endfacet
 facet normal 0.000000 0.923875 0.382694
  outer loop
   vertex -285.082214 -73.300766 146.452484
   vertex -284.832214 -73.460342 146.837723
   vertex -284.082214 -73.300766 146.452484
  endloop
 endfacet
 facet normal -0.000001 0.923876 0.382692
  outer loop
   vertex -284.082214 -73.300766 146.452484
   vertex -284.832214 -73.460342 146.837723
   vertex -284.649200 -73.530380 147.006805
  endloop
 endfacet
 facet normal -0.000006 0.923878 0.382688
  outer loop
   vertex -284.649200 -73.530380 147.006805
   vertex -284.582214 -73.626053 147.237778
   vertex -284.082214 -73.300766 146.452484
  endloop
 endfacet
 facet normal 0.455432 -0.822504 -0.340688
  outer loop
   vertex -286.047485 -75.387321 148.663727
   vertex -285.556244 -75.155151 148.759903
   vertex -286.047485 -75.830742 149.734253
  endloop
 endfacet
 facet normal 0.455401 -0.822513 -0.340709
  outer loop
   vertex -286.047485 -75.830742 149.734253
   vertex -285.556244 -75.155151 148.759903
   vertex -285.556213 -75.598572 149.830414
  endloop
 endfacet
 facet normal 0.000013 -0.382683 0.923880
  outer loop
   vertex -285.556213 -75.598572 149.830414
   vertex -285.556213 -74.526474 150.274490
   vertex -286.047485 -75.830742 149.734253
  endloop
 endfacet
 facet normal 1.000000 0.000010 -0.000024
  outer loop
   vertex -285.556244 -75.155151 148.759903
   vertex -285.556213 -74.526474 150.274490
   vertex -285.556213 -75.598572 149.830414
  endloop
 endfacet
 facet normal 1.000000 -0.000024 -0.000010
  outer loop
   vertex -285.556213 -74.083054 149.203979
   vertex -285.556213 -74.526474 150.274490
   vertex -285.556244 -75.155151 148.759903
  endloop
 endfacet
 facet normal 0.000013 0.382683 -0.923880
  outer loop
   vertex -285.556244 -75.155151 148.759903
   vertex -286.047485 -73.850883 149.300140
   vertex -285.556213 -74.083054 149.203979
  endloop
 endfacet
 facet normal 0.455401 0.822517 0.340698
  outer loop
   vertex -285.556213 -74.083054 149.203979
   vertex -286.047485 -73.850883 149.300140
   vertex -285.556213 -74.526474 150.274490
  endloop
 endfacet
 facet normal 0.455401 0.822517 0.340698
  outer loop
   vertex -285.556213 -74.526474 150.274490
   vertex -286.047485 -73.850883 149.300140
   vertex -286.047485 -74.294304 150.370651
  endloop
 endfacet
 facet normal -0.000009 -0.382676 0.923883
  outer loop
   vertex -286.047485 -74.294304 150.370651
   vertex -286.047485 -75.830742 149.734253
   vertex -285.556213 -74.526474 150.274490
  endloop
 endfacet
 facet normal 0.000008 -0.382676 0.923883
  outer loop
   vertex -286.873535 -74.513954 150.279678
   vertex -286.047485 -75.830742 149.734253
   vertex -286.047485 -74.294304 150.370651
  endloop
 endfacet
 facet normal -0.000011 -0.382686 0.923879
  outer loop
   vertex -286.873535 -75.611092 149.825226
   vertex -286.047485 -75.830742 149.734253
   vertex -286.873535 -74.513954 150.279678
  endloop
 endfacet
 facet normal -1.000000 -0.000000 0.000000
  outer loop
   vertex -286.873535 -74.513954 150.279678
   vertex -286.873535 -75.167671 148.754715
   vertex -286.873535 -75.611092 149.825226
  endloop
 endfacet
 facet normal -0.147333 0.913797 0.378507
  outer loop
   vertex -286.873535 -75.611092 149.825226
   vertex -286.873535 -75.167671 148.754715
   vertex -286.972229 -75.624672 149.819595
  endloop
 endfacet
 facet normal -0.147333 0.913797 0.378507
  outer loop
   vertex -286.972229 -75.624672 149.819595
   vertex -286.873535 -75.167671 148.754715
   vertex -286.972229 -75.181252 148.749084
  endloop
 endfacet
 facet normal -1.000000 0.000000 0.000000
  outer loop
   vertex -286.972229 -75.181252 148.749084
   vertex -286.972229 -75.771538 149.758774
   vertex -286.972229 -75.624672 149.819595
  endloop
 endfacet
 facet normal -1.000000 -0.000000 -0.000000
  outer loop
   vertex -286.972229 -75.328117 148.688248
   vertex -286.972229 -75.771538 149.758774
   vertex -286.972229 -75.181252 148.749084
  endloop
 endfacet
 facet normal -0.610660 -0.731615 -0.303041
  outer loop
   vertex -286.889130 -75.387321 148.663727
   vertex -286.972229 -75.771538 149.758774
   vertex -286.972229 -75.328117 148.688248
  endloop
 endfacet
 facet normal 0.000041 0.382703 -0.923872
  outer loop
   vertex -286.972229 -75.328117 148.688248
   vertex -286.873535 -75.167671 148.754715
   vertex -286.889130 -75.387321 148.663727
  endloop
 endfacet
 facet normal 0.000000 0.382705 -0.923871
  outer loop
   vertex -286.889130 -75.387321 148.663727
   vertex -286.873535 -75.167671 148.754715
   vertex -286.047485 -75.387321 148.663727
  endloop
 endfacet
 facet normal -0.000006 0.382686 -0.923879
  outer loop
   vertex -286.047485 -75.387321 148.663727
   vertex -286.873535 -75.167671 148.754715
   vertex -286.873535 -74.070534 149.209167
  endloop
 endfacet
 facet normal -0.000010 0.382683 -0.923880
  outer loop
   vertex -286.873535 -74.070534 149.209167
   vertex -286.047485 -73.850883 149.300140
   vertex -286.047485 -75.387321 148.663727
  endloop
 endfacet
 facet normal -0.000000 0.382650 -0.923893
  outer loop
   vertex -286.889130 -73.850883 149.300140
   vertex -286.047485 -73.850883 149.300140
   vertex -286.873535 -74.070534 149.209167
  endloop
 endfacet
 facet normal 0.000000 0.923879 0.382684
  outer loop
   vertex -286.047485 -74.294304 150.370651
   vertex -286.047485 -73.850883 149.300140
   vertex -286.889130 -73.850883 149.300140
  endloop
 endfacet
 facet normal -0.000000 0.923879 0.382684
  outer loop
   vertex -286.889130 -73.850883 149.300140
   vertex -286.889130 -74.294304 150.370651
   vertex -286.047485 -74.294304 150.370651
  endloop
 endfacet
 facet normal 0.000000 -0.382650 0.923893
  outer loop
   vertex -286.047485 -74.294304 150.370651
   vertex -286.889130 -74.294304 150.370651
   vertex -286.873535 -74.513954 150.279678
  endloop
 endfacet
 facet normal -0.000002 -0.382650 0.923893
  outer loop
   vertex -286.873535 -74.513954 150.279678
   vertex -286.889130 -74.294304 150.370651
   vertex -286.972229 -74.353508 150.346130
  endloop
 endfacet
 facet normal 0.000028 -0.382634 0.923900
  outer loop
   vertex -286.972229 -74.353508 150.346130
   vertex -286.972229 -74.500366 150.285309
   vertex -286.873535 -74.513954 150.279678
  endloop
 endfacet
 facet normal -1.000000 0.000000 -0.000000
  outer loop
   vertex -286.972229 -74.056946 149.214783
   vertex -286.972229 -74.500366 150.285309
   vertex -286.972229 -74.353508 150.346130
  endloop
 endfacet
 facet normal -0.147402 -0.913790 -0.378499
  outer loop
   vertex -286.873535 -74.513954 150.279678
   vertex -286.972229 -74.500366 150.285309
   vertex -286.972229 -74.056946 149.214783
  endloop
 endfacet
 facet normal -0.147345 -0.913795 -0.378507
  outer loop
   vertex -286.972229 -74.056946 149.214783
   vertex -286.873535 -74.070534 149.209167
   vertex -286.873535 -74.513954 150.279678
  endloop
 endfacet
 facet normal -1.000000 -0.000000 0.000000
  outer loop
   vertex -286.873535 -74.513954 150.279678
   vertex -286.873535 -74.070534 149.209167
   vertex -286.873535 -75.167671 148.754715
  endloop
 endfacet
 facet normal 0.455409 0.822513 0.340696
  outer loop
   vertex -286.047485 -81.672661 168.183594
   vertex -285.556213 -81.904831 168.087418
   vertex -286.047485 -81.229240 167.113083
  endloop
 endfacet
 facet normal 0.455409 0.822513 0.340696
  outer loop
   vertex -286.047485 -81.229240 167.113083
   vertex -285.556213 -81.904831 168.087418
   vertex -285.556213 -81.461411 167.016907
  endloop
 endfacet
 facet normal -0.000016 0.382683 -0.923880
  outer loop
   vertex -285.556213 -81.461411 167.016907
   vertex -285.556213 -82.533508 166.572830
   vertex -286.047485 -81.229240 167.113083
  endloop
 endfacet
 facet normal 1.000000 -0.000000 -0.000000
  outer loop
   vertex -285.556213 -81.904831 168.087418
   vertex -285.556213 -82.533508 166.572830
   vertex -285.556213 -81.461411 167.016907
  endloop
 endfacet
 facet normal 1.000000 0.000000 -0.000000
  outer loop
   vertex -285.556213 -82.976929 167.643341
   vertex -285.556213 -82.533508 166.572830
   vertex -285.556213 -81.904831 168.087418
  endloop
 endfacet
 facet normal 0.000013 -0.382683 0.923880
  outer loop
   vertex -285.556213 -81.904831 168.087418
   vertex -286.047485 -83.209099 167.547180
   vertex -285.556213 -82.976929 167.643341
  endloop
 endfacet
 facet normal 0.455401 -0.822517 -0.340698
  outer loop
   vertex -285.556213 -82.976929 167.643341
   vertex -286.047485 -83.209099 167.547180
   vertex -285.556213 -82.533508 166.572830
  endloop
 endfacet
 facet normal 0.455401 -0.822517 -0.340698
  outer loop
   vertex -285.556213 -82.533508 166.572830
   vertex -286.047485 -83.209099 167.547180
   vertex -286.047485 -82.765678 166.476669
  endloop
 endfacet
 facet normal -0.000013 0.382683 -0.923880
  outer loop
   vertex -286.047485 -82.765678 166.476669
   vertex -286.047485 -81.229240 167.113083
   vertex -285.556213 -82.533508 166.572830
  endloop
 endfacet
 facet normal 0.000010 0.382683 -0.923880
  outer loop
   vertex -286.873535 -82.546028 166.567642
   vertex -286.047485 -81.229240 167.113083
   vertex -286.047485 -82.765678 166.476669
  endloop
 endfacet
 facet normal 0.000006 0.382686 -0.923879
  outer loop
   vertex -286.873535 -81.448891 167.022095
   vertex -286.047485 -81.229240 167.113083
   vertex -286.873535 -82.546028 166.567642
  endloop
 endfacet
 facet normal -1.000000 -0.000000 -0.000000
  outer loop
   vertex -286.873535 -82.546028 166.567642
   vertex -286.873535 -81.892311 168.092606
   vertex -286.873535 -81.448891 167.022095
  endloop
 endfacet
 facet normal -0.147402 -0.913788 -0.378503
  outer loop
   vertex -286.873535 -81.448891 167.022095
   vertex -286.873535 -81.892311 168.092606
   vertex -286.972229 -81.435303 167.027725
  endloop
 endfacet
 facet normal -0.147402 -0.913788 -0.378503
  outer loop
   vertex -286.972229 -81.435303 167.027725
   vertex -286.873535 -81.892311 168.092606
   vertex -286.972229 -81.878723 168.098236
  endloop
 endfacet
 facet normal -1.000000 -0.000000 0.000000
  outer loop
   vertex -286.972229 -81.878723 168.098236
   vertex -286.972229 -81.288445 167.088562
   vertex -286.972229 -81.435303 167.027725
  endloop
 endfacet
 facet normal -1.000000 -0.000000 -0.000000
  outer loop
   vertex -286.972229 -81.731865 168.159073
   vertex -286.972229 -81.288445 167.088562
   vertex -286.972229 -81.878723 168.098236
  endloop
 endfacet
 facet normal -0.610519 0.731714 0.303086
  outer loop
   vertex -286.889099 -81.672661 168.183594
   vertex -286.972229 -81.288445 167.088562
   vertex -286.972229 -81.731865 168.159073
  endloop
 endfacet
 facet normal 0.000041 -0.382703 0.923872
  outer loop
   vertex -286.972229 -81.731865 168.159073
   vertex -286.873535 -81.892311 168.092606
   vertex -286.889099 -81.672661 168.183594
  endloop
 endfacet
 facet normal 0.000000 -0.382705 0.923871
  outer loop
   vertex -286.889099 -81.672661 168.183594
   vertex -286.873535 -81.892311 168.092606
   vertex -286.047485 -81.672661 168.183594
  endloop
 endfacet
 facet normal -0.000009 -0.382675 0.923883
  outer loop
   vertex -286.047485 -81.672661 168.183594
   vertex -286.873535 -81.892311 168.092606
   vertex -286.873535 -82.989449 167.638168
  endloop
 endfacet
 facet normal 0.000007 -0.382683 0.923880
  outer loop
   vertex -286.873535 -82.989449 167.638168
   vertex -286.047485 -83.209099 167.547180
   vertex -286.047485 -81.672661 168.183594
  endloop
 endfacet
 facet normal -0.000000 -0.382705 0.923871
  outer loop
   vertex -286.889099 -83.209099 167.547180
   vertex -286.047485 -83.209099 167.547180
   vertex -286.873535 -82.989449 167.638168
  endloop
 endfacet
 facet normal -0.000000 -0.923879 -0.382684
  outer loop
   vertex -286.047485 -82.765678 166.476669
   vertex -286.047485 -83.209099 167.547180
   vertex -286.889099 -83.209099 167.547180
  endloop
 endfacet
 facet normal 0.000000 -0.923879 -0.382684
  outer loop
   vertex -286.889099 -83.209099 167.547180
   vertex -286.889099 -82.765678 166.476669
   vertex -286.047485 -82.765678 166.476669
  endloop
 endfacet
 facet normal 0.000000 0.382650 -0.923893
  outer loop
   vertex -286.047485 -82.765678 166.476669
   vertex -286.889099 -82.765678 166.476669
   vertex -286.873535 -82.546028 166.567642
  endloop
 endfacet
 facet normal -0.000002 0.382650 -0.923893
  outer loop
   vertex -286.873535 -82.546028 166.567642
   vertex -286.889099 -82.765678 166.476669
   vertex -286.972229 -82.706474 166.501190
  endloop
 endfacet
 facet normal -0.000095 0.382699 -0.923873
  outer loop
   vertex -286.972229 -82.706474 166.501190
   vertex -286.972229 -82.559608 166.562027
   vertex -286.873535 -82.546028 166.567642
  endloop
 endfacet
 facet normal -1.000000 -0.000000 -0.000000
  outer loop
   vertex -286.972229 -83.003029 167.632538
   vertex -286.972229 -82.559608 166.562027
   vertex -286.972229 -82.706474 166.501190
  endloop
 endfacet
 facet normal -0.147276 0.913805 0.378511
  outer loop
   vertex -286.873535 -82.546028 166.567642
   vertex -286.972229 -82.559608 166.562027
   vertex -286.972229 -83.003029 167.632538
  endloop
 endfacet
 facet normal -0.147333 0.913799 0.378503
  outer loop
   vertex -286.972229 -83.003029 167.632538
   vertex -286.873535 -82.989449 167.638168
   vertex -286.873535 -82.546028 166.567642
  endloop
 endfacet
 facet normal -1.000000 0.000000 0.000000
  outer loop
   vertex -286.873535 -82.546028 166.567642
   vertex -286.873535 -82.989449 167.638168
   vertex -286.873535 -81.892311 168.092606
  endloop
 endfacet
 facet normal -0.000003 -0.923887 -0.382664
  outer loop
   vertex -285.082214 -74.279335 147.508377
   vertex -285.082214 -74.413269 147.831741
   vertex -285.332214 -74.253700 147.446487
  endloop
 endfacet
 facet normal -0.000006 -0.923888 -0.382662
  outer loop
   vertex -285.332214 -74.253700 147.446487
   vertex -285.082214 -74.413269 147.831741
   vertex -285.507202 -74.369690 147.726532
  endloop
 endfacet
 facet normal -0.000021 -0.923885 -0.382671
  outer loop
   vertex -285.507202 -74.369690 147.726532
   vertex -285.515228 -74.183662 147.277405
   vertex -285.332214 -74.253700 147.446487
  endloop
 endfacet
 facet normal 0.000007 -0.923885 -0.382671
  outer loop
   vertex -285.818329 -74.250633 147.439087
   vertex -285.515228 -74.183662 147.277405
   vertex -285.507202 -74.369690 147.726532
  endloop
 endfacet
 facet normal -0.000002 -0.923879 -0.382686
  outer loop
   vertex -285.582214 -74.087990 147.046432
   vertex -285.515228 -74.183662 147.277405
   vertex -285.818329 -74.250633 147.439087
  endloop
 endfacet
 facet normal 0.000000 -0.923879 -0.382685
  outer loop
   vertex -285.818329 -74.250633 147.439087
   vertex -285.932220 -74.087990 147.046432
   vertex -285.582214 -74.087990 147.046432
  endloop
 endfacet
 facet normal 0.000000 -0.923878 -0.382686
  outer loop
   vertex -285.582214 -74.087990 147.046432
   vertex -285.932220 -74.087990 147.046432
   vertex -285.515228 -73.992317 146.815460
  endloop
 endfacet
 facet normal -0.000009 -0.923873 -0.382700
  outer loop
   vertex -285.515228 -73.992317 146.815460
   vertex -285.932220 -74.087990 147.046432
   vertex -285.818329 -73.925346 146.653793
  endloop
 endfacet
 facet normal -0.000009 -0.923873 -0.382699
  outer loop
   vertex -285.818329 -73.925346 146.653793
   vertex -285.332214 -73.922279 146.646378
   vertex -285.515228 -73.992317 146.815460
  endloop
 endfacet
 facet normal -0.000009 -0.923884 -0.382672
  outer loop
   vertex -285.507233 -73.806290 146.366348
   vertex -285.332214 -73.922279 146.646378
   vertex -285.818329 -73.925346 146.653793
  endloop
 endfacet
 facet normal 0.000019 -0.923878 -0.382687
  outer loop
   vertex -285.082214 -73.896645 146.584503
   vertex -285.332214 -73.922279 146.646378
   vertex -285.507233 -73.806290 146.366348
  endloop
 endfacet
 facet normal 0.000005 -0.923887 -0.382664
  outer loop
   vertex -285.507233 -73.806290 146.366348
   vertex -285.082214 -73.762711 146.261139
   vertex -285.082214 -73.896645 146.584503
  endloop
 endfacet
 facet normal -0.000026 -0.923887 -0.382664
  outer loop
   vertex -285.082214 -73.896645 146.584503
   vertex -285.082214 -73.762711 146.261139
   vertex -284.832214 -73.922279 146.646378
  endloop
 endfacet
 facet normal 0.000000 -0.923881 -0.382679
  outer loop
   vertex -284.832214 -73.922279 146.646378
   vertex -285.082214 -73.762711 146.261139
   vertex -284.082214 -73.762711 146.261139
  endloop
 endfacet
 facet normal -0.000005 -0.923878 -0.382686
  outer loop
   vertex -284.082214 -73.762711 146.261139
   vertex -284.649200 -73.992317 146.815460
   vertex -284.832214 -73.922279 146.646378
  endloop
 endfacet
 facet normal -0.000003 -0.923879 -0.382685
  outer loop
   vertex -284.582214 -74.087990 147.046432
   vertex -284.649200 -73.992317 146.815460
   vertex -284.082214 -73.762711 146.261139
  endloop
 endfacet
 facet normal -0.000003 0.923887 0.382664
  outer loop
   vertex -285.082214 -82.780647 169.338943
   vertex -285.082214 -82.646713 169.015579
   vertex -285.332214 -82.806282 169.400833
  endloop
 endfacet
 facet normal 0.000010 0.923884 0.382672
  outer loop
   vertex -285.332214 -82.806282 169.400833
   vertex -285.082214 -82.646713 169.015579
   vertex -285.507202 -82.690292 169.120804
  endloop
 endfacet
 facet normal -0.000009 0.923880 0.382682
  outer loop
   vertex -285.507202 -82.690292 169.120804
   vertex -285.515228 -82.876320 169.569916
   vertex -285.332214 -82.806282 169.400833
  endloop
 endfacet
 facet normal 0.000000 0.923880 0.382682
  outer loop
   vertex -285.818329 -82.809349 169.408234
   vertex -285.515228 -82.876320 169.569916
   vertex -285.507202 -82.690292 169.120804
  endloop
 endfacet
 facet normal -0.000002 0.923879 0.382686
  outer loop
   vertex -285.582214 -82.971992 169.800888
   vertex -285.515228 -82.876320 169.569916
   vertex -285.818329 -82.809349 169.408234
  endloop
 endfacet
 facet normal -0.000000 0.923879 0.382685
  outer loop
   vertex -285.818329 -82.809349 169.408234
   vertex -285.932220 -82.971992 169.800888
   vertex -285.582214 -82.971992 169.800888
  endloop
 endfacet
 facet normal -0.000000 0.923878 0.382686
  outer loop
   vertex -285.582214 -82.971992 169.800888
   vertex -285.932220 -82.971992 169.800888
   vertex -285.515228 -83.067665 170.031860
  endloop
 endfacet
 facet normal -0.000009 0.923873 0.382700
  outer loop
   vertex -285.515228 -83.067665 170.031860
   vertex -285.932220 -82.971992 169.800888
   vertex -285.818329 -83.134636 170.193527
  endloop
 endfacet
 facet normal -0.000023 0.923882 0.382676
  outer loop
   vertex -285.818329 -83.134636 170.193527
   vertex -285.332214 -83.137695 170.200943
   vertex -285.515228 -83.067665 170.031860
  endloop
 endfacet
 facet normal -0.000023 0.923878 0.382686
  outer loop
   vertex -285.507202 -83.253693 170.480972
   vertex -285.332214 -83.137695 170.200943
   vertex -285.818329 -83.134636 170.193527
  endloop
 endfacet
 facet normal 0.000038 0.923865 0.382719
  outer loop
   vertex -285.082214 -83.163338 170.262817
   vertex -285.332214 -83.137695 170.200943
   vertex -285.507202 -83.253693 170.480972
  endloop
 endfacet
 facet normal 0.000005 0.923887 0.382664
  outer loop
   vertex -285.507202 -83.253693 170.480972
   vertex -285.082214 -83.297272 170.586182
   vertex -285.082214 -83.163338 170.262817
  endloop
 endfacet
 facet normal -0.000026 0.923887 0.382664
  outer loop
   vertex -285.082214 -83.163338 170.262817
   vertex -285.082214 -83.297272 170.586182
   vertex -284.832214 -83.137703 170.200943
  endloop
 endfacet
 facet normal -0.000000 0.923881 0.382679
  outer loop
   vertex -284.832214 -83.137703 170.200943
   vertex -285.082214 -83.297272 170.586182
   vertex -284.082214 -83.297272 170.586182
  endloop
 endfacet
 facet normal -0.000005 0.923878 0.382686
  outer loop
   vertex -284.082214 -83.297272 170.586182
   vertex -284.649200 -83.067665 170.031860
   vertex -284.832214 -83.137703 170.200943
  endloop
 endfacet
 facet normal -0.000003 0.923879 0.382685
  outer loop
   vertex -284.582214 -82.971992 169.800888
   vertex -284.649200 -83.067665 170.031860
   vertex -284.082214 -83.297272 170.586182
  endloop
 endfacet
 facet normal -0.000007 0.923878 0.382687
  outer loop
   vertex -284.082214 -73.300766 146.452484
   vertex -284.582214 -73.626053 147.237778
   vertex -284.082214 -73.951332 148.023071
  endloop
 endfacet
 facet normal 0.000030 0.923886 0.382667
  outer loop
   vertex -284.082214 -73.951332 148.023071
   vertex -284.582214 -73.626053 147.237778
   vertex -284.649200 -73.721718 147.468750
  endloop
 endfacet
 facet normal 0.000001 0.923876 0.382692
  outer loop
   vertex -284.649200 -73.721718 147.468750
   vertex -284.832214 -73.791756 147.637833
   vertex -284.082214 -73.951332 148.023071
  endloop
 endfacet
 facet normal 0.000010 0.923880 0.382682
  outer loop
   vertex -284.832214 -82.806282 169.400833
   vertex -284.649200 -82.876320 169.569916
   vertex -284.082214 -82.646713 169.015579
  endloop
 endfacet
 facet normal 0.000011 0.923880 0.382683
  outer loop
   vertex -284.082214 -82.646713 169.015579
   vertex -284.649200 -82.876320 169.569916
   vertex -284.582214 -82.971992 169.800888
  endloop
 endfacet
 facet normal 0.000006 0.923881 0.382680
  outer loop
   vertex -284.582214 -82.971992 169.800888
   vertex -284.082214 -83.297272 170.586182
   vertex -284.082214 -82.646713 169.015579
  endloop
 endfacet
 facet normal -0.000007 -0.923878 -0.382687
  outer loop
   vertex -284.082214 -83.759216 170.394836
   vertex -284.582214 -83.433929 169.609543
   vertex -284.082214 -83.108650 168.824249
  endloop
 endfacet
 facet normal 0.000030 -0.923886 -0.382667
  outer loop
   vertex -284.082214 -83.108650 168.824249
   vertex -284.582214 -83.433929 169.609543
   vertex -284.649200 -83.338264 169.378571
  endloop
 endfacet
 facet normal 0.000001 -0.923876 -0.382692
  outer loop
   vertex -284.649200 -83.338264 169.378571
   vertex -284.832214 -83.268227 169.209488
   vertex -284.082214 -83.108650 168.824249
  endloop
 endfacet
 facet normal 0.000010 -0.923880 -0.382682
  outer loop
   vertex -284.832214 -74.253700 147.446487
   vertex -284.649200 -74.183662 147.277405
   vertex -284.082214 -74.413269 147.831741
  endloop
 endfacet
 facet normal 0.000011 -0.923880 -0.382683
  outer loop
   vertex -284.082214 -74.413269 147.831741
   vertex -284.649200 -74.183662 147.277405
   vertex -284.582214 -74.087990 147.046432
  endloop
 endfacet
 facet normal 0.000006 -0.923881 -0.382680
  outer loop
   vertex -284.582214 -74.087990 147.046432
   vertex -284.082214 -73.762711 146.261139
   vertex -284.082214 -74.413269 147.831741
  endloop
 endfacet
 facet normal -0.610519 -0.731714 -0.303086
  outer loop
   vertex -286.889099 -83.209099 167.547180
   vertex -286.972229 -83.149895 167.571701
   vertex -286.889099 -82.765678 166.476669
  endloop
 endfacet
 facet normal -0.610519 -0.731714 -0.303086
  outer loop
   vertex -286.889099 -82.765678 166.476669
   vertex -286.972229 -83.149895 167.571701
   vertex -286.972229 -82.706474 166.501190
  endloop
 endfacet
 facet normal -0.000000 0.923879 0.382684
  outer loop
   vertex -286.144348 -74.082169 149.649368
   vertex -286.757874 -74.082169 149.649368
   vertex -286.144318 -81.589272 167.773102
  endloop
 endfacet
 facet normal -0.000000 0.923879 0.382684
  outer loop
   vertex -286.144318 -81.589272 167.773102
   vertex -286.757874 -74.082169 149.649368
   vertex -286.757874 -81.589272 167.773102
  endloop
 endfacet
 facet normal -0.610660 0.731614 0.303045
  outer loop
   vertex -286.972229 -74.353508 150.346130
   vertex -286.889130 -74.294304 150.370651
   vertex -286.972229 -73.910088 149.275620
  endloop
 endfacet
 facet normal -0.610660 0.731614 0.303045
  outer loop
   vertex -286.972229 -73.910088 149.275620
   vertex -286.889130 -74.294304 150.370651
   vertex -286.889130 -73.850883 149.300140
  endloop
 endfacet
 facet normal -1.000000 0.000000 0.000000
  outer loop
   vertex -285.082214 -83.625275 170.071487
   vertex -285.082214 -83.759216 170.394836
   vertex -285.082214 -83.461273 170.328827
  endloop
 endfacet
 facet normal 0.000015 -0.382683 0.923880
  outer loop
   vertex -286.047485 -81.672661 168.183594
   vertex -286.047485 -83.209099 167.547180
   vertex -285.556213 -81.904831 168.087418
  endloop
 endfacet
 facet normal 0.000003 0.923887 0.382664
  outer loop
   vertex -285.082214 -82.646713 169.015579
   vertex -285.082214 -82.780647 169.338943
   vertex -284.832214 -82.806282 169.400833
  endloop
 endfacet
 facet normal 0.000007 0.923873 0.382698
  outer loop
   vertex -285.082214 -73.817390 147.699722
   vertex -285.082214 -73.951332 148.023071
   vertex -284.832214 -73.791756 147.637833
  endloop
 endfacet
 facet normal 1.000000 0.000000 0.000000
  outer loop
   vertex -285.082214 -83.759216 170.394836
   vertex -285.082214 -83.163338 170.262817
   vertex -285.082214 -83.297272 170.586182
  endloop
 endfacet
 facet normal 0.000000 -0.923879 -0.382685
  outer loop
   vertex -285.697205 -75.228378 148.996124
   vertex -285.697205 -74.597656 147.473434
   vertex -284.156158 -74.597656 147.473434
  endloop
 endfacet
 facet normal -0.000000 0.923879 0.382685
  outer loop
   vertex -284.156158 -81.831604 167.851196
   vertex -285.697205 -81.831604 167.851196
   vertex -284.156158 -82.462326 169.373886
  endloop
 endfacet
 facet normal 1.000000 0.000000 0.000000
  outer loop
   vertex -285.082214 -73.300766 146.452484
   vertex -285.082214 -73.896645 146.584503
   vertex -285.082214 -73.762711 146.261139
  endloop
 endfacet
 facet normal 0.000047 0.382699 -0.923873
  outer loop
   vertex -286.972229 -75.328117 148.688248
   vertex -286.972229 -75.181252 148.749084
   vertex -286.873535 -75.167671 148.754715
  endloop
 endfacet
 facet normal 1.000000 0.000000 0.000000
  outer loop
   vertex -285.082214 -82.780647 169.338943
   vertex -285.082214 -83.108650 168.824249
   vertex -285.082214 -82.646713 169.015579
  endloop
 endfacet
 facet normal 0.000015 0.382683 -0.923880
  outer loop
   vertex -286.047485 -75.387321 148.663727
   vertex -286.047485 -73.850883 149.300140
   vertex -285.556244 -75.155151 148.759903
  endloop
 endfacet
 facet normal 0.000015 -0.382716 0.923866
  outer loop
   vertex -286.972229 -81.731865 168.159073
   vertex -286.972229 -81.878723 168.098236
   vertex -286.873535 -81.892311 168.092606
  endloop
 endfacet
 facet normal -0.000000 -0.923879 -0.382685
  outer loop
   vertex -285.697205 -82.861671 167.424530
   vertex -284.156158 -82.861671 167.424530
   vertex -284.156158 -83.492393 168.947220
  endloop
 endfacet
 facet normal 0.000000 -0.382682 0.923880
  outer loop
   vertex -284.156158 -75.228378 148.996124
   vertex -284.156158 -74.198311 149.422791
   vertex -285.697205 -74.198311 149.422791
  endloop
 endfacet
 facet normal 1.000000 0.000000 0.000000
  outer loop
   vertex -285.082214 -74.279335 147.508377
   vertex -285.082214 -73.951332 148.023071
   vertex -285.082214 -74.413269 147.831741
  endloop
 endfacet
 facet normal 0.000003 -0.923887 -0.382664
  outer loop
   vertex -285.082214 -74.413269 147.831741
   vertex -285.082214 -74.279335 147.508377
   vertex -284.832214 -74.253700 147.446487
  endloop
 endfacet
 facet normal -0.707108 0.270600 -0.653280
  outer loop
   vertex -284.649200 -74.183662 147.277405
   vertex -284.832214 -73.791756 147.637833
   vertex -284.649200 -73.721718 147.468750
  endloop
 endfacet
 facet normal -0.965928 0.099044 -0.239111
  outer loop
   vertex -284.649200 -74.183662 147.277405
   vertex -284.649200 -73.721718 147.468750
   vertex -284.582214 -74.087990 147.046432
  endloop
 endfacet
 facet normal -0.965927 0.099046 -0.239113
  outer loop
   vertex -284.582214 -74.087990 147.046432
   vertex -284.649200 -73.721718 147.468750
   vertex -284.582214 -73.626053 147.237778
  endloop
 endfacet
 facet normal -0.965928 -0.099045 0.239110
  outer loop
   vertex -284.582214 -73.626053 147.237778
   vertex -284.649200 -73.992317 146.815460
   vertex -284.582214 -74.087990 147.046432
  endloop
 endfacet
 facet normal -0.965928 -0.099045 0.239110
  outer loop
   vertex -284.649200 -73.530380 147.006805
   vertex -284.649200 -73.992317 146.815460
   vertex -284.582214 -73.626053 147.237778
  endloop
 endfacet
 facet normal -0.707108 -0.270603 0.653278
  outer loop
   vertex -284.832214 -73.922279 146.646378
   vertex -284.649200 -73.992317 146.815460
   vertex -284.649200 -73.530380 147.006805
  endloop
 endfacet
 facet normal -0.707108 -0.270603 0.653278
  outer loop
   vertex -284.649200 -73.530380 147.006805
   vertex -284.832214 -73.460342 146.837723
   vertex -284.832214 -73.922279 146.646378
  endloop
 endfacet
 facet normal -0.258773 -0.369656 0.892407
  outer loop
   vertex -284.832214 -73.922279 146.646378
   vertex -284.832214 -73.460342 146.837723
   vertex -285.082214 -73.896645 146.584503
  endloop
 endfacet
 facet normal -0.258824 0.369626 -0.892405
  outer loop
   vertex -285.082214 -83.625275 170.071487
   vertex -285.082214 -83.163338 170.262817
   vertex -284.832214 -83.599640 170.009598
  endloop
 endfacet
 facet normal -0.258773 0.369656 -0.892407
  outer loop
   vertex -284.832214 -83.599640 170.009598
   vertex -285.082214 -83.163338 170.262817
   vertex -284.832214 -83.137703 170.200943
  endloop
 endfacet
 facet normal -0.707108 0.270603 -0.653278
  outer loop
   vertex -284.832214 -83.137703 170.200943
   vertex -284.649200 -83.529602 169.840515
   vertex -284.832214 -83.599640 170.009598
  endloop
 endfacet
 facet normal -0.707108 0.270603 -0.653278
  outer loop
   vertex -284.649200 -83.067665 170.031860
   vertex -284.649200 -83.529602 169.840515
   vertex -284.832214 -83.137703 170.200943
  endloop
 endfacet
 facet normal -0.965928 0.099045 -0.239110
  outer loop
   vertex -284.582214 -83.433929 169.609543
   vertex -284.649200 -83.529602 169.840515
   vertex -284.649200 -83.067665 170.031860
  endloop
 endfacet
 facet normal -0.965928 0.099045 -0.239110
  outer loop
   vertex -284.649200 -83.067665 170.031860
   vertex -284.582214 -82.971992 169.800888
   vertex -284.582214 -83.433929 169.609543
  endloop
 endfacet
 facet normal -0.965927 -0.099046 0.239113
  outer loop
   vertex -284.582214 -83.433929 169.609543
   vertex -284.582214 -82.971992 169.800888
   vertex -284.649200 -83.338264 169.378571
  endloop
 endfacet
 facet normal -0.965928 -0.099044 0.239111
  outer loop
   vertex -284.649200 -83.338264 169.378571
   vertex -284.582214 -82.971992 169.800888
   vertex -284.649200 -82.876320 169.569916
  endloop
 endfacet
 facet normal -0.707108 -0.270600 0.653280
  outer loop
   vertex -284.649200 -82.876320 169.569916
   vertex -284.832214 -83.268227 169.209488
   vertex -284.649200 -83.338264 169.378571
  endloop
 endfacet
 facet normal -0.258825 -0.369626 0.892405
  outer loop
   vertex -285.082214 -74.413269 147.831741
   vertex -285.082214 -73.951332 148.023071
   vertex -285.507202 -74.369690 147.726532
  endloop
 endfacet
 facet normal -0.258825 -0.369626 0.892405
  outer loop
   vertex -285.507202 -74.369690 147.726532
   vertex -285.082214 -73.951332 148.023071
   vertex -285.507202 -73.907753 147.917862
  endloop
 endfacet
 facet normal -0.707106 -0.270586 0.653288
  outer loop
   vertex -285.507202 -73.907753 147.917862
   vertex -285.818329 -74.250633 147.439087
   vertex -285.507202 -74.369690 147.726532
  endloop
 endfacet
 facet normal -0.707093 -0.270605 0.653294
  outer loop
   vertex -285.818329 -73.788689 147.630432
   vertex -285.818329 -74.250633 147.439087
   vertex -285.507202 -73.907753 147.917862
  endloop
 endfacet
 facet normal -0.965919 -0.099056 0.239140
  outer loop
   vertex -285.932220 -74.087990 147.046432
   vertex -285.818329 -74.250633 147.439087
   vertex -285.818329 -73.788689 147.630432
  endloop
 endfacet
 facet normal -0.965919 -0.099058 0.239141
  outer loop
   vertex -285.818329 -73.788689 147.630432
   vertex -285.932220 -73.626053 147.237778
   vertex -285.932220 -74.087990 147.046432
  endloop
 endfacet
 facet normal -0.965917 0.099060 -0.239147
  outer loop
   vertex -285.932220 -74.087990 147.046432
   vertex -285.932220 -73.626053 147.237778
   vertex -285.818329 -73.925346 146.653793
  endloop
 endfacet
 facet normal -0.965919 0.099050 -0.239142
  outer loop
   vertex -285.818329 -73.925346 146.653793
   vertex -285.932220 -73.626053 147.237778
   vertex -285.818329 -73.463409 146.845123
  endloop
 endfacet
 facet normal -0.707140 0.270572 -0.653256
  outer loop
   vertex -285.818329 -73.463409 146.845123
   vertex -285.507233 -73.806290 146.366348
   vertex -285.818329 -73.925346 146.653793
  endloop
 endfacet
 facet normal -0.707128 0.270592 -0.653262
  outer loop
   vertex -285.507233 -73.344345 146.557693
   vertex -285.507233 -73.806290 146.366348
   vertex -285.818329 -73.463409 146.845123
  endloop
 endfacet
 facet normal -0.258807 0.369647 -0.892401
  outer loop
   vertex -285.082214 -73.762711 146.261139
   vertex -285.507233 -73.806290 146.366348
   vertex -285.507233 -73.344345 146.557693
  endloop
 endfacet
 facet normal -0.258807 0.369647 -0.892401
  outer loop
   vertex -285.507233 -73.344345 146.557693
   vertex -285.082214 -73.300766 146.452484
   vertex -285.082214 -73.762711 146.261139
  endloop
 endfacet
 facet normal -0.258825 -0.369646 0.892397
  outer loop
   vertex -285.082214 -83.759216 170.394836
   vertex -285.082214 -83.297272 170.586182
   vertex -285.507202 -83.715637 170.289627
  endloop
 endfacet
 facet normal -0.258825 -0.369646 0.892397
  outer loop
   vertex -285.507202 -83.715637 170.289627
   vertex -285.082214 -83.297272 170.586182
   vertex -285.507202 -83.253693 170.480972
  endloop
 endfacet
 facet normal -0.707093 -0.270605 0.653294
  outer loop
   vertex -285.507202 -83.253693 170.480972
   vertex -285.818329 -83.596573 170.002197
   vertex -285.507202 -83.715637 170.289627
  endloop
 endfacet
 facet normal -0.707106 -0.270586 0.653288
  outer loop
   vertex -285.818329 -83.134636 170.193527
   vertex -285.818329 -83.596573 170.002197
   vertex -285.507202 -83.253693 170.480972
  endloop
 endfacet
 facet normal -0.965919 -0.099050 0.239142
  outer loop
   vertex -285.932220 -83.433929 169.609543
   vertex -285.818329 -83.596573 170.002197
   vertex -285.818329 -83.134636 170.193527
  endloop
 endfacet
 facet normal -0.965917 -0.099060 0.239147
  outer loop
   vertex -285.818329 -83.134636 170.193527
   vertex -285.932220 -82.971992 169.800888
   vertex -285.932220 -83.433929 169.609543
  endloop
 endfacet
 facet normal -0.965919 0.099058 -0.239141
  outer loop
   vertex -285.932220 -83.433929 169.609543
   vertex -285.932220 -82.971992 169.800888
   vertex -285.818329 -83.271294 169.216888
  endloop
 endfacet
 facet normal -0.965919 0.099056 -0.239140
  outer loop
   vertex -285.818329 -83.271294 169.216888
   vertex -285.932220 -82.971992 169.800888
   vertex -285.818329 -82.809349 169.408234
  endloop
 endfacet
 facet normal -0.707093 0.270605 -0.653294
  outer loop
   vertex -285.818329 -82.809349 169.408234
   vertex -285.507202 -83.152229 168.929459
   vertex -285.818329 -83.271294 169.216888
  endloop
 endfacet
 facet normal -0.707090 0.270610 -0.653295
  outer loop
   vertex -285.507202 -82.690292 169.120804
   vertex -285.507202 -83.152229 168.929459
   vertex -285.818329 -82.809349 169.408234
  endloop
 endfacet
 facet normal -0.258825 0.369651 -0.892395
  outer loop
   vertex -285.082214 -83.108650 168.824249
   vertex -285.507202 -83.152229 168.929459
   vertex -285.507202 -82.690292 169.120804
  endloop
 endfacet
 facet normal -0.258855 0.369623 -0.892398
  outer loop
   vertex -285.507202 -82.690292 169.120804
   vertex -285.082214 -82.646713 169.015579
   vertex -285.082214 -83.108650 168.824249
  endloop
 endfacet
 facet normal -0.707108 -0.270600 0.653280
  outer loop
   vertex -284.649200 -82.876320 169.569916
   vertex -284.832214 -82.806282 169.400833
   vertex -284.832214 -83.268227 169.209488
  endloop
 endfacet
 facet normal -0.258824 -0.369646 0.892397
  outer loop
   vertex -284.832214 -83.268227 169.209488
   vertex -284.832214 -82.806282 169.400833
   vertex -285.082214 -82.780647 169.338943
  endloop
 endfacet
 facet normal -0.258824 -0.369646 0.892397
  outer loop
   vertex -285.082214 -82.780647 169.338943
   vertex -285.082214 -83.242592 169.147598
   vertex -284.832214 -83.268227 169.209488
  endloop
 endfacet
 facet normal 0.258824 -0.369646 0.892397
  outer loop
   vertex -285.332214 -82.806282 169.400833
   vertex -285.082214 -83.242592 169.147598
   vertex -285.082214 -82.780647 169.338943
  endloop
 endfacet
 facet normal 0.258824 -0.369646 0.892397
  outer loop
   vertex -285.332214 -83.268227 169.209488
   vertex -285.082214 -83.242592 169.147598
   vertex -285.332214 -82.806282 169.400833
  endloop
 endfacet
 facet normal 0.707108 -0.270600 0.653280
  outer loop
   vertex -285.332214 -82.806282 169.400833
   vertex -285.515228 -82.876320 169.569916
   vertex -285.332214 -83.268227 169.209488
  endloop
 endfacet
 facet normal 0.707108 -0.270600 0.653280
  outer loop
   vertex -285.332214 -83.268227 169.209488
   vertex -285.515228 -82.876320 169.569916
   vertex -285.515228 -83.338264 169.378571
  endloop
 endfacet
 facet normal 0.965928 -0.099044 0.239111
  outer loop
   vertex -285.515228 -83.338264 169.378571
   vertex -285.515228 -82.876320 169.569916
   vertex -285.582214 -82.971992 169.800888
  endloop
 endfacet
 facet normal 0.965927 -0.099046 0.239113
  outer loop
   vertex -285.582214 -82.971992 169.800888
   vertex -285.582214 -83.433929 169.609543
   vertex -285.515228 -83.338264 169.378571
  endloop
 endfacet
 facet normal 0.965928 0.099045 -0.239110
  outer loop
   vertex -285.515228 -83.067665 170.031860
   vertex -285.582214 -83.433929 169.609543
   vertex -285.582214 -82.971992 169.800888
  endloop
 endfacet
 facet normal 0.965928 0.099045 -0.239110
  outer loop
   vertex -285.515228 -83.529602 169.840515
   vertex -285.582214 -83.433929 169.609543
   vertex -285.515228 -83.067665 170.031860
  endloop
 endfacet
 facet normal 0.707102 0.270606 -0.653284
  outer loop
   vertex -285.515228 -83.067665 170.031860
   vertex -285.332214 -83.137695 170.200943
   vertex -285.515228 -83.529602 169.840515
  endloop
 endfacet
 facet normal 0.707108 0.270600 -0.653280
  outer loop
   vertex -285.515228 -83.529602 169.840515
   vertex -285.332214 -83.137695 170.200943
   vertex -285.332214 -83.599640 170.009598
  endloop
 endfacet
 facet normal 0.258783 0.369650 -0.892407
  outer loop
   vertex -285.332214 -83.599640 170.009598
   vertex -285.332214 -83.137695 170.200943
   vertex -285.082214 -83.163338 170.262817
  endloop
 endfacet
 facet normal 0.258824 0.369626 -0.892405
  outer loop
   vertex -285.082214 -83.163338 170.262817
   vertex -285.082214 -83.625275 170.071487
   vertex -285.332214 -83.599640 170.009598
  endloop
 endfacet
 facet normal -0.707108 0.270600 -0.653280
  outer loop
   vertex -284.649200 -74.183662 147.277405
   vertex -284.832214 -74.253700 147.446487
   vertex -284.832214 -73.791756 147.637833
  endloop
 endfacet
 facet normal -0.258824 0.369646 -0.892397
  outer loop
   vertex -284.832214 -73.791756 147.637833
   vertex -284.832214 -74.253700 147.446487
   vertex -285.082214 -74.279335 147.508377
  endloop
 endfacet
 facet normal -0.258824 0.369646 -0.892397
  outer loop
   vertex -285.082214 -74.279335 147.508377
   vertex -285.082214 -73.817390 147.699722
   vertex -284.832214 -73.791756 147.637833
  endloop
 endfacet
 facet normal 0.258824 0.369646 -0.892397
  outer loop
   vertex -285.332214 -74.253700 147.446487
   vertex -285.082214 -73.817390 147.699722
   vertex -285.082214 -74.279335 147.508377
  endloop
 endfacet
 facet normal 0.258824 0.369646 -0.892397
  outer loop
   vertex -285.332214 -73.791756 147.637833
   vertex -285.082214 -73.817390 147.699722
   vertex -285.332214 -74.253700 147.446487
  endloop
 endfacet
 facet normal 0.707108 0.270600 -0.653280
  outer loop
   vertex -285.332214 -74.253700 147.446487
   vertex -285.515228 -74.183662 147.277405
   vertex -285.332214 -73.791756 147.637833
  endloop
 endfacet
 facet normal 0.707108 0.270600 -0.653280
  outer loop
   vertex -285.332214 -73.791756 147.637833
   vertex -285.515228 -74.183662 147.277405
   vertex -285.515228 -73.721718 147.468750
  endloop
 endfacet
 facet normal 0.965928 0.099044 -0.239111
  outer loop
   vertex -285.515228 -73.721718 147.468750
   vertex -285.515228 -74.183662 147.277405
   vertex -285.582214 -74.087990 147.046432
  endloop
 endfacet
 facet normal 0.965927 0.099046 -0.239113
  outer loop
   vertex -285.582214 -74.087990 147.046432
   vertex -285.582214 -73.626053 147.237778
   vertex -285.515228 -73.721718 147.468750
  endloop
 endfacet
 facet normal 0.965928 -0.099045 0.239110
  outer loop
   vertex -285.515228 -73.992317 146.815460
   vertex -285.582214 -73.626053 147.237778
   vertex -285.582214 -74.087990 147.046432
  endloop
 endfacet
 facet normal 0.965928 -0.099045 0.239110
  outer loop
   vertex -285.515228 -73.530380 147.006805
   vertex -285.582214 -73.626053 147.237778
   vertex -285.515228 -73.992317 146.815460
  endloop
 endfacet
 facet normal 0.707108 -0.270603 0.653278
  outer loop
   vertex -285.515228 -73.992317 146.815460
   vertex -285.332214 -73.922279 146.646378
   vertex -285.515228 -73.530380 147.006805
  endloop
 endfacet
 facet normal 0.707108 -0.270603 0.653278
  outer loop
   vertex -285.515228 -73.530380 147.006805
   vertex -285.332214 -73.922279 146.646378
   vertex -285.332214 -73.460342 146.837723
  endloop
 endfacet
 facet normal 0.258773 -0.369656 0.892407
  outer loop
   vertex -285.332214 -73.460342 146.837723
   vertex -285.332214 -73.922279 146.646378
   vertex -285.082214 -73.896645 146.584503
  endloop
 endfacet
 facet normal 0.258824 -0.369626 0.892405
  outer loop
   vertex -285.082214 -73.896645 146.584503
   vertex -285.082214 -73.434708 146.775833
   vertex -285.332214 -73.460342 146.837723
  endloop
 endfacet
 facet normal -0.258824 -0.369626 0.892405
  outer loop
   vertex -284.832214 -73.460342 146.837723
   vertex -285.082214 -73.434708 146.775833
   vertex -285.082214 -73.896645 146.584503
  endloop
 endfacet
endsolid