solid stl file generated from DOUG
 facet normal -0.865992 -0.409629 0.286813
  outer loop
   vertex -128.785126 51.452087 264.430389
   vertex -128.785126 51.164627 264.019836
   vertex -128.659821 51.274319 264.554840
  endloop
 endfacet
 facet normal -0.866010 -0.409594 0.286810
  outer loop
   vertex -128.659821 51.274319 264.554840
   vertex -128.785126 51.164627 264.019836
   vertex -128.659821 50.986858 264.144318
  endloop
 endfacet
 facet normal 0.000000 -0.819143 0.573589
  outer loop
   vertex -128.659821 50.986858 264.144318
   vertex -128.409241 51.274319 264.554840
   vertex -128.659821 51.274319 264.554840
  endloop
 endfacet
 facet normal -0.000000 -0.819143 0.573589
  outer loop
   vertex -128.409241 50.986858 264.144318
   vertex -128.409241 51.274319 264.554840
   vertex -128.659821 50.986858 264.144318
  endloop
 endfacet
 facet normal 0.866018 -0.409581 0.286801
  outer loop
   vertex -128.283951 51.452087 264.430389
   vertex -128.409241 51.274319 264.554840
   vertex -128.409241 50.986858 264.144318
  endloop
 endfacet
 facet normal 0.866036 -0.409567 0.286770
  outer loop
   vertex -128.409241 50.986858 264.144318
   vertex -128.283951 51.164627 264.019836
   vertex -128.283951 51.452087 264.430389
  endloop
 endfacet
 facet normal 0.866036 0.409567 -0.286770
  outer loop
   vertex -128.283951 51.452087 264.430389
   vertex -128.283951 51.164627 264.019836
   vertex -128.409241 51.629856 264.305908
  endloop
 endfacet
 facet normal 0.866036 0.409567 -0.286770
  outer loop
   vertex -128.409241 51.629856 264.305908
   vertex -128.283951 51.164627 264.019836
   vertex -128.409241 51.342396 263.895355
  endloop
 endfacet
 facet normal 0.000000 0.819163 -0.573560
  outer loop
   vertex -128.409241 51.342396 263.895355
   vertex -128.659821 51.629856 264.305908
   vertex -128.409241 51.629856 264.305908
  endloop
 endfacet
 facet normal -0.000000 0.819163 -0.573560
  outer loop
   vertex -128.659821 51.342396 263.895355
   vertex -128.659821 51.629856 264.305908
   vertex -128.409241 51.342396 263.895355
  endloop
 endfacet
 facet normal -0.866010 0.409604 -0.286796
  outer loop
   vertex -128.785126 51.452087 264.430389
   vertex -128.659821 51.629856 264.305908
   vertex -128.659821 51.342396 263.895355
  endloop
 endfacet
 facet normal -0.866010 0.409604 -0.286796
  outer loop
   vertex -128.659821 51.342396 263.895355
   vertex -128.785126 51.164627 264.019836
   vertex -128.785126 51.452087 264.430389
  endloop
 endfacet
 facet normal 0.866036 -0.409567 0.286770
  outer loop
   vertex -150.379242 51.164627 264.019836
   vertex -150.379242 51.452087 264.430389
   vertex -150.504532 50.986858 264.144318
  endloop
 endfacet
 facet normal 0.866036 -0.409567 0.286770
  outer loop
   vertex -150.504532 50.986858 264.144318
   vertex -150.379242 51.452087 264.430389
   vertex -150.504532 51.274319 264.554871
  endloop
 endfacet
 facet normal 0.000000 -0.819163 0.573560
  outer loop
   vertex -150.504532 51.274319 264.554871
   vertex -150.755127 50.986858 264.144318
   vertex -150.504532 50.986858 264.144318
  endloop
 endfacet
 facet normal -0.000000 -0.819163 0.573560
  outer loop
   vertex -150.755127 51.274319 264.554871
   vertex -150.755127 50.986858 264.144318
   vertex -150.504532 51.274319 264.554871
  endloop
 endfacet
 facet normal -0.866036 -0.409567 0.286770
  outer loop
   vertex -150.880417 51.164627 264.019836
   vertex -150.755127 50.986858 264.144318
   vertex -150.755127 51.274319 264.554871
  endloop
 endfacet
 facet normal -0.866036 -0.409567 0.286770
  outer loop
   vertex -150.755127 51.274319 264.554871
   vertex -150.880417 51.452087 264.430389
   vertex -150.880417 51.164627 264.019836
  endloop
 endfacet
 facet normal -0.866018 0.409591 -0.286787
  outer loop
   vertex -150.880417 51.164627 264.019836
   vertex -150.880417 51.452087 264.430389
   vertex -150.755127 51.342396 263.895386
  endloop
 endfacet
 facet normal -0.866036 0.409557 -0.286784
  outer loop
   vertex -150.755127 51.342396 263.895386
   vertex -150.880417 51.452087 264.430389
   vertex -150.755127 51.629856 264.305908
  endloop
 endfacet
 facet normal 0.000000 0.819143 -0.573589
  outer loop
   vertex -150.755127 51.629856 264.305908
   vertex -150.504532 51.342396 263.895386
   vertex -150.755127 51.342396 263.895386
  endloop
 endfacet
 facet normal -0.000000 0.819143 -0.573589
  outer loop
   vertex -150.504532 51.629856 264.305908
   vertex -150.504532 51.342396 263.895386
   vertex -150.755127 51.629856 264.305908
  endloop
 endfacet
 facet normal 0.866018 0.409581 -0.286801
  outer loop
   vertex -150.379242 51.164627 264.019836
   vertex -150.504532 51.342396 263.895386
   vertex -150.504532 51.629856 264.305908
  endloop
 endfacet
 facet normal 0.866036 0.409567 -0.286770
  outer loop
   vertex -150.504532 51.629856 264.305908
   vertex -150.379242 51.452087 264.430389
   vertex -150.379242 51.164627 264.019836
  endloop
 endfacet
 facet normal 0.000000 0.573596 0.819139
  outer loop
   vertex -150.755127 51.274319 264.554871
   vertex -150.504532 51.274319 264.554871
   vertex -150.629837 51.452087 264.430389
  endloop
 endfacet
 facet normal -0.000000 0.573596 0.819139
  outer loop
   vertex -150.629837 51.452087 264.430389
   vertex -150.504532 51.274319 264.554871
   vertex -150.379242 51.452087 264.430389
  endloop
 endfacet
 facet normal 0.000000 0.573596 0.819139
  outer loop
   vertex -150.379242 51.452087 264.430389
   vertex -150.504532 51.629856 264.305908
   vertex -150.629837 51.452087 264.430389
  endloop
 endfacet
 facet normal -0.000000 0.573596 0.819139
  outer loop
   vertex -128.659821 51.629856 264.305908
   vertex -128.785126 51.452087 264.430389
   vertex -128.534531 51.452087 264.430389
  endloop
 endfacet
 facet normal -0.000000 0.573501 0.819205
  outer loop
   vertex -128.534531 51.452087 264.430389
   vertex -128.785126 51.452087 264.430389
   vertex -128.659821 51.274319 264.554840
  endloop
 endfacet
 facet normal 0.000000 0.573501 0.819205
  outer loop
   vertex -128.659821 51.274319 264.554840
   vertex -128.409241 51.274319 264.554840
   vertex -128.534531 51.452087 264.430389
  endloop
 endfacet
 facet normal 0.000000 0.573501 0.819205
  outer loop
   vertex -128.409241 51.274319 264.554840
   vertex -128.283951 51.452087 264.430389
   vertex -128.534531 51.452087 264.430389
  endloop
 endfacet
 facet normal 0.000000 0.573596 0.819139
  outer loop
   vertex -128.534531 51.452087 264.430389
   vertex -128.283951 51.452087 264.430389
   vertex -128.409241 51.629856 264.305908
  endloop
 endfacet
 facet normal -0.000000 0.573596 0.819139
  outer loop
   vertex -128.409241 51.629856 264.305908
   vertex -128.659821 51.629856 264.305908
   vertex -128.534531 51.452087 264.430389
  endloop
 endfacet
 facet normal -0.000000 0.573596 0.819139
  outer loop
   vertex -150.504532 51.629856 264.305908
   vertex -150.755127 51.629856 264.305908
   vertex -150.629837 51.452087 264.430389
  endloop
 endfacet
 facet normal -0.000000 0.573596 0.819139
  outer loop
   vertex -150.629837 51.452087 264.430389
   vertex -150.755127 51.629856 264.305908
   vertex -150.880417 51.452087 264.430389
  endloop
 endfacet
 facet normal 0.000000 0.573596 0.819139
  outer loop
   vertex -150.880417 51.452087 264.430389
   vertex -150.755127 51.274319 264.554871
   vertex -150.629837 51.452087 264.430389
  endloop
 endfacet
 facet normal 0.000000 0.573586 0.819145
  outer loop
   vertex -129.991135 50.797035 262.405029
   vertex -129.991135 49.772934 263.122131
   vertex -126.999733 50.797035 262.405029
  endloop
 endfacet
 facet normal -0.000000 0.573586 0.819145
  outer loop
   vertex -126.999733 50.797035 262.405029
   vertex -129.991135 49.772934 263.122131
   vertex -126.999733 49.772934 263.122131
  endloop
 endfacet
 facet normal 1.000000 0.000000 -0.000000
  outer loop
   vertex -126.999733 49.772934 263.122131
   vertex -126.999733 50.000576 261.267578
   vertex -126.999733 50.797035 262.405029
  endloop
 endfacet
 facet normal 1.000000 -0.000000 -0.000000
  outer loop
   vertex -126.999733 48.976475 261.984680
   vertex -126.999733 50.000576 261.267578
   vertex -126.999733 49.772934 263.122131
  endloop
 endfacet
 facet normal 0.000000 -0.573586 -0.819145
  outer loop
   vertex -129.991135 48.976475 261.984680
   vertex -126.999733 50.000576 261.267578
   vertex -126.999733 48.976475 261.984680
  endloop
 endfacet
 facet normal -0.000000 -0.819150 0.573580
  outer loop
   vertex -126.999733 48.976475 261.984680
   vertex -129.991135 49.772934 263.122131
   vertex -129.991135 48.976475 261.984680
  endloop
 endfacet
 facet normal -1.000000 0.000000 -0.000000
  outer loop
   vertex -129.991135 48.976475 261.984680
   vertex -129.991135 49.772934 263.122131
   vertex -129.991135 50.000576 261.267578
  endloop
 endfacet
 facet normal -1.000000 -0.000000 -0.000000
  outer loop
   vertex -129.991135 50.000576 261.267578
   vertex -129.991135 49.772934 263.122131
   vertex -129.991135 50.797035 262.405029
  endloop
 endfacet
 facet normal 0.000000 0.819150 -0.573580
  outer loop
   vertex -129.991135 50.797035 262.405029
   vertex -126.999733 50.000576 261.267578
   vertex -129.991135 50.000576 261.267578
  endloop
 endfacet
 facet normal -0.000000 0.819150 -0.573580
  outer loop
   vertex -126.999733 50.797035 262.405029
   vertex -126.999733 50.000576 261.267578
   vertex -129.991135 50.797035 262.405029
  endloop
 endfacet
 facet normal -1.000000 0.000000 0.000000
  outer loop
   vertex -152.164627 50.000576 261.267578
   vertex -152.164627 48.976475 261.984680
   vertex -152.164627 50.797035 262.405060
  endloop
 endfacet
 facet normal -1.000000 -0.000000 -0.000000
  outer loop
   vertex -152.164627 50.797035 262.405060
   vertex -152.164627 48.976475 261.984680
   vertex -152.164627 49.772934 263.122131
  endloop
 endfacet
 facet normal 0.000000 0.573570 0.819157
  outer loop
   vertex -152.164627 49.772934 263.122131
   vertex -149.173233 50.797035 262.405060
   vertex -152.164627 50.797035 262.405060
  endloop
 endfacet
 facet normal -0.000000 0.573570 0.819157
  outer loop
   vertex -149.173233 49.772934 263.122131
   vertex -149.173233 50.797035 262.405060
   vertex -152.164627 49.772934 263.122131
  endloop
 endfacet
 facet normal 1.000000 0.000000 0.000000
  outer loop
   vertex -149.173233 48.976475 261.984680
   vertex -149.173233 50.797035 262.405060
   vertex -149.173233 49.772934 263.122131
  endloop
 endfacet
 facet normal -0.000000 -0.819150 0.573580
  outer loop
   vertex -149.173233 49.772934 263.122131
   vertex -152.164627 48.976475 261.984680
   vertex -149.173233 48.976475 261.984680
  endloop
 endfacet
 facet normal 0.000000 -0.573586 -0.819145
  outer loop
   vertex -149.173233 48.976475 261.984680
   vertex -152.164627 48.976475 261.984680
   vertex -149.173233 50.000576 261.267578
  endloop
 endfacet
 facet normal -0.000000 -0.573586 -0.819145
  outer loop
   vertex -149.173233 50.000576 261.267578
   vertex -152.164627 48.976475 261.984680
   vertex -152.164627 50.000576 261.267578
  endloop
 endfacet
 facet normal 0.000000 0.819157 -0.573570
  outer loop
   vertex -152.164627 50.000576 261.267578
   vertex -149.173233 50.797035 262.405060
   vertex -149.173233 50.000576 261.267578
  endloop
 endfacet
 facet normal -0.000000 0.819157 -0.573570
  outer loop
   vertex -152.164627 50.797035 262.405060
   vertex -149.173233 50.797035 262.405060
   vertex -152.164627 50.000576 261.267578
  endloop
 endfacet
 facet normal 0.000000 -0.819150 0.573580
  outer loop
   vertex -149.173233 49.772934 263.122131
   vertex -152.164627 49.772934 263.122131
   vertex -152.164627 48.976475 261.984680
  endloop
 endfacet
 facet normal 0.000000 -0.819150 0.573580
  outer loop
   vertex -126.999733 49.772934 263.122131
   vertex -129.991135 49.772934 263.122131
   vertex -126.999733 48.976475 261.984680
  endloop
 endfacet
 facet normal 1.000000 0.000000 -0.000000
  outer loop
   vertex -149.173233 48.976475 261.984680
   vertex -149.173233 50.000576 261.267578
   vertex -149.173233 50.797035 262.405060
  endloop
 endfacet
 facet normal 0.000000 -0.573586 -0.819145
  outer loop
   vertex -129.991135 48.976475 261.984680
   vertex -129.991135 50.000576 261.267578
   vertex -126.999733 50.000576 261.267578
  endloop
 endfacet
 facet normal -0.000000 0.573558 0.819165
  outer loop
   vertex -129.773682 52.516735 264.582275
   vertex -149.390686 52.426949 264.645142
   vertex -129.773682 52.426949 264.645142
  endloop
 endfacet
 facet normal -0.000000 -0.318464 0.947935
  outer loop
   vertex -129.773682 52.426949 264.645142
   vertex -149.390686 52.426949 264.645142
   vertex -129.773682 52.289238 264.598877
  endloop
 endfacet
 facet normal 0.000000 -0.298650 0.954363
  outer loop
   vertex -148.643112 51.278996 265.521179
   vertex -149.801834 51.178841 265.489838
   vertex -148.643112 51.178841 265.489838
  endloop
 endfacet
 facet normal -0.000000 -0.819152 0.573576
  outer loop
   vertex -148.643112 51.178841 265.489838
   vertex -149.801834 51.178841 265.489838
   vertex -149.801834 50.696102 264.800415
  endloop
 endfacet
 facet normal 0.000000 0.819152 -0.573576
  outer loop
   vertex -129.362534 52.058369 263.846558
   vertex -130.521255 52.541107 264.535980
   vertex -129.362534 52.541107 264.535980
  endloop
 endfacet
 facet normal -0.000000 0.998945 0.045912
  outer loop
   vertex -129.362534 52.541107 264.535980
   vertex -130.521255 52.541107 264.535980
   vertex -130.521255 52.536289 264.640808
  endloop
 endfacet
 facet normal -0.000000 0.999689 0.024919
  outer loop
   vertex -149.390686 51.324089 265.274658
   vertex -149.390686 51.320469 265.419891
   vertex -129.773682 51.320469 265.419891
  endloop
 endfacet
 facet normal -0.000000 0.573558 0.819165
  outer loop
   vertex -129.773682 51.320469 265.419891
   vertex -149.390686 51.320469 265.419891
   vertex -129.773682 51.230682 265.482758
  endloop
 endfacet
 facet normal 0.000001 0.829311 0.558787
  outer loop
   vertex -149.390686 52.048351 263.971802
   vertex -129.773682 52.048351 263.971771
   vertex -149.390686 52.068420 263.942017
  endloop
 endfacet
 facet normal -0.000000 0.829046 0.559181
  outer loop
   vertex -149.390686 52.068420 263.942017
   vertex -129.773682 52.048351 263.971771
   vertex -129.773682 52.068420 263.942017
  endloop
 endfacet
 facet normal 0.000000 0.819222 -0.573477
  outer loop
   vertex -129.773682 52.068420 263.942017
   vertex -149.390686 52.027916 263.884155
   vertex -149.390686 52.068420 263.942017
  endloop
 endfacet
 facet normal -1.000000 0.000000 0.000000
  outer loop
   vertex -149.801834 52.541107 264.535980
   vertex -149.801834 52.337418 264.659576
   vertex -149.801834 52.536289 264.640808
  endloop
 endfacet
 facet normal -1.000000 0.000000 -0.000000
  outer loop
   vertex -149.801834 52.536289 264.640808
   vertex -149.801834 52.337418 264.659576
   vertex -149.801834 52.406075 264.731995
  endloop
 endfacet
 facet normal 0.000000 0.573615 0.819125
  outer loop
   vertex -149.801834 52.406075 264.731995
   vertex -148.643112 52.536289 264.640808
   vertex -149.801834 52.536289 264.640808
  endloop
 endfacet
 facet normal 1.000000 0.000000 0.000000
  outer loop
   vertex -129.362534 51.178837 265.489838
   vertex -129.362534 51.364655 265.340698
   vertex -129.362534 51.278999 265.521179
  endloop
 endfacet
 facet normal 1.000000 -0.000000 -0.000000
  outer loop
   vertex -129.362534 51.278999 265.521179
   vertex -129.362534 51.364655 265.340698
   vertex -129.362534 51.409214 265.429993
  endloop
 endfacet
 facet normal -0.000000 0.573615 0.819125
  outer loop
   vertex -129.362534 51.409214 265.429993
   vertex -130.521255 51.278999 265.521179
   vertex -129.362534 51.278999 265.521179
  endloop
 endfacet
 facet normal 1.000000 0.000000 0.000000
  outer loop
   vertex -148.643112 51.409214 265.429993
   vertex -148.643112 51.278996 265.521179
   vertex -148.643112 51.364655 265.340698
  endloop
 endfacet
 facet normal 1.000000 -0.000000 0.000000
  outer loop
   vertex -148.643112 51.364655 265.340698
   vertex -148.643112 51.278996 265.521179
   vertex -148.643112 51.178841 265.489838
  endloop
 endfacet
 facet normal 1.000000 0.000000 0.000000
  outer loop
   vertex -148.643112 51.178841 265.489838
   vertex -148.643112 50.696102 264.800415
   vertex -148.643112 51.364655 265.340698
  endloop
 endfacet
 facet normal -0.000000 -0.819152 0.573576
  outer loop
   vertex -149.801834 50.696102 264.800415
   vertex -148.643112 50.696102 264.800415
   vertex -148.643112 51.178841 265.489838
  endloop
 endfacet
 facet normal 0.000000 0.999689 0.024919
  outer loop
   vertex -129.773682 51.320469 265.419891
   vertex -129.773682 51.324089 265.274658
   vertex -149.390686 51.324089 265.274658
  endloop
 endfacet
 facet normal 0.000000 0.573563 0.819161
  outer loop
   vertex -149.390686 51.324089 265.274658
   vertex -129.773682 51.324089 265.274658
   vertex -129.773682 52.289238 264.598877
  endloop
 endfacet
 facet normal -0.000000 0.573563 0.819161
  outer loop
   vertex -129.773682 52.289238 264.598877
   vertex -149.390686 52.289238 264.598877
   vertex -149.390686 51.324089 265.274658
  endloop
 endfacet
 facet normal -0.000000 -0.318464 0.947935
  outer loop
   vertex -149.390686 52.426949 264.645142
   vertex -149.390686 52.289238 264.598877
   vertex -129.773682 52.289238 264.598877
  endloop
 endfacet
 facet normal 0.000000 0.819152 -0.573576
  outer loop
   vertex -129.362534 52.058369 263.846558
   vertex -130.521255 52.058369 263.846558
   vertex -130.521255 52.541107 264.535980
  endloop
 endfacet
 facet normal -1.000000 -0.000000 -0.000000
  outer loop
   vertex -130.521255 52.541107 264.535980
   vertex -130.521255 52.058369 263.846558
   vertex -130.521255 52.337418 264.659576
  endloop
 endfacet
 facet normal -1.000000 -0.000000 -0.000000
  outer loop
   vertex -130.521255 52.337418 264.659576
   vertex -130.521255 52.536289 264.640808
   vertex -130.521255 52.541107 264.535980
  endloop
 endfacet
 facet normal -1.000000 -0.000000 -0.000000
  outer loop
   vertex -130.521255 52.406075 264.731964
   vertex -130.521255 52.536289 264.640808
   vertex -130.521255 52.337418 264.659576
  endloop
 endfacet
 facet normal 0.000000 -0.241361 -0.970435
  outer loop
   vertex -129.773682 52.400257 264.474365
   vertex -149.390686 52.400257 264.474365
   vertex -129.773682 52.435104 264.465698
  endloop
 endfacet
 facet normal -0.000000 -0.241361 -0.970435
  outer loop
   vertex -129.773682 52.435104 264.465698
   vertex -149.390686 52.400257 264.474365
   vertex -149.390686 52.435104 264.465698
  endloop
 endfacet
 facet normal 0.000000 0.819144 -0.573588
  outer loop
   vertex -149.390686 52.435104 264.465698
   vertex -129.773682 52.516735 264.582275
   vertex -129.773682 52.435104 264.465698
  endloop
 endfacet
 facet normal -0.000000 0.819144 -0.573588
  outer loop
   vertex -149.390686 52.516735 264.582275
   vertex -129.773682 52.516735 264.582275
   vertex -149.390686 52.435104 264.465698
  endloop
 endfacet
 facet normal 0.000000 0.573558 0.819165
  outer loop
   vertex -149.390686 52.426949 264.645142
   vertex -129.773682 52.516735 264.582275
   vertex -149.390686 52.516735 264.582275
  endloop
 endfacet
 facet normal -0.000000 0.573574 0.819153
  outer loop
   vertex -127.960648 51.632973 263.716797
   vertex -129.608810 50.719673 264.356293
   vertex -127.960648 50.719673 264.356293
  endloop
 endfacet
 facet normal -0.000000 -0.819153 0.573575
  outer loop
   vertex -127.960648 50.719673 264.356293
   vertex -129.608810 50.719673 264.356293
   vertex -127.960648 49.835762 263.093933
  endloop
 endfacet
 facet normal 1.000000 0.000000 0.000000
  outer loop
   vertex -127.960648 49.835762 263.093933
   vertex -127.960648 50.749065 262.454437
   vertex -127.960648 50.719673 264.356293
  endloop
 endfacet
 facet normal -0.000000 -0.573573 -0.819155
  outer loop
   vertex -129.608810 49.835762 263.093933
   vertex -127.960648 50.749065 262.454437
   vertex -127.960648 49.835762 263.093933
  endloop
 endfacet
 facet normal -0.000000 -0.573573 -0.819155
  outer loop
   vertex -129.608810 50.749065 262.454437
   vertex -127.960648 50.749065 262.454437
   vertex -129.608810 49.835762 263.093933
  endloop
 endfacet
 facet normal -1.000000 -0.000000 -0.000000
  outer loop
   vertex -129.608810 49.835762 263.093933
   vertex -129.608810 50.719673 264.356293
   vertex -129.608810 50.749065 262.454437
  endloop
 endfacet
 facet normal -1.000000 0.000000 0.000000
  outer loop
   vertex -129.608810 50.749065 262.454437
   vertex -129.608810 50.719673 264.356293
   vertex -129.608810 51.632973 263.716797
  endloop
 endfacet
 facet normal -0.000000 0.573574 0.819153
  outer loop
   vertex -129.608810 51.632973 263.716797
   vertex -129.608810 50.719673 264.356293
   vertex -127.960648 51.632973 263.716797
  endloop
 endfacet
 facet normal 0.000000 0.819154 -0.573574
  outer loop
   vertex -127.960648 51.632973 263.716797
   vertex -127.960648 50.749065 262.454437
   vertex -129.608810 51.632973 263.716797
  endloop
 endfacet
 facet normal 1.000000 -0.000000 -0.000000
  outer loop
   vertex -127.960648 50.719673 264.356293
   vertex -127.960648 50.749065 262.454437
   vertex -127.960648 51.632973 263.716797
  endloop
 endfacet
 facet normal 0.000000 0.819154 -0.573574
  outer loop
   vertex -151.203720 51.632973 263.716797
   vertex -149.555557 51.632973 263.716797
   vertex -151.203720 50.749065 262.454437
  endloop
 endfacet
 facet normal -0.000000 0.819154 -0.573574
  outer loop
   vertex -151.203720 50.749065 262.454437
   vertex -149.555557 51.632973 263.716797
   vertex -149.555557 50.749065 262.454437
  endloop
 endfacet
 facet normal 0.000000 -0.573573 -0.819155
  outer loop
   vertex -149.555557 50.749065 262.454437
   vertex -151.203720 49.835762 263.093933
   vertex -151.203720 50.749065 262.454437
  endloop
 endfacet
 facet normal 0.000000 -0.573573 -0.819155
  outer loop
   vertex -149.555557 49.835762 263.093933
   vertex -151.203720 49.835762 263.093933
   vertex -149.555557 50.749065 262.454437
  endloop
 endfacet
 facet normal 0.000000 -0.819153 0.573575
  outer loop
   vertex -149.555557 50.719673 264.356293
   vertex -151.203720 49.835762 263.093933
   vertex -149.555557 49.835762 263.093933
  endloop
 endfacet
 facet normal 1.000000 0.000000 -0.000000
  outer loop
   vertex -149.555557 49.835762 263.093933
   vertex -149.555557 51.632973 263.716797
   vertex -149.555557 50.719673 264.356293
  endloop
 endfacet
 facet normal 0.000000 0.573574 0.819153
  outer loop
   vertex -149.555557 50.719673 264.356293
   vertex -149.555557 51.632973 263.716797
   vertex -151.203720 50.719673 264.356293
  endloop
 endfacet
 facet normal 0.000000 0.573574 0.819153
  outer loop
   vertex -151.203720 50.719673 264.356293
   vertex -149.555557 51.632973 263.716797
   vertex -151.203720 51.632973 263.716797
  endloop
 endfacet
 facet normal -1.000000 0.000000 0.000000
  outer loop
   vertex -151.203720 51.632973 263.716797
   vertex -151.203720 49.835762 263.093933
   vertex -151.203720 50.719673 264.356293
  endloop
 endfacet
 facet normal -1.000000 0.000000 -0.000000
  outer loop
   vertex -151.203720 50.749065 262.454437
   vertex -151.203720 49.835762 263.093933
   vertex -151.203720 51.632973 263.716797
  endloop
 endfacet
 facet normal 0.000000 -0.573598 -0.819137
  outer loop
   vertex -126.521118 50.618790 263.676178
   vertex -126.871117 50.618790 263.676178
   vertex -126.871117 51.028366 263.389374
  endloop
 endfacet
 facet normal -0.000000 0.573598 0.819137
  outer loop
   vertex -126.871117 51.028366 263.389374
   vertex -126.871117 50.618790 263.676178
   vertex -126.696121 50.823578 263.532776
  endloop
 endfacet
 facet normal 0.000000 0.573598 0.819137
  outer loop
   vertex -126.696121 50.823578 263.532776
   vertex -126.521118 51.028366 263.389374
   vertex -126.871117 51.028366 263.389374
  endloop
 endfacet
 facet normal -0.000000 0.573598 0.819137
  outer loop
   vertex -126.521118 50.618790 263.676178
   vertex -126.521118 51.028366 263.389374
   vertex -126.696121 50.823578 263.532776
  endloop
 endfacet
 facet normal 1.000000 0.000000 0.000000
  outer loop
   vertex -126.521118 50.454788 262.570221
   vertex -126.521118 51.028366 263.389374
   vertex -126.521118 50.618790 263.676178
  endloop
 endfacet
 facet normal 1.000000 -0.000000 -0.000000
  outer loop
   vertex -126.521118 50.618790 263.676178
   vertex -126.521118 50.045212 262.857025
   vertex -126.521118 50.454788 262.570221
  endloop
 endfacet
 facet normal 0.000000 -0.573598 -0.819137
  outer loop
   vertex -126.521118 50.454788 262.570221
   vertex -126.521118 50.045212 262.857025
   vertex -128.221115 50.454788 262.570221
  endloop
 endfacet
 facet normal -0.000000 -0.573598 -0.819137
  outer loop
   vertex -128.221115 50.454788 262.570221
   vertex -126.521118 50.045212 262.857025
   vertex -128.221115 50.045212 262.857025
  endloop
 endfacet
 facet normal -1.000000 0.000000 0.000000
  outer loop
   vertex -128.221115 50.045212 262.857025
   vertex -128.221115 50.618790 263.676178
   vertex -128.221115 50.454788 262.570221
  endloop
 endfacet
 facet normal 0.000021 -0.819152 0.573577
  outer loop
   vertex -127.804131 50.475395 263.471375
   vertex -128.221115 50.618790 263.676178
   vertex -128.221115 50.045212 262.857025
  endloop
 endfacet
 facet normal 0.000000 -0.819172 0.573548
  outer loop
   vertex -127.871117 50.618790 263.676178
   vertex -128.221115 50.618790 263.676178
   vertex -127.804131 50.475395 263.471375
  endloop
 endfacet
 facet normal -0.000021 0.819152 -0.573577
  outer loop
   vertex -151.360229 50.884972 263.184601
   vertex -150.943253 51.028366 263.389374
   vertex -150.943253 50.454788 262.570221
  endloop
 endfacet
 facet normal 1.000000 -0.000000 -0.000000
  outer loop
   vertex -150.943253 50.454788 262.570221
   vertex -150.943253 51.028366 263.389374
   vertex -150.943253 50.045212 262.857025
  endloop
 endfacet
 facet normal 0.000000 -0.573598 -0.819137
  outer loop
   vertex -150.943253 50.045212 262.857025
   vertex -152.643250 50.454788 262.570221
   vertex -150.943253 50.454788 262.570221
  endloop
 endfacet
 facet normal -0.000000 -0.573598 -0.819137
  outer loop
   vertex -152.643250 50.045212 262.857025
   vertex -152.643250 50.454788 262.570221
   vertex -150.943253 50.045212 262.857025
  endloop
 endfacet
 facet normal -1.000000 0.000000 0.000000
  outer loop
   vertex -152.643250 51.028366 263.389374
   vertex -152.643250 50.454788 262.570221
   vertex -152.643250 50.045212 262.857025
  endloop
 endfacet
 facet normal -1.000000 -0.000000 -0.000000
  outer loop
   vertex -152.643250 50.045212 262.857025
   vertex -152.643250 50.618790 263.676178
   vertex -152.643250 51.028366 263.389374
  endloop
 endfacet
 facet normal 0.000000 0.573598 0.819137
  outer loop
   vertex -152.643250 51.028366 263.389374
   vertex -152.643250 50.618790 263.676178
   vertex -152.468246 50.823578 263.532776
  endloop
 endfacet
 facet normal -0.000000 0.573598 0.819137
  outer loop
   vertex -152.468246 50.823578 263.532776
   vertex -152.643250 50.618790 263.676178
   vertex -152.293243 50.618790 263.676178
  endloop
 endfacet
 facet normal 0.000000 0.573598 0.819137
  outer loop
   vertex -152.293243 50.618790 263.676178
   vertex -152.293243 51.028366 263.389374
   vertex -152.468246 50.823578 263.532776
  endloop
 endfacet
 facet normal -0.000000 -0.573598 -0.819137
  outer loop
   vertex -152.643250 51.028366 263.389374
   vertex -152.293243 51.028366 263.389374
   vertex -152.293243 50.618790 263.676178
  endloop
 endfacet
 facet normal 0.000000 0.573598 0.819137
  outer loop
   vertex -152.468246 50.823578 263.532776
   vertex -152.293243 51.028366 263.389374
   vertex -152.643250 51.028366 263.389374
  endloop
 endfacet
 facet normal 0.000001 0.573745 0.819034
  outer loop
   vertex -149.390686 51.320469 265.419891
   vertex -149.390686 51.230682 265.482788
   vertex -129.773682 51.230682 265.482758
  endloop
 endfacet
 facet normal 0.000001 -0.819214 0.573488
  outer loop
   vertex -129.773682 51.230682 265.482758
   vertex -149.390686 51.230682 265.482788
   vertex -149.390686 51.149052 265.366180
  endloop
 endfacet
 facet normal 0.000000 -0.819144 0.573588
  outer loop
   vertex -149.390686 51.149052 265.366180
   vertex -129.773682 51.149052 265.366180
   vertex -129.773682 51.230682 265.482758
  endloop
 endfacet
 facet normal -0.000000 -0.829046 -0.559181
  outer loop
   vertex -149.390686 51.169121 265.336426
   vertex -129.773682 51.149052 265.366180
   vertex -149.390686 51.149052 265.366180
  endloop
 endfacet
 facet normal 0.000000 -0.829046 -0.559181
  outer loop
   vertex -129.773682 51.169121 265.336426
   vertex -129.773682 51.149052 265.366180
   vertex -149.390686 51.169121 265.336426
  endloop
 endfacet
 facet normal -0.000000 -0.819163 0.573561
  outer loop
   vertex -149.390686 51.169121 265.336426
   vertex -149.390686 50.817215 264.833832
   vertex -129.773682 51.169121 265.336426
  endloop
 endfacet
 facet normal 0.000000 -0.819163 0.573561
  outer loop
   vertex -129.773682 51.169121 265.336426
   vertex -149.390686 50.817215 264.833832
   vertex -129.773682 50.817215 264.833832
  endloop
 endfacet
 facet normal -0.000000 0.241361 0.970435
  outer loop
   vertex -129.773682 50.817215 264.833832
   vertex -149.390686 50.817215 264.833832
   vertex -149.390686 50.782368 264.842499
  endloop
 endfacet
 facet normal 0.000000 0.241361 0.970435
  outer loop
   vertex -149.390686 50.782368 264.842499
   vertex -129.773682 50.782368 264.842499
   vertex -129.773682 50.817215 264.833832
  endloop
 endfacet
 facet normal -0.000000 -0.819080 0.573680
  outer loop
   vertex -149.390686 50.741863 264.784668
   vertex -129.773682 50.782368 264.842499
   vertex -149.390686 50.782368 264.842499
  endloop
 endfacet
 facet normal 0.000000 -0.819080 0.573680
  outer loop
   vertex -129.773682 50.741863 264.784668
   vertex -129.773682 50.782368 264.842499
   vertex -149.390686 50.741863 264.784668
  endloop
 endfacet
 facet normal -0.000000 -0.573580 -0.819149
  outer loop
   vertex -149.390686 50.741863 264.784668
   vertex -149.390686 52.027916 263.884155
   vertex -129.773682 50.741863 264.784668
  endloop
 endfacet
 facet normal 0.000000 -0.573580 -0.819149
  outer loop
   vertex -129.773682 50.741863 264.784668
   vertex -149.390686 52.027916 263.884155
   vertex -129.773682 52.027916 263.884155
  endloop
 endfacet
 facet normal -0.000000 0.819222 -0.573477
  outer loop
   vertex -129.773682 52.027916 263.884155
   vertex -149.390686 52.027916 263.884155
   vertex -129.773682 52.068420 263.942017
  endloop
 endfacet
 facet normal 0.000021 0.819152 -0.573577
  outer loop
   vertex -127.804131 50.884972 263.184601
   vertex -128.221115 50.454788 262.570221
   vertex -128.221115 51.028366 263.389374
  endloop
 endfacet
 facet normal -1.000000 -0.000000 -0.000000
  outer loop
   vertex -128.221115 51.028366 263.389374
   vertex -128.221115 50.454788 262.570221
   vertex -128.221115 50.618790 263.676178
  endloop
 endfacet
 facet normal 0.000000 0.573598 0.819137
  outer loop
   vertex -128.221115 50.618790 263.676178
   vertex -127.871117 51.028366 263.389374
   vertex -128.221115 51.028366 263.389374
  endloop
 endfacet
 facet normal -0.000000 0.573598 0.819137
  outer loop
   vertex -127.871117 50.618790 263.676178
   vertex -127.871117 51.028366 263.389374
   vertex -128.221115 50.618790 263.676178
  endloop
 endfacet
 facet normal 0.000000 -0.573598 -0.819137
  outer loop
   vertex -128.221115 50.618790 263.676178
   vertex -127.871117 51.028366 263.389374
   vertex -127.871117 50.618790 263.676178
  endloop
 endfacet
 facet normal -0.000000 -0.819132 0.573606
  outer loop
   vertex -127.871117 50.618790 263.676178
   vertex -127.804131 50.762184 263.880951
   vertex -128.221115 50.618790 263.676178
  endloop
 endfacet
 facet normal 0.000029 -0.819160 0.573566
  outer loop
   vertex -128.221115 50.618790 263.676178
   vertex -127.804131 50.762184 263.880951
   vertex -128.107239 50.862560 264.024323
  endloop
 endfacet
 facet normal -0.000001 -0.819190 0.573522
  outer loop
   vertex -128.107239 50.862560 264.024323
   vertex -127.804131 50.762184 263.880951
   vertex -127.621117 50.867153 264.030884
  endloop
 endfacet
 facet normal -0.000002 -0.819148 0.573583
  outer loop
   vertex -127.621117 50.867153 264.030884
   vertex -127.796120 51.041012 264.279175
   vertex -128.107239 50.862560 264.024323
  endloop
 endfacet
 facet normal 0.000000 -0.819147 0.573584
  outer loop
   vertex -127.371117 50.905575 264.085754
   vertex -127.796120 51.041012 264.279175
   vertex -127.621117 50.867153 264.030884
  endloop
 endfacet
 facet normal 0.000015 -0.819132 0.573606
  outer loop
   vertex -127.371117 51.106327 264.372437
   vertex -127.796120 51.041012 264.279175
   vertex -127.371117 50.905575 264.085754
  endloop
 endfacet
 facet normal 0.000007 -0.819132 0.573606
  outer loop
   vertex -127.371117 50.905575 264.085754
   vertex -127.121117 50.867153 264.030884
   vertex -127.371117 51.106327 264.372437
  endloop
 endfacet
 facet normal -0.000019 -0.819140 0.573593
  outer loop
   vertex -127.371117 51.106327 264.372437
   vertex -127.121117 50.867153 264.030884
   vertex -126.946121 51.041012 264.279175
  endloop
 endfacet
 facet normal 0.000049 -0.819163 0.573561
  outer loop
   vertex -126.946121 51.041012 264.279175
   vertex -127.121117 50.867153 264.030884
   vertex -126.938110 50.762184 263.880951
  endloop
 endfacet
 facet normal -0.000025 -0.819164 0.573560
  outer loop
   vertex -126.938110 50.762184 263.880951
   vertex -126.634995 50.862560 264.024323
   vertex -126.946121 51.041012 264.279175
  endloop
 endfacet
 facet normal -0.000050 -0.819139 0.573595
  outer loop
   vertex -126.871117 50.618790 263.676178
   vertex -126.634995 50.862560 264.024323
   vertex -126.938110 50.762184 263.880951
  endloop
 endfacet
 facet normal 0.000000 -0.819155 0.573572
  outer loop
   vertex -126.521118 50.618790 263.676178
   vertex -126.634995 50.862560 264.024323
   vertex -126.871117 50.618790 263.676178
  endloop
 endfacet
 facet normal -0.000000 -0.819172 0.573548
  outer loop
   vertex -126.871117 50.618790 263.676178
   vertex -126.938110 50.475395 263.471375
   vertex -126.521118 50.618790 263.676178
  endloop
 endfacet
 facet normal -0.000021 -0.819152 0.573577
  outer loop
   vertex -126.521118 50.618790 263.676178
   vertex -126.938110 50.475395 263.471375
   vertex -126.521118 50.045212 262.857025
  endloop
 endfacet
 facet normal 0.000021 -0.819138 0.573596
  outer loop
   vertex -126.521118 50.045212 262.857025
   vertex -126.938110 50.475395 263.471375
   vertex -127.121117 50.370422 263.321472
  endloop
 endfacet
 facet normal 0.000002 -0.819150 0.573579
  outer loop
   vertex -127.121117 50.370422 263.321472
   vertex -127.371117 50.332001 263.266602
   vertex -126.521118 50.045212 262.857025
  endloop
 endfacet
 facet normal -0.000021 -0.819152 0.573577
  outer loop
   vertex -151.360229 50.475395 263.471375
   vertex -150.943253 50.045212 262.857025
   vertex -150.943253 50.618790 263.676178
  endloop
 endfacet
 facet normal 1.000000 -0.000000 -0.000000
  outer loop
   vertex -150.943253 50.618790 263.676178
   vertex -150.943253 50.045212 262.857025
   vertex -150.943253 51.028366 263.389374
  endloop
 endfacet
 facet normal -0.000000 0.573598 0.819137
  outer loop
   vertex -150.943253 51.028366 263.389374
   vertex -151.293243 50.618790 263.676178
   vertex -150.943253 50.618790 263.676178
  endloop
 endfacet
 facet normal -0.000000 0.573598 0.819137
  outer loop
   vertex -151.293243 51.028366 263.389374
   vertex -151.293243 50.618790 263.676178
   vertex -150.943253 51.028366 263.389374
  endloop
 endfacet
 facet normal 0.000000 -0.573598 -0.819137
  outer loop
   vertex -150.943253 51.028366 263.389374
   vertex -151.293243 50.618790 263.676178
   vertex -151.293243 51.028366 263.389374
  endloop
 endfacet
 facet normal -0.000000 0.819179 -0.573538
  outer loop
   vertex -151.293243 51.028366 263.389374
   vertex -151.360229 51.171757 263.594177
   vertex -150.943253 51.028366 263.389374
  endloop
 endfacet
 facet normal -0.000024 0.819156 -0.573571
  outer loop
   vertex -150.943253 51.028366 263.389374
   vertex -151.360229 51.171757 263.594177
   vertex -151.057129 51.272133 263.737518
  endloop
 endfacet
 facet normal 0.000003 0.819128 -0.573611
  outer loop
   vertex -151.057129 51.272133 263.737518
   vertex -151.360229 51.171757 263.594177
   vertex -151.543243 51.276730 263.744080
  endloop
 endfacet
 facet normal 0.000004 0.819145 -0.573586
  outer loop
   vertex -151.543243 51.276730 263.744080
   vertex -151.368240 51.450588 263.992371
   vertex -151.057129 51.272133 263.737518
  endloop
 endfacet
 facet normal 0.000000 0.819147 -0.573584
  outer loop
   vertex -151.793243 51.315151 263.798950
   vertex -151.368240 51.450588 263.992371
   vertex -151.543243 51.276730 263.744080
  endloop
 endfacet
 facet normal -0.000013 0.819160 -0.573565
  outer loop
   vertex -151.793243 51.515903 264.085663
   vertex -151.368240 51.450588 263.992371
   vertex -151.793243 51.315151 263.798950
  endloop
 endfacet
 facet normal -0.000007 0.819160 -0.573565
  outer loop
   vertex -151.793243 51.315151 263.798950
   vertex -152.043243 51.276730 263.744080
   vertex -151.793243 51.515903 264.085663
  endloop
 endfacet
 facet normal 0.000017 0.819152 -0.573576
  outer loop
   vertex -151.793243 51.515903 264.085663
   vertex -152.043243 51.276730 263.744080
   vertex -152.218246 51.450588 263.992371
  endloop
 endfacet
 facet normal -0.000023 0.819139 -0.573595
  outer loop
   vertex -152.218246 51.450588 263.992371
   vertex -152.043243 51.276730 263.744080
   vertex -152.226257 51.171757 263.594177
  endloop
 endfacet
 facet normal 0.000007 0.819139 -0.573595
  outer loop
   vertex -152.226257 51.171757 263.594177
   vertex -152.529373 51.272133 263.737518
   vertex -152.218246 51.450588 263.992371
  endloop
 endfacet
 facet normal 0.000041 0.819173 -0.573547
  outer loop
   vertex -152.293243 51.028366 263.389374
   vertex -152.529373 51.272133 263.737518
   vertex -152.226257 51.171757 263.594177
  endloop
 endfacet
 facet normal 0.000000 0.819159 -0.573566
  outer loop
   vertex -152.643250 51.028366 263.389374
   vertex -152.529373 51.272133 263.737518
   vertex -152.293243 51.028366 263.389374
  endloop
 endfacet
 facet normal -0.000000 0.819132 -0.573606
  outer loop
   vertex -152.293243 51.028366 263.389374
   vertex -152.226257 50.884972 263.184601
   vertex -152.643250 51.028366 263.389374
  endloop
 endfacet
 facet normal 0.000021 0.819152 -0.573577
  outer loop
   vertex -152.643250 51.028366 263.389374
   vertex -152.226257 50.884972 263.184601
   vertex -152.643250 50.454788 262.570221
  endloop
 endfacet
 facet normal -0.000025 0.819166 -0.573556
  outer loop
   vertex -152.643250 50.454788 262.570221
   vertex -152.226257 50.884972 263.184601
   vertex -152.043243 50.779999 263.034668
  endloop
 endfacet
 facet normal 0.000002 0.819150 -0.573579
  outer loop
   vertex -152.043243 50.779999 263.034668
   vertex -151.793243 50.741577 262.979797
   vertex -152.643250 50.454788 262.570221
  endloop
 endfacet
 facet normal 0.000000 -0.990488 0.137596
  outer loop
   vertex -149.801834 50.696102 264.800415
   vertex -149.801834 50.620178 264.253876
   vertex -148.643112 50.696102 264.800415
  endloop
 endfacet
 facet normal -0.000000 -0.990488 0.137596
  outer loop
   vertex -148.643112 50.696102 264.800415
   vertex -149.801834 50.620178 264.253876
   vertex -148.643112 50.620178 264.253876
  endloop
 endfacet
 facet normal 1.000000 0.000000 0.000000
  outer loop
   vertex -148.643112 50.620178 264.253876
   vertex -148.643112 51.570740 263.588257
   vertex -148.643112 50.696102 264.800415
  endloop
 endfacet
 facet normal -0.000000 -0.573593 -0.819140
  outer loop
   vertex -149.801834 50.620178 264.253876
   vertex -148.643112 51.570740 263.588257
   vertex -148.643112 50.620178 264.253876
  endloop
 endfacet
 facet normal -0.000000 -0.573593 -0.819140
  outer loop
   vertex -149.801834 51.570740 263.588257
   vertex -148.643112 51.570740 263.588257
   vertex -149.801834 50.620178 264.253876
  endloop
 endfacet
 facet normal -1.000000 -0.000000 -0.000000
  outer loop
   vertex -149.801834 50.620178 264.253876
   vertex -149.801834 52.058369 263.846558
   vertex -149.801834 51.570740 263.588257
  endloop
 endfacet
 facet normal 0.000000 0.468092 -0.883680
  outer loop
   vertex -149.801834 51.570740 263.588257
   vertex -149.801834 52.058369 263.846558
   vertex -148.643112 51.570740 263.588257
  endloop
 endfacet
 facet normal -0.000000 0.468092 -0.883680
  outer loop
   vertex -148.643112 51.570740 263.588257
   vertex -149.801834 52.058369 263.846558
   vertex -148.643112 52.058369 263.846558
  endloop
 endfacet
 facet normal 1.000000 0.000000 0.000000
  outer loop
   vertex -148.643112 52.058369 263.846558
   vertex -148.643112 50.696102 264.800415
   vertex -148.643112 51.570740 263.588257
  endloop
 endfacet
 facet normal 1.000000 -0.000000 -0.000000
  outer loop
   vertex -148.643112 52.337418 264.659576
   vertex -148.643112 50.696102 264.800415
   vertex -148.643112 52.058369 263.846558
  endloop
 endfacet
 facet normal 1.000000 -0.000000 0.000000
  outer loop
   vertex -148.643112 51.364655 265.340698
   vertex -148.643112 50.696102 264.800415
   vertex -148.643112 52.337418 264.659576
  endloop
 endfacet
 facet normal -0.000000 0.573568 0.819158
  outer loop
   vertex -148.643112 52.337418 264.659576
   vertex -149.801834 51.364655 265.340698
   vertex -148.643112 51.364655 265.340698
  endloop
 endfacet
 facet normal 0.000000 0.894779 -0.446510
  outer loop
   vertex -148.643112 51.364655 265.340698
   vertex -149.801834 51.364655 265.340698
   vertex -148.643112 51.409214 265.429993
  endloop
 endfacet
 facet normal -0.000000 0.894779 -0.446510
  outer loop
   vertex -148.643112 51.409214 265.429993
   vertex -149.801834 51.364655 265.340698
   vertex -149.801834 51.409214 265.429993
  endloop
 endfacet
 facet normal 0.000000 0.573604 0.819133
  outer loop
   vertex -149.801834 51.409214 265.429993
   vertex -148.643112 51.278996 265.521179
   vertex -148.643112 51.409214 265.429993
  endloop
 endfacet
 facet normal 0.000000 0.573604 0.819133
  outer loop
   vertex -149.801834 51.278996 265.521179
   vertex -148.643112 51.278996 265.521179
   vertex -149.801834 51.409214 265.429993
  endloop
 endfacet
 facet normal 0.000000 -0.298650 0.954363
  outer loop
   vertex -149.801834 51.178841 265.489838
   vertex -148.643112 51.278996 265.521179
   vertex -149.801834 51.278996 265.521179
  endloop
 endfacet
 facet normal -1.000000 -0.000000 -0.000000
  outer loop
   vertex -149.801834 51.278996 265.521179
   vertex -149.801834 51.364655 265.340698
   vertex -149.801834 51.178841 265.489838
  endloop
 endfacet
 facet normal -1.000000 -0.000000 0.000000
  outer loop
   vertex -149.801834 51.178841 265.489838
   vertex -149.801834 51.364655 265.340698
   vertex -149.801834 50.696102 264.800415
  endloop
 endfacet
 facet normal -1.000000 -0.000000 -0.000000
  outer loop
   vertex -149.801834 50.696102 264.800415
   vertex -149.801834 51.364655 265.340698
   vertex -149.801834 52.337418 264.659576
  endloop
 endfacet
 facet normal -1.000000 0.000000 0.000000
  outer loop
   vertex -149.801834 52.337418 264.659576
   vertex -149.801834 52.058369 263.846558
   vertex -149.801834 50.696102 264.800415
  endloop
 endfacet
 facet normal -1.000000 -0.000000 -0.000000
  outer loop
   vertex -149.801834 52.541107 264.535980
   vertex -149.801834 52.058369 263.846558
   vertex -149.801834 52.337418 264.659576
  endloop
 endfacet
 facet normal 0.000000 0.819152 -0.573576
  outer loop
   vertex -148.643112 52.058369 263.846558
   vertex -149.801834 52.058369 263.846558
   vertex -149.801834 52.541107 264.535980
  endloop
 endfacet
 facet normal -0.000000 0.819152 -0.573576
  outer loop
   vertex -149.801834 52.541107 264.535980
   vertex -148.643112 52.541107 264.535980
   vertex -148.643112 52.058369 263.846558
  endloop
 endfacet
 facet normal 1.000000 0.000000 0.000000
  outer loop
   vertex -148.643112 52.058369 263.846558
   vertex -148.643112 52.541107 264.535980
   vertex -148.643112 52.337418 264.659576
  endloop
 endfacet
 facet normal 1.000000 -0.000000 -0.000000
  outer loop
   vertex -148.643112 52.337418 264.659576
   vertex -148.643112 52.541107 264.535980
   vertex -148.643112 52.536289 264.640808
  endloop
 endfacet
 facet normal 1.000000 0.000000 0.000000
  outer loop
   vertex -148.643112 52.536289 264.640808
   vertex -148.643112 52.406075 264.731995
   vertex -148.643112 52.337418 264.659576
  endloop
 endfacet
 facet normal 0.000000 0.573615 0.819125
  outer loop
   vertex -149.801834 52.406075 264.731995
   vertex -148.643112 52.406075 264.731995
   vertex -148.643112 52.536289 264.640808
  endloop
 endfacet
 facet normal 0.000000 -0.725702 0.688010
  outer loop
   vertex -148.643112 52.337418 264.659576
   vertex -148.643112 52.406075 264.731995
   vertex -149.801834 52.406075 264.731995
  endloop
 endfacet
 facet normal -0.000000 -0.725702 0.688010
  outer loop
   vertex -149.801834 52.406075 264.731995
   vertex -149.801834 52.337418 264.659576
   vertex -148.643112 52.337418 264.659576
  endloop
 endfacet
 facet normal -0.000000 0.573568 0.819158
  outer loop
   vertex -148.643112 52.337418 264.659576
   vertex -149.801834 52.337418 264.659576
   vertex -149.801834 51.364655 265.340698
  endloop
 endfacet
 facet normal 0.000000 0.468092 -0.883680
  outer loop
   vertex -129.362534 52.058369 263.846558
   vertex -129.362534 51.570740 263.588257
   vertex -130.521255 52.058369 263.846558
  endloop
 endfacet
 facet normal -0.000000 0.468092 -0.883680
  outer loop
   vertex -130.521255 52.058369 263.846558
   vertex -129.362534 51.570740 263.588257
   vertex -130.521255 51.570740 263.588257
  endloop
 endfacet
 facet normal -1.000000 0.000000 0.000000
  outer loop
   vertex -130.521255 51.570740 263.588257
   vertex -130.521255 50.620178 264.253845
   vertex -130.521255 52.058369 263.846558
  endloop
 endfacet
 facet normal -0.000000 -0.573575 -0.819153
  outer loop
   vertex -129.362534 51.570740 263.588257
   vertex -130.521255 50.620178 264.253845
   vertex -130.521255 51.570740 263.588257
  endloop
 endfacet
 facet normal 0.000000 -0.573575 -0.819153
  outer loop
   vertex -129.362534 50.620178 264.253845
   vertex -130.521255 50.620178 264.253845
   vertex -129.362534 51.570740 263.588257
  endloop
 endfacet
 facet normal 1.000000 -0.000000 0.000000
  outer loop
   vertex -129.362534 51.570740 263.588257
   vertex -129.362534 50.696102 264.800415
   vertex -129.362534 50.620178 264.253845
  endloop
 endfacet
 facet normal 0.000000 -0.990489 0.137589
  outer loop
   vertex -129.362534 50.620178 264.253845
   vertex -129.362534 50.696102 264.800415
   vertex -130.521255 50.620178 264.253845
  endloop
 endfacet
 facet normal -0.000000 -0.990489 0.137589
  outer loop
   vertex -130.521255 50.620178 264.253845
   vertex -129.362534 50.696102 264.800415
   vertex -130.521255 50.696102 264.800415
  endloop
 endfacet
 facet normal -1.000000 0.000000 0.000000
  outer loop
   vertex -130.521255 50.696102 264.800415
   vertex -130.521255 52.058369 263.846558
   vertex -130.521255 50.620178 264.253845
  endloop
 endfacet
 facet normal -1.000000 -0.000000 -0.000000
  outer loop
   vertex -130.521255 51.364655 265.340698
   vertex -130.521255 52.058369 263.846558
   vertex -130.521255 50.696102 264.800415
  endloop
 endfacet
 facet normal -1.000000 0.000000 0.000000
  outer loop
   vertex -130.521255 52.337418 264.659576
   vertex -130.521255 52.058369 263.846558
   vertex -130.521255 51.364655 265.340698
  endloop
 endfacet
 facet normal 0.000000 0.573568 0.819158
  outer loop
   vertex -130.521255 51.364655 265.340698
   vertex -129.362534 52.337418 264.659576
   vertex -130.521255 52.337418 264.659576
  endloop
 endfacet
 facet normal 0.000000 -0.725557 0.688162
  outer loop
   vertex -130.521255 52.337418 264.659576
   vertex -129.362534 52.337418 264.659576
   vertex -130.521255 52.406075 264.731964
  endloop
 endfacet
 facet normal -0.000000 -0.725557 0.688162
  outer loop
   vertex -130.521255 52.406075 264.731964
   vertex -129.362534 52.337418 264.659576
   vertex -129.362534 52.406075 264.731964
  endloop
 endfacet
 facet normal 0.000000 0.573487 0.819215
  outer loop
   vertex -129.362534 52.406075 264.731964
   vertex -130.521255 52.536289 264.640808
   vertex -130.521255 52.406075 264.731964
  endloop
 endfacet
 facet normal -0.000000 0.573487 0.819215
  outer loop
   vertex -129.362534 52.536289 264.640808
   vertex -130.521255 52.536289 264.640808
   vertex -129.362534 52.406075 264.731964
  endloop
 endfacet
 facet normal -0.000000 0.998945 0.045912
  outer loop
   vertex -129.362534 52.541107 264.535980
   vertex -130.521255 52.536289 264.640808
   vertex -129.362534 52.536289 264.640808
  endloop
 endfacet
 facet normal 1.000000 -0.000000 -0.000000
  outer loop
   vertex -129.362534 52.536289 264.640808
   vertex -129.362534 52.337418 264.659576
   vertex -129.362534 52.541107 264.535980
  endloop
 endfacet
 facet normal 1.000000 0.000000 0.000000
  outer loop
   vertex -129.362534 52.541107 264.535980
   vertex -129.362534 52.337418 264.659576
   vertex -129.362534 52.058369 263.846558
  endloop
 endfacet
 facet normal 1.000000 0.000000 -0.000000
  outer loop
   vertex -129.362534 52.058369 263.846558
   vertex -129.362534 52.337418 264.659576
   vertex -129.362534 51.364655 265.340698
  endloop
 endfacet
 facet normal 1.000000 -0.000000 0.000000
  outer loop
   vertex -129.362534 51.364655 265.340698
   vertex -129.362534 50.696102 264.800415
   vertex -129.362534 52.058369 263.846558
  endloop
 endfacet
 facet normal 1.000000 -0.000000 -0.000000
  outer loop
   vertex -129.362534 51.178837 265.489838
   vertex -129.362534 50.696102 264.800415
   vertex -129.362534 51.364655 265.340698
  endloop
 endfacet
 facet normal 0.000000 -0.819154 0.573573
  outer loop
   vertex -130.521255 50.696102 264.800415
   vertex -129.362534 50.696102 264.800415
   vertex -129.362534 51.178837 265.489838
  endloop
 endfacet
 facet normal -0.000000 -0.819154 0.573573
  outer loop
   vertex -129.362534 51.178837 265.489838
   vertex -130.521255 51.178837 265.489838
   vertex -130.521255 50.696102 264.800415
  endloop
 endfacet
 facet normal -1.000000 0.000000 -0.000000
  outer loop
   vertex -130.521255 50.696102 264.800415
   vertex -130.521255 51.178837 265.489838
   vertex -130.521255 51.364655 265.340698
  endloop
 endfacet
 facet normal -1.000000 0.000000 -0.000000
  outer loop
   vertex -130.521255 51.364655 265.340698
   vertex -130.521255 51.178837 265.489838
   vertex -130.521255 51.278999 265.521179
  endloop
 endfacet
 facet normal -1.000000 -0.000000 0.000000
  outer loop
   vertex -130.521255 51.278999 265.521179
   vertex -130.521255 51.409214 265.429993
   vertex -130.521255 51.364655 265.340698
  endloop
 endfacet
 facet normal -0.000000 0.573615 0.819125
  outer loop
   vertex -129.362534 51.409214 265.429993
   vertex -130.521255 51.409214 265.429993
   vertex -130.521255 51.278999 265.521179
  endloop
 endfacet
 facet normal 0.000000 0.894779 -0.446510
  outer loop
   vertex -130.521255 51.364655 265.340698
   vertex -130.521255 51.409214 265.429993
   vertex -129.362534 51.409214 265.429993
  endloop
 endfacet
 facet normal -0.000000 0.894779 -0.446510
  outer loop
   vertex -129.362534 51.409214 265.429993
   vertex -129.362534 51.364655 265.340698
   vertex -130.521255 51.364655 265.340698
  endloop
 endfacet
 facet normal 0.000000 0.573568 0.819158
  outer loop
   vertex -130.521255 51.364655 265.340698
   vertex -129.362534 51.364655 265.340698
   vertex -129.362534 52.337418 264.659576
  endloop
 endfacet
 facet normal 0.000000 -0.819132 0.573606
  outer loop
   vertex -151.293243 50.618790 263.676178
   vertex -150.943253 50.618790 263.676178
   vertex -151.360229 50.762184 263.880951
  endloop
 endfacet
 facet normal -0.000029 -0.819160 0.573566
  outer loop
   vertex -151.360229 50.762184 263.880951
   vertex -150.943253 50.618790 263.676178
   vertex -151.057129 50.862560 264.024323
  endloop
 endfacet
 facet normal 0.000001 -0.819190 0.573522
  outer loop
   vertex -151.057129 50.862560 264.024323
   vertex -151.543243 50.867153 264.030884
   vertex -151.360229 50.762184 263.880951
  endloop
 endfacet
 facet normal 0.000002 -0.819148 0.573583
  outer loop
   vertex -151.368240 51.041012 264.279175
   vertex -151.543243 50.867153 264.030884
   vertex -151.057129 50.862560 264.024323
  endloop
 endfacet
 facet normal -0.000000 -0.819147 0.573584
  outer loop
   vertex -151.793243 50.905575 264.085754
   vertex -151.543243 50.867153 264.030884
   vertex -151.368240 51.041012 264.279175
  endloop
 endfacet
 facet normal -0.000015 -0.819132 0.573606
  outer loop
   vertex -151.368240 51.041012 264.279175
   vertex -151.793243 51.106327 264.372437
   vertex -151.793243 50.905575 264.085754
  endloop
 endfacet
 facet normal -0.000007 -0.819132 0.573606
  outer loop
   vertex -151.793243 50.905575 264.085754
   vertex -151.793243 51.106327 264.372437
   vertex -152.043243 50.867153 264.030884
  endloop
 endfacet
 facet normal 0.000019 -0.819140 0.573593
  outer loop
   vertex -152.043243 50.867153 264.030884
   vertex -151.793243 51.106327 264.372437
   vertex -152.218246 51.041012 264.279175
  endloop
 endfacet
 facet normal -0.000049 -0.819163 0.573561
  outer loop
   vertex -152.218246 51.041012 264.279175
   vertex -152.226257 50.762184 263.880951
   vertex -152.043243 50.867153 264.030884
  endloop
 endfacet
 facet normal 0.000025 -0.819164 0.573560
  outer loop
   vertex -152.529373 50.862560 264.024323
   vertex -152.226257 50.762184 263.880951
   vertex -152.218246 51.041012 264.279175
  endloop
 endfacet
 facet normal 0.000050 -0.819139 0.573595
  outer loop
   vertex -152.293243 50.618790 263.676178
   vertex -152.226257 50.762184 263.880951
   vertex -152.529373 50.862560 264.024323
  endloop
 endfacet
 facet normal -0.000000 -0.819155 0.573572
  outer loop
   vertex -152.529373 50.862560 264.024323
   vertex -152.643250 50.618790 263.676178
   vertex -152.293243 50.618790 263.676178
  endloop
 endfacet
 facet normal 0.000000 -0.819172 0.573548
  outer loop
   vertex -152.293243 50.618790 263.676178
   vertex -152.643250 50.618790 263.676178
   vertex -152.226257 50.475395 263.471375
  endloop
 endfacet
 facet normal 0.000021 -0.819152 0.573577
  outer loop
   vertex -152.226257 50.475395 263.471375
   vertex -152.643250 50.618790 263.676178
   vertex -152.643250 50.045212 262.857025
  endloop
 endfacet
 facet normal -0.000021 -0.819138 0.573596
  outer loop
   vertex -152.643250 50.045212 262.857025
   vertex -152.043243 50.370422 263.321472
   vertex -152.226257 50.475395 263.471375
  endloop
 endfacet
 facet normal -0.000002 -0.819150 0.573579
  outer loop
   vertex -151.793243 50.332001 263.266602
   vertex -152.043243 50.370422 263.321472
   vertex -152.643250 50.045212 262.857025
  endloop
 endfacet
 facet normal 0.000000 0.819172 -0.573548
  outer loop
   vertex -127.871117 51.028366 263.389374
   vertex -128.221115 51.028366 263.389374
   vertex -127.804131 51.171761 263.594177
  endloop
 endfacet
 facet normal 0.000021 0.819152 -0.573576
  outer loop
   vertex -127.804131 51.171761 263.594177
   vertex -128.221115 51.028366 263.389374
   vertex -128.107239 51.272137 263.737518
  endloop
 endfacet
 facet normal 0.000003 0.819134 -0.573602
  outer loop
   vertex -128.107239 51.272137 263.737518
   vertex -127.621117 51.276730 263.744080
   vertex -127.804131 51.171761 263.594177
  endloop
 endfacet
 facet normal 0.000002 0.819148 -0.573583
  outer loop
   vertex -127.796120 51.450588 263.992371
   vertex -127.621117 51.276730 263.744080
   vertex -128.107239 51.272137 263.737518
  endloop
 endfacet
 facet normal -0.000000 0.819147 -0.573584
  outer loop
   vertex -127.371117 51.315151 263.798950
   vertex -127.621117 51.276730 263.744080
   vertex -127.796120 51.450588 263.992371
  endloop
 endfacet
 facet normal 0.000013 0.819160 -0.573565
  outer loop
   vertex -127.796120 51.450588 263.992371
   vertex -127.371117 51.515903 264.085663
   vertex -127.371117 51.315151 263.798950
  endloop
 endfacet
 facet normal 0.000007 0.819160 -0.573565
  outer loop
   vertex -127.371117 51.315151 263.798950
   vertex -127.371117 51.515903 264.085663
   vertex -127.121117 51.276730 263.744080
  endloop
 endfacet
 facet normal -0.000017 0.819152 -0.573576
  outer loop
   vertex -127.121117 51.276730 263.744080
   vertex -127.371117 51.515903 264.085663
   vertex -126.946121 51.450588 263.992371
  endloop
 endfacet
 facet normal 0.000012 0.819143 -0.573590
  outer loop
   vertex -126.946121 51.450588 263.992371
   vertex -126.938110 51.171761 263.594177
   vertex -127.121117 51.276730 263.744080
  endloop
 endfacet
 facet normal -0.000011 0.819143 -0.573590
  outer loop
   vertex -126.634995 51.272137 263.737518
   vertex -126.938110 51.171761 263.594177
   vertex -126.946121 51.450588 263.992371
  endloop
 endfacet
 facet normal -0.000035 0.819166 -0.573556
  outer loop
   vertex -126.871117 51.028366 263.389374
   vertex -126.938110 51.171761 263.594177
   vertex -126.634995 51.272137 263.737518
  endloop
 endfacet
 facet normal -0.000000 0.819155 -0.573572
  outer loop
   vertex -126.634995 51.272137 263.737518
   vertex -126.521118 51.028366 263.389374
   vertex -126.871117 51.028366 263.389374
  endloop
 endfacet
 facet normal 0.000000 0.819132 -0.573606
  outer loop
   vertex -126.871117 51.028366 263.389374
   vertex -126.521118 51.028366 263.389374
   vertex -126.938110 50.884972 263.184601
  endloop
 endfacet
 facet normal -0.000021 0.819152 -0.573577
  outer loop
   vertex -126.938110 50.884972 263.184601
   vertex -126.521118 51.028366 263.389374
   vertex -126.521118 50.454788 262.570221
  endloop
 endfacet
 facet normal 0.000025 0.819166 -0.573556
  outer loop
   vertex -126.521118 50.454788 262.570221
   vertex -127.121117 50.779999 263.034668
   vertex -126.938110 50.884972 263.184601
  endloop
 endfacet
 facet normal -0.000002 0.819150 -0.573579
  outer loop
   vertex -127.371117 50.741577 262.979797
   vertex -127.121117 50.779999 263.034668
   vertex -126.521118 50.454788 262.570221
  endloop
 endfacet
 facet normal 0.000000 0.819152 -0.573577
  outer loop
   vertex -152.643250 50.454788 262.570221
   vertex -151.793243 50.741577 262.979797
   vertex -150.943253 50.454788 262.570221
  endloop
 endfacet
 facet normal -0.000002 0.819150 -0.573579
  outer loop
   vertex -150.943253 50.454788 262.570221
   vertex -151.793243 50.741577 262.979797
   vertex -151.543243 50.779999 263.034668
  endloop
 endfacet
 facet normal 0.000025 0.819166 -0.573556
  outer loop
   vertex -151.543243 50.779999 263.034668
   vertex -151.360229 50.884972 263.184601
   vertex -150.943253 50.454788 262.570221
  endloop
 endfacet
 facet normal -0.000025 0.819166 -0.573556
  outer loop
   vertex -127.804131 50.884972 263.184601
   vertex -127.621117 50.779999 263.034668
   vertex -128.221115 50.454788 262.570221
  endloop
 endfacet
 facet normal 0.000002 0.819150 -0.573579
  outer loop
   vertex -128.221115 50.454788 262.570221
   vertex -127.621117 50.779999 263.034668
   vertex -127.371117 50.741577 262.979797
  endloop
 endfacet
 facet normal 0.000000 0.819152 -0.573577
  outer loop
   vertex -127.371117 50.741577 262.979797
   vertex -126.521118 50.454788 262.570221
   vertex -128.221115 50.454788 262.570221
  endloop
 endfacet
 facet normal 0.000000 -0.819152 0.573577
  outer loop
   vertex -126.521118 50.045212 262.857025
   vertex -127.371117 50.332001 263.266602
   vertex -128.221115 50.045212 262.857025
  endloop
 endfacet
 facet normal -0.000002 -0.819150 0.573579
  outer loop
   vertex -128.221115 50.045212 262.857025
   vertex -127.371117 50.332001 263.266602
   vertex -127.621117 50.370422 263.321472
  endloop
 endfacet
 facet normal -0.000021 -0.819138 0.573596
  outer loop
   vertex -127.621117 50.370422 263.321472
   vertex -127.804131 50.475395 263.471375
   vertex -128.221115 50.045212 262.857025
  endloop
 endfacet
 facet normal 0.000021 -0.819138 0.573596
  outer loop
   vertex -151.360229 50.475395 263.471375
   vertex -151.543243 50.370422 263.321472
   vertex -150.943253 50.045212 262.857025
  endloop
 endfacet
 facet normal 0.000002 -0.819150 0.573579
  outer loop
   vertex -150.943253 50.045212 262.857025
   vertex -151.543243 50.370422 263.321472
   vertex -151.793243 50.332001 263.266602
  endloop
 endfacet
 facet normal 0.000000 -0.819152 0.573577
  outer loop
   vertex -151.793243 50.332001 263.266602
   vertex -152.643250 50.045212 262.857025
   vertex -150.943253 50.045212 262.857025
  endloop
 endfacet
 facet normal 0.000000 -0.298629 0.954369
  outer loop
   vertex -129.362534 51.178837 265.489838
   vertex -129.362534 51.278999 265.521179
   vertex -130.521255 51.178837 265.489838
  endloop
 endfacet
 facet normal -0.000000 -0.298629 0.954369
  outer loop
   vertex -130.521255 51.178837 265.489838
   vertex -129.362534 51.278999 265.521179
   vertex -130.521255 51.278999 265.521179
  endloop
 endfacet
 facet normal -0.000001 0.819147 -0.573584
  outer loop
   vertex -149.390686 52.048351 263.971802
   vertex -149.390686 52.400257 264.474365
   vertex -129.773682 52.048351 263.971771
  endloop
 endfacet
 facet normal -0.000000 0.819163 -0.573561
  outer loop
   vertex -129.773682 52.048351 263.971771
   vertex -149.390686 52.400257 264.474365
   vertex -129.773682 52.400257 264.474365
  endloop
 endfacet
 facet normal 0.000000 0.998945 0.045912
  outer loop
   vertex -148.643112 52.536289 264.640808
   vertex -148.643112 52.541107 264.535980
   vertex -149.801834 52.536289 264.640808
  endloop
 endfacet
 facet normal 0.000000 0.998945 0.045912
  outer loop
   vertex -149.801834 52.536289 264.640808
   vertex -148.643112 52.541107 264.535980
   vertex -149.801834 52.541107 264.535980
  endloop
 endfacet
 facet normal 0.000000 0.573598 0.819137
  outer loop
   vertex -126.871117 50.618790 263.676178
   vertex -126.521118 50.618790 263.676178
   vertex -126.696121 50.823578 263.532776
  endloop
 endfacet
 facet normal 1.000000 0.000000 0.000000
  outer loop
   vertex -129.362534 52.058369 263.846558
   vertex -129.362534 50.696102 264.800415
   vertex -129.362534 51.570740 263.588257
  endloop
 endfacet
 facet normal 0.000000 0.819132 -0.573606
  outer loop
   vertex -128.221115 51.028366 263.389374
   vertex -127.871117 51.028366 263.389374
   vertex -127.804131 50.884972 263.184601
  endloop
 endfacet
 facet normal 0.000000 0.819132 -0.573606
  outer loop
   vertex -151.293243 51.028366 263.389374
   vertex -150.943253 51.028366 263.389374
   vertex -151.360229 50.884972 263.184601
  endloop
 endfacet
 facet normal 0.000000 -0.573598 -0.819137
  outer loop
   vertex -126.521118 50.618790 263.676178
   vertex -126.871117 51.028366 263.389374
   vertex -126.521118 51.028366 263.389374
  endloop
 endfacet
 facet normal 0.000000 -0.819153 0.573575
  outer loop
   vertex -149.555557 50.719673 264.356293
   vertex -151.203720 50.719673 264.356293
   vertex -151.203720 49.835762 263.093933
  endloop
 endfacet
 facet normal 0.000000 0.819154 -0.573574
  outer loop
   vertex -129.608810 50.749065 262.454437
   vertex -129.608810 51.632973 263.716797
   vertex -127.960648 50.749065 262.454437
  endloop
 endfacet
 facet normal -0.000000 -0.573598 -0.819137
  outer loop
   vertex -152.643250 51.028366 263.389374
   vertex -152.293243 50.618790 263.676178
   vertex -152.643250 50.618790 263.676178
  endloop
 endfacet
 facet normal -1.000000 -0.000000 0.000000
  outer loop
   vertex -149.801834 51.278996 265.521179
   vertex -149.801834 51.409214 265.429993
   vertex -149.801834 51.364655 265.340698
  endloop
 endfacet
 facet normal 0.000000 -0.573598 -0.819137
  outer loop
   vertex -127.871117 51.028366 263.389374
   vertex -128.221115 50.618790 263.676178
   vertex -128.221115 51.028366 263.389374
  endloop
 endfacet
 facet normal -1.000000 0.000000 0.000000
  outer loop
   vertex -149.801834 50.696102 264.800415
   vertex -149.801834 52.058369 263.846558
   vertex -149.801834 50.620178 264.253876
  endloop
 endfacet
 facet normal 1.000000 0.000000 0.000000
  outer loop
   vertex -129.362534 52.536289 264.640808
   vertex -129.362534 52.406075 264.731964
   vertex -129.362534 52.337418 264.659576
  endloop
 endfacet
 facet normal 0.000000 -0.819153 0.573575
  outer loop
   vertex -129.608810 50.719673 264.356293
   vertex -129.608810 49.835762 263.093933
   vertex -127.960648 49.835762 263.093933
  endloop
 endfacet
 facet normal 1.000000 0.000000 -0.000000
  outer loop
   vertex -149.555557 49.835762 263.093933
   vertex -149.555557 50.749065 262.454437
   vertex -149.555557 51.632973 263.716797
  endloop
 endfacet
 facet normal 0.000000 -0.573598 -0.819137
  outer loop
   vertex -151.293243 50.618790 263.676178
   vertex -150.943253 51.028366 263.389374
   vertex -150.943253 50.618790 263.676178
  endloop
 endfacet
 facet normal 0.000000 -0.819172 0.573548
  outer loop
   vertex -150.943253 50.618790 263.676178
   vertex -151.293243 50.618790 263.676178
   vertex -151.360229 50.475395 263.471375
  endloop
 endfacet
 facet normal -0.707134 0.405579 0.579196
  outer loop
   vertex -151.543243 50.370422 263.321472
   vertex -151.360229 50.884972 263.184601
   vertex -151.543243 50.779999 263.034668
  endloop
 endfacet
 facet normal -0.258811 0.554054 0.791228
  outer loop
   vertex -151.543243 50.370422 263.321472
   vertex -151.543243 50.779999 263.034668
   vertex -151.793243 50.332001 263.266602
  endloop
 endfacet
 facet normal -0.258811 0.554054 0.791228
  outer loop
   vertex -151.793243 50.332001 263.266602
   vertex -151.543243 50.779999 263.034668
   vertex -151.793243 50.741577 262.979797
  endloop
 endfacet
 facet normal 0.258811 0.554054 0.791228
  outer loop
   vertex -151.793243 50.741577 262.979797
   vertex -152.043243 50.370422 263.321472
   vertex -151.793243 50.332001 263.266602
  endloop
 endfacet
 facet normal 0.258811 0.554054 0.791228
  outer loop
   vertex -152.043243 50.779999 263.034668
   vertex -152.043243 50.370422 263.321472
   vertex -151.793243 50.741577 262.979797
  endloop
 endfacet
 facet normal 0.707085 0.405607 0.579235
  outer loop
   vertex -152.226257 50.475395 263.471375
   vertex -152.043243 50.370422 263.321472
   vertex -152.043243 50.779999 263.034668
  endloop
 endfacet
 facet normal 0.707134 0.405550 0.579216
  outer loop
   vertex -152.043243 50.779999 263.034668
   vertex -152.226257 50.884972 263.184601
   vertex -152.226257 50.475395 263.471375
  endloop
 endfacet
 facet normal 0.965930 0.148438 0.212002
  outer loop
   vertex -152.226257 50.475395 263.471375
   vertex -152.226257 50.884972 263.184601
   vertex -152.293243 50.618790 263.676178
  endloop
 endfacet
 facet normal -0.965923 0.148464 0.212017
  outer loop
   vertex -126.871117 50.618790 263.676178
   vertex -126.871117 51.028366 263.389374
   vertex -126.938110 50.475395 263.471375
  endloop
 endfacet
 facet normal -0.965916 0.148467 0.212044
  outer loop
   vertex -126.938110 50.475395 263.471375
   vertex -126.871117 51.028366 263.389374
   vertex -126.938110 50.884972 263.184601
  endloop
 endfacet
 facet normal -0.707100 0.405570 0.579243
  outer loop
   vertex -126.938110 50.884972 263.184601
   vertex -127.121117 50.370422 263.321472
   vertex -126.938110 50.475395 263.471375
  endloop
 endfacet
 facet normal -0.707148 0.405571 0.579184
  outer loop
   vertex -127.121117 50.779999 263.034668
   vertex -127.121117 50.370422 263.321472
   vertex -126.938110 50.884972 263.184601
  endloop
 endfacet
 facet normal -0.258811 0.554054 0.791228
  outer loop
   vertex -127.371117 50.332001 263.266602
   vertex -127.121117 50.370422 263.321472
   vertex -127.121117 50.779999 263.034668
  endloop
 endfacet
 facet normal -0.258811 0.554054 0.791228
  outer loop
   vertex -127.121117 50.779999 263.034668
   vertex -127.371117 50.741577 262.979797
   vertex -127.371117 50.332001 263.266602
  endloop
 endfacet
 facet normal 0.258811 0.554054 0.791228
  outer loop
   vertex -127.371117 50.332001 263.266602
   vertex -127.371117 50.741577 262.979797
   vertex -127.621117 50.370422 263.321472
  endloop
 endfacet
 facet normal 0.258811 0.554054 0.791228
  outer loop
   vertex -127.621117 50.370422 263.321472
   vertex -127.371117 50.741577 262.979797
   vertex -127.621117 50.779999 263.034668
  endloop
 endfacet
 facet normal 0.707085 0.405607 0.579235
  outer loop
   vertex -127.621117 50.779999 263.034668
   vertex -127.804131 50.475395 263.471375
   vertex -127.621117 50.370422 263.321472
  endloop
 endfacet
 facet normal 0.965928 0.148454 0.212003
  outer loop
   vertex -150.943253 50.618790 263.676178
   vertex -150.943253 51.028366 263.389374
   vertex -151.057129 50.862560 264.024323
  endloop
 endfacet
 facet normal 0.965927 0.148456 0.212003
  outer loop
   vertex -151.057129 50.862560 264.024323
   vertex -150.943253 51.028366 263.389374
   vertex -151.057129 51.272133 263.737518
  endloop
 endfacet
 facet normal 0.707115 0.405593 0.579209
  outer loop
   vertex -151.057129 51.272133 263.737518
   vertex -151.368240 51.041012 264.279175
   vertex -151.057129 50.862560 264.024323
  endloop
 endfacet
 facet normal 0.707117 0.405589 0.579209
  outer loop
   vertex -151.368240 51.450588 263.992371
   vertex -151.368240 51.041012 264.279175
   vertex -151.057129 51.272133 263.737518
  endloop
 endfacet
 facet normal 0.258776 0.554059 0.791235
  outer loop
   vertex -151.793243 51.106327 264.372437
   vertex -151.368240 51.041012 264.279175
   vertex -151.368240 51.450588 263.992371
  endloop
 endfacet
 facet normal 0.258829 0.554012 0.791251
  outer loop
   vertex -151.368240 51.450588 263.992371
   vertex -151.793243 51.515903 264.085663
   vertex -151.793243 51.106327 264.372437
  endloop
 endfacet
 facet normal -0.258776 0.554020 0.791263
  outer loop
   vertex -151.793243 51.106327 264.372437
   vertex -151.793243 51.515903 264.085663
   vertex -152.218246 51.041012 264.279175
  endloop
 endfacet
 facet normal -0.258829 0.554051 0.791224
  outer loop
   vertex -152.218246 51.041012 264.279175
   vertex -151.793243 51.515903 264.085663
   vertex -152.218246 51.450588 263.992371
  endloop
 endfacet
 facet normal -0.707097 0.405600 0.579225
  outer loop
   vertex -152.218246 51.450588 263.992371
   vertex -152.529373 50.862560 264.024323
   vertex -152.218246 51.041012 264.279175
  endloop
 endfacet
 facet normal -0.707100 0.405601 0.579221
  outer loop
   vertex -152.529373 51.272133 263.737518
   vertex -152.529373 50.862560 264.024323
   vertex -152.218246 51.450588 263.992371
  endloop
 endfacet
 facet normal -0.965928 0.148455 0.212002
  outer loop
   vertex -152.643250 50.618790 263.676178
   vertex -152.529373 50.862560 264.024323
   vertex -152.529373 51.272133 263.737518
  endloop
 endfacet
 facet normal -0.965927 0.148455 0.212004
  outer loop
   vertex -152.529373 51.272133 263.737518
   vertex -152.643250 51.028366 263.389374
   vertex -152.643250 50.618790 263.676178
  endloop
 endfacet
 facet normal 0.965928 0.148454 0.212003
  outer loop
   vertex -126.521118 50.618790 263.676178
   vertex -126.521118 51.028366 263.389374
   vertex -126.634995 50.862560 264.024323
  endloop
 endfacet
 facet normal 0.965928 0.148454 0.212003
  outer loop
   vertex -126.634995 50.862560 264.024323
   vertex -126.521118 51.028366 263.389374
   vertex -126.634995 51.272137 263.737518
  endloop
 endfacet
 facet normal 0.707097 0.405600 0.579225
  outer loop
   vertex -126.634995 51.272137 263.737518
   vertex -126.946121 51.041012 264.279175
   vertex -126.634995 50.862560 264.024323
  endloop
 endfacet
 facet normal 0.707097 0.405600 0.579225
  outer loop
   vertex -126.946121 51.450588 263.992371
   vertex -126.946121 51.041012 264.279175
   vertex -126.634995 51.272137 263.737518
  endloop
 endfacet
 facet normal 0.258780 0.554059 0.791234
  outer loop
   vertex -127.371117 51.106327 264.372437
   vertex -126.946121 51.041012 264.279175
   vertex -126.946121 51.450588 263.992371
  endloop
 endfacet
 facet normal 0.258833 0.554011 0.791250
  outer loop
   vertex -126.946121 51.450588 263.992371
   vertex -127.371117 51.515903 264.085663
   vertex -127.371117 51.106327 264.372437
  endloop
 endfacet
 facet normal -0.258776 0.554020 0.791263
  outer loop
   vertex -127.371117 51.106327 264.372437
   vertex -127.371117 51.515903 264.085663
   vertex -127.796120 51.041012 264.279175
  endloop
 endfacet
 facet normal -0.258829 0.554051 0.791224
  outer loop
   vertex -127.796120 51.041012 264.279175
   vertex -127.371117 51.515903 264.085663
   vertex -127.796120 51.450588 263.992371
  endloop
 endfacet
 facet normal -0.707106 0.405595 0.579218
  outer loop
   vertex -127.796120 51.450588 263.992371
   vertex -128.107239 50.862560 264.024323
   vertex -127.796120 51.041012 264.279175
  endloop
 endfacet
 facet normal -0.707106 0.405595 0.579218
  outer loop
   vertex -128.107239 51.272137 263.737518
   vertex -128.107239 50.862560 264.024323
   vertex -127.796120 51.450588 263.992371
  endloop
 endfacet
 facet normal -0.965928 0.148454 0.212003
  outer loop
   vertex -128.221115 50.618790 263.676178
   vertex -128.107239 50.862560 264.024323
   vertex -128.107239 51.272137 263.737518
  endloop
 endfacet
 facet normal -0.965928 0.148454 0.212003
  outer loop
   vertex -128.107239 51.272137 263.737518
   vertex -128.221115 51.028366 263.389374
   vertex -128.221115 50.618790 263.676178
  endloop
 endfacet
 facet normal 0.707134 0.405550 0.579216
  outer loop
   vertex -127.621117 50.779999 263.034668
   vertex -127.804131 50.884972 263.184601
   vertex -127.804131 50.475395 263.471375
  endloop
 endfacet
 facet normal 0.965924 0.148452 0.212022
  outer loop
   vertex -127.804131 50.475395 263.471375
   vertex -127.804131 50.884972 263.184601
   vertex -127.871117 51.028366 263.389374
  endloop
 endfacet
 facet normal 0.965930 0.148448 0.211995
  outer loop
   vertex -127.871117 51.028366 263.389374
   vertex -127.871117 50.618790 263.676178
   vertex -127.804131 50.475395 263.471375
  endloop
 endfacet
 facet normal 0.965930 -0.148448 -0.211995
  outer loop
   vertex -127.804131 51.171761 263.594177
   vertex -127.871117 50.618790 263.676178
   vertex -127.871117 51.028366 263.389374
  endloop
 endfacet
 facet normal 0.965924 -0.148452 -0.212022
  outer loop
   vertex -127.804131 50.762184 263.880951
   vertex -127.871117 50.618790 263.676178
   vertex -127.804131 51.171761 263.594177
  endloop
 endfacet
 facet normal 0.707081 -0.405581 -0.579259
  outer loop
   vertex -127.804131 51.171761 263.594177
   vertex -127.621117 51.276730 263.744080
   vertex -127.804131 50.762184 263.880951
  endloop
 endfacet
 facet normal 0.707129 -0.405582 -0.579199
  outer loop
   vertex -127.804131 50.762184 263.880951
   vertex -127.621117 51.276730 263.744080
   vertex -127.621117 50.867153 264.030884
  endloop
 endfacet
 facet normal 0.258811 -0.554054 -0.791228
  outer loop
   vertex -127.621117 50.867153 264.030884
   vertex -127.621117 51.276730 263.744080
   vertex -127.371117 51.315151 263.798950
  endloop
 endfacet
 facet normal 0.258811 -0.554054 -0.791228
  outer loop
   vertex -127.371117 51.315151 263.798950
   vertex -127.371117 50.905575 264.085754
   vertex -127.621117 50.867153 264.030884
  endloop
 endfacet
 facet normal -0.258811 -0.554054 -0.791228
  outer loop
   vertex -127.121117 51.276730 263.744080
   vertex -127.371117 50.905575 264.085754
   vertex -127.371117 51.315151 263.798950
  endloop
 endfacet
 facet normal -0.258811 -0.554054 -0.791228
  outer loop
   vertex -127.121117 50.867153 264.030884
   vertex -127.371117 50.905575 264.085754
   vertex -127.121117 51.276730 263.744080
  endloop
 endfacet
 facet normal -0.707096 -0.405601 -0.579227
  outer loop
   vertex -127.121117 51.276730 263.744080
   vertex -126.938110 51.171761 263.594177
   vertex -127.121117 50.867153 264.030884
  endloop
 endfacet
 facet normal -0.707144 -0.405544 -0.579207
  outer loop
   vertex -127.121117 50.867153 264.030884
   vertex -126.938110 51.171761 263.594177
   vertex -126.938110 50.762184 263.880951
  endloop
 endfacet
 facet normal -0.965923 -0.148453 -0.212025
  outer loop
   vertex -126.938110 50.762184 263.880951
   vertex -126.938110 51.171761 263.594177
   vertex -126.871117 51.028366 263.389374
  endloop
 endfacet
 facet normal -0.965916 -0.148478 -0.212037
  outer loop
   vertex -126.871117 51.028366 263.389374
   vertex -126.871117 50.618790 263.676178
   vertex -126.938110 50.762184 263.880951
  endloop
 endfacet
 facet normal -0.707085 0.405578 0.579255
  outer loop
   vertex -151.543243 50.370422 263.321472
   vertex -151.360229 50.475395 263.471375
   vertex -151.360229 50.884972 263.184601
  endloop
 endfacet
 facet normal -0.965930 0.148438 0.212002
  outer loop
   vertex -151.360229 50.884972 263.184601
   vertex -151.360229 50.475395 263.471375
   vertex -151.293243 50.618790 263.676178
  endloop
 endfacet
 facet normal -0.965924 0.148462 0.212014
  outer loop
   vertex -151.293243 50.618790 263.676178
   vertex -151.293243 51.028366 263.389374
   vertex -151.360229 50.884972 263.184601
  endloop
 endfacet
 facet normal -0.965924 -0.148462 -0.212014
  outer loop
   vertex -151.360229 50.762184 263.880951
   vertex -151.293243 51.028366 263.389374
   vertex -151.293243 50.618790 263.676178
  endloop
 endfacet
 facet normal -0.965930 -0.148440 -0.212003
  outer loop
   vertex -151.360229 51.171757 263.594177
   vertex -151.293243 51.028366 263.389374
   vertex -151.360229 50.762184 263.880951
  endloop
 endfacet
 facet normal -0.707129 -0.405555 -0.579218
  outer loop
   vertex -151.360229 50.762184 263.880951
   vertex -151.543243 50.867153 264.030884
   vertex -151.360229 51.171757 263.594177
  endloop
 endfacet
 facet normal -0.707085 -0.405607 -0.579235
  outer loop
   vertex -151.360229 51.171757 263.594177
   vertex -151.543243 50.867153 264.030884
   vertex -151.543243 51.276730 263.744080
  endloop
 endfacet
 facet normal -0.258811 -0.554054 -0.791228
  outer loop
   vertex -151.543243 51.276730 263.744080
   vertex -151.543243 50.867153 264.030884
   vertex -151.793243 50.905575 264.085754
  endloop
 endfacet
 facet normal -0.258811 -0.554054 -0.791228
  outer loop
   vertex -151.793243 50.905575 264.085754
   vertex -151.793243 51.315151 263.798950
   vertex -151.543243 51.276730 263.744080
  endloop
 endfacet
 facet normal 0.258811 -0.554054 -0.791228
  outer loop
   vertex -152.043243 50.867153 264.030884
   vertex -151.793243 51.315151 263.798950
   vertex -151.793243 50.905575 264.085754
  endloop
 endfacet
 facet normal 0.258811 -0.554054 -0.791228
  outer loop
   vertex -152.043243 51.276730 263.744080
   vertex -151.793243 51.315151 263.798950
   vertex -152.043243 50.867153 264.030884
  endloop
 endfacet
 facet normal 0.707129 -0.405582 -0.579199
  outer loop
   vertex -152.043243 50.867153 264.030884
   vertex -152.226257 50.762184 263.880951
   vertex -152.043243 51.276730 263.744080
  endloop
 endfacet
 facet normal 0.707085 -0.405581 -0.579254
  outer loop
   vertex -152.043243 51.276730 263.744080
   vertex -152.226257 50.762184 263.880951
   vertex -152.226257 51.171757 263.594177
  endloop
 endfacet
 facet normal 0.965924 -0.148452 -0.212021
  outer loop
   vertex -152.226257 51.171757 263.594177
   vertex -152.226257 50.762184 263.880951
   vertex -152.293243 50.618790 263.676178
  endloop
 endfacet
 facet normal 0.965930 -0.148450 -0.211996
  outer loop
   vertex -152.293243 50.618790 263.676178
   vertex -152.293243 51.028366 263.389374
   vertex -152.226257 51.171757 263.594177
  endloop
 endfacet
 facet normal 0.965924 0.148462 0.212014
  outer loop
   vertex -152.226257 50.884972 263.184601
   vertex -152.293243 51.028366 263.389374
   vertex -152.293243 50.618790 263.676178
  endloop
 endfacet
endsolid