solid stl file generated from DOUG
 facet normal -0.866033 0.274131 -0.418138
  outer loop
   vertex -167.257767 -75.012665 141.774567
   vertex -167.257767 -74.593536 142.049347
   vertex -167.132477 -74.893677 141.593079
  endloop
 endfacet
 facet normal -0.866033 0.274131 -0.418138
  outer loop
   vertex -167.132477 -74.893677 141.593079
   vertex -167.257767 -74.593536 142.049347
   vertex -167.132477 -74.474548 141.867859
  endloop
 endfacet
 facet normal 0.000000 0.548276 -0.836297
  outer loop
   vertex -167.132477 -74.474548 141.867859
   vertex -166.881897 -74.893677 141.593079
   vertex -167.132477 -74.893677 141.593079
  endloop
 endfacet
 facet normal -0.000000 0.548276 -0.836297
  outer loop
   vertex -166.881897 -74.474548 141.867859
   vertex -166.881897 -74.893677 141.593079
   vertex -167.132477 -74.474548 141.867859
  endloop
 endfacet
 facet normal 0.866033 0.274131 -0.418138
  outer loop
   vertex -166.756607 -75.012665 141.774567
   vertex -166.881897 -74.893677 141.593079
   vertex -166.881897 -74.474548 141.867859
  endloop
 endfacet
 facet normal 0.866033 0.274131 -0.418138
  outer loop
   vertex -166.881897 -74.474548 141.867859
   vertex -166.756607 -74.593536 142.049347
   vertex -166.756607 -75.012665 141.774567
  endloop
 endfacet
 facet normal 0.866020 -0.274143 0.418156
  outer loop
   vertex -166.756607 -75.012665 141.774567
   vertex -166.756607 -74.593536 142.049347
   vertex -166.881897 -75.131653 141.956039
  endloop
 endfacet
 facet normal 0.866033 -0.274141 0.418131
  outer loop
   vertex -166.881897 -75.131653 141.956039
   vertex -166.756607 -74.593536 142.049347
   vertex -166.881897 -74.712524 142.230835
  endloop
 endfacet
 facet normal 0.000000 -0.548297 0.836284
  outer loop
   vertex -166.881897 -74.712524 142.230835
   vertex -167.132477 -75.131653 141.956039
   vertex -166.881897 -75.131653 141.956039
  endloop
 endfacet
 facet normal -0.000000 -0.548297 0.836284
  outer loop
   vertex -167.132477 -74.712524 142.230835
   vertex -167.132477 -75.131653 141.956039
   vertex -166.881897 -74.712524 142.230835
  endloop
 endfacet
 facet normal -0.866020 -0.274153 0.418149
  outer loop
   vertex -167.257767 -75.012665 141.774567
   vertex -167.132477 -75.131653 141.956039
   vertex -167.132477 -74.712524 142.230835
  endloop
 endfacet
 facet normal -0.866033 -0.274131 0.418138
  outer loop
   vertex -167.132477 -74.712524 142.230835
   vertex -167.257767 -74.593536 142.049347
   vertex -167.257767 -75.012665 141.774567
  endloop
 endfacet
 facet normal 0.866033 0.274131 -0.418138
  outer loop
   vertex -178.906662 -74.593536 142.049347
   vertex -178.906662 -75.012665 141.774567
   vertex -179.031952 -74.474548 141.867859
  endloop
 endfacet
 facet normal 0.866033 0.274131 -0.418138
  outer loop
   vertex -179.031952 -74.474548 141.867859
   vertex -178.906662 -75.012665 141.774567
   vertex -179.031952 -74.893677 141.593079
  endloop
 endfacet
 facet normal 0.000000 0.548276 -0.836297
  outer loop
   vertex -179.031952 -74.893677 141.593079
   vertex -179.282532 -74.474548 141.867859
   vertex -179.031952 -74.474548 141.867859
  endloop
 endfacet
 facet normal -0.000000 0.548276 -0.836297
  outer loop
   vertex -179.282532 -74.893677 141.593079
   vertex -179.282532 -74.474548 141.867859
   vertex -179.031952 -74.893677 141.593079
  endloop
 endfacet
 facet normal -0.866007 0.274156 -0.418176
  outer loop
   vertex -179.407837 -74.593536 142.049347
   vertex -179.282532 -74.474548 141.867859
   vertex -179.282532 -74.893677 141.593079
  endloop
 endfacet
 facet normal -0.866007 0.274156 -0.418176
  outer loop
   vertex -179.282532 -74.893677 141.593079
   vertex -179.407837 -75.012665 141.774567
   vertex -179.407837 -74.593536 142.049347
  endloop
 endfacet
 facet normal -0.866007 -0.274156 0.418176
  outer loop
   vertex -179.407837 -74.593536 142.049347
   vertex -179.407837 -75.012665 141.774567
   vertex -179.282532 -74.712524 142.230835
  endloop
 endfacet
 facet normal -0.866007 -0.274156 0.418176
  outer loop
   vertex -179.282532 -74.712524 142.230835
   vertex -179.407837 -75.012665 141.774567
   vertex -179.282532 -75.131653 141.956055
  endloop
 endfacet
 facet normal 0.000000 -0.548276 0.836297
  outer loop
   vertex -179.282532 -75.131653 141.956055
   vertex -179.031952 -74.712524 142.230835
   vertex -179.282532 -74.712524 142.230835
  endloop
 endfacet
 facet normal -0.000000 -0.548276 0.836297
  outer loop
   vertex -179.031952 -75.131653 141.956055
   vertex -179.031952 -74.712524 142.230835
   vertex -179.282532 -75.131653 141.956055
  endloop
 endfacet
 facet normal 0.866033 -0.274131 0.418138
  outer loop
   vertex -178.906662 -74.593536 142.049347
   vertex -179.031952 -74.712524 142.230835
   vertex -179.031952 -75.131653 141.956055
  endloop
 endfacet
 facet normal 0.866033 -0.274131 0.418138
  outer loop
   vertex -179.031952 -75.131653 141.956055
   vertex -178.906662 -75.012665 141.774567
   vertex -178.906662 -74.593536 142.049347
  endloop
 endfacet
 facet normal -0.000000 -0.836288 -0.548291
  outer loop
   vertex -179.282532 -74.893677 141.593079
   vertex -179.031952 -74.893677 141.593079
   vertex -179.157242 -75.012665 141.774567
  endloop
 endfacet
 facet normal -0.000000 -0.836288 -0.548291
  outer loop
   vertex -179.157242 -75.012665 141.774567
   vertex -179.031952 -74.893677 141.593079
   vertex -178.906662 -75.012665 141.774567
  endloop
 endfacet
 facet normal 0.000000 -0.836288 -0.548291
  outer loop
   vertex -178.906662 -75.012665 141.774567
   vertex -179.031952 -75.131653 141.956055
   vertex -179.157242 -75.012665 141.774567
  endloop
 endfacet
 facet normal 0.000000 -0.836267 -0.548323
  outer loop
   vertex -167.132477 -75.131653 141.956039
   vertex -167.257767 -75.012665 141.774567
   vertex -167.007187 -75.012665 141.774567
  endloop
 endfacet
 facet normal 0.000000 -0.836288 -0.548291
  outer loop
   vertex -167.007187 -75.012665 141.774567
   vertex -167.257767 -75.012665 141.774567
   vertex -167.132477 -74.893677 141.593079
  endloop
 endfacet
 facet normal -0.000000 -0.836288 -0.548291
  outer loop
   vertex -167.132477 -74.893677 141.593079
   vertex -166.881897 -74.893677 141.593079
   vertex -167.007187 -75.012665 141.774567
  endloop
 endfacet
 facet normal -0.000000 -0.836288 -0.548291
  outer loop
   vertex -166.881897 -74.893677 141.593079
   vertex -166.756607 -75.012665 141.774567
   vertex -167.007187 -75.012665 141.774567
  endloop
 endfacet
 facet normal -0.000000 -0.836267 -0.548323
  outer loop
   vertex -167.007187 -75.012665 141.774567
   vertex -166.756607 -75.012665 141.774567
   vertex -166.881897 -75.131653 141.956039
  endloop
 endfacet
 facet normal 0.000000 -0.836267 -0.548323
  outer loop
   vertex -166.881897 -75.131653 141.956039
   vertex -167.132477 -75.131653 141.956039
   vertex -167.007187 -75.012665 141.774567
  endloop
 endfacet
 facet normal 0.000000 -0.836288 -0.548291
  outer loop
   vertex -179.031952 -75.131653 141.956055
   vertex -179.282532 -75.131653 141.956055
   vertex -179.157242 -75.012665 141.774567
  endloop
 endfacet
 facet normal -0.000000 -0.836288 -0.548291
  outer loop
   vertex -179.157242 -75.012665 141.774567
   vertex -179.282532 -75.131653 141.956055
   vertex -179.407837 -75.012665 141.774567
  endloop
 endfacet
 facet normal 0.000000 -0.836288 -0.548291
  outer loop
   vertex -179.407837 -75.012665 141.774567
   vertex -179.282532 -74.893677 141.593079
   vertex -179.157242 -75.012665 141.774567
  endloop
 endfacet
 facet normal 0.000000 -0.836286 -0.548293
  outer loop
   vertex -168.463791 -73.653740 143.412979
   vertex -168.463791 -72.968269 142.367462
   vertex -165.472382 -73.653740 143.412979
  endloop
 endfacet
 facet normal -0.000003 -0.836290 -0.548287
  outer loop
   vertex -165.472382 -73.653740 143.412979
   vertex -168.463791 -72.968269 142.367462
   vertex -165.472382 -72.968269 142.367447
  endloop
 endfacet
 facet normal 1.000000 0.000000 0.000000
  outer loop
   vertex -165.472382 -72.968269 142.367447
   vertex -165.472382 -72.492485 144.174332
   vertex -165.472382 -73.653740 143.412979
  endloop
 endfacet
 facet normal 1.000000 -0.000000 0.000000
  outer loop
   vertex -165.472382 -71.807014 143.128799
   vertex -165.472382 -72.492485 144.174332
   vertex -165.472382 -72.968269 142.367447
  endloop
 endfacet
 facet normal 0.000000 0.836290 0.548287
  outer loop
   vertex -168.463791 -71.807014 143.128799
   vertex -165.472382 -72.492485 144.174332
   vertex -165.472382 -71.807014 143.128799
  endloop
 endfacet
 facet normal -0.000000 0.548286 -0.836291
  outer loop
   vertex -165.472382 -71.807014 143.128799
   vertex -168.463791 -72.968269 142.367462
   vertex -168.463791 -71.807014 143.128799
  endloop
 endfacet
 facet normal -1.000000 0.000000 0.000000
  outer loop
   vertex -168.463791 -71.807014 143.128799
   vertex -168.463791 -72.968269 142.367462
   vertex -168.463791 -72.492485 144.174332
  endloop
 endfacet
 facet normal -1.000000 -0.000000 0.000000
  outer loop
   vertex -168.463791 -72.492485 144.174332
   vertex -168.463791 -72.968269 142.367462
   vertex -168.463791 -73.653740 143.412979
  endloop
 endfacet
 facet normal 0.000000 -0.548293 0.836286
  outer loop
   vertex -168.463791 -73.653740 143.412979
   vertex -165.472382 -72.492485 144.174332
   vertex -168.463791 -72.492485 144.174332
  endloop
 endfacet
 facet normal -0.000000 -0.548293 0.836286
  outer loop
   vertex -165.472382 -73.653740 143.412979
   vertex -165.472382 -72.492485 144.174332
   vertex -168.463791 -73.653740 143.412979
  endloop
 endfacet
 facet normal -1.000000 0.000000 0.000000
  outer loop
   vertex -180.692047 -72.492485 144.174332
   vertex -180.692047 -71.807014 143.128815
   vertex -180.692047 -73.653740 143.412979
  endloop
 endfacet
 facet normal -1.000000 -0.000000 -0.000000
  outer loop
   vertex -180.692047 -73.653740 143.412979
   vertex -180.692047 -71.807014 143.128815
   vertex -180.692047 -72.968269 142.367462
  endloop
 endfacet
 facet normal -0.000000 -0.836286 -0.548293
  outer loop
   vertex -180.692047 -72.968269 142.367462
   vertex -177.700638 -73.653740 143.412979
   vertex -180.692047 -73.653740 143.412979
  endloop
 endfacet
 facet normal -0.000000 -0.836286 -0.548293
  outer loop
   vertex -177.700638 -72.968269 142.367462
   vertex -177.700638 -73.653740 143.412979
   vertex -180.692047 -72.968269 142.367462
  endloop
 endfacet
 facet normal 1.000000 0.000000 0.000000
  outer loop
   vertex -177.700638 -71.807014 143.128799
   vertex -177.700638 -73.653740 143.412979
   vertex -177.700638 -72.968269 142.367462
  endloop
 endfacet
 facet normal -0.000004 0.548286 -0.836291
  outer loop
   vertex -177.700638 -72.968269 142.367462
   vertex -180.692047 -71.807014 143.128815
   vertex -177.700638 -71.807014 143.128799
  endloop
 endfacet
 facet normal 0.000003 0.836290 0.548287
  outer loop
   vertex -177.700638 -71.807014 143.128799
   vertex -180.692047 -71.807014 143.128815
   vertex -177.700638 -72.492485 144.174332
  endloop
 endfacet
 facet normal -0.000000 0.836286 0.548293
  outer loop
   vertex -177.700638 -72.492485 144.174332
   vertex -180.692047 -71.807014 143.128815
   vertex -180.692047 -72.492485 144.174332
  endloop
 endfacet
 facet normal 0.000000 -0.548293 0.836286
  outer loop
   vertex -180.692047 -72.492485 144.174332
   vertex -177.700638 -73.653740 143.412979
   vertex -177.700638 -72.492485 144.174332
  endloop
 endfacet
 facet normal -0.000000 -0.548293 0.836286
  outer loop
   vertex -180.692047 -73.653740 143.412979
   vertex -177.700638 -73.653740 143.412979
   vertex -180.692047 -72.492485 144.174332
  endloop
 endfacet
 facet normal 0.000000 0.548293 -0.836286
  outer loop
   vertex -177.700638 -72.968269 142.367462
   vertex -180.692047 -72.968269 142.367462
   vertex -180.692047 -71.807014 143.128815
  endloop
 endfacet
 facet normal -0.000004 0.548293 -0.836286
  outer loop
   vertex -165.472382 -72.968269 142.367447
   vertex -168.463791 -72.968269 142.367462
   vertex -165.472382 -71.807014 143.128799
  endloop
 endfacet
 facet normal 1.000000 0.000000 0.000000
  outer loop
   vertex -177.700638 -71.807014 143.128799
   vertex -177.700638 -72.492485 144.174332
   vertex -177.700638 -73.653740 143.412979
  endloop
 endfacet
 facet normal -0.000000 0.836290 0.548287
  outer loop
   vertex -168.463791 -71.807014 143.128799
   vertex -168.463791 -72.492485 144.174332
   vertex -165.472382 -72.492485 144.174332
  endloop
 endfacet
 facet normal 0.000000 -0.836277 -0.548307
  outer loop
   vertex -168.082214 -76.057800 142.028000
   vertex -178.082214 -75.997704 141.936340
   vertex -168.082214 -75.997704 141.936340
  endloop
 endfacet
 facet normal 0.000000 -0.055455 -0.998461
  outer loop
   vertex -168.082214 -75.997704 141.936340
   vertex -178.082214 -75.997704 141.936340
   vertex -168.082214 -75.852646 141.928284
  endloop
 endfacet
 facet normal 0.000000 -0.076480 -0.997071
  outer loop
   vertex -177.170532 -75.256096 140.697296
   vertex -178.329239 -75.151459 140.689270
   vertex -177.170532 -75.151459 140.689270
  endloop
 endfacet
 facet normal -0.000000 0.548291 -0.836288
  outer loop
   vertex -177.170532 -75.151459 140.689270
   vertex -178.329239 -75.151459 140.689270
   vertex -178.329239 -74.447617 141.150726
  endloop
 endfacet
 facet normal 0.000000 -0.548291 0.836288
  outer loop
   vertex -167.835190 -75.359436 142.541489
   vertex -168.993896 -76.063278 142.080032
   vertex -167.835190 -76.063278 142.080032
  endloop
 endfacet
 facet normal -0.000000 -0.944842 0.327525
  outer loop
   vertex -167.835190 -76.063278 142.080032
   vertex -168.993896 -76.063278 142.080032
   vertex -168.993896 -76.097649 141.980881
  endloop
 endfacet
 facet normal 0.000000 -0.937754 0.347299
  outer loop
   vertex -178.082214 -75.206635 140.942947
   vertex -178.082214 -75.257088 140.806717
   vertex -168.082214 -75.257088 140.806717
  endloop
 endfacet
 facet normal 0.000000 -0.836319 -0.548243
  outer loop
   vertex -168.082214 -75.257088 140.806717
   vertex -178.082214 -75.257088 140.806717
   vertex -168.082214 -75.196991 140.715042
  endloop
 endfacet
 facet normal -0.000000 -0.977308 -0.211821
  outer loop
   vertex -178.082214 -75.396545 142.421463
   vertex -168.082214 -75.396545 142.421463
   vertex -178.082214 -75.404152 142.456558
  endloop
 endfacet
 facet normal -0.000000 -0.977308 -0.211821
  outer loop
   vertex -178.082214 -75.404152 142.456558
   vertex -168.082214 -75.396545 142.421463
   vertex -168.082214 -75.404152 142.456558
  endloop
 endfacet
 facet normal 0.000000 -0.548201 0.836347
  outer loop
   vertex -168.082214 -75.404152 142.456558
   vertex -178.082214 -75.345093 142.495270
   vertex -178.082214 -75.404152 142.456558
  endloop
 endfacet
 facet normal -1.000000 0.000000 0.000000
  outer loop
   vertex -178.329239 -76.063278 142.080032
   vertex -178.329239 -75.919891 141.889755
   vertex -178.329239 -76.097649 141.980881
  endloop
 endfacet
 facet normal -1.000000 -0.000000 -0.000000
  outer loop
   vertex -178.329239 -76.097649 141.980881
   vertex -178.329239 -75.919891 141.889755
   vertex -178.329239 -76.010490 141.847946
  endloop
 endfacet
 facet normal -0.000000 -0.836279 -0.548304
  outer loop
   vertex -178.329239 -76.010490 141.847946
   vertex -177.170532 -76.097649 141.980881
   vertex -178.329239 -76.097649 141.980881
  endloop
 endfacet
 facet normal 1.000000 0.000000 0.000000
  outer loop
   vertex -167.835190 -75.151459 140.689270
   vertex -167.835190 -75.268784 140.896637
   vertex -167.835190 -75.256096 140.697296
  endloop
 endfacet
 facet normal 1.000000 -0.000000 0.000000
  outer loop
   vertex -167.835190 -75.256096 140.697296
   vertex -167.835190 -75.268784 140.896637
   vertex -167.835190 -75.343254 140.830231
  endloop
 endfacet
 facet normal 0.000000 -0.836279 -0.548304
  outer loop
   vertex -167.835190 -75.343254 140.830231
   vertex -168.993896 -75.256096 140.697296
   vertex -167.835190 -75.256096 140.697296
  endloop
 endfacet
 facet normal 1.000000 0.000000 0.000000
  outer loop
   vertex -177.170532 -75.343254 140.830231
   vertex -177.170532 -75.256096 140.697296
   vertex -177.170532 -75.268784 140.896637
  endloop
 endfacet
 facet normal 1.000000 -0.000000 -0.000000
  outer loop
   vertex -177.170532 -75.268784 140.896637
   vertex -177.170532 -75.256096 140.697296
   vertex -177.170532 -75.151459 140.689270
  endloop
 endfacet
 facet normal 1.000000 0.000000 0.000000
  outer loop
   vertex -177.170532 -75.151459 140.689270
   vertex -177.170532 -74.447617 141.150726
   vertex -177.170532 -75.268784 140.896637
  endloop
 endfacet
 facet normal -0.000000 0.548291 -0.836288
  outer loop
   vertex -178.329239 -74.447617 141.150726
   vertex -177.170532 -74.447617 141.150726
   vertex -177.170532 -75.151459 140.689270
  endloop
 endfacet
 facet normal 0.000000 -0.937754 0.347299
  outer loop
   vertex -168.082214 -75.257088 140.806717
   vertex -168.082214 -75.206635 140.942947
   vertex -178.082214 -75.206635 140.942947
  endloop
 endfacet
 facet normal -0.000000 -0.836287 -0.548291
  outer loop
   vertex -178.082214 -75.206635 140.942947
   vertex -168.082214 -75.206635 140.942947
   vertex -168.082214 -75.852646 141.928284
  endloop
 endfacet
 facet normal 0.000000 -0.836287 -0.548291
  outer loop
   vertex -168.082214 -75.852646 141.928284
   vertex -178.082214 -75.852646 141.928284
   vertex -178.082214 -75.206635 140.942947
  endloop
 endfacet
 facet normal 0.000000 -0.055455 -0.998461
  outer loop
   vertex -178.082214 -75.997704 141.936340
   vertex -178.082214 -75.852646 141.928284
   vertex -168.082214 -75.852646 141.928284
  endloop
 endfacet
 facet normal 0.000000 -0.548291 0.836288
  outer loop
   vertex -167.835190 -75.359436 142.541489
   vertex -168.993896 -75.359436 142.541489
   vertex -168.993896 -76.063278 142.080032
  endloop
 endfacet
 facet normal -1.000000 -0.000000 -0.000000
  outer loop
   vertex -168.993896 -76.063278 142.080032
   vertex -168.993896 -75.359436 142.541489
   vertex -168.993896 -75.919891 141.889755
  endloop
 endfacet
 facet normal -1.000000 0.000000 0.000000
  outer loop
   vertex -168.993896 -75.919891 141.889755
   vertex -168.993896 -76.097649 141.980881
   vertex -168.993896 -76.063278 142.080032
  endloop
 endfacet
 facet normal -1.000000 -0.000000 -0.000000
  outer loop
   vertex -168.993896 -76.010490 141.847946
   vertex -168.993896 -76.097649 141.980881
   vertex -168.993896 -75.919891 141.889755
  endloop
 endfacet
 facet normal -0.000000 0.583868 0.811849
  outer loop
   vertex -168.082214 -75.909630 142.085068
   vertex -178.082214 -75.909630 142.085068
   vertex -168.082214 -75.938782 142.106033
  endloop
 endfacet
 facet normal -0.000000 0.583868 0.811849
  outer loop
   vertex -168.082214 -75.938782 142.106033
   vertex -178.082214 -75.909630 142.085068
   vertex -178.082214 -75.938782 142.106033
  endloop
 endfacet
 facet normal 0.000000 -0.548300 0.836281
  outer loop
   vertex -178.082214 -75.938782 142.106033
   vertex -168.082214 -76.057800 142.028000
   vertex -168.082214 -75.938782 142.106033
  endloop
 endfacet
 facet normal -0.000000 -0.548300 0.836281
  outer loop
   vertex -178.082214 -76.057800 142.028000
   vertex -168.082214 -76.057800 142.028000
   vertex -178.082214 -75.938782 142.106033
  endloop
 endfacet
 facet normal -0.000000 -0.836277 -0.548307
  outer loop
   vertex -178.082214 -75.997704 141.936340
   vertex -168.082214 -76.057800 142.028000
   vertex -178.082214 -76.057800 142.028000
  endloop
 endfacet
 facet normal 0.000000 -0.836285 -0.548295
  outer loop
   vertex -166.433304 -74.916252 142.504364
   vertex -168.081467 -74.304939 141.571960
   vertex -166.433304 -74.304939 141.571960
  endloop
 endfacet
 facet normal -0.000000 0.548297 -0.836283
  outer loop
   vertex -166.433304 -74.304939 141.571960
   vertex -168.081467 -74.304939 141.571960
   vertex -166.433304 -73.016182 142.416916
  endloop
 endfacet
 facet normal 1.000000 0.000000 0.000000
  outer loop
   vertex -166.433304 -73.016182 142.416916
   vertex -166.433304 -73.627487 143.349319
   vertex -166.433304 -74.304939 141.571960
  endloop
 endfacet
 facet normal -0.000000 0.836288 0.548290
  outer loop
   vertex -168.081467 -73.016182 142.416916
   vertex -166.433304 -73.627487 143.349319
   vertex -166.433304 -73.016182 142.416916
  endloop
 endfacet
 facet normal 0.000000 0.836288 0.548290
  outer loop
   vertex -168.081467 -73.627487 143.349319
   vertex -166.433304 -73.627487 143.349319
   vertex -168.081467 -73.016182 142.416916
  endloop
 endfacet
 facet normal -1.000000 -0.000000 -0.000000
  outer loop
   vertex -168.081467 -73.016182 142.416916
   vertex -168.081467 -74.304939 141.571960
   vertex -168.081467 -73.627487 143.349319
  endloop
 endfacet
 facet normal -1.000000 0.000000 0.000000
  outer loop
   vertex -168.081467 -73.627487 143.349319
   vertex -168.081467 -74.304939 141.571960
   vertex -168.081467 -74.916252 142.504364
  endloop
 endfacet
 facet normal -0.000000 -0.836285 -0.548295
  outer loop
   vertex -168.081467 -74.916252 142.504364
   vertex -168.081467 -74.304939 141.571960
   vertex -166.433304 -74.916252 142.504364
  endloop
 endfacet
 facet normal 0.000000 -0.548295 0.836285
  outer loop
   vertex -166.433304 -74.916252 142.504364
   vertex -166.433304 -73.627487 143.349319
   vertex -168.081467 -74.916252 142.504364
  endloop
 endfacet
 facet normal 1.000000 -0.000000 -0.000000
  outer loop
   vertex -166.433304 -74.304939 141.571960
   vertex -166.433304 -73.627487 143.349319
   vertex -166.433304 -74.916252 142.504364
  endloop
 endfacet
 facet normal 0.000000 -0.548288 0.836289
  outer loop
   vertex -179.731125 -74.916252 142.504379
   vertex -178.082962 -74.916252 142.504379
   vertex -179.731125 -73.627487 143.349319
  endloop
 endfacet
 facet normal -0.000000 -0.548288 0.836289
  outer loop
   vertex -179.731125 -73.627487 143.349319
   vertex -178.082962 -74.916252 142.504379
   vertex -178.082962 -73.627487 143.349319
  endloop
 endfacet
 facet normal 0.000000 0.836288 0.548290
  outer loop
   vertex -178.082962 -73.627487 143.349319
   vertex -179.731125 -73.016182 142.416916
   vertex -179.731125 -73.627487 143.349319
  endloop
 endfacet
 facet normal -0.000000 0.836288 0.548290
  outer loop
   vertex -178.082962 -73.016182 142.416916
   vertex -179.731125 -73.016182 142.416916
   vertex -178.082962 -73.627487 143.349319
  endloop
 endfacet
 facet normal 0.000000 0.548297 -0.836283
  outer loop
   vertex -178.082962 -74.304939 141.571960
   vertex -179.731125 -73.016182 142.416916
   vertex -178.082962 -73.016182 142.416916
  endloop
 endfacet
 facet normal 1.000000 -0.000000 -0.000000
  outer loop
   vertex -178.082962 -73.016182 142.416916
   vertex -178.082962 -74.916252 142.504379
   vertex -178.082962 -74.304939 141.571960
  endloop
 endfacet
 facet normal 0.000000 -0.836289 -0.548288
  outer loop
   vertex -178.082962 -74.304939 141.571960
   vertex -178.082962 -74.916252 142.504379
   vertex -179.731125 -74.304939 141.571960
  endloop
 endfacet
 facet normal -0.000000 -0.836289 -0.548288
  outer loop
   vertex -179.731125 -74.304939 141.571960
   vertex -178.082962 -74.916252 142.504379
   vertex -179.731125 -74.916252 142.504379
  endloop
 endfacet
 facet normal -1.000000 -0.000000 0.000000
  outer loop
   vertex -179.731125 -74.916252 142.504379
   vertex -179.731125 -73.016182 142.416916
   vertex -179.731125 -74.304939 141.571960
  endloop
 endfacet
 facet normal -1.000000 -0.000000 -0.000000
  outer loop
   vertex -179.731125 -73.627487 143.349319
   vertex -179.731125 -73.016182 142.416916
   vertex -179.731125 -74.916252 142.504379
  endloop
 endfacet
 facet normal -0.000000 0.836291 0.548286
  outer loop
   vertex -164.993774 -73.959206 142.166290
   vertex -165.343765 -73.959206 142.166290
   vertex -165.343765 -74.233353 142.584442
  endloop
 endfacet
 facet normal -0.000018 -0.836291 -0.548286
  outer loop
   vertex -165.343765 -74.233353 142.584442
   vertex -165.343765 -73.959206 142.166290
   vertex -165.168777 -74.096283 142.375366
  endloop
 endfacet
 facet normal -0.000000 -0.836298 -0.548275
  outer loop
   vertex -165.168777 -74.096283 142.375366
   vertex -164.993774 -74.233353 142.584442
   vertex -165.343765 -74.233353 142.584442
  endloop
 endfacet
 facet normal 0.000018 -0.836291 -0.548286
  outer loop
   vertex -164.993774 -73.959206 142.166290
   vertex -164.993774 -74.233353 142.584442
   vertex -165.168777 -74.096283 142.375366
  endloop
 endfacet
 facet normal 1.000000 -0.000000 0.000000
  outer loop
   vertex -164.993774 -73.397064 143.132736
   vertex -164.993774 -74.233353 142.584442
   vertex -164.993774 -73.959206 142.166290
  endloop
 endfacet
 facet normal 1.000000 0.000000 -0.000000
  outer loop
   vertex -164.993774 -73.959206 142.166290
   vertex -164.993774 -73.122925 142.714584
   vertex -164.993774 -73.397064 143.132736
  endloop
 endfacet
 facet normal 0.000000 0.836298 0.548275
  outer loop
   vertex -164.993774 -73.397064 143.132736
   vertex -164.993774 -73.122925 142.714584
   vertex -166.693771 -73.397064 143.132736
  endloop
 endfacet
 facet normal 0.000000 0.836298 0.548275
  outer loop
   vertex -166.693771 -73.397064 143.132736
   vertex -164.993774 -73.122925 142.714584
   vertex -166.693771 -73.122925 142.714584
  endloop
 endfacet
 facet normal -1.000000 0.000000 0.000000
  outer loop
   vertex -166.693771 -73.122925 142.714584
   vertex -166.693771 -73.959206 142.166290
   vertex -166.693771 -73.397064 143.132736
  endloop
 endfacet
 facet normal 0.000025 0.548296 -0.836284
  outer loop
   vertex -166.276779 -73.750137 142.303375
   vertex -166.693771 -73.959206 142.166290
   vertex -166.693771 -73.122925 142.714584
  endloop
 endfacet
 facet normal 0.000000 0.548332 -0.836261
  outer loop
   vertex -166.343765 -73.959206 142.166290
   vertex -166.693771 -73.959206 142.166290
   vertex -166.276779 -73.750137 142.303375
  endloop
 endfacet
 facet normal -0.000003 -0.548293 0.836286
  outer loop
   vertex -179.887650 -74.024284 142.721512
   vertex -179.470657 -74.233353 142.584442
   vertex -179.470657 -73.397064 143.132736
  endloop
 endfacet
 facet normal 1.000000 -0.000000 -0.000000
  outer loop
   vertex -179.470657 -73.397064 143.132736
   vertex -179.470657 -74.233353 142.584442
   vertex -179.470657 -73.122925 142.714584
  endloop
 endfacet
 facet normal -0.000000 0.836298 0.548275
  outer loop
   vertex -179.470657 -73.122925 142.714584
   vertex -181.170654 -73.397064 143.132736
   vertex -179.470657 -73.397064 143.132736
  endloop
 endfacet
 facet normal 0.000004 0.836291 0.548286
  outer loop
   vertex -181.170654 -73.122917 142.714584
   vertex -181.170654 -73.397064 143.132736
   vertex -179.470657 -73.122925 142.714584
  endloop
 endfacet
 facet normal -1.000000 0.000000 -0.000000
  outer loop
   vertex -181.170654 -74.233353 142.584442
   vertex -181.170654 -73.397064 143.132736
   vertex -181.170654 -73.122917 142.714584
  endloop
 endfacet
 facet normal -1.000000 -0.000000 0.000000
  outer loop
   vertex -181.170654 -73.122917 142.714584
   vertex -181.170654 -73.959206 142.166290
   vertex -181.170654 -74.233353 142.584442
  endloop
 endfacet
 facet normal -0.000018 -0.836291 -0.548286
  outer loop
   vertex -181.170654 -74.233353 142.584442
   vertex -181.170654 -73.959206 142.166290
   vertex -180.995651 -74.096283 142.375366
  endloop
 endfacet
 facet normal 0.000000 -0.836284 -0.548296
  outer loop
   vertex -180.995651 -74.096283 142.375366
   vertex -181.170654 -73.959206 142.166290
   vertex -180.820663 -73.959206 142.166290
  endloop
 endfacet
 facet normal 0.000018 -0.836291 -0.548286
  outer loop
   vertex -180.820663 -73.959206 142.166290
   vertex -180.820663 -74.233353 142.584442
   vertex -180.995651 -74.096283 142.375366
  endloop
 endfacet
 facet normal 0.000000 0.836291 0.548286
  outer loop
   vertex -181.170654 -74.233353 142.584442
   vertex -180.820663 -74.233353 142.584442
   vertex -180.820663 -73.959206 142.166290
  endloop
 endfacet
 facet normal -0.000000 -0.836298 -0.548275
  outer loop
   vertex -180.995651 -74.096283 142.375366
   vertex -180.820663 -74.233353 142.584442
   vertex -181.170654 -74.233353 142.584442
  endloop
 endfacet
 facet normal 0.000000 -0.836319 -0.548243
  outer loop
   vertex -178.082214 -75.257088 140.806717
   vertex -178.082214 -75.196991 140.715042
   vertex -168.082214 -75.196991 140.715042
  endloop
 endfacet
 facet normal -0.000000 0.548300 -0.836281
  outer loop
   vertex -168.082214 -75.196991 140.715042
   vertex -178.082214 -75.196991 140.715042
   vertex -178.082214 -75.077972 140.793076
  endloop
 endfacet
 facet normal 0.000000 0.548300 -0.836281
  outer loop
   vertex -178.082214 -75.077972 140.793076
   vertex -168.082214 -75.077972 140.793076
   vertex -168.082214 -75.196991 140.715042
  endloop
 endfacet
 facet normal 0.000000 0.977308 0.211821
  outer loop
   vertex -178.082214 -75.085579 140.828171
   vertex -168.082214 -75.077972 140.793076
   vertex -178.082214 -75.077972 140.793076
  endloop
 endfacet
 facet normal 0.000000 0.977308 0.211821
  outer loop
   vertex -168.082214 -75.085579 140.828171
   vertex -168.082214 -75.077972 140.793076
   vertex -178.082214 -75.085579 140.828171
  endloop
 endfacet
 facet normal -0.000000 0.548290 -0.836288
  outer loop
   vertex -178.082214 -75.085579 140.828171
   vertex -178.082214 -74.572487 141.164566
   vertex -168.082214 -75.085579 140.828171
  endloop
 endfacet
 facet normal 0.000000 0.548290 -0.836288
  outer loop
   vertex -168.082214 -75.085579 140.828171
   vertex -178.082214 -74.572487 141.164566
   vertex -168.082214 -74.572487 141.164566
  endloop
 endfacet
 facet normal 0.000000 -0.583868 -0.811849
  outer loop
   vertex -168.082214 -74.572487 141.164566
   vertex -178.082214 -74.572487 141.164566
   vertex -178.082214 -74.543335 141.143600
  endloop
 endfacet
 facet normal -0.000000 -0.583868 -0.811849
  outer loop
   vertex -178.082214 -74.543335 141.143600
   vertex -168.082214 -74.543335 141.143600
   vertex -168.082214 -74.572487 141.164566
  endloop
 endfacet
 facet normal -0.000000 0.548402 -0.836215
  outer loop
   vertex -178.082214 -74.484283 141.182327
   vertex -168.082214 -74.543335 141.143600
   vertex -178.082214 -74.543335 141.143600
  endloop
 endfacet
 facet normal -0.000001 0.548250 -0.836314
  outer loop
   vertex -168.082214 -74.484283 141.182312
   vertex -168.082214 -74.543335 141.143600
   vertex -178.082214 -74.484283 141.182327
  endloop
 endfacet
 facet normal 0.000001 0.836284 0.548296
  outer loop
   vertex -178.082214 -74.484283 141.182327
   vertex -178.082214 -75.345093 142.495270
   vertex -168.082214 -74.484283 141.182312
  endloop
 endfacet
 facet normal -0.000000 0.836287 0.548292
  outer loop
   vertex -168.082214 -74.484283 141.182312
   vertex -178.082214 -75.345093 142.495270
   vertex -168.082214 -75.345093 142.495270
  endloop
 endfacet
 facet normal -0.000000 -0.548201 0.836347
  outer loop
   vertex -168.082214 -75.345093 142.495270
   vertex -178.082214 -75.345093 142.495270
   vertex -168.082214 -75.404152 142.456558
  endloop
 endfacet
 facet normal 0.000003 -0.548293 0.836286
  outer loop
   vertex -166.276779 -74.024284 142.721512
   vertex -166.693771 -73.397064 143.132736
   vertex -166.693771 -74.233353 142.584442
  endloop
 endfacet
 facet normal -1.000000 -0.000000 -0.000000
  outer loop
   vertex -166.693771 -74.233353 142.584442
   vertex -166.693771 -73.397064 143.132736
   vertex -166.693771 -73.959206 142.166290
  endloop
 endfacet
 facet normal -0.000000 -0.836291 -0.548286
  outer loop
   vertex -166.693771 -73.959206 142.166290
   vertex -166.343765 -74.233353 142.584442
   vertex -166.693771 -74.233353 142.584442
  endloop
 endfacet
 facet normal -0.000000 -0.836291 -0.548286
  outer loop
   vertex -166.343765 -73.959206 142.166290
   vertex -166.343765 -74.233353 142.584442
   vertex -166.693771 -73.959206 142.166290
  endloop
 endfacet
 facet normal 0.000000 0.836291 0.548286
  outer loop
   vertex -166.693771 -73.959206 142.166290
   vertex -166.343765 -74.233353 142.584442
   vertex -166.343765 -73.959206 142.166290
  endloop
 endfacet
 facet normal -0.000000 0.548275 -0.836298
  outer loop
   vertex -166.343765 -73.959206 142.166290
   vertex -166.276779 -74.168282 142.029221
   vertex -166.693771 -73.959206 142.166290
  endloop
 endfacet
 facet normal 0.000003 0.548280 -0.836295
  outer loop
   vertex -166.693771 -73.959206 142.166290
   vertex -166.276779 -74.168282 142.029221
   vertex -166.579895 -74.314629 141.933273
  endloop
 endfacet
 facet normal -0.000005 0.548292 -0.836287
  outer loop
   vertex -166.579895 -74.314629 141.933273
   vertex -166.276779 -74.168282 142.029221
   vertex -166.093765 -74.321327 141.928879
  endloop
 endfacet
 facet normal -0.000004 0.548308 -0.836276
  outer loop
   vertex -166.093765 -74.321327 141.928879
   vertex -166.268768 -74.574814 141.762680
   vertex -166.579895 -74.314629 141.933273
  endloop
 endfacet
 facet normal 0.000010 0.548301 -0.836281
  outer loop
   vertex -165.843765 -74.377350 141.892151
   vertex -166.268768 -74.574814 141.762680
   vertex -166.093765 -74.321327 141.928879
  endloop
 endfacet
 facet normal 0.000007 0.548305 -0.836278
  outer loop
   vertex -165.843765 -74.670052 141.700241
   vertex -166.268768 -74.574814 141.762680
   vertex -165.843765 -74.377350 141.892151
  endloop
 endfacet
 facet normal -0.000011 0.548305 -0.836278
  outer loop
   vertex -165.843765 -74.377350 141.892151
   vertex -165.593765 -74.321327 141.928879
   vertex -165.843765 -74.670052 141.700241
  endloop
 endfacet
 facet normal -0.000006 0.548303 -0.836280
  outer loop
   vertex -165.843765 -74.670052 141.700241
   vertex -165.593765 -74.321327 141.928879
   vertex -165.418777 -74.574814 141.762680
  endloop
 endfacet
 facet normal -0.000008 0.548302 -0.836280
  outer loop
   vertex -165.418777 -74.574814 141.762680
   vertex -165.593765 -74.321327 141.928879
   vertex -165.410751 -74.168282 142.029221
  endloop
 endfacet
 facet normal 0.000012 0.548302 -0.836280
  outer loop
   vertex -165.410751 -74.168282 142.029221
   vertex -165.107651 -74.314629 141.933273
   vertex -165.418777 -74.574814 141.762680
  endloop
 endfacet
 facet normal -0.000006 0.548276 -0.836297
  outer loop
   vertex -165.343765 -73.959206 142.166290
   vertex -165.107651 -74.314629 141.933273
   vertex -165.410751 -74.168282 142.029221
  endloop
 endfacet
 facet normal 0.000000 0.548279 -0.836295
  outer loop
   vertex -164.993774 -73.959206 142.166290
   vertex -165.107651 -74.314629 141.933273
   vertex -165.343765 -73.959206 142.166290
  endloop
 endfacet
 facet normal -0.000000 0.548289 -0.836289
  outer loop
   vertex -165.343765 -73.959206 142.166290
   vertex -165.410751 -73.750137 142.303360
   vertex -164.993774 -73.959206 142.166290
  endloop
 endfacet
 facet normal 0.000005 0.548296 -0.836284
  outer loop
   vertex -164.993774 -73.959206 142.166290
   vertex -165.410751 -73.750137 142.303360
   vertex -164.993774 -73.122925 142.714584
  endloop
 endfacet
 facet normal -0.000028 0.548312 -0.836274
  outer loop
   vertex -164.993774 -73.122925 142.714584
   vertex -165.410751 -73.750137 142.303360
   vertex -165.593765 -73.597084 142.403717
  endloop
 endfacet
 facet normal 0.000004 0.548283 -0.836293
  outer loop
   vertex -165.593765 -73.597084 142.403717
   vertex -165.843765 -73.541061 142.440445
   vertex -164.993774 -73.122925 142.714584
  endloop
 endfacet
 facet normal -0.000025 0.548296 -0.836284
  outer loop
   vertex -179.887650 -73.750137 142.303375
   vertex -179.470657 -73.122925 142.714584
   vertex -179.470657 -73.959206 142.166290
  endloop
 endfacet
 facet normal 1.000000 -0.000000 -0.000000
  outer loop
   vertex -179.470657 -73.959206 142.166290
   vertex -179.470657 -73.122925 142.714584
   vertex -179.470657 -74.233353 142.584442
  endloop
 endfacet
 facet normal 0.000000 -0.836291 -0.548286
  outer loop
   vertex -179.470657 -74.233353 142.584442
   vertex -179.820663 -73.959206 142.166290
   vertex -179.470657 -73.959206 142.166290
  endloop
 endfacet
 facet normal -0.000000 -0.836291 -0.548286
  outer loop
   vertex -179.820663 -74.233353 142.584442
   vertex -179.820663 -73.959206 142.166290
   vertex -179.470657 -74.233353 142.584442
  endloop
 endfacet
 facet normal 0.000000 0.836291 0.548286
  outer loop
   vertex -179.470657 -74.233353 142.584442
   vertex -179.820663 -73.959206 142.166290
   vertex -179.820663 -74.233353 142.584442
  endloop
 endfacet
 facet normal -0.000000 -0.548275 0.836298
  outer loop
   vertex -179.820663 -74.233353 142.584442
   vertex -179.887650 -74.442429 142.447372
   vertex -179.470657 -74.233353 142.584442
  endloop
 endfacet
 facet normal 0.000025 -0.548310 0.836275
  outer loop
   vertex -179.470657 -74.233353 142.584442
   vertex -179.887650 -74.442429 142.447372
   vertex -179.584534 -74.588776 142.351410
  endloop
 endfacet
 facet normal -0.000004 -0.548351 0.836248
  outer loop
   vertex -179.584534 -74.588776 142.351410
   vertex -179.887650 -74.442429 142.447372
   vertex -180.070663 -74.595474 142.347015
  endloop
 endfacet
 facet normal -0.000005 -0.548273 0.836299
  outer loop
   vertex -180.070663 -74.595474 142.347015
   vertex -179.895660 -74.848961 142.180832
   vertex -179.584534 -74.588776 142.351410
  endloop
 endfacet
 facet normal 0.000000 -0.548271 0.836301
  outer loop
   vertex -180.320663 -74.651497 142.310287
   vertex -179.895660 -74.848961 142.180832
   vertex -180.070663 -74.595474 142.347015
  endloop
 endfacet
 facet normal -0.000003 -0.548275 0.836298
  outer loop
   vertex -180.320663 -74.944199 142.118393
   vertex -179.895660 -74.848961 142.180832
   vertex -180.320663 -74.651497 142.310287
  endloop
 endfacet
 facet normal -0.000001 -0.548275 0.836298
  outer loop
   vertex -180.320663 -74.651497 142.310287
   vertex -180.570663 -74.595474 142.347015
   vertex -180.320663 -74.944199 142.118393
  endloop
 endfacet
 facet normal 0.000003 -0.548273 0.836300
  outer loop
   vertex -180.320663 -74.944199 142.118393
   vertex -180.570663 -74.595474 142.347015
   vertex -180.745651 -74.848961 142.180832
  endloop
 endfacet
 facet normal 0.000063 -0.548301 0.836281
  outer loop
   vertex -180.745651 -74.848961 142.180832
   vertex -180.570663 -74.595474 142.347015
   vertex -180.753677 -74.442429 142.447372
  endloop
 endfacet
 facet normal -0.000030 -0.548303 0.836280
  outer loop
   vertex -180.753677 -74.442429 142.447372
   vertex -181.056778 -74.588776 142.351410
   vertex -180.745651 -74.848961 142.180832
  endloop
 endfacet
 facet normal -0.000042 -0.548285 0.836292
  outer loop
   vertex -180.820663 -74.233353 142.584442
   vertex -181.056778 -74.588776 142.351410
   vertex -180.753677 -74.442429 142.447372
  endloop
 endfacet
 facet normal 0.000000 -0.548304 0.836279
  outer loop
   vertex -181.170654 -74.233353 142.584442
   vertex -181.056778 -74.588776 142.351410
   vertex -180.820663 -74.233353 142.584442
  endloop
 endfacet
 facet normal -0.000000 -0.548289 0.836289
  outer loop
   vertex -180.820663 -74.233353 142.584442
   vertex -180.753677 -74.024284 142.721512
   vertex -181.170654 -74.233353 142.584442
  endloop
 endfacet
 facet normal 0.000003 -0.548293 0.836286
  outer loop
   vertex -181.170654 -74.233353 142.584442
   vertex -180.753677 -74.024284 142.721512
   vertex -181.170654 -73.397064 143.132736
  endloop
 endfacet
 facet normal 0.000013 -0.548288 0.836290
  outer loop
   vertex -181.170654 -73.397064 143.132736
   vertex -180.753677 -74.024284 142.721512
   vertex -180.570663 -73.871231 142.821854
  endloop
 endfacet
 facet normal 0.000007 -0.548293 0.836286
  outer loop
   vertex -180.570663 -73.871231 142.821854
   vertex -180.320663 -73.815208 142.858582
   vertex -181.170654 -73.397064 143.132736
  endloop
 endfacet
 facet normal 0.000000 0.868989 -0.494831
  outer loop
   vertex -178.329239 -74.447617 141.150726
   vertex -178.329239 -74.174561 141.630249
   vertex -177.170532 -74.447617 141.150726
  endloop
 endfacet
 facet normal -0.000000 0.868989 -0.494831
  outer loop
   vertex -177.170532 -74.447617 141.150726
   vertex -178.329239 -74.174561 141.630249
   vertex -177.170532 -74.174561 141.630249
  endloop
 endfacet
 facet normal 1.000000 0.000000 0.000000
  outer loop
   vertex -177.170532 -74.174561 141.630249
   vertex -177.170532 -74.810814 142.600693
   vertex -177.170532 -74.447617 141.150726
  endloop
 endfacet
 facet normal -0.000000 0.836285 0.548295
  outer loop
   vertex -178.329239 -74.174561 141.630249
   vertex -177.170532 -74.810814 142.600693
   vertex -177.170532 -74.174561 141.630249
  endloop
 endfacet
 facet normal 0.000000 0.836285 0.548295
  outer loop
   vertex -178.329239 -74.810814 142.600693
   vertex -177.170532 -74.810814 142.600693
   vertex -178.329239 -74.174561 141.630249
  endloop
 endfacet
 facet normal -1.000000 0.000000 -0.000000
  outer loop
   vertex -178.329239 -74.174561 141.630249
   vertex -178.329239 -75.359436 142.541489
   vertex -178.329239 -74.810814 142.600693
  endloop
 endfacet
 facet normal 0.000000 -0.107291 0.994228
  outer loop
   vertex -178.329239 -74.810814 142.600693
   vertex -178.329239 -75.359436 142.541489
   vertex -177.170532 -74.810814 142.600693
  endloop
 endfacet
 facet normal -0.000000 -0.107291 0.994228
  outer loop
   vertex -177.170532 -74.810814 142.600693
   vertex -178.329239 -75.359436 142.541489
   vertex -177.170532 -75.359436 142.541489
  endloop
 endfacet
 facet normal 1.000000 0.000000 0.000000
  outer loop
   vertex -177.170532 -75.359436 142.541489
   vertex -177.170532 -74.447617 141.150726
   vertex -177.170532 -74.810814 142.600693
  endloop
 endfacet
 facet normal 1.000000 -0.000000 -0.000000
  outer loop
   vertex -177.170532 -75.919891 141.889755
   vertex -177.170532 -74.447617 141.150726
   vertex -177.170532 -75.359436 142.541489
  endloop
 endfacet
 facet normal 1.000000 0.000000 0.000000
  outer loop
   vertex -177.170532 -75.268784 140.896637
   vertex -177.170532 -74.447617 141.150726
   vertex -177.170532 -75.919891 141.889755
  endloop
 endfacet
 facet normal 0.000000 -0.836290 -0.548288
  outer loop
   vertex -177.170532 -75.919891 141.889755
   vertex -178.329239 -75.268784 140.896637
   vertex -177.170532 -75.268784 140.896637
  endloop
 endfacet
 facet normal 0.000000 -0.665540 0.746362
  outer loop
   vertex -177.170532 -75.268784 140.896637
   vertex -178.329239 -75.268784 140.896637
   vertex -177.170532 -75.343254 140.830231
  endloop
 endfacet
 facet normal -0.000000 -0.665540 0.746362
  outer loop
   vertex -177.170532 -75.343254 140.830231
   vertex -178.329239 -75.268784 140.896637
   vertex -178.329239 -75.343254 140.830231
  endloop
 endfacet
 facet normal 0.000000 -0.836279 -0.548304
  outer loop
   vertex -178.329239 -75.343254 140.830231
   vertex -177.170532 -75.256096 140.697296
   vertex -177.170532 -75.343254 140.830231
  endloop
 endfacet
 facet normal -0.000000 -0.836279 -0.548304
  outer loop
   vertex -178.329239 -75.256096 140.697296
   vertex -177.170532 -75.256096 140.697296
   vertex -178.329239 -75.343254 140.830231
  endloop
 endfacet
 facet normal -0.000000 -0.076480 -0.997071
  outer loop
   vertex -178.329239 -75.151459 140.689270
   vertex -177.170532 -75.256096 140.697296
   vertex -178.329239 -75.256096 140.697296
  endloop
 endfacet
 facet normal -1.000000 -0.000000 -0.000000
  outer loop
   vertex -178.329239 -75.256096 140.697296
   vertex -178.329239 -75.268784 140.896637
   vertex -178.329239 -75.151459 140.689270
  endloop
 endfacet
 facet normal -1.000000 0.000000 0.000000
  outer loop
   vertex -178.329239 -75.151459 140.689270
   vertex -178.329239 -75.268784 140.896637
   vertex -178.329239 -74.447617 141.150726
  endloop
 endfacet
 facet normal -1.000000 -0.000000 0.000000
  outer loop
   vertex -178.329239 -74.447617 141.150726
   vertex -178.329239 -75.268784 140.896637
   vertex -178.329239 -75.919891 141.889755
  endloop
 endfacet
 facet normal -1.000000 0.000000 -0.000000
  outer loop
   vertex -178.329239 -75.919891 141.889755
   vertex -178.329239 -75.359436 142.541489
   vertex -178.329239 -74.447617 141.150726
  endloop
 endfacet
 facet normal -1.000000 -0.000000 -0.000000
  outer loop
   vertex -178.329239 -76.063278 142.080032
   vertex -178.329239 -75.359436 142.541489
   vertex -178.329239 -75.919891 141.889755
  endloop
 endfacet
 facet normal 0.000000 -0.548291 0.836288
  outer loop
   vertex -177.170532 -75.359436 142.541489
   vertex -178.329239 -75.359436 142.541489
   vertex -178.329239 -76.063278 142.080032
  endloop
 endfacet
 facet normal -0.000000 -0.548291 0.836288
  outer loop
   vertex -178.329239 -76.063278 142.080032
   vertex -177.170532 -76.063278 142.080032
   vertex -177.170532 -75.359436 142.541489
  endloop
 endfacet
 facet normal 1.000000 -0.000000 0.000000
  outer loop
   vertex -177.170532 -75.359436 142.541489
   vertex -177.170532 -76.063278 142.080032
   vertex -177.170532 -75.919891 141.889755
  endloop
 endfacet
 facet normal 1.000000 -0.000000 0.000000
  outer loop
   vertex -177.170532 -75.919891 141.889755
   vertex -177.170532 -76.063278 142.080032
   vertex -177.170532 -76.097649 141.980881
  endloop
 endfacet
 facet normal 1.000000 0.000000 -0.000000
  outer loop
   vertex -177.170532 -76.097649 141.980881
   vertex -177.170532 -76.010490 141.847946
   vertex -177.170532 -75.919891 141.889755
  endloop
 endfacet
 facet normal -0.000000 -0.836279 -0.548304
  outer loop
   vertex -178.329239 -76.010490 141.847946
   vertex -177.170532 -76.010490 141.847946
   vertex -177.170532 -76.097649 141.980881
  endloop
 endfacet
 facet normal 0.000000 0.419010 -0.907982
  outer loop
   vertex -177.170532 -75.919891 141.889755
   vertex -177.170532 -76.010490 141.847946
   vertex -178.329239 -76.010490 141.847946
  endloop
 endfacet
 facet normal -0.000000 0.419010 -0.907982
  outer loop
   vertex -178.329239 -76.010490 141.847946
   vertex -178.329239 -75.919891 141.889755
   vertex -177.170532 -75.919891 141.889755
  endloop
 endfacet
 facet normal 0.000000 -0.836290 -0.548288
  outer loop
   vertex -177.170532 -75.919891 141.889755
   vertex -178.329239 -75.919891 141.889755
   vertex -178.329239 -75.268784 140.896637
  endloop
 endfacet
 facet normal 0.000000 -0.107291 0.994228
  outer loop
   vertex -167.835190 -75.359436 142.541489
   vertex -167.835190 -74.810814 142.600693
   vertex -168.993896 -75.359436 142.541489
  endloop
 endfacet
 facet normal -0.000000 -0.107291 0.994228
  outer loop
   vertex -168.993896 -75.359436 142.541489
   vertex -167.835190 -74.810814 142.600693
   vertex -168.993896 -74.810814 142.600693
  endloop
 endfacet
 facet normal -1.000000 0.000000 0.000000
  outer loop
   vertex -168.993896 -74.810814 142.600693
   vertex -168.993896 -74.174561 141.630249
   vertex -168.993896 -75.359436 142.541489
  endloop
 endfacet
 facet normal -0.000000 0.836285 0.548295
  outer loop
   vertex -167.835190 -74.810814 142.600693
   vertex -168.993896 -74.174561 141.630249
   vertex -168.993896 -74.810814 142.600693
  endloop
 endfacet
 facet normal -0.000000 0.836285 0.548295
  outer loop
   vertex -167.835190 -74.174561 141.630249
   vertex -168.993896 -74.174561 141.630249
   vertex -167.835190 -74.810814 142.600693
  endloop
 endfacet
 facet normal 1.000000 -0.000000 -0.000000
  outer loop
   vertex -167.835190 -74.810814 142.600693
   vertex -167.835190 -74.447617 141.150726
   vertex -167.835190 -74.174561 141.630249
  endloop
 endfacet
 facet normal 0.000000 0.868989 -0.494831
  outer loop
   vertex -167.835190 -74.174561 141.630249
   vertex -167.835190 -74.447617 141.150726
   vertex -168.993896 -74.174561 141.630249
  endloop
 endfacet
 facet normal -0.000000 0.868989 -0.494831
  outer loop
   vertex -168.993896 -74.174561 141.630249
   vertex -167.835190 -74.447617 141.150726
   vertex -168.993896 -74.447617 141.150726
  endloop
 endfacet
 facet normal -1.000000 0.000000 0.000000
  outer loop
   vertex -168.993896 -74.447617 141.150726
   vertex -168.993896 -75.359436 142.541489
   vertex -168.993896 -74.174561 141.630249
  endloop
 endfacet
 facet normal -1.000000 -0.000000 -0.000000
  outer loop
   vertex -168.993896 -75.268784 140.896637
   vertex -168.993896 -75.359436 142.541489
   vertex -168.993896 -74.447617 141.150726
  endloop
 endfacet
 facet normal -1.000000 0.000000 -0.000000
  outer loop
   vertex -168.993896 -75.919891 141.889755
   vertex -168.993896 -75.359436 142.541489
   vertex -168.993896 -75.268784 140.896637
  endloop
 endfacet
 facet normal -0.000000 -0.836290 -0.548288
  outer loop
   vertex -168.993896 -75.268784 140.896637
   vertex -167.835190 -75.919891 141.889755
   vertex -168.993896 -75.919891 141.889755
  endloop
 endfacet
 facet normal 0.000000 0.419010 -0.907982
  outer loop
   vertex -168.993896 -75.919891 141.889755
   vertex -167.835190 -75.919891 141.889755
   vertex -168.993896 -76.010490 141.847946
  endloop
 endfacet
 facet normal -0.000000 0.419010 -0.907982
  outer loop
   vertex -168.993896 -76.010490 141.847946
   vertex -167.835190 -75.919891 141.889755
   vertex -167.835190 -76.010490 141.847946
  endloop
 endfacet
 facet normal 0.000000 -0.836279 -0.548304
  outer loop
   vertex -167.835190 -76.010490 141.847946
   vertex -168.993896 -76.097649 141.980881
   vertex -168.993896 -76.010490 141.847946
  endloop
 endfacet
 facet normal 0.000000 -0.836279 -0.548304
  outer loop
   vertex -167.835190 -76.097649 141.980881
   vertex -168.993896 -76.097649 141.980881
   vertex -167.835190 -76.010490 141.847946
  endloop
 endfacet
 facet normal 0.000000 -0.944842 0.327525
  outer loop
   vertex -167.835190 -76.063278 142.080032
   vertex -168.993896 -76.097649 141.980881
   vertex -167.835190 -76.097649 141.980881
  endloop
 endfacet
 facet normal 1.000000 -0.000000 -0.000000
  outer loop
   vertex -167.835190 -76.097649 141.980881
   vertex -167.835190 -75.919891 141.889755
   vertex -167.835190 -76.063278 142.080032
  endloop
 endfacet
 facet normal 1.000000 0.000000 -0.000000
  outer loop
   vertex -167.835190 -76.063278 142.080032
   vertex -167.835190 -75.919891 141.889755
   vertex -167.835190 -75.359436 142.541489
  endloop
 endfacet
 facet normal 1.000000 -0.000000 -0.000000
  outer loop
   vertex -167.835190 -75.359436 142.541489
   vertex -167.835190 -75.919891 141.889755
   vertex -167.835190 -75.268784 140.896637
  endloop
 endfacet
 facet normal 1.000000 0.000000 0.000000
  outer loop
   vertex -167.835190 -75.268784 140.896637
   vertex -167.835190 -74.447617 141.150726
   vertex -167.835190 -75.359436 142.541489
  endloop
 endfacet
 facet normal 1.000000 -0.000000 -0.000000
  outer loop
   vertex -167.835190 -75.151459 140.689270
   vertex -167.835190 -74.447617 141.150726
   vertex -167.835190 -75.268784 140.896637
  endloop
 endfacet
 facet normal 0.000000 0.548291 -0.836288
  outer loop
   vertex -168.993896 -74.447617 141.150726
   vertex -167.835190 -74.447617 141.150726
   vertex -167.835190 -75.151459 140.689270
  endloop
 endfacet
 facet normal -0.000000 0.548291 -0.836288
  outer loop
   vertex -167.835190 -75.151459 140.689270
   vertex -168.993896 -75.151459 140.689270
   vertex -168.993896 -74.447617 141.150726
  endloop
 endfacet
 facet normal -1.000000 0.000000 0.000000
  outer loop
   vertex -168.993896 -74.447617 141.150726
   vertex -168.993896 -75.151459 140.689270
   vertex -168.993896 -75.268784 140.896637
  endloop
 endfacet
 facet normal -1.000000 -0.000000 -0.000000
  outer loop
   vertex -168.993896 -75.268784 140.896637
   vertex -168.993896 -75.151459 140.689270
   vertex -168.993896 -75.256096 140.697296
  endloop
 endfacet
 facet normal -1.000000 0.000000 0.000000
  outer loop
   vertex -168.993896 -75.256096 140.697296
   vertex -168.993896 -75.343254 140.830231
   vertex -168.993896 -75.268784 140.896637
  endloop
 endfacet
 facet normal 0.000000 -0.836279 -0.548304
  outer loop
   vertex -167.835190 -75.343254 140.830231
   vertex -168.993896 -75.343254 140.830231
   vertex -168.993896 -75.256096 140.697296
  endloop
 endfacet
 facet normal 0.000000 -0.665540 0.746362
  outer loop
   vertex -168.993896 -75.268784 140.896637
   vertex -168.993896 -75.343254 140.830231
   vertex -167.835190 -75.343254 140.830231
  endloop
 endfacet
 facet normal -0.000000 -0.665540 0.746362
  outer loop
   vertex -167.835190 -75.343254 140.830231
   vertex -167.835190 -75.268784 140.896637
   vertex -168.993896 -75.268784 140.896637
  endloop
 endfacet
 facet normal -0.000000 -0.836290 -0.548288
  outer loop
   vertex -168.993896 -75.268784 140.896637
   vertex -167.835190 -75.268784 140.896637
   vertex -167.835190 -75.919891 141.889755
  endloop
 endfacet
 facet normal 0.000000 0.548275 -0.836298
  outer loop
   vertex -179.820663 -73.959206 142.166290
   vertex -179.470657 -73.959206 142.166290
   vertex -179.887650 -74.168282 142.029221
  endloop
 endfacet
 facet normal -0.000003 0.548280 -0.836295
  outer loop
   vertex -179.887650 -74.168282 142.029221
   vertex -179.470657 -73.959206 142.166290
   vertex -179.584534 -74.314629 141.933273
  endloop
 endfacet
 facet normal 0.000005 0.548292 -0.836287
  outer loop
   vertex -179.584534 -74.314629 141.933273
   vertex -180.070663 -74.321327 141.928879
   vertex -179.887650 -74.168282 142.029221
  endloop
 endfacet
 facet normal 0.000004 0.548308 -0.836276
  outer loop
   vertex -179.895660 -74.574814 141.762680
   vertex -180.070663 -74.321327 141.928879
   vertex -179.584534 -74.314629 141.933273
  endloop
 endfacet
 facet normal -0.000010 0.548301 -0.836281
  outer loop
   vertex -180.320663 -74.377350 141.892151
   vertex -180.070663 -74.321327 141.928879
   vertex -179.895660 -74.574814 141.762680
  endloop
 endfacet
 facet normal -0.000007 0.548305 -0.836278
  outer loop
   vertex -179.895660 -74.574814 141.762680
   vertex -180.320663 -74.670052 141.700241
   vertex -180.320663 -74.377350 141.892151
  endloop
 endfacet
 facet normal 0.000011 0.548305 -0.836278
  outer loop
   vertex -180.320663 -74.377350 141.892151
   vertex -180.320663 -74.670052 141.700241
   vertex -180.570663 -74.321327 141.928879
  endloop
 endfacet
 facet normal 0.000006 0.548303 -0.836280
  outer loop
   vertex -180.570663 -74.321327 141.928879
   vertex -180.320663 -74.670052 141.700241
   vertex -180.745651 -74.574814 141.762680
  endloop
 endfacet
 facet normal 0.000008 0.548302 -0.836280
  outer loop
   vertex -180.745651 -74.574814 141.762680
   vertex -180.753677 -74.168282 142.029221
   vertex -180.570663 -74.321327 141.928879
  endloop
 endfacet
 facet normal -0.000012 0.548302 -0.836280
  outer loop
   vertex -181.056778 -74.314629 141.933273
   vertex -180.753677 -74.168282 142.029221
   vertex -180.745651 -74.574814 141.762680
  endloop
 endfacet
 facet normal 0.000006 0.548276 -0.836297
  outer loop
   vertex -180.820663 -73.959206 142.166290
   vertex -180.753677 -74.168282 142.029221
   vertex -181.056778 -74.314629 141.933273
  endloop
 endfacet
 facet normal -0.000000 0.548279 -0.836295
  outer loop
   vertex -181.056778 -74.314629 141.933273
   vertex -181.170654 -73.959206 142.166290
   vertex -180.820663 -73.959206 142.166290
  endloop
 endfacet
 facet normal 0.000000 0.548332 -0.836261
  outer loop
   vertex -180.820663 -73.959206 142.166290
   vertex -181.170654 -73.959206 142.166290
   vertex -180.753677 -73.750137 142.303375
  endloop
 endfacet
 facet normal 0.000028 0.548293 -0.836286
  outer loop
   vertex -180.753677 -73.750137 142.303375
   vertex -181.170654 -73.959206 142.166290
   vertex -181.170654 -73.122917 142.714584
  endloop
 endfacet
 facet normal -0.000002 0.548279 -0.836296
  outer loop
   vertex -181.170654 -73.122917 142.714584
   vertex -180.570663 -73.597084 142.403717
   vertex -180.753677 -73.750137 142.303375
  endloop
 endfacet
 facet normal -0.000002 0.548279 -0.836296
  outer loop
   vertex -180.320663 -73.541061 142.440445
   vertex -180.570663 -73.597084 142.403717
   vertex -181.170654 -73.122917 142.714584
  endloop
 endfacet
 facet normal 0.000000 -0.548318 0.836270
  outer loop
   vertex -166.343765 -74.233353 142.584442
   vertex -166.693771 -74.233353 142.584442
   vertex -166.276779 -74.442429 142.447357
  endloop
 endfacet
 facet normal 0.000012 -0.548302 0.836281
  outer loop
   vertex -166.276779 -74.442429 142.447357
   vertex -166.693771 -74.233353 142.584442
   vertex -166.579895 -74.588776 142.351410
  endloop
 endfacet
 facet normal 0.000005 -0.548292 0.836287
  outer loop
   vertex -166.579895 -74.588776 142.351410
   vertex -166.093765 -74.595474 142.347015
   vertex -166.276779 -74.442429 142.447357
  endloop
 endfacet
 facet normal 0.000005 -0.548273 0.836299
  outer loop
   vertex -166.268768 -74.848961 142.180832
   vertex -166.093765 -74.595474 142.347015
   vertex -166.579895 -74.588776 142.351410
  endloop
 endfacet
 facet normal -0.000000 -0.548271 0.836301
  outer loop
   vertex -165.843765 -74.651497 142.310287
   vertex -166.093765 -74.595474 142.347015
   vertex -166.268768 -74.848961 142.180832
  endloop
 endfacet
 facet normal 0.000003 -0.548275 0.836298
  outer loop
   vertex -166.268768 -74.848961 142.180832
   vertex -165.843765 -74.944199 142.118393
   vertex -165.843765 -74.651497 142.310287
  endloop
 endfacet
 facet normal 0.000001 -0.548275 0.836298
  outer loop
   vertex -165.843765 -74.651497 142.310287
   vertex -165.843765 -74.944199 142.118393
   vertex -165.593765 -74.595474 142.347015
  endloop
 endfacet
 facet normal -0.000003 -0.548273 0.836300
  outer loop
   vertex -165.593765 -74.595474 142.347015
   vertex -165.843765 -74.944199 142.118393
   vertex -165.418777 -74.848961 142.180832
  endloop
 endfacet
 facet normal -0.000019 -0.548280 0.836295
  outer loop
   vertex -165.418777 -74.848961 142.180832
   vertex -165.410751 -74.442429 142.447357
   vertex -165.593765 -74.595474 142.347015
  endloop
 endfacet
 facet normal 0.000003 -0.548280 0.836295
  outer loop
   vertex -165.107651 -74.588776 142.351410
   vertex -165.410751 -74.442429 142.447357
   vertex -165.418777 -74.848961 142.180832
  endloop
 endfacet
 facet normal -0.000020 -0.548313 0.836273
  outer loop
   vertex -165.343765 -74.233353 142.584442
   vertex -165.410751 -74.442429 142.447357
   vertex -165.107651 -74.588776 142.351410
  endloop
 endfacet
 facet normal -0.000000 -0.548304 0.836279
  outer loop
   vertex -165.107651 -74.588776 142.351410
   vertex -164.993774 -74.233353 142.584442
   vertex -165.343765 -74.233353 142.584442
  endloop
 endfacet
 facet normal 0.000000 -0.548289 0.836289
  outer loop
   vertex -165.343765 -74.233353 142.584442
   vertex -164.993774 -74.233353 142.584442
   vertex -165.410751 -74.024284 142.721512
  endloop
 endfacet
 facet normal -0.000003 -0.548293 0.836286
  outer loop
   vertex -165.410751 -74.024284 142.721512
   vertex -164.993774 -74.233353 142.584442
   vertex -164.993774 -73.397064 143.132736
  endloop
 endfacet
 facet normal -0.000013 -0.548288 0.836290
  outer loop
   vertex -164.993774 -73.397064 143.132736
   vertex -165.593765 -73.871231 142.821854
   vertex -165.410751 -74.024284 142.721512
  endloop
 endfacet
 facet normal -0.000007 -0.548293 0.836286
  outer loop
   vertex -165.843765 -73.815208 142.858582
   vertex -165.593765 -73.871231 142.821854
   vertex -164.993774 -73.397064 143.132736
  endloop
 endfacet
 facet normal 0.000000 -0.548303 0.836279
  outer loop
   vertex -181.170654 -73.397064 143.132736
   vertex -180.320663 -73.815208 142.858582
   vertex -179.470657 -73.397064 143.132736
  endloop
 endfacet
 facet normal -0.000007 -0.548293 0.836286
  outer loop
   vertex -179.470657 -73.397064 143.132736
   vertex -180.320663 -73.815208 142.858582
   vertex -180.070663 -73.871231 142.821854
  endloop
 endfacet
 facet normal -0.000013 -0.548288 0.836290
  outer loop
   vertex -180.070663 -73.871231 142.821854
   vertex -179.887650 -74.024284 142.721512
   vertex -179.470657 -73.397064 143.132736
  endloop
 endfacet
 facet normal 0.000013 -0.548288 0.836290
  outer loop
   vertex -166.276779 -74.024284 142.721512
   vertex -166.093765 -73.871231 142.821854
   vertex -166.693771 -73.397064 143.132736
  endloop
 endfacet
 facet normal 0.000007 -0.548293 0.836286
  outer loop
   vertex -166.693771 -73.397064 143.132736
   vertex -166.093765 -73.871231 142.821854
   vertex -165.843765 -73.815208 142.858582
  endloop
 endfacet
 facet normal 0.000000 -0.548303 0.836279
  outer loop
   vertex -165.843765 -73.815208 142.858582
   vertex -164.993774 -73.397064 143.132736
   vertex -166.693771 -73.397064 143.132736
  endloop
 endfacet
 facet normal 0.000000 0.548289 -0.836289
  outer loop
   vertex -164.993774 -73.122925 142.714584
   vertex -165.843765 -73.541061 142.440445
   vertex -166.693771 -73.122925 142.714584
  endloop
 endfacet
 facet normal -0.000004 0.548283 -0.836293
  outer loop
   vertex -166.693771 -73.122925 142.714584
   vertex -165.843765 -73.541061 142.440445
   vertex -166.093765 -73.597084 142.403717
  endloop
 endfacet
 facet normal -0.000006 0.548282 -0.836294
  outer loop
   vertex -166.093765 -73.597084 142.403717
   vertex -166.276779 -73.750137 142.303375
   vertex -166.693771 -73.122925 142.714584
  endloop
 endfacet
 facet normal 0.000006 0.548282 -0.836294
  outer loop
   vertex -179.887650 -73.750137 142.303375
   vertex -180.070663 -73.597084 142.403717
   vertex -179.470657 -73.122925 142.714584
  endloop
 endfacet
 facet normal 0.000004 0.548283 -0.836293
  outer loop
   vertex -179.470657 -73.122925 142.714584
   vertex -180.070663 -73.597084 142.403717
   vertex -180.320663 -73.541061 142.440445
  endloop
 endfacet
 facet normal 0.000002 0.548286 -0.836291
  outer loop
   vertex -180.320663 -73.541061 142.440445
   vertex -181.170654 -73.122917 142.714584
   vertex -179.470657 -73.122925 142.714584
  endloop
 endfacet
 facet normal 0.000000 -0.076480 -0.997071
  outer loop
   vertex -167.835190 -75.151459 140.689270
   vertex -167.835190 -75.256096 140.697296
   vertex -168.993896 -75.151459 140.689270
  endloop
 endfacet
 facet normal -0.000000 -0.076480 -0.997071
  outer loop
   vertex -168.993896 -75.151459 140.689270
   vertex -167.835190 -75.256096 140.697296
   vertex -168.993896 -75.256096 140.697296
  endloop
 endfacet
 facet normal 0.000000 -0.548296 0.836284
  outer loop
   vertex -178.082214 -75.396545 142.421463
   vertex -178.082214 -75.909630 142.085068
   vertex -168.082214 -75.396545 142.421463
  endloop
 endfacet
 facet normal -0.000000 -0.548296 0.836284
  outer loop
   vertex -168.082214 -75.396545 142.421463
   vertex -178.082214 -75.909630 142.085068
   vertex -168.082214 -75.909630 142.085068
  endloop
 endfacet
 facet normal 0.000000 -0.944842 0.327525
  outer loop
   vertex -177.170532 -76.097649 141.980881
   vertex -177.170532 -76.063278 142.080032
   vertex -178.329239 -76.097649 141.980881
  endloop
 endfacet
 facet normal -0.000000 -0.944842 0.327525
  outer loop
   vertex -178.329239 -76.097649 141.980881
   vertex -177.170532 -76.063278 142.080032
   vertex -178.329239 -76.063278 142.080032
  endloop
 endfacet
 facet normal -0.000000 -0.836284 -0.548296
  outer loop
   vertex -165.343765 -73.959206 142.166290
   vertex -164.993774 -73.959206 142.166290
   vertex -165.168777 -74.096283 142.375366
  endloop
 endfacet
 facet normal 1.000000 0.000000 0.000000
  outer loop
   vertex -167.835190 -75.359436 142.541489
   vertex -167.835190 -74.447617 141.150726
   vertex -167.835190 -74.810814 142.600693
  endloop
 endfacet
 facet normal 0.000000 -0.548289 0.836289
  outer loop
   vertex -166.693771 -74.233353 142.584442
   vertex -166.343765 -74.233353 142.584442
   vertex -166.276779 -74.024284 142.721512
  endloop
 endfacet
 facet normal 0.000000 -0.548289 0.836289
  outer loop
   vertex -179.820663 -74.233353 142.584442
   vertex -179.470657 -74.233353 142.584442
   vertex -179.887650 -74.024284 142.721512
  endloop
 endfacet
 facet normal -0.000000 0.836291 0.548286
  outer loop
   vertex -164.993774 -73.959206 142.166290
   vertex -165.343765 -74.233353 142.584442
   vertex -164.993774 -74.233353 142.584442
  endloop
 endfacet
 facet normal 0.000000 0.548297 -0.836283
  outer loop
   vertex -178.082962 -74.304939 141.571960
   vertex -179.731125 -74.304939 141.571960
   vertex -179.731125 -73.016182 142.416916
  endloop
 endfacet
 facet normal 0.000000 -0.548295 0.836285
  outer loop
   vertex -168.081467 -73.627487 143.349319
   vertex -168.081467 -74.916252 142.504364
   vertex -166.433304 -73.627487 143.349319
  endloop
 endfacet
 facet normal 0.000000 0.836291 0.548286
  outer loop
   vertex -181.170654 -74.233353 142.584442
   vertex -180.820663 -73.959206 142.166290
   vertex -181.170654 -73.959206 142.166290
  endloop
 endfacet
 facet normal -1.000000 0.000000 0.000000
  outer loop
   vertex -178.329239 -75.256096 140.697296
   vertex -178.329239 -75.343254 140.830231
   vertex -178.329239 -75.268784 140.896637
  endloop
 endfacet
 facet normal 0.000000 0.836291 0.548286
  outer loop
   vertex -166.343765 -74.233353 142.584442
   vertex -166.693771 -73.959206 142.166290
   vertex -166.693771 -74.233353 142.584442
  endloop
 endfacet
 facet normal -1.000000 0.000000 0.000000
  outer loop
   vertex -178.329239 -74.447617 141.150726
   vertex -178.329239 -75.359436 142.541489
   vertex -178.329239 -74.174561 141.630249
  endloop
 endfacet
 facet normal 1.000000 0.000000 -0.000000
  outer loop
   vertex -167.835190 -76.097649 141.980881
   vertex -167.835190 -76.010490 141.847946
   vertex -167.835190 -75.919891 141.889755
  endloop
 endfacet
 facet normal 0.000000 0.548297 -0.836283
  outer loop
   vertex -168.081467 -74.304939 141.571960
   vertex -168.081467 -73.016182 142.416916
   vertex -166.433304 -73.016182 142.416916
  endloop
 endfacet
 facet normal 1.000000 0.000000 0.000000
  outer loop
   vertex -178.082962 -73.016182 142.416916
   vertex -178.082962 -73.627487 143.349319
   vertex -178.082962 -74.916252 142.504379
  endloop
 endfacet
 facet normal 0.000000 0.836291 0.548286
  outer loop
   vertex -179.820663 -73.959206 142.166290
   vertex -179.470657 -74.233353 142.584442
   vertex -179.470657 -73.959206 142.166290
  endloop
 endfacet
 facet normal 0.000000 0.548332 -0.836261
  outer loop
   vertex -179.470657 -73.959206 142.166290
   vertex -179.820663 -73.959206 142.166290
   vertex -179.887650 -73.750137 142.303375
  endloop
 endfacet
 facet normal -0.707105 -0.591342 -0.387707
  outer loop
   vertex -180.070663 -73.597084 142.403717
   vertex -179.887650 -74.024284 142.721512
   vertex -180.070663 -73.871231 142.821854
  endloop
 endfacet
 facet normal -0.258824 -0.807785 -0.529616
  outer loop
   vertex -180.070663 -73.597084 142.403717
   vertex -180.070663 -73.871231 142.821854
   vertex -180.320663 -73.541061 142.440445
  endloop
 endfacet
 facet normal -0.258824 -0.807785 -0.529616
  outer loop
   vertex -180.320663 -73.541061 142.440445
   vertex -180.070663 -73.871231 142.821854
   vertex -180.320663 -73.815208 142.858582
  endloop
 endfacet
 facet normal 0.258824 -0.807785 -0.529616
  outer loop
   vertex -180.320663 -73.815208 142.858582
   vertex -180.570663 -73.597084 142.403717
   vertex -180.320663 -73.541061 142.440445
  endloop
 endfacet
 facet normal 0.258824 -0.807785 -0.529616
  outer loop
   vertex -180.570663 -73.871231 142.821854
   vertex -180.570663 -73.597084 142.403717
   vertex -180.320663 -73.815208 142.858582
  endloop
 endfacet
 facet normal 0.707105 -0.591342 -0.387707
  outer loop
   vertex -180.753677 -73.750137 142.303375
   vertex -180.570663 -73.597084 142.403717
   vertex -180.570663 -73.871231 142.821854
  endloop
 endfacet
 facet normal 0.707105 -0.591342 -0.387707
  outer loop
   vertex -180.570663 -73.871231 142.821854
   vertex -180.753677 -74.024284 142.721512
   vertex -180.753677 -73.750137 142.303375
  endloop
 endfacet
 facet normal 0.965928 -0.216439 -0.141906
  outer loop
   vertex -180.753677 -73.750137 142.303375
   vertex -180.753677 -74.024284 142.721512
   vertex -180.820663 -73.959206 142.166290
  endloop
 endfacet
 facet normal -0.965926 -0.216448 -0.141907
  outer loop
   vertex -165.343765 -73.959206 142.166290
   vertex -165.343765 -74.233353 142.584442
   vertex -165.410751 -73.750137 142.303360
  endloop
 endfacet
 facet normal -0.965926 -0.216448 -0.141907
  outer loop
   vertex -165.410751 -73.750137 142.303360
   vertex -165.343765 -74.233353 142.584442
   vertex -165.410751 -74.024284 142.721512
  endloop
 endfacet
 facet normal -0.707121 -0.591335 -0.387689
  outer loop
   vertex -165.410751 -74.024284 142.721512
   vertex -165.593765 -73.597084 142.403717
   vertex -165.410751 -73.750137 142.303360
  endloop
 endfacet
 facet normal -0.707105 -0.591342 -0.387707
  outer loop
   vertex -165.593765 -73.871231 142.821854
   vertex -165.593765 -73.597084 142.403717
   vertex -165.410751 -74.024284 142.721512
  endloop
 endfacet
 facet normal -0.258824 -0.807785 -0.529616
  outer loop
   vertex -165.843765 -73.541061 142.440445
   vertex -165.593765 -73.597084 142.403717
   vertex -165.593765 -73.871231 142.821854
  endloop
 endfacet
 facet normal -0.258824 -0.807785 -0.529616
  outer loop
   vertex -165.593765 -73.871231 142.821854
   vertex -165.843765 -73.815208 142.858582
   vertex -165.843765 -73.541061 142.440445
  endloop
 endfacet
 facet normal 0.258824 -0.807785 -0.529616
  outer loop
   vertex -165.843765 -73.541061 142.440445
   vertex -165.843765 -73.815208 142.858582
   vertex -166.093765 -73.597084 142.403717
  endloop
 endfacet
 facet normal 0.258824 -0.807785 -0.529616
  outer loop
   vertex -166.093765 -73.597084 142.403717
   vertex -165.843765 -73.815208 142.858582
   vertex -166.093765 -73.871231 142.821854
  endloop
 endfacet
 facet normal 0.707105 -0.591342 -0.387707
  outer loop
   vertex -166.093765 -73.871231 142.821854
   vertex -166.276779 -73.750137 142.303375
   vertex -166.093765 -73.597084 142.403717
  endloop
 endfacet
 facet normal 0.965927 -0.216446 -0.141905
  outer loop
   vertex -179.470657 -73.959206 142.166290
   vertex -179.470657 -74.233353 142.584442
   vertex -179.584534 -74.314629 141.933273
  endloop
 endfacet
 facet normal 0.965928 -0.216439 -0.141906
  outer loop
   vertex -179.584534 -74.314629 141.933273
   vertex -179.470657 -74.233353 142.584442
   vertex -179.584534 -74.588776 142.351410
  endloop
 endfacet
 facet normal 0.707104 -0.591343 -0.387708
  outer loop
   vertex -179.584534 -74.588776 142.351410
   vertex -179.895660 -74.574814 141.762680
   vertex -179.584534 -74.314629 141.933273
  endloop
 endfacet
 facet normal 0.707095 -0.591357 -0.387703
  outer loop
   vertex -179.895660 -74.848961 142.180832
   vertex -179.895660 -74.574814 141.762680
   vertex -179.584534 -74.588776 142.351410
  endloop
 endfacet
 facet normal 0.258823 -0.807794 -0.529603
  outer loop
   vertex -180.320663 -74.670052 141.700241
   vertex -179.895660 -74.574814 141.762680
   vertex -179.895660 -74.848961 142.180832
  endloop
 endfacet
 facet normal 0.258823 -0.807794 -0.529603
  outer loop
   vertex -179.895660 -74.848961 142.180832
   vertex -180.320663 -74.944199 142.118393
   vertex -180.320663 -74.670052 141.700241
  endloop
 endfacet
 facet normal -0.258831 -0.807792 -0.529602
  outer loop
   vertex -180.320663 -74.670052 141.700241
   vertex -180.320663 -74.944199 142.118393
   vertex -180.745651 -74.574814 141.762680
  endloop
 endfacet
 facet normal -0.258831 -0.807792 -0.529602
  outer loop
   vertex -180.745651 -74.574814 141.762680
   vertex -180.320663 -74.944199 142.118393
   vertex -180.745651 -74.848961 142.180832
  endloop
 endfacet
 facet normal -0.707104 -0.591349 -0.387698
  outer loop
   vertex -180.745651 -74.848961 142.180832
   vertex -181.056778 -74.314629 141.933273
   vertex -180.745651 -74.574814 141.762680
  endloop
 endfacet
 facet normal -0.707095 -0.591351 -0.387713
  outer loop
   vertex -181.056778 -74.588776 142.351410
   vertex -181.056778 -74.314629 141.933273
   vertex -180.745651 -74.848961 142.180832
  endloop
 endfacet
 facet normal -0.965927 -0.216443 -0.141909
  outer loop
   vertex -181.170654 -73.959206 142.166290
   vertex -181.056778 -74.314629 141.933273
   vertex -181.056778 -74.588776 142.351410
  endloop
 endfacet
 facet normal -0.965928 -0.216442 -0.141903
  outer loop
   vertex -181.056778 -74.588776 142.351410
   vertex -181.170654 -74.233353 142.584442
   vertex -181.170654 -73.959206 142.166290
  endloop
 endfacet
 facet normal 0.965927 -0.216446 -0.141905
  outer loop
   vertex -164.993774 -73.959206 142.166290
   vertex -164.993774 -74.233353 142.584442
   vertex -165.107651 -74.314629 141.933273
  endloop
 endfacet
 facet normal 0.965928 -0.216439 -0.141906
  outer loop
   vertex -165.107651 -74.314629 141.933273
   vertex -164.993774 -74.233353 142.584442
   vertex -165.107651 -74.588776 142.351410
  endloop
 endfacet
 facet normal 0.707104 -0.591343 -0.387708
  outer loop
   vertex -165.107651 -74.588776 142.351410
   vertex -165.418777 -74.574814 141.762680
   vertex -165.107651 -74.314629 141.933273
  endloop
 endfacet
 facet normal 0.707095 -0.591357 -0.387703
  outer loop
   vertex -165.418777 -74.848961 142.180832
   vertex -165.418777 -74.574814 141.762680
   vertex -165.107651 -74.588776 142.351410
  endloop
 endfacet
 facet normal 0.258831 -0.807792 -0.529602
  outer loop
   vertex -165.843765 -74.670052 141.700241
   vertex -165.418777 -74.574814 141.762680
   vertex -165.418777 -74.848961 142.180832
  endloop
 endfacet
 facet normal 0.258831 -0.807792 -0.529602
  outer loop
   vertex -165.418777 -74.848961 142.180832
   vertex -165.843765 -74.944199 142.118393
   vertex -165.843765 -74.670052 141.700241
  endloop
 endfacet
 facet normal -0.258823 -0.807794 -0.529603
  outer loop
   vertex -165.843765 -74.670052 141.700241
   vertex -165.843765 -74.944199 142.118393
   vertex -166.268768 -74.574814 141.762680
  endloop
 endfacet
 facet normal -0.258823 -0.807794 -0.529603
  outer loop
   vertex -166.268768 -74.574814 141.762680
   vertex -165.843765 -74.944199 142.118393
   vertex -166.268768 -74.848961 142.180832
  endloop
 endfacet
 facet normal -0.707104 -0.591349 -0.387698
  outer loop
   vertex -166.268768 -74.848961 142.180832
   vertex -166.579895 -74.314629 141.933273
   vertex -166.268768 -74.574814 141.762680
  endloop
 endfacet
 facet normal -0.707095 -0.591351 -0.387713
  outer loop
   vertex -166.579895 -74.588776 142.351410
   vertex -166.579895 -74.314629 141.933273
   vertex -166.268768 -74.848961 142.180832
  endloop
 endfacet
 facet normal -0.965927 -0.216443 -0.141909
  outer loop
   vertex -166.693771 -73.959206 142.166290
   vertex -166.579895 -74.314629 141.933273
   vertex -166.579895 -74.588776 142.351410
  endloop
 endfacet
 facet normal -0.965928 -0.216442 -0.141903
  outer loop
   vertex -166.579895 -74.588776 142.351410
   vertex -166.693771 -74.233353 142.584442
   vertex -166.693771 -73.959206 142.166290
  endloop
 endfacet
 facet normal 0.707105 -0.591342 -0.387707
  outer loop
   vertex -166.093765 -73.871231 142.821854
   vertex -166.276779 -74.024284 142.721512
   vertex -166.276779 -73.750137 142.303375
  endloop
 endfacet
 facet normal 0.965926 -0.216446 -0.141911
  outer loop
   vertex -166.276779 -73.750137 142.303375
   vertex -166.276779 -74.024284 142.721512
   vertex -166.343765 -74.233353 142.584442
  endloop
 endfacet
 facet normal 0.965928 -0.216441 -0.141902
  outer loop
   vertex -166.343765 -74.233353 142.584442
   vertex -166.343765 -73.959206 142.166290
   vertex -166.276779 -73.750137 142.303375
  endloop
 endfacet
 facet normal 0.965930 0.216436 0.141899
  outer loop
   vertex -166.276779 -74.442429 142.447357
   vertex -166.343765 -73.959206 142.166290
   vertex -166.343765 -74.233353 142.584442
  endloop
 endfacet
 facet normal 0.965927 0.216441 0.141907
  outer loop
   vertex -166.276779 -74.168282 142.029221
   vertex -166.343765 -73.959206 142.166290
   vertex -166.276779 -74.442429 142.447357
  endloop
 endfacet
 facet normal 0.707093 0.591352 0.387714
  outer loop
   vertex -166.276779 -74.442429 142.447357
   vertex -166.093765 -74.595474 142.347015
   vertex -166.276779 -74.168282 142.029221
  endloop
 endfacet
 facet normal 0.707093 0.591352 0.387714
  outer loop
   vertex -166.276779 -74.168282 142.029221
   vertex -166.093765 -74.595474 142.347015
   vertex -166.093765 -74.321327 141.928879
  endloop
 endfacet
 facet normal 0.258824 0.807785 0.529616
  outer loop
   vertex -166.093765 -74.321327 141.928879
   vertex -166.093765 -74.595474 142.347015
   vertex -165.843765 -74.651497 142.310287
  endloop
 endfacet
 facet normal 0.258824 0.807785 0.529616
  outer loop
   vertex -165.843765 -74.651497 142.310287
   vertex -165.843765 -74.377350 141.892151
   vertex -166.093765 -74.321327 141.928879
  endloop
 endfacet
 facet normal -0.258824 0.807785 0.529616
  outer loop
   vertex -165.593765 -74.595474 142.347015
   vertex -165.843765 -74.377350 141.892151
   vertex -165.843765 -74.651497 142.310287
  endloop
 endfacet
 facet normal -0.258824 0.807785 0.529616
  outer loop
   vertex -165.593765 -74.321327 141.928879
   vertex -165.843765 -74.377350 141.892151
   vertex -165.593765 -74.595474 142.347015
  endloop
 endfacet
 facet normal -0.707093 0.591352 0.387714
  outer loop
   vertex -165.593765 -74.595474 142.347015
   vertex -165.410751 -74.442429 142.447357
   vertex -165.593765 -74.321327 141.928879
  endloop
 endfacet
 facet normal -0.707093 0.591352 0.387714
  outer loop
   vertex -165.593765 -74.321327 141.928879
   vertex -165.410751 -74.442429 142.447357
   vertex -165.410751 -74.168282 142.029221
  endloop
 endfacet
 facet normal -0.965930 0.216434 0.141903
  outer loop
   vertex -165.410751 -74.168282 142.029221
   vertex -165.410751 -74.442429 142.447357
   vertex -165.343765 -74.233353 142.584442
  endloop
 endfacet
 facet normal -0.965927 0.216443 0.141904
  outer loop
   vertex -165.343765 -74.233353 142.584442
   vertex -165.343765 -73.959206 142.166290
   vertex -165.410751 -74.168282 142.029221
  endloop
 endfacet
 facet normal -0.707105 -0.591342 -0.387707
  outer loop
   vertex -180.070663 -73.597084 142.403717
   vertex -179.887650 -73.750137 142.303375
   vertex -179.887650 -74.024284 142.721512
  endloop
 endfacet
 facet normal -0.965928 -0.216439 -0.141906
  outer loop
   vertex -179.887650 -74.024284 142.721512
   vertex -179.887650 -73.750137 142.303375
   vertex -179.820663 -73.959206 142.166290
  endloop
 endfacet
 facet normal -0.965926 -0.216448 -0.141907
  outer loop
   vertex -179.820663 -73.959206 142.166290
   vertex -179.820663 -74.233353 142.584442
   vertex -179.887650 -74.024284 142.721512
  endloop
 endfacet
 facet normal -0.965927 0.216443 0.141904
  outer loop
   vertex -179.887650 -74.168282 142.029221
   vertex -179.820663 -74.233353 142.584442
   vertex -179.820663 -73.959206 142.166290
  endloop
 endfacet
 facet normal -0.965927 0.216443 0.141904
  outer loop
   vertex -179.887650 -74.442429 142.447372
   vertex -179.820663 -74.233353 142.584442
   vertex -179.887650 -74.168282 142.029221
  endloop
 endfacet
 facet normal -0.707093 0.591359 0.387704
  outer loop
   vertex -179.887650 -74.168282 142.029221
   vertex -180.070663 -74.321327 141.928879
   vertex -179.887650 -74.442429 142.447372
  endloop
 endfacet
 facet normal -0.707109 0.591339 0.387705
  outer loop
   vertex -179.887650 -74.442429 142.447372
   vertex -180.070663 -74.321327 141.928879
   vertex -180.070663 -74.595474 142.347015
  endloop
 endfacet
 facet normal -0.258824 0.807785 0.529616
  outer loop
   vertex -180.070663 -74.595474 142.347015
   vertex -180.070663 -74.321327 141.928879
   vertex -180.320663 -74.377350 141.892151
  endloop
 endfacet
 facet normal -0.258824 0.807785 0.529616
  outer loop
   vertex -180.320663 -74.377350 141.892151
   vertex -180.320663 -74.651497 142.310287
   vertex -180.070663 -74.595474 142.347015
  endloop
 endfacet
 facet normal 0.258824 0.807785 0.529616
  outer loop
   vertex -180.570663 -74.321327 141.928879
   vertex -180.320663 -74.651497 142.310287
   vertex -180.320663 -74.377350 141.892151
  endloop
 endfacet
 facet normal 0.258824 0.807785 0.529616
  outer loop
   vertex -180.570663 -74.595474 142.347015
   vertex -180.320663 -74.651497 142.310287
   vertex -180.570663 -74.321327 141.928879
  endloop
 endfacet
 facet normal 0.707093 0.591352 0.387714
  outer loop
   vertex -180.570663 -74.321327 141.928879
   vertex -180.753677 -74.168282 142.029221
   vertex -180.570663 -74.595474 142.347015
  endloop
 endfacet
 facet normal 0.707109 0.591345 0.387695
  outer loop
   vertex -180.570663 -74.595474 142.347015
   vertex -180.753677 -74.168282 142.029221
   vertex -180.753677 -74.442429 142.447372
  endloop
 endfacet
 facet normal 0.965927 0.216443 0.141904
  outer loop
   vertex -180.753677 -74.442429 142.447372
   vertex -180.753677 -74.168282 142.029221
   vertex -180.820663 -73.959206 142.166290
  endloop
 endfacet
 facet normal 0.965927 0.216443 0.141904
  outer loop
   vertex -180.820663 -73.959206 142.166290
   vertex -180.820663 -74.233353 142.584442
   vertex -180.753677 -74.442429 142.447372
  endloop
 endfacet
 facet normal 0.965926 -0.216448 -0.141907
  outer loop
   vertex -180.753677 -74.024284 142.721512
   vertex -180.820663 -74.233353 142.584442
   vertex -180.820663 -73.959206 142.166290
  endloop
 endfacet
endsolid