solid stl file generated from DOUG
 facet normal 0.000000 0.608742 -0.793368
  outer loop
   vertex -108.986412 82.860695 212.748322
   vertex -109.487587 82.860695 212.748322
   vertex -108.986412 83.059502 212.900864
  endloop
 endfacet
 facet normal -0.000000 0.608742 -0.793368
  outer loop
   vertex -108.986412 83.059502 212.900864
   vertex -109.487587 82.860695 212.748322
   vertex -109.487587 83.059502 212.900864
  endloop
 endfacet
 facet normal 0.000000 0.991445 0.130522
  outer loop
   vertex -109.487587 83.059502 212.900864
   vertex -108.986412 83.026794 213.149307
   vertex -108.986412 83.059502 212.900864
  endloop
 endfacet
 facet normal 0.000000 0.991445 0.130522
  outer loop
   vertex -109.487587 83.026794 213.149307
   vertex -108.986412 83.026794 213.149307
   vertex -109.487587 83.059502 212.900864
  endloop
 endfacet
 facet normal 0.000000 0.382701 0.923872
  outer loop
   vertex -108.986412 82.795280 213.245209
   vertex -108.986412 83.026794 213.149307
   vertex -109.487587 83.026794 213.149307
  endloop
 endfacet
 facet normal -0.000000 0.382701 0.923872
  outer loop
   vertex -109.487587 83.026794 213.149307
   vertex -109.487587 82.795280 213.245209
   vertex -108.986412 82.795280 213.245209
  endloop
 endfacet
 facet normal 0.000000 -0.608795 0.793327
  outer loop
   vertex -108.986412 82.795280 213.245209
   vertex -109.487587 82.795280 213.245209
   vertex -108.986412 82.596481 213.092651
  endloop
 endfacet
 facet normal -0.000000 -0.608795 0.793327
  outer loop
   vertex -108.986412 82.596481 213.092651
   vertex -109.487587 82.795280 213.245209
   vertex -109.487587 82.596481 213.092651
  endloop
 endfacet
 facet normal 0.000000 -0.991445 -0.130522
  outer loop
   vertex -109.487587 82.596481 213.092651
   vertex -108.986412 82.629189 212.844208
   vertex -108.986412 82.596481 213.092651
  endloop
 endfacet
 facet normal -0.000000 -0.991445 -0.130522
  outer loop
   vertex -109.487587 82.629189 212.844208
   vertex -108.986412 82.629189 212.844208
   vertex -109.487587 82.596481 213.092651
  endloop
 endfacet
 facet normal -0.000000 -0.382660 -0.923889
  outer loop
   vertex -108.986412 82.860695 212.748322
   vertex -108.986412 82.629189 212.844208
   vertex -109.487587 82.629189 212.844208
  endloop
 endfacet
 facet normal 0.000000 -0.382660 -0.923889
  outer loop
   vertex -109.487587 82.629189 212.844208
   vertex -109.487587 82.860695 212.748322
   vertex -108.986412 82.860695 212.748322
  endloop
 endfacet
 facet normal 0.000000 0.382660 0.923889
  outer loop
   vertex -109.487595 85.679298 191.338928
   vertex -108.986420 85.679298 191.338928
   vertex -109.487595 85.910805 191.243042
  endloop
 endfacet
 facet normal -0.000000 0.382660 0.923889
  outer loop
   vertex -109.487595 85.910805 191.243042
   vertex -108.986420 85.679298 191.338928
   vertex -108.986420 85.910805 191.243042
  endloop
 endfacet
 facet normal 0.000000 0.991445 0.130522
  outer loop
   vertex -108.986420 85.910805 191.243042
   vertex -109.487595 85.943512 190.994598
   vertex -109.487595 85.910805 191.243042
  endloop
 endfacet
 facet normal -0.000000 0.991445 0.130522
  outer loop
   vertex -108.986420 85.943512 190.994598
   vertex -109.487595 85.943512 190.994598
   vertex -108.986420 85.910805 191.243042
  endloop
 endfacet
 facet normal 0.000000 0.608795 -0.793327
  outer loop
   vertex -109.487595 85.744713 190.842041
   vertex -109.487595 85.943512 190.994598
   vertex -108.986420 85.943512 190.994598
  endloop
 endfacet
 facet normal -0.000000 0.608795 -0.793327
  outer loop
   vertex -108.986420 85.943512 190.994598
   vertex -108.986420 85.744713 190.842041
   vertex -109.487595 85.744713 190.842041
  endloop
 endfacet
 facet normal -0.000000 -0.382701 -0.923872
  outer loop
   vertex -109.487595 85.744713 190.842041
   vertex -108.986420 85.744713 190.842041
   vertex -109.487595 85.513199 190.937943
  endloop
 endfacet
 facet normal -0.000000 -0.382701 -0.923872
  outer loop
   vertex -109.487595 85.513199 190.937943
   vertex -108.986420 85.744713 190.842041
   vertex -108.986420 85.513199 190.937943
  endloop
 endfacet
 facet normal 0.000000 -0.991445 -0.130522
  outer loop
   vertex -108.986420 85.513199 190.937943
   vertex -109.487595 85.480492 191.186386
   vertex -109.487595 85.513199 190.937943
  endloop
 endfacet
 facet normal 0.000000 -0.991445 -0.130522
  outer loop
   vertex -108.986420 85.480492 191.186386
   vertex -109.487595 85.480492 191.186386
   vertex -108.986420 85.513199 190.937943
  endloop
 endfacet
 facet normal 0.000000 -0.608742 0.793368
  outer loop
   vertex -109.487595 85.679298 191.338928
   vertex -109.487595 85.480492 191.186386
   vertex -108.986420 85.480492 191.186386
  endloop
 endfacet
 facet normal -0.000000 -0.608742 0.793368
  outer loop
   vertex -108.986420 85.480492 191.186386
   vertex -108.986420 85.679298 191.338928
   vertex -109.487595 85.679298 191.338928
  endloop
 endfacet
 facet normal 1.000000 0.000000 0.000000
  outer loop
   vertex -108.986420 85.943512 190.994598
   vertex -108.986420 85.910805 191.243042
   vertex -108.986420 85.712006 191.090485
  endloop
 endfacet
 facet normal 1.000000 0.000000 -0.000000
  outer loop
   vertex -108.986420 85.712006 191.090485
   vertex -108.986420 85.910805 191.243042
   vertex -108.986420 85.679298 191.338928
  endloop
 endfacet
 facet normal 1.000000 -0.000000 0.000000
  outer loop
   vertex -108.986420 85.679298 191.338928
   vertex -108.986420 85.480492 191.186386
   vertex -108.986420 85.712006 191.090485
  endloop
 endfacet
 facet normal 1.000000 0.000000 0.000000
  outer loop
   vertex -108.986412 82.629189 212.844208
   vertex -108.986412 82.860695 212.748322
   vertex -108.986412 82.827988 212.996765
  endloop
 endfacet
 facet normal 1.000000 -0.000000 -0.000000
  outer loop
   vertex -108.986412 82.827988 212.996765
   vertex -108.986412 82.860695 212.748322
   vertex -108.986412 83.059502 212.900864
  endloop
 endfacet
 facet normal 1.000000 0.000000 0.000000
  outer loop
   vertex -108.986412 83.059502 212.900864
   vertex -108.986412 83.026794 213.149307
   vertex -108.986412 82.827988 212.996765
  endloop
 endfacet
 facet normal 1.000000 0.000000 0.000000
  outer loop
   vertex -108.986412 83.026794 213.149307
   vertex -108.986412 82.795280 213.245209
   vertex -108.986412 82.827988 212.996765
  endloop
 endfacet
 facet normal 1.000000 -0.000000 0.000000
  outer loop
   vertex -108.986412 82.827988 212.996765
   vertex -108.986412 82.795280 213.245209
   vertex -108.986412 82.596481 213.092651
  endloop
 endfacet
 facet normal 1.000000 0.000000 -0.000000
  outer loop
   vertex -108.986412 82.596481 213.092651
   vertex -108.986412 82.629189 212.844208
   vertex -108.986412 82.827988 212.996765
  endloop
 endfacet
 facet normal 1.000000 0.000000 -0.000000
  outer loop
   vertex -108.986420 85.480492 191.186386
   vertex -108.986420 85.513199 190.937943
   vertex -108.986420 85.712006 191.090485
  endloop
 endfacet
 facet normal 1.000000 -0.000000 -0.000000
  outer loop
   vertex -108.986420 85.712006 191.090485
   vertex -108.986420 85.513199 190.937943
   vertex -108.986420 85.744713 190.842041
  endloop
 endfacet
 facet normal 1.000000 0.000000 0.000000
  outer loop
   vertex -108.986420 85.744713 190.842041
   vertex -108.986420 85.943512 190.994598
   vertex -108.986420 85.712006 191.090485
  endloop
 endfacet
 facet normal 1.000000 0.000000 0.000000
  outer loop
   vertex -111.021194 82.398361 211.471024
   vertex -111.021194 83.637863 211.634216
   vertex -111.021194 82.007904 214.436844
  endloop
 endfacet
 facet normal 1.000000 -0.000000 -0.000000
  outer loop
   vertex -111.021194 82.007904 214.436844
   vertex -111.021194 83.637863 211.634216
   vertex -111.021194 83.247406 214.600021
  endloop
 endfacet
 facet normal 0.000000 -0.130521 0.991445
  outer loop
   vertex -111.021194 83.247406 214.600021
   vertex -112.409775 82.007904 214.436844
   vertex -111.021194 82.007904 214.436844
  endloop
 endfacet
 facet normal -0.000000 -0.130521 0.991445
  outer loop
   vertex -112.409775 83.247406 214.600021
   vertex -112.409775 82.007904 214.436844
   vertex -111.021194 83.247406 214.600021
  endloop
 endfacet
 facet normal -1.000000 0.000000 0.000000
  outer loop
   vertex -112.409775 83.637863 211.634216
   vertex -112.409775 82.007904 214.436844
   vertex -112.409775 83.247406 214.600021
  endloop
 endfacet
 facet normal 0.000000 0.991445 0.130527
  outer loop
   vertex -112.409775 83.247406 214.600021
   vertex -111.021194 83.637863 211.634216
   vertex -112.409775 83.637863 211.634216
  endloop
 endfacet
 facet normal 0.000000 0.130533 -0.991444
  outer loop
   vertex -112.409775 83.637863 211.634216
   vertex -111.021194 83.637863 211.634216
   vertex -112.409775 82.398361 211.471024
  endloop
 endfacet
 facet normal -0.000000 0.130533 -0.991444
  outer loop
   vertex -112.409775 82.398361 211.471024
   vertex -111.021194 83.637863 211.634216
   vertex -111.021194 82.398361 211.471024
  endloop
 endfacet
 facet normal 0.000000 -0.991445 -0.130526
  outer loop
   vertex -111.021194 82.398361 211.471024
   vertex -112.409775 82.007904 214.436844
   vertex -112.409775 82.398361 211.471024
  endloop
 endfacet
 facet normal 0.000000 -0.991445 -0.130526
  outer loop
   vertex -111.021194 82.007904 214.436844
   vertex -112.409775 82.007904 214.436844
   vertex -111.021194 82.398361 211.471024
  endloop
 endfacet
 facet normal 0.000000 0.130521 -0.991445
  outer loop
   vertex -112.409782 85.292587 189.487228
   vertex -112.409782 86.532089 189.650406
   vertex -111.021202 85.292587 189.487228
  endloop
 endfacet
 facet normal -0.000000 0.130521 -0.991445
  outer loop
   vertex -111.021202 85.292587 189.487228
   vertex -112.409782 86.532089 189.650406
   vertex -111.021202 86.532089 189.650406
  endloop
 endfacet
 facet normal 1.000000 0.000000 0.000000
  outer loop
   vertex -111.021202 86.532089 189.650406
   vertex -111.021202 84.902130 192.453033
   vertex -111.021202 85.292587 189.487228
  endloop
 endfacet
 facet normal 1.000000 -0.000000 -0.000000
  outer loop
   vertex -111.021202 86.141632 192.616226
   vertex -111.021202 84.902130 192.453033
   vertex -111.021202 86.532089 189.650406
  endloop
 endfacet
 facet normal 0.000000 -0.130533 0.991444
  outer loop
   vertex -112.409782 86.141632 192.616226
   vertex -111.021202 84.902130 192.453033
   vertex -111.021202 86.141632 192.616226
  endloop
 endfacet
 facet normal -0.000000 0.991445 0.130526
  outer loop
   vertex -111.021202 86.141632 192.616226
   vertex -112.409782 86.532089 189.650406
   vertex -112.409782 86.141632 192.616226
  endloop
 endfacet
 facet normal -1.000000 0.000000 0.000000
  outer loop
   vertex -112.409782 86.141632 192.616226
   vertex -112.409782 86.532089 189.650406
   vertex -112.409782 84.902130 192.453033
  endloop
 endfacet
 facet normal -1.000000 -0.000000 -0.000000
  outer loop
   vertex -112.409782 84.902130 192.453033
   vertex -112.409782 86.532089 189.650406
   vertex -112.409782 85.292587 189.487228
  endloop
 endfacet
 facet normal -0.000000 -0.991445 -0.130527
  outer loop
   vertex -112.409782 85.292587 189.487228
   vertex -111.021202 84.902130 192.453033
   vertex -112.409782 84.902130 192.453033
  endloop
 endfacet
 facet normal -0.000000 -0.991445 -0.130527
  outer loop
   vertex -111.021202 85.292587 189.487228
   vertex -111.021202 84.902130 192.453033
   vertex -112.409782 85.292587 189.487228
  endloop
 endfacet
 facet normal 0.000000 0.991445 0.130526
  outer loop
   vertex -111.021202 86.141632 192.616226
   vertex -111.021202 86.532089 189.650406
   vertex -112.409782 86.532089 189.650406
  endloop
 endfacet
 facet normal 0.000000 0.991445 0.130527
  outer loop
   vertex -111.021194 83.247406 214.600021
   vertex -111.021194 83.637863 211.634216
   vertex -112.409775 83.247406 214.600021
  endloop
 endfacet
 facet normal 0.000000 -0.130533 0.991444
  outer loop
   vertex -112.409782 86.141632 192.616226
   vertex -112.409782 84.902130 192.453033
   vertex -111.021202 84.902130 192.453033
  endloop
 endfacet
 facet normal -1.000000 0.000000 0.000000
  outer loop
   vertex -112.409775 83.637863 211.634216
   vertex -112.409775 82.398361 211.471024
   vertex -112.409775 82.007904 214.436844
  endloop
 endfacet
 facet normal 1.000000 0.000000 -0.000000
  outer loop
   vertex -108.251335 82.211456 211.665756
   vertex -108.251343 84.880661 192.230881
   vertex -108.251335 82.320129 211.680054
  endloop
 endfacet
 facet normal 0.593773 0.797749 0.105025
  outer loop
   vertex -108.251335 82.320129 211.680054
   vertex -108.251343 84.880661 192.230881
   vertex -108.368233 82.405655 211.691315
  endloop
 endfacet
 facet normal 0.610570 0.785188 0.103368
  outer loop
   vertex -108.192177 86.213554 193.160385
   vertex -108.275291 86.428322 192.019943
   vertex -108.275291 86.277084 193.168747
  endloop
 endfacet
 facet normal 0.000000 0.991445 0.130522
  outer loop
   vertex -108.275291 86.277084 193.168747
   vertex -108.275291 86.428322 192.019943
   vertex -109.116920 86.428322 192.019943
  endloop
 endfacet
 facet normal 0.000000 -0.991445 -0.130522
  outer loop
   vertex -109.116913 82.111671 212.067307
   vertex -108.275284 82.262909 210.918503
   vertex -108.275284 82.111671 212.067307
  endloop
 endfacet
 facet normal 0.610605 -0.785161 -0.103365
  outer loop
   vertex -108.275284 82.111671 212.067307
   vertex -108.275284 82.262909 210.918503
   vertex -108.192177 82.326439 210.926865
  endloop
 endfacet
 facet normal 0.593798 -0.797731 -0.105023
  outer loop
   vertex -108.368233 86.134338 192.395935
   vertex -108.251343 86.219864 192.407196
   vertex -108.251335 83.659332 211.856369
  endloop
 endfacet
 facet normal 1.000000 0.000000 -0.000000
  outer loop
   vertex -108.251335 83.659332 211.856369
   vertex -108.251343 86.219864 192.407196
   vertex -108.251335 83.768005 211.870667
  endloop
 endfacet
 facet normal 0.933400 -0.355767 -0.046838
  outer loop
   vertex -109.020073 84.805222 192.220947
   vertex -109.020073 82.244690 211.670120
   vertex -109.032959 84.771988 192.216583
  endloop
 endfacet
 facet normal 0.933471 -0.355584 -0.046814
  outer loop
   vertex -109.032959 84.771988 192.216583
   vertex -109.020073 82.244690 211.670120
   vertex -109.032951 82.211456 211.665756
  endloop
 endfacet
 facet normal 0.000000 -0.991445 -0.130526
  outer loop
   vertex -109.032951 82.211456 211.665756
   vertex -109.103577 84.771988 192.216583
   vertex -109.032959 84.771988 192.216583
  endloop
 endfacet
 facet normal -0.000026 0.130543 -0.991443
  outer loop
   vertex -108.275291 84.779533 191.802872
   vertex -108.290871 85.015244 191.833908
   vertex -108.192184 84.843056 191.811234
  endloop
 endfacet
 facet normal -0.000029 0.130541 -0.991443
  outer loop
   vertex -108.192184 84.843056 191.811234
   vertex -108.290871 85.015244 191.833908
   vertex -108.192184 85.000664 191.831985
  endloop
 endfacet
 facet normal 1.000000 0.000001 -0.000007
  outer loop
   vertex -108.192184 85.000664 191.831985
   vertex -108.192177 84.691818 192.960037
   vertex -108.192184 84.843056 191.811234
  endloop
 endfacet
 facet normal -0.000026 -0.130543 0.991443
  outer loop
   vertex -108.275291 83.760460 212.284378
   vertex -108.290871 83.524750 212.253342
   vertex -108.192177 83.696938 212.276016
  endloop
 endfacet
 facet normal -0.000029 -0.130541 0.991443
  outer loop
   vertex -108.192177 83.696938 212.276016
   vertex -108.290871 83.524750 212.253342
   vertex -108.192177 83.539330 212.255264
  endloop
 endfacet
 facet normal 1.000000 0.000000 0.000000
  outer loop
   vertex -108.192177 83.539330 212.255264
   vertex -108.192177 83.848175 211.127213
   vertex -108.192177 83.696938 212.276016
  endloop
 endfacet
 facet normal -0.000029 -0.130541 0.991443
  outer loop
   vertex -108.192177 86.055946 193.139633
   vertex -108.192177 86.213554 193.160385
   vertex -108.290871 86.041367 193.137711
  endloop
 endfacet
 facet normal -0.000034 -0.130539 0.991443
  outer loop
   vertex -108.290871 86.041367 193.137711
   vertex -108.192177 86.213554 193.160385
   vertex -108.275291 86.277084 193.168747
  endloop
 endfacet
 facet normal 0.000000 -0.130541 0.991443
  outer loop
   vertex -108.275291 86.277084 193.168747
   vertex -109.116920 86.277084 193.168747
   vertex -108.290871 86.041367 193.137711
  endloop
 endfacet
 facet normal -0.000000 0.991445 0.130522
  outer loop
   vertex -109.116920 86.428322 192.019943
   vertex -109.116920 86.277084 193.168747
   vertex -108.275291 86.277084 193.168747
  endloop
 endfacet
 facet normal 0.593773 -0.797749 -0.105026
  outer loop
   vertex -108.251335 83.659332 211.856369
   vertex -108.368233 83.573807 211.845108
   vertex -108.368233 86.134338 192.395935
  endloop
 endfacet
 facet normal 1.000000 -0.000000 0.000000
  outer loop
   vertex -108.368233 86.134338 192.395935
   vertex -108.368233 83.573807 211.845108
   vertex -108.368233 82.405655 211.691315
  endloop
 endfacet
 facet normal 1.000000 0.000000 -0.000000
  outer loop
   vertex -108.368233 82.405655 211.691315
   vertex -108.368233 84.966187 192.242142
   vertex -108.368233 86.134338 192.395935
  endloop
 endfacet
 facet normal 0.593798 0.797731 0.105023
  outer loop
   vertex -108.251343 84.880661 192.230881
   vertex -108.368233 84.966187 192.242142
   vertex -108.368233 82.405655 211.691315
  endloop
 endfacet
 facet normal 0.000000 -0.991445 -0.130522
  outer loop
   vertex -109.116913 82.111671 212.067307
   vertex -109.116913 82.262909 210.918503
   vertex -108.275284 82.262909 210.918503
  endloop
 endfacet
 facet normal -0.000000 0.130541 -0.991443
  outer loop
   vertex -108.275284 82.262909 210.918503
   vertex -109.116913 82.262909 210.918503
   vertex -108.290871 82.498627 210.949539
  endloop
 endfacet
 facet normal -0.000034 0.130539 -0.991443
  outer loop
   vertex -108.290871 82.498627 210.949539
   vertex -108.192177 82.326439 210.926865
   vertex -108.275284 82.262909 210.918503
  endloop
 endfacet
 facet normal -0.000029 0.130541 -0.991443
  outer loop
   vertex -108.192177 82.484047 210.947617
   vertex -108.192177 82.326439 210.926865
   vertex -108.290871 82.498627 210.949539
  endloop
 endfacet
 facet normal -0.933471 -0.355584 -0.046813
  outer loop
   vertex -108.406540 82.244690 211.670120
   vertex -108.406540 84.805222 192.220947
   vertex -108.393661 82.211456 211.665756
  endloop
 endfacet
 facet normal -0.933471 -0.355584 -0.046813
  outer loop
   vertex -108.393661 82.211456 211.665756
   vertex -108.406540 84.805222 192.220947
   vertex -108.393661 84.771988 192.216583
  endloop
 endfacet
 facet normal -0.000000 -0.991445 -0.130526
  outer loop
   vertex -108.393661 84.771988 192.216583
   vertex -108.251335 82.211456 211.665756
   vertex -108.393661 82.211456 211.665756
  endloop
 endfacet
 facet normal -0.000000 -0.991445 -0.130526
  outer loop
   vertex -108.251343 84.771988 192.216583
   vertex -108.251335 82.211456 211.665756
   vertex -108.393661 84.771988 192.216583
  endloop
 endfacet
 facet normal 1.000000 0.000000 -0.000000
  outer loop
   vertex -108.251343 84.880661 192.230881
   vertex -108.251335 82.211456 211.665756
   vertex -108.251343 84.771988 192.216583
  endloop
 endfacet
 facet normal 1.000000 0.000000 0.000000
  outer loop
   vertex -109.467194 82.200386 213.492966
   vertex -109.467194 83.520912 212.004440
   vertex -109.467194 83.305779 213.638504
  endloop
 endfacet
 facet normal -0.000000 0.991444 0.130529
  outer loop
   vertex -109.467194 83.305779 213.638504
   vertex -109.467194 83.520912 212.004440
   vertex -111.008240 83.305779 213.638504
  endloop
 endfacet
 facet normal 0.000000 -0.130536 0.991444
  outer loop
   vertex -111.008240 83.305779 213.638504
   vertex -111.008240 82.200386 213.492966
   vertex -109.467194 83.305779 213.638504
  endloop
 endfacet
 facet normal -1.000000 0.000000 -0.000000
  outer loop
   vertex -111.008240 83.520912 212.004440
   vertex -111.008240 82.200386 213.492966
   vertex -111.008240 83.305779 213.638504
  endloop
 endfacet
 facet normal -1.000000 0.000000 0.000000
  outer loop
   vertex -111.008240 82.415512 211.858917
   vertex -111.008240 82.200386 213.492966
   vertex -111.008240 83.520912 212.004440
  endloop
 endfacet
 facet normal -0.000000 0.130521 -0.991446
  outer loop
   vertex -111.008240 83.520912 212.004440
   vertex -109.467194 83.520912 212.004440
   vertex -111.008240 82.415512 211.858917
  endloop
 endfacet
 facet normal 0.000000 0.130521 -0.991446
  outer loop
   vertex -111.008240 82.415512 211.858917
   vertex -109.467194 83.520912 212.004440
   vertex -109.467194 82.415512 211.858917
  endloop
 endfacet
 facet normal 1.000000 0.000000 -0.000000
  outer loop
   vertex -109.467194 82.415512 211.858917
   vertex -109.467194 83.520912 212.004440
   vertex -109.467194 82.200386 213.492966
  endloop
 endfacet
 facet normal 0.000000 -0.991445 -0.130526
  outer loop
   vertex -109.467194 82.200386 213.492966
   vertex -111.008240 82.200386 213.492966
   vertex -109.467194 82.415512 211.858917
  endloop
 endfacet
 facet normal -0.000000 -0.130536 0.991444
  outer loop
   vertex -109.467194 83.305779 213.638504
   vertex -111.008240 82.200386 213.492966
   vertex -109.467194 82.200386 213.492966
  endloop
 endfacet
 facet normal 0.000000 -0.991444 -0.130529
  outer loop
   vertex -109.467201 85.234215 190.448746
   vertex -109.467201 85.019081 192.082809
   vertex -111.008247 85.234215 190.448746
  endloop
 endfacet
 facet normal -0.000000 -0.991444 -0.130529
  outer loop
   vertex -111.008247 85.234215 190.448746
   vertex -109.467201 85.019081 192.082809
   vertex -111.008247 85.019081 192.082809
  endloop
 endfacet
 facet normal -1.000000 -0.000000 0.000000
  outer loop
   vertex -111.008247 85.019081 192.082809
   vertex -111.008247 86.339607 190.594284
   vertex -111.008247 85.234215 190.448746
  endloop
 endfacet
 facet normal -1.000000 -0.000000 -0.000000
  outer loop
   vertex -111.008247 86.124481 192.228333
   vertex -111.008247 86.339607 190.594284
   vertex -111.008247 85.019081 192.082809
  endloop
 endfacet
 facet normal 0.000000 0.991445 0.130526
  outer loop
   vertex -109.467201 86.124481 192.228333
   vertex -111.008247 86.339607 190.594284
   vertex -111.008247 86.124481 192.228333
  endloop
 endfacet
 facet normal -0.000000 -0.130521 0.991446
  outer loop
   vertex -111.008247 86.124481 192.228333
   vertex -109.467201 85.019081 192.082809
   vertex -109.467201 86.124481 192.228333
  endloop
 endfacet
 facet normal 1.000000 -0.000000 0.000000
  outer loop
   vertex -109.467201 86.124481 192.228333
   vertex -109.467201 85.019081 192.082809
   vertex -109.467201 86.339607 190.594284
  endloop
 endfacet
 facet normal 1.000000 -0.000000 -0.000000
  outer loop
   vertex -109.467201 86.339607 190.594284
   vertex -109.467201 85.019081 192.082809
   vertex -109.467201 85.234215 190.448746
  endloop
 endfacet
 facet normal 0.000000 0.130536 -0.991444
  outer loop
   vertex -109.467201 85.234215 190.448746
   vertex -111.008247 86.339607 190.594284
   vertex -109.467201 86.339607 190.594284
  endloop
 endfacet
 facet normal -0.000000 0.130536 -0.991444
  outer loop
   vertex -111.008247 85.234215 190.448746
   vertex -111.008247 86.339607 190.594284
   vertex -109.467201 85.234215 190.448746
  endloop
 endfacet
 facet normal -1.000000 -0.000000 0.000000
  outer loop
   vertex -110.082191 82.813049 215.025574
   vertex -110.082191 82.858734 214.678574
   vertex -110.082191 82.363007 214.613312
  endloop
 endfacet
 facet normal 1.000000 0.000000 -0.000000
  outer loop
   vertex -110.082191 82.363007 214.613312
   vertex -110.082191 82.858734 214.678574
   vertex -110.082191 82.588028 214.819443
  endloop
 endfacet
 facet normal 1.000000 0.000000 0.000000
  outer loop
   vertex -110.082191 82.588028 214.819443
   vertex -110.082191 82.317322 214.960312
   vertex -110.082191 82.363007 214.613312
  endloop
 endfacet
 facet normal 1.000000 -0.000000 -0.000000
  outer loop
   vertex -110.082191 82.813049 215.025574
   vertex -110.082191 82.317322 214.960312
   vertex -110.082191 82.588028 214.819443
  endloop
 endfacet
 facet normal 0.000000 -0.130522 0.991445
  outer loop
   vertex -111.082191 82.317322 214.960312
   vertex -110.082191 82.317322 214.960312
   vertex -110.082191 82.813049 215.025574
  endloop
 endfacet
 facet normal -0.000000 -0.130522 0.991445
  outer loop
   vertex -110.082191 82.813049 215.025574
   vertex -111.082191 82.813049 215.025574
   vertex -111.082191 82.317322 214.960312
  endloop
 endfacet
 facet normal -1.000000 0.000000 0.000000
  outer loop
   vertex -111.082191 82.317322 214.960312
   vertex -111.082191 82.813049 215.025574
   vertex -111.082191 82.539223 213.274857
  endloop
 endfacet
 facet normal -1.000000 -0.000000 -0.000000
  outer loop
   vertex -111.082191 82.539223 213.274857
   vertex -111.082191 82.813049 215.025574
   vertex -111.082191 83.034943 213.340118
  endloop
 endfacet
 facet normal 0.000000 0.130524 -0.991445
  outer loop
   vertex -111.082191 83.034943 213.340118
   vertex -110.082191 83.034943 213.340118
   vertex -111.082191 82.539223 213.274857
  endloop
 endfacet
 facet normal 0.000000 0.991445 0.130526
  outer loop
   vertex -110.332191 82.980515 213.753540
   vertex -110.082191 83.034943 213.340118
   vertex -111.082191 83.034943 213.340118
  endloop
 endfacet
 facet normal -0.000003 0.991445 0.130524
  outer loop
   vertex -110.082191 82.989258 213.687134
   vertex -110.082191 83.034943 213.340118
   vertex -110.332191 82.980515 213.753540
  endloop
 endfacet
 facet normal -0.000000 -0.991445 -0.130526
  outer loop
   vertex -110.332191 85.559479 190.333710
   vertex -110.082191 85.505051 190.747131
   vertex -111.082191 85.505051 190.747131
  endloop
 endfacet
 facet normal -0.000000 -0.130524 0.991445
  outer loop
   vertex -111.082191 85.505051 190.747131
   vertex -110.082191 85.505051 190.747131
   vertex -111.082191 86.000771 190.812393
  endloop
 endfacet
 facet normal -1.000000 0.000000 0.000000
  outer loop
   vertex -111.082191 86.000771 190.812393
   vertex -111.082191 85.726944 189.061676
   vertex -111.082191 85.505051 190.747131
  endloop
 endfacet
 facet normal -1.000000 -0.000000 -0.000000
  outer loop
   vertex -111.082191 86.222672 189.126938
   vertex -111.082191 85.726944 189.061676
   vertex -111.082191 86.000771 190.812393
  endloop
 endfacet
 facet normal -0.000015 0.130522 -0.991445
  outer loop
   vertex -110.082191 85.726944 189.061661
   vertex -111.082191 85.726944 189.061676
   vertex -111.082191 86.222672 189.126938
  endloop
 endfacet
 facet normal -0.000000 0.130552 -0.991441
  outer loop
   vertex -111.082191 86.222672 189.126938
   vertex -110.082191 86.222672 189.126938
   vertex -110.082191 85.726944 189.061661
  endloop
 endfacet
 facet normal 1.000000 0.000000 0.000000
  outer loop
   vertex -110.082191 85.726944 189.061661
   vertex -110.082191 86.222672 189.126938
   vertex -110.082191 85.951965 189.267807
  endloop
 endfacet
 facet normal 1.000000 -0.000000 -0.000000
  outer loop
   vertex -110.082191 85.951965 189.267807
   vertex -110.082191 86.222672 189.126938
   vertex -110.082191 86.176987 189.473938
  endloop
 endfacet
 facet normal 1.000000 -0.000000 0.000000
  outer loop
   vertex -110.082191 86.176987 189.473938
   vertex -110.082191 85.681259 189.408676
   vertex -110.082191 85.951965 189.267807
  endloop
 endfacet
 facet normal -1.000000 0.000000 -0.000000
  outer loop
   vertex -110.082191 85.726944 189.061661
   vertex -110.082191 85.681259 189.408676
   vertex -110.082191 86.176987 189.473938
  endloop
 endfacet
 facet normal 1.000000 0.000000 0.000000
  outer loop
   vertex -110.082191 85.951965 189.267807
   vertex -110.082191 85.681259 189.408676
   vertex -110.082191 85.726944 189.061661
  endloop
 endfacet
 facet normal 1.000000 0.000000 -0.000000
  outer loop
   vertex -108.251343 86.219864 192.407196
   vertex -108.251343 86.328537 192.421494
   vertex -108.251335 83.768005 211.870667
  endloop
 endfacet
 facet normal 0.000000 0.991445 0.130526
  outer loop
   vertex -108.251335 83.768005 211.870667
   vertex -108.251343 86.328537 192.421494
   vertex -108.393661 86.328537 192.421494
  endloop
 endfacet
 facet normal -0.000000 0.991445 0.130526
  outer loop
   vertex -108.393661 86.328537 192.421494
   vertex -108.393661 83.768005 211.870667
   vertex -108.251335 83.768005 211.870667
  endloop
 endfacet
 facet normal -0.933400 0.355767 0.046838
  outer loop
   vertex -108.406548 86.295303 192.417130
   vertex -108.393661 83.768005 211.870667
   vertex -108.393661 86.328537 192.421494
  endloop
 endfacet
 facet normal -0.933471 0.355584 0.046814
  outer loop
   vertex -108.406540 83.734772 211.866302
   vertex -108.393661 83.768005 211.870667
   vertex -108.406548 86.295303 192.417130
  endloop
 endfacet
 facet normal -0.000000 0.991445 0.130526
  outer loop
   vertex -108.406548 86.295303 192.417130
   vertex -109.020073 86.295303 192.417130
   vertex -108.406540 83.734772 211.866302
  endloop
 endfacet
 facet normal 0.000000 0.991445 0.130526
  outer loop
   vertex -108.406540 83.734772 211.866302
   vertex -109.020073 86.295303 192.417130
   vertex -109.020073 83.734772 211.866302
  endloop
 endfacet
 facet normal 0.933400 0.355767 0.046838
  outer loop
   vertex -109.020073 83.734772 211.866302
   vertex -109.020073 86.295303 192.417130
   vertex -109.032959 86.328537 192.421494
  endloop
 endfacet
 facet normal 0.933471 0.355584 0.046813
  outer loop
   vertex -109.032959 86.328537 192.421494
   vertex -109.032951 83.768005 211.870667
   vertex -109.020073 83.734772 211.866302
  endloop
 endfacet
 facet normal -0.000000 0.991445 0.130526
  outer loop
   vertex -109.103577 86.328537 192.421494
   vertex -109.032951 83.768005 211.870667
   vertex -109.032959 86.328537 192.421494
  endloop
 endfacet
 facet normal 0.000000 0.991445 0.130526
  outer loop
   vertex -109.103569 83.768005 211.870667
   vertex -109.032951 83.768005 211.870667
   vertex -109.103577 86.328537 192.421494
  endloop
 endfacet
 facet normal -1.000000 -0.000000 0.000000
  outer loop
   vertex -109.103577 86.328537 192.421494
   vertex -109.103577 84.771988 192.216583
   vertex -109.103569 83.768005 211.870667
  endloop
 endfacet
 facet normal -1.000000 -0.000000 0.000000
  outer loop
   vertex -109.103569 83.768005 211.870667
   vertex -109.103577 84.771988 192.216583
   vertex -109.103569 82.211456 211.665756
  endloop
 endfacet
 facet normal -0.000000 -0.991445 -0.130526
  outer loop
   vertex -109.103569 82.211456 211.665756
   vertex -109.103577 84.771988 192.216583
   vertex -109.032951 82.211456 211.665756
  endloop
 endfacet
 facet normal 0.000000 -0.991445 -0.130526
  outer loop
   vertex -110.332191 82.484795 213.688278
   vertex -111.082191 82.539223 213.274857
   vertex -110.082191 82.539223 213.274857
  endloop
 endfacet
 facet normal -0.000000 0.130524 -0.991445
  outer loop
   vertex -110.082191 82.539223 213.274857
   vertex -111.082191 82.539223 213.274857
   vertex -110.082191 83.034943 213.340118
  endloop
 endfacet
 facet normal 1.000000 0.000000 0.000000
  outer loop
   vertex -110.082191 83.034943 213.340118
   vertex -110.082191 82.493538 213.621872
   vertex -110.082191 82.539223 213.274857
  endloop
 endfacet
 facet normal 1.000000 -0.000000 -0.000000
  outer loop
   vertex -110.082191 82.989258 213.687134
   vertex -110.082191 82.493538 213.621872
   vertex -110.082191 83.034943 213.340118
  endloop
 endfacet
 facet normal -1.000000 0.000000 0.000000
  outer loop
   vertex -110.082191 83.034943 213.340118
   vertex -110.082191 82.493538 213.621872
   vertex -110.082191 82.989258 213.687134
  endloop
 endfacet
 facet normal 0.000003 0.991445 0.130524
  outer loop
   vertex -110.082191 82.989258 213.687134
   vertex -109.832191 82.980515 213.753540
   vertex -110.082191 83.034943 213.340118
  endloop
 endfacet
 facet normal -0.000010 0.991444 0.130532
  outer loop
   vertex -110.082191 83.034943 213.340118
   vertex -109.832191 82.980515 213.753540
   vertex -109.657188 83.020081 213.453033
  endloop
 endfacet
 facet normal -0.000013 0.991444 0.130530
  outer loop
   vertex -109.657188 83.020081 213.453033
   vertex -109.832191 82.980515 213.753540
   vertex -109.649178 82.956627 213.934998
  endloop
 endfacet
 facet normal 0.000003 0.991444 0.130530
  outer loop
   vertex -109.649178 82.956627 213.934998
   vertex -109.346069 82.979469 213.761490
   vertex -109.657188 83.020081 213.453033
  endloop
 endfacet
 facet normal 0.000003 0.991444 0.130530
  outer loop
   vertex -109.582191 82.923996 214.182846
   vertex -109.346069 82.979469 213.761490
   vertex -109.649178 82.956627 213.934998
  endloop
 endfacet
 facet normal 0.000000 0.991445 0.130528
  outer loop
   vertex -109.232185 82.923996 214.182846
   vertex -109.346069 82.979469 213.761490
   vertex -109.582191 82.923996 214.182846
  endloop
 endfacet
 facet normal -0.000000 0.991445 0.130522
  outer loop
   vertex -109.582191 82.923996 214.182846
   vertex -109.649178 82.891365 214.430710
   vertex -109.232185 82.923996 214.182846
  endloop
 endfacet
 facet normal 0.000001 0.991445 0.130523
  outer loop
   vertex -109.232185 82.923996 214.182846
   vertex -109.649178 82.891365 214.430710
   vertex -109.346069 82.868523 214.604218
  endloop
 endfacet
 facet normal 0.000003 0.991446 0.130520
  outer loop
   vertex -109.346069 82.868523 214.604218
   vertex -109.649178 82.891365 214.430710
   vertex -109.832191 82.867477 214.612167
  endloop
 endfacet
 facet normal 0.000003 0.991444 0.130536
  outer loop
   vertex -109.832191 82.867477 214.612167
   vertex -109.657188 82.827911 214.912674
   vertex -109.346069 82.868523 214.604218
  endloop
 endfacet
 facet normal 0.000000 0.991443 0.130538
  outer loop
   vertex -110.082191 82.858734 214.678574
   vertex -109.657188 82.827911 214.912674
   vertex -109.832191 82.867477 214.612167
  endloop
 endfacet
 facet normal 0.000004 0.991444 0.130530
  outer loop
   vertex -110.082191 82.813049 215.025574
   vertex -109.657188 82.827911 214.912674
   vertex -110.082191 82.858734 214.678574
  endloop
 endfacet
 facet normal 0.000002 0.991444 0.130530
  outer loop
   vertex -110.082191 82.858734 214.678574
   vertex -110.332191 82.867477 214.612167
   vertex -110.082191 82.813049 215.025574
  endloop
 endfacet
 facet normal 0.000000 0.991444 0.130531
  outer loop
   vertex -110.082191 82.813049 215.025574
   vertex -110.332191 82.867477 214.612167
   vertex -111.082191 82.813049 215.025574
  endloop
 endfacet
 facet normal -0.000005 0.991445 0.130522
  outer loop
   vertex -111.082191 82.813049 215.025574
   vertex -110.332191 82.867477 214.612167
   vertex -110.515198 82.891365 214.430710
  endloop
 endfacet
 facet normal -0.000004 0.991445 0.130523
  outer loop
   vertex -110.515198 82.891365 214.430710
   vertex -110.582191 82.923996 214.182846
   vertex -111.082191 82.813049 215.025574
  endloop
 endfacet
 facet normal -0.000000 0.991445 0.130526
  outer loop
   vertex -110.332191 86.055199 190.398972
   vertex -111.082191 86.000771 190.812393
   vertex -110.082191 86.000771 190.812393
  endloop
 endfacet
 facet normal -0.000000 -0.130524 0.991445
  outer loop
   vertex -110.082191 86.000771 190.812393
   vertex -111.082191 86.000771 190.812393
   vertex -110.082191 85.505051 190.747131
  endloop
 endfacet
 facet normal 1.000000 0.000000 0.000000
  outer loop
   vertex -110.082191 85.505051 190.747131
   vertex -110.082191 86.046455 190.465378
   vertex -110.082191 86.000771 190.812393
  endloop
 endfacet
 facet normal 1.000000 0.000000 -0.000000
  outer loop
   vertex -110.082191 85.550735 190.400116
   vertex -110.082191 86.046455 190.465378
   vertex -110.082191 85.505051 190.747131
  endloop
 endfacet
 facet normal -1.000000 -0.000000 0.000000
  outer loop
   vertex -110.082191 85.505051 190.747131
   vertex -110.082191 86.046455 190.465378
   vertex -110.082191 85.550735 190.400116
  endloop
 endfacet
 facet normal 0.000003 -0.991445 -0.130524
  outer loop
   vertex -110.082191 85.550735 190.400116
   vertex -109.832191 85.559479 190.333710
   vertex -110.082191 85.505051 190.747131
  endloop
 endfacet
 facet normal -0.000010 -0.991444 -0.130532
  outer loop
   vertex -110.082191 85.505051 190.747131
   vertex -109.832191 85.559479 190.333710
   vertex -109.657196 85.519913 190.634216
  endloop
 endfacet
 facet normal -0.000013 -0.991444 -0.130530
  outer loop
   vertex -109.657196 85.519913 190.634216
   vertex -109.832191 85.559479 190.333710
   vertex -109.649178 85.583366 190.152252
  endloop
 endfacet
 facet normal 0.000003 -0.991444 -0.130530
  outer loop
   vertex -109.649178 85.583366 190.152252
   vertex -109.346069 85.560524 190.325760
   vertex -109.657196 85.519913 190.634216
  endloop
 endfacet
 facet normal 0.000003 -0.991444 -0.130530
  outer loop
   vertex -109.582191 85.615997 189.904404
   vertex -109.346069 85.560524 190.325760
   vertex -109.649178 85.583366 190.152252
  endloop
 endfacet
 facet normal 0.000000 -0.991445 -0.130528
  outer loop
   vertex -109.232193 85.615997 189.904404
   vertex -109.346069 85.560524 190.325760
   vertex -109.582191 85.615997 189.904404
  endloop
 endfacet
 facet normal -0.000000 -0.991445 -0.130522
  outer loop
   vertex -109.582191 85.615997 189.904404
   vertex -109.649185 85.648628 189.656540
   vertex -109.232193 85.615997 189.904404
  endloop
 endfacet
 facet normal 0.000001 -0.991445 -0.130523
  outer loop
   vertex -109.232193 85.615997 189.904404
   vertex -109.649185 85.648628 189.656540
   vertex -109.346069 85.671471 189.483032
  endloop
 endfacet
 facet normal 0.000003 -0.991446 -0.130520
  outer loop
   vertex -109.346069 85.671471 189.483032
   vertex -109.649185 85.648628 189.656540
   vertex -109.832191 85.672516 189.475082
  endloop
 endfacet
 facet normal 0.000003 -0.991444 -0.130536
  outer loop
   vertex -109.832191 85.672516 189.475082
   vertex -109.657196 85.712082 189.174576
   vertex -109.346069 85.671471 189.483032
  endloop
 endfacet
 facet normal 0.000000 -0.991443 -0.130538
  outer loop
   vertex -110.082191 85.681259 189.408676
   vertex -109.657196 85.712082 189.174576
   vertex -109.832191 85.672516 189.475082
  endloop
 endfacet
 facet normal 0.000008 -0.991445 -0.130524
  outer loop
   vertex -110.082191 85.726944 189.061661
   vertex -109.657196 85.712082 189.174576
   vertex -110.082191 85.681259 189.408676
  endloop
 endfacet
 facet normal 0.000003 -0.991445 -0.130524
  outer loop
   vertex -110.082191 85.681259 189.408676
   vertex -110.332191 85.672516 189.475082
   vertex -110.082191 85.726944 189.061661
  endloop
 endfacet
 facet normal -0.000002 -0.991445 -0.130528
  outer loop
   vertex -110.082191 85.726944 189.061661
   vertex -110.332191 85.672516 189.475082
   vertex -111.082191 85.726944 189.061676
  endloop
 endfacet
 facet normal -0.000005 -0.991445 -0.130522
  outer loop
   vertex -111.082191 85.726944 189.061676
   vertex -110.332191 85.672516 189.475082
   vertex -110.515205 85.648628 189.656540
  endloop
 endfacet
 facet normal -0.000004 -0.991445 -0.130523
  outer loop
   vertex -110.515205 85.648628 189.656540
   vertex -110.582191 85.615997 189.904404
   vertex -111.082191 85.726944 189.061676
  endloop
 endfacet
 facet normal -0.455406 0.882668 0.116201
  outer loop
   vertex -109.116920 86.428322 192.019943
   vertex -109.608185 86.179176 191.987137
   vertex -109.116920 86.277084 193.168747
  endloop
 endfacet
 facet normal -0.455417 0.882662 0.116206
  outer loop
   vertex -109.116920 86.277084 193.168747
   vertex -109.608185 86.179176 191.987137
   vertex -109.608185 86.027931 193.135941
  endloop
 endfacet
 facet normal -0.000013 -0.130520 0.991446
  outer loop
   vertex -109.608185 86.027931 193.135941
   vertex -109.608185 84.877434 192.984482
   vertex -109.116920 86.277084 193.168747
  endloop
 endfacet
 facet normal -1.000000 0.000000 -0.000000
  outer loop
   vertex -109.608185 86.179176 191.987137
   vertex -109.608185 84.877434 192.984482
   vertex -109.608185 86.027931 193.135941
  endloop
 endfacet
 facet normal -1.000000 0.000000 0.000000
  outer loop
   vertex -109.608185 85.028679 191.835678
   vertex -109.608185 84.877434 192.984482
   vertex -109.608185 86.179176 191.987137
  endloop
 endfacet
 facet normal -0.000015 0.130520 -0.991446
  outer loop
   vertex -109.608185 86.179176 191.987137
   vertex -109.116920 84.779533 191.802872
   vertex -109.608185 85.028679 191.835678
  endloop
 endfacet
 facet normal -0.455406 -0.882667 -0.116207
  outer loop
   vertex -109.608185 85.028679 191.835678
   vertex -109.116920 84.779533 191.802872
   vertex -109.608185 84.877434 192.984482
  endloop
 endfacet
 facet normal -0.455406 -0.882667 -0.116207
  outer loop
   vertex -109.608185 84.877434 192.984482
   vertex -109.116920 84.779533 191.802872
   vertex -109.116920 84.628288 192.951675
  endloop
 endfacet
 facet normal 0.000011 -0.130528 0.991445
  outer loop
   vertex -109.116920 84.628288 192.951675
   vertex -109.116920 86.277084 193.168747
   vertex -109.608185 84.877434 192.984482
  endloop
 endfacet
 facet normal -0.000005 -0.130528 0.991445
  outer loop
   vertex -108.290871 84.863998 192.982712
   vertex -109.116920 86.277084 193.168747
   vertex -109.116920 84.628288 192.951675
  endloop
 endfacet
 facet normal 0.000005 -0.130522 0.991445
  outer loop
   vertex -108.290871 86.041367 193.137711
   vertex -109.116920 86.277084 193.168747
   vertex -108.290871 84.863998 192.982712
  endloop
 endfacet
 facet normal 1.000000 -0.000000 -0.000000
  outer loop
   vertex -108.290871 84.863998 192.982712
   vertex -108.290871 86.192612 191.988907
   vertex -108.290871 86.041367 193.137711
  endloop
 endfacet
 facet normal 0.147379 -0.980618 -0.129103
  outer loop
   vertex -108.290871 86.041367 193.137711
   vertex -108.290871 86.192612 191.988907
   vertex -108.192177 86.055946 193.139633
  endloop
 endfacet
 facet normal 0.147390 -0.980616 -0.129103
  outer loop
   vertex -108.192177 86.055946 193.139633
   vertex -108.290871 86.192612 191.988907
   vertex -108.192184 86.207191 191.990829
  endloop
 endfacet
 facet normal 1.000000 0.000001 -0.000007
  outer loop
   vertex -108.192184 86.207191 191.990829
   vertex -108.192177 86.213554 193.160385
   vertex -108.192177 86.055946 193.139633
  endloop
 endfacet
 facet normal 1.000000 0.000001 -0.000007
  outer loop
   vertex -108.192184 86.364799 192.011581
   vertex -108.192177 86.213554 193.160385
   vertex -108.192184 86.207191 191.990829
  endloop
 endfacet
 facet normal 0.610560 0.785195 0.103370
  outer loop
   vertex -108.275291 86.428322 192.019943
   vertex -108.192177 86.213554 193.160385
   vertex -108.192184 86.364799 192.011581
  endloop
 endfacet
 facet normal 0.000026 0.130543 -0.991443
  outer loop
   vertex -108.192184 86.364799 192.011581
   vertex -108.290871 86.192612 191.988907
   vertex -108.275291 86.428322 192.019943
  endloop
 endfacet
 facet normal 0.000000 0.130545 -0.991442
  outer loop
   vertex -108.275291 86.428322 192.019943
   vertex -108.290871 86.192612 191.988907
   vertex -109.116920 86.428322 192.019943
  endloop
 endfacet
 facet normal -0.000007 0.130522 -0.991445
  outer loop
   vertex -109.116920 86.428322 192.019943
   vertex -108.290871 86.192612 191.988907
   vertex -108.290871 85.015244 191.833908
  endloop
 endfacet
 facet normal 0.000005 0.130529 -0.991445
  outer loop
   vertex -108.290871 85.015244 191.833908
   vertex -109.116920 84.779533 191.802872
   vertex -109.116920 86.428322 192.019943
  endloop
 endfacet
 facet normal -0.000000 0.130545 -0.991442
  outer loop
   vertex -108.275291 84.779533 191.802872
   vertex -109.116920 84.779533 191.802872
   vertex -108.290871 85.015244 191.833908
  endloop
 endfacet
 facet normal 0.000000 -0.991445 -0.130528
  outer loop
   vertex -109.116920 84.628288 192.951675
   vertex -109.116920 84.779533 191.802872
   vertex -108.275291 84.779533 191.802872
  endloop
 endfacet
 facet normal -0.000000 -0.991445 -0.130528
  outer loop
   vertex -108.275291 84.779533 191.802872
   vertex -108.275291 84.628288 192.951675
   vertex -109.116920 84.628288 192.951675
  endloop
 endfacet
 facet normal 0.000000 -0.130545 0.991442
  outer loop
   vertex -109.116920 84.628288 192.951675
   vertex -108.275291 84.628288 192.951675
   vertex -108.290871 84.863998 192.982712
  endloop
 endfacet
 facet normal 0.000037 -0.130543 0.991443
  outer loop
   vertex -108.290871 84.863998 192.982712
   vertex -108.275291 84.628288 192.951675
   vertex -108.192177 84.691818 192.960037
  endloop
 endfacet
 facet normal 0.000028 -0.130548 0.991442
  outer loop
   vertex -108.192177 84.691818 192.960037
   vertex -108.192177 84.849419 192.980789
   vertex -108.290871 84.863998 192.982712
  endloop
 endfacet
 facet normal 1.000000 0.000001 -0.000007
  outer loop
   vertex -108.192184 85.000664 191.831985
   vertex -108.192177 84.849419 192.980789
   vertex -108.192177 84.691818 192.960037
  endloop
 endfacet
 facet normal 0.147379 0.980618 0.129102
  outer loop
   vertex -108.290871 84.863998 192.982712
   vertex -108.192177 84.849419 192.980789
   vertex -108.192184 85.000664 191.831985
  endloop
 endfacet
 facet normal 0.147390 0.980616 0.129103
  outer loop
   vertex -108.192184 85.000664 191.831985
   vertex -108.290871 85.015244 191.833908
   vertex -108.290871 84.863998 192.982712
  endloop
 endfacet
 facet normal 1.000000 0.000000 -0.000000
  outer loop
   vertex -108.290871 84.863998 192.982712
   vertex -108.290871 85.015244 191.833908
   vertex -108.290871 86.192612 191.988907
  endloop
 endfacet
 facet normal -0.455406 -0.882668 -0.116201
  outer loop
   vertex -109.116913 82.111671 212.067307
   vertex -109.608177 82.360817 212.100113
   vertex -109.116913 82.262909 210.918503
  endloop
 endfacet
 facet normal -0.455417 -0.882662 -0.116206
  outer loop
   vertex -109.116913 82.262909 210.918503
   vertex -109.608177 82.360817 212.100113
   vertex -109.608177 82.512062 210.951309
  endloop
 endfacet
 facet normal -0.000013 0.130520 -0.991446
  outer loop
   vertex -109.608177 82.512062 210.951309
   vertex -109.608177 83.662560 211.102768
   vertex -109.116913 82.262909 210.918503
  endloop
 endfacet
 facet normal -1.000000 -0.000000 -0.000000
  outer loop
   vertex -109.608177 82.360817 212.100113
   vertex -109.608177 83.662560 211.102768
   vertex -109.608177 82.512062 210.951309
  endloop
 endfacet
 facet normal -1.000000 0.000000 0.000000
  outer loop
   vertex -109.608177 83.511314 212.251572
   vertex -109.608177 83.662560 211.102768
   vertex -109.608177 82.360817 212.100113
  endloop
 endfacet
 facet normal -0.000015 -0.130520 0.991446
  outer loop
   vertex -109.608177 82.360817 212.100113
   vertex -109.116913 83.760460 212.284378
   vertex -109.608177 83.511314 212.251572
  endloop
 endfacet
 facet normal -0.455406 0.882667 0.116207
  outer loop
   vertex -109.608177 83.511314 212.251572
   vertex -109.116913 83.760460 212.284378
   vertex -109.608177 83.662560 211.102768
  endloop
 endfacet
 facet normal -0.455406 0.882667 0.116207
  outer loop
   vertex -109.608177 83.662560 211.102768
   vertex -109.116913 83.760460 212.284378
   vertex -109.116913 83.911705 211.135574
  endloop
 endfacet
 facet normal 0.000011 0.130528 -0.991445
  outer loop
   vertex -109.116913 83.911705 211.135574
   vertex -109.116913 82.262909 210.918503
   vertex -109.608177 83.662560 211.102768
  endloop
 endfacet
 facet normal -0.000005 0.130528 -0.991445
  outer loop
   vertex -108.290871 83.675995 211.104538
   vertex -109.116913 82.262909 210.918503
   vertex -109.116913 83.911705 211.135574
  endloop
 endfacet
 facet normal 0.000005 0.130522 -0.991445
  outer loop
   vertex -108.290871 82.498627 210.949539
   vertex -109.116913 82.262909 210.918503
   vertex -108.290871 83.675995 211.104538
  endloop
 endfacet
 facet normal 1.000000 -0.000000 -0.000000
  outer loop
   vertex -108.290871 83.675995 211.104538
   vertex -108.290871 82.347382 212.098343
   vertex -108.290871 82.498627 210.949539
  endloop
 endfacet
 facet normal 0.147379 0.980618 0.129103
  outer loop
   vertex -108.290871 82.498627 210.949539
   vertex -108.290871 82.347382 212.098343
   vertex -108.192177 82.484047 210.947617
  endloop
 endfacet
 facet normal 0.147379 0.980618 0.129103
  outer loop
   vertex -108.192177 82.484047 210.947617
   vertex -108.290871 82.347382 212.098343
   vertex -108.192177 82.332802 212.096420
  endloop
 endfacet
 facet normal 1.000000 0.000000 0.000000
  outer loop
   vertex -108.192177 82.332802 212.096420
   vertex -108.192177 82.326439 210.926865
   vertex -108.192177 82.484047 210.947617
  endloop
 endfacet
 facet normal 1.000000 -0.000000 -0.000000
  outer loop
   vertex -108.192177 82.175194 212.075668
   vertex -108.192177 82.326439 210.926865
   vertex -108.192177 82.332802 212.096420
  endloop
 endfacet
 facet normal 0.610560 -0.785195 -0.103374
  outer loop
   vertex -108.275284 82.111671 212.067307
   vertex -108.192177 82.326439 210.926865
   vertex -108.192177 82.175194 212.075668
  endloop
 endfacet
 facet normal 0.000026 -0.130543 0.991443
  outer loop
   vertex -108.192177 82.175194 212.075668
   vertex -108.290871 82.347382 212.098343
   vertex -108.275284 82.111671 212.067307
  endloop
 endfacet
 facet normal 0.000000 -0.130545 0.991442
  outer loop
   vertex -108.275284 82.111671 212.067307
   vertex -108.290871 82.347382 212.098343
   vertex -109.116913 82.111671 212.067307
  endloop
 endfacet
 facet normal -0.000007 -0.130522 0.991445
  outer loop
   vertex -109.116913 82.111671 212.067307
   vertex -108.290871 82.347382 212.098343
   vertex -108.290871 83.524750 212.253342
  endloop
 endfacet
 facet normal 0.000005 -0.130529 0.991445
  outer loop
   vertex -108.290871 83.524750 212.253342
   vertex -109.116913 83.760460 212.284378
   vertex -109.116913 82.111671 212.067307
  endloop
 endfacet
 facet normal -0.000000 -0.130545 0.991442
  outer loop
   vertex -108.275291 83.760460 212.284378
   vertex -109.116913 83.760460 212.284378
   vertex -108.290871 83.524750 212.253342
  endloop
 endfacet
 facet normal -0.000000 0.991445 0.130528
  outer loop
   vertex -109.116913 83.911705 211.135574
   vertex -109.116913 83.760460 212.284378
   vertex -108.275291 83.760460 212.284378
  endloop
 endfacet
 facet normal 0.000000 0.991445 0.130528
  outer loop
   vertex -108.275291 83.760460 212.284378
   vertex -108.275291 83.911705 211.135574
   vertex -109.116913 83.911705 211.135574
  endloop
 endfacet
 facet normal 0.000000 0.130545 -0.991442
  outer loop
   vertex -109.116913 83.911705 211.135574
   vertex -108.275291 83.911705 211.135574
   vertex -108.290871 83.675995 211.104538
  endloop
 endfacet
 facet normal 0.000037 0.130543 -0.991443
  outer loop
   vertex -108.290871 83.675995 211.104538
   vertex -108.275291 83.911705 211.135574
   vertex -108.192177 83.848175 211.127213
  endloop
 endfacet
 facet normal 0.000028 0.130548 -0.991442
  outer loop
   vertex -108.192177 83.848175 211.127213
   vertex -108.192177 83.690575 211.106461
   vertex -108.290871 83.675995 211.104538
  endloop
 endfacet
 facet normal 1.000000 -0.000000 -0.000000
  outer loop
   vertex -108.192177 83.539330 212.255264
   vertex -108.192177 83.690575 211.106461
   vertex -108.192177 83.848175 211.127213
  endloop
 endfacet
 facet normal 0.147379 -0.980618 -0.129103
  outer loop
   vertex -108.290871 83.675995 211.104538
   vertex -108.192177 83.690575 211.106461
   vertex -108.192177 83.539330 212.255264
  endloop
 endfacet
 facet normal 0.147379 -0.980618 -0.129103
  outer loop
   vertex -108.192177 83.539330 212.255264
   vertex -108.290871 83.524750 212.253342
   vertex -108.290871 83.675995 211.104538
  endloop
 endfacet
 facet normal 1.000000 0.000000 0.000000
  outer loop
   vertex -108.290871 83.675995 211.104538
   vertex -108.290871 83.524750 212.253342
   vertex -108.290871 82.347382 212.098343
  endloop
 endfacet
 facet normal -0.000003 0.991445 0.130524
  outer loop
   vertex -110.082191 86.046455 190.465378
   vertex -110.082191 86.000771 190.812393
   vertex -109.832191 86.055199 190.398972
  endloop
 endfacet
 facet normal -0.000011 0.991446 0.130520
  outer loop
   vertex -109.832191 86.055199 190.398972
   vertex -110.082191 86.000771 190.812393
   vertex -109.657196 86.015640 190.699478
  endloop
 endfacet
 facet normal -0.000003 0.991446 0.130515
  outer loop
   vertex -109.657196 86.015640 190.699478
   vertex -109.649178 86.079086 190.217514
   vertex -109.832191 86.055199 190.398972
  endloop
 endfacet
 facet normal -0.000019 0.991446 0.130514
  outer loop
   vertex -109.346069 86.056252 190.391022
   vertex -109.649178 86.079086 190.217514
   vertex -109.657196 86.015640 190.699478
  endloop
 endfacet
 facet normal -0.000040 0.991442 0.130550
  outer loop
   vertex -109.582191 86.111725 189.969666
   vertex -109.649178 86.079086 190.217514
   vertex -109.346069 86.056252 190.391022
  endloop
 endfacet
 facet normal 0.000000 0.991445 0.130528
  outer loop
   vertex -109.346069 86.056252 190.391022
   vertex -109.232193 86.111725 189.969666
   vertex -109.582191 86.111725 189.969666
  endloop
 endfacet
 facet normal 0.000000 0.991445 0.130522
  outer loop
   vertex -109.582191 86.111725 189.969666
   vertex -109.232193 86.111725 189.969666
   vertex -109.649185 86.144356 189.721802
  endloop
 endfacet
 facet normal -0.000001 0.991445 0.130523
  outer loop
   vertex -109.649185 86.144356 189.721802
   vertex -109.232193 86.111725 189.969666
   vertex -109.346069 86.167198 189.548294
  endloop
 endfacet
 facet normal -0.000003 0.991446 0.130520
  outer loop
   vertex -109.346069 86.167198 189.548294
   vertex -109.832191 86.168243 189.540344
   vertex -109.649185 86.144356 189.721802
  endloop
 endfacet
 facet normal -0.000003 0.991447 0.130512
  outer loop
   vertex -109.657196 86.207802 189.239838
   vertex -109.832191 86.168243 189.540344
   vertex -109.346069 86.167198 189.548294
  endloop
 endfacet
 facet normal 0.000006 0.991446 0.130516
  outer loop
   vertex -110.082191 86.176987 189.473938
   vertex -109.832191 86.168243 189.540344
   vertex -109.657196 86.207802 189.239838
  endloop
 endfacet
 facet normal 0.000013 0.991444 0.130530
  outer loop
   vertex -109.657196 86.207802 189.239838
   vertex -110.082191 86.222672 189.126938
   vertex -110.082191 86.176987 189.473938
  endloop
 endfacet
 facet normal -0.000002 0.991444 0.130530
  outer loop
   vertex -110.082191 86.176987 189.473938
   vertex -110.082191 86.222672 189.126938
   vertex -110.332191 86.168243 189.540344
  endloop
 endfacet
 facet normal 0.000000 0.991444 0.130531
  outer loop
   vertex -110.332191 86.168243 189.540344
   vertex -110.082191 86.222672 189.126938
   vertex -111.082191 86.222672 189.126938
  endloop
 endfacet
 facet normal 0.000005 0.991445 0.130522
  outer loop
   vertex -111.082191 86.222672 189.126938
   vertex -110.515205 86.144356 189.721802
   vertex -110.332191 86.168243 189.540344
  endloop
 endfacet
 facet normal 0.000004 0.991445 0.130523
  outer loop
   vertex -110.582191 86.111725 189.969666
   vertex -110.515205 86.144356 189.721802
   vertex -111.082191 86.222672 189.126938
  endloop
 endfacet
 facet normal -0.000003 -0.991445 -0.130524
  outer loop
   vertex -110.082191 82.493538 213.621872
   vertex -110.082191 82.539223 213.274857
   vertex -109.832191 82.484795 213.688278
  endloop
 endfacet
 facet normal -0.000011 -0.991446 -0.130520
  outer loop
   vertex -109.832191 82.484795 213.688278
   vertex -110.082191 82.539223 213.274857
   vertex -109.657188 82.524353 213.387772
  endloop
 endfacet
 facet normal -0.000003 -0.991446 -0.130515
  outer loop
   vertex -109.657188 82.524353 213.387772
   vertex -109.649178 82.460907 213.869736
   vertex -109.832191 82.484795 213.688278
  endloop
 endfacet
 facet normal -0.000019 -0.991446 -0.130514
  outer loop
   vertex -109.346069 82.483742 213.696228
   vertex -109.649178 82.460907 213.869736
   vertex -109.657188 82.524353 213.387772
  endloop
 endfacet
 facet normal -0.000040 -0.991442 -0.130550
  outer loop
   vertex -109.582191 82.428268 214.117584
   vertex -109.649178 82.460907 213.869736
   vertex -109.346069 82.483742 213.696228
  endloop
 endfacet
 facet normal -0.000000 -0.991445 -0.130528
  outer loop
   vertex -109.346069 82.483742 213.696228
   vertex -109.232185 82.428268 214.117584
   vertex -109.582191 82.428268 214.117584
  endloop
 endfacet
 facet normal -0.000000 -0.991445 -0.130522
  outer loop
   vertex -109.582191 82.428268 214.117584
   vertex -109.232185 82.428268 214.117584
   vertex -109.649178 82.395638 214.365448
  endloop
 endfacet
 facet normal -0.000001 -0.991445 -0.130523
  outer loop
   vertex -109.649178 82.395638 214.365448
   vertex -109.232185 82.428268 214.117584
   vertex -109.346069 82.372795 214.538956
  endloop
 endfacet
 facet normal 0.000001 -0.991445 -0.130527
  outer loop
   vertex -109.346069 82.372795 214.538956
   vertex -109.832191 82.371750 214.546890
   vertex -109.649178 82.395638 214.365448
  endloop
 endfacet
 facet normal 0.000002 -0.991447 -0.130508
  outer loop
   vertex -109.657188 82.332191 214.847412
   vertex -109.832191 82.371750 214.546890
   vertex -109.346069 82.372795 214.538956
  endloop
 endfacet
 facet normal 0.000000 -0.991447 -0.130507
  outer loop
   vertex -110.082191 82.363007 214.613312
   vertex -109.832191 82.371750 214.546890
   vertex -109.657188 82.332191 214.847412
  endloop
 endfacet
 facet normal 0.000013 -0.991444 -0.130530
  outer loop
   vertex -109.657188 82.332191 214.847412
   vertex -110.082191 82.317322 214.960312
   vertex -110.082191 82.363007 214.613312
  endloop
 endfacet
 facet normal -0.000002 -0.991444 -0.130530
  outer loop
   vertex -110.082191 82.363007 214.613312
   vertex -110.082191 82.317322 214.960312
   vertex -110.332191 82.371750 214.546906
  endloop
 endfacet
 facet normal -0.000000 -0.991444 -0.130531
  outer loop
   vertex -110.332191 82.371750 214.546906
   vertex -110.082191 82.317322 214.960312
   vertex -111.082191 82.317322 214.960312
  endloop
 endfacet
 facet normal 0.000005 -0.991445 -0.130522
  outer loop
   vertex -111.082191 82.317322 214.960312
   vertex -110.515198 82.395638 214.365448
   vertex -110.332191 82.371750 214.546906
  endloop
 endfacet
 facet normal 0.000004 -0.991445 -0.130523
  outer loop
   vertex -110.582191 82.428268 214.117584
   vertex -110.515198 82.395638 214.365448
   vertex -111.082191 82.317322 214.960312
  endloop
 endfacet
 facet normal 0.000000 -0.991445 -0.130526
  outer loop
   vertex -111.082191 85.726944 189.061676
   vertex -110.582191 85.615997 189.904404
   vertex -111.082191 85.505051 190.747131
  endloop
 endfacet
 facet normal -0.000006 -0.991445 -0.130529
  outer loop
   vertex -111.082191 85.505051 190.747131
   vertex -110.582191 85.615997 189.904404
   vertex -110.515205 85.583366 190.152252
  endloop
 endfacet
 facet normal 0.000003 -0.991446 -0.130520
  outer loop
   vertex -110.515205 85.583366 190.152252
   vertex -110.332191 85.559479 190.333710
   vertex -111.082191 85.505051 190.747131
  endloop
 endfacet
 facet normal -0.000003 -0.991446 -0.130520
  outer loop
   vertex -110.332191 82.484795 213.688278
   vertex -110.515205 82.460907 213.869736
   vertex -111.082191 82.539223 213.274857
  endloop
 endfacet
 facet normal 0.000031 -0.991441 -0.130552
  outer loop
   vertex -111.082191 82.539223 213.274857
   vertex -110.515205 82.460907 213.869736
   vertex -110.582191 82.428268 214.117584
  endloop
 endfacet
 facet normal -0.000008 -0.991444 -0.130530
  outer loop
   vertex -110.582191 82.428268 214.117584
   vertex -111.082191 82.317322 214.960312
   vertex -111.082191 82.539223 213.274857
  endloop
 endfacet
 facet normal 0.000000 0.991445 0.130526
  outer loop
   vertex -111.082191 82.813049 215.025574
   vertex -110.582191 82.923996 214.182846
   vertex -111.082191 83.034943 213.340118
  endloop
 endfacet
 facet normal -0.000006 0.991445 0.130529
  outer loop
   vertex -111.082191 83.034943 213.340118
   vertex -110.582191 82.923996 214.182846
   vertex -110.515205 82.956627 213.934998
  endloop
 endfacet
 facet normal 0.000003 0.991446 0.130520
  outer loop
   vertex -110.515205 82.956627 213.934998
   vertex -110.332191 82.980515 213.753540
   vertex -111.082191 83.034943 213.340118
  endloop
 endfacet
 facet normal -0.000003 0.991446 0.130520
  outer loop
   vertex -110.332191 86.055199 190.398972
   vertex -110.515205 86.079086 190.217514
   vertex -111.082191 86.000771 190.812393
  endloop
 endfacet
 facet normal 0.000031 0.991441 0.130552
  outer loop
   vertex -111.082191 86.000771 190.812393
   vertex -110.515205 86.079086 190.217514
   vertex -110.582191 86.111725 189.969666
  endloop
 endfacet
 facet normal -0.000008 0.991444 0.130530
  outer loop
   vertex -110.582191 86.111725 189.969666
   vertex -111.082191 86.222672 189.126938
   vertex -111.082191 86.000771 190.812393
  endloop
 endfacet
 facet normal 0.610525 0.785221 0.103378
  outer loop
   vertex -108.275291 83.760460 212.284378
   vertex -108.192177 83.696938 212.276016
   vertex -108.275291 83.911705 211.135574
  endloop
 endfacet
 facet normal 0.610570 0.785188 0.103368
  outer loop
   vertex -108.275291 83.911705 211.135574
   vertex -108.192177 83.696938 212.276016
   vertex -108.192177 83.848175 211.127213
  endloop
 endfacet
 facet normal -0.000000 -0.991445 -0.130526
  outer loop
   vertex -109.020073 84.805222 192.220947
   vertex -108.406540 84.805222 192.220947
   vertex -109.020073 82.244690 211.670120
  endloop
 endfacet
 facet normal -0.000000 -0.991445 -0.130526
  outer loop
   vertex -109.020073 82.244690 211.670120
   vertex -108.406540 84.805222 192.220947
   vertex -108.406540 82.244690 211.670120
  endloop
 endfacet
 facet normal 0.610570 -0.785187 -0.103372
  outer loop
   vertex -108.192177 84.691818 192.960037
   vertex -108.275291 84.628288 192.951675
   vertex -108.192184 84.843056 191.811234
  endloop
 endfacet
 facet normal 0.610560 -0.785195 -0.103374
  outer loop
   vertex -108.192184 84.843056 191.811234
   vertex -108.275291 84.628288 192.951675
   vertex -108.275291 84.779533 191.802872
  endloop
 endfacet
 facet normal 1.000000 0.000000 0.000000
  outer loop
   vertex -110.082191 82.858734 214.678574
   vertex -110.082191 82.813049 215.025574
   vertex -110.082191 82.588028 214.819443
  endloop
 endfacet
 facet normal 0.000010 -0.130529 0.991445
  outer loop
   vertex -109.116913 82.111671 212.067307
   vertex -109.116913 83.760460 212.284378
   vertex -109.608177 82.360817 212.100113
  endloop
 endfacet
 facet normal 0.000003 -0.991445 -0.130524
  outer loop
   vertex -110.082191 82.539223 213.274857
   vertex -110.082191 82.493538 213.621872
   vertex -110.332191 82.484795 213.688278
  endloop
 endfacet
 facet normal -0.000003 -0.991445 -0.130524
  outer loop
   vertex -110.082191 85.550735 190.400116
   vertex -110.082191 85.505051 190.747131
   vertex -110.332191 85.559479 190.333710
  endloop
 endfacet
 facet normal -1.000000 0.000000 0.000000
  outer loop
   vertex -110.082191 82.813049 215.025574
   vertex -110.082191 82.363007 214.613312
   vertex -110.082191 82.317322 214.960312
  endloop
 endfacet
 facet normal 0.000000 0.991445 0.130526
  outer loop
   vertex -109.467201 86.124481 192.228333
   vertex -109.467201 86.339607 190.594284
   vertex -111.008247 86.339607 190.594284
  endloop
 endfacet
 facet normal -0.000000 -0.991445 -0.130526
  outer loop
   vertex -111.008240 82.415512 211.858917
   vertex -109.467194 82.415512 211.858917
   vertex -111.008240 82.200386 213.492966
  endloop
 endfacet
 facet normal -1.000000 0.000000 -0.000000
  outer loop
   vertex -110.082191 85.726944 189.061661
   vertex -110.082191 86.176987 189.473938
   vertex -110.082191 86.222672 189.126938
  endloop
 endfacet
 facet normal 0.000029 0.130541 -0.991443
  outer loop
   vertex -108.192184 86.364799 192.011581
   vertex -108.192184 86.207191 191.990829
   vertex -108.290871 86.192612 191.988907
  endloop
 endfacet
 facet normal -1.000000 -0.000000 0.000000
  outer loop
   vertex -110.082191 82.493538 213.621872
   vertex -110.082191 83.034943 213.340118
   vertex -110.082191 82.539223 213.274857
  endloop
 endfacet
 facet normal 0.000010 0.130529 -0.991445
  outer loop
   vertex -109.116920 86.428322 192.019943
   vertex -109.116920 84.779533 191.802872
   vertex -109.608185 86.179176 191.987137
  endloop
 endfacet
 facet normal 0.000029 -0.130541 0.991443
  outer loop
   vertex -108.192177 82.175194 212.075668
   vertex -108.192177 82.332802 212.096420
   vertex -108.290871 82.347382 212.098343
  endloop
 endfacet
 facet normal -0.000000 0.991444 0.130529
  outer loop
   vertex -109.467194 83.520912 212.004440
   vertex -111.008240 83.520912 212.004440
   vertex -111.008240 83.305779 213.638504
  endloop
 endfacet
 facet normal 0.000000 -0.130521 0.991446
  outer loop
   vertex -111.008247 86.124481 192.228333
   vertex -111.008247 85.019081 192.082809
   vertex -109.467201 85.019081 192.082809
  endloop
 endfacet
 facet normal -1.000000 0.000000 0.000000
  outer loop
   vertex -110.082191 86.046455 190.465378
   vertex -110.082191 85.505051 190.747131
   vertex -110.082191 86.000771 190.812393
  endloop
 endfacet
 facet normal 0.000003 0.991445 0.130524
  outer loop
   vertex -110.082191 86.000771 190.812393
   vertex -110.082191 86.046455 190.465378
   vertex -110.332191 86.055199 190.398972
  endloop
 endfacet
 facet normal 0.707124 0.092292 -0.701040
  outer loop
   vertex -110.515205 86.079086 190.217514
   vertex -110.332191 85.559479 190.333710
   vertex -110.515205 85.583366 190.152252
  endloop
 endfacet
 facet normal 0.965924 0.033783 -0.256612
  outer loop
   vertex -110.515205 86.079086 190.217514
   vertex -110.515205 85.583366 190.152252
   vertex -110.582191 86.111725 189.969666
  endloop
 endfacet
 facet normal 0.965924 0.033783 -0.256613
  outer loop
   vertex -110.582191 86.111725 189.969666
   vertex -110.515205 85.583366 190.152252
   vertex -110.582191 85.615997 189.904404
  endloop
 endfacet
 facet normal 0.965928 -0.033781 0.256598
  outer loop
   vertex -110.582191 85.615997 189.904404
   vertex -110.515205 86.144356 189.721802
   vertex -110.582191 86.111725 189.969666
  endloop
 endfacet
 facet normal 0.965928 -0.033781 0.256598
  outer loop
   vertex -110.515205 85.648628 189.656540
   vertex -110.515205 86.144356 189.721802
   vertex -110.582191 85.615997 189.904404
  endloop
 endfacet
 facet normal 0.707124 -0.092291 0.701040
  outer loop
   vertex -110.332191 86.168243 189.540344
   vertex -110.515205 86.144356 189.721802
   vertex -110.515205 85.648628 189.656540
  endloop
 endfacet
 facet normal 0.707124 -0.092291 0.701040
  outer loop
   vertex -110.515205 85.648628 189.656540
   vertex -110.332191 85.672516 189.475082
   vertex -110.332191 86.168243 189.540344
  endloop
 endfacet
 facet normal 0.258790 -0.126076 0.957670
  outer loop
   vertex -110.332191 86.168243 189.540344
   vertex -110.332191 85.672516 189.475082
   vertex -110.082191 86.176987 189.473938
  endloop
 endfacet
 facet normal 0.258790 0.126076 -0.957670
  outer loop
   vertex -110.082191 82.858734 214.678574
   vertex -110.082191 82.363007 214.613312
   vertex -110.332191 82.867477 214.612167
  endloop
 endfacet
 facet normal 0.258790 0.126076 -0.957670
  outer loop
   vertex -110.332191 82.867477 214.612167
   vertex -110.082191 82.363007 214.613312
   vertex -110.332191 82.371750 214.546906
  endloop
 endfacet
 facet normal 0.707139 0.092289 -0.701026
  outer loop
   vertex -110.332191 82.371750 214.546906
   vertex -110.515198 82.891365 214.430710
   vertex -110.332191 82.867477 214.612167
  endloop
 endfacet
 facet normal 0.707139 0.092289 -0.701026
  outer loop
   vertex -110.515198 82.395638 214.365448
   vertex -110.515198 82.891365 214.430710
   vertex -110.332191 82.371750 214.546906
  endloop
 endfacet
 facet normal 0.965920 0.033784 -0.256626
  outer loop
   vertex -110.582191 82.923996 214.182846
   vertex -110.515198 82.891365 214.430710
   vertex -110.515198 82.395638 214.365448
  endloop
 endfacet
 facet normal 0.965920 0.033784 -0.256626
  outer loop
   vertex -110.515198 82.395638 214.365448
   vertex -110.582191 82.428268 214.117584
   vertex -110.582191 82.923996 214.182846
  endloop
 endfacet
 facet normal 0.965924 -0.033783 0.256613
  outer loop
   vertex -110.582191 82.923996 214.182846
   vertex -110.582191 82.428268 214.117584
   vertex -110.515205 82.956627 213.934998
  endloop
 endfacet
 facet normal 0.965924 -0.033783 0.256612
  outer loop
   vertex -110.515205 82.956627 213.934998
   vertex -110.582191 82.428268 214.117584
   vertex -110.515205 82.460907 213.869736
  endloop
 endfacet
 facet normal 0.707124 -0.092292 0.701040
  outer loop
   vertex -110.515205 82.460907 213.869736
   vertex -110.332191 82.980515 213.753540
   vertex -110.515205 82.956627 213.934998
  endloop
 endfacet
 facet normal 0.258846 -0.126076 0.957655
  outer loop
   vertex -110.082191 86.000771 190.812393
   vertex -110.082191 85.505051 190.747131
   vertex -109.657196 86.015640 190.699478
  endloop
 endfacet
 facet normal 0.258844 -0.126074 0.957656
  outer loop
   vertex -109.657196 86.015640 190.699478
   vertex -110.082191 85.505051 190.747131
   vertex -109.657196 85.519913 190.634216
  endloop
 endfacet
 facet normal 0.707097 -0.092295 0.701067
  outer loop
   vertex -109.657196 85.519913 190.634216
   vertex -109.346069 86.056252 190.391022
   vertex -109.657196 86.015640 190.699478
  endloop
 endfacet
 facet normal 0.707097 -0.092295 0.701067
  outer loop
   vertex -109.346069 85.560524 190.325760
   vertex -109.346069 86.056252 190.391022
   vertex -109.657196 85.519913 190.634216
  endloop
 endfacet
 facet normal 0.965926 -0.033782 0.256605
  outer loop
   vertex -109.232193 86.111725 189.969666
   vertex -109.346069 86.056252 190.391022
   vertex -109.346069 85.560524 190.325760
  endloop
 endfacet
 facet normal 0.965926 -0.033782 0.256605
  outer loop
   vertex -109.346069 85.560524 190.325760
   vertex -109.232193 85.615997 189.904404
   vertex -109.232193 86.111725 189.969666
  endloop
 endfacet
 facet normal 0.965928 0.033781 -0.256596
  outer loop
   vertex -109.232193 86.111725 189.969666
   vertex -109.232193 85.615997 189.904404
   vertex -109.346069 86.167198 189.548294
  endloop
 endfacet
 facet normal 0.965928 0.033781 -0.256596
  outer loop
   vertex -109.346069 86.167198 189.548294
   vertex -109.232193 85.615997 189.904404
   vertex -109.346069 85.671471 189.483032
  endloop
 endfacet
 facet normal 0.707096 0.092295 -0.701068
  outer loop
   vertex -109.346069 85.671471 189.483032
   vertex -109.657196 86.207802 189.239838
   vertex -109.346069 86.167198 189.548294
  endloop
 endfacet
 facet normal 0.707097 0.092296 -0.701067
  outer loop
   vertex -109.657196 85.712082 189.174576
   vertex -109.657196 86.207802 189.239838
   vertex -109.346069 85.671471 189.483032
  endloop
 endfacet
 facet normal 0.258814 0.126077 -0.957664
  outer loop
   vertex -110.082191 86.222672 189.126938
   vertex -109.657196 86.207802 189.239838
   vertex -109.657196 85.712082 189.174576
  endloop
 endfacet
 facet normal 0.258844 0.126103 -0.957652
  outer loop
   vertex -109.657196 85.712082 189.174576
   vertex -110.082191 85.726944 189.061661
   vertex -110.082191 86.222672 189.126938
  endloop
 endfacet
 facet normal 0.258808 -0.126075 0.957666
  outer loop
   vertex -110.082191 82.813049 215.025574
   vertex -110.082191 82.317322 214.960312
   vertex -109.657188 82.827911 214.912674
  endloop
 endfacet
 facet normal 0.258810 -0.126077 0.957665
  outer loop
   vertex -109.657188 82.827911 214.912674
   vertex -110.082191 82.317322 214.960312
   vertex -109.657188 82.332191 214.847412
  endloop
 endfacet
 facet normal 0.707106 -0.092295 0.701058
  outer loop
   vertex -109.657188 82.332191 214.847412
   vertex -109.346069 82.868523 214.604218
   vertex -109.657188 82.827911 214.912674
  endloop
 endfacet
 facet normal 0.707105 -0.092294 0.701060
  outer loop
   vertex -109.346069 82.372795 214.538956
   vertex -109.346069 82.868523 214.604218
   vertex -109.657188 82.332191 214.847412
  endloop
 endfacet
 facet normal 0.965924 -0.033783 0.256613
  outer loop
   vertex -109.232185 82.923996 214.182846
   vertex -109.346069 82.868523 214.604218
   vertex -109.346069 82.372795 214.538956
  endloop
 endfacet
 facet normal 0.965924 -0.033783 0.256613
  outer loop
   vertex -109.346069 82.372795 214.538956
   vertex -109.232185 82.428268 214.117584
   vertex -109.232185 82.923996 214.182846
  endloop
 endfacet
 facet normal 0.965921 0.033784 -0.256621
  outer loop
   vertex -109.232185 82.923996 214.182846
   vertex -109.232185 82.428268 214.117584
   vertex -109.346069 82.979469 213.761490
  endloop
 endfacet
 facet normal 0.965921 0.033784 -0.256621
  outer loop
   vertex -109.346069 82.979469 213.761490
   vertex -109.232185 82.428268 214.117584
   vertex -109.346069 82.483742 213.696228
  endloop
 endfacet
 facet normal 0.707106 0.092293 -0.701059
  outer loop
   vertex -109.346069 82.483742 213.696228
   vertex -109.657188 83.020081 213.453033
   vertex -109.346069 82.979469 213.761490
  endloop
 endfacet
 facet normal 0.707106 0.092293 -0.701059
  outer loop
   vertex -109.657188 82.524353 213.387772
   vertex -109.657188 83.020081 213.453033
   vertex -109.346069 82.483742 213.696228
  endloop
 endfacet
 facet normal 0.258840 0.126074 -0.957657
  outer loop
   vertex -110.082191 83.034943 213.340118
   vertex -109.657188 83.020081 213.453033
   vertex -109.657188 82.524353 213.387772
  endloop
 endfacet
 facet normal 0.258842 0.126076 -0.957656
  outer loop
   vertex -109.657188 82.524353 213.387772
   vertex -110.082191 82.539223 213.274857
   vertex -110.082191 83.034943 213.340118
  endloop
 endfacet
 facet normal 0.707124 -0.092292 0.701040
  outer loop
   vertex -110.515205 82.460907 213.869736
   vertex -110.332191 82.484795 213.688278
   vertex -110.332191 82.980515 213.753540
  endloop
 endfacet
 facet normal 0.258790 -0.126078 0.957670
  outer loop
   vertex -110.332191 82.980515 213.753540
   vertex -110.332191 82.484795 213.688278
   vertex -110.082191 82.493538 213.621872
  endloop
 endfacet
 facet normal 0.258790 -0.126078 0.957670
  outer loop
   vertex -110.082191 82.493538 213.621872
   vertex -110.082191 82.989258 213.687134
   vertex -110.332191 82.980515 213.753540
  endloop
 endfacet
 facet normal -0.258790 -0.126078 0.957670
  outer loop
   vertex -109.832191 82.484795 213.688278
   vertex -110.082191 82.989258 213.687134
   vertex -110.082191 82.493538 213.621872
  endloop
 endfacet
 facet normal -0.258790 -0.126078 0.957670
  outer loop
   vertex -109.832191 82.980515 213.753540
   vertex -110.082191 82.989258 213.687134
   vertex -109.832191 82.484795 213.688278
  endloop
 endfacet
 facet normal -0.707124 -0.092292 0.701040
  outer loop
   vertex -109.832191 82.484795 213.688278
   vertex -109.649178 82.460907 213.869736
   vertex -109.832191 82.980515 213.753540
  endloop
 endfacet
 facet normal -0.707124 -0.092292 0.701040
  outer loop
   vertex -109.832191 82.980515 213.753540
   vertex -109.649178 82.460907 213.869736
   vertex -109.649178 82.956627 213.934998
  endloop
 endfacet
 facet normal -0.965924 -0.033783 0.256612
  outer loop
   vertex -109.649178 82.956627 213.934998
   vertex -109.649178 82.460907 213.869736
   vertex -109.582191 82.428268 214.117584
  endloop
 endfacet
 facet normal -0.965924 -0.033783 0.256613
  outer loop
   vertex -109.582191 82.428268 214.117584
   vertex -109.582191 82.923996 214.182846
   vertex -109.649178 82.956627 213.934998
  endloop
 endfacet
 facet normal -0.965928 0.033781 -0.256598
  outer loop
   vertex -109.649178 82.395638 214.365448
   vertex -109.582191 82.923996 214.182846
   vertex -109.582191 82.428268 214.117584
  endloop
 endfacet
 facet normal -0.965928 0.033781 -0.256598
  outer loop
   vertex -109.649178 82.891365 214.430710
   vertex -109.582191 82.923996 214.182846
   vertex -109.649178 82.395638 214.365448
  endloop
 endfacet
 facet normal -0.707095 0.092295 -0.701069
  outer loop
   vertex -109.649178 82.395638 214.365448
   vertex -109.832191 82.371750 214.546890
   vertex -109.649178 82.891365 214.430710
  endloop
 endfacet
 facet normal -0.707124 0.092312 -0.701037
  outer loop
   vertex -109.649178 82.891365 214.430710
   vertex -109.832191 82.371750 214.546890
   vertex -109.832191 82.867477 214.612167
  endloop
 endfacet
 facet normal -0.258845 0.126103 -0.957652
  outer loop
   vertex -109.832191 82.867477 214.612167
   vertex -109.832191 82.371750 214.546890
   vertex -110.082191 82.363007 214.613312
  endloop
 endfacet
 facet normal -0.258790 0.126076 -0.957670
  outer loop
   vertex -110.082191 82.363007 214.613312
   vertex -110.082191 82.858734 214.678574
   vertex -109.832191 82.867477 214.612167
  endloop
 endfacet
 facet normal 0.707124 0.092292 -0.701040
  outer loop
   vertex -110.515205 86.079086 190.217514
   vertex -110.332191 86.055199 190.398972
   vertex -110.332191 85.559479 190.333710
  endloop
 endfacet
 facet normal 0.258790 0.126078 -0.957670
  outer loop
   vertex -110.332191 85.559479 190.333710
   vertex -110.332191 86.055199 190.398972
   vertex -110.082191 86.046455 190.465378
  endloop
 endfacet
 facet normal 0.258790 0.126078 -0.957670
  outer loop
   vertex -110.082191 86.046455 190.465378
   vertex -110.082191 85.550735 190.400116
   vertex -110.332191 85.559479 190.333710
  endloop
 endfacet
 facet normal -0.258790 0.126078 -0.957670
  outer loop
   vertex -109.832191 86.055199 190.398972
   vertex -110.082191 85.550735 190.400116
   vertex -110.082191 86.046455 190.465378
  endloop
 endfacet
 facet normal -0.258790 0.126078 -0.957670
  outer loop
   vertex -109.832191 85.559479 190.333710
   vertex -110.082191 85.550735 190.400116
   vertex -109.832191 86.055199 190.398972
  endloop
 endfacet
 facet normal -0.707124 0.092292 -0.701040
  outer loop
   vertex -109.832191 86.055199 190.398972
   vertex -109.649178 86.079086 190.217514
   vertex -109.832191 85.559479 190.333710
  endloop
 endfacet
 facet normal -0.707124 0.092292 -0.701040
  outer loop
   vertex -109.832191 85.559479 190.333710
   vertex -109.649178 86.079086 190.217514
   vertex -109.649178 85.583366 190.152252
  endloop
 endfacet
 facet normal -0.965924 0.033783 -0.256612
  outer loop
   vertex -109.649178 85.583366 190.152252
   vertex -109.649178 86.079086 190.217514
   vertex -109.582191 86.111725 189.969666
  endloop
 endfacet
 facet normal -0.965924 0.033783 -0.256613
  outer loop
   vertex -109.582191 86.111725 189.969666
   vertex -109.582191 85.615997 189.904404
   vertex -109.649178 85.583366 190.152252
  endloop
 endfacet
 facet normal -0.965920 -0.033784 0.256626
  outer loop
   vertex -109.649185 86.144356 189.721802
   vertex -109.582191 85.615997 189.904404
   vertex -109.582191 86.111725 189.969666
  endloop
 endfacet
 facet normal -0.965920 -0.033784 0.256626
  outer loop
   vertex -109.649185 85.648628 189.656540
   vertex -109.582191 85.615997 189.904404
   vertex -109.649185 86.144356 189.721802
  endloop
 endfacet
 facet normal -0.707139 -0.092289 0.701026
  outer loop
   vertex -109.649185 86.144356 189.721802
   vertex -109.832191 86.168243 189.540344
   vertex -109.649185 85.648628 189.656540
  endloop
 endfacet
 facet normal -0.707139 -0.092289 0.701026
  outer loop
   vertex -109.649185 85.648628 189.656540
   vertex -109.832191 86.168243 189.540344
   vertex -109.832191 85.672516 189.475082
  endloop
 endfacet
 facet normal -0.258790 -0.126076 0.957670
  outer loop
   vertex -109.832191 85.672516 189.475082
   vertex -109.832191 86.168243 189.540344
   vertex -110.082191 86.176987 189.473938
  endloop
 endfacet
 facet normal -0.258790 -0.126076 0.957670
  outer loop
   vertex -110.082191 86.176987 189.473938
   vertex -110.082191 85.681259 189.408676
   vertex -109.832191 85.672516 189.475082
  endloop
 endfacet
 facet normal 0.258790 -0.126076 0.957670
  outer loop
   vertex -110.332191 85.672516 189.475082
   vertex -110.082191 85.681259 189.408676
   vertex -110.082191 86.176987 189.473938
  endloop
 endfacet
endsolid