solid stl file generated from DOUG
 facet normal 0.000000 0.923878 0.382686
  outer loop
   vertex -286.177948 60.857166 130.647766
   vertex -285.676788 60.857166 130.647766
   vertex -286.177948 60.953060 130.416260
  endloop
 endfacet
 facet normal -0.000000 0.923878 0.382686
  outer loop
   vertex -286.177948 60.953060 130.416260
   vertex -285.676788 60.857166 130.647766
   vertex -285.676788 60.953060 130.416260
  endloop
 endfacet
 facet normal 0.000000 0.793361 -0.608752
  outer loop
   vertex -285.676788 60.953060 130.416260
   vertex -286.177948 60.800514 130.217453
   vertex -286.177948 60.953060 130.416260
  endloop
 endfacet
 facet normal -0.000000 0.793361 -0.608752
  outer loop
   vertex -285.676788 60.800514 130.217453
   vertex -286.177948 60.800514 130.217453
   vertex -285.676788 60.953060 130.416260
  endloop
 endfacet
 facet normal 0.000000 -0.130552 -0.991441
  outer loop
   vertex -286.177948 60.552071 130.250168
   vertex -286.177948 60.800514 130.217453
   vertex -285.676788 60.800514 130.217453
  endloop
 endfacet
 facet normal -0.000000 -0.130552 -0.991441
  outer loop
   vertex -285.676788 60.800514 130.217453
   vertex -285.676788 60.552071 130.250168
   vertex -286.177948 60.552071 130.250168
  endloop
 endfacet
 facet normal -0.000000 -0.923878 -0.382686
  outer loop
   vertex -286.177948 60.552071 130.250168
   vertex -285.676788 60.552071 130.250168
   vertex -286.177948 60.456177 130.481674
  endloop
 endfacet
 facet normal -0.000000 -0.923878 -0.382686
  outer loop
   vertex -286.177948 60.456177 130.481674
   vertex -285.676788 60.552071 130.250168
   vertex -285.676788 60.456177 130.481674
  endloop
 endfacet
 facet normal 0.000000 -0.793361 0.608752
  outer loop
   vertex -285.676788 60.456177 130.481674
   vertex -286.177948 60.608723 130.680481
   vertex -286.177948 60.456177 130.481674
  endloop
 endfacet
 facet normal -0.000000 -0.793361 0.608752
  outer loop
   vertex -285.676788 60.608723 130.680481
   vertex -286.177948 60.608723 130.680481
   vertex -285.676788 60.456177 130.481674
  endloop
 endfacet
 facet normal -0.000000 0.130552 0.991441
  outer loop
   vertex -286.177948 60.857166 130.647766
   vertex -286.177948 60.608723 130.680481
   vertex -285.676788 60.608723 130.680481
  endloop
 endfacet
 facet normal 0.000000 0.130552 0.991441
  outer loop
   vertex -285.676788 60.608723 130.680481
   vertex -285.676788 60.857166 130.647766
   vertex -286.177948 60.857166 130.647766
  endloop
 endfacet
 facet normal 0.000000 -0.130552 -0.991441
  outer loop
   vertex -285.676788 74.002838 147.779541
   vertex -286.177948 74.002838 147.779541
   vertex -285.676788 74.251282 147.746826
  endloop
 endfacet
 facet normal -0.000000 -0.130552 -0.991441
  outer loop
   vertex -285.676788 74.251282 147.746826
   vertex -286.177948 74.002838 147.779541
   vertex -286.177948 74.251282 147.746826
  endloop
 endfacet
 facet normal 0.000000 0.793368 -0.608742
  outer loop
   vertex -286.177948 74.251282 147.746826
   vertex -285.676788 74.403824 147.945633
   vertex -285.676788 74.251282 147.746826
  endloop
 endfacet
 facet normal -0.000000 0.793368 -0.608742
  outer loop
   vertex -286.177948 74.403824 147.945633
   vertex -285.676788 74.403824 147.945633
   vertex -286.177948 74.251282 147.746826
  endloop
 endfacet
 facet normal 0.000000 0.923878 0.382686
  outer loop
   vertex -285.676788 74.307930 148.177139
   vertex -285.676788 74.403824 147.945633
   vertex -286.177948 74.403824 147.945633
  endloop
 endfacet
 facet normal -0.000000 0.923878 0.382686
  outer loop
   vertex -286.177948 74.403824 147.945633
   vertex -286.177948 74.307930 148.177139
   vertex -285.676788 74.307930 148.177139
  endloop
 endfacet
 facet normal -0.000000 0.130552 0.991441
  outer loop
   vertex -285.676788 74.307930 148.177139
   vertex -286.177948 74.307930 148.177139
   vertex -285.676788 74.059486 148.209854
  endloop
 endfacet
 facet normal -0.000000 0.130552 0.991441
  outer loop
   vertex -285.676788 74.059486 148.209854
   vertex -286.177948 74.307930 148.177139
   vertex -286.177948 74.059486 148.209854
  endloop
 endfacet
 facet normal 0.000000 -0.793353 0.608761
  outer loop
   vertex -286.177948 74.059486 148.209854
   vertex -285.676788 73.906937 148.011047
   vertex -285.676788 74.059486 148.209854
  endloop
 endfacet
 facet normal -0.000000 -0.793353 0.608761
  outer loop
   vertex -286.177948 73.906937 148.011047
   vertex -285.676788 73.906937 148.011047
   vertex -286.177948 74.059486 148.209854
  endloop
 endfacet
 facet normal -0.000000 -0.923868 -0.382712
  outer loop
   vertex -285.676788 74.002838 147.779541
   vertex -285.676788 73.906937 148.011047
   vertex -286.177948 73.906937 148.011047
  endloop
 endfacet
 facet normal 0.000000 -0.923868 -0.382712
  outer loop
   vertex -286.177948 73.906937 148.011047
   vertex -286.177948 74.002838 147.779541
   vertex -285.676788 74.002838 147.779541
  endloop
 endfacet
 facet normal -1.000000 0.000000 0.000000
  outer loop
   vertex -286.177948 74.403824 147.945633
   vertex -286.177948 74.251282 147.746826
   vertex -286.177948 74.155380 147.978348
  endloop
 endfacet
 facet normal -1.000000 -0.000000 -0.000000
  outer loop
   vertex -286.177948 74.155380 147.978348
   vertex -286.177948 74.251282 147.746826
   vertex -286.177948 74.002838 147.779541
  endloop
 endfacet
 facet normal -1.000000 0.000000 0.000000
  outer loop
   vertex -286.177948 74.002838 147.779541
   vertex -286.177948 73.906937 148.011047
   vertex -286.177948 74.155380 147.978348
  endloop
 endfacet
 facet normal -1.000000 -0.000000 0.000000
  outer loop
   vertex -286.177948 60.608723 130.680481
   vertex -286.177948 60.857166 130.647766
   vertex -286.177948 60.704617 130.448959
  endloop
 endfacet
 facet normal -1.000000 -0.000000 -0.000000
  outer loop
   vertex -286.177948 60.704617 130.448959
   vertex -286.177948 60.857166 130.647766
   vertex -286.177948 60.953060 130.416260
  endloop
 endfacet
 facet normal -1.000000 0.000000 0.000000
  outer loop
   vertex -286.177948 60.953060 130.416260
   vertex -286.177948 60.800514 130.217453
   vertex -286.177948 60.704617 130.448959
  endloop
 endfacet
 facet normal -1.000000 0.000000 0.000000
  outer loop
   vertex -286.177948 60.800514 130.217453
   vertex -286.177948 60.552071 130.250168
   vertex -286.177948 60.704617 130.448959
  endloop
 endfacet
 facet normal -1.000000 -0.000000 0.000000
  outer loop
   vertex -286.177948 60.704617 130.448959
   vertex -286.177948 60.552071 130.250168
   vertex -286.177948 60.456177 130.481674
  endloop
 endfacet
 facet normal -1.000000 0.000000 -0.000000
  outer loop
   vertex -286.177948 60.456177 130.481674
   vertex -286.177948 60.608723 130.680481
   vertex -286.177948 60.704617 130.448959
  endloop
 endfacet
 facet normal -1.000000 0.000000 -0.000000
  outer loop
   vertex -286.177948 73.906937 148.011047
   vertex -286.177948 74.059486 148.209854
   vertex -286.177948 74.155380 147.978348
  endloop
 endfacet
 facet normal -1.000000 -0.000000 -0.000000
  outer loop
   vertex -286.177948 74.155380 147.978348
   vertex -286.177948 74.059486 148.209854
   vertex -286.177948 74.307930 148.177139
  endloop
 endfacet
 facet normal -1.000000 0.000000 0.000000
  outer loop
   vertex -286.177948 74.307930 148.177139
   vertex -286.177948 74.403824 147.945633
   vertex -286.177948 74.155380 147.978348
  endloop
 endfacet
 facet normal -1.000000 -0.000000 0.000000
  outer loop
   vertex -284.143188 61.095413 131.985092
   vertex -284.143188 62.087265 131.224030
   vertex -284.143188 59.274364 129.611862
  endloop
 endfacet
 facet normal -1.000000 -0.000000 -0.000000
  outer loop
   vertex -284.143188 59.274364 129.611862
   vertex -284.143188 62.087265 131.224030
   vertex -284.143188 60.266216 128.850784
  endloop
 endfacet
 facet normal -0.000000 -0.608763 -0.793352
  outer loop
   vertex -284.143188 60.266216 128.850784
   vertex -282.754608 59.274364 129.611862
   vertex -284.143188 59.274364 129.611862
  endloop
 endfacet
 facet normal -0.000000 -0.608763 -0.793352
  outer loop
   vertex -282.754608 60.266216 128.850784
   vertex -282.754608 59.274364 129.611862
   vertex -284.143188 60.266216 128.850784
  endloop
 endfacet
 facet normal 1.000000 -0.000000 0.000000
  outer loop
   vertex -282.754608 62.087265 131.224030
   vertex -282.754608 59.274364 129.611862
   vertex -282.754608 60.266216 128.850784
  endloop
 endfacet
 facet normal -0.000000 0.793354 -0.608760
  outer loop
   vertex -282.754608 60.266216 128.850784
   vertex -284.143188 62.087265 131.224030
   vertex -282.754608 62.087265 131.224030
  endloop
 endfacet
 facet normal -0.000000 0.608755 0.793358
  outer loop
   vertex -282.754608 62.087265 131.224030
   vertex -284.143188 62.087265 131.224030
   vertex -282.754608 61.095413 131.985092
  endloop
 endfacet
 facet normal -0.000000 0.608755 0.793358
  outer loop
   vertex -282.754608 61.095413 131.985092
   vertex -284.143188 62.087265 131.224030
   vertex -284.143188 61.095413 131.985092
  endloop
 endfacet
 facet normal 0.000000 -0.793352 0.608763
  outer loop
   vertex -284.143188 61.095413 131.985092
   vertex -282.754608 59.274364 129.611862
   vertex -282.754608 61.095413 131.985092
  endloop
 endfacet
 facet normal -0.000000 -0.793352 0.608763
  outer loop
   vertex -284.143188 59.274364 129.611862
   vertex -282.754608 59.274364 129.611862
   vertex -284.143188 61.095413 131.985092
  endloop
 endfacet
 facet normal 0.000000 0.608766 0.793350
  outer loop
   vertex -282.754608 74.593788 149.576523
   vertex -282.754608 75.585632 148.815445
   vertex -284.143188 74.593788 149.576523
  endloop
 endfacet
 facet normal 0.000000 0.608766 0.793350
  outer loop
   vertex -284.143188 74.593788 149.576523
   vertex -282.754608 75.585632 148.815445
   vertex -284.143188 75.585632 148.815445
  endloop
 endfacet
 facet normal -1.000000 0.000000 0.000000
  outer loop
   vertex -284.143188 75.585632 148.815445
   vertex -284.143188 72.772736 147.203278
   vertex -284.143188 74.593788 149.576523
  endloop
 endfacet
 facet normal -1.000000 0.000000 -0.000000
  outer loop
   vertex -284.143188 73.764587 146.442215
   vertex -284.143188 72.772736 147.203278
   vertex -284.143188 75.585632 148.815445
  endloop
 endfacet
 facet normal 0.000000 -0.608755 -0.793358
  outer loop
   vertex -282.754608 73.764587 146.442215
   vertex -284.143188 72.772736 147.203278
   vertex -284.143188 73.764587 146.442215
  endloop
 endfacet
 facet normal -0.000000 0.793353 -0.608762
  outer loop
   vertex -284.143188 73.764587 146.442215
   vertex -282.754608 75.585632 148.815445
   vertex -282.754608 73.764587 146.442215
  endloop
 endfacet
 facet normal 1.000000 0.000000 0.000000
  outer loop
   vertex -282.754608 73.764587 146.442215
   vertex -282.754608 75.585632 148.815445
   vertex -282.754608 72.772736 147.203278
  endloop
 endfacet
 facet normal 1.000000 0.000000 -0.000000
  outer loop
   vertex -282.754608 72.772736 147.203278
   vertex -282.754608 75.585632 148.815445
   vertex -282.754608 74.593788 149.576523
  endloop
 endfacet
 facet normal 0.000000 -0.793354 0.608761
  outer loop
   vertex -282.754608 74.593788 149.576523
   vertex -284.143188 72.772736 147.203278
   vertex -282.754608 72.772736 147.203278
  endloop
 endfacet
 facet normal -0.000000 -0.793354 0.608761
  outer loop
   vertex -284.143188 74.593788 149.576523
   vertex -284.143188 72.772736 147.203278
   vertex -282.754608 74.593788 149.576523
  endloop
 endfacet
 facet normal 0.000000 0.793353 -0.608762
  outer loop
   vertex -284.143188 73.764587 146.442215
   vertex -284.143188 75.585632 148.815445
   vertex -282.754608 75.585632 148.815445
  endloop
 endfacet
 facet normal 0.000000 0.793354 -0.608760
  outer loop
   vertex -284.143188 60.266216 128.850784
   vertex -284.143188 62.087265 131.224030
   vertex -282.754608 60.266216 128.850784
  endloop
 endfacet
 facet normal -0.000000 -0.608755 -0.793358
  outer loop
   vertex -282.754608 73.764587 146.442215
   vertex -282.754608 72.772736 147.203278
   vertex -284.143188 72.772736 147.203278
  endloop
 endfacet
 facet normal 1.000000 0.000000 0.000000
  outer loop
   vertex -282.754608 62.087265 131.224030
   vertex -282.754608 61.095413 131.985092
   vertex -282.754608 59.274364 129.611862
  endloop
 endfacet
 facet normal -1.000000 0.000000 0.000000
  outer loop
   vertex -286.913025 60.836189 131.909927
   vertex -286.913025 72.865219 147.406403
   vertex -286.913025 60.923149 131.843201
  endloop
 endfacet
 facet normal -0.593848 0.638314 -0.489796
  outer loop
   vertex -286.913025 60.923149 131.843201
   vertex -286.913025 72.865219 147.406403
   vertex -286.796143 60.991589 131.790680
  endloop
 endfacet
 facet normal -0.610608 0.628281 -0.482101
  outer loop
   vertex -286.972198 73.554794 145.934982
   vertex -286.889099 74.311012 146.815247
   vertex -286.889099 73.605629 145.895981
  endloop
 endfacet
 facet normal -0.000000 0.793351 -0.608765
  outer loop
   vertex -286.889099 73.605629 145.895981
   vertex -286.889099 74.311012 146.815247
   vertex -286.047455 74.311012 146.815247
  endloop
 endfacet
 facet normal 0.000000 -0.793352 0.608763
  outer loop
   vertex -286.047455 60.548992 131.612061
   vertex -286.889099 61.254372 132.531326
   vertex -286.889099 60.548992 131.612061
  endloop
 endfacet
 facet normal -0.610608 -0.628282 0.482099
  outer loop
   vertex -286.889099 60.548992 131.612061
   vertex -286.889099 61.254372 132.531326
   vertex -286.972198 61.305206 132.492325
  endloop
 endfacet
 facet normal -0.593834 -0.638322 0.489802
  outer loop
   vertex -286.796143 73.868416 146.636627
   vertex -286.913025 73.936852 146.584106
   vertex -286.913025 61.994778 131.020905
  endloop
 endfacet
 facet normal -1.000000 -0.000000 -0.000000
  outer loop
   vertex -286.913025 61.994778 131.020905
   vertex -286.913025 73.936852 146.584106
   vertex -286.913025 62.081741 130.954178
  endloop
 endfacet
 facet normal -0.933473 -0.284533 0.218332
  outer loop
   vertex -286.144287 72.804855 147.452728
   vertex -286.144318 60.862782 131.889511
   vertex -286.131409 72.778259 147.473129
  endloop
 endfacet
 facet normal -0.933211 -0.285075 0.218746
  outer loop
   vertex -286.131409 72.778259 147.473129
   vertex -286.144318 60.862782 131.889511
   vertex -286.131409 60.836189 131.909927
  endloop
 endfacet
 facet normal 0.000000 -0.793353 0.608762
  outer loop
   vertex -286.131409 60.836189 131.909927
   vertex -286.060791 72.778259 147.473129
   vertex -286.131409 72.778259 147.473129
  endloop
 endfacet
 facet normal 0.000051 0.608762 0.793353
  outer loop
   vertex -286.889099 72.991646 147.827637
   vertex -286.873505 73.180260 147.682907
   vertex -286.972198 73.042480 147.788635
  endloop
 endfacet
 facet normal 0.000046 0.608764 0.793351
  outer loop
   vertex -286.972198 73.042480 147.788635
   vertex -286.873505 73.180260 147.682907
   vertex -286.972198 73.168594 147.691864
  endloop
 endfacet
 facet normal -1.000000 0.000000 0.000000
  outer loop
   vertex -286.972198 73.168594 147.691864
   vertex -286.972198 72.337097 146.869354
   vertex -286.972198 73.042480 147.788635
  endloop
 endfacet
 facet normal 0.000044 -0.608754 -0.793359
  outer loop
   vertex -286.889099 61.868355 130.599670
   vertex -286.873505 61.679737 130.744400
   vertex -286.972198 61.817520 130.638672
  endloop
 endfacet
 facet normal 0.000022 -0.608764 -0.793351
  outer loop
   vertex -286.972198 61.817520 130.638672
   vertex -286.873505 61.679737 130.744400
   vertex -286.972198 61.691406 130.735443
  endloop
 endfacet
 facet normal -1.000000 0.000000 0.000000
  outer loop
   vertex -286.972198 61.691406 130.735443
   vertex -286.972198 62.522903 131.557953
   vertex -286.972198 61.817520 130.638672
  endloop
 endfacet
 facet normal -0.000001 -0.608764 -0.793351
  outer loop
   vertex -286.972198 73.428680 146.031754
   vertex -286.972198 73.554794 145.934982
   vertex -286.873505 73.417007 146.040710
  endloop
 endfacet
 facet normal 0.000037 -0.608747 -0.793364
  outer loop
   vertex -286.873505 73.417007 146.040710
   vertex -286.972198 73.554794 145.934982
   vertex -286.889099 73.605629 145.895981
  endloop
 endfacet
 facet normal -0.000000 -0.608749 -0.793363
  outer loop
   vertex -286.889099 73.605629 145.895981
   vertex -286.047455 73.605629 145.895981
   vertex -286.873505 73.417007 146.040710
  endloop
 endfacet
 facet normal -0.000000 0.793351 -0.608765
  outer loop
   vertex -286.047455 74.311012 146.815247
   vertex -286.047455 73.605629 145.895981
   vertex -286.889099 73.605629 145.895981
  endloop
 endfacet
 facet normal -0.593793 -0.638346 0.489820
  outer loop
   vertex -286.913025 61.994778 131.020905
   vertex -286.796143 61.926342 131.073410
   vertex -286.796143 73.868416 146.636627
  endloop
 endfacet
 facet normal -1.000000 -0.000000 0.000000
  outer loop
   vertex -286.796143 73.868416 146.636627
   vertex -286.796143 61.926342 131.073410
   vertex -286.796143 60.991589 131.790680
  endloop
 endfacet
 facet normal -1.000000 0.000000 -0.000000
  outer loop
   vertex -286.796143 60.991589 131.790680
   vertex -286.796143 72.933662 147.353897
   vertex -286.796143 73.868416 146.636627
  endloop
 endfacet
 facet normal -0.593820 0.638331 -0.489808
  outer loop
   vertex -286.913025 72.865219 147.406403
   vertex -286.796143 72.933662 147.353897
   vertex -286.796143 60.991589 131.790680
  endloop
 endfacet
 facet normal 0.000000 -0.793352 0.608763
  outer loop
   vertex -286.047455 60.548992 131.612061
   vertex -286.047455 61.254372 132.531326
   vertex -286.889099 61.254372 132.531326
  endloop
 endfacet
 facet normal 0.000000 0.608757 0.793357
  outer loop
   vertex -286.889099 61.254372 132.531326
   vertex -286.047455 61.254372 132.531326
   vertex -286.873505 61.442989 132.386597
  endloop
 endfacet
 facet normal 0.000044 0.608754 0.793359
  outer loop
   vertex -286.873505 61.442989 132.386597
   vertex -286.972198 61.305206 132.492325
   vertex -286.889099 61.254372 132.531326
  endloop
 endfacet
 facet normal 0.000048 0.608752 0.793360
  outer loop
   vertex -286.972198 61.431324 132.395554
   vertex -286.972198 61.305206 132.492325
   vertex -286.873505 61.442989 132.386597
  endloop
 endfacet
 facet normal 0.933496 -0.284488 0.218295
  outer loop
   vertex -286.757843 60.862782 131.889511
   vertex -286.757843 72.804855 147.452728
   vertex -286.770721 60.836189 131.909927
  endloop
 endfacet
 facet normal 0.933473 -0.284534 0.218331
  outer loop
   vertex -286.770721 60.836189 131.909927
   vertex -286.757843 72.804855 147.452728
   vertex -286.770721 72.778259 147.473129
  endloop
 endfacet
 facet normal 0.000000 -0.793353 0.608762
  outer loop
   vertex -286.770721 72.778259 147.473129
   vertex -286.913025 60.836189 131.909927
   vertex -286.770721 60.836189 131.909927
  endloop
 endfacet
 facet normal -0.000000 -0.793353 0.608762
  outer loop
   vertex -286.913025 72.778259 147.473129
   vertex -286.913025 60.836189 131.909927
   vertex -286.770721 72.778259 147.473129
  endloop
 endfacet
 facet normal -1.000000 0.000000 0.000000
  outer loop
   vertex -286.913025 72.865219 147.406403
   vertex -286.913025 60.836189 131.909927
   vertex -286.913025 72.778259 147.473129
  endloop
 endfacet
 facet normal -1.000000 0.000000 0.000000
  outer loop
   vertex -285.697174 59.912991 130.333038
   vertex -285.697174 61.800865 130.961884
   vertex -285.697174 60.797527 129.654312
  endloop
 endfacet
 facet normal -0.000000 0.793352 -0.608763
  outer loop
   vertex -285.697174 60.797527 129.654312
   vertex -285.697174 61.800865 130.961884
   vertex -284.156128 60.797527 129.654312
  endloop
 endfacet
 facet normal 0.000000 -0.608760 -0.793355
  outer loop
   vertex -284.156128 60.797527 129.654312
   vertex -284.156128 59.912991 130.333038
   vertex -285.697174 60.797527 129.654312
  endloop
 endfacet
 facet normal 1.000000 -0.000000 -0.000000
  outer loop
   vertex -284.156128 61.800865 130.961884
   vertex -284.156128 59.912991 130.333038
   vertex -284.156128 60.797527 129.654312
  endloop
 endfacet
 facet normal 1.000000 0.000000 0.000000
  outer loop
   vertex -284.156128 60.916325 131.640610
   vertex -284.156128 59.912991 130.333038
   vertex -284.156128 61.800865 130.961884
  endloop
 endfacet
 facet normal -0.000000 0.608758 0.793356
  outer loop
   vertex -284.156128 61.800865 130.961884
   vertex -285.697174 61.800865 130.961884
   vertex -284.156128 60.916325 131.640610
  endloop
 endfacet
 facet normal 0.000000 0.608758 0.793356
  outer loop
   vertex -284.156128 60.916325 131.640610
   vertex -285.697174 61.800865 130.961884
   vertex -285.697174 60.916325 131.640610
  endloop
 endfacet
 facet normal -1.000000 -0.000000 -0.000000
  outer loop
   vertex -285.697174 60.916325 131.640610
   vertex -285.697174 61.800865 130.961884
   vertex -285.697174 59.912991 130.333038
  endloop
 endfacet
 facet normal 0.000000 -0.793354 0.608761
  outer loop
   vertex -285.697174 59.912991 130.333038
   vertex -284.156128 59.912991 130.333038
   vertex -285.697174 60.916325 131.640610
  endloop
 endfacet
 facet normal -0.000000 -0.608760 -0.793355
  outer loop
   vertex -285.697174 60.797527 129.654312
   vertex -284.156128 59.912991 130.333038
   vertex -285.697174 59.912991 130.333038
  endloop
 endfacet
 facet normal 0.000000 -0.793351 0.608764
  outer loop
   vertex -285.697174 74.062477 148.772995
   vertex -285.697174 73.059135 147.465424
   vertex -284.156128 74.062477 148.772995
  endloop
 endfacet
 facet normal -0.000000 -0.793351 0.608764
  outer loop
   vertex -284.156128 74.062477 148.772995
   vertex -285.697174 73.059135 147.465424
   vertex -284.156128 73.059135 147.465424
  endloop
 endfacet
 facet normal 1.000000 0.000000 0.000000
  outer loop
   vertex -284.156128 73.059135 147.465424
   vertex -284.156128 74.947014 148.094269
   vertex -284.156128 74.062477 148.772995
  endloop
 endfacet
 facet normal 1.000000 -0.000000 -0.000000
  outer loop
   vertex -284.156128 73.943672 146.786697
   vertex -284.156128 74.947014 148.094269
   vertex -284.156128 73.059135 147.465424
  endloop
 endfacet
 facet normal 0.000000 0.793351 -0.608764
  outer loop
   vertex -285.697174 73.943672 146.786697
   vertex -284.156128 74.947014 148.094269
   vertex -284.156128 73.943672 146.786697
  endloop
 endfacet
 facet normal -0.000000 -0.608760 -0.793355
  outer loop
   vertex -284.156128 73.943672 146.786697
   vertex -285.697174 73.059135 147.465424
   vertex -285.697174 73.943672 146.786697
  endloop
 endfacet
 facet normal -1.000000 0.000000 0.000000
  outer loop
   vertex -285.697174 73.943672 146.786697
   vertex -285.697174 73.059135 147.465424
   vertex -285.697174 74.947014 148.094269
  endloop
 endfacet
 facet normal -1.000000 -0.000000 -0.000000
  outer loop
   vertex -285.697174 74.947014 148.094269
   vertex -285.697174 73.059135 147.465424
   vertex -285.697174 74.062477 148.772995
  endloop
 endfacet
 facet normal 0.000000 0.608760 0.793355
  outer loop
   vertex -285.697174 74.062477 148.772995
   vertex -284.156128 74.947014 148.094269
   vertex -285.697174 74.947014 148.094269
  endloop
 endfacet
 facet normal -0.000000 0.608760 0.793355
  outer loop
   vertex -284.156128 74.062477 148.772995
   vertex -284.156128 74.947014 148.094269
   vertex -285.697174 74.062477 148.772995
  endloop
 endfacet
 facet normal 1.000000 0.000000 0.000000
  outer loop
   vertex -285.082184 59.677265 128.699432
   vertex -285.082184 59.890335 128.977097
   vertex -285.082184 59.493656 129.281479
  endloop
 endfacet
 facet normal -1.000000 -0.000000 -0.000000
  outer loop
   vertex -285.082184 59.493656 129.281479
   vertex -285.082184 59.890335 128.977097
   vertex -285.082184 59.585461 128.990448
  endloop
 endfacet
 facet normal -1.000000 0.000000 0.000000
  outer loop
   vertex -285.082184 59.585461 128.990448
   vertex -285.082184 59.280590 129.003799
   vertex -285.082184 59.493656 129.281479
  endloop
 endfacet
 facet normal -1.000000 -0.000000 -0.000000
  outer loop
   vertex -285.082184 59.677265 128.699432
   vertex -285.082184 59.280590 129.003799
   vertex -285.082184 59.585461 128.990448
  endloop
 endfacet
 facet normal 0.000000 -0.608746 -0.793365
  outer loop
   vertex -284.082184 59.280590 129.003799
   vertex -285.082184 59.280590 129.003799
   vertex -285.082184 59.677265 128.699432
  endloop
 endfacet
 facet normal -0.000000 -0.608746 -0.793365
  outer loop
   vertex -285.082184 59.677265 128.699432
   vertex -284.082184 59.677265 128.699432
   vertex -284.082184 59.280590 129.003799
  endloop
 endfacet
 facet normal 1.000000 0.000000 -0.000000
  outer loop
   vertex -284.082184 59.280590 129.003799
   vertex -284.082184 59.677265 128.699432
   vertex -284.082184 60.315483 130.352509
  endloop
 endfacet
 facet normal 1.000000 -0.000000 -0.000000
  outer loop
   vertex -284.082184 60.315483 130.352509
   vertex -284.082184 59.677265 128.699432
   vertex -284.082184 60.712162 130.048126
  endloop
 endfacet
 facet normal -0.000000 0.608761 0.793353
  outer loop
   vertex -284.082184 60.712162 130.048126
   vertex -285.082184 60.712162 130.048126
   vertex -284.082184 60.315483 130.352509
  endloop
 endfacet
 facet normal -0.000000 0.793361 -0.608752
  outer loop
   vertex -284.832184 60.458317 129.717300
   vertex -285.082184 60.712162 130.048126
   vertex -284.082184 60.712162 130.048126
  endloop
 endfacet
 facet normal -0.000002 0.793360 -0.608753
  outer loop
   vertex -285.082184 60.499096 129.770447
   vertex -285.082184 60.712162 130.048126
   vertex -284.832184 60.458317 129.717300
  endloop
 endfacet
 facet normal 0.000000 -0.793361 0.608752
  outer loop
   vertex -284.832184 74.401688 148.710007
   vertex -285.082184 74.147842 148.379181
   vertex -284.082184 74.147842 148.379181
  endloop
 endfacet
 facet normal 0.000000 -0.608765 -0.793351
  outer loop
   vertex -284.082184 74.147842 148.379181
   vertex -285.082184 74.147842 148.379181
   vertex -284.082184 74.544518 148.074799
  endloop
 endfacet
 facet normal 1.000000 0.000000 0.000000
  outer loop
   vertex -284.082184 74.544518 148.074799
   vertex -284.082184 75.182732 149.727875
   vertex -284.082184 74.147842 148.379181
  endloop
 endfacet
 facet normal 1.000000 -0.000000 0.000000
  outer loop
   vertex -284.082184 75.579414 149.423508
   vertex -284.082184 75.182732 149.727875
   vertex -284.082184 74.544518 148.074799
  endloop
 endfacet
 facet normal 0.000000 0.608738 0.793371
  outer loop
   vertex -285.082184 75.182732 149.727875
   vertex -284.082184 75.182732 149.727875
   vertex -284.082184 75.579414 149.423508
  endloop
 endfacet
 facet normal -0.000000 0.608738 0.793371
  outer loop
   vertex -284.082184 75.579414 149.423508
   vertex -285.082184 75.579414 149.423508
   vertex -285.082184 75.182732 149.727875
  endloop
 endfacet
 facet normal -1.000000 0.000000 0.000000
  outer loop
   vertex -285.082184 75.182732 149.727875
   vertex -285.082184 75.579414 149.423508
   vertex -285.082184 75.274536 149.436859
  endloop
 endfacet
 facet normal -1.000000 -0.000000 -0.000000
  outer loop
   vertex -285.082184 75.274536 149.436859
   vertex -285.082184 75.579414 149.423508
   vertex -285.082184 75.366341 149.145828
  endloop
 endfacet
 facet normal -1.000000 0.000000 0.000000
  outer loop
   vertex -285.082184 75.366341 149.145828
   vertex -285.082184 74.969666 149.450211
   vertex -285.082184 75.274536 149.436859
  endloop
 endfacet
 facet normal 1.000000 -0.000000 -0.000000
  outer loop
   vertex -285.082184 75.182732 149.727875
   vertex -285.082184 74.969666 149.450211
   vertex -285.082184 75.366341 149.145828
  endloop
 endfacet
 facet normal -1.000000 0.000000 0.000000
  outer loop
   vertex -285.082184 75.274536 149.436859
   vertex -285.082184 74.969666 149.450211
   vertex -285.082184 75.182732 149.727875
  endloop
 endfacet
 facet normal -1.000000 -0.000000 0.000000
  outer loop
   vertex -286.913025 73.936852 146.584106
   vertex -286.913025 74.023811 146.517380
   vertex -286.913025 62.081741 130.954178
  endloop
 endfacet
 facet normal -0.000000 0.793353 -0.608762
  outer loop
   vertex -286.913025 62.081741 130.954178
   vertex -286.913025 74.023811 146.517380
   vertex -286.770721 74.023811 146.517380
  endloop
 endfacet
 facet normal 0.000000 0.793353 -0.608762
  outer loop
   vertex -286.770721 74.023811 146.517380
   vertex -286.770721 62.081741 130.954178
   vertex -286.913025 62.081741 130.954178
  endloop
 endfacet
 facet normal 0.933506 0.284465 -0.218278
  outer loop
   vertex -286.757843 73.997215 146.537796
   vertex -286.770721 62.081741 130.954178
   vertex -286.770721 74.023811 146.517380
  endloop
 endfacet
 facet normal 0.933473 0.284534 -0.218331
  outer loop
   vertex -286.757843 62.055145 130.974579
   vertex -286.770721 62.081741 130.954178
   vertex -286.757843 73.997215 146.537796
  endloop
 endfacet
 facet normal -0.000000 0.793354 -0.608761
  outer loop
   vertex -286.757843 73.997215 146.537796
   vertex -286.144287 73.997215 146.537796
   vertex -286.757843 62.055145 130.974579
  endloop
 endfacet
 facet normal 0.000000 0.793354 -0.608761
  outer loop
   vertex -286.757843 62.055145 130.974579
   vertex -286.144287 73.997215 146.537796
   vertex -286.144318 62.055145 130.974579
  endloop
 endfacet
 facet normal -0.933506 0.284466 -0.218277
  outer loop
   vertex -286.144318 62.055145 130.974579
   vertex -286.144287 73.997215 146.537796
   vertex -286.131409 74.023811 146.517380
  endloop
 endfacet
 facet normal -0.933188 0.285121 -0.218781
  outer loop
   vertex -286.131409 74.023811 146.517380
   vertex -286.131409 62.081741 130.954178
   vertex -286.144318 62.055145 130.974579
  endloop
 endfacet
 facet normal -0.000000 0.793353 -0.608762
  outer loop
   vertex -286.060791 74.023811 146.517380
   vertex -286.131409 62.081741 130.954178
   vertex -286.131409 74.023811 146.517380
  endloop
 endfacet
 facet normal 0.000000 0.793353 -0.608762
  outer loop
   vertex -286.060791 62.081741 130.954178
   vertex -286.131409 62.081741 130.954178
   vertex -286.060791 74.023811 146.517380
  endloop
 endfacet
 facet normal 1.000000 -0.000000 0.000000
  outer loop
   vertex -286.060791 74.023811 146.517380
   vertex -286.060791 72.778259 147.473129
   vertex -286.060791 62.081741 130.954178
  endloop
 endfacet
 facet normal 1.000000 0.000000 0.000000
  outer loop
   vertex -286.060791 62.081741 130.954178
   vertex -286.060791 72.778259 147.473129
   vertex -286.060791 60.836189 131.909927
  endloop
 endfacet
 facet normal -0.000000 -0.793353 0.608762
  outer loop
   vertex -286.060791 60.836189 131.909927
   vertex -286.060791 72.778259 147.473129
   vertex -286.131409 60.836189 131.909927
  endloop
 endfacet
 facet normal 0.000000 -0.793361 0.608752
  outer loop
   vertex -284.832184 60.061638 130.021683
   vertex -284.082184 60.315483 130.352509
   vertex -285.082184 60.315483 130.352509
  endloop
 endfacet
 facet normal 0.000000 0.608761 0.793353
  outer loop
   vertex -285.082184 60.315483 130.352509
   vertex -284.082184 60.315483 130.352509
   vertex -285.082184 60.712162 130.048126
  endloop
 endfacet
 facet normal -1.000000 0.000000 0.000000
  outer loop
   vertex -285.082184 60.712162 130.048126
   vertex -285.082184 60.102417 130.074829
   vertex -285.082184 60.315483 130.352509
  endloop
 endfacet
 facet normal -1.000000 -0.000000 -0.000000
  outer loop
   vertex -285.082184 60.499096 129.770447
   vertex -285.082184 60.102417 130.074829
   vertex -285.082184 60.712162 130.048126
  endloop
 endfacet
 facet normal 1.000000 0.000000 0.000000
  outer loop
   vertex -285.082184 60.712162 130.048126
   vertex -285.082184 60.102417 130.074829
   vertex -285.082184 60.499096 129.770447
  endloop
 endfacet
 facet normal 0.000002 0.793360 -0.608753
  outer loop
   vertex -285.082184 60.499096 129.770447
   vertex -285.332184 60.458317 129.717300
   vertex -285.082184 60.712162 130.048126
  endloop
 endfacet
 facet normal -0.000001 0.793361 -0.608752
  outer loop
   vertex -285.082184 60.712162 130.048126
   vertex -285.332184 60.458317 129.717300
   vertex -285.507172 60.642838 129.957779
  endloop
 endfacet
 facet normal -0.000024 0.793353 -0.608762
  outer loop
   vertex -285.507172 60.642838 129.957779
   vertex -285.332184 60.458317 129.717300
   vertex -285.515198 60.346905 129.572113
  endloop
 endfacet
 facet normal -0.000007 0.793352 -0.608763
  outer loop
   vertex -285.515198 60.346905 129.572113
   vertex -285.818298 60.453438 129.710953
   vertex -285.507172 60.642838 129.957779
  endloop
 endfacet
 facet normal -0.000012 0.793347 -0.608770
  outer loop
   vertex -285.582184 60.194714 129.373779
   vertex -285.818298 60.453438 129.710953
   vertex -285.515198 60.346905 129.572113
  endloop
 endfacet
 facet normal 0.000000 0.793351 -0.608764
  outer loop
   vertex -285.932190 60.194714 129.373779
   vertex -285.818298 60.453438 129.710953
   vertex -285.582184 60.194714 129.373779
  endloop
 endfacet
 facet normal -0.000000 0.793368 -0.608743
  outer loop
   vertex -285.582184 60.194714 129.373779
   vertex -285.515198 60.042522 129.175430
   vertex -285.932190 60.194714 129.373779
  endloop
 endfacet
 facet normal -0.000019 0.793348 -0.608768
  outer loop
   vertex -285.932190 60.194714 129.373779
   vertex -285.515198 60.042522 129.175430
   vertex -285.818298 59.935989 129.036606
  endloop
 endfacet
 facet normal -0.000012 0.793341 -0.608778
  outer loop
   vertex -285.818298 59.935989 129.036606
   vertex -285.515198 60.042522 129.175430
   vertex -285.332184 59.931114 129.030243
  endloop
 endfacet
 facet normal -0.000012 0.793359 -0.608754
  outer loop
   vertex -285.332184 59.931114 129.030243
   vertex -285.507172 59.746590 128.789764
   vertex -285.818298 59.935989 129.036606
  endloop
 endfacet
 facet normal -0.000004 0.793356 -0.608757
  outer loop
   vertex -285.082184 59.890335 128.977097
   vertex -285.507172 59.746590 128.789764
   vertex -285.332184 59.931114 129.030243
  endloop
 endfacet
 facet normal 0.000013 0.793339 -0.608781
  outer loop
   vertex -285.082184 59.677265 128.699432
   vertex -285.507172 59.746590 128.789764
   vertex -285.082184 59.890335 128.977097
  endloop
 endfacet
 facet normal 0.000011 0.793339 -0.608781
  outer loop
   vertex -285.082184 59.890335 128.977097
   vertex -284.832184 59.931114 129.030243
   vertex -285.082184 59.677265 128.699432
  endloop
 endfacet
 facet normal 0.000000 0.793343 -0.608775
  outer loop
   vertex -285.082184 59.677265 128.699432
   vertex -284.832184 59.931114 129.030243
   vertex -284.082184 59.677265 128.699432
  endloop
 endfacet
 facet normal 0.000003 0.793346 -0.608771
  outer loop
   vertex -284.082184 59.677265 128.699432
   vertex -284.832184 59.931114 129.030243
   vertex -284.649170 60.042522 129.175430
  endloop
 endfacet
 facet normal 0.000032 0.793362 -0.608750
  outer loop
   vertex -284.649170 60.042522 129.175430
   vertex -284.582184 60.194714 129.373779
   vertex -284.082184 59.677265 128.699432
  endloop
 endfacet
 facet normal 0.000000 0.793361 -0.608752
  outer loop
   vertex -284.832184 74.798363 148.405624
   vertex -284.082184 74.544518 148.074799
   vertex -285.082184 74.544518 148.074799
  endloop
 endfacet
 facet normal -0.000000 -0.608765 -0.793351
  outer loop
   vertex -285.082184 74.544518 148.074799
   vertex -284.082184 74.544518 148.074799
   vertex -285.082184 74.147842 148.379181
  endloop
 endfacet
 facet normal -1.000000 -0.000000 0.000000
  outer loop
   vertex -285.082184 74.147842 148.379181
   vertex -285.082184 74.757584 148.352478
   vertex -285.082184 74.544518 148.074799
  endloop
 endfacet
 facet normal -1.000000 -0.000000 -0.000000
  outer loop
   vertex -285.082184 74.360909 148.656860
   vertex -285.082184 74.757584 148.352478
   vertex -285.082184 74.147842 148.379181
  endloop
 endfacet
 facet normal 1.000000 0.000000 0.000000
  outer loop
   vertex -285.082184 74.147842 148.379181
   vertex -285.082184 74.757584 148.352478
   vertex -285.082184 74.360909 148.656860
  endloop
 endfacet
 facet normal 0.000002 -0.793360 0.608753
  outer loop
   vertex -285.082184 74.360909 148.656860
   vertex -285.332184 74.401688 148.710007
   vertex -285.082184 74.147842 148.379181
  endloop
 endfacet
 facet normal 0.000008 -0.793358 0.608756
  outer loop
   vertex -285.082184 74.147842 148.379181
   vertex -285.332184 74.401688 148.710007
   vertex -285.507172 74.217163 148.469528
  endloop
 endfacet
 facet normal -0.000018 -0.793349 0.608767
  outer loop
   vertex -285.507172 74.217163 148.469528
   vertex -285.332184 74.401688 148.710007
   vertex -285.515198 74.513100 148.855194
  endloop
 endfacet
 facet normal -0.000001 -0.793349 0.608768
  outer loop
   vertex -285.515198 74.513100 148.855194
   vertex -285.818298 74.406563 148.716354
   vertex -285.507172 74.217163 148.469528
  endloop
 endfacet
 facet normal 0.000008 -0.793358 0.608755
  outer loop
   vertex -285.582184 74.665283 149.053528
   vertex -285.818298 74.406563 148.716354
   vertex -285.515198 74.513100 148.855194
  endloop
 endfacet
 facet normal 0.000000 -0.793355 0.608759
  outer loop
   vertex -285.932190 74.665283 149.053528
   vertex -285.818298 74.406563 148.716354
   vertex -285.582184 74.665283 149.053528
  endloop
 endfacet
 facet normal -0.000000 -0.793368 0.608743
  outer loop
   vertex -285.582184 74.665283 149.053528
   vertex -285.515198 74.817474 149.251877
   vertex -285.932190 74.665283 149.053528
  endloop
 endfacet
 facet normal -0.000024 -0.793343 0.608775
  outer loop
   vertex -285.932190 74.665283 149.053528
   vertex -285.515198 74.817474 149.251877
   vertex -285.818298 74.924011 149.390701
  endloop
 endfacet
 facet normal -0.000012 -0.793330 0.608791
  outer loop
   vertex -285.818298 74.924011 149.390701
   vertex -285.515198 74.817474 149.251877
   vertex -285.332184 74.928886 149.397064
  endloop
 endfacet
 facet normal -0.000012 -0.793359 0.608754
  outer loop
   vertex -285.332184 74.928886 149.397064
   vertex -285.507172 75.113411 149.637543
   vertex -285.818298 74.924011 149.390701
  endloop
 endfacet
 facet normal -0.000004 -0.793356 0.608757
  outer loop
   vertex -285.082184 74.969666 149.450211
   vertex -285.507172 75.113411 149.637543
   vertex -285.332184 74.928886 149.397064
  endloop
 endfacet
 facet normal 0.000008 -0.793344 0.608774
  outer loop
   vertex -285.082184 75.182732 149.727875
   vertex -285.507172 75.113411 149.637543
   vertex -285.082184 74.969666 149.450211
  endloop
 endfacet
 facet normal 0.000009 -0.793344 0.608774
  outer loop
   vertex -285.082184 74.969666 149.450211
   vertex -284.832184 74.928886 149.397064
   vertex -285.082184 75.182732 149.727875
  endloop
 endfacet
 facet normal 0.000000 -0.793347 0.608770
  outer loop
   vertex -285.082184 75.182732 149.727875
   vertex -284.832184 74.928886 149.397064
   vertex -284.082184 75.182732 149.727875
  endloop
 endfacet
 facet normal -0.000005 -0.793341 0.608777
  outer loop
   vertex -284.082184 75.182732 149.727875
   vertex -284.832184 74.928886 149.397064
   vertex -284.649170 74.817474 149.251877
  endloop
 endfacet
 facet normal 0.000032 -0.793362 0.608750
  outer loop
   vertex -284.649170 74.817474 149.251877
   vertex -284.582184 74.665283 149.053528
   vertex -284.082184 75.182732 149.727875
  endloop
 endfacet
 facet normal 0.455411 0.706306 -0.541972
  outer loop
   vertex -286.047455 74.311012 146.815247
   vertex -285.556183 74.111641 146.968231
   vertex -286.047455 73.605629 145.895981
  endloop
 endfacet
 facet normal 0.455411 0.706306 -0.541972
  outer loop
   vertex -286.047455 73.605629 145.895981
   vertex -285.556183 74.111641 146.968231
   vertex -285.556183 73.406258 146.048965
  endloop
 endfacet
 facet normal 0.000002 -0.608762 -0.793353
  outer loop
   vertex -285.556183 73.406258 146.048965
   vertex -285.556183 72.485634 146.755386
   vertex -286.047455 73.605629 145.895981
  endloop
 endfacet
 facet normal 1.000000 -0.000000 -0.000000
  outer loop
   vertex -285.556183 74.111641 146.968231
   vertex -285.556183 72.485634 146.755386
   vertex -285.556183 73.406258 146.048965
  endloop
 endfacet
 facet normal 1.000000 0.000000 0.000000
  outer loop
   vertex -285.556183 73.191017 147.674652
   vertex -285.556183 72.485634 146.755386
   vertex -285.556183 74.111641 146.968231
  endloop
 endfacet
 facet normal 0.000002 0.608762 0.793353
  outer loop
   vertex -285.556183 74.111641 146.968231
   vertex -286.047455 72.991646 147.827637
   vertex -285.556183 73.191017 147.674652
  endloop
 endfacet
 facet normal 0.455411 -0.706306 0.541972
  outer loop
   vertex -285.556183 73.191017 147.674652
   vertex -286.047455 72.991646 147.827637
   vertex -285.556183 72.485634 146.755386
  endloop
 endfacet
 facet normal 0.455411 -0.706306 0.541972
  outer loop
   vertex -285.556183 72.485634 146.755386
   vertex -286.047455 72.991646 147.827637
   vertex -286.047455 72.286263 146.908371
  endloop
 endfacet
 facet normal -0.000001 -0.608763 -0.793352
  outer loop
   vertex -286.047455 72.286263 146.908371
   vertex -286.047455 73.605629 145.895981
   vertex -285.556183 72.485634 146.755386
  endloop
 endfacet
 facet normal -0.000005 -0.608763 -0.793352
  outer loop
   vertex -286.873505 72.474884 146.763641
   vertex -286.047455 73.605629 145.895981
   vertex -286.047455 72.286263 146.908371
  endloop
 endfacet
 facet normal 0.000007 -0.608769 -0.793348
  outer loop
   vertex -286.873505 73.417007 146.040710
   vertex -286.047455 73.605629 145.895981
   vertex -286.873505 72.474884 146.763641
  endloop
 endfacet
 facet normal -1.000000 -0.000000 -0.000000
  outer loop
   vertex -286.873505 72.474884 146.763641
   vertex -286.873505 74.122391 146.959991
   vertex -286.873505 73.417007 146.040710
  endloop
 endfacet
 facet normal -0.147452 -0.784684 0.602104
  outer loop
   vertex -286.873505 73.417007 146.040710
   vertex -286.873505 74.122391 146.959991
   vertex -286.972198 73.428680 146.031754
  endloop
 endfacet
 facet normal -0.147392 -0.784694 0.602105
  outer loop
   vertex -286.972198 73.428680 146.031754
   vertex -286.873505 74.122391 146.959991
   vertex -286.972198 74.134056 146.951035
  endloop
 endfacet
 facet normal -1.000000 0.000000 0.000000
  outer loop
   vertex -286.972198 74.134056 146.951035
   vertex -286.972198 73.554794 145.934982
   vertex -286.972198 73.428680 146.031754
  endloop
 endfacet
 facet normal -1.000000 -0.000000 -0.000000
  outer loop
   vertex -286.972198 74.260178 146.854263
   vertex -286.972198 73.554794 145.934982
   vertex -286.972198 74.134056 146.951035
  endloop
 endfacet
 facet normal -0.610663 0.628251 -0.482070
  outer loop
   vertex -286.889099 74.311012 146.815247
   vertex -286.972198 73.554794 145.934982
   vertex -286.972198 74.260178 146.854263
  endloop
 endfacet
 facet normal 0.000064 0.608793 0.793329
  outer loop
   vertex -286.972198 74.260178 146.854263
   vertex -286.873505 74.122391 146.959991
   vertex -286.889099 74.311012 146.815247
  endloop
 endfacet
 facet normal 0.000000 0.608789 0.793332
  outer loop
   vertex -286.889099 74.311012 146.815247
   vertex -286.873505 74.122391 146.959991
   vertex -286.047455 74.311012 146.815247
  endloop
 endfacet
 facet normal 0.000011 0.608758 0.793356
  outer loop
   vertex -286.047455 74.311012 146.815247
   vertex -286.873505 74.122391 146.959991
   vertex -286.873505 73.180260 147.682907
  endloop
 endfacet
 facet normal -0.000000 0.608763 0.793352
  outer loop
   vertex -286.873505 73.180260 147.682907
   vertex -286.047455 72.991646 147.827637
   vertex -286.047455 74.311012 146.815247
  endloop
 endfacet
 facet normal 0.000000 0.608764 0.793351
  outer loop
   vertex -286.889099 72.991646 147.827637
   vertex -286.047455 72.991646 147.827637
   vertex -286.873505 73.180260 147.682907
  endloop
 endfacet
 facet normal 0.000000 -0.793351 0.608765
  outer loop
   vertex -286.047455 72.286263 146.908371
   vertex -286.047455 72.991646 147.827637
   vertex -286.889099 72.991646 147.827637
  endloop
 endfacet
 facet normal -0.000000 -0.793351 0.608765
  outer loop
   vertex -286.889099 72.991646 147.827637
   vertex -286.889099 72.286263 146.908371
   vertex -286.047455 72.286263 146.908371
  endloop
 endfacet
 facet normal 0.000000 -0.608749 -0.793363
  outer loop
   vertex -286.047455 72.286263 146.908371
   vertex -286.889099 72.286263 146.908371
   vertex -286.873505 72.474884 146.763641
  endloop
 endfacet
 facet normal 0.000102 -0.608754 -0.793359
  outer loop
   vertex -286.873505 72.474884 146.763641
   vertex -286.889099 72.286263 146.908371
   vertex -286.972198 72.337097 146.869354
  endloop
 endfacet
 facet normal 0.000124 -0.608764 -0.793351
  outer loop
   vertex -286.972198 72.337097 146.869354
   vertex -286.972198 72.463211 146.772583
   vertex -286.873505 72.474884 146.763641
  endloop
 endfacet
 facet normal -1.000000 -0.000000 0.000000
  outer loop
   vertex -286.972198 73.168594 147.691864
   vertex -286.972198 72.463211 146.772583
   vertex -286.972198 72.337097 146.869354
  endloop
 endfacet
 facet normal -0.147361 0.784695 -0.602112
  outer loop
   vertex -286.873505 72.474884 146.763641
   vertex -286.972198 72.463211 146.772583
   vertex -286.972198 73.168594 147.691864
  endloop
 endfacet
 facet normal -0.147392 0.784689 -0.602112
  outer loop
   vertex -286.972198 73.168594 147.691864
   vertex -286.873505 73.180260 147.682907
   vertex -286.873505 72.474884 146.763641
  endloop
 endfacet
 facet normal -1.000000 0.000000 -0.000000
  outer loop
   vertex -286.873505 72.474884 146.763641
   vertex -286.873505 73.180260 147.682907
   vertex -286.873505 74.122391 146.959991
  endloop
 endfacet
 facet normal 0.455406 -0.706309 0.541971
  outer loop
   vertex -286.047455 60.548992 131.612061
   vertex -285.556183 60.748360 131.459076
   vertex -286.047455 61.254372 132.531326
  endloop
 endfacet
 facet normal 0.455411 -0.706306 0.541972
  outer loop
   vertex -286.047455 61.254372 132.531326
   vertex -285.556183 60.748360 131.459076
   vertex -285.556183 61.453743 132.378342
  endloop
 endfacet
 facet normal 0.000002 0.608762 0.793353
  outer loop
   vertex -285.556183 61.453743 132.378342
   vertex -285.556183 62.374367 131.671921
   vertex -286.047455 61.254372 132.531326
  endloop
 endfacet
 facet normal 1.000000 0.000000 -0.000000
  outer loop
   vertex -285.556183 60.748360 131.459076
   vertex -285.556183 62.374367 131.671921
   vertex -285.556183 61.453743 132.378342
  endloop
 endfacet
 facet normal 1.000000 0.000000 0.000000
  outer loop
   vertex -285.556183 61.668987 130.752655
   vertex -285.556183 62.374367 131.671921
   vertex -285.556183 60.748360 131.459076
  endloop
 endfacet
 facet normal 0.000008 -0.608761 -0.793354
  outer loop
   vertex -285.556183 60.748360 131.459076
   vertex -286.047455 61.868355 130.599670
   vertex -285.556183 61.668987 130.752655
  endloop
 endfacet
 facet normal 0.455406 0.706309 -0.541971
  outer loop
   vertex -285.556183 61.668987 130.752655
   vertex -286.047455 61.868355 130.599670
   vertex -285.556183 62.374367 131.671921
  endloop
 endfacet
 facet normal 0.455411 0.706306 -0.541972
  outer loop
   vertex -285.556183 62.374367 131.671921
   vertex -286.047455 61.868355 130.599670
   vertex -286.047455 62.573738 131.518936
  endloop
 endfacet
 facet normal -0.000001 0.608763 0.793352
  outer loop
   vertex -286.047455 62.573738 131.518936
   vertex -286.047455 61.254372 132.531326
   vertex -285.556183 62.374367 131.671921
  endloop
 endfacet
 facet normal 0.000012 0.608763 0.793352
  outer loop
   vertex -286.873505 62.385120 131.663681
   vertex -286.047455 61.254372 132.531326
   vertex -286.047455 62.573738 131.518936
  endloop
 endfacet
 facet normal 0.000000 0.608758 0.793356
  outer loop
   vertex -286.873505 61.442989 132.386597
   vertex -286.047455 61.254372 132.531326
   vertex -286.873505 62.385120 131.663681
  endloop
 endfacet
 facet normal -1.000000 -0.000000 -0.000000
  outer loop
   vertex -286.873505 62.385120 131.663681
   vertex -286.873505 60.737610 131.467331
   vertex -286.873505 61.442989 132.386597
  endloop
 endfacet
 facet normal -0.147392 0.784688 -0.602114
  outer loop
   vertex -286.873505 61.442989 132.386597
   vertex -286.873505 60.737610 131.467331
   vertex -286.972198 61.431324 132.395554
  endloop
 endfacet
 facet normal -0.147331 0.784698 -0.602115
  outer loop
   vertex -286.972198 61.431324 132.395554
   vertex -286.873505 60.737610 131.467331
   vertex -286.972198 60.725941 131.476273
  endloop
 endfacet
 facet normal -1.000000 0.000000 -0.000000
  outer loop
   vertex -286.972198 60.725941 131.476273
   vertex -286.972198 61.305206 132.492325
   vertex -286.972198 61.431324 132.395554
  endloop
 endfacet
 facet normal -1.000000 -0.000000 -0.000000
  outer loop
   vertex -286.972198 60.599827 131.573044
   vertex -286.972198 61.305206 132.492325
   vertex -286.972198 60.725941 131.476273
  endloop
 endfacet
 facet normal -0.610663 -0.628252 0.482068
  outer loop
   vertex -286.889099 60.548992 131.612061
   vertex -286.972198 61.305206 132.492325
   vertex -286.972198 60.599827 131.573044
  endloop
 endfacet
 facet normal 0.000095 -0.608761 -0.793353
  outer loop
   vertex -286.972198 60.599827 131.573044
   vertex -286.873505 60.737610 131.467331
   vertex -286.889099 60.548992 131.612061
  endloop
 endfacet
 facet normal 0.000000 -0.608757 -0.793357
  outer loop
   vertex -286.889099 60.548992 131.612061
   vertex -286.873505 60.737610 131.467331
   vertex -286.047455 60.548992 131.612061
  endloop
 endfacet
 facet normal -0.000004 -0.608767 -0.793349
  outer loop
   vertex -286.047455 60.548992 131.612061
   vertex -286.873505 60.737610 131.467331
   vertex -286.873505 61.679737 130.744400
  endloop
 endfacet
 facet normal 0.000003 -0.608764 -0.793351
  outer loop
   vertex -286.873505 61.679737 130.744400
   vertex -286.047455 61.868355 130.599670
   vertex -286.047455 60.548992 131.612061
  endloop
 endfacet
 facet normal -0.000000 -0.608757 -0.793357
  outer loop
   vertex -286.889099 61.868355 130.599670
   vertex -286.047455 61.868355 130.599670
   vertex -286.873505 61.679737 130.744400
  endloop
 endfacet
 facet normal 0.000000 0.793351 -0.608765
  outer loop
   vertex -286.047455 62.573738 131.518936
   vertex -286.047455 61.868355 130.599670
   vertex -286.889099 61.868355 130.599670
  endloop
 endfacet
 facet normal -0.000000 0.793351 -0.608765
  outer loop
   vertex -286.889099 61.868355 130.599670
   vertex -286.889099 62.573738 131.518936
   vertex -286.047455 62.573738 131.518936
  endloop
 endfacet
 facet normal -0.000000 0.608797 0.793326
  outer loop
   vertex -286.047455 62.573738 131.518936
   vertex -286.889099 62.573738 131.518936
   vertex -286.873505 62.385120 131.663681
  endloop
 endfacet
 facet normal 0.000057 0.608800 0.793324
  outer loop
   vertex -286.873505 62.385120 131.663681
   vertex -286.889099 62.573738 131.518936
   vertex -286.972198 62.522903 131.557953
  endloop
 endfacet
 facet normal -0.000048 0.608752 0.793360
  outer loop
   vertex -286.972198 62.522903 131.557953
   vertex -286.972198 62.396786 131.654724
   vertex -286.873505 62.385120 131.663681
  endloop
 endfacet
 facet normal -1.000000 -0.000000 -0.000000
  outer loop
   vertex -286.972198 61.691406 130.735443
   vertex -286.972198 62.396786 131.654724
   vertex -286.972198 62.522903 131.557953
  endloop
 endfacet
 facet normal -0.147392 -0.784692 0.602107
  outer loop
   vertex -286.873505 62.385120 131.663681
   vertex -286.972198 62.396786 131.654724
   vertex -286.972198 61.691406 130.735443
  endloop
 endfacet
 facet normal -0.147422 -0.784687 0.602107
  outer loop
   vertex -286.972198 61.691406 130.735443
   vertex -286.873505 61.679737 130.744400
   vertex -286.873505 62.385120 131.663681
  endloop
 endfacet
 facet normal -1.000000 0.000000 0.000000
  outer loop
   vertex -286.873505 62.385120 131.663681
   vertex -286.873505 61.679737 130.744400
   vertex -286.873505 60.737610 131.467331
  endloop
 endfacet
 facet normal -0.000002 0.793360 -0.608753
  outer loop
   vertex -285.082184 74.757584 148.352478
   vertex -285.082184 74.544518 148.074799
   vertex -285.332184 74.798363 148.405624
  endloop
 endfacet
 facet normal -0.000008 0.793358 -0.608756
  outer loop
   vertex -285.332184 74.798363 148.405624
   vertex -285.082184 74.544518 148.074799
   vertex -285.507172 74.613838 148.165146
  endloop
 endfacet
 facet normal 0.000018 0.793349 -0.608767
  outer loop
   vertex -285.507172 74.613838 148.165146
   vertex -285.515198 74.909775 148.550812
   vertex -285.332184 74.798363 148.405624
  endloop
 endfacet
 facet normal 0.000001 0.793349 -0.608768
  outer loop
   vertex -285.818298 74.803238 148.411972
   vertex -285.515198 74.909775 148.550812
   vertex -285.507172 74.613838 148.165146
  endloop
 endfacet
 facet normal 0.000004 0.793346 -0.608772
  outer loop
   vertex -285.582184 75.061966 148.749146
   vertex -285.515198 74.909775 148.550812
   vertex -285.818298 74.803238 148.411972
  endloop
 endfacet
 facet normal -0.000000 0.793347 -0.608770
  outer loop
   vertex -285.818298 74.803238 148.411972
   vertex -285.932190 75.061966 148.749146
   vertex -285.582184 75.061966 148.749146
  endloop
 endfacet
 facet normal 0.000000 0.793368 -0.608743
  outer loop
   vertex -285.582184 75.061966 148.749146
   vertex -285.932190 75.061966 148.749146
   vertex -285.515198 75.214157 148.947495
  endloop
 endfacet
 facet normal -0.000001 0.793369 -0.608741
  outer loop
   vertex -285.515198 75.214157 148.947495
   vertex -285.932190 75.061966 148.749146
   vertex -285.818298 75.320686 149.086334
  endloop
 endfacet
 facet normal -0.000008 0.793363 -0.608749
  outer loop
   vertex -285.818298 75.320686 149.086334
   vertex -285.332184 75.325562 149.092682
   vertex -285.515198 75.214157 148.947495
  endloop
 endfacet
 facet normal -0.000007 0.793353 -0.608762
  outer loop
   vertex -285.507172 75.510086 149.333160
   vertex -285.332184 75.325562 149.092682
   vertex -285.818298 75.320686 149.086334
  endloop
 endfacet
 facet normal 0.000004 0.793356 -0.608757
  outer loop
   vertex -285.082184 75.366341 149.145828
   vertex -285.332184 75.325562 149.092682
   vertex -285.507172 75.510086 149.333160
  endloop
 endfacet
 facet normal -0.000003 0.793349 -0.608766
  outer loop
   vertex -285.507172 75.510086 149.333160
   vertex -285.082184 75.579414 149.423508
   vertex -285.082184 75.366341 149.145828
  endloop
 endfacet
 facet normal -0.000007 0.793349 -0.608766
  outer loop
   vertex -285.082184 75.366341 149.145828
   vertex -285.082184 75.579414 149.423508
   vertex -284.832184 75.325562 149.092682
  endloop
 endfacet
 facet normal -0.000000 0.793352 -0.608763
  outer loop
   vertex -284.832184 75.325562 149.092682
   vertex -285.082184 75.579414 149.423508
   vertex -284.082184 75.579414 149.423508
  endloop
 endfacet
 facet normal -0.000004 0.793356 -0.608758
  outer loop
   vertex -284.082184 75.579414 149.423508
   vertex -284.649170 75.214157 148.947495
   vertex -284.832184 75.325562 149.092682
  endloop
 endfacet
 facet normal -0.000019 0.793365 -0.608747
  outer loop
   vertex -284.582184 75.061966 148.749146
   vertex -284.649170 75.214157 148.947495
   vertex -284.082184 75.579414 149.423508
  endloop
 endfacet
 facet normal -0.000002 -0.793360 0.608753
  outer loop
   vertex -285.082184 60.102417 130.074829
   vertex -285.082184 60.315483 130.352509
   vertex -285.332184 60.061638 130.021683
  endloop
 endfacet
 facet normal 0.000001 -0.793361 0.608752
  outer loop
   vertex -285.332184 60.061638 130.021683
   vertex -285.082184 60.315483 130.352509
   vertex -285.507172 60.246159 130.262161
  endloop
 endfacet
 facet normal 0.000014 -0.793356 0.608758
  outer loop
   vertex -285.507172 60.246159 130.262161
   vertex -285.515198 59.950230 129.876495
   vertex -285.332184 60.061638 130.021683
  endloop
 endfacet
 facet normal 0.000013 -0.793356 0.608758
  outer loop
   vertex -285.818298 60.056759 130.015335
   vertex -285.515198 59.950230 129.876495
   vertex -285.507172 60.246159 130.262161
  endloop
 endfacet
 facet normal 0.000021 -0.793348 0.608768
  outer loop
   vertex -285.582184 59.798038 129.678162
   vertex -285.515198 59.950230 129.876495
   vertex -285.818298 60.056759 130.015335
  endloop
 endfacet
 facet normal -0.000000 -0.793355 0.608759
  outer loop
   vertex -285.818298 60.056759 130.015335
   vertex -285.932190 59.798038 129.678162
   vertex -285.582184 59.798038 129.678162
  endloop
 endfacet
 facet normal 0.000000 -0.793368 0.608743
  outer loop
   vertex -285.582184 59.798038 129.678162
   vertex -285.932190 59.798038 129.678162
   vertex -285.515198 59.645847 129.479813
  endloop
 endfacet
 facet normal 0.000004 -0.793364 0.608748
  outer loop
   vertex -285.515198 59.645847 129.479813
   vertex -285.932190 59.798038 129.678162
   vertex -285.818298 59.539314 129.340973
  endloop
 endfacet
 facet normal -0.000013 -0.793346 0.608771
  outer loop
   vertex -285.818298 59.539314 129.340973
   vertex -285.332184 59.534435 129.334625
   vertex -285.515198 59.645847 129.479813
  endloop
 endfacet
 facet normal -0.000014 -0.793356 0.608757
  outer loop
   vertex -285.507172 59.349915 129.094147
   vertex -285.332184 59.534435 129.334625
   vertex -285.818298 59.539314 129.340973
  endloop
 endfacet
 facet normal 0.000001 -0.793362 0.608751
  outer loop
   vertex -285.082184 59.493656 129.281479
   vertex -285.332184 59.534435 129.334625
   vertex -285.507172 59.349915 129.094147
  endloop
 endfacet
 facet normal -0.000000 -0.793360 0.608753
  outer loop
   vertex -285.507172 59.349915 129.094147
   vertex -285.082184 59.280590 129.003799
   vertex -285.082184 59.493656 129.281479
  endloop
 endfacet
 facet normal -0.000002 -0.793360 0.608753
  outer loop
   vertex -285.082184 59.493656 129.281479
   vertex -285.082184 59.280590 129.003799
   vertex -284.832184 59.534435 129.334625
  endloop
 endfacet
 facet normal -0.000000 -0.793361 0.608752
  outer loop
   vertex -284.832184 59.534435 129.334625
   vertex -285.082184 59.280590 129.003799
   vertex -284.082184 59.280590 129.003799
  endloop
 endfacet
 facet normal 0.000013 -0.793346 0.608771
  outer loop
   vertex -284.082184 59.280590 129.003799
   vertex -284.649170 59.645847 129.479813
   vertex -284.832184 59.534435 129.334625
  endloop
 endfacet
 facet normal -0.000019 -0.793365 0.608747
  outer loop
   vertex -284.582184 59.798038 129.678162
   vertex -284.649170 59.645847 129.479813
   vertex -284.082184 59.280590 129.003799
  endloop
 endfacet
 facet normal 0.000006 -0.793353 0.608761
  outer loop
   vertex -284.082184 75.182732 149.727875
   vertex -284.582184 74.665283 149.053528
   vertex -284.082184 74.147842 148.379181
  endloop
 endfacet
 facet normal -0.000008 -0.793358 0.608755
  outer loop
   vertex -284.082184 74.147842 148.379181
   vertex -284.582184 74.665283 149.053528
   vertex -284.649170 74.513100 148.855194
  endloop
 endfacet
 facet normal 0.000013 -0.793346 0.608771
  outer loop
   vertex -284.649170 74.513100 148.855194
   vertex -284.832184 74.401688 148.710007
   vertex -284.082184 74.147842 148.379181
  endloop
 endfacet
 facet normal -0.000007 -0.793353 0.608763
  outer loop
   vertex -284.832184 60.061638 130.021683
   vertex -284.649170 59.950230 129.876495
   vertex -284.082184 60.315483 130.352509
  endloop
 endfacet
 facet normal -0.000016 -0.793348 0.608769
  outer loop
   vertex -284.082184 60.315483 130.352509
   vertex -284.649170 59.950230 129.876495
   vertex -284.582184 59.798038 129.678162
  endloop
 endfacet
 facet normal 0.000006 -0.793356 0.608759
  outer loop
   vertex -284.582184 59.798038 129.678162
   vertex -284.082184 59.280590 129.003799
   vertex -284.082184 60.315483 130.352509
  endloop
 endfacet
 facet normal 0.000000 0.793351 -0.608764
  outer loop
   vertex -284.082184 59.677265 128.699432
   vertex -284.582184 60.194714 129.373779
   vertex -284.082184 60.712162 130.048126
  endloop
 endfacet
 facet normal 0.000012 0.793347 -0.608770
  outer loop
   vertex -284.082184 60.712162 130.048126
   vertex -284.582184 60.194714 129.373779
   vertex -284.649170 60.346905 129.572113
  endloop
 endfacet
 facet normal 0.000013 0.793346 -0.608771
  outer loop
   vertex -284.649170 60.346905 129.572113
   vertex -284.832184 60.458317 129.717300
   vertex -284.082184 60.712162 130.048126
  endloop
 endfacet
 facet normal -0.000013 0.793346 -0.608771
  outer loop
   vertex -284.832184 74.798363 148.405624
   vertex -284.649170 74.909775 148.550812
   vertex -284.082184 74.544518 148.074799
  endloop
 endfacet
 facet normal -0.000012 0.793347 -0.608770
  outer loop
   vertex -284.082184 74.544518 148.074799
   vertex -284.649170 74.909775 148.550812
   vertex -284.582184 75.061966 148.749146
  endloop
 endfacet
 facet normal 0.000009 0.793354 -0.608760
  outer loop
   vertex -284.582184 75.061966 148.749146
   vertex -284.082184 75.579414 149.423508
   vertex -284.082184 74.544518 148.074799
  endloop
 endfacet
 facet normal -0.610608 0.628281 -0.482101
  outer loop
   vertex -286.889099 61.868355 130.599670
   vertex -286.972198 61.817520 130.638672
   vertex -286.889099 62.573738 131.518936
  endloop
 endfacet
 facet normal -0.610663 0.628251 -0.482070
  outer loop
   vertex -286.889099 62.573738 131.518936
   vertex -286.972198 61.817520 130.638672
   vertex -286.972198 62.522903 131.557953
  endloop
 endfacet
 facet normal 0.000000 -0.793353 0.608761
  outer loop
   vertex -286.144287 72.804855 147.452728
   vertex -286.757843 72.804855 147.452728
   vertex -286.144318 60.862782 131.889511
  endloop
 endfacet
 facet normal -0.000000 -0.793353 0.608761
  outer loop
   vertex -286.144318 60.862782 131.889511
   vertex -286.757843 72.804855 147.452728
   vertex -286.757843 60.862782 131.889511
  endloop
 endfacet
 facet normal -0.610663 -0.628251 0.482070
  outer loop
   vertex -286.972198 72.337097 146.869354
   vertex -286.889099 72.286263 146.908371
   vertex -286.972198 73.042480 147.788635
  endloop
 endfacet
 facet normal -0.610608 -0.628281 0.482101
  outer loop
   vertex -286.972198 73.042480 147.788635
   vertex -286.889099 72.286263 146.908371
   vertex -286.889099 72.991646 147.827637
  endloop
 endfacet
 facet normal -1.000000 0.000000 0.000000
  outer loop
   vertex -285.082184 59.890335 128.977097
   vertex -285.082184 59.677265 128.699432
   vertex -285.082184 59.585461 128.990448
  endloop
 endfacet
 facet normal -0.000005 -0.608764 -0.793351
  outer loop
   vertex -286.047455 60.548992 131.612061
   vertex -286.047455 61.868355 130.599670
   vertex -285.556183 60.748360 131.459076
  endloop
 endfacet
 facet normal 0.000002 -0.793360 0.608753
  outer loop
   vertex -285.082184 60.315483 130.352509
   vertex -285.082184 60.102417 130.074829
   vertex -284.832184 60.061638 130.021683
  endloop
 endfacet
 facet normal -0.000002 -0.793360 0.608753
  outer loop
   vertex -285.082184 74.360909 148.656860
   vertex -285.082184 74.147842 148.379181
   vertex -284.832184 74.401688 148.710007
  endloop
 endfacet
 facet normal 1.000000 0.000000 0.000000
  outer loop
   vertex -285.082184 59.677265 128.699432
   vertex -285.082184 59.493656 129.281479
   vertex -285.082184 59.280590 129.003799
  endloop
 endfacet
 facet normal 0.000000 0.793351 -0.608764
  outer loop
   vertex -285.697174 73.943672 146.786697
   vertex -285.697174 74.947014 148.094269
   vertex -284.156128 74.947014 148.094269
  endloop
 endfacet
 facet normal 0.000000 -0.793354 0.608761
  outer loop
   vertex -284.156128 60.916325 131.640610
   vertex -285.697174 60.916325 131.640610
   vertex -284.156128 59.912991 130.333038
  endloop
 endfacet
 facet normal 1.000000 0.000000 -0.000000
  outer loop
   vertex -285.082184 75.182732 149.727875
   vertex -285.082184 75.366341 149.145828
   vertex -285.082184 75.579414 149.423508
  endloop
 endfacet
 facet normal -0.000050 0.608741 0.793369
  outer loop
   vertex -286.972198 74.260178 146.854263
   vertex -286.972198 74.134056 146.951035
   vertex -286.873505 74.122391 146.959991
  endloop
 endfacet
 facet normal 1.000000 0.000000 0.000000
  outer loop
   vertex -285.082184 60.102417 130.074829
   vertex -285.082184 60.712162 130.048126
   vertex -285.082184 60.315483 130.352509
  endloop
 endfacet
 facet normal -0.000001 0.608763 0.793352
  outer loop
   vertex -286.047455 74.311012 146.815247
   vertex -286.047455 72.991646 147.827637
   vertex -285.556183 74.111641 146.968231
  endloop
 endfacet
 facet normal 0.000100 -0.608764 -0.793351
  outer loop
   vertex -286.972198 60.599827 131.573044
   vertex -286.972198 60.725941 131.476273
   vertex -286.873505 60.737610 131.467331
  endloop
 endfacet
 facet normal 0.000000 0.793352 -0.608763
  outer loop
   vertex -285.697174 61.800865 130.961884
   vertex -284.156128 61.800865 130.961884
   vertex -284.156128 60.797527 129.654312
  endloop
 endfacet
 facet normal -0.000000 -0.608760 -0.793355
  outer loop
   vertex -284.156128 73.943672 146.786697
   vertex -284.156128 73.059135 147.465424
   vertex -285.697174 73.059135 147.465424
  endloop
 endfacet
 facet normal 1.000000 0.000000 0.000000
  outer loop
   vertex -285.082184 74.757584 148.352478
   vertex -285.082184 74.147842 148.379181
   vertex -285.082184 74.544518 148.074799
  endloop
 endfacet
 facet normal 0.000002 0.793360 -0.608753
  outer loop
   vertex -285.082184 74.544518 148.074799
   vertex -285.082184 74.757584 148.352478
   vertex -284.832184 74.798363 148.405624
  endloop
 endfacet
 facet normal -0.707096 0.430468 0.560992
  outer loop
   vertex -284.649170 74.909775 148.550812
   vertex -284.832184 74.401688 148.710007
   vertex -284.649170 74.513100 148.855194
  endloop
 endfacet
 facet normal -0.965926 0.157559 0.205333
  outer loop
   vertex -284.649170 74.909775 148.550812
   vertex -284.649170 74.513100 148.855194
   vertex -284.582184 75.061966 148.749146
  endloop
 endfacet
 facet normal -0.965925 0.157560 0.205338
  outer loop
   vertex -284.582184 75.061966 148.749146
   vertex -284.649170 74.513100 148.855194
   vertex -284.582184 74.665283 149.053528
  endloop
 endfacet
 facet normal -0.965929 -0.157550 -0.205325
  outer loop
   vertex -284.582184 74.665283 149.053528
   vertex -284.649170 75.214157 148.947495
   vertex -284.582184 75.061966 148.749146
  endloop
 endfacet
 facet normal -0.965929 -0.157550 -0.205325
  outer loop
   vertex -284.649170 74.817474 149.251877
   vertex -284.649170 75.214157 148.947495
   vertex -284.582184 74.665283 149.053528
  endloop
 endfacet
 facet normal -0.707087 -0.430469 -0.561003
  outer loop
   vertex -284.832184 75.325562 149.092682
   vertex -284.649170 75.214157 148.947495
   vertex -284.649170 74.817474 149.251877
  endloop
 endfacet
 facet normal -0.707096 -0.430468 -0.560992
  outer loop
   vertex -284.649170 74.817474 149.251877
   vertex -284.832184 74.928886 149.397064
   vertex -284.832184 75.325562 149.092682
  endloop
 endfacet
 facet normal -0.258824 -0.588021 -0.766317
  outer loop
   vertex -284.832184 75.325562 149.092682
   vertex -284.832184 74.928886 149.397064
   vertex -285.082184 75.366341 149.145828
  endloop
 endfacet
 facet normal -0.258824 0.588017 0.766320
  outer loop
   vertex -285.082184 59.890335 128.977097
   vertex -285.082184 59.493656 129.281479
   vertex -284.832184 59.931114 129.030243
  endloop
 endfacet
 facet normal -0.258824 0.588017 0.766320
  outer loop
   vertex -284.832184 59.931114 129.030243
   vertex -285.082184 59.493656 129.281479
   vertex -284.832184 59.534435 129.334625
  endloop
 endfacet
 facet normal -0.707091 0.430469 0.560998
  outer loop
   vertex -284.832184 59.534435 129.334625
   vertex -284.649170 60.042522 129.175430
   vertex -284.832184 59.931114 129.030243
  endloop
 endfacet
 facet normal -0.707096 0.430468 0.560992
  outer loop
   vertex -284.649170 59.645847 129.479813
   vertex -284.649170 60.042522 129.175430
   vertex -284.832184 59.534435 129.334625
  endloop
 endfacet
 facet normal -0.965929 0.157552 0.205324
  outer loop
   vertex -284.582184 60.194714 129.373779
   vertex -284.649170 60.042522 129.175430
   vertex -284.649170 59.645847 129.479813
  endloop
 endfacet
 facet normal -0.965929 0.157552 0.205324
  outer loop
   vertex -284.649170 59.645847 129.479813
   vertex -284.582184 59.798038 129.678162
   vertex -284.582184 60.194714 129.373779
  endloop
 endfacet
 facet normal -0.965926 -0.157559 -0.205333
  outer loop
   vertex -284.582184 60.194714 129.373779
   vertex -284.582184 59.798038 129.678162
   vertex -284.649170 60.346905 129.572113
  endloop
 endfacet
 facet normal -0.965926 -0.157559 -0.205333
  outer loop
   vertex -284.649170 60.346905 129.572113
   vertex -284.582184 59.798038 129.678162
   vertex -284.649170 59.950230 129.876495
  endloop
 endfacet
 facet normal -0.707096 -0.430468 -0.560992
  outer loop
   vertex -284.649170 59.950230 129.876495
   vertex -284.832184 60.458317 129.717300
   vertex -284.649170 60.346905 129.572113
  endloop
 endfacet
 facet normal -0.258823 -0.588021 -0.766317
  outer loop
   vertex -285.082184 74.544518 148.074799
   vertex -285.082184 74.147842 148.379181
   vertex -285.507172 74.613838 148.165146
  endloop
 endfacet
 facet normal -0.258823 -0.588021 -0.766317
  outer loop
   vertex -285.507172 74.613838 148.165146
   vertex -285.082184 74.147842 148.379181
   vertex -285.507172 74.217163 148.469528
  endloop
 endfacet
 facet normal -0.707099 -0.430467 -0.560990
  outer loop
   vertex -285.507172 74.217163 148.469528
   vertex -285.818298 74.803238 148.411972
   vertex -285.507172 74.613838 148.165146
  endloop
 endfacet
 facet normal -0.707099 -0.430467 -0.560990
  outer loop
   vertex -285.818298 74.406563 148.716354
   vertex -285.818298 74.803238 148.411972
   vertex -285.507172 74.217163 148.469528
  endloop
 endfacet
 facet normal -0.965919 -0.157577 -0.205356
  outer loop
   vertex -285.932190 75.061966 148.749146
   vertex -285.818298 74.803238 148.411972
   vertex -285.818298 74.406563 148.716354
  endloop
 endfacet
 facet normal -0.965918 -0.157576 -0.205359
  outer loop
   vertex -285.818298 74.406563 148.716354
   vertex -285.932190 74.665283 149.053528
   vertex -285.932190 75.061966 148.749146
  endloop
 endfacet
 facet normal -0.965920 0.157572 0.205354
  outer loop
   vertex -285.932190 75.061966 148.749146
   vertex -285.932190 74.665283 149.053528
   vertex -285.818298 75.320686 149.086334
  endloop
 endfacet
 facet normal -0.965919 0.157572 0.205360
  outer loop
   vertex -285.818298 75.320686 149.086334
   vertex -285.932190 74.665283 149.053528
   vertex -285.818298 74.924011 149.390701
  endloop
 endfacet
 facet normal -0.707099 0.430453 0.561000
  outer loop
   vertex -285.818298 74.924011 149.390701
   vertex -285.507172 75.510086 149.333160
   vertex -285.818298 75.320686 149.086334
  endloop
 endfacet
 facet normal -0.707112 0.430458 0.560979
  outer loop
   vertex -285.507172 75.113411 149.637543
   vertex -285.507172 75.510086 149.333160
   vertex -285.818298 74.924011 149.390701
  endloop
 endfacet
 facet normal -0.258833 0.588020 0.766315
  outer loop
   vertex -285.082184 75.579414 149.423508
   vertex -285.507172 75.510086 149.333160
   vertex -285.507172 75.113411 149.637543
  endloop
 endfacet
 facet normal -0.258797 0.588000 0.766342
  outer loop
   vertex -285.507172 75.113411 149.637543
   vertex -285.082184 75.182732 149.727875
   vertex -285.082184 75.579414 149.423508
  endloop
 endfacet
 facet normal -0.258802 -0.588006 -0.766336
  outer loop
   vertex -285.082184 59.677265 128.699432
   vertex -285.082184 59.280590 129.003799
   vertex -285.507172 59.746590 128.789764
  endloop
 endfacet
 facet normal -0.258828 -0.588020 -0.766316
  outer loop
   vertex -285.507172 59.746590 128.789764
   vertex -285.082184 59.280590 129.003799
   vertex -285.507172 59.349915 129.094147
  endloop
 endfacet
 facet normal -0.707112 -0.430458 -0.560979
  outer loop
   vertex -285.507172 59.349915 129.094147
   vertex -285.818298 59.935989 129.036606
   vertex -285.507172 59.746590 128.789764
  endloop
 endfacet
 facet normal -0.707099 -0.430453 -0.561000
  outer loop
   vertex -285.818298 59.539314 129.340973
   vertex -285.818298 59.935989 129.036606
   vertex -285.507172 59.349915 129.094147
  endloop
 endfacet
 facet normal -0.965918 -0.157572 -0.205361
  outer loop
   vertex -285.932190 60.194714 129.373779
   vertex -285.818298 59.935989 129.036606
   vertex -285.818298 59.539314 129.340973
  endloop
 endfacet
 facet normal -0.965920 -0.157573 -0.205351
  outer loop
   vertex -285.818298 59.539314 129.340973
   vertex -285.932190 59.798038 129.678162
   vertex -285.932190 60.194714 129.373779
  endloop
 endfacet
 facet normal -0.965918 0.157577 0.205357
  outer loop
   vertex -285.932190 60.194714 129.373779
   vertex -285.932190 59.798038 129.678162
   vertex -285.818298 60.453438 129.710953
  endloop
 endfacet
 facet normal -0.965918 0.157577 0.205359
  outer loop
   vertex -285.818298 60.453438 129.710953
   vertex -285.932190 59.798038 129.678162
   vertex -285.818298 60.056759 130.015335
  endloop
 endfacet
 facet normal -0.707099 0.430464 0.560992
  outer loop
   vertex -285.818298 60.056759 130.015335
   vertex -285.507172 60.642838 129.957779
   vertex -285.818298 60.453438 129.710953
  endloop
 endfacet
 facet normal -0.707099 0.430464 0.560992
  outer loop
   vertex -285.507172 60.246159 130.262161
   vertex -285.507172 60.642838 129.957779
   vertex -285.818298 60.056759 130.015335
  endloop
 endfacet
 facet normal -0.258828 0.588017 0.766319
  outer loop
   vertex -285.082184 60.712162 130.048126
   vertex -285.507172 60.642838 129.957779
   vertex -285.507172 60.246159 130.262161
  endloop
 endfacet
 facet normal -0.258828 0.588017 0.766319
  outer loop
   vertex -285.507172 60.246159 130.262161
   vertex -285.082184 60.315483 130.352509
   vertex -285.082184 60.712162 130.048126
  endloop
 endfacet
 facet normal -0.707091 -0.430469 -0.560998
  outer loop
   vertex -284.649170 59.950230 129.876495
   vertex -284.832184 60.061638 130.021683
   vertex -284.832184 60.458317 129.717300
  endloop
 endfacet
 facet normal -0.258824 -0.588017 -0.766320
  outer loop
   vertex -284.832184 60.458317 129.717300
   vertex -284.832184 60.061638 130.021683
   vertex -285.082184 60.102417 130.074829
  endloop
 endfacet
 facet normal -0.258824 -0.588017 -0.766320
  outer loop
   vertex -285.082184 60.102417 130.074829
   vertex -285.082184 60.499096 129.770447
   vertex -284.832184 60.458317 129.717300
  endloop
 endfacet
 facet normal 0.258824 -0.588017 -0.766320
  outer loop
   vertex -285.332184 60.061638 130.021683
   vertex -285.082184 60.499096 129.770447
   vertex -285.082184 60.102417 130.074829
  endloop
 endfacet
 facet normal 0.258824 -0.588017 -0.766320
  outer loop
   vertex -285.332184 60.458317 129.717300
   vertex -285.082184 60.499096 129.770447
   vertex -285.332184 60.061638 130.021683
  endloop
 endfacet
 facet normal 0.707091 -0.430469 -0.560998
  outer loop
   vertex -285.332184 60.061638 130.021683
   vertex -285.515198 59.950230 129.876495
   vertex -285.332184 60.458317 129.717300
  endloop
 endfacet
 facet normal 0.707096 -0.430468 -0.560992
  outer loop
   vertex -285.332184 60.458317 129.717300
   vertex -285.515198 59.950230 129.876495
   vertex -285.515198 60.346905 129.572113
  endloop
 endfacet
 facet normal 0.965926 -0.157559 -0.205333
  outer loop
   vertex -285.515198 60.346905 129.572113
   vertex -285.515198 59.950230 129.876495
   vertex -285.582184 59.798038 129.678162
  endloop
 endfacet
 facet normal 0.965926 -0.157559 -0.205333
  outer loop
   vertex -285.582184 59.798038 129.678162
   vertex -285.582184 60.194714 129.373779
   vertex -285.515198 60.346905 129.572113
  endloop
 endfacet
 facet normal 0.965929 0.157552 0.205324
  outer loop
   vertex -285.515198 59.645847 129.479813
   vertex -285.582184 60.194714 129.373779
   vertex -285.582184 59.798038 129.678162
  endloop
 endfacet
 facet normal 0.965929 0.157552 0.205324
  outer loop
   vertex -285.515198 60.042522 129.175430
   vertex -285.582184 60.194714 129.373779
   vertex -285.515198 59.645847 129.479813
  endloop
 endfacet
 facet normal 0.707096 0.430468 0.560992
  outer loop
   vertex -285.515198 59.645847 129.479813
   vertex -285.332184 59.534435 129.334625
   vertex -285.515198 60.042522 129.175430
  endloop
 endfacet
 facet normal 0.707091 0.430469 0.560998
  outer loop
   vertex -285.515198 60.042522 129.175430
   vertex -285.332184 59.534435 129.334625
   vertex -285.332184 59.931114 129.030243
  endloop
 endfacet
 facet normal 0.258824 0.588017 0.766320
  outer loop
   vertex -285.332184 59.931114 129.030243
   vertex -285.332184 59.534435 129.334625
   vertex -285.082184 59.493656 129.281479
  endloop
 endfacet
 facet normal 0.258824 0.588017 0.766320
  outer loop
   vertex -285.082184 59.493656 129.281479
   vertex -285.082184 59.890335 128.977097
   vertex -285.332184 59.931114 129.030243
  endloop
 endfacet
 facet normal -0.707096 0.430468 0.560992
  outer loop
   vertex -284.649170 74.909775 148.550812
   vertex -284.832184 74.798363 148.405624
   vertex -284.832184 74.401688 148.710007
  endloop
 endfacet
 facet normal -0.258824 0.588021 0.766317
  outer loop
   vertex -284.832184 74.401688 148.710007
   vertex -284.832184 74.798363 148.405624
   vertex -285.082184 74.757584 148.352478
  endloop
 endfacet
 facet normal -0.258824 0.588021 0.766317
  outer loop
   vertex -285.082184 74.757584 148.352478
   vertex -285.082184 74.360909 148.656860
   vertex -284.832184 74.401688 148.710007
  endloop
 endfacet
 facet normal 0.258824 0.588021 0.766317
  outer loop
   vertex -285.332184 74.798363 148.405624
   vertex -285.082184 74.360909 148.656860
   vertex -285.082184 74.757584 148.352478
  endloop
 endfacet
 facet normal 0.258824 0.588021 0.766317
  outer loop
   vertex -285.332184 74.401688 148.710007
   vertex -285.082184 74.360909 148.656860
   vertex -285.332184 74.798363 148.405624
  endloop
 endfacet
 facet normal 0.707096 0.430468 0.560992
  outer loop
   vertex -285.332184 74.798363 148.405624
   vertex -285.515198 74.909775 148.550812
   vertex -285.332184 74.401688 148.710007
  endloop
 endfacet
 facet normal 0.707096 0.430468 0.560992
  outer loop
   vertex -285.332184 74.401688 148.710007
   vertex -285.515198 74.909775 148.550812
   vertex -285.515198 74.513100 148.855194
  endloop
 endfacet
 facet normal 0.965926 0.157559 0.205333
  outer loop
   vertex -285.515198 74.513100 148.855194
   vertex -285.515198 74.909775 148.550812
   vertex -285.582184 75.061966 148.749146
  endloop
 endfacet
 facet normal 0.965925 0.157560 0.205338
  outer loop
   vertex -285.582184 75.061966 148.749146
   vertex -285.582184 74.665283 149.053528
   vertex -285.515198 74.513100 148.855194
  endloop
 endfacet
 facet normal 0.965929 -0.157550 -0.205325
  outer loop
   vertex -285.515198 75.214157 148.947495
   vertex -285.582184 74.665283 149.053528
   vertex -285.582184 75.061966 148.749146
  endloop
 endfacet
 facet normal 0.965929 -0.157550 -0.205325
  outer loop
   vertex -285.515198 74.817474 149.251877
   vertex -285.582184 74.665283 149.053528
   vertex -285.515198 75.214157 148.947495
  endloop
 endfacet
 facet normal 0.707087 -0.430469 -0.561003
  outer loop
   vertex -285.515198 75.214157 148.947495
   vertex -285.332184 75.325562 149.092682
   vertex -285.515198 74.817474 149.251877
  endloop
 endfacet
 facet normal 0.707096 -0.430468 -0.560992
  outer loop
   vertex -285.515198 74.817474 149.251877
   vertex -285.332184 75.325562 149.092682
   vertex -285.332184 74.928886 149.397064
  endloop
 endfacet
 facet normal 0.258824 -0.588021 -0.766317
  outer loop
   vertex -285.332184 74.928886 149.397064
   vertex -285.332184 75.325562 149.092682
   vertex -285.082184 75.366341 149.145828
  endloop
 endfacet
 facet normal 0.258824 -0.588021 -0.766317
  outer loop
   vertex -285.082184 75.366341 149.145828
   vertex -285.082184 74.969666 149.450211
   vertex -285.332184 74.928886 149.397064
  endloop
 endfacet
 facet normal -0.258824 -0.588021 -0.766317
  outer loop
   vertex -284.832184 74.928886 149.397064
   vertex -285.082184 74.969666 149.450211
   vertex -285.082184 75.366341 149.145828
  endloop
 endfacet
endsolid