solid stl file generated from DOUG
 facet normal -0.592960 0.000000 -0.805232
  outer loop
   vertex 15.514874 -744.212158 -85.018517
   vertex 15.430373 -745.370911 -84.956291
   vertex 15.430373 -744.212158 -84.956291
  endloop
 endfacet
 facet normal -0.961262 0.000000 -0.275635
  outer loop
   vertex 15.430373 -744.212158 -84.956291
   vertex 15.430373 -745.370911 -84.956291
   vertex 15.198390 -745.370911 -84.147263
  endloop
 endfacet
 facet normal 0.000000 -1.000000 0.000000
  outer loop
   vertex 16.505598 -736.352478 -82.688484
   vertex 15.682313 -736.352478 -81.022903
   vertex 16.186174 -736.352478 -82.780075
  endloop
 endfacet
 facet normal -0.961262 0.000000 -0.275638
  outer loop
   vertex 16.186174 -736.352478 -82.780075
   vertex 15.682313 -736.352478 -81.022903
   vertex 16.205866 -736.068909 -82.848747
  endloop
 endfacet
 facet normal -0.961262 -0.000008 -0.275637
  outer loop
   vertex 16.205868 -746.930969 -82.848747
   vertex 15.682315 -746.647400 -81.022903
   vertex 16.186176 -746.647400 -82.780083
  endloop
 endfacet
 facet normal -0.000000 1.000000 -0.000000
  outer loop
   vertex 16.186176 -746.647400 -82.780083
   vertex 15.682315 -746.647400 -81.022903
   vertex 16.505600 -746.647400 -82.688484
  endloop
 endfacet
 facet normal 0.275631 0.000000 -0.961263
  outer loop
   vertex 16.990858 -744.471069 -84.533745
   vertex 16.885492 -744.471069 -84.563957
   vertex 16.885492 -738.528809 -84.563957
  endloop
 endfacet
 facet normal -0.609769 0.000000 -0.792579
  outer loop
   vertex 16.885492 -738.528809 -84.563957
   vertex 16.885492 -744.471069 -84.563957
   vertex 16.770350 -738.528809 -84.475372
  endloop
 endfacet
 facet normal -0.961262 -0.000001 -0.275638
  outer loop
   vertex 15.198388 -737.628967 -84.147263
   vertex 15.430372 -738.787720 -84.956284
   vertex 15.198389 -738.787720 -84.147263
  endloop
 endfacet
 facet normal -0.000000 -1.000000 0.000000
  outer loop
   vertex 15.198389 -738.787720 -84.147263
   vertex 15.430372 -738.787720 -84.956284
   vertex 15.654615 -738.787720 -84.875778
  endloop
 endfacet
 facet normal -0.087533 -0.000000 -0.996162
  outer loop
   vertex 15.266253 -744.471069 -84.215157
   vertex 15.266252 -738.528809 -84.215157
   vertex 15.302025 -744.471069 -84.218300
  endloop
 endfacet
 facet normal -0.087533 -0.000000 -0.996162
  outer loop
   vertex 15.302025 -744.471069 -84.218300
   vertex 15.266252 -738.528809 -84.215157
   vertex 15.302024 -738.528809 -84.218300
  endloop
 endfacet
 facet normal -0.961262 -0.000000 -0.275635
  outer loop
   vertex 15.302024 -738.528809 -84.218300
   vertex 15.471135 -738.528809 -84.808067
   vertex 15.302025 -744.471069 -84.218300
  endloop
 endfacet
 facet normal -0.961262 0.000000 -0.275636
  outer loop
   vertex 15.379546 -746.201233 -79.967018
   vertex 15.076777 -746.930969 -78.911133
   vertex 15.076777 -744.925476 -78.911133
  endloop
 endfacet
 facet normal -0.275631 -0.000000 0.961264
  outer loop
   vertex 15.076777 -744.925476 -78.911133
   vertex 15.076777 -746.930969 -78.911133
   vertex 15.396201 -744.925476 -78.819542
  endloop
 endfacet
 facet normal 0.000000 1.000000 0.000000
  outer loop
   vertex 15.396201 -744.925476 -78.819542
   vertex 16.598532 -744.925476 -83.012581
   vertex 15.076777 -744.925476 -78.911133
  endloop
 endfacet
 facet normal 0.275631 0.000000 -0.961264
  outer loop
   vertex 16.837481 -745.370911 -84.639267
   vertex 16.990288 -744.212158 -84.595451
   vertex 16.990288 -745.370911 -84.595451
  endloop
 endfacet
 facet normal 0.929583 -0.000000 -0.368613
  outer loop
   vertex 16.990288 -745.370911 -84.595451
   vertex 16.990288 -744.212158 -84.595451
   vertex 17.028973 -744.212158 -84.497894
  endloop
 endfacet
 facet normal 0.929583 0.000000 -0.368613
  outer loop
   vertex 17.028973 -744.212158 -84.497894
   vertex 17.028973 -745.370911 -84.497894
   vertex 16.990288 -745.370911 -84.595451
  endloop
 endfacet
 facet normal -0.275631 -0.000000 0.961264
  outer loop
   vertex 15.076777 -738.074402 -78.911133
   vertex 15.396200 -738.074402 -78.819542
   vertex 15.076776 -736.068909 -78.911133
  endloop
 endfacet
 facet normal -0.275631 -0.000000 0.961264
  outer loop
   vertex 15.076776 -736.068909 -78.911133
   vertex 15.396200 -738.074402 -78.819542
   vertex 15.396199 -736.068909 -78.819542
  endloop
 endfacet
 facet normal 0.000000 1.000000 0.000000
  outer loop
   vertex 15.396199 -736.068909 -78.819542
   vertex 16.525290 -736.068909 -82.757156
   vertex 15.076776 -736.068909 -78.911133
  endloop
 endfacet
 facet normal 0.275631 0.000000 -0.961264
  outer loop
   vertex 16.598532 -746.715332 -83.012581
   vertex 16.279108 -746.715332 -83.104172
   vertex 16.279108 -744.925476 -83.104172
  endloop
 endfacet
 facet normal -0.961261 0.000000 -0.275639
  outer loop
   vertex 16.279108 -744.925476 -83.104172
   vertex 16.279108 -746.715332 -83.104172
   vertex 16.186176 -745.471497 -82.780083
  endloop
 endfacet
 facet normal -0.961262 0.000002 -0.275637
  outer loop
   vertex 16.186176 -745.471497 -82.780083
   vertex 15.682315 -745.471497 -81.022903
   vertex 16.279108 -744.925476 -83.104172
  endloop
 endfacet
 facet normal 0.937117 0.000000 -0.349016
  outer loop
   vertex 15.637762 -744.471069 -84.800140
   vertex 15.587059 -744.471069 -84.936279
   vertex 15.587058 -738.528809 -84.936279
  endloop
 endfacet
 facet normal 0.275631 0.000000 -0.961263
  outer loop
   vertex 15.587058 -738.528809 -84.936279
   vertex 15.587059 -744.471069 -84.936279
   vertex 15.481693 -744.471069 -84.966492
  endloop
 endfacet
 facet normal 0.275631 0.000000 -0.961263
  outer loop
   vertex 15.481693 -744.471069 -84.966492
   vertex 15.481692 -738.528809 -84.966492
   vertex 15.587058 -738.528809 -84.936279
  endloop
 endfacet
 facet normal -0.961262 -0.000001 -0.275638
  outer loop
   vertex 15.682313 -737.528381 -81.022903
   vertex 16.186174 -737.528381 -82.780075
   vertex 16.279108 -738.074402 -83.104172
  endloop
 endfacet
 facet normal -0.961262 -0.000001 -0.275637
  outer loop
   vertex 16.279108 -738.074402 -83.104172
   vertex 16.186174 -737.528381 -82.780075
   vertex 16.279106 -736.284546 -83.104172
  endloop
 endfacet
 facet normal 0.275631 0.000000 -0.961264
  outer loop
   vertex 16.279106 -736.284546 -83.104172
   vertex 16.598530 -736.284546 -83.012581
   vertex 16.279108 -738.074402 -83.104172
  endloop
 endfacet
 facet normal 0.929583 0.000000 -0.368613
  outer loop
   vertex 17.028971 -737.628967 -84.497894
   vertex 17.028971 -738.787720 -84.497894
   vertex 16.990286 -737.628967 -84.595451
  endloop
 endfacet
 facet normal 0.929583 -0.000000 -0.368613
  outer loop
   vertex 16.990286 -737.628967 -84.595451
   vertex 17.028971 -738.787720 -84.497894
   vertex 16.990286 -738.787720 -84.595451
  endloop
 endfacet
 facet normal 0.275631 0.000000 -0.961264
  outer loop
   vertex 16.990286 -738.787720 -84.595451
   vertex 16.837479 -737.628967 -84.639267
   vertex 16.990286 -737.628967 -84.595451
  endloop
 endfacet
 facet normal 0.000000 -1.000000 -0.000000
  outer loop
   vertex 15.667682 -738.787720 -84.974701
   vertex 15.654615 -738.787720 -84.875778
   vertex 15.514874 -738.787720 -85.018517
  endloop
 endfacet
 facet normal -0.000000 -1.000000 -0.000000
  outer loop
   vertex 15.514874 -738.787720 -85.018517
   vertex 15.654615 -738.787720 -84.875778
   vertex 15.430372 -738.787720 -84.956284
  endloop
 endfacet
 facet normal -0.593002 -0.000000 -0.805201
  outer loop
   vertex 15.430372 -738.787720 -84.956284
   vertex 15.430372 -737.628967 -84.956284
   vertex 15.514874 -738.787720 -85.018517
  endloop
 endfacet
 facet normal -0.961261 -0.000000 -0.275639
  outer loop
   vertex 15.198388 -737.628967 -84.147263
   vertex 15.430372 -737.628967 -84.956284
   vertex 15.430372 -738.787720 -84.956284
  endloop
 endfacet
 facet normal -0.961262 -0.000001 -0.275636
  outer loop
   vertex 15.198390 -745.370911 -84.147263
   vertex 15.198389 -744.212158 -84.147263
   vertex 15.430373 -744.212158 -84.956291
  endloop
 endfacet
 facet normal -0.000000 1.000000 -0.000000
  outer loop
   vertex 15.430373 -744.212158 -84.956291
   vertex 15.198389 -744.212158 -84.147263
   vertex 15.654615 -744.212158 -84.875778
  endloop
 endfacet
 facet normal 0.000000 1.000000 -0.000000
  outer loop
   vertex 15.654615 -744.212158 -84.875778
   vertex 15.514874 -744.212158 -85.018517
   vertex 15.430373 -744.212158 -84.956291
  endloop
 endfacet
 facet normal -0.000000 1.000000 -0.000000
  outer loop
   vertex 15.667683 -744.212158 -84.974701
   vertex 15.514874 -744.212158 -85.018517
   vertex 15.654615 -744.212158 -84.875778
  endloop
 endfacet
 facet normal 0.937117 0.000000 -0.349016
  outer loop
   vertex 15.587058 -738.528809 -84.936279
   vertex 15.637761 -738.528809 -84.800140
   vertex 15.637762 -744.471069 -84.800140
  endloop
 endfacet
 facet normal 0.275640 0.000000 -0.961261
  outer loop
   vertex 15.637762 -744.471069 -84.800140
   vertex 15.637761 -738.528809 -84.800140
   vertex 16.770350 -738.528809 -84.475372
  endloop
 endfacet
 facet normal 0.275640 0.000000 -0.961261
  outer loop
   vertex 16.770350 -738.528809 -84.475372
   vertex 16.770351 -744.471069 -84.475372
   vertex 15.637762 -744.471069 -84.800140
  endloop
 endfacet
 facet normal -0.609775 -0.000000 -0.792574
  outer loop
   vertex 16.885492 -744.471069 -84.563957
   vertex 16.770351 -744.471069 -84.475372
   vertex 16.770350 -738.528809 -84.475372
  endloop
 endfacet
 facet normal 0.961262 0.000002 0.275637
  outer loop
   vertex 16.505600 -745.471497 -82.688484
   vertex 16.598532 -744.925476 -83.012581
   vertex 16.001738 -745.471497 -80.931305
  endloop
 endfacet
 facet normal 0.961262 0.000000 0.275637
  outer loop
   vertex 16.001738 -745.471497 -80.931305
   vertex 16.598532 -744.925476 -83.012581
   vertex 15.396201 -744.925476 -78.819542
  endloop
 endfacet
 facet normal 0.961262 -0.000000 0.275637
  outer loop
   vertex 15.396201 -744.925476 -78.819542
   vertex 15.396201 -746.930969 -78.819542
   vertex 16.001738 -745.471497 -80.931305
  endloop
 endfacet
 facet normal -0.275631 -0.000000 0.961264
  outer loop
   vertex 15.076777 -746.930969 -78.911133
   vertex 15.396201 -746.930969 -78.819542
   vertex 15.396201 -744.925476 -78.819542
  endloop
 endfacet
 facet normal 0.000000 -1.000000 -0.000000
  outer loop
   vertex 16.525291 -746.930969 -82.757156
   vertex 15.396201 -746.930969 -78.819542
   vertex 15.076777 -746.930969 -78.911133
  endloop
 endfacet
 facet normal 0.000000 -1.000000 0.000000
  outer loop
   vertex 15.076777 -738.074402 -78.911133
   vertex 16.598532 -738.074402 -83.012581
   vertex 15.396200 -738.074402 -78.819542
  endloop
 endfacet
 facet normal 0.961262 -0.000001 0.275637
  outer loop
   vertex 15.396200 -738.074402 -78.819542
   vertex 16.598532 -738.074402 -83.012581
   vertex 16.001738 -737.528381 -80.931305
  endloop
 endfacet
 facet normal 0.961262 0.000000 0.275637
  outer loop
   vertex 16.001738 -737.528381 -80.931305
   vertex 15.396199 -736.068909 -78.819542
   vertex 15.396200 -738.074402 -78.819542
  endloop
 endfacet
 facet normal 0.961262 -0.000000 0.275637
  outer loop
   vertex 16.001738 -736.352478 -80.931305
   vertex 15.396199 -736.068909 -78.819542
   vertex 16.001738 -737.528381 -80.931305
  endloop
 endfacet
 facet normal 0.961262 0.000005 0.275637
  outer loop
   vertex 16.525290 -736.068909 -82.757156
   vertex 15.396199 -736.068909 -78.819542
   vertex 16.001738 -736.352478 -80.931305
  endloop
 endfacet
 facet normal 0.000004 1.000000 -0.000014
  outer loop
   vertex 15.396142 -744.921387 -78.819672
   vertex 15.334518 -744.921448 -83.353172
   vertex 14.138008 -744.921387 -79.180435
  endloop
 endfacet
 facet normal -0.961262 -0.000017 -0.275637
  outer loop
   vertex 14.138008 -744.921387 -79.180435
   vertex 15.334518 -744.921448 -83.353172
   vertex 15.334522 -745.252197 -83.353165
  endloop
 endfacet
 facet normal -0.961262 -0.000020 -0.275637
  outer loop
   vertex 15.334522 -745.252197 -83.353165
   vertex 14.138013 -745.252136 -79.180428
   vertex 14.138008 -744.921387 -79.180435
  endloop
 endfacet
 facet normal 0.000041 -1.000000 0.000026
  outer loop
   vertex 16.592661 -745.252136 -82.992340
   vertex 14.138013 -745.252136 -79.180428
   vertex 15.334522 -745.252197 -83.353165
  endloop
 endfacet
 facet normal 0.000000 -1.000000 0.000000
  outer loop
   vertex 15.396147 -745.252136 -78.819664
   vertex 14.138013 -745.252136 -79.180428
   vertex 16.592661 -745.252136 -82.992340
  endloop
 endfacet
 facet normal -0.961264 -0.000000 -0.275629
  outer loop
   vertex 15.481692 -738.528809 -84.966492
   vertex 15.481693 -744.471069 -84.966492
   vertex 15.442464 -738.528809 -84.829681
  endloop
 endfacet
 facet normal -0.961260 0.000000 -0.275643
  outer loop
   vertex 15.442464 -738.528809 -84.829681
   vertex 15.481693 -744.471069 -84.966492
   vertex 15.442465 -744.471069 -84.829689
  endloop
 endfacet
 facet normal -0.601970 -0.000001 0.798519
  outer loop
   vertex 15.442465 -744.471069 -84.829689
   vertex 15.471135 -738.528809 -84.808067
   vertex 15.442464 -738.528809 -84.829681
  endloop
 endfacet
 facet normal -0.602105 -0.000000 0.798417
  outer loop
   vertex 15.471136 -744.471069 -84.808067
   vertex 15.471135 -738.528809 -84.808067
   vertex 15.442465 -744.471069 -84.829689
  endloop
 endfacet
 facet normal -0.961262 -0.000000 -0.275635
  outer loop
   vertex 15.302025 -744.471069 -84.218300
   vertex 15.471135 -738.528809 -84.808067
   vertex 15.471136 -744.471069 -84.808067
  endloop
 endfacet
 facet normal 0.000000 1.000000 0.000000
  outer loop
   vertex 15.396145 -737.747742 -78.819664
   vertex 16.592659 -737.747742 -82.992340
   vertex 14.138011 -737.747742 -79.180428
  endloop
 endfacet
 facet normal 0.000041 1.000000 0.000026
  outer loop
   vertex 14.138011 -737.747742 -79.180428
   vertex 16.592659 -737.747742 -82.992340
   vertex 15.334521 -737.747681 -83.353165
  endloop
 endfacet
 facet normal -0.961262 0.000017 -0.275637
  outer loop
   vertex 15.334521 -737.747681 -83.353165
   vertex 14.138007 -738.078491 -79.180435
   vertex 14.138011 -737.747742 -79.180428
  endloop
 endfacet
 facet normal -0.961262 0.000017 -0.275637
  outer loop
   vertex 15.334517 -738.078430 -83.353172
   vertex 14.138007 -738.078491 -79.180435
   vertex 15.334521 -737.747681 -83.353165
  endloop
 endfacet
 facet normal 0.000004 -1.000000 -0.000014
  outer loop
   vertex 15.396141 -738.078491 -78.819672
   vertex 14.138007 -738.078491 -79.180435
   vertex 15.334517 -738.078430 -83.353172
  endloop
 endfacet
 facet normal 0.000004 -1.000000 -0.000014
  outer loop
   vertex 15.334517 -738.078430 -83.353172
   vertex 16.592651 -738.078430 -82.992409
   vertex 15.396141 -738.078491 -78.819672
  endloop
 endfacet
 facet normal -0.961260 -0.000000 -0.275645
  outer loop
   vertex 15.266253 -744.471069 -84.215157
   vertex 15.246788 -744.471069 -84.147278
   vertex 15.246787 -738.528809 -84.147278
  endloop
 endfacet
 facet normal -0.275638 -0.000000 0.961262
  outer loop
   vertex 15.246787 -738.528809 -84.147278
   vertex 15.246788 -744.471069 -84.147278
   vertex 16.755953 -744.471069 -83.714531
  endloop
 endfacet
 facet normal -0.275638 -0.000000 0.961262
  outer loop
   vertex 16.755953 -744.471069 -83.714531
   vertex 16.755951 -738.528809 -83.714531
   vertex 15.246787 -738.528809 -84.147278
  endloop
 endfacet
 facet normal 0.961260 0.000000 0.275645
  outer loop
   vertex 16.775417 -744.471069 -83.782410
   vertex 16.755951 -738.528809 -83.714531
   vertex 16.755953 -744.471069 -83.714531
  endloop
 endfacet
 facet normal 0.961260 0.000000 0.275645
  outer loop
   vertex 16.775415 -738.528809 -83.782410
   vertex 16.755951 -738.528809 -83.714531
   vertex 16.775417 -744.471069 -83.782410
  endloop
 endfacet
 facet normal 0.602105 0.000000 -0.798417
  outer loop
   vertex 16.775417 -744.471069 -83.782410
   vertex 16.746746 -744.471069 -83.804031
   vertex 16.775415 -738.528809 -83.782410
  endloop
 endfacet
 facet normal 0.602105 0.000000 -0.798417
  outer loop
   vertex 16.775415 -738.528809 -83.782410
   vertex 16.746746 -744.471069 -83.804031
   vertex 16.746744 -738.528809 -83.804031
  endloop
 endfacet
 facet normal 0.961262 0.000000 0.275635
  outer loop
   vertex 16.746744 -738.528809 -83.804031
   vertex 16.746746 -744.471069 -83.804031
   vertex 16.915857 -744.471069 -84.393799
  endloop
 endfacet
 facet normal 0.961262 0.000000 0.275635
  outer loop
   vertex 16.915857 -744.471069 -84.393799
   vertex 16.915855 -738.528809 -84.393799
   vertex 16.746744 -738.528809 -83.804031
  endloop
 endfacet
 facet normal 0.087533 0.000000 0.996162
  outer loop
   vertex 16.951630 -744.471069 -84.396942
   vertex 16.915855 -738.528809 -84.393799
   vertex 16.915857 -744.471069 -84.393799
  endloop
 endfacet
 facet normal 0.087533 0.000000 0.996162
  outer loop
   vertex 16.951628 -738.528809 -84.396942
   vertex 16.915855 -738.528809 -84.393799
   vertex 16.951630 -744.471069 -84.396942
  endloop
 endfacet
 facet normal 0.961260 0.000000 0.275643
  outer loop
   vertex 16.951630 -744.471069 -84.396942
   vertex 16.990858 -744.471069 -84.533745
   vertex 16.951628 -738.528809 -84.396942
  endloop
 endfacet
 facet normal 0.961260 0.000000 0.275643
  outer loop
   vertex 16.951628 -738.528809 -84.396942
   vertex 16.990858 -744.471069 -84.533745
   vertex 16.990856 -738.528809 -84.533745
  endloop
 endfacet
 facet normal 0.275636 0.000000 -0.961262
  outer loop
   vertex 16.990856 -738.528809 -84.533745
   vertex 16.990858 -744.471069 -84.533745
   vertex 16.885492 -738.528809 -84.563957
  endloop
 endfacet
 facet normal 0.000000 1.000000 -0.000000
  outer loop
   vertex 16.525290 -736.068909 -82.757156
   vertex 16.205866 -736.068909 -82.848747
   vertex 15.076776 -736.068909 -78.911133
  endloop
 endfacet
 facet normal -0.961262 0.000006 -0.275637
  outer loop
   vertex 15.076776 -736.068909 -78.911133
   vertex 16.205866 -736.068909 -82.848747
   vertex 15.682313 -736.352478 -81.022903
  endloop
 endfacet
 facet normal -0.961262 0.000000 -0.275636
  outer loop
   vertex 15.682313 -736.352478 -81.022903
   vertex 15.379544 -736.798645 -79.967018
   vertex 15.076776 -736.068909 -78.911133
  endloop
 endfacet
 facet normal -0.961262 -0.000000 -0.275636
  outer loop
   vertex 15.682313 -737.528381 -81.022903
   vertex 15.379544 -736.798645 -79.967018
   vertex 15.682313 -736.352478 -81.022903
  endloop
 endfacet
 facet normal -0.961262 -0.000000 -0.275636
  outer loop
   vertex 15.076777 -738.074402 -78.911133
   vertex 15.379544 -736.798645 -79.967018
   vertex 15.682313 -737.528381 -81.022903
  endloop
 endfacet
 facet normal -0.961262 -0.000004 -0.275637
  outer loop
   vertex 15.682313 -737.528381 -81.022903
   vertex 16.279108 -738.074402 -83.104172
   vertex 15.076777 -738.074402 -78.911133
  endloop
 endfacet
 facet normal 0.000000 -1.000000 0.000000
  outer loop
   vertex 15.076777 -738.074402 -78.911133
   vertex 16.279108 -738.074402 -83.104172
   vertex 16.598532 -738.074402 -83.012581
  endloop
 endfacet
 facet normal 0.275631 0.000000 -0.961264
  outer loop
   vertex 16.598532 -738.074402 -83.012581
   vertex 16.279108 -738.074402 -83.104172
   vertex 16.598530 -736.284546 -83.012581
  endloop
 endfacet
 facet normal 0.961262 0.000001 0.275637
  outer loop
   vertex 16.598530 -736.284546 -83.012581
   vertex 16.505598 -737.528381 -82.688484
   vertex 16.598532 -738.074402 -83.012581
  endloop
 endfacet
 facet normal 0.961263 -0.000000 0.275633
  outer loop
   vertex 16.505598 -736.352478 -82.688484
   vertex 16.505598 -737.528381 -82.688484
   vertex 16.598530 -736.284546 -83.012581
  endloop
 endfacet
 facet normal -0.275631 0.000000 0.961264
  outer loop
   vertex 16.186174 -737.528381 -82.780075
   vertex 16.505598 -737.528381 -82.688484
   vertex 16.505598 -736.352478 -82.688484
  endloop
 endfacet
 facet normal -0.275631 -0.000000 0.961264
  outer loop
   vertex 16.505598 -736.352478 -82.688484
   vertex 16.186174 -736.352478 -82.780075
   vertex 16.186174 -737.528381 -82.780075
  endloop
 endfacet
 facet normal -0.961263 -0.000000 -0.275633
  outer loop
   vertex 16.186174 -737.528381 -82.780075
   vertex 16.186174 -736.352478 -82.780075
   vertex 16.279106 -736.284546 -83.104172
  endloop
 endfacet
 facet normal -0.961263 0.000001 -0.275633
  outer loop
   vertex 16.279106 -736.284546 -83.104172
   vertex 16.186174 -736.352478 -82.780075
   vertex 16.205866 -736.068909 -82.848747
  endloop
 endfacet
 facet normal 0.173685 0.776483 -0.605729
  outer loop
   vertex 16.205866 -736.068909 -82.848747
   vertex 16.598530 -736.284546 -83.012581
   vertex 16.279106 -736.284546 -83.104172
  endloop
 endfacet
 facet normal 0.173685 0.776483 -0.605729
  outer loop
   vertex 16.525290 -736.068909 -82.757156
   vertex 16.598530 -736.284546 -83.012581
   vertex 16.205866 -736.068909 -82.848747
  endloop
 endfacet
 facet normal 0.961263 -0.000001 0.275633
  outer loop
   vertex 16.505598 -736.352478 -82.688484
   vertex 16.598530 -736.284546 -83.012581
   vertex 16.525290 -736.068909 -82.757156
  endloop
 endfacet
 facet normal 0.961262 -0.000000 0.275636
  outer loop
   vertex 16.525290 -736.068909 -82.757156
   vertex 16.001738 -736.352478 -80.931305
   vertex 16.505598 -736.352478 -82.688484
  endloop
 endfacet
 facet normal 0.000000 -1.000000 -0.000000
  outer loop
   vertex 16.505598 -736.352478 -82.688484
   vertex 16.001738 -736.352478 -80.931305
   vertex 15.682313 -736.352478 -81.022903
  endloop
 endfacet
 facet normal 0.275651 -0.000000 -0.961258
  outer loop
   vertex 15.682313 -736.352478 -81.022903
   vertex 16.001738 -736.352478 -80.931305
   vertex 16.001738 -737.528381 -80.931305
  endloop
 endfacet
 facet normal 0.275651 0.000000 -0.961258
  outer loop
   vertex 16.001738 -737.528381 -80.931305
   vertex 15.682313 -737.528381 -81.022903
   vertex 15.682313 -736.352478 -81.022903
  endloop
 endfacet
 facet normal -0.000000 1.000000 -0.000000
  outer loop
   vertex 16.505598 -737.528381 -82.688484
   vertex 15.682313 -737.528381 -81.022903
   vertex 16.001738 -737.528381 -80.931305
  endloop
 endfacet
 facet normal 0.000000 1.000000 0.000000
  outer loop
   vertex 16.186174 -737.528381 -82.780075
   vertex 15.682313 -737.528381 -81.022903
   vertex 16.505598 -737.528381 -82.688484
  endloop
 endfacet
 facet normal -0.000000 -1.000000 0.000000
  outer loop
   vertex 16.186176 -745.471497 -82.780083
   vertex 16.505600 -745.471497 -82.688484
   vertex 15.682315 -745.471497 -81.022903
  endloop
 endfacet
 facet normal -0.000000 -1.000000 -0.000000
  outer loop
   vertex 15.682315 -745.471497 -81.022903
   vertex 16.505600 -745.471497 -82.688484
   vertex 16.001738 -745.471497 -80.931305
  endloop
 endfacet
 facet normal 0.275653 0.000000 -0.961257
  outer loop
   vertex 16.001738 -745.471497 -80.931305
   vertex 15.682315 -746.647400 -81.022903
   vertex 15.682315 -745.471497 -81.022903
  endloop
 endfacet
 facet normal 0.275653 -0.000000 -0.961257
  outer loop
   vertex 16.001738 -746.647400 -80.931305
   vertex 15.682315 -746.647400 -81.022903
   vertex 16.001738 -745.471497 -80.931305
  endloop
 endfacet
 facet normal -0.000000 1.000000 0.000000
  outer loop
   vertex 16.505600 -746.647400 -82.688484
   vertex 15.682315 -746.647400 -81.022903
   vertex 16.001738 -746.647400 -80.931305
  endloop
 endfacet
 facet normal 0.961262 0.000000 0.275637
  outer loop
   vertex 16.001738 -746.647400 -80.931305
   vertex 16.525291 -746.930969 -82.757156
   vertex 16.505600 -746.647400 -82.688484
  endloop
 endfacet
 facet normal 0.961263 0.000001 0.275633
  outer loop
   vertex 16.505600 -746.647400 -82.688484
   vertex 16.525291 -746.930969 -82.757156
   vertex 16.598532 -746.715332 -83.012581
  endloop
 endfacet
 facet normal 0.173685 -0.776483 -0.605729
  outer loop
   vertex 16.598532 -746.715332 -83.012581
   vertex 16.525291 -746.930969 -82.757156
   vertex 16.205868 -746.930969 -82.848747
  endloop
 endfacet
 facet normal 0.173685 -0.776483 -0.605729
  outer loop
   vertex 16.205868 -746.930969 -82.848747
   vertex 16.279108 -746.715332 -83.104172
   vertex 16.598532 -746.715332 -83.012581
  endloop
 endfacet
 facet normal -0.961262 -0.000007 -0.275638
  outer loop
   vertex 16.186176 -746.647400 -82.780083
   vertex 16.279108 -746.715332 -83.104172
   vertex 16.205868 -746.930969 -82.848747
  endloop
 endfacet
 facet normal -0.961261 0.000000 -0.275639
  outer loop
   vertex 16.186176 -745.471497 -82.780083
   vertex 16.279108 -746.715332 -83.104172
   vertex 16.186176 -746.647400 -82.780083
  endloop
 endfacet
 facet normal -0.275652 -0.000000 0.961258
  outer loop
   vertex 16.186176 -746.647400 -82.780083
   vertex 16.505600 -746.647400 -82.688484
   vertex 16.186176 -745.471497 -82.780083
  endloop
 endfacet
 facet normal -0.275652 0.000000 0.961258
  outer loop
   vertex 16.186176 -745.471497 -82.780083
   vertex 16.505600 -746.647400 -82.688484
   vertex 16.505600 -745.471497 -82.688484
  endloop
 endfacet
 facet normal 0.961263 -0.000000 0.275633
  outer loop
   vertex 16.505600 -745.471497 -82.688484
   vertex 16.505600 -746.647400 -82.688484
   vertex 16.598532 -746.715332 -83.012581
  endloop
 endfacet
 facet normal 0.961263 0.000000 0.275633
  outer loop
   vertex 16.598532 -746.715332 -83.012581
   vertex 16.598532 -744.925476 -83.012581
   vertex 16.505600 -745.471497 -82.688484
  endloop
 endfacet
 facet normal 0.275631 -0.000000 -0.961264
  outer loop
   vertex 16.279108 -744.925476 -83.104172
   vertex 16.598532 -744.925476 -83.012581
   vertex 16.598532 -746.715332 -83.012581
  endloop
 endfacet
 facet normal 0.000000 1.000000 0.000000
  outer loop
   vertex 15.076777 -744.925476 -78.911133
   vertex 16.598532 -744.925476 -83.012581
   vertex 16.279108 -744.925476 -83.104172
  endloop
 endfacet
 facet normal -0.961262 0.000002 -0.275637
  outer loop
   vertex 16.279108 -744.925476 -83.104172
   vertex 15.682315 -745.471497 -81.022903
   vertex 15.076777 -744.925476 -78.911133
  endloop
 endfacet
 facet normal -0.961262 0.000000 -0.275636
  outer loop
   vertex 15.076777 -744.925476 -78.911133
   vertex 15.682315 -745.471497 -81.022903
   vertex 15.379546 -746.201233 -79.967018
  endloop
 endfacet
 facet normal -0.961262 -0.000000 -0.275636
  outer loop
   vertex 15.379546 -746.201233 -79.967018
   vertex 15.682315 -745.471497 -81.022903
   vertex 15.682315 -746.647400 -81.022903
  endloop
 endfacet
 facet normal -0.961262 0.000000 -0.275636
  outer loop
   vertex 15.682315 -746.647400 -81.022903
   vertex 15.076777 -746.930969 -78.911133
   vertex 15.379546 -746.201233 -79.967018
  endloop
 endfacet
 facet normal -0.961262 -0.000006 -0.275637
  outer loop
   vertex 16.205868 -746.930969 -82.848747
   vertex 15.076777 -746.930969 -78.911133
   vertex 15.682315 -746.647400 -81.022903
  endloop
 endfacet
 facet normal 0.000000 -1.000000 0.000000
  outer loop
   vertex 16.525291 -746.930969 -82.757156
   vertex 15.076777 -746.930969 -78.911133
   vertex 16.205868 -746.930969 -82.848747
  endloop
 endfacet
 facet normal -0.910135 -0.000000 -0.414313
  outer loop
   vertex 16.796141 -745.370911 -84.548454
   vertex 16.796141 -744.212158 -84.548454
   vertex 16.837481 -745.370911 -84.639267
  endloop
 endfacet
 facet normal -0.910135 -0.000000 -0.414313
  outer loop
   vertex 16.837481 -745.370911 -84.639267
   vertex 16.796141 -744.212158 -84.548454
   vertex 16.837481 -744.212158 -84.639267
  endloop
 endfacet
 facet normal 0.275631 0.000000 -0.961264
  outer loop
   vertex 16.837481 -744.212158 -84.639267
   vertex 16.990288 -744.212158 -84.595451
   vertex 16.837481 -745.370911 -84.639267
  endloop
 endfacet
 facet normal 0.000000 1.000000 -0.000000
  outer loop
   vertex 16.796141 -744.212158 -84.548454
   vertex 16.990288 -744.212158 -84.595451
   vertex 16.837481 -744.212158 -84.639267
  endloop
 endfacet
 facet normal 0.000000 1.000000 -0.000000
  outer loop
   vertex 17.028973 -744.212158 -84.497894
   vertex 16.990288 -744.212158 -84.595451
   vertex 16.796141 -744.212158 -84.548454
  endloop
 endfacet
 facet normal -0.000000 1.000000 0.000000
  outer loop
   vertex 16.796141 -744.212158 -84.548454
   vertex 16.796989 -744.212158 -83.688873
   vertex 17.028973 -744.212158 -84.497894
  endloop
 endfacet
 facet normal 0.961262 0.000000 0.275638
  outer loop
   vertex 17.028973 -744.212158 -84.497894
   vertex 16.796989 -744.212158 -83.688873
   vertex 17.028973 -745.370911 -84.497894
  endloop
 endfacet
 facet normal 0.961262 0.000000 0.275638
  outer loop
   vertex 17.028973 -745.370911 -84.497894
   vertex 16.796989 -744.212158 -83.688873
   vertex 16.796989 -745.370911 -83.688873
  endloop
 endfacet
 facet normal 0.000000 -1.000000 0.000000
  outer loop
   vertex 16.796989 -745.370911 -83.688873
   vertex 16.796141 -745.370911 -84.548454
   vertex 17.028973 -745.370911 -84.497894
  endloop
 endfacet
 facet normal -0.000000 -1.000000 0.000000
  outer loop
   vertex 15.198390 -745.370911 -84.147263
   vertex 16.796141 -745.370911 -84.548454
   vertex 16.796989 -745.370911 -83.688873
  endloop
 endfacet
 facet normal -0.000000 -1.000000 0.000000
  outer loop
   vertex 15.654616 -745.370911 -84.875778
   vertex 16.796141 -745.370911 -84.548454
   vertex 15.198390 -745.370911 -84.147263
  endloop
 endfacet
 facet normal -0.000000 -1.000000 0.000000
  outer loop
   vertex 15.198390 -745.370911 -84.147263
   vertex 15.430373 -745.370911 -84.956291
   vertex 15.654616 -745.370911 -84.875778
  endloop
 endfacet
 facet normal 0.000000 -1.000000 0.000000
  outer loop
   vertex 15.654616 -745.370911 -84.875778
   vertex 15.430373 -745.370911 -84.956291
   vertex 15.514875 -745.370911 -85.018517
  endloop
 endfacet
 facet normal -0.592955 -0.000000 -0.805235
  outer loop
   vertex 15.514875 -745.370911 -85.018517
   vertex 15.430373 -745.370911 -84.956291
   vertex 15.514874 -744.212158 -85.018517
  endloop
 endfacet
 facet normal 0.275631 0.000000 -0.961264
  outer loop
   vertex 15.514874 -744.212158 -85.018517
   vertex 15.667683 -745.370911 -84.974701
   vertex 15.514875 -745.370911 -85.018517
  endloop
 endfacet
 facet normal 0.275629 -0.000000 -0.961264
  outer loop
   vertex 15.667683 -744.212158 -84.974701
   vertex 15.667683 -745.370911 -84.974701
   vertex 15.514874 -744.212158 -85.018517
  endloop
 endfacet
 facet normal 0.991389 -0.000000 0.130948
  outer loop
   vertex 15.654616 -745.370911 -84.875778
   vertex 15.667683 -745.370911 -84.974701
   vertex 15.667683 -744.212158 -84.974701
  endloop
 endfacet
 facet normal 0.991388 0.000001 0.130958
  outer loop
   vertex 15.667683 -744.212158 -84.974701
   vertex 15.654615 -744.212158 -84.875778
   vertex 15.654616 -745.370911 -84.875778
  endloop
 endfacet
 facet normal 0.275635 0.000000 -0.961262
  outer loop
   vertex 15.654616 -745.370911 -84.875778
   vertex 15.654615 -744.212158 -84.875778
   vertex 16.796141 -744.212158 -84.548454
  endloop
 endfacet
 facet normal -0.000000 1.000000 -0.000000
  outer loop
   vertex 16.796141 -744.212158 -84.548454
   vertex 15.654615 -744.212158 -84.875778
   vertex 15.198389 -744.212158 -84.147263
  endloop
 endfacet
 facet normal 0.000000 1.000000 0.000000
  outer loop
   vertex 15.198389 -744.212158 -84.147263
   vertex 16.796989 -744.212158 -83.688873
   vertex 16.796141 -744.212158 -84.548454
  endloop
 endfacet
 facet normal 0.000000 1.000000 -0.000000
  outer loop
   vertex 16.352757 -744.212158 -83.051346
   vertex 16.796989 -744.212158 -83.688873
   vertex 15.198389 -744.212158 -84.147263
  endloop
 endfacet
 facet normal 0.820461 0.000000 0.571702
  outer loop
   vertex 16.796989 -745.370911 -83.688873
   vertex 16.796989 -744.212158 -83.688873
   vertex 16.352757 -744.212158 -83.051346
  endloop
 endfacet
 facet normal 0.820461 -0.000000 0.571702
  outer loop
   vertex 16.352757 -744.212158 -83.051346
   vertex 16.352757 -745.370911 -83.051346
   vertex 16.796989 -745.370911 -83.688873
  endloop
 endfacet
 facet normal 0.000000 -1.000000 -0.000000
  outer loop
   vertex 16.796989 -745.370911 -83.688873
   vertex 16.352757 -745.370911 -83.051346
   vertex 15.237285 -745.370911 -83.371208
  endloop
 endfacet
 facet normal -0.275642 -0.000000 0.961260
  outer loop
   vertex 15.237285 -745.370911 -83.371208
   vertex 16.352757 -745.370911 -83.051346
   vertex 16.352757 -744.212158 -83.051346
  endloop
 endfacet
 facet normal -0.275642 0.000000 0.961260
  outer loop
   vertex 16.352757 -744.212158 -83.051346
   vertex 15.237285 -744.212158 -83.371208
   vertex 15.237285 -745.370911 -83.371208
  endloop
 endfacet
 facet normal -0.000000 1.000000 0.000000
  outer loop
   vertex 15.198389 -744.212158 -84.147263
   vertex 15.237285 -744.212158 -83.371208
   vertex 16.352757 -744.212158 -83.051346
  endloop
 endfacet
 facet normal -0.998746 0.000000 0.050057
  outer loop
   vertex 15.237285 -745.370911 -83.371208
   vertex 15.237285 -744.212158 -83.371208
   vertex 15.198389 -744.212158 -84.147263
  endloop
 endfacet
 facet normal -0.998746 -0.000001 0.050056
  outer loop
   vertex 15.198389 -744.212158 -84.147263
   vertex 15.198390 -745.370911 -84.147263
   vertex 15.237285 -745.370911 -83.371208
  endloop
 endfacet
 facet normal 0.000000 -1.000000 0.000000
  outer loop
   vertex 15.237285 -745.370911 -83.371208
   vertex 15.198390 -745.370911 -84.147263
   vertex 16.796989 -745.370911 -83.688873
  endloop
 endfacet
 facet normal 0.000000 1.000000 0.000000
  outer loop
   vertex 16.796988 -737.628967 -83.688873
   vertex 15.198388 -737.628967 -84.147263
   vertex 15.237284 -737.628967 -83.371201
  endloop
 endfacet
 facet normal -0.998746 -0.000001 0.050056
  outer loop
   vertex 15.237284 -737.628967 -83.371201
   vertex 15.198388 -737.628967 -84.147263
   vertex 15.198389 -738.787720 -84.147263
  endloop
 endfacet
 facet normal -0.998746 -0.000000 0.050056
  outer loop
   vertex 15.198389 -738.787720 -84.147263
   vertex 15.237284 -738.787720 -83.371208
   vertex 15.237284 -737.628967 -83.371201
  endloop
 endfacet
 facet normal 0.000000 -1.000000 -0.000000
  outer loop
   vertex 16.352757 -738.787720 -83.051346
   vertex 15.237284 -738.787720 -83.371208
   vertex 15.198389 -738.787720 -84.147263
  endloop
 endfacet
 facet normal -0.275642 -0.000006 0.961260
  outer loop
   vertex 15.237284 -737.628967 -83.371201
   vertex 15.237284 -738.787720 -83.371208
   vertex 16.352757 -738.787720 -83.051346
  endloop
 endfacet
 facet normal -0.275636 -0.000000 0.961262
  outer loop
   vertex 16.352757 -738.787720 -83.051346
   vertex 16.352757 -737.628967 -83.051346
   vertex 15.237284 -737.628967 -83.371201
  endloop
 endfacet
 facet normal 0.000000 1.000000 0.000000
  outer loop
   vertex 15.237284 -737.628967 -83.371201
   vertex 16.352757 -737.628967 -83.051346
   vertex 16.796988 -737.628967 -83.688873
  endloop
 endfacet
 facet normal 0.820462 0.000000 0.571701
  outer loop
   vertex 16.796988 -737.628967 -83.688873
   vertex 16.352757 -737.628967 -83.051346
   vertex 16.352757 -738.787720 -83.051346
  endloop
 endfacet
 facet normal 0.820462 -0.000000 0.571701
  outer loop
   vertex 16.352757 -738.787720 -83.051346
   vertex 16.796988 -738.787720 -83.688873
   vertex 16.796988 -737.628967 -83.688873
  endloop
 endfacet
 facet normal -0.000000 -1.000000 -0.000000
  outer loop
   vertex 15.198389 -738.787720 -84.147263
   vertex 16.796988 -738.787720 -83.688873
   vertex 16.352757 -738.787720 -83.051346
  endloop
 endfacet
 facet normal 0.000000 -1.000000 0.000000
  outer loop
   vertex 16.796139 -738.787720 -84.548454
   vertex 16.796988 -738.787720 -83.688873
   vertex 15.198389 -738.787720 -84.147263
  endloop
 endfacet
 facet normal -0.000000 -1.000000 0.000000
  outer loop
   vertex 15.198389 -738.787720 -84.147263
   vertex 15.654615 -738.787720 -84.875778
   vertex 16.796139 -738.787720 -84.548454
  endloop
 endfacet
 facet normal 0.275635 0.000000 -0.961262
  outer loop
   vertex 16.796139 -738.787720 -84.548454
   vertex 15.654615 -738.787720 -84.875778
   vertex 15.654614 -737.628967 -84.875778
  endloop
 endfacet
 facet normal 0.991389 0.000001 0.130948
  outer loop
   vertex 15.654614 -737.628967 -84.875778
   vertex 15.654615 -738.787720 -84.875778
   vertex 15.667682 -738.787720 -84.974701
  endloop
 endfacet
 facet normal 0.991388 0.000000 0.130958
  outer loop
   vertex 15.667682 -738.787720 -84.974701
   vertex 15.667682 -737.628967 -84.974701
   vertex 15.654614 -737.628967 -84.875778
  endloop
 endfacet
 facet normal 0.275631 -0.000000 -0.961264
  outer loop
   vertex 15.514874 -738.787720 -85.018517
   vertex 15.667682 -737.628967 -84.974701
   vertex 15.667682 -738.787720 -84.974701
  endloop
 endfacet
 facet normal 0.275629 0.000000 -0.961264
  outer loop
   vertex 15.514874 -737.628967 -85.018517
   vertex 15.667682 -737.628967 -84.974701
   vertex 15.514874 -738.787720 -85.018517
  endloop
 endfacet
 facet normal -0.593007 -0.000000 -0.805197
  outer loop
   vertex 15.514874 -738.787720 -85.018517
   vertex 15.430372 -737.628967 -84.956284
   vertex 15.514874 -737.628967 -85.018517
  endloop
 endfacet
 facet normal -0.000000 1.000000 0.000000
  outer loop
   vertex 15.514874 -737.628967 -85.018517
   vertex 15.430372 -737.628967 -84.956284
   vertex 15.654614 -737.628967 -84.875778
  endloop
 endfacet
 facet normal -0.000000 1.000000 -0.000000
  outer loop
   vertex 15.654614 -737.628967 -84.875778
   vertex 15.430372 -737.628967 -84.956284
   vertex 15.198388 -737.628967 -84.147263
  endloop
 endfacet
 facet normal 0.000000 1.000000 0.000000
  outer loop
   vertex 15.198388 -737.628967 -84.147263
   vertex 16.796139 -737.628967 -84.548454
   vertex 15.654614 -737.628967 -84.875778
  endloop
 endfacet
 facet normal -0.000000 1.000000 -0.000000
  outer loop
   vertex 16.796988 -737.628967 -83.688873
   vertex 16.796139 -737.628967 -84.548454
   vertex 15.198388 -737.628967 -84.147263
  endloop
 endfacet
 facet normal 0.000000 1.000000 0.000000
  outer loop
   vertex 17.028971 -737.628967 -84.497894
   vertex 16.796139 -737.628967 -84.548454
   vertex 16.796988 -737.628967 -83.688873
  endloop
 endfacet
 facet normal 0.961262 -0.000000 0.275638
  outer loop
   vertex 16.796988 -737.628967 -83.688873
   vertex 16.796988 -738.787720 -83.688873
   vertex 17.028971 -737.628967 -84.497894
  endloop
 endfacet
 facet normal 0.961262 0.000000 0.275638
  outer loop
   vertex 17.028971 -737.628967 -84.497894
   vertex 16.796988 -738.787720 -83.688873
   vertex 17.028971 -738.787720 -84.497894
  endloop
 endfacet
 facet normal -0.000000 -1.000000 -0.000000
  outer loop
   vertex 17.028971 -738.787720 -84.497894
   vertex 16.796988 -738.787720 -83.688873
   vertex 16.796139 -738.787720 -84.548454
  endloop
 endfacet
 facet normal 0.000000 -1.000000 0.000000
  outer loop
   vertex 16.796139 -738.787720 -84.548454
   vertex 16.990286 -738.787720 -84.595451
   vertex 17.028971 -738.787720 -84.497894
  endloop
 endfacet
 facet normal -0.000000 -1.000000 -0.000000
  outer loop
   vertex 16.837479 -738.787720 -84.639267
   vertex 16.990286 -738.787720 -84.595451
   vertex 16.796139 -738.787720 -84.548454
  endloop
 endfacet
 facet normal 0.275631 0.000000 -0.961264
  outer loop
   vertex 16.837479 -737.628967 -84.639267
   vertex 16.990286 -738.787720 -84.595451
   vertex 16.837479 -738.787720 -84.639267
  endloop
 endfacet
 facet normal -0.910135 -0.000000 -0.414313
  outer loop
   vertex 16.837479 -738.787720 -84.639267
   vertex 16.796139 -738.787720 -84.548454
   vertex 16.837479 -737.628967 -84.639267
  endloop
 endfacet
 facet normal -0.910135 0.000000 -0.414313
  outer loop
   vertex 16.837479 -737.628967 -84.639267
   vertex 16.796139 -738.787720 -84.548454
   vertex 16.796139 -737.628967 -84.548454
  endloop
 endfacet
 facet normal 0.275635 -0.000000 -0.961262
  outer loop
   vertex 16.796139 -737.628967 -84.548454
   vertex 16.796139 -738.787720 -84.548454
   vertex 15.654614 -737.628967 -84.875778
  endloop
 endfacet
 facet normal 0.961262 0.000000 0.275637
  outer loop
   vertex 16.001738 -745.471497 -80.931305
   vertex 15.396201 -746.930969 -78.819542
   vertex 16.001738 -746.647400 -80.931305
  endloop
 endfacet
 facet normal 0.961262 0.000002 0.275637
  outer loop
   vertex 16.001738 -746.647400 -80.931305
   vertex 15.396201 -746.930969 -78.819542
   vertex 16.525291 -746.930969 -82.757156
  endloop
 endfacet
 facet normal 0.000000 1.000000 -0.000000
  outer loop
   vertex 17.028971 -737.628967 -84.497894
   vertex 16.990286 -737.628967 -84.595451
   vertex 16.796139 -737.628967 -84.548454
  endloop
 endfacet
 facet normal 0.000000 1.000000 -0.000000
  outer loop
   vertex 16.796139 -737.628967 -84.548454
   vertex 16.990286 -737.628967 -84.595451
   vertex 16.837479 -737.628967 -84.639267
  endloop
 endfacet
 facet normal 0.000000 -1.000000 0.000000
  outer loop
   vertex 17.028973 -745.370911 -84.497894
   vertex 16.796141 -745.370911 -84.548454
   vertex 16.990288 -745.370911 -84.595451
  endloop
 endfacet
 facet normal -0.000000 -1.000000 -0.000000
  outer loop
   vertex 16.990288 -745.370911 -84.595451
   vertex 16.796141 -745.370911 -84.548454
   vertex 16.837481 -745.370911 -84.639267
  endloop
 endfacet
 facet normal 0.000000 1.000000 0.000000
  outer loop
   vertex 15.514874 -737.628967 -85.018517
   vertex 15.654614 -737.628967 -84.875778
   vertex 15.667682 -737.628967 -84.974701
  endloop
 endfacet
 facet normal -0.000000 -1.000000 0.000000
  outer loop
   vertex 15.514875 -745.370911 -85.018517
   vertex 15.667683 -745.370911 -84.974701
   vertex 15.654616 -745.370911 -84.875778
  endloop
 endfacet
 facet normal -0.961262 -0.000000 -0.275636
  outer loop
   vertex 15.076776 -736.068909 -78.911133
   vertex 15.379544 -736.798645 -79.967018
   vertex 15.076777 -738.074402 -78.911133
  endloop
 endfacet
 facet normal 0.275635 0.000000 -0.961262
  outer loop
   vertex 15.654616 -745.370911 -84.875778
   vertex 16.796141 -744.212158 -84.548454
   vertex 16.796141 -745.370911 -84.548454
  endloop
 endfacet
 facet normal 0.275679 -0.000019 -0.961250
  outer loop
   vertex 15.334522 -745.252197 -83.353165
   vertex 15.334518 -744.921448 -83.353172
   vertex 16.592661 -745.252136 -82.992340
  endloop
 endfacet
 facet normal 0.275679 0.000019 -0.961250
  outer loop
   vertex 15.334521 -737.747681 -83.353165
   vertex 16.592659 -737.747742 -82.992340
   vertex 15.334517 -738.078430 -83.353172
  endloop
 endfacet
 facet normal -0.961260 -0.000000 -0.275645
  outer loop
   vertex 15.246787 -738.528809 -84.147278
   vertex 15.266252 -738.528809 -84.215157
   vertex 15.266253 -744.471069 -84.215157
  endloop
 endfacet
 facet normal 0.000004 1.000000 -0.000014
  outer loop
   vertex 15.334518 -744.921448 -83.353172
   vertex 15.396142 -744.921387 -78.819672
   vertex 16.592653 -744.921448 -82.992409
  endloop
 endfacet
 facet normal 0.961262 0.000002 0.275636
  outer loop
   vertex 16.598532 -738.074402 -83.012581
   vertex 16.505598 -737.528381 -82.688484
   vertex 16.001738 -737.528381 -80.931305
  endloop
 endfacet
endsolid