solid stl file generated from DOUG
 facet normal -0.592955 0.000000 -0.805235
  outer loop
   vertex 15.514874 -379.878113 -85.018478
   vertex 15.430372 -381.036835 -84.956253
   vertex 15.430372 -379.878113 -84.956253
  endloop
 endfacet
 facet normal -0.961262 0.000000 -0.275635
  outer loop
   vertex 15.430372 -379.878113 -84.956253
   vertex 15.430372 -381.036835 -84.956253
   vertex 15.198389 -381.036835 -84.147224
  endloop
 endfacet
 facet normal 0.000000 -1.000000 0.000000
  outer loop
   vertex 16.505594 -355.086670 -82.688446
   vertex 15.682310 -355.086670 -81.022858
   vertex 16.186172 -355.086670 -82.780037
  endloop
 endfacet
 facet normal -0.961262 -0.000006 -0.275637
  outer loop
   vertex 16.186172 -355.086670 -82.780037
   vertex 15.682310 -355.086670 -81.022858
   vertex 16.205862 -354.803101 -82.848709
  endloop
 endfacet
 facet normal -0.961262 -0.000001 -0.275637
  outer loop
   vertex 16.205866 -382.596924 -82.848709
   vertex 15.682314 -382.313354 -81.022865
   vertex 16.186176 -382.313354 -82.780045
  endloop
 endfacet
 facet normal -0.000000 1.000000 -0.000000
  outer loop
   vertex 16.186176 -382.313354 -82.780045
   vertex 15.682314 -382.313354 -81.022865
   vertex 16.505600 -382.313354 -82.688446
  endloop
 endfacet
 facet normal 0.275631 0.000000 -0.961263
  outer loop
   vertex 16.990858 -380.494415 -84.533707
   vertex 16.885492 -380.494415 -84.563919
   vertex 16.885489 -356.905609 -84.563919
  endloop
 endfacet
 facet normal -0.609769 -0.000000 -0.792579
  outer loop
   vertex 16.885489 -356.905609 -84.563919
   vertex 16.885492 -380.494415 -84.563919
   vertex 16.770346 -356.905609 -84.475334
  endloop
 endfacet
 facet normal -0.961261 0.000000 -0.275639
  outer loop
   vertex 15.198385 -356.363190 -84.147224
   vertex 15.430369 -357.521912 -84.956245
   vertex 15.198385 -357.521912 -84.147224
  endloop
 endfacet
 facet normal -0.000000 -1.000000 0.000000
  outer loop
   vertex 15.198385 -357.521912 -84.147224
   vertex 15.430369 -357.521912 -84.956245
   vertex 15.654612 -357.521912 -84.875740
  endloop
 endfacet
 facet normal -0.087533 -0.000000 -0.996162
  outer loop
   vertex 15.266252 -380.494415 -84.215118
   vertex 15.266249 -356.905609 -84.215118
   vertex 15.302024 -380.494415 -84.218262
  endloop
 endfacet
 facet normal -0.087535 -0.000000 -0.996161
  outer loop
   vertex 15.302024 -380.494415 -84.218262
   vertex 15.266249 -356.905609 -84.215118
   vertex 15.302020 -356.905609 -84.218262
  endloop
 endfacet
 facet normal -0.961261 -0.000000 -0.275639
  outer loop
   vertex 15.302020 -356.905609 -84.218262
   vertex 15.471132 -356.905609 -84.808022
   vertex 15.302024 -380.494415 -84.218262
  endloop
 endfacet
 facet normal -0.961262 0.000000 -0.275636
  outer loop
   vertex 15.379545 -381.867157 -79.966980
   vertex 15.076777 -382.596924 -78.911095
   vertex 15.076777 -380.591431 -78.911095
  endloop
 endfacet
 facet normal -0.275631 -0.000000 0.961264
  outer loop
   vertex 15.076777 -380.591431 -78.911095
   vertex 15.076777 -382.596924 -78.911095
   vertex 15.396200 -380.591431 -78.819504
  endloop
 endfacet
 facet normal 0.000000 1.000000 0.000000
  outer loop
   vertex 15.396200 -380.591431 -78.819504
   vertex 16.598532 -380.591431 -83.012543
   vertex 15.076777 -380.591431 -78.911095
  endloop
 endfacet
 facet normal 0.275634 0.000000 -0.961263
  outer loop
   vertex 16.837481 -381.036835 -84.639229
   vertex 16.990286 -379.878113 -84.595413
   vertex 16.990286 -381.036835 -84.595413
  endloop
 endfacet
 facet normal 0.929577 -0.000000 -0.368628
  outer loop
   vertex 16.990286 -381.036835 -84.595413
   vertex 16.990286 -379.878113 -84.595413
   vertex 17.028973 -379.878113 -84.497856
  endloop
 endfacet
 facet normal 0.929577 0.000000 -0.368628
  outer loop
   vertex 17.028973 -379.878113 -84.497856
   vertex 17.028973 -381.036835 -84.497856
   vertex 16.990286 -381.036835 -84.595413
  endloop
 endfacet
 facet normal -0.275631 0.000000 0.961264
  outer loop
   vertex 15.076773 -356.808594 -78.911095
   vertex 15.396196 -356.808594 -78.819504
   vertex 15.076773 -354.803101 -78.911095
  endloop
 endfacet
 facet normal -0.275631 -0.000000 0.961264
  outer loop
   vertex 15.076773 -354.803101 -78.911095
   vertex 15.396196 -356.808594 -78.819504
   vertex 15.396196 -354.803101 -78.819504
  endloop
 endfacet
 facet normal 0.000000 1.000000 0.000000
  outer loop
   vertex 15.396196 -354.803101 -78.819504
   vertex 16.525286 -354.803101 -82.757118
   vertex 15.076773 -354.803101 -78.911095
  endloop
 endfacet
 facet normal 0.275631 0.000000 -0.961264
  outer loop
   vertex 16.598532 -382.381256 -83.012543
   vertex 16.279108 -382.381256 -83.104134
   vertex 16.279108 -380.591431 -83.104134
  endloop
 endfacet
 facet normal -0.961261 0.000000 -0.275639
  outer loop
   vertex 16.279108 -380.591431 -83.104134
   vertex 16.279108 -382.381256 -83.104134
   vertex 16.186176 -381.137421 -82.780045
  endloop
 endfacet
 facet normal -0.961262 0.000001 -0.275637
  outer loop
   vertex 16.186176 -381.137421 -82.780045
   vertex 15.682314 -381.137421 -81.022865
   vertex 16.279108 -380.591431 -83.104134
  endloop
 endfacet
 facet normal 0.937115 0.000000 -0.349022
  outer loop
   vertex 15.637762 -380.494415 -84.800102
   vertex 15.587058 -380.494415 -84.936241
   vertex 15.587055 -356.905609 -84.936241
  endloop
 endfacet
 facet normal 0.275633 0.000000 -0.961263
  outer loop
   vertex 15.587055 -356.905609 -84.936241
   vertex 15.587058 -380.494415 -84.936241
   vertex 15.481693 -380.494415 -84.966454
  endloop
 endfacet
 facet normal 0.275631 0.000000 -0.961263
  outer loop
   vertex 15.481693 -380.494415 -84.966454
   vertex 15.481689 -356.905609 -84.966454
   vertex 15.587055 -356.905609 -84.936241
  endloop
 endfacet
 facet normal -0.961262 0.000002 -0.275637
  outer loop
   vertex 15.682310 -356.262604 -81.022858
   vertex 16.186172 -356.262604 -82.780037
   vertex 16.279104 -356.808594 -83.104134
  endloop
 endfacet
 facet normal -0.961263 -0.000000 -0.275633
  outer loop
   vertex 16.279104 -356.808594 -83.104134
   vertex 16.186172 -356.262604 -82.780037
   vertex 16.279104 -355.018768 -83.104134
  endloop
 endfacet
 facet normal 0.275631 0.000000 -0.961264
  outer loop
   vertex 16.279104 -355.018768 -83.104134
   vertex 16.598528 -355.018768 -83.012543
   vertex 16.279104 -356.808594 -83.104134
  endloop
 endfacet
 facet normal 0.929577 0.000000 -0.368628
  outer loop
   vertex 17.028969 -356.363190 -84.497856
   vertex 17.028969 -357.521912 -84.497856
   vertex 16.990282 -356.363190 -84.595413
  endloop
 endfacet
 facet normal 0.929583 0.000002 -0.368613
  outer loop
   vertex 16.990282 -356.363190 -84.595413
   vertex 17.028969 -357.521912 -84.497856
   vertex 16.990284 -357.521912 -84.595413
  endloop
 endfacet
 facet normal 0.275634 0.000000 -0.961263
  outer loop
   vertex 16.990284 -357.521912 -84.595413
   vertex 16.837477 -356.363190 -84.639229
   vertex 16.990282 -356.363190 -84.595413
  endloop
 endfacet
 facet normal 0.000000 -1.000000 -0.000000
  outer loop
   vertex 15.667679 -357.521912 -84.974663
   vertex 15.654612 -357.521912 -84.875740
   vertex 15.514871 -357.521912 -85.018478
  endloop
 endfacet
 facet normal -0.000000 -1.000000 -0.000000
  outer loop
   vertex 15.514871 -357.521912 -85.018478
   vertex 15.654612 -357.521912 -84.875740
   vertex 15.430369 -357.521912 -84.956245
  endloop
 endfacet
 facet normal -0.593007 -0.000000 -0.805197
  outer loop
   vertex 15.430369 -357.521912 -84.956245
   vertex 15.430368 -356.363190 -84.956245
   vertex 15.514871 -357.521912 -85.018478
  endloop
 endfacet
 facet normal -0.961262 -0.000001 -0.275638
  outer loop
   vertex 15.198385 -356.363190 -84.147224
   vertex 15.430368 -356.363190 -84.956245
   vertex 15.430369 -357.521912 -84.956245
  endloop
 endfacet
 facet normal -0.961262 -0.000000 -0.275635
  outer loop
   vertex 15.198389 -381.036835 -84.147224
   vertex 15.198389 -379.878113 -84.147224
   vertex 15.430372 -379.878113 -84.956253
  endloop
 endfacet
 facet normal -0.000000 1.000000 -0.000000
  outer loop
   vertex 15.430372 -379.878113 -84.956253
   vertex 15.198389 -379.878113 -84.147224
   vertex 15.654615 -379.878113 -84.875740
  endloop
 endfacet
 facet normal 0.000000 1.000000 -0.000000
  outer loop
   vertex 15.654615 -379.878113 -84.875740
   vertex 15.514874 -379.878113 -85.018478
   vertex 15.430372 -379.878113 -84.956253
  endloop
 endfacet
 facet normal -0.000000 1.000000 -0.000000
  outer loop
   vertex 15.667682 -379.878113 -84.974663
   vertex 15.514874 -379.878113 -85.018478
   vertex 15.654615 -379.878113 -84.875740
  endloop
 endfacet
 facet normal 0.937117 0.000000 -0.349016
  outer loop
   vertex 15.587055 -356.905609 -84.936241
   vertex 15.637758 -356.905609 -84.800102
   vertex 15.637762 -380.494415 -84.800102
  endloop
 endfacet
 facet normal 0.275640 0.000000 -0.961261
  outer loop
   vertex 15.637762 -380.494415 -84.800102
   vertex 15.637758 -356.905609 -84.800102
   vertex 16.770346 -356.905609 -84.475334
  endloop
 endfacet
 facet normal 0.275640 0.000000 -0.961261
  outer loop
   vertex 16.770346 -356.905609 -84.475334
   vertex 16.770350 -380.494415 -84.475334
   vertex 15.637762 -380.494415 -84.800102
  endloop
 endfacet
 facet normal -0.609769 -0.000000 -0.792579
  outer loop
   vertex 16.885492 -380.494415 -84.563919
   vertex 16.770350 -380.494415 -84.475334
   vertex 16.770346 -356.905609 -84.475334
  endloop
 endfacet
 facet normal 0.961262 0.000002 0.275637
  outer loop
   vertex 16.505600 -381.137421 -82.688446
   vertex 16.598532 -380.591431 -83.012543
   vertex 16.001738 -381.137421 -80.931267
  endloop
 endfacet
 facet normal 0.961262 0.000001 0.275637
  outer loop
   vertex 16.001738 -381.137421 -80.931267
   vertex 16.598532 -380.591431 -83.012543
   vertex 15.396200 -380.591431 -78.819504
  endloop
 endfacet
 facet normal 0.961262 -0.000000 0.275637
  outer loop
   vertex 15.396200 -380.591431 -78.819504
   vertex 15.396200 -382.596924 -78.819504
   vertex 16.001738 -381.137421 -80.931267
  endloop
 endfacet
 facet normal -0.275631 -0.000000 0.961264
  outer loop
   vertex 15.076777 -382.596924 -78.911095
   vertex 15.396200 -382.596924 -78.819504
   vertex 15.396200 -380.591431 -78.819504
  endloop
 endfacet
 facet normal 0.000000 -1.000000 -0.000000
  outer loop
   vertex 16.525290 -382.596924 -82.757118
   vertex 15.396200 -382.596924 -78.819504
   vertex 15.076777 -382.596924 -78.911095
  endloop
 endfacet
 facet normal 0.000000 -1.000000 0.000000
  outer loop
   vertex 15.076773 -356.808594 -78.911095
   vertex 16.598528 -356.808594 -83.012543
   vertex 15.396196 -356.808594 -78.819504
  endloop
 endfacet
 facet normal 0.961262 -0.000001 0.275637
  outer loop
   vertex 15.396196 -356.808594 -78.819504
   vertex 16.598528 -356.808594 -83.012543
   vertex 16.001734 -356.262604 -80.931267
  endloop
 endfacet
 facet normal 0.961262 0.000000 0.275637
  outer loop
   vertex 16.001734 -356.262604 -80.931267
   vertex 15.396196 -354.803101 -78.819504
   vertex 15.396196 -356.808594 -78.819504
  endloop
 endfacet
 facet normal 0.961262 -0.000000 0.275637
  outer loop
   vertex 16.001734 -355.086670 -80.931267
   vertex 15.396196 -354.803101 -78.819504
   vertex 16.001734 -356.262604 -80.931267
  endloop
 endfacet
 facet normal 0.961262 0.000003 0.275637
  outer loop
   vertex 16.525286 -354.803101 -82.757118
   vertex 15.396196 -354.803101 -78.819504
   vertex 16.001734 -355.086670 -80.931267
  endloop
 endfacet
 facet normal -0.000019 1.000000 -0.000020
  outer loop
   vertex 15.396142 -380.587341 -78.819633
   vertex 15.334518 -380.587433 -83.353134
   vertex 14.138008 -380.587372 -79.180397
  endloop
 endfacet
 facet normal -0.961262 -0.000017 -0.275637
  outer loop
   vertex 14.138008 -380.587372 -79.180397
   vertex 15.334518 -380.587433 -83.353134
   vertex 15.334522 -380.918152 -83.353127
  endloop
 endfacet
 facet normal -0.961262 -0.000017 -0.275637
  outer loop
   vertex 15.334522 -380.918152 -83.353127
   vertex 14.138012 -380.918091 -79.180389
   vertex 14.138008 -380.587372 -79.180397
  endloop
 endfacet
 facet normal 0.000019 -1.000000 0.000020
  outer loop
   vertex 16.592659 -380.918121 -82.992302
   vertex 14.138012 -380.918091 -79.180389
   vertex 15.334522 -380.918152 -83.353127
  endloop
 endfacet
 facet normal 0.000019 -1.000000 0.000020
  outer loop
   vertex 15.396146 -380.918060 -78.819626
   vertex 14.138012 -380.918091 -79.180389
   vertex 16.592659 -380.918121 -82.992302
  endloop
 endfacet
 facet normal -0.961264 -0.000000 -0.275629
  outer loop
   vertex 15.481689 -356.905609 -84.966454
   vertex 15.481693 -380.494415 -84.966454
   vertex 15.442461 -356.905609 -84.829643
  endloop
 endfacet
 facet normal -0.961260 -0.000000 -0.275643
  outer loop
   vertex 15.442461 -356.905609 -84.829643
   vertex 15.481693 -380.494415 -84.966454
   vertex 15.442465 -380.494415 -84.829651
  endloop
 endfacet
 facet normal -0.602105 -0.000000 0.798417
  outer loop
   vertex 15.442465 -380.494415 -84.829651
   vertex 15.471132 -356.905609 -84.808022
   vertex 15.442461 -356.905609 -84.829643
  endloop
 endfacet
 facet normal -0.602118 -0.000000 0.798407
  outer loop
   vertex 15.471135 -380.494415 -84.808029
   vertex 15.471132 -356.905609 -84.808022
   vertex 15.442465 -380.494415 -84.829651
  endloop
 endfacet
 facet normal -0.961262 -0.000000 -0.275635
  outer loop
   vertex 15.302024 -380.494415 -84.218262
   vertex 15.471132 -356.905609 -84.808022
   vertex 15.471135 -380.494415 -84.808029
  endloop
 endfacet
 facet normal 0.000019 1.000000 0.000020
  outer loop
   vertex 15.396142 -356.481964 -78.819626
   vertex 16.592657 -356.481903 -82.992302
   vertex 14.138008 -356.481934 -79.180389
  endloop
 endfacet
 facet normal 0.000019 1.000000 0.000020
  outer loop
   vertex 14.138008 -356.481934 -79.180389
   vertex 16.592657 -356.481903 -82.992302
   vertex 15.334518 -356.481873 -83.353127
  endloop
 endfacet
 facet normal -0.961262 0.000017 -0.275637
  outer loop
   vertex 15.334518 -356.481873 -83.353127
   vertex 14.138004 -356.812653 -79.180397
   vertex 14.138008 -356.481934 -79.180389
  endloop
 endfacet
 facet normal -0.961262 0.000017 -0.275637
  outer loop
   vertex 15.334515 -356.812592 -83.353134
   vertex 14.138004 -356.812653 -79.180397
   vertex 15.334518 -356.481873 -83.353127
  endloop
 endfacet
 facet normal -0.000019 -1.000000 -0.000020
  outer loop
   vertex 15.396138 -356.812683 -78.819633
   vertex 14.138004 -356.812653 -79.180397
   vertex 15.334515 -356.812592 -83.353134
  endloop
 endfacet
 facet normal -0.000019 -1.000000 -0.000020
  outer loop
   vertex 15.334515 -356.812592 -83.353134
   vertex 16.592648 -356.812622 -82.992371
   vertex 15.396138 -356.812683 -78.819633
  endloop
 endfacet
 facet normal -0.961260 -0.000000 -0.275645
  outer loop
   vertex 15.266252 -380.494415 -84.215118
   vertex 15.246787 -380.494415 -84.147240
   vertex 15.246783 -356.905609 -84.147240
  endloop
 endfacet
 facet normal -0.275638 -0.000000 0.961262
  outer loop
   vertex 15.246783 -356.905609 -84.147240
   vertex 15.246787 -380.494415 -84.147240
   vertex 16.755951 -380.494415 -83.714493
  endloop
 endfacet
 facet normal -0.275638 -0.000000 0.961262
  outer loop
   vertex 16.755951 -380.494415 -83.714493
   vertex 16.755947 -356.905609 -83.714493
   vertex 15.246783 -356.905609 -84.147240
  endloop
 endfacet
 facet normal 0.961260 0.000000 0.275645
  outer loop
   vertex 16.775415 -380.494415 -83.782372
   vertex 16.755947 -356.905609 -83.714493
   vertex 16.755951 -380.494415 -83.714493
  endloop
 endfacet
 facet normal 0.961260 0.000000 0.275645
  outer loop
   vertex 16.775412 -356.905609 -83.782372
   vertex 16.755947 -356.905609 -83.714493
   vertex 16.775415 -380.494415 -83.782372
  endloop
 endfacet
 facet normal 0.602105 0.000000 -0.798417
  outer loop
   vertex 16.775415 -380.494415 -83.782372
   vertex 16.746744 -380.494415 -83.803993
   vertex 16.775412 -356.905609 -83.782372
  endloop
 endfacet
 facet normal 0.602131 0.000000 -0.798397
  outer loop
   vertex 16.775412 -356.905609 -83.782372
   vertex 16.746744 -380.494415 -83.803993
   vertex 16.746742 -356.905609 -83.803993
  endloop
 endfacet
 facet normal 0.961262 0.000000 0.275637
  outer loop
   vertex 16.746742 -356.905609 -83.803993
   vertex 16.746744 -380.494415 -83.803993
   vertex 16.915857 -380.494415 -84.393761
  endloop
 endfacet
 facet normal 0.961262 0.000000 0.275635
  outer loop
   vertex 16.915857 -380.494415 -84.393761
   vertex 16.915854 -356.905609 -84.393761
   vertex 16.746742 -356.905609 -83.803993
  endloop
 endfacet
 facet normal 0.087533 0.000000 0.996162
  outer loop
   vertex 16.951630 -380.494415 -84.396904
   vertex 16.915854 -356.905609 -84.393761
   vertex 16.915857 -380.494415 -84.393761
  endloop
 endfacet
 facet normal 0.087533 0.000000 0.996162
  outer loop
   vertex 16.951626 -356.905609 -84.396904
   vertex 16.915854 -356.905609 -84.393761
   vertex 16.951630 -380.494415 -84.396904
  endloop
 endfacet
 facet normal 0.961260 0.000000 0.275643
  outer loop
   vertex 16.951630 -380.494415 -84.396904
   vertex 16.990858 -380.494415 -84.533707
   vertex 16.951626 -356.905609 -84.396904
  endloop
 endfacet
 facet normal 0.961260 0.000000 0.275643
  outer loop
   vertex 16.951626 -356.905609 -84.396904
   vertex 16.990858 -380.494415 -84.533707
   vertex 16.990854 -356.905609 -84.533707
  endloop
 endfacet
 facet normal 0.275631 0.000000 -0.961263
  outer loop
   vertex 16.990854 -356.905609 -84.533707
   vertex 16.990858 -380.494415 -84.533707
   vertex 16.885489 -356.905609 -84.563919
  endloop
 endfacet
 facet normal 0.000000 1.000000 -0.000000
  outer loop
   vertex 16.525286 -354.803101 -82.757118
   vertex 16.205862 -354.803101 -82.848709
   vertex 15.076773 -354.803101 -78.911095
  endloop
 endfacet
 facet normal -0.961262 -0.000003 -0.275637
  outer loop
   vertex 15.076773 -354.803101 -78.911095
   vertex 16.205862 -354.803101 -82.848709
   vertex 15.682310 -355.086670 -81.022858
  endloop
 endfacet
 facet normal -0.961262 0.000002 -0.275637
  outer loop
   vertex 15.682310 -355.086670 -81.022858
   vertex 15.379541 -355.532867 -79.966980
   vertex 15.076773 -354.803101 -78.911095
  endloop
 endfacet
 facet normal -0.961262 -0.000000 -0.275638
  outer loop
   vertex 15.682310 -356.262604 -81.022858
   vertex 15.379541 -355.532867 -79.966980
   vertex 15.682310 -355.086670 -81.022858
  endloop
 endfacet
 facet normal -0.961262 -0.000001 -0.275637
  outer loop
   vertex 15.076773 -356.808594 -78.911095
   vertex 15.379541 -355.532867 -79.966980
   vertex 15.682310 -356.262604 -81.022858
  endloop
 endfacet
 facet normal -0.961262 0.000001 -0.275637
  outer loop
   vertex 15.682310 -356.262604 -81.022858
   vertex 16.279104 -356.808594 -83.104134
   vertex 15.076773 -356.808594 -78.911095
  endloop
 endfacet
 facet normal 0.000000 -1.000000 0.000000
  outer loop
   vertex 15.076773 -356.808594 -78.911095
   vertex 16.279104 -356.808594 -83.104134
   vertex 16.598528 -356.808594 -83.012543
  endloop
 endfacet
 facet normal 0.275631 -0.000000 -0.961264
  outer loop
   vertex 16.598528 -356.808594 -83.012543
   vertex 16.279104 -356.808594 -83.104134
   vertex 16.598528 -355.018768 -83.012543
  endloop
 endfacet
 facet normal 0.961263 0.000000 0.275633
  outer loop
   vertex 16.598528 -355.018768 -83.012543
   vertex 16.505596 -356.262604 -82.688446
   vertex 16.598528 -356.808594 -83.012543
  endloop
 endfacet
 facet normal 0.961261 0.000002 0.275639
  outer loop
   vertex 16.505594 -355.086670 -82.688446
   vertex 16.505596 -356.262604 -82.688446
   vertex 16.598528 -355.018768 -83.012543
  endloop
 endfacet
 facet normal -0.275631 -0.000000 0.961264
  outer loop
   vertex 16.186172 -356.262604 -82.780037
   vertex 16.505596 -356.262604 -82.688446
   vertex 16.505594 -355.086670 -82.688446
  endloop
 endfacet
 facet normal -0.275632 -0.000000 0.961263
  outer loop
   vertex 16.505594 -355.086670 -82.688446
   vertex 16.186172 -355.086670 -82.780037
   vertex 16.186172 -356.262604 -82.780037
  endloop
 endfacet
 facet normal -0.961263 -0.000000 -0.275633
  outer loop
   vertex 16.186172 -356.262604 -82.780037
   vertex 16.186172 -355.086670 -82.780037
   vertex 16.279104 -355.018768 -83.104134
  endloop
 endfacet
 facet normal -0.961263 -0.000006 -0.275634
  outer loop
   vertex 16.279104 -355.018768 -83.104134
   vertex 16.186172 -355.086670 -82.780037
   vertex 16.205862 -354.803101 -82.848709
  endloop
 endfacet
 facet normal 0.173700 0.776440 -0.605780
  outer loop
   vertex 16.205862 -354.803101 -82.848709
   vertex 16.598528 -355.018768 -83.012543
   vertex 16.279104 -355.018768 -83.104134
  endloop
 endfacet
 facet normal 0.173700 0.776440 -0.605780
  outer loop
   vertex 16.525286 -354.803101 -82.757118
   vertex 16.598528 -355.018768 -83.012543
   vertex 16.205862 -354.803101 -82.848709
  endloop
 endfacet
 facet normal 0.961261 0.000000 0.275639
  outer loop
   vertex 16.505594 -355.086670 -82.688446
   vertex 16.598528 -355.018768 -83.012543
   vertex 16.525286 -354.803101 -82.757118
  endloop
 endfacet
 facet normal 0.961262 -0.000000 0.275636
  outer loop
   vertex 16.525286 -354.803101 -82.757118
   vertex 16.001734 -355.086670 -80.931267
   vertex 16.505594 -355.086670 -82.688446
  endloop
 endfacet
 facet normal 0.000000 -1.000000 -0.000000
  outer loop
   vertex 16.505594 -355.086670 -82.688446
   vertex 16.001734 -355.086670 -80.931267
   vertex 15.682310 -355.086670 -81.022858
  endloop
 endfacet
 facet normal 0.275631 -0.000000 -0.961264
  outer loop
   vertex 15.682310 -355.086670 -81.022858
   vertex 16.001734 -355.086670 -80.931267
   vertex 16.001734 -356.262604 -80.931267
  endloop
 endfacet
 facet normal 0.275631 0.000000 -0.961264
  outer loop
   vertex 16.001734 -356.262604 -80.931267
   vertex 15.682310 -356.262604 -81.022858
   vertex 15.682310 -355.086670 -81.022858
  endloop
 endfacet
 facet normal -0.000000 1.000000 -0.000000
  outer loop
   vertex 16.505596 -356.262604 -82.688446
   vertex 15.682310 -356.262604 -81.022858
   vertex 16.001734 -356.262604 -80.931267
  endloop
 endfacet
 facet normal 0.000000 1.000000 0.000000
  outer loop
   vertex 16.186172 -356.262604 -82.780037
   vertex 15.682310 -356.262604 -81.022858
   vertex 16.505596 -356.262604 -82.688446
  endloop
 endfacet
 facet normal -0.000000 -1.000000 0.000000
  outer loop
   vertex 16.186176 -381.137421 -82.780045
   vertex 16.505600 -381.137421 -82.688446
   vertex 15.682314 -381.137421 -81.022865
  endloop
 endfacet
 facet normal -0.000000 -1.000000 -0.000000
  outer loop
   vertex 15.682314 -381.137421 -81.022865
   vertex 16.505600 -381.137421 -82.688446
   vertex 16.001738 -381.137421 -80.931267
  endloop
 endfacet
 facet normal 0.275652 0.000000 -0.961258
  outer loop
   vertex 16.001738 -381.137421 -80.931267
   vertex 15.682314 -382.313354 -81.022865
   vertex 15.682314 -381.137421 -81.022865
  endloop
 endfacet
 facet normal 0.275652 -0.000000 -0.961258
  outer loop
   vertex 16.001738 -382.313354 -80.931267
   vertex 15.682314 -382.313354 -81.022865
   vertex 16.001738 -381.137421 -80.931267
  endloop
 endfacet
 facet normal -0.000000 1.000000 0.000000
  outer loop
   vertex 16.505600 -382.313354 -82.688446
   vertex 15.682314 -382.313354 -81.022865
   vertex 16.001738 -382.313354 -80.931267
  endloop
 endfacet
 facet normal 0.961262 -0.000006 0.275637
  outer loop
   vertex 16.001738 -382.313354 -80.931267
   vertex 16.525290 -382.596924 -82.757118
   vertex 16.505600 -382.313354 -82.688446
  endloop
 endfacet
 facet normal 0.961263 -0.000006 0.275634
  outer loop
   vertex 16.505600 -382.313354 -82.688446
   vertex 16.525290 -382.596924 -82.757118
   vertex 16.598532 -382.381256 -83.012543
  endloop
 endfacet
 facet normal 0.173700 -0.776440 -0.605780
  outer loop
   vertex 16.598532 -382.381256 -83.012543
   vertex 16.525290 -382.596924 -82.757118
   vertex 16.205866 -382.596924 -82.848709
  endloop
 endfacet
 facet normal 0.173700 -0.776440 -0.605780
  outer loop
   vertex 16.205866 -382.596924 -82.848709
   vertex 16.279108 -382.381256 -83.104134
   vertex 16.598532 -382.381256 -83.012543
  endloop
 endfacet
 facet normal -0.961261 -0.000001 -0.275639
  outer loop
   vertex 16.186176 -382.313354 -82.780045
   vertex 16.279108 -382.381256 -83.104134
   vertex 16.205866 -382.596924 -82.848709
  endloop
 endfacet
 facet normal -0.961261 0.000000 -0.275639
  outer loop
   vertex 16.186176 -381.137421 -82.780045
   vertex 16.279108 -382.381256 -83.104134
   vertex 16.186176 -382.313354 -82.780045
  endloop
 endfacet
 facet normal -0.275652 -0.000000 0.961258
  outer loop
   vertex 16.186176 -382.313354 -82.780045
   vertex 16.505600 -382.313354 -82.688446
   vertex 16.186176 -381.137421 -82.780045
  endloop
 endfacet
 facet normal -0.275652 0.000000 0.961258
  outer loop
   vertex 16.186176 -381.137421 -82.780045
   vertex 16.505600 -382.313354 -82.688446
   vertex 16.505600 -381.137421 -82.688446
  endloop
 endfacet
 facet normal 0.961263 -0.000000 0.275633
  outer loop
   vertex 16.505600 -381.137421 -82.688446
   vertex 16.505600 -382.313354 -82.688446
   vertex 16.598532 -382.381256 -83.012543
  endloop
 endfacet
 facet normal 0.961263 0.000000 0.275633
  outer loop
   vertex 16.598532 -382.381256 -83.012543
   vertex 16.598532 -380.591431 -83.012543
   vertex 16.505600 -381.137421 -82.688446
  endloop
 endfacet
 facet normal 0.275631 -0.000000 -0.961264
  outer loop
   vertex 16.279108 -380.591431 -83.104134
   vertex 16.598532 -380.591431 -83.012543
   vertex 16.598532 -382.381256 -83.012543
  endloop
 endfacet
 facet normal 0.000000 1.000000 0.000000
  outer loop
   vertex 15.076777 -380.591431 -78.911095
   vertex 16.598532 -380.591431 -83.012543
   vertex 16.279108 -380.591431 -83.104134
  endloop
 endfacet
 facet normal -0.961262 0.000003 -0.275637
  outer loop
   vertex 16.279108 -380.591431 -83.104134
   vertex 15.682314 -381.137421 -81.022865
   vertex 15.076777 -380.591431 -78.911095
  endloop
 endfacet
 facet normal -0.961262 0.000000 -0.275636
  outer loop
   vertex 15.076777 -380.591431 -78.911095
   vertex 15.682314 -381.137421 -81.022865
   vertex 15.379545 -381.867157 -79.966980
  endloop
 endfacet
 facet normal -0.961262 -0.000000 -0.275636
  outer loop
   vertex 15.379545 -381.867157 -79.966980
   vertex 15.682314 -381.137421 -81.022865
   vertex 15.682314 -382.313354 -81.022865
  endloop
 endfacet
 facet normal -0.961262 0.000000 -0.275636
  outer loop
   vertex 15.682314 -382.313354 -81.022865
   vertex 15.076777 -382.596924 -78.911095
   vertex 15.379545 -381.867157 -79.966980
  endloop
 endfacet
 facet normal -0.961262 -0.000004 -0.275637
  outer loop
   vertex 16.205866 -382.596924 -82.848709
   vertex 15.076777 -382.596924 -78.911095
   vertex 15.682314 -382.313354 -81.022865
  endloop
 endfacet
 facet normal 0.000000 -1.000000 0.000000
  outer loop
   vertex 16.525290 -382.596924 -82.757118
   vertex 15.076777 -382.596924 -78.911095
   vertex 16.205866 -382.596924 -82.848709
  endloop
 endfacet
 facet normal -0.910135 -0.000000 -0.414313
  outer loop
   vertex 16.796141 -381.036835 -84.548416
   vertex 16.796141 -379.878113 -84.548416
   vertex 16.837481 -381.036835 -84.639229
  endloop
 endfacet
 facet normal -0.910135 -0.000000 -0.414313
  outer loop
   vertex 16.837481 -381.036835 -84.639229
   vertex 16.796141 -379.878113 -84.548416
   vertex 16.837481 -379.878113 -84.639229
  endloop
 endfacet
 facet normal 0.275634 0.000000 -0.961263
  outer loop
   vertex 16.837481 -379.878113 -84.639229
   vertex 16.990286 -379.878113 -84.595413
   vertex 16.837481 -381.036835 -84.639229
  endloop
 endfacet
 facet normal 0.000000 1.000000 -0.000000
  outer loop
   vertex 16.796141 -379.878113 -84.548416
   vertex 16.990286 -379.878113 -84.595413
   vertex 16.837481 -379.878113 -84.639229
  endloop
 endfacet
 facet normal 0.000000 1.000000 -0.000000
  outer loop
   vertex 17.028973 -379.878113 -84.497856
   vertex 16.990286 -379.878113 -84.595413
   vertex 16.796141 -379.878113 -84.548416
  endloop
 endfacet
 facet normal -0.000000 1.000000 0.000000
  outer loop
   vertex 16.796141 -379.878113 -84.548416
   vertex 16.796988 -379.878113 -83.688835
   vertex 17.028973 -379.878113 -84.497856
  endloop
 endfacet
 facet normal 0.961261 0.000000 0.275640
  outer loop
   vertex 17.028973 -379.878113 -84.497856
   vertex 16.796988 -379.878113 -83.688835
   vertex 17.028973 -381.036835 -84.497856
  endloop
 endfacet
 facet normal 0.961262 0.000002 0.275638
  outer loop
   vertex 17.028973 -381.036835 -84.497856
   vertex 16.796988 -379.878113 -83.688835
   vertex 16.796989 -381.036835 -83.688835
  endloop
 endfacet
 facet normal 0.000000 -1.000000 0.000000
  outer loop
   vertex 16.796989 -381.036835 -83.688835
   vertex 16.796141 -381.036835 -84.548416
   vertex 17.028973 -381.036835 -84.497856
  endloop
 endfacet
 facet normal -0.000000 -1.000000 0.000000
  outer loop
   vertex 15.198389 -381.036835 -84.147224
   vertex 16.796141 -381.036835 -84.548416
   vertex 16.796989 -381.036835 -83.688835
  endloop
 endfacet
 facet normal -0.000000 -1.000000 0.000000
  outer loop
   vertex 15.654615 -381.036835 -84.875740
   vertex 16.796141 -381.036835 -84.548416
   vertex 15.198389 -381.036835 -84.147224
  endloop
 endfacet
 facet normal -0.000000 -1.000000 0.000000
  outer loop
   vertex 15.198389 -381.036835 -84.147224
   vertex 15.430372 -381.036835 -84.956253
   vertex 15.654615 -381.036835 -84.875740
  endloop
 endfacet
 facet normal 0.000000 -1.000000 0.000000
  outer loop
   vertex 15.654615 -381.036835 -84.875740
   vertex 15.430372 -381.036835 -84.956253
   vertex 15.514874 -381.036835 -85.018478
  endloop
 endfacet
 facet normal -0.592955 -0.000000 -0.805235
  outer loop
   vertex 15.514874 -381.036835 -85.018478
   vertex 15.430372 -381.036835 -84.956253
   vertex 15.514874 -379.878113 -85.018478
  endloop
 endfacet
 facet normal 0.275631 0.000000 -0.961264
  outer loop
   vertex 15.514874 -379.878113 -85.018478
   vertex 15.667682 -381.036835 -84.974663
   vertex 15.514874 -381.036835 -85.018478
  endloop
 endfacet
 facet normal 0.275631 -0.000000 -0.961264
  outer loop
   vertex 15.667682 -379.878113 -84.974663
   vertex 15.667682 -381.036835 -84.974663
   vertex 15.514874 -379.878113 -85.018478
  endloop
 endfacet
 facet normal 0.991389 -0.000000 0.130948
  outer loop
   vertex 15.654615 -381.036835 -84.875740
   vertex 15.667682 -381.036835 -84.974663
   vertex 15.667682 -379.878113 -84.974663
  endloop
 endfacet
 facet normal 0.991389 0.000000 0.130948
  outer loop
   vertex 15.667682 -379.878113 -84.974663
   vertex 15.654615 -379.878113 -84.875740
   vertex 15.654615 -381.036835 -84.875740
  endloop
 endfacet
 facet normal 0.275635 0.000000 -0.961262
  outer loop
   vertex 15.654615 -381.036835 -84.875740
   vertex 15.654615 -379.878113 -84.875740
   vertex 16.796141 -379.878113 -84.548416
  endloop
 endfacet
 facet normal -0.000000 1.000000 -0.000000
  outer loop
   vertex 16.796141 -379.878113 -84.548416
   vertex 15.654615 -379.878113 -84.875740
   vertex 15.198389 -379.878113 -84.147224
  endloop
 endfacet
 facet normal 0.000000 1.000000 0.000000
  outer loop
   vertex 15.198389 -379.878113 -84.147224
   vertex 16.796988 -379.878113 -83.688835
   vertex 16.796141 -379.878113 -84.548416
  endloop
 endfacet
 facet normal 0.000000 1.000000 -0.000000
  outer loop
   vertex 16.352757 -379.878113 -83.051315
   vertex 16.796988 -379.878113 -83.688835
   vertex 15.198389 -379.878113 -84.147224
  endloop
 endfacet
 facet normal 0.820459 0.000001 0.571705
  outer loop
   vertex 16.796989 -381.036835 -83.688835
   vertex 16.796988 -379.878113 -83.688835
   vertex 16.352757 -379.878113 -83.051315
  endloop
 endfacet
 facet normal 0.820458 -0.000000 0.571707
  outer loop
   vertex 16.352757 -379.878113 -83.051315
   vertex 16.352757 -381.036835 -83.051315
   vertex 16.796989 -381.036835 -83.688835
  endloop
 endfacet
 facet normal 0.000000 -1.000000 -0.000000
  outer loop
   vertex 16.796989 -381.036835 -83.688835
   vertex 16.352757 -381.036835 -83.051315
   vertex 15.237285 -381.036835 -83.371170
  endloop
 endfacet
 facet normal -0.275636 -0.000000 0.961262
  outer loop
   vertex 15.237285 -381.036835 -83.371170
   vertex 16.352757 -381.036835 -83.051315
   vertex 16.352757 -379.878113 -83.051315
  endloop
 endfacet
 facet normal -0.275636 -0.000000 0.961262
  outer loop
   vertex 16.352757 -379.878113 -83.051315
   vertex 15.237284 -379.878113 -83.371170
   vertex 15.237285 -381.036835 -83.371170
  endloop
 endfacet
 facet normal -0.000000 1.000000 0.000000
  outer loop
   vertex 15.198389 -379.878113 -84.147224
   vertex 15.237284 -379.878113 -83.371170
   vertex 16.352757 -379.878113 -83.051315
  endloop
 endfacet
 facet normal -0.998746 -0.000001 0.050056
  outer loop
   vertex 15.237285 -381.036835 -83.371170
   vertex 15.237284 -379.878113 -83.371170
   vertex 15.198389 -379.878113 -84.147224
  endloop
 endfacet
 facet normal -0.998746 -0.000000 0.050057
  outer loop
   vertex 15.198389 -379.878113 -84.147224
   vertex 15.198389 -381.036835 -84.147224
   vertex 15.237285 -381.036835 -83.371170
  endloop
 endfacet
 facet normal 0.000000 -1.000000 0.000000
  outer loop
   vertex 15.237285 -381.036835 -83.371170
   vertex 15.198389 -381.036835 -84.147224
   vertex 16.796989 -381.036835 -83.688835
  endloop
 endfacet
 facet normal 0.000000 1.000000 0.000000
  outer loop
   vertex 16.796986 -356.363190 -83.688835
   vertex 15.198385 -356.363190 -84.147224
   vertex 15.237281 -356.363190 -83.371162
  endloop
 endfacet
 facet normal -0.998746 -0.000000 0.050056
  outer loop
   vertex 15.237281 -356.363190 -83.371162
   vertex 15.198385 -356.363190 -84.147224
   vertex 15.198385 -357.521912 -84.147224
  endloop
 endfacet
 facet normal -0.998746 0.000000 0.050056
  outer loop
   vertex 15.198385 -357.521912 -84.147224
   vertex 15.237281 -357.521912 -83.371162
   vertex 15.237281 -356.363190 -83.371162
  endloop
 endfacet
 facet normal 0.000000 -1.000000 -0.000000
  outer loop
   vertex 16.352753 -357.521912 -83.051308
   vertex 15.237281 -357.521912 -83.371162
   vertex 15.198385 -357.521912 -84.147224
  endloop
 endfacet
 facet normal -0.275636 0.000000 0.961262
  outer loop
   vertex 15.237281 -356.363190 -83.371162
   vertex 15.237281 -357.521912 -83.371162
   vertex 16.352753 -357.521912 -83.051308
  endloop
 endfacet
 facet normal -0.275636 -0.000000 0.961262
  outer loop
   vertex 16.352753 -357.521912 -83.051308
   vertex 16.352753 -356.363190 -83.051308
   vertex 15.237281 -356.363190 -83.371162
  endloop
 endfacet
 facet normal 0.000000 1.000000 0.000000
  outer loop
   vertex 15.237281 -356.363190 -83.371162
   vertex 16.352753 -356.363190 -83.051308
   vertex 16.796986 -356.363190 -83.688835
  endloop
 endfacet
 facet normal 0.820461 0.000000 0.571702
  outer loop
   vertex 16.796986 -356.363190 -83.688835
   vertex 16.352753 -356.363190 -83.051308
   vertex 16.352753 -357.521912 -83.051308
  endloop
 endfacet
 facet normal 0.820461 -0.000000 0.571702
  outer loop
   vertex 16.352753 -357.521912 -83.051308
   vertex 16.796986 -357.521912 -83.688835
   vertex 16.796986 -356.363190 -83.688835
  endloop
 endfacet
 facet normal -0.000000 -1.000000 -0.000000
  outer loop
   vertex 15.198385 -357.521912 -84.147224
   vertex 16.796986 -357.521912 -83.688835
   vertex 16.352753 -357.521912 -83.051308
  endloop
 endfacet
 facet normal 0.000000 -1.000000 0.000000
  outer loop
   vertex 16.796137 -357.521912 -84.548416
   vertex 16.796986 -357.521912 -83.688835
   vertex 15.198385 -357.521912 -84.147224
  endloop
 endfacet
 facet normal -0.000000 -1.000000 0.000000
  outer loop
   vertex 15.198385 -357.521912 -84.147224
   vertex 15.654612 -357.521912 -84.875740
   vertex 16.796137 -357.521912 -84.548416
  endloop
 endfacet
 facet normal 0.275635 0.000000 -0.961262
  outer loop
   vertex 16.796137 -357.521912 -84.548416
   vertex 15.654612 -357.521912 -84.875740
   vertex 15.654612 -356.363190 -84.875740
  endloop
 endfacet
 facet normal 0.991388 -0.000000 0.130958
  outer loop
   vertex 15.654612 -356.363190 -84.875740
   vertex 15.654612 -357.521912 -84.875740
   vertex 15.667679 -357.521912 -84.974663
  endloop
 endfacet
 facet normal 0.991389 0.000001 0.130948
  outer loop
   vertex 15.667679 -357.521912 -84.974663
   vertex 15.667678 -356.363190 -84.974663
   vertex 15.654612 -356.363190 -84.875740
  endloop
 endfacet
 facet normal 0.275629 0.000000 -0.961264
  outer loop
   vertex 15.514871 -357.521912 -85.018478
   vertex 15.667678 -356.363190 -84.974663
   vertex 15.667679 -357.521912 -84.974663
  endloop
 endfacet
 facet normal 0.275631 0.000000 -0.961264
  outer loop
   vertex 15.514871 -356.363190 -85.018478
   vertex 15.667678 -356.363190 -84.974663
   vertex 15.514871 -357.521912 -85.018478
  endloop
 endfacet
 facet normal -0.593002 -0.000000 -0.805201
  outer loop
   vertex 15.514871 -357.521912 -85.018478
   vertex 15.430368 -356.363190 -84.956245
   vertex 15.514871 -356.363190 -85.018478
  endloop
 endfacet
 facet normal -0.000000 1.000000 0.000000
  outer loop
   vertex 15.514871 -356.363190 -85.018478
   vertex 15.430368 -356.363190 -84.956245
   vertex 15.654612 -356.363190 -84.875740
  endloop
 endfacet
 facet normal -0.000000 1.000000 -0.000000
  outer loop
   vertex 15.654612 -356.363190 -84.875740
   vertex 15.430368 -356.363190 -84.956245
   vertex 15.198385 -356.363190 -84.147224
  endloop
 endfacet
 facet normal 0.000000 1.000000 0.000000
  outer loop
   vertex 15.198385 -356.363190 -84.147224
   vertex 16.796137 -356.363190 -84.548416
   vertex 15.654612 -356.363190 -84.875740
  endloop
 endfacet
 facet normal -0.000000 1.000000 -0.000000
  outer loop
   vertex 16.796986 -356.363190 -83.688835
   vertex 16.796137 -356.363190 -84.548416
   vertex 15.198385 -356.363190 -84.147224
  endloop
 endfacet
 facet normal 0.000000 1.000000 0.000000
  outer loop
   vertex 17.028969 -356.363190 -84.497856
   vertex 16.796137 -356.363190 -84.548416
   vertex 16.796986 -356.363190 -83.688835
  endloop
 endfacet
 facet normal 0.961262 -0.000000 0.275638
  outer loop
   vertex 16.796986 -356.363190 -83.688835
   vertex 16.796986 -357.521912 -83.688835
   vertex 17.028969 -356.363190 -84.497856
  endloop
 endfacet
 facet normal 0.961262 0.000000 0.275638
  outer loop
   vertex 17.028969 -356.363190 -84.497856
   vertex 16.796986 -357.521912 -83.688835
   vertex 17.028969 -357.521912 -84.497856
  endloop
 endfacet
 facet normal -0.000000 -1.000000 -0.000000
  outer loop
   vertex 17.028969 -357.521912 -84.497856
   vertex 16.796986 -357.521912 -83.688835
   vertex 16.796137 -357.521912 -84.548416
  endloop
 endfacet
 facet normal 0.000000 -1.000000 0.000000
  outer loop
   vertex 16.796137 -357.521912 -84.548416
   vertex 16.990284 -357.521912 -84.595413
   vertex 17.028969 -357.521912 -84.497856
  endloop
 endfacet
 facet normal -0.000000 -1.000000 -0.000000
  outer loop
   vertex 16.837477 -357.521912 -84.639229
   vertex 16.990284 -357.521912 -84.595413
   vertex 16.796137 -357.521912 -84.548416
  endloop
 endfacet
 facet normal 0.275631 0.000000 -0.961264
  outer loop
   vertex 16.837477 -356.363190 -84.639229
   vertex 16.990284 -357.521912 -84.595413
   vertex 16.837477 -357.521912 -84.639229
  endloop
 endfacet
 facet normal -0.910135 -0.000000 -0.414313
  outer loop
   vertex 16.837477 -357.521912 -84.639229
   vertex 16.796137 -357.521912 -84.548416
   vertex 16.837477 -356.363190 -84.639229
  endloop
 endfacet
 facet normal -0.910135 0.000000 -0.414313
  outer loop
   vertex 16.837477 -356.363190 -84.639229
   vertex 16.796137 -357.521912 -84.548416
   vertex 16.796137 -356.363190 -84.548416
  endloop
 endfacet
 facet normal 0.275635 -0.000000 -0.961262
  outer loop
   vertex 16.796137 -356.363190 -84.548416
   vertex 16.796137 -357.521912 -84.548416
   vertex 15.654612 -356.363190 -84.875740
  endloop
 endfacet
 facet normal 0.961262 0.000000 0.275637
  outer loop
   vertex 16.001738 -381.137421 -80.931267
   vertex 15.396200 -382.596924 -78.819504
   vertex 16.001738 -382.313354 -80.931267
  endloop
 endfacet
 facet normal 0.961262 -0.000003 0.275637
  outer loop
   vertex 16.001738 -382.313354 -80.931267
   vertex 15.396200 -382.596924 -78.819504
   vertex 16.525290 -382.596924 -82.757118
  endloop
 endfacet
 facet normal 0.000000 1.000000 -0.000000
  outer loop
   vertex 17.028969 -356.363190 -84.497856
   vertex 16.990282 -356.363190 -84.595413
   vertex 16.796137 -356.363190 -84.548416
  endloop
 endfacet
 facet normal 0.000000 1.000000 -0.000000
  outer loop
   vertex 16.796137 -356.363190 -84.548416
   vertex 16.990282 -356.363190 -84.595413
   vertex 16.837477 -356.363190 -84.639229
  endloop
 endfacet
 facet normal 0.000000 -1.000000 0.000000
  outer loop
   vertex 17.028973 -381.036835 -84.497856
   vertex 16.796141 -381.036835 -84.548416
   vertex 16.990286 -381.036835 -84.595413
  endloop
 endfacet
 facet normal -0.000000 -1.000000 -0.000000
  outer loop
   vertex 16.990286 -381.036835 -84.595413
   vertex 16.796141 -381.036835 -84.548416
   vertex 16.837481 -381.036835 -84.639229
  endloop
 endfacet
 facet normal 0.000000 1.000000 0.000000
  outer loop
   vertex 15.514871 -356.363190 -85.018478
   vertex 15.654612 -356.363190 -84.875740
   vertex 15.667678 -356.363190 -84.974663
  endloop
 endfacet
 facet normal -0.000000 -1.000000 0.000000
  outer loop
   vertex 15.514874 -381.036835 -85.018478
   vertex 15.667682 -381.036835 -84.974663
   vertex 15.654615 -381.036835 -84.875740
  endloop
 endfacet
 facet normal -0.961262 0.000000 -0.275636
  outer loop
   vertex 15.076773 -354.803101 -78.911095
   vertex 15.379541 -355.532867 -79.966980
   vertex 15.076773 -356.808594 -78.911095
  endloop
 endfacet
 facet normal 0.275635 0.000000 -0.961262
  outer loop
   vertex 15.654615 -381.036835 -84.875740
   vertex 16.796141 -379.878113 -84.548416
   vertex 16.796141 -381.036835 -84.548416
  endloop
 endfacet
 facet normal 0.275679 -0.000019 -0.961250
  outer loop
   vertex 15.334522 -380.918152 -83.353127
   vertex 15.334518 -380.587433 -83.353134
   vertex 16.592659 -380.918121 -82.992302
  endloop
 endfacet
 facet normal 0.275679 0.000019 -0.961250
  outer loop
   vertex 15.334518 -356.481873 -83.353127
   vertex 16.592657 -356.481903 -82.992302
   vertex 15.334515 -356.812592 -83.353134
  endloop
 endfacet
 facet normal -0.961256 -0.000000 -0.275657
  outer loop
   vertex 15.246783 -356.905609 -84.147240
   vertex 15.266249 -356.905609 -84.215118
   vertex 15.266252 -380.494415 -84.215118
  endloop
 endfacet
 facet normal -0.000019 1.000000 -0.000020
  outer loop
   vertex 15.334518 -380.587433 -83.353134
   vertex 15.396142 -380.587341 -78.819633
   vertex 16.592651 -380.587402 -82.992371
  endloop
 endfacet
 facet normal 0.961262 -0.000002 0.275637
  outer loop
   vertex 16.598528 -356.808594 -83.012543
   vertex 16.505596 -356.262604 -82.688446
   vertex 16.001734 -356.262604 -80.931267
  endloop
 endfacet
endsolid