solid stl file generated from DOUG
 facet normal 0.389576 0.804603 -0.448156
  outer loop
   vertex 50.188416 -769.552185 -64.251144
   vertex 50.260303 -769.633057 -64.333847
   vertex 30.291786 -769.633057 -81.692192
  endloop
 endfacet
 facet normal 0.656059 -0.000000 -0.754710
  outer loop
   vertex 30.291786 -769.633057 -81.692192
   vertex 50.260303 -769.633057 -64.333847
   vertex 30.291786 -769.735840 -81.692192
  endloop
 endfacet
 facet normal 0.389573 -0.804607 -0.448153
  outer loop
   vertex 30.219896 -768.447693 -81.609489
   vertex 30.291786 -768.366821 -81.692192
   vertex 50.260303 -768.366821 -64.333847
  endloop
 endfacet
 facet normal 0.656059 -0.000000 -0.754710
  outer loop
   vertex 50.260303 -768.366821 -64.333847
   vertex 30.291786 -768.366821 -81.692192
   vertex 30.291786 -768.264038 -81.692192
  endloop
 endfacet
 facet normal 0.656059 0.000000 -0.754710
  outer loop
   vertex 30.291786 -768.264038 -81.692192
   vertex 50.260303 -768.264038 -64.333847
   vertex 50.260303 -768.366821 -64.333847
  endloop
 endfacet
 facet normal 0.612438 0.358550 -0.704530
  outer loop
   vertex 29.811075 -768.264038 -81.139198
   vertex 49.779594 -768.264038 -63.780853
   vertex 29.818998 -768.295471 -81.148308
  endloop
 endfacet
 facet normal 0.612419 0.358624 -0.704508
  outer loop
   vertex 29.818998 -768.295471 -81.148308
   vertex 49.779594 -768.264038 -63.780853
   vertex 49.787518 -768.295471 -63.789967
  endloop
 endfacet
 facet normal 0.000000 1.000000 0.000000
  outer loop
   vertex 49.787518 -768.295471 -63.789967
   vertex 50.164852 -768.295471 -64.224045
   vertex 29.818998 -768.295471 -81.148308
  endloop
 endfacet
 facet normal 0.389573 0.804607 -0.448153
  outer loop
   vertex 30.291786 -769.633057 -81.692192
   vertex 30.219896 -769.552185 -81.609489
   vertex 50.188416 -769.552185 -64.251144
  endloop
 endfacet
 facet normal 0.656059 -0.000000 -0.754710
  outer loop
   vertex 50.188416 -769.552185 -64.251144
   vertex 30.219896 -769.552185 -81.609489
   vertex 30.219896 -768.447693 -81.609489
  endloop
 endfacet
 facet normal 0.656059 0.000000 -0.754710
  outer loop
   vertex 30.219896 -768.447693 -81.609489
   vertex 50.188416 -768.447693 -64.251144
   vertex 50.188416 -769.552185 -64.251144
  endloop
 endfacet
 facet normal 0.389576 -0.804603 -0.448156
  outer loop
   vertex 50.260303 -768.366821 -64.333847
   vertex 50.188416 -768.447693 -64.251144
   vertex 30.219896 -768.447693 -81.609489
  endloop
 endfacet
 facet normal 0.000000 1.000000 0.000000
  outer loop
   vertex 50.260303 -768.264038 -64.333847
   vertex 30.291786 -768.264038 -81.692192
   vertex 50.172775 -768.264038 -64.233154
  endloop
 endfacet
 facet normal -0.000000 1.000000 -0.000000
  outer loop
   vertex 50.172775 -768.264038 -64.233154
   vertex 30.291786 -768.264038 -81.692192
   vertex 30.204256 -768.264038 -81.591499
  endloop
 endfacet
 facet normal -0.612438 0.358550 0.704530
  outer loop
   vertex 30.204256 -768.264038 -81.591499
   vertex 50.164852 -768.295471 -64.224045
   vertex 50.172775 -768.264038 -64.233154
  endloop
 endfacet
 facet normal -0.612408 0.358666 0.704496
  outer loop
   vertex 30.196335 -768.295471 -81.582382
   vertex 50.164852 -768.295471 -64.224045
   vertex 30.204256 -768.264038 -81.591499
  endloop
 endfacet
 facet normal 0.000000 1.000000 0.000000
  outer loop
   vertex 29.818998 -768.295471 -81.148308
   vertex 50.164852 -768.295471 -64.224045
   vertex 30.196335 -768.295471 -81.582382
  endloop
 endfacet
 facet normal -0.754712 0.000000 -0.656057
  outer loop
   vertex 29.990616 -769.752869 -81.978783
   vertex 29.439198 -768.247009 -81.344444
   vertex 29.990616 -768.247009 -81.978783
  endloop
 endfacet
 facet normal -0.000000 1.000000 -0.000000
  outer loop
   vertex 29.990616 -768.247009 -81.978783
   vertex 29.439198 -768.247009 -81.344444
   vertex 30.745327 -768.247009 -81.322723
  endloop
 endfacet
 facet normal 0.656058 0.000000 -0.754710
  outer loop
   vertex 30.745327 -768.247009 -81.322723
   vertex 30.745327 -769.752869 -81.322723
   vertex 29.990616 -768.247009 -81.978783
  endloop
 endfacet
 facet normal 0.754712 -0.000000 0.656057
  outer loop
   vertex 30.193909 -768.247009 -80.688385
   vertex 30.745327 -769.752869 -81.322723
   vertex 30.745327 -768.247009 -81.322723
  endloop
 endfacet
 facet normal 0.754712 0.000000 0.656057
  outer loop
   vertex 30.193909 -769.752869 -80.688385
   vertex 30.745327 -769.752869 -81.322723
   vertex 30.193909 -768.247009 -80.688385
  endloop
 endfacet
 facet normal -0.656058 -0.000000 0.754710
  outer loop
   vertex 30.193909 -768.247009 -80.688385
   vertex 29.439198 -768.247009 -81.344444
   vertex 30.193909 -769.752869 -80.688385
  endloop
 endfacet
 facet normal -0.656058 0.000000 0.754710
  outer loop
   vertex 30.193909 -769.752869 -80.688385
   vertex 29.439198 -768.247009 -81.344444
   vertex 29.439198 -769.752869 -81.344444
  endloop
 endfacet
 facet normal -0.754712 -0.000000 -0.656057
  outer loop
   vertex 29.439198 -769.752869 -81.344444
   vertex 29.439198 -768.247009 -81.344444
   vertex 29.990616 -769.752869 -81.978783
  endloop
 endfacet
 facet normal 0.000000 -1.000000 0.000000
  outer loop
   vertex 29.990616 -769.752869 -81.978783
   vertex 30.745327 -769.752869 -81.322723
   vertex 29.439198 -769.752869 -81.344444
  endloop
 endfacet
 facet normal 0.656058 -0.000000 -0.754710
  outer loop
   vertex 29.990616 -768.247009 -81.978783
   vertex 30.745327 -769.752869 -81.322723
   vertex 29.990616 -769.752869 -81.978783
  endloop
 endfacet
 facet normal -0.754708 0.000000 -0.656061
  outer loop
   vertex 49.831310 -768.247009 -64.731552
   vertex 49.831310 -769.752869 -64.731552
   vertex 49.279892 -768.247009 -64.097221
  endloop
 endfacet
 facet normal -0.754708 -0.000000 -0.656061
  outer loop
   vertex 49.279892 -768.247009 -64.097221
   vertex 49.831310 -769.752869 -64.731552
   vertex 49.279892 -769.752869 -64.097221
  endloop
 endfacet
 facet normal -0.656058 0.000000 0.754710
  outer loop
   vertex 49.279892 -769.752869 -64.097221
   vertex 50.034603 -769.752869 -63.441162
   vertex 49.279892 -768.247009 -64.097221
  endloop
 endfacet
 facet normal -0.000000 -1.000000 -0.000000
  outer loop
   vertex 49.831310 -769.752869 -64.731552
   vertex 50.034603 -769.752869 -63.441162
   vertex 49.279892 -769.752869 -64.097221
  endloop
 endfacet
 facet normal 0.000000 -1.000000 -0.000000
  outer loop
   vertex 50.586021 -769.752869 -64.075493
   vertex 50.034603 -769.752869 -63.441162
   vertex 49.831310 -769.752869 -64.731552
  endloop
 endfacet
 facet normal 0.656058 -0.000000 -0.754710
  outer loop
   vertex 49.831310 -769.752869 -64.731552
   vertex 50.586021 -768.247009 -64.075493
   vertex 50.586021 -769.752869 -64.075493
  endloop
 endfacet
 facet normal 0.754708 0.000000 0.656061
  outer loop
   vertex 50.586021 -769.752869 -64.075493
   vertex 50.586021 -768.247009 -64.075493
   vertex 50.034603 -769.752869 -63.441162
  endloop
 endfacet
 facet normal 0.754708 -0.000000 0.656061
  outer loop
   vertex 50.034603 -769.752869 -63.441162
   vertex 50.586021 -768.247009 -64.075493
   vertex 50.034603 -768.247009 -63.441162
  endloop
 endfacet
 facet normal -0.656058 0.000000 0.754710
  outer loop
   vertex 50.034603 -768.247009 -63.441162
   vertex 49.279892 -768.247009 -64.097221
   vertex 50.034603 -769.752869 -63.441162
  endloop
 endfacet
 facet normal -0.000000 1.000000 -0.000000
  outer loop
   vertex 50.586021 -768.247009 -64.075493
   vertex 49.279892 -768.247009 -64.097221
   vertex 50.034603 -768.247009 -63.441162
  endloop
 endfacet
 facet normal -0.000000 1.000000 0.000000
  outer loop
   vertex 49.831310 -768.247009 -64.731552
   vertex 49.279892 -768.247009 -64.097221
   vertex 50.586021 -768.247009 -64.075493
  endloop
 endfacet
 facet normal 0.656058 -0.000000 -0.754710
  outer loop
   vertex 50.586021 -768.247009 -64.075493
   vertex 49.831310 -769.752869 -64.731552
   vertex 49.831310 -768.247009 -64.731552
  endloop
 endfacet
 facet normal 0.656059 0.000000 -0.754710
  outer loop
   vertex 50.260303 -769.633057 -64.333847
   vertex 50.260303 -769.735840 -64.333847
   vertex 30.291786 -769.735840 -81.692192
  endloop
 endfacet
 facet normal -0.000000 -1.000000 -0.000000
  outer loop
   vertex 30.291786 -769.735840 -81.692192
   vertex 50.260303 -769.735840 -64.333847
   vertex 50.172775 -769.735840 -64.233154
  endloop
 endfacet
 facet normal 0.000000 -1.000000 0.000000
  outer loop
   vertex 50.172775 -769.735840 -64.233154
   vertex 30.204256 -769.735840 -81.591499
   vertex 30.291786 -769.735840 -81.692192
  endloop
 endfacet
 facet normal -0.612438 -0.358550 0.704530
  outer loop
   vertex 50.164852 -769.704407 -64.224045
   vertex 30.204256 -769.735840 -81.591499
   vertex 50.172775 -769.735840 -64.233154
  endloop
 endfacet
 facet normal -0.612408 -0.358666 0.704496
  outer loop
   vertex 30.196335 -769.704407 -81.582382
   vertex 30.204256 -769.735840 -81.591499
   vertex 50.164852 -769.704407 -64.224045
  endloop
 endfacet
 facet normal -0.000000 -1.000000 -0.000000
  outer loop
   vertex 50.164852 -769.704407 -64.224045
   vertex 49.787518 -769.704407 -63.789967
   vertex 30.196335 -769.704407 -81.582382
  endloop
 endfacet
 facet normal 0.000000 -1.000000 0.000000
  outer loop
   vertex 30.196335 -769.704407 -81.582382
   vertex 49.787518 -769.704407 -63.789967
   vertex 29.818998 -769.704407 -81.148308
  endloop
 endfacet
 facet normal 0.612419 -0.358624 -0.704508
  outer loop
   vertex 29.818998 -769.704407 -81.148308
   vertex 49.787518 -769.704407 -63.789967
   vertex 49.779594 -769.735840 -63.780853
  endloop
 endfacet
 facet normal 0.612438 -0.358550 -0.704530
  outer loop
   vertex 49.779594 -769.735840 -63.780853
   vertex 29.811075 -769.735840 -81.139198
   vertex 29.818998 -769.704407 -81.148308
  endloop
 endfacet
 facet normal -0.000000 -1.000000 -0.000000
  outer loop
   vertex 49.736164 -769.735840 -63.730892
   vertex 29.811075 -769.735840 -81.139198
   vertex 49.779594 -769.735840 -63.780853
  endloop
 endfacet
 facet normal 0.000000 -1.000000 0.000000
  outer loop
   vertex 29.767645 -769.735840 -81.089233
   vertex 29.811075 -769.735840 -81.139198
   vertex 49.736164 -769.735840 -63.730892
  endloop
 endfacet
 facet normal -0.656058 -0.000000 0.754710
  outer loop
   vertex 49.736164 -769.735840 -63.730892
   vertex 49.736164 -768.264038 -63.730892
   vertex 29.767645 -769.735840 -81.089233
  endloop
 endfacet
 facet normal -0.656058 0.000000 0.754710
  outer loop
   vertex 29.767645 -769.735840 -81.089233
   vertex 49.736164 -768.264038 -63.730892
   vertex 29.767645 -768.264038 -81.089233
  endloop
 endfacet
 facet normal -0.000000 1.000000 -0.000000
  outer loop
   vertex 29.767645 -768.264038 -81.089233
   vertex 49.736164 -768.264038 -63.730892
   vertex 29.811075 -768.264038 -81.139198
  endloop
 endfacet
 facet normal 0.000000 1.000000 0.000000
  outer loop
   vertex 30.193909 -768.247009 -80.688385
   vertex 30.745327 -768.247009 -81.322723
   vertex 29.439198 -768.247009 -81.344444
  endloop
 endfacet
 facet normal 0.000000 -1.000000 -0.000000
  outer loop
   vertex 30.745327 -769.752869 -81.322723
   vertex 30.193909 -769.752869 -80.688385
   vertex 29.439198 -769.752869 -81.344444
  endloop
 endfacet
 facet normal 0.000000 1.000000 0.000000
  outer loop
   vertex 49.736164 -768.264038 -63.730892
   vertex 49.779594 -768.264038 -63.780853
   vertex 29.811075 -768.264038 -81.139198
  endloop
 endfacet
 facet normal 0.946770 -0.314568 0.068365
  outer loop
   vertex 49.202778 -768.999939 -62.918030
   vertex 49.112751 -768.999939 -61.671272
   vertex 49.147518 -769.176697 -62.966068
  endloop
 endfacet
 facet normal 0.946775 -0.314553 0.068363
  outer loop
   vertex 49.147518 -769.176697 -62.966068
   vertex 49.112751 -768.999939 -61.671272
   vertex 48.891705 -769.707031 -61.863430
  endloop
 endfacet
 facet normal 0.611107 -0.759354 -0.223448
  outer loop
   vertex 48.891705 -769.707031 -61.863430
   vertex 49.014103 -769.249939 -63.082043
   vertex 49.147518 -769.176697 -62.966068
  endloop
 endfacet
 facet normal 0.611057 -0.759389 -0.223466
  outer loop
   vertex 48.358044 -769.999939 -62.327332
   vertex 49.014103 -769.249939 -63.082043
   vertex 48.891705 -769.707031 -61.863430
  endloop
 endfacet
 facet normal 0.136191 -0.759372 -0.636244
  outer loop
   vertex 48.880688 -769.176697 -63.198017
   vertex 49.014103 -769.249939 -63.082043
   vertex 48.358044 -769.999939 -62.327332
  endloop
 endfacet
 facet normal 0.136256 -0.759384 -0.636216
  outer loop
   vertex 48.358044 -769.999939 -62.327332
   vertex 47.824383 -769.707031 -62.791237
   vertex 48.880688 -769.176697 -63.198017
  endloop
 endfacet
 facet normal -0.199448 -0.314577 -0.928042
  outer loop
   vertex 48.880688 -769.176697 -63.198017
   vertex 47.824383 -769.707031 -62.791237
   vertex 48.825424 -768.999939 -63.246056
  endloop
 endfacet
 facet normal -0.199465 -0.314555 -0.928046
  outer loop
   vertex 48.825424 -768.999939 -63.246056
   vertex 47.824383 -769.707031 -62.791237
   vertex 47.603333 -768.999939 -62.983391
  endloop
 endfacet
 facet normal -0.199464 0.314581 -0.928037
  outer loop
   vertex 47.603333 -768.999939 -62.983391
   vertex 48.880688 -768.823181 -63.198017
   vertex 48.825424 -768.999939 -63.246056
  endloop
 endfacet
 facet normal -0.199461 0.314554 -0.928047
  outer loop
   vertex 47.824383 -768.292847 -62.791237
   vertex 48.880688 -768.823181 -63.198017
   vertex 47.603333 -768.999939 -62.983391
  endloop
 endfacet
 facet normal 0.136220 0.759350 -0.636264
  outer loop
   vertex 49.014103 -768.749939 -63.082043
   vertex 48.880688 -768.823181 -63.198017
   vertex 47.824383 -768.292847 -62.791237
  endloop
 endfacet
 facet normal 0.136248 0.759390 -0.636211
  outer loop
   vertex 47.824383 -768.292847 -62.791237
   vertex 48.358044 -767.999939 -62.327332
   vertex 49.014103 -768.749939 -63.082043
  endloop
 endfacet
 facet normal 0.611093 0.759374 -0.223419
  outer loop
   vertex 49.014103 -768.749939 -63.082043
   vertex 48.358044 -767.999939 -62.327332
   vertex 49.147518 -768.823181 -62.966068
  endloop
 endfacet
 facet normal 0.611061 0.759384 -0.223473
  outer loop
   vertex 49.147518 -768.823181 -62.966068
   vertex 48.358044 -767.999939 -62.327332
   vertex 48.891705 -768.292847 -61.863430
  endloop
 endfacet
 facet normal 0.946771 0.314566 0.068356
  outer loop
   vertex 48.891705 -768.292847 -61.863430
   vertex 49.202778 -768.999939 -62.918030
   vertex 49.147518 -768.823181 -62.966068
  endloop
 endfacet
 facet normal 0.946775 0.314553 0.068365
  outer loop
   vertex 49.112751 -768.999939 -61.671272
   vertex 49.202778 -768.999939 -62.918030
   vertex 48.891705 -768.292847 -61.863430
  endloop
 endfacet
 facet normal 0.697244 -0.382733 0.606107
  outer loop
   vertex 30.063755 -768.999939 -80.867012
   vertex 29.407696 -768.999939 -80.112305
   vertex 30.008492 -769.176697 -80.915054
  endloop
 endfacet
 facet normal 0.697247 -0.382726 0.606108
  outer loop
   vertex 30.008492 -769.176697 -80.915054
   vertex 29.407696 -768.999939 -80.112305
   vertex 29.352434 -769.176697 -80.160347
  endloop
 endfacet
 facet normal 0.288880 -0.923844 0.251119
  outer loop
   vertex 29.352434 -769.176697 -80.160347
   vertex 29.875076 -769.249939 -81.031029
   vertex 30.008492 -769.176697 -80.915054
  endloop
 endfacet
 facet normal 0.288880 -0.923844 0.251119
  outer loop
   vertex 29.219019 -769.249939 -80.276321
   vertex 29.875076 -769.249939 -81.031029
   vertex 29.352434 -769.176697 -80.160347
  endloop
 endfacet
 facet normal -0.288880 -0.923844 -0.251119
  outer loop
   vertex 29.741661 -769.176697 -81.147003
   vertex 29.875076 -769.249939 -81.031029
   vertex 29.219019 -769.249939 -80.276321
  endloop
 endfacet
 facet normal -0.288880 -0.923844 -0.251119
  outer loop
   vertex 29.219019 -769.249939 -80.276321
   vertex 29.085604 -769.176697 -80.392296
   vertex 29.741661 -769.176697 -81.147003
  endloop
 endfacet
 facet normal -0.697247 -0.382726 -0.606108
  outer loop
   vertex 29.741661 -769.176697 -81.147003
   vertex 29.085604 -769.176697 -80.392296
   vertex 29.686399 -768.999939 -81.195045
  endloop
 endfacet
 facet normal -0.697244 -0.382733 -0.606107
  outer loop
   vertex 29.686399 -768.999939 -81.195045
   vertex 29.085604 -769.176697 -80.392296
   vertex 29.030340 -768.999939 -80.440338
  endloop
 endfacet
 facet normal -0.697246 0.382726 -0.606109
  outer loop
   vertex 29.030340 -768.999939 -80.440338
   vertex 29.741661 -768.823181 -81.147003
   vertex 29.686399 -768.999939 -81.195045
  endloop
 endfacet
 facet normal -0.697245 0.382733 -0.606106
  outer loop
   vertex 29.085604 -768.823181 -80.392296
   vertex 29.741661 -768.823181 -81.147003
   vertex 29.030340 -768.999939 -80.440338
  endloop
 endfacet
 facet normal -0.288880 0.923844 -0.251119
  outer loop
   vertex 29.875076 -768.749939 -81.031029
   vertex 29.741661 -768.823181 -81.147003
   vertex 29.085604 -768.823181 -80.392296
  endloop
 endfacet
 facet normal -0.288880 0.923844 -0.251119
  outer loop
   vertex 29.085604 -768.823181 -80.392296
   vertex 29.219019 -768.749939 -80.276321
   vertex 29.875076 -768.749939 -81.031029
  endloop
 endfacet
 facet normal 0.288880 0.923844 0.251119
  outer loop
   vertex 29.875076 -768.749939 -81.031029
   vertex 29.219019 -768.749939 -80.276321
   vertex 30.008492 -768.823181 -80.915054
  endloop
 endfacet
 facet normal 0.288880 0.923844 0.251119
  outer loop
   vertex 30.008492 -768.823181 -80.915054
   vertex 29.219019 -768.749939 -80.276321
   vertex 29.352434 -768.823181 -80.160347
  endloop
 endfacet
 facet normal 0.697245 0.382733 0.606106
  outer loop
   vertex 29.352434 -768.823181 -80.160347
   vertex 30.063755 -768.999939 -80.867012
   vertex 30.008492 -768.823181 -80.915054
  endloop
 endfacet
 facet normal 0.697246 0.382726 0.606109
  outer loop
   vertex 29.407696 -768.999939 -80.112305
   vertex 30.063755 -768.999939 -80.867012
   vertex 29.352434 -768.823181 -80.160347
  endloop
 endfacet
 facet normal 0.697261 -0.382690 0.606115
  outer loop
   vertex 29.324255 -768.999939 -78.873131
   vertex 28.668196 -768.999939 -78.118416
   vertex 29.103205 -769.707031 -79.065285
  endloop
 endfacet
 facet normal 0.697262 -0.382688 0.606115
  outer loop
   vertex 29.103205 -769.707031 -79.065285
   vertex 28.668196 -768.999939 -78.118416
   vertex 28.447147 -769.707031 -78.310570
  endloop
 endfacet
 facet normal 0.288830 -0.923872 0.251074
  outer loop
   vertex 28.447147 -769.707031 -78.310570
   vertex 28.569546 -769.999939 -79.529182
   vertex 29.103205 -769.707031 -79.065285
  endloop
 endfacet
 facet normal 0.288826 -0.923873 0.251074
  outer loop
   vertex 27.913486 -769.999939 -78.774475
   vertex 28.569546 -769.999939 -79.529182
   vertex 28.447147 -769.707031 -78.310570
  endloop
 endfacet
 facet normal -0.288826 -0.923873 -0.251074
  outer loop
   vertex 28.035885 -769.707031 -79.993088
   vertex 28.569546 -769.999939 -79.529182
   vertex 27.913486 -769.999939 -78.774475
  endloop
 endfacet
 facet normal -0.288826 -0.923873 -0.251074
  outer loop
   vertex 27.913486 -769.999939 -78.774475
   vertex 27.379826 -769.707031 -79.238380
   vertex 28.035885 -769.707031 -79.993088
  endloop
 endfacet
 facet normal -0.697258 -0.382690 -0.606119
  outer loop
   vertex 28.035885 -769.707031 -79.993088
   vertex 27.379826 -769.707031 -79.238380
   vertex 27.814835 -768.999939 -80.185242
  endloop
 endfacet
 facet normal -0.697259 -0.382688 -0.606118
  outer loop
   vertex 27.814835 -768.999939 -80.185242
   vertex 27.379826 -769.707031 -79.238380
   vertex 27.158777 -768.999939 -79.430534
  endloop
 endfacet
 facet normal -0.697259 0.382690 -0.606118
  outer loop
   vertex 27.158777 -768.999939 -79.430534
   vertex 28.035885 -768.292847 -79.993088
   vertex 27.814835 -768.999939 -80.185242
  endloop
 endfacet
 facet normal -0.697258 0.382688 -0.606119
  outer loop
   vertex 27.379826 -768.292847 -79.238380
   vertex 28.035885 -768.292847 -79.993088
   vertex 27.158777 -768.999939 -79.430534
  endloop
 endfacet
 facet normal -0.288826 0.923873 -0.251074
  outer loop
   vertex 28.569546 -767.999939 -79.529182
   vertex 28.035885 -768.292847 -79.993088
   vertex 27.379826 -768.292847 -79.238380
  endloop
 endfacet
 facet normal -0.288826 0.923873 -0.251074
  outer loop
   vertex 27.379826 -768.292847 -79.238380
   vertex 27.913486 -767.999939 -78.774475
   vertex 28.569546 -767.999939 -79.529182
  endloop
 endfacet
 facet normal 0.288828 0.923872 0.251076
  outer loop
   vertex 28.569546 -767.999939 -79.529182
   vertex 27.913486 -767.999939 -78.774475
   vertex 29.103205 -768.292847 -79.065285
  endloop
 endfacet
 facet normal 0.288828 0.923873 0.251072
  outer loop
   vertex 29.103205 -768.292847 -79.065285
   vertex 27.913486 -767.999939 -78.774475
   vertex 28.447147 -768.292847 -78.310570
  endloop
 endfacet
 facet normal 0.697262 0.382690 0.606114
  outer loop
   vertex 28.447147 -768.292847 -78.310570
   vertex 29.324255 -768.999939 -78.873131
   vertex 29.103205 -768.292847 -79.065285
  endloop
 endfacet
 facet normal 0.697261 0.382688 0.606116
  outer loop
   vertex 28.668196 -768.999939 -78.118416
   vertex 29.324255 -768.999939 -78.873131
   vertex 28.447147 -768.292847 -78.310570
  endloop
 endfacet
 facet normal 0.946763 -0.314588 0.068365
  outer loop
   vertex 29.414282 -768.999939 -80.119881
   vertex 29.324255 -768.999939 -78.873131
   vertex 29.359018 -769.176697 -80.167923
  endloop
 endfacet
 facet normal 0.946774 -0.314557 0.068361
  outer loop
   vertex 29.359018 -769.176697 -80.167923
   vertex 29.324255 -768.999939 -78.873131
   vertex 29.103205 -769.707031 -79.065285
  endloop
 endfacet
 facet normal 0.611107 -0.759354 -0.223448
  outer loop
   vertex 29.103205 -769.707031 -79.065285
   vertex 29.225603 -769.249939 -80.283897
   vertex 29.359018 -769.176697 -80.167923
  endloop
 endfacet
 facet normal 0.611057 -0.759389 -0.223466
  outer loop
   vertex 28.569546 -769.999939 -79.529182
   vertex 29.225603 -769.249939 -80.283897
   vertex 29.103205 -769.707031 -79.065285
  endloop
 endfacet
 facet normal 0.136189 -0.759373 -0.636243
  outer loop
   vertex 29.092188 -769.176697 -80.399872
   vertex 29.225603 -769.249939 -80.283897
   vertex 28.569546 -769.999939 -79.529182
  endloop
 endfacet
 facet normal 0.136254 -0.759385 -0.636215
  outer loop
   vertex 28.569546 -769.999939 -79.529182
   vertex 28.035885 -769.707031 -79.993088
   vertex 29.092188 -769.176697 -80.399872
  endloop
 endfacet
 facet normal -0.199443 -0.314592 -0.928038
  outer loop
   vertex 29.092188 -769.176697 -80.399872
   vertex 28.035885 -769.707031 -79.993088
   vertex 29.036926 -768.999939 -80.447914
  endloop
 endfacet
 facet normal -0.199471 -0.314556 -0.928044
  outer loop
   vertex 29.036926 -768.999939 -80.447914
   vertex 28.035885 -769.707031 -79.993088
   vertex 27.814835 -768.999939 -80.185242
  endloop
 endfacet
 facet normal -0.199468 0.314598 -0.928031
  outer loop
   vertex 27.814835 -768.999939 -80.185242
   vertex 29.092188 -768.823181 -80.399872
   vertex 29.036926 -768.999939 -80.447914
  endloop
 endfacet
 facet normal -0.199465 0.314555 -0.928046
  outer loop
   vertex 28.035885 -768.292847 -79.993088
   vertex 29.092188 -768.823181 -80.399872
   vertex 27.814835 -768.999939 -80.185242
  endloop
 endfacet
 facet normal 0.136219 0.759351 -0.636263
  outer loop
   vertex 29.225603 -768.749939 -80.283897
   vertex 29.092188 -768.823181 -80.399872
   vertex 28.035885 -768.292847 -79.993088
  endloop
 endfacet
 facet normal 0.136247 0.759391 -0.636210
  outer loop
   vertex 28.035885 -768.292847 -79.993088
   vertex 28.569546 -767.999939 -79.529182
   vertex 29.225603 -768.749939 -80.283897
  endloop
 endfacet
 facet normal 0.611093 0.759374 -0.223420
  outer loop
   vertex 29.225603 -768.749939 -80.283897
   vertex 28.569546 -767.999939 -79.529182
   vertex 29.359018 -768.823181 -80.167923
  endloop
 endfacet
 facet normal 0.611061 0.759384 -0.223473
  outer loop
   vertex 29.359018 -768.823181 -80.167923
   vertex 28.569546 -767.999939 -79.529182
   vertex 29.103205 -768.292847 -79.065285
  endloop
 endfacet
 facet normal 0.946766 0.314584 0.068346
  outer loop
   vertex 29.103205 -768.292847 -79.065285
   vertex 29.414282 -768.999939 -80.119881
   vertex 29.359018 -768.823181 -80.167923
  endloop
 endfacet
 facet normal 0.946773 0.314558 0.068366
  outer loop
   vertex 29.324255 -768.999939 -78.873131
   vertex 29.414282 -768.999939 -80.119881
   vertex 29.103205 -768.292847 -79.065285
  endloop
 endfacet
 facet normal 0.697248 -0.382721 0.606110
  outer loop
   vertex 49.852253 -768.999939 -63.665161
   vertex 49.196194 -768.999939 -62.910454
   vertex 49.796989 -769.176697 -63.713200
  endloop
 endfacet
 facet normal 0.697248 -0.382721 0.606110
  outer loop
   vertex 49.796989 -769.176697 -63.713200
   vertex 49.196194 -768.999939 -62.910454
   vertex 49.140930 -769.176697 -62.958492
  endloop
 endfacet
 facet normal 0.288876 -0.923846 0.251117
  outer loop
   vertex 49.140930 -769.176697 -62.958492
   vertex 49.663574 -769.249939 -63.829178
   vertex 49.796989 -769.176697 -63.713200
  endloop
 endfacet
 facet normal 0.288880 -0.923844 0.251119
  outer loop
   vertex 49.007515 -769.249939 -63.074467
   vertex 49.663574 -769.249939 -63.829178
   vertex 49.140930 -769.176697 -62.958492
  endloop
 endfacet
 facet normal -0.288880 -0.923844 -0.251119
  outer loop
   vertex 49.530159 -769.176697 -63.945152
   vertex 49.663574 -769.249939 -63.829178
   vertex 49.007515 -769.249939 -63.074467
  endloop
 endfacet
 facet normal -0.288876 -0.923846 -0.251117
  outer loop
   vertex 49.007515 -769.249939 -63.074467
   vertex 48.874100 -769.176697 -63.190445
   vertex 49.530159 -769.176697 -63.945152
  endloop
 endfacet
 facet normal -0.697248 -0.382721 -0.606110
  outer loop
   vertex 49.530159 -769.176697 -63.945152
   vertex 48.874100 -769.176697 -63.190445
   vertex 49.474895 -768.999939 -63.993191
  endloop
 endfacet
 facet normal -0.697254 -0.382709 -0.606112
  outer loop
   vertex 49.474895 -768.999939 -63.993191
   vertex 48.874100 -769.176697 -63.190445
   vertex 48.818840 -768.999939 -63.238483
  endloop
 endfacet
 facet normal -0.697250 0.382721 -0.606108
  outer loop
   vertex 48.818840 -768.999939 -63.238483
   vertex 49.530159 -768.823181 -63.945152
   vertex 49.474895 -768.999939 -63.993191
  endloop
 endfacet
 facet normal -0.697252 0.382709 -0.606114
  outer loop
   vertex 48.874100 -768.823181 -63.190445
   vertex 49.530159 -768.823181 -63.945152
   vertex 48.818840 -768.999939 -63.238483
  endloop
 endfacet
 facet normal -0.288879 0.923844 -0.251120
  outer loop
   vertex 49.663574 -768.749939 -63.829178
   vertex 49.530159 -768.823181 -63.945152
   vertex 48.874100 -768.823181 -63.190445
  endloop
 endfacet
 facet normal -0.288876 0.923846 -0.251116
  outer loop
   vertex 48.874100 -768.823181 -63.190445
   vertex 49.007515 -768.749939 -63.074467
   vertex 49.663574 -768.749939 -63.829178
  endloop
 endfacet
 facet normal 0.288876 0.923846 0.251116
  outer loop
   vertex 49.663574 -768.749939 -63.829178
   vertex 49.007515 -768.749939 -63.074467
   vertex 49.796989 -768.823181 -63.713200
  endloop
 endfacet
 facet normal 0.288879 0.923844 0.251120
  outer loop
   vertex 49.796989 -768.823181 -63.713200
   vertex 49.007515 -768.749939 -63.074467
   vertex 49.140930 -768.823181 -62.958492
  endloop
 endfacet
 facet normal 0.697248 0.382721 0.606110
  outer loop
   vertex 49.140930 -768.823181 -62.958492
   vertex 49.852253 -768.999939 -63.665161
   vertex 49.796989 -768.823181 -63.713200
  endloop
 endfacet
 facet normal 0.697248 0.382721 0.606110
  outer loop
   vertex 49.196194 -768.999939 -62.910454
   vertex 49.852253 -768.999939 -63.665161
   vertex 49.140930 -768.823181 -62.958492
  endloop
 endfacet
 facet normal 0.697259 0.382690 0.606117
  outer loop
   vertex 48.891705 -768.292847 -61.863430
   vertex 48.235645 -768.292847 -61.108719
   vertex 49.112751 -768.999939 -61.671272
  endloop
 endfacet
 facet normal 0.697259 0.382690 0.606117
  outer loop
   vertex 49.112751 -768.999939 -61.671272
   vertex 48.235645 -768.292847 -61.108719
   vertex 48.456696 -768.999939 -60.916565
  endloop
 endfacet
 facet normal 0.697260 -0.382690 0.606117
  outer loop
   vertex 48.456696 -768.999939 -60.916565
   vertex 48.891705 -769.707031 -61.863430
   vertex 49.112751 -768.999939 -61.671272
  endloop
 endfacet
 facet normal 0.697259 -0.382690 0.606117
  outer loop
   vertex 48.235645 -769.707031 -61.108719
   vertex 48.891705 -769.707031 -61.863430
   vertex 48.456696 -768.999939 -60.916565
  endloop
 endfacet
 facet normal 0.288828 -0.923873 0.251074
  outer loop
   vertex 48.358044 -769.999939 -62.327332
   vertex 48.891705 -769.707031 -61.863430
   vertex 48.235645 -769.707031 -61.108719
  endloop
 endfacet
 facet normal 0.288826 -0.923873 0.251074
  outer loop
   vertex 48.235645 -769.707031 -61.108719
   vertex 47.701984 -769.999939 -61.572624
   vertex 48.358044 -769.999939 -62.327332
  endloop
 endfacet
 facet normal -0.288826 -0.923873 -0.251074
  outer loop
   vertex 48.358044 -769.999939 -62.327332
   vertex 47.701984 -769.999939 -61.572624
   vertex 47.824383 -769.707031 -62.791237
  endloop
 endfacet
 facet normal -0.288828 -0.923873 -0.251074
  outer loop
   vertex 47.824383 -769.707031 -62.791237
   vertex 47.701984 -769.999939 -61.572624
   vertex 47.168324 -769.707031 -62.036526
  endloop
 endfacet
 facet normal -0.697259 -0.382690 -0.606117
  outer loop
   vertex 47.168324 -769.707031 -62.036526
   vertex 47.603333 -768.999939 -62.983391
   vertex 47.824383 -769.707031 -62.791237
  endloop
 endfacet
 facet normal -0.697259 -0.382690 -0.606117
  outer loop
   vertex 46.947273 -768.999939 -62.228680
   vertex 47.603333 -768.999939 -62.983391
   vertex 47.168324 -769.707031 -62.036526
  endloop
 endfacet
 facet normal -0.697259 0.382690 -0.606117
  outer loop
   vertex 47.824383 -768.292847 -62.791237
   vertex 47.603333 -768.999939 -62.983391
   vertex 46.947273 -768.999939 -62.228680
  endloop
 endfacet
 facet normal -0.697259 0.382690 -0.606117
  outer loop
   vertex 46.947273 -768.999939 -62.228680
   vertex 47.168324 -768.292847 -62.036526
   vertex 47.824383 -768.292847 -62.791237
  endloop
 endfacet
 facet normal -0.288827 0.923873 -0.251073
  outer loop
   vertex 47.824383 -768.292847 -62.791237
   vertex 47.168324 -768.292847 -62.036526
   vertex 48.358044 -767.999939 -62.327332
  endloop
 endfacet
 facet normal -0.288827 0.923873 -0.251074
  outer loop
   vertex 48.358044 -767.999939 -62.327332
   vertex 47.168324 -768.292847 -62.036526
   vertex 47.701984 -767.999939 -61.572624
  endloop
 endfacet
 facet normal 0.288827 0.923873 0.251074
  outer loop
   vertex 47.701984 -767.999939 -61.572624
   vertex 48.891705 -768.292847 -61.863430
   vertex 48.358044 -767.999939 -62.327332
  endloop
 endfacet
 facet normal 0.288827 0.923873 0.251073
  outer loop
   vertex 48.235645 -768.292847 -61.108719
   vertex 48.891705 -768.292847 -61.863430
   vertex 47.701984 -767.999939 -61.572624
  endloop
 endfacet
endsolid