solid stl file generated from DOUG
 facet normal 0.804608 0.000518 0.593806
  outer loop
   vertex 73.547729 788.471863 42.522678
   vertex 73.466858 788.471985 42.632259
   vertex 73.466858 765.570984 42.652245
  endloop
 endfacet
 facet normal -0.000000 0.000873 1.000000
  outer loop
   vertex 73.466858 765.570984 42.652245
   vertex 73.466858 788.471985 42.632259
   vertex 73.364105 765.570984 42.652245
  endloop
 endfacet
 facet normal -0.804635 0.000518 0.593770
  outer loop
   vertex 74.652267 765.570862 42.542664
   vertex 74.733131 765.570984 42.652245
   vertex 74.733131 788.471985 42.632259
  endloop
 endfacet
 facet normal -0.000000 0.000873 1.000000
  outer loop
   vertex 74.733131 788.471985 42.632259
   vertex 74.733131 765.570984 42.652245
   vertex 74.835892 765.570984 42.652245
  endloop
 endfacet
 facet normal 0.000000 0.000873 1.000000
  outer loop
   vertex 74.835892 765.570984 42.652245
   vertex 74.835892 788.471985 42.632259
   vertex 74.733131 788.471985 42.632259
  endloop
 endfacet
 facet normal 0.358639 0.000815 0.933476
  outer loop
   vertex 74.835892 765.570312 41.919521
   vertex 74.835892 788.471313 41.899536
   vertex 74.804466 765.570374 41.931595
  endloop
 endfacet
 facet normal 0.358639 0.000815 0.933476
  outer loop
   vertex 74.804466 765.570374 41.931595
   vertex 74.835892 788.471313 41.899536
   vertex 74.804466 788.471375 41.911610
  endloop
 endfacet
 facet normal 1.000000 0.000000 0.000000
  outer loop
   vertex 74.804466 788.471375 41.911610
   vertex 74.804466 788.471863 42.486767
   vertex 74.804466 765.570374 41.931595
  endloop
 endfacet
 facet normal 0.804608 0.000518 0.593806
  outer loop
   vertex 73.466858 765.570984 42.652245
   vertex 73.547729 765.570862 42.542664
   vertex 73.547729 788.471863 42.522678
  endloop
 endfacet
 facet normal -0.000000 0.000873 1.000000
  outer loop
   vertex 73.547729 788.471863 42.522678
   vertex 73.547729 765.570862 42.542664
   vertex 74.652267 765.570862 42.542664
  endloop
 endfacet
 facet normal 0.000000 0.000873 1.000000
  outer loop
   vertex 74.652267 765.570862 42.542664
   vertex 74.652267 788.471863 42.522678
   vertex 73.547729 788.471863 42.522678
  endloop
 endfacet
 facet normal -0.804635 0.000518 0.593770
  outer loop
   vertex 74.733131 788.471985 42.632259
   vertex 74.652267 788.471863 42.522678
   vertex 74.652267 765.570862 42.542664
  endloop
 endfacet
 facet normal 1.000000 0.000000 0.000000
  outer loop
   vertex 74.835892 788.471985 42.632259
   vertex 74.835892 765.570984 42.652245
   vertex 74.835892 788.471863 42.498840
  endloop
 endfacet
 facet normal 1.000000 -0.000000 0.000000
  outer loop
   vertex 74.835892 788.471863 42.498840
   vertex 74.835892 765.570984 42.652245
   vertex 74.835892 765.570862 42.518826
  endloop
 endfacet
 facet normal 0.358637 -0.000815 -0.933477
  outer loop
   vertex 74.835892 765.570862 42.518826
   vertex 74.804466 788.471863 42.486767
   vertex 74.835892 788.471863 42.498840
  endloop
 endfacet
 facet normal 0.358637 -0.000815 -0.933477
  outer loop
   vertex 74.804466 765.570862 42.506752
   vertex 74.804466 788.471863 42.486767
   vertex 74.835892 765.570862 42.518826
  endloop
 endfacet
 facet normal 1.000000 0.000000 0.000000
  outer loop
   vertex 74.804466 765.570374 41.931595
   vertex 74.804466 788.471863 42.486767
   vertex 74.804466 765.570862 42.506752
  endloop
 endfacet
 facet normal 0.000000 -1.000000 0.000871
  outer loop
   vertex 73.347061 765.331848 42.671162
   vertex 74.852936 765.331116 41.830662
   vertex 74.852936 765.331848 42.671162
  endloop
 endfacet
 facet normal 1.000000 -0.000000 -0.000000
  outer loop
   vertex 74.852936 765.331848 42.671162
   vertex 74.852936 765.331116 41.830662
   vertex 74.852936 766.331848 42.670288
  endloop
 endfacet
 facet normal -0.000000 0.000874 1.000000
  outer loop
   vertex 74.852936 766.331848 42.670288
   vertex 73.347061 766.331848 42.670288
   vertex 74.852936 765.331848 42.671162
  endloop
 endfacet
 facet normal -0.000000 1.000000 -0.000871
  outer loop
   vertex 74.852936 766.331116 41.829788
   vertex 73.347061 766.331848 42.670288
   vertex 74.852936 766.331848 42.670288
  endloop
 endfacet
 facet normal 0.000000 1.000000 -0.000871
  outer loop
   vertex 73.347061 766.331116 41.829788
   vertex 73.347061 766.331848 42.670288
   vertex 74.852936 766.331116 41.829788
  endloop
 endfacet
 facet normal -0.000000 -0.000874 -1.000000
  outer loop
   vertex 74.852936 766.331116 41.829788
   vertex 74.852936 765.331116 41.830662
   vertex 73.347061 766.331116 41.829788
  endloop
 endfacet
 facet normal 0.000003 -0.000870 -1.000000
  outer loop
   vertex 73.347061 766.331116 41.829788
   vertex 74.852936 765.331116 41.830662
   vertex 73.347061 765.331116 41.830658
  endloop
 endfacet
 facet normal -0.000000 -1.000000 0.000871
  outer loop
   vertex 73.347061 765.331116 41.830658
   vertex 74.852936 765.331116 41.830662
   vertex 73.347061 765.331848 42.671162
  endloop
 endfacet
 facet normal -1.000000 -0.000000 0.000000
  outer loop
   vertex 73.347061 765.331848 42.671162
   vertex 73.347061 766.331848 42.670288
   vertex 73.347061 765.331116 41.830658
  endloop
 endfacet
 facet normal -0.000000 0.000874 1.000000
  outer loop
   vertex 74.852936 765.331848 42.671162
   vertex 73.347061 766.331848 42.670288
   vertex 73.347061 765.331848 42.671162
  endloop
 endfacet
 facet normal 0.000000 -1.000000 0.000871
  outer loop
   vertex 74.852936 787.711121 42.651630
   vertex 73.347061 787.711121 42.651630
   vertex 74.852936 787.710388 41.811131
  endloop
 endfacet
 facet normal -0.000000 -1.000000 0.000871
  outer loop
   vertex 74.852936 787.710388 41.811131
   vertex 73.347061 787.711121 42.651630
   vertex 73.347061 787.710388 41.811131
  endloop
 endfacet
 facet normal 0.000000 -0.000874 -1.000000
  outer loop
   vertex 73.347061 787.710388 41.811131
   vertex 73.347061 788.710388 41.810257
   vertex 74.852936 787.710388 41.811131
  endloop
 endfacet
 facet normal -1.000000 -0.000000 -0.000000
  outer loop
   vertex 73.347061 787.711121 42.651630
   vertex 73.347061 788.710388 41.810257
   vertex 73.347061 787.710388 41.811131
  endloop
 endfacet
 facet normal -1.000000 0.000000 0.000000
  outer loop
   vertex 73.347061 788.711121 42.650757
   vertex 73.347061 788.710388 41.810257
   vertex 73.347061 787.711121 42.651630
  endloop
 endfacet
 facet normal 0.000000 0.000874 1.000000
  outer loop
   vertex 73.347061 787.711121 42.651630
   vertex 74.852936 788.711121 42.650757
   vertex 73.347061 788.711121 42.650757
  endloop
 endfacet
 facet normal 0.000000 1.000000 -0.000871
  outer loop
   vertex 73.347061 788.711121 42.650757
   vertex 74.852936 788.711121 42.650757
   vertex 73.347061 788.710388 41.810257
  endloop
 endfacet
 facet normal -0.000000 1.000000 -0.000871
  outer loop
   vertex 73.347061 788.710388 41.810257
   vertex 74.852936 788.711121 42.650757
   vertex 74.852936 788.710388 41.810257
  endloop
 endfacet
 facet normal 0.000000 -0.000874 -1.000000
  outer loop
   vertex 74.852936 788.710388 41.810257
   vertex 74.852936 787.710388 41.811131
   vertex 73.347061 788.710388 41.810257
  endloop
 endfacet
 facet normal 1.000000 -0.000000 -0.000000
  outer loop
   vertex 74.852936 788.711121 42.650757
   vertex 74.852936 787.710388 41.811131
   vertex 74.852936 788.710388 41.810257
  endloop
 endfacet
 facet normal 1.000000 0.000000 0.000000
  outer loop
   vertex 74.852936 787.711121 42.651630
   vertex 74.852936 787.710388 41.811131
   vertex 74.852936 788.711121 42.650757
  endloop
 endfacet
 facet normal -0.000000 0.000874 1.000000
  outer loop
   vertex 74.852936 788.711121 42.650757
   vertex 73.347061 787.711121 42.651630
   vertex 74.852936 787.711121 42.651630
  endloop
 endfacet
 facet normal -0.000000 0.000873 1.000000
  outer loop
   vertex 73.466858 788.471985 42.632259
   vertex 73.364105 788.471985 42.632259
   vertex 73.364105 765.570984 42.652245
  endloop
 endfacet
 facet normal -1.000000 -0.000000 -0.000000
  outer loop
   vertex 73.364105 765.570984 42.652245
   vertex 73.364105 788.471985 42.632259
   vertex 73.364105 788.471863 42.498840
  endloop
 endfacet
 facet normal -1.000000 0.000000 0.000000
  outer loop
   vertex 73.364105 788.471863 42.498840
   vertex 73.364105 765.570862 42.518826
   vertex 73.364105 765.570984 42.652245
  endloop
 endfacet
 facet normal -0.358637 -0.000815 -0.933477
  outer loop
   vertex 73.395531 788.471863 42.486767
   vertex 73.364105 765.570862 42.518826
   vertex 73.364105 788.471863 42.498840
  endloop
 endfacet
 facet normal -0.358637 -0.000815 -0.933477
  outer loop
   vertex 73.395531 765.570862 42.506752
   vertex 73.364105 765.570862 42.518826
   vertex 73.395531 788.471863 42.486767
  endloop
 endfacet
 facet normal -1.000000 -0.000000 0.000000
  outer loop
   vertex 73.395531 788.471863 42.486767
   vertex 73.395531 788.471375 41.911610
   vertex 73.395531 765.570862 42.506752
  endloop
 endfacet
 facet normal -1.000000 0.000000 0.000000
  outer loop
   vertex 73.395531 765.570862 42.506752
   vertex 73.395531 788.471375 41.911610
   vertex 73.395531 765.570374 41.931595
  endloop
 endfacet
 facet normal -0.358737 0.000815 0.933438
  outer loop
   vertex 73.395531 765.570374 41.931595
   vertex 73.395531 788.471375 41.911610
   vertex 73.364105 788.471313 41.899532
  endloop
 endfacet
 facet normal -0.358737 0.000815 0.933438
  outer loop
   vertex 73.364105 788.471313 41.899532
   vertex 73.364105 765.570312 41.919518
   vertex 73.395531 765.570374 41.931595
  endloop
 endfacet
 facet normal -1.000000 -0.000000 -0.000000
  outer loop
   vertex 73.364105 788.471252 41.833332
   vertex 73.364105 765.570312 41.919518
   vertex 73.364105 788.471313 41.899532
  endloop
 endfacet
 facet normal -1.000000 0.000000 0.000000
  outer loop
   vertex 73.364105 765.570312 41.853317
   vertex 73.364105 765.570312 41.919518
   vertex 73.364105 788.471252 41.833332
  endloop
 endfacet
 facet normal 0.000003 -0.000873 -1.000000
  outer loop
   vertex 73.364105 788.471252 41.833332
   vertex 74.835892 788.471252 41.833336
   vertex 73.364105 765.570312 41.853317
  endloop
 endfacet
 facet normal 0.000003 -0.000873 -1.000000
  outer loop
   vertex 73.364105 765.570312 41.853317
   vertex 74.835892 788.471252 41.833336
   vertex 74.835892 765.570312 41.853321
  endloop
 endfacet
 facet normal 1.000000 -0.000000 -0.000000
  outer loop
   vertex 74.835892 765.570312 41.853321
   vertex 74.835892 788.471252 41.833336
   vertex 74.835892 765.570312 41.919521
  endloop
 endfacet
 facet normal 1.000000 0.000000 0.000000
  outer loop
   vertex 74.852936 766.331116 41.829788
   vertex 74.852936 766.331848 42.670288
   vertex 74.852936 765.331116 41.830662
  endloop
 endfacet
 facet normal -1.000000 0.000000 0.000000
  outer loop
   vertex 73.347061 766.331848 42.670288
   vertex 73.347061 766.331116 41.829788
   vertex 73.347061 765.331116 41.830658
  endloop
 endfacet
 facet normal 1.000000 0.000000 0.000000
  outer loop
   vertex 74.835892 788.471252 41.833336
   vertex 74.835892 788.471313 41.899536
   vertex 74.835892 765.570312 41.919521
  endloop
 endfacet
 facet normal -0.314625 0.759863 0.568875
  outer loop
   vertex 74.099998 788.379944 40.870007
   vertex 74.099998 789.129089 39.869350
   vertex 73.923225 788.306702 40.870071
  endloop
 endfacet
 facet normal -0.314560 0.759875 0.568896
  outer loop
   vertex 73.923225 788.306702 40.870071
   vertex 74.099998 789.129089 39.869350
   vertex 73.392891 788.836182 39.869606
  endloop
 endfacet
 facet normal -0.759368 0.315081 0.569283
  outer loop
   vertex 73.392891 788.836182 39.869606
   vertex 73.849998 788.129944 40.870224
   vertex 73.923225 788.306702 40.870071
  endloop
 endfacet
 facet normal -0.759389 0.315052 0.569272
  outer loop
   vertex 73.099998 788.129089 39.870224
   vertex 73.849998 788.129944 40.870224
   vertex 73.392891 788.836182 39.869606
  endloop
 endfacet
 facet normal -0.759385 -0.314093 0.569807
  outer loop
   vertex 73.923225 787.953186 40.870380
   vertex 73.849998 788.129944 40.870224
   vertex 73.099998 788.129089 39.870224
  endloop
 endfacet
 facet normal -0.759396 -0.314032 0.569826
  outer loop
   vertex 73.099998 788.129089 39.870224
   vertex 73.392891 787.421936 39.870842
   vertex 73.923225 787.953186 40.870380
  endloop
 endfacet
 facet normal -0.314607 -0.758843 0.570246
  outer loop
   vertex 73.923225 787.953186 40.870380
   vertex 73.392891 787.421936 39.870842
   vertex 74.099998 787.879944 40.870441
  endloop
 endfacet
 facet normal -0.314508 -0.758913 0.570207
  outer loop
   vertex 74.099998 787.879944 40.870441
   vertex 73.392891 787.421936 39.870842
   vertex 74.099998 787.129089 39.871098
  endloop
 endfacet
 facet normal 0.314611 -0.758885 0.570187
  outer loop
   vertex 74.099998 787.129089 39.871098
   vertex 74.276779 787.953186 40.870380
   vertex 74.099998 787.879944 40.870441
  endloop
 endfacet
 facet normal 0.314504 -0.758904 0.570221
  outer loop
   vertex 74.807106 787.421936 39.870842
   vertex 74.276779 787.953186 40.870380
   vertex 74.099998 787.129089 39.871098
  endloop
 endfacet
 facet normal 0.759383 -0.314059 0.569828
  outer loop
   vertex 74.349998 788.129944 40.870224
   vertex 74.276779 787.953186 40.870380
   vertex 74.807106 787.421936 39.870842
  endloop
 endfacet
 facet normal 0.759400 -0.314034 0.569819
  outer loop
   vertex 74.807106 787.421936 39.870842
   vertex 75.099998 788.129089 39.870224
   vertex 74.349998 788.129944 40.870224
  endloop
 endfacet
 facet normal 0.759388 0.315056 0.569271
  outer loop
   vertex 74.349998 788.129944 40.870224
   vertex 75.099998 788.129089 39.870224
   vertex 74.276779 788.306702 40.870071
  endloop
 endfacet
 facet normal 0.759388 0.315052 0.569273
  outer loop
   vertex 74.276779 788.306702 40.870071
   vertex 75.099998 788.129089 39.870224
   vertex 74.807106 788.836182 39.869606
  endloop
 endfacet
 facet normal 0.314605 0.759850 0.568904
  outer loop
   vertex 74.807106 788.836182 39.869606
   vertex 74.099998 788.379944 40.870007
   vertex 74.276779 788.306702 40.870071
  endloop
 endfacet
 facet normal 0.314562 0.759880 0.568887
  outer loop
   vertex 74.099998 789.129089 39.869350
   vertex 74.099998 788.379944 40.870007
   vertex 74.807106 788.836182 39.869606
  endloop
 endfacet
 facet normal -0.382774 0.923841 -0.000846
  outer loop
   vertex 74.099998 766.160828 41.879360
   vertex 74.099998 766.159912 40.879360
   vertex 73.923225 766.087585 41.879421
  endloop
 endfacet
 facet normal -0.382502 0.923954 -0.000790
  outer loop
   vertex 73.923225 766.087585 41.879421
   vertex 74.099998 766.159912 40.879360
   vertex 73.923225 766.086731 40.879425
  endloop
 endfacet
 facet normal -0.923858 0.382734 -0.000327
  outer loop
   vertex 73.923225 766.086731 40.879425
   vertex 73.849998 765.910828 41.879578
   vertex 73.923225 766.087585 41.879421
  endloop
 endfacet
 facet normal -0.923905 0.382621 -0.000350
  outer loop
   vertex 73.849998 765.909912 40.879578
   vertex 73.849998 765.910828 41.879578
   vertex 73.923225 766.086731 40.879425
  endloop
 endfacet
 facet normal -0.923905 -0.382621 0.000350
  outer loop
   vertex 73.923225 765.734009 41.879730
   vertex 73.849998 765.910828 41.879578
   vertex 73.849998 765.909912 40.879578
  endloop
 endfacet
 facet normal -0.923858 -0.382734 0.000327
  outer loop
   vertex 73.849998 765.909912 40.879578
   vertex 73.923225 765.733154 40.879730
   vertex 73.923225 765.734009 41.879730
  endloop
 endfacet
 facet normal -0.382502 -0.923954 0.000790
  outer loop
   vertex 73.923225 765.734009 41.879730
   vertex 73.923225 765.733154 40.879730
   vertex 74.099998 765.660828 41.879795
  endloop
 endfacet
 facet normal -0.382774 -0.923841 0.000846
  outer loop
   vertex 74.099998 765.660828 41.879795
   vertex 73.923225 765.733154 40.879730
   vertex 74.099998 765.659912 40.879795
  endloop
 endfacet
 facet normal 0.382502 -0.923954 0.000846
  outer loop
   vertex 74.099998 765.659912 40.879795
   vertex 74.276772 765.734009 41.879730
   vertex 74.099998 765.660828 41.879795
  endloop
 endfacet
 facet normal 0.382760 -0.923847 0.000792
  outer loop
   vertex 74.276779 765.733154 40.879730
   vertex 74.276772 765.734009 41.879730
   vertex 74.099998 765.659912 40.879795
  endloop
 endfacet
 facet normal 0.923905 -0.382621 0.000334
  outer loop
   vertex 74.349998 765.910828 41.879578
   vertex 74.276772 765.734009 41.879730
   vertex 74.276779 765.733154 40.879730
  endloop
 endfacet
 facet normal 0.923873 -0.382700 0.000350
  outer loop
   vertex 74.276779 765.733154 40.879730
   vertex 74.349998 765.909912 40.879578
   vertex 74.349998 765.910828 41.879578
  endloop
 endfacet
 facet normal 0.923873 0.382700 -0.000350
  outer loop
   vertex 74.349998 765.910828 41.879578
   vertex 74.349998 765.909912 40.879578
   vertex 74.276779 766.087585 41.879421
  endloop
 endfacet
 facet normal 0.923919 0.382587 -0.000327
  outer loop
   vertex 74.276779 766.087585 41.879421
   vertex 74.349998 765.909912 40.879578
   vertex 74.276779 766.086731 40.879425
  endloop
 endfacet
 facet normal 0.382760 0.923847 -0.000789
  outer loop
   vertex 74.276779 766.086731 40.879425
   vertex 74.099998 766.160828 41.879360
   vertex 74.276779 766.087585 41.879421
  endloop
 endfacet
 facet normal 0.382488 0.923960 -0.000846
  outer loop
   vertex 74.099998 766.159912 40.879360
   vertex 74.099998 766.160828 41.879360
   vertex 74.276779 766.086731 40.879425
  endloop
 endfacet
 facet normal -0.382699 0.923873 -0.000789
  outer loop
   vertex 74.099998 766.909058 39.888744
   vertex 74.099998 766.908203 38.888744
   vertex 73.392891 766.616150 39.889000
  endloop
 endfacet
 facet normal -0.382699 0.923873 -0.000789
  outer loop
   vertex 73.392891 766.616150 39.889000
   vertex 74.099998 766.908203 38.888744
   vertex 73.392891 766.615295 38.889000
  endloop
 endfacet
 facet normal -0.923877 0.382689 -0.000327
  outer loop
   vertex 73.392891 766.615295 38.889000
   vertex 73.099998 765.909058 39.889614
   vertex 73.392891 766.616150 39.889000
  endloop
 endfacet
 facet normal -0.923877 0.382689 -0.000327
  outer loop
   vertex 73.099998 765.908203 38.889614
   vertex 73.099998 765.909058 39.889614
   vertex 73.392891 766.615295 38.889000
  endloop
 endfacet
 facet normal -0.923877 -0.382689 0.000327
  outer loop
   vertex 73.392891 765.201965 39.890232
   vertex 73.099998 765.909058 39.889614
   vertex 73.099998 765.908203 38.889614
  endloop
 endfacet
 facet normal -0.923877 -0.382689 0.000327
  outer loop
   vertex 73.099998 765.908203 38.889614
   vertex 73.392891 765.201111 38.890232
   vertex 73.392891 765.201965 39.890232
  endloop
 endfacet
 facet normal -0.382699 -0.923873 0.000789
  outer loop
   vertex 73.392891 765.201965 39.890232
   vertex 73.392891 765.201111 38.890232
   vertex 74.099998 764.909058 39.890488
  endloop
 endfacet
 facet normal -0.382699 -0.923873 0.000789
  outer loop
   vertex 74.099998 764.909058 39.890488
   vertex 73.392891 765.201111 38.890232
   vertex 74.099998 764.908203 38.890488
  endloop
 endfacet
 facet normal 0.382699 -0.923873 0.000789
  outer loop
   vertex 74.099998 764.908203 38.890488
   vertex 74.807106 765.201965 39.890232
   vertex 74.099998 764.909058 39.890488
  endloop
 endfacet
 facet normal 0.382699 -0.923873 0.000789
  outer loop
   vertex 74.807106 765.201111 38.890232
   vertex 74.807106 765.201965 39.890232
   vertex 74.099998 764.908203 38.890488
  endloop
 endfacet
 facet normal 0.923877 -0.382689 0.000327
  outer loop
   vertex 75.099998 765.909058 39.889618
   vertex 74.807106 765.201965 39.890232
   vertex 74.807106 765.201111 38.890232
  endloop
 endfacet
 facet normal 0.923877 -0.382689 0.000327
  outer loop
   vertex 74.807106 765.201111 38.890232
   vertex 75.099998 765.908203 38.889618
   vertex 75.099998 765.909058 39.889618
  endloop
 endfacet
 facet normal 0.923877 0.382689 -0.000327
  outer loop
   vertex 75.099998 765.909058 39.889618
   vertex 75.099998 765.908203 38.889618
   vertex 74.807106 766.616150 39.889000
  endloop
 endfacet
 facet normal 0.923877 0.382689 -0.000327
  outer loop
   vertex 74.807106 766.616150 39.889000
   vertex 75.099998 765.908203 38.889618
   vertex 74.807106 766.615295 38.889000
  endloop
 endfacet
 facet normal 0.382699 0.923873 -0.000789
  outer loop
   vertex 74.807106 766.615295 38.889000
   vertex 74.099998 766.909058 39.888744
   vertex 74.807106 766.616150 39.889000
  endloop
 endfacet
 facet normal 0.382699 0.923873 -0.000789
  outer loop
   vertex 74.099998 766.908203 38.888744
   vertex 74.099998 766.909058 39.888744
   vertex 74.807106 766.615295 38.889000
  endloop
 endfacet
 facet normal -0.314633 0.759883 0.568845
  outer loop
   vertex 74.099998 766.159973 40.889397
   vertex 74.099998 766.909058 39.888744
   vertex 73.923225 766.086731 40.889462
  endloop
 endfacet
 facet normal -0.314568 0.759894 0.568866
  outer loop
   vertex 73.923225 766.086731 40.889462
   vertex 74.099998 766.909058 39.888744
   vertex 73.392891 766.616150 39.889000
  endloop
 endfacet
 facet normal -0.759376 0.315084 0.569272
  outer loop
   vertex 73.392891 766.616150 39.889000
   vertex 73.849998 765.909973 40.889614
   vertex 73.923225 766.086731 40.889462
  endloop
 endfacet
 facet normal -0.759398 0.315053 0.569260
  outer loop
   vertex 73.099998 765.909058 39.889614
   vertex 73.849998 765.909973 40.889614
   vertex 73.392891 766.616150 39.889000
  endloop
 endfacet
 facet normal -0.759403 -0.313991 0.569839
  outer loop
   vertex 73.923225 765.733154 40.889771
   vertex 73.849998 765.909973 40.889614
   vertex 73.099998 765.909058 39.889614
  endloop
 endfacet
 facet normal -0.759391 -0.314058 0.569818
  outer loop
   vertex 73.099998 765.909058 39.889614
   vertex 73.392891 765.201965 39.890232
   vertex 73.923225 765.733154 40.889771
  endloop
 endfacet
 facet normal -0.314414 -0.758980 0.570170
  outer loop
   vertex 73.923225 765.733154 40.889771
   vertex 73.392891 765.201965 39.890232
   vertex 74.099998 765.659973 40.889835
  endloop
 endfacet
 facet normal -0.314559 -0.758878 0.570225
  outer loop
   vertex 74.099998 765.659973 40.889835
   vertex 73.392891 765.201965 39.890232
   vertex 74.099998 764.909058 39.890488
  endloop
 endfacet
 facet normal 0.314378 -0.758926 0.570261
  outer loop
   vertex 74.099998 764.909058 39.890488
   vertex 74.276779 765.733154 40.889771
   vertex 74.099998 765.659973 40.889835
  endloop
 endfacet
 facet normal 0.314565 -0.758893 0.570201
  outer loop
   vertex 74.807106 765.201965 39.890232
   vertex 74.276779 765.733154 40.889771
   vertex 74.099998 764.909058 39.890488
  endloop
 endfacet
 facet normal 0.759442 -0.313975 0.569796
  outer loop
   vertex 74.349998 765.909973 40.889614
   vertex 74.276779 765.733154 40.889771
   vertex 74.807106 765.201965 39.890232
  endloop
 endfacet
 facet normal 0.759384 -0.314058 0.569828
  outer loop
   vertex 74.807106 765.201965 39.890232
   vertex 75.099998 765.909058 39.889618
   vertex 74.349998 765.909973 40.889614
  endloop
 endfacet
 facet normal 0.759395 0.315059 0.569260
  outer loop
   vertex 74.349998 765.909973 40.889614
   vertex 75.099998 765.909058 39.889618
   vertex 74.276779 766.086731 40.889462
  endloop
 endfacet
 facet normal 0.759396 0.315055 0.569261
  outer loop
   vertex 74.276779 766.086731 40.889462
   vertex 75.099998 765.909058 39.889618
   vertex 74.807106 766.616150 39.889000
  endloop
 endfacet
 facet normal 0.314613 0.759869 0.568874
  outer loop
   vertex 74.807106 766.616150 39.889000
   vertex 74.099998 766.159973 40.889397
   vertex 74.276779 766.086731 40.889462
  endloop
 endfacet
 facet normal 0.314570 0.759899 0.568858
  outer loop
   vertex 74.099998 766.909058 39.888744
   vertex 74.099998 766.159973 40.889397
   vertex 74.807106 766.616150 39.889000
  endloop
 endfacet
 facet normal -0.382774 0.923841 -0.000789
  outer loop
   vertex 74.099998 788.380798 41.859966
   vertex 74.099998 788.379944 40.859970
   vertex 73.923225 788.307556 41.860031
  endloop
 endfacet
 facet normal -0.382774 0.923841 -0.000789
  outer loop
   vertex 73.923225 788.307556 41.860031
   vertex 74.099998 788.379944 40.859970
   vertex 73.923225 788.306702 40.860031
  endloop
 endfacet
 facet normal -0.923858 0.382734 -0.000327
  outer loop
   vertex 73.923225 788.306702 40.860031
   vertex 73.849998 788.130798 41.860188
   vertex 73.923225 788.307556 41.860031
  endloop
 endfacet
 facet normal -0.923858 0.382734 -0.000327
  outer loop
   vertex 73.849998 788.129944 40.860188
   vertex 73.849998 788.130798 41.860188
   vertex 73.923225 788.306702 40.860031
  endloop
 endfacet
 facet normal -0.923858 -0.382734 0.000327
  outer loop
   vertex 73.923225 787.954041 41.860340
   vertex 73.849998 788.130798 41.860188
   vertex 73.849998 788.129944 40.860188
  endloop
 endfacet
 facet normal -0.923905 -0.382621 0.000350
  outer loop
   vertex 73.849998 788.129944 40.860188
   vertex 73.923225 787.953125 40.860340
   vertex 73.923225 787.954041 41.860340
  endloop
 endfacet
 facet normal -0.382774 -0.923841 0.000846
  outer loop
   vertex 73.923225 787.954041 41.860340
   vertex 73.923225 787.953125 40.860340
   vertex 74.099998 787.880798 41.860405
  endloop
 endfacet
 facet normal -0.382502 -0.923954 0.000790
  outer loop
   vertex 74.099998 787.880798 41.860405
   vertex 73.923225 787.953125 40.860340
   vertex 74.099998 787.879944 40.860405
  endloop
 endfacet
 facet normal 0.382774 -0.923841 0.000789
  outer loop
   vertex 74.099998 787.879944 40.860405
   vertex 74.276772 787.954041 41.860340
   vertex 74.099998 787.880798 41.860405
  endloop
 endfacet
 facet normal 0.382488 -0.923960 0.000849
  outer loop
   vertex 74.276779 787.953125 40.860340
   vertex 74.276772 787.954041 41.860340
   vertex 74.099998 787.879944 40.860405
  endloop
 endfacet
 facet normal 0.923858 -0.382734 0.000357
  outer loop
   vertex 74.349998 788.130798 41.860188
   vertex 74.276772 787.954041 41.860340
   vertex 74.276779 787.953125 40.860340
  endloop
 endfacet
 facet normal 0.923919 -0.382587 0.000327
  outer loop
   vertex 74.276779 787.953125 40.860340
   vertex 74.349998 788.129944 40.860188
   vertex 74.349998 788.130798 41.860188
  endloop
 endfacet
 facet normal 0.923873 0.382700 -0.000327
  outer loop
   vertex 74.349998 788.130798 41.860188
   vertex 74.349998 788.129944 40.860188
   vertex 74.276779 788.307556 41.860031
  endloop
 endfacet
 facet normal 0.923873 0.382700 -0.000327
  outer loop
   vertex 74.276779 788.307556 41.860031
   vertex 74.349998 788.129944 40.860188
   vertex 74.276779 788.306702 40.860031
  endloop
 endfacet
 facet normal 0.382760 0.923847 -0.000789
  outer loop
   vertex 74.276779 788.306702 40.860031
   vertex 74.099998 788.380798 41.859966
   vertex 74.276779 788.307556 41.860031
  endloop
 endfacet
 facet normal 0.382760 0.923847 -0.000789
  outer loop
   vertex 74.099998 788.379944 40.859970
   vertex 74.099998 788.380798 41.859966
   vertex 74.276779 788.306702 40.860031
  endloop
 endfacet
 facet normal 0.382699 0.923873 -0.000846
  outer loop
   vertex 74.807106 788.836182 39.869606
   vertex 74.807106 788.835266 38.869610
   vertex 74.099998 789.129089 39.869350
  endloop
 endfacet
 facet normal 0.382699 0.923873 -0.000846
  outer loop
   vertex 74.099998 789.129089 39.869350
   vertex 74.807106 788.835266 38.869610
   vertex 74.099998 789.128174 38.869350
  endloop
 endfacet
 facet normal -0.382699 0.923873 -0.000846
  outer loop
   vertex 74.099998 789.128174 38.869350
   vertex 73.392891 788.836182 39.869606
   vertex 74.099998 789.129089 39.869350
  endloop
 endfacet
 facet normal -0.382699 0.923873 -0.000846
  outer loop
   vertex 73.392891 788.835266 38.869606
   vertex 73.392891 788.836182 39.869606
   vertex 74.099998 789.128174 38.869350
  endloop
 endfacet
 facet normal -0.923877 0.382689 -0.000350
  outer loop
   vertex 73.099998 788.129089 39.870224
   vertex 73.392891 788.836182 39.869606
   vertex 73.392891 788.835266 38.869606
  endloop
 endfacet
 facet normal -0.923877 0.382689 -0.000350
  outer loop
   vertex 73.392891 788.835266 38.869606
   vertex 73.099998 788.128174 38.870224
   vertex 73.099998 788.129089 39.870224
  endloop
 endfacet
 facet normal -0.923889 -0.382661 0.000350
  outer loop
   vertex 73.099998 788.129089 39.870224
   vertex 73.099998 788.128174 38.870224
   vertex 73.392891 787.421936 39.870842
  endloop
 endfacet
 facet normal -0.923877 -0.382689 0.000327
  outer loop
   vertex 73.392891 787.421936 39.870842
   vertex 73.099998 788.128174 38.870224
   vertex 73.392891 787.421082 38.870842
  endloop
 endfacet
 facet normal -0.382631 -0.923901 0.000789
  outer loop
   vertex 73.392891 787.421082 38.870842
   vertex 74.099998 787.129089 39.871098
   vertex 73.392891 787.421936 39.870842
  endloop
 endfacet
 facet normal -0.382699 -0.923873 0.000846
  outer loop
   vertex 74.099998 787.128174 38.871098
   vertex 74.099998 787.129089 39.871098
   vertex 73.392891 787.421082 38.870842
  endloop
 endfacet
 facet normal 0.382631 -0.923901 0.000846
  outer loop
   vertex 74.807106 787.421936 39.870842
   vertex 74.099998 787.129089 39.871098
   vertex 74.099998 787.128174 38.871098
  endloop
 endfacet
 facet normal 0.382699 -0.923873 0.000789
  outer loop
   vertex 74.099998 787.128174 38.871098
   vertex 74.807106 787.421082 38.870842
   vertex 74.807106 787.421936 39.870842
  endloop
 endfacet
 facet normal 0.923889 -0.382661 0.000327
  outer loop
   vertex 74.807106 787.421936 39.870842
   vertex 74.807106 787.421082 38.870842
   vertex 75.099998 788.129089 39.870224
  endloop
 endfacet
 facet normal 0.923877 -0.382689 0.000350
  outer loop
   vertex 75.099998 788.129089 39.870224
   vertex 74.807106 787.421082 38.870842
   vertex 75.099998 788.128174 38.870224
  endloop
 endfacet
 facet normal 0.923877 0.382689 -0.000350
  outer loop
   vertex 75.099998 788.128174 38.870224
   vertex 74.807106 788.836182 39.869606
   vertex 75.099998 788.129089 39.870224
  endloop
 endfacet
 facet normal 0.923877 0.382689 -0.000350
  outer loop
   vertex 74.807106 788.835266 38.869610
   vertex 74.807106 788.836182 39.869606
   vertex 75.099998 788.128174 38.870224
  endloop
 endfacet
endsolid