solid stl file generated from DOUG
 facet normal 0.340089 0.593657 0.729322
  outer loop
   vertex -44.544159 -996.697266 21.048532
   vertex -44.578335 -996.587646 20.975241
   vertex -52.961262 -996.587646 24.884272
  endloop
 endfacet
 facet normal -0.000000 1.000000 -0.000000
  outer loop
   vertex -52.961262 -996.587646 24.884272
   vertex -44.578335 -996.587646 20.975241
   vertex -53.004688 -996.587646 24.791143
  endloop
 endfacet
 facet normal -0.340089 0.593657 -0.729322
  outer loop
   vertex -52.460289 -996.697266 25.958612
   vertex -52.426113 -996.587646 26.031904
   vertex -44.043186 -996.587646 22.122873
  endloop
 endfacet
 facet normal -0.000000 1.000000 -0.000000
  outer loop
   vertex -44.043186 -996.587646 22.122873
   vertex -52.426113 -996.587646 26.031904
   vertex -52.382687 -996.587646 26.125032
  endloop
 endfacet
 facet normal 0.000000 1.000000 0.000000
  outer loop
   vertex -52.382687 -996.587646 26.125032
   vertex -43.999760 -996.587646 22.216002
   vertex -44.043186 -996.587646 22.122873
  endloop
 endfacet
 facet normal 0.151705 0.933351 0.325333
  outer loop
   vertex -52.382687 -997.320374 26.125032
   vertex -43.999760 -997.320374 22.216002
   vertex -52.395966 -997.308289 26.096554
  endloop
 endfacet
 facet normal 0.151705 0.933351 0.325333
  outer loop
   vertex -52.395966 -997.308289 26.096554
   vertex -43.999760 -997.320374 22.216002
   vertex -44.013039 -997.308289 22.187523
  endloop
 endfacet
 facet normal 0.422619 0.000000 0.906307
  outer loop
   vertex -44.013039 -997.308289 22.187523
   vertex -44.013039 -996.733154 22.187523
   vertex -52.395966 -997.308289 26.096554
  endloop
 endfacet
 facet normal 0.340089 0.593657 0.729322
  outer loop
   vertex -52.961262 -996.587646 24.884272
   vertex -52.927086 -996.697266 24.957563
   vertex -44.544159 -996.697266 21.048532
  endloop
 endfacet
 facet normal -0.000000 1.000000 -0.000000
  outer loop
   vertex -44.544159 -996.697266 21.048532
   vertex -52.927086 -996.697266 24.957563
   vertex -52.460289 -996.697266 25.958612
  endloop
 endfacet
 facet normal 0.000000 1.000000 0.000000
  outer loop
   vertex -52.460289 -996.697266 25.958612
   vertex -44.077362 -996.697266 22.049582
   vertex -44.544159 -996.697266 21.048532
  endloop
 endfacet
 facet normal -0.340089 0.593657 -0.729322
  outer loop
   vertex -44.043186 -996.587646 22.122873
   vertex -44.077362 -996.697266 22.049582
   vertex -52.460289 -996.697266 25.958612
  endloop
 endfacet
 facet normal 0.422619 0.000000 0.906307
  outer loop
   vertex -43.999760 -996.587646 22.216002
   vertex -52.382687 -996.587646 26.125032
   vertex -43.999760 -996.721069 22.216002
  endloop
 endfacet
 facet normal 0.422619 0.000000 0.906307
  outer loop
   vertex -43.999760 -996.721069 22.216002
   vertex -52.382687 -996.587646 26.125032
   vertex -52.382687 -996.721069 26.125032
  endloop
 endfacet
 facet normal 0.151705 -0.933351 0.325333
  outer loop
   vertex -52.382687 -996.721069 26.125032
   vertex -44.013039 -996.733154 22.187523
   vertex -43.999760 -996.721069 22.216002
  endloop
 endfacet
 facet normal 0.151705 -0.933351 0.325333
  outer loop
   vertex -52.395966 -996.733154 26.096554
   vertex -44.013039 -996.733154 22.187523
   vertex -52.382687 -996.721069 26.125032
  endloop
 endfacet
 facet normal 0.422619 0.000000 0.906307
  outer loop
   vertex -52.395966 -997.308289 26.096554
   vertex -44.013039 -996.733154 22.187523
   vertex -52.395966 -996.733154 26.096554
  endloop
 endfacet
 facet normal -0.906308 0.000000 0.422618
  outer loop
   vertex -53.499790 -996.568970 25.003210
   vertex -52.863384 -997.409485 26.367989
   vertex -52.863384 -996.568970 26.367989
  endloop
 endfacet
 facet normal 0.422619 -0.000000 0.906307
  outer loop
   vertex -52.863384 -996.568970 26.367989
   vertex -52.863384 -997.409485 26.367989
   vertex -51.957077 -996.568970 25.945370
  endloop
 endfacet
 facet normal 0.000000 1.000000 -0.000000
  outer loop
   vertex -51.957077 -996.568970 25.945370
   vertex -52.593483 -996.568970 24.580591
   vertex -52.863384 -996.568970 26.367989
  endloop
 endfacet
 facet normal 0.906308 -0.000000 -0.422618
  outer loop
   vertex -51.957077 -997.409485 25.945370
   vertex -52.593483 -996.568970 24.580591
   vertex -51.957077 -996.568970 25.945370
  endloop
 endfacet
 facet normal 0.906308 0.000000 -0.422618
  outer loop
   vertex -52.593483 -997.409485 24.580591
   vertex -52.593483 -996.568970 24.580591
   vertex -51.957077 -997.409485 25.945370
  endloop
 endfacet
 facet normal -0.000000 -1.000000 -0.000000
  outer loop
   vertex -51.957077 -997.409485 25.945370
   vertex -52.863384 -997.409485 26.367989
   vertex -52.593483 -997.409485 24.580591
  endloop
 endfacet
 facet normal 0.000000 -1.000000 -0.000000
  outer loop
   vertex -52.593483 -997.409485 24.580591
   vertex -52.863384 -997.409485 26.367989
   vertex -53.499790 -997.409485 25.003210
  endloop
 endfacet
 facet normal -0.906308 -0.000000 0.422618
  outer loop
   vertex -53.499790 -997.409485 25.003210
   vertex -52.863384 -997.409485 26.367989
   vertex -53.499790 -996.568970 25.003210
  endloop
 endfacet
 facet normal -0.422619 0.000000 -0.906307
  outer loop
   vertex -53.499790 -996.568970 25.003210
   vertex -52.593483 -996.568970 24.580591
   vertex -53.499790 -997.409485 25.003210
  endloop
 endfacet
 facet normal -0.000000 1.000000 -0.000000
  outer loop
   vertex -52.863384 -996.568970 26.367989
   vertex -52.593483 -996.568970 24.580591
   vertex -53.499790 -996.568970 25.003210
  endloop
 endfacet
 facet normal -0.906308 0.000000 0.422618
  outer loop
   vertex -44.410965 -996.568970 22.426554
   vertex -45.047371 -996.568970 21.061775
   vertex -44.410965 -997.409485 22.426554
  endloop
 endfacet
 facet normal -0.906308 -0.000000 0.422618
  outer loop
   vertex -44.410965 -997.409485 22.426554
   vertex -45.047371 -996.568970 21.061775
   vertex -45.047371 -997.409485 21.061775
  endloop
 endfacet
 facet normal 0.000000 -1.000000 0.000000
  outer loop
   vertex -45.047371 -997.409485 21.061775
   vertex -44.141064 -997.409485 20.639156
   vertex -44.410965 -997.409485 22.426554
  endloop
 endfacet
 facet normal -0.422619 -0.000000 -0.906307
  outer loop
   vertex -45.047371 -996.568970 21.061775
   vertex -44.141064 -997.409485 20.639156
   vertex -45.047371 -997.409485 21.061775
  endloop
 endfacet
 facet normal -0.422619 0.000000 -0.906307
  outer loop
   vertex -44.141064 -996.568970 20.639156
   vertex -44.141064 -997.409485 20.639156
   vertex -45.047371 -996.568970 21.061775
  endloop
 endfacet
 facet normal -0.000000 1.000000 -0.000000
  outer loop
   vertex -45.047371 -996.568970 21.061775
   vertex -43.504658 -996.568970 22.003935
   vertex -44.141064 -996.568970 20.639156
  endloop
 endfacet
 facet normal 0.906308 0.000000 -0.422618
  outer loop
   vertex -44.141064 -996.568970 20.639156
   vertex -43.504658 -996.568970 22.003935
   vertex -44.141064 -997.409485 20.639156
  endloop
 endfacet
 facet normal 0.906308 -0.000000 -0.422618
  outer loop
   vertex -44.141064 -997.409485 20.639156
   vertex -43.504658 -996.568970 22.003935
   vertex -43.504658 -997.409485 22.003935
  endloop
 endfacet
 facet normal 0.000000 -1.000000 0.000000
  outer loop
   vertex -43.504658 -997.409485 22.003935
   vertex -44.410965 -997.409485 22.426554
   vertex -44.141064 -997.409485 20.639156
  endloop
 endfacet
 facet normal 0.422619 -0.000000 0.906307
  outer loop
   vertex -43.504658 -996.568970 22.003935
   vertex -44.410965 -997.409485 22.426554
   vertex -43.504658 -997.409485 22.003935
  endloop
 endfacet
 facet normal 0.422619 -0.000000 0.906307
  outer loop
   vertex -44.410965 -996.568970 22.426554
   vertex -44.410965 -997.409485 22.426554
   vertex -43.504658 -996.568970 22.003935
  endloop
 endfacet
 facet normal -0.000000 1.000000 -0.000000
  outer loop
   vertex -43.504658 -996.568970 22.003935
   vertex -45.047371 -996.568970 21.061775
   vertex -44.410965 -996.568970 22.426554
  endloop
 endfacet
 facet normal 0.000000 1.000000 -0.000000
  outer loop
   vertex -44.578335 -996.587646 20.975241
   vertex -44.621761 -996.587646 20.882113
   vertex -53.004688 -996.587646 24.791143
  endloop
 endfacet
 facet normal -0.422619 -0.000000 -0.906307
  outer loop
   vertex -53.004688 -996.587646 24.791143
   vertex -44.621761 -996.587646 20.882113
   vertex -44.621761 -996.721069 20.882113
  endloop
 endfacet
 facet normal -0.422619 0.000000 -0.906307
  outer loop
   vertex -44.621761 -996.721069 20.882113
   vertex -53.004688 -996.721069 24.791143
   vertex -53.004688 -996.587646 24.791143
  endloop
 endfacet
 facet normal -0.151705 -0.933351 -0.325333
  outer loop
   vertex -44.608482 -996.733154 20.910591
   vertex -53.004688 -996.721069 24.791143
   vertex -44.621761 -996.721069 20.882113
  endloop
 endfacet
 facet normal -0.151705 -0.933351 -0.325333
  outer loop
   vertex -52.991409 -996.733154 24.819622
   vertex -53.004688 -996.721069 24.791143
   vertex -44.608482 -996.733154 20.910591
  endloop
 endfacet
 facet normal -0.422619 0.000000 -0.906307
  outer loop
   vertex -44.608482 -996.733154 20.910591
   vertex -44.608482 -997.308289 20.910591
   vertex -52.991409 -996.733154 24.819622
  endloop
 endfacet
 facet normal -0.422619 0.000000 -0.906307
  outer loop
   vertex -52.991409 -996.733154 24.819622
   vertex -44.608482 -997.308289 20.910591
   vertex -52.991409 -997.308289 24.819622
  endloop
 endfacet
 facet normal -0.151705 0.933351 -0.325333
  outer loop
   vertex -52.991409 -997.308289 24.819622
   vertex -44.608482 -997.308289 20.910591
   vertex -44.621761 -997.320374 20.882113
  endloop
 endfacet
 facet normal -0.151705 0.933351 -0.325333
  outer loop
   vertex -44.621761 -997.320374 20.882113
   vertex -53.004688 -997.320374 24.791143
   vertex -52.991409 -997.308289 24.819622
  endloop
 endfacet
 facet normal -0.422619 -0.000000 -0.906307
  outer loop
   vertex -44.621761 -997.386597 20.882113
   vertex -53.004688 -997.320374 24.791143
   vertex -44.621761 -997.320374 20.882113
  endloop
 endfacet
 facet normal -0.422619 -0.000000 -0.906307
  outer loop
   vertex -53.004688 -997.386597 24.791143
   vertex -53.004688 -997.320374 24.791143
   vertex -44.621761 -997.386597 20.882113
  endloop
 endfacet
 facet normal -0.000000 -1.000000 -0.000000
  outer loop
   vertex -44.621761 -997.386597 20.882113
   vertex -43.999760 -997.386597 22.216002
   vertex -53.004688 -997.386597 24.791143
  endloop
 endfacet
 facet normal 0.000000 -1.000000 0.000000
  outer loop
   vertex -53.004688 -997.386597 24.791143
   vertex -43.999760 -997.386597 22.216002
   vertex -52.382687 -997.386597 26.125032
  endloop
 endfacet
 facet normal 0.422619 -0.000000 0.906307
  outer loop
   vertex -52.382687 -997.386597 26.125032
   vertex -43.999760 -997.386597 22.216002
   vertex -52.382687 -997.320374 26.125032
  endloop
 endfacet
 facet normal 0.422619 0.000000 0.906307
  outer loop
   vertex -51.957077 -997.409485 25.945370
   vertex -51.957077 -996.568970 25.945370
   vertex -52.863384 -997.409485 26.367989
  endloop
 endfacet
 facet normal -0.422619 0.000000 -0.906307
  outer loop
   vertex -52.593483 -996.568970 24.580591
   vertex -52.593483 -997.409485 24.580591
   vertex -53.499790 -997.409485 25.003210
  endloop
 endfacet
 facet normal 0.422619 0.000000 0.906307
  outer loop
   vertex -43.999760 -997.386597 22.216002
   vertex -43.999760 -997.320374 22.216002
   vertex -52.382687 -997.320374 26.125032
  endloop
 endfacet
 facet normal 0.675589 0.000000 -0.737278
  outer loop
   vertex -43.358929 -999.349976 21.105209
   vertex -43.358929 -1000.349976 21.105209
   vertex -43.923218 -999.349976 20.588135
  endloop
 endfacet
 facet normal 0.675589 -0.000000 -0.737278
  outer loop
   vertex -43.923218 -999.349976 20.588135
   vertex -43.358929 -1000.349976 21.105209
   vertex -43.923218 -1000.349976 20.588135
  endloop
 endfacet
 facet normal -0.043621 0.000000 -0.999048
  outer loop
   vertex -43.923218 -1000.349976 20.588135
   vertex -44.687855 -999.349976 20.621521
   vertex -43.923218 -999.349976 20.588135
  endloop
 endfacet
 facet normal -0.043621 -0.000000 -0.999048
  outer loop
   vertex -44.687855 -1000.349976 20.621521
   vertex -44.687855 -999.349976 20.621521
   vertex -43.923218 -1000.349976 20.588135
  endloop
 endfacet
 facet normal -0.737277 -0.000000 -0.675591
  outer loop
   vertex -45.204929 -999.349976 21.185808
   vertex -44.687855 -999.349976 20.621521
   vertex -44.687855 -1000.349976 20.621521
  endloop
 endfacet
 facet normal -0.737277 0.000000 -0.675591
  outer loop
   vertex -44.687855 -1000.349976 20.621521
   vertex -45.204929 -1000.349976 21.185808
   vertex -45.204929 -999.349976 21.185808
  endloop
 endfacet
 facet normal -0.999048 0.000000 0.043621
  outer loop
   vertex -45.204929 -999.349976 21.185808
   vertex -45.204929 -1000.349976 21.185808
   vertex -45.171543 -999.349976 21.950447
  endloop
 endfacet
 facet normal -0.999048 -0.000000 0.043621
  outer loop
   vertex -45.171543 -999.349976 21.950447
   vertex -45.204929 -1000.349976 21.185808
   vertex -45.171543 -1000.349976 21.950447
  endloop
 endfacet
 facet normal -0.675592 0.000000 0.737276
  outer loop
   vertex -45.171543 -1000.349976 21.950447
   vertex -44.607258 -999.349976 22.467522
   vertex -45.171543 -999.349976 21.950447
  endloop
 endfacet
 facet normal -0.675592 -0.000000 0.737276
  outer loop
   vertex -44.607258 -1000.349976 22.467522
   vertex -44.607258 -999.349976 22.467522
   vertex -45.171543 -1000.349976 21.950447
  endloop
 endfacet
 facet normal 0.043621 0.000000 0.999048
  outer loop
   vertex -43.842617 -999.349976 22.434135
   vertex -44.607258 -999.349976 22.467522
   vertex -44.607258 -1000.349976 22.467522
  endloop
 endfacet
 facet normal 0.043621 -0.000000 0.999048
  outer loop
   vertex -44.607258 -1000.349976 22.467522
   vertex -43.842617 -1000.349976 22.434135
   vertex -43.842617 -999.349976 22.434135
  endloop
 endfacet
 facet normal 0.737277 -0.000000 0.675591
  outer loop
   vertex -43.842617 -999.349976 22.434135
   vertex -43.842617 -1000.349976 22.434135
   vertex -43.325542 -999.349976 21.869848
  endloop
 endfacet
 facet normal 0.737277 -0.000000 0.675591
  outer loop
   vertex -43.325542 -999.349976 21.869848
   vertex -43.842617 -1000.349976 22.434135
   vertex -43.325542 -1000.349976 21.869848
  endloop
 endfacet
 facet normal 0.999048 0.000000 -0.043621
  outer loop
   vertex -43.325542 -1000.349976 21.869848
   vertex -43.358929 -999.349976 21.105209
   vertex -43.325542 -999.349976 21.869848
  endloop
 endfacet
 facet normal 0.999048 -0.000000 -0.043621
  outer loop
   vertex -43.358929 -1000.349976 21.105209
   vertex -43.358929 -999.349976 21.105209
   vertex -43.325542 -1000.349976 21.869848
  endloop
 endfacet
 facet normal -0.675582 0.000000 0.737285
  outer loop
   vertex -52.824715 -998.360046 25.714239
   vertex -52.965790 -997.360046 25.584970
   vertex -52.965790 -998.360046 25.584970
  endloop
 endfacet
 facet normal -0.999048 -0.000000 0.043622
  outer loop
   vertex -52.965790 -998.360046 25.584970
   vertex -52.965790 -997.360046 25.584970
   vertex -52.974136 -997.360046 25.393812
  endloop
 endfacet
 facet normal -0.999048 -0.000000 0.043621
  outer loop
   vertex -52.974136 -997.360046 25.393812
   vertex -52.974136 -998.360046 25.393810
   vertex -52.965790 -998.360046 25.584970
  endloop
 endfacet
 facet normal -0.737280 0.000001 -0.675587
  outer loop
   vertex -52.844868 -997.360046 25.252739
   vertex -52.974136 -998.360046 25.393810
   vertex -52.974136 -997.360046 25.393812
  endloop
 endfacet
 facet normal -0.737276 0.000000 -0.675592
  outer loop
   vertex -52.844868 -998.360046 25.252739
   vertex -52.974136 -998.360046 25.393810
   vertex -52.844868 -997.360046 25.252739
  endloop
 endfacet
 facet normal -0.043621 -0.000000 -0.999048
  outer loop
   vertex -52.844868 -997.360046 25.252739
   vertex -52.653706 -997.360046 25.244392
   vertex -52.844868 -998.360046 25.252739
  endloop
 endfacet
 facet normal -0.043621 -0.000000 -0.999048
  outer loop
   vertex -52.844868 -998.360046 25.252739
   vertex -52.653706 -997.360046 25.244392
   vertex -52.653706 -998.360046 25.244392
  endloop
 endfacet
 facet normal 0.675592 -0.000000 -0.737276
  outer loop
   vertex -52.653706 -998.360046 25.244392
   vertex -52.653706 -997.360046 25.244392
   vertex -52.512634 -997.360046 25.373661
  endloop
 endfacet
 facet normal 0.675592 0.000000 -0.737276
  outer loop
   vertex -52.512634 -997.360046 25.373661
   vertex -52.512634 -998.360046 25.373661
   vertex -52.653706 -998.360046 25.244392
  endloop
 endfacet
 facet normal 0.999048 -0.000000 -0.043621
  outer loop
   vertex -52.504288 -997.360046 25.564821
   vertex -52.512634 -998.360046 25.373661
   vertex -52.512634 -997.360046 25.373661
  endloop
 endfacet
 facet normal 0.999048 0.000000 -0.043621
  outer loop
   vertex -52.504288 -998.360046 25.564821
   vertex -52.512634 -998.360046 25.373661
   vertex -52.504288 -997.360046 25.564821
  endloop
 endfacet
 facet normal 0.737276 -0.000000 0.675592
  outer loop
   vertex -52.504288 -997.360046 25.564821
   vertex -52.633556 -997.360046 25.705893
   vertex -52.504288 -998.360046 25.564821
  endloop
 endfacet
 facet normal 0.737276 0.000000 0.675592
  outer loop
   vertex -52.504288 -998.360046 25.564821
   vertex -52.633556 -997.360046 25.705893
   vertex -52.633556 -998.360046 25.705893
  endloop
 endfacet
 facet normal 0.043622 0.000000 0.999048
  outer loop
   vertex -52.633556 -998.360046 25.705893
   vertex -52.633556 -997.360046 25.705893
   vertex -52.824715 -997.360046 25.714239
  endloop
 endfacet
 facet normal 0.043622 -0.000000 0.999048
  outer loop
   vertex -52.824715 -997.360046 25.714239
   vertex -52.824715 -998.360046 25.714239
   vertex -52.633556 -998.360046 25.705893
  endloop
 endfacet
 facet normal -0.675582 -0.000000 0.737285
  outer loop
   vertex -52.965790 -997.360046 25.584970
   vertex -52.824715 -998.360046 25.714239
   vertex -52.824715 -997.360046 25.714239
  endloop
 endfacet
 facet normal -0.675589 0.000000 0.737278
  outer loop
   vertex -53.081230 -1000.349976 26.419008
   vertex -53.645519 -999.349976 25.901934
   vertex -53.645519 -1000.349976 25.901934
  endloop
 endfacet
 facet normal -0.999048 -0.000000 0.043621
  outer loop
   vertex -53.645519 -1000.349976 25.901934
   vertex -53.645519 -999.349976 25.901934
   vertex -53.678905 -999.349976 25.137297
  endloop
 endfacet
 facet normal -0.999048 0.000000 0.043621
  outer loop
   vertex -53.678905 -999.349976 25.137297
   vertex -53.678905 -1000.349976 25.137297
   vertex -53.645519 -1000.349976 25.901934
  endloop
 endfacet
 facet normal -0.737278 0.000000 -0.675589
  outer loop
   vertex -53.161831 -999.349976 24.573008
   vertex -53.678905 -1000.349976 25.137297
   vertex -53.678905 -999.349976 25.137297
  endloop
 endfacet
 facet normal -0.737278 0.000000 -0.675589
  outer loop
   vertex -53.161831 -1000.349976 24.573008
   vertex -53.678905 -1000.349976 25.137297
   vertex -53.161831 -999.349976 24.573008
  endloop
 endfacet
 facet normal -0.043619 -0.000000 -0.999048
  outer loop
   vertex -53.161831 -999.349976 24.573008
   vertex -52.397194 -999.349976 24.539623
   vertex -53.161831 -1000.349976 24.573008
  endloop
 endfacet
 facet normal -0.043619 -0.000000 -0.999048
  outer loop
   vertex -53.161831 -1000.349976 24.573008
   vertex -52.397194 -999.349976 24.539623
   vertex -52.397194 -1000.349976 24.539623
  endloop
 endfacet
 facet normal 0.675588 -0.000000 -0.737279
  outer loop
   vertex -52.397194 -1000.349976 24.539623
   vertex -52.397194 -999.349976 24.539623
   vertex -51.832905 -999.349976 25.056696
  endloop
 endfacet
 facet normal 0.675588 0.000000 -0.737279
  outer loop
   vertex -51.832905 -999.349976 25.056696
   vertex -51.832905 -1000.349976 25.056696
   vertex -52.397194 -1000.349976 24.539623
  endloop
 endfacet
 facet normal 0.999048 -0.000000 -0.043621
  outer loop
   vertex -51.799519 -999.349976 25.821335
   vertex -51.832905 -1000.349976 25.056696
   vertex -51.832905 -999.349976 25.056696
  endloop
 endfacet
 facet normal 0.999048 0.000000 -0.043621
  outer loop
   vertex -51.799519 -1000.349976 25.821335
   vertex -51.832905 -1000.349976 25.056696
   vertex -51.799519 -999.349976 25.821335
  endloop
 endfacet
 facet normal 0.737277 -0.000000 0.675591
  outer loop
   vertex -51.799519 -999.349976 25.821335
   vertex -52.316593 -999.349976 26.385622
   vertex -51.799519 -1000.349976 25.821335
  endloop
 endfacet
 facet normal 0.737277 0.000000 0.675591
  outer loop
   vertex -51.799519 -1000.349976 25.821335
   vertex -52.316593 -999.349976 26.385622
   vertex -52.316593 -1000.349976 26.385622
  endloop
 endfacet
 facet normal 0.043621 0.000000 0.999048
  outer loop
   vertex -52.316593 -1000.349976 26.385622
   vertex -52.316593 -999.349976 26.385622
   vertex -53.081230 -999.349976 26.419008
  endloop
 endfacet
 facet normal 0.043621 -0.000000 0.999048
  outer loop
   vertex -53.081230 -999.349976 26.419008
   vertex -53.081230 -1000.349976 26.419008
   vertex -52.316593 -1000.349976 26.385622
  endloop
 endfacet
 facet normal -0.675589 -0.000000 0.737278
  outer loop
   vertex -53.645519 -999.349976 25.901934
   vertex -53.081230 -1000.349976 26.419008
   vertex -53.081230 -999.349976 26.419008
  endloop
 endfacet
 facet normal -0.555308 0.569544 0.606014
  outer loop
   vertex -53.081230 -999.349976 26.419008
   vertex -52.965790 -998.349976 25.584970
   vertex -53.645519 -999.349976 25.901934
  endloop
 endfacet
 facet normal -0.821179 0.569544 0.035855
  outer loop
   vertex -53.645519 -999.349976 25.901934
   vertex -52.965790 -998.349976 25.584970
   vertex -52.974136 -998.349976 25.393810
  endloop
 endfacet
 facet normal -0.821178 0.569544 0.035855
  outer loop
   vertex -52.974136 -998.349976 25.393810
   vertex -53.678905 -999.349976 25.137297
   vertex -53.645519 -999.349976 25.901934
  endloop
 endfacet
 facet normal -0.606012 0.569543 -0.555310
  outer loop
   vertex -52.844868 -998.349976 25.252739
   vertex -53.678905 -999.349976 25.137297
   vertex -52.974136 -998.349976 25.393810
  endloop
 endfacet
 facet normal -0.606014 0.569544 -0.555308
  outer loop
   vertex -53.161831 -999.349976 24.573008
   vertex -53.678905 -999.349976 25.137297
   vertex -52.844868 -998.349976 25.252739
  endloop
 endfacet
 facet normal -0.035854 0.569545 -0.821178
  outer loop
   vertex -52.844868 -998.349976 25.252739
   vertex -52.653706 -998.349976 25.244392
   vertex -53.161831 -999.349976 24.573008
  endloop
 endfacet
 facet normal -0.035853 0.569544 -0.821178
  outer loop
   vertex -53.161831 -999.349976 24.573008
   vertex -52.653706 -998.349976 25.244392
   vertex -52.397194 -999.349976 24.539623
  endloop
 endfacet
 facet normal 0.555311 0.569543 -0.606013
  outer loop
   vertex -52.397194 -999.349976 24.539623
   vertex -52.653706 -998.349976 25.244392
   vertex -52.512634 -998.349976 25.373661
  endloop
 endfacet
 facet normal 0.555307 0.569544 -0.606015
  outer loop
   vertex -52.512634 -998.349976 25.373661
   vertex -51.832905 -999.349976 25.056696
   vertex -52.397194 -999.349976 24.539623
  endloop
 endfacet
 facet normal 0.821178 0.569544 -0.035855
  outer loop
   vertex -52.504288 -998.349976 25.564821
   vertex -51.832905 -999.349976 25.056696
   vertex -52.512634 -998.349976 25.373661
  endloop
 endfacet
 facet normal 0.821178 0.569544 -0.035855
  outer loop
   vertex -51.799519 -999.349976 25.821335
   vertex -51.832905 -999.349976 25.056696
   vertex -52.504288 -998.349976 25.564821
  endloop
 endfacet
 facet normal 0.606012 0.569543 0.555310
  outer loop
   vertex -52.504288 -998.349976 25.564821
   vertex -52.633556 -998.349976 25.705893
   vertex -51.799519 -999.349976 25.821335
  endloop
 endfacet
 facet normal 0.606013 0.569544 0.555309
  outer loop
   vertex -51.799519 -999.349976 25.821335
   vertex -52.633556 -998.349976 25.705893
   vertex -52.316593 -999.349976 26.385622
  endloop
 endfacet
 facet normal 0.035855 0.569544 0.821178
  outer loop
   vertex -52.316593 -999.349976 26.385622
   vertex -52.633556 -998.349976 25.705893
   vertex -52.824715 -998.349976 25.714239
  endloop
 endfacet
 facet normal 0.035855 0.569544 0.821179
  outer loop
   vertex -52.824715 -998.349976 25.714239
   vertex -53.081230 -999.349976 26.419008
   vertex -52.316593 -999.349976 26.385622
  endloop
 endfacet
 facet normal -0.555301 0.569546 0.606018
  outer loop
   vertex -52.965790 -998.349976 25.584970
   vertex -53.081230 -999.349976 26.419008
   vertex -52.824715 -998.349976 25.714239
  endloop
 endfacet
 facet normal 0.675582 0.000000 -0.737285
  outer loop
   vertex -44.038658 -997.360046 21.422174
   vertex -44.038658 -998.360046 21.422174
   vertex -44.179733 -997.360046 21.292906
  endloop
 endfacet
 facet normal 0.675582 -0.000000 -0.737285
  outer loop
   vertex -44.179733 -997.360046 21.292906
   vertex -44.038658 -998.360046 21.422174
   vertex -44.179733 -998.360046 21.292906
  endloop
 endfacet
 facet normal -0.043622 0.000000 -0.999048
  outer loop
   vertex -44.179733 -998.360046 21.292906
   vertex -44.370892 -997.360046 21.301252
   vertex -44.179733 -997.360046 21.292906
  endloop
 endfacet
 facet normal -0.043622 -0.000000 -0.999048
  outer loop
   vertex -44.370892 -998.360046 21.301252
   vertex -44.370892 -997.360046 21.301252
   vertex -44.179733 -998.360046 21.292906
  endloop
 endfacet
 facet normal -0.737276 -0.000000 -0.675592
  outer loop
   vertex -44.500160 -997.360046 21.442324
   vertex -44.370892 -997.360046 21.301252
   vertex -44.370892 -998.360046 21.301252
  endloop
 endfacet
 facet normal -0.737276 0.000000 -0.675592
  outer loop
   vertex -44.370892 -998.360046 21.301252
   vertex -44.500160 -998.360046 21.442324
   vertex -44.500160 -997.360046 21.442324
  endloop
 endfacet
 facet normal -0.999048 0.000000 0.043621
  outer loop
   vertex -44.500160 -997.360046 21.442324
   vertex -44.500160 -998.360046 21.442324
   vertex -44.491814 -997.360046 21.633484
  endloop
 endfacet
 facet normal -0.999048 -0.000000 0.043621
  outer loop
   vertex -44.491814 -997.360046 21.633484
   vertex -44.500160 -998.360046 21.442324
   vertex -44.491814 -998.360046 21.633484
  endloop
 endfacet
 facet normal -0.675592 0.000000 0.737276
  outer loop
   vertex -44.491814 -998.360046 21.633484
   vertex -44.350742 -997.360046 21.762753
   vertex -44.491814 -997.360046 21.633484
  endloop
 endfacet
 facet normal -0.675592 -0.000000 0.737276
  outer loop
   vertex -44.350742 -998.360046 21.762753
   vertex -44.350742 -997.360046 21.762753
   vertex -44.491814 -998.360046 21.633484
  endloop
 endfacet
 facet normal 0.043621 0.000000 0.999048
  outer loop
   vertex -44.159580 -997.360046 21.754406
   vertex -44.350742 -997.360046 21.762753
   vertex -44.350742 -998.360046 21.762753
  endloop
 endfacet
 facet normal 0.043621 -0.000000 0.999048
  outer loop
   vertex -44.350742 -998.360046 21.762753
   vertex -44.159580 -998.360046 21.754406
   vertex -44.159580 -997.360046 21.754406
  endloop
 endfacet
 facet normal 0.737276 -0.000000 0.675592
  outer loop
   vertex -44.159580 -997.360046 21.754406
   vertex -44.159580 -998.360046 21.754406
   vertex -44.030312 -997.360046 21.613335
  endloop
 endfacet
 facet normal 0.737290 -0.000004 0.675576
  outer loop
   vertex -44.030312 -997.360046 21.613335
   vertex -44.159580 -998.360046 21.754406
   vertex -44.030315 -998.360046 21.613333
  endloop
 endfacet
 facet normal 0.999048 -0.000004 -0.043621
  outer loop
   vertex -44.030315 -998.360046 21.613333
   vertex -44.038658 -997.360046 21.422174
   vertex -44.030312 -997.360046 21.613335
  endloop
 endfacet
 facet normal 0.999049 -0.000000 -0.043602
  outer loop
   vertex -44.038658 -998.360046 21.422174
   vertex -44.038658 -997.360046 21.422174
   vertex -44.030315 -998.360046 21.613333
  endloop
 endfacet
 facet normal 0.821176 0.569549 -0.035839
  outer loop
   vertex -44.030315 -998.349976 21.613333
   vertex -43.325542 -999.349976 21.869848
   vertex -44.038658 -998.349976 21.422174
  endloop
 endfacet
 facet normal 0.821178 0.569544 -0.035855
  outer loop
   vertex -44.038658 -998.349976 21.422174
   vertex -43.325542 -999.349976 21.869848
   vertex -43.358929 -999.349976 21.105209
  endloop
 endfacet
 facet normal 0.555303 0.569543 -0.606020
  outer loop
   vertex -43.358929 -999.349976 21.105209
   vertex -44.179733 -998.349976 21.292906
   vertex -44.038658 -998.349976 21.422174
  endloop
 endfacet
 facet normal 0.555307 0.569545 -0.606013
  outer loop
   vertex -43.923218 -999.349976 20.588135
   vertex -44.179733 -998.349976 21.292906
   vertex -43.358929 -999.349976 21.105209
  endloop
 endfacet
 facet normal -0.035855 0.569545 -0.821178
  outer loop
   vertex -44.370892 -998.349976 21.301252
   vertex -44.179733 -998.349976 21.292906
   vertex -43.923218 -999.349976 20.588135
  endloop
 endfacet
 facet normal -0.035855 0.569545 -0.821178
  outer loop
   vertex -43.923218 -999.349976 20.588135
   vertex -44.687855 -999.349976 20.621521
   vertex -44.370892 -998.349976 21.301252
  endloop
 endfacet
 facet normal -0.606011 0.569545 -0.555310
  outer loop
   vertex -44.370892 -998.349976 21.301252
   vertex -44.687855 -999.349976 20.621521
   vertex -44.500160 -998.349976 21.442324
  endloop
 endfacet
 facet normal -0.606013 0.569544 -0.555309
  outer loop
   vertex -44.500160 -998.349976 21.442324
   vertex -44.687855 -999.349976 20.621521
   vertex -45.204929 -999.349976 21.185808
  endloop
 endfacet
 facet normal -0.821178 0.569544 0.035855
  outer loop
   vertex -45.204929 -999.349976 21.185808
   vertex -44.491814 -998.349976 21.633484
   vertex -44.500160 -998.349976 21.442324
  endloop
 endfacet
 facet normal -0.821179 0.569544 0.035855
  outer loop
   vertex -45.171543 -999.349976 21.950447
   vertex -44.491814 -998.349976 21.633484
   vertex -45.204929 -999.349976 21.185808
  endloop
 endfacet
 facet normal -0.555310 0.569544 0.606012
  outer loop
   vertex -44.350742 -998.349976 21.762753
   vertex -44.491814 -998.349976 21.633484
   vertex -45.171543 -999.349976 21.950447
  endloop
 endfacet
 facet normal -0.555310 0.569544 0.606012
  outer loop
   vertex -45.171543 -999.349976 21.950447
   vertex -44.607258 -999.349976 22.467522
   vertex -44.350742 -998.349976 21.762753
  endloop
 endfacet
 facet normal 0.035854 0.569544 0.821178
  outer loop
   vertex -44.350742 -998.349976 21.762753
   vertex -44.607258 -999.349976 22.467522
   vertex -44.159580 -998.349976 21.754406
  endloop
 endfacet
 facet normal 0.035855 0.569544 0.821179
  outer loop
   vertex -44.159580 -998.349976 21.754406
   vertex -44.607258 -999.349976 22.467522
   vertex -43.842617 -999.349976 22.434135
  endloop
 endfacet
 facet normal 0.606025 0.569541 0.555299
  outer loop
   vertex -43.842617 -999.349976 22.434135
   vertex -44.030315 -998.349976 21.613333
   vertex -44.159580 -998.349976 21.754406
  endloop
 endfacet
 facet normal 0.606012 0.569546 0.555308
  outer loop
   vertex -43.325542 -999.349976 21.869848
   vertex -44.030315 -998.349976 21.613333
   vertex -43.842617 -999.349976 22.434135
  endloop
 endfacet
endsolid