solid stl file generated from DOUG
 facet normal 0.389577 -0.804602 -0.448157
  outer loop
   vertex 42.635986 -999.037781 -55.419117
   vertex 42.707878 -998.956909 -55.501816
   vertex 49.688599 -998.956909 -49.433578
  endloop
 endfacet
 facet normal 0.656058 -0.000000 -0.754710
  outer loop
   vertex 49.688599 -998.956909 -49.433578
   vertex 42.707878 -998.956909 -55.501816
   vertex 49.688599 -998.854126 -49.433578
  endloop
 endfacet
 facet normal 0.389570 0.804610 -0.448150
  outer loop
   vertex 49.616707 -1000.142273 -49.350876
   vertex 49.688599 -1000.223145 -49.433578
   vertex 42.707878 -1000.223145 -55.501816
  endloop
 endfacet
 facet normal 0.656058 -0.000000 -0.754710
  outer loop
   vertex 42.707878 -1000.223145 -55.501816
   vertex 49.688599 -1000.223145 -49.433578
   vertex 49.688599 -1000.325928 -49.433578
  endloop
 endfacet
 facet normal 0.656058 0.000000 -0.754710
  outer loop
   vertex 49.688599 -1000.325928 -49.433578
   vertex 42.707878 -1000.325928 -55.501816
   vertex 42.707878 -1000.223145 -55.501816
  endloop
 endfacet
 facet normal 0.612419 -0.358624 -0.704508
  outer loop
   vertex 49.207886 -1000.325928 -48.880581
   vertex 42.227165 -1000.325928 -54.948822
   vertex 49.215809 -1000.294495 -48.889694
  endloop
 endfacet
 facet normal 0.612419 -0.358624 -0.704508
  outer loop
   vertex 49.215809 -1000.294495 -48.889694
   vertex 42.227165 -1000.325928 -54.948822
   vertex 42.235088 -1000.294495 -54.957935
  endloop
 endfacet
 facet normal 0.000000 -1.000000 0.000000
  outer loop
   vertex 42.235088 -1000.294495 -54.957935
   vertex 42.612427 -1000.294495 -55.392014
   vertex 49.215809 -1000.294495 -48.889694
  endloop
 endfacet
 facet normal 0.389570 -0.804610 -0.448150
  outer loop
   vertex 49.688599 -998.956909 -49.433578
   vertex 49.616707 -999.037781 -49.350876
   vertex 42.635986 -999.037781 -55.419117
  endloop
 endfacet
 facet normal 0.656059 -0.000000 -0.754710
  outer loop
   vertex 42.635986 -999.037781 -55.419117
   vertex 49.616707 -999.037781 -49.350876
   vertex 49.616707 -1000.142273 -49.350876
  endloop
 endfacet
 facet normal 0.656059 0.000000 -0.754710
  outer loop
   vertex 49.616707 -1000.142273 -49.350876
   vertex 42.635986 -1000.142273 -55.419117
   vertex 42.635986 -999.037781 -55.419117
  endloop
 endfacet
 facet normal 0.389577 0.804602 -0.448157
  outer loop
   vertex 42.707878 -1000.223145 -55.501816
   vertex 42.635986 -1000.142273 -55.419117
   vertex 49.616707 -1000.142273 -49.350876
  endloop
 endfacet
 facet normal 0.000000 -1.000000 0.000000
  outer loop
   vertex 42.707878 -1000.325928 -55.501816
   vertex 49.688599 -1000.325928 -49.433578
   vertex 42.620346 -1000.325928 -55.401127
  endloop
 endfacet
 facet normal -0.000000 -1.000000 -0.000000
  outer loop
   vertex 42.620346 -1000.325928 -55.401127
   vertex 49.688599 -1000.325928 -49.433578
   vertex 49.601067 -1000.325928 -49.332886
  endloop
 endfacet
 facet normal -0.612435 -0.358560 0.704527
  outer loop
   vertex 49.601067 -1000.325928 -49.332886
   vertex 42.612427 -1000.294495 -55.392014
   vertex 42.620346 -1000.325928 -55.401127
  endloop
 endfacet
 facet normal -0.612435 -0.358560 0.704527
  outer loop
   vertex 49.593147 -1000.294495 -49.323772
   vertex 42.612427 -1000.294495 -55.392014
   vertex 49.601067 -1000.325928 -49.332886
  endloop
 endfacet
 facet normal 0.000000 -1.000000 0.000000
  outer loop
   vertex 49.215809 -1000.294495 -48.889694
   vertex 42.612427 -1000.294495 -55.392014
   vertex 49.593147 -1000.294495 -49.323772
  endloop
 endfacet
 facet normal 0.754710 0.000000 0.656059
  outer loop
   vertex 50.107159 -998.837097 -49.094517
   vertex 49.555740 -1000.342957 -48.460182
   vertex 50.107159 -1000.342957 -49.094517
  endloop
 endfacet
 facet normal -0.000000 -1.000000 -0.000000
  outer loop
   vertex 50.107159 -1000.342957 -49.094517
   vertex 49.555740 -1000.342957 -48.460182
   vertex 49.352448 -1000.342957 -49.750572
  endloop
 endfacet
 facet normal 0.656056 0.000000 -0.754712
  outer loop
   vertex 49.352448 -1000.342957 -49.750572
   vertex 49.352448 -998.837097 -49.750572
   vertex 50.107159 -1000.342957 -49.094517
  endloop
 endfacet
 facet normal -0.754712 -0.000000 -0.656056
  outer loop
   vertex 48.801033 -1000.342957 -49.116238
   vertex 49.352448 -998.837097 -49.750572
   vertex 49.352448 -1000.342957 -49.750572
  endloop
 endfacet
 facet normal -0.754712 0.000000 -0.656056
  outer loop
   vertex 48.801033 -998.837097 -49.116238
   vertex 49.352448 -998.837097 -49.750572
   vertex 48.801033 -1000.342957 -49.116238
  endloop
 endfacet
 facet normal -0.656058 -0.000000 0.754710
  outer loop
   vertex 48.801033 -1000.342957 -49.116238
   vertex 49.555740 -1000.342957 -48.460182
   vertex 48.801033 -998.837097 -49.116238
  endloop
 endfacet
 facet normal -0.656060 -0.000002 0.754708
  outer loop
   vertex 48.801033 -998.837097 -49.116238
   vertex 49.555740 -1000.342957 -48.460182
   vertex 49.555740 -998.837097 -48.460178
  endloop
 endfacet
 facet normal 0.754712 -0.000002 0.656057
  outer loop
   vertex 49.555740 -998.837097 -48.460178
   vertex 49.555740 -1000.342957 -48.460182
   vertex 50.107159 -998.837097 -49.094517
  endloop
 endfacet
 facet normal 0.000000 1.000000 0.000000
  outer loop
   vertex 50.107159 -998.837097 -49.094517
   vertex 49.352448 -998.837097 -49.750572
   vertex 49.555740 -998.837097 -48.460178
  endloop
 endfacet
 facet normal 0.656056 -0.000000 -0.754712
  outer loop
   vertex 50.107159 -1000.342957 -49.094517
   vertex 49.352448 -998.837097 -49.750572
   vertex 50.107159 -998.837097 -49.094517
  endloop
 endfacet
 facet normal 0.754710 0.000000 0.656059
  outer loop
   vertex 43.068573 -1000.342957 -55.213058
   vertex 43.068573 -998.837097 -55.213058
   vertex 42.517155 -1000.342957 -54.578724
  endloop
 endfacet
 facet normal 0.754710 -0.000000 0.656059
  outer loop
   vertex 42.517155 -1000.342957 -54.578724
   vertex 43.068573 -998.837097 -55.213058
   vertex 42.517155 -998.837097 -54.578724
  endloop
 endfacet
 facet normal -0.656058 0.000000 0.754710
  outer loop
   vertex 42.517155 -998.837097 -54.578724
   vertex 41.762444 -998.837097 -55.234783
   vertex 42.517155 -1000.342957 -54.578724
  endloop
 endfacet
 facet normal -0.000000 1.000000 -0.000000
  outer loop
   vertex 43.068573 -998.837097 -55.213058
   vertex 41.762444 -998.837097 -55.234783
   vertex 42.517155 -998.837097 -54.578724
  endloop
 endfacet
 facet normal -0.000000 1.000000 0.000000
  outer loop
   vertex 42.313862 -998.837097 -55.869118
   vertex 41.762444 -998.837097 -55.234783
   vertex 43.068573 -998.837097 -55.213058
  endloop
 endfacet
 facet normal 0.656058 -0.000000 -0.754710
  outer loop
   vertex 43.068573 -998.837097 -55.213058
   vertex 42.313862 -1000.342957 -55.869118
   vertex 42.313862 -998.837097 -55.869118
  endloop
 endfacet
 facet normal -0.754710 0.000000 -0.656059
  outer loop
   vertex 42.313862 -998.837097 -55.869118
   vertex 42.313862 -1000.342957 -55.869118
   vertex 41.762444 -998.837097 -55.234783
  endloop
 endfacet
 facet normal -0.754710 -0.000000 -0.656059
  outer loop
   vertex 41.762444 -998.837097 -55.234783
   vertex 42.313862 -1000.342957 -55.869118
   vertex 41.762444 -1000.342957 -55.234783
  endloop
 endfacet
 facet normal -0.656058 0.000000 0.754710
  outer loop
   vertex 41.762444 -1000.342957 -55.234783
   vertex 42.517155 -1000.342957 -54.578724
   vertex 41.762444 -998.837097 -55.234783
  endloop
 endfacet
 facet normal -0.000000 -1.000000 -0.000000
  outer loop
   vertex 42.313862 -1000.342957 -55.869118
   vertex 42.517155 -1000.342957 -54.578724
   vertex 41.762444 -1000.342957 -55.234783
  endloop
 endfacet
 facet normal 0.000000 -1.000000 -0.000000
  outer loop
   vertex 43.068573 -1000.342957 -55.213058
   vertex 42.517155 -1000.342957 -54.578724
   vertex 42.313862 -1000.342957 -55.869118
  endloop
 endfacet
 facet normal 0.656058 -0.000000 -0.754710
  outer loop
   vertex 42.313862 -1000.342957 -55.869118
   vertex 43.068573 -998.837097 -55.213058
   vertex 43.068573 -1000.342957 -55.213058
  endloop
 endfacet
 facet normal 0.656058 0.000000 -0.754710
  outer loop
   vertex 42.707878 -998.956909 -55.501816
   vertex 42.707878 -998.854126 -55.501816
   vertex 49.688599 -998.854126 -49.433578
  endloop
 endfacet
 facet normal -0.000000 1.000000 -0.000000
  outer loop
   vertex 49.688599 -998.854126 -49.433578
   vertex 42.707878 -998.854126 -55.501816
   vertex 42.620346 -998.854126 -55.401127
  endloop
 endfacet
 facet normal 0.000000 1.000000 0.000000
  outer loop
   vertex 42.620346 -998.854126 -55.401127
   vertex 49.601067 -998.854126 -49.332886
   vertex 49.688599 -998.854126 -49.433578
  endloop
 endfacet
 facet normal -0.612435 0.358560 0.704527
  outer loop
   vertex 42.612427 -998.885559 -55.392014
   vertex 49.601067 -998.854126 -49.332886
   vertex 42.620346 -998.854126 -55.401127
  endloop
 endfacet
 facet normal -0.612419 0.358624 0.704508
  outer loop
   vertex 49.593143 -998.885559 -49.323772
   vertex 49.601067 -998.854126 -49.332886
   vertex 42.612427 -998.885559 -55.392014
  endloop
 endfacet
 facet normal -0.000000 1.000000 -0.000000
  outer loop
   vertex 42.612427 -998.885559 -55.392014
   vertex 42.235088 -998.885559 -54.957935
   vertex 49.593143 -998.885559 -49.323772
  endloop
 endfacet
 facet normal 0.000000 1.000000 0.000000
  outer loop
   vertex 49.593143 -998.885559 -49.323772
   vertex 42.235088 -998.885559 -54.957935
   vertex 49.215809 -998.885559 -48.889694
  endloop
 endfacet
 facet normal 0.612419 0.358624 -0.704508
  outer loop
   vertex 49.215809 -998.885559 -48.889694
   vertex 42.235088 -998.885559 -54.957935
   vertex 42.227165 -998.854126 -54.948822
  endloop
 endfacet
 facet normal 0.612419 0.358624 -0.704508
  outer loop
   vertex 42.227165 -998.854126 -54.948822
   vertex 49.207886 -998.854126 -48.880581
   vertex 49.215809 -998.885559 -48.889694
  endloop
 endfacet
 facet normal -0.000000 1.000000 -0.000000
  outer loop
   vertex 42.183735 -998.854126 -54.898861
   vertex 49.207886 -998.854126 -48.880581
   vertex 42.227165 -998.854126 -54.948822
  endloop
 endfacet
 facet normal 0.000000 1.000000 0.000000
  outer loop
   vertex 49.164455 -998.854126 -48.830620
   vertex 49.207886 -998.854126 -48.880581
   vertex 42.183735 -998.854126 -54.898861
  endloop
 endfacet
 facet normal -0.656059 -0.000000 0.754710
  outer loop
   vertex 42.183735 -998.854126 -54.898861
   vertex 42.183735 -1000.325928 -54.898861
   vertex 49.164455 -998.854126 -48.830620
  endloop
 endfacet
 facet normal -0.656059 0.000000 0.754710
  outer loop
   vertex 49.164455 -998.854126 -48.830620
   vertex 42.183735 -1000.325928 -54.898861
   vertex 49.164455 -1000.325928 -48.830620
  endloop
 endfacet
 facet normal -0.000000 -1.000000 -0.000000
  outer loop
   vertex 49.164455 -1000.325928 -48.830620
   vertex 42.183735 -1000.325928 -54.898861
   vertex 49.207886 -1000.325928 -48.880581
  endloop
 endfacet
 facet normal 0.000000 -1.000000 0.000000
  outer loop
   vertex 48.801033 -1000.342957 -49.116238
   vertex 49.352448 -1000.342957 -49.750572
   vertex 49.555740 -1000.342957 -48.460182
  endloop
 endfacet
 facet normal -0.000000 1.000000 0.000000
  outer loop
   vertex 49.352448 -998.837097 -49.750572
   vertex 48.801033 -998.837097 -49.116238
   vertex 49.555740 -998.837097 -48.460178
  endloop
 endfacet
 facet normal 0.000000 -1.000000 0.000000
  outer loop
   vertex 42.183735 -1000.325928 -54.898861
   vertex 42.227165 -1000.325928 -54.948822
   vertex 49.207886 -1000.325928 -48.880581
  endloop
 endfacet
 facet normal -0.697260 0.382693 -0.606114
  outer loop
   vertex 40.103004 -999.590027 -54.106071
   vertex 39.446949 -999.590027 -53.351360
   vertex 40.324055 -998.882935 -53.913914
  endloop
 endfacet
 facet normal -0.697259 0.382690 -0.606117
  outer loop
   vertex 40.324055 -998.882935 -53.913914
   vertex 39.446949 -999.590027 -53.351360
   vertex 39.667995 -998.882935 -53.159203
  endloop
 endfacet
 facet normal -0.288828 0.923873 -0.251074
  outer loop
   vertex 39.667995 -998.882935 -53.159203
   vertex 40.857716 -998.590027 -53.450012
   vertex 40.324055 -998.882935 -53.913914
  endloop
 endfacet
 facet normal -0.288828 0.923873 -0.251074
  outer loop
   vertex 40.201656 -998.590027 -52.695301
   vertex 40.857716 -998.590027 -53.450012
   vertex 39.667995 -998.882935 -53.159203
  endloop
 endfacet
 facet normal 0.288827 0.923873 0.251073
  outer loop
   vertex 41.391376 -998.882935 -52.986107
   vertex 40.857716 -998.590027 -53.450012
   vertex 40.201656 -998.590027 -52.695301
  endloop
 endfacet
 facet normal 0.288827 0.923873 0.251073
  outer loop
   vertex 40.201656 -998.590027 -52.695301
   vertex 40.735317 -998.882935 -52.231396
   vertex 41.391376 -998.882935 -52.986107
  endloop
 endfacet
 facet normal 0.697259 0.382690 0.606117
  outer loop
   vertex 41.391376 -998.882935 -52.986107
   vertex 40.735317 -998.882935 -52.231396
   vertex 41.612427 -999.590027 -52.793953
  endloop
 endfacet
 facet normal 0.697259 0.382690 0.606117
  outer loop
   vertex 41.612427 -999.590027 -52.793953
   vertex 40.735317 -998.882935 -52.231396
   vertex 40.956367 -999.590027 -52.039242
  endloop
 endfacet
 facet normal 0.697259 -0.382690 0.606117
  outer loop
   vertex 40.956367 -999.590027 -52.039242
   vertex 41.391376 -1000.297119 -52.986107
   vertex 41.612427 -999.590027 -52.793953
  endloop
 endfacet
 facet normal 0.697257 -0.382693 0.606118
  outer loop
   vertex 40.735317 -1000.297119 -52.231400
   vertex 41.391376 -1000.297119 -52.986107
   vertex 40.956367 -999.590027 -52.039242
  endloop
 endfacet
 facet normal 0.288826 -0.923873 0.251074
  outer loop
   vertex 40.857716 -1000.590027 -53.450012
   vertex 41.391376 -1000.297119 -52.986107
   vertex 40.735317 -1000.297119 -52.231400
  endloop
 endfacet
 facet normal 0.288828 -0.923873 0.251074
  outer loop
   vertex 40.735317 -1000.297119 -52.231400
   vertex 40.201656 -1000.590027 -52.695301
   vertex 40.857716 -1000.590027 -53.450012
  endloop
 endfacet
 facet normal -0.288828 -0.923873 -0.251074
  outer loop
   vertex 40.857716 -1000.590027 -53.450012
   vertex 40.201656 -1000.590027 -52.695301
   vertex 40.324055 -1000.297119 -53.913914
  endloop
 endfacet
 facet normal -0.288826 -0.923873 -0.251074
  outer loop
   vertex 40.324055 -1000.297119 -53.913914
   vertex 40.201656 -1000.590027 -52.695301
   vertex 39.667995 -1000.297119 -53.159206
  endloop
 endfacet
 facet normal -0.697257 -0.382693 -0.606118
  outer loop
   vertex 39.667995 -1000.297119 -53.159206
   vertex 40.103004 -999.590027 -54.106071
   vertex 40.324055 -1000.297119 -53.913914
  endloop
 endfacet
 facet normal -0.697262 -0.382687 -0.606116
  outer loop
   vertex 39.446949 -999.590027 -53.351360
   vertex 40.103004 -999.590027 -54.106071
   vertex 39.667995 -1000.297119 -53.159206
  endloop
 endfacet
 facet normal 0.697253 -0.382709 0.606112
  outer loop
   vertex 48.697144 -999.766785 -47.947021
   vertex 49.408463 -999.590027 -48.653694
   vertex 48.752403 -999.590027 -47.898983
  endloop
 endfacet
 facet normal 0.697253 0.382709 0.606112
  outer loop
   vertex 48.752403 -999.590027 -47.898983
   vertex 49.408463 -999.590027 -48.653694
   vertex 49.353203 -999.413269 -48.701733
  endloop
 endfacet
 facet normal 0.697253 0.382709 0.606112
  outer loop
   vertex 49.353203 -999.413269 -48.701733
   vertex 48.697144 -999.413269 -47.947021
   vertex 48.752403 -999.590027 -47.898983
  endloop
 endfacet
 facet normal 0.288880 0.923844 0.251119
  outer loop
   vertex 49.219788 -999.340027 -48.817707
   vertex 48.697144 -999.413269 -47.947021
   vertex 49.353203 -999.413269 -48.701733
  endloop
 endfacet
 facet normal 0.288880 0.923844 0.251119
  outer loop
   vertex 48.563728 -999.340027 -48.062996
   vertex 48.697144 -999.413269 -47.947021
   vertex 49.219788 -999.340027 -48.817707
  endloop
 endfacet
 facet normal -0.288880 0.923844 -0.251119
  outer loop
   vertex 49.219788 -999.340027 -48.817707
   vertex 49.086372 -999.413269 -48.933681
   vertex 48.563728 -999.340027 -48.062996
  endloop
 endfacet
 facet normal -0.288876 0.923846 -0.251117
  outer loop
   vertex 48.563728 -999.340027 -48.062996
   vertex 49.086372 -999.413269 -48.933681
   vertex 48.430313 -999.413269 -48.178974
  endloop
 endfacet
 facet normal -0.697244 0.382733 -0.606107
  outer loop
   vertex 48.430313 -999.413269 -48.178974
   vertex 49.086372 -999.413269 -48.933681
   vertex 49.031109 -999.590027 -48.981724
  endloop
 endfacet
 facet normal -0.697249 0.382721 -0.606109
  outer loop
   vertex 49.031109 -999.590027 -48.981724
   vertex 48.375050 -999.590027 -48.227013
   vertex 48.430313 -999.413269 -48.178974
  endloop
 endfacet
 facet normal -0.697246 -0.382733 -0.606106
  outer loop
   vertex 49.086372 -999.766785 -48.933681
   vertex 48.375050 -999.590027 -48.227013
   vertex 49.031109 -999.590027 -48.981724
  endloop
 endfacet
 facet normal -0.697248 -0.382721 -0.606110
  outer loop
   vertex 48.430313 -999.766785 -48.178974
   vertex 48.375050 -999.590027 -48.227013
   vertex 49.086372 -999.766785 -48.933681
  endloop
 endfacet
 facet normal -0.288879 -0.923844 -0.251120
  outer loop
   vertex 49.086372 -999.766785 -48.933681
   vertex 49.219788 -999.840027 -48.817707
   vertex 48.430313 -999.766785 -48.178974
  endloop
 endfacet
 facet normal -0.288876 -0.923846 -0.251116
  outer loop
   vertex 48.430313 -999.766785 -48.178974
   vertex 49.219788 -999.840027 -48.817707
   vertex 48.563728 -999.840027 -48.062996
  endloop
 endfacet
 facet normal 0.288880 -0.923844 0.251119
  outer loop
   vertex 48.563728 -999.840027 -48.062996
   vertex 49.219788 -999.840027 -48.817707
   vertex 49.353203 -999.766785 -48.701733
  endloop
 endfacet
 facet normal 0.288880 -0.923844 0.251119
  outer loop
   vertex 49.353203 -999.766785 -48.701733
   vertex 48.697144 -999.766785 -47.947021
   vertex 48.563728 -999.840027 -48.062996
  endloop
 endfacet
 facet normal 0.697253 -0.382709 0.606112
  outer loop
   vertex 49.408463 -999.590027 -48.653694
   vertex 48.697144 -999.766785 -47.947021
   vertex 49.353203 -999.766785 -48.701733
  endloop
 endfacet
 facet normal 0.697259 -0.382690 0.606117
  outer loop
   vertex 47.791855 -1000.297119 -46.097248
   vertex 48.668964 -999.590027 -46.659805
   vertex 48.012905 -999.590027 -45.905094
  endloop
 endfacet
 facet normal 0.697259 0.382690 0.606117
  outer loop
   vertex 48.012905 -999.590027 -45.905094
   vertex 48.668964 -999.590027 -46.659805
   vertex 48.447914 -998.882935 -46.851959
  endloop
 endfacet
 facet normal 0.697259 0.382690 0.606117
  outer loop
   vertex 48.447914 -998.882935 -46.851959
   vertex 47.791855 -998.882935 -46.097248
   vertex 48.012905 -999.590027 -45.905094
  endloop
 endfacet
 facet normal 0.288827 0.923873 0.251073
  outer loop
   vertex 47.914253 -998.590027 -47.315865
   vertex 47.791855 -998.882935 -46.097248
   vertex 48.447914 -998.882935 -46.851959
  endloop
 endfacet
 facet normal 0.288828 0.923873 0.251073
  outer loop
   vertex 47.258198 -998.590027 -46.561153
   vertex 47.791855 -998.882935 -46.097248
   vertex 47.914253 -998.590027 -47.315865
  endloop
 endfacet
 facet normal -0.288828 0.923873 -0.251073
  outer loop
   vertex 47.914253 -998.590027 -47.315865
   vertex 47.380592 -998.882935 -47.779766
   vertex 47.258198 -998.590027 -46.561153
  endloop
 endfacet
 facet normal -0.288828 0.923873 -0.251073
  outer loop
   vertex 47.258198 -998.590027 -46.561153
   vertex 47.380592 -998.882935 -47.779766
   vertex 46.724537 -998.882935 -47.025055
  endloop
 endfacet
 facet normal -0.697262 0.382687 -0.606116
  outer loop
   vertex 46.724537 -998.882935 -47.025055
   vertex 47.380592 -998.882935 -47.779766
   vertex 47.159546 -999.590027 -47.971920
  endloop
 endfacet
 facet normal -0.697257 0.382693 -0.606118
  outer loop
   vertex 47.159546 -999.590027 -47.971920
   vertex 46.503487 -999.590027 -47.217213
   vertex 46.724537 -998.882935 -47.025055
  endloop
 endfacet
 facet normal -0.697259 -0.382687 -0.606120
  outer loop
   vertex 47.380592 -1000.297119 -47.779766
   vertex 46.503487 -999.590027 -47.217213
   vertex 47.159546 -999.590027 -47.971920
  endloop
 endfacet
 facet normal -0.697260 -0.382693 -0.606114
  outer loop
   vertex 46.724537 -1000.297119 -47.025055
   vertex 46.503487 -999.590027 -47.217213
   vertex 47.380592 -1000.297119 -47.779766
  endloop
 endfacet
 facet normal -0.288828 -0.923873 -0.251073
  outer loop
   vertex 47.380592 -1000.297119 -47.779766
   vertex 47.914253 -1000.590027 -47.315865
   vertex 46.724537 -1000.297119 -47.025055
  endloop
 endfacet
 facet normal -0.288829 -0.923872 -0.251074
  outer loop
   vertex 46.724537 -1000.297119 -47.025055
   vertex 47.914253 -1000.590027 -47.315865
   vertex 47.258194 -1000.590027 -46.561153
  endloop
 endfacet
 facet normal 0.288827 -0.923873 0.251073
  outer loop
   vertex 47.258194 -1000.590027 -46.561153
   vertex 47.914253 -1000.590027 -47.315865
   vertex 48.447914 -1000.297119 -46.851959
  endloop
 endfacet
 facet normal 0.288827 -0.923873 0.251073
  outer loop
   vertex 48.447914 -1000.297119 -46.851959
   vertex 47.791855 -1000.297119 -46.097248
   vertex 47.258194 -1000.590027 -46.561153
  endloop
 endfacet
 facet normal 0.697259 -0.382690 0.606117
  outer loop
   vertex 48.668964 -999.590027 -46.659805
   vertex 47.791855 -1000.297119 -46.097248
   vertex 48.447914 -1000.297119 -46.851959
  endloop
 endfacet
 facet normal 0.946773 -0.314558 0.068366
  outer loop
   vertex 48.447914 -1000.297119 -46.851959
   vertex 48.758991 -999.590027 -47.906559
   vertex 48.668964 -999.590027 -46.659805
  endloop
 endfacet
 facet normal 0.946764 0.314587 0.068365
  outer loop
   vertex 48.668964 -999.590027 -46.659805
   vertex 48.758991 -999.590027 -47.906559
   vertex 48.703728 -999.413269 -47.954597
  endloop
 endfacet
 facet normal 0.946774 0.314557 0.068361
  outer loop
   vertex 48.703728 -999.413269 -47.954597
   vertex 48.447914 -998.882935 -46.851959
   vertex 48.668964 -999.590027 -46.659805
  endloop
 endfacet
 facet normal 0.611107 0.759354 -0.223448
  outer loop
   vertex 48.570312 -999.340027 -48.070572
   vertex 48.447914 -998.882935 -46.851959
   vertex 48.703728 -999.413269 -47.954597
  endloop
 endfacet
 facet normal 0.611058 0.759389 -0.223466
  outer loop
   vertex 47.914253 -998.590027 -47.315865
   vertex 48.447914 -998.882935 -46.851959
   vertex 48.570312 -999.340027 -48.070572
  endloop
 endfacet
 facet normal 0.136203 0.759375 -0.636238
  outer loop
   vertex 48.570312 -999.340027 -48.070572
   vertex 48.436897 -999.413269 -48.186550
   vertex 47.914253 -998.590027 -47.315865
  endloop
 endfacet
 facet normal 0.136253 0.759383 -0.636217
  outer loop
   vertex 47.914253 -998.590027 -47.315865
   vertex 48.436897 -999.413269 -48.186550
   vertex 47.380592 -998.882935 -47.779766
  endloop
 endfacet
 facet normal -0.199451 0.314578 -0.928041
  outer loop
   vertex 47.380592 -998.882935 -47.779766
   vertex 48.436897 -999.413269 -48.186550
   vertex 48.381634 -999.590027 -48.234589
  endloop
 endfacet
 facet normal -0.199469 0.314555 -0.928045
  outer loop
   vertex 48.381634 -999.590027 -48.234589
   vertex 47.159546 -999.590027 -47.971920
   vertex 47.380592 -998.882935 -47.779766
  endloop
 endfacet
 facet normal -0.199467 -0.314581 -0.928036
  outer loop
   vertex 48.436897 -999.766785 -48.186550
   vertex 47.159546 -999.590027 -47.971920
   vertex 48.381634 -999.590027 -48.234589
  endloop
 endfacet
 facet normal -0.199465 -0.314554 -0.928046
  outer loop
   vertex 47.380592 -1000.297119 -47.779766
   vertex 47.159546 -999.590027 -47.971920
   vertex 48.436897 -999.766785 -48.186550
  endloop
 endfacet
 facet normal 0.136226 -0.759358 -0.636254
  outer loop
   vertex 48.436897 -999.766785 -48.186550
   vertex 48.570312 -999.840027 -48.070572
   vertex 47.380592 -1000.297119 -47.779766
  endloop
 endfacet
 facet normal 0.136247 -0.759388 -0.636213
  outer loop
   vertex 47.380592 -1000.297119 -47.779766
   vertex 48.570312 -999.840027 -48.070572
   vertex 47.914253 -1000.590027 -47.315865
  endloop
 endfacet
 facet normal 0.611094 -0.759374 -0.223420
  outer loop
   vertex 47.914253 -1000.590027 -47.315865
   vertex 48.570312 -999.840027 -48.070572
   vertex 48.703728 -999.766785 -47.954597
  endloop
 endfacet
 facet normal 0.611061 -0.759384 -0.223473
  outer loop
   vertex 48.703728 -999.766785 -47.954597
   vertex 48.447914 -1000.297119 -46.851959
   vertex 47.914253 -1000.590027 -47.315865
  endloop
 endfacet
 facet normal 0.946766 -0.314583 0.068347
  outer loop
   vertex 48.758991 -999.590027 -47.906559
   vertex 48.447914 -1000.297119 -46.851959
   vertex 48.703728 -999.766785 -47.954597
  endloop
 endfacet
 facet normal -0.697253 0.382709 -0.606112
  outer loop
   vertex 41.974571 -999.590027 -55.115871
   vertex 41.318512 -999.590027 -54.361160
   vertex 42.029831 -999.413269 -55.067833
  endloop
 endfacet
 facet normal -0.697251 0.382721 -0.606107
  outer loop
   vertex 42.029831 -999.413269 -55.067833
   vertex 41.318512 -999.590027 -54.361160
   vertex 41.373775 -999.413269 -54.313122
  endloop
 endfacet
 facet normal -0.288877 0.923846 -0.251115
  outer loop
   vertex 41.373775 -999.413269 -54.313122
   vertex 42.163246 -999.340027 -54.951855
   vertex 42.029831 -999.413269 -55.067833
  endloop
 endfacet
 facet normal -0.288880 0.923844 -0.251119
  outer loop
   vertex 41.507191 -999.340027 -54.197147
   vertex 42.163246 -999.340027 -54.951855
   vertex 41.373775 -999.413269 -54.313122
  endloop
 endfacet
 facet normal 0.288880 0.923844 0.251119
  outer loop
   vertex 42.296661 -999.413269 -54.835880
   vertex 42.163246 -999.340027 -54.951855
   vertex 41.507191 -999.340027 -54.197147
  endloop
 endfacet
 facet normal 0.288877 0.923846 0.251115
  outer loop
   vertex 41.507191 -999.340027 -54.197147
   vertex 41.640606 -999.413269 -54.081169
   vertex 42.296661 -999.413269 -54.835880
  endloop
 endfacet
 facet normal 0.697251 0.382721 0.606107
  outer loop
   vertex 42.296661 -999.413269 -54.835880
   vertex 41.640606 -999.413269 -54.081169
   vertex 42.351925 -999.590027 -54.787842
  endloop
 endfacet
 facet normal 0.697253 0.382709 0.606112
  outer loop
   vertex 42.351925 -999.590027 -54.787842
   vertex 41.640606 -999.413269 -54.081169
   vertex 41.695866 -999.590027 -54.033131
  endloop
 endfacet
 facet normal 0.697249 -0.382721 0.606109
  outer loop
   vertex 41.695866 -999.590027 -54.033131
   vertex 42.296661 -999.766785 -54.835880
   vertex 42.351925 -999.590027 -54.787842
  endloop
 endfacet
 facet normal 0.697255 -0.382709 0.606110
  outer loop
   vertex 41.640606 -999.766785 -54.081169
   vertex 42.296661 -999.766785 -54.835880
   vertex 41.695866 -999.590027 -54.033131
  endloop
 endfacet
 facet normal 0.288881 -0.923844 0.251118
  outer loop
   vertex 42.163246 -999.840027 -54.951855
   vertex 42.296661 -999.766785 -54.835880
   vertex 41.640606 -999.766785 -54.081169
  endloop
 endfacet
 facet normal 0.288876 -0.923846 0.251116
  outer loop
   vertex 41.640606 -999.766785 -54.081169
   vertex 41.507191 -999.840027 -54.197147
   vertex 42.163246 -999.840027 -54.951855
  endloop
 endfacet
 facet normal -0.288880 -0.923844 -0.251119
  outer loop
   vertex 42.163246 -999.840027 -54.951855
   vertex 41.507191 -999.840027 -54.197147
   vertex 42.029835 -999.766785 -55.067833
  endloop
 endfacet
 facet normal -0.288880 -0.923844 -0.251119
  outer loop
   vertex 42.029835 -999.766785 -55.067833
   vertex 41.507191 -999.840027 -54.197147
   vertex 41.373775 -999.766785 -54.313122
  endloop
 endfacet
 facet normal -0.697249 -0.382721 -0.606109
  outer loop
   vertex 41.373775 -999.766785 -54.313122
   vertex 41.974571 -999.590027 -55.115871
   vertex 42.029835 -999.766785 -55.067833
  endloop
 endfacet
 facet normal -0.697249 -0.382721 -0.606109
  outer loop
   vertex 41.318512 -999.590027 -54.361160
   vertex 41.974571 -999.590027 -55.115871
   vertex 41.373775 -999.766785 -54.313122
  endloop
 endfacet
 facet normal -0.199451 -0.314578 -0.928041
  outer loop
   vertex 41.380360 -999.766785 -54.320698
   vertex 40.324055 -1000.297119 -53.913914
   vertex 41.325096 -999.590027 -54.368736
  endloop
 endfacet
 facet normal -0.199465 -0.314560 -0.928044
  outer loop
   vertex 41.325096 -999.590027 -54.368736
   vertex 40.324055 -1000.297119 -53.913914
   vertex 40.103004 -999.590027 -54.106071
  endloop
 endfacet
 facet normal -0.199464 0.314581 -0.928037
  outer loop
   vertex 40.103004 -999.590027 -54.106071
   vertex 41.380360 -999.413269 -54.320698
   vertex 41.325096 -999.590027 -54.368736
  endloop
 endfacet
 facet normal -0.199462 0.314559 -0.928045
  outer loop
   vertex 40.324055 -998.882935 -53.913914
   vertex 41.380360 -999.413269 -54.320698
   vertex 40.103004 -999.590027 -54.106071
  endloop
 endfacet
 facet normal 0.136226 0.759358 -0.636254
  outer loop
   vertex 41.513775 -999.340027 -54.204720
   vertex 41.380360 -999.413269 -54.320698
   vertex 40.324055 -998.882935 -53.913914
  endloop
 endfacet
 facet normal 0.136247 0.759388 -0.636213
  outer loop
   vertex 40.324055 -998.882935 -53.913914
   vertex 40.857716 -998.590027 -53.450012
   vertex 41.513775 -999.340027 -54.204720
  endloop
 endfacet
 facet normal 0.611094 0.759374 -0.223420
  outer loop
   vertex 41.513775 -999.340027 -54.204720
   vertex 40.857716 -998.590027 -53.450012
   vertex 41.647190 -999.413269 -54.088745
  endloop
 endfacet
 facet normal 0.611061 0.759384 -0.223473
  outer loop
   vertex 41.647190 -999.413269 -54.088745
   vertex 40.857716 -998.590027 -53.450012
   vertex 41.391376 -998.882935 -52.986107
  endloop
 endfacet
 facet normal 0.946766 0.314583 0.068347
  outer loop
   vertex 41.391376 -998.882935 -52.986107
   vertex 41.702454 -999.590027 -54.040707
   vertex 41.647190 -999.413269 -54.088745
  endloop
 endfacet
 facet normal 0.946773 0.314558 0.068366
  outer loop
   vertex 41.612427 -999.590027 -52.793953
   vertex 41.702454 -999.590027 -54.040707
   vertex 41.391376 -998.882935 -52.986107
  endloop
 endfacet
 facet normal 0.946764 -0.314587 0.068365
  outer loop
   vertex 41.647190 -999.766785 -54.088745
   vertex 41.702454 -999.590027 -54.040707
   vertex 41.612427 -999.590027 -52.793953
  endloop
 endfacet
 facet normal 0.946774 -0.314557 0.068361
  outer loop
   vertex 41.612427 -999.590027 -52.793953
   vertex 41.391376 -1000.297119 -52.986107
   vertex 41.647190 -999.766785 -54.088745
  endloop
 endfacet
 facet normal 0.611107 -0.759354 -0.223448
  outer loop
   vertex 41.647190 -999.766785 -54.088745
   vertex 41.391376 -1000.297119 -52.986107
   vertex 41.513775 -999.840027 -54.204720
  endloop
 endfacet
 facet normal 0.611058 -0.759389 -0.223466
  outer loop
   vertex 41.513775 -999.840027 -54.204720
   vertex 41.391376 -1000.297119 -52.986107
   vertex 40.857716 -1000.590027 -53.450012
  endloop
 endfacet
 facet normal 0.136203 -0.759375 -0.636238
  outer loop
   vertex 40.857716 -1000.590027 -53.450012
   vertex 41.380360 -999.766785 -54.320698
   vertex 41.513775 -999.840027 -54.204720
  endloop
 endfacet
 facet normal 0.136253 -0.759383 -0.636217
  outer loop
   vertex 40.324055 -1000.297119 -53.913914
   vertex 41.380360 -999.766785 -54.320698
   vertex 40.857716 -1000.590027 -53.450012
  endloop
 endfacet
endsolid