solid stl file generated from DOUG
 facet normal -0.728360 -0.593661 -0.342137
  outer loop
   vertex -20.672464 -1032.502808 44.487511
   vertex -20.599268 -1032.612427 44.521893
   vertex -24.531849 -1032.612427 52.893799
  endloop
 endfacet
 facet normal -0.000000 -1.000000 -0.000000
  outer loop
   vertex -24.531849 -1032.612427 52.893799
   vertex -20.599268 -1032.612427 44.521893
   vertex -24.438843 -1032.612427 52.937489
  endloop
 endfacet
 facet normal 0.728360 -0.593661 0.342137
  outer loop
   vertex -25.604776 -1032.502808 52.389809
   vertex -25.677973 -1032.612427 52.355427
   vertex -21.745392 -1032.612427 43.983521
  endloop
 endfacet
 facet normal -0.000000 -1.000000 -0.000000
  outer loop
   vertex -21.745392 -1032.612427 43.983521
   vertex -25.677973 -1032.612427 52.355427
   vertex -25.770979 -1032.612427 52.311737
  endloop
 endfacet
 facet normal 0.000000 -1.000000 0.000000
  outer loop
   vertex -25.770979 -1032.612427 52.311737
   vertex -21.838398 -1032.612427 43.939831
   vertex -21.745392 -1032.612427 43.983521
  endloop
 endfacet
 facet normal -0.324895 -0.933355 -0.152614
  outer loop
   vertex -25.770979 -1031.879639 52.311737
   vertex -21.838398 -1031.879639 43.939831
   vertex -25.742537 -1031.891724 52.325096
  endloop
 endfacet
 facet normal -0.324895 -0.933355 -0.152614
  outer loop
   vertex -25.742537 -1031.891724 52.325096
   vertex -21.838398 -1031.879639 43.939831
   vertex -21.809956 -1031.891724 43.953190
  endloop
 endfacet
 facet normal -0.905116 0.000003 -0.425165
  outer loop
   vertex -21.809956 -1031.891724 43.953190
   vertex -21.809958 -1032.466919 43.953190
   vertex -25.742537 -1031.891724 52.325096
  endloop
 endfacet
 facet normal -0.728366 -0.593653 -0.342139
  outer loop
   vertex -24.531849 -1032.612427 52.893799
   vertex -24.605043 -1032.502808 52.859417
   vertex -20.672464 -1032.502808 44.487511
  endloop
 endfacet
 facet normal -0.000000 -1.000000 -0.000000
  outer loop
   vertex -20.672464 -1032.502808 44.487511
   vertex -24.605043 -1032.502808 52.859417
   vertex -25.604776 -1032.502808 52.389809
  endloop
 endfacet
 facet normal 0.000000 -1.000000 0.000000
  outer loop
   vertex -25.604776 -1032.502808 52.389809
   vertex -21.672197 -1032.502808 44.017902
   vertex -20.672464 -1032.502808 44.487511
  endloop
 endfacet
 facet normal 0.728366 -0.593653 0.342139
  outer loop
   vertex -21.745392 -1032.612427 43.983521
   vertex -21.672197 -1032.502808 44.017902
   vertex -25.604776 -1032.502808 52.389809
  endloop
 endfacet
 facet normal -0.905116 0.000000 -0.425165
  outer loop
   vertex -21.838398 -1032.612427 43.939831
   vertex -25.770979 -1032.612427 52.311737
   vertex -21.838398 -1032.479004 43.939831
  endloop
 endfacet
 facet normal -0.905116 0.000000 -0.425165
  outer loop
   vertex -21.838398 -1032.479004 43.939831
   vertex -25.770979 -1032.612427 52.311737
   vertex -25.770979 -1032.479004 52.311737
  endloop
 endfacet
 facet normal -0.324910 0.933349 -0.152622
  outer loop
   vertex -25.770979 -1032.479004 52.311737
   vertex -21.809958 -1032.466919 43.953190
   vertex -21.838398 -1032.479004 43.939831
  endloop
 endfacet
 facet normal -0.324895 0.933355 -0.152614
  outer loop
   vertex -25.742537 -1032.466919 52.325096
   vertex -21.809958 -1032.466919 43.953190
   vertex -25.770979 -1032.479004 52.311737
  endloop
 endfacet
 facet normal -0.905116 0.000000 -0.425165
  outer loop
   vertex -25.742537 -1031.891724 52.325096
   vertex -21.809958 -1032.466919 43.953190
   vertex -25.742537 -1032.466919 52.325096
  endloop
 endfacet
 facet normal -0.425165 0.000000 0.905116
  outer loop
   vertex -24.652300 -1032.631104 53.431992
   vertex -26.015285 -1031.790649 52.791748
   vertex -26.015285 -1032.631104 52.791748
  endloop
 endfacet
 facet normal -0.905115 -0.000000 -0.425166
  outer loop
   vertex -26.015285 -1032.631104 52.791748
   vertex -26.015285 -1031.790649 52.791748
   vertex -25.590120 -1032.631104 51.886635
  endloop
 endfacet
 facet normal -0.000000 -1.000000 0.000000
  outer loop
   vertex -25.590120 -1032.631104 51.886635
   vertex -24.227135 -1032.631104 52.526875
   vertex -26.015285 -1032.631104 52.791748
  endloop
 endfacet
 facet normal 0.425163 -0.000000 -0.905117
  outer loop
   vertex -25.590120 -1031.790649 51.886635
   vertex -24.227135 -1032.631104 52.526875
   vertex -25.590120 -1032.631104 51.886635
  endloop
 endfacet
 facet normal 0.425163 0.000000 -0.905117
  outer loop
   vertex -24.227135 -1031.790649 52.526875
   vertex -24.227135 -1032.631104 52.526875
   vertex -25.590120 -1031.790649 51.886635
  endloop
 endfacet
 facet normal -0.000000 1.000000 -0.000000
  outer loop
   vertex -25.590120 -1031.790649 51.886635
   vertex -26.015285 -1031.790649 52.791748
   vertex -24.227135 -1031.790649 52.526875
  endloop
 endfacet
 facet normal -0.000000 1.000000 0.000000
  outer loop
   vertex -24.227135 -1031.790649 52.526875
   vertex -26.015285 -1031.790649 52.791748
   vertex -24.652300 -1031.790649 53.431992
  endloop
 endfacet
 facet normal -0.425165 -0.000000 0.905116
  outer loop
   vertex -24.652300 -1031.790649 53.431992
   vertex -26.015285 -1031.790649 52.791748
   vertex -24.652300 -1032.631104 53.431992
  endloop
 endfacet
 facet normal 0.905116 0.000000 0.425165
  outer loop
   vertex -24.652300 -1032.631104 53.431992
   vertex -24.227135 -1032.631104 52.526875
   vertex -24.652300 -1031.790649 53.431992
  endloop
 endfacet
 facet normal -0.000000 -1.000000 -0.000000
  outer loop
   vertex -26.015285 -1032.631104 52.791748
   vertex -24.227135 -1032.631104 52.526875
   vertex -24.652300 -1032.631104 53.431992
  endloop
 endfacet
 facet normal -0.425163 0.000000 0.905117
  outer loop
   vertex -22.050106 -1032.631104 44.350445
   vertex -20.687120 -1032.631104 44.990685
   vertex -22.050106 -1031.790649 44.350445
  endloop
 endfacet
 facet normal -0.425163 -0.000000 0.905117
  outer loop
   vertex -22.050106 -1031.790649 44.350445
   vertex -20.687120 -1032.631104 44.990685
   vertex -20.687120 -1031.790649 44.990685
  endloop
 endfacet
 facet normal 0.000000 1.000000 0.000000
  outer loop
   vertex -20.687120 -1031.790649 44.990685
   vertex -20.261955 -1031.790649 44.085571
   vertex -22.050106 -1031.790649 44.350445
  endloop
 endfacet
 facet normal 0.905115 -0.000000 0.425166
  outer loop
   vertex -20.687120 -1032.631104 44.990685
   vertex -20.261955 -1031.790649 44.085571
   vertex -20.687120 -1031.790649 44.990685
  endloop
 endfacet
 facet normal 0.905115 0.000000 0.425166
  outer loop
   vertex -20.261955 -1032.631104 44.085571
   vertex -20.261955 -1031.790649 44.085571
   vertex -20.687120 -1032.631104 44.990685
  endloop
 endfacet
 facet normal -0.000000 -1.000000 -0.000000
  outer loop
   vertex -20.687120 -1032.631104 44.990685
   vertex -21.624941 -1032.631104 43.445328
   vertex -20.261955 -1032.631104 44.085571
  endloop
 endfacet
 facet normal 0.425165 0.000000 -0.905116
  outer loop
   vertex -20.261955 -1032.631104 44.085571
   vertex -21.624941 -1032.631104 43.445328
   vertex -20.261955 -1031.790649 44.085571
  endloop
 endfacet
 facet normal 0.425165 -0.000000 -0.905116
  outer loop
   vertex -20.261955 -1031.790649 44.085571
   vertex -21.624941 -1032.631104 43.445328
   vertex -21.624941 -1031.790649 43.445328
  endloop
 endfacet
 facet normal 0.000000 1.000000 0.000000
  outer loop
   vertex -21.624941 -1031.790649 43.445328
   vertex -22.050106 -1031.790649 44.350445
   vertex -20.261955 -1031.790649 44.085571
  endloop
 endfacet
 facet normal -0.905116 -0.000000 -0.425165
  outer loop
   vertex -21.624941 -1032.631104 43.445328
   vertex -22.050106 -1031.790649 44.350445
   vertex -21.624941 -1031.790649 43.445328
  endloop
 endfacet
 facet normal -0.905116 -0.000000 -0.425165
  outer loop
   vertex -22.050106 -1032.631104 44.350445
   vertex -22.050106 -1031.790649 44.350445
   vertex -21.624941 -1032.631104 43.445328
  endloop
 endfacet
 facet normal -0.000000 -1.000000 -0.000000
  outer loop
   vertex -21.624941 -1032.631104 43.445328
   vertex -20.687120 -1032.631104 44.990685
   vertex -22.050106 -1032.631104 44.350445
  endloop
 endfacet
 facet normal -0.000000 -1.000000 0.000000
  outer loop
   vertex -20.599268 -1032.612427 44.521893
   vertex -20.506262 -1032.612427 44.565582
   vertex -24.438843 -1032.612427 52.937489
  endloop
 endfacet
 facet normal 0.905116 -0.000000 0.425165
  outer loop
   vertex -24.438843 -1032.612427 52.937489
   vertex -20.506262 -1032.612427 44.565582
   vertex -20.506262 -1032.479004 44.565582
  endloop
 endfacet
 facet normal 0.905116 0.000000 0.425165
  outer loop
   vertex -20.506262 -1032.479004 44.565582
   vertex -24.438843 -1032.479004 52.937489
   vertex -24.438843 -1032.612427 52.937489
  endloop
 endfacet
 facet normal 0.324895 0.933355 0.152614
  outer loop
   vertex -20.534704 -1032.466919 44.552223
   vertex -24.438843 -1032.479004 52.937489
   vertex -20.506262 -1032.479004 44.565582
  endloop
 endfacet
 facet normal 0.324895 0.933355 0.152614
  outer loop
   vertex -24.467285 -1032.466919 52.924129
   vertex -24.438843 -1032.479004 52.937489
   vertex -20.534704 -1032.466919 44.552223
  endloop
 endfacet
 facet normal 0.905116 0.000000 0.425165
  outer loop
   vertex -20.534704 -1032.466919 44.552223
   vertex -20.534704 -1031.891724 44.552223
   vertex -24.467285 -1032.466919 52.924129
  endloop
 endfacet
 facet normal 0.905116 0.000000 0.425165
  outer loop
   vertex -24.467285 -1032.466919 52.924129
   vertex -20.534704 -1031.891724 44.552223
   vertex -24.467285 -1031.891724 52.924129
  endloop
 endfacet
 facet normal 0.324895 -0.933355 0.152614
  outer loop
   vertex -24.467285 -1031.891724 52.924129
   vertex -20.534704 -1031.891724 44.552223
   vertex -20.506262 -1031.879639 44.565582
  endloop
 endfacet
 facet normal 0.324895 -0.933355 0.152614
  outer loop
   vertex -20.506262 -1031.879639 44.565582
   vertex -24.438843 -1031.879639 52.937489
   vertex -24.467285 -1031.891724 52.924129
  endloop
 endfacet
 facet normal 0.905116 -0.000000 0.425165
  outer loop
   vertex -20.506262 -1031.813477 44.565582
   vertex -24.438843 -1031.879639 52.937489
   vertex -20.506262 -1031.879639 44.565582
  endloop
 endfacet
 facet normal 0.905116 -0.000000 0.425165
  outer loop
   vertex -24.438843 -1031.813477 52.937489
   vertex -24.438843 -1031.879639 52.937489
   vertex -20.506262 -1031.813477 44.565582
  endloop
 endfacet
 facet normal -0.000000 1.000000 -0.000000
  outer loop
   vertex -20.506262 -1031.813477 44.565582
   vertex -21.838398 -1031.813477 43.939831
   vertex -24.438843 -1031.813477 52.937489
  endloop
 endfacet
 facet normal 0.000000 1.000000 0.000000
  outer loop
   vertex -24.438843 -1031.813477 52.937489
   vertex -21.838398 -1031.813477 43.939831
   vertex -25.770979 -1031.813477 52.311737
  endloop
 endfacet
 facet normal -0.905116 -0.000000 -0.425165
  outer loop
   vertex -25.770979 -1031.813477 52.311737
   vertex -21.838398 -1031.813477 43.939831
   vertex -25.770979 -1031.879639 52.311737
  endloop
 endfacet
 facet normal -0.905115 0.000000 -0.425166
  outer loop
   vertex -25.590120 -1031.790649 51.886635
   vertex -25.590120 -1032.631104 51.886635
   vertex -26.015285 -1031.790649 52.791748
  endloop
 endfacet
 facet normal 0.905116 0.000000 0.425165
  outer loop
   vertex -24.227135 -1032.631104 52.526875
   vertex -24.227135 -1031.790649 52.526875
   vertex -24.652300 -1031.790649 53.431992
  endloop
 endfacet
 facet normal -0.905116 0.000000 -0.425165
  outer loop
   vertex -21.838398 -1031.813477 43.939831
   vertex -21.838398 -1031.879639 43.939831
   vertex -25.770979 -1031.879639 52.311737
  endloop
 endfacet
 facet normal 0.739174 0.000000 -0.673515
  outer loop
   vertex -20.725809 -1029.850098 43.302128
   vertex -20.725809 -1028.850098 43.302128
   vertex -20.210323 -1029.850098 43.867867
  endloop
 endfacet
 facet normal 0.739174 -0.000000 -0.673515
  outer loop
   vertex -20.210323 -1029.850098 43.867867
   vertex -20.725809 -1028.850098 43.302128
   vertex -20.210323 -1028.850098 43.867867
  endloop
 endfacet
 facet normal 0.998922 0.000000 0.046427
  outer loop
   vertex -20.210323 -1028.850098 43.867867
   vertex -20.245857 -1029.850098 44.632408
   vertex -20.210323 -1029.850098 43.867867
  endloop
 endfacet
 facet normal 0.998922 -0.000000 0.046427
  outer loop
   vertex -20.245857 -1028.850098 44.632408
   vertex -20.245857 -1029.850098 44.632408
   vertex -20.210323 -1028.850098 43.867867
  endloop
 endfacet
 facet normal 0.673512 -0.000000 0.739176
  outer loop
   vertex -20.811598 -1029.850098 45.147892
   vertex -20.245857 -1029.850098 44.632408
   vertex -20.245857 -1028.850098 44.632408
  endloop
 endfacet
 facet normal 0.673514 -0.000001 0.739175
  outer loop
   vertex -20.245857 -1028.850098 44.632408
   vertex -20.811596 -1028.850098 45.147892
   vertex -20.811598 -1029.850098 45.147892
  endloop
 endfacet
 facet normal -0.046427 0.000000 0.998922
  outer loop
   vertex -20.811598 -1029.850098 45.147892
   vertex -20.811596 -1028.850098 45.147892
   vertex -21.576138 -1029.850098 45.112358
  endloop
 endfacet
 facet normal -0.046427 -0.000000 0.998922
  outer loop
   vertex -21.576138 -1029.850098 45.112358
   vertex -20.811596 -1028.850098 45.147892
   vertex -21.576138 -1028.850098 45.112358
  endloop
 endfacet
 facet normal -0.739174 0.000000 0.673515
  outer loop
   vertex -21.576138 -1028.850098 45.112358
   vertex -22.091623 -1029.850098 44.546619
   vertex -21.576138 -1029.850098 45.112358
  endloop
 endfacet
 facet normal -0.739174 -0.000000 0.673515
  outer loop
   vertex -22.091623 -1028.850098 44.546619
   vertex -22.091623 -1029.850098 44.546619
   vertex -21.576138 -1028.850098 45.112358
  endloop
 endfacet
 facet normal -0.998922 0.000000 -0.046427
  outer loop
   vertex -22.056089 -1029.850098 43.782078
   vertex -22.091623 -1029.850098 44.546619
   vertex -22.091623 -1028.850098 44.546619
  endloop
 endfacet
 facet normal -0.998922 -0.000000 -0.046427
  outer loop
   vertex -22.091623 -1028.850098 44.546619
   vertex -22.056089 -1028.850098 43.782078
   vertex -22.056089 -1029.850098 43.782078
  endloop
 endfacet
 facet normal -0.673516 -0.000000 -0.739172
  outer loop
   vertex -22.056089 -1029.850098 43.782078
   vertex -22.056089 -1028.850098 43.782078
   vertex -21.490351 -1029.850098 43.266590
  endloop
 endfacet
 facet normal -0.673514 0.000003 -0.739175
  outer loop
   vertex -21.490351 -1029.850098 43.266590
   vertex -22.056089 -1028.850098 43.782078
   vertex -21.490351 -1028.850098 43.266594
  endloop
 endfacet
 facet normal 0.046432 0.000004 -0.998921
  outer loop
   vertex -21.490351 -1028.850098 43.266594
   vertex -20.725809 -1029.850098 43.302128
   vertex -21.490351 -1029.850098 43.266590
  endloop
 endfacet
 facet normal 0.046427 -0.000000 -0.998922
  outer loop
   vertex -20.725809 -1028.850098 43.302128
   vertex -20.725809 -1029.850098 43.302128
   vertex -21.490351 -1028.850098 43.266594
  endloop
 endfacet
 facet normal -0.739170 0.000000 0.673519
  outer loop
   vertex -25.361429 -1030.840088 52.754921
   vertex -25.232557 -1031.840088 52.896355
   vertex -25.232557 -1030.840088 52.896355
  endloop
 endfacet
 facet normal -0.046432 -0.000000 0.998921
  outer loop
   vertex -25.232557 -1030.840088 52.896355
   vertex -25.232557 -1031.840088 52.896355
   vertex -25.041422 -1031.840088 52.905239
  endloop
 endfacet
 facet normal -0.046432 0.000000 0.998921
  outer loop
   vertex -25.041422 -1031.840088 52.905239
   vertex -25.041422 -1030.840088 52.905239
   vertex -25.232557 -1030.840088 52.896355
  endloop
 endfacet
 facet normal 0.673519 0.000000 0.739170
  outer loop
   vertex -24.899988 -1031.840088 52.776367
   vertex -25.041422 -1030.840088 52.905239
   vertex -25.041422 -1031.840088 52.905239
  endloop
 endfacet
 facet normal 0.673514 -0.000001 0.739175
  outer loop
   vertex -24.899986 -1030.840088 52.776367
   vertex -25.041422 -1030.840088 52.905239
   vertex -24.899988 -1031.840088 52.776367
  endloop
 endfacet
 facet normal 0.998921 -0.000002 0.046432
  outer loop
   vertex -24.899988 -1031.840088 52.776367
   vertex -24.891104 -1031.840088 52.585232
   vertex -24.899986 -1030.840088 52.776367
  endloop
 endfacet
 facet normal 0.998922 -0.000000 0.046422
  outer loop
   vertex -24.899986 -1030.840088 52.776367
   vertex -24.891104 -1031.840088 52.585232
   vertex -24.891104 -1030.840088 52.585232
  endloop
 endfacet
 facet normal 0.739170 -0.000000 -0.673519
  outer loop
   vertex -24.891104 -1030.840088 52.585232
   vertex -24.891104 -1031.840088 52.585232
   vertex -25.019976 -1031.840088 52.443798
  endloop
 endfacet
 facet normal 0.739170 0.000000 -0.673519
  outer loop
   vertex -25.019976 -1031.840088 52.443798
   vertex -25.019976 -1030.840088 52.443798
   vertex -24.891104 -1030.840088 52.585232
  endloop
 endfacet
 facet normal 0.046432 -0.000000 -0.998921
  outer loop
   vertex -25.211111 -1031.840088 52.434914
   vertex -25.019976 -1030.840088 52.443798
   vertex -25.019976 -1031.840088 52.443798
  endloop
 endfacet
 facet normal 0.046433 -0.000000 -0.998921
  outer loop
   vertex -25.211109 -1030.840088 52.434914
   vertex -25.019976 -1030.840088 52.443798
   vertex -25.211111 -1031.840088 52.434914
  endloop
 endfacet
 facet normal -0.673519 0.000001 -0.739170
  outer loop
   vertex -25.211111 -1031.840088 52.434914
   vertex -25.352545 -1031.840088 52.563786
   vertex -25.211109 -1030.840088 52.434914
  endloop
 endfacet
 facet normal -0.673514 0.000000 -0.739175
  outer loop
   vertex -25.211109 -1030.840088 52.434914
   vertex -25.352545 -1031.840088 52.563786
   vertex -25.352545 -1030.840088 52.563786
  endloop
 endfacet
 facet normal -0.998921 0.000000 -0.046432
  outer loop
   vertex -25.352545 -1030.840088 52.563786
   vertex -25.352545 -1031.840088 52.563786
   vertex -25.361429 -1031.840088 52.754921
  endloop
 endfacet
 facet normal -0.998921 -0.000000 -0.046432
  outer loop
   vertex -25.361429 -1031.840088 52.754921
   vertex -25.361429 -1030.840088 52.754921
   vertex -25.352545 -1030.840088 52.563786
  endloop
 endfacet
 facet normal -0.739170 -0.000000 0.673519
  outer loop
   vertex -25.232557 -1031.840088 52.896355
   vertex -25.361429 -1030.840088 52.754921
   vertex -25.361429 -1031.840088 52.754921
  endloop
 endfacet
 facet normal -0.739174 0.000000 0.673515
  outer loop
   vertex -26.066916 -1028.850098 53.009453
   vertex -25.551430 -1029.850098 53.575191
   vertex -25.551430 -1028.850098 53.575191
  endloop
 endfacet
 facet normal -0.046432 -0.000000 0.998921
  outer loop
   vertex -25.551430 -1028.850098 53.575191
   vertex -25.551430 -1029.850098 53.575191
   vertex -24.786888 -1029.850098 53.610729
  endloop
 endfacet
 facet normal -0.046432 0.000000 0.998921
  outer loop
   vertex -24.786888 -1029.850098 53.610729
   vertex -24.786888 -1028.850098 53.610729
   vertex -25.551430 -1028.850098 53.575191
  endloop
 endfacet
 facet normal 0.673516 0.000000 0.739172
  outer loop
   vertex -24.221149 -1029.850098 53.095242
   vertex -24.786888 -1028.850098 53.610729
   vertex -24.786888 -1029.850098 53.610729
  endloop
 endfacet
 facet normal 0.673516 0.000000 0.739172
  outer loop
   vertex -24.221149 -1028.850098 53.095242
   vertex -24.786888 -1028.850098 53.610729
   vertex -24.221149 -1029.850098 53.095242
  endloop
 endfacet
 facet normal 0.998922 -0.000000 0.046427
  outer loop
   vertex -24.221149 -1029.850098 53.095242
   vertex -24.185616 -1029.850098 52.330700
   vertex -24.221149 -1028.850098 53.095242
  endloop
 endfacet
 facet normal 0.998922 -0.000000 0.046427
  outer loop
   vertex -24.221149 -1028.850098 53.095242
   vertex -24.185616 -1029.850098 52.330700
   vertex -24.185616 -1028.850098 52.330700
  endloop
 endfacet
 facet normal 0.739174 -0.000000 -0.673515
  outer loop
   vertex -24.185616 -1028.850098 52.330700
   vertex -24.185616 -1029.850098 52.330700
   vertex -24.701101 -1029.850098 51.764961
  endloop
 endfacet
 facet normal 0.739175 -0.000001 -0.673514
  outer loop
   vertex -24.701101 -1029.850098 51.764961
   vertex -24.701099 -1028.850098 51.764961
   vertex -24.185616 -1028.850098 52.330700
  endloop
 endfacet
 facet normal 0.046427 -0.000000 -0.998922
  outer loop
   vertex -25.465643 -1029.850098 51.729427
   vertex -24.701099 -1028.850098 51.764961
   vertex -24.701101 -1029.850098 51.764961
  endloop
 endfacet
 facet normal 0.046427 -0.000000 -0.998922
  outer loop
   vertex -25.465641 -1028.850098 51.729427
   vertex -24.701099 -1028.850098 51.764961
   vertex -25.465643 -1029.850098 51.729427
  endloop
 endfacet
 facet normal -0.673514 0.000001 -0.739175
  outer loop
   vertex -25.465643 -1029.850098 51.729427
   vertex -26.031382 -1029.850098 52.244911
   vertex -25.465641 -1028.850098 51.729427
  endloop
 endfacet
 facet normal -0.673512 0.000000 -0.739176
  outer loop
   vertex -25.465641 -1028.850098 51.729427
   vertex -26.031382 -1029.850098 52.244911
   vertex -26.031382 -1028.850098 52.244911
  endloop
 endfacet
 facet normal -0.998922 0.000000 -0.046430
  outer loop
   vertex -26.031382 -1028.850098 52.244911
   vertex -26.031382 -1029.850098 52.244911
   vertex -26.066917 -1029.850098 53.009453
  endloop
 endfacet
 facet normal -0.998922 0.000002 -0.046427
  outer loop
   vertex -26.066917 -1029.850098 53.009453
   vertex -26.066916 -1028.850098 53.009453
   vertex -26.031382 -1028.850098 52.244911
  endloop
 endfacet
 facet normal -0.739172 0.000001 0.673516
  outer loop
   vertex -25.551430 -1029.850098 53.575191
   vertex -26.066916 -1028.850098 53.009453
   vertex -26.066917 -1029.850098 53.009453
  endloop
 endfacet
 facet normal -0.607571 -0.569544 0.553604
  outer loop
   vertex -26.066917 -1029.850098 53.009453
   vertex -25.232557 -1030.850098 52.896355
   vertex -25.551430 -1029.850098 53.575191
  endloop
 endfacet
 facet normal -0.038165 -0.569545 0.821074
  outer loop
   vertex -25.551430 -1029.850098 53.575191
   vertex -25.232557 -1030.850098 52.896355
   vertex -25.041422 -1030.850098 52.905239
  endloop
 endfacet
 facet normal -0.038165 -0.569545 0.821074
  outer loop
   vertex -25.041422 -1030.850098 52.905239
   vertex -24.786888 -1029.850098 53.610729
   vertex -25.551430 -1029.850098 53.575191
  endloop
 endfacet
 facet normal 0.553601 -0.569546 0.607572
  outer loop
   vertex -24.899986 -1030.850098 52.776367
   vertex -24.786888 -1029.850098 53.610729
   vertex -25.041422 -1030.850098 52.905239
  endloop
 endfacet
 facet normal 0.553604 -0.569545 0.607570
  outer loop
   vertex -24.221149 -1029.850098 53.095242
   vertex -24.786888 -1029.850098 53.610729
   vertex -24.899986 -1030.850098 52.776367
  endloop
 endfacet
 facet normal 0.821075 -0.569543 0.038157
  outer loop
   vertex -24.899986 -1030.850098 52.776367
   vertex -24.891104 -1030.850098 52.585232
   vertex -24.221149 -1029.850098 53.095242
  endloop
 endfacet
 facet normal 0.821074 -0.569545 0.038161
  outer loop
   vertex -24.221149 -1029.850098 53.095242
   vertex -24.891104 -1030.850098 52.585232
   vertex -24.185616 -1029.850098 52.330700
  endloop
 endfacet
 facet normal 0.607569 -0.569543 -0.553606
  outer loop
   vertex -24.185616 -1029.850098 52.330700
   vertex -24.891104 -1030.850098 52.585232
   vertex -25.019976 -1030.850098 52.443798
  endloop
 endfacet
 facet normal 0.607571 -0.569545 -0.553603
  outer loop
   vertex -25.019976 -1030.850098 52.443798
   vertex -24.701101 -1029.850098 51.764961
   vertex -24.185616 -1029.850098 52.330700
  endloop
 endfacet
 facet normal 0.038166 -0.569545 -0.821074
  outer loop
   vertex -25.211109 -1030.850098 52.434914
   vertex -24.701101 -1029.850098 51.764961
   vertex -25.019976 -1030.850098 52.443798
  endloop
 endfacet
 facet normal 0.038161 -0.569544 -0.821075
  outer loop
   vertex -25.465643 -1029.850098 51.729427
   vertex -24.701101 -1029.850098 51.764961
   vertex -25.211109 -1030.850098 52.434914
  endloop
 endfacet
 facet normal -0.553602 -0.569544 -0.607572
  outer loop
   vertex -25.211109 -1030.850098 52.434914
   vertex -25.352545 -1030.850098 52.563786
   vertex -25.465643 -1029.850098 51.729427
  endloop
 endfacet
 facet normal -0.553602 -0.569544 -0.607573
  outer loop
   vertex -25.465643 -1029.850098 51.729427
   vertex -25.352545 -1030.850098 52.563786
   vertex -26.031382 -1029.850098 52.244911
  endloop
 endfacet
 facet normal -0.821074 -0.569545 -0.038165
  outer loop
   vertex -26.031382 -1029.850098 52.244911
   vertex -25.352545 -1030.850098 52.563786
   vertex -25.361429 -1030.850098 52.754921
  endloop
 endfacet
 facet normal -0.821074 -0.569544 -0.038163
  outer loop
   vertex -25.361429 -1030.850098 52.754921
   vertex -26.066917 -1029.850098 53.009453
   vertex -26.031382 -1029.850098 52.244911
  endloop
 endfacet
 facet normal -0.607569 -0.569543 0.553606
  outer loop
   vertex -25.232557 -1030.850098 52.896355
   vertex -26.066917 -1029.850098 53.009453
   vertex -25.361429 -1030.850098 52.754921
  endloop
 endfacet
 facet normal 0.739170 0.000000 -0.673519
  outer loop
   vertex -21.044683 -1031.840088 43.980965
   vertex -21.044683 -1030.840088 43.980965
   vertex -20.915812 -1031.840088 44.122398
  endloop
 endfacet
 facet normal 0.739170 -0.000000 -0.673519
  outer loop
   vertex -20.915812 -1031.840088 44.122398
   vertex -21.044683 -1030.840088 43.980965
   vertex -20.915812 -1030.840088 44.122398
  endloop
 endfacet
 facet normal 0.998921 0.000000 0.046432
  outer loop
   vertex -20.915812 -1030.840088 44.122398
   vertex -20.924696 -1031.840088 44.313534
   vertex -20.915812 -1031.840088 44.122398
  endloop
 endfacet
 facet normal 0.998922 -0.000002 0.046422
  outer loop
   vertex -20.924694 -1030.840088 44.313534
   vertex -20.924696 -1031.840088 44.313534
   vertex -20.915812 -1030.840088 44.122398
  endloop
 endfacet
 facet normal 0.673519 -0.000001 0.739170
  outer loop
   vertex -21.066130 -1031.840088 44.442406
   vertex -20.924696 -1031.840088 44.313534
   vertex -20.924694 -1030.840088 44.313534
  endloop
 endfacet
 facet normal 0.673514 0.000000 0.739175
  outer loop
   vertex -20.924694 -1030.840088 44.313534
   vertex -21.066130 -1030.840088 44.442406
   vertex -21.066130 -1031.840088 44.442406
  endloop
 endfacet
 facet normal -0.046432 0.000000 0.998921
  outer loop
   vertex -21.066130 -1031.840088 44.442406
   vertex -21.066130 -1030.840088 44.442406
   vertex -21.257265 -1031.840088 44.433521
  endloop
 endfacet
 facet normal -0.046432 -0.000000 0.998921
  outer loop
   vertex -21.257265 -1031.840088 44.433521
   vertex -21.066130 -1030.840088 44.442406
   vertex -21.257265 -1030.840088 44.433521
  endloop
 endfacet
 facet normal -0.739170 0.000000 0.673519
  outer loop
   vertex -21.257265 -1030.840088 44.433521
   vertex -21.386137 -1031.840088 44.292088
   vertex -21.257265 -1031.840088 44.433521
  endloop
 endfacet
 facet normal -0.739170 -0.000000 0.673519
  outer loop
   vertex -21.386137 -1030.840088 44.292088
   vertex -21.386137 -1031.840088 44.292088
   vertex -21.257265 -1030.840088 44.433521
  endloop
 endfacet
 facet normal -0.998921 0.000000 -0.046432
  outer loop
   vertex -21.377253 -1031.840088 44.100952
   vertex -21.386137 -1031.840088 44.292088
   vertex -21.386137 -1030.840088 44.292088
  endloop
 endfacet
 facet normal -0.998921 -0.000000 -0.046432
  outer loop
   vertex -21.386137 -1030.840088 44.292088
   vertex -21.377253 -1030.840088 44.100952
   vertex -21.377253 -1031.840088 44.100952
  endloop
 endfacet
 facet normal -0.673519 -0.000000 -0.739170
  outer loop
   vertex -21.377253 -1031.840088 44.100952
   vertex -21.377253 -1030.840088 44.100952
   vertex -21.235819 -1031.840088 43.972080
  endloop
 endfacet
 facet normal -0.673519 -0.000000 -0.739170
  outer loop
   vertex -21.235819 -1031.840088 43.972080
   vertex -21.377253 -1030.840088 44.100952
   vertex -21.235819 -1030.840088 43.972080
  endloop
 endfacet
 facet normal 0.046432 0.000000 -0.998921
  outer loop
   vertex -21.235819 -1030.840088 43.972080
   vertex -21.044683 -1031.840088 43.980965
   vertex -21.235819 -1031.840088 43.972080
  endloop
 endfacet
 facet normal 0.046432 -0.000000 -0.998921
  outer loop
   vertex -21.044683 -1030.840088 43.980965
   vertex -21.044683 -1031.840088 43.980965
   vertex -21.235819 -1030.840088 43.972080
  endloop
 endfacet
 facet normal 0.038165 -0.569545 -0.821074
  outer loop
   vertex -21.235819 -1030.850098 43.972080
   vertex -21.490351 -1029.850098 43.266590
   vertex -21.044683 -1030.850098 43.980965
  endloop
 endfacet
 facet normal 0.038165 -0.569545 -0.821074
  outer loop
   vertex -21.044683 -1030.850098 43.980965
   vertex -21.490351 -1029.850098 43.266590
   vertex -20.725809 -1029.850098 43.302128
  endloop
 endfacet
 facet normal 0.607568 -0.569546 -0.553605
  outer loop
   vertex -20.725809 -1029.850098 43.302128
   vertex -20.915812 -1030.850098 44.122398
   vertex -21.044683 -1030.850098 43.980965
  endloop
 endfacet
 facet normal 0.607572 -0.569544 -0.553603
  outer loop
   vertex -20.210323 -1029.850098 43.867867
   vertex -20.915812 -1030.850098 44.122398
   vertex -20.725809 -1029.850098 43.302128
  endloop
 endfacet
 facet normal 0.821074 -0.569546 0.038157
  outer loop
   vertex -20.924694 -1030.850098 44.313534
   vertex -20.915812 -1030.850098 44.122398
   vertex -20.210323 -1029.850098 43.867867
  endloop
 endfacet
 facet normal 0.821074 -0.569544 0.038161
  outer loop
   vertex -20.210323 -1029.850098 43.867867
   vertex -20.245857 -1029.850098 44.632408
   vertex -20.924694 -1030.850098 44.313534
  endloop
 endfacet
 facet normal 0.553602 -0.569545 0.607572
  outer loop
   vertex -20.924694 -1030.850098 44.313534
   vertex -20.245857 -1029.850098 44.632408
   vertex -21.066130 -1030.850098 44.442406
  endloop
 endfacet
 facet normal 0.553601 -0.569544 0.607574
  outer loop
   vertex -21.066130 -1030.850098 44.442406
   vertex -20.245857 -1029.850098 44.632408
   vertex -20.811598 -1029.850098 45.147892
  endloop
 endfacet
 facet normal -0.038166 -0.569543 0.821075
  outer loop
   vertex -20.811598 -1029.850098 45.147892
   vertex -21.257265 -1030.850098 44.433521
   vertex -21.066130 -1030.850098 44.442406
  endloop
 endfacet
 facet normal -0.038161 -0.569544 0.821074
  outer loop
   vertex -21.576138 -1029.850098 45.112358
   vertex -21.257265 -1030.850098 44.433521
   vertex -20.811598 -1029.850098 45.147892
  endloop
 endfacet
 facet normal -0.607568 -0.569545 0.553606
  outer loop
   vertex -21.386137 -1030.850098 44.292088
   vertex -21.257265 -1030.850098 44.433521
   vertex -21.576138 -1029.850098 45.112358
  endloop
 endfacet
 facet normal -0.607572 -0.569543 0.553603
  outer loop
   vertex -21.576138 -1029.850098 45.112358
   vertex -22.091623 -1029.850098 44.546619
   vertex -21.386137 -1030.850098 44.292088
  endloop
 endfacet
 facet normal -0.821075 -0.569543 -0.038166
  outer loop
   vertex -21.386137 -1030.850098 44.292088
   vertex -22.091623 -1029.850098 44.546619
   vertex -21.377253 -1030.850098 44.100952
  endloop
 endfacet
 facet normal -0.821074 -0.569544 -0.038161
  outer loop
   vertex -21.377253 -1030.850098 44.100952
   vertex -22.091623 -1029.850098 44.546619
   vertex -22.056089 -1029.850098 43.782078
  endloop
 endfacet
 facet normal -0.553605 -0.569546 -0.607568
  outer loop
   vertex -22.056089 -1029.850098 43.782078
   vertex -21.235819 -1030.850098 43.972080
   vertex -21.377253 -1030.850098 44.100952
  endloop
 endfacet
 facet normal -0.553604 -0.569545 -0.607570
  outer loop
   vertex -21.490351 -1029.850098 43.266590
   vertex -21.235819 -1030.850098 43.972080
   vertex -22.056089 -1029.850098 43.782078
  endloop
 endfacet
endsolid