solid stl file generated from DOUG
 facet normal 0.497339 0.804395 0.324967
  outer loop
   vertex 80.703072 -1246.552246 24.864069
   vertex 80.794807 -1246.633179 24.924007
   vertex 85.854256 -1246.633179 17.180885
  endloop
 endfacet
 facet normal 0.837136 -0.000000 0.546995
  outer loop
   vertex 85.854256 -1246.633179 17.180885
   vertex 80.794807 -1246.633179 24.924007
   vertex 85.854256 -1246.735840 17.180885
  endloop
 endfacet
 facet normal 0.497335 -0.804397 0.324965
  outer loop
   vertex 85.762527 -1245.447754 17.120945
   vertex 85.854263 -1245.366821 17.180885
   vertex 80.794807 -1245.366821 24.924007
  endloop
 endfacet
 facet normal 0.837136 -0.000000 0.546995
  outer loop
   vertex 80.794807 -1245.366821 24.924007
   vertex 85.854263 -1245.366821 17.180885
   vertex 85.854263 -1245.264160 17.180885
  endloop
 endfacet
 facet normal 0.837136 0.000000 0.546995
  outer loop
   vertex 85.854263 -1245.264160 17.180885
   vertex 80.794807 -1245.264160 24.924007
   vertex 80.794807 -1245.366821 24.924007
  endloop
 endfacet
 facet normal 0.781259 0.359222 0.510484
  outer loop
   vertex 85.240868 -1245.264160 16.780088
   vertex 80.181419 -1245.264160 24.523211
   vertex 85.250977 -1245.295532 16.786694
  endloop
 endfacet
 facet normal 0.781259 0.359222 0.510484
  outer loop
   vertex 85.250977 -1245.295532 16.786694
   vertex 80.181419 -1245.264160 24.523211
   vertex 80.191528 -1245.295532 24.529816
  endloop
 endfacet
 facet normal 0.000000 1.000000 0.000000
  outer loop
   vertex 80.191528 -1245.295532 24.529816
   vertex 80.673012 -1245.295532 24.844425
   vertex 85.250977 -1245.295532 16.786694
  endloop
 endfacet
 facet normal 0.497354 0.804381 0.324977
  outer loop
   vertex 85.854256 -1246.633179 17.180885
   vertex 85.762527 -1246.552246 17.120945
   vertex 80.703072 -1246.552246 24.864069
  endloop
 endfacet
 facet normal 0.837136 -0.000000 0.546995
  outer loop
   vertex 80.703072 -1246.552246 24.864069
   vertex 85.762527 -1246.552246 17.120945
   vertex 85.762527 -1245.447754 17.120945
  endloop
 endfacet
 facet normal 0.837136 0.000000 0.546995
  outer loop
   vertex 85.762527 -1245.447754 17.120945
   vertex 80.703072 -1245.447754 24.864069
   vertex 80.703072 -1246.552246 24.864069
  endloop
 endfacet
 facet normal 0.497338 -0.804395 0.324967
  outer loop
   vertex 80.794807 -1245.366821 24.924007
   vertex 80.703072 -1245.447754 24.864069
   vertex 85.762527 -1245.447754 17.120945
  endloop
 endfacet
 facet normal 0.000000 1.000000 0.000000
  outer loop
   vertex 80.794807 -1245.264160 24.924007
   vertex 85.854263 -1245.264160 17.180885
   vertex 80.683121 -1245.264160 24.851030
  endloop
 endfacet
 facet normal 0.000000 1.000000 -0.000000
  outer loop
   vertex 80.683121 -1245.264160 24.851030
   vertex 85.854263 -1245.264160 17.180885
   vertex 85.742569 -1245.264160 17.107906
  endloop
 endfacet
 facet normal -0.781259 0.359222 -0.510484
  outer loop
   vertex 85.742569 -1245.264160 17.107906
   vertex 80.673012 -1245.295532 24.844425
   vertex 80.683121 -1245.264160 24.851030
  endloop
 endfacet
 facet normal -0.781259 0.359222 -0.510484
  outer loop
   vertex 85.732460 -1245.295532 17.101301
   vertex 80.673012 -1245.295532 24.844425
   vertex 85.742569 -1245.264160 17.107906
  endloop
 endfacet
 facet normal 0.000000 1.000000 0.000000
  outer loop
   vertex 85.250977 -1245.295532 16.786694
   vertex 80.673012 -1245.295532 24.844425
   vertex 85.732460 -1245.295532 17.101301
  endloop
 endfacet
 facet normal 0.546995 0.000000 -0.837136
  outer loop
   vertex 86.164391 -1246.752930 16.740456
   vertex 85.460777 -1245.247070 16.280706
   vertex 86.164391 -1245.247070 16.740456
  endloop
 endfacet
 facet normal -0.000000 1.000000 -0.000000
  outer loop
   vertex 86.164391 -1245.247070 16.740456
   vertex 85.460777 -1245.247070 16.280706
   vertex 85.617393 -1245.247070 17.577593
  endloop
 endfacet
 facet normal 0.837135 -0.000000 0.546996
  outer loop
   vertex 85.617393 -1245.247070 17.577593
   vertex 85.617393 -1246.752930 17.577593
   vertex 86.164391 -1245.247070 16.740456
  endloop
 endfacet
 facet normal -0.546996 -0.000000 0.837135
  outer loop
   vertex 84.913780 -1245.247070 17.117842
   vertex 85.617393 -1246.752930 17.577593
   vertex 85.617393 -1245.247070 17.577593
  endloop
 endfacet
 facet normal -0.546996 0.000000 0.837135
  outer loop
   vertex 84.913780 -1246.752930 17.117842
   vertex 85.617393 -1246.752930 17.577593
   vertex 84.913780 -1245.247070 17.117842
  endloop
 endfacet
 facet normal -0.837135 -0.000000 -0.546997
  outer loop
   vertex 84.913780 -1245.247070 17.117842
   vertex 85.460777 -1245.247070 16.280706
   vertex 84.913780 -1246.752930 17.117842
  endloop
 endfacet
 facet normal -0.837135 -0.000000 -0.546997
  outer loop
   vertex 84.913780 -1246.752930 17.117842
   vertex 85.460777 -1245.247070 16.280706
   vertex 85.460777 -1246.752930 16.280706
  endloop
 endfacet
 facet normal 0.546995 -0.000000 -0.837136
  outer loop
   vertex 85.460777 -1246.752930 16.280706
   vertex 85.460777 -1245.247070 16.280706
   vertex 86.164391 -1246.752930 16.740456
  endloop
 endfacet
 facet normal 0.000000 -1.000000 -0.000000
  outer loop
   vertex 86.164391 -1246.752930 16.740456
   vertex 85.617393 -1246.752930 17.577593
   vertex 85.460777 -1246.752930 16.280706
  endloop
 endfacet
 facet normal 0.837135 -0.000000 0.546996
  outer loop
   vertex 86.164391 -1245.247070 16.740456
   vertex 85.617393 -1246.752930 17.577593
   vertex 86.164391 -1246.752930 16.740456
  endloop
 endfacet
 facet normal 0.546996 0.000001 -0.837135
  outer loop
   vertex 81.062996 -1245.247070 24.547768
   vertex 81.062996 -1246.752930 24.547766
   vertex 80.359383 -1245.247070 24.088017
  endloop
 endfacet
 facet normal 0.546995 -0.000000 -0.837136
  outer loop
   vertex 80.359383 -1245.247070 24.088017
   vertex 81.062996 -1246.752930 24.547766
   vertex 80.359383 -1246.752930 24.088017
  endloop
 endfacet
 facet normal -0.837135 0.000000 -0.546997
  outer loop
   vertex 80.359383 -1246.752930 24.088017
   vertex 79.812386 -1246.752930 24.925152
   vertex 80.359383 -1245.247070 24.088017
  endloop
 endfacet
 facet normal -0.000000 -1.000000 -0.000000
  outer loop
   vertex 81.062996 -1246.752930 24.547766
   vertex 79.812386 -1246.752930 24.925152
   vertex 80.359383 -1246.752930 24.088017
  endloop
 endfacet
 facet normal 0.000000 -1.000000 0.000000
  outer loop
   vertex 80.515999 -1246.752930 25.384903
   vertex 79.812386 -1246.752930 24.925152
   vertex 81.062996 -1246.752930 24.547766
  endloop
 endfacet
 facet normal 0.837135 0.000000 0.546996
  outer loop
   vertex 81.062996 -1246.752930 24.547766
   vertex 80.515999 -1245.247070 25.384903
   vertex 80.515999 -1246.752930 25.384903
  endloop
 endfacet
 facet normal -0.546996 0.000000 0.837135
  outer loop
   vertex 80.515999 -1246.752930 25.384903
   vertex 80.515999 -1245.247070 25.384903
   vertex 79.812386 -1246.752930 24.925152
  endloop
 endfacet
 facet normal -0.546996 -0.000000 0.837135
  outer loop
   vertex 79.812386 -1246.752930 24.925152
   vertex 80.515999 -1245.247070 25.384903
   vertex 79.812386 -1245.247070 24.925152
  endloop
 endfacet
 facet normal -0.837135 0.000000 -0.546997
  outer loop
   vertex 79.812386 -1245.247070 24.925152
   vertex 80.359383 -1245.247070 24.088017
   vertex 79.812386 -1246.752930 24.925152
  endloop
 endfacet
 facet normal -0.000000 1.000000 -0.000000
  outer loop
   vertex 80.515999 -1245.247070 25.384903
   vertex 80.359383 -1245.247070 24.088017
   vertex 79.812386 -1245.247070 24.925152
  endloop
 endfacet
 facet normal 0.000000 1.000000 0.000000
  outer loop
   vertex 81.062996 -1245.247070 24.547768
   vertex 80.359383 -1245.247070 24.088017
   vertex 80.515999 -1245.247070 25.384903
  endloop
 endfacet
 facet normal 0.837135 -0.000001 0.546997
  outer loop
   vertex 80.515999 -1245.247070 25.384903
   vertex 81.062996 -1246.752930 24.547766
   vertex 81.062996 -1245.247070 24.547768
  endloop
 endfacet
 facet normal 0.837136 -0.000000 0.546995
  outer loop
   vertex 80.794807 -1246.633179 24.924007
   vertex 80.794807 -1246.735840 24.924007
   vertex 85.854256 -1246.735840 17.180885
  endloop
 endfacet
 facet normal -0.000000 -1.000000 -0.000000
  outer loop
   vertex 85.854256 -1246.735840 17.180885
   vertex 80.794807 -1246.735840 24.924007
   vertex 80.683121 -1246.735840 24.851028
  endloop
 endfacet
 facet normal 0.000000 -1.000000 0.000000
  outer loop
   vertex 80.683121 -1246.735840 24.851028
   vertex 85.742569 -1246.735840 17.107904
   vertex 85.854256 -1246.735840 17.180885
  endloop
 endfacet
 facet normal -0.781259 -0.359222 -0.510484
  outer loop
   vertex 80.673012 -1246.704468 24.844423
   vertex 85.742569 -1246.735840 17.107904
   vertex 80.683121 -1246.735840 24.851028
  endloop
 endfacet
 facet normal -0.781259 -0.359222 -0.510484
  outer loop
   vertex 85.732460 -1246.704468 17.101299
   vertex 85.742569 -1246.735840 17.107904
   vertex 80.673012 -1246.704468 24.844423
  endloop
 endfacet
 facet normal 0.000000 -1.000000 -0.000000
  outer loop
   vertex 80.673012 -1246.704468 24.844423
   vertex 80.191528 -1246.704468 24.529816
   vertex 85.732460 -1246.704468 17.101299
  endloop
 endfacet
 facet normal 0.000000 -1.000000 0.000000
  outer loop
   vertex 85.732460 -1246.704468 17.101299
   vertex 80.191528 -1246.704468 24.529816
   vertex 85.250977 -1246.704468 16.786692
  endloop
 endfacet
 facet normal 0.781259 -0.359222 0.510484
  outer loop
   vertex 85.250977 -1246.704468 16.786692
   vertex 80.191528 -1246.704468 24.529816
   vertex 80.181419 -1246.735840 24.523211
  endloop
 endfacet
 facet normal 0.781259 -0.359222 0.510484
  outer loop
   vertex 80.181419 -1246.735840 24.523211
   vertex 85.240868 -1246.735840 16.780087
   vertex 85.250977 -1246.704468 16.786692
  endloop
 endfacet
 facet normal -0.000000 -1.000000 -0.000000
  outer loop
   vertex 80.125999 -1246.735840 24.487000
   vertex 85.240868 -1246.735840 16.780087
   vertex 80.181419 -1246.735840 24.523211
  endloop
 endfacet
 facet normal -0.000000 -1.000000 0.000000
  outer loop
   vertex 85.185448 -1246.735840 16.743876
   vertex 85.240868 -1246.735840 16.780087
   vertex 80.125999 -1246.735840 24.487000
  endloop
 endfacet
 facet normal -0.837136 -0.000000 -0.546995
  outer loop
   vertex 80.125999 -1246.735840 24.487000
   vertex 80.125999 -1245.264160 24.487000
   vertex 85.185448 -1246.735840 16.743876
  endloop
 endfacet
 facet normal -0.837136 0.000000 -0.546995
  outer loop
   vertex 85.185448 -1246.735840 16.743876
   vertex 80.125999 -1245.264160 24.487000
   vertex 85.185448 -1245.264160 16.743876
  endloop
 endfacet
 facet normal -0.000000 1.000000 -0.000000
  outer loop
   vertex 85.185448 -1245.264160 16.743876
   vertex 80.125999 -1245.264160 24.487000
   vertex 85.240868 -1245.264160 16.780088
  endloop
 endfacet
 facet normal 0.000000 1.000000 0.000000
  outer loop
   vertex 84.913780 -1245.247070 17.117842
   vertex 85.617393 -1245.247070 17.577593
   vertex 85.460777 -1245.247070 16.280706
  endloop
 endfacet
 facet normal 0.000000 -1.000000 0.000000
  outer loop
   vertex 85.617393 -1246.752930 17.577593
   vertex 84.913780 -1246.752930 17.117842
   vertex 85.460777 -1246.752930 16.280706
  endloop
 endfacet
 facet normal 0.000000 1.000000 0.000000
  outer loop
   vertex 80.125999 -1245.264160 24.487000
   vertex 80.181419 -1245.264160 24.523211
   vertex 85.240868 -1245.264160 16.780088
  endloop
 endfacet
 facet normal -0.505363 -0.382661 0.773420
  outer loop
   vertex 77.907890 -1246.000000 24.292212
   vertex 77.070755 -1246.000000 23.745216
   vertex 78.068100 -1246.707153 24.047020
  endloop
 endfacet
 facet normal -0.505363 -0.382661 0.773420
  outer loop
   vertex 78.068100 -1246.707153 24.047020
   vertex 77.070755 -1246.000000 23.745216
   vertex 77.230965 -1246.707153 23.500025
  endloop
 endfacet
 facet normal -0.209298 -0.923901 0.320315
  outer loop
   vertex 77.230965 -1246.707153 23.500025
   vertex 78.454880 -1247.000000 23.455074
   vertex 78.068100 -1246.707153 24.047020
  endloop
 endfacet
 facet normal -0.209298 -0.923901 0.320315
  outer loop
   vertex 77.617744 -1247.000000 22.908079
   vertex 78.454880 -1247.000000 23.455074
   vertex 77.230965 -1246.707153 23.500025
  endloop
 endfacet
 facet normal 0.209297 -0.923901 -0.320314
  outer loop
   vertex 78.841667 -1246.707153 22.863131
   vertex 78.454880 -1247.000000 23.455074
   vertex 77.617744 -1247.000000 22.908079
  endloop
 endfacet
 facet normal 0.209297 -0.923901 -0.320314
  outer loop
   vertex 77.617744 -1247.000000 22.908079
   vertex 78.004532 -1246.707153 22.316135
   vertex 78.841667 -1246.707153 22.863131
  endloop
 endfacet
 facet normal 0.505363 -0.382661 -0.773420
  outer loop
   vertex 78.841667 -1246.707153 22.863131
   vertex 78.004532 -1246.707153 22.316135
   vertex 79.001877 -1246.000000 22.617939
  endloop
 endfacet
 facet normal 0.505363 -0.382661 -0.773420
  outer loop
   vertex 79.001877 -1246.000000 22.617939
   vertex 78.004532 -1246.707153 22.316135
   vertex 78.164742 -1246.000000 22.070944
  endloop
 endfacet
 facet normal 0.505363 0.382661 -0.773420
  outer loop
   vertex 78.164742 -1246.000000 22.070944
   vertex 78.841667 -1245.292847 22.863131
   vertex 79.001877 -1246.000000 22.617939
  endloop
 endfacet
 facet normal 0.505363 0.382661 -0.773420
  outer loop
   vertex 78.004532 -1245.292847 22.316135
   vertex 78.841667 -1245.292847 22.863131
   vertex 78.164742 -1246.000000 22.070944
  endloop
 endfacet
 facet normal 0.209298 0.923900 -0.320316
  outer loop
   vertex 78.454887 -1245.000000 23.455074
   vertex 78.841667 -1245.292847 22.863131
   vertex 78.004532 -1245.292847 22.316135
  endloop
 endfacet
 facet normal 0.209297 0.923901 -0.320315
  outer loop
   vertex 78.004532 -1245.292847 22.316135
   vertex 77.617752 -1245.000000 22.908081
   vertex 78.454887 -1245.000000 23.455074
  endloop
 endfacet
 facet normal -0.209296 0.923902 0.320314
  outer loop
   vertex 78.454887 -1245.000000 23.455074
   vertex 77.617752 -1245.000000 22.908081
   vertex 78.068100 -1245.292847 24.047020
  endloop
 endfacet
 facet normal -0.209297 0.923901 0.320314
  outer loop
   vertex 78.068100 -1245.292847 24.047020
   vertex 77.617752 -1245.000000 22.908081
   vertex 77.230965 -1245.292847 23.500025
  endloop
 endfacet
 facet normal -0.505363 0.382661 0.773420
  outer loop
   vertex 77.230965 -1245.292847 23.500025
   vertex 77.907890 -1246.000000 24.292212
   vertex 78.068100 -1245.292847 24.047020
  endloop
 endfacet
 facet normal -0.505363 0.382661 0.773420
  outer loop
   vertex 77.070755 -1246.000000 23.745216
   vertex 77.907890 -1246.000000 24.292212
   vertex 77.230965 -1245.292847 23.500025
  endloop
 endfacet
 facet normal 0.505349 0.382724 -0.773398
  outer loop
   vertex 84.494713 -1245.823242 16.021372
   vertex 85.371902 -1246.000000 16.507069
   vertex 84.534767 -1246.000000 15.960073
  endloop
 endfacet
 facet normal 0.505349 -0.382724 -0.773398
  outer loop
   vertex 84.534767 -1246.000000 15.960073
   vertex 85.371902 -1246.000000 16.507069
   vertex 85.331848 -1246.176758 16.568367
  endloop
 endfacet
 facet normal 0.505349 -0.382724 -0.773398
  outer loop
   vertex 85.331848 -1246.176758 16.568367
   vertex 84.494713 -1246.176758 16.021372
   vertex 84.534767 -1246.000000 15.960073
  endloop
 endfacet
 facet normal 0.209373 -0.923844 -0.320430
  outer loop
   vertex 85.235153 -1246.250000 16.716352
   vertex 84.494713 -1246.176758 16.021372
   vertex 85.331848 -1246.176758 16.568367
  endloop
 endfacet
 facet normal 0.209373 -0.923844 -0.320430
  outer loop
   vertex 84.398018 -1246.250000 16.169357
   vertex 84.494713 -1246.176758 16.021372
   vertex 85.235153 -1246.250000 16.716352
  endloop
 endfacet
 facet normal -0.209373 -0.923844 0.320430
  outer loop
   vertex 85.235153 -1246.250000 16.716352
   vertex 85.138458 -1246.176758 16.864338
   vertex 84.398018 -1246.250000 16.169357
  endloop
 endfacet
 facet normal -0.209373 -0.923844 0.320430
  outer loop
   vertex 84.398018 -1246.250000 16.169357
   vertex 85.138458 -1246.176758 16.864338
   vertex 84.301323 -1246.176758 16.317343
  endloop
 endfacet
 facet normal -0.505349 -0.382724 0.773398
  outer loop
   vertex 84.301323 -1246.176758 16.317343
   vertex 85.138458 -1246.176758 16.864338
   vertex 85.098404 -1246.000000 16.925636
  endloop
 endfacet
 facet normal -0.505349 -0.382724 0.773398
  outer loop
   vertex 85.098404 -1246.000000 16.925636
   vertex 84.261269 -1246.000000 16.378641
   vertex 84.301323 -1246.176758 16.317343
  endloop
 endfacet
 facet normal -0.505349 0.382724 0.773398
  outer loop
   vertex 85.138458 -1245.823242 16.864338
   vertex 84.261269 -1246.000000 16.378641
   vertex 85.098404 -1246.000000 16.925636
  endloop
 endfacet
 facet normal -0.505349 0.382717 0.773402
  outer loop
   vertex 84.301323 -1245.823242 16.317345
   vertex 84.261269 -1246.000000 16.378641
   vertex 85.138458 -1245.823242 16.864338
  endloop
 endfacet
 facet normal -0.209373 0.923844 0.320430
  outer loop
   vertex 85.138458 -1245.823242 16.864338
   vertex 85.235153 -1245.750000 16.716352
   vertex 84.301323 -1245.823242 16.317345
  endloop
 endfacet
 facet normal -0.209372 0.923845 0.320428
  outer loop
   vertex 84.301323 -1245.823242 16.317345
   vertex 85.235153 -1245.750000 16.716352
   vertex 84.398018 -1245.750000 16.169357
  endloop
 endfacet
 facet normal 0.209373 0.923844 -0.320430
  outer loop
   vertex 84.398018 -1245.750000 16.169357
   vertex 85.235153 -1245.750000 16.716352
   vertex 85.331848 -1245.823242 16.568367
  endloop
 endfacet
 facet normal 0.209373 0.923844 -0.320430
  outer loop
   vertex 85.331848 -1245.823242 16.568367
   vertex 84.494713 -1245.823242 16.021372
   vertex 84.398018 -1245.750000 16.169357
  endloop
 endfacet
 facet normal 0.505349 0.382724 -0.773398
  outer loop
   vertex 85.371902 -1246.000000 16.507069
   vertex 84.494713 -1245.823242 16.021372
   vertex 85.331848 -1245.823242 16.568367
  endloop
 endfacet
 facet normal 0.505363 0.382661 -0.773420
  outer loop
   vertex 83.118935 -1245.292847 14.488914
   vertex 84.116280 -1246.000000 14.790717
   vertex 83.279144 -1246.000000 14.243722
  endloop
 endfacet
 facet normal 0.505363 -0.382661 -0.773420
  outer loop
   vertex 83.279144 -1246.000000 14.243722
   vertex 84.116280 -1246.000000 14.790717
   vertex 83.956070 -1246.707153 15.035909
  endloop
 endfacet
 facet normal 0.505363 -0.382661 -0.773420
  outer loop
   vertex 83.956070 -1246.707153 15.035909
   vertex 83.118935 -1246.707153 14.488914
   vertex 83.279144 -1246.000000 14.243722
  endloop
 endfacet
 facet normal 0.209297 -0.923901 -0.320314
  outer loop
   vertex 83.569283 -1247.000000 15.627852
   vertex 83.118935 -1246.707153 14.488914
   vertex 83.956070 -1246.707153 15.035909
  endloop
 endfacet
 facet normal 0.209297 -0.923901 -0.320314
  outer loop
   vertex 82.732147 -1247.000000 15.080858
   vertex 83.118935 -1246.707153 14.488914
   vertex 83.569283 -1247.000000 15.627852
  endloop
 endfacet
 facet normal -0.209298 -0.923901 0.320315
  outer loop
   vertex 83.569283 -1247.000000 15.627852
   vertex 83.182503 -1246.707153 16.219797
   vertex 82.732147 -1247.000000 15.080858
  endloop
 endfacet
 facet normal -0.209298 -0.923901 0.320315
  outer loop
   vertex 82.732147 -1247.000000 15.080858
   vertex 83.182503 -1246.707153 16.219797
   vertex 82.345367 -1246.707153 15.672803
  endloop
 endfacet
 facet normal -0.505362 -0.382661 0.773421
  outer loop
   vertex 82.345367 -1246.707153 15.672803
   vertex 83.182503 -1246.707153 16.219797
   vertex 83.022293 -1246.000000 16.464989
  endloop
 endfacet
 facet normal -0.505362 -0.382661 0.773421
  outer loop
   vertex 83.022293 -1246.000000 16.464989
   vertex 82.185158 -1246.000000 15.917994
   vertex 82.345367 -1246.707153 15.672803
  endloop
 endfacet
 facet normal -0.505363 0.382659 0.773421
  outer loop
   vertex 83.182503 -1245.292847 16.219799
   vertex 82.185158 -1246.000000 15.917994
   vertex 83.022293 -1246.000000 16.464989
  endloop
 endfacet
 facet normal -0.505363 0.382661 0.773420
  outer loop
   vertex 82.345367 -1245.292847 15.672803
   vertex 82.185158 -1246.000000 15.917994
   vertex 83.182503 -1245.292847 16.219799
  endloop
 endfacet
 facet normal -0.209297 0.923902 0.320313
  outer loop
   vertex 83.182503 -1245.292847 16.219799
   vertex 83.569290 -1245.000000 15.627853
   vertex 82.345367 -1245.292847 15.672803
  endloop
 endfacet
 facet normal -0.209297 0.923901 0.320314
  outer loop
   vertex 82.345367 -1245.292847 15.672803
   vertex 83.569290 -1245.000000 15.627853
   vertex 82.732155 -1245.000000 15.080859
  endloop
 endfacet
 facet normal 0.209298 0.923901 -0.320315
  outer loop
   vertex 82.732155 -1245.000000 15.080859
   vertex 83.569290 -1245.000000 15.627853
   vertex 83.956070 -1245.292847 15.035909
  endloop
 endfacet
 facet normal 0.209298 0.923901 -0.320315
  outer loop
   vertex 83.956070 -1245.292847 15.035909
   vertex 83.118935 -1245.292847 14.488914
   vertex 82.732155 -1245.000000 15.080859
  endloop
 endfacet
 facet normal 0.505363 0.382661 -0.773420
  outer loop
   vertex 84.116280 -1246.000000 14.790717
   vertex 83.118935 -1245.292847 14.488914
   vertex 83.956070 -1245.292847 15.035909
  endloop
 endfacet
 facet normal 0.892175 0.314531 -0.324183
  outer loop
   vertex 83.956070 -1245.292847 15.035909
   vertex 84.543175 -1246.000000 15.965564
   vertex 84.116280 -1246.000000 14.790717
  endloop
 endfacet
 facet normal 0.892157 -0.314588 -0.324176
  outer loop
   vertex 84.116280 -1246.000000 14.790717
   vertex 84.543175 -1246.000000 15.965564
   vertex 84.503120 -1246.176758 16.026861
  endloop
 endfacet
 facet normal 0.892178 -0.314529 -0.324175
  outer loop
   vertex 84.503120 -1246.176758 16.026861
   vertex 83.956070 -1246.707153 15.035909
   vertex 84.116280 -1246.000000 14.790717
  endloop
 endfacet
 facet normal 0.648917 -0.759332 0.048192
  outer loop
   vertex 84.406425 -1246.250000 16.174849
   vertex 83.956070 -1246.707153 15.035909
   vertex 84.503120 -1246.176758 16.026861
  endloop
 endfacet
 facet normal 0.648823 -0.759407 0.048259
  outer loop
   vertex 83.569283 -1247.000000 15.627852
   vertex 83.956070 -1246.707153 15.035909
   vertex 84.406425 -1246.250000 16.174849
  endloop
 endfacet
 facet normal 0.304666 -0.759371 0.574921
  outer loop
   vertex 84.406425 -1246.250000 16.174849
   vertex 84.309723 -1246.176758 16.322834
   vertex 83.569283 -1247.000000 15.627852
  endloop
 endfacet
 facet normal 0.304777 -0.759395 0.574831
  outer loop
   vertex 83.569283 -1247.000000 15.627852
   vertex 84.309723 -1246.176758 16.322834
   vertex 83.182503 -1246.707153 16.219797
  endloop
 endfacet
 facet normal 0.061434 -0.314578 0.947242
  outer loop
   vertex 83.182503 -1246.707153 16.219797
   vertex 84.309723 -1246.176758 16.322834
   vertex 84.269676 -1246.000000 16.384132
  endloop
 endfacet
 facet normal 0.061402 -0.314532 0.947259
  outer loop
   vertex 84.269676 -1246.000000 16.384132
   vertex 83.022293 -1246.000000 16.464989
   vertex 83.182503 -1246.707153 16.219797
  endloop
 endfacet
 facet normal 0.061401 0.314585 0.947241
  outer loop
   vertex 84.309723 -1245.823242 16.322834
   vertex 83.022293 -1246.000000 16.464989
   vertex 84.269676 -1246.000000 16.384132
  endloop
 endfacet
 facet normal 0.061411 0.314528 0.947260
  outer loop
   vertex 83.182503 -1245.292847 16.219799
   vertex 83.022293 -1246.000000 16.464989
   vertex 84.309723 -1245.823242 16.322834
  endloop
 endfacet
 facet normal 0.304735 0.759326 0.574944
  outer loop
   vertex 84.309723 -1245.823242 16.322834
   vertex 84.406425 -1245.750000 16.174849
   vertex 83.182503 -1245.292847 16.219799
  endloop
 endfacet
 facet normal 0.304760 0.759404 0.574827
  outer loop
   vertex 83.182503 -1245.292847 16.219799
   vertex 84.406425 -1245.750000 16.174849
   vertex 83.569290 -1245.000000 15.627853
  endloop
 endfacet
 facet normal 0.648873 0.759372 0.048144
  outer loop
   vertex 83.569290 -1245.000000 15.627853
   vertex 84.406425 -1245.750000 16.174849
   vertex 84.503120 -1245.823242 16.026863
  endloop
 endfacet
 facet normal 0.648839 0.759393 0.048268
  outer loop
   vertex 84.503120 -1245.823242 16.026863
   vertex 83.956070 -1245.292847 15.035909
   vertex 83.569290 -1245.000000 15.627853
  endloop
 endfacet
 facet normal 0.892171 0.314583 -0.324142
  outer loop
   vertex 84.543175 -1246.000000 15.965564
   vertex 83.956070 -1245.292847 15.035909
   vertex 84.503120 -1245.823242 16.026863
  endloop
 endfacet
 facet normal -0.505349 -0.382724 0.773398
  outer loop
   vertex 79.984001 -1246.000000 24.752859
   vertex 79.146866 -1246.000000 24.205864
   vertex 80.024055 -1246.176758 24.691561
  endloop
 endfacet
 facet normal -0.505349 -0.382724 0.773398
  outer loop
   vertex 80.024055 -1246.176758 24.691561
   vertex 79.146866 -1246.000000 24.205864
   vertex 79.186920 -1246.176758 24.144566
  endloop
 endfacet
 facet normal -0.209373 -0.923844 0.320430
  outer loop
   vertex 79.186920 -1246.176758 24.144566
   vertex 80.120750 -1246.250000 24.543575
   vertex 80.024055 -1246.176758 24.691561
  endloop
 endfacet
 facet normal -0.209373 -0.923844 0.320430
  outer loop
   vertex 79.283615 -1246.250000 23.996580
   vertex 80.120750 -1246.250000 24.543575
   vertex 79.186920 -1246.176758 24.144566
  endloop
 endfacet
 facet normal 0.209372 -0.923845 -0.320428
  outer loop
   vertex 80.217445 -1246.176758 24.395588
   vertex 80.120750 -1246.250000 24.543575
   vertex 79.283615 -1246.250000 23.996580
  endloop
 endfacet
 facet normal 0.209372 -0.923845 -0.320428
  outer loop
   vertex 79.283615 -1246.250000 23.996580
   vertex 79.380310 -1246.176758 23.848593
   vertex 80.217445 -1246.176758 24.395588
  endloop
 endfacet
 facet normal 0.505350 -0.382717 -0.773401
  outer loop
   vertex 80.217445 -1246.176758 24.395588
   vertex 79.380310 -1246.176758 23.848593
   vertex 80.257500 -1246.000000 24.334291
  endloop
 endfacet
 facet normal 0.505350 -0.382717 -0.773401
  outer loop
   vertex 80.257500 -1246.000000 24.334291
   vertex 79.380310 -1246.176758 23.848593
   vertex 79.420364 -1246.000000 23.787296
  endloop
 endfacet
 facet normal 0.505350 0.382717 -0.773401
  outer loop
   vertex 79.420364 -1246.000000 23.787296
   vertex 80.217445 -1245.823242 24.395588
   vertex 80.257500 -1246.000000 24.334291
  endloop
 endfacet
 facet normal 0.505350 0.382717 -0.773401
  outer loop
   vertex 79.380310 -1245.823242 23.848593
   vertex 80.217445 -1245.823242 24.395588
   vertex 79.420364 -1246.000000 23.787296
  endloop
 endfacet
 facet normal 0.209372 0.923845 -0.320428
  outer loop
   vertex 80.120750 -1245.750000 24.543575
   vertex 80.217445 -1245.823242 24.395588
   vertex 79.380310 -1245.823242 23.848593
  endloop
 endfacet
 facet normal 0.209372 0.923845 -0.320428
  outer loop
   vertex 79.380310 -1245.823242 23.848593
   vertex 79.283615 -1245.750000 23.996580
   vertex 80.120750 -1245.750000 24.543575
  endloop
 endfacet
 facet normal -0.209373 0.923844 0.320430
  outer loop
   vertex 80.120750 -1245.750000 24.543575
   vertex 79.283615 -1245.750000 23.996580
   vertex 80.024055 -1245.823242 24.691561
  endloop
 endfacet
 facet normal -0.209373 0.923844 0.320430
  outer loop
   vertex 80.024055 -1245.823242 24.691561
   vertex 79.283615 -1245.750000 23.996580
   vertex 79.186920 -1245.823242 24.144566
  endloop
 endfacet
 facet normal -0.505349 0.382724 0.773398
  outer loop
   vertex 79.186920 -1245.823242 24.144566
   vertex 79.984001 -1246.000000 24.752859
   vertex 80.024055 -1245.823242 24.691561
  endloop
 endfacet
 facet normal -0.505349 0.382724 0.773398
  outer loop
   vertex 79.146866 -1246.000000 24.205864
   vertex 79.984001 -1246.000000 24.752859
   vertex 79.186920 -1245.823242 24.144566
  endloop
 endfacet
 facet normal 0.061433 0.314576 0.947242
  outer loop
   vertex 79.195328 -1245.823242 24.150057
   vertex 78.068100 -1245.292847 24.047020
   vertex 79.155273 -1246.000000 24.211355
  endloop
 endfacet
 facet normal 0.061402 0.314532 0.947259
  outer loop
   vertex 79.155273 -1246.000000 24.211355
   vertex 78.068100 -1245.292847 24.047020
   vertex 77.907890 -1246.000000 24.292212
  endloop
 endfacet
 facet normal 0.061401 -0.314585 0.947241
  outer loop
   vertex 77.907890 -1246.000000 24.292212
   vertex 79.195320 -1246.176758 24.150057
   vertex 79.155273 -1246.000000 24.211355
  endloop
 endfacet
 facet normal 0.061410 -0.314531 0.947259
  outer loop
   vertex 78.068100 -1246.707153 24.047020
   vertex 79.195320 -1246.176758 24.150057
   vertex 77.907890 -1246.000000 24.292212
  endloop
 endfacet
 facet normal 0.304736 -0.759329 0.574939
  outer loop
   vertex 79.292023 -1246.250000 24.002069
   vertex 79.195320 -1246.176758 24.150057
   vertex 78.068100 -1246.707153 24.047020
  endloop
 endfacet
 facet normal 0.304761 -0.759406 0.574825
  outer loop
   vertex 78.068100 -1246.707153 24.047020
   vertex 78.454880 -1247.000000 23.455074
   vertex 79.292023 -1246.250000 24.002069
  endloop
 endfacet
 facet normal 0.648871 -0.759374 0.048142
  outer loop
   vertex 79.292023 -1246.250000 24.002069
   vertex 78.454880 -1247.000000 23.455074
   vertex 79.388718 -1246.176758 23.854084
  endloop
 endfacet
 facet normal 0.648835 -0.759397 0.048272
  outer loop
   vertex 79.388718 -1246.176758 23.854084
   vertex 78.454880 -1247.000000 23.455074
   vertex 78.841667 -1246.707153 22.863131
  endloop
 endfacet
 facet normal 0.892172 -0.314582 -0.324143
  outer loop
   vertex 78.841667 -1246.707153 22.863131
   vertex 79.428772 -1246.000000 23.792786
   vertex 79.388718 -1246.176758 23.854084
  endloop
 endfacet
 facet normal 0.892175 -0.314531 -0.324183
  outer loop
   vertex 79.001877 -1246.000000 22.617939
   vertex 79.428772 -1246.000000 23.792786
   vertex 78.841667 -1246.707153 22.863131
  endloop
 endfacet
 facet normal 0.892156 0.314590 -0.324176
  outer loop
   vertex 79.388718 -1245.823242 23.854084
   vertex 79.428772 -1246.000000 23.792786
   vertex 79.001877 -1246.000000 22.617939
  endloop
 endfacet
 facet normal 0.892178 0.314529 -0.324174
  outer loop
   vertex 79.001877 -1246.000000 22.617939
   vertex 78.841667 -1245.292847 22.863131
   vertex 79.388718 -1245.823242 23.854084
  endloop
 endfacet
 facet normal 0.648916 0.759332 0.048192
  outer loop
   vertex 79.388718 -1245.823242 23.854084
   vertex 78.841667 -1245.292847 22.863131
   vertex 79.292023 -1245.750000 24.002069
  endloop
 endfacet
 facet normal 0.648828 0.759403 0.048256
  outer loop
   vertex 79.292023 -1245.750000 24.002069
   vertex 78.841667 -1245.292847 22.863131
   vertex 78.454887 -1245.000000 23.455074
  endloop
 endfacet
 facet normal 0.304680 0.759375 0.574909
  outer loop
   vertex 78.454887 -1245.000000 23.455074
   vertex 79.195328 -1245.823242 24.150057
   vertex 79.292023 -1245.750000 24.002069
  endloop
 endfacet
 facet normal 0.304775 0.759395 0.574832
  outer loop
   vertex 78.068100 -1245.292847 24.047020
   vertex 79.195328 -1245.823242 24.150057
   vertex 78.454887 -1245.000000 23.455074
  endloop
 endfacet
endsolid