solid stl file generated from DOUG
 facet normal -0.551466 -0.226878 0.802752
  outer loop
   vertex 8.034965 -1309.686157 -27.570219
   vertex 7.933974 -1309.728027 -27.651430
   vertex 11.468053 -1318.275757 -27.639431
  endloop
 endfacet
 facet normal -0.924122 -0.382085 -0.003139
  outer loop
   vertex 11.468053 -1318.275757 -27.639431
   vertex 7.933974 -1309.728027 -27.651430
   vertex 11.468402 -1318.275757 -27.742186
  endloop
 endfacet
 facet normal -0.546008 -0.226880 -0.806474
  outer loop
   vertex 11.565292 -1318.233887 -26.453690
   vertex 11.463753 -1318.275757 -26.373165
   vertex 7.929674 -1309.728027 -26.385164
  endloop
 endfacet
 facet normal -0.924122 -0.382085 -0.003139
  outer loop
   vertex 7.929674 -1309.728027 -26.385164
   vertex 11.463753 -1318.275757 -26.373165
   vertex 11.463404 -1318.275757 -26.270409
  endloop
 endfacet
 facet normal -0.924122 -0.382085 -0.003139
  outer loop
   vertex 11.463404 -1318.275757 -26.270409
   vertex 7.929325 -1309.728027 -26.282410
   vertex 7.929674 -1309.728027 -26.385164
  endloop
 endfacet
 facet normal -0.863744 -0.356617 0.356050
  outer loop
   vertex 12.140532 -1317.995850 -26.268110
   vertex 8.606454 -1309.448120 -26.280109
   vertex 12.129479 -1318.000488 -26.299570
  endloop
 endfacet
 facet normal -0.864176 -0.356792 0.354822
  outer loop
   vertex 12.129479 -1318.000488 -26.299570
   vertex 8.606454 -1309.448120 -26.280109
   vertex 8.595401 -1309.452637 -26.311571
  endloop
 endfacet
 facet normal -0.003395 0.000000 0.999994
  outer loop
   vertex 8.595401 -1309.452637 -26.311571
   vertex 8.063886 -1309.672485 -26.313375
   vertex 12.129479 -1318.000488 -26.299570
  endloop
 endfacet
 facet normal -0.551476 -0.226882 0.802745
  outer loop
   vertex 11.468053 -1318.275757 -27.639431
   vertex 11.569043 -1318.233887 -27.558218
   vertex 8.034965 -1309.686157 -27.570219
  endloop
 endfacet
 facet normal -0.924122 -0.382085 -0.003138
  outer loop
   vertex 8.034965 -1309.686157 -27.570219
   vertex 11.569043 -1318.233887 -27.558218
   vertex 11.565292 -1318.233887 -26.453690
  endloop
 endfacet
 facet normal -0.924122 -0.382085 -0.003138
  outer loop
   vertex 11.565292 -1318.233887 -26.453690
   vertex 8.031214 -1309.686157 -26.465689
   vertex 8.034965 -1309.686157 -27.570219
  endloop
 endfacet
 facet normal -0.546008 -0.226880 -0.806474
  outer loop
   vertex 7.929674 -1309.728027 -26.385164
   vertex 8.031214 -1309.686157 -26.465689
   vertex 11.565292 -1318.233887 -26.453690
  endloop
 endfacet
 facet normal -0.003402 -0.000003 0.999994
  outer loop
   vertex 7.929325 -1309.728027 -26.282410
   vertex 11.463404 -1318.275757 -26.270409
   vertex 8.052619 -1309.677002 -26.281990
  endloop
 endfacet
 facet normal -0.003389 0.000003 0.999994
  outer loop
   vertex 8.052619 -1309.677002 -26.281990
   vertex 11.463404 -1318.275757 -26.270409
   vertex 11.586698 -1318.224854 -26.269991
  endloop
 endfacet
 facet normal 0.861743 0.356791 0.360693
  outer loop
   vertex 11.586698 -1318.224854 -26.269991
   vertex 8.063886 -1309.672485 -26.313375
   vertex 8.052619 -1309.677002 -26.281990
  endloop
 endfacet
 facet normal 0.861309 0.356618 0.361899
  outer loop
   vertex 11.597964 -1318.220215 -26.301376
   vertex 8.063886 -1309.672485 -26.313375
   vertex 11.586698 -1318.224854 -26.269991
  endloop
 endfacet
 facet normal -0.003398 -0.000001 0.999994
  outer loop
   vertex 12.129479 -1318.000488 -26.299570
   vertex 8.063886 -1309.672485 -26.313375
   vertex 11.597964 -1318.220215 -26.301376
  endloop
 endfacet
 facet normal 0.382107 -0.924117 0.001298
  outer loop
   vertex 11.656860 -1318.780396 -27.758587
   vertex 12.428473 -1318.459229 -26.250092
   vertex 11.651747 -1318.780396 -26.252728
  endloop
 endfacet
 facet normal -0.003395 0.000002 0.999994
  outer loop
   vertex 11.651747 -1318.780396 -26.252728
   vertex 12.428473 -1318.459229 -26.250092
   vertex 11.269665 -1317.856323 -26.254026
  endloop
 endfacet
 facet normal -0.924114 -0.382104 -0.003138
  outer loop
   vertex 11.269665 -1317.856323 -26.254026
   vertex 11.274778 -1317.856323 -27.759884
   vertex 11.651747 -1318.780396 -26.252728
  endloop
 endfacet
 facet normal -0.382107 0.924117 -0.001298
  outer loop
   vertex 12.046391 -1317.535156 -26.251389
   vertex 11.274778 -1317.856323 -27.759884
   vertex 11.269665 -1317.856323 -26.254026
  endloop
 endfacet
 facet normal -0.382107 0.924117 -0.001297
  outer loop
   vertex 12.051504 -1317.535156 -27.757246
   vertex 11.274778 -1317.856323 -27.759884
   vertex 12.046391 -1317.535156 -26.251389
  endloop
 endfacet
 facet normal 0.924114 0.382103 0.003138
  outer loop
   vertex 12.046391 -1317.535156 -26.251389
   vertex 12.428473 -1318.459229 -26.250092
   vertex 12.051504 -1317.535156 -27.757246
  endloop
 endfacet
 facet normal 0.924114 0.382104 0.003138
  outer loop
   vertex 12.051504 -1317.535156 -27.757246
   vertex 12.428473 -1318.459229 -26.250092
   vertex 12.433586 -1318.459229 -27.755949
  endloop
 endfacet
 facet normal 0.382107 -0.924117 0.001298
  outer loop
   vertex 12.433586 -1318.459229 -27.755949
   vertex 12.428473 -1318.459229 -26.250092
   vertex 11.656860 -1318.780396 -27.758587
  endloop
 endfacet
 facet normal 0.003396 0.000001 -0.999994
  outer loop
   vertex 11.656860 -1318.780396 -27.758587
   vertex 11.274778 -1317.856323 -27.759884
   vertex 12.433586 -1318.459229 -27.755949
  endloop
 endfacet
 facet normal -0.924114 -0.382104 -0.003138
  outer loop
   vertex 11.651747 -1318.780396 -26.252728
   vertex 11.274778 -1317.856323 -27.759884
   vertex 11.656860 -1318.780396 -27.758587
  endloop
 endfacet
 facet normal 0.382107 -0.924117 0.001298
  outer loop
   vertex 8.088372 -1310.161865 -26.264828
   vertex 8.093486 -1310.161865 -27.770687
   vertex 8.865098 -1309.840698 -26.262190
  endloop
 endfacet
 facet normal 0.382107 -0.924117 0.001298
  outer loop
   vertex 8.865098 -1309.840698 -26.262190
   vertex 8.093486 -1310.161865 -27.770687
   vertex 8.870212 -1309.840698 -27.768049
  endloop
 endfacet
 facet normal 0.924132 0.382061 0.003138
  outer loop
   vertex 8.870212 -1309.840698 -27.768049
   vertex 8.488130 -1308.916504 -27.769346
   vertex 8.865098 -1309.840698 -26.262190
  endloop
 endfacet
 facet normal 0.003396 0.000001 -0.999994
  outer loop
   vertex 8.093486 -1310.161865 -27.770687
   vertex 8.488130 -1308.916504 -27.769346
   vertex 8.870212 -1309.840698 -27.768049
  endloop
 endfacet
 facet normal 0.003396 0.000001 -0.999994
  outer loop
   vertex 7.711404 -1309.237671 -27.771984
   vertex 8.488130 -1308.916504 -27.769346
   vertex 8.093486 -1310.161865 -27.770687
  endloop
 endfacet
 facet normal -0.924132 -0.382061 -0.003138
  outer loop
   vertex 8.093486 -1310.161865 -27.770687
   vertex 7.706290 -1309.237671 -26.266125
   vertex 7.711404 -1309.237671 -27.771984
  endloop
 endfacet
 facet normal -0.382107 0.924117 -0.001298
  outer loop
   vertex 7.711404 -1309.237671 -27.771984
   vertex 7.706290 -1309.237671 -26.266125
   vertex 8.488130 -1308.916504 -27.769346
  endloop
 endfacet
 facet normal -0.382107 0.924117 -0.001297
  outer loop
   vertex 8.488130 -1308.916504 -27.769346
   vertex 7.706290 -1309.237671 -26.266125
   vertex 8.483017 -1308.916504 -26.263487
  endloop
 endfacet
 facet normal 0.924132 0.382060 0.003138
  outer loop
   vertex 8.483017 -1308.916504 -26.263487
   vertex 8.865098 -1309.840698 -26.262190
   vertex 8.488130 -1308.916504 -27.769346
  endloop
 endfacet
 facet normal -0.003396 -0.000001 0.999994
  outer loop
   vertex 7.706290 -1309.237671 -26.266125
   vertex 8.865098 -1309.840698 -26.262190
   vertex 8.483017 -1308.916504 -26.263487
  endloop
 endfacet
 facet normal -0.003396 -0.000001 0.999994
  outer loop
   vertex 8.088372 -1310.161865 -26.264828
   vertex 8.865098 -1309.840698 -26.262190
   vertex 7.706290 -1309.237671 -26.266125
  endloop
 endfacet
 facet normal -0.924132 -0.382061 -0.003138
  outer loop
   vertex 7.706290 -1309.237671 -26.266125
   vertex 8.093486 -1310.161865 -27.770687
   vertex 8.088372 -1310.161865 -26.264828
  endloop
 endfacet
 facet normal -0.924122 -0.382085 -0.003139
  outer loop
   vertex 7.933974 -1309.728027 -27.651430
   vertex 7.934323 -1309.728027 -27.754187
   vertex 11.468402 -1318.275757 -27.742186
  endloop
 endfacet
 facet normal 0.003402 0.000003 -0.999994
  outer loop
   vertex 11.468402 -1318.275757 -27.742186
   vertex 7.934323 -1309.728027 -27.754187
   vertex 8.057617 -1309.677002 -27.753767
  endloop
 endfacet
 facet normal 0.003389 -0.000003 -0.999994
  outer loop
   vertex 8.057617 -1309.677002 -27.753767
   vertex 11.591696 -1318.224854 -27.741768
   vertex 11.468402 -1318.275757 -27.742186
  endloop
 endfacet
 facet normal 0.864176 0.356792 -0.354822
  outer loop
   vertex 8.068670 -1309.672485 -27.722305
   vertex 11.591696 -1318.224854 -27.741768
   vertex 8.057617 -1309.677002 -27.753767
  endloop
 endfacet
 facet normal 0.863750 0.356620 -0.356031
  outer loop
   vertex 11.602749 -1318.220215 -27.710306
   vertex 11.591696 -1318.224854 -27.741768
   vertex 8.068670 -1309.672485 -27.722305
  endloop
 endfacet
 facet normal 0.003395 -0.000000 -0.999994
  outer loop
   vertex 8.068670 -1309.672485 -27.722305
   vertex 8.600185 -1309.452637 -27.720501
   vertex 11.602749 -1318.220215 -27.710306
  endloop
 endfacet
 facet normal 0.003395 -0.000000 -0.999994
  outer loop
   vertex 11.602749 -1318.220215 -27.710306
   vertex 8.600185 -1309.452637 -27.720501
   vertex 12.134264 -1318.000488 -27.708502
  endloop
 endfacet
 facet normal -0.861751 -0.356794 -0.360670
  outer loop
   vertex 12.134264 -1318.000488 -27.708502
   vertex 8.600185 -1309.452637 -27.720501
   vertex 8.611451 -1309.448120 -27.751886
  endloop
 endfacet
 facet normal -0.861317 -0.356621 -0.361876
  outer loop
   vertex 8.611451 -1309.448120 -27.751886
   vertex 12.145530 -1317.995850 -27.739887
   vertex 12.134264 -1318.000488 -27.708502
  endloop
 endfacet
 facet normal 0.003398 0.000001 -0.999994
  outer loop
   vertex 8.672628 -1309.422729 -27.751678
   vertex 12.145530 -1317.995850 -27.739887
   vertex 8.611451 -1309.448120 -27.751886
  endloop
 endfacet
 facet normal 0.003398 0.000001 -0.999994
  outer loop
   vertex 12.206707 -1317.970581 -27.739679
   vertex 12.145530 -1317.995850 -27.739887
   vertex 8.672628 -1309.422729 -27.751678
  endloop
 endfacet
 facet normal 0.924124 0.382080 0.003138
  outer loop
   vertex 8.672628 -1309.422729 -27.751678
   vertex 8.667630 -1309.422729 -26.279902
   vertex 12.206707 -1317.970581 -27.739679
  endloop
 endfacet
 facet normal 0.924124 0.382080 0.003138
  outer loop
   vertex 12.206707 -1317.970581 -27.739679
   vertex 8.667630 -1309.422729 -26.279902
   vertex 12.201709 -1317.970581 -26.267902
  endloop
 endfacet
 facet normal -0.003398 -0.000001 0.999994
  outer loop
   vertex 12.201709 -1317.970581 -26.267902
   vertex 8.667630 -1309.422729 -26.279902
   vertex 12.140532 -1317.995850 -26.268110
  endloop
 endfacet
 facet normal -0.003396 -0.000001 0.999994
  outer loop
   vertex 12.046391 -1317.535156 -26.251389
   vertex 11.269665 -1317.856323 -26.254026
   vertex 12.428473 -1318.459229 -26.250092
  endloop
 endfacet
 facet normal 0.003396 0.000001 -0.999994
  outer loop
   vertex 11.274778 -1317.856323 -27.759884
   vertex 12.051504 -1317.535156 -27.757246
   vertex 12.433586 -1318.459229 -27.755949
  endloop
 endfacet
 facet normal -0.003398 -0.000001 0.999994
  outer loop
   vertex 8.667630 -1309.422729 -26.279902
   vertex 8.606454 -1309.448120 -26.280109
   vertex 12.140532 -1317.995850 -26.268110
  endloop
 endfacet
 facet normal -0.351701 0.853800 -0.383838
  outer loop
   vertex 10.083284 -1307.702026 -27.010992
   vertex 11.007407 -1307.319946 -27.007853
   vertex 10.197595 -1307.972656 -27.717714
  endloop
 endfacet
 facet normal -0.351702 0.853800 -0.383837
  outer loop
   vertex 10.197595 -1307.972656 -27.717714
   vertex 11.007407 -1307.319946 -27.007853
   vertex 11.121717 -1307.590576 -27.714577
  endloop
 endfacet
 facet normal -0.143061 0.353607 -0.924389
  outer loop
   vertex 11.121717 -1307.590576 -27.714577
   vertex 10.468761 -1308.626221 -28.009689
   vertex 10.197595 -1307.972656 -27.717714
  endloop
 endfacet
 facet normal -0.143059 0.353606 -0.924390
  outer loop
   vertex 11.392884 -1308.244141 -28.006550
   vertex 10.468761 -1308.626221 -28.009689
   vertex 11.121717 -1307.590576 -27.714577
  endloop
 endfacet
 facet normal 0.149356 -0.353655 -0.923375
  outer loop
   vertex 10.737940 -1309.279663 -27.715879
   vertex 10.468761 -1308.626221 -28.009689
   vertex 11.392884 -1308.244141 -28.006550
  endloop
 endfacet
 facet normal 0.149354 -0.353654 -0.923376
  outer loop
   vertex 11.392884 -1308.244141 -28.006550
   vertex 11.662062 -1308.897583 -27.712742
   vertex 10.737940 -1309.279663 -27.715879
  endloop
 endfacet
 facet normal 0.354300 -0.853800 -0.381440
  outer loop
   vertex 10.737940 -1309.279663 -27.715879
   vertex 11.662062 -1308.897583 -27.712742
   vertex 10.847447 -1309.550293 -27.008396
  endloop
 endfacet
 facet normal 0.354300 -0.853800 -0.381440
  outer loop
   vertex 10.847447 -1309.550293 -27.008396
   vertex 11.662062 -1308.897583 -27.712742
   vertex 11.771570 -1309.168213 -27.005259
  endloop
 endfacet
 facet normal 0.351702 -0.853800 0.383838
  outer loop
   vertex 11.771570 -1309.168213 -27.005259
   vertex 10.733137 -1309.279663 -26.301674
   vertex 10.847447 -1309.550293 -27.008396
  endloop
 endfacet
 facet normal 0.351702 -0.853800 0.383838
  outer loop
   vertex 11.657260 -1308.897583 -26.298536
   vertex 10.733137 -1309.279663 -26.301674
   vertex 11.771570 -1309.168213 -27.005259
  endloop
 endfacet
 facet normal 0.143080 -0.353653 0.924369
  outer loop
   vertex 10.461970 -1308.626221 -26.009701
   vertex 10.733137 -1309.279663 -26.301674
   vertex 11.657260 -1308.897583 -26.298536
  endloop
 endfacet
 facet normal 0.143079 -0.353656 0.924368
  outer loop
   vertex 11.657260 -1308.897583 -26.298536
   vertex 11.386093 -1308.244141 -26.006561
   vertex 10.461970 -1308.626221 -26.009701
  endloop
 endfacet
 facet normal -0.149336 0.353605 0.923397
  outer loop
   vertex 10.461970 -1308.626221 -26.009701
   vertex 11.386093 -1308.244141 -26.006561
   vertex 10.192792 -1307.972656 -26.303509
  endloop
 endfacet
 facet normal -0.149335 0.353608 0.923396
  outer loop
   vertex 10.192792 -1307.972656 -26.303509
   vertex 11.386093 -1308.244141 -26.006561
   vertex 11.116915 -1307.590576 -26.300371
  endloop
 endfacet
 facet normal -0.354300 0.853800 0.381440
  outer loop
   vertex 11.116915 -1307.590576 -26.300371
   vertex 10.083284 -1307.702026 -27.010992
   vertex 10.192792 -1307.972656 -26.303509
  endloop
 endfacet
 facet normal -0.354301 0.853800 0.381441
  outer loop
   vertex 11.007407 -1307.319946 -27.007853
   vertex 10.083284 -1307.702026 -27.010992
   vertex 11.116915 -1307.590576 -26.300371
  endloop
 endfacet
 facet normal 0.351640 -0.853655 0.384217
  outer loop
   vertex 13.189925 -1317.808350 -26.823666
   vertex 12.294380 -1318.258179 -27.003485
   vertex 13.218503 -1317.876099 -27.000345
  endloop
 endfacet
 facet normal 0.354242 -0.853655 -0.381819
  outer loop
   vertex 13.218503 -1317.876099 -27.000345
   vertex 12.294380 -1318.258179 -27.003485
   vertex 12.267003 -1318.190430 -27.180355
  endloop
 endfacet
 facet normal 0.354242 -0.853657 -0.381815
  outer loop
   vertex 12.267003 -1318.190430 -27.180355
   vertex 13.191126 -1317.808350 -27.177217
   vertex 13.218503 -1317.876099 -27.000345
  endloop
 endfacet
 facet normal 0.149374 -0.353702 -0.923354
  outer loop
   vertex 12.199709 -1318.027100 -27.253807
   vertex 13.191126 -1317.808350 -27.177217
   vertex 12.267003 -1318.190430 -27.180355
  endloop
 endfacet
 facet normal 0.149374 -0.353702 -0.923354
  outer loop
   vertex 13.123831 -1317.645020 -27.250669
   vertex 13.191126 -1317.808350 -27.177217
   vertex 12.199709 -1318.027100 -27.253807
  endloop
 endfacet
 facet normal -0.143102 0.353705 -0.924345
  outer loop
   vertex 12.199709 -1318.027100 -27.253807
   vertex 12.131917 -1317.863770 -27.180813
   vertex 13.123831 -1317.645020 -27.250669
  endloop
 endfacet
 facet normal -0.143102 0.353705 -0.924345
  outer loop
   vertex 13.123831 -1317.645020 -27.250669
   vertex 12.131917 -1317.863770 -27.180813
   vertex 13.056039 -1317.481689 -27.177675
  endloop
 endfacet
 facet normal -0.351641 0.853654 -0.384217
  outer loop
   vertex 13.056039 -1317.481689 -27.177675
   vertex 12.131917 -1317.863770 -27.180813
   vertex 12.103339 -1317.796021 -27.004133
  endloop
 endfacet
 facet normal -0.351641 0.853655 -0.384216
  outer loop
   vertex 12.103339 -1317.796021 -27.004133
   vertex 13.027462 -1317.413940 -27.000996
   vertex 13.056039 -1317.481689 -27.177675
  endloop
 endfacet
 facet normal -0.354242 0.853655 0.381819
  outer loop
   vertex 12.130716 -1317.863770 -26.827263
   vertex 13.027462 -1317.413940 -27.000996
   vertex 12.103339 -1317.796021 -27.004133
  endloop
 endfacet
 facet normal -0.354243 0.853656 0.381815
  outer loop
   vertex 13.054839 -1317.481689 -26.824123
   vertex 13.027462 -1317.413940 -27.000996
   vertex 12.130716 -1317.863770 -26.827263
  endloop
 endfacet
 facet normal -0.149375 0.353702 0.923354
  outer loop
   vertex 12.130716 -1317.863770 -26.827263
   vertex 12.198010 -1318.027100 -26.753811
   vertex 13.054839 -1317.481689 -26.824123
  endloop
 endfacet
 facet normal -0.149375 0.353702 0.923354
  outer loop
   vertex 13.054839 -1317.481689 -26.824123
   vertex 12.198010 -1318.027100 -26.753811
   vertex 13.122133 -1317.645020 -26.750671
  endloop
 endfacet
 facet normal 0.143097 -0.353698 0.924349
  outer loop
   vertex 13.122133 -1317.645020 -26.750671
   vertex 12.198010 -1318.027100 -26.753811
   vertex 12.265802 -1318.190430 -26.826803
  endloop
 endfacet
 facet normal 0.143102 -0.353705 0.924345
  outer loop
   vertex 12.265802 -1318.190430 -26.826803
   vertex 13.189925 -1317.808350 -26.823666
   vertex 13.122133 -1317.645020 -26.750671
  endloop
 endfacet
 facet normal 0.351641 -0.853656 0.384214
  outer loop
   vertex 12.294380 -1318.258179 -27.003485
   vertex 13.189925 -1317.808350 -26.823666
   vertex 12.265802 -1318.190430 -26.826803
  endloop
 endfacet
 facet normal 0.351681 -0.853752 0.383964
  outer loop
   vertex 15.229722 -1317.538086 -26.286406
   vertex 14.419909 -1318.190918 -26.996267
   vertex 15.344032 -1317.808838 -26.993128
  endloop
 endfacet
 facet normal 0.354281 -0.853752 -0.381567
  outer loop
   vertex 15.344032 -1317.808838 -26.993128
   vertex 14.419909 -1318.190918 -26.996267
   vertex 14.310402 -1317.920166 -27.703749
  endloop
 endfacet
 facet normal 0.354281 -0.853752 -0.381566
  outer loop
   vertex 14.310402 -1317.920166 -27.703749
   vertex 15.234525 -1317.538086 -27.700611
   vertex 15.344032 -1317.808838 -26.993128
  endloop
 endfacet
 facet normal 0.149355 -0.353656 -0.923375
  outer loop
   vertex 14.041224 -1317.266724 -27.997559
   vertex 15.234525 -1317.538086 -27.700611
   vertex 14.310402 -1317.920166 -27.703749
  endloop
 endfacet
 facet normal 0.149355 -0.353656 -0.923375
  outer loop
   vertex 14.965346 -1316.884644 -27.994421
   vertex 15.234525 -1317.538086 -27.700611
   vertex 14.041224 -1317.266724 -27.997559
  endloop
 endfacet
 facet normal -0.143081 0.353655 -0.924368
  outer loop
   vertex 14.041224 -1317.266724 -27.997559
   vertex 13.770057 -1316.613281 -27.705584
   vertex 14.965346 -1316.884644 -27.994421
  endloop
 endfacet
 facet normal -0.143081 0.353655 -0.924368
  outer loop
   vertex 14.965346 -1316.884644 -27.994421
   vertex 13.770057 -1316.613281 -27.705584
   vertex 14.694180 -1316.231201 -27.702446
  endloop
 endfacet
 facet normal -0.351702 0.853800 -0.383838
  outer loop
   vertex 14.694180 -1316.231201 -27.702446
   vertex 13.770057 -1316.613281 -27.705584
   vertex 13.655746 -1316.342651 -26.998861
  endloop
 endfacet
 facet normal -0.351702 0.853800 -0.383838
  outer loop
   vertex 13.655746 -1316.342651 -26.998861
   vertex 14.579869 -1315.960571 -26.995724
   vertex 14.694180 -1316.231201 -27.702446
  endloop
 endfacet
 facet normal -0.354300 0.853800 0.381440
  outer loop
   vertex 13.765255 -1316.613281 -26.291378
   vertex 14.579869 -1315.960571 -26.995724
   vertex 13.655746 -1316.342651 -26.998861
  endloop
 endfacet
 facet normal -0.354300 0.853800 0.381440
  outer loop
   vertex 14.689377 -1316.231201 -26.288240
   vertex 14.579869 -1315.960571 -26.995724
   vertex 13.765255 -1316.613281 -26.291378
  endloop
 endfacet
 facet normal -0.149354 0.353654 0.923376
  outer loop
   vertex 13.765255 -1316.613281 -26.291378
   vertex 14.034432 -1317.266724 -25.997570
   vertex 14.689377 -1316.231201 -26.288240
  endloop
 endfacet
 facet normal -0.149356 0.353655 0.923375
  outer loop
   vertex 14.689377 -1316.231201 -26.288240
   vertex 14.034432 -1317.266724 -25.997570
   vertex 14.958555 -1316.884644 -25.994431
  endloop
 endfacet
 facet normal 0.143079 -0.353654 0.924369
  outer loop
   vertex 14.958555 -1316.884644 -25.994431
   vertex 14.034432 -1317.266724 -25.997570
   vertex 14.305599 -1317.920166 -26.289543
  endloop
 endfacet
 facet normal 0.143081 -0.353655 0.924368
  outer loop
   vertex 14.305599 -1317.920166 -26.289543
   vertex 15.229722 -1317.538086 -26.286406
   vertex 14.958555 -1316.884644 -25.994431
  endloop
 endfacet
 facet normal 0.351682 -0.853752 0.383963
  outer loop
   vertex 14.419909 -1318.190918 -26.996267
   vertex 15.229722 -1317.538086 -26.286406
   vertex 14.305599 -1317.920166 -26.289543
  endloop
 endfacet
 facet normal -0.237256 -0.919356 0.313838
  outer loop
   vertex 14.305599 -1317.920166 -26.289543
   vertex 13.209227 -1317.879883 -27.000378
   vertex 14.419909 -1318.190918 -26.996267
  endloop
 endfacet
 facet normal -0.235144 -0.919447 -0.315157
  outer loop
   vertex 14.419909 -1318.190918 -26.996267
   vertex 13.209227 -1317.879883 -27.000378
   vertex 13.181849 -1317.812256 -27.177248
  endloop
 endfacet
 facet normal -0.235075 -0.919363 -0.315453
  outer loop
   vertex 13.181849 -1317.812256 -27.177248
   vertex 14.310402 -1317.920166 -27.703749
   vertex 14.419909 -1318.190918 -26.996267
  endloop
 endfacet
 facet normal -0.403567 -0.508087 -0.760908
  outer loop
   vertex 13.114555 -1317.648804 -27.250700
   vertex 14.310402 -1317.920166 -27.703749
   vertex 13.181849 -1317.812256 -27.177248
  endloop
 endfacet
 facet normal -0.403562 -0.508307 -0.760763
  outer loop
   vertex 14.041224 -1317.266724 -27.997559
   vertex 14.310402 -1317.920166 -27.703749
   vertex 13.114555 -1317.648804 -27.250700
  endloop
 endfacet
 facet normal -0.643936 0.073079 -0.761581
  outer loop
   vertex 13.114555 -1317.648804 -27.250700
   vertex 13.046763 -1317.485474 -27.177708
   vertex 14.041224 -1317.266724 -27.997559
  endloop
 endfacet
 facet normal -0.643935 0.073072 -0.761582
  outer loop
   vertex 14.041224 -1317.266724 -27.997559
   vertex 13.046763 -1317.485474 -27.177708
   vertex 13.770057 -1316.613281 -27.705584
  endloop
 endfacet
 facet normal -0.815416 0.484213 -0.317230
  outer loop
   vertex 13.770057 -1316.613281 -27.705584
   vertex 13.046763 -1317.485474 -27.177708
   vertex 13.018186 -1317.417847 -27.001026
  endloop
 endfacet
 facet normal -0.815421 0.484161 -0.317295
  outer loop
   vertex 13.018186 -1317.417847 -27.001026
   vertex 13.655746 -1316.342651 -26.998861
   vertex 13.770057 -1316.613281 -27.705584
  endloop
 endfacet
 facet normal -0.817578 0.484174 0.311675
  outer loop
   vertex 13.045563 -1317.485474 -26.824156
   vertex 13.655746 -1316.342651 -26.998861
   vertex 13.018186 -1317.417847 -27.001026
  endloop
 endfacet
 facet normal -0.817551 0.484171 0.311753
  outer loop
   vertex 13.765255 -1316.613281 -26.291378
   vertex 13.655746 -1316.342651 -26.998861
   vertex 13.045563 -1317.485474 -26.824156
  endloop
 endfacet
 facet normal -0.649099 0.073080 0.757185
  outer loop
   vertex 13.045563 -1317.485474 -26.824156
   vertex 13.112857 -1317.648804 -26.750704
   vertex 13.765255 -1316.613281 -26.291378
  endloop
 endfacet
 facet normal -0.649091 0.073072 0.757193
  outer loop
   vertex 13.765255 -1316.613281 -26.291378
   vertex 13.112857 -1317.648804 -26.750704
   vertex 14.034432 -1317.266724 -25.997570
  endloop
 endfacet
 facet normal -0.408856 -0.508102 0.758069
  outer loop
   vertex 14.034432 -1317.266724 -25.997570
   vertex 13.112857 -1317.648804 -26.750704
   vertex 13.180649 -1317.812256 -26.823696
  endloop
 endfacet
 facet normal -0.408687 -0.508302 0.758026
  outer loop
   vertex 13.180649 -1317.812256 -26.823696
   vertex 14.305599 -1317.920166 -26.289543
   vertex 14.034432 -1317.266724 -25.997570
  endloop
 endfacet
 facet normal -0.237101 -0.919480 0.313591
  outer loop
   vertex 13.209227 -1317.879883 -27.000378
   vertex 14.305599 -1317.920166 -26.289543
   vertex 13.180649 -1317.812256 -26.823696
  endloop
 endfacet
 facet normal -0.351722 0.853848 -0.383713
  outer loop
   vertex 8.530877 -1309.155518 -27.016264
   vertex 9.454999 -1308.773438 -27.013124
   vertex 8.559454 -1309.223145 -27.192944
  endloop
 endfacet
 facet normal -0.351722 0.853849 -0.383711
  outer loop
   vertex 8.559454 -1309.223145 -27.192944
   vertex 9.454999 -1308.773438 -27.013124
   vertex 9.483577 -1308.841064 -27.189806
  endloop
 endfacet
 facet normal -0.143102 0.353705 -0.924345
  outer loop
   vertex 9.483577 -1308.841064 -27.189806
   vertex 8.627246 -1309.386475 -27.265938
   vertex 8.559454 -1309.223145 -27.192944
  endloop
 endfacet
 facet normal -0.143102 0.353705 -0.924345
  outer loop
   vertex 9.551369 -1309.004395 -27.262800
   vertex 8.627246 -1309.386475 -27.265938
   vertex 9.483577 -1308.841064 -27.189806
  endloop
 endfacet
 facet normal 0.149373 -0.353702 -0.923354
  outer loop
   vertex 8.694541 -1309.549805 -27.192486
   vertex 8.627246 -1309.386475 -27.265938
   vertex 9.551369 -1309.004395 -27.262800
  endloop
 endfacet
 facet normal 0.149379 -0.353709 -0.923350
  outer loop
   vertex 9.551369 -1309.004395 -27.262800
   vertex 9.618663 -1309.167725 -27.189346
   vertex 8.694541 -1309.549805 -27.192486
  endloop
 endfacet
 facet normal 0.354243 -0.853655 -0.381817
  outer loop
   vertex 8.694541 -1309.549805 -27.192486
   vertex 9.618663 -1309.167725 -27.189346
   vertex 8.721917 -1309.617554 -27.015615
  endloop
 endfacet
 facet normal 0.354242 -0.853655 -0.381819
  outer loop
   vertex 8.721917 -1309.617554 -27.015615
   vertex 9.618663 -1309.167725 -27.189346
   vertex 9.646040 -1309.235474 -27.012476
  endloop
 endfacet
 facet normal 0.351641 -0.853657 0.384212
  outer loop
   vertex 9.646040 -1309.235474 -27.012476
   vertex 8.693340 -1309.549805 -26.838934
   vertex 8.721917 -1309.617554 -27.015615
  endloop
 endfacet
 facet normal 0.351641 -0.853654 0.384217
  outer loop
   vertex 9.617462 -1309.167725 -26.835796
   vertex 8.693340 -1309.549805 -26.838934
   vertex 9.646040 -1309.235474 -27.012476
  endloop
 endfacet
 facet normal 0.143102 -0.353705 0.924345
  outer loop
   vertex 8.625548 -1309.386475 -26.765940
   vertex 8.693340 -1309.549805 -26.838934
   vertex 9.617462 -1309.167725 -26.835796
  endloop
 endfacet
 facet normal 0.143102 -0.353705 0.924345
  outer loop
   vertex 9.617462 -1309.167725 -26.835796
   vertex 9.549670 -1309.004395 -26.762802
   vertex 8.625548 -1309.386475 -26.765940
  endloop
 endfacet
 facet normal -0.149374 0.353702 0.923354
  outer loop
   vertex 8.625548 -1309.386475 -26.765940
   vertex 9.549670 -1309.004395 -26.762802
   vertex 8.558254 -1309.223145 -26.839392
  endloop
 endfacet
 facet normal -0.149374 0.353702 0.923354
  outer loop
   vertex 8.558254 -1309.223145 -26.839392
   vertex 9.549670 -1309.004395 -26.762802
   vertex 9.482376 -1308.841064 -26.836254
  endloop
 endfacet
 facet normal -0.354320 0.853849 0.381312
  outer loop
   vertex 9.482376 -1308.841064 -26.836254
   vertex 8.530877 -1309.155518 -27.016264
   vertex 8.558254 -1309.223145 -26.839392
  endloop
 endfacet
 facet normal -0.354320 0.853848 0.381315
  outer loop
   vertex 9.454999 -1308.773438 -27.013124
   vertex 8.530877 -1309.155518 -27.016264
   vertex 9.482376 -1308.841064 -26.836254
  endloop
 endfacet
 facet normal -0.817552 0.484212 0.311686
  outer loop
   vertex 9.473101 -1308.844849 -26.836287
   vertex 10.192792 -1307.972656 -26.303509
   vertex 9.445724 -1308.777222 -27.013157
  endloop
 endfacet
 facet normal -0.817558 0.484161 0.311749
  outer loop
   vertex 9.445724 -1308.777222 -27.013157
   vertex 10.192792 -1307.972656 -26.303509
   vertex 10.083284 -1307.702026 -27.010992
  endloop
 endfacet
 facet normal -0.815443 0.484174 -0.317218
  outer loop
   vertex 10.083284 -1307.702026 -27.010992
   vertex 9.474300 -1308.844849 -27.189837
   vertex 9.445724 -1308.777222 -27.013157
  endloop
 endfacet
 facet normal -0.815414 0.484171 -0.317298
  outer loop
   vertex 10.197595 -1307.972656 -27.717714
   vertex 9.474300 -1308.844849 -27.189837
   vertex 10.083284 -1307.702026 -27.010992
  endloop
 endfacet
 facet normal -0.643919 0.073048 -0.761599
  outer loop
   vertex 9.542092 -1309.008301 -27.262831
   vertex 9.474300 -1308.844849 -27.189837
   vertex 10.197595 -1307.972656 -27.717714
  endloop
 endfacet
 facet normal -0.643933 0.073062 -0.761586
  outer loop
   vertex 10.197595 -1307.972656 -27.717714
   vertex 10.468761 -1308.626221 -28.009689
   vertex 9.542092 -1309.008301 -27.262831
  endloop
 endfacet
 facet normal -0.403518 -0.508374 -0.760742
  outer loop
   vertex 9.542092 -1309.008301 -27.262831
   vertex 10.468761 -1308.626221 -28.009689
   vertex 9.609387 -1309.171631 -27.189379
  endloop
 endfacet
 facet normal -0.403573 -0.508309 -0.760757
  outer loop
   vertex 9.609387 -1309.171631 -27.189379
   vertex 10.468761 -1308.626221 -28.009689
   vertex 10.737940 -1309.279663 -27.715879
  endloop
 endfacet
 facet normal -0.235056 -0.919463 -0.315177
  outer loop
   vertex 10.737940 -1309.279663 -27.715879
   vertex 9.636764 -1309.239258 -27.012508
   vertex 9.609387 -1309.171631 -27.189379
  endloop
 endfacet
 facet normal -0.235131 -0.919402 -0.315299
  outer loop
   vertex 10.847447 -1309.550293 -27.008396
   vertex 9.636764 -1309.239258 -27.012508
   vertex 10.737940 -1309.279663 -27.715879
  endloop
 endfacet
 facet normal -0.237279 -0.919448 0.313552
  outer loop
   vertex 9.608187 -1309.171631 -26.835827
   vertex 9.636764 -1309.239258 -27.012508
   vertex 10.847447 -1309.550293 -27.008396
  endloop
 endfacet
 facet normal -0.237245 -0.919406 0.313700
  outer loop
   vertex 10.847447 -1309.550293 -27.008396
   vertex 10.733137 -1309.279663 -26.301674
   vertex 9.608187 -1309.171631 -26.835827
  endloop
 endfacet
 facet normal -0.408718 -0.508376 0.757960
  outer loop
   vertex 9.608187 -1309.171631 -26.835827
   vertex 10.733137 -1309.279663 -26.301674
   vertex 9.540395 -1309.008301 -26.762835
  endloop
 endfacet
 facet normal -0.408720 -0.508306 0.758006
  outer loop
   vertex 9.540395 -1309.008301 -26.762835
   vertex 10.733137 -1309.279663 -26.301674
   vertex 10.461970 -1308.626221 -26.009701
  endloop
 endfacet
 facet normal -0.649085 0.073039 0.757202
  outer loop
   vertex 10.461970 -1308.626221 -26.009701
   vertex 9.473101 -1308.844849 -26.836287
   vertex 9.540395 -1309.008301 -26.762835
  endloop
 endfacet
 facet normal -0.649087 0.073062 0.757198
  outer loop
   vertex 10.192792 -1307.972656 -26.303509
   vertex 9.473101 -1308.844849 -26.836287
   vertex 10.461970 -1308.626221 -26.009701
  endloop
 endfacet
endsolid