solid stl file generated from DOUG
 facet normal -0.002227 -0.610487 0.792023
  outer loop
   vertex 9.177047 -1255.982056 -23.903351
   vertex 10.335578 -1255.898926 -23.836018
   vertex 9.176867 -1255.898926 -23.839275
  endloop
 endfacet
 facet normal -0.002812 -0.000000 0.999996
  outer loop
   vertex 9.176867 -1255.898926 -23.839275
   vertex 10.335578 -1255.898926 -23.836018
   vertex 10.335578 -1255.057251 -23.836018
  endloop
 endfacet
 facet normal 0.999996 -0.000000 0.002812
  outer loop
   vertex 1.321884 -1254.015381 -25.520031
   vertex 1.320951 -1252.187378 -25.187737
   vertex 1.320950 -1254.015381 -25.187737
  endloop
 endfacet
 facet normal -0.002812 0.000000 0.999996
  outer loop
   vertex 1.320950 -1254.015381 -25.187737
   vertex 1.320951 -1252.187378 -25.187737
   vertex 1.037380 -1254.086792 -25.188534
  endloop
 endfacet
 facet normal -0.002812 0.000000 0.999996
  outer loop
   vertex 11.899375 -1254.086792 -25.157993
   vertex 11.615806 -1252.187378 -25.158791
   vertex 11.615806 -1254.015381 -25.158791
  endloop
 endfacet
 facet normal -0.999996 -0.000000 -0.002810
  outer loop
   vertex 11.615806 -1254.015381 -25.158791
   vertex 11.615806 -1252.187378 -25.158791
   vertex 11.616739 -1254.015381 -25.491085
  endloop
 endfacet
 facet normal 0.000000 -1.000000 -0.000000
  outer loop
   vertex 9.440304 -1255.922852 -25.455044
   vertex 9.439995 -1255.922852 -25.345434
   vertex 3.497774 -1255.922852 -25.362141
  endloop
 endfacet
 facet normal -0.002263 -0.593624 0.804740
  outer loop
   vertex 3.497774 -1255.922852 -25.362141
   vertex 9.439995 -1255.922852 -25.345434
   vertex 3.497531 -1255.805908 -25.275877
  endloop
 endfacet
 facet normal -0.002812 -0.000002 0.999996
  outer loop
   vertex 2.593718 -1255.057251 -23.857784
   vertex 3.752429 -1255.898926 -23.854528
   vertex 3.752429 -1255.057251 -23.854527
  endloop
 endfacet
 facet normal 0.999996 -0.000000 0.002811
  outer loop
   vertex 3.752429 -1255.057251 -23.854527
   vertex 3.752429 -1255.898926 -23.854528
   vertex 3.753097 -1255.883301 -24.092274
  endloop
 endfacet
 facet normal -0.001013 -0.932912 0.360104
  outer loop
   vertex 9.435889 -1255.141235 -23.885067
   vertex 3.493668 -1255.141235 -23.901775
   vertex 9.435984 -1255.154175 -23.918589
  endloop
 endfacet
 facet normal -0.001012 -0.932905 0.360122
  outer loop
   vertex 9.435984 -1255.154175 -23.918589
   vertex 3.493668 -1255.141235 -23.901775
   vertex 3.493762 -1255.154175 -23.935295
  endloop
 endfacet
 facet normal -0.002811 0.000000 0.999996
  outer loop
   vertex 3.493762 -1255.154175 -23.935295
   vertex 3.493762 -1255.767700 -23.935295
   vertex 9.435984 -1255.154175 -23.918589
  endloop
 endfacet
 facet normal -0.002811 -0.000001 0.999996
  outer loop
   vertex 11.169634 -1251.088867 -25.160046
   vertex 11.899377 -1249.990479 -25.157993
   vertex 9.893909 -1249.990479 -25.163631
  endloop
 endfacet
 facet normal -0.000000 1.000000 -0.000000
  outer loop
   vertex 9.893909 -1249.990479 -25.163631
   vertex 11.899377 -1249.990479 -25.157993
   vertex 9.894843 -1249.990479 -25.495926
  endloop
 endfacet
 facet normal -0.999996 0.000000 -0.002813
  outer loop
   vertex 9.894843 -1249.990479 -25.495926
   vertex 9.894841 -1254.352539 -25.495928
   vertex 9.893909 -1249.990479 -25.163631
  endloop
 endfacet
 facet normal 0.000000 -1.000000 0.000000
  outer loop
   vertex 10.339626 -1255.982056 -25.275993
   vertex 9.181362 -1255.982056 -25.438215
   vertex 10.340074 -1255.982056 -25.434958
  endloop
 endfacet
 facet normal 0.002227 -0.610498 -0.792015
  outer loop
   vertex 10.340074 -1255.982056 -25.434958
   vertex 9.181362 -1255.982056 -25.438215
   vertex 9.181542 -1255.898926 -25.502293
  endloop
 endfacet
 facet normal 0.002228 -0.610487 -0.792023
  outer loop
   vertex 9.181542 -1255.898926 -25.502293
   vertex 10.340254 -1255.898926 -25.499033
   vertex 10.340074 -1255.982056 -25.434958
  endloop
 endfacet
 facet normal 0.000000 1.000000 0.000000
  outer loop
   vertex 3.042850 -1249.990479 -25.182894
   vertex 3.043784 -1249.990479 -25.515188
   vertex 1.037382 -1249.990479 -25.188532
  endloop
 endfacet
 facet normal 0.000000 1.000000 -0.000000
  outer loop
   vertex 1.037382 -1249.990479 -25.188532
   vertex 3.043784 -1249.990479 -25.515188
   vertex 1.038316 -1249.990479 -25.520826
  endloop
 endfacet
 facet normal -0.999996 0.000000 -0.002812
  outer loop
   vertex 1.038316 -1249.990479 -25.520826
   vertex 1.038315 -1254.086792 -25.520828
   vertex 1.037382 -1249.990479 -25.188532
  endloop
 endfacet
 facet normal 0.000000 -1.000000 -0.000000
  outer loop
   vertex 11.684662 -1254.352539 -25.490894
   vertex 11.683727 -1254.352539 -25.158600
   vertex 9.893907 -1254.352539 -25.163633
  endloop
 endfacet
 facet normal -0.002812 0.000000 0.999996
  outer loop
   vertex 9.893907 -1254.352539 -25.163633
   vertex 11.683727 -1254.352539 -25.158600
   vertex 10.439890 -1254.015381 -25.162098
  endloop
 endfacet
 facet normal -0.002812 -0.000001 0.999996
  outer loop
   vertex 10.439890 -1254.015381 -25.162098
   vertex 10.439891 -1252.187378 -25.162096
   vertex 9.893907 -1254.352539 -25.163633
  endloop
 endfacet
 facet normal 0.002263 -0.593632 -0.804733
  outer loop
   vertex 9.436440 -1255.805908 -24.080944
   vertex 9.436197 -1255.922852 -23.994678
   vertex 3.493976 -1255.922852 -24.011387
  endloop
 endfacet
 facet normal -0.000000 -1.000000 -0.000000
  outer loop
   vertex 3.493976 -1255.922852 -24.011387
   vertex 9.436197 -1255.922852 -23.994678
   vertex 9.435889 -1255.922852 -23.885069
  endloop
 endfacet
 facet normal 0.000000 -1.000000 0.000000
  outer loop
   vertex 9.435889 -1255.922852 -23.885069
   vertex 3.493668 -1255.922852 -23.901775
   vertex 3.493976 -1255.922852 -24.011387
  endloop
 endfacet
 facet normal -0.002809 0.000000 0.999996
  outer loop
   vertex 2.496866 -1252.187378 -25.184429
   vertex 2.496865 -1254.015381 -25.184429
   vertex 3.042848 -1254.352417 -25.182896
  endloop
 endfacet
 facet normal -0.002811 -0.000004 0.999996
  outer loop
   vertex 3.042848 -1254.352417 -25.182896
   vertex 2.496865 -1254.015381 -25.184429
   vertex 1.253027 -1254.352417 -25.187927
  endloop
 endfacet
 facet normal 0.000000 -1.000000 0.000000
  outer loop
   vertex 1.253027 -1254.352417 -25.187927
   vertex 1.253962 -1254.352417 -25.520222
   vertex 3.042848 -1254.352417 -25.182896
  endloop
 endfacet
 facet normal 0.002227 -0.610498 -0.792015
  outer loop
   vertex 2.598393 -1255.898926 -25.520802
   vertex 3.757104 -1255.898926 -25.517544
   vertex 2.598213 -1255.982056 -25.456724
  endloop
 endfacet
 facet normal 0.002227 -0.610498 -0.792015
  outer loop
   vertex 2.598213 -1255.982056 -25.456724
   vertex 3.757104 -1255.898926 -25.517544
   vertex 3.756924 -1255.982056 -25.453466
  endloop
 endfacet
 facet normal 0.000000 -1.000000 0.000000
  outer loop
   vertex 3.756924 -1255.982056 -25.453466
   vertex 2.597766 -1255.982056 -25.297760
   vertex 2.598213 -1255.982056 -25.456724
  endloop
 endfacet
 facet normal 0.999996 0.000001 0.002812
  outer loop
   vertex 3.753056 -1255.982056 -24.077568
   vertex 3.753097 -1255.883301 -24.092274
   vertex 3.752609 -1255.982056 -23.918604
  endloop
 endfacet
 facet normal 0.999996 -0.000001 0.002811
  outer loop
   vertex 3.752609 -1255.982056 -23.918604
   vertex 3.753097 -1255.883301 -24.092274
   vertex 3.752429 -1255.898926 -23.854528
  endloop
 endfacet
 facet normal -0.002227 -0.610487 0.792023
  outer loop
   vertex 3.752429 -1255.898926 -23.854528
   vertex 2.593718 -1255.898926 -23.857786
   vertex 3.752609 -1255.982056 -23.918604
  endloop
 endfacet
 facet normal -0.002812 -0.000002 0.999996
  outer loop
   vertex 2.593718 -1255.057251 -23.857784
   vertex 2.593718 -1255.898926 -23.857786
   vertex 3.752429 -1255.898926 -23.854528
  endloop
 endfacet
 facet normal -0.002812 0.000000 0.999996
  outer loop
   vertex 10.335578 -1255.057251 -23.836018
   vertex 9.176867 -1255.057251 -23.839275
   vertex 9.176867 -1255.898926 -23.839275
  endloop
 endfacet
 facet normal -0.999996 0.000001 -0.002812
  outer loop
   vertex 9.176867 -1255.898926 -23.839275
   vertex 9.176867 -1255.057251 -23.839275
   vertex 9.177535 -1255.883301 -24.077023
  endloop
 endfacet
 facet normal -0.999996 -0.000001 -0.002812
  outer loop
   vertex 9.177535 -1255.883301 -24.077023
   vertex 9.177047 -1255.982056 -23.903351
   vertex 9.176867 -1255.898926 -23.839275
  endloop
 endfacet
 facet normal -0.999996 -0.000004 -0.002814
  outer loop
   vertex 9.177494 -1255.982056 -24.062317
   vertex 9.177047 -1255.982056 -23.903351
   vertex 9.177535 -1255.883301 -24.077023
  endloop
 endfacet
 facet normal 0.002263 -0.593624 -0.804740
  outer loop
   vertex 3.493976 -1255.922852 -24.011387
   vertex 3.494219 -1255.805908 -24.097651
   vertex 9.436440 -1255.805908 -24.080944
  endloop
 endfacet
 facet normal 0.000000 -1.000000 -0.000000
  outer loop
   vertex 9.436440 -1255.805908 -24.080944
   vertex 3.494219 -1255.805908 -24.097651
   vertex 3.497531 -1255.805908 -25.275877
  endloop
 endfacet
 facet normal -0.000000 -1.000000 0.000000
  outer loop
   vertex 3.497531 -1255.805908 -25.275877
   vertex 9.439753 -1255.805908 -25.259169
   vertex 9.436440 -1255.805908 -24.080944
  endloop
 endfacet
 facet normal -0.002263 -0.593632 0.804733
  outer loop
   vertex 9.439995 -1255.922852 -25.345434
   vertex 9.439753 -1255.805908 -25.259169
   vertex 3.497531 -1255.805908 -25.275877
  endloop
 endfacet
 facet normal 0.002812 -0.000000 -0.999996
  outer loop
   vertex 10.440825 -1254.015381 -25.494392
   vertex 9.894841 -1254.352539 -25.495928
   vertex 10.440825 -1252.187378 -25.494392
  endloop
 endfacet
 facet normal 0.002810 0.000000 -0.999996
  outer loop
   vertex 10.440825 -1252.187378 -25.494392
   vertex 9.894841 -1254.352539 -25.495928
   vertex 9.894843 -1249.990479 -25.495926
  endloop
 endfacet
 facet normal 0.002811 0.000001 -0.999996
  outer loop
   vertex 9.894843 -1249.990479 -25.495926
   vertex 11.900311 -1249.990479 -25.490288
   vertex 10.440825 -1252.187378 -25.494392
  endloop
 endfacet
 facet normal 0.000000 1.000000 -0.000000
  outer loop
   vertex 11.899377 -1249.990479 -25.157993
   vertex 11.900311 -1249.990479 -25.490288
   vertex 9.894843 -1249.990479 -25.495926
  endloop
 endfacet
 facet normal 0.999996 -0.000000 0.002810
  outer loop
   vertex 11.900310 -1254.086792 -25.490288
   vertex 11.900311 -1249.990479 -25.490288
   vertex 11.899377 -1249.990479 -25.157993
  endloop
 endfacet
 facet normal 0.999996 -0.000000 0.002812
  outer loop
   vertex 3.042850 -1249.990479 -25.182894
   vertex 3.043782 -1254.352417 -25.515190
   vertex 3.043784 -1249.990479 -25.515188
  endloop
 endfacet
 facet normal 0.002810 0.000000 -0.999996
  outer loop
   vertex 3.043784 -1249.990479 -25.515188
   vertex 3.043782 -1254.352417 -25.515190
   vertex 2.497800 -1252.187378 -25.516724
  endloop
 endfacet
 facet normal 0.002811 0.000000 -0.999996
  outer loop
   vertex 2.497800 -1252.187378 -25.516724
   vertex 1.038316 -1249.990479 -25.520826
   vertex 3.043784 -1249.990479 -25.515188
  endloop
 endfacet
 facet normal 0.002813 0.000001 -0.999996
  outer loop
   vertex 1.321885 -1252.187378 -25.520031
   vertex 1.038316 -1249.990479 -25.520826
   vertex 2.497800 -1252.187378 -25.516724
  endloop
 endfacet
 facet normal 0.002808 0.000000 -0.999996
  outer loop
   vertex 1.038315 -1254.086792 -25.520828
   vertex 1.038316 -1249.990479 -25.520826
   vertex 1.321885 -1252.187378 -25.520031
  endloop
 endfacet
 facet normal -0.999996 -0.000017 -0.002794
  outer loop
   vertex 9.890740 -1249.990601 -25.495846
   vertex 9.887157 -1254.331421 -24.187017
   vertex 9.887083 -1249.990601 -24.187016
  endloop
 endfacet
 facet normal -0.002797 -0.000000 0.999996
  outer loop
   vertex 9.887083 -1249.990601 -24.187016
   vertex 9.887157 -1254.331421 -24.187017
   vertex 10.217883 -1254.331421 -24.186092
  endloop
 endfacet
 facet normal -0.002791 -0.000000 0.999996
  outer loop
   vertex 10.217883 -1254.331421 -24.186092
   vertex 10.217810 -1249.990601 -24.186092
   vertex 9.887083 -1249.990601 -24.187016
  endloop
 endfacet
 facet normal 0.999996 0.000017 0.002775
  outer loop
   vertex 10.221515 -1254.331421 -25.494944
   vertex 10.217810 -1249.990601 -24.186092
   vertex 10.217883 -1254.331421 -24.186092
  endloop
 endfacet
 facet normal 0.999996 0.000011 0.002794
  outer loop
   vertex 10.221466 -1249.990601 -25.494923
   vertex 10.217810 -1249.990601 -24.186092
   vertex 10.221515 -1254.331421 -25.494944
  endloop
 endfacet
 facet normal -0.002811 0.000000 0.999996
  outer loop
   vertex 3.493668 -1255.922852 -23.901775
   vertex 9.435889 -1255.922852 -23.885069
   vertex 3.493668 -1255.780518 -23.901775
  endloop
 endfacet
 facet normal -0.002811 -0.000000 0.999996
  outer loop
   vertex 3.493668 -1255.780518 -23.901775
   vertex 9.435889 -1255.922852 -23.885069
   vertex 9.435889 -1255.780518 -23.885069
  endloop
 endfacet
 facet normal -0.001004 0.934043 0.357159
  outer loop
   vertex 9.435889 -1255.780518 -23.885069
   vertex 3.493762 -1255.767700 -23.935295
   vertex 3.493668 -1255.780518 -23.901775
  endloop
 endfacet
 facet normal -0.001004 0.934043 0.357159
  outer loop
   vertex 9.435984 -1255.767700 -23.918589
   vertex 3.493762 -1255.767700 -23.935295
   vertex 9.435889 -1255.780518 -23.885069
  endloop
 endfacet
 facet normal -0.002811 0.000000 0.999996
  outer loop
   vertex 9.435984 -1255.154175 -23.918589
   vertex 3.493762 -1255.767700 -23.935295
   vertex 9.435984 -1255.767700 -23.918589
  endloop
 endfacet
 facet normal -0.999996 0.000012 -0.002829
  outer loop
   vertex 2.717160 -1249.990601 -25.516022
   vertex 2.717109 -1254.331421 -25.516043
   vertex 2.713457 -1249.990601 -24.207191
  endloop
 endfacet
 facet normal -0.999996 0.000018 -0.002849
  outer loop
   vertex 2.713457 -1249.990601 -24.207191
   vertex 2.717109 -1254.331421 -25.516043
   vertex 2.713380 -1254.331421 -24.207191
  endloop
 endfacet
 facet normal -0.002832 0.000000 0.999996
  outer loop
   vertex 2.713380 -1254.331421 -24.207191
   vertex 3.044183 -1249.990601 -24.206255
   vertex 2.713457 -1249.990601 -24.207191
  endloop
 endfacet
 facet normal -0.002826 -0.000000 0.999996
  outer loop
   vertex 3.044106 -1254.331421 -24.206257
   vertex 3.044183 -1249.990601 -24.206255
   vertex 2.713380 -1254.331421 -24.207191
  endloop
 endfacet
 facet normal 0.999996 -0.000018 0.002829
  outer loop
   vertex 3.047886 -1249.990601 -25.515085
   vertex 3.044183 -1249.990601 -24.206255
   vertex 3.044106 -1254.331421 -24.206257
  endloop
 endfacet
 facet normal 0.999996 -0.000018 0.002829
  outer loop
   vertex 3.044106 -1254.331421 -24.206257
   vertex 3.047808 -1254.331421 -25.515087
   vertex 3.047886 -1249.990601 -25.515085
  endloop
 endfacet
 facet normal -0.002812 0.000000 0.999996
  outer loop
   vertex 9.435889 -1255.141235 -23.885067
   vertex 9.435889 -1255.070679 -23.885067
   vertex 3.493668 -1255.070679 -23.901775
  endloop
 endfacet
 facet normal -0.000000 1.000000 0.000000
  outer loop
   vertex 3.493668 -1255.070679 -23.901775
   vertex 9.435889 -1255.070679 -23.885067
   vertex 9.440304 -1255.070679 -25.455044
  endloop
 endfacet
 facet normal 0.000000 1.000000 -0.000000
  outer loop
   vertex 9.440304 -1255.070679 -25.455044
   vertex 3.498082 -1255.070679 -25.471750
   vertex 3.493668 -1255.070679 -23.901775
  endloop
 endfacet
 facet normal 0.002811 -0.000000 -0.999996
  outer loop
   vertex 9.440304 -1255.141235 -25.455044
   vertex 3.498082 -1255.070679 -25.471750
   vertex 9.440304 -1255.070679 -25.455044
  endloop
 endfacet
 facet normal 0.002811 0.000000 -0.999996
  outer loop
   vertex 3.498082 -1255.141235 -25.471750
   vertex 3.498082 -1255.070679 -25.471750
   vertex 9.440304 -1255.141235 -25.455044
  endloop
 endfacet
 facet normal 0.001012 -0.932905 -0.360122
  outer loop
   vertex 9.440304 -1255.141235 -25.455044
   vertex 9.440209 -1255.154175 -25.421524
   vertex 3.498082 -1255.141235 -25.471750
  endloop
 endfacet
 facet normal 0.001012 -0.932905 -0.360122
  outer loop
   vertex 3.498082 -1255.141235 -25.471750
   vertex 9.440209 -1255.154175 -25.421524
   vertex 3.497988 -1255.154175 -25.438231
  endloop
 endfacet
 facet normal 0.002811 -0.000000 -0.999996
  outer loop
   vertex 3.497988 -1255.154175 -25.438231
   vertex 9.440209 -1255.154175 -25.421524
   vertex 9.440209 -1255.767700 -25.421524
  endloop
 endfacet
 facet normal 0.002811 -0.000000 -0.999996
  outer loop
   vertex 9.440209 -1255.767700 -25.421524
   vertex 3.497988 -1255.767700 -25.438231
   vertex 3.497988 -1255.154175 -25.438231
  endloop
 endfacet
 facet normal 0.001004 0.934043 -0.357159
  outer loop
   vertex 9.440304 -1255.780518 -25.455044
   vertex 3.497988 -1255.767700 -25.438231
   vertex 9.440209 -1255.767700 -25.421524
  endloop
 endfacet
 facet normal 0.001004 0.934050 -0.357142
  outer loop
   vertex 3.498082 -1255.780518 -25.471752
   vertex 3.497988 -1255.767700 -25.438231
   vertex 9.440304 -1255.780518 -25.455044
  endloop
 endfacet
 facet normal 0.002812 -0.000000 -0.999996
  outer loop
   vertex 9.440304 -1255.780518 -25.455044
   vertex 9.440304 -1255.922852 -25.455044
   vertex 3.498082 -1255.780518 -25.471752
  endloop
 endfacet
 facet normal 0.002812 0.000000 -0.999996
  outer loop
   vertex 3.498082 -1255.780518 -25.471752
   vertex 9.440304 -1255.922852 -25.455044
   vertex 3.498082 -1255.922852 -25.471752
  endloop
 endfacet
 facet normal -0.000000 -1.000000 -0.000000
  outer loop
   vertex 3.498082 -1255.922852 -25.471752
   vertex 9.440304 -1255.922852 -25.455044
   vertex 3.497774 -1255.922852 -25.362141
  endloop
 endfacet
 facet normal -0.999996 0.000000 -0.002812
  outer loop
   vertex 1.038315 -1254.086792 -25.520828
   vertex 1.037380 -1254.086792 -25.188534
   vertex 1.037382 -1249.990479 -25.188532
  endloop
 endfacet
 facet normal -0.002808 -0.000000 0.999996
  outer loop
   vertex 1.037382 -1249.990479 -25.188532
   vertex 1.037380 -1254.086792 -25.188534
   vertex 1.320951 -1252.187378 -25.187737
  endloop
 endfacet
 facet normal -0.002811 -0.000001 0.999996
  outer loop
   vertex 1.320951 -1252.187378 -25.187737
   vertex 1.767124 -1251.088867 -25.186481
   vertex 1.037382 -1249.990479 -25.188532
  endloop
 endfacet
 facet normal -0.002813 -0.000000 0.999996
  outer loop
   vertex 2.496866 -1252.187378 -25.184429
   vertex 1.767124 -1251.088867 -25.186481
   vertex 1.320951 -1252.187378 -25.187737
  endloop
 endfacet
 facet normal -0.002812 0.000000 0.999996
  outer loop
   vertex 3.042850 -1249.990479 -25.182894
   vertex 1.767124 -1251.088867 -25.186481
   vertex 2.496866 -1252.187378 -25.184429
  endloop
 endfacet
 facet normal -0.002810 -0.000000 0.999996
  outer loop
   vertex 2.496866 -1252.187378 -25.184429
   vertex 3.042848 -1254.352417 -25.182896
   vertex 3.042850 -1249.990479 -25.182894
  endloop
 endfacet
 facet normal 0.999996 -0.000000 0.002812
  outer loop
   vertex 3.042850 -1249.990479 -25.182894
   vertex 3.042848 -1254.352417 -25.182896
   vertex 3.043782 -1254.352417 -25.515190
  endloop
 endfacet
 facet normal -0.000000 -1.000000 -0.000000
  outer loop
   vertex 3.043782 -1254.352417 -25.515190
   vertex 3.042848 -1254.352417 -25.182896
   vertex 1.253962 -1254.352417 -25.520222
  endloop
 endfacet
 facet normal 0.002811 -0.000002 -0.999996
  outer loop
   vertex 1.253962 -1254.352417 -25.520222
   vertex 2.497799 -1254.015381 -25.516726
   vertex 3.043782 -1254.352417 -25.515190
  endloop
 endfacet
 facet normal 0.002811 -0.000001 -0.999996
  outer loop
   vertex 1.321884 -1254.015381 -25.520031
   vertex 2.497799 -1254.015381 -25.516726
   vertex 1.253962 -1254.352417 -25.520222
  endloop
 endfacet
 facet normal 0.000000 1.000000 0.000000
  outer loop
   vertex 2.496865 -1254.015381 -25.184429
   vertex 2.497799 -1254.015381 -25.516726
   vertex 1.321884 -1254.015381 -25.520031
  endloop
 endfacet
 facet normal -0.000000 1.000000 -0.000000
  outer loop
   vertex 1.321884 -1254.015381 -25.520031
   vertex 1.320950 -1254.015381 -25.187737
   vertex 2.496865 -1254.015381 -25.184429
  endloop
 endfacet
 facet normal -0.002813 0.000001 0.999996
  outer loop
   vertex 2.496865 -1254.015381 -25.184429
   vertex 1.320950 -1254.015381 -25.187737
   vertex 1.253027 -1254.352417 -25.187927
  endloop
 endfacet
 facet normal -0.002812 0.000001 0.999996
  outer loop
   vertex 1.253027 -1254.352417 -25.187927
   vertex 1.320950 -1254.015381 -25.187737
   vertex 1.037380 -1254.086792 -25.188534
  endloop
 endfacet
 facet normal -0.776357 -0.630289 -0.002183
  outer loop
   vertex 1.037380 -1254.086792 -25.188534
   vertex 1.253962 -1254.352417 -25.520222
   vertex 1.253027 -1254.352417 -25.187927
  endloop
 endfacet
 facet normal -0.776357 -0.630289 -0.002183
  outer loop
   vertex 1.038315 -1254.086792 -25.520828
   vertex 1.253962 -1254.352417 -25.520222
   vertex 1.037380 -1254.086792 -25.188534
  endloop
 endfacet
 facet normal 0.002812 -0.000001 -0.999996
  outer loop
   vertex 1.321884 -1254.015381 -25.520031
   vertex 1.253962 -1254.352417 -25.520222
   vertex 1.038315 -1254.086792 -25.520828
  endloop
 endfacet
 facet normal 0.002812 -0.000000 -0.999996
  outer loop
   vertex 1.038315 -1254.086792 -25.520828
   vertex 1.321885 -1252.187378 -25.520031
   vertex 1.321884 -1254.015381 -25.520031
  endloop
 endfacet
 facet normal 0.999996 -0.000000 0.002811
  outer loop
   vertex 1.321884 -1254.015381 -25.520031
   vertex 1.321885 -1252.187378 -25.520031
   vertex 1.320951 -1252.187378 -25.187737
  endloop
 endfacet
 facet normal -0.000000 -1.000000 0.000000
  outer loop
   vertex 1.320951 -1252.187378 -25.187737
   vertex 1.321885 -1252.187378 -25.520031
   vertex 2.497800 -1252.187378 -25.516724
  endloop
 endfacet
 facet normal 0.000000 -1.000000 -0.000000
  outer loop
   vertex 2.497800 -1252.187378 -25.516724
   vertex 2.496866 -1252.187378 -25.184429
   vertex 1.320951 -1252.187378 -25.187737
  endloop
 endfacet
 facet normal -0.999996 0.000000 -0.002812
  outer loop
   vertex 2.497799 -1254.015381 -25.516726
   vertex 2.496866 -1252.187378 -25.184429
   vertex 2.497800 -1252.187378 -25.516724
  endloop
 endfacet
 facet normal -0.999996 0.000000 -0.002811
  outer loop
   vertex 2.496865 -1254.015381 -25.184429
   vertex 2.496866 -1252.187378 -25.184429
   vertex 2.497799 -1254.015381 -25.516726
  endloop
 endfacet
 facet normal 0.999996 -0.000001 0.002813
  outer loop
   vertex 10.439890 -1254.015381 -25.162098
   vertex 10.440825 -1254.015381 -25.494392
   vertex 10.439891 -1252.187378 -25.162096
  endloop
 endfacet
 facet normal 0.999996 -0.000001 0.002813
  outer loop
   vertex 10.439891 -1252.187378 -25.162096
   vertex 10.440825 -1254.015381 -25.494392
   vertex 10.440825 -1252.187378 -25.494392
  endloop
 endfacet
 facet normal 0.000000 -1.000000 0.000000
  outer loop
   vertex 10.440825 -1252.187378 -25.494392
   vertex 11.615806 -1252.187378 -25.158791
   vertex 10.439891 -1252.187378 -25.162096
  endloop
 endfacet
 facet normal -0.000000 -1.000000 -0.000000
  outer loop
   vertex 11.616740 -1252.187378 -25.491085
   vertex 11.615806 -1252.187378 -25.158791
   vertex 10.440825 -1252.187378 -25.494392
  endloop
 endfacet
 facet normal -0.999996 0.000001 -0.002813
  outer loop
   vertex 11.616739 -1254.015381 -25.491085
   vertex 11.615806 -1252.187378 -25.158791
   vertex 11.616740 -1252.187378 -25.491085
  endloop
 endfacet
 facet normal 0.002812 -0.000000 -0.999996
  outer loop
   vertex 11.616740 -1252.187378 -25.491085
   vertex 11.900310 -1254.086792 -25.490288
   vertex 11.616739 -1254.015381 -25.491085
  endloop
 endfacet
 facet normal 0.002812 0.000001 -0.999996
  outer loop
   vertex 11.616739 -1254.015381 -25.491085
   vertex 11.900310 -1254.086792 -25.490288
   vertex 11.684662 -1254.352539 -25.490894
  endloop
 endfacet
 facet normal 0.776498 -0.630116 0.002184
  outer loop
   vertex 11.684662 -1254.352539 -25.490894
   vertex 11.900310 -1254.086792 -25.490288
   vertex 11.899375 -1254.086792 -25.157993
  endloop
 endfacet
 facet normal 0.776498 -0.630116 0.002184
  outer loop
   vertex 11.899375 -1254.086792 -25.157993
   vertex 11.683727 -1254.352539 -25.158600
   vertex 11.684662 -1254.352539 -25.490894
  endloop
 endfacet
 facet normal -0.002812 -0.000001 0.999996
  outer loop
   vertex 11.615806 -1254.015381 -25.158791
   vertex 11.683727 -1254.352539 -25.158600
   vertex 11.899375 -1254.086792 -25.157993
  endloop
 endfacet
 facet normal -0.002813 -0.000001 0.999996
  outer loop
   vertex 10.439890 -1254.015381 -25.162098
   vertex 11.683727 -1254.352539 -25.158600
   vertex 11.615806 -1254.015381 -25.158791
  endloop
 endfacet
 facet normal -0.000000 1.000000 -0.000000
  outer loop
   vertex 11.615806 -1254.015381 -25.158791
   vertex 11.616739 -1254.015381 -25.491085
   vertex 10.439890 -1254.015381 -25.162098
  endloop
 endfacet
 facet normal 0.000000 1.000000 0.000000
  outer loop
   vertex 10.439890 -1254.015381 -25.162098
   vertex 11.616739 -1254.015381 -25.491085
   vertex 10.440825 -1254.015381 -25.494392
  endloop
 endfacet
 facet normal 0.002813 0.000001 -0.999996
  outer loop
   vertex 10.440825 -1254.015381 -25.494392
   vertex 11.616739 -1254.015381 -25.491085
   vertex 11.684662 -1254.352539 -25.490894
  endloop
 endfacet
 facet normal 0.002812 -0.000000 -0.999996
  outer loop
   vertex 11.684662 -1254.352539 -25.490894
   vertex 9.894841 -1254.352539 -25.495928
   vertex 10.440825 -1254.015381 -25.494392
  endloop
 endfacet
 facet normal -0.000000 -1.000000 0.000000
  outer loop
   vertex 9.893907 -1254.352539 -25.163633
   vertex 9.894841 -1254.352539 -25.495928
   vertex 11.684662 -1254.352539 -25.490894
  endloop
 endfacet
 facet normal -0.999996 0.000000 -0.002813
  outer loop
   vertex 9.893909 -1249.990479 -25.163631
   vertex 9.894841 -1254.352539 -25.495928
   vertex 9.893907 -1254.352539 -25.163633
  endloop
 endfacet
 facet normal -0.002814 -0.000000 0.999996
  outer loop
   vertex 9.893907 -1254.352539 -25.163633
   vertex 10.439891 -1252.187378 -25.162096
   vertex 9.893909 -1249.990479 -25.163631
  endloop
 endfacet
 facet normal -0.002810 0.000000 0.999996
  outer loop
   vertex 9.893909 -1249.990479 -25.163631
   vertex 10.439891 -1252.187378 -25.162096
   vertex 11.169634 -1251.088867 -25.160046
  endloop
 endfacet
 facet normal -0.002811 0.000001 0.999996
  outer loop
   vertex 11.169634 -1251.088867 -25.160046
   vertex 10.439891 -1252.187378 -25.162096
   vertex 11.615806 -1252.187378 -25.158791
  endloop
 endfacet
 facet normal -0.002813 0.000000 0.999996
  outer loop
   vertex 11.615806 -1252.187378 -25.158791
   vertex 11.899377 -1249.990479 -25.157993
   vertex 11.169634 -1251.088867 -25.160046
  endloop
 endfacet
 facet normal -0.002812 0.000000 0.999996
  outer loop
   vertex 11.899375 -1254.086792 -25.157993
   vertex 11.899377 -1249.990479 -25.157993
   vertex 11.615806 -1252.187378 -25.158791
  endloop
 endfacet
 facet normal 0.999996 -0.000000 0.002813
  outer loop
   vertex 11.900310 -1254.086792 -25.490288
   vertex 11.899377 -1249.990479 -25.157993
   vertex 11.899375 -1254.086792 -25.157993
  endloop
 endfacet
 facet normal -0.002781 -0.147287 0.989090
  outer loop
   vertex 10.339585 -1255.883301 -25.261288
   vertex 9.180874 -1255.883301 -25.264545
   vertex 10.339626 -1255.982056 -25.275993
  endloop
 endfacet
 facet normal -0.002781 -0.147287 0.989090
  outer loop
   vertex 10.339626 -1255.982056 -25.275993
   vertex 9.180874 -1255.883301 -25.264545
   vertex 9.180916 -1255.982056 -25.279251
  endloop
 endfacet
 facet normal 0.000000 -1.000000 0.000000
  outer loop
   vertex 9.180916 -1255.982056 -25.279251
   vertex 9.181362 -1255.982056 -25.438215
   vertex 10.339626 -1255.982056 -25.275993
  endloop
 endfacet
 facet normal -0.999996 -0.000007 -0.002808
  outer loop
   vertex 9.180874 -1255.883301 -25.264545
   vertex 9.181362 -1255.982056 -25.438215
   vertex 9.180916 -1255.982056 -25.279251
  endloop
 endfacet
 facet normal -0.999996 0.000001 -0.002812
  outer loop
   vertex 9.181542 -1255.898926 -25.502293
   vertex 9.181362 -1255.982056 -25.438215
   vertex 9.180874 -1255.883301 -25.264545
  endloop
 endfacet
 facet normal -0.999996 0.000001 -0.002812
  outer loop
   vertex 9.180874 -1255.883301 -25.264545
   vertex 9.181543 -1255.057251 -25.502291
   vertex 9.181542 -1255.898926 -25.502293
  endloop
 endfacet
 facet normal 0.002813 0.000002 -0.999996
  outer loop
   vertex 9.181542 -1255.898926 -25.502293
   vertex 9.181543 -1255.057251 -25.502291
   vertex 10.340254 -1255.898926 -25.499033
  endloop
 endfacet
 facet normal 0.002812 -0.000000 -0.999996
  outer loop
   vertex 10.340254 -1255.898926 -25.499033
   vertex 9.181543 -1255.057251 -25.502291
   vertex 10.340254 -1255.057251 -25.499033
  endloop
 endfacet
 facet normal 0.999996 0.000000 0.002812
  outer loop
   vertex 10.340254 -1255.057251 -25.499033
   vertex 10.339585 -1255.883301 -25.261288
   vertex 10.340254 -1255.898926 -25.499033
  endloop
 endfacet
 facet normal 0.999996 -0.000000 0.002812
  outer loop
   vertex 10.335578 -1255.057251 -23.836018
   vertex 10.339585 -1255.883301 -25.261288
   vertex 10.340254 -1255.057251 -25.499033
  endloop
 endfacet
 facet normal 0.999996 0.000000 0.002812
  outer loop
   vertex 10.336246 -1255.883301 -24.073765
   vertex 10.339585 -1255.883301 -25.261288
   vertex 10.335578 -1255.057251 -23.836018
  endloop
 endfacet
 facet normal 0.999996 -0.000000 0.002812
  outer loop
   vertex 10.335578 -1255.057251 -23.836018
   vertex 10.335578 -1255.898926 -23.836018
   vertex 10.336246 -1255.883301 -24.073765
  endloop
 endfacet
 facet normal 0.999996 0.000001 0.002812
  outer loop
   vertex 10.336246 -1255.883301 -24.073765
   vertex 10.335578 -1255.898926 -23.836018
   vertex 10.335758 -1255.982056 -23.900093
  endloop
 endfacet
 facet normal -0.002227 -0.610487 0.792023
  outer loop
   vertex 10.335758 -1255.982056 -23.900093
   vertex 10.335578 -1255.898926 -23.836018
   vertex 9.177047 -1255.982056 -23.903351
  endloop
 endfacet
 facet normal 0.000000 -1.000000 0.000000
  outer loop
   vertex 9.177047 -1255.982056 -23.903351
   vertex 10.336205 -1255.982056 -24.059059
   vertex 10.335758 -1255.982056 -23.900093
  endloop
 endfacet
 facet normal -0.000000 -1.000000 -0.000000
  outer loop
   vertex 9.177494 -1255.982056 -24.062317
   vertex 10.336205 -1255.982056 -24.059059
   vertex 9.177047 -1255.982056 -23.903351
  endloop
 endfacet
 facet normal 0.002781 -0.147287 -0.989090
  outer loop
   vertex 10.336246 -1255.883301 -24.073765
   vertex 10.336205 -1255.982056 -24.059059
   vertex 9.177494 -1255.982056 -24.062317
  endloop
 endfacet
 facet normal 0.002781 -0.147287 -0.989090
  outer loop
   vertex 9.177494 -1255.982056 -24.062317
   vertex 9.177535 -1255.883301 -24.077023
   vertex 10.336246 -1255.883301 -24.073765
  endloop
 endfacet
 facet normal 0.000000 -1.000000 0.000000
  outer loop
   vertex 10.336246 -1255.883301 -24.073765
   vertex 9.177535 -1255.883301 -24.077023
   vertex 9.180874 -1255.883301 -25.264545
  endloop
 endfacet
 facet normal -0.999996 0.000001 -0.002812
  outer loop
   vertex 9.180874 -1255.883301 -25.264545
   vertex 9.177535 -1255.883301 -24.077023
   vertex 9.176867 -1255.057251 -23.839275
  endloop
 endfacet
 facet normal -0.999996 0.000001 -0.002812
  outer loop
   vertex 9.176867 -1255.057251 -23.839275
   vertex 9.181543 -1255.057251 -25.502291
   vertex 9.180874 -1255.883301 -25.264545
  endloop
 endfacet
 facet normal -0.999996 -0.000000 -0.002812
  outer loop
   vertex 9.180837 -1254.322021 -25.250994
   vertex 9.181543 -1255.057251 -25.502291
   vertex 9.176867 -1255.057251 -23.839275
  endloop
 endfacet
 facet normal 0.002660 0.323425 -0.946250
  outer loop
   vertex 10.340254 -1255.057251 -25.499033
   vertex 9.181543 -1255.057251 -25.502291
   vertex 9.180837 -1254.322021 -25.250994
  endloop
 endfacet
 facet normal 0.002660 0.323425 -0.946250
  outer loop
   vertex 9.180837 -1254.322021 -25.250994
   vertex 10.339547 -1254.322021 -25.247736
   vertex 10.340254 -1255.057251 -25.499033
  endloop
 endfacet
 facet normal 0.999996 0.000000 0.002811
  outer loop
   vertex 10.340254 -1255.057251 -25.499033
   vertex 10.339547 -1254.322021 -25.247736
   vertex 10.336285 -1254.322021 -24.087315
  endloop
 endfacet
 facet normal 0.000000 1.000000 -0.000000
  outer loop
   vertex 10.336285 -1254.322021 -24.087315
   vertex 10.339547 -1254.322021 -25.247736
   vertex 9.180837 -1254.322021 -25.250994
  endloop
 endfacet
 facet normal -0.000000 1.000000 0.000000
  outer loop
   vertex 9.180837 -1254.322021 -25.250994
   vertex 9.177574 -1254.322021 -24.090574
   vertex 10.336285 -1254.322021 -24.087315
  endloop
 endfacet
 facet normal -0.999996 0.000000 -0.002811
  outer loop
   vertex 9.176867 -1255.057251 -23.839275
   vertex 9.177574 -1254.322021 -24.090574
   vertex 9.180837 -1254.322021 -25.250994
  endloop
 endfacet
 facet normal -0.002662 0.323427 0.946249
  outer loop
   vertex 10.336285 -1254.322021 -24.087315
   vertex 9.177574 -1254.322021 -24.090574
   vertex 9.176867 -1255.057251 -23.839275
  endloop
 endfacet
 facet normal -0.002660 0.323425 0.946250
  outer loop
   vertex 9.176867 -1255.057251 -23.839275
   vertex 10.335578 -1255.057251 -23.836018
   vertex 10.336285 -1254.322021 -24.087315
  endloop
 endfacet
 facet normal 0.999996 -0.000000 0.002812
  outer loop
   vertex 10.336285 -1254.322021 -24.087315
   vertex 10.335578 -1255.057251 -23.836018
   vertex 10.340254 -1255.057251 -25.499033
  endloop
 endfacet
 facet normal -0.999996 0.000001 -0.002812
  outer loop
   vertex 2.598394 -1255.057251 -25.520802
   vertex 2.593718 -1255.057251 -23.857784
   vertex 2.594425 -1254.322021 -24.109083
  endloop
 endfacet
 facet normal -0.002660 0.323427 0.946249
  outer loop
   vertex 2.594425 -1254.322021 -24.109083
   vertex 2.593718 -1255.057251 -23.857784
   vertex 3.752429 -1255.057251 -23.854527
  endloop
 endfacet
 facet normal -0.002660 0.323427 0.946249
  outer loop
   vertex 3.752429 -1255.057251 -23.854527
   vertex 3.753136 -1254.322021 -24.105825
   vertex 2.594425 -1254.322021 -24.109083
  endloop
 endfacet
 facet normal 0.999996 -0.000001 0.002811
  outer loop
   vertex 3.756398 -1254.322021 -25.266245
   vertex 3.753136 -1254.322021 -24.105825
   vertex 3.752429 -1255.057251 -23.854527
  endloop
 endfacet
 facet normal 0.000000 1.000000 0.000000
  outer loop
   vertex 2.594425 -1254.322021 -24.109083
   vertex 3.753136 -1254.322021 -24.105825
   vertex 3.756398 -1254.322021 -25.266245
  endloop
 endfacet
 facet normal -0.000000 1.000000 -0.000000
  outer loop
   vertex 3.756398 -1254.322021 -25.266245
   vertex 2.597687 -1254.322021 -25.269503
   vertex 2.594425 -1254.322021 -24.109083
  endloop
 endfacet
 facet normal -0.999996 0.000000 -0.002811
  outer loop
   vertex 2.594425 -1254.322021 -24.109083
   vertex 2.597687 -1254.322021 -25.269503
   vertex 2.598394 -1255.057251 -25.520802
  endloop
 endfacet
 facet normal 0.002660 0.323427 -0.946249
  outer loop
   vertex 2.598394 -1255.057251 -25.520802
   vertex 2.597687 -1254.322021 -25.269503
   vertex 3.756398 -1254.322021 -25.266245
  endloop
 endfacet
 facet normal 0.002660 0.323427 -0.946249
  outer loop
   vertex 3.756398 -1254.322021 -25.266245
   vertex 3.757104 -1255.057251 -25.517544
   vertex 2.598394 -1255.057251 -25.520802
  endloop
 endfacet
 facet normal 0.999996 -0.000000 0.002812
  outer loop
   vertex 3.752429 -1255.057251 -23.854527
   vertex 3.757104 -1255.057251 -25.517544
   vertex 3.756398 -1254.322021 -25.266245
  endloop
 endfacet
 facet normal 0.999996 -0.000000 0.002812
  outer loop
   vertex 3.756436 -1255.883301 -25.279797
   vertex 3.757104 -1255.057251 -25.517544
   vertex 3.752429 -1255.057251 -23.854527
  endloop
 endfacet
 facet normal 0.999996 -0.000000 0.002812
  outer loop
   vertex 3.752429 -1255.057251 -23.854527
   vertex 3.753097 -1255.883301 -24.092274
   vertex 3.756436 -1255.883301 -25.279797
  endloop
 endfacet
 facet normal 0.000000 -1.000000 -0.000000
  outer loop
   vertex 3.756436 -1255.883301 -25.279797
   vertex 3.753097 -1255.883301 -24.092274
   vertex 2.594386 -1255.883301 -24.095531
  endloop
 endfacet
 facet normal 0.002781 -0.147287 -0.989090
  outer loop
   vertex 2.594386 -1255.883301 -24.095531
   vertex 3.753097 -1255.883301 -24.092274
   vertex 3.753056 -1255.982056 -24.077568
  endloop
 endfacet
 facet normal 0.002781 -0.147287 -0.989090
  outer loop
   vertex 3.753056 -1255.982056 -24.077568
   vertex 2.594345 -1255.982056 -24.080826
   vertex 2.594386 -1255.883301 -24.095531
  endloop
 endfacet
 facet normal -0.000000 -1.000000 -0.000000
  outer loop
   vertex 3.752609 -1255.982056 -23.918604
   vertex 2.594345 -1255.982056 -24.080826
   vertex 3.753056 -1255.982056 -24.077568
  endloop
 endfacet
 facet normal 0.000000 -1.000000 0.000000
  outer loop
   vertex 2.593898 -1255.982056 -23.921862
   vertex 2.594345 -1255.982056 -24.080826
   vertex 3.752609 -1255.982056 -23.918604
  endloop
 endfacet
 facet normal -0.002227 -0.610487 0.792023
  outer loop
   vertex 3.752609 -1255.982056 -23.918604
   vertex 2.593718 -1255.898926 -23.857786
   vertex 2.593898 -1255.982056 -23.921862
  endloop
 endfacet
 facet normal -0.999996 0.000001 -0.002811
  outer loop
   vertex 2.593898 -1255.982056 -23.921862
   vertex 2.593718 -1255.898926 -23.857786
   vertex 2.594386 -1255.883301 -24.095531
  endloop
 endfacet
 facet normal -0.999996 0.000000 -0.002811
  outer loop
   vertex 2.594386 -1255.883301 -24.095531
   vertex 2.593718 -1255.898926 -23.857786
   vertex 2.593718 -1255.057251 -23.857784
  endloop
 endfacet
 facet normal -0.999996 0.000000 -0.002812
  outer loop
   vertex 2.593718 -1255.057251 -23.857784
   vertex 2.597725 -1255.883301 -25.283054
   vertex 2.594386 -1255.883301 -24.095531
  endloop
 endfacet
 facet normal -0.999996 0.000000 -0.002812
  outer loop
   vertex 2.598394 -1255.057251 -25.520802
   vertex 2.597725 -1255.883301 -25.283054
   vertex 2.593718 -1255.057251 -23.857784
  endloop
 endfacet
 facet normal -0.999996 0.000000 -0.002812
  outer loop
   vertex 2.598393 -1255.898926 -25.520802
   vertex 2.597725 -1255.883301 -25.283054
   vertex 2.598394 -1255.057251 -25.520802
  endloop
 endfacet
 facet normal 0.002812 -0.000000 -0.999996
  outer loop
   vertex 2.598394 -1255.057251 -25.520802
   vertex 3.757104 -1255.057251 -25.517544
   vertex 2.598393 -1255.898926 -25.520802
  endloop
 endfacet
 facet normal 0.002812 -0.000000 -0.999996
  outer loop
   vertex 2.598393 -1255.898926 -25.520802
   vertex 3.757104 -1255.057251 -25.517544
   vertex 3.757104 -1255.898926 -25.517544
  endloop
 endfacet
 facet normal 0.999996 -0.000000 0.002812
  outer loop
   vertex 3.757104 -1255.898926 -25.517544
   vertex 3.757104 -1255.057251 -25.517544
   vertex 3.756436 -1255.883301 -25.279797
  endloop
 endfacet
 facet normal 0.999996 -0.000001 0.002812
  outer loop
   vertex 3.756436 -1255.883301 -25.279797
   vertex 3.756924 -1255.982056 -25.453466
   vertex 3.757104 -1255.898926 -25.517544
  endloop
 endfacet
 facet normal 0.999996 0.000002 0.002811
  outer loop
   vertex 3.756477 -1255.982056 -25.294502
   vertex 3.756924 -1255.982056 -25.453466
   vertex 3.756436 -1255.883301 -25.279797
  endloop
 endfacet
 facet normal 0.000000 -1.000000 0.000000
  outer loop
   vertex 2.597766 -1255.982056 -25.297760
   vertex 3.756924 -1255.982056 -25.453466
   vertex 3.756477 -1255.982056 -25.294502
  endloop
 endfacet
 facet normal -0.002781 -0.147287 0.989090
  outer loop
   vertex 3.756477 -1255.982056 -25.294502
   vertex 3.756436 -1255.883301 -25.279797
   vertex 2.597766 -1255.982056 -25.297760
  endloop
 endfacet
 facet normal -0.002781 -0.147287 0.989090
  outer loop
   vertex 2.597766 -1255.982056 -25.297760
   vertex 3.756436 -1255.883301 -25.279797
   vertex 2.597725 -1255.883301 -25.283054
  endloop
 endfacet
 facet normal -0.000000 -1.000000 -0.000000
  outer loop
   vertex 2.597725 -1255.883301 -25.283054
   vertex 3.756436 -1255.883301 -25.279797
   vertex 2.594386 -1255.883301 -24.095531
  endloop
 endfacet
 facet normal 0.002813 -0.000000 -0.999996
  outer loop
   vertex 10.440825 -1252.187378 -25.494392
   vertex 11.900311 -1249.990479 -25.490288
   vertex 11.616740 -1252.187378 -25.491085
  endloop
 endfacet
 facet normal 0.002812 -0.000000 -0.999996
  outer loop
   vertex 11.616740 -1252.187378 -25.491085
   vertex 11.900311 -1249.990479 -25.490288
   vertex 11.900310 -1254.086792 -25.490288
  endloop
 endfacet
 facet normal -0.999996 0.000001 -0.002812
  outer loop
   vertex 2.598393 -1255.898926 -25.520802
   vertex 2.598213 -1255.982056 -25.456724
   vertex 2.597725 -1255.883301 -25.283054
  endloop
 endfacet
 facet normal -0.999996 -0.000002 -0.002811
  outer loop
   vertex 2.597725 -1255.883301 -25.283054
   vertex 2.598213 -1255.982056 -25.456724
   vertex 2.597766 -1255.982056 -25.297760
  endloop
 endfacet
 facet normal 0.999996 -0.000001 0.002812
  outer loop
   vertex 10.340254 -1255.898926 -25.499033
   vertex 10.339585 -1255.883301 -25.261288
   vertex 10.340074 -1255.982056 -25.434958
  endloop
 endfacet
 facet normal 0.999996 -0.000004 0.002814
  outer loop
   vertex 10.340074 -1255.982056 -25.434958
   vertex 10.339585 -1255.883301 -25.261288
   vertex 10.339626 -1255.982056 -25.275993
  endloop
 endfacet
 facet normal -0.999996 -0.000001 -0.002812
  outer loop
   vertex 2.593898 -1255.982056 -23.921862
   vertex 2.594386 -1255.883301 -24.095531
   vertex 2.594345 -1255.982056 -24.080826
  endloop
 endfacet
 facet normal 0.999996 -0.000007 0.002808
  outer loop
   vertex 10.335758 -1255.982056 -23.900093
   vertex 10.336205 -1255.982056 -24.059059
   vertex 10.336246 -1255.883301 -24.073765
  endloop
 endfacet
 facet normal -0.002811 -0.000001 0.999996
  outer loop
   vertex 1.037382 -1249.990479 -25.188532
   vertex 1.767124 -1251.088867 -25.186481
   vertex 3.042850 -1249.990479 -25.182894
  endloop
 endfacet
 facet normal 0.000000 -1.000000 0.000000
  outer loop
   vertex 10.336246 -1255.883301 -24.073765
   vertex 9.180874 -1255.883301 -25.264545
   vertex 10.339585 -1255.883301 -25.261288
  endloop
 endfacet
 facet normal 0.000000 -1.000000 0.000000
  outer loop
   vertex 10.217883 -1254.331421 -24.186092
   vertex 9.887157 -1254.331421 -24.187017
   vertex 10.221515 -1254.331421 -25.494944
  endloop
 endfacet
 facet normal 0.000000 -1.000000 0.000000
  outer loop
   vertex 2.713380 -1254.331421 -24.207191
   vertex 2.717109 -1254.331421 -25.516043
   vertex 3.044106 -1254.331421 -24.206257
  endloop
 endfacet
 facet normal -0.002812 0.000000 0.999996
  outer loop
   vertex 3.493668 -1255.070679 -23.901775
   vertex 3.493668 -1255.141235 -23.901775
   vertex 9.435889 -1255.141235 -23.885067
  endloop
 endfacet
 facet normal -0.999996 -0.000017 -0.002794
  outer loop
   vertex 9.887157 -1254.331421 -24.187017
   vertex 9.890740 -1249.990601 -25.495846
   vertex 9.890815 -1254.331421 -25.495848
  endloop
 endfacet
 facet normal 0.002813 0.000001 -0.999996
  outer loop
   vertex 3.043782 -1254.352417 -25.515190
   vertex 2.497799 -1254.015381 -25.516726
   vertex 2.497800 -1252.187378 -25.516724
  endloop
 endfacet
endsolid