solid stl file generated from DOUG
 facet normal -0.792023 -0.610487 -0.002227
  outer loop
   vertex -54.480091 -1271.481934 14.228481
   vertex -54.547424 -1271.398804 15.387012
   vertex -54.544167 -1271.398804 14.228301
  endloop
 endfacet
 facet normal -0.999996 0.000005 -0.002812
  outer loop
   vertex -54.544167 -1271.398804 14.228301
   vertex -54.547424 -1271.398804 15.387012
   vertex -54.547421 -1270.557129 15.387012
  endloop
 endfacet
 facet normal -0.002813 0.000000 0.999996
  outer loop
   vertex -52.815804 -1269.515259 -10.558385
   vertex -53.148098 -1267.687256 -10.559319
   vertex -53.148098 -1269.515259 -10.559319
  endloop
 endfacet
 facet normal -0.999996 -0.000000 -0.002812
  outer loop
   vertex -53.148098 -1269.515259 -10.559319
   vertex -53.148098 -1267.687256 -10.559319
   vertex -53.147301 -1269.586670 -10.842889
  endloop
 endfacet
 facet normal -0.999996 -0.000000 -0.002812
  outer loop
   vertex -53.225445 -1269.586670 16.950808
   vertex -53.224648 -1267.687256 16.667238
   vertex -53.224648 -1269.515259 16.667238
  endloop
 endfacet
 facet normal 0.002813 -0.000000 -0.999996
  outer loop
   vertex -53.224648 -1269.515259 16.667238
   vertex -53.224648 -1267.687256 16.667238
   vertex -52.892353 -1269.515259 16.668173
  endloop
 endfacet
 facet normal 0.000000 -1.000000 0.000000
  outer loop
   vertex -52.929401 -1271.422729 14.849141
   vertex -53.039013 -1271.422729 14.848833
   vertex -52.972691 -1271.422729 -8.739899
  endloop
 endfacet
 facet normal -0.804733 -0.593632 -0.002263
  outer loop
   vertex -52.972691 -1271.422729 -8.739899
   vertex -53.039013 -1271.422729 14.848833
   vertex -53.058956 -1271.305786 -8.740142
  endloop
 endfacet
 facet normal -0.999996 0.000000 -0.002812
  outer loop
   vertex -54.478050 -1270.557129 -9.286551
   vertex -54.481308 -1271.398804 -8.127840
   vertex -54.481308 -1270.557129 -8.127840
  endloop
 endfacet
 facet normal -0.002812 -0.000000 0.999996
  outer loop
   vertex -54.481308 -1270.557129 -8.127840
   vertex -54.481308 -1271.398804 -8.127840
   vertex -54.243561 -1271.383179 -8.127172
  endloop
 endfacet
 facet normal -0.360122 -0.932905 -0.001013
  outer loop
   vertex -54.499378 -1270.641113 14.844728
   vertex -54.433056 -1270.641113 -8.744005
   vertex -54.465858 -1270.654053 14.844821
  endloop
 endfacet
 facet normal -0.360122 -0.932905 -0.001013
  outer loop
   vertex -54.465858 -1270.654053 14.844821
   vertex -54.433056 -1270.641113 -8.744005
   vertex -54.399536 -1270.654053 -8.743911
  endloop
 endfacet
 facet normal -0.999996 0.000000 -0.002812
  outer loop
   vertex -54.399536 -1270.654053 -8.743911
   vertex -54.399536 -1271.267578 -8.743911
   vertex -54.465858 -1270.654053 14.844821
  endloop
 endfacet
 facet normal -0.999996 -0.000001 -0.002811
  outer loop
   vertex -53.223392 -1266.588745 16.221066
   vertex -53.225445 -1265.490356 16.950808
   vertex -53.219807 -1265.490356 14.945341
  endloop
 endfacet
 facet normal -0.000000 1.000000 -0.000000
  outer loop
   vertex -53.219807 -1265.490356 14.945341
   vertex -53.225445 -1265.490356 16.950808
   vertex -52.887512 -1265.490356 14.946275
  endloop
 endfacet
 facet normal 0.002810 0.000000 -0.999996
  outer loop
   vertex -52.887512 -1265.490356 14.946275
   vertex -52.887512 -1269.852417 14.946275
   vertex -53.219807 -1265.490356 14.945341
  endloop
 endfacet
 facet normal 0.000000 -1.000000 0.000000
  outer loop
   vertex -53.107449 -1271.481934 15.391060
   vertex -52.945225 -1271.481934 14.232797
   vertex -52.948483 -1271.481934 15.391507
  endloop
 endfacet
 facet normal 0.792023 -0.610487 0.002227
  outer loop
   vertex -52.948483 -1271.481934 15.391507
   vertex -52.945225 -1271.481934 14.232797
   vertex -52.881149 -1271.398804 14.232977
  endloop
 endfacet
 facet normal 0.792023 -0.610487 0.002227
  outer loop
   vertex -52.881149 -1271.398804 14.232977
   vertex -52.884407 -1271.398804 15.391687
   vertex -52.948483 -1271.481934 15.391507
  endloop
 endfacet
 facet normal 0.000000 1.000000 0.000000
  outer loop
   vertex -53.152939 -1265.490356 -8.837421
   vertex -52.820644 -1265.490356 -8.836487
   vertex -53.147301 -1265.490356 -10.842888
  endloop
 endfacet
 facet normal -0.000000 1.000000 0.000000
  outer loop
   vertex -53.147301 -1265.490356 -10.842888
   vertex -52.820644 -1265.490356 -8.836487
   vertex -52.815006 -1265.490356 -10.841954
  endloop
 endfacet
 facet normal 0.002810 0.000000 -0.999996
  outer loop
   vertex -52.815006 -1265.490356 -10.841954
   vertex -52.815006 -1269.586670 -10.841954
   vertex -53.147301 -1265.490356 -10.842888
  endloop
 endfacet
 facet normal 0.000000 -1.000000 0.000000
  outer loop
   vertex -52.892544 -1269.852417 16.736095
   vertex -53.224838 -1269.852417 16.735161
   vertex -53.219807 -1269.852417 14.945340
  endloop
 endfacet
 facet normal -0.999996 -0.000007 -0.002811
  outer loop
   vertex -53.219807 -1269.852417 14.945340
   vertex -53.224838 -1269.852417 16.735161
   vertex -53.221344 -1269.515259 15.491323
  endloop
 endfacet
 facet normal -0.999996 0.000002 -0.002817
  outer loop
   vertex -53.221344 -1269.515259 15.491323
   vertex -53.221340 -1267.687256 15.491323
   vertex -53.219807 -1269.852417 14.945340
  endloop
 endfacet
 facet normal 0.804733 -0.593632 0.002263
  outer loop
   vertex -54.303501 -1271.305786 14.845278
   vertex -54.389767 -1271.422729 14.845036
   vertex -54.323444 -1271.422729 -8.743696
  endloop
 endfacet
 facet normal -0.000000 -1.000000 -0.000000
  outer loop
   vertex -54.323444 -1271.422729 -8.743696
   vertex -54.389767 -1271.422729 14.845036
   vertex -54.499378 -1271.422729 14.844728
  endloop
 endfacet
 facet normal 0.000000 -1.000000 0.000000
  outer loop
   vertex -54.499378 -1271.422729 14.844728
   vertex -54.433056 -1271.422729 -8.744005
   vertex -54.323444 -1271.422729 -8.743696
  endloop
 endfacet
 facet normal -0.999996 0.000000 -0.002809
  outer loop
   vertex -53.151405 -1267.687256 -9.383405
   vertex -53.151405 -1269.515259 -9.383405
   vertex -53.152939 -1269.852295 -8.837421
  endloop
 endfacet
 facet normal -0.999996 -0.000004 -0.002811
  outer loop
   vertex -53.152939 -1269.852295 -8.837421
   vertex -53.151405 -1269.515259 -9.383405
   vertex -53.147907 -1269.852295 -10.627242
  endloop
 endfacet
 facet normal -0.000000 -1.000000 0.000000
  outer loop
   vertex -53.147907 -1269.852295 -10.627242
   vertex -52.815613 -1269.852295 -10.626307
   vertex -53.152939 -1269.852295 -8.837421
  endloop
 endfacet
 facet normal 0.792023 -0.610487 0.002227
  outer loop
   vertex -52.815037 -1271.398804 -9.281876
   vertex -52.818295 -1271.398804 -8.123164
   vertex -52.879112 -1271.481934 -9.282056
  endloop
 endfacet
 facet normal 0.792023 -0.610487 0.002227
  outer loop
   vertex -52.879112 -1271.481934 -9.282056
   vertex -52.818295 -1271.398804 -8.123164
   vertex -52.882370 -1271.481934 -8.123344
  endloop
 endfacet
 facet normal 0.000000 -1.000000 0.000000
  outer loop
   vertex -52.882370 -1271.481934 -8.123344
   vertex -53.038074 -1271.481934 -9.282502
   vertex -52.879112 -1271.481934 -9.282056
  endloop
 endfacet
 facet normal -0.002808 -0.000007 0.999996
  outer loop
   vertex -54.258266 -1271.481934 -8.127213
   vertex -54.243561 -1271.383179 -8.127172
   vertex -54.417233 -1271.481934 -8.127660
  endloop
 endfacet
 facet normal -0.002812 0.000001 0.999996
  outer loop
   vertex -54.417233 -1271.481934 -8.127660
   vertex -54.243561 -1271.383179 -8.127172
   vertex -54.481308 -1271.398804 -8.127840
  endloop
 endfacet
 facet normal -0.792023 -0.610487 -0.002227
  outer loop
   vertex -54.481308 -1271.398804 -8.127840
   vertex -54.478050 -1271.398804 -9.286551
   vertex -54.417233 -1271.481934 -8.127660
  endloop
 endfacet
 facet normal -0.999996 0.000000 -0.002812
  outer loop
   vertex -54.478050 -1270.557129 -9.286551
   vertex -54.478050 -1271.398804 -9.286551
   vertex -54.481308 -1271.398804 -8.127840
  endloop
 endfacet
 facet normal -0.999996 0.000005 -0.002812
  outer loop
   vertex -54.547421 -1270.557129 15.387012
   vertex -54.544163 -1270.557129 14.228301
   vertex -54.544167 -1271.398804 14.228301
  endloop
 endfacet
 facet normal 0.002812 -0.000000 -0.999996
  outer loop
   vertex -54.544167 -1271.398804 14.228301
   vertex -54.544163 -1270.557129 14.228301
   vertex -54.306419 -1271.383179 14.228970
  endloop
 endfacet
 facet normal 0.002812 -0.000001 -0.999996
  outer loop
   vertex -54.306419 -1271.383179 14.228970
   vertex -54.480091 -1271.481934 14.228481
   vertex -54.544167 -1271.398804 14.228301
  endloop
 endfacet
 facet normal 0.002808 0.000007 -0.999996
  outer loop
   vertex -54.321125 -1271.481934 14.228928
   vertex -54.480091 -1271.481934 14.228481
   vertex -54.306419 -1271.383179 14.228970
  endloop
 endfacet
 facet normal 0.804733 -0.593632 0.002263
  outer loop
   vertex -54.323444 -1271.422729 -8.743696
   vertex -54.237179 -1271.305786 -8.743454
   vertex -54.303501 -1271.305786 14.845278
  endloop
 endfacet
 facet normal -0.000000 -1.000000 0.000000
  outer loop
   vertex -54.303501 -1271.305786 14.845278
   vertex -54.237179 -1271.305786 -8.743454
   vertex -53.058956 -1271.305786 -8.740142
  endloop
 endfacet
 facet normal 0.000000 -1.000000 -0.000000
  outer loop
   vertex -53.058956 -1271.305786 -8.740142
   vertex -53.125275 -1271.305786 14.848591
   vertex -54.303501 -1271.305786 14.845278
  endloop
 endfacet
 facet normal -0.804746 -0.593615 -0.002263
  outer loop
   vertex -53.039013 -1271.422729 14.848833
   vertex -53.125275 -1271.305786 14.848591
   vertex -53.058956 -1271.305786 -8.740142
  endloop
 endfacet
 facet normal 0.999996 -0.000002 0.002817
  outer loop
   vertex -52.889050 -1269.515259 15.492258
   vertex -52.887512 -1269.852417 14.946275
   vertex -52.889046 -1267.687256 15.492258
  endloop
 endfacet
 facet normal 0.999996 -0.000000 0.002809
  outer loop
   vertex -52.889046 -1267.687256 15.492258
   vertex -52.887512 -1269.852417 14.946275
   vertex -52.887512 -1265.490356 14.946275
  endloop
 endfacet
 facet normal 0.999996 0.000001 0.002811
  outer loop
   vertex -52.887512 -1265.490356 14.946275
   vertex -52.893150 -1265.490356 16.951742
   vertex -52.889046 -1267.687256 15.492258
  endloop
 endfacet
 facet normal -0.000000 1.000000 0.000000
  outer loop
   vertex -53.225445 -1265.490356 16.950808
   vertex -52.893150 -1265.490356 16.951742
   vertex -52.887512 -1265.490356 14.946275
  endloop
 endfacet
 facet normal -0.002813 0.000000 0.999996
  outer loop
   vertex -52.893150 -1269.586670 16.951742
   vertex -52.893150 -1265.490356 16.951742
   vertex -53.225445 -1265.490356 16.950808
  endloop
 endfacet
 facet normal -0.002813 0.000000 0.999996
  outer loop
   vertex -53.152939 -1265.490356 -8.837421
   vertex -52.820644 -1269.852295 -8.836487
   vertex -52.820644 -1265.490356 -8.836487
  endloop
 endfacet
 facet normal 0.999996 -0.000000 0.002809
  outer loop
   vertex -52.820644 -1265.490356 -8.836487
   vertex -52.820644 -1269.852295 -8.836487
   vertex -52.819111 -1267.687256 -9.382470
  endloop
 endfacet
 facet normal 0.999996 -0.000001 0.002811
  outer loop
   vertex -52.819111 -1267.687256 -9.382470
   vertex -52.815006 -1265.490356 -10.841954
   vertex -52.820644 -1265.490356 -8.836487
  endloop
 endfacet
 facet normal 0.999996 0.000000 0.002813
  outer loop
   vertex -52.815804 -1267.687256 -10.558385
   vertex -52.815006 -1265.490356 -10.841954
   vertex -52.819111 -1267.687256 -9.382470
  endloop
 endfacet
 facet normal 0.999996 0.000000 0.002812
  outer loop
   vertex -52.815006 -1269.586670 -10.841954
   vertex -52.815006 -1265.490356 -10.841954
   vertex -52.815804 -1267.687256 -10.558385
  endloop
 endfacet
 facet normal 0.002794 -0.000017 -0.999996
  outer loop
   vertex -52.887592 -1265.490479 14.942173
   vertex -54.196423 -1269.831299 14.938591
   vertex -54.196423 -1265.490479 14.938517
  endloop
 endfacet
 facet normal -0.999996 -0.000000 -0.002791
  outer loop
   vertex -54.196423 -1265.490479 14.938517
   vertex -54.196423 -1269.831299 14.938591
   vertex -54.197346 -1269.831299 15.269318
  endloop
 endfacet
 facet normal -0.999996 -0.000000 -0.002791
  outer loop
   vertex -54.197346 -1269.831299 15.269318
   vertex -54.197346 -1265.490479 15.269241
   vertex -54.196423 -1265.490479 14.938517
  endloop
 endfacet
 facet normal -0.002774 0.000018 0.999996
  outer loop
   vertex -52.888496 -1269.831299 15.272948
   vertex -54.197346 -1265.490479 15.269241
   vertex -54.197346 -1269.831299 15.269318
  endloop
 endfacet
 facet normal -0.002794 0.000011 0.999996
  outer loop
   vertex -52.888515 -1265.490479 15.272899
   vertex -54.197346 -1265.490479 15.269241
   vertex -52.888496 -1269.831299 15.272948
  endloop
 endfacet
 facet normal -0.999996 0.000000 -0.002812
  outer loop
   vertex -54.433056 -1271.422729 -8.744005
   vertex -54.499378 -1271.422729 14.844728
   vertex -54.433056 -1271.280396 -8.744005
  endloop
 endfacet
 facet normal -0.999996 0.000000 -0.002812
  outer loop
   vertex -54.433056 -1271.280396 -8.744005
   vertex -54.499378 -1271.422729 14.844728
   vertex -54.499378 -1271.280396 14.844728
  endloop
 endfacet
 facet normal -0.357159 0.934043 -0.001004
  outer loop
   vertex -54.499378 -1271.280396 14.844728
   vertex -54.399536 -1271.267578 -8.743911
   vertex -54.433056 -1271.280396 -8.744005
  endloop
 endfacet
 facet normal -0.357159 0.934043 -0.001004
  outer loop
   vertex -54.465858 -1271.267578 14.844821
   vertex -54.399536 -1271.267578 -8.743911
   vertex -54.499378 -1271.280396 14.844728
  endloop
 endfacet
 facet normal -0.999996 0.000000 -0.002812
  outer loop
   vertex -54.465858 -1270.654053 14.844821
   vertex -54.399536 -1271.267578 -8.743911
   vertex -54.465858 -1271.267578 14.844821
  endloop
 endfacet
 facet normal 0.002829 0.000011 -0.999996
  outer loop
   vertex -52.819813 -1265.490479 -9.163111
   vertex -52.819794 -1269.831299 -9.163160
   vertex -54.128643 -1265.490479 -9.166813
  endloop
 endfacet
 facet normal 0.002850 0.000018 -0.999996
  outer loop
   vertex -54.128643 -1265.490479 -9.166813
   vertex -52.819794 -1269.831299 -9.163160
   vertex -54.128643 -1269.831299 -9.166890
  endloop
 endfacet
 facet normal -0.999996 0.000000 -0.002826
  outer loop
   vertex -54.128643 -1269.831299 -9.166890
   vertex -54.129578 -1265.490479 -8.836088
   vertex -54.128643 -1265.490479 -9.166813
  endloop
 endfacet
 facet normal -0.999996 0.000000 -0.002826
  outer loop
   vertex -54.129578 -1269.831299 -8.836164
   vertex -54.129578 -1265.490479 -8.836088
   vertex -54.128643 -1269.831299 -9.166890
  endloop
 endfacet
 facet normal -0.002829 -0.000017 0.999996
  outer loop
   vertex -52.820747 -1265.490479 -8.832385
   vertex -54.129578 -1265.490479 -8.836088
   vertex -54.129578 -1269.831299 -8.836164
  endloop
 endfacet
 facet normal -0.002829 -0.000018 0.999996
  outer loop
   vertex -54.129578 -1269.831299 -8.836164
   vertex -52.820747 -1269.831299 -8.832461
   vertex -52.820747 -1265.490479 -8.832385
  endloop
 endfacet
 facet normal -0.999996 -0.000000 -0.002812
  outer loop
   vertex -54.499378 -1270.641113 14.844728
   vertex -54.499378 -1270.570557 14.844728
   vertex -54.433056 -1270.570557 -8.744005
  endloop
 endfacet
 facet normal -0.000000 1.000000 -0.000000
  outer loop
   vertex -54.433056 -1270.570557 -8.744005
   vertex -54.499378 -1270.570557 14.844728
   vertex -52.929401 -1270.570557 14.849141
  endloop
 endfacet
 facet normal 0.000000 1.000000 0.000000
  outer loop
   vertex -52.929401 -1270.570557 14.849141
   vertex -52.863079 -1270.570557 -8.739591
   vertex -54.433056 -1270.570557 -8.744005
  endloop
 endfacet
 facet normal 0.999996 -0.000000 0.002812
  outer loop
   vertex -52.929401 -1270.641113 14.849141
   vertex -52.863079 -1270.570557 -8.739591
   vertex -52.929401 -1270.570557 14.849141
  endloop
 endfacet
 facet normal 0.999996 0.000000 0.002812
  outer loop
   vertex -52.863079 -1270.641113 -8.739591
   vertex -52.863079 -1270.570557 -8.739591
   vertex -52.929401 -1270.641113 14.849141
  endloop
 endfacet
 facet normal 0.360122 -0.932905 0.001013
  outer loop
   vertex -52.929401 -1270.641113 14.849141
   vertex -52.962921 -1270.654053 14.849047
   vertex -52.863079 -1270.641113 -8.739591
  endloop
 endfacet
 facet normal 0.360122 -0.932905 0.001013
  outer loop
   vertex -52.863079 -1270.641113 -8.739591
   vertex -52.962921 -1270.654053 14.849047
   vertex -52.896599 -1270.654053 -8.739685
  endloop
 endfacet
 facet normal 0.999996 0.000000 0.002812
  outer loop
   vertex -52.896599 -1270.654053 -8.739685
   vertex -52.962921 -1270.654053 14.849047
   vertex -52.962921 -1271.267578 14.849047
  endloop
 endfacet
 facet normal 0.999996 -0.000000 0.002812
  outer loop
   vertex -52.962921 -1271.267578 14.849047
   vertex -52.896599 -1271.267578 -8.739685
   vertex -52.896599 -1270.654053 -8.739685
  endloop
 endfacet
 facet normal 0.357159 0.934043 0.001004
  outer loop
   vertex -52.929401 -1271.280396 14.849141
   vertex -52.896599 -1271.267578 -8.739685
   vertex -52.962921 -1271.267578 14.849047
  endloop
 endfacet
 facet normal 0.357159 0.934043 0.001004
  outer loop
   vertex -52.863079 -1271.280396 -8.739591
   vertex -52.896599 -1271.267578 -8.739685
   vertex -52.929401 -1271.280396 14.849141
  endloop
 endfacet
 facet normal 0.999996 -0.000000 0.002812
  outer loop
   vertex -52.929401 -1271.280396 14.849141
   vertex -52.929401 -1271.422729 14.849141
   vertex -52.863079 -1271.280396 -8.739591
  endloop
 endfacet
 facet normal 0.999996 0.000000 0.002812
  outer loop
   vertex -52.863079 -1271.280396 -8.739591
   vertex -52.929401 -1271.422729 14.849141
   vertex -52.863079 -1271.422729 -8.739591
  endloop
 endfacet
 facet normal -0.000000 -1.000000 -0.000000
  outer loop
   vertex -52.863079 -1271.422729 -8.739591
   vertex -52.929401 -1271.422729 14.849141
   vertex -52.972691 -1271.422729 -8.739899
  endloop
 endfacet
 facet normal 0.002813 0.000000 -0.999996
  outer loop
   vertex -52.815006 -1269.586670 -10.841954
   vertex -53.147301 -1269.586670 -10.842889
   vertex -53.147301 -1265.490356 -10.842888
  endloop
 endfacet
 facet normal -0.999996 0.000000 -0.002812
  outer loop
   vertex -53.147301 -1265.490356 -10.842888
   vertex -53.147301 -1269.586670 -10.842889
   vertex -53.148098 -1267.687256 -10.559319
  endloop
 endfacet
 facet normal -0.999996 -0.000000 -0.002813
  outer loop
   vertex -53.148098 -1267.687256 -10.559319
   vertex -53.149353 -1266.588745 -10.113146
   vertex -53.147301 -1265.490356 -10.842888
  endloop
 endfacet
 facet normal -0.999996 -0.000000 -0.002813
  outer loop
   vertex -53.151405 -1267.687256 -9.383405
   vertex -53.149353 -1266.588745 -10.113146
   vertex -53.148098 -1267.687256 -10.559319
  endloop
 endfacet
 facet normal -0.999996 0.000001 -0.002811
  outer loop
   vertex -53.152939 -1265.490356 -8.837421
   vertex -53.149353 -1266.588745 -10.113146
   vertex -53.151405 -1267.687256 -9.383405
  endloop
 endfacet
 facet normal -0.999996 0.000000 -0.002809
  outer loop
   vertex -53.151405 -1267.687256 -9.383405
   vertex -53.152939 -1269.852295 -8.837421
   vertex -53.152939 -1265.490356 -8.837421
  endloop
 endfacet
 facet normal -0.002813 0.000000 0.999996
  outer loop
   vertex -53.152939 -1265.490356 -8.837421
   vertex -53.152939 -1269.852295 -8.837421
   vertex -52.820644 -1269.852295 -8.836487
  endloop
 endfacet
 facet normal 0.000000 -1.000000 -0.000000
  outer loop
   vertex -52.820644 -1269.852295 -8.836487
   vertex -53.152939 -1269.852295 -8.837421
   vertex -52.815613 -1269.852295 -10.626307
  endloop
 endfacet
 facet normal 0.999996 0.000004 0.002811
  outer loop
   vertex -52.815613 -1269.852295 -10.626307
   vertex -52.819111 -1269.515259 -9.382470
   vertex -52.820644 -1269.852295 -8.836487
  endloop
 endfacet
 facet normal 0.999996 -0.000001 0.002813
  outer loop
   vertex -52.815804 -1269.515259 -10.558385
   vertex -52.819111 -1269.515259 -9.382470
   vertex -52.815613 -1269.852295 -10.626307
  endloop
 endfacet
 facet normal 0.000000 1.000000 0.000000
  outer loop
   vertex -53.151405 -1269.515259 -9.383405
   vertex -52.819111 -1269.515259 -9.382470
   vertex -52.815804 -1269.515259 -10.558385
  endloop
 endfacet
 facet normal -0.000000 1.000000 -0.000000
  outer loop
   vertex -52.815804 -1269.515259 -10.558385
   vertex -53.148098 -1269.515259 -10.559319
   vertex -53.151405 -1269.515259 -9.383405
  endloop
 endfacet
 facet normal -0.999996 0.000001 -0.002813
  outer loop
   vertex -53.151405 -1269.515259 -9.383405
   vertex -53.148098 -1269.515259 -10.559319
   vertex -53.147907 -1269.852295 -10.627242
  endloop
 endfacet
 facet normal -0.999996 0.000001 -0.002812
  outer loop
   vertex -53.147907 -1269.852295 -10.627242
   vertex -53.148098 -1269.515259 -10.559319
   vertex -53.147301 -1269.586670 -10.842889
  endloop
 endfacet
 facet normal 0.002184 -0.630289 -0.776358
  outer loop
   vertex -53.147301 -1269.586670 -10.842889
   vertex -52.815613 -1269.852295 -10.626307
   vertex -53.147907 -1269.852295 -10.627242
  endloop
 endfacet
 facet normal 0.002184 -0.630289 -0.776358
  outer loop
   vertex -52.815006 -1269.586670 -10.841954
   vertex -52.815613 -1269.852295 -10.626307
   vertex -53.147301 -1269.586670 -10.842889
  endloop
 endfacet
 facet normal 0.999996 -0.000001 0.002812
  outer loop
   vertex -52.815804 -1269.515259 -10.558385
   vertex -52.815613 -1269.852295 -10.626307
   vertex -52.815006 -1269.586670 -10.841954
  endloop
 endfacet
 facet normal 0.999996 0.000000 0.002812
  outer loop
   vertex -52.815006 -1269.586670 -10.841954
   vertex -52.815804 -1267.687256 -10.558385
   vertex -52.815804 -1269.515259 -10.558385
  endloop
 endfacet
 facet normal -0.002813 0.000000 0.999996
  outer loop
   vertex -52.815804 -1269.515259 -10.558385
   vertex -52.815804 -1267.687256 -10.558385
   vertex -53.148098 -1267.687256 -10.559319
  endloop
 endfacet
 facet normal -0.000000 -1.000000 -0.000000
  outer loop
   vertex -53.148098 -1267.687256 -10.559319
   vertex -52.815804 -1267.687256 -10.558385
   vertex -52.819111 -1267.687256 -9.382470
  endloop
 endfacet
 facet normal 0.000000 -1.000000 0.000000
  outer loop
   vertex -52.819111 -1267.687256 -9.382470
   vertex -53.151405 -1267.687256 -9.383405
   vertex -53.148098 -1267.687256 -10.559319
  endloop
 endfacet
 facet normal 0.002813 -0.000000 -0.999996
  outer loop
   vertex -52.819111 -1269.515259 -9.382470
   vertex -53.151405 -1267.687256 -9.383405
   vertex -52.819111 -1267.687256 -9.382470
  endloop
 endfacet
 facet normal 0.002813 0.000000 -0.999996
  outer loop
   vertex -53.151405 -1269.515259 -9.383405
   vertex -53.151405 -1267.687256 -9.383405
   vertex -52.819111 -1269.515259 -9.382470
  endloop
 endfacet
 facet normal -0.002813 0.000000 0.999996
  outer loop
   vertex -53.221344 -1269.515259 15.491323
   vertex -52.889050 -1269.515259 15.492258
   vertex -53.221340 -1267.687256 15.491323
  endloop
 endfacet
 facet normal -0.002813 0.000000 0.999996
  outer loop
   vertex -53.221340 -1267.687256 15.491323
   vertex -52.889050 -1269.515259 15.492258
   vertex -52.889046 -1267.687256 15.492258
  endloop
 endfacet
 facet normal 0.000000 -1.000000 0.000000
  outer loop
   vertex -52.889046 -1267.687256 15.492258
   vertex -53.224648 -1267.687256 16.667238
   vertex -53.221340 -1267.687256 15.491323
  endloop
 endfacet
 facet normal 0.000000 -1.000000 -0.000000
  outer loop
   vertex -52.892353 -1267.687256 16.668173
   vertex -53.224648 -1267.687256 16.667238
   vertex -52.889046 -1267.687256 15.492258
  endloop
 endfacet
 facet normal 0.002813 0.000000 -0.999996
  outer loop
   vertex -52.892353 -1269.515259 16.668173
   vertex -53.224648 -1267.687256 16.667238
   vertex -52.892353 -1267.687256 16.668173
  endloop
 endfacet
 facet normal 0.999996 -0.000000 0.002812
  outer loop
   vertex -52.892353 -1267.687256 16.668173
   vertex -52.893150 -1269.586670 16.951742
   vertex -52.892353 -1269.515259 16.668173
  endloop
 endfacet
 facet normal 0.999996 0.000001 0.002812
  outer loop
   vertex -52.892353 -1269.515259 16.668173
   vertex -52.893150 -1269.586670 16.951742
   vertex -52.892544 -1269.852417 16.736095
  endloop
 endfacet
 facet normal -0.002184 -0.630114 0.776500
  outer loop
   vertex -52.892544 -1269.852417 16.736095
   vertex -52.893150 -1269.586670 16.951742
   vertex -53.225445 -1269.586670 16.950808
  endloop
 endfacet
 facet normal -0.002184 -0.630114 0.776500
  outer loop
   vertex -53.225445 -1269.586670 16.950808
   vertex -53.224838 -1269.852417 16.735161
   vertex -52.892544 -1269.852417 16.736095
  endloop
 endfacet
 facet normal -0.999996 -0.000001 -0.002812
  outer loop
   vertex -53.224648 -1269.515259 16.667238
   vertex -53.224838 -1269.852417 16.735161
   vertex -53.225445 -1269.586670 16.950808
  endloop
 endfacet
 facet normal -0.999996 -0.000000 -0.002809
  outer loop
   vertex -53.221344 -1269.515259 15.491323
   vertex -53.224838 -1269.852417 16.735161
   vertex -53.224648 -1269.515259 16.667238
  endloop
 endfacet
 facet normal -0.000000 1.000000 -0.000000
  outer loop
   vertex -53.224648 -1269.515259 16.667238
   vertex -52.892353 -1269.515259 16.668173
   vertex -53.221344 -1269.515259 15.491323
  endloop
 endfacet
 facet normal 0.000000 1.000000 0.000000
  outer loop
   vertex -53.221344 -1269.515259 15.491323
   vertex -52.892353 -1269.515259 16.668173
   vertex -52.889050 -1269.515259 15.492258
  endloop
 endfacet
 facet normal 0.999996 0.000000 0.002809
  outer loop
   vertex -52.889050 -1269.515259 15.492258
   vertex -52.892353 -1269.515259 16.668173
   vertex -52.892544 -1269.852417 16.736095
  endloop
 endfacet
 facet normal 0.999996 0.000007 0.002811
  outer loop
   vertex -52.892544 -1269.852417 16.736095
   vertex -52.887512 -1269.852417 14.946275
   vertex -52.889050 -1269.515259 15.492258
  endloop
 endfacet
 facet normal -0.000000 -1.000000 -0.000000
  outer loop
   vertex -53.219807 -1269.852417 14.945340
   vertex -52.887512 -1269.852417 14.946275
   vertex -52.892544 -1269.852417 16.736095
  endloop
 endfacet
 facet normal 0.002813 0.000000 -0.999996
  outer loop
   vertex -53.219807 -1265.490356 14.945341
   vertex -52.887512 -1269.852417 14.946275
   vertex -53.219807 -1269.852417 14.945340
  endloop
 endfacet
 facet normal -0.999996 0.000000 -0.002809
  outer loop
   vertex -53.219807 -1269.852417 14.945340
   vertex -53.221340 -1267.687256 15.491323
   vertex -53.219807 -1265.490356 14.945341
  endloop
 endfacet
 facet normal -0.999996 -0.000001 -0.002811
  outer loop
   vertex -53.219807 -1265.490356 14.945341
   vertex -53.221340 -1267.687256 15.491323
   vertex -53.223392 -1266.588745 16.221066
  endloop
 endfacet
 facet normal -0.999996 0.000000 -0.002813
  outer loop
   vertex -53.223392 -1266.588745 16.221066
   vertex -53.221340 -1267.687256 15.491323
   vertex -53.224648 -1267.687256 16.667238
  endloop
 endfacet
 facet normal -0.999996 0.000000 -0.002813
  outer loop
   vertex -53.224648 -1267.687256 16.667238
   vertex -53.225445 -1265.490356 16.950808
   vertex -53.223392 -1266.588745 16.221066
  endloop
 endfacet
 facet normal -0.999996 -0.000000 -0.002812
  outer loop
   vertex -53.225445 -1269.586670 16.950808
   vertex -53.225445 -1265.490356 16.950808
   vertex -53.224648 -1267.687256 16.667238
  endloop
 endfacet
 facet normal -0.002813 0.000000 0.999996
  outer loop
   vertex -52.893150 -1269.586670 16.951742
   vertex -53.225445 -1265.490356 16.950808
   vertex -53.225445 -1269.586670 16.950808
  endloop
 endfacet
 facet normal -0.989090 -0.147287 -0.002781
  outer loop
   vertex -53.122154 -1271.383179 15.391019
   vertex -53.118896 -1271.383179 14.232308
   vertex -53.107449 -1271.481934 15.391060
  endloop
 endfacet
 facet normal -0.989090 -0.147287 -0.002781
  outer loop
   vertex -53.107449 -1271.481934 15.391060
   vertex -53.118896 -1271.383179 14.232308
   vertex -53.104191 -1271.481934 14.232349
  endloop
 endfacet
 facet normal -0.000000 -1.000000 0.000000
  outer loop
   vertex -53.104191 -1271.481934 14.232349
   vertex -52.945225 -1271.481934 14.232797
   vertex -53.107449 -1271.481934 15.391060
  endloop
 endfacet
 facet normal 0.002814 0.000004 -0.999996
  outer loop
   vertex -53.118896 -1271.383179 14.232308
   vertex -52.945225 -1271.481934 14.232797
   vertex -53.104191 -1271.481934 14.232349
  endloop
 endfacet
 facet normal 0.002812 0.000001 -0.999996
  outer loop
   vertex -52.881149 -1271.398804 14.232977
   vertex -52.945225 -1271.481934 14.232797
   vertex -53.118896 -1271.383179 14.232308
  endloop
 endfacet
 facet normal 0.002812 -0.000000 -0.999996
  outer loop
   vertex -53.118896 -1271.383179 14.232308
   vertex -52.881149 -1270.557129 14.232977
   vertex -52.881149 -1271.398804 14.232977
  endloop
 endfacet
 facet normal 0.999996 0.000000 0.002812
  outer loop
   vertex -52.881149 -1271.398804 14.232977
   vertex -52.881149 -1270.557129 14.232977
   vertex -52.884407 -1271.398804 15.391687
  endloop
 endfacet
 facet normal 0.999996 -0.000000 0.002812
  outer loop
   vertex -52.884407 -1271.398804 15.391687
   vertex -52.881149 -1270.557129 14.232977
   vertex -52.884407 -1270.557129 15.391687
  endloop
 endfacet
 facet normal -0.002812 0.000000 0.999996
  outer loop
   vertex -52.884407 -1270.557129 15.391687
   vertex -53.122154 -1271.383179 15.391019
   vertex -52.884407 -1271.398804 15.391687
  endloop
 endfacet
 facet normal -0.002812 -0.000000 0.999996
  outer loop
   vertex -54.547421 -1270.557129 15.387012
   vertex -53.122154 -1271.383179 15.391019
   vertex -52.884407 -1270.557129 15.391687
  endloop
 endfacet
 facet normal -0.002812 0.000000 0.999996
  outer loop
   vertex -54.309677 -1271.383179 15.387680
   vertex -53.122154 -1271.383179 15.391019
   vertex -54.547421 -1270.557129 15.387012
  endloop
 endfacet
 facet normal -0.002812 0.000000 0.999996
  outer loop
   vertex -54.547421 -1270.557129 15.387012
   vertex -54.547424 -1271.398804 15.387012
   vertex -54.309677 -1271.383179 15.387680
  endloop
 endfacet
 facet normal -0.002812 0.000001 0.999996
  outer loop
   vertex -54.309677 -1271.383179 15.387680
   vertex -54.547424 -1271.398804 15.387012
   vertex -54.483349 -1271.481934 15.387192
  endloop
 endfacet
 facet normal -0.792023 -0.610487 -0.002227
  outer loop
   vertex -54.483349 -1271.481934 15.387192
   vertex -54.547424 -1271.398804 15.387012
   vertex -54.480091 -1271.481934 14.228481
  endloop
 endfacet
 facet normal 0.000000 -1.000000 0.000000
  outer loop
   vertex -54.480091 -1271.481934 14.228481
   vertex -54.324383 -1271.481934 15.387639
   vertex -54.483349 -1271.481934 15.387192
  endloop
 endfacet
 facet normal -0.000000 -1.000000 -0.000000
  outer loop
   vertex -54.321125 -1271.481934 14.228928
   vertex -54.324383 -1271.481934 15.387639
   vertex -54.480091 -1271.481934 14.228481
  endloop
 endfacet
 facet normal 0.989090 -0.147287 0.002781
  outer loop
   vertex -54.309677 -1271.383179 15.387680
   vertex -54.324383 -1271.481934 15.387639
   vertex -54.321125 -1271.481934 14.228928
  endloop
 endfacet
 facet normal 0.989090 -0.147287 0.002781
  outer loop
   vertex -54.321125 -1271.481934 14.228928
   vertex -54.306419 -1271.383179 14.228970
   vertex -54.309677 -1271.383179 15.387680
  endloop
 endfacet
 facet normal 0.000000 -1.000000 0.000000
  outer loop
   vertex -54.309677 -1271.383179 15.387680
   vertex -54.306419 -1271.383179 14.228970
   vertex -53.118896 -1271.383179 14.232308
  endloop
 endfacet
 facet normal 0.002812 -0.000000 -0.999996
  outer loop
   vertex -53.118896 -1271.383179 14.232308
   vertex -54.306419 -1271.383179 14.228970
   vertex -54.544163 -1270.557129 14.228301
  endloop
 endfacet
 facet normal 0.002812 0.000000 -0.999996
  outer loop
   vertex -54.544163 -1270.557129 14.228301
   vertex -52.881149 -1270.557129 14.232977
   vertex -53.118896 -1271.383179 14.232308
  endloop
 endfacet
 facet normal 0.002812 -0.000000 -0.999996
  outer loop
   vertex -53.132446 -1269.821899 14.232270
   vertex -52.881149 -1270.557129 14.232977
   vertex -54.544163 -1270.557129 14.228301
  endloop
 endfacet
 facet normal 0.946250 0.323425 0.002660
  outer loop
   vertex -52.884407 -1270.557129 15.391687
   vertex -52.881149 -1270.557129 14.232977
   vertex -53.132446 -1269.821899 14.232270
  endloop
 endfacet
 facet normal 0.946250 0.323425 0.002660
  outer loop
   vertex -53.132446 -1269.821899 14.232270
   vertex -53.135704 -1269.821899 15.390981
   vertex -52.884407 -1270.557129 15.391687
  endloop
 endfacet
 facet normal -0.002811 0.000000 0.999996
  outer loop
   vertex -52.884407 -1270.557129 15.391687
   vertex -53.135704 -1269.821899 15.390981
   vertex -54.296124 -1269.821899 15.387718
  endloop
 endfacet
 facet normal -0.000000 1.000000 0.000000
  outer loop
   vertex -54.296124 -1269.821899 15.387718
   vertex -53.135704 -1269.821899 15.390981
   vertex -53.132446 -1269.821899 14.232270
  endloop
 endfacet
 facet normal 0.000000 1.000000 -0.000000
  outer loop
   vertex -53.132446 -1269.821899 14.232270
   vertex -54.292866 -1269.821899 14.229008
   vertex -54.296124 -1269.821899 15.387718
  endloop
 endfacet
 facet normal 0.002811 0.000000 -0.999996
  outer loop
   vertex -54.544163 -1270.557129 14.228301
   vertex -54.292866 -1269.821899 14.229008
   vertex -53.132446 -1269.821899 14.232270
  endloop
 endfacet
 facet normal -0.946250 0.323425 -0.002660
  outer loop
   vertex -54.296124 -1269.821899 15.387718
   vertex -54.292866 -1269.821899 14.229008
   vertex -54.544163 -1270.557129 14.228301
  endloop
 endfacet
 facet normal -0.946250 0.323425 -0.002660
  outer loop
   vertex -54.544163 -1270.557129 14.228301
   vertex -54.547421 -1270.557129 15.387012
   vertex -54.296124 -1269.821899 15.387718
  endloop
 endfacet
 facet normal -0.002812 -0.000000 0.999996
  outer loop
   vertex -54.296124 -1269.821899 15.387718
   vertex -54.547421 -1270.557129 15.387012
   vertex -52.884407 -1270.557129 15.391687
  endloop
 endfacet
 facet normal 0.002812 0.000000 -0.999996
  outer loop
   vertex -52.815033 -1270.557129 -9.281876
   vertex -54.478050 -1270.557129 -9.286551
   vertex -54.226753 -1269.821899 -9.285845
  endloop
 endfacet
 facet normal -0.946250 0.323425 -0.002660
  outer loop
   vertex -54.226753 -1269.821899 -9.285845
   vertex -54.478050 -1270.557129 -9.286551
   vertex -54.481308 -1270.557129 -8.127840
  endloop
 endfacet
 facet normal -0.946250 0.323425 -0.002660
  outer loop
   vertex -54.481308 -1270.557129 -8.127840
   vertex -54.230011 -1269.821899 -8.127133
   vertex -54.226753 -1269.821899 -9.285845
  endloop
 endfacet
 facet normal -0.002811 -0.000000 0.999996
  outer loop
   vertex -53.069592 -1269.821899 -8.123871
   vertex -54.230011 -1269.821899 -8.127133
   vertex -54.481308 -1270.557129 -8.127840
  endloop
 endfacet
 facet normal -0.000000 1.000000 0.000000
  outer loop
   vertex -54.226753 -1269.821899 -9.285845
   vertex -54.230011 -1269.821899 -8.127133
   vertex -53.069592 -1269.821899 -8.123871
  endloop
 endfacet
 facet normal 0.000000 1.000000 -0.000000
  outer loop
   vertex -53.069592 -1269.821899 -8.123871
   vertex -53.066334 -1269.821899 -9.282581
   vertex -54.226753 -1269.821899 -9.285845
  endloop
 endfacet
 facet normal 0.002812 0.000001 -0.999996
  outer loop
   vertex -54.226753 -1269.821899 -9.285845
   vertex -53.066334 -1269.821899 -9.282581
   vertex -52.815033 -1270.557129 -9.281876
  endloop
 endfacet
 facet normal 0.946249 0.323429 0.002660
  outer loop
   vertex -52.815033 -1270.557129 -9.281876
   vertex -53.066334 -1269.821899 -9.282581
   vertex -53.069592 -1269.821899 -8.123871
  endloop
 endfacet
 facet normal 0.946249 0.323429 0.002660
  outer loop
   vertex -53.069592 -1269.821899 -8.123871
   vertex -52.818291 -1270.557129 -8.123164
   vertex -52.815033 -1270.557129 -9.281876
  endloop
 endfacet
 facet normal -0.002812 0.000000 0.999996
  outer loop
   vertex -54.481308 -1270.557129 -8.127840
   vertex -52.818291 -1270.557129 -8.123164
   vertex -53.069592 -1269.821899 -8.123871
  endloop
 endfacet
 facet normal -0.002812 -0.000000 0.999996
  outer loop
   vertex -53.056038 -1271.383179 -8.123833
   vertex -52.818291 -1270.557129 -8.123164
   vertex -54.481308 -1270.557129 -8.127840
  endloop
 endfacet
 facet normal -0.002812 0.000000 0.999996
  outer loop
   vertex -54.481308 -1270.557129 -8.127840
   vertex -54.243561 -1271.383179 -8.127172
   vertex -53.056038 -1271.383179 -8.123833
  endloop
 endfacet
 facet normal 0.000000 -1.000000 0.000000
  outer loop
   vertex -53.056038 -1271.383179 -8.123833
   vertex -54.243561 -1271.383179 -8.127172
   vertex -54.240303 -1271.383179 -9.285883
  endloop
 endfacet
 facet normal 0.989090 -0.147287 0.002781
  outer loop
   vertex -54.240303 -1271.383179 -9.285883
   vertex -54.243561 -1271.383179 -8.127172
   vertex -54.258266 -1271.481934 -8.127213
  endloop
 endfacet
 facet normal 0.989090 -0.147287 0.002781
  outer loop
   vertex -54.258266 -1271.481934 -8.127213
   vertex -54.255009 -1271.481934 -9.285924
   vertex -54.240303 -1271.383179 -9.285883
  endloop
 endfacet
 facet normal -0.000000 -1.000000 -0.000000
  outer loop
   vertex -54.417233 -1271.481934 -8.127660
   vertex -54.255009 -1271.481934 -9.285924
   vertex -54.258266 -1271.481934 -8.127213
  endloop
 endfacet
 facet normal -0.000000 -1.000000 0.000000
  outer loop
   vertex -54.413975 -1271.481934 -9.286371
   vertex -54.255009 -1271.481934 -9.285924
   vertex -54.417233 -1271.481934 -8.127660
  endloop
 endfacet
 facet normal -0.792023 -0.610487 -0.002227
  outer loop
   vertex -54.417233 -1271.481934 -8.127660
   vertex -54.478050 -1271.398804 -9.286551
   vertex -54.413975 -1271.481934 -9.286371
  endloop
 endfacet
 facet normal 0.002812 -0.000001 -0.999996
  outer loop
   vertex -54.413975 -1271.481934 -9.286371
   vertex -54.478050 -1271.398804 -9.286551
   vertex -54.240303 -1271.383179 -9.285883
  endloop
 endfacet
 facet normal 0.002812 -0.000000 -0.999996
  outer loop
   vertex -54.240303 -1271.383179 -9.285883
   vertex -54.478050 -1271.398804 -9.286551
   vertex -54.478050 -1270.557129 -9.286551
  endloop
 endfacet
 facet normal 0.002812 -0.000000 -0.999996
  outer loop
   vertex -54.478050 -1270.557129 -9.286551
   vertex -53.052780 -1271.383179 -9.282544
   vertex -54.240303 -1271.383179 -9.285883
  endloop
 endfacet
 facet normal 0.002812 0.000000 -0.999996
  outer loop
   vertex -52.815033 -1270.557129 -9.281876
   vertex -53.052780 -1271.383179 -9.282544
   vertex -54.478050 -1270.557129 -9.286551
  endloop
 endfacet
 facet normal 0.002812 -0.000000 -0.999996
  outer loop
   vertex -52.815037 -1271.398804 -9.281876
   vertex -53.052780 -1271.383179 -9.282544
   vertex -52.815033 -1270.557129 -9.281876
  endloop
 endfacet
 facet normal 0.999996 -0.000005 0.002812
  outer loop
   vertex -52.815033 -1270.557129 -9.281876
   vertex -52.818291 -1270.557129 -8.123164
   vertex -52.815037 -1271.398804 -9.281876
  endloop
 endfacet
 facet normal 0.999996 -0.000005 0.002812
  outer loop
   vertex -52.815037 -1271.398804 -9.281876
   vertex -52.818291 -1270.557129 -8.123164
   vertex -52.818295 -1271.398804 -8.123164
  endloop
 endfacet
 facet normal -0.002812 0.000000 0.999996
  outer loop
   vertex -52.818295 -1271.398804 -8.123164
   vertex -52.818291 -1270.557129 -8.123164
   vertex -53.056038 -1271.383179 -8.123833
  endloop
 endfacet
 facet normal -0.002812 -0.000001 0.999996
  outer loop
   vertex -53.056038 -1271.383179 -8.123833
   vertex -52.882370 -1271.481934 -8.123344
   vertex -52.818295 -1271.398804 -8.123164
  endloop
 endfacet
 facet normal -0.002814 -0.000004 0.999996
  outer loop
   vertex -53.041332 -1271.481934 -8.123792
   vertex -52.882370 -1271.481934 -8.123344
   vertex -53.056038 -1271.383179 -8.123833
  endloop
 endfacet
 facet normal 0.000000 -1.000000 0.000000
  outer loop
   vertex -53.038074 -1271.481934 -9.282502
   vertex -52.882370 -1271.481934 -8.123344
   vertex -53.041332 -1271.481934 -8.123792
  endloop
 endfacet
 facet normal -0.989090 -0.147287 -0.002781
  outer loop
   vertex -53.041332 -1271.481934 -8.123792
   vertex -53.056038 -1271.383179 -8.123833
   vertex -53.038074 -1271.481934 -9.282502
  endloop
 endfacet
 facet normal -0.989090 -0.147287 -0.002781
  outer loop
   vertex -53.038074 -1271.481934 -9.282502
   vertex -53.056038 -1271.383179 -8.123833
   vertex -53.052780 -1271.383179 -9.282544
  endloop
 endfacet
 facet normal -0.000000 -1.000000 -0.000000
  outer loop
   vertex -53.052780 -1271.383179 -9.282544
   vertex -53.056038 -1271.383179 -8.123833
   vertex -54.240303 -1271.383179 -9.285883
  endloop
 endfacet
 facet normal 0.999996 -0.000000 0.002813
  outer loop
   vertex -52.889046 -1267.687256 15.492258
   vertex -52.893150 -1265.490356 16.951742
   vertex -52.892353 -1267.687256 16.668173
  endloop
 endfacet
 facet normal 0.999996 0.000000 0.002812
  outer loop
   vertex -52.892353 -1267.687256 16.668173
   vertex -52.893150 -1265.490356 16.951742
   vertex -52.893150 -1269.586670 16.951742
  endloop
 endfacet
 facet normal 0.002812 0.000001 -0.999996
  outer loop
   vertex -52.815037 -1271.398804 -9.281876
   vertex -52.879112 -1271.481934 -9.282056
   vertex -53.052780 -1271.383179 -9.282544
  endloop
 endfacet
 facet normal 0.002808 -0.000007 -0.999996
  outer loop
   vertex -53.052780 -1271.383179 -9.282544
   vertex -52.879112 -1271.481934 -9.282056
   vertex -53.038074 -1271.481934 -9.282502
  endloop
 endfacet
 facet normal -0.002812 -0.000001 0.999996
  outer loop
   vertex -52.884407 -1271.398804 15.391687
   vertex -53.122154 -1271.383179 15.391019
   vertex -52.948483 -1271.481934 15.391507
  endloop
 endfacet
 facet normal -0.002814 -0.000004 0.999996
  outer loop
   vertex -52.948483 -1271.481934 15.391507
   vertex -53.122154 -1271.383179 15.391019
   vertex -53.107449 -1271.481934 15.391060
  endloop
 endfacet
 facet normal 0.002814 -0.000004 -0.999996
  outer loop
   vertex -54.413975 -1271.481934 -9.286371
   vertex -54.240303 -1271.383179 -9.285883
   vertex -54.255009 -1271.481934 -9.285924
  endloop
 endfacet
 facet normal -0.002814 0.000004 0.999996
  outer loop
   vertex -54.483349 -1271.481934 15.387192
   vertex -54.324383 -1271.481934 15.387639
   vertex -54.309677 -1271.383179 15.387680
  endloop
 endfacet
 facet normal -0.999996 0.000001 -0.002811
  outer loop
   vertex -53.147301 -1265.490356 -10.842888
   vertex -53.149353 -1266.588745 -10.113146
   vertex -53.152939 -1265.490356 -8.837421
  endloop
 endfacet
 facet normal 0.000000 -1.000000 0.000000
  outer loop
   vertex -54.309677 -1271.383179 15.387680
   vertex -53.118896 -1271.383179 14.232308
   vertex -53.122154 -1271.383179 15.391019
  endloop
 endfacet
 facet normal 0.000000 -1.000000 0.000000
  outer loop
   vertex -54.197346 -1269.831299 15.269318
   vertex -54.196423 -1269.831299 14.938591
   vertex -52.888496 -1269.831299 15.272948
  endloop
 endfacet
 facet normal -0.000000 -1.000000 0.000000
  outer loop
   vertex -54.128643 -1269.831299 -9.166890
   vertex -52.819794 -1269.831299 -9.163160
   vertex -54.129578 -1269.831299 -8.836164
  endloop
 endfacet
 facet normal -0.999996 0.000000 -0.002812
  outer loop
   vertex -54.433056 -1270.570557 -8.744005
   vertex -54.433056 -1270.641113 -8.744005
   vertex -54.499378 -1270.641113 14.844728
  endloop
 endfacet
 facet normal 0.002794 -0.000017 -0.999996
  outer loop
   vertex -54.196423 -1269.831299 14.938591
   vertex -52.887592 -1265.490479 14.942173
   vertex -52.887592 -1269.831299 14.942248
  endloop
 endfacet
 facet normal 0.999996 -0.000000 0.002809
  outer loop
   vertex -52.820644 -1269.852295 -8.836487
   vertex -52.819111 -1269.515259 -9.382470
   vertex -52.819111 -1267.687256 -9.382470
  endloop
 endfacet
endsolid