solid stl file generated from DOUG
 facet normal 0.806285 -0.000000 -0.591528
  outer loop
   vertex -54.041878 -1255.729126 -33.091328
   vertex -54.122437 -1255.729126 -33.201134
   vertex -54.122425 -1229.270630 -33.201130
  endloop
 endfacet
 facet normal 0.002821 0.000000 -0.999996
  outer loop
   vertex -54.122425 -1229.270630 -33.201130
   vertex -54.122437 -1255.729126 -33.201134
   vertex -54.225182 -1229.270630 -33.201420
  endloop
 endfacet
 facet normal -0.802941 0.000000 -0.596058
  outer loop
   vertex -52.937332 -1229.270630 -33.088219
   vertex -52.856155 -1229.270630 -33.197571
   vertex -52.856167 -1255.729126 -33.197575
  endloop
 endfacet
 facet normal 0.002821 0.000000 -0.999996
  outer loop
   vertex -52.856167 -1255.729126 -33.197575
   vertex -52.856155 -1229.270630 -33.197571
   vertex -52.753399 -1229.270630 -33.197281
  endloop
 endfacet
 facet normal 0.002821 0.000000 -0.999996
  outer loop
   vertex -52.753399 -1229.270630 -33.197281
   vertex -52.753414 -1255.729126 -33.197285
   vertex -52.856167 -1255.729126 -33.197575
  endloop
 endfacet
 facet normal 0.361385 -0.000000 -0.932417
  outer loop
   vertex -52.755463 -1229.270630 -32.464558
   vertex -52.755474 -1255.729126 -32.464561
   vertex -52.786850 -1229.270630 -32.476723
  endloop
 endfacet
 facet normal 0.361385 -0.000000 -0.932417
  outer loop
   vertex -52.786850 -1229.270630 -32.476723
   vertex -52.755474 -1255.729126 -32.464561
   vertex -52.786861 -1255.729126 -32.476727
  endloop
 endfacet
 facet normal 0.999996 -0.000000 0.002812
  outer loop
   vertex -52.786861 -1255.729126 -32.476727
   vertex -52.785244 -1255.729126 -33.051880
   vertex -52.786850 -1229.270630 -32.476723
  endloop
 endfacet
 facet normal 0.806285 -0.000000 -0.591528
  outer loop
   vertex -54.122425 -1229.270630 -33.201130
   vertex -54.041866 -1229.270630 -33.091324
   vertex -54.041878 -1255.729126 -33.091328
  endloop
 endfacet
 facet normal 0.002811 0.000000 -0.999996
  outer loop
   vertex -54.041878 -1255.729126 -33.091328
   vertex -54.041866 -1229.270630 -33.091324
   vertex -52.937332 -1229.270630 -33.088219
  endloop
 endfacet
 facet normal 0.002811 0.000000 -0.999996
  outer loop
   vertex -52.937332 -1229.270630 -33.088219
   vertex -52.937344 -1255.729126 -33.088223
   vertex -54.041878 -1255.729126 -33.091328
  endloop
 endfacet
 facet normal -0.802941 0.000000 -0.596058
  outer loop
   vertex -52.856167 -1255.729126 -33.197575
   vertex -52.937344 -1255.729126 -33.088223
   vertex -52.937332 -1229.270630 -33.088219
  endloop
 endfacet
 facet normal 0.999996 -0.000001 0.002802
  outer loop
   vertex -52.753414 -1255.729126 -33.197285
   vertex -52.753399 -1229.270630 -33.197281
   vertex -52.753788 -1255.729126 -33.063869
  endloop
 endfacet
 facet normal 0.999996 -0.000000 0.002831
  outer loop
   vertex -52.753788 -1255.729126 -33.063869
   vertex -52.753399 -1229.270630 -33.197281
   vertex -52.753777 -1229.270630 -33.063866
  endloop
 endfacet
 facet normal 0.356160 -0.000000 0.934425
  outer loop
   vertex -52.753777 -1229.270630 -33.063866
   vertex -52.785244 -1255.729126 -33.051880
   vertex -52.753788 -1255.729126 -33.063869
  endloop
 endfacet
 facet normal 0.356160 -0.000000 0.934425
  outer loop
   vertex -52.785233 -1229.270630 -33.051876
   vertex -52.785244 -1255.729126 -33.051880
   vertex -52.753777 -1229.270630 -33.063866
  endloop
 endfacet
 facet normal 0.999996 -0.000000 0.002812
  outer loop
   vertex -52.786850 -1229.270630 -32.476723
   vertex -52.785244 -1255.729126 -33.051880
   vertex -52.785233 -1229.270630 -33.051876
  endloop
 endfacet
 facet normal 0.000000 1.000000 0.000000
  outer loop
   vertex -54.242168 -1228.855347 -33.220177
   vertex -52.738670 -1228.855347 -32.375443
   vertex -52.736305 -1228.855347 -33.215942
  endloop
 endfacet
 facet normal 0.999996 -0.000004 0.002814
  outer loop
   vertex -52.736305 -1228.855347 -33.215942
   vertex -52.738670 -1228.855347 -32.375443
   vertex -52.736309 -1229.855347 -33.215942
  endloop
 endfacet
 facet normal 0.002812 -0.000000 -0.999996
  outer loop
   vertex -52.736309 -1229.855347 -33.215942
   vertex -54.242168 -1229.855347 -33.220177
   vertex -52.736305 -1228.855347 -33.215942
  endloop
 endfacet
 facet normal -0.000000 -1.000000 -0.000000
  outer loop
   vertex -52.738670 -1229.855347 -32.375443
   vertex -54.242168 -1229.855347 -33.220177
   vertex -52.736309 -1229.855347 -33.215942
  endloop
 endfacet
 facet normal 0.000000 -1.000000 0.000000
  outer loop
   vertex -54.244534 -1229.855347 -32.379677
   vertex -54.242168 -1229.855347 -33.220177
   vertex -52.738670 -1229.855347 -32.375443
  endloop
 endfacet
 facet normal -0.002812 -0.000000 0.999996
  outer loop
   vertex -52.738670 -1229.855347 -32.375443
   vertex -52.738670 -1228.855347 -32.375443
   vertex -54.244534 -1229.855347 -32.379677
  endloop
 endfacet
 facet normal -0.002812 0.000000 0.999996
  outer loop
   vertex -54.244534 -1229.855347 -32.379677
   vertex -52.738670 -1228.855347 -32.375443
   vertex -54.244530 -1228.855347 -32.379677
  endloop
 endfacet
 facet normal -0.000000 1.000000 -0.000000
  outer loop
   vertex -54.244530 -1228.855347 -32.379677
   vertex -52.738670 -1228.855347 -32.375443
   vertex -54.242168 -1228.855347 -33.220177
  endloop
 endfacet
 facet normal -0.999996 0.000000 -0.002809
  outer loop
   vertex -54.242168 -1228.855347 -33.220177
   vertex -54.242168 -1229.855347 -33.220177
   vertex -54.244530 -1228.855347 -32.379677
  endloop
 endfacet
 facet normal 0.002812 -0.000000 -0.999996
  outer loop
   vertex -52.736305 -1228.855347 -33.215942
   vertex -54.242168 -1229.855347 -33.220177
   vertex -54.242168 -1228.855347 -33.220177
  endloop
 endfacet
 facet normal 0.000000 1.000000 0.000000
  outer loop
   vertex -52.736320 -1255.144409 -33.215946
   vertex -54.242180 -1255.144409 -33.220181
   vertex -52.738682 -1255.144409 -32.375446
  endloop
 endfacet
 facet normal -0.000000 1.000000 -0.000000
  outer loop
   vertex -52.738682 -1255.144409 -32.375446
   vertex -54.242180 -1255.144409 -33.220181
   vertex -54.244545 -1255.144409 -32.379681
  endloop
 endfacet
 facet normal -0.002812 0.000000 0.999996
  outer loop
   vertex -54.244545 -1255.144409 -32.379681
   vertex -54.244545 -1256.144409 -32.379681
   vertex -52.738682 -1255.144409 -32.375446
  endloop
 endfacet
 facet normal -0.999996 0.000000 -0.002814
  outer loop
   vertex -54.242180 -1255.144409 -33.220181
   vertex -54.244545 -1256.144409 -32.379681
   vertex -54.244545 -1255.144409 -32.379681
  endloop
 endfacet
 facet normal -0.999996 0.000000 -0.002814
  outer loop
   vertex -54.242180 -1256.144409 -33.220181
   vertex -54.244545 -1256.144409 -32.379681
   vertex -54.242180 -1255.144409 -33.220181
  endloop
 endfacet
 facet normal 0.002812 -0.000000 -0.999996
  outer loop
   vertex -54.242180 -1255.144409 -33.220181
   vertex -52.736320 -1256.144409 -33.215946
   vertex -54.242180 -1256.144409 -33.220181
  endloop
 endfacet
 facet normal -0.000000 -1.000000 0.000000
  outer loop
   vertex -54.242180 -1256.144409 -33.220181
   vertex -52.736320 -1256.144409 -33.215946
   vertex -54.244545 -1256.144409 -32.379681
  endloop
 endfacet
 facet normal -0.000000 -1.000000 -0.000000
  outer loop
   vertex -54.244545 -1256.144409 -32.379681
   vertex -52.736320 -1256.144409 -33.215946
   vertex -52.738682 -1256.144409 -32.375446
  endloop
 endfacet
 facet normal -0.002812 0.000000 0.999996
  outer loop
   vertex -52.738682 -1256.144409 -32.375446
   vertex -52.738682 -1255.144409 -32.375446
   vertex -54.244545 -1256.144409 -32.379681
  endloop
 endfacet
 facet normal 0.999996 0.000000 0.002809
  outer loop
   vertex -52.736320 -1256.144409 -33.215946
   vertex -52.738682 -1255.144409 -32.375446
   vertex -52.738682 -1256.144409 -32.375446
  endloop
 endfacet
 facet normal 0.999996 0.000000 0.002809
  outer loop
   vertex -52.736320 -1255.144409 -33.215946
   vertex -52.738682 -1255.144409 -32.375446
   vertex -52.736320 -1256.144409 -33.215946
  endloop
 endfacet
 facet normal 0.002812 -0.000000 -0.999996
  outer loop
   vertex -52.736320 -1256.144409 -33.215946
   vertex -54.242180 -1255.144409 -33.220181
   vertex -52.736320 -1255.144409 -33.215946
  endloop
 endfacet
 facet normal 0.002821 0.000000 -0.999996
  outer loop
   vertex -54.122437 -1255.729126 -33.201134
   vertex -54.225193 -1255.729126 -33.201424
   vertex -54.225182 -1229.270630 -33.201420
  endloop
 endfacet
 facet normal -0.999996 0.000000 -0.002802
  outer loop
   vertex -54.225182 -1229.270630 -33.201420
   vertex -54.225193 -1255.729126 -33.201424
   vertex -54.225567 -1255.729126 -33.068005
  endloop
 endfacet
 facet normal -0.999996 0.000000 -0.002802
  outer loop
   vertex -54.225567 -1255.729126 -33.068005
   vertex -54.225555 -1229.270630 -33.068001
   vertex -54.225182 -1229.270630 -33.201420
  endloop
 endfacet
 facet normal -0.361248 0.000000 0.932470
  outer loop
   vertex -54.194176 -1255.729126 -33.055843
   vertex -54.225555 -1229.270630 -33.068001
   vertex -54.225567 -1255.729126 -33.068005
  endloop
 endfacet
 facet normal -0.361248 0.000000 0.932470
  outer loop
   vertex -54.194164 -1229.270630 -33.055840
   vertex -54.225555 -1229.270630 -33.068001
   vertex -54.194176 -1255.729126 -33.055843
  endloop
 endfacet
 facet normal -0.999996 0.000000 -0.002812
  outer loop
   vertex -54.194176 -1255.729126 -33.055843
   vertex -54.195793 -1255.729126 -32.480690
   vertex -54.194164 -1229.270630 -33.055840
  endloop
 endfacet
 facet normal -0.999996 0.000000 -0.002812
  outer loop
   vertex -54.194164 -1229.270630 -33.055840
   vertex -54.195793 -1255.729126 -32.480690
   vertex -54.195782 -1229.270630 -32.480682
  endloop
 endfacet
 facet normal -0.356123 0.000000 -0.934439
  outer loop
   vertex -54.195782 -1229.270630 -32.480682
   vertex -54.195793 -1255.729126 -32.480690
   vertex -54.227253 -1255.729126 -32.468700
  endloop
 endfacet
 facet normal -0.356024 0.000000 -0.934477
  outer loop
   vertex -54.227253 -1255.729126 -32.468700
   vertex -54.227242 -1229.270630 -32.468697
   vertex -54.195782 -1229.270630 -32.480682
  endloop
 endfacet
 facet normal -0.999996 0.000000 -0.002824
  outer loop
   vertex -54.227440 -1255.729126 -32.402500
   vertex -54.227242 -1229.270630 -32.468697
   vertex -54.227253 -1255.729126 -32.468700
  endloop
 endfacet
 facet normal -0.999996 0.000001 -0.002766
  outer loop
   vertex -54.227425 -1229.270630 -32.402496
   vertex -54.227242 -1229.270630 -32.468697
   vertex -54.227440 -1255.729126 -32.402500
  endloop
 endfacet
 facet normal -0.002812 -0.000000 0.999996
  outer loop
   vertex -54.227440 -1255.729126 -32.402500
   vertex -52.755657 -1255.729126 -32.398361
   vertex -54.227425 -1229.270630 -32.402496
  endloop
 endfacet
 facet normal -0.002812 -0.000000 0.999996
  outer loop
   vertex -54.227425 -1229.270630 -32.402496
   vertex -52.755657 -1255.729126 -32.398361
   vertex -52.755646 -1229.270630 -32.398357
  endloop
 endfacet
 facet normal 0.999996 -0.000000 0.002766
  outer loop
   vertex -52.755646 -1229.270630 -32.398357
   vertex -52.755657 -1255.729126 -32.398361
   vertex -52.755463 -1229.270630 -32.464558
  endloop
 endfacet
 facet normal 0.999996 0.000000 0.002809
  outer loop
   vertex -52.738670 -1229.855347 -32.375443
   vertex -52.736309 -1229.855347 -33.215942
   vertex -52.738670 -1228.855347 -32.375443
  endloop
 endfacet
 facet normal -0.999996 0.000004 -0.002814
  outer loop
   vertex -54.242168 -1229.855347 -33.220177
   vertex -54.244534 -1229.855347 -32.379677
   vertex -54.244530 -1228.855347 -32.379677
  endloop
 endfacet
 facet normal 0.999996 -0.000000 0.002766
  outer loop
   vertex -52.755657 -1255.729126 -32.398361
   vertex -52.755474 -1255.729126 -32.464561
   vertex -52.755463 -1229.270630 -32.464558
  endloop
 endfacet
 facet normal -0.313024 -0.759373 -0.570412
  outer loop
   vertex -53.494259 -1255.859863 -31.437029
   vertex -53.497070 -1256.609863 -30.437033
   vertex -53.671032 -1255.786621 -31.437527
  endloop
 endfacet
 facet normal -0.312899 -0.759394 -0.570451
  outer loop
   vertex -53.671032 -1255.786621 -31.437527
   vertex -53.497070 -1256.609863 -30.437033
   vertex -54.204174 -1256.317017 -30.439020
  endloop
 endfacet
 facet normal -0.757763 -0.314575 -0.571698
  outer loop
   vertex -54.204174 -1256.317017 -30.439020
   vertex -53.744255 -1255.609863 -31.437733
   vertex -53.671032 -1255.786621 -31.437527
  endloop
 endfacet
 facet normal -0.757792 -0.314533 -0.571682
  outer loop
   vertex -54.497066 -1255.609863 -30.439844
   vertex -53.744255 -1255.609863 -31.437733
   vertex -54.204174 -1256.317017 -30.439020
  endloop
 endfacet
 facet normal -0.757779 0.314581 -0.571672
  outer loop
   vertex -53.671032 -1255.433105 -31.437527
   vertex -53.744255 -1255.609863 -31.437733
   vertex -54.497066 -1255.609863 -30.439844
  endloop
 endfacet
 facet normal -0.757788 0.314531 -0.571688
  outer loop
   vertex -54.497066 -1255.609863 -30.439844
   vertex -54.204174 -1254.902710 -30.439020
   vertex -53.671032 -1255.433105 -31.437527
  endloop
 endfacet
 facet normal -0.313007 0.759332 -0.570475
  outer loop
   vertex -53.671032 -1255.433105 -31.437527
   vertex -54.204174 -1254.902710 -30.439020
   vertex -53.494259 -1255.359863 -31.437029
  endloop
 endfacet
 facet normal -0.312904 0.759404 -0.570435
  outer loop
   vertex -53.494259 -1255.359863 -31.437029
   vertex -54.204174 -1254.902710 -30.439020
   vertex -53.497070 -1254.609863 -30.437033
  endloop
 endfacet
 facet normal 0.316225 0.759373 -0.568643
  outer loop
   vertex -53.497070 -1254.609863 -30.437033
   vertex -53.317482 -1255.433105 -31.436531
   vertex -53.494259 -1255.359863 -31.437029
  endloop
 endfacet
 facet normal 0.316100 0.759395 -0.568683
  outer loop
   vertex -52.789963 -1254.902710 -30.435045
   vertex -53.317482 -1255.433105 -31.436531
   vertex -53.497070 -1254.609863 -30.437033
  endloop
 endfacet
 facet normal 0.760965 0.314574 -0.567429
  outer loop
   vertex -53.244259 -1255.609863 -31.436325
   vertex -53.317482 -1255.433105 -31.436531
   vertex -52.789963 -1254.902710 -30.435045
  endloop
 endfacet
 facet normal 0.760997 0.314528 -0.567411
  outer loop
   vertex -52.789963 -1254.902710 -30.435045
   vertex -52.497074 -1255.609863 -30.434221
   vertex -53.244259 -1255.609863 -31.436325
  endloop
 endfacet
 facet normal 0.760983 -0.314581 -0.567401
  outer loop
   vertex -53.244259 -1255.609863 -31.436325
   vertex -52.497074 -1255.609863 -30.434221
   vertex -53.317482 -1255.786621 -31.436531
  endloop
 endfacet
 facet normal 0.760992 -0.314527 -0.567418
  outer loop
   vertex -53.317482 -1255.786621 -31.436531
   vertex -52.497074 -1255.609863 -30.434221
   vertex -52.789963 -1256.317017 -30.435045
  endloop
 endfacet
 facet normal 0.316208 -0.759332 -0.568707
  outer loop
   vertex -52.789963 -1256.317017 -30.435045
   vertex -53.494259 -1255.859863 -31.437029
   vertex -53.317482 -1255.786621 -31.436531
  endloop
 endfacet
 facet normal 0.316104 -0.759405 -0.568667
  outer loop
   vertex -53.497070 -1256.609863 -30.437033
   vertex -53.494259 -1255.859863 -31.437029
   vertex -52.789963 -1256.317017 -30.435045
  endloop
 endfacet
 facet normal -0.382765 -0.923845 -0.001076
  outer loop
   vertex -53.491463 -1229.639893 -32.426983
   vertex -53.494274 -1229.639893 -31.426987
   vertex -53.668240 -1229.566650 -32.427479
  endloop
 endfacet
 facet normal -0.382765 -0.923845 -0.001076
  outer loop
   vertex -53.668240 -1229.566650 -32.427479
   vertex -53.494274 -1229.639893 -31.426987
   vertex -53.671051 -1229.566650 -31.427485
  endloop
 endfacet
 facet normal -0.923861 -0.382719 -0.002597
  outer loop
   vertex -53.671051 -1229.566650 -31.427485
   vertex -53.741463 -1229.389893 -32.427685
   vertex -53.668240 -1229.566650 -32.427479
  endloop
 endfacet
 facet normal -0.923861 -0.382719 -0.002597
  outer loop
   vertex -53.744274 -1229.389893 -31.427691
   vertex -53.741463 -1229.389893 -32.427685
   vertex -53.671051 -1229.566650 -31.427485
  endloop
 endfacet
 facet normal -0.923861 0.382719 -0.002597
  outer loop
   vertex -53.668240 -1229.213135 -32.427479
   vertex -53.741463 -1229.389893 -32.427685
   vertex -53.744274 -1229.389893 -31.427691
  endloop
 endfacet
 facet normal -0.923861 0.382719 -0.002597
  outer loop
   vertex -53.744274 -1229.389893 -31.427691
   vertex -53.671051 -1229.213135 -31.427485
   vertex -53.668240 -1229.213135 -32.427479
  endloop
 endfacet
 facet normal -0.382765 0.923845 -0.001076
  outer loop
   vertex -53.668240 -1229.213135 -32.427479
   vertex -53.671051 -1229.213135 -31.427485
   vertex -53.491463 -1229.139893 -32.426983
  endloop
 endfacet
 facet normal -0.382765 0.923845 -0.001076
  outer loop
   vertex -53.491463 -1229.139893 -32.426983
   vertex -53.671051 -1229.213135 -31.427485
   vertex -53.494274 -1229.139893 -31.426987
  endloop
 endfacet
 facet normal 0.382765 0.923845 0.001076
  outer loop
   vertex -53.494274 -1229.139893 -31.426987
   vertex -53.314686 -1229.213135 -32.426487
   vertex -53.491463 -1229.139893 -32.426983
  endloop
 endfacet
 facet normal 0.382765 0.923845 0.001076
  outer loop
   vertex -53.317497 -1229.213135 -31.426491
   vertex -53.314686 -1229.213135 -32.426487
   vertex -53.494274 -1229.139893 -31.426987
  endloop
 endfacet
 facet normal 0.923861 0.382719 0.002597
  outer loop
   vertex -53.241463 -1229.389893 -32.426281
   vertex -53.314686 -1229.213135 -32.426487
   vertex -53.317497 -1229.213135 -31.426491
  endloop
 endfacet
 facet normal 0.923861 0.382719 0.002597
  outer loop
   vertex -53.317497 -1229.213135 -31.426491
   vertex -53.244274 -1229.389893 -31.426285
   vertex -53.241463 -1229.389893 -32.426281
  endloop
 endfacet
 facet normal 0.923861 -0.382719 0.002597
  outer loop
   vertex -53.241463 -1229.389893 -32.426281
   vertex -53.244274 -1229.389893 -31.426285
   vertex -53.314686 -1229.566650 -32.426487
  endloop
 endfacet
 facet normal 0.923861 -0.382719 0.002597
  outer loop
   vertex -53.314686 -1229.566650 -32.426487
   vertex -53.244274 -1229.389893 -31.426285
   vertex -53.317497 -1229.566650 -31.426491
  endloop
 endfacet
 facet normal 0.382765 -0.923845 0.001076
  outer loop
   vertex -53.317497 -1229.566650 -31.426491
   vertex -53.491463 -1229.639893 -32.426983
   vertex -53.314686 -1229.566650 -32.426487
  endloop
 endfacet
 facet normal 0.382765 -0.923845 0.001076
  outer loop
   vertex -53.494274 -1229.639893 -31.426987
   vertex -53.491463 -1229.639893 -32.426983
   vertex -53.317497 -1229.566650 -31.426491
  endloop
 endfacet
 facet normal -0.382630 -0.923901 -0.001076
  outer loop
   vertex -53.497059 -1230.389893 -30.437029
   vertex -53.499870 -1230.389893 -29.437033
   vertex -54.204163 -1230.097046 -30.439016
  endloop
 endfacet
 facet normal -0.382630 -0.923901 -0.001076
  outer loop
   vertex -54.204163 -1230.097046 -30.439016
   vertex -53.499870 -1230.389893 -29.437033
   vertex -54.206974 -1230.097046 -29.439020
  endloop
 endfacet
 facet normal -0.923886 -0.382658 -0.002597
  outer loop
   vertex -54.206974 -1230.097046 -29.439020
   vertex -54.497051 -1229.389893 -30.439840
   vertex -54.204163 -1230.097046 -30.439016
  endloop
 endfacet
 facet normal -0.923885 -0.382662 -0.002601
  outer loop
   vertex -54.499866 -1229.389893 -29.439844
   vertex -54.497051 -1229.389893 -30.439840
   vertex -54.206974 -1230.097046 -29.439020
  endloop
 endfacet
 facet normal -0.923885 0.382662 -0.002601
  outer loop
   vertex -54.204159 -1228.682739 -30.439016
   vertex -54.497051 -1229.389893 -30.439840
   vertex -54.499866 -1229.389893 -29.439844
  endloop
 endfacet
 facet normal -0.923885 0.382662 -0.002601
  outer loop
   vertex -54.499866 -1229.389893 -29.439844
   vertex -54.206974 -1228.682739 -29.439020
   vertex -54.204159 -1228.682739 -30.439016
  endloop
 endfacet
 facet normal -0.382630 0.923901 -0.001077
  outer loop
   vertex -54.204159 -1228.682739 -30.439016
   vertex -54.206974 -1228.682739 -29.439020
   vertex -53.497055 -1228.389893 -30.437029
  endloop
 endfacet
 facet normal -0.382628 0.923902 -0.001076
  outer loop
   vertex -53.497055 -1228.389893 -30.437029
   vertex -54.206974 -1228.682739 -29.439020
   vertex -53.499866 -1228.389893 -29.437033
  endloop
 endfacet
 facet normal 0.382630 0.923901 0.001076
  outer loop
   vertex -53.499866 -1228.389893 -29.437033
   vertex -52.789951 -1228.682739 -30.435041
   vertex -53.497055 -1228.389893 -30.437029
  endloop
 endfacet
 facet normal 0.382630 0.923901 0.001076
  outer loop
   vertex -52.792763 -1228.682739 -29.435045
   vertex -52.789951 -1228.682739 -30.435041
   vertex -53.499866 -1228.389893 -29.437033
  endloop
 endfacet
 facet normal 0.923886 0.382658 0.002597
  outer loop
   vertex -52.497063 -1229.389893 -30.434217
   vertex -52.789951 -1228.682739 -30.435041
   vertex -52.792763 -1228.682739 -29.435045
  endloop
 endfacet
 facet normal 0.923886 0.382658 0.002597
  outer loop
   vertex -52.792763 -1228.682739 -29.435045
   vertex -52.499874 -1229.389893 -29.434221
   vertex -52.497063 -1229.389893 -30.434217
  endloop
 endfacet
 facet normal 0.923886 -0.382658 0.002597
  outer loop
   vertex -52.497063 -1229.389893 -30.434217
   vertex -52.499874 -1229.389893 -29.434221
   vertex -52.789951 -1230.097046 -30.435041
  endloop
 endfacet
 facet normal 0.923886 -0.382658 0.002597
  outer loop
   vertex -52.789951 -1230.097046 -30.435041
   vertex -52.499874 -1229.389893 -29.434221
   vertex -52.792763 -1230.097046 -29.435045
  endloop
 endfacet
 facet normal 0.382628 -0.923902 0.001076
  outer loop
   vertex -52.792763 -1230.097046 -29.435045
   vertex -53.497059 -1230.389893 -30.437029
   vertex -52.789951 -1230.097046 -30.435041
  endloop
 endfacet
 facet normal 0.382628 -0.923902 0.001076
  outer loop
   vertex -53.499870 -1230.389893 -29.437033
   vertex -53.497059 -1230.389893 -30.437029
   vertex -52.792763 -1230.097046 -29.435045
  endloop
 endfacet
 facet normal -0.313023 -0.759372 -0.570413
  outer loop
   vertex -53.494244 -1229.639893 -31.437025
   vertex -53.497059 -1230.389893 -30.437029
   vertex -53.671021 -1229.566650 -31.437521
  endloop
 endfacet
 facet normal -0.312899 -0.759394 -0.570452
  outer loop
   vertex -53.671021 -1229.566650 -31.437521
   vertex -53.497059 -1230.389893 -30.437029
   vertex -54.204163 -1230.097046 -30.439016
  endloop
 endfacet
 facet normal -0.757762 -0.314574 -0.571699
  outer loop
   vertex -54.204163 -1230.097046 -30.439016
   vertex -53.744244 -1229.389893 -31.437727
   vertex -53.671021 -1229.566650 -31.437521
  endloop
 endfacet
 facet normal -0.757794 -0.314529 -0.571681
  outer loop
   vertex -54.497051 -1229.389893 -30.439840
   vertex -53.744244 -1229.389893 -31.437727
   vertex -54.204163 -1230.097046 -30.439016
  endloop
 endfacet
 facet normal -0.757780 0.314582 -0.571671
  outer loop
   vertex -53.671021 -1229.213135 -31.437521
   vertex -53.744244 -1229.389893 -31.437727
   vertex -54.497051 -1229.389893 -30.439840
  endloop
 endfacet
 facet normal -0.757789 0.314531 -0.571687
  outer loop
   vertex -54.497051 -1229.389893 -30.439840
   vertex -54.204159 -1228.682739 -30.439016
   vertex -53.671021 -1229.213135 -31.437521
  endloop
 endfacet
 facet normal -0.313006 0.759332 -0.570475
  outer loop
   vertex -53.671021 -1229.213135 -31.437521
   vertex -54.204159 -1228.682739 -30.439016
   vertex -53.494244 -1229.139893 -31.437025
  endloop
 endfacet
 facet normal -0.312904 0.759404 -0.570435
  outer loop
   vertex -53.494244 -1229.139893 -31.437025
   vertex -54.204159 -1228.682739 -30.439016
   vertex -53.497055 -1228.389893 -30.437029
  endloop
 endfacet
 facet normal 0.316231 0.759371 -0.568642
  outer loop
   vertex -53.497055 -1228.389893 -30.437029
   vertex -53.317471 -1229.213135 -31.436527
   vertex -53.494244 -1229.139893 -31.437025
  endloop
 endfacet
 facet normal 0.316101 0.759394 -0.568684
  outer loop
   vertex -52.789951 -1228.682739 -30.435041
   vertex -53.317471 -1229.213135 -31.436527
   vertex -53.497055 -1228.389893 -30.437029
  endloop
 endfacet
 facet normal 0.760965 0.314574 -0.567429
  outer loop
   vertex -53.244247 -1229.389893 -31.436321
   vertex -53.317471 -1229.213135 -31.436527
   vertex -52.789951 -1228.682739 -30.435041
  endloop
 endfacet
 facet normal 0.760997 0.314528 -0.567411
  outer loop
   vertex -52.789951 -1228.682739 -30.435041
   vertex -52.497063 -1229.389893 -30.434217
   vertex -53.244247 -1229.389893 -31.436321
  endloop
 endfacet
 facet normal 0.760983 -0.314581 -0.567401
  outer loop
   vertex -53.244247 -1229.389893 -31.436321
   vertex -52.497063 -1229.389893 -30.434217
   vertex -53.317471 -1229.566650 -31.436527
  endloop
 endfacet
 facet normal 0.760992 -0.314527 -0.567418
  outer loop
   vertex -53.317471 -1229.566650 -31.436527
   vertex -52.497063 -1229.389893 -30.434217
   vertex -52.789951 -1230.097046 -30.435041
  endloop
 endfacet
 facet normal 0.316213 -0.759329 -0.568708
  outer loop
   vertex -52.789951 -1230.097046 -30.435041
   vertex -53.494244 -1229.639893 -31.437025
   vertex -53.317471 -1229.566650 -31.436527
  endloop
 endfacet
 facet normal 0.316104 -0.759406 -0.568666
  outer loop
   vertex -53.497059 -1230.389893 -30.437029
   vertex -53.494244 -1229.639893 -31.437025
   vertex -52.789951 -1230.097046 -30.435041
  endloop
 endfacet
 facet normal -0.382765 -0.923845 -0.001076
  outer loop
   vertex -53.491474 -1255.859863 -32.426987
   vertex -53.494286 -1255.859863 -31.426991
   vertex -53.668251 -1255.786621 -32.427483
  endloop
 endfacet
 facet normal -0.382765 -0.923845 -0.001076
  outer loop
   vertex -53.668251 -1255.786621 -32.427483
   vertex -53.494286 -1255.859863 -31.426991
   vertex -53.671062 -1255.786621 -31.427488
  endloop
 endfacet
 facet normal -0.923861 -0.382719 -0.002597
  outer loop
   vertex -53.671062 -1255.786621 -31.427488
   vertex -53.741474 -1255.609863 -32.427689
   vertex -53.668251 -1255.786621 -32.427483
  endloop
 endfacet
 facet normal -0.923861 -0.382719 -0.002597
  outer loop
   vertex -53.744286 -1255.609863 -31.427694
   vertex -53.741474 -1255.609863 -32.427689
   vertex -53.671062 -1255.786621 -31.427488
  endloop
 endfacet
 facet normal -0.923861 0.382719 -0.002597
  outer loop
   vertex -53.668251 -1255.433105 -32.427483
   vertex -53.741474 -1255.609863 -32.427689
   vertex -53.744286 -1255.609863 -31.427694
  endloop
 endfacet
 facet normal -0.923861 0.382719 -0.002597
  outer loop
   vertex -53.744286 -1255.609863 -31.427694
   vertex -53.671062 -1255.433105 -31.427488
   vertex -53.668251 -1255.433105 -32.427483
  endloop
 endfacet
 facet normal -0.382765 0.923845 -0.001076
  outer loop
   vertex -53.668251 -1255.433105 -32.427483
   vertex -53.671062 -1255.433105 -31.427488
   vertex -53.491474 -1255.359863 -32.426987
  endloop
 endfacet
 facet normal -0.382765 0.923845 -0.001076
  outer loop
   vertex -53.491474 -1255.359863 -32.426987
   vertex -53.671062 -1255.433105 -31.427488
   vertex -53.494286 -1255.359863 -31.426991
  endloop
 endfacet
 facet normal 0.382765 0.923845 0.001076
  outer loop
   vertex -53.494286 -1255.359863 -31.426991
   vertex -53.314697 -1255.433105 -32.426491
   vertex -53.491474 -1255.359863 -32.426987
  endloop
 endfacet
 facet normal 0.382765 0.923845 0.001076
  outer loop
   vertex -53.317509 -1255.433105 -31.426495
   vertex -53.314697 -1255.433105 -32.426491
   vertex -53.494286 -1255.359863 -31.426991
  endloop
 endfacet
 facet normal 0.923861 0.382719 0.002597
  outer loop
   vertex -53.241474 -1255.609863 -32.426285
   vertex -53.314697 -1255.433105 -32.426491
   vertex -53.317509 -1255.433105 -31.426495
  endloop
 endfacet
 facet normal 0.923861 0.382719 0.002597
  outer loop
   vertex -53.317509 -1255.433105 -31.426495
   vertex -53.244286 -1255.609863 -31.426289
   vertex -53.241474 -1255.609863 -32.426285
  endloop
 endfacet
 facet normal 0.923861 -0.382719 0.002597
  outer loop
   vertex -53.241474 -1255.609863 -32.426285
   vertex -53.244286 -1255.609863 -31.426289
   vertex -53.314697 -1255.786621 -32.426491
  endloop
 endfacet
 facet normal 0.923861 -0.382719 0.002597
  outer loop
   vertex -53.314697 -1255.786621 -32.426491
   vertex -53.244286 -1255.609863 -31.426289
   vertex -53.317509 -1255.786621 -31.426495
  endloop
 endfacet
 facet normal 0.382765 -0.923845 0.001076
  outer loop
   vertex -53.317509 -1255.786621 -31.426495
   vertex -53.491474 -1255.859863 -32.426987
   vertex -53.314697 -1255.786621 -32.426491
  endloop
 endfacet
 facet normal 0.382765 -0.923845 0.001076
  outer loop
   vertex -53.494286 -1255.859863 -31.426991
   vertex -53.491474 -1255.859863 -32.426987
   vertex -53.317509 -1255.786621 -31.426495
  endloop
 endfacet
 facet normal 0.382628 -0.923902 0.001077
  outer loop
   vertex -52.789963 -1256.317017 -30.435045
   vertex -52.792778 -1256.317017 -29.435049
   vertex -53.497070 -1256.609863 -30.437033
  endloop
 endfacet
 facet normal 0.382630 -0.923901 0.001076
  outer loop
   vertex -53.497070 -1256.609863 -30.437033
   vertex -52.792778 -1256.317017 -29.435049
   vertex -53.499882 -1256.609863 -29.437037
  endloop
 endfacet
 facet normal -0.382630 -0.923901 -0.001076
  outer loop
   vertex -53.499882 -1256.609863 -29.437037
   vertex -54.204174 -1256.317017 -30.439020
   vertex -53.497070 -1256.609863 -30.437033
  endloop
 endfacet
 facet normal -0.382630 -0.923901 -0.001076
  outer loop
   vertex -54.206985 -1256.317017 -29.439026
   vertex -54.204174 -1256.317017 -30.439020
   vertex -53.499882 -1256.609863 -29.437037
  endloop
 endfacet
 facet normal -0.923885 -0.382662 -0.002597
  outer loop
   vertex -54.497066 -1255.609863 -30.439844
   vertex -54.204174 -1256.317017 -30.439020
   vertex -54.206985 -1256.317017 -29.439026
  endloop
 endfacet
 facet normal -0.923885 -0.382662 -0.002597
  outer loop
   vertex -54.206985 -1256.317017 -29.439026
   vertex -54.499878 -1255.609863 -29.439848
   vertex -54.497066 -1255.609863 -30.439844
  endloop
 endfacet
 facet normal -0.923885 0.382662 -0.002597
  outer loop
   vertex -54.497066 -1255.609863 -30.439844
   vertex -54.499878 -1255.609863 -29.439848
   vertex -54.204174 -1254.902710 -30.439020
  endloop
 endfacet
 facet normal -0.923885 0.382662 -0.002597
  outer loop
   vertex -54.204174 -1254.902710 -30.439020
   vertex -54.499878 -1255.609863 -29.439848
   vertex -54.206985 -1254.902710 -29.439024
  endloop
 endfacet
 facet normal -0.382630 0.923901 -0.001076
  outer loop
   vertex -54.206985 -1254.902710 -29.439024
   vertex -53.497070 -1254.609863 -30.437033
   vertex -54.204174 -1254.902710 -30.439020
  endloop
 endfacet
 facet normal -0.382630 0.923901 -0.001076
  outer loop
   vertex -53.499882 -1254.609863 -29.437037
   vertex -53.497070 -1254.609863 -30.437033
   vertex -54.206985 -1254.902710 -29.439024
  endloop
 endfacet
 facet normal 0.382628 0.923902 0.001076
  outer loop
   vertex -52.789963 -1254.902710 -30.435045
   vertex -53.497070 -1254.609863 -30.437033
   vertex -53.499882 -1254.609863 -29.437037
  endloop
 endfacet
 facet normal 0.382766 0.923845 0.001190
  outer loop
   vertex -53.499882 -1254.609863 -29.437037
   vertex -52.792778 -1254.902832 -29.435049
   vertex -52.789963 -1254.902710 -30.435045
  endloop
 endfacet
 facet normal 0.923886 0.382658 0.002648
  outer loop
   vertex -52.789963 -1254.902710 -30.435045
   vertex -52.792778 -1254.902832 -29.435049
   vertex -52.497074 -1255.609863 -30.434221
  endloop
 endfacet
 facet normal 0.923861 0.382719 0.002597
  outer loop
   vertex -52.497074 -1255.609863 -30.434221
   vertex -52.792778 -1254.902832 -29.435049
   vertex -52.499886 -1255.609863 -29.434225
  endloop
 endfacet
 facet normal 0.923886 -0.382658 0.002597
  outer loop
   vertex -52.499886 -1255.609863 -29.434225
   vertex -52.789963 -1256.317017 -30.435045
   vertex -52.497074 -1255.609863 -30.434221
  endloop
 endfacet
 facet normal 0.923885 -0.382662 0.002601
  outer loop
   vertex -52.792778 -1256.317017 -29.435049
   vertex -52.789963 -1256.317017 -30.435045
   vertex -52.499886 -1255.609863 -29.434225
  endloop
 endfacet
endsolid