solid stl file generated from DOUG
 facet normal -0.591537 0.000000 -0.806278
  outer loop
   vertex -58.496006 -1126.624756 -21.108763
   vertex -58.605812 -1126.624756 -21.028202
   vertex -58.605808 -1117.375244 -21.028202
  endloop
 endfacet
 facet normal -0.999996 0.000000 -0.002821
  outer loop
   vertex -58.605808 -1117.375244 -21.028202
   vertex -58.605812 -1126.624756 -21.028202
   vertex -58.606098 -1117.375244 -20.925446
  endloop
 endfacet
 facet normal -0.596058 0.000000 0.802941
  outer loop
   vertex -58.492897 -1117.375244 -22.213293
   vertex -58.602249 -1117.375244 -22.294470
   vertex -58.602253 -1126.624756 -22.294472
  endloop
 endfacet
 facet normal -0.999996 0.000000 -0.002821
  outer loop
   vertex -58.602253 -1126.624756 -22.294472
   vertex -58.602249 -1117.375244 -22.294470
   vertex -58.601959 -1117.375244 -22.397226
  endloop
 endfacet
 facet normal -0.999996 0.000000 -0.002821
  outer loop
   vertex -58.601959 -1117.375244 -22.397226
   vertex -58.601963 -1126.624756 -22.397226
   vertex -58.602253 -1126.624756 -22.294472
  endloop
 endfacet
 facet normal -0.932424 0.000000 -0.361366
  outer loop
   vertex -57.869236 -1117.375244 -22.395164
   vertex -57.869240 -1126.624756 -22.395166
   vertex -57.881401 -1117.375244 -22.363775
  endloop
 endfacet
 facet normal -0.932424 0.000000 -0.361366
  outer loop
   vertex -57.881401 -1117.375244 -22.363775
   vertex -57.869240 -1126.624756 -22.395166
   vertex -57.881405 -1126.624756 -22.363777
  endloop
 endfacet
 facet normal 0.002812 0.000000 -0.999996
  outer loop
   vertex -57.881405 -1126.624756 -22.363777
   vertex -58.456558 -1126.624756 -22.365395
   vertex -57.881401 -1117.375244 -22.363775
  endloop
 endfacet
 facet normal -0.591528 0.000000 -0.806285
  outer loop
   vertex -58.605808 -1117.375244 -21.028202
   vertex -58.496002 -1117.375244 -21.108761
   vertex -58.496006 -1126.624756 -21.108763
  endloop
 endfacet
 facet normal -0.999996 0.000000 -0.002811
  outer loop
   vertex -58.496006 -1126.624756 -21.108763
   vertex -58.496002 -1117.375244 -21.108761
   vertex -58.492897 -1117.375244 -22.213293
  endloop
 endfacet
 facet normal -0.999996 0.000000 -0.002811
  outer loop
   vertex -58.492897 -1117.375244 -22.213293
   vertex -58.492901 -1126.624756 -22.213295
   vertex -58.496006 -1126.624756 -21.108763
  endloop
 endfacet
 facet normal -0.596058 0.000000 0.802941
  outer loop
   vertex -58.602253 -1126.624756 -22.294472
   vertex -58.492901 -1126.624756 -22.213295
   vertex -58.492897 -1117.375244 -22.213293
  endloop
 endfacet
 facet normal 0.002802 -0.000000 -0.999996
  outer loop
   vertex -58.601963 -1126.624756 -22.397226
   vertex -58.601959 -1117.375244 -22.397226
   vertex -58.468548 -1126.624756 -22.396852
  endloop
 endfacet
 facet normal 0.002816 0.000000 -0.999996
  outer loop
   vertex -58.468548 -1126.624756 -22.396852
   vertex -58.601959 -1117.375244 -22.397226
   vertex -58.468544 -1117.375244 -22.396851
  endloop
 endfacet
 facet normal 0.934432 -0.000000 -0.356141
  outer loop
   vertex -58.468544 -1117.375244 -22.396851
   vertex -58.456558 -1126.624756 -22.365395
   vertex -58.468548 -1126.624756 -22.396852
  endloop
 endfacet
 facet normal 0.934432 -0.000000 -0.356141
  outer loop
   vertex -58.456554 -1117.375244 -22.365393
   vertex -58.456558 -1126.624756 -22.365395
   vertex -58.468544 -1117.375244 -22.396851
  endloop
 endfacet
 facet normal 0.002812 0.000000 -0.999996
  outer loop
   vertex -57.881401 -1117.375244 -22.363775
   vertex -58.456558 -1126.624756 -22.365395
   vertex -58.456554 -1117.375244 -22.365393
  endloop
 endfacet
 facet normal 0.000000 1.000000 0.000000
  outer loop
   vertex -58.624855 -1116.836914 -20.908457
   vertex -57.780121 -1116.836914 -22.411957
   vertex -58.620621 -1116.836914 -22.414320
  endloop
 endfacet
 facet normal 0.002812 -0.000000 -0.999996
  outer loop
   vertex -58.620621 -1116.836914 -22.414320
   vertex -57.780121 -1116.836914 -22.411957
   vertex -58.620621 -1117.836914 -22.414320
  endloop
 endfacet
 facet normal -0.999996 0.000000 -0.002812
  outer loop
   vertex -58.620621 -1117.836914 -22.414320
   vertex -58.624855 -1117.836914 -20.908457
   vertex -58.620621 -1116.836914 -22.414320
  endloop
 endfacet
 facet normal -0.000000 -1.000000 -0.000000
  outer loop
   vertex -57.780121 -1117.836914 -22.411957
   vertex -58.624855 -1117.836914 -20.908457
   vertex -58.620621 -1117.836914 -22.414320
  endloop
 endfacet
 facet normal 0.000000 -1.000000 0.000000
  outer loop
   vertex -57.784355 -1117.836914 -20.906094
   vertex -58.624855 -1117.836914 -20.908457
   vertex -57.780121 -1117.836914 -22.411957
  endloop
 endfacet
 facet normal 0.999996 0.000000 0.002812
  outer loop
   vertex -57.780121 -1117.836914 -22.411957
   vertex -57.780121 -1116.836914 -22.411957
   vertex -57.784355 -1117.836914 -20.906094
  endloop
 endfacet
 facet normal 0.999996 0.000000 0.002812
  outer loop
   vertex -57.784355 -1117.836914 -20.906094
   vertex -57.780121 -1116.836914 -22.411957
   vertex -57.784355 -1116.836914 -20.906094
  endloop
 endfacet
 facet normal -0.000000 1.000000 -0.000000
  outer loop
   vertex -57.784355 -1116.836914 -20.906094
   vertex -57.780121 -1116.836914 -22.411957
   vertex -58.624855 -1116.836914 -20.908457
  endloop
 endfacet
 facet normal -0.002812 0.000000 0.999996
  outer loop
   vertex -58.624855 -1116.836914 -20.908457
   vertex -58.624855 -1117.836914 -20.908457
   vertex -57.784355 -1116.836914 -20.906094
  endloop
 endfacet
 facet normal -0.999996 0.000000 -0.002812
  outer loop
   vertex -58.620621 -1116.836914 -22.414320
   vertex -58.624855 -1117.836914 -20.908457
   vertex -58.624855 -1116.836914 -20.908457
  endloop
 endfacet
 facet normal 0.000000 1.000000 0.000000
  outer loop
   vertex -58.620625 -1126.163086 -22.414320
   vertex -58.624859 -1126.163086 -20.908459
   vertex -57.780125 -1126.163086 -22.411957
  endloop
 endfacet
 facet normal -0.000000 1.000000 -0.000000
  outer loop
   vertex -57.780125 -1126.163086 -22.411957
   vertex -58.624859 -1126.163086 -20.908459
   vertex -57.784359 -1126.163086 -20.906096
  endloop
 endfacet
 facet normal 0.999996 -0.000000 0.002812
  outer loop
   vertex -57.784359 -1126.163086 -20.906096
   vertex -57.784359 -1127.163086 -20.906096
   vertex -57.780125 -1126.163086 -22.411957
  endloop
 endfacet
 facet normal -0.002812 -0.000000 0.999996
  outer loop
   vertex -58.624859 -1126.163086 -20.908459
   vertex -57.784359 -1127.163086 -20.906096
   vertex -57.784359 -1126.163086 -20.906096
  endloop
 endfacet
 facet normal -0.002812 0.000000 0.999996
  outer loop
   vertex -58.624859 -1127.163086 -20.908459
   vertex -57.784359 -1127.163086 -20.906096
   vertex -58.624859 -1126.163086 -20.908459
  endloop
 endfacet
 facet normal -0.999996 -0.000000 -0.002812
  outer loop
   vertex -58.624859 -1126.163086 -20.908459
   vertex -58.620625 -1127.163086 -22.414320
   vertex -58.624859 -1127.163086 -20.908459
  endloop
 endfacet
 facet normal 0.000000 -1.000000 0.000000
  outer loop
   vertex -58.624859 -1127.163086 -20.908459
   vertex -58.620625 -1127.163086 -22.414320
   vertex -57.784359 -1127.163086 -20.906096
  endloop
 endfacet
 facet normal -0.000000 -1.000000 -0.000000
  outer loop
   vertex -57.784359 -1127.163086 -20.906096
   vertex -58.620625 -1127.163086 -22.414320
   vertex -57.780125 -1127.163086 -22.411957
  endloop
 endfacet
 facet normal 0.999996 0.000000 0.002812
  outer loop
   vertex -57.780125 -1127.163086 -22.411957
   vertex -57.780125 -1126.163086 -22.411957
   vertex -57.784359 -1127.163086 -20.906096
  endloop
 endfacet
 facet normal 0.002812 -0.000000 -0.999996
  outer loop
   vertex -58.620625 -1127.163086 -22.414320
   vertex -57.780125 -1126.163086 -22.411957
   vertex -57.780125 -1127.163086 -22.411957
  endloop
 endfacet
 facet normal 0.002812 0.000000 -0.999996
  outer loop
   vertex -58.620625 -1126.163086 -22.414320
   vertex -57.780125 -1126.163086 -22.411957
   vertex -58.620625 -1127.163086 -22.414320
  endloop
 endfacet
 facet normal -0.999996 -0.000000 -0.002812
  outer loop
   vertex -58.620625 -1127.163086 -22.414320
   vertex -58.624859 -1126.163086 -20.908459
   vertex -58.620625 -1126.163086 -22.414320
  endloop
 endfacet
 facet normal -0.999996 0.000000 -0.002821
  outer loop
   vertex -58.605812 -1126.624756 -21.028202
   vertex -58.606102 -1126.624756 -20.925447
   vertex -58.606098 -1117.375244 -20.925446
  endloop
 endfacet
 facet normal -0.002816 -0.000000 0.999996
  outer loop
   vertex -58.606098 -1117.375244 -20.925446
   vertex -58.606102 -1126.624756 -20.925447
   vertex -58.472683 -1126.624756 -20.925072
  endloop
 endfacet
 facet normal -0.002802 0.000000 0.999996
  outer loop
   vertex -58.472683 -1126.624756 -20.925072
   vertex -58.472679 -1117.375244 -20.925072
   vertex -58.606098 -1117.375244 -20.925446
  endloop
 endfacet
 facet normal 0.932470 -0.000000 0.361248
  outer loop
   vertex -58.460522 -1126.624756 -20.956463
   vertex -58.472679 -1117.375244 -20.925072
   vertex -58.472683 -1126.624756 -20.925072
  endloop
 endfacet
 facet normal 0.932462 -0.000000 0.361267
  outer loop
   vertex -58.460518 -1117.375244 -20.956461
   vertex -58.472679 -1117.375244 -20.925072
   vertex -58.460522 -1126.624756 -20.956463
  endloop
 endfacet
 facet normal -0.002812 -0.000000 0.999996
  outer loop
   vertex -58.460522 -1126.624756 -20.956463
   vertex -57.885368 -1126.624756 -20.954845
   vertex -58.460518 -1117.375244 -20.956461
  endloop
 endfacet
 facet normal -0.002812 -0.000000 0.999996
  outer loop
   vertex -58.460518 -1117.375244 -20.956461
   vertex -57.885368 -1126.624756 -20.954845
   vertex -57.885361 -1117.375244 -20.954844
  endloop
 endfacet
 facet normal -0.934432 0.000001 0.356141
  outer loop
   vertex -57.885361 -1117.375244 -20.954844
   vertex -57.885368 -1126.624756 -20.954845
   vertex -57.873379 -1126.624756 -20.923388
  endloop
 endfacet
 facet normal -0.934470 0.000000 0.356042
  outer loop
   vertex -57.873379 -1126.624756 -20.923388
   vertex -57.873375 -1117.375244 -20.923386
   vertex -57.885361 -1117.375244 -20.954844
  endloop
 endfacet
 facet normal -0.002824 -0.000000 0.999996
  outer loop
   vertex -57.807178 -1126.624756 -20.923201
   vertex -57.873375 -1117.375244 -20.923386
   vertex -57.873379 -1126.624756 -20.923388
  endloop
 endfacet
 facet normal -0.002795 0.000000 0.999996
  outer loop
   vertex -57.807175 -1117.375244 -20.923201
   vertex -57.873375 -1117.375244 -20.923386
   vertex -57.807178 -1126.624756 -20.923201
  endloop
 endfacet
 facet normal 0.999996 -0.000000 0.002812
  outer loop
   vertex -57.807178 -1126.624756 -20.923201
   vertex -57.803040 -1126.624756 -22.394981
   vertex -57.807175 -1117.375244 -20.923201
  endloop
 endfacet
 facet normal 0.999996 -0.000000 0.002812
  outer loop
   vertex -57.807175 -1117.375244 -20.923201
   vertex -57.803040 -1126.624756 -22.394981
   vertex -57.803036 -1117.375244 -22.394979
  endloop
 endfacet
 facet normal 0.002795 0.000000 -0.999996
  outer loop
   vertex -57.803036 -1117.375244 -22.394979
   vertex -57.803040 -1126.624756 -22.394981
   vertex -57.869236 -1117.375244 -22.395164
  endloop
 endfacet
 facet normal 0.002812 0.000000 -0.999996
  outer loop
   vertex -57.780121 -1117.836914 -22.411957
   vertex -58.620621 -1117.836914 -22.414320
   vertex -57.780121 -1116.836914 -22.411957
  endloop
 endfacet
 facet normal -0.002812 0.000000 0.999996
  outer loop
   vertex -58.624855 -1117.836914 -20.908457
   vertex -57.784355 -1117.836914 -20.906094
   vertex -57.784355 -1116.836914 -20.906094
  endloop
 endfacet
 facet normal 0.002795 0.000000 -0.999996
  outer loop
   vertex -57.803040 -1126.624756 -22.394981
   vertex -57.869240 -1126.624756 -22.395166
   vertex -57.869236 -1117.375244 -22.395164
  endloop
 endfacet
 facet normal -0.001076 -0.923845 0.382766
  outer loop
   vertex -55.841713 -1127.675049 -21.653570
   vertex -54.841717 -1127.675049 -21.650759
   vertex -55.843700 -1127.382080 -20.946466
  endloop
 endfacet
 facet normal -0.001076 -0.923845 0.382766
  outer loop
   vertex -55.843700 -1127.382080 -20.946466
   vertex -54.841717 -1127.675049 -21.650759
   vertex -54.843704 -1127.382080 -20.943655
  endloop
 endfacet
 facet normal -0.002597 -0.382719 0.923861
  outer loop
   vertex -54.843704 -1127.382080 -20.943655
   vertex -55.844524 -1126.675049 -20.653574
   vertex -55.843700 -1127.382080 -20.946466
  endloop
 endfacet
 facet normal -0.002597 -0.382719 0.923861
  outer loop
   vertex -54.844528 -1126.675049 -20.650763
   vertex -55.844524 -1126.675049 -20.653574
   vertex -54.843704 -1127.382080 -20.943655
  endloop
 endfacet
 facet normal -0.002597 0.382662 0.923885
  outer loop
   vertex -55.843700 -1125.967896 -20.946466
   vertex -55.844524 -1126.675049 -20.653574
   vertex -54.844528 -1126.675049 -20.650763
  endloop
 endfacet
 facet normal -0.002597 0.382662 0.923885
  outer loop
   vertex -54.844528 -1126.675049 -20.650763
   vertex -54.843704 -1125.967896 -20.943655
   vertex -55.843700 -1125.967896 -20.946466
  endloop
 endfacet
 facet normal -0.001076 0.923901 0.382630
  outer loop
   vertex -55.843700 -1125.967896 -20.946466
   vertex -54.843704 -1125.967896 -20.943655
   vertex -55.841709 -1125.675049 -21.653570
  endloop
 endfacet
 facet normal -0.001076 0.923901 0.382630
  outer loop
   vertex -55.841709 -1125.675049 -21.653570
   vertex -54.843704 -1125.967896 -20.943655
   vertex -54.841713 -1125.675049 -21.650759
  endloop
 endfacet
 facet normal 0.001076 0.923901 -0.382630
  outer loop
   vertex -54.841713 -1125.675049 -21.650759
   vertex -55.839722 -1125.967896 -22.360674
   vertex -55.841709 -1125.675049 -21.653570
  endloop
 endfacet
 facet normal 0.001076 0.923901 -0.382630
  outer loop
   vertex -54.839725 -1125.967896 -22.357862
   vertex -55.839722 -1125.967896 -22.360674
   vertex -54.841713 -1125.675049 -21.650759
  endloop
 endfacet
 facet normal 0.002597 0.382662 -0.923885
  outer loop
   vertex -55.838902 -1126.675049 -22.653566
   vertex -55.839722 -1125.967896 -22.360674
   vertex -54.839725 -1125.967896 -22.357862
  endloop
 endfacet
 facet normal 0.002597 0.382662 -0.923885
  outer loop
   vertex -54.839725 -1125.967896 -22.357862
   vertex -54.838905 -1126.675049 -22.650755
   vertex -55.838902 -1126.675049 -22.653566
  endloop
 endfacet
 facet normal 0.002597 -0.382717 -0.923862
  outer loop
   vertex -55.838902 -1126.675049 -22.653566
   vertex -54.838905 -1126.675049 -22.650755
   vertex -55.839722 -1127.382080 -22.360676
  endloop
 endfacet
 facet normal 0.002597 -0.382717 -0.923862
  outer loop
   vertex -55.839722 -1127.382080 -22.360676
   vertex -54.838905 -1126.675049 -22.650755
   vertex -54.839725 -1127.382080 -22.357864
  endloop
 endfacet
 facet normal 0.001076 -0.923845 -0.382765
  outer loop
   vertex -54.839725 -1127.382080 -22.357864
   vertex -55.841713 -1127.675049 -21.653570
   vertex -55.839722 -1127.382080 -22.360676
  endloop
 endfacet
 facet normal 0.001076 -0.923845 -0.382765
  outer loop
   vertex -54.841717 -1127.675049 -21.650759
   vertex -55.841713 -1127.675049 -21.653570
   vertex -54.839725 -1127.382080 -22.357864
  endloop
 endfacet
 facet normal 0.001076 0.923844 -0.382768
  outer loop
   vertex -56.831169 -1117.148193 -21.833128
   vertex -57.831661 -1117.074951 -21.659164
   vertex -56.831665 -1117.074951 -21.656353
  endloop
 endfacet
 facet normal -0.001076 0.923845 0.382765
  outer loop
   vertex -56.831665 -1117.074951 -21.656353
   vertex -57.831661 -1117.074951 -21.659164
   vertex -57.832157 -1117.148193 -21.482388
  endloop
 endfacet
 facet normal -0.001076 0.923845 0.382765
  outer loop
   vertex -57.832157 -1117.148193 -21.482388
   vertex -56.832161 -1117.148193 -21.479576
   vertex -56.831665 -1117.074951 -21.656353
  endloop
 endfacet
 facet normal -0.002597 0.382719 0.923861
  outer loop
   vertex -57.832363 -1117.324951 -21.409164
   vertex -56.832161 -1117.148193 -21.479576
   vertex -57.832157 -1117.148193 -21.482388
  endloop
 endfacet
 facet normal -0.002597 0.382719 0.923861
  outer loop
   vertex -56.832367 -1117.324951 -21.406353
   vertex -56.832161 -1117.148193 -21.479576
   vertex -57.832363 -1117.324951 -21.409164
  endloop
 endfacet
 facet normal -0.002598 -0.382493 0.923955
  outer loop
   vertex -57.832363 -1117.324951 -21.409164
   vertex -57.832157 -1117.501831 -21.482388
   vertex -56.832367 -1117.324951 -21.406353
  endloop
 endfacet
 facet normal -0.002598 -0.382493 0.923955
  outer loop
   vertex -56.832367 -1117.324951 -21.406353
   vertex -57.832157 -1117.501831 -21.482388
   vertex -56.832161 -1117.501831 -21.479576
  endloop
 endfacet
 facet normal -0.001075 -0.924071 0.382220
  outer loop
   vertex -56.832161 -1117.501831 -21.479576
   vertex -57.832157 -1117.501831 -21.482388
   vertex -57.831661 -1117.574951 -21.659164
  endloop
 endfacet
 facet normal -0.001075 -0.924071 0.382220
  outer loop
   vertex -57.831661 -1117.574951 -21.659164
   vertex -56.831665 -1117.574951 -21.656353
   vertex -56.832161 -1117.501831 -21.479576
  endloop
 endfacet
 facet normal 0.001075 -0.924069 -0.382223
  outer loop
   vertex -57.831165 -1117.501831 -21.835939
   vertex -56.831665 -1117.574951 -21.656353
   vertex -57.831661 -1117.574951 -21.659164
  endloop
 endfacet
 facet normal 0.001075 -0.924069 -0.382223
  outer loop
   vertex -56.831169 -1117.501831 -21.833128
   vertex -56.831665 -1117.574951 -21.656353
   vertex -57.831165 -1117.501831 -21.835939
  endloop
 endfacet
 facet normal 0.002598 -0.382493 -0.923955
  outer loop
   vertex -57.831165 -1117.501831 -21.835939
   vertex -57.830959 -1117.324951 -21.909163
   vertex -56.831169 -1117.501831 -21.833128
  endloop
 endfacet
 facet normal 0.002598 -0.382493 -0.923955
  outer loop
   vertex -56.831169 -1117.501831 -21.833128
   vertex -57.830959 -1117.324951 -21.909163
   vertex -56.830963 -1117.324951 -21.906351
  endloop
 endfacet
 facet normal 0.002597 0.382719 -0.923861
  outer loop
   vertex -56.830963 -1117.324951 -21.906351
   vertex -57.830959 -1117.324951 -21.909163
   vertex -57.831165 -1117.148193 -21.835939
  endloop
 endfacet
 facet normal 0.002597 0.382719 -0.923861
  outer loop
   vertex -57.831165 -1117.148193 -21.835939
   vertex -56.831169 -1117.148193 -21.833128
   vertex -56.830963 -1117.324951 -21.906351
  endloop
 endfacet
 facet normal 0.001076 0.923844 -0.382768
  outer loop
   vertex -57.831661 -1117.074951 -21.659164
   vertex -56.831169 -1117.148193 -21.833128
   vertex -57.831165 -1117.148193 -21.835939
  endloop
 endfacet
 facet normal 0.001076 0.923845 -0.382765
  outer loop
   vertex -54.839722 -1116.617920 -22.357862
   vertex -55.841705 -1116.324951 -21.653568
   vertex -54.841709 -1116.324951 -21.650757
  endloop
 endfacet
 facet normal -0.001076 0.923845 0.382766
  outer loop
   vertex -54.841709 -1116.324951 -21.650757
   vertex -55.841705 -1116.324951 -21.653568
   vertex -55.843697 -1116.617920 -20.946465
  endloop
 endfacet
 facet normal -0.001076 0.923845 0.382766
  outer loop
   vertex -55.843697 -1116.617920 -20.946465
   vertex -54.843700 -1116.617920 -20.943653
   vertex -54.841709 -1116.324951 -21.650757
  endloop
 endfacet
 facet normal -0.002597 0.382719 0.923861
  outer loop
   vertex -55.844521 -1117.324951 -20.653572
   vertex -54.843700 -1116.617920 -20.943653
   vertex -55.843697 -1116.617920 -20.946465
  endloop
 endfacet
 facet normal -0.002597 0.382719 0.923861
  outer loop
   vertex -54.844524 -1117.324951 -20.650761
   vertex -54.843700 -1116.617920 -20.943653
   vertex -55.844521 -1117.324951 -20.653572
  endloop
 endfacet
 facet normal -0.002597 -0.382662 0.923885
  outer loop
   vertex -55.844521 -1117.324951 -20.653572
   vertex -55.843697 -1118.032104 -20.946465
   vertex -54.844524 -1117.324951 -20.650761
  endloop
 endfacet
 facet normal -0.002597 -0.382662 0.923885
  outer loop
   vertex -54.844524 -1117.324951 -20.650761
   vertex -55.843697 -1118.032104 -20.946465
   vertex -54.843700 -1118.032104 -20.943653
  endloop
 endfacet
 facet normal -0.001076 -0.923901 0.382630
  outer loop
   vertex -54.843700 -1118.032104 -20.943653
   vertex -55.843697 -1118.032104 -20.946465
   vertex -55.841709 -1118.324951 -21.653568
  endloop
 endfacet
 facet normal -0.001076 -0.923901 0.382630
  outer loop
   vertex -55.841709 -1118.324951 -21.653568
   vertex -54.841713 -1118.324951 -21.650757
   vertex -54.843700 -1118.032104 -20.943653
  endloop
 endfacet
 facet normal 0.001076 -0.923901 -0.382629
  outer loop
   vertex -55.839718 -1118.032104 -22.360674
   vertex -54.841713 -1118.324951 -21.650757
   vertex -55.841709 -1118.324951 -21.653568
  endloop
 endfacet
 facet normal 0.001076 -0.923901 -0.382630
  outer loop
   vertex -54.839722 -1118.032104 -22.357861
   vertex -54.841713 -1118.324951 -21.650757
   vertex -55.839718 -1118.032104 -22.360674
  endloop
 endfacet
 facet normal 0.002599 -0.382660 -0.923885
  outer loop
   vertex -55.839718 -1118.032104 -22.360674
   vertex -55.838894 -1117.324951 -22.653564
   vertex -54.839722 -1118.032104 -22.357861
  endloop
 endfacet
 facet normal 0.002597 -0.382662 -0.923885
  outer loop
   vertex -54.839722 -1118.032104 -22.357861
   vertex -55.838894 -1117.324951 -22.653564
   vertex -54.838898 -1117.324951 -22.650753
  endloop
 endfacet
 facet normal 0.002597 0.382717 -0.923862
  outer loop
   vertex -54.838898 -1117.324951 -22.650753
   vertex -55.838894 -1117.324951 -22.653564
   vertex -55.839718 -1116.617920 -22.360674
  endloop
 endfacet
 facet normal 0.002597 0.382717 -0.923862
  outer loop
   vertex -55.839718 -1116.617920 -22.360674
   vertex -54.839722 -1116.617920 -22.357862
   vertex -54.838898 -1117.324951 -22.650753
  endloop
 endfacet
 facet normal 0.001076 0.923845 -0.382765
  outer loop
   vertex -55.841705 -1116.324951 -21.653568
   vertex -54.839722 -1116.617920 -22.357862
   vertex -55.839718 -1116.617920 -22.360674
  endloop
 endfacet
 facet normal -0.568643 0.759374 -0.316223
  outer loop
   vertex -55.839718 -1116.617920 -22.360674
   vertex -56.841702 -1117.074951 -21.656382
   vertex -55.841705 -1116.324951 -21.653568
  endloop
 endfacet
 facet normal -0.570414 0.759375 0.313012
  outer loop
   vertex -55.841705 -1116.324951 -21.653568
   vertex -56.841702 -1117.074951 -21.656382
   vertex -56.842201 -1117.148193 -21.479605
  endloop
 endfacet
 facet normal -0.570412 0.759374 0.313019
  outer loop
   vertex -56.842201 -1117.148193 -21.479605
   vertex -55.843697 -1116.617920 -20.946465
   vertex -55.841705 -1116.324951 -21.653568
  endloop
 endfacet
 facet normal -0.571672 0.314582 0.757780
  outer loop
   vertex -56.842407 -1117.324951 -21.406382
   vertex -55.843697 -1116.617920 -20.946465
   vertex -56.842201 -1117.148193 -21.479605
  endloop
 endfacet
 facet normal -0.571672 0.314582 0.757780
  outer loop
   vertex -55.844521 -1117.324951 -20.653572
   vertex -55.843697 -1116.617920 -20.946465
   vertex -56.842407 -1117.324951 -21.406382
  endloop
 endfacet
 facet normal -0.571711 -0.314386 0.757831
  outer loop
   vertex -56.842407 -1117.324951 -21.406382
   vertex -56.842201 -1117.501831 -21.479605
   vertex -55.844521 -1117.324951 -20.653572
  endloop
 endfacet
 facet normal -0.571662 -0.314538 0.757805
  outer loop
   vertex -55.844521 -1117.324951 -20.653572
   vertex -56.842201 -1117.501831 -21.479605
   vertex -55.843697 -1118.032104 -20.946465
  endloop
 endfacet
 facet normal -0.570315 -0.759623 0.312590
  outer loop
   vertex -55.843697 -1118.032104 -20.946465
   vertex -56.842201 -1117.501831 -21.479605
   vertex -56.841702 -1117.574951 -21.656382
  endloop
 endfacet
 facet normal -0.570437 -0.759403 0.312903
  outer loop
   vertex -56.841702 -1117.574951 -21.656382
   vertex -55.841709 -1118.324951 -21.653568
   vertex -55.843697 -1118.032104 -20.946465
  endloop
 endfacet
 facet normal -0.568740 -0.759498 -0.315750
  outer loop
   vertex -56.841206 -1117.501831 -21.833157
   vertex -55.841709 -1118.324951 -21.653568
   vertex -56.841702 -1117.574951 -21.656382
  endloop
 endfacet
 facet normal -0.568620 -0.759434 -0.316120
  outer loop
   vertex -55.839718 -1118.032104 -22.360674
   vertex -55.841709 -1118.324951 -21.653568
   vertex -56.841206 -1117.501831 -21.833157
  endloop
 endfacet
 facet normal -0.567362 -0.314406 -0.761084
  outer loop
   vertex -56.841206 -1117.501831 -21.833157
   vertex -56.841000 -1117.324951 -21.906380
   vertex -55.839718 -1118.032104 -22.360674
  endloop
 endfacet
 facet normal -0.567410 -0.314530 -0.760997
  outer loop
   vertex -55.839718 -1118.032104 -22.360674
   vertex -56.841000 -1117.324951 -21.906380
   vertex -55.838894 -1117.324951 -22.653564
  endloop
 endfacet
 facet normal -0.567400 0.314581 -0.760983
  outer loop
   vertex -55.838894 -1117.324951 -22.653564
   vertex -56.841000 -1117.324951 -21.906380
   vertex -56.841206 -1117.148193 -21.833157
  endloop
 endfacet
 facet normal -0.567401 0.314579 -0.760984
  outer loop
   vertex -56.841206 -1117.148193 -21.833157
   vertex -55.839718 -1116.617920 -22.360674
   vertex -55.838894 -1117.324951 -22.653564
  endloop
 endfacet
 facet normal -0.568643 0.759374 -0.316222
  outer loop
   vertex -56.841702 -1117.074951 -21.656382
   vertex -55.839718 -1116.617920 -22.360674
   vertex -56.841206 -1117.148193 -21.833157
  endloop
 endfacet
 facet normal -0.001076 -0.923845 0.382765
  outer loop
   vertex -57.831665 -1126.925049 -21.659166
   vertex -56.831669 -1126.925049 -21.656355
   vertex -57.832161 -1126.851807 -21.482389
  endloop
 endfacet
 facet normal -0.001076 -0.923845 0.382764
  outer loop
   vertex -57.832161 -1126.851807 -21.482389
   vertex -56.831669 -1126.925049 -21.656355
   vertex -56.832169 -1126.851807 -21.479578
  endloop
 endfacet
 facet normal -0.002597 -0.382719 0.923861
  outer loop
   vertex -56.832169 -1126.851807 -21.479578
   vertex -57.832367 -1126.675049 -21.409166
   vertex -57.832161 -1126.851807 -21.482389
  endloop
 endfacet
 facet normal -0.002597 -0.382719 0.923861
  outer loop
   vertex -56.832371 -1126.675049 -21.406355
   vertex -57.832367 -1126.675049 -21.409166
   vertex -56.832169 -1126.851807 -21.479578
  endloop
 endfacet
 facet normal -0.002598 0.382493 0.923955
  outer loop
   vertex -57.832161 -1126.498169 -21.482389
   vertex -57.832367 -1126.675049 -21.409166
   vertex -56.832371 -1126.675049 -21.406355
  endloop
 endfacet
 facet normal -0.002598 0.382493 0.923955
  outer loop
   vertex -56.832371 -1126.675049 -21.406355
   vertex -56.832165 -1126.498169 -21.479578
   vertex -57.832161 -1126.498169 -21.482389
  endloop
 endfacet
 facet normal -0.001075 0.924071 0.382220
  outer loop
   vertex -57.832161 -1126.498169 -21.482389
   vertex -56.832165 -1126.498169 -21.479578
   vertex -57.831665 -1126.425049 -21.659166
  endloop
 endfacet
 facet normal -0.001075 0.924069 0.382223
  outer loop
   vertex -57.831665 -1126.425049 -21.659166
   vertex -56.832165 -1126.498169 -21.479578
   vertex -56.831669 -1126.425049 -21.656353
  endloop
 endfacet
 facet normal 0.001075 0.924069 -0.382223
  outer loop
   vertex -56.831669 -1126.425049 -21.656353
   vertex -57.831169 -1126.498169 -21.835941
   vertex -57.831665 -1126.425049 -21.659166
  endloop
 endfacet
 facet normal 0.001075 0.924071 -0.382220
  outer loop
   vertex -56.831173 -1126.498169 -21.833130
   vertex -57.831169 -1126.498169 -21.835941
   vertex -56.831669 -1126.425049 -21.656353
  endloop
 endfacet
 facet normal 0.002598 0.382493 -0.923955
  outer loop
   vertex -57.830963 -1126.675049 -21.909164
   vertex -57.831169 -1126.498169 -21.835941
   vertex -56.831173 -1126.498169 -21.833130
  endloop
 endfacet
 facet normal 0.002598 0.382493 -0.923955
  outer loop
   vertex -56.831173 -1126.498169 -21.833130
   vertex -56.830967 -1126.675049 -21.906353
   vertex -57.830963 -1126.675049 -21.909164
  endloop
 endfacet
 facet normal 0.002597 -0.382719 -0.923861
  outer loop
   vertex -57.830963 -1126.675049 -21.909164
   vertex -56.830967 -1126.675049 -21.906353
   vertex -57.831169 -1126.851807 -21.835941
  endloop
 endfacet
 facet normal 0.002597 -0.382719 -0.923861
  outer loop
   vertex -57.831169 -1126.851807 -21.835941
   vertex -56.830967 -1126.675049 -21.906353
   vertex -56.831173 -1126.851807 -21.833130
  endloop
 endfacet
 facet normal 0.001076 -0.923844 -0.382768
  outer loop
   vertex -56.831173 -1126.851807 -21.833130
   vertex -57.831665 -1126.925049 -21.659166
   vertex -57.831169 -1126.851807 -21.835941
  endloop
 endfacet
 facet normal 0.001076 -0.923844 -0.382768
  outer loop
   vertex -56.831669 -1126.925049 -21.656355
   vertex -57.831665 -1126.925049 -21.659166
   vertex -56.831173 -1126.851807 -21.833130
  endloop
 endfacet
 facet normal -0.568644 -0.759370 -0.316230
  outer loop
   vertex -56.841209 -1126.851807 -21.833158
   vertex -55.839722 -1127.382080 -22.360676
   vertex -56.841709 -1126.925049 -21.656382
  endloop
 endfacet
 facet normal -0.568643 -0.759373 -0.316225
  outer loop
   vertex -56.841709 -1126.925049 -21.656382
   vertex -55.839722 -1127.382080 -22.360676
   vertex -55.841713 -1127.675049 -21.653570
  endloop
 endfacet
 facet normal -0.570411 -0.759372 0.313026
  outer loop
   vertex -55.841713 -1127.675049 -21.653570
   vertex -56.842205 -1126.851807 -21.479607
   vertex -56.841709 -1126.925049 -21.656382
  endloop
 endfacet
 facet normal -0.570413 -0.759373 0.313022
  outer loop
   vertex -55.843700 -1127.382080 -20.946466
   vertex -56.842205 -1126.851807 -21.479607
   vertex -55.841713 -1127.675049 -21.653570
  endloop
 endfacet
 facet normal -0.571672 -0.314582 0.757780
  outer loop
   vertex -56.842411 -1126.675049 -21.406384
   vertex -56.842205 -1126.851807 -21.479607
   vertex -55.843700 -1127.382080 -20.946466
  endloop
 endfacet
 facet normal -0.571672 -0.314582 0.757780
  outer loop
   vertex -55.843700 -1127.382080 -20.946466
   vertex -55.844524 -1126.675049 -20.653574
   vertex -56.842411 -1126.675049 -21.406384
  endloop
 endfacet
 facet normal -0.571711 0.314386 0.757831
  outer loop
   vertex -56.842411 -1126.675049 -21.406384
   vertex -55.844524 -1126.675049 -20.653574
   vertex -56.842205 -1126.498169 -21.479607
  endloop
 endfacet
 facet normal -0.571662 0.314538 0.757805
  outer loop
   vertex -56.842205 -1126.498169 -21.479607
   vertex -55.844524 -1126.675049 -20.653574
   vertex -55.843700 -1125.967896 -20.946466
  endloop
 endfacet
 facet normal -0.570316 0.759622 0.312593
  outer loop
   vertex -55.843700 -1125.967896 -20.946466
   vertex -56.841705 -1126.425049 -21.656382
   vertex -56.842205 -1126.498169 -21.479607
  endloop
 endfacet
 facet normal -0.570436 0.759405 0.312901
  outer loop
   vertex -55.841709 -1125.675049 -21.653570
   vertex -56.841705 -1126.425049 -21.656382
   vertex -55.843700 -1125.967896 -20.946466
  endloop
 endfacet
 facet normal -0.568739 0.759500 -0.315747
  outer loop
   vertex -56.841209 -1126.498169 -21.833158
   vertex -56.841705 -1126.425049 -21.656382
   vertex -55.841709 -1125.675049 -21.653570
  endloop
 endfacet
 facet normal -0.568619 0.759435 -0.316118
  outer loop
   vertex -55.841709 -1125.675049 -21.653570
   vertex -55.839722 -1125.967896 -22.360674
   vertex -56.841209 -1126.498169 -21.833158
  endloop
 endfacet
 facet normal -0.567361 0.314406 -0.761085
  outer loop
   vertex -56.841209 -1126.498169 -21.833158
   vertex -55.839722 -1125.967896 -22.360674
   vertex -56.841003 -1126.675049 -21.906382
  endloop
 endfacet
 facet normal -0.567411 0.314535 -0.760995
  outer loop
   vertex -56.841003 -1126.675049 -21.906382
   vertex -55.839722 -1125.967896 -22.360674
   vertex -55.838902 -1126.675049 -22.653566
  endloop
 endfacet
 facet normal -0.567402 -0.314581 -0.760982
  outer loop
   vertex -55.838902 -1126.675049 -22.653566
   vertex -56.841209 -1126.851807 -21.833158
   vertex -56.841003 -1126.675049 -21.906382
  endloop
 endfacet
 facet normal -0.567401 -0.314582 -0.760982
  outer loop
   vertex -55.839722 -1127.382080 -22.360676
   vertex -56.841209 -1126.851807 -21.833158
   vertex -55.838902 -1126.675049 -22.653566
  endloop
 endfacet
endsolid