solid stl file generated from DOUG
 facet normal -0.591537 0.000000 -0.806278
  outer loop
   vertex -59.670918 -1299.515747 -19.392094
   vertex -59.780724 -1299.515747 -19.311533
   vertex -59.780716 -1280.703979 -19.311533
  endloop
 endfacet
 facet normal -0.999996 0.000000 -0.002821
  outer loop
   vertex -59.780716 -1280.703979 -19.311533
   vertex -59.780724 -1299.515747 -19.311533
   vertex -59.781006 -1280.703979 -19.208776
  endloop
 endfacet
 facet normal -0.596058 0.000000 0.802941
  outer loop
   vertex -59.667805 -1280.703979 -20.496624
   vertex -59.777157 -1280.703979 -20.577801
   vertex -59.777161 -1299.515747 -20.577803
  endloop
 endfacet
 facet normal -0.999996 0.000000 -0.002821
  outer loop
   vertex -59.777161 -1299.515747 -20.577803
   vertex -59.777157 -1280.703979 -20.577801
   vertex -59.776867 -1280.703979 -20.680557
  endloop
 endfacet
 facet normal -0.999996 0.000000 -0.002784
  outer loop
   vertex -59.776867 -1280.703979 -20.680557
   vertex -59.776875 -1299.515747 -20.680557
   vertex -59.777161 -1299.515747 -20.577803
  endloop
 endfacet
 facet normal -0.932424 0.000000 -0.361366
  outer loop
   vertex -59.044144 -1280.703979 -20.678495
   vertex -59.044151 -1299.515747 -20.678497
   vertex -59.056309 -1280.703979 -20.647106
  endloop
 endfacet
 facet normal -0.932424 0.000000 -0.361366
  outer loop
   vertex -59.056309 -1280.703979 -20.647106
   vertex -59.044151 -1299.515747 -20.678497
   vertex -59.056316 -1299.515747 -20.647108
  endloop
 endfacet
 facet normal 0.002812 0.000000 -0.999996
  outer loop
   vertex -59.056316 -1299.515747 -20.647108
   vertex -59.631470 -1299.515747 -20.648726
   vertex -59.056309 -1280.703979 -20.647106
  endloop
 endfacet
 facet normal -0.591528 0.000000 -0.806285
  outer loop
   vertex -59.780716 -1280.703979 -19.311533
   vertex -59.670910 -1280.703979 -19.392092
   vertex -59.670918 -1299.515747 -19.392094
  endloop
 endfacet
 facet normal -0.999996 0.000000 -0.002811
  outer loop
   vertex -59.670918 -1299.515747 -19.392094
   vertex -59.670910 -1280.703979 -19.392092
   vertex -59.667805 -1280.703979 -20.496624
  endloop
 endfacet
 facet normal -0.999996 0.000000 -0.002811
  outer loop
   vertex -59.667805 -1280.703979 -20.496624
   vertex -59.667812 -1299.515747 -20.496626
   vertex -59.670918 -1299.515747 -19.392094
  endloop
 endfacet
 facet normal -0.596071 0.000000 0.802932
  outer loop
   vertex -59.777161 -1299.515747 -20.577803
   vertex -59.667812 -1299.515747 -20.496626
   vertex -59.667805 -1280.703979 -20.496624
  endloop
 endfacet
 facet normal 0.002802 -0.000000 -0.999996
  outer loop
   vertex -59.776875 -1299.515747 -20.680557
   vertex -59.776867 -1280.703979 -20.680557
   vertex -59.643456 -1299.515747 -20.680183
  endloop
 endfacet
 facet normal 0.002816 0.000000 -0.999996
  outer loop
   vertex -59.643456 -1299.515747 -20.680183
   vertex -59.776867 -1280.703979 -20.680557
   vertex -59.643448 -1280.703979 -20.680182
  endloop
 endfacet
 facet normal 0.934470 -0.000000 -0.356042
  outer loop
   vertex -59.643448 -1280.703979 -20.680182
   vertex -59.631470 -1299.515747 -20.648726
   vertex -59.643456 -1299.515747 -20.680183
  endloop
 endfacet
 facet normal 0.934470 -0.000000 -0.356042
  outer loop
   vertex -59.631462 -1280.703979 -20.648724
   vertex -59.631470 -1299.515747 -20.648726
   vertex -59.643448 -1280.703979 -20.680182
  endloop
 endfacet
 facet normal 0.002812 0.000000 -0.999996
  outer loop
   vertex -59.056309 -1280.703979 -20.647106
   vertex -59.631470 -1299.515747 -20.648726
   vertex -59.631462 -1280.703979 -20.648724
  endloop
 endfacet
 facet normal 0.000000 1.000000 0.000000
  outer loop
   vertex -59.799759 -1280.227417 -19.191788
   vertex -58.955029 -1280.227417 -20.695288
   vertex -59.795525 -1280.227417 -20.697651
  endloop
 endfacet
 facet normal 0.002812 -0.000000 -0.999996
  outer loop
   vertex -59.795525 -1280.227417 -20.697651
   vertex -58.955029 -1280.227417 -20.695288
   vertex -59.795525 -1281.227417 -20.697651
  endloop
 endfacet
 facet normal -0.999996 0.000000 -0.002812
  outer loop
   vertex -59.795525 -1281.227417 -20.697651
   vertex -59.799759 -1281.227417 -19.191788
   vertex -59.795525 -1280.227417 -20.697651
  endloop
 endfacet
 facet normal -0.000000 -1.000000 -0.000000
  outer loop
   vertex -58.955029 -1281.227417 -20.695288
   vertex -59.799759 -1281.227417 -19.191788
   vertex -59.795525 -1281.227417 -20.697651
  endloop
 endfacet
 facet normal 0.000000 -1.000000 0.000000
  outer loop
   vertex -58.959263 -1281.227417 -19.189425
   vertex -59.799759 -1281.227417 -19.191788
   vertex -58.955029 -1281.227417 -20.695288
  endloop
 endfacet
 facet normal 0.999996 0.000000 0.002812
  outer loop
   vertex -58.955029 -1281.227417 -20.695288
   vertex -58.955029 -1280.227417 -20.695288
   vertex -58.959263 -1281.227417 -19.189425
  endloop
 endfacet
 facet normal 0.999996 0.000000 0.002812
  outer loop
   vertex -58.959263 -1281.227417 -19.189425
   vertex -58.955029 -1280.227417 -20.695288
   vertex -58.959263 -1280.227417 -19.189425
  endloop
 endfacet
 facet normal -0.000000 1.000000 -0.000000
  outer loop
   vertex -58.959263 -1280.227417 -19.189425
   vertex -58.955029 -1280.227417 -20.695288
   vertex -59.799759 -1280.227417 -19.191788
  endloop
 endfacet
 facet normal -0.002812 0.000000 0.999996
  outer loop
   vertex -59.799759 -1280.227417 -19.191788
   vertex -59.799759 -1281.227417 -19.191788
   vertex -58.959263 -1280.227417 -19.189425
  endloop
 endfacet
 facet normal -0.999996 0.000000 -0.002812
  outer loop
   vertex -59.795525 -1280.227417 -20.697651
   vertex -59.799759 -1281.227417 -19.191788
   vertex -59.799759 -1280.227417 -19.191788
  endloop
 endfacet
 facet normal 0.000000 1.000000 0.000000
  outer loop
   vertex -59.795532 -1298.992310 -20.697651
   vertex -59.799767 -1298.992310 -19.191790
   vertex -58.955036 -1298.992310 -20.695288
  endloop
 endfacet
 facet normal -0.000000 1.000000 -0.000000
  outer loop
   vertex -58.955036 -1298.992310 -20.695288
   vertex -59.799767 -1298.992310 -19.191790
   vertex -58.959270 -1298.992310 -19.189426
  endloop
 endfacet
 facet normal 0.999996 -0.000000 0.002812
  outer loop
   vertex -58.959270 -1298.992310 -19.189426
   vertex -58.959270 -1299.992310 -19.189426
   vertex -58.955036 -1298.992310 -20.695288
  endloop
 endfacet
 facet normal -0.002812 -0.000000 0.999996
  outer loop
   vertex -59.799767 -1298.992310 -19.191790
   vertex -58.959270 -1299.992310 -19.189426
   vertex -58.959270 -1298.992310 -19.189426
  endloop
 endfacet
 facet normal -0.002812 0.000000 0.999996
  outer loop
   vertex -59.799767 -1299.992310 -19.191790
   vertex -58.959270 -1299.992310 -19.189426
   vertex -59.799767 -1298.992310 -19.191790
  endloop
 endfacet
 facet normal -0.999996 -0.000000 -0.002812
  outer loop
   vertex -59.799767 -1298.992310 -19.191790
   vertex -59.795532 -1299.992310 -20.697651
   vertex -59.799767 -1299.992310 -19.191790
  endloop
 endfacet
 facet normal 0.000000 -1.000000 0.000000
  outer loop
   vertex -59.799767 -1299.992310 -19.191790
   vertex -59.795532 -1299.992310 -20.697651
   vertex -58.959270 -1299.992310 -19.189426
  endloop
 endfacet
 facet normal -0.000000 -1.000000 -0.000000
  outer loop
   vertex -58.959270 -1299.992310 -19.189426
   vertex -59.795532 -1299.992310 -20.697651
   vertex -58.955036 -1299.992310 -20.695288
  endloop
 endfacet
 facet normal 0.999996 0.000000 0.002812
  outer loop
   vertex -58.955036 -1299.992310 -20.695288
   vertex -58.955036 -1298.992310 -20.695288
   vertex -58.959270 -1299.992310 -19.189426
  endloop
 endfacet
 facet normal 0.002812 -0.000000 -0.999996
  outer loop
   vertex -59.795532 -1299.992310 -20.697651
   vertex -58.955036 -1298.992310 -20.695288
   vertex -58.955036 -1299.992310 -20.695288
  endloop
 endfacet
 facet normal 0.002812 0.000000 -0.999996
  outer loop
   vertex -59.795532 -1298.992310 -20.697651
   vertex -58.955036 -1298.992310 -20.695288
   vertex -59.795532 -1299.992310 -20.697651
  endloop
 endfacet
 facet normal -0.999996 -0.000000 -0.002812
  outer loop
   vertex -59.795532 -1299.992310 -20.697651
   vertex -59.799767 -1298.992310 -19.191790
   vertex -59.795532 -1298.992310 -20.697651
  endloop
 endfacet
 facet normal -0.999996 0.000000 -0.002784
  outer loop
   vertex -59.780724 -1299.515747 -19.311533
   vertex -59.781010 -1299.515747 -19.208778
   vertex -59.781006 -1280.703979 -19.208776
  endloop
 endfacet
 facet normal -0.002816 -0.000000 0.999996
  outer loop
   vertex -59.781006 -1280.703979 -19.208776
   vertex -59.781010 -1299.515747 -19.208778
   vertex -59.647594 -1299.515747 -19.208403
  endloop
 endfacet
 facet normal -0.002802 0.000000 0.999996
  outer loop
   vertex -59.647594 -1299.515747 -19.208403
   vertex -59.647587 -1280.703979 -19.208403
   vertex -59.781006 -1280.703979 -19.208776
  endloop
 endfacet
 facet normal 0.932431 -0.000000 0.361347
  outer loop
   vertex -59.635429 -1299.515747 -19.239794
   vertex -59.647587 -1280.703979 -19.208403
   vertex -59.647594 -1299.515747 -19.208403
  endloop
 endfacet
 facet normal 0.932424 -0.000000 0.361366
  outer loop
   vertex -59.635422 -1280.703979 -19.239792
   vertex -59.647587 -1280.703979 -19.208403
   vertex -59.635429 -1299.515747 -19.239794
  endloop
 endfacet
 facet normal -0.002812 -0.000000 0.999996
  outer loop
   vertex -59.635429 -1299.515747 -19.239794
   vertex -59.060276 -1299.515747 -19.238176
   vertex -59.635422 -1280.703979 -19.239792
  endloop
 endfacet
 facet normal -0.002812 -0.000000 0.999996
  outer loop
   vertex -59.635422 -1280.703979 -19.239792
   vertex -59.060276 -1299.515747 -19.238176
   vertex -59.060268 -1280.703979 -19.238174
  endloop
 endfacet
 facet normal -0.934432 0.000000 0.356141
  outer loop
   vertex -59.060268 -1280.703979 -19.238174
   vertex -59.060276 -1299.515747 -19.238176
   vertex -59.048286 -1299.515747 -19.206718
  endloop
 endfacet
 facet normal -0.934470 0.000000 0.356042
  outer loop
   vertex -59.048286 -1299.515747 -19.206718
   vertex -59.048283 -1280.703979 -19.206717
   vertex -59.060268 -1280.703979 -19.238174
  endloop
 endfacet
 facet normal -0.002824 -0.000000 0.999996
  outer loop
   vertex -58.982090 -1299.515747 -19.206532
   vertex -59.048283 -1280.703979 -19.206717
   vertex -59.048286 -1299.515747 -19.206718
  endloop
 endfacet
 facet normal -0.002795 0.000000 0.999996
  outer loop
   vertex -58.982082 -1280.703979 -19.206532
   vertex -59.048283 -1280.703979 -19.206717
   vertex -58.982090 -1299.515747 -19.206532
  endloop
 endfacet
 facet normal 0.999996 -0.000000 0.002812
  outer loop
   vertex -58.982090 -1299.515747 -19.206532
   vertex -58.977951 -1299.515747 -20.678312
   vertex -58.982082 -1280.703979 -19.206532
  endloop
 endfacet
 facet normal 0.999996 -0.000000 0.002812
  outer loop
   vertex -58.982082 -1280.703979 -19.206532
   vertex -58.977951 -1299.515747 -20.678312
   vertex -58.977943 -1280.703979 -20.678310
  endloop
 endfacet
 facet normal 0.002795 0.000000 -0.999996
  outer loop
   vertex -58.977943 -1280.703979 -20.678310
   vertex -58.977951 -1299.515747 -20.678312
   vertex -59.044144 -1280.703979 -20.678495
  endloop
 endfacet
 facet normal 0.002812 0.000000 -0.999996
  outer loop
   vertex -58.955029 -1281.227417 -20.695288
   vertex -59.795525 -1281.227417 -20.697651
   vertex -58.955029 -1280.227417 -20.695288
  endloop
 endfacet
 facet normal -0.002812 0.000000 0.999996
  outer loop
   vertex -59.799759 -1281.227417 -19.191788
   vertex -58.959263 -1281.227417 -19.189425
   vertex -58.959263 -1280.227417 -19.189425
  endloop
 endfacet
 facet normal 0.002795 0.000000 -0.999996
  outer loop
   vertex -58.977951 -1299.515747 -20.678312
   vertex -59.044151 -1299.515747 -20.678497
   vertex -59.044144 -1280.703979 -20.678495
  endloop
 endfacet
 facet normal -0.570411 -0.759372 0.313026
  outer loop
   vertex -58.016617 -1299.729858 -19.939713
   vertex -57.016621 -1300.479858 -19.936901
   vertex -58.017113 -1299.656616 -19.762938
  endloop
 endfacet
 facet normal -0.570451 -0.759394 0.312899
  outer loop
   vertex -58.017113 -1299.656616 -19.762938
   vertex -57.016621 -1300.479858 -19.936901
   vertex -57.018608 -1300.187012 -19.229797
  endloop
 endfacet
 facet normal -0.571698 -0.314575 0.757763
  outer loop
   vertex -57.018608 -1300.187012 -19.229797
   vertex -58.017319 -1299.479858 -19.689714
   vertex -58.017113 -1299.656616 -19.762938
  endloop
 endfacet
 facet normal -0.571682 -0.314533 0.757792
  outer loop
   vertex -57.019432 -1299.479858 -18.936905
   vertex -58.017319 -1299.479858 -19.689714
   vertex -57.018608 -1300.187012 -19.229797
  endloop
 endfacet
 facet normal -0.571672 0.314582 0.757780
  outer loop
   vertex -58.017113 -1299.303101 -19.762938
   vertex -58.017319 -1299.479858 -19.689714
   vertex -57.019432 -1299.479858 -18.936905
  endloop
 endfacet
 facet normal -0.571688 0.314531 0.757788
  outer loop
   vertex -57.019432 -1299.479858 -18.936905
   vertex -57.018608 -1298.772705 -19.229797
   vertex -58.017113 -1299.303101 -19.762938
  endloop
 endfacet
 facet normal -0.570476 0.759330 0.313009
  outer loop
   vertex -58.017113 -1299.303101 -19.762938
   vertex -57.018608 -1298.772705 -19.229797
   vertex -58.016617 -1299.229858 -19.939713
  endloop
 endfacet
 facet normal -0.570435 0.759404 0.312904
  outer loop
   vertex -58.016617 -1299.229858 -19.939713
   vertex -57.018608 -1298.772705 -19.229797
   vertex -57.016621 -1298.479858 -19.936901
  endloop
 endfacet
 facet normal -0.568644 0.759374 -0.316219
  outer loop
   vertex -57.016621 -1298.479858 -19.936901
   vertex -58.016121 -1299.303101 -20.116489
   vertex -58.016617 -1299.229858 -19.939713
  endloop
 endfacet
 facet normal -0.568682 0.759395 -0.316101
  outer loop
   vertex -57.014633 -1298.772705 -20.644005
   vertex -58.016121 -1299.303101 -20.116489
   vertex -57.016621 -1298.479858 -19.936901
  endloop
 endfacet
 facet normal -0.567426 0.314574 -0.760967
  outer loop
   vertex -58.015915 -1299.479858 -20.189713
   vertex -58.016121 -1299.303101 -20.116489
   vertex -57.014633 -1298.772705 -20.644005
  endloop
 endfacet
 facet normal -0.567410 0.314532 -0.760996
  outer loop
   vertex -57.014633 -1298.772705 -20.644005
   vertex -57.013809 -1299.479858 -20.936897
   vertex -58.015915 -1299.479858 -20.189713
  endloop
 endfacet
 facet normal -0.567400 -0.314581 -0.760983
  outer loop
   vertex -58.015915 -1299.479858 -20.189713
   vertex -57.013809 -1299.479858 -20.936897
   vertex -58.016121 -1299.656616 -20.116489
  endloop
 endfacet
 facet normal -0.567417 -0.314529 -0.760992
  outer loop
   vertex -58.016121 -1299.656616 -20.116489
   vertex -57.013809 -1299.479858 -20.936897
   vertex -57.014633 -1300.187012 -20.644007
  endloop
 endfacet
 facet normal -0.568705 -0.759336 -0.316203
  outer loop
   vertex -57.014633 -1300.187012 -20.644007
   vertex -58.016617 -1299.729858 -19.939713
   vertex -58.016121 -1299.656616 -20.116489
  endloop
 endfacet
 facet normal -0.568667 -0.759405 -0.316105
  outer loop
   vertex -57.016621 -1300.479858 -19.936901
   vertex -58.016617 -1299.729858 -19.939713
   vertex -57.014633 -1300.187012 -20.644007
  endloop
 endfacet
 facet normal -0.001076 -0.923845 0.382765
  outer loop
   vertex -59.006569 -1280.989868 -19.942495
   vertex -58.006573 -1280.989868 -19.939684
   vertex -59.007065 -1280.916626 -19.765718
  endloop
 endfacet
 facet normal -0.001076 -0.923845 0.382765
  outer loop
   vertex -59.007065 -1280.916626 -19.765718
   vertex -58.006573 -1280.989868 -19.939684
   vertex -58.007069 -1280.916626 -19.762907
  endloop
 endfacet
 facet normal -0.002597 -0.382719 0.923861
  outer loop
   vertex -58.007069 -1280.916626 -19.762907
   vertex -59.007271 -1280.739868 -19.692495
   vertex -59.007065 -1280.916626 -19.765718
  endloop
 endfacet
 facet normal -0.002597 -0.382719 0.923861
  outer loop
   vertex -58.007275 -1280.739868 -19.689684
   vertex -59.007271 -1280.739868 -19.692495
   vertex -58.007069 -1280.916626 -19.762907
  endloop
 endfacet
 facet normal -0.002597 0.382719 0.923861
  outer loop
   vertex -59.007065 -1280.563110 -19.765718
   vertex -59.007271 -1280.739868 -19.692495
   vertex -58.007275 -1280.739868 -19.689684
  endloop
 endfacet
 facet normal -0.002597 0.382719 0.923861
  outer loop
   vertex -58.007275 -1280.739868 -19.689684
   vertex -58.007069 -1280.563110 -19.762907
   vertex -59.007065 -1280.563110 -19.765718
  endloop
 endfacet
 facet normal -0.001076 0.923845 0.382765
  outer loop
   vertex -59.007065 -1280.563110 -19.765718
   vertex -58.007069 -1280.563110 -19.762907
   vertex -59.006569 -1280.489868 -19.942495
  endloop
 endfacet
 facet normal -0.001076 0.923845 0.382765
  outer loop
   vertex -59.006569 -1280.489868 -19.942495
   vertex -58.007069 -1280.563110 -19.762907
   vertex -58.006573 -1280.489868 -19.939684
  endloop
 endfacet
 facet normal 0.001076 0.923844 -0.382768
  outer loop
   vertex -58.006573 -1280.489868 -19.939684
   vertex -59.006069 -1280.563110 -20.119270
   vertex -59.006569 -1280.489868 -19.942495
  endloop
 endfacet
 facet normal 0.001076 0.923844 -0.382768
  outer loop
   vertex -58.006073 -1280.563110 -20.116459
   vertex -59.006069 -1280.563110 -20.119270
   vertex -58.006573 -1280.489868 -19.939684
  endloop
 endfacet
 facet normal 0.002597 0.382719 -0.923861
  outer loop
   vertex -59.005863 -1280.739868 -20.192493
   vertex -59.006069 -1280.563110 -20.119270
   vertex -58.006073 -1280.563110 -20.116459
  endloop
 endfacet
 facet normal 0.002597 0.382719 -0.923861
  outer loop
   vertex -58.006073 -1280.563110 -20.116459
   vertex -58.005867 -1280.739868 -20.189682
   vertex -59.005863 -1280.739868 -20.192493
  endloop
 endfacet
 facet normal 0.002597 -0.382719 -0.923861
  outer loop
   vertex -59.005863 -1280.739868 -20.192493
   vertex -58.005867 -1280.739868 -20.189682
   vertex -59.006069 -1280.916626 -20.119270
  endloop
 endfacet
 facet normal 0.002597 -0.382719 -0.923861
  outer loop
   vertex -59.006069 -1280.916626 -20.119270
   vertex -58.005867 -1280.739868 -20.189682
   vertex -58.006073 -1280.916626 -20.116459
  endloop
 endfacet
 facet normal 0.001076 -0.923844 -0.382768
  outer loop
   vertex -58.006073 -1280.916626 -20.116459
   vertex -59.006569 -1280.989868 -19.942495
   vertex -59.006069 -1280.916626 -20.119270
  endloop
 endfacet
 facet normal 0.001076 -0.923844 -0.382768
  outer loop
   vertex -58.006573 -1280.989868 -19.939684
   vertex -59.006569 -1280.989868 -19.942495
   vertex -58.006073 -1280.916626 -20.116459
  endloop
 endfacet
 facet normal -0.001076 -0.923901 0.382630
  outer loop
   vertex -57.016613 -1281.739868 -19.936899
   vertex -56.016617 -1281.739868 -19.934088
   vertex -57.018600 -1281.447021 -19.229795
  endloop
 endfacet
 facet normal -0.001076 -0.923901 0.382630
  outer loop
   vertex -57.018600 -1281.447021 -19.229795
   vertex -56.016617 -1281.739868 -19.934088
   vertex -56.018604 -1281.447021 -19.226984
  endloop
 endfacet
 facet normal -0.002597 -0.382662 0.923885
  outer loop
   vertex -56.018604 -1281.447021 -19.226984
   vertex -57.019424 -1280.739868 -18.936903
   vertex -57.018600 -1281.447021 -19.229795
  endloop
 endfacet
 facet normal -0.002597 -0.382662 0.923885
  outer loop
   vertex -56.019428 -1280.739868 -18.934092
   vertex -57.019424 -1280.739868 -18.936903
   vertex -56.018604 -1281.447021 -19.226984
  endloop
 endfacet
 facet normal -0.002597 0.382662 0.923885
  outer loop
   vertex -57.018600 -1280.032715 -19.229795
   vertex -57.019424 -1280.739868 -18.936903
   vertex -56.019428 -1280.739868 -18.934092
  endloop
 endfacet
 facet normal -0.002597 0.382662 0.923885
  outer loop
   vertex -56.019428 -1280.739868 -18.934092
   vertex -56.018604 -1280.032715 -19.226984
   vertex -57.018600 -1280.032715 -19.229795
  endloop
 endfacet
 facet normal -0.001076 0.923901 0.382630
  outer loop
   vertex -57.018600 -1280.032715 -19.229795
   vertex -56.018604 -1280.032715 -19.226984
   vertex -57.016613 -1279.739868 -19.936899
  endloop
 endfacet
 facet normal -0.001076 0.923901 0.382630
  outer loop
   vertex -57.016613 -1279.739868 -19.936899
   vertex -56.018604 -1280.032715 -19.226984
   vertex -56.016617 -1279.739868 -19.934088
  endloop
 endfacet
 facet normal 0.001076 0.923901 -0.382630
  outer loop
   vertex -56.016617 -1279.739868 -19.934088
   vertex -57.014626 -1280.032715 -20.644003
   vertex -57.016613 -1279.739868 -19.936899
  endloop
 endfacet
 facet normal 0.001076 0.923901 -0.382630
  outer loop
   vertex -56.014629 -1280.032715 -20.641191
   vertex -57.014626 -1280.032715 -20.644003
   vertex -56.016617 -1279.739868 -19.934088
  endloop
 endfacet
 facet normal 0.002597 0.382662 -0.923885
  outer loop
   vertex -57.013802 -1280.739868 -20.936895
   vertex -57.014626 -1280.032715 -20.644003
   vertex -56.014629 -1280.032715 -20.641191
  endloop
 endfacet
 facet normal 0.002597 0.382662 -0.923885
  outer loop
   vertex -56.014629 -1280.032715 -20.641191
   vertex -56.013805 -1280.739868 -20.934084
   vertex -57.013802 -1280.739868 -20.936895
  endloop
 endfacet
 facet normal 0.002597 -0.382660 -0.923885
  outer loop
   vertex -57.013802 -1280.739868 -20.936895
   vertex -56.013805 -1280.739868 -20.934084
   vertex -57.014626 -1281.447021 -20.644005
  endloop
 endfacet
 facet normal 0.002597 -0.382660 -0.923885
  outer loop
   vertex -57.014626 -1281.447021 -20.644005
   vertex -56.013805 -1280.739868 -20.934084
   vertex -56.014629 -1281.447021 -20.641193
  endloop
 endfacet
 facet normal 0.001076 -0.923901 -0.382629
  outer loop
   vertex -56.014629 -1281.447021 -20.641193
   vertex -57.016613 -1281.739868 -19.936899
   vertex -57.014626 -1281.447021 -20.644005
  endloop
 endfacet
 facet normal 0.001076 -0.923901 -0.382629
  outer loop
   vertex -56.016617 -1281.739868 -19.934088
   vertex -57.016613 -1281.739868 -19.936899
   vertex -56.014629 -1281.447021 -20.641193
  endloop
 endfacet
 facet normal -0.570412 -0.759372 0.313023
  outer loop
   vertex -58.016609 -1280.989868 -19.939713
   vertex -57.016613 -1281.739868 -19.936899
   vertex -58.017105 -1280.916626 -19.762936
  endloop
 endfacet
 facet normal -0.570451 -0.759394 0.312899
  outer loop
   vertex -58.017105 -1280.916626 -19.762936
   vertex -57.016613 -1281.739868 -19.936899
   vertex -57.018600 -1281.447021 -19.229795
  endloop
 endfacet
 facet normal -0.571698 -0.314575 0.757763
  outer loop
   vertex -57.018600 -1281.447021 -19.229795
   vertex -58.017311 -1280.739868 -19.689713
   vertex -58.017105 -1280.916626 -19.762936
  endloop
 endfacet
 facet normal -0.571682 -0.314533 0.757792
  outer loop
   vertex -57.019424 -1280.739868 -18.936903
   vertex -58.017311 -1280.739868 -19.689713
   vertex -57.018600 -1281.447021 -19.229795
  endloop
 endfacet
 facet normal -0.571672 0.314582 0.757780
  outer loop
   vertex -58.017105 -1280.563110 -19.762936
   vertex -58.017311 -1280.739868 -19.689713
   vertex -57.019424 -1280.739868 -18.936903
  endloop
 endfacet
 facet normal -0.571688 0.314531 0.757788
  outer loop
   vertex -57.019424 -1280.739868 -18.936903
   vertex -57.018600 -1280.032715 -19.229795
   vertex -58.017105 -1280.563110 -19.762936
  endloop
 endfacet
 facet normal -0.570476 0.759330 0.313009
  outer loop
   vertex -58.017105 -1280.563110 -19.762936
   vertex -57.018600 -1280.032715 -19.229795
   vertex -58.016609 -1280.489868 -19.939711
  endloop
 endfacet
 facet normal -0.570435 0.759404 0.312904
  outer loop
   vertex -58.016609 -1280.489868 -19.939711
   vertex -57.018600 -1280.032715 -19.229795
   vertex -57.016613 -1279.739868 -19.936899
  endloop
 endfacet
 facet normal -0.568644 0.759374 -0.316219
  outer loop
   vertex -57.016613 -1279.739868 -19.936899
   vertex -58.016113 -1280.563110 -20.116488
   vertex -58.016609 -1280.489868 -19.939711
  endloop
 endfacet
 facet normal -0.568682 0.759395 -0.316101
  outer loop
   vertex -57.014626 -1280.032715 -20.644003
   vertex -58.016113 -1280.563110 -20.116488
   vertex -57.016613 -1279.739868 -19.936899
  endloop
 endfacet
 facet normal -0.567426 0.314574 -0.760967
  outer loop
   vertex -58.015907 -1280.739868 -20.189711
   vertex -58.016113 -1280.563110 -20.116488
   vertex -57.014626 -1280.032715 -20.644003
  endloop
 endfacet
 facet normal -0.567410 0.314532 -0.760996
  outer loop
   vertex -57.014626 -1280.032715 -20.644003
   vertex -57.013802 -1280.739868 -20.936895
   vertex -58.015907 -1280.739868 -20.189711
  endloop
 endfacet
 facet normal -0.567400 -0.314581 -0.760983
  outer loop
   vertex -58.015907 -1280.739868 -20.189711
   vertex -57.013802 -1280.739868 -20.936895
   vertex -58.016113 -1280.916626 -20.116488
  endloop
 endfacet
 facet normal -0.567417 -0.314529 -0.760992
  outer loop
   vertex -58.016113 -1280.916626 -20.116488
   vertex -57.013802 -1280.739868 -20.936895
   vertex -57.014626 -1281.447021 -20.644005
  endloop
 endfacet
 facet normal -0.568705 -0.759334 -0.316206
  outer loop
   vertex -57.014626 -1281.447021 -20.644005
   vertex -58.016609 -1280.989868 -19.939713
   vertex -58.016113 -1280.916626 -20.116488
  endloop
 endfacet
 facet normal -0.568667 -0.759405 -0.316105
  outer loop
   vertex -57.016613 -1281.739868 -19.936899
   vertex -58.016609 -1280.989868 -19.939713
   vertex -57.014626 -1281.447021 -20.644005
  endloop
 endfacet
 facet normal -0.001076 -0.923845 0.382765
  outer loop
   vertex -59.006577 -1299.729858 -19.942497
   vertex -58.006580 -1299.729858 -19.939686
   vertex -59.007072 -1299.656616 -19.765720
  endloop
 endfacet
 facet normal -0.001076 -0.923845 0.382765
  outer loop
   vertex -59.007072 -1299.656616 -19.765720
   vertex -58.006580 -1299.729858 -19.939686
   vertex -58.007076 -1299.656616 -19.762909
  endloop
 endfacet
 facet normal -0.002597 -0.382719 0.923861
  outer loop
   vertex -58.007076 -1299.656616 -19.762909
   vertex -59.007278 -1299.479858 -19.692497
   vertex -59.007072 -1299.656616 -19.765720
  endloop
 endfacet
 facet normal -0.002597 -0.382719 0.923861
  outer loop
   vertex -58.007282 -1299.479858 -19.689686
   vertex -59.007278 -1299.479858 -19.692497
   vertex -58.007076 -1299.656616 -19.762909
  endloop
 endfacet
 facet normal -0.002597 0.382719 0.923861
  outer loop
   vertex -59.007072 -1299.303101 -19.765720
   vertex -59.007278 -1299.479858 -19.692497
   vertex -58.007282 -1299.479858 -19.689686
  endloop
 endfacet
 facet normal -0.002597 0.382719 0.923861
  outer loop
   vertex -58.007282 -1299.479858 -19.689686
   vertex -58.007076 -1299.303101 -19.762909
   vertex -59.007072 -1299.303101 -19.765720
  endloop
 endfacet
 facet normal -0.001076 0.923845 0.382765
  outer loop
   vertex -59.007072 -1299.303101 -19.765720
   vertex -58.007076 -1299.303101 -19.762909
   vertex -59.006577 -1299.229858 -19.942497
  endloop
 endfacet
 facet normal -0.001076 0.923845 0.382765
  outer loop
   vertex -59.006577 -1299.229858 -19.942497
   vertex -58.007076 -1299.303101 -19.762909
   vertex -58.006580 -1299.229858 -19.939686
  endloop
 endfacet
 facet normal 0.001076 0.923844 -0.382768
  outer loop
   vertex -58.006580 -1299.229858 -19.939686
   vertex -59.006077 -1299.303101 -20.119272
   vertex -59.006577 -1299.229858 -19.942497
  endloop
 endfacet
 facet normal 0.001076 0.923844 -0.382768
  outer loop
   vertex -58.006081 -1299.303101 -20.116461
   vertex -59.006077 -1299.303101 -20.119272
   vertex -58.006580 -1299.229858 -19.939686
  endloop
 endfacet
 facet normal 0.002597 0.382719 -0.923861
  outer loop
   vertex -59.005871 -1299.479858 -20.192495
   vertex -59.006077 -1299.303101 -20.119272
   vertex -58.006081 -1299.303101 -20.116461
  endloop
 endfacet
 facet normal 0.002597 0.382719 -0.923861
  outer loop
   vertex -58.006081 -1299.303101 -20.116461
   vertex -58.005875 -1299.479858 -20.189684
   vertex -59.005871 -1299.479858 -20.192495
  endloop
 endfacet
 facet normal 0.002597 -0.382719 -0.923861
  outer loop
   vertex -59.005871 -1299.479858 -20.192495
   vertex -58.005875 -1299.479858 -20.189684
   vertex -59.006077 -1299.656616 -20.119272
  endloop
 endfacet
 facet normal 0.002597 -0.382719 -0.923861
  outer loop
   vertex -59.006077 -1299.656616 -20.119272
   vertex -58.005875 -1299.479858 -20.189684
   vertex -58.006081 -1299.656616 -20.116461
  endloop
 endfacet
 facet normal 0.001076 -0.923844 -0.382768
  outer loop
   vertex -58.006081 -1299.656616 -20.116461
   vertex -59.006577 -1299.729858 -19.942497
   vertex -59.006077 -1299.656616 -20.119272
  endloop
 endfacet
 facet normal 0.001076 -0.923844 -0.382768
  outer loop
   vertex -58.006580 -1299.729858 -19.939686
   vertex -59.006577 -1299.729858 -19.942497
   vertex -58.006081 -1299.656616 -20.116461
  endloop
 endfacet
 facet normal 0.001076 -0.923901 -0.382629
  outer loop
   vertex -57.014633 -1300.187012 -20.644007
   vertex -56.014637 -1300.187012 -20.641195
   vertex -57.016621 -1300.479858 -19.936901
  endloop
 endfacet
 facet normal 0.001076 -0.923901 -0.382629
  outer loop
   vertex -57.016621 -1300.479858 -19.936901
   vertex -56.014637 -1300.187012 -20.641195
   vertex -56.016624 -1300.479858 -19.934090
  endloop
 endfacet
 facet normal -0.001076 -0.923901 0.382630
  outer loop
   vertex -56.016624 -1300.479858 -19.934090
   vertex -57.018608 -1300.187012 -19.229797
   vertex -57.016621 -1300.479858 -19.936901
  endloop
 endfacet
 facet normal -0.001076 -0.923901 0.382630
  outer loop
   vertex -56.018612 -1300.187012 -19.226986
   vertex -57.018608 -1300.187012 -19.229797
   vertex -56.016624 -1300.479858 -19.934090
  endloop
 endfacet
 facet normal -0.002597 -0.382662 0.923885
  outer loop
   vertex -57.019432 -1299.479858 -18.936905
   vertex -57.018608 -1300.187012 -19.229797
   vertex -56.018612 -1300.187012 -19.226986
  endloop
 endfacet
 facet normal -0.002597 -0.382662 0.923885
  outer loop
   vertex -56.018612 -1300.187012 -19.226986
   vertex -56.019436 -1299.479858 -18.934093
   vertex -57.019432 -1299.479858 -18.936905
  endloop
 endfacet
 facet normal -0.002597 0.382662 0.923885
  outer loop
   vertex -57.019432 -1299.479858 -18.936905
   vertex -56.019436 -1299.479858 -18.934093
   vertex -57.018608 -1298.772705 -19.229797
  endloop
 endfacet
 facet normal -0.002597 0.382662 0.923885
  outer loop
   vertex -57.018608 -1298.772705 -19.229797
   vertex -56.019436 -1299.479858 -18.934093
   vertex -56.018612 -1298.772705 -19.226986
  endloop
 endfacet
 facet normal -0.001076 0.923901 0.382630
  outer loop
   vertex -56.018612 -1298.772705 -19.226986
   vertex -57.016621 -1298.479858 -19.936901
   vertex -57.018608 -1298.772705 -19.229797
  endloop
 endfacet
 facet normal -0.001076 0.923901 0.382630
  outer loop
   vertex -56.016624 -1298.479858 -19.934090
   vertex -57.016621 -1298.479858 -19.936901
   vertex -56.018612 -1298.772705 -19.226986
  endloop
 endfacet
 facet normal 0.001076 0.923901 -0.382630
  outer loop
   vertex -57.014633 -1298.772705 -20.644005
   vertex -57.016621 -1298.479858 -19.936901
   vertex -56.016624 -1298.479858 -19.934090
  endloop
 endfacet
 facet normal 0.001076 0.923901 -0.382630
  outer loop
   vertex -56.016624 -1298.479858 -19.934090
   vertex -56.014637 -1298.772705 -20.641193
   vertex -57.014633 -1298.772705 -20.644005
  endloop
 endfacet
 facet normal 0.002597 0.382662 -0.923885
  outer loop
   vertex -57.014633 -1298.772705 -20.644005
   vertex -56.014637 -1298.772705 -20.641193
   vertex -57.013809 -1299.479858 -20.936897
  endloop
 endfacet
 facet normal 0.002597 0.382662 -0.923885
  outer loop
   vertex -57.013809 -1299.479858 -20.936897
   vertex -56.014637 -1298.772705 -20.641193
   vertex -56.013813 -1299.479858 -20.934086
  endloop
 endfacet
 facet normal 0.002597 -0.382660 -0.923885
  outer loop
   vertex -56.013813 -1299.479858 -20.934086
   vertex -57.014633 -1300.187012 -20.644007
   vertex -57.013809 -1299.479858 -20.936897
  endloop
 endfacet
 facet normal 0.002597 -0.382660 -0.923885
  outer loop
   vertex -56.014637 -1300.187012 -20.641195
   vertex -57.014633 -1300.187012 -20.644007
   vertex -56.013813 -1299.479858 -20.934086
  endloop
 endfacet
endsolid