solid stl file generated from DOUG
 facet normal -0.591536 0.000518 -0.806278
  outer loop
   vertex -58.465351 -1720.093628 -21.108746
   vertex -58.575157 -1720.093506 -21.028185
   vertex -58.567081 -1710.843994 -21.028162
  endloop
 endfacet
 facet normal -0.999996 0.000873 -0.002821
  outer loop
   vertex -58.567081 -1710.843994 -21.028162
   vertex -58.575157 -1720.093506 -21.028185
   vertex -58.567371 -1710.843994 -20.925406
  endloop
 endfacet
 facet normal -0.596057 0.000518 0.802942
  outer loop
   vertex -58.454170 -1710.844116 -22.213253
   vertex -58.563522 -1710.843994 -22.294430
   vertex -58.571598 -1720.093506 -22.294455
  endloop
 endfacet
 facet normal -0.999996 0.000873 -0.002821
  outer loop
   vertex -58.571598 -1720.093506 -22.294455
   vertex -58.563522 -1710.843994 -22.294430
   vertex -58.563232 -1710.843994 -22.397186
  endloop
 endfacet
 facet normal -0.999996 0.000873 -0.002821
  outer loop
   vertex -58.563232 -1710.843994 -22.397186
   vertex -58.571308 -1720.093506 -22.397209
   vertex -58.571598 -1720.093506 -22.294455
  endloop
 endfacet
 facet normal -0.932431 0.000815 -0.361347
  outer loop
   vertex -57.830509 -1710.844604 -22.395126
   vertex -57.838585 -1720.094116 -22.395149
   vertex -57.842674 -1710.844604 -22.363735
  endloop
 endfacet
 facet normal -0.932424 0.000815 -0.361366
  outer loop
   vertex -57.842674 -1710.844604 -22.363735
   vertex -57.838585 -1720.094116 -22.395149
   vertex -57.850750 -1720.094116 -22.363760
  endloop
 endfacet
 facet normal 0.002812 0.000000 -0.999996
  outer loop
   vertex -57.850750 -1720.094116 -22.363760
   vertex -58.425903 -1720.093628 -22.365377
   vertex -57.842674 -1710.844604 -22.363735
  endloop
 endfacet
 facet normal -0.591527 0.000519 -0.806285
  outer loop
   vertex -58.567081 -1710.843994 -21.028162
   vertex -58.457275 -1710.844116 -21.108721
   vertex -58.465351 -1720.093628 -21.108746
  endloop
 endfacet
 facet normal -0.999996 0.000873 -0.002811
  outer loop
   vertex -58.465351 -1720.093628 -21.108746
   vertex -58.457275 -1710.844116 -21.108721
   vertex -58.454170 -1710.844116 -22.213253
  endloop
 endfacet
 facet normal -0.999996 0.000873 -0.002811
  outer loop
   vertex -58.454170 -1710.844116 -22.213253
   vertex -58.462246 -1720.093628 -22.213278
   vertex -58.465351 -1720.093628 -21.108746
  endloop
 endfacet
 facet normal -0.596057 0.000518 0.802942
  outer loop
   vertex -58.571598 -1720.093506 -22.294455
   vertex -58.462246 -1720.093628 -22.213278
   vertex -58.454170 -1710.844116 -22.213253
  endloop
 endfacet
 facet normal 0.002802 0.000000 -0.999996
  outer loop
   vertex -58.571308 -1720.093506 -22.397209
   vertex -58.563232 -1710.843994 -22.397186
   vertex -58.437893 -1720.093628 -22.396835
  endloop
 endfacet
 facet normal 0.002816 0.000000 -0.999996
  outer loop
   vertex -58.437893 -1720.093628 -22.396835
   vertex -58.563232 -1710.843994 -22.397186
   vertex -58.429817 -1710.844116 -22.396811
  endloop
 endfacet
 facet normal 0.934432 -0.000815 -0.356141
  outer loop
   vertex -58.429817 -1710.844116 -22.396811
   vertex -58.425903 -1720.093628 -22.365377
   vertex -58.437893 -1720.093628 -22.396835
  endloop
 endfacet
 facet normal 0.934432 -0.000815 -0.356141
  outer loop
   vertex -58.417828 -1710.844116 -22.365353
   vertex -58.425903 -1720.093628 -22.365377
   vertex -58.429817 -1710.844116 -22.396811
  endloop
 endfacet
 facet normal 0.002812 0.000000 -0.999996
  outer loop
   vertex -57.842674 -1710.844604 -22.363735
   vertex -58.425903 -1720.093628 -22.365377
   vertex -58.417828 -1710.844116 -22.365353
  endloop
 endfacet
 facet normal 0.000871 1.000000 0.000002
  outer loop
   vertex -58.585655 -1710.305664 -20.908417
   vertex -57.740925 -1710.306396 -22.411915
   vertex -58.581425 -1710.305664 -22.414278
  endloop
 endfacet
 facet normal 0.002812 -0.000001 -0.999996
  outer loop
   vertex -58.581425 -1710.305664 -22.414278
   vertex -57.740925 -1710.306396 -22.411915
   vertex -58.582294 -1711.305664 -22.414280
  endloop
 endfacet
 facet normal -0.999996 0.000870 -0.002812
  outer loop
   vertex -58.582294 -1711.305664 -22.414280
   vertex -58.586529 -1711.305664 -20.908419
   vertex -58.581425 -1710.305664 -22.414278
  endloop
 endfacet
 facet normal -0.000871 -1.000000 -0.000002
  outer loop
   vertex -57.741798 -1711.306396 -22.411917
   vertex -58.586529 -1711.305664 -20.908419
   vertex -58.582294 -1711.305664 -22.414280
  endloop
 endfacet
 facet normal -0.000871 -1.000000 -0.000002
  outer loop
   vertex -57.746033 -1711.306396 -20.906055
   vertex -58.586529 -1711.305664 -20.908419
   vertex -57.741798 -1711.306396 -22.411917
  endloop
 endfacet
 facet normal 0.999996 -0.000874 0.002812
  outer loop
   vertex -57.741798 -1711.306396 -22.411917
   vertex -57.740925 -1710.306396 -22.411915
   vertex -57.746033 -1711.306396 -20.906055
  endloop
 endfacet
 facet normal 0.999996 -0.000874 0.002812
  outer loop
   vertex -57.746033 -1711.306396 -20.906055
   vertex -57.740925 -1710.306396 -22.411915
   vertex -57.745159 -1710.306396 -20.906054
  endloop
 endfacet
 facet normal 0.000871 1.000000 0.000002
  outer loop
   vertex -57.745159 -1710.306396 -20.906054
   vertex -57.740925 -1710.306396 -22.411915
   vertex -58.585655 -1710.305664 -20.908417
  endloop
 endfacet
 facet normal -0.002812 0.000001 0.999996
  outer loop
   vertex -58.585655 -1710.305664 -20.908417
   vertex -58.586529 -1711.305664 -20.908419
   vertex -57.745159 -1710.306396 -20.906054
  endloop
 endfacet
 facet normal -0.999996 0.000874 -0.002809
  outer loop
   vertex -58.581425 -1710.305664 -22.414278
   vertex -58.586529 -1711.305664 -20.908419
   vertex -58.585655 -1710.305664 -20.908417
  endloop
 endfacet
 facet normal 0.000871 1.000000 0.000002
  outer loop
   vertex -58.589565 -1719.631836 -22.414303
   vertex -58.593800 -1719.631836 -20.908442
   vertex -57.749069 -1719.632568 -22.411940
  endloop
 endfacet
 facet normal 0.000871 1.000000 0.000002
  outer loop
   vertex -57.749069 -1719.632568 -22.411940
   vertex -58.593800 -1719.631836 -20.908442
   vertex -57.753300 -1719.632568 -20.906078
  endloop
 endfacet
 facet normal 0.999996 -0.000874 0.002809
  outer loop
   vertex -57.753300 -1719.632568 -20.906078
   vertex -57.754173 -1720.632568 -20.906080
   vertex -57.749069 -1719.632568 -22.411940
  endloop
 endfacet
 facet normal -0.002812 0.000001 0.999996
  outer loop
   vertex -58.593800 -1719.631836 -20.908442
   vertex -57.754173 -1720.632568 -20.906080
   vertex -57.753300 -1719.632568 -20.906078
  endloop
 endfacet
 facet normal -0.002812 0.000001 0.999996
  outer loop
   vertex -58.594673 -1720.631836 -20.908443
   vertex -57.754173 -1720.632568 -20.906080
   vertex -58.593800 -1719.631836 -20.908442
  endloop
 endfacet
 facet normal -0.999996 0.000874 -0.002812
  outer loop
   vertex -58.593800 -1719.631836 -20.908442
   vertex -58.590439 -1720.631836 -22.414305
   vertex -58.594673 -1720.631836 -20.908443
  endloop
 endfacet
 facet normal -0.000871 -1.000000 -0.000002
  outer loop
   vertex -58.594673 -1720.631836 -20.908443
   vertex -58.590439 -1720.631836 -22.414305
   vertex -57.754173 -1720.632568 -20.906080
  endloop
 endfacet
 facet normal -0.000871 -1.000000 -0.000002
  outer loop
   vertex -57.754173 -1720.632568 -20.906080
   vertex -58.590439 -1720.631836 -22.414305
   vertex -57.749939 -1720.632568 -22.411942
  endloop
 endfacet
 facet normal 0.999996 -0.000870 0.002812
  outer loop
   vertex -57.749939 -1720.632568 -22.411942
   vertex -57.749069 -1719.632568 -22.411940
   vertex -57.754173 -1720.632568 -20.906080
  endloop
 endfacet
 facet normal 0.002812 -0.000001 -0.999996
  outer loop
   vertex -58.590439 -1720.631836 -22.414305
   vertex -57.749069 -1719.632568 -22.411940
   vertex -57.749939 -1720.632568 -22.411942
  endloop
 endfacet
 facet normal 0.002812 -0.000001 -0.999996
  outer loop
   vertex -58.589565 -1719.631836 -22.414303
   vertex -57.749069 -1719.632568 -22.411940
   vertex -58.590439 -1720.631836 -22.414305
  endloop
 endfacet
 facet normal -0.999996 0.000874 -0.002812
  outer loop
   vertex -58.590439 -1720.631836 -22.414305
   vertex -58.593800 -1719.631836 -20.908442
   vertex -58.589565 -1719.631836 -22.414303
  endloop
 endfacet
 facet normal -0.999996 0.000873 -0.002821
  outer loop
   vertex -58.575157 -1720.093506 -21.028185
   vertex -58.575447 -1720.093506 -20.925430
   vertex -58.567371 -1710.843994 -20.925406
  endloop
 endfacet
 facet normal -0.002816 -0.000000 0.999996
  outer loop
   vertex -58.567371 -1710.843994 -20.925406
   vertex -58.575447 -1720.093506 -20.925430
   vertex -58.442028 -1720.093628 -20.925055
  endloop
 endfacet
 facet normal -0.002802 -0.000000 0.999996
  outer loop
   vertex -58.442028 -1720.093628 -20.925055
   vertex -58.433952 -1710.844116 -20.925032
   vertex -58.567371 -1710.843994 -20.925406
  endloop
 endfacet
 facet normal 0.932469 -0.000815 0.361248
  outer loop
   vertex -58.429867 -1720.093628 -20.956446
   vertex -58.433952 -1710.844116 -20.925032
   vertex -58.442028 -1720.093628 -20.925055
  endloop
 endfacet
 facet normal 0.932462 -0.000815 0.361267
  outer loop
   vertex -58.421791 -1710.844116 -20.956421
   vertex -58.433952 -1710.844116 -20.925032
   vertex -58.429867 -1720.093628 -20.956446
  endloop
 endfacet
 facet normal -0.002812 -0.000000 0.999996
  outer loop
   vertex -58.429867 -1720.093628 -20.956446
   vertex -57.854710 -1720.094116 -20.954828
   vertex -58.421791 -1710.844116 -20.956421
  endloop
 endfacet
 facet normal -0.002812 -0.000000 0.999996
  outer loop
   vertex -58.421791 -1710.844116 -20.956421
   vertex -57.854710 -1720.094116 -20.954828
   vertex -57.846638 -1710.844604 -20.954803
  endloop
 endfacet
 facet normal -0.934469 0.000815 0.356042
  outer loop
   vertex -57.846638 -1710.844604 -20.954803
   vertex -57.854710 -1720.094116 -20.954828
   vertex -57.842724 -1720.094116 -20.923370
  endloop
 endfacet
 facet normal -0.934432 0.000815 0.356141
  outer loop
   vertex -57.842724 -1720.094116 -20.923370
   vertex -57.834648 -1710.844604 -20.923346
   vertex -57.846638 -1710.844604 -20.954803
  endloop
 endfacet
 facet normal -0.002824 -0.000000 0.999996
  outer loop
   vertex -57.776524 -1720.094238 -20.923183
   vertex -57.834648 -1710.844604 -20.923346
   vertex -57.842724 -1720.094116 -20.923370
  endloop
 endfacet
 facet normal -0.002795 -0.000000 0.999996
  outer loop
   vertex -57.768448 -1710.844727 -20.923161
   vertex -57.834648 -1710.844604 -20.923346
   vertex -57.776524 -1720.094238 -20.923183
  endloop
 endfacet
 facet normal 0.999996 -0.000873 0.002812
  outer loop
   vertex -57.776524 -1720.094238 -20.923183
   vertex -57.772385 -1720.094238 -22.394964
   vertex -57.768448 -1710.844727 -20.923161
  endloop
 endfacet
 facet normal 0.999996 -0.000873 0.002810
  outer loop
   vertex -57.768448 -1710.844727 -20.923161
   vertex -57.772385 -1720.094238 -22.394964
   vertex -57.764313 -1710.844727 -22.394939
  endloop
 endfacet
 facet normal 0.002824 0.000000 -0.999996
  outer loop
   vertex -57.764313 -1710.844727 -22.394939
   vertex -57.772385 -1720.094238 -22.394964
   vertex -57.830509 -1710.844604 -22.395126
  endloop
 endfacet
 facet normal 0.002812 -0.000001 -0.999996
  outer loop
   vertex -57.741798 -1711.306396 -22.411917
   vertex -58.582294 -1711.305664 -22.414280
   vertex -57.740925 -1710.306396 -22.411915
  endloop
 endfacet
 facet normal -0.002812 0.000001 0.999996
  outer loop
   vertex -58.586529 -1711.305664 -20.908419
   vertex -57.746033 -1711.306396 -20.906055
   vertex -57.745159 -1710.306396 -20.906054
  endloop
 endfacet
 facet normal 0.002795 0.000000 -0.999996
  outer loop
   vertex -57.772385 -1720.094238 -22.394964
   vertex -57.838585 -1720.094116 -22.395149
   vertex -57.830509 -1710.844604 -22.395126
  endloop
 endfacet
 facet normal -0.001978 -0.923901 0.382627
  outer loop
   vertex -55.811974 -1721.146118 -21.653557
   vertex -54.811977 -1721.147095 -21.650745
   vertex -55.813705 -1720.853271 -20.946451
  endloop
 endfacet
 facet normal -0.001866 -0.923844 0.382764
  outer loop
   vertex -55.813705 -1720.853271 -20.946451
   vertex -54.811977 -1721.147095 -21.650745
   vertex -54.813709 -1720.854126 -20.943640
  endloop
 endfacet
 facet normal -0.002924 -0.382662 0.923884
  outer loop
   vertex -54.813709 -1720.854126 -20.943640
   vertex -55.813911 -1720.146118 -20.653557
   vertex -55.813705 -1720.853271 -20.946451
  endloop
 endfacet
 facet normal -0.002971 -0.382719 0.923860
  outer loop
   vertex -54.813915 -1720.147095 -20.650745
   vertex -55.813911 -1720.146118 -20.653557
   vertex -54.813709 -1720.854126 -20.943640
  endloop
 endfacet
 facet normal -0.002224 0.382718 0.923862
  outer loop
   vertex -55.812473 -1719.439087 -20.946447
   vertex -55.813911 -1720.146118 -20.653557
   vertex -54.813915 -1720.147095 -20.650745
  endloop
 endfacet
 facet normal -0.002270 0.382662 0.923886
  outer loop
   vertex -54.813915 -1720.147095 -20.650745
   vertex -54.812477 -1719.439941 -20.943636
   vertex -55.812473 -1719.439087 -20.946447
  endloop
 endfacet
 facet normal -0.000287 0.923844 0.382768
  outer loop
   vertex -55.812473 -1719.439087 -20.946447
   vertex -54.812477 -1719.439941 -20.943636
   vertex -55.810226 -1719.146118 -21.653551
  endloop
 endfacet
 facet normal -0.000173 0.923901 0.382632
  outer loop
   vertex -55.810226 -1719.146118 -21.653551
   vertex -54.812477 -1719.439941 -20.943636
   vertex -54.810230 -1719.147095 -21.650740
  endloop
 endfacet
 facet normal 0.001978 0.923844 -0.382764
  outer loop
   vertex -54.810230 -1719.147095 -21.650740
   vertex -55.808495 -1719.439087 -22.360655
   vertex -55.810226 -1719.146118 -21.653551
  endloop
 endfacet
 facet normal 0.001865 0.923900 -0.382628
  outer loop
   vertex -54.808498 -1719.439941 -22.357843
   vertex -55.808495 -1719.439087 -22.360655
   vertex -54.810230 -1719.147095 -21.650740
  endloop
 endfacet
 facet normal 0.002924 0.382719 -0.923860
  outer loop
   vertex -55.808289 -1720.146118 -22.653549
   vertex -55.808495 -1719.439087 -22.360655
   vertex -54.808498 -1719.439941 -22.357843
  endloop
 endfacet
 facet normal 0.002971 0.382662 -0.923884
  outer loop
   vertex -54.808498 -1719.439941 -22.357843
   vertex -54.808292 -1720.147095 -22.650738
   vertex -55.808289 -1720.146118 -22.653549
  endloop
 endfacet
 facet normal 0.002224 -0.382660 -0.923887
  outer loop
   vertex -55.808289 -1720.146118 -22.653549
   vertex -54.808292 -1720.147095 -22.650738
   vertex -55.809731 -1720.853271 -22.360661
  endloop
 endfacet
 facet normal 0.002270 -0.382716 -0.923863
  outer loop
   vertex -55.809731 -1720.853271 -22.360661
   vertex -54.808292 -1720.147095 -22.650738
   vertex -54.809734 -1720.854126 -22.357849
  endloop
 endfacet
 facet normal 0.000286 -0.923901 -0.382632
  outer loop
   vertex -54.809734 -1720.854126 -22.357849
   vertex -55.811974 -1721.146118 -21.653557
   vertex -55.809731 -1720.853271 -22.360661
  endloop
 endfacet
 facet normal 0.000174 -0.923844 -0.382769
  outer loop
   vertex -54.811977 -1721.147095 -21.650745
   vertex -55.811974 -1721.146118 -21.653557
   vertex -54.809734 -1720.854126 -22.357849
  endloop
 endfacet
 facet normal 0.001866 0.923845 -0.382763
  outer loop
   vertex -56.792244 -1710.618530 -21.833088
   vertex -57.792671 -1710.544434 -21.659124
   vertex -56.792679 -1710.545288 -21.656311
  endloop
 endfacet
 facet normal -0.000287 0.923845 0.382767
  outer loop
   vertex -56.792679 -1710.545288 -21.656311
   vertex -57.792671 -1710.544434 -21.659124
   vertex -57.793236 -1710.617676 -21.482347
  endloop
 endfacet
 facet normal -0.000287 0.923844 0.382770
  outer loop
   vertex -57.793236 -1710.617676 -21.482347
   vertex -56.793240 -1710.618530 -21.479536
   vertex -56.792679 -1710.545288 -21.656311
  endloop
 endfacet
 facet normal -0.002270 0.382720 0.923861
  outer loop
   vertex -57.793594 -1710.794434 -21.409124
   vertex -56.793240 -1710.618530 -21.479536
   vertex -57.793236 -1710.617676 -21.482347
  endloop
 endfacet
 facet normal -0.002270 0.382720 0.923861
  outer loop
   vertex -56.793598 -1710.795288 -21.406313
   vertex -56.793240 -1710.618530 -21.479536
   vertex -57.793594 -1710.794434 -21.409124
  endloop
 endfacet
 facet normal -0.002924 -0.382725 0.923858
  outer loop
   vertex -57.793594 -1710.794434 -21.409124
   vertex -57.793541 -1710.971191 -21.482349
   vertex -56.793598 -1710.795288 -21.406313
  endloop
 endfacet
 facet normal -0.002924 -0.382725 0.923858
  outer loop
   vertex -56.793598 -1710.795288 -21.406313
   vertex -57.793541 -1710.971191 -21.482349
   vertex -56.793549 -1710.972046 -21.479538
  endloop
 endfacet
 facet normal -0.001866 -0.923843 0.382766
  outer loop
   vertex -56.793549 -1710.972046 -21.479538
   vertex -57.793541 -1710.971191 -21.482349
   vertex -57.793110 -1711.044434 -21.659124
  endloop
 endfacet
 facet normal -0.001866 -0.923843 0.382766
  outer loop
   vertex -57.793110 -1711.044434 -21.659124
   vertex -56.793114 -1711.045288 -21.656313
   vertex -56.793549 -1710.972046 -21.479538
  endloop
 endfacet
 facet normal 0.000287 -0.923845 -0.382767
  outer loop
   vertex -57.792549 -1710.971191 -21.835901
   vertex -56.793114 -1711.045288 -21.656313
   vertex -57.793110 -1711.044434 -21.659124
  endloop
 endfacet
 facet normal 0.000287 -0.923845 -0.382767
  outer loop
   vertex -56.792553 -1710.972046 -21.833090
   vertex -56.793114 -1711.045288 -21.656313
   vertex -57.792549 -1710.971191 -21.835901
  endloop
 endfacet
 facet normal 0.002270 -0.382712 -0.923865
  outer loop
   vertex -57.792549 -1710.971191 -21.835901
   vertex -57.792187 -1710.794434 -21.909122
   vertex -56.792553 -1710.972046 -21.833090
  endloop
 endfacet
 facet normal 0.002270 -0.382712 -0.923865
  outer loop
   vertex -56.792553 -1710.972046 -21.833090
   vertex -57.792187 -1710.794434 -21.909122
   vertex -56.792194 -1710.795288 -21.906311
  endloop
 endfacet
 facet normal 0.002924 0.382717 -0.923861
  outer loop
   vertex -56.792194 -1710.795288 -21.906311
   vertex -57.792187 -1710.794434 -21.909122
   vertex -57.792240 -1710.617676 -21.835899
  endloop
 endfacet
 facet normal 0.002924 0.382717 -0.923861
  outer loop
   vertex -57.792240 -1710.617676 -21.835899
   vertex -56.792244 -1710.618530 -21.833088
   vertex -56.792194 -1710.795288 -21.906311
  endloop
 endfacet
 facet normal 0.001866 0.923843 -0.382766
  outer loop
   vertex -57.792671 -1710.544434 -21.659124
   vertex -56.792244 -1710.618530 -21.833088
   vertex -57.792240 -1710.617676 -21.835899
  endloop
 endfacet
 facet normal 0.001866 0.923844 -0.382764
  outer loop
   vertex -54.800335 -1710.089966 -22.357821
   vertex -55.802063 -1709.796143 -21.653526
   vertex -54.802071 -1709.796997 -21.650715
  endloop
 endfacet
 facet normal -0.000287 0.923844 0.382768
  outer loop
   vertex -54.802071 -1709.796997 -21.650715
   vertex -55.802063 -1709.796143 -21.653526
   vertex -55.804310 -1710.089111 -20.946423
  endloop
 endfacet
 facet normal -0.000287 0.923844 0.382768
  outer loop
   vertex -55.804310 -1710.089111 -20.946423
   vertex -54.804314 -1710.089966 -20.943611
   vertex -54.802071 -1709.796997 -21.650715
  endloop
 endfacet
 facet normal -0.002270 0.382716 0.923863
  outer loop
   vertex -55.805748 -1710.796143 -20.653534
   vertex -54.804314 -1710.089966 -20.943611
   vertex -55.804310 -1710.089111 -20.946423
  endloop
 endfacet
 facet normal -0.002270 0.382716 0.923863
  outer loop
   vertex -54.805752 -1710.796997 -20.650723
   vertex -54.804314 -1710.089966 -20.943611
   vertex -55.805748 -1710.796143 -20.653534
  endloop
 endfacet
 facet normal -0.002924 -0.382660 0.923885
  outer loop
   vertex -55.805748 -1710.796143 -20.653534
   vertex -55.805542 -1711.503296 -20.946426
   vertex -54.805752 -1710.796997 -20.650723
  endloop
 endfacet
 facet normal -0.002924 -0.382660 0.923885
  outer loop
   vertex -54.805752 -1710.796997 -20.650723
   vertex -55.805542 -1711.503296 -20.946426
   vertex -54.805546 -1711.504150 -20.943615
  endloop
 endfacet
 facet normal -0.001865 -0.923901 0.382627
  outer loop
   vertex -54.805546 -1711.504150 -20.943615
   vertex -55.805542 -1711.503296 -20.946426
   vertex -55.803810 -1711.796143 -21.653532
  endloop
 endfacet
 facet normal -0.001865 -0.923901 0.382627
  outer loop
   vertex -55.803810 -1711.796143 -21.653532
   vertex -54.803814 -1711.796997 -21.650721
   vertex -54.805546 -1711.504150 -20.943615
  endloop
 endfacet
 facet normal 0.000286 -0.923901 -0.382632
  outer loop
   vertex -55.801567 -1711.503296 -22.360636
   vertex -54.803814 -1711.796997 -21.650721
   vertex -55.803810 -1711.796143 -21.653532
  endloop
 endfacet
 facet normal 0.000286 -0.923901 -0.382632
  outer loop
   vertex -54.801571 -1711.504150 -22.357824
   vertex -54.803814 -1711.796997 -21.650721
   vertex -55.801567 -1711.503296 -22.360636
  endloop
 endfacet
 facet normal 0.002270 -0.382662 -0.923886
  outer loop
   vertex -55.801567 -1711.503296 -22.360636
   vertex -55.800125 -1710.796143 -22.653526
   vertex -54.801571 -1711.504150 -22.357824
  endloop
 endfacet
 facet normal 0.002272 -0.382660 -0.923887
  outer loop
   vertex -54.801571 -1711.504150 -22.357824
   vertex -55.800125 -1710.796143 -22.653526
   vertex -54.800129 -1710.796997 -22.650713
  endloop
 endfacet
 facet normal 0.002926 0.382719 -0.923860
  outer loop
   vertex -54.800129 -1710.796997 -22.650713
   vertex -55.800125 -1710.796143 -22.653526
   vertex -55.800331 -1710.089111 -22.360632
  endloop
 endfacet
 facet normal 0.002924 0.382717 -0.923861
  outer loop
   vertex -55.800331 -1710.089111 -22.360632
   vertex -54.800335 -1710.089966 -22.357821
   vertex -54.800129 -1710.796997 -22.650713
  endloop
 endfacet
 facet normal 0.001866 0.923844 -0.382764
  outer loop
   vertex -55.802063 -1709.796143 -21.653526
   vertex -54.800335 -1710.089966 -22.357821
   vertex -55.800331 -1710.089111 -22.360632
  endloop
 endfacet
 facet normal -0.567989 0.759865 -0.316219
  outer loop
   vertex -55.800331 -1710.089111 -22.360632
   vertex -56.802715 -1710.545288 -21.656340
   vertex -55.802063 -1709.796143 -21.653526
  endloop
 endfacet
 facet normal -0.569758 0.759864 0.313023
  outer loop
   vertex -55.802063 -1709.796143 -21.653526
   vertex -56.802715 -1710.545288 -21.656340
   vertex -56.803276 -1710.618530 -21.479565
  endloop
 endfacet
 facet normal -0.569759 0.759865 0.313018
  outer loop
   vertex -56.803276 -1710.618530 -21.479565
   vertex -55.804310 -1710.089111 -20.946423
   vertex -55.802063 -1709.796143 -21.653526
  endloop
 endfacet
 facet normal -0.571401 0.315074 0.757779
  outer loop
   vertex -56.803635 -1710.795288 -21.406342
   vertex -55.804310 -1710.089111 -20.946423
   vertex -56.803276 -1710.618530 -21.479565
  endloop
 endfacet
 facet normal -0.571401 0.315073 0.757780
  outer loop
   vertex -55.805748 -1710.796143 -20.653534
   vertex -55.804310 -1710.089111 -20.946423
   vertex -56.803635 -1710.795288 -21.406342
  endloop
 endfacet
 facet normal -0.571943 -0.314078 0.757784
  outer loop
   vertex -56.803635 -1710.795288 -21.406342
   vertex -56.803585 -1710.972046 -21.479565
   vertex -55.805748 -1710.796143 -20.653534
  endloop
 endfacet
 facet normal -0.571957 -0.314033 0.757792
  outer loop
   vertex -55.805748 -1710.796143 -20.653534
   vertex -56.803585 -1710.972046 -21.479565
   vertex -55.805542 -1711.503296 -20.946426
  endloop
 endfacet
 facet normal -0.571126 -0.758845 0.313000
  outer loop
   vertex -55.805542 -1711.503296 -20.946426
   vertex -56.803585 -1710.972046 -21.479565
   vertex -56.803150 -1711.045288 -21.656342
  endloop
 endfacet
 facet normal -0.571089 -0.758913 0.312904
  outer loop
   vertex -56.803150 -1711.045288 -21.656342
   vertex -55.803810 -1711.796143 -21.653532
   vertex -55.805542 -1711.503296 -20.946426
  endloop
 endfacet
 facet normal -0.569297 -0.758881 -0.316229
  outer loop
   vertex -56.802589 -1710.972046 -21.833117
   vertex -55.803810 -1711.796143 -21.653532
   vertex -56.803150 -1711.045288 -21.656342
  endloop
 endfacet
 facet normal -0.569337 -0.758903 -0.316105
  outer loop
   vertex -55.801567 -1711.503296 -22.360636
   vertex -55.803810 -1711.796143 -21.653532
   vertex -56.802589 -1710.972046 -21.833117
  endloop
 endfacet
 facet normal -0.567700 -0.314083 -0.760965
  outer loop
   vertex -56.802589 -1710.972046 -21.833117
   vertex -56.802231 -1710.795288 -21.906340
   vertex -55.801567 -1711.503296 -22.360636
  endloop
 endfacet
 facet normal -0.567681 -0.314035 -0.760999
  outer loop
   vertex -55.801567 -1711.503296 -22.360636
   vertex -56.802231 -1710.795288 -21.906340
   vertex -55.800125 -1710.796143 -22.653526
  endloop
 endfacet
 facet normal -0.567129 0.315081 -0.760978
  outer loop
   vertex -55.800125 -1710.796143 -22.653526
   vertex -56.802231 -1710.795288 -21.906340
   vertex -56.802280 -1710.618530 -21.833117
  endloop
 endfacet
 facet normal -0.567131 0.315077 -0.760979
  outer loop
   vertex -56.802280 -1710.618530 -21.833117
   vertex -55.800331 -1710.089111 -22.360632
   vertex -55.800125 -1710.796143 -22.653526
  endloop
 endfacet
 facet normal -0.567991 0.759862 -0.316223
  outer loop
   vertex -56.802715 -1710.545288 -21.656340
   vertex -55.800331 -1710.089111 -22.360632
   vertex -56.802280 -1710.618530 -21.833117
  endloop
 endfacet
 facet normal -0.001866 -0.923845 0.382763
  outer loop
   vertex -57.801273 -1720.394409 -21.659149
   vertex -56.801277 -1720.395264 -21.656338
   vertex -57.801704 -1720.321167 -21.482372
  endloop
 endfacet
 facet normal -0.001866 -0.923845 0.382763
  outer loop
   vertex -57.801704 -1720.321167 -21.482372
   vertex -56.801277 -1720.395264 -21.656338
   vertex -56.801708 -1720.322021 -21.479561
  endloop
 endfacet
 facet normal -0.002924 -0.382717 0.923861
  outer loop
   vertex -56.801708 -1720.322021 -21.479561
   vertex -57.801758 -1720.144409 -21.409149
   vertex -57.801704 -1720.321167 -21.482372
  endloop
 endfacet
 facet normal -0.002924 -0.382717 0.923861
  outer loop
   vertex -56.801762 -1720.145264 -21.406338
   vertex -57.801758 -1720.144409 -21.409149
   vertex -56.801708 -1720.322021 -21.479561
  endloop
 endfacet
 facet normal -0.002270 0.382720 0.923861
  outer loop
   vertex -57.801395 -1719.967651 -21.482372
   vertex -57.801758 -1720.144409 -21.409149
   vertex -56.801762 -1720.145264 -21.406338
  endloop
 endfacet
 facet normal -0.002270 0.382720 0.923861
  outer loop
   vertex -56.801762 -1720.145264 -21.406338
   vertex -56.801403 -1719.968506 -21.479561
   vertex -57.801395 -1719.967651 -21.482372
  endloop
 endfacet
 facet normal -0.000287 0.923844 0.382770
  outer loop
   vertex -57.801395 -1719.967651 -21.482372
   vertex -56.801403 -1719.968506 -21.479561
   vertex -57.800835 -1719.894409 -21.659147
  endloop
 endfacet
 facet normal -0.000287 0.923844 0.382770
  outer loop
   vertex -57.800835 -1719.894409 -21.659147
   vertex -56.801403 -1719.968506 -21.479561
   vertex -56.800842 -1719.895264 -21.656336
  endloop
 endfacet
 facet normal 0.001866 0.923845 -0.382763
  outer loop
   vertex -56.800842 -1719.895264 -21.656336
   vertex -57.800404 -1719.967651 -21.835924
   vertex -57.800835 -1719.894409 -21.659147
  endloop
 endfacet
 facet normal 0.001866 0.923845 -0.382763
  outer loop
   vertex -56.800407 -1719.968506 -21.833113
   vertex -57.800404 -1719.967651 -21.835924
   vertex -56.800842 -1719.895264 -21.656336
  endloop
 endfacet
 facet normal 0.002924 0.382717 -0.923861
  outer loop
   vertex -57.800350 -1720.144409 -21.909147
   vertex -57.800404 -1719.967651 -21.835924
   vertex -56.800407 -1719.968506 -21.833113
  endloop
 endfacet
 facet normal 0.002924 0.382717 -0.923861
  outer loop
   vertex -56.800407 -1719.968506 -21.833113
   vertex -56.800354 -1720.145264 -21.906336
   vertex -57.800350 -1720.144409 -21.909147
  endloop
 endfacet
 facet normal 0.002270 -0.382712 -0.923865
  outer loop
   vertex -57.800350 -1720.144409 -21.909147
   vertex -56.800354 -1720.145264 -21.906336
   vertex -57.800713 -1720.321167 -21.835926
  endloop
 endfacet
 facet normal 0.002272 -0.382720 -0.923861
  outer loop
   vertex -57.800713 -1720.321167 -21.835926
   vertex -56.800354 -1720.145264 -21.906336
   vertex -56.800716 -1720.322021 -21.833113
  endloop
 endfacet
 facet normal 0.000287 -0.923845 -0.382767
  outer loop
   vertex -56.800716 -1720.322021 -21.833113
   vertex -57.801273 -1720.394409 -21.659149
   vertex -57.800713 -1720.321167 -21.835926
  endloop
 endfacet
 facet normal 0.000287 -0.923844 -0.382770
  outer loop
   vertex -56.801277 -1720.395264 -21.656338
   vertex -57.801273 -1720.394409 -21.659149
   vertex -56.800716 -1720.322021 -21.833113
  endloop
 endfacet
 facet normal -0.569360 -0.758841 -0.316212
  outer loop
   vertex -56.810753 -1720.322021 -21.833141
   vertex -55.809731 -1720.853271 -22.360661
   vertex -56.811314 -1720.395264 -21.656366
  endloop
 endfacet
 facet normal -0.569321 -0.758913 -0.316109
  outer loop
   vertex -56.811314 -1720.395264 -21.656366
   vertex -55.809731 -1720.853271 -22.360661
   vertex -55.811974 -1721.146118 -21.653557
  endloop
 endfacet
 facet normal -0.571067 -0.758883 0.313016
  outer loop
   vertex -55.811974 -1721.146118 -21.653557
   vertex -56.811749 -1720.322021 -21.479589
   vertex -56.811314 -1720.395264 -21.656366
  endloop
 endfacet
 facet normal -0.571104 -0.758903 0.312900
  outer loop
   vertex -55.813705 -1720.853271 -20.946451
   vertex -56.811749 -1720.322021 -21.479589
   vertex -55.811974 -1721.146118 -21.653557
  endloop
 endfacet
 facet normal -0.571966 -0.314072 0.757769
  outer loop
   vertex -56.811798 -1720.145264 -21.406366
   vertex -56.811749 -1720.322021 -21.479589
   vertex -55.813705 -1720.853271 -20.946451
  endloop
 endfacet
 facet normal -0.571952 -0.314036 0.757794
  outer loop
   vertex -55.813705 -1720.853271 -20.946451
   vertex -55.813911 -1720.146118 -20.653557
   vertex -56.811798 -1720.145264 -21.406366
  endloop
 endfacet
 facet normal -0.571401 0.315074 0.757779
  outer loop
   vertex -56.811798 -1720.145264 -21.406366
   vertex -55.813911 -1720.146118 -20.653557
   vertex -56.811440 -1719.968506 -21.479589
  endloop
 endfacet
 facet normal -0.571401 0.315075 0.757779
  outer loop
   vertex -56.811440 -1719.968506 -21.479589
   vertex -55.813911 -1720.146118 -20.653557
   vertex -55.812473 -1719.439087 -20.946447
  endloop
 endfacet
 facet normal -0.569760 0.759862 0.313022
  outer loop
   vertex -55.812473 -1719.439087 -20.946447
   vertex -56.810879 -1719.895264 -21.656364
   vertex -56.811440 -1719.968506 -21.479589
  endloop
 endfacet
 facet normal -0.569758 0.759865 0.313018
  outer loop
   vertex -55.810226 -1719.146118 -21.653551
   vertex -56.810879 -1719.895264 -21.656364
   vertex -55.812473 -1719.439087 -20.946447
  endloop
 endfacet
 facet normal -0.567988 0.759863 -0.316224
  outer loop
   vertex -56.810444 -1719.968506 -21.833141
   vertex -56.810879 -1719.895264 -21.656364
   vertex -55.810226 -1719.146118 -21.653551
  endloop
 endfacet
 facet normal -0.567989 0.759864 -0.316220
  outer loop
   vertex -55.810226 -1719.146118 -21.653551
   vertex -55.808495 -1719.439087 -22.360655
   vertex -56.810444 -1719.968506 -21.833141
  endloop
 endfacet
 facet normal -0.567130 0.315081 -0.760978
  outer loop
   vertex -56.810444 -1719.968506 -21.833141
   vertex -55.808495 -1719.439087 -22.360655
   vertex -56.810394 -1720.145264 -21.906364
  endloop
 endfacet
 facet normal -0.567129 0.315078 -0.760980
  outer loop
   vertex -56.810394 -1720.145264 -21.906364
   vertex -55.808495 -1719.439087 -22.360655
   vertex -55.808289 -1720.146118 -22.653549
  endloop
 endfacet
 facet normal -0.567669 -0.314092 -0.760985
  outer loop
   vertex -55.808289 -1720.146118 -22.653549
   vertex -56.810753 -1720.322021 -21.833141
   vertex -56.810394 -1720.145264 -21.906364
  endloop
 endfacet
 facet normal -0.567689 -0.314031 -0.760995
  outer loop
   vertex -55.809731 -1720.853271 -22.360661
   vertex -56.810753 -1720.322021 -21.833141
   vertex -55.808289 -1720.146118 -22.653549
  endloop
 endfacet
endsolid