solid stl file generated from DOUG
 facet normal 0.999999 -0.000872 0.001068
  outer loop
   vertex 54.393963 -1503.117432 -27.338758
   vertex 54.391346 -1506.117432 -27.338766
   vertex 54.395031 -1503.117432 -28.338758
  endloop
 endfacet
 facet normal 0.999999 -0.000874 0.001064
  outer loop
   vertex 54.395031 -1503.117432 -28.338758
   vertex 54.391346 -1506.117432 -27.338766
   vertex 54.392410 -1506.117432 -28.338766
  endloop
 endfacet
 facet normal 0.999994 -0.000869 -0.003468
  outer loop
   vertex 54.432426 -1507.564697 -28.624556
   vertex 54.437767 -1507.564697 -27.084564
   vertex 54.431644 -1508.464722 -28.624573
  endloop
 endfacet
 facet normal 0.999994 -0.000869 -0.003468
  outer loop
   vertex 54.431644 -1508.464722 -28.624573
   vertex 54.437767 -1507.564697 -27.084564
   vertex 54.436985 -1508.464722 -27.084581
  endloop
 endfacet
 facet normal -0.000793 -1.000000 0.000003
  outer loop
   vertex 54.436985 -1508.464722 -27.084581
   vertex 53.666988 -1508.464111 -27.081913
   vertex 54.431644 -1508.464722 -28.624573
  endloop
 endfacet
 facet normal 0.003465 -0.000022 0.999994
  outer loop
   vertex 54.437767 -1507.564697 -27.084564
   vertex 53.666988 -1508.464111 -27.081913
   vertex 54.436985 -1508.464722 -27.084581
  endloop
 endfacet
 facet normal 0.003465 -0.000022 0.999994
  outer loop
   vertex 53.667770 -1507.564087 -27.081896
   vertex 53.666988 -1508.464111 -27.081913
   vertex 54.437767 -1507.564697 -27.084564
  endloop
 endfacet
 facet normal 0.000793 1.000000 -0.000003
  outer loop
   vertex 54.437767 -1507.564697 -27.084564
   vertex 54.432426 -1507.564697 -28.624556
   vertex 53.667770 -1507.564087 -27.081896
  endloop
 endfacet
 facet normal 0.000793 1.000000 -0.000003
  outer loop
   vertex 53.667770 -1507.564087 -27.081896
   vertex 54.432426 -1507.564697 -28.624556
   vertex 53.662434 -1507.564087 -28.621885
  endloop
 endfacet
 facet normal -0.003468 0.000022 -0.999994
  outer loop
   vertex 53.662434 -1507.564087 -28.621885
   vertex 54.432426 -1507.564697 -28.624556
   vertex 54.431644 -1508.464722 -28.624573
  endloop
 endfacet
 facet normal -0.003465 0.000024 -0.999994
  outer loop
   vertex 54.431644 -1508.464722 -28.624573
   vertex 53.661644 -1508.463989 -28.621904
   vertex 53.662434 -1507.564087 -28.621885
  endloop
 endfacet
 facet normal -0.000951 -1.000000 -0.000076
  outer loop
   vertex 53.666988 -1508.464111 -27.081913
   vertex 53.661644 -1508.463989 -28.621904
   vertex 54.431644 -1508.464722 -28.624573
  endloop
 endfacet
 facet normal -0.999994 0.000869 0.003470
  outer loop
   vertex 53.667770 -1507.564087 -27.081896
   vertex 53.661644 -1508.463989 -28.621904
   vertex 53.666988 -1508.464111 -27.081913
  endloop
 endfacet
 facet normal -0.000951 -1.000000 -0.000005
  outer loop
   vertex 53.645721 -1534.669556 -28.597254
   vertex 54.415710 -1534.670288 -28.592943
   vertex 54.407085 -1534.670288 -27.052967
  endloop
 endfacet
 facet normal 0.999984 -0.000877 0.005601
  outer loop
   vertex 54.407085 -1534.670288 -27.052967
   vertex 54.415710 -1534.670288 -28.592943
   vertex 54.407875 -1533.770264 -27.052948
  endloop
 endfacet
 facet normal -0.005598 -0.000016 0.999984
  outer loop
   vertex 54.407875 -1533.770264 -27.052948
   vertex 53.637096 -1534.669678 -27.057278
   vertex 54.407085 -1534.670288 -27.052967
  endloop
 endfacet
 facet normal -0.005601 -0.000014 0.999984
  outer loop
   vertex 53.637882 -1533.769653 -27.057261
   vertex 53.637096 -1534.669678 -27.057278
   vertex 54.407875 -1533.770264 -27.052948
  endloop
 endfacet
 facet normal -0.999984 0.000873 -0.005601
  outer loop
   vertex 53.645721 -1534.669556 -28.597254
   vertex 53.637096 -1534.669678 -27.057278
   vertex 53.637882 -1533.769653 -27.057261
  endloop
 endfacet
 facet normal -0.999984 0.000873 -0.005601
  outer loop
   vertex 53.637882 -1533.769653 -27.057261
   vertex 53.646507 -1533.769653 -28.597237
   vertex 53.645721 -1534.669556 -28.597254
  endloop
 endfacet
 facet normal 0.005598 0.000014 -0.999984
  outer loop
   vertex 53.645721 -1534.669556 -28.597254
   vertex 53.646507 -1533.769653 -28.597237
   vertex 54.415710 -1534.670288 -28.592943
  endloop
 endfacet
 facet normal 0.005601 0.000016 -0.999984
  outer loop
   vertex 54.415710 -1534.670288 -28.592943
   vertex 53.646507 -1533.769653 -28.597237
   vertex 54.416496 -1533.770264 -28.592924
  endloop
 endfacet
 facet normal 0.999984 -0.000873 0.005598
  outer loop
   vertex 54.416496 -1533.770264 -28.592924
   vertex 54.407875 -1533.770264 -27.052948
   vertex 54.415710 -1534.670288 -28.592943
  endloop
 endfacet
 facet normal 0.000793 1.000000 0.000004
  outer loop
   vertex 53.646507 -1533.769653 -28.597237
   vertex 54.407875 -1533.770264 -27.052948
   vertex 54.416496 -1533.770264 -28.592924
  endloop
 endfacet
 facet normal 0.000793 1.000000 0.000004
  outer loop
   vertex 53.637882 -1533.769653 -27.057261
   vertex 54.407875 -1533.770264 -27.052948
   vertex 53.646507 -1533.769653 -28.597237
  endloop
 endfacet
 facet normal 0.000951 1.000000 -0.000003
  outer loop
   vertex 53.673710 -1500.761841 -27.081877
   vertex 54.443707 -1500.762573 -27.084547
   vertex 54.438366 -1500.762573 -28.624538
  endloop
 endfacet
 facet normal 0.999994 -0.000869 -0.003468
  outer loop
   vertex 54.438366 -1500.762573 -28.624538
   vertex 54.443707 -1500.762573 -27.084547
   vertex 54.437584 -1501.662476 -28.624556
  endloop
 endfacet
 facet normal -0.003468 0.000022 -0.999994
  outer loop
   vertex 54.437584 -1501.662476 -28.624556
   vertex 53.668373 -1500.761841 -28.621868
   vertex 54.438366 -1500.762573 -28.624538
  endloop
 endfacet
 facet normal -0.003465 0.000024 -0.999994
  outer loop
   vertex 53.667583 -1501.661865 -28.621887
   vertex 53.668373 -1500.761841 -28.621868
   vertex 54.437584 -1501.662476 -28.624556
  endloop
 endfacet
 facet normal -0.999994 0.000877 0.003465
  outer loop
   vertex 53.673710 -1500.761841 -27.081877
   vertex 53.668373 -1500.761841 -28.621868
   vertex 53.667583 -1501.661865 -28.621887
  endloop
 endfacet
 facet normal -0.999994 0.000869 0.003470
  outer loop
   vertex 53.667583 -1501.661865 -28.621887
   vertex 53.672928 -1501.661865 -27.081896
   vertex 53.673710 -1500.761841 -27.081877
  endloop
 endfacet
 facet normal 0.003468 -0.000024 0.999994
  outer loop
   vertex 53.673710 -1500.761841 -27.081877
   vertex 53.672928 -1501.661865 -27.081896
   vertex 54.443707 -1500.762573 -27.084547
  endloop
 endfacet
 facet normal 0.003465 -0.000022 0.999994
  outer loop
   vertex 54.443707 -1500.762573 -27.084547
   vertex 53.672928 -1501.661865 -27.081896
   vertex 54.442924 -1501.662598 -27.084564
  endloop
 endfacet
 facet normal 0.999994 -0.000869 -0.003468
  outer loop
   vertex 54.442924 -1501.662598 -27.084564
   vertex 54.437584 -1501.662476 -28.624556
   vertex 54.443707 -1500.762573 -27.084547
  endloop
 endfacet
 facet normal -0.000951 -1.000000 -0.000076
  outer loop
   vertex 53.672928 -1501.661865 -27.081896
   vertex 54.437584 -1501.662476 -28.624556
   vertex 54.442924 -1501.662598 -27.084564
  endloop
 endfacet
 facet normal -0.000793 -1.000000 0.000003
  outer loop
   vertex 53.667583 -1501.661865 -28.621887
   vertex 54.437584 -1501.662476 -28.624556
   vertex 53.672928 -1501.661865 -27.081896
  endloop
 endfacet
 facet normal -0.000792 -1.000000 -0.000084
  outer loop
   vertex 53.645721 -1534.669556 -28.597254
   vertex 54.407085 -1534.670288 -27.052967
   vertex 53.637096 -1534.669678 -27.057278
  endloop
 endfacet
 facet normal 0.000951 1.000000 -0.000003
  outer loop
   vertex 53.673710 -1500.761841 -27.081877
   vertex 54.438366 -1500.762573 -28.624538
   vertex 53.668373 -1500.761841 -28.621868
  endloop
 endfacet
 facet normal -0.999994 0.000877 0.003465
  outer loop
   vertex 53.661644 -1508.463989 -28.621904
   vertex 53.667770 -1507.564087 -27.081896
   vertex 53.662434 -1507.564087 -28.621885
  endloop
 endfacet
 facet normal 0.003488 -0.000006 0.999994
  outer loop
   vertex 54.382919 -1501.314819 -27.181377
   vertex 53.741989 -1501.314331 -27.179142
   vertex 54.354317 -1534.071045 -27.181461
  endloop
 endfacet
 facet normal 0.003488 -0.000006 0.999994
  outer loop
   vertex 54.354317 -1534.071045 -27.181461
   vertex 53.741989 -1501.314331 -27.179142
   vertex 53.713387 -1534.070435 -27.179226
  endloop
 endfacet
 facet normal -0.999994 0.000873 0.003487
  outer loop
   vertex 53.741989 -1501.314331 -27.179142
   vertex 53.737251 -1501.314209 -28.537813
   vertex 53.713387 -1534.070435 -27.179226
  endloop
 endfacet
 facet normal -0.999994 0.000873 0.003487
  outer loop
   vertex 53.713387 -1534.070435 -27.179226
   vertex 53.737251 -1501.314209 -28.537813
   vertex 53.708649 -1534.070435 -28.537897
  endloop
 endfacet
 facet normal 0.999994 -0.000873 -0.003487
  outer loop
   vertex 54.349579 -1534.071045 -28.540131
   vertex 54.378181 -1501.314819 -28.540047
   vertex 54.354317 -1534.071045 -27.181461
  endloop
 endfacet
 facet normal 0.999994 -0.000873 -0.003487
  outer loop
   vertex 54.354317 -1534.071045 -27.181461
   vertex 54.378181 -1501.314819 -28.540047
   vertex 54.382919 -1501.314819 -27.181377
  endloop
 endfacet
 facet normal -0.003485 0.000006 -0.999994
  outer loop
   vertex 53.708649 -1534.070435 -28.537897
   vertex 53.737251 -1501.314209 -28.537813
   vertex 54.349579 -1534.071045 -28.540131
  endloop
 endfacet
 facet normal -0.003485 0.000006 -0.999994
  outer loop
   vertex 54.349579 -1534.071045 -28.540131
   vertex 53.737251 -1501.314209 -28.537813
   vertex 54.378181 -1501.314819 -28.540047
  endloop
 endfacet
 facet normal 0.000381 0.923844 0.382769
  outer loop
   vertex 51.720970 -1507.005127 -27.841616
   vertex 50.720970 -1507.004272 -27.842682
   vertex 51.719959 -1507.298096 -27.134510
  endloop
 endfacet
 facet normal 0.000494 0.923900 0.382633
  outer loop
   vertex 51.719959 -1507.298096 -27.134510
   vertex 50.720970 -1507.004272 -27.842682
   vertex 50.719959 -1507.297119 -27.135576
  endloop
 endfacet
 facet normal -0.000611 0.382718 0.923865
  outer loop
   vertex 50.719959 -1507.297119 -27.135576
   vertex 51.719028 -1508.005127 -26.841618
   vertex 51.719959 -1507.298096 -27.134510
  endloop
 endfacet
 facet normal -0.000658 0.382662 0.923888
  outer loop
   vertex 50.719032 -1508.004272 -26.842684
   vertex 51.719028 -1508.005127 -26.841618
   vertex 50.719959 -1507.297119 -27.135576
  endloop
 endfacet
 facet normal -0.001312 -0.382665 0.923886
  outer loop
   vertex 51.718723 -1508.712280 -27.134514
   vertex 51.719028 -1508.005127 -26.841618
   vertex 50.719032 -1508.004272 -26.842684
  endloop
 endfacet
 facet normal -0.001310 -0.382662 0.923887
  outer loop
   vertex 50.719032 -1508.004272 -26.842684
   vertex 50.718727 -1508.711426 -27.135578
   vertex 51.718723 -1508.712280 -27.134514
  endloop
 endfacet
 facet normal -0.001197 -0.923900 0.382631
  outer loop
   vertex 51.718723 -1508.712280 -27.134514
   vertex 50.718727 -1508.711426 -27.135578
   vertex 51.719223 -1509.005127 -27.841619
  endloop
 endfacet
 facet normal -0.001197 -0.923901 0.382630
  outer loop
   vertex 51.719223 -1509.005127 -27.841619
   vertex 50.718727 -1508.711426 -27.135578
   vertex 50.719223 -1509.004272 -27.842686
  endloop
 endfacet
 facet normal -0.000382 -0.923901 -0.382632
  outer loop
   vertex 50.719223 -1509.004272 -27.842686
   vertex 51.720234 -1508.712280 -28.548725
   vertex 51.719223 -1509.005127 -27.841619
  endloop
 endfacet
 facet normal -0.000382 -0.923901 -0.382632
  outer loop
   vertex 50.720234 -1508.711426 -28.549791
   vertex 51.720234 -1508.712280 -28.548725
   vertex 50.719223 -1509.004272 -27.842686
  endloop
 endfacet
 facet normal 0.000658 -0.382662 -0.923888
  outer loop
   vertex 51.721161 -1508.005127 -28.841618
   vertex 51.720234 -1508.712280 -28.548725
   vertex 50.720234 -1508.711426 -28.549791
  endloop
 endfacet
 facet normal 0.000658 -0.382662 -0.923888
  outer loop
   vertex 50.720234 -1508.711426 -28.549791
   vertex 50.721165 -1508.004272 -28.842684
   vertex 51.721161 -1508.005127 -28.841618
  endloop
 endfacet
 facet normal 0.001312 0.382662 -0.923887
  outer loop
   vertex 51.721161 -1508.005127 -28.841618
   vertex 50.721165 -1508.004272 -28.842684
   vertex 51.721466 -1507.297974 -28.548723
  endloop
 endfacet
 facet normal 0.001312 0.382662 -0.923887
  outer loop
   vertex 51.721466 -1507.297974 -28.548723
   vertex 50.721165 -1508.004272 -28.842684
   vertex 50.721470 -1507.297119 -28.549789
  endloop
 endfacet
 facet normal 0.001197 0.923901 -0.382630
  outer loop
   vertex 50.721470 -1507.297119 -28.549789
   vertex 51.720970 -1507.005127 -27.841616
   vertex 51.721466 -1507.297974 -28.548723
  endloop
 endfacet
 facet normal 0.001197 0.923901 -0.382630
  outer loop
   vertex 50.720970 -1507.004272 -27.842682
   vertex 51.720970 -1507.005127 -27.841616
   vertex 50.721470 -1507.297119 -28.549789
  endloop
 endfacet
 facet normal 0.569848 0.758882 0.315232
  outer loop
   vertex 52.720314 -1507.755981 -27.840551
   vertex 51.720970 -1507.005127 -27.841616
   vertex 52.720062 -1507.829224 -27.663774
  endloop
 endfacet
 facet normal 0.569847 0.758881 0.315235
  outer loop
   vertex 52.720062 -1507.829224 -27.663774
   vertex 51.720970 -1507.005127 -27.841616
   vertex 51.719959 -1507.298096 -27.134510
  endloop
 endfacet
 facet normal 0.568998 0.314084 0.759995
  outer loop
   vertex 51.719959 -1507.298096 -27.134510
   vertex 52.719830 -1508.005981 -27.590551
   vertex 52.720062 -1507.829224 -27.663774
  endloop
 endfacet
 facet normal 0.568998 0.314084 0.759995
  outer loop
   vertex 51.719028 -1508.005127 -26.841618
   vertex 52.719830 -1508.005981 -27.590551
   vertex 51.719959 -1507.298096 -27.134510
  endloop
 endfacet
 facet normal 0.568457 -0.315076 0.759989
  outer loop
   vertex 52.719753 -1508.182739 -27.663774
   vertex 52.719830 -1508.005981 -27.590551
   vertex 51.719028 -1508.005127 -26.841618
  endloop
 endfacet
 facet normal 0.568472 -0.315029 0.759997
  outer loop
   vertex 51.719028 -1508.005127 -26.841618
   vertex 51.718723 -1508.712280 -27.134514
   vertex 52.719753 -1508.182739 -27.663774
  endloop
 endfacet
 facet normal 0.568600 -0.759829 0.315205
  outer loop
   vertex 52.719753 -1508.182739 -27.663774
   vertex 51.718723 -1508.712280 -27.134514
   vertex 52.719875 -1508.255981 -27.840551
  endloop
 endfacet
 facet normal 0.568564 -0.759895 0.315111
  outer loop
   vertex 52.719875 -1508.255981 -27.840551
   vertex 51.718723 -1508.712280 -27.134514
   vertex 51.719223 -1509.005127 -27.841619
  endloop
 endfacet
 facet normal 0.569214 -0.759866 -0.314005
  outer loop
   vertex 51.719223 -1509.005127 -27.841619
   vertex 52.720131 -1508.182739 -28.017328
   vertex 52.719875 -1508.255981 -27.840551
  endloop
 endfacet
 facet normal 0.569250 -0.759886 -0.313892
  outer loop
   vertex 51.720234 -1508.712280 -28.548725
   vertex 52.720131 -1508.182739 -28.017328
   vertex 51.719223 -1509.005127 -27.841619
  endloop
 endfacet
 facet normal 0.570101 -0.315061 -0.758763
  outer loop
   vertex 52.720360 -1508.005981 -28.090551
   vertex 52.720131 -1508.182739 -28.017328
   vertex 51.720234 -1508.712280 -28.548725
  endloop
 endfacet
 facet normal 0.570087 -0.315026 -0.758788
  outer loop
   vertex 51.720234 -1508.712280 -28.548725
   vertex 51.721161 -1508.005127 -28.841618
   vertex 52.720360 -1508.005981 -28.090551
  endloop
 endfacet
 facet normal 0.570619 0.314083 -0.758779
  outer loop
   vertex 52.720360 -1508.005981 -28.090551
   vertex 51.721161 -1508.005127 -28.841618
   vertex 52.720436 -1507.829224 -28.017328
  endloop
 endfacet
 facet normal 0.570634 0.314034 -0.758788
  outer loop
   vertex 52.720436 -1507.829224 -28.017328
   vertex 51.721161 -1508.005127 -28.841618
   vertex 51.721466 -1507.297974 -28.548723
  endloop
 endfacet
 facet normal 0.570582 0.758838 -0.314008
  outer loop
   vertex 51.721466 -1507.297974 -28.548723
   vertex 52.720314 -1507.755981 -27.840551
   vertex 52.720436 -1507.829224 -28.017328
  endloop
 endfacet
 facet normal 0.570541 0.758913 -0.313901
  outer loop
   vertex 51.720970 -1507.005127 -27.841616
   vertex 52.720314 -1507.755981 -27.840551
   vertex 51.721466 -1507.297974 -28.548723
  endloop
 endfacet
 facet normal 0.000381 0.923843 0.382771
  outer loop
   vertex 53.687382 -1533.976807 -27.839561
   vertex 52.687382 -1533.975952 -27.840628
   vertex 53.687130 -1534.050049 -27.662786
  endloop
 endfacet
 facet normal 0.000382 0.923845 0.382768
  outer loop
   vertex 53.687130 -1534.050049 -27.662786
   vertex 52.687382 -1533.975952 -27.840628
   vertex 52.687130 -1534.049194 -27.663851
  endloop
 endfacet
 facet normal -0.000657 0.382493 0.923958
  outer loop
   vertex 52.687130 -1534.049194 -27.663851
   vertex 53.686897 -1534.226929 -27.589563
   vertex 53.687130 -1534.050049 -27.662786
  endloop
 endfacet
 facet normal -0.000611 0.382710 0.923868
  outer loop
   vertex 52.686897 -1534.225952 -27.590630
   vertex 53.686897 -1534.226929 -27.589563
   vertex 52.687130 -1534.049194 -27.663851
  endloop
 endfacet
 facet normal -0.001359 -0.382717 0.923865
  outer loop
   vertex 53.686821 -1534.403687 -27.662786
   vertex 53.686897 -1534.226929 -27.589563
   vertex 52.686897 -1534.225952 -27.590630
  endloop
 endfacet
 facet normal -0.001312 -0.382491 0.923958
  outer loop
   vertex 52.686897 -1534.225952 -27.590630
   vertex 52.686821 -1534.402832 -27.663853
   vertex 53.686821 -1534.403687 -27.662786
  endloop
 endfacet
 facet normal -0.001197 -0.924070 0.382222
  outer loop
   vertex 53.686821 -1534.403687 -27.662786
   vertex 52.686821 -1534.402832 -27.663853
   vertex 53.686943 -1534.476807 -27.839563
  endloop
 endfacet
 facet normal -0.001197 -0.924070 0.382222
  outer loop
   vertex 53.686943 -1534.476807 -27.839563
   vertex 52.686821 -1534.402832 -27.663853
   vertex 52.686947 -1534.475952 -27.840630
  endloop
 endfacet
 facet normal -0.000382 -0.924070 -0.382223
  outer loop
   vertex 52.686947 -1534.475952 -27.840630
   vertex 53.687199 -1534.403687 -28.016340
   vertex 53.686943 -1534.476807 -27.839563
  endloop
 endfacet
 facet normal -0.000494 -0.923844 -0.382768
  outer loop
   vertex 52.687199 -1534.402710 -28.017406
   vertex 53.687199 -1534.403687 -28.016340
   vertex 52.686947 -1534.475952 -27.840630
  endloop
 endfacet
 facet normal 0.000612 -0.382493 -0.923958
  outer loop
   vertex 53.687428 -1534.226807 -28.089563
   vertex 53.687199 -1534.403687 -28.016340
   vertex 52.687199 -1534.402710 -28.017406
  endloop
 endfacet
 facet normal 0.000656 -0.382710 -0.923868
  outer loop
   vertex 52.687199 -1534.402710 -28.017406
   vertex 52.687431 -1534.225952 -28.090628
   vertex 53.687428 -1534.226807 -28.089563
  endloop
 endfacet
 facet normal 0.001310 0.382725 -0.923861
  outer loop
   vertex 53.687428 -1534.226807 -28.089563
   vertex 52.687431 -1534.225952 -28.090628
   vertex 53.687504 -1534.050049 -28.016338
  endloop
 endfacet
 facet normal 0.001312 0.382717 -0.923865
  outer loop
   vertex 53.687504 -1534.050049 -28.016338
   vertex 52.687431 -1534.225952 -28.090628
   vertex 52.687508 -1534.049194 -28.017405
  endloop
 endfacet
 facet normal 0.001198 0.923844 -0.382766
  outer loop
   vertex 52.687508 -1534.049194 -28.017405
   vertex 53.687382 -1533.976807 -27.839561
   vertex 53.687504 -1534.050049 -28.016338
  endloop
 endfacet
 facet normal 0.001198 0.923844 -0.382766
  outer loop
   vertex 52.687382 -1533.975952 -27.840628
   vertex 53.687382 -1533.976807 -27.839561
   vertex 52.687508 -1534.049194 -28.017405
  endloop
 endfacet
 facet normal 0.000382 0.923844 0.382769
  outer loop
   vertex 51.698074 -1533.225098 -27.841682
   vertex 50.698078 -1533.224243 -27.842747
   vertex 51.697067 -1533.518066 -27.134577
  endloop
 endfacet
 facet normal 0.000382 0.923844 0.382769
  outer loop
   vertex 51.697067 -1533.518066 -27.134577
   vertex 50.698078 -1533.224243 -27.842747
   vertex 50.697067 -1533.517212 -27.135641
  endloop
 endfacet
 facet normal -0.000656 0.382718 0.923865
  outer loop
   vertex 50.697067 -1533.517212 -27.135641
   vertex 51.696136 -1534.225098 -26.841684
   vertex 51.697067 -1533.518066 -27.134577
  endloop
 endfacet
 facet normal -0.000658 0.382716 0.923866
  outer loop
   vertex 50.696136 -1534.224243 -26.842751
   vertex 51.696136 -1534.225098 -26.841684
   vertex 50.697067 -1533.517212 -27.135641
  endloop
 endfacet
 facet normal -0.001312 -0.382662 0.923887
  outer loop
   vertex 51.695831 -1534.932251 -27.134579
   vertex 51.696136 -1534.225098 -26.841684
   vertex 50.696136 -1534.224243 -26.842751
  endloop
 endfacet
 facet normal -0.001312 -0.382662 0.923887
  outer loop
   vertex 50.696136 -1534.224243 -26.842751
   vertex 50.695831 -1534.931396 -27.135645
   vertex 51.695831 -1534.932251 -27.134579
  endloop
 endfacet
 facet normal -0.001197 -0.923901 0.382630
  outer loop
   vertex 51.695831 -1534.932251 -27.134579
   vertex 50.695831 -1534.931396 -27.135645
   vertex 51.696331 -1535.225098 -27.841686
  endloop
 endfacet
 facet normal -0.001197 -0.923901 0.382630
  outer loop
   vertex 51.696331 -1535.225098 -27.841686
   vertex 50.695831 -1534.931396 -27.135645
   vertex 50.696331 -1535.224243 -27.842752
  endloop
 endfacet
 facet normal -0.000382 -0.923901 -0.382632
  outer loop
   vertex 50.696331 -1535.224243 -27.842752
   vertex 51.697338 -1534.932251 -28.548792
   vertex 51.696331 -1535.225098 -27.841686
  endloop
 endfacet
 facet normal -0.000382 -0.923901 -0.382632
  outer loop
   vertex 50.697338 -1534.931396 -28.549858
   vertex 51.697338 -1534.932251 -28.548792
   vertex 50.696331 -1535.224243 -27.842752
  endloop
 endfacet
 facet normal 0.000658 -0.382662 -0.923888
  outer loop
   vertex 51.698269 -1534.225098 -28.841684
   vertex 51.697338 -1534.932251 -28.548792
   vertex 50.697338 -1534.931396 -28.549858
  endloop
 endfacet
 facet normal 0.000656 -0.382660 -0.923889
  outer loop
   vertex 50.697338 -1534.931396 -28.549858
   vertex 50.698269 -1534.224243 -28.842749
   vertex 51.698269 -1534.225098 -28.841684
  endloop
 endfacet
 facet normal 0.001310 0.382719 -0.923864
  outer loop
   vertex 51.698269 -1534.225098 -28.841684
   vertex 50.698269 -1534.224243 -28.842749
   vertex 51.698574 -1533.518066 -28.548790
  endloop
 endfacet
 facet normal 0.001357 0.382662 -0.923887
  outer loop
   vertex 51.698574 -1533.518066 -28.548790
   vertex 50.698269 -1534.224243 -28.842749
   vertex 50.698574 -1533.517090 -28.549854
  endloop
 endfacet
 facet normal 0.001310 0.923844 -0.382766
  outer loop
   vertex 50.698574 -1533.517090 -28.549854
   vertex 51.698074 -1533.225098 -27.841682
   vertex 51.698574 -1533.518066 -28.548790
  endloop
 endfacet
 facet normal 0.001197 0.923901 -0.382630
  outer loop
   vertex 50.698078 -1533.224243 -27.842747
   vertex 51.698074 -1533.225098 -27.841682
   vertex 50.698574 -1533.517090 -28.549854
  endloop
 endfacet
 facet normal 0.569848 0.758882 0.315232
  outer loop
   vertex 52.697418 -1533.975952 -27.840618
   vertex 51.698074 -1533.225098 -27.841682
   vertex 52.697166 -1534.049194 -27.663841
  endloop
 endfacet
 facet normal 0.569848 0.758882 0.315232
  outer loop
   vertex 52.697166 -1534.049194 -27.663841
   vertex 51.698074 -1533.225098 -27.841682
   vertex 51.697067 -1533.518066 -27.134577
  endloop
 endfacet
 facet normal 0.569000 0.314084 0.759994
  outer loop
   vertex 51.697067 -1533.518066 -27.134577
   vertex 52.696934 -1534.225952 -27.590618
   vertex 52.697166 -1534.049194 -27.663841
  endloop
 endfacet
 facet normal 0.569000 0.314084 0.759994
  outer loop
   vertex 51.696136 -1534.225098 -26.841684
   vertex 52.696934 -1534.225952 -27.590618
   vertex 51.697067 -1533.518066 -27.134577
  endloop
 endfacet
 facet normal 0.568498 -0.314880 0.760040
  outer loop
   vertex 52.696857 -1534.402832 -27.663841
   vertex 52.696934 -1534.225952 -27.590618
   vertex 51.696136 -1534.225098 -26.841684
  endloop
 endfacet
 facet normal 0.568448 -0.315034 0.760013
  outer loop
   vertex 51.696136 -1534.225098 -26.841684
   vertex 51.695831 -1534.932251 -27.134579
   vertex 52.696857 -1534.402832 -27.663841
  endloop
 endfacet
 facet normal 0.568448 -0.760107 0.314808
  outer loop
   vertex 52.696857 -1534.402832 -27.663841
   vertex 51.695831 -1534.932251 -27.134579
   vertex 52.696983 -1534.475952 -27.840618
  endloop
 endfacet
 facet normal 0.568564 -0.759895 0.315110
  outer loop
   vertex 52.696983 -1534.475952 -27.840618
   vertex 51.695831 -1534.932251 -27.134579
   vertex 51.696331 -1535.225098 -27.841686
  endloop
 endfacet
 facet normal 0.569305 -0.759988 -0.313543
  outer loop
   vertex 51.696331 -1535.225098 -27.841686
   vertex 52.697235 -1534.402832 -28.017395
   vertex 52.696983 -1534.475952 -27.840618
  endloop
 endfacet
 facet normal 0.569188 -0.759924 -0.313911
  outer loop
   vertex 51.697338 -1534.932251 -28.548792
   vertex 52.697235 -1534.402832 -28.017395
   vertex 51.696331 -1535.225098 -27.841686
  endloop
 endfacet
 facet normal 0.570038 -0.314902 -0.758876
  outer loop
   vertex 52.697468 -1534.225952 -28.090618
   vertex 52.697235 -1534.402832 -28.017395
   vertex 51.697338 -1534.932251 -28.548792
  endloop
 endfacet
 facet normal 0.570087 -0.315029 -0.758787
  outer loop
   vertex 51.697338 -1534.932251 -28.548792
   vertex 51.698269 -1534.225098 -28.841684
   vertex 52.697468 -1534.225952 -28.090618
  endloop
 endfacet
 facet normal 0.570619 0.314083 -0.758779
  outer loop
   vertex 52.697468 -1534.225952 -28.090618
   vertex 51.698269 -1534.225098 -28.841684
   vertex 52.697544 -1534.049194 -28.017395
  endloop
 endfacet
 facet normal 0.570618 0.314085 -0.758779
  outer loop
   vertex 52.697544 -1534.049194 -28.017395
   vertex 51.698269 -1534.225098 -28.841684
   vertex 51.698574 -1533.518066 -28.548790
  endloop
 endfacet
 facet normal 0.570518 0.758884 -0.314014
  outer loop
   vertex 51.698574 -1533.518066 -28.548790
   vertex 52.697418 -1533.975952 -27.840618
   vertex 52.697544 -1534.049194 -28.017395
  endloop
 endfacet
 facet normal 0.570519 0.758882 -0.314017
  outer loop
   vertex 51.698074 -1533.225098 -27.841682
   vertex 52.697418 -1533.975952 -27.840618
   vertex 51.698574 -1533.518066 -28.548790
  endloop
 endfacet
 facet normal 0.001198 0.923844 -0.382766
  outer loop
   vertex 52.710278 -1507.755981 -27.840561
   vertex 53.710274 -1507.756836 -27.839495
   vertex 52.710400 -1507.829224 -28.017338
  endloop
 endfacet
 facet normal 0.001198 0.923844 -0.382766
  outer loop
   vertex 52.710400 -1507.829224 -28.017338
   vertex 53.710274 -1507.756836 -27.839495
   vertex 53.710400 -1507.830078 -28.016272
  endloop
 endfacet
 facet normal 0.001312 0.382725 -0.923861
  outer loop
   vertex 53.710400 -1507.830078 -28.016272
   vertex 52.710323 -1508.005981 -28.090563
   vertex 52.710400 -1507.829224 -28.017338
  endloop
 endfacet
 facet normal 0.001312 0.382725 -0.923861
  outer loop
   vertex 53.710323 -1508.006836 -28.089497
   vertex 52.710323 -1508.005981 -28.090563
   vertex 53.710400 -1507.830078 -28.016272
  endloop
 endfacet
 facet normal 0.000658 -0.382718 -0.923865
  outer loop
   vertex 52.710091 -1508.182739 -28.017340
   vertex 52.710323 -1508.005981 -28.090563
   vertex 53.710323 -1508.006836 -28.089497
  endloop
 endfacet
 facet normal 0.000612 -0.382493 -0.923958
  outer loop
   vertex 53.710323 -1508.006836 -28.089497
   vertex 53.710091 -1508.183716 -28.016273
   vertex 52.710091 -1508.182739 -28.017340
  endloop
 endfacet
 facet normal -0.000494 -0.923844 -0.382768
  outer loop
   vertex 52.710091 -1508.182739 -28.017340
   vertex 53.710091 -1508.183716 -28.016273
   vertex 52.709839 -1508.255981 -27.840563
  endloop
 endfacet
 facet normal -0.000382 -0.924070 -0.382223
  outer loop
   vertex 52.709839 -1508.255981 -27.840563
   vertex 53.710091 -1508.183716 -28.016273
   vertex 53.709839 -1508.256836 -27.839497
  endloop
 endfacet
 facet normal -0.001198 -0.923844 0.382766
  outer loop
   vertex 53.709839 -1508.256836 -27.839497
   vertex 52.709713 -1508.182739 -27.663786
   vertex 52.709839 -1508.255981 -27.840563
  endloop
 endfacet
 facet normal -0.001310 -0.924070 0.382222
  outer loop
   vertex 53.709713 -1508.183716 -27.662720
   vertex 52.709713 -1508.182739 -27.663786
   vertex 53.709839 -1508.256836 -27.839497
  endloop
 endfacet
 facet normal -0.001359 -0.382717 0.923865
  outer loop
   vertex 52.709789 -1508.005981 -27.590563
   vertex 52.709713 -1508.182739 -27.663786
   vertex 53.709713 -1508.183716 -27.662720
  endloop
 endfacet
 facet normal -0.001312 -0.382491 0.923958
  outer loop
   vertex 53.709713 -1508.183716 -27.662720
   vertex 53.709789 -1508.006836 -27.589497
   vertex 52.709789 -1508.005981 -27.590563
  endloop
 endfacet
 facet normal -0.000658 0.382718 0.923865
  outer loop
   vertex 52.709789 -1508.005981 -27.590563
   vertex 53.709789 -1508.006836 -27.589497
   vertex 52.710022 -1507.829224 -27.663786
  endloop
 endfacet
 facet normal -0.000658 0.382718 0.923865
  outer loop
   vertex 52.710022 -1507.829224 -27.663786
   vertex 53.709789 -1508.006836 -27.589497
   vertex 53.710022 -1507.830078 -27.662720
  endloop
 endfacet
 facet normal 0.000381 0.923843 0.382771
  outer loop
   vertex 53.710022 -1507.830078 -27.662720
   vertex 52.710278 -1507.755981 -27.840561
   vertex 52.710022 -1507.829224 -27.663786
  endloop
 endfacet
 facet normal 0.000381 0.923843 0.382771
  outer loop
   vertex 53.710274 -1507.756836 -27.839495
   vertex 52.710278 -1507.755981 -27.840561
   vertex 53.710022 -1507.830078 -27.662720
  endloop
 endfacet
endsolid