solid stl file generated from DOUG
 facet normal -0.594639 0.000517 0.803992
  outer loop
   vertex -54.817886 -1503.743042 55.492592
   vertex -54.927380 -1503.742920 55.411610
   vertex -54.950485 -1530.201416 55.411541
  endloop
 endfacet
 facet normal -0.999999 0.000873 -0.001077
  outer loop
   vertex -54.950485 -1530.201416 55.411541
   vertex -54.927380 -1503.742920 55.411610
   vertex -54.950375 -1530.201416 55.308784
  endloop
 endfacet
 facet normal -0.592949 0.000520 -0.805240
  outer loop
   vertex -54.842167 -1530.201538 56.597061
   vertex -54.951832 -1530.201416 56.677814
   vertex -54.928730 -1503.742920 56.677879
  endloop
 endfacet
 facet normal -0.999999 0.000873 -0.001077
  outer loop
   vertex -54.928730 -1503.742920 56.677879
   vertex -54.951832 -1530.201416 56.677814
   vertex -54.951942 -1530.201416 56.780571
  endloop
 endfacet
 facet normal -0.999999 0.000873 -0.001077
  outer loop
   vertex -54.951942 -1530.201416 56.780571
   vertex -54.928841 -1503.742920 56.780636
   vertex -54.928730 -1503.742920 56.677879
  endloop
 endfacet
 facet normal -0.933809 0.000814 0.357771
  outer loop
   vertex -54.219219 -1530.202026 56.781349
   vertex -54.196117 -1503.743530 56.781418
   vertex -54.231262 -1530.202026 56.749916
  endloop
 endfacet
 facet normal -0.933861 0.000815 0.357635
  outer loop
   vertex -54.231262 -1530.202026 56.749916
   vertex -54.196117 -1503.743530 56.781418
   vertex -54.208157 -1503.743530 56.749981
  endloop
 endfacet
 facet normal -0.001068 -0.000002 0.999999
  outer loop
   vertex -54.208157 -1503.743530 56.749981
   vertex -54.783314 -1503.743042 56.749367
   vertex -54.231262 -1530.202026 56.749916
  endloop
 endfacet
 facet normal -0.594658 0.000517 0.803979
  outer loop
   vertex -54.950485 -1530.201416 55.411541
   vertex -54.840992 -1530.201538 55.492527
   vertex -54.817886 -1503.743042 55.492592
  endloop
 endfacet
 facet normal -0.999999 0.000873 -0.001064
  outer loop
   vertex -54.817886 -1503.743042 55.492592
   vertex -54.840992 -1530.201538 55.492527
   vertex -54.842167 -1530.201538 56.597061
  endloop
 endfacet
 facet normal -0.999999 0.000873 -0.001067
  outer loop
   vertex -54.842167 -1530.201538 56.597061
   vertex -54.819065 -1503.743042 56.597130
   vertex -54.817886 -1503.743042 55.492592
  endloop
 endfacet
 facet normal -0.592931 0.000520 -0.805253
  outer loop
   vertex -54.928730 -1503.742920 56.677879
   vertex -54.819065 -1503.743042 56.597130
   vertex -54.842167 -1530.201538 56.597061
  endloop
 endfacet
 facet normal -0.001087 -0.000002 0.999999
  outer loop
   vertex -54.928841 -1503.742920 56.780636
   vertex -54.951942 -1530.201416 56.780571
   vertex -54.795425 -1503.743042 56.780781
  endloop
 endfacet
 facet normal -0.001058 -0.000002 0.999999
  outer loop
   vertex -54.795425 -1503.743042 56.780781
   vertex -54.951942 -1530.201416 56.780571
   vertex -54.818527 -1530.201538 56.780712
  endloop
 endfacet
 facet normal 0.933053 -0.000816 0.359738
  outer loop
   vertex -54.818527 -1530.201538 56.780712
   vertex -54.783314 -1503.743042 56.749367
   vertex -54.795425 -1503.743042 56.780781
  endloop
 endfacet
 facet normal 0.933038 -0.000816 0.359776
  outer loop
   vertex -54.806416 -1530.201538 56.749302
   vertex -54.783314 -1503.743042 56.749367
   vertex -54.818527 -1530.201538 56.780712
  endloop
 endfacet
 facet normal -0.001068 -0.000002 0.999999
  outer loop
   vertex -54.231262 -1530.202026 56.749916
   vertex -54.783314 -1503.743042 56.749367
   vertex -54.806416 -1530.201538 56.749302
  endloop
 endfacet
 facet normal -0.000871 -1.000000 -0.000001
  outer loop
   vertex -54.969425 -1530.616699 55.291725
   vertex -54.130531 -1530.617432 56.798485
   vertex -54.971031 -1530.616699 56.797588
  endloop
 endfacet
 facet normal -0.001067 -0.000003 0.999999
  outer loop
   vertex -54.971031 -1530.616699 56.797588
   vertex -54.130531 -1530.617432 56.798485
   vertex -54.970158 -1529.616699 56.797592
  endloop
 endfacet
 facet normal -0.999999 0.000874 -0.001066
  outer loop
   vertex -54.970158 -1529.616699 56.797592
   vertex -54.968552 -1529.616699 55.291725
   vertex -54.971031 -1530.616699 56.797588
  endloop
 endfacet
 facet normal 0.000871 1.000000 0.000001
  outer loop
   vertex -54.129658 -1529.617432 56.798489
   vertex -54.968552 -1529.616699 55.291725
   vertex -54.970158 -1529.616699 56.797592
  endloop
 endfacet
 facet normal 0.000871 1.000000 0.000001
  outer loop
   vertex -54.128052 -1529.617432 55.292622
   vertex -54.968552 -1529.616699 55.291725
   vertex -54.129658 -1529.617432 56.798489
  endloop
 endfacet
 facet normal 0.999999 -0.000874 0.001066
  outer loop
   vertex -54.129658 -1529.617432 56.798489
   vertex -54.130531 -1530.617432 56.798485
   vertex -54.128052 -1529.617432 55.292622
  endloop
 endfacet
 facet normal 0.999999 -0.000874 0.001066
  outer loop
   vertex -54.128052 -1529.617432 55.292622
   vertex -54.130531 -1530.617432 56.798485
   vertex -54.128925 -1530.617432 55.292618
  endloop
 endfacet
 facet normal -0.000871 -1.000000 -0.000001
  outer loop
   vertex -54.128925 -1530.617432 55.292618
   vertex -54.130531 -1530.617432 56.798485
   vertex -54.969425 -1530.616699 55.291725
  endloop
 endfacet
 facet normal 0.001062 -0.000001 -0.999999
  outer loop
   vertex -54.969425 -1530.616699 55.291725
   vertex -54.968552 -1529.616699 55.291725
   vertex -54.128925 -1530.617432 55.292618
  endloop
 endfacet
 facet normal -0.999999 0.000874 -0.001066
  outer loop
   vertex -54.971031 -1530.616699 56.797588
   vertex -54.968552 -1529.616699 55.291725
   vertex -54.969425 -1530.616699 55.291725
  endloop
 endfacet
 facet normal -0.000871 -1.000000 -0.000001
  outer loop
   vertex -54.948078 -1504.327637 56.797657
   vertex -54.946472 -1504.327637 55.291790
   vertex -54.107578 -1504.328369 56.798553
  endloop
 endfacet
 facet normal -0.000871 -1.000000 -0.000001
  outer loop
   vertex -54.107578 -1504.328369 56.798553
   vertex -54.946472 -1504.327637 55.291790
   vertex -54.105972 -1504.328369 55.292686
  endloop
 endfacet
 facet normal 0.999999 -0.000874 0.001066
  outer loop
   vertex -54.105972 -1504.328369 55.292686
   vertex -54.105099 -1503.328369 55.292690
   vertex -54.107578 -1504.328369 56.798553
  endloop
 endfacet
 facet normal 0.001067 0.000003 -0.999999
  outer loop
   vertex -54.946472 -1504.327637 55.291790
   vertex -54.105099 -1503.328369 55.292690
   vertex -54.105972 -1504.328369 55.292686
  endloop
 endfacet
 facet normal 0.001067 0.000003 -0.999999
  outer loop
   vertex -54.945599 -1503.327637 55.291794
   vertex -54.105099 -1503.328369 55.292690
   vertex -54.946472 -1504.327637 55.291790
  endloop
 endfacet
 facet normal -0.999999 0.000874 -0.001066
  outer loop
   vertex -54.946472 -1504.327637 55.291790
   vertex -54.947205 -1503.327637 56.797661
   vertex -54.945599 -1503.327637 55.291794
  endloop
 endfacet
 facet normal 0.000871 1.000000 0.000001
  outer loop
   vertex -54.945599 -1503.327637 55.291794
   vertex -54.947205 -1503.327637 56.797661
   vertex -54.105099 -1503.328369 55.292690
  endloop
 endfacet
 facet normal 0.000871 1.000000 0.000001
  outer loop
   vertex -54.105099 -1503.328369 55.292690
   vertex -54.947205 -1503.327637 56.797661
   vertex -54.106705 -1503.328369 56.798553
  endloop
 endfacet
 facet normal 0.999999 -0.000874 0.001066
  outer loop
   vertex -54.106705 -1503.328369 56.798553
   vertex -54.107578 -1504.328369 56.798553
   vertex -54.105099 -1503.328369 55.292690
  endloop
 endfacet
 facet normal -0.001062 0.000001 0.999999
  outer loop
   vertex -54.947205 -1503.327637 56.797661
   vertex -54.107578 -1504.328369 56.798553
   vertex -54.106705 -1503.328369 56.798553
  endloop
 endfacet
 facet normal -0.001067 -0.000003 0.999999
  outer loop
   vertex -54.948078 -1504.327637 56.797657
   vertex -54.107578 -1504.328369 56.798553
   vertex -54.947205 -1503.327637 56.797661
  endloop
 endfacet
 facet normal -0.999999 0.000874 -0.001066
  outer loop
   vertex -54.947205 -1503.327637 56.797661
   vertex -54.946472 -1504.327637 55.291790
   vertex -54.948078 -1504.327637 56.797657
  endloop
 endfacet
 facet normal -0.999999 0.000873 -0.001039
  outer loop
   vertex -54.927380 -1503.742920 55.411610
   vertex -54.927273 -1503.742920 55.308853
   vertex -54.950375 -1530.201416 55.308784
  endloop
 endfacet
 facet normal 0.001058 0.000002 -0.999999
  outer loop
   vertex -54.950375 -1530.201416 55.308784
   vertex -54.927273 -1503.742920 55.308853
   vertex -54.793854 -1503.743042 55.308994
  endloop
 endfacet
 facet normal 0.001086 0.000002 -0.999999
  outer loop
   vertex -54.793854 -1503.743042 55.308994
   vertex -54.816956 -1530.201538 55.308929
   vertex -54.950375 -1530.201416 55.308784
  endloop
 endfacet
 facet normal 0.933823 -0.000814 -0.357733
  outer loop
   vertex -54.781811 -1503.743042 55.340431
   vertex -54.816956 -1530.201538 55.308929
   vertex -54.793854 -1503.743042 55.308994
  endloop
 endfacet
 facet normal 0.933809 -0.000814 -0.357771
  outer loop
   vertex -54.804913 -1530.201538 55.340363
   vertex -54.816956 -1530.201538 55.308929
   vertex -54.781811 -1503.743042 55.340431
  endloop
 endfacet
 facet normal 0.001068 0.000002 -0.999999
  outer loop
   vertex -54.781811 -1503.743042 55.340431
   vertex -54.206657 -1503.743530 55.341045
   vertex -54.804913 -1530.201538 55.340363
  endloop
 endfacet
 facet normal 0.001068 0.000002 -0.999999
  outer loop
   vertex -54.804913 -1530.201538 55.340363
   vertex -54.206657 -1503.743530 55.341045
   vertex -54.229759 -1530.202026 55.340977
  endloop
 endfacet
 facet normal -0.933038 0.000816 -0.359776
  outer loop
   vertex -54.229759 -1530.202026 55.340977
   vertex -54.206657 -1503.743530 55.341045
   vertex -54.194546 -1503.743530 55.309635
  endloop
 endfacet
 facet normal -0.933038 0.000816 -0.359776
  outer loop
   vertex -54.194546 -1503.743530 55.309635
   vertex -54.217648 -1530.202026 55.309566
   vertex -54.229759 -1530.202026 55.340977
  endloop
 endfacet
 facet normal 0.001037 0.000002 -0.999999
  outer loop
   vertex -54.128345 -1503.743652 55.309704
   vertex -54.217648 -1530.202026 55.309566
   vertex -54.194546 -1503.743530 55.309635
  endloop
 endfacet
 facet normal 0.001095 0.000001 -0.999999
  outer loop
   vertex -54.151447 -1530.202148 55.309639
   vertex -54.217648 -1530.202026 55.309566
   vertex -54.128345 -1503.743652 55.309704
  endloop
 endfacet
 facet normal 0.999999 -0.000873 0.001068
  outer loop
   vertex -54.128345 -1503.743652 55.309704
   vertex -54.129917 -1503.743652 56.781490
   vertex -54.151447 -1530.202148 55.309639
  endloop
 endfacet
 facet normal 0.999999 -0.000873 0.001068
  outer loop
   vertex -54.151447 -1530.202148 55.309639
   vertex -54.129917 -1503.743652 56.781490
   vertex -54.153019 -1530.202148 56.781422
  endloop
 endfacet
 facet normal -0.001095 -0.000002 0.999999
  outer loop
   vertex -54.153019 -1530.202148 56.781422
   vertex -54.129917 -1503.743652 56.781490
   vertex -54.219219 -1530.202026 56.781349
  endloop
 endfacet
 facet normal -0.001067 -0.000003 0.999999
  outer loop
   vertex -54.129658 -1529.617432 56.798489
   vertex -54.970158 -1529.616699 56.797592
   vertex -54.130531 -1530.617432 56.798485
  endloop
 endfacet
 facet normal 0.001067 0.000003 -0.999999
  outer loop
   vertex -54.968552 -1529.616699 55.291725
   vertex -54.128052 -1529.617432 55.292622
   vertex -54.128925 -1530.617432 55.292618
  endloop
 endfacet
 facet normal -0.001095 -0.000002 0.999999
  outer loop
   vertex -54.129917 -1503.743652 56.781490
   vertex -54.196117 -1503.743530 56.781418
   vertex -54.219219 -1530.202026 56.781349
  endloop
 endfacet
 facet normal -0.568635 0.759988 -0.314758
  outer loop
   vertex -53.165611 -1503.613770 56.046623
   vertex -52.164959 -1502.864624 56.047691
   vertex -53.165485 -1503.686890 55.869846
  endloop
 endfacet
 facet normal -0.568518 0.759925 -0.315123
  outer loop
   vertex -53.165485 -1503.686890 55.869846
   vertex -52.164959 -1502.864624 56.047691
   vertex -52.164459 -1503.157471 55.340584
  endloop
 endfacet
 facet normal -0.568419 0.314901 -0.760091
  outer loop
   vertex -52.164459 -1503.157471 55.340584
   vertex -53.165562 -1503.863770 55.796623
   vertex -53.165485 -1503.686890 55.869846
  endloop
 endfacet
 facet normal -0.568467 0.315027 -0.760002
  outer loop
   vertex -52.164764 -1503.864624 55.047691
   vertex -53.165562 -1503.863770 55.796623
   vertex -52.164459 -1503.157471 55.340584
  endloop
 endfacet
 facet normal -0.568999 -0.314084 -0.759995
  outer loop
   vertex -53.165794 -1504.040527 55.869846
   vertex -53.165562 -1503.863770 55.796623
   vertex -52.164764 -1503.864624 55.047691
  endloop
 endfacet
 facet normal -0.569000 -0.314080 -0.759995
  outer loop
   vertex -52.164764 -1503.864624 55.047691
   vertex -52.165695 -1504.571655 55.340580
   vertex -53.165794 -1504.040527 55.869846
  endloop
 endfacet
 facet normal -0.569848 -0.758882 -0.315232
  outer loop
   vertex -53.165794 -1504.040527 55.869846
   vertex -52.165695 -1504.571655 55.340580
   vertex -53.166046 -1504.113770 56.046623
  endloop
 endfacet
 facet normal -0.569848 -0.758882 -0.315232
  outer loop
   vertex -53.166046 -1504.113770 56.046623
   vertex -52.165695 -1504.571655 55.340580
   vertex -52.166702 -1504.864624 56.047688
  endloop
 endfacet
 facet normal -0.570519 -0.758883 0.314014
  outer loop
   vertex -52.166702 -1504.864624 56.047688
   vertex -53.166172 -1504.040527 56.223400
   vertex -53.166046 -1504.113770 56.046623
  endloop
 endfacet
 facet normal -0.570518 -0.758882 0.314017
  outer loop
   vertex -52.167202 -1504.571655 56.754795
   vertex -53.166172 -1504.040527 56.223400
   vertex -52.166702 -1504.864624 56.047688
  endloop
 endfacet
 facet normal -0.570618 -0.314083 0.758780
  outer loop
   vertex -53.166096 -1503.863770 56.296623
   vertex -53.166172 -1504.040527 56.223400
   vertex -52.167202 -1504.571655 56.754795
  endloop
 endfacet
 facet normal -0.570618 -0.314083 0.758780
  outer loop
   vertex -52.167202 -1504.571655 56.754795
   vertex -52.166897 -1503.864624 57.047688
   vertex -53.166096 -1503.863770 56.296623
  endloop
 endfacet
 facet normal -0.570115 0.314882 0.758827
  outer loop
   vertex -53.166096 -1503.863770 56.296623
   vertex -52.166897 -1503.864624 57.047688
   vertex -53.165863 -1503.686890 56.223400
  endloop
 endfacet
 facet normal -0.570068 0.315030 0.758801
  outer loop
   vertex -53.165863 -1503.686890 56.223400
   vertex -52.166897 -1503.864624 57.047688
   vertex -52.165966 -1503.157471 56.754799
  endloop
 endfacet
 facet normal -0.569117 0.760109 0.313593
  outer loop
   vertex -52.165966 -1503.157471 56.754799
   vertex -53.165611 -1503.613770 56.046623
   vertex -53.165863 -1503.686890 56.223400
  endloop
 endfacet
 facet normal -0.569235 0.759894 0.313897
  outer loop
   vertex -52.164959 -1502.864624 56.047691
   vertex -53.165611 -1503.613770 56.046623
   vertex -52.165966 -1503.157471 56.754799
  endloop
 endfacet
 facet normal 0.001198 0.924070 -0.382222
  outer loop
   vertex -54.178467 -1529.832886 56.045502
   vertex -53.178467 -1529.833740 56.046570
   vertex -54.178341 -1529.906006 55.868725
  endloop
 endfacet
 facet normal 0.001311 0.923844 -0.382766
  outer loop
   vertex -54.178341 -1529.906006 55.868725
   vertex -53.178467 -1529.833740 56.046570
   vertex -53.178341 -1529.906982 55.869793
  endloop
 endfacet
 facet normal 0.001360 0.382491 -0.923958
  outer loop
   vertex -53.178341 -1529.906982 55.869793
   vertex -54.178417 -1530.082886 55.795502
   vertex -54.178341 -1529.906006 55.868725
  endloop
 endfacet
 facet normal 0.001310 0.382734 -0.923858
  outer loop
   vertex -53.178417 -1530.083740 55.796566
   vertex -54.178417 -1530.082886 55.795502
   vertex -53.178341 -1529.906982 55.869793
  endloop
 endfacet
 facet normal 0.000656 -0.382718 -0.923865
  outer loop
   vertex -54.178650 -1530.259644 55.868725
   vertex -54.178417 -1530.082886 55.795502
   vertex -53.178417 -1530.083740 55.796566
  endloop
 endfacet
 facet normal 0.000656 -0.382718 -0.923865
  outer loop
   vertex -53.178417 -1530.083740 55.796566
   vertex -53.178650 -1530.260498 55.869789
   vertex -54.178650 -1530.259644 55.868725
  endloop
 endfacet
 facet normal -0.000382 -0.923845 -0.382768
  outer loop
   vertex -54.178650 -1530.259644 55.868725
   vertex -53.178650 -1530.260498 55.869789
   vertex -54.178902 -1530.332886 56.045502
  endloop
 endfacet
 facet normal -0.000382 -0.923845 -0.382768
  outer loop
   vertex -54.178902 -1530.332886 56.045502
   vertex -53.178650 -1530.260498 55.869789
   vertex -53.178905 -1530.333740 56.046566
  endloop
 endfacet
 facet normal -0.001197 -0.923844 0.382766
  outer loop
   vertex -53.178905 -1530.333740 56.046566
   vertex -54.179028 -1530.259644 56.222279
   vertex -54.178902 -1530.332886 56.045502
  endloop
 endfacet
 facet normal -0.001197 -0.923844 0.382766
  outer loop
   vertex -53.179028 -1530.260498 56.223343
   vertex -54.179028 -1530.259644 56.222279
   vertex -53.178905 -1530.333740 56.046566
  endloop
 endfacet
 facet normal -0.001310 -0.382717 0.923865
  outer loop
   vertex -54.178951 -1530.082886 56.295502
   vertex -54.179028 -1530.259644 56.222279
   vertex -53.179028 -1530.260498 56.223343
  endloop
 endfacet
 facet normal -0.001310 -0.382717 0.923865
  outer loop
   vertex -53.179028 -1530.260498 56.223343
   vertex -53.178951 -1530.083740 56.296566
   vertex -54.178951 -1530.082886 56.295502
  endloop
 endfacet
 facet normal -0.000657 0.382493 0.923958
  outer loop
   vertex -54.178951 -1530.082886 56.295502
   vertex -53.178951 -1530.083740 56.296566
   vertex -54.178719 -1529.906006 56.222279
  endloop
 endfacet
 facet normal -0.000610 0.382718 0.923865
  outer loop
   vertex -54.178719 -1529.906006 56.222279
   vertex -53.178951 -1530.083740 56.296566
   vertex -53.178719 -1529.906982 56.223343
  endloop
 endfacet
 facet normal 0.000496 0.924070 0.382223
  outer loop
   vertex -53.178719 -1529.906982 56.223343
   vertex -54.178467 -1529.832886 56.045502
   vertex -54.178719 -1529.906006 56.222279
  endloop
 endfacet
 facet normal 0.000381 0.923842 0.382775
  outer loop
   vertex -53.178467 -1529.833740 56.046570
   vertex -54.178467 -1529.832886 56.045502
   vertex -53.178719 -1529.906982 56.223343
  endloop
 endfacet
 facet normal 0.001197 0.923901 -0.382630
  outer loop
   vertex -52.187851 -1529.084595 56.047626
   vertex -51.187851 -1529.085449 56.048691
   vertex -52.187351 -1529.377441 55.340519
  endloop
 endfacet
 facet normal 0.001197 0.923901 -0.382630
  outer loop
   vertex -52.187351 -1529.377441 55.340519
   vertex -51.187851 -1529.085449 56.048691
   vertex -51.187355 -1529.378296 55.341583
  endloop
 endfacet
 facet normal 0.001310 0.382665 -0.923886
  outer loop
   vertex -51.187355 -1529.378296 55.341583
   vertex -52.187656 -1530.084595 55.047623
   vertex -52.187351 -1529.377441 55.340519
  endloop
 endfacet
 facet normal 0.001314 0.382660 -0.923888
  outer loop
   vertex -51.187660 -1530.085449 55.048691
   vertex -52.187656 -1530.084595 55.047623
   vertex -51.187355 -1529.378296 55.341583
  endloop
 endfacet
 facet normal 0.000660 -0.382718 -0.923865
  outer loop
   vertex -52.188587 -1530.791626 55.340515
   vertex -52.187656 -1530.084595 55.047623
   vertex -51.187660 -1530.085449 55.048691
  endloop
 endfacet
 facet normal 0.000610 -0.382657 -0.923890
  outer loop
   vertex -51.187660 -1530.085449 55.048691
   vertex -51.188587 -1530.792603 55.341579
   vertex -52.188587 -1530.791626 55.340515
  endloop
 endfacet
 facet normal -0.000495 -0.923844 -0.382770
  outer loop
   vertex -52.188587 -1530.791626 55.340515
   vertex -51.188587 -1530.792603 55.341579
   vertex -52.189598 -1531.084595 56.047619
  endloop
 endfacet
 facet normal -0.000381 -0.923901 -0.382632
  outer loop
   vertex -52.189598 -1531.084595 56.047619
   vertex -51.188587 -1530.792603 55.341579
   vertex -51.189598 -1531.085449 56.048687
  endloop
 endfacet
 facet normal -0.001198 -0.923901 0.382630
  outer loop
   vertex -51.189598 -1531.085449 56.048687
   vertex -52.190094 -1530.791748 56.754726
   vertex -52.189598 -1531.084595 56.047619
  endloop
 endfacet
 facet normal -0.001198 -0.923901 0.382630
  outer loop
   vertex -51.190098 -1530.792603 56.755795
   vertex -52.190094 -1530.791748 56.754726
   vertex -51.189598 -1531.085449 56.048687
  endloop
 endfacet
 facet normal -0.001314 -0.382665 0.923886
  outer loop
   vertex -52.189789 -1530.084595 57.047623
   vertex -52.190094 -1530.791748 56.754726
   vertex -51.190098 -1530.792603 56.755795
  endloop
 endfacet
 facet normal -0.001310 -0.382660 0.923888
  outer loop
   vertex -51.190098 -1530.792603 56.755795
   vertex -51.189793 -1530.085449 57.048687
   vertex -52.189789 -1530.084595 57.047623
  endloop
 endfacet
 facet normal -0.000656 0.382662 0.923888
  outer loop
   vertex -52.189789 -1530.084595 57.047623
   vertex -51.189793 -1530.085449 57.048687
   vertex -52.188862 -1529.377441 56.754730
  endloop
 endfacet
 facet normal -0.000660 0.382657 0.923890
  outer loop
   vertex -52.188862 -1529.377441 56.754730
   vertex -51.189793 -1530.085449 57.048687
   vertex -51.188862 -1529.378296 56.755798
  endloop
 endfacet
 facet normal 0.000381 0.923900 0.382633
  outer loop
   vertex -51.188862 -1529.378296 56.755798
   vertex -52.187851 -1529.084595 56.047626
   vertex -52.188862 -1529.377441 56.754730
  endloop
 endfacet
 facet normal 0.000382 0.923901 0.382632
  outer loop
   vertex -51.187851 -1529.085449 56.048691
   vertex -52.187851 -1529.084595 56.047626
   vertex -51.188862 -1529.378296 56.755798
  endloop
 endfacet
 facet normal -0.568542 0.759866 -0.315220
  outer loop
   vertex -53.188503 -1529.833740 56.046558
   vertex -52.187851 -1529.084595 56.047626
   vertex -53.188381 -1529.906982 55.869781
  endloop
 endfacet
 facet normal -0.568579 0.759886 -0.315106
  outer loop
   vertex -53.188381 -1529.906982 55.869781
   vertex -52.187851 -1529.084595 56.047626
   vertex -52.187351 -1529.377441 55.340519
  endloop
 endfacet
 facet normal -0.568482 0.315069 -0.759973
  outer loop
   vertex -52.187351 -1529.377441 55.340519
   vertex -53.188457 -1530.083740 55.796558
   vertex -53.188381 -1529.906982 55.869781
  endloop
 endfacet
 facet normal -0.568467 0.315030 -0.760001
  outer loop
   vertex -52.187656 -1530.084595 55.047623
   vertex -53.188457 -1530.083740 55.796558
   vertex -52.187351 -1529.377441 55.340519
  endloop
 endfacet
 facet normal -0.568999 -0.314084 -0.759994
  outer loop
   vertex -53.188690 -1530.260498 55.869781
   vertex -53.188457 -1530.083740 55.796558
   vertex -52.187656 -1530.084595 55.047623
  endloop
 endfacet
 facet normal -0.568999 -0.314084 -0.759994
  outer loop
   vertex -52.187656 -1530.084595 55.047623
   vertex -52.188587 -1530.791626 55.340515
   vertex -53.188690 -1530.260498 55.869781
  endloop
 endfacet
 facet normal -0.569848 -0.758880 -0.315237
  outer loop
   vertex -53.188690 -1530.260498 55.869781
   vertex -52.188587 -1530.791626 55.340515
   vertex -53.188942 -1530.333740 56.046555
  endloop
 endfacet
 facet normal -0.569848 -0.758881 -0.315236
  outer loop
   vertex -53.188942 -1530.333740 56.046555
   vertex -52.188587 -1530.791626 55.340515
   vertex -52.189598 -1531.084595 56.047619
  endloop
 endfacet
 facet normal -0.570517 -0.758880 0.314025
  outer loop
   vertex -52.189598 -1531.084595 56.047619
   vertex -53.189064 -1530.260498 56.223331
   vertex -53.188942 -1530.333740 56.046555
  endloop
 endfacet
 facet normal -0.570558 -0.758902 0.313897
  outer loop
   vertex -52.190094 -1530.791748 56.754726
   vertex -53.189064 -1530.260498 56.223331
   vertex -52.189598 -1531.084595 56.047619
  endloop
 endfacet
 facet normal -0.570649 -0.314100 0.758750
  outer loop
   vertex -53.188992 -1530.083740 56.296558
   vertex -53.189064 -1530.260498 56.223331
   vertex -52.190094 -1530.791748 56.754726
  endloop
 endfacet
 facet normal -0.570625 -0.314039 0.758793
  outer loop
   vertex -52.190094 -1530.791748 56.754726
   vertex -52.189789 -1530.084595 57.047623
   vertex -53.188992 -1530.083740 56.296558
  endloop
 endfacet
 facet normal -0.570075 0.315078 0.758776
  outer loop
   vertex -53.188992 -1530.083740 56.296558
   vertex -52.189789 -1530.084595 57.047623
   vertex -53.188759 -1529.906982 56.223335
  endloop
 endfacet
 facet normal -0.570092 0.315025 0.758785
  outer loop
   vertex -53.188759 -1529.906982 56.223335
   vertex -52.189789 -1530.084595 57.047623
   vertex -52.188862 -1529.377441 56.754730
  endloop
 endfacet
 facet normal -0.569272 0.759829 0.313989
  outer loop
   vertex -52.188862 -1529.377441 56.754730
   vertex -53.188503 -1529.833740 56.046558
   vertex -53.188759 -1529.906982 56.223335
  endloop
 endfacet
 facet normal -0.569236 0.759895 0.313896
  outer loop
   vertex -52.187851 -1529.084595 56.047626
   vertex -53.188503 -1529.833740 56.046558
   vertex -52.188862 -1529.377441 56.754730
  endloop
 endfacet
 facet normal 0.001196 0.924070 -0.382222
  outer loop
   vertex -54.155571 -1503.612915 56.045570
   vertex -53.155575 -1503.613770 56.046635
   vertex -54.155449 -1503.686035 55.868793
  endloop
 endfacet
 facet normal 0.001196 0.924070 -0.382222
  outer loop
   vertex -54.155449 -1503.686035 55.868793
   vertex -53.155575 -1503.613770 56.046635
   vertex -53.155449 -1503.686890 55.869858
  endloop
 endfacet
 facet normal 0.001310 0.382734 -0.923858
  outer loop
   vertex -53.155449 -1503.686890 55.869858
   vertex -54.155525 -1503.862793 55.795567
   vertex -54.155449 -1503.686035 55.868793
  endloop
 endfacet
 facet normal 0.001360 0.382491 -0.923958
  outer loop
   vertex -53.155525 -1503.863770 55.796635
   vertex -54.155525 -1503.862793 55.795567
   vertex -53.155449 -1503.686890 55.869858
  endloop
 endfacet
 facet normal 0.000613 -0.382493 -0.923958
  outer loop
   vertex -54.155758 -1504.039673 55.868790
   vertex -54.155525 -1503.862793 55.795567
   vertex -53.155525 -1503.863770 55.796635
  endloop
 endfacet
 facet normal 0.000660 -0.382718 -0.923865
  outer loop
   vertex -53.155525 -1503.863770 55.796635
   vertex -53.155758 -1504.040527 55.869858
   vertex -54.155758 -1504.039673 55.868790
  endloop
 endfacet
 facet normal -0.000381 -0.923845 -0.382768
  outer loop
   vertex -54.155758 -1504.039673 55.868790
   vertex -53.155758 -1504.040527 55.869858
   vertex -54.156010 -1504.112915 56.045567
  endloop
 endfacet
 facet normal -0.000381 -0.923845 -0.382768
  outer loop
   vertex -54.156010 -1504.112915 56.045567
   vertex -53.155758 -1504.040527 55.869858
   vertex -53.156010 -1504.113770 56.046635
  endloop
 endfacet
 facet normal -0.001198 -0.923844 0.382766
  outer loop
   vertex -53.156010 -1504.113770 56.046635
   vertex -54.156132 -1504.039673 56.222343
   vertex -54.156010 -1504.112915 56.045567
  endloop
 endfacet
 facet normal -0.001198 -0.923844 0.382766
  outer loop
   vertex -53.156136 -1504.040527 56.223412
   vertex -54.156132 -1504.039673 56.222343
   vertex -53.156010 -1504.113770 56.046635
  endloop
 endfacet
 facet normal -0.001314 -0.382717 0.923865
  outer loop
   vertex -54.156055 -1503.862915 56.295567
   vertex -54.156132 -1504.039673 56.222343
   vertex -53.156136 -1504.040527 56.223412
  endloop
 endfacet
 facet normal -0.001314 -0.382717 0.923865
  outer loop
   vertex -53.156136 -1504.040527 56.223412
   vertex -53.156059 -1503.863770 56.296635
   vertex -54.156055 -1503.862915 56.295567
  endloop
 endfacet
 facet normal -0.000660 0.382493 0.923958
  outer loop
   vertex -54.156055 -1503.862915 56.295567
   vertex -53.156059 -1503.863770 56.296635
   vertex -54.155827 -1503.686035 56.222343
  endloop
 endfacet
 facet normal -0.000613 0.382718 0.923865
  outer loop
   vertex -54.155827 -1503.686035 56.222343
   vertex -53.156059 -1503.863770 56.296635
   vertex -53.155827 -1503.687012 56.223412
  endloop
 endfacet
 facet normal 0.000494 0.924067 0.382230
  outer loop
   vertex -53.155827 -1503.687012 56.223412
   vertex -54.155571 -1503.612915 56.045570
   vertex -54.155827 -1503.686035 56.222343
  endloop
 endfacet
 facet normal 0.000382 0.923845 0.382768
  outer loop
   vertex -53.155575 -1503.613770 56.046635
   vertex -54.155571 -1503.612915 56.045570
   vertex -53.155827 -1503.687012 56.223412
  endloop
 endfacet
 facet normal 0.000382 0.923901 0.382632
  outer loop
   vertex -52.165966 -1503.157471 56.754799
   vertex -51.165966 -1503.158325 56.755863
   vertex -52.164959 -1502.864624 56.047691
  endloop
 endfacet
 facet normal 0.000381 0.923900 0.382633
  outer loop
   vertex -52.164959 -1502.864624 56.047691
   vertex -51.165966 -1503.158325 56.755863
   vertex -51.164959 -1502.865479 56.048759
  endloop
 endfacet
 facet normal 0.001198 0.923901 -0.382630
  outer loop
   vertex -51.164959 -1502.865479 56.048759
   vertex -52.164459 -1503.157471 55.340584
   vertex -52.164959 -1502.864624 56.047691
  endloop
 endfacet
 facet normal 0.001198 0.923901 -0.382630
  outer loop
   vertex -51.164459 -1503.158325 55.341652
   vertex -52.164459 -1503.157471 55.340584
   vertex -51.164959 -1502.865479 56.048759
  endloop
 endfacet
 facet normal 0.001314 0.382660 -0.923888
  outer loop
   vertex -52.164764 -1503.864624 55.047691
   vertex -52.164459 -1503.157471 55.340584
   vertex -51.164459 -1503.158325 55.341652
  endloop
 endfacet
 facet normal 0.001310 0.382665 -0.923886
  outer loop
   vertex -51.164459 -1503.158325 55.341652
   vertex -51.164764 -1503.865479 55.048756
   vertex -52.164764 -1503.864624 55.047691
  endloop
 endfacet
 facet normal 0.000656 -0.382714 -0.923867
  outer loop
   vertex -52.164764 -1503.864624 55.047691
   vertex -51.164764 -1503.865479 55.048756
   vertex -52.165695 -1504.571655 55.340580
  endloop
 endfacet
 facet normal 0.000660 -0.382718 -0.923865
  outer loop
   vertex -52.165695 -1504.571655 55.340580
   vertex -51.164764 -1503.865479 55.048756
   vertex -51.165695 -1504.572510 55.341648
  endloop
 endfacet
 facet normal -0.000381 -0.923845 -0.382768
  outer loop
   vertex -51.165695 -1504.572510 55.341648
   vertex -52.166702 -1504.864624 56.047688
   vertex -52.165695 -1504.571655 55.340580
  endloop
 endfacet
 facet normal -0.000382 -0.923844 -0.382770
  outer loop
   vertex -51.166706 -1504.865479 56.048752
   vertex -52.166702 -1504.864624 56.047688
   vertex -51.165695 -1504.572510 55.341648
  endloop
 endfacet
 facet normal -0.001197 -0.923844 0.382766
  outer loop
   vertex -52.167202 -1504.571655 56.754795
   vertex -52.166702 -1504.864624 56.047688
   vertex -51.166706 -1504.865479 56.048752
  endloop
 endfacet
 facet normal -0.001309 -0.923901 0.382630
  outer loop
   vertex -51.166706 -1504.865479 56.048752
   vertex -51.167202 -1504.572632 56.755859
   vertex -52.167202 -1504.571655 56.754795
  endloop
 endfacet
 facet normal -0.001357 -0.382717 0.923865
  outer loop
   vertex -52.167202 -1504.571655 56.754795
   vertex -51.167202 -1504.572632 56.755859
   vertex -52.166897 -1503.864624 57.047688
  endloop
 endfacet
 facet normal -0.001314 -0.382665 0.923886
  outer loop
   vertex -52.166897 -1503.864624 57.047688
   vertex -51.167202 -1504.572632 56.755859
   vertex -51.166897 -1503.865479 57.048756
  endloop
 endfacet
 facet normal -0.000660 0.382657 0.923890
  outer loop
   vertex -51.166897 -1503.865479 57.048756
   vertex -52.165966 -1503.157471 56.754799
   vertex -52.166897 -1503.864624 57.047688
  endloop
 endfacet
 facet normal -0.000656 0.382662 0.923888
  outer loop
   vertex -51.165966 -1503.158325 56.755863
   vertex -52.165966 -1503.157471 56.754799
   vertex -51.166897 -1503.865479 57.048756
  endloop
 endfacet
endsolid