solid stl file generated from DOUG
 facet normal 0.000000 0.963292 -0.268454
  outer loop
   vertex -370.356995 26.888563 184.655243
   vertex -370.356995 26.925125 184.786438
   vertex -361.107483 26.925125 184.786438
  endloop
 endfacet
 facet normal -0.000000 0.788031 0.615635
  outer loop
   vertex -361.107483 26.925125 184.786438
   vertex -370.356995 26.925125 184.786438
   vertex -361.107483 26.861862 184.867416
  endloop
 endfacet
 facet normal 0.000000 -0.027450 0.999623
  outer loop
   vertex -361.107483 27.568583 183.784866
   vertex -361.107483 27.704720 183.788605
   vertex -370.356995 27.704720 183.788605
  endloop
 endfacet
 facet normal 0.000000 0.788031 0.615635
  outer loop
   vertex -370.356995 27.704720 183.788605
   vertex -361.107483 27.704720 183.788605
   vertex -361.107483 27.767982 183.707626
  endloop
 endfacet
 facet normal -0.000000 0.788031 0.615635
  outer loop
   vertex -361.107483 27.767982 183.707626
   vertex -370.356995 27.767982 183.707626
   vertex -370.356995 27.704720 183.788605
  endloop
 endfacet
 facet normal -0.000000 0.956411 0.292023
  outer loop
   vertex -361.107483 27.190588 183.256516
   vertex -370.356995 27.190588 183.256516
   vertex -361.107483 27.180758 183.288712
  endloop
 endfacet
 facet normal -0.000000 0.956411 0.292023
  outer loop
   vertex -361.107483 27.180758 183.288712
   vertex -370.356995 27.190588 183.256516
   vertex -370.356995 27.180758 183.288712
  endloop
 endfacet
 facet normal 0.000000 0.615671 -0.788003
  outer loop
   vertex -370.356995 27.180758 183.288712
   vertex -370.356995 27.633987 183.642822
   vertex -361.107483 27.180758 183.288712
  endloop
 endfacet
 facet normal 0.000000 0.963292 -0.268454
  outer loop
   vertex -361.107483 26.925125 184.786438
   vertex -361.107483 26.888563 184.655243
   vertex -370.356995 26.888563 184.655243
  endloop
 endfacet
 facet normal 0.000000 0.788008 0.615665
  outer loop
   vertex -370.356995 26.888563 184.655243
   vertex -361.107483 26.888563 184.655243
   vertex -361.107483 27.568583 183.784866
  endloop
 endfacet
 facet normal -0.000000 0.788008 0.615665
  outer loop
   vertex -361.107483 27.568583 183.784866
   vertex -370.356995 27.568583 183.784866
   vertex -370.356995 26.888563 184.655243
  endloop
 endfacet
 facet normal -0.000000 -0.027450 0.999623
  outer loop
   vertex -370.356995 27.704720 183.788605
   vertex -370.356995 27.568583 183.784866
   vertex -361.107483 27.568583 183.784866
  endloop
 endfacet
 facet normal 0.000000 0.615657 -0.788014
  outer loop
   vertex -370.356995 27.767982 183.707626
   vertex -361.107483 27.767982 183.707626
   vertex -370.356995 27.662849 183.625488
  endloop
 endfacet
 facet normal -0.000000 0.615657 -0.788014
  outer loop
   vertex -370.356995 27.662849 183.625488
   vertex -361.107483 27.767982 183.707626
   vertex -361.107483 27.662849 183.625488
  endloop
 endfacet
 facet normal 0.000000 -0.514862 -0.857273
  outer loop
   vertex -361.107483 27.662849 183.625488
   vertex -370.356995 27.633987 183.642822
   vertex -370.356995 27.662849 183.625488
  endloop
 endfacet
 facet normal -0.000001 -0.514529 -0.857473
  outer loop
   vertex -361.107483 27.633987 183.642807
   vertex -370.356995 27.633987 183.642822
   vertex -361.107483 27.662849 183.625488
  endloop
 endfacet
 facet normal -0.000001 0.615654 -0.788016
  outer loop
   vertex -361.107483 27.180758 183.288712
   vertex -370.356995 27.633987 183.642822
   vertex -361.107483 27.633987 183.642807
  endloop
 endfacet
 facet normal 1.000000 0.000000 -0.000000
  outer loop
   vertex -360.569122 26.866112 184.892349
   vertex -360.569122 27.130892 183.188248
   vertex -360.569122 27.793217 183.705719
  endloop
 endfacet
 facet normal -0.000000 0.615666 -0.788007
  outer loop
   vertex -360.569122 27.793217 183.705719
   vertex -360.569122 27.130892 183.188248
   vertex -361.569122 27.793217 183.705719
  endloop
 endfacet
 facet normal 0.000000 0.788008 0.615665
  outer loop
   vertex -361.569122 27.793217 183.705719
   vertex -361.569122 26.866112 184.892349
   vertex -360.569122 27.793217 183.705719
  endloop
 endfacet
 facet normal -1.000000 -0.000000 -0.000000
  outer loop
   vertex -361.569122 27.130892 183.188248
   vertex -361.569122 26.866112 184.892349
   vertex -361.569122 27.793217 183.705719
  endloop
 endfacet
 facet normal -1.000000 0.000000 -0.000000
  outer loop
   vertex -361.569122 26.203789 184.374893
   vertex -361.569122 26.866112 184.892349
   vertex -361.569122 27.130892 183.188248
  endloop
 endfacet
 facet normal -0.000000 -0.788013 -0.615659
  outer loop
   vertex -361.569122 27.130892 183.188248
   vertex -360.569122 27.130892 183.188248
   vertex -361.569122 26.203789 184.374893
  endloop
 endfacet
 facet normal 0.000000 -0.788013 -0.615659
  outer loop
   vertex -361.569122 26.203789 184.374893
   vertex -360.569122 27.130892 183.188248
   vertex -360.569122 26.203789 184.374893
  endloop
 endfacet
 facet normal 1.000000 -0.000000 -0.000000
  outer loop
   vertex -360.569122 26.203789 184.374893
   vertex -360.569122 27.130892 183.188248
   vertex -360.569122 26.866112 184.892349
  endloop
 endfacet
 facet normal 0.000000 -0.615656 0.788015
  outer loop
   vertex -360.569122 26.866112 184.892349
   vertex -361.569122 26.866112 184.892349
   vertex -360.569122 26.203789 184.374893
  endloop
 endfacet
 facet normal -0.000000 0.788008 0.615665
  outer loop
   vertex -360.569122 27.793217 183.705719
   vertex -361.569122 26.866112 184.892349
   vertex -360.569122 26.866112 184.892349
  endloop
 endfacet
 facet normal 1.000000 0.000000 0.000000
  outer loop
   vertex -369.895355 27.793217 183.705719
   vertex -369.895355 26.866112 184.892349
   vertex -369.895355 27.130892 183.188248
  endloop
 endfacet
 facet normal 1.000000 -0.000000 0.000000
  outer loop
   vertex -369.895355 27.130892 183.188248
   vertex -369.895355 26.866112 184.892349
   vertex -369.895355 26.203789 184.374893
  endloop
 endfacet
 facet normal 0.000000 -0.788013 -0.615659
  outer loop
   vertex -369.895355 26.203789 184.374893
   vertex -370.895355 26.203789 184.374893
   vertex -369.895355 27.130892 183.188248
  endloop
 endfacet
 facet normal -0.000000 -0.615656 0.788015
  outer loop
   vertex -369.895355 26.866112 184.892349
   vertex -370.895355 26.203789 184.374893
   vertex -369.895355 26.203789 184.374893
  endloop
 endfacet
 facet normal 0.000000 -0.615656 0.788015
  outer loop
   vertex -370.895355 26.866112 184.892349
   vertex -370.895355 26.203789 184.374893
   vertex -369.895355 26.866112 184.892349
  endloop
 endfacet
 facet normal -0.000000 0.788008 0.615665
  outer loop
   vertex -369.895355 26.866112 184.892349
   vertex -370.895355 27.793217 183.705719
   vertex -370.895355 26.866112 184.892349
  endloop
 endfacet
 facet normal -1.000000 0.000000 0.000000
  outer loop
   vertex -370.895355 26.866112 184.892349
   vertex -370.895355 27.793217 183.705719
   vertex -370.895355 26.203789 184.374893
  endloop
 endfacet
 facet normal -1.000000 -0.000000 -0.000000
  outer loop
   vertex -370.895355 26.203789 184.374893
   vertex -370.895355 27.793217 183.705719
   vertex -370.895355 27.130892 183.188248
  endloop
 endfacet
 facet normal -0.000000 -0.788013 -0.615659
  outer loop
   vertex -370.895355 27.130892 183.188248
   vertex -369.895355 27.130892 183.188248
   vertex -370.895355 26.203789 184.374893
  endloop
 endfacet
 facet normal -0.000000 0.615666 -0.788007
  outer loop
   vertex -370.895355 27.793217 183.705719
   vertex -369.895355 27.130892 183.188248
   vertex -370.895355 27.130892 183.188248
  endloop
 endfacet
 facet normal 0.000000 0.615666 -0.788007
  outer loop
   vertex -369.895355 27.793217 183.705719
   vertex -369.895355 27.130892 183.188248
   vertex -370.895355 27.793217 183.705719
  endloop
 endfacet
 facet normal -0.000000 0.788008 0.615665
  outer loop
   vertex -370.895355 27.793217 183.705719
   vertex -369.895355 26.866112 184.892349
   vertex -369.895355 27.793217 183.705719
  endloop
 endfacet
 facet normal -0.000000 0.788031 0.615635
  outer loop
   vertex -370.356995 26.925125 184.786438
   vertex -370.356995 26.861862 184.867416
   vertex -361.107483 26.861862 184.867416
  endloop
 endfacet
 facet normal -0.000000 -0.615721 0.787964
  outer loop
   vertex -361.107483 26.861862 184.867416
   vertex -370.356995 26.861862 184.867416
   vertex -370.356995 26.756727 184.785263
  endloop
 endfacet
 facet normal 0.000000 -0.615721 0.787964
  outer loop
   vertex -370.356995 26.756727 184.785263
   vertex -361.107483 26.756727 184.785263
   vertex -361.107483 26.861862 184.867416
  endloop
 endfacet
 facet normal -0.000000 -0.956411 -0.292023
  outer loop
   vertex -370.356995 26.766558 184.753067
   vertex -361.107483 26.756727 184.785263
   vertex -370.356995 26.756727 184.785263
  endloop
 endfacet
 facet normal 0.000000 -0.956411 -0.292023
  outer loop
   vertex -361.107483 26.766558 184.753067
   vertex -361.107483 26.756727 184.785263
   vertex -370.356995 26.766558 184.753067
  endloop
 endfacet
 facet normal -0.000000 -0.615654 0.788016
  outer loop
   vertex -370.356995 26.766558 184.753067
   vertex -370.356995 26.313328 184.398972
   vertex -361.107483 26.766558 184.753067
  endloop
 endfacet
 facet normal 0.000000 -0.615654 0.788016
  outer loop
   vertex -361.107483 26.766558 184.753067
   vertex -370.356995 26.313328 184.398972
   vertex -361.107483 26.313328 184.398972
  endloop
 endfacet
 facet normal -0.000000 0.514862 0.857273
  outer loop
   vertex -361.107483 26.313328 184.398972
   vertex -370.356995 26.313328 184.398972
   vertex -370.356995 26.284466 184.416306
  endloop
 endfacet
 facet normal 0.000001 0.514529 0.857473
  outer loop
   vertex -370.356995 26.284466 184.416306
   vertex -361.107483 26.284466 184.416290
   vertex -361.107483 26.313328 184.398972
  endloop
 endfacet
 facet normal 0.000001 -0.615659 0.788013
  outer loop
   vertex -370.356995 26.232300 184.375549
   vertex -361.107483 26.284466 184.416290
   vertex -370.356995 26.284466 184.416306
  endloop
 endfacet
 facet normal 0.000001 -0.615659 0.788013
  outer loop
   vertex -361.107483 26.232300 184.375534
   vertex -361.107483 26.284466 184.416290
   vertex -370.356995 26.232300 184.375549
  endloop
 endfacet
 facet normal -0.000001 -0.788013 -0.615659
  outer loop
   vertex -370.356995 26.232300 184.375549
   vertex -370.356995 27.138420 183.215759
   vertex -361.107483 26.232300 184.375534
  endloop
 endfacet
 facet normal 0.000000 -0.788009 -0.615664
  outer loop
   vertex -361.107483 26.232300 184.375534
   vertex -370.356995 27.138420 183.215759
   vertex -361.107483 27.138420 183.215759
  endloop
 endfacet
 facet normal -0.000000 0.615645 -0.788024
  outer loop
   vertex -361.107483 27.138420 183.215759
   vertex -370.356995 27.138420 183.215759
   vertex -361.107483 27.190588 183.256516
  endloop
 endfacet
 facet normal 0.000000 0.615666 -0.788007
  outer loop
   vertex -361.569122 27.130892 183.188248
   vertex -361.569122 27.793217 183.705719
   vertex -360.569122 27.130892 183.188248
  endloop
 endfacet
 facet normal 0.000000 -0.615656 0.788015
  outer loop
   vertex -361.569122 26.866112 184.892349
   vertex -361.569122 26.203789 184.374893
   vertex -360.569122 26.203789 184.374893
  endloop
 endfacet
 facet normal 0.000000 0.615645 -0.788024
  outer loop
   vertex -370.356995 27.138420 183.215759
   vertex -370.356995 27.190588 183.256516
   vertex -361.107483 27.190588 183.256516
  endloop
 endfacet
 facet normal -0.923886 -0.235593 0.301545
  outer loop
   vertex -371.407227 25.138174 182.586853
   vertex -371.407227 24.350164 181.971191
   vertex -371.114349 24.702837 183.144058
  endloop
 endfacet
 facet normal -0.923887 -0.235593 0.301545
  outer loop
   vertex -371.114349 24.702837 183.144058
   vertex -371.407227 24.350164 181.971191
   vertex -371.114349 23.914825 182.528397
  endloop
 endfacet
 facet normal -0.382678 -0.568798 0.728029
  outer loop
   vertex -371.114349 23.914825 182.528397
   vertex -370.407227 24.522512 183.374863
   vertex -371.114349 24.702837 183.144058
  endloop
 endfacet
 facet normal -0.382677 -0.568799 0.728029
  outer loop
   vertex -370.407227 23.734503 182.759201
   vertex -370.407227 24.522512 183.374863
   vertex -371.114349 23.914825 182.528397
  endloop
 endfacet
 facet normal 0.382692 -0.568795 0.728024
  outer loop
   vertex -369.700134 24.702837 183.144058
   vertex -370.407227 24.522512 183.374863
   vertex -370.407227 23.734503 182.759201
  endloop
 endfacet
 facet normal 0.382691 -0.568795 0.728025
  outer loop
   vertex -370.407227 23.734503 182.759201
   vertex -369.700134 23.914825 182.528397
   vertex -369.700134 24.702837 183.144058
  endloop
 endfacet
 facet normal 0.923872 -0.235614 0.301573
  outer loop
   vertex -369.700134 24.702837 183.144058
   vertex -369.700134 23.914825 182.528397
   vertex -369.407227 25.138174 182.586853
  endloop
 endfacet
 facet normal 0.923873 -0.235614 0.301572
  outer loop
   vertex -369.407227 25.138174 182.586853
   vertex -369.700134 23.914825 182.528397
   vertex -369.407227 24.350164 181.971191
  endloop
 endfacet
 facet normal 0.923873 0.235614 -0.301572
  outer loop
   vertex -369.407227 24.350164 181.971191
   vertex -369.700134 25.573513 182.029648
   vertex -369.407227 25.138174 182.586853
  endloop
 endfacet
 facet normal 0.923872 0.235614 -0.301573
  outer loop
   vertex -369.700134 24.785501 181.413986
   vertex -369.700134 25.573513 182.029648
   vertex -369.407227 24.350164 181.971191
  endloop
 endfacet
 facet normal 0.382691 0.568795 -0.728025
  outer loop
   vertex -370.407227 25.753836 181.798843
   vertex -369.700134 25.573513 182.029648
   vertex -369.700134 24.785501 181.413986
  endloop
 endfacet
 facet normal 0.382692 0.568795 -0.728024
  outer loop
   vertex -369.700134 24.785501 181.413986
   vertex -370.407227 24.965826 181.183182
   vertex -370.407227 25.753836 181.798843
  endloop
 endfacet
 facet normal -0.382677 0.568799 -0.728029
  outer loop
   vertex -370.407227 25.753836 181.798843
   vertex -370.407227 24.965826 181.183182
   vertex -371.114349 25.573513 182.029648
  endloop
 endfacet
 facet normal -0.382678 0.568798 -0.728029
  outer loop
   vertex -371.114349 25.573513 182.029648
   vertex -370.407227 24.965826 181.183182
   vertex -371.114349 24.785501 181.413986
  endloop
 endfacet
 facet normal -0.923887 0.235593 -0.301545
  outer loop
   vertex -371.114349 24.785501 181.413986
   vertex -371.407227 25.138174 182.586853
   vertex -371.114349 25.573513 182.029648
  endloop
 endfacet
 facet normal -0.923886 0.235593 -0.301545
  outer loop
   vertex -371.407227 24.350164 181.971191
   vertex -371.407227 25.138174 182.586853
   vertex -371.114349 24.785501 181.413986
  endloop
 endfacet
 facet normal 0.923898 0.235577 -0.301524
  outer loop
   vertex -360.880463 26.027109 183.057037
   vertex -360.807251 26.706285 183.811996
   vertex -360.807251 25.918276 183.196335
  endloop
 endfacet
 facet normal 0.923898 -0.235577 0.301524
  outer loop
   vertex -360.807251 25.918276 183.196335
   vertex -360.807251 26.706285 183.811996
   vertex -360.880463 26.597452 183.951294
  endloop
 endfacet
 facet normal 0.923899 -0.235575 0.301522
  outer loop
   vertex -360.880463 26.597452 183.951294
   vertex -360.880463 25.809441 183.335632
   vertex -360.807251 25.918276 183.196335
  endloop
 endfacet
 facet normal 0.382694 -0.568794 0.728024
  outer loop
   vertex -361.057251 26.552370 184.009003
   vertex -360.880463 25.809441 183.335632
   vertex -360.880463 26.597452 183.951294
  endloop
 endfacet
 facet normal 0.382688 -0.568796 0.728025
  outer loop
   vertex -361.057251 25.764360 183.393341
   vertex -360.880463 25.809441 183.335632
   vertex -361.057251 26.552370 184.009003
  endloop
 endfacet
 facet normal -0.382750 -0.568781 0.728005
  outer loop
   vertex -361.057251 26.552370 184.009003
   vertex -361.234009 26.597452 183.951294
   vertex -361.057251 25.764360 183.393341
  endloop
 endfacet
 facet normal -0.382745 -0.568781 0.728007
  outer loop
   vertex -361.057251 25.764360 183.393341
   vertex -361.234009 26.597452 183.951294
   vertex -361.234009 25.809441 183.335632
  endloop
 endfacet
 facet normal -0.923841 -0.235660 0.301631
  outer loop
   vertex -361.234009 25.809441 183.335632
   vertex -361.234009 26.597452 183.951294
   vertex -361.307251 26.706285 183.811996
  endloop
 endfacet
 facet normal -0.923842 -0.235659 0.301629
  outer loop
   vertex -361.307251 26.706285 183.811996
   vertex -361.307251 25.918276 183.196335
   vertex -361.234009 25.809441 183.335632
  endloop
 endfacet
 facet normal -0.923842 0.235659 -0.301629
  outer loop
   vertex -361.234009 26.815121 183.672699
   vertex -361.307251 25.918276 183.196335
   vertex -361.307251 26.706285 183.811996
  endloop
 endfacet
 facet normal -0.923841 0.235660 -0.301631
  outer loop
   vertex -361.234009 26.027109 183.057037
   vertex -361.307251 25.918276 183.196335
   vertex -361.234009 26.815121 183.672699
  endloop
 endfacet
 facet normal -0.382745 0.568781 -0.728007
  outer loop
   vertex -361.234009 26.815121 183.672699
   vertex -361.057251 26.860201 183.614990
   vertex -361.234009 26.027109 183.057037
  endloop
 endfacet
 facet normal -0.382750 0.568781 -0.728005
  outer loop
   vertex -361.234009 26.027109 183.057037
   vertex -361.057251 26.860201 183.614990
   vertex -361.057251 26.072191 182.999329
  endloop
 endfacet
 facet normal 0.382688 0.568796 -0.728025
  outer loop
   vertex -361.057251 26.072191 182.999329
   vertex -361.057251 26.860201 183.614990
   vertex -360.880463 26.815121 183.672699
  endloop
 endfacet
 facet normal 0.382694 0.568794 -0.728024
  outer loop
   vertex -360.880463 26.815121 183.672699
   vertex -360.880463 26.027109 183.057037
   vertex -361.057251 26.072191 182.999329
  endloop
 endfacet
 facet normal 0.923899 0.235575 -0.301522
  outer loop
   vertex -360.807251 26.706285 183.811996
   vertex -360.880463 26.027109 183.057037
   vertex -360.880463 26.815121 183.672699
  endloop
 endfacet
 facet normal 0.923886 0.235593 -0.301545
  outer loop
   vertex -360.350128 24.785501 181.413986
   vertex -360.057251 25.138174 182.586853
   vertex -360.057251 24.350164 181.971191
  endloop
 endfacet
 facet normal 0.923886 -0.235593 0.301545
  outer loop
   vertex -360.057251 24.350164 181.971191
   vertex -360.057251 25.138174 182.586853
   vertex -360.350128 24.702837 183.144058
  endloop
 endfacet
 facet normal 0.923887 -0.235593 0.301545
  outer loop
   vertex -360.350128 24.702837 183.144058
   vertex -360.350128 23.914825 182.528397
   vertex -360.057251 24.350164 181.971191
  endloop
 endfacet
 facet normal 0.382678 -0.568798 0.728029
  outer loop
   vertex -361.057251 24.522512 183.374863
   vertex -360.350128 23.914825 182.528397
   vertex -360.350128 24.702837 183.144058
  endloop
 endfacet
 facet normal 0.382677 -0.568799 0.728029
  outer loop
   vertex -361.057251 23.734503 182.759201
   vertex -360.350128 23.914825 182.528397
   vertex -361.057251 24.522512 183.374863
  endloop
 endfacet
 facet normal -0.382692 -0.568795 0.728024
  outer loop
   vertex -361.057251 24.522512 183.374863
   vertex -361.764343 24.702837 183.144058
   vertex -361.057251 23.734503 182.759201
  endloop
 endfacet
 facet normal -0.382691 -0.568795 0.728025
  outer loop
   vertex -361.057251 23.734503 182.759201
   vertex -361.764343 24.702837 183.144058
   vertex -361.764343 23.914825 182.528397
  endloop
 endfacet
 facet normal -0.923872 -0.235614 0.301573
  outer loop
   vertex -361.764343 23.914825 182.528397
   vertex -361.764343 24.702837 183.144058
   vertex -362.057251 25.138174 182.586853
  endloop
 endfacet
 facet normal -0.923873 -0.235614 0.301572
  outer loop
   vertex -362.057251 25.138174 182.586853
   vertex -362.057251 24.350164 181.971191
   vertex -361.764343 23.914825 182.528397
  endloop
 endfacet
 facet normal -0.923873 0.235614 -0.301572
  outer loop
   vertex -361.764343 25.573513 182.029648
   vertex -362.057251 24.350164 181.971191
   vertex -362.057251 25.138174 182.586853
  endloop
 endfacet
 facet normal -0.923872 0.235614 -0.301573
  outer loop
   vertex -361.764343 24.785501 181.413986
   vertex -362.057251 24.350164 181.971191
   vertex -361.764343 25.573513 182.029648
  endloop
 endfacet
 facet normal -0.382691 0.568795 -0.728025
  outer loop
   vertex -361.764343 25.573513 182.029648
   vertex -361.057251 25.753836 181.798843
   vertex -361.764343 24.785501 181.413986
  endloop
 endfacet
 facet normal -0.382692 0.568795 -0.728024
  outer loop
   vertex -361.764343 24.785501 181.413986
   vertex -361.057251 25.753836 181.798843
   vertex -361.057251 24.965826 181.183182
  endloop
 endfacet
 facet normal 0.382677 0.568799 -0.728029
  outer loop
   vertex -361.057251 24.965826 181.183182
   vertex -361.057251 25.753836 181.798843
   vertex -360.350128 25.573513 182.029648
  endloop
 endfacet
 facet normal 0.382678 0.568798 -0.728029
  outer loop
   vertex -360.350128 25.573513 182.029648
   vertex -360.350128 24.785501 181.413986
   vertex -361.057251 24.965826 181.183182
  endloop
 endfacet
 facet normal 0.923887 0.235593 -0.301545
  outer loop
   vertex -360.057251 25.138174 182.586853
   vertex -360.350128 24.785501 181.413986
   vertex -360.350128 25.573513 182.029648
  endloop
 endfacet
 facet normal 0.759397 0.642456 0.102792
  outer loop
   vertex -360.350128 25.573513 182.029648
   vertex -360.807251 25.926186 183.202515
   vertex -360.057251 25.138174 182.586853
  endloop
 endfacet
 facet normal 0.759401 0.255174 0.598495
  outer loop
   vertex -360.057251 25.138174 182.586853
   vertex -360.807251 25.926186 183.202515
   vertex -360.880463 25.817350 183.341812
  endloop
 endfacet
 facet normal 0.759398 0.255159 0.598506
  outer loop
   vertex -360.880463 25.817350 183.341812
   vertex -360.350128 24.702837 183.144058
   vertex -360.057251 25.138174 182.586853
  endloop
 endfacet
 facet normal 0.314568 -0.018710 0.949051
  outer loop
   vertex -361.057251 25.772270 183.399521
   vertex -360.350128 24.702837 183.144058
   vertex -360.880463 25.817350 183.341812
  endloop
 endfacet
 facet normal 0.314547 -0.018725 0.949057
  outer loop
   vertex -361.057251 24.522512 183.374863
   vertex -360.350128 24.702837 183.144058
   vertex -361.057251 25.772270 183.399521
  endloop
 endfacet
 facet normal -0.314620 -0.018725 0.949033
  outer loop
   vertex -361.057251 25.772270 183.399521
   vertex -361.234009 25.817350 183.341812
   vertex -361.057251 24.522512 183.374863
  endloop
 endfacet
 facet normal -0.314557 -0.018716 0.949054
  outer loop
   vertex -361.057251 24.522512 183.374863
   vertex -361.234009 25.817350 183.341812
   vertex -361.764343 24.702837 183.144058
  endloop
 endfacet
 facet normal -0.759345 0.255119 0.598590
  outer loop
   vertex -361.764343 24.702837 183.144058
   vertex -361.234009 25.817350 183.341812
   vertex -361.307251 25.926186 183.202515
  endloop
 endfacet
 facet normal -0.759389 0.255138 0.598526
  outer loop
   vertex -361.307251 25.926186 183.202515
   vertex -362.057251 25.138174 182.586853
   vertex -361.764343 24.702837 183.144058
  endloop
 endfacet
 facet normal -0.759373 0.642498 0.102709
  outer loop
   vertex -361.234009 26.035019 183.063217
   vertex -362.057251 25.138174 182.586853
   vertex -361.307251 25.926186 183.202515
  endloop
 endfacet
 facet normal -0.759384 0.642475 0.102772
  outer loop
   vertex -361.764343 25.573513 182.029648
   vertex -362.057251 25.138174 182.586853
   vertex -361.234009 26.035019 183.063217
  endloop
 endfacet
 facet normal -0.314592 0.916329 -0.247736
  outer loop
   vertex -361.234009 26.035019 183.063217
   vertex -361.057251 26.080101 183.005508
   vertex -361.764343 25.573513 182.029648
  endloop
 endfacet
 facet normal -0.314557 0.916334 -0.247764
  outer loop
   vertex -361.764343 25.573513 182.029648
   vertex -361.057251 26.080101 183.005508
   vertex -361.057251 25.753836 181.798843
  endloop
 endfacet
 facet normal 0.314549 0.916336 -0.247764
  outer loop
   vertex -361.057251 25.753836 181.798843
   vertex -361.057251 26.080101 183.005508
   vertex -360.880463 26.035019 183.063217
  endloop
 endfacet
 facet normal 0.314544 0.916338 -0.247764
  outer loop
   vertex -360.880463 26.035019 183.063217
   vertex -360.350128 25.573513 182.029648
   vertex -361.057251 25.753836 181.798843
  endloop
 endfacet
 facet normal 0.759413 0.642435 0.102804
  outer loop
   vertex -360.807251 25.926186 183.202515
   vertex -360.350128 25.573513 182.029648
   vertex -360.880463 26.035019 183.063217
  endloop
 endfacet
 facet normal -0.923907 -0.235563 0.301506
  outer loop
   vertex -370.657227 26.706285 183.811996
   vertex -370.657227 25.918276 183.196335
   vertex -370.584015 26.597452 183.951309
  endloop
 endfacet
 facet normal -0.923908 -0.235561 0.301505
  outer loop
   vertex -370.584015 26.597452 183.951309
   vertex -370.657227 25.918276 183.196335
   vertex -370.584015 25.809441 183.335648
  endloop
 endfacet
 facet normal -0.382640 -0.568808 0.728041
  outer loop
   vertex -370.584015 25.809441 183.335648
   vertex -370.407227 26.552370 184.009003
   vertex -370.584015 26.597452 183.951309
  endloop
 endfacet
 facet normal -0.382635 -0.568810 0.728042
  outer loop
   vertex -370.407227 25.764360 183.393341
   vertex -370.407227 26.552370 184.009003
   vertex -370.584015 25.809441 183.335648
  endloop
 endfacet
 facet normal 0.382696 -0.568794 0.728022
  outer loop
   vertex -370.230469 26.597452 183.951309
   vertex -370.407227 26.552370 184.009003
   vertex -370.407227 25.764360 183.393341
  endloop
 endfacet
 facet normal 0.382691 -0.568795 0.728025
  outer loop
   vertex -370.407227 25.764360 183.393341
   vertex -370.230469 25.809441 183.335648
   vertex -370.230469 26.597452 183.951309
  endloop
 endfacet
 facet normal 0.923851 -0.235646 0.301614
  outer loop
   vertex -370.230469 26.597452 183.951309
   vertex -370.230469 25.809441 183.335648
   vertex -370.157227 26.706285 183.811996
  endloop
 endfacet
 facet normal 0.923851 -0.235645 0.301612
  outer loop
   vertex -370.157227 26.706285 183.811996
   vertex -370.230469 25.809441 183.335648
   vertex -370.157227 25.918276 183.196335
  endloop
 endfacet
 facet normal 0.923842 0.235659 -0.301629
  outer loop
   vertex -370.157227 25.918276 183.196335
   vertex -370.230469 26.815121 183.672699
   vertex -370.157227 26.706285 183.811996
  endloop
 endfacet
 facet normal 0.923841 0.235660 -0.301631
  outer loop
   vertex -370.230469 26.027109 183.057037
   vertex -370.230469 26.815121 183.672699
   vertex -370.157227 25.918276 183.196335
  endloop
 endfacet
 facet normal 0.382745 0.568781 -0.728007
  outer loop
   vertex -370.407227 26.860201 183.614990
   vertex -370.230469 26.815121 183.672699
   vertex -370.230469 26.027109 183.057037
  endloop
 endfacet
 facet normal 0.382750 0.568781 -0.728005
  outer loop
   vertex -370.230469 26.027109 183.057037
   vertex -370.407227 26.072191 182.999329
   vertex -370.407227 26.860201 183.614990
  endloop
 endfacet
 facet normal -0.382688 0.568796 -0.728025
  outer loop
   vertex -370.407227 26.860201 183.614990
   vertex -370.407227 26.072191 182.999329
   vertex -370.584015 26.815121 183.672699
  endloop
 endfacet
 facet normal -0.382694 0.568794 -0.728024
  outer loop
   vertex -370.584015 26.815121 183.672699
   vertex -370.407227 26.072191 182.999329
   vertex -370.584015 26.027109 183.057037
  endloop
 endfacet
 facet normal -0.923899 0.235575 -0.301522
  outer loop
   vertex -370.584015 26.027109 183.057037
   vertex -370.657227 26.706285 183.811996
   vertex -370.584015 26.815121 183.672699
  endloop
 endfacet
 facet normal -0.923898 0.235577 -0.301524
  outer loop
   vertex -370.657227 25.918276 183.196335
   vertex -370.657227 26.706285 183.811996
   vertex -370.584015 26.027109 183.057037
  endloop
 endfacet
 facet normal -0.759413 0.642435 0.102804
  outer loop
   vertex -370.584015 26.035019 183.063217
   vertex -371.114349 25.573513 182.029648
   vertex -370.657227 25.926186 183.202515
  endloop
 endfacet
 facet normal -0.759397 0.642456 0.102792
  outer loop
   vertex -370.657227 25.926186 183.202515
   vertex -371.114349 25.573513 182.029648
   vertex -371.407227 25.138174 182.586853
  endloop
 endfacet
 facet normal -0.759413 0.255210 0.598464
  outer loop
   vertex -371.407227 25.138174 182.586853
   vertex -370.584015 25.817350 183.341827
   vertex -370.657227 25.926186 183.202515
  endloop
 endfacet
 facet normal -0.759402 0.255153 0.598503
  outer loop
   vertex -371.114349 24.702837 183.144058
   vertex -370.584015 25.817350 183.341827
   vertex -371.407227 25.138174 182.586853
  endloop
 endfacet
 facet normal -0.314505 -0.018756 0.949071
  outer loop
   vertex -370.407227 25.772270 183.399521
   vertex -370.584015 25.817350 183.341827
   vertex -371.114349 24.702837 183.144058
  endloop
 endfacet
 facet normal -0.314547 -0.018725 0.949057
  outer loop
   vertex -371.114349 24.702837 183.144058
   vertex -370.407227 24.522512 183.374863
   vertex -370.407227 25.772270 183.399521
  endloop
 endfacet
 facet normal 0.314547 -0.018725 0.949057
  outer loop
   vertex -370.407227 25.772270 183.399521
   vertex -370.407227 24.522512 183.374863
   vertex -370.230469 25.817350 183.341827
  endloop
 endfacet
 facet normal 0.314560 -0.018727 0.949053
  outer loop
   vertex -370.230469 25.817350 183.341827
   vertex -370.407227 24.522512 183.374863
   vertex -369.700134 24.702837 183.144058
  endloop
 endfacet
 facet normal 0.759373 0.255131 0.598549
  outer loop
   vertex -369.700134 24.702837 183.144058
   vertex -370.157227 25.926186 183.202515
   vertex -370.230469 25.817350 183.341827
  endloop
 endfacet
 facet normal 0.759389 0.255138 0.598526
  outer loop
   vertex -369.407227 25.138174 182.586853
   vertex -370.157227 25.926186 183.202515
   vertex -369.700134 24.702837 183.144058
  endloop
 endfacet
 facet normal 0.759373 0.642498 0.102709
  outer loop
   vertex -370.230469 26.035019 183.063217
   vertex -370.157227 25.926186 183.202515
   vertex -369.407227 25.138174 182.586853
  endloop
 endfacet
 facet normal 0.759384 0.642475 0.102772
  outer loop
   vertex -369.407227 25.138174 182.586853
   vertex -369.700134 25.573513 182.029648
   vertex -370.230469 26.035019 183.063217
  endloop
 endfacet
 facet normal 0.314592 0.916329 -0.247736
  outer loop
   vertex -370.230469 26.035019 183.063217
   vertex -369.700134 25.573513 182.029648
   vertex -370.407227 26.080101 183.005508
  endloop
 endfacet
 facet normal 0.314557 0.916334 -0.247764
  outer loop
   vertex -370.407227 26.080101 183.005508
   vertex -369.700134 25.573513 182.029648
   vertex -370.407227 25.753836 181.798843
  endloop
 endfacet
 facet normal -0.314549 0.916336 -0.247764
  outer loop
   vertex -370.407227 25.753836 181.798843
   vertex -370.584015 26.035019 183.063217
   vertex -370.407227 26.080101 183.005508
  endloop
 endfacet
 facet normal -0.314544 0.916338 -0.247764
  outer loop
   vertex -371.114349 25.573513 182.029648
   vertex -370.584015 26.035019 183.063217
   vertex -370.407227 25.753836 181.798843
  endloop
 endfacet
endsolid