solid stl file generated from DOUG
 facet normal 0.509079 0.610535 -0.606700
  outer loop
   vertex 17.990986 -252.227982 -72.324524
   vertex 18.919802 -252.311096 -71.628799
   vertex 18.032173 -252.311096 -72.373604
  endloop
 endfacet
 facet normal 0.642785 -0.000000 -0.766046
  outer loop
   vertex 18.032173 -252.311096 -72.373604
   vertex 18.919802 -252.311096 -71.628799
   vertex 18.919802 -253.152725 -71.628799
  endloop
 endfacet
 facet normal 0.766047 -0.000000 0.642785
  outer loop
   vertex 10.945143 -254.194672 -76.155098
   vertex 11.158738 -256.022675 -76.409653
   vertex 11.158738 -254.194672 -76.409653
  endloop
 endfacet
 facet normal 0.642785 -0.000000 -0.766047
  outer loop
   vertex 11.158738 -254.194672 -76.409653
   vertex 11.158738 -256.022675 -76.409653
   vertex 10.941511 -254.123230 -76.591927
  endloop
 endfacet
 facet normal 0.642783 0.000000 -0.766048
  outer loop
   vertex 19.262314 -254.123230 -69.609947
   vertex 19.045086 -256.022675 -69.792221
   vertex 19.045086 -254.194672 -69.792221
  endloop
 endfacet
 facet normal -0.766048 0.000000 -0.642783
  outer loop
   vertex 19.045086 -254.194672 -69.792221
   vertex 19.045086 -256.022675 -69.792221
   vertex 18.831491 -254.194672 -69.537666
  endloop
 endfacet
 facet normal 0.000000 1.000000 0.000000
  outer loop
   vertex 17.191429 -252.287140 -70.968880
   vertex 17.261887 -252.287140 -71.052849
   vertex 12.709863 -252.287140 -74.872452
  endloop
 endfacet
 facet normal 0.517190 0.593811 -0.616363
  outer loop
   vertex 12.709863 -252.287140 -74.872452
   vertex 17.261887 -252.287140 -71.052849
   vertex 12.765312 -252.404022 -74.938530
  endloop
 endfacet
 facet normal 0.642786 0.000000 -0.766046
  outer loop
   vertex 12.989169 -253.152725 -76.605186
   vertex 13.876797 -252.311096 -75.860382
   vertex 13.876797 -253.152725 -75.860382
  endloop
 endfacet
 facet normal 0.766050 0.000000 0.642781
  outer loop
   vertex 13.876797 -253.152725 -75.860382
   vertex 13.876797 -252.311096 -75.860382
   vertex 13.723975 -252.326675 -75.678253
  endloop
 endfacet
 facet normal 0.230556 0.933460 -0.274766
  outer loop
   vertex 18.200594 -253.068741 -72.171555
   vertex 13.648571 -253.068741 -75.991158
   vertex 18.179049 -253.055862 -72.145882
  endloop
 endfacet
 facet normal 0.230517 0.933483 -0.274720
  outer loop
   vertex 18.179049 -253.055862 -72.145882
   vertex 13.648571 -253.068741 -75.991158
   vertex 13.627025 -253.055862 -75.965477
  endloop
 endfacet
 facet normal 0.642787 0.000000 -0.766045
  outer loop
   vertex 13.627025 -253.055862 -75.965477
   vertex 13.627025 -252.442337 -75.965477
   vertex 18.179049 -253.055862 -72.145882
  endloop
 endfacet
 facet normal 0.642787 -0.000000 -0.766045
  outer loop
   vertex 18.703297 -257.121094 -70.079018
   vertex 19.262314 -258.219513 -69.609947
   vertex 17.726030 -258.219513 -70.899040
  endloop
 endfacet
 facet normal -0.000000 -1.000000 -0.000000
  outer loop
   vertex 17.726030 -258.219513 -70.899040
   vertex 19.262314 -258.219513 -69.609947
   vertex 17.512434 -258.219513 -70.644485
  endloop
 endfacet
 facet normal -0.766045 -0.000000 -0.642787
  outer loop
   vertex 17.512434 -258.219513 -70.644485
   vertex 17.512434 -253.857513 -70.644485
   vertex 17.726030 -258.219513 -70.899040
  endloop
 endfacet
 facet normal 0.000000 1.000000 0.000000
  outer loop
   vertex 17.994200 -252.227982 -70.525711
   vertex 17.004391 -252.227982 -71.148743
   vertex 17.892019 -252.227982 -70.403931
  endloop
 endfacet
 facet normal -0.509065 0.610570 0.606677
  outer loop
   vertex 17.892019 -252.227982 -70.403931
   vertex 17.004391 -252.227982 -71.148743
   vertex 16.963203 -252.311096 -71.099655
  endloop
 endfacet
 facet normal -0.509079 0.610535 0.606700
  outer loop
   vertex 16.963203 -252.311096 -71.099655
   vertex 17.850832 -252.311096 -70.354851
   vertex 17.892019 -252.227982 -70.403931
  endloop
 endfacet
 facet normal 0.000000 -1.000000 -0.000000
  outer loop
   vertex 12.477795 -258.219513 -75.302834
   vertex 12.264198 -258.219513 -75.048279
   vertex 10.941510 -258.219513 -76.591927
  endloop
 endfacet
 facet normal -0.000000 -1.000000 -0.000000
  outer loop
   vertex 10.941510 -258.219513 -76.591927
   vertex 12.264198 -258.219513 -75.048279
   vertex 10.727915 -258.219513 -76.337372
  endloop
 endfacet
 facet normal -0.766047 -0.000000 -0.642785
  outer loop
   vertex 10.727915 -258.219513 -76.337372
   vertex 10.727915 -254.123230 -76.337372
   vertex 10.941510 -258.219513 -76.591927
  endloop
 endfacet
 facet normal 0.000000 1.000000 0.000000
  outer loop
   vertex 18.883522 -253.857513 -69.494011
   vertex 19.097118 -253.857513 -69.748558
   vertex 17.726030 -253.857513 -70.899040
  endloop
 endfacet
 facet normal 0.642789 0.000003 -0.766044
  outer loop
   vertex 17.726030 -253.857513 -70.899040
   vertex 19.097118 -253.857513 -69.748558
   vertex 18.144279 -254.194672 -70.548088
  endloop
 endfacet
 facet normal 0.642787 0.000000 -0.766045
  outer loop
   vertex 18.144279 -254.194672 -70.548088
   vertex 18.144279 -256.022675 -70.548088
   vertex 17.726030 -253.857513 -70.899040
  endloop
 endfacet
 facet normal -0.517188 0.593814 0.616361
  outer loop
   vertex 18.074688 -252.404022 -72.021507
   vertex 18.130138 -252.287140 -72.087585
   vertex 13.578114 -252.287140 -75.907188
  endloop
 endfacet
 facet normal -0.000000 1.000000 0.000000
  outer loop
   vertex 13.578114 -252.287140 -75.907188
   vertex 18.130138 -252.287140 -72.087585
   vertex 18.200594 -252.287140 -72.171555
  endloop
 endfacet
 facet normal 0.000000 1.000000 -0.000000
  outer loop
   vertex 18.200594 -252.287140 -72.171555
   vertex 13.648571 -252.287140 -75.991158
   vertex 13.578114 -252.287140 -75.907188
  endloop
 endfacet
 facet normal 0.642787 0.000000 -0.766045
  outer loop
   vertex 12.059546 -256.022675 -75.653786
   vertex 12.059546 -254.194672 -75.653786
   vertex 12.477795 -253.857513 -75.302834
  endloop
 endfacet
 facet normal 0.642789 -0.000003 -0.766044
  outer loop
   vertex 12.477795 -253.857513 -75.302834
   vertex 12.059546 -254.194672 -75.653786
   vertex 11.106707 -253.857513 -76.453316
  endloop
 endfacet
 facet normal -0.000000 1.000000 0.000000
  outer loop
   vertex 11.106707 -253.857513 -76.453316
   vertex 10.893111 -253.857513 -76.198761
   vertex 12.477795 -253.857513 -75.302834
  endloop
 endfacet
 facet normal -0.509062 0.610570 0.606679
  outer loop
   vertex 11.920199 -252.311096 -75.331238
   vertex 12.807826 -252.311096 -74.586433
   vertex 11.961387 -252.227982 -75.380325
  endloop
 endfacet
 facet normal -0.509060 0.610574 0.606677
  outer loop
   vertex 11.961387 -252.227982 -75.380325
   vertex 12.807826 -252.311096 -74.586433
   vertex 12.849014 -252.227982 -74.635521
  endloop
 endfacet
 facet normal 0.000000 1.000000 -0.000000
  outer loop
   vertex 12.849014 -252.227982 -74.635521
   vertex 12.063567 -252.227982 -75.502098
   vertex 11.961387 -252.227982 -75.380325
  endloop
 endfacet
 facet normal 0.766038 0.000022 0.642795
  outer loop
   vertex 13.733428 -252.227982 -75.689522
   vertex 13.723975 -252.326675 -75.678253
   vertex 13.835609 -252.227982 -75.811295
  endloop
 endfacet
 facet normal 0.766051 -0.000011 0.642780
  outer loop
   vertex 13.835609 -252.227982 -75.811295
   vertex 13.723975 -252.326675 -75.678253
   vertex 13.876797 -252.311096 -75.860382
  endloop
 endfacet
 facet normal 0.509062 0.610570 -0.606680
  outer loop
   vertex 13.876797 -252.311096 -75.860382
   vertex 12.989169 -252.311096 -76.605186
   vertex 13.835609 -252.227982 -75.811295
  endloop
 endfacet
 facet normal 0.642786 -0.000000 -0.766046
  outer loop
   vertex 12.989169 -253.152725 -76.605186
   vertex 12.989169 -252.311096 -76.605186
   vertex 13.876797 -252.311096 -75.860382
  endloop
 endfacet
 facet normal 0.642785 0.000000 -0.766046
  outer loop
   vertex 18.919802 -253.152725 -71.628799
   vertex 18.032173 -253.152725 -72.373604
   vertex 18.032173 -252.311096 -72.373604
  endloop
 endfacet
 facet normal -0.766039 0.000000 -0.642794
  outer loop
   vertex 18.032173 -252.311096 -72.373604
   vertex 18.032173 -253.152725 -72.373604
   vertex 17.879353 -252.326675 -72.191483
  endloop
 endfacet
 facet normal -0.766038 -0.000032 -0.642796
  outer loop
   vertex 17.879353 -252.326675 -72.191483
   vertex 17.990986 -252.227982 -72.324524
   vertex 18.032173 -252.311096 -72.373604
  endloop
 endfacet
 facet normal -0.766061 0.000033 -0.642768
  outer loop
   vertex 17.888805 -252.227982 -72.202744
   vertex 17.990986 -252.227982 -72.324524
   vertex 17.879353 -252.326675 -72.191483
  endloop
 endfacet
 facet normal -0.517190 0.593811 0.616363
  outer loop
   vertex 13.578114 -252.287140 -75.907188
   vertex 13.522664 -252.404022 -75.841110
   vertex 18.074688 -252.404022 -72.021507
  endloop
 endfacet
 facet normal -0.000000 1.000000 -0.000000
  outer loop
   vertex 18.074688 -252.404022 -72.021507
   vertex 13.522664 -252.404022 -75.841110
   vertex 12.765312 -252.404022 -74.938530
  endloop
 endfacet
 facet normal 0.000000 1.000000 0.000000
  outer loop
   vertex 12.765312 -252.404022 -74.938530
   vertex 17.317335 -252.404022 -71.118927
   vertex 18.074688 -252.404022 -72.021507
  endloop
 endfacet
 facet normal 0.517191 0.593808 -0.616364
  outer loop
   vertex 17.261887 -252.287140 -71.052849
   vertex 17.317335 -252.404022 -71.118927
   vertex 12.765312 -252.404022 -74.938530
  endloop
 endfacet
 facet normal -0.642787 0.000000 0.766045
  outer loop
   vertex 17.930683 -254.194672 -70.293533
   vertex 17.512434 -253.857513 -70.644485
   vertex 17.930683 -256.022675 -70.293533
  endloop
 endfacet
 facet normal -0.642787 -0.000000 0.766045
  outer loop
   vertex 17.930683 -256.022675 -70.293533
   vertex 17.512434 -253.857513 -70.644485
   vertex 17.512434 -258.219513 -70.644485
  endloop
 endfacet
 facet normal -0.642787 0.000000 0.766045
  outer loop
   vertex 17.512434 -258.219513 -70.644485
   vertex 19.048717 -258.219513 -69.355392
   vertex 17.930683 -256.022675 -70.293533
  endloop
 endfacet
 facet normal -0.000000 -1.000000 -0.000000
  outer loop
   vertex 19.262314 -258.219513 -69.609947
   vertex 19.048717 -258.219513 -69.355392
   vertex 17.512434 -258.219513 -70.644485
  endloop
 endfacet
 facet normal 0.766045 -0.000000 0.642787
  outer loop
   vertex 19.048717 -254.123230 -69.355392
   vertex 19.048717 -258.219513 -69.355392
   vertex 19.262314 -258.219513 -69.609947
  endloop
 endfacet
 facet normal 0.766045 0.000000 0.642787
  outer loop
   vertex 12.477795 -258.219513 -75.302834
   vertex 12.264198 -253.857513 -75.048279
   vertex 12.264198 -258.219513 -75.048279
  endloop
 endfacet
 facet normal -0.642787 -0.000000 0.766045
  outer loop
   vertex 12.264198 -258.219513 -75.048279
   vertex 12.264198 -253.857513 -75.048279
   vertex 11.845949 -256.022675 -75.399231
  endloop
 endfacet
 facet normal -0.642787 -0.000000 0.766045
  outer loop
   vertex 11.845949 -256.022675 -75.399231
   vertex 10.727915 -258.219513 -76.337372
   vertex 12.264198 -258.219513 -75.048279
  endloop
 endfacet
 facet normal -0.642788 0.000001 0.766044
  outer loop
   vertex 10.945143 -256.022675 -76.155098
   vertex 10.727915 -258.219513 -76.337372
   vertex 11.845949 -256.022675 -75.399231
  endloop
 endfacet
 facet normal -0.642783 0.000000 0.766048
  outer loop
   vertex 10.727915 -254.123230 -76.337372
   vertex 10.727915 -258.219513 -76.337372
   vertex 10.945143 -256.022675 -76.155098
  endloop
 endfacet
 facet normal -0.766033 0.000017 -0.642802
  outer loop
   vertex 17.509352 -258.219421 -70.647194
   vertex 18.350731 -253.878525 -71.649757
   vertex 18.350672 -258.219421 -71.649803
  endloop
 endfacet
 facet normal 0.642804 -0.000001 -0.766030
  outer loop
   vertex 18.350672 -258.219421 -71.649803
   vertex 18.350731 -253.878525 -71.649757
   vertex 18.604078 -253.878525 -71.437164
  endloop
 endfacet
 facet normal 0.642804 -0.000001 -0.766030
  outer loop
   vertex 18.604078 -253.878525 -71.437164
   vertex 18.604019 -258.219421 -71.437210
   vertex 18.350672 -258.219421 -71.649803
  endloop
 endfacet
 facet normal 0.766020 -0.000017 0.642817
  outer loop
   vertex 17.762724 -253.878586 -70.434555
   vertex 18.604019 -258.219421 -71.437210
   vertex 18.604078 -253.878525 -71.437164
  endloop
 endfacet
 facet normal 0.766033 -0.000011 0.642802
  outer loop
   vertex 17.762699 -258.219421 -70.434601
   vertex 18.604019 -258.219421 -71.437210
   vertex 17.762724 -253.878586 -70.434555
  endloop
 endfacet
 facet normal 0.642788 0.000000 -0.766044
  outer loop
   vertex 13.648571 -252.287140 -75.991158
   vertex 18.200594 -252.287140 -72.171555
   vertex 13.648571 -252.429459 -75.991158
  endloop
 endfacet
 facet normal 0.642788 -0.000000 -0.766044
  outer loop
   vertex 13.648571 -252.429459 -75.991158
   vertex 18.200594 -252.287140 -72.171555
   vertex 18.200594 -252.429459 -72.171555
  endloop
 endfacet
 facet normal 0.230518 -0.933483 -0.274720
  outer loop
   vertex 18.200594 -252.429459 -72.171555
   vertex 13.627025 -252.442337 -75.965477
   vertex 13.648571 -252.429459 -75.991158
  endloop
 endfacet
 facet normal 0.230556 -0.933460 -0.274767
  outer loop
   vertex 18.179049 -252.442337 -72.145882
   vertex 13.627025 -252.442337 -75.965477
   vertex 18.200594 -252.429459 -72.171555
  endloop
 endfacet
 facet normal 0.642787 0.000000 -0.766045
  outer loop
   vertex 18.179049 -253.055862 -72.145882
   vertex 13.627025 -252.442337 -75.965477
   vertex 18.179049 -252.442337 -72.145882
  endloop
 endfacet
 facet normal -0.766055 -0.000012 -0.642775
  outer loop
   vertex 12.014044 -258.219421 -75.258293
   vertex 12.013993 -253.878586 -75.258316
   vertex 12.855330 -258.219421 -76.260933
  endloop
 endfacet
 facet normal -0.766067 -0.000018 -0.642760
  outer loop
   vertex 12.855330 -258.219421 -76.260933
   vertex 12.013993 -253.878586 -75.258316
   vertex 12.855272 -253.878525 -76.260986
  endloop
 endfacet
 facet normal 0.642764 -0.000001 -0.766064
  outer loop
   vertex 12.855272 -253.878525 -76.260986
   vertex 13.108685 -258.219421 -76.048355
   vertex 12.855330 -258.219421 -76.260933
  endloop
 endfacet
 facet normal 0.642779 0.000001 -0.766051
  outer loop
   vertex 13.108627 -253.878525 -76.048401
   vertex 13.108685 -258.219421 -76.048355
   vertex 12.855272 -253.878525 -76.260986
  endloop
 endfacet
 facet normal 0.766055 0.000017 0.642775
  outer loop
   vertex 12.267400 -258.219421 -75.045715
   vertex 13.108685 -258.219421 -76.048355
   vertex 13.108627 -253.878525 -76.048401
  endloop
 endfacet
 facet normal 0.766055 0.000017 0.642775
  outer loop
   vertex 13.108627 -253.878525 -76.048401
   vertex 12.267342 -253.878525 -75.045761
   vertex 12.267400 -258.219421 -75.045715
  endloop
 endfacet
 facet normal 0.642788 0.000000 -0.766044
  outer loop
   vertex 18.200594 -253.068741 -72.171555
   vertex 18.200594 -253.139359 -72.171555
   vertex 13.648571 -253.139359 -75.991158
  endloop
 endfacet
 facet normal -0.000000 -1.000000 -0.000000
  outer loop
   vertex 13.648571 -253.139359 -75.991158
   vertex 18.200594 -253.139359 -72.171555
   vertex 17.191429 -253.139359 -70.968880
  endloop
 endfacet
 facet normal 0.000000 -1.000000 0.000000
  outer loop
   vertex 17.191429 -253.139359 -70.968880
   vertex 12.639405 -253.139359 -74.788483
   vertex 13.648571 -253.139359 -75.991158
  endloop
 endfacet
 facet normal -0.642788 -0.000000 0.766044
  outer loop
   vertex 17.191429 -253.068741 -70.968880
   vertex 12.639405 -253.139359 -74.788483
   vertex 17.191429 -253.139359 -70.968880
  endloop
 endfacet
 facet normal -0.642788 0.000000 0.766044
  outer loop
   vertex 12.639405 -253.068741 -74.788483
   vertex 12.639405 -253.139359 -74.788483
   vertex 17.191429 -253.068741 -70.968880
  endloop
 endfacet
 facet normal -0.230514 0.933485 0.274716
  outer loop
   vertex 17.191429 -253.068741 -70.968880
   vertex 17.212976 -253.055862 -70.994560
   vertex 12.639405 -253.068741 -74.788483
  endloop
 endfacet
 facet normal -0.230552 0.933462 0.274762
  outer loop
   vertex 12.639405 -253.068741 -74.788483
   vertex 17.212976 -253.055862 -70.994560
   vertex 12.660952 -253.055862 -74.814156
  endloop
 endfacet
 facet normal -0.642787 -0.000000 0.766045
  outer loop
   vertex 12.660952 -253.055862 -74.814156
   vertex 17.212976 -253.055862 -70.994560
   vertex 17.212976 -252.442337 -70.994560
  endloop
 endfacet
 facet normal -0.642787 0.000000 0.766045
  outer loop
   vertex 17.212976 -252.442337 -70.994560
   vertex 12.660952 -252.442337 -74.814156
   vertex 12.660952 -253.055862 -74.814156
  endloop
 endfacet
 facet normal -0.230514 -0.933485 0.274716
  outer loop
   vertex 17.191429 -252.429459 -70.968880
   vertex 12.660952 -252.442337 -74.814156
   vertex 17.212976 -252.442337 -70.994560
  endloop
 endfacet
 facet normal -0.230553 -0.933462 0.274762
  outer loop
   vertex 12.639405 -252.429459 -74.788483
   vertex 12.660952 -252.442337 -74.814156
   vertex 17.191429 -252.429459 -70.968880
  endloop
 endfacet
 facet normal -0.642788 -0.000000 0.766044
  outer loop
   vertex 17.191429 -252.429459 -70.968880
   vertex 17.191429 -252.287140 -70.968880
   vertex 12.639405 -252.429459 -74.788483
  endloop
 endfacet
 facet normal -0.642788 0.000000 0.766044
  outer loop
   vertex 12.639405 -252.429459 -74.788483
   vertex 17.191429 -252.287140 -70.968880
   vertex 12.639405 -252.287140 -74.788483
  endloop
 endfacet
 facet normal -0.000000 1.000000 -0.000000
  outer loop
   vertex 12.639405 -252.287140 -74.788483
   vertex 17.191429 -252.287140 -70.968880
   vertex 12.709863 -252.287140 -74.872452
  endloop
 endfacet
 facet normal -0.766045 0.000000 -0.642787
  outer loop
   vertex 10.727915 -254.123230 -76.337372
   vertex 10.941511 -254.123230 -76.591927
   vertex 10.941510 -258.219513 -76.591927
  endloop
 endfacet
 facet normal 0.642784 -0.000000 -0.766047
  outer loop
   vertex 10.941510 -258.219513 -76.591927
   vertex 10.941511 -254.123230 -76.591927
   vertex 11.158738 -256.022675 -76.409653
  endloop
 endfacet
 facet normal 0.642787 -0.000001 -0.766045
  outer loop
   vertex 11.158738 -256.022675 -76.409653
   vertex 11.500528 -257.121094 -76.122856
   vertex 10.941510 -258.219513 -76.591927
  endloop
 endfacet
 facet normal 0.642788 -0.000000 -0.766045
  outer loop
   vertex 12.059546 -256.022675 -75.653786
   vertex 11.500528 -257.121094 -76.122856
   vertex 11.158738 -256.022675 -76.409653
  endloop
 endfacet
 facet normal 0.642787 0.000000 -0.766045
  outer loop
   vertex 12.477795 -258.219513 -75.302834
   vertex 11.500528 -257.121094 -76.122856
   vertex 12.059546 -256.022675 -75.653786
  endloop
 endfacet
 facet normal 0.642787 -0.000000 -0.766045
  outer loop
   vertex 12.059546 -256.022675 -75.653786
   vertex 12.477795 -253.857513 -75.302834
   vertex 12.477795 -258.219513 -75.302834
  endloop
 endfacet
 facet normal 0.766045 0.000000 0.642787
  outer loop
   vertex 12.477795 -258.219513 -75.302834
   vertex 12.477795 -253.857513 -75.302834
   vertex 12.264198 -253.857513 -75.048279
  endloop
 endfacet
 facet normal 0.000000 1.000000 -0.000000
  outer loop
   vertex 12.264198 -253.857513 -75.048279
   vertex 12.477795 -253.857513 -75.302834
   vertex 10.893111 -253.857513 -76.198761
  endloop
 endfacet
 facet normal -0.642789 0.000004 0.766043
  outer loop
   vertex 10.893111 -253.857513 -76.198761
   vertex 11.845949 -254.194672 -75.399231
   vertex 12.264198 -253.857513 -75.048279
  endloop
 endfacet
 facet normal -0.642788 0.000008 0.766044
  outer loop
   vertex 10.945143 -254.194672 -76.155098
   vertex 11.845949 -254.194672 -75.399231
   vertex 10.893111 -253.857513 -76.198761
  endloop
 endfacet
 facet normal 0.000000 -1.000000 -0.000000
  outer loop
   vertex 12.059546 -254.194672 -75.653786
   vertex 11.845949 -254.194672 -75.399231
   vertex 10.945143 -254.194672 -76.155098
  endloop
 endfacet
 facet normal -0.000000 -1.000000 0.000000
  outer loop
   vertex 10.945143 -254.194672 -76.155098
   vertex 11.158738 -254.194672 -76.409653
   vertex 12.059546 -254.194672 -75.653786
  endloop
 endfacet
 facet normal 0.642788 -0.000008 -0.766045
  outer loop
   vertex 12.059546 -254.194672 -75.653786
   vertex 11.158738 -254.194672 -76.409653
   vertex 11.106707 -253.857513 -76.453316
  endloop
 endfacet
 facet normal 0.642783 -0.000009 -0.766048
  outer loop
   vertex 11.106707 -253.857513 -76.453316
   vertex 11.158738 -254.194672 -76.409653
   vertex 10.941511 -254.123230 -76.591927
  endloop
 endfacet
 facet normal -0.594814 0.630152 -0.499105
  outer loop
   vertex 10.941511 -254.123230 -76.591927
   vertex 10.893111 -253.857513 -76.198761
   vertex 11.106707 -253.857513 -76.453316
  endloop
 endfacet
 facet normal -0.594812 0.630153 -0.499105
  outer loop
   vertex 10.727915 -254.123230 -76.337372
   vertex 10.893111 -253.857513 -76.198761
   vertex 10.941511 -254.123230 -76.591927
  endloop
 endfacet
 facet normal -0.642782 0.000009 0.766049
  outer loop
   vertex 10.945143 -254.194672 -76.155098
   vertex 10.893111 -253.857513 -76.198761
   vertex 10.727915 -254.123230 -76.337372
  endloop
 endfacet
 facet normal -0.642783 -0.000000 0.766048
  outer loop
   vertex 10.727915 -254.123230 -76.337372
   vertex 10.945143 -256.022675 -76.155098
   vertex 10.945143 -254.194672 -76.155098
  endloop
 endfacet
 facet normal 0.766047 -0.000000 0.642785
  outer loop
   vertex 10.945143 -254.194672 -76.155098
   vertex 10.945143 -256.022675 -76.155098
   vertex 11.158738 -256.022675 -76.409653
  endloop
 endfacet
 facet normal -0.000000 1.000000 -0.000000
  outer loop
   vertex 11.158738 -256.022675 -76.409653
   vertex 10.945143 -256.022675 -76.155098
   vertex 11.845949 -256.022675 -75.399231
  endloop
 endfacet
 facet normal 0.000000 1.000000 0.000000
  outer loop
   vertex 11.845949 -256.022675 -75.399231
   vertex 12.059546 -256.022675 -75.653786
   vertex 11.158738 -256.022675 -76.409653
  endloop
 endfacet
 facet normal -0.766045 -0.000000 -0.642787
  outer loop
   vertex 11.845949 -254.194672 -75.399231
   vertex 12.059546 -256.022675 -75.653786
   vertex 11.845949 -256.022675 -75.399231
  endloop
 endfacet
 facet normal -0.766045 0.000000 -0.642787
  outer loop
   vertex 12.059546 -254.194672 -75.653786
   vertex 12.059546 -256.022675 -75.653786
   vertex 11.845949 -254.194672 -75.399231
  endloop
 endfacet
 facet normal 0.766045 0.000000 0.642787
  outer loop
   vertex 18.144279 -254.194672 -70.548088
   vertex 17.930683 -254.194672 -70.293533
   vertex 18.144279 -256.022675 -70.548088
  endloop
 endfacet
 facet normal 0.766045 0.000000 0.642787
  outer loop
   vertex 18.144279 -256.022675 -70.548088
   vertex 17.930683 -254.194672 -70.293533
   vertex 17.930683 -256.022675 -70.293533
  endloop
 endfacet
 facet normal 0.000000 1.000000 0.000000
  outer loop
   vertex 17.930683 -256.022675 -70.293533
   vertex 19.045086 -256.022675 -69.792221
   vertex 18.144279 -256.022675 -70.548088
  endloop
 endfacet
 facet normal 0.000000 1.000000 -0.000000
  outer loop
   vertex 18.831490 -256.022675 -69.537666
   vertex 19.045086 -256.022675 -69.792221
   vertex 17.930683 -256.022675 -70.293533
  endloop
 endfacet
 facet normal -0.766045 0.000001 -0.642787
  outer loop
   vertex 18.831491 -254.194672 -69.537666
   vertex 19.045086 -256.022675 -69.792221
   vertex 18.831490 -256.022675 -69.537666
  endloop
 endfacet
 facet normal -0.642787 0.000001 0.766045
  outer loop
   vertex 18.831490 -256.022675 -69.537666
   vertex 19.048717 -254.123230 -69.355392
   vertex 18.831491 -254.194672 -69.537666
  endloop
 endfacet
 facet normal -0.642788 0.000008 0.766044
  outer loop
   vertex 18.831491 -254.194672 -69.537666
   vertex 19.048717 -254.123230 -69.355392
   vertex 18.883522 -253.857513 -69.494011
  endloop
 endfacet
 facet normal 0.594807 0.630161 0.499101
  outer loop
   vertex 18.883522 -253.857513 -69.494011
   vertex 19.048717 -254.123230 -69.355392
   vertex 19.262314 -254.123230 -69.609947
  endloop
 endfacet
 facet normal 0.594805 0.630152 0.499115
  outer loop
   vertex 19.262314 -254.123230 -69.609947
   vertex 19.097118 -253.857513 -69.748558
   vertex 18.883522 -253.857513 -69.494011
  endloop
 endfacet
 facet normal 0.642782 0.000007 -0.766049
  outer loop
   vertex 19.045086 -254.194672 -69.792221
   vertex 19.097118 -253.857513 -69.748558
   vertex 19.262314 -254.123230 -69.609947
  endloop
 endfacet
 facet normal 0.642788 0.000006 -0.766044
  outer loop
   vertex 18.144279 -254.194672 -70.548088
   vertex 19.097118 -253.857513 -69.748558
   vertex 19.045086 -254.194672 -69.792221
  endloop
 endfacet
 facet normal -0.000000 -1.000000 -0.000000
  outer loop
   vertex 19.045086 -254.194672 -69.792221
   vertex 18.831491 -254.194672 -69.537666
   vertex 18.144279 -254.194672 -70.548088
  endloop
 endfacet
 facet normal 0.000000 -1.000000 0.000000
  outer loop
   vertex 18.144279 -254.194672 -70.548088
   vertex 18.831491 -254.194672 -69.537666
   vertex 17.930683 -254.194672 -70.293533
  endloop
 endfacet
 facet normal -0.642787 0.000008 0.766045
  outer loop
   vertex 17.930683 -254.194672 -70.293533
   vertex 18.831491 -254.194672 -69.537666
   vertex 18.883522 -253.857513 -69.494011
  endloop
 endfacet
 facet normal -0.642786 0.000002 0.766046
  outer loop
   vertex 18.883522 -253.857513 -69.494011
   vertex 17.512434 -253.857513 -70.644485
   vertex 17.930683 -254.194672 -70.293533
  endloop
 endfacet
 facet normal -0.000000 1.000000 -0.000000
  outer loop
   vertex 17.726030 -253.857513 -70.899040
   vertex 17.512434 -253.857513 -70.644485
   vertex 18.883522 -253.857513 -69.494011
  endloop
 endfacet
 facet normal -0.766045 0.000000 -0.642787
  outer loop
   vertex 17.726030 -258.219513 -70.899040
   vertex 17.512434 -253.857513 -70.644485
   vertex 17.726030 -253.857513 -70.899040
  endloop
 endfacet
 facet normal 0.642787 -0.000000 -0.766045
  outer loop
   vertex 17.726030 -253.857513 -70.899040
   vertex 18.144279 -256.022675 -70.548088
   vertex 17.726030 -258.219513 -70.899040
  endloop
 endfacet
 facet normal 0.642787 -0.000000 -0.766045
  outer loop
   vertex 17.726030 -258.219513 -70.899040
   vertex 18.144279 -256.022675 -70.548088
   vertex 18.703297 -257.121094 -70.079018
  endloop
 endfacet
 facet normal 0.642788 0.000001 -0.766044
  outer loop
   vertex 18.703297 -257.121094 -70.079018
   vertex 18.144279 -256.022675 -70.548088
   vertex 19.045086 -256.022675 -69.792221
  endloop
 endfacet
 facet normal 0.642788 0.000001 -0.766044
  outer loop
   vertex 19.045086 -256.022675 -69.792221
   vertex 19.262314 -258.219513 -69.609947
   vertex 18.703297 -257.121094 -70.079018
  endloop
 endfacet
 facet normal 0.642783 -0.000000 -0.766048
  outer loop
   vertex 19.262314 -254.123230 -69.609947
   vertex 19.262314 -258.219513 -69.609947
   vertex 19.045086 -256.022675 -69.792221
  endloop
 endfacet
 facet normal 0.766045 -0.000000 0.642787
  outer loop
   vertex 19.048717 -254.123230 -69.355392
   vertex 19.262314 -258.219513 -69.609947
   vertex 19.262314 -254.123230 -69.609947
  endloop
 endfacet
 facet normal 0.635773 0.147345 -0.757682
  outer loop
   vertex 18.003653 -252.326675 -70.536972
   vertex 17.116024 -252.326675 -71.281784
   vertex 17.994200 -252.227982 -70.525711
  endloop
 endfacet
 facet normal 0.635764 0.147403 -0.757678
  outer loop
   vertex 17.994200 -252.227982 -70.525711
   vertex 17.116024 -252.326675 -71.281784
   vertex 17.106571 -252.227982 -71.270515
  endloop
 endfacet
 facet normal -0.000000 1.000000 0.000000
  outer loop
   vertex 17.106571 -252.227982 -71.270515
   vertex 17.004391 -252.227982 -71.148743
   vertex 17.994200 -252.227982 -70.525711
  endloop
 endfacet
 facet normal -0.766041 0.000021 -0.642791
  outer loop
   vertex 17.116024 -252.326675 -71.281784
   vertex 17.004391 -252.227982 -71.148743
   vertex 17.106571 -252.227982 -71.270515
  endloop
 endfacet
 facet normal -0.766053 -0.000009 -0.642778
  outer loop
   vertex 16.963203 -252.311096 -71.099655
   vertex 17.004391 -252.227982 -71.148743
   vertex 17.116024 -252.326675 -71.281784
  endloop
 endfacet
 facet normal -0.766052 0.000000 -0.642778
  outer loop
   vertex 17.116024 -252.326675 -71.281784
   vertex 16.963203 -253.152725 -71.099655
   vertex 16.963203 -252.311096 -71.099655
  endloop
 endfacet
 facet normal -0.642785 0.000000 0.766046
  outer loop
   vertex 16.963203 -252.311096 -71.099655
   vertex 16.963203 -253.152725 -71.099655
   vertex 17.850832 -252.311096 -70.354851
  endloop
 endfacet
 facet normal -0.642785 -0.000000 0.766046
  outer loop
   vertex 17.850832 -252.311096 -70.354851
   vertex 16.963203 -253.152725 -71.099655
   vertex 17.850832 -253.152725 -70.354851
  endloop
 endfacet
 facet normal 0.766039 0.000000 0.642794
  outer loop
   vertex 17.850832 -253.152725 -70.354851
   vertex 18.003653 -252.326675 -70.536972
   vertex 17.850832 -252.311096 -70.354851
  endloop
 endfacet
 facet normal 0.766044 -0.000003 0.642788
  outer loop
   vertex 18.919802 -253.152725 -71.628799
   vertex 18.003653 -252.326675 -70.536972
   vertex 17.850832 -253.152725 -70.354851
  endloop
 endfacet
 facet normal 0.766045 -0.000001 0.642787
  outer loop
   vertex 18.766979 -252.326675 -71.446671
   vertex 18.003653 -252.326675 -70.536972
   vertex 18.919802 -253.152725 -71.628799
  endloop
 endfacet
 facet normal 0.766048 0.000000 0.642783
  outer loop
   vertex 18.919802 -253.152725 -71.628799
   vertex 18.919802 -252.311096 -71.628799
   vertex 18.766979 -252.326675 -71.446671
  endloop
 endfacet
 facet normal 0.766049 -0.000014 0.642782
  outer loop
   vertex 18.766979 -252.326675 -71.446671
   vertex 18.919802 -252.311096 -71.628799
   vertex 18.878614 -252.227982 -71.579712
  endloop
 endfacet
 facet normal 0.509065 0.610570 -0.606677
  outer loop
   vertex 18.878614 -252.227982 -71.579712
   vertex 18.919802 -252.311096 -71.628799
   vertex 17.990986 -252.227982 -72.324524
  endloop
 endfacet
 facet normal 0.000000 1.000000 0.000000
  outer loop
   vertex 17.990986 -252.227982 -72.324524
   vertex 18.776434 -252.227982 -71.457939
   vertex 18.878614 -252.227982 -71.579712
  endloop
 endfacet
 facet normal -0.000000 1.000000 -0.000000
  outer loop
   vertex 17.888805 -252.227982 -72.202744
   vertex 18.776434 -252.227982 -71.457939
   vertex 17.990986 -252.227982 -72.324524
  endloop
 endfacet
 facet normal -0.635763 0.147415 0.757677
  outer loop
   vertex 18.766979 -252.326675 -71.446671
   vertex 18.776434 -252.227982 -71.457939
   vertex 17.888805 -252.227982 -72.202744
  endloop
 endfacet
 facet normal -0.635774 0.147345 0.757681
  outer loop
   vertex 17.888805 -252.227982 -72.202744
   vertex 17.879353 -252.326675 -72.191483
   vertex 18.766979 -252.326675 -71.446671
  endloop
 endfacet
 facet normal 0.000000 1.000000 -0.000000
  outer loop
   vertex 18.766979 -252.326675 -71.446671
   vertex 17.879353 -252.326675 -72.191483
   vertex 17.116024 -252.326675 -71.281784
  endloop
 endfacet
 facet normal -0.766044 -0.000002 -0.642788
  outer loop
   vertex 17.116024 -252.326675 -71.281784
   vertex 17.879353 -252.326675 -72.191483
   vertex 18.032173 -253.152725 -72.373604
  endloop
 endfacet
 facet normal -0.766044 -0.000003 -0.642788
  outer loop
   vertex 18.032173 -253.152725 -72.373604
   vertex 16.963203 -253.152725 -71.099655
   vertex 17.116024 -252.326675 -71.281784
  endloop
 endfacet
 facet normal -0.766044 -0.000001 -0.642788
  outer loop
   vertex 17.124735 -253.887985 -71.292160
   vertex 16.963203 -253.152725 -71.099655
   vertex 18.032173 -253.152725 -72.373604
  endloop
 endfacet
 facet normal -0.608241 -0.323413 0.724877
  outer loop
   vertex 17.850832 -253.152725 -70.354851
   vertex 16.963203 -253.152725 -71.099655
   vertex 17.124735 -253.887985 -71.292160
  endloop
 endfacet
 facet normal -0.608241 -0.323413 0.724877
  outer loop
   vertex 17.124735 -253.887985 -71.292160
   vertex 18.012363 -253.887985 -70.547356
   vertex 17.850832 -253.152725 -70.354851
  endloop
 endfacet
 facet normal 0.766045 0.000001 0.642787
  outer loop
   vertex 17.850832 -253.152725 -70.354851
   vertex 18.012363 -253.887985 -70.547356
   vertex 18.758270 -253.887985 -71.436295
  endloop
 endfacet
 facet normal -0.000000 -1.000000 -0.000000
  outer loop
   vertex 18.758270 -253.887985 -71.436295
   vertex 18.012363 -253.887985 -70.547356
   vertex 17.124735 -253.887985 -71.292160
  endloop
 endfacet
 facet normal 0.000000 -1.000000 0.000000
  outer loop
   vertex 17.124735 -253.887985 -71.292160
   vertex 17.870642 -253.887985 -72.181099
   vertex 18.758270 -253.887985 -71.436295
  endloop
 endfacet
 facet normal -0.766045 0.000001 -0.642787
  outer loop
   vertex 18.032173 -253.152725 -72.373604
   vertex 17.870642 -253.887985 -72.181099
   vertex 17.124735 -253.887985 -71.292160
  endloop
 endfacet
 facet normal 0.608241 -0.323413 -0.724877
  outer loop
   vertex 18.758270 -253.887985 -71.436295
   vertex 17.870642 -253.887985 -72.181099
   vertex 18.032173 -253.152725 -72.373604
  endloop
 endfacet
 facet normal 0.608241 -0.323413 -0.724877
  outer loop
   vertex 18.032173 -253.152725 -72.373604
   vertex 18.919802 -253.152725 -71.628799
   vertex 18.758270 -253.887985 -71.436295
  endloop
 endfacet
 facet normal 0.766044 -0.000001 0.642788
  outer loop
   vertex 18.758270 -253.887985 -71.436295
   vertex 18.919802 -253.152725 -71.628799
   vertex 17.850832 -253.152725 -70.354851
  endloop
 endfacet
 facet normal -0.766044 0.000001 -0.642788
  outer loop
   vertex 11.920199 -253.152725 -75.331238
   vertex 12.989169 -253.152725 -76.605186
   vertex 12.827638 -253.887985 -76.412682
  endloop
 endfacet
 facet normal 0.608241 -0.323413 -0.724877
  outer loop
   vertex 12.827638 -253.887985 -76.412682
   vertex 12.989169 -253.152725 -76.605186
   vertex 13.876797 -253.152725 -75.860382
  endloop
 endfacet
 facet normal 0.608241 -0.323413 -0.724877
  outer loop
   vertex 13.876797 -253.152725 -75.860382
   vertex 13.715265 -253.887985 -75.667877
   vertex 12.827638 -253.887985 -76.412682
  endloop
 endfacet
 facet normal 0.766045 -0.000001 0.642787
  outer loop
   vertex 12.969357 -253.887985 -74.778938
   vertex 13.715265 -253.887985 -75.667877
   vertex 13.876797 -253.152725 -75.860382
  endloop
 endfacet
 facet normal -0.000000 -1.000000 0.000000
  outer loop
   vertex 12.827638 -253.887985 -76.412682
   vertex 13.715265 -253.887985 -75.667877
   vertex 12.969357 -253.887985 -74.778938
  endloop
 endfacet
 facet normal 0.000000 -1.000000 -0.000000
  outer loop
   vertex 12.969357 -253.887985 -74.778938
   vertex 12.081731 -253.887985 -75.523743
   vertex 12.827638 -253.887985 -76.412682
  endloop
 endfacet
 facet normal -0.766045 -0.000001 -0.642787
  outer loop
   vertex 12.827638 -253.887985 -76.412682
   vertex 12.081731 -253.887985 -75.523743
   vertex 11.920199 -253.152725 -75.331238
  endloop
 endfacet
 facet normal -0.608242 -0.323413 0.724877
  outer loop
   vertex 11.920199 -253.152725 -75.331238
   vertex 12.081731 -253.887985 -75.523743
   vertex 12.969357 -253.887985 -74.778938
  endloop
 endfacet
 facet normal -0.608242 -0.323413 0.724877
  outer loop
   vertex 12.969357 -253.887985 -74.778938
   vertex 12.807826 -253.152725 -74.586433
   vertex 11.920199 -253.152725 -75.331238
  endloop
 endfacet
 facet normal 0.766044 0.000001 0.642788
  outer loop
   vertex 13.876797 -253.152725 -75.860382
   vertex 12.807826 -253.152725 -74.586433
   vertex 12.969357 -253.887985 -74.778938
  endloop
 endfacet
 facet normal 0.766044 -0.000003 0.642788
  outer loop
   vertex 12.960648 -252.326675 -74.768555
   vertex 12.807826 -253.152725 -74.586433
   vertex 13.876797 -253.152725 -75.860382
  endloop
 endfacet
 facet normal 0.766044 -0.000003 0.642788
  outer loop
   vertex 13.876797 -253.152725 -75.860382
   vertex 13.723975 -252.326675 -75.678253
   vertex 12.960648 -252.326675 -74.768555
  endloop
 endfacet
 facet normal 0.000000 1.000000 0.000000
  outer loop
   vertex 12.960648 -252.326675 -74.768555
   vertex 13.723975 -252.326675 -75.678253
   vertex 12.836348 -252.326675 -76.423065
  endloop
 endfacet
 facet normal -0.635768 0.147403 0.757675
  outer loop
   vertex 12.836348 -252.326675 -76.423065
   vertex 13.723975 -252.326675 -75.678253
   vertex 13.733428 -252.227982 -75.689522
  endloop
 endfacet
 facet normal -0.635770 0.147352 0.757684
  outer loop
   vertex 13.733428 -252.227982 -75.689522
   vertex 12.845801 -252.227982 -76.434326
   vertex 12.836348 -252.326675 -76.423065
  endloop
 endfacet
 facet normal -0.000000 1.000000 -0.000000
  outer loop
   vertex 13.835609 -252.227982 -75.811295
   vertex 12.845801 -252.227982 -76.434326
   vertex 13.733428 -252.227982 -75.689522
  endloop
 endfacet
 facet normal -0.000000 1.000000 0.000000
  outer loop
   vertex 12.947982 -252.227982 -76.556107
   vertex 12.845801 -252.227982 -76.434326
   vertex 13.835609 -252.227982 -75.811295
  endloop
 endfacet
 facet normal 0.509083 0.610535 -0.606698
  outer loop
   vertex 13.835609 -252.227982 -75.811295
   vertex 12.989169 -252.311096 -76.605186
   vertex 12.947982 -252.227982 -76.556107
  endloop
 endfacet
 facet normal -0.766036 -0.000030 -0.642798
  outer loop
   vertex 12.947982 -252.227982 -76.556107
   vertex 12.989169 -252.311096 -76.605186
   vertex 12.836348 -252.326675 -76.423065
  endloop
 endfacet
 facet normal -0.766037 -0.000000 -0.642797
  outer loop
   vertex 12.836348 -252.326675 -76.423065
   vertex 12.989169 -252.311096 -76.605186
   vertex 12.989169 -253.152725 -76.605186
  endloop
 endfacet
 facet normal -0.766044 -0.000003 -0.642788
  outer loop
   vertex 12.989169 -253.152725 -76.605186
   vertex 12.073020 -252.326675 -75.513367
   vertex 12.836348 -252.326675 -76.423065
  endloop
 endfacet
 facet normal -0.766044 -0.000003 -0.642788
  outer loop
   vertex 11.920199 -253.152725 -75.331238
   vertex 12.073020 -252.326675 -75.513367
   vertex 12.989169 -253.152725 -76.605186
  endloop
 endfacet
 facet normal -0.766052 0.000000 -0.642778
  outer loop
   vertex 11.920199 -252.311096 -75.331238
   vertex 12.073020 -252.326675 -75.513367
   vertex 11.920199 -253.152725 -75.331238
  endloop
 endfacet
 facet normal -0.642786 -0.000000 0.766046
  outer loop
   vertex 11.920199 -253.152725 -75.331238
   vertex 12.807826 -253.152725 -74.586433
   vertex 11.920199 -252.311096 -75.331238
  endloop
 endfacet
 facet normal -0.642786 0.000000 0.766046
  outer loop
   vertex 11.920199 -252.311096 -75.331238
   vertex 12.807826 -253.152725 -74.586433
   vertex 12.807826 -252.311096 -74.586433
  endloop
 endfacet
 facet normal 0.766037 -0.000000 0.642797
  outer loop
   vertex 12.807826 -252.311096 -74.586433
   vertex 12.807826 -253.152725 -74.586433
   vertex 12.960648 -252.326675 -74.768555
  endloop
 endfacet
 facet normal 0.766038 0.000018 0.642796
  outer loop
   vertex 12.960648 -252.326675 -74.768555
   vertex 12.849014 -252.227982 -74.635521
   vertex 12.807826 -252.311096 -74.586433
  endloop
 endfacet
 facet normal 0.766041 0.000028 0.642791
  outer loop
   vertex 12.951195 -252.227982 -74.757294
   vertex 12.849014 -252.227982 -74.635521
   vertex 12.960648 -252.326675 -74.768555
  endloop
 endfacet
 facet normal 0.000000 1.000000 0.000000
  outer loop
   vertex 12.063567 -252.227982 -75.502098
   vertex 12.849014 -252.227982 -74.635521
   vertex 12.951195 -252.227982 -74.757294
  endloop
 endfacet
 facet normal 0.635770 0.147345 -0.757685
  outer loop
   vertex 12.951195 -252.227982 -74.757294
   vertex 12.960648 -252.326675 -74.768555
   vertex 12.063567 -252.227982 -75.502098
  endloop
 endfacet
 facet normal 0.635768 0.147403 -0.757675
  outer loop
   vertex 12.063567 -252.227982 -75.502098
   vertex 12.960648 -252.326675 -74.768555
   vertex 12.073020 -252.326675 -75.513367
  endloop
 endfacet
 facet normal -0.000000 1.000000 -0.000000
  outer loop
   vertex 12.073020 -252.326675 -75.513367
   vertex 12.960648 -252.326675 -74.768555
   vertex 12.836348 -252.326675 -76.423065
  endloop
 endfacet
 facet normal -0.642788 -0.000001 0.766044
  outer loop
   vertex 17.930683 -256.022675 -70.293533
   vertex 19.048717 -258.219513 -69.355392
   vertex 18.831490 -256.022675 -69.537666
  endloop
 endfacet
 facet normal -0.642783 -0.000000 0.766048
  outer loop
   vertex 18.831490 -256.022675 -69.537666
   vertex 19.048717 -258.219513 -69.355392
   vertex 19.048717 -254.123230 -69.355392
  endloop
 endfacet
 facet normal -0.766053 -0.000009 -0.642778
  outer loop
   vertex 11.920199 -252.311096 -75.331238
   vertex 11.961387 -252.227982 -75.380325
   vertex 12.073020 -252.326675 -75.513367
  endloop
 endfacet
 facet normal -0.766041 0.000021 -0.642791
  outer loop
   vertex 12.073020 -252.326675 -75.513367
   vertex 11.961387 -252.227982 -75.380325
   vertex 12.063567 -252.227982 -75.502098
  endloop
 endfacet
 facet normal 0.766038 -0.000032 0.642796
  outer loop
   vertex 17.850832 -252.311096 -70.354851
   vertex 18.003653 -252.326675 -70.536972
   vertex 17.892019 -252.227982 -70.403931
  endloop
 endfacet
 facet normal 0.766061 0.000033 0.642768
  outer loop
   vertex 17.892019 -252.227982 -70.403931
   vertex 18.003653 -252.326675 -70.536972
   vertex 17.994200 -252.227982 -70.525711
  endloop
 endfacet
 facet normal -0.766061 0.000040 -0.642768
  outer loop
   vertex 12.947982 -252.227982 -76.556107
   vertex 12.836348 -252.326675 -76.423065
   vertex 12.845801 -252.227982 -76.434326
  endloop
 endfacet
 facet normal 0.766041 0.000007 0.642791
  outer loop
   vertex 18.878614 -252.227982 -71.579712
   vertex 18.776434 -252.227982 -71.457939
   vertex 18.766979 -252.326675 -71.446671
  endloop
 endfacet
 facet normal 0.642787 -0.000000 -0.766045
  outer loop
   vertex 10.941510 -258.219513 -76.591927
   vertex 11.500528 -257.121094 -76.122856
   vertex 12.477795 -258.219513 -75.302834
  endloop
 endfacet
 facet normal -0.000000 1.000000 0.000000
  outer loop
   vertex 18.766979 -252.326675 -71.446671
   vertex 17.116024 -252.326675 -71.281784
   vertex 18.003653 -252.326675 -70.536972
  endloop
 endfacet
 facet normal -0.000030 1.000000 0.000036
  outer loop
   vertex 18.604078 -253.878525 -71.437164
   vertex 18.350731 -253.878525 -71.649757
   vertex 17.762724 -253.878586 -70.434555
  endloop
 endfacet
 facet normal -0.000030 1.000000 0.000036
  outer loop
   vertex 12.855272 -253.878525 -76.260986
   vertex 12.013993 -253.878586 -75.258316
   vertex 13.108627 -253.878525 -76.048401
  endloop
 endfacet
 facet normal 0.642788 0.000000 -0.766044
  outer loop
   vertex 13.648571 -253.139359 -75.991158
   vertex 13.648571 -253.068741 -75.991158
   vertex 18.200594 -253.068741 -72.171555
  endloop
 endfacet
 facet normal -0.766032 0.000017 -0.642802
  outer loop
   vertex 18.350731 -253.878525 -71.649757
   vertex 17.509352 -258.219421 -70.647194
   vertex 17.509409 -253.878525 -70.647148
  endloop
 endfacet
 facet normal -0.642787 0.000000 0.766045
  outer loop
   vertex 12.264198 -253.857513 -75.048279
   vertex 11.845949 -254.194672 -75.399231
   vertex 11.845949 -256.022675 -75.399231
  endloop
 endfacet
endsolid