solid stl file generated from DOUG
 facet normal -0.998912 0.000000 -0.046638
  outer loop
   vertex -63.162357 75.375221 40.553230
   vertex -63.168709 75.375221 40.689270
   vertex -63.168709 84.624763 40.689274
  endloop
 endfacet
 facet normal -0.630671 -0.000000 0.776050
  outer loop
   vertex -63.168709 84.624763 40.689274
   vertex -63.168709 75.375221 40.689270
   vertex -63.088966 84.624763 40.754078
  endloop
 endfacet
 facet normal 0.249910 0.000000 0.968269
  outer loop
   vertex -64.019531 84.624763 39.856628
   vertex -64.151398 84.624763 39.890663
   vertex -64.151398 75.375221 39.890663
  endloop
 endfacet
 facet normal -0.630671 -0.000000 0.776050
  outer loop
   vertex -64.151398 75.375221 39.890663
   vertex -64.151398 84.624763 39.890663
   vertex -64.231140 84.624763 39.825859
  endloop
 endfacet
 facet normal -0.630671 0.000000 0.776050
  outer loop
   vertex -64.231140 84.624763 39.825859
   vertex -64.231140 75.375221 39.825859
   vertex -64.151398 75.375221 39.890663
  endloop
 endfacet
 facet normal -0.867097 0.000000 0.498139
  outer loop
   vertex -63.769028 84.624763 39.257229
   vertex -63.769028 75.375221 39.257229
   vertex -63.752258 84.624763 39.286419
  endloop
 endfacet
 facet normal -0.867097 -0.000000 0.498139
  outer loop
   vertex -63.752258 84.624763 39.286419
   vertex -63.769028 75.375221 39.257229
   vertex -63.752258 75.375221 39.286419
  endloop
 endfacet
 facet normal -0.776043 0.000000 -0.630680
  outer loop
   vertex -63.752258 75.375221 39.286419
   vertex -64.114998 75.375221 39.732765
   vertex -63.752258 84.624763 39.286419
  endloop
 endfacet
 facet normal -0.998912 -0.000000 -0.046636
  outer loop
   vertex -63.168709 84.624763 40.689274
   vertex -63.162357 84.624763 40.553230
   vertex -63.162357 75.375221 40.553230
  endloop
 endfacet
 facet normal -0.630673 -0.000000 0.776048
  outer loop
   vertex -63.162357 75.375221 40.553230
   vertex -63.162357 84.624763 40.553230
   vertex -64.019531 84.624763 39.856628
  endloop
 endfacet
 facet normal -0.630673 0.000000 0.776048
  outer loop
   vertex -64.019531 84.624763 39.856628
   vertex -64.019531 75.375221 39.856628
   vertex -63.162357 75.375221 40.553230
  endloop
 endfacet
 facet normal 0.249910 -0.000000 0.968269
  outer loop
   vertex -64.151398 75.375221 39.890663
   vertex -64.019531 75.375221 39.856628
   vertex -64.019531 84.624763 39.856628
  endloop
 endfacet
 facet normal -0.776042 -0.000000 -0.630681
  outer loop
   vertex -64.231140 75.375221 39.825859
   vertex -64.231140 84.624763 39.825859
   vertex -64.146996 75.375221 39.722321
  endloop
 endfacet
 facet normal -0.776042 -0.000000 -0.630681
  outer loop
   vertex -64.146996 75.375221 39.722321
   vertex -64.231140 84.624763 39.825859
   vertex -64.146996 84.624763 39.722321
  endloop
 endfacet
 facet normal 0.310306 0.000000 -0.950637
  outer loop
   vertex -64.146996 84.624763 39.722321
   vertex -64.114998 75.375221 39.732765
   vertex -64.146996 75.375221 39.722321
  endloop
 endfacet
 facet normal 0.310306 -0.000000 -0.950637
  outer loop
   vertex -64.114998 84.624763 39.732765
   vertex -64.114998 75.375221 39.732765
   vertex -64.146996 84.624763 39.722321
  endloop
 endfacet
 facet normal -0.776043 0.000000 -0.630680
  outer loop
   vertex -63.752258 84.624763 39.286419
   vertex -64.114998 75.375221 39.732765
   vertex -64.114998 84.624763 39.732765
  endloop
 endfacet
 facet normal 0.000000 1.000000 -0.000000
  outer loop
   vertex -63.087540 85.163101 40.779343
   vertex -63.726078 85.163101 39.177361
   vertex -64.256165 85.163101 39.829628
  endloop
 endfacet
 facet normal -0.776045 -0.000000 -0.630678
  outer loop
   vertex -64.256165 85.163101 39.829628
   vertex -63.726078 85.163101 39.177361
   vertex -64.256165 84.163101 39.829628
  endloop
 endfacet
 facet normal -0.630675 0.000000 0.776047
  outer loop
   vertex -64.256165 84.163101 39.829628
   vertex -63.087540 84.163101 40.779343
   vertex -64.256165 85.163101 39.829628
  endloop
 endfacet
 facet normal -0.000000 -1.000000 -0.000000
  outer loop
   vertex -63.726078 84.163101 39.177361
   vertex -63.087540 84.163101 40.779343
   vertex -64.256165 84.163101 39.829628
  endloop
 endfacet
 facet normal 0.000000 -1.000000 -0.000000
  outer loop
   vertex -62.557457 84.163101 40.127075
   vertex -63.087540 84.163101 40.779343
   vertex -63.726078 84.163101 39.177361
  endloop
 endfacet
 facet normal 0.630677 -0.000000 -0.776046
  outer loop
   vertex -63.726078 84.163101 39.177361
   vertex -63.726078 85.163101 39.177361
   vertex -62.557457 84.163101 40.127075
  endloop
 endfacet
 facet normal 0.630677 0.000000 -0.776046
  outer loop
   vertex -62.557457 84.163101 40.127075
   vertex -63.726078 85.163101 39.177361
   vertex -62.557457 85.163101 40.127075
  endloop
 endfacet
 facet normal -0.000000 1.000000 -0.000000
  outer loop
   vertex -62.557457 85.163101 40.127075
   vertex -63.726078 85.163101 39.177361
   vertex -63.087540 85.163101 40.779343
  endloop
 endfacet
 facet normal 0.776047 -0.000000 0.630675
  outer loop
   vertex -63.087540 85.163101 40.779343
   vertex -63.087540 84.163101 40.779343
   vertex -62.557457 85.163101 40.127075
  endloop
 endfacet
 facet normal -0.630675 -0.000000 0.776047
  outer loop
   vertex -64.256165 85.163101 39.829628
   vertex -63.087540 84.163101 40.779343
   vertex -63.087540 85.163101 40.779343
  endloop
 endfacet
 facet normal 0.000000 1.000000 0.000000
  outer loop
   vertex -64.256165 75.836884 39.829628
   vertex -63.087540 75.836884 40.779343
   vertex -63.726078 75.836884 39.177361
  endloop
 endfacet
 facet normal -0.000000 1.000000 0.000000
  outer loop
   vertex -63.726078 75.836884 39.177361
   vertex -63.087540 75.836884 40.779343
   vertex -62.557457 75.836884 40.127075
  endloop
 endfacet
 facet normal 0.630677 0.000000 -0.776046
  outer loop
   vertex -62.557457 75.836884 40.127075
   vertex -62.557457 74.836884 40.127075
   vertex -63.726078 75.836884 39.177361
  endloop
 endfacet
 facet normal 0.776047 -0.000000 0.630675
  outer loop
   vertex -63.087540 75.836884 40.779343
   vertex -62.557457 74.836884 40.127075
   vertex -62.557457 75.836884 40.127075
  endloop
 endfacet
 facet normal 0.776047 0.000000 0.630675
  outer loop
   vertex -63.087540 74.836884 40.779343
   vertex -62.557457 74.836884 40.127075
   vertex -63.087540 75.836884 40.779343
  endloop
 endfacet
 facet normal -0.630675 -0.000000 0.776047
  outer loop
   vertex -63.087540 75.836884 40.779343
   vertex -64.256165 74.836884 39.829628
   vertex -63.087540 74.836884 40.779343
  endloop
 endfacet
 facet normal 0.000000 -1.000000 0.000000
  outer loop
   vertex -63.087540 74.836884 40.779343
   vertex -64.256165 74.836884 39.829628
   vertex -62.557457 74.836884 40.127075
  endloop
 endfacet
 facet normal 0.000000 -1.000000 -0.000000
  outer loop
   vertex -62.557457 74.836884 40.127075
   vertex -64.256165 74.836884 39.829628
   vertex -63.726078 74.836884 39.177361
  endloop
 endfacet
 facet normal 0.630677 0.000000 -0.776046
  outer loop
   vertex -63.726078 74.836884 39.177361
   vertex -63.726078 75.836884 39.177361
   vertex -62.557457 74.836884 40.127075
  endloop
 endfacet
 facet normal -0.776045 -0.000000 -0.630678
  outer loop
   vertex -64.256165 74.836884 39.829628
   vertex -63.726078 75.836884 39.177361
   vertex -63.726078 74.836884 39.177361
  endloop
 endfacet
 facet normal -0.776045 0.000000 -0.630678
  outer loop
   vertex -64.256165 75.836884 39.829628
   vertex -63.726078 75.836884 39.177361
   vertex -64.256165 74.836884 39.829628
  endloop
 endfacet
 facet normal -0.630675 -0.000000 0.776047
  outer loop
   vertex -64.256165 74.836884 39.829628
   vertex -63.087540 75.836884 40.779343
   vertex -64.256165 75.836884 39.829628
  endloop
 endfacet
 facet normal -0.630693 0.000000 0.776032
  outer loop
   vertex -63.168709 75.375221 40.689270
   vertex -63.088966 75.375221 40.754078
   vertex -63.088966 84.624763 40.754078
  endloop
 endfacet
 facet normal 0.776042 -0.000000 0.630681
  outer loop
   vertex -63.088966 84.624763 40.754078
   vertex -63.088966 75.375221 40.754078
   vertex -63.004822 75.375221 40.650539
  endloop
 endfacet
 facet normal 0.776042 0.000000 0.630681
  outer loop
   vertex -63.004822 75.375221 40.650539
   vertex -63.004822 84.624763 40.650539
   vertex -63.088966 84.624763 40.754078
  endloop
 endfacet
 facet normal 0.867048 -0.000000 -0.498224
  outer loop
   vertex -63.021595 75.375221 40.621349
   vertex -63.004822 84.624763 40.650539
   vertex -63.004822 75.375221 40.650539
  endloop
 endfacet
 facet normal 0.867048 0.000000 -0.498224
  outer loop
   vertex -63.021595 84.624763 40.621349
   vertex -63.004822 84.624763 40.650539
   vertex -63.021595 75.375221 40.621349
  endloop
 endfacet
 facet normal 0.776046 -0.000000 0.630677
  outer loop
   vertex -63.021595 75.375221 40.621349
   vertex -62.658855 75.375221 40.174999
   vertex -63.021595 84.624763 40.621349
  endloop
 endfacet
 facet normal 0.776043 -0.000000 0.630680
  outer loop
   vertex -63.021595 84.624763 40.621349
   vertex -62.658855 75.375221 40.174999
   vertex -62.658855 84.624763 40.175003
  endloop
 endfacet
 facet normal -0.310375 -0.000000 0.950614
  outer loop
   vertex -62.658855 84.624763 40.175003
   vertex -62.658855 75.375221 40.174999
   vertex -62.626854 75.375221 40.185448
  endloop
 endfacet
 facet normal -0.310272 0.000000 0.950648
  outer loop
   vertex -62.626854 75.375221 40.185448
   vertex -62.626854 84.624763 40.185448
   vertex -62.658855 84.624763 40.175003
  endloop
 endfacet
 facet normal 0.776028 0.000000 0.630699
  outer loop
   vertex -62.585102 75.375221 40.134075
   vertex -62.626854 84.624763 40.185448
   vertex -62.626854 75.375221 40.185448
  endloop
 endfacet
 facet normal 0.776028 0.000000 0.630699
  outer loop
   vertex -62.585102 84.624763 40.134075
   vertex -62.626854 84.624763 40.185448
   vertex -62.585102 75.375221 40.134075
  endloop
 endfacet
 facet normal 0.630677 -0.000000 -0.776045
  outer loop
   vertex -62.585102 75.375221 40.134075
   vertex -63.727276 75.375221 39.205853
   vertex -62.585102 84.624763 40.134075
  endloop
 endfacet
 facet normal 0.630676 0.000000 -0.776047
  outer loop
   vertex -62.585102 84.624763 40.134075
   vertex -63.727276 75.375221 39.205853
   vertex -63.727276 84.624763 39.205856
  endloop
 endfacet
 facet normal -0.776028 0.000000 -0.630699
  outer loop
   vertex -63.727276 84.624763 39.205856
   vertex -63.727276 75.375221 39.205853
   vertex -63.769028 84.624763 39.257229
  endloop
 endfacet
 facet normal -0.776045 0.000000 -0.630678
  outer loop
   vertex -63.726078 84.163101 39.177361
   vertex -64.256165 84.163101 39.829628
   vertex -63.726078 85.163101 39.177361
  endloop
 endfacet
 facet normal 0.776047 -0.000000 0.630675
  outer loop
   vertex -63.087540 84.163101 40.779343
   vertex -62.557457 84.163101 40.127075
   vertex -62.557457 85.163101 40.127075
  endloop
 endfacet
 facet normal -0.776051 0.000000 -0.630671
  outer loop
   vertex -63.727276 75.375221 39.205853
   vertex -63.769028 75.375221 39.257229
   vertex -63.769028 84.624763 39.257229
  endloop
 endfacet
 facet normal 0.296988 -0.923876 0.241354
  outer loop
   vertex -61.917915 74.324989 38.146271
   vertex -61.287243 74.324989 37.370224
   vertex -61.369171 74.617889 38.592224
  endloop
 endfacet
 facet normal 0.296986 -0.923876 0.241354
  outer loop
   vertex -61.369171 74.617889 38.592224
   vertex -61.287243 74.324989 37.370224
   vertex -60.738495 74.617889 37.816177
  endloop
 endfacet
 facet normal 0.716973 -0.382685 0.582668
  outer loop
   vertex -60.738495 74.617889 37.816177
   vertex -61.141872 75.324989 38.776943
   vertex -61.369171 74.617889 38.592224
  endloop
 endfacet
 facet normal 0.716970 -0.382688 0.582669
  outer loop
   vertex -60.511196 75.324989 38.000900
   vertex -61.141872 75.324989 38.776943
   vertex -60.738495 74.617889 37.816177
  endloop
 endfacet
 facet normal 0.716972 0.382682 0.582671
  outer loop
   vertex -61.369171 76.032097 38.592224
   vertex -61.141872 75.324989 38.776943
   vertex -60.511196 75.324989 38.000900
  endloop
 endfacet
 facet normal 0.716973 0.382685 0.582668
  outer loop
   vertex -60.511196 75.324989 38.000900
   vertex -60.738495 76.032097 37.816177
   vertex -61.369171 76.032097 38.592224
  endloop
 endfacet
 facet normal 0.296981 0.923879 0.241350
  outer loop
   vertex -61.369171 76.032097 38.592224
   vertex -60.738495 76.032097 37.816177
   vertex -61.917915 76.324989 38.146271
  endloop
 endfacet
 facet normal 0.296981 0.923879 0.241350
  outer loop
   vertex -61.917915 76.324989 38.146271
   vertex -60.738495 76.032097 37.816177
   vertex -61.287239 76.324989 37.370224
  endloop
 endfacet
 facet normal -0.296979 0.923880 -0.241348
  outer loop
   vertex -61.287239 76.324989 37.370224
   vertex -62.466663 76.032097 37.700314
   vertex -61.917915 76.324989 38.146271
  endloop
 endfacet
 facet normal -0.296979 0.923880 -0.241348
  outer loop
   vertex -61.835987 76.032097 36.924267
   vertex -62.466663 76.032097 37.700314
   vertex -61.287239 76.324989 37.370224
  endloop
 endfacet
 facet normal -0.716974 0.382682 -0.582669
  outer loop
   vertex -62.693962 75.324989 37.515594
   vertex -62.466663 76.032097 37.700314
   vertex -61.835987 76.032097 36.924267
  endloop
 endfacet
 facet normal -0.716974 0.382685 -0.582666
  outer loop
   vertex -61.835987 76.032097 36.924267
   vertex -62.063286 75.324997 36.739548
   vertex -62.693962 75.324989 37.515594
  endloop
 endfacet
 facet normal -0.716971 -0.382685 -0.582670
  outer loop
   vertex -62.693962 75.324989 37.515594
   vertex -62.063286 75.324997 36.739548
   vertex -62.466663 74.617889 37.700314
  endloop
 endfacet
 facet normal -0.716977 -0.382679 -0.582668
  outer loop
   vertex -62.466663 74.617889 37.700314
   vertex -62.063286 75.324997 36.739548
   vertex -61.835991 74.617889 36.924267
  endloop
 endfacet
 facet normal -0.296986 -0.923877 -0.241353
  outer loop
   vertex -61.835991 74.617889 36.924267
   vertex -61.917915 74.324989 38.146271
   vertex -62.466663 74.617889 37.700314
  endloop
 endfacet
 facet normal -0.296986 -0.923877 -0.241353
  outer loop
   vertex -61.287243 74.324989 37.370224
   vertex -61.917915 74.324989 38.146271
   vertex -61.835991 74.617889 36.924267
  endloop
 endfacet
 facet normal -0.296988 0.923875 -0.241357
  outer loop
   vertex -62.679451 84.851768 38.803036
   vertex -63.172939 84.924995 39.690571
   vertex -62.542263 84.924995 38.914528
  endloop
 endfacet
 facet normal 0.296988 0.923875 0.241357
  outer loop
   vertex -62.542263 84.924995 38.914528
   vertex -63.172939 84.924995 39.690571
   vertex -63.035751 84.851768 39.802063
  endloop
 endfacet
 facet normal 0.296992 0.923873 0.241359
  outer loop
   vertex -63.035751 84.851768 39.802063
   vertex -62.405075 84.851768 39.026016
   vertex -62.542263 84.924995 38.914528
  endloop
 endfacet
 facet normal 0.716975 0.382678 0.582670
  outer loop
   vertex -62.978928 84.674995 39.848240
   vertex -62.405075 84.851768 39.026016
   vertex -63.035751 84.851768 39.802063
  endloop
 endfacet
 facet normal 0.716970 0.382688 0.582669
  outer loop
   vertex -62.348251 84.674995 39.072197
   vertex -62.405075 84.851768 39.026016
   vertex -62.978928 84.674995 39.848240
  endloop
 endfacet
 facet normal 0.716978 -0.382664 0.582675
  outer loop
   vertex -62.978928 84.674995 39.848240
   vertex -63.035751 84.498215 39.802063
   vertex -62.348251 84.674995 39.072197
  endloop
 endfacet
 facet normal 0.716976 -0.382674 0.582671
  outer loop
   vertex -62.348251 84.674995 39.072197
   vertex -63.035751 84.498215 39.802063
   vertex -62.405075 84.498215 39.026016
  endloop
 endfacet
 facet normal 0.296962 -0.923889 0.241335
  outer loop
   vertex -62.405075 84.498215 39.026016
   vertex -63.035751 84.498215 39.802063
   vertex -63.172939 84.424995 39.690571
  endloop
 endfacet
 facet normal 0.296965 -0.923887 0.241338
  outer loop
   vertex -63.172939 84.424995 39.690571
   vertex -62.542263 84.424995 38.914528
   vertex -62.405075 84.498215 39.026016
  endloop
 endfacet
 facet normal -0.296969 -0.923885 -0.241342
  outer loop
   vertex -63.310123 84.498215 39.579082
   vertex -62.542263 84.424995 38.914528
   vertex -63.172939 84.424995 39.690571
  endloop
 endfacet
 facet normal -0.296963 -0.923889 -0.241334
  outer loop
   vertex -62.679451 84.498215 38.803036
   vertex -62.542263 84.424995 38.914528
   vertex -63.310123 84.498215 39.579082
  endloop
 endfacet
 facet normal -0.716977 -0.382677 -0.582668
  outer loop
   vertex -63.310123 84.498215 39.579082
   vertex -63.366951 84.674995 39.532906
   vertex -62.679451 84.498215 38.803036
  endloop
 endfacet
 facet normal -0.716980 -0.382664 -0.582674
  outer loop
   vertex -62.679451 84.498215 38.803036
   vertex -63.366951 84.674995 39.532906
   vertex -62.736275 84.674995 38.756859
  endloop
 endfacet
 facet normal -0.716971 0.382691 -0.582667
  outer loop
   vertex -62.736275 84.674995 38.756859
   vertex -63.366951 84.674995 39.532906
   vertex -63.310123 84.851768 39.579082
  endloop
 endfacet
 facet normal -0.716977 0.382678 -0.582668
  outer loop
   vertex -63.310123 84.851768 39.579082
   vertex -62.679451 84.851768 38.803036
   vertex -62.736275 84.674995 38.756859
  endloop
 endfacet
 facet normal -0.296997 0.923871 -0.241361
  outer loop
   vertex -63.172939 84.924995 39.690571
   vertex -62.679451 84.851768 38.803036
   vertex -63.310123 84.851768 39.579082
  endloop
 endfacet
 facet normal -0.296986 0.923877 -0.241353
  outer loop
   vertex -61.835991 85.382095 36.924267
   vertex -61.917915 85.674995 38.146271
   vertex -61.287243 85.674995 37.370224
  endloop
 endfacet
 facet normal 0.296988 0.923876 0.241354
  outer loop
   vertex -61.287243 85.674995 37.370224
   vertex -61.917915 85.674995 38.146271
   vertex -61.369171 85.382095 38.592224
  endloop
 endfacet
 facet normal 0.296986 0.923876 0.241354
  outer loop
   vertex -61.369171 85.382095 38.592224
   vertex -60.738495 85.382095 37.816177
   vertex -61.287243 85.674995 37.370224
  endloop
 endfacet
 facet normal 0.716972 0.382688 0.582667
  outer loop
   vertex -61.141872 84.674995 38.776947
   vertex -60.738495 85.382095 37.816177
   vertex -61.369171 85.382095 38.592224
  endloop
 endfacet
 facet normal 0.716972 0.382688 0.582667
  outer loop
   vertex -60.511196 84.674995 38.000900
   vertex -60.738495 85.382095 37.816177
   vertex -61.141872 84.674995 38.776947
  endloop
 endfacet
 facet normal 0.716973 -0.382685 0.582668
  outer loop
   vertex -61.141872 84.674995 38.776947
   vertex -61.369171 83.967888 38.592224
   vertex -60.511196 84.674995 38.000900
  endloop
 endfacet
 facet normal 0.716973 -0.382685 0.582668
  outer loop
   vertex -60.511196 84.674995 38.000900
   vertex -61.369171 83.967888 38.592224
   vertex -60.738495 83.967888 37.816177
  endloop
 endfacet
 facet normal 0.296981 -0.923879 0.241350
  outer loop
   vertex -60.738495 83.967888 37.816177
   vertex -61.369171 83.967888 38.592224
   vertex -61.917915 83.674995 38.146271
  endloop
 endfacet
 facet normal 0.296981 -0.923879 0.241350
  outer loop
   vertex -61.917915 83.674995 38.146271
   vertex -61.287239 83.674995 37.370224
   vertex -60.738495 83.967888 37.816177
  endloop
 endfacet
 facet normal -0.296979 -0.923880 -0.241348
  outer loop
   vertex -62.466663 83.967888 37.700314
   vertex -61.287239 83.674995 37.370224
   vertex -61.917915 83.674995 38.146271
  endloop
 endfacet
 facet normal -0.296979 -0.923880 -0.241348
  outer loop
   vertex -61.835987 83.967888 36.924267
   vertex -61.287239 83.674995 37.370224
   vertex -62.466663 83.967888 37.700314
  endloop
 endfacet
 facet normal -0.716974 -0.382682 -0.582669
  outer loop
   vertex -62.466663 83.967888 37.700314
   vertex -62.693962 84.674995 37.515594
   vertex -61.835987 83.967888 36.924267
  endloop
 endfacet
 facet normal -0.716974 -0.382682 -0.582669
  outer loop
   vertex -61.835987 83.967888 36.924267
   vertex -62.693962 84.674995 37.515594
   vertex -62.063286 84.674995 36.739548
  endloop
 endfacet
 facet normal -0.716973 0.382685 -0.582668
  outer loop
   vertex -62.063286 84.674995 36.739548
   vertex -62.693962 84.674995 37.515594
   vertex -62.466663 85.382095 37.700314
  endloop
 endfacet
 facet normal -0.716975 0.382682 -0.582667
  outer loop
   vertex -62.466663 85.382095 37.700314
   vertex -61.835991 85.382095 36.924267
   vertex -62.063286 84.674995 36.739548
  endloop
 endfacet
 facet normal -0.296986 0.923877 -0.241353
  outer loop
   vertex -61.917915 85.674995 38.146271
   vertex -61.835991 85.382095 36.924267
   vertex -62.466663 85.382095 37.700314
  endloop
 endfacet
 facet normal -0.603308 0.759391 0.243608
  outer loop
   vertex -62.466663 85.382095 37.700314
   vertex -62.548592 84.924995 38.922318
   vertex -61.917915 85.674995 38.146271
  endloop
 endfacet
 facet normal -0.115079 0.759389 0.640379
  outer loop
   vertex -61.917915 85.674995 38.146271
   vertex -62.548592 84.924995 38.922318
   vertex -62.411407 84.851768 39.033806
  endloop
 endfacet
 facet normal -0.115086 0.759390 0.640376
  outer loop
   vertex -62.411407 84.851768 39.033806
   vertex -61.369171 85.382095 38.592224
   vertex -61.917915 85.674995 38.146271
  endloop
 endfacet
 facet normal 0.230122 0.314562 0.920921
  outer loop
   vertex -62.354580 84.674995 39.079987
   vertex -61.369171 85.382095 38.592224
   vertex -62.411407 84.851768 39.033806
  endloop
 endfacet
 facet normal 0.230126 0.314556 0.920921
  outer loop
   vertex -61.141872 84.674995 38.776947
   vertex -61.369171 85.382095 38.592224
   vertex -62.354580 84.674995 39.079987
  endloop
 endfacet
 facet normal 0.230127 -0.314550 0.920923
  outer loop
   vertex -62.354580 84.674995 39.079987
   vertex -62.411407 84.498215 39.033806
   vertex -61.141872 84.674995 38.776947
  endloop
 endfacet
 facet normal 0.230127 -0.314553 0.920922
  outer loop
   vertex -61.141872 84.674995 38.776947
   vertex -62.411407 84.498215 39.033806
   vertex -61.369171 83.967888 38.592224
  endloop
 endfacet
 facet normal -0.115099 -0.759402 0.640360
  outer loop
   vertex -61.369171 83.967888 38.592224
   vertex -62.411407 84.498215 39.033806
   vertex -62.548592 84.424995 38.922318
  endloop
 endfacet
 facet normal -0.115092 -0.759393 0.640372
  outer loop
   vertex -62.548592 84.424995 38.922318
   vertex -61.917915 83.674995 38.146271
   vertex -61.369171 83.967888 38.592224
  endloop
 endfacet
 facet normal -0.603291 -0.759398 0.243628
  outer loop
   vertex -62.685780 84.498215 38.810829
   vertex -61.917915 83.674995 38.146271
   vertex -62.548592 84.424995 38.922318
  endloop
 endfacet
 facet normal -0.603302 -0.759394 0.243611
  outer loop
   vertex -62.466663 83.967888 37.700314
   vertex -61.917915 83.674995 38.146271
   vertex -62.685780 84.498215 38.810829
  endloop
 endfacet
 facet normal -0.948525 -0.314541 -0.036944
  outer loop
   vertex -62.685780 84.498215 38.810829
   vertex -62.742603 84.674995 38.764648
   vertex -62.466663 83.967888 37.700314
  endloop
 endfacet
 facet normal -0.948522 -0.314550 -0.036938
  outer loop
   vertex -62.466663 83.967888 37.700314
   vertex -62.742603 84.674995 38.764648
   vertex -62.693962 84.674995 37.515594
  endloop
 endfacet
 facet normal -0.948522 0.314551 -0.036938
  outer loop
   vertex -62.693962 84.674995 37.515594
   vertex -62.742603 84.674995 38.764648
   vertex -62.685780 84.851768 38.810825
  endloop
 endfacet
 facet normal -0.948521 0.314553 -0.036938
  outer loop
   vertex -62.685780 84.851768 38.810825
   vertex -62.466663 85.382095 37.700314
   vertex -62.693962 84.674995 37.515594
  endloop
 endfacet
 facet normal -0.603315 0.759386 0.243605
  outer loop
   vertex -62.548592 84.924995 38.922318
   vertex -62.466663 85.382095 37.700314
   vertex -62.685780 84.851768 38.810825
  endloop
 endfacet
 facet normal 0.296992 -0.923873 0.241359
  outer loop
   vertex -63.172939 75.074989 39.690571
   vertex -62.542263 75.074989 38.914524
   vertex -63.035751 75.148216 39.802059
  endloop
 endfacet
 facet normal 0.296992 -0.923873 0.241359
  outer loop
   vertex -63.035751 75.148216 39.802059
   vertex -62.542263 75.074989 38.914524
   vertex -62.405075 75.148216 39.026012
  endloop
 endfacet
 facet normal 0.716972 -0.382688 0.582667
  outer loop
   vertex -62.405075 75.148216 39.026012
   vertex -62.978928 75.324989 39.848240
   vertex -63.035751 75.148216 39.802059
  endloop
 endfacet
 facet normal 0.716972 -0.382688 0.582667
  outer loop
   vertex -62.348251 75.324989 39.072193
   vertex -62.978928 75.324989 39.848240
   vertex -62.405075 75.148216 39.026012
  endloop
 endfacet
 facet normal 0.716976 0.382674 0.582671
  outer loop
   vertex -63.035751 75.501770 39.802059
   vertex -62.978928 75.324989 39.848240
   vertex -62.348251 75.324989 39.072193
  endloop
 endfacet
 facet normal 0.716978 0.382664 0.582675
  outer loop
   vertex -62.348251 75.324989 39.072193
   vertex -62.405075 75.501770 39.026016
   vertex -63.035751 75.501770 39.802059
  endloop
 endfacet
 facet normal 0.296965 0.923887 0.241338
  outer loop
   vertex -63.035751 75.501770 39.802059
   vertex -62.405075 75.501770 39.026016
   vertex -63.172939 75.574989 39.690571
  endloop
 endfacet
 facet normal 0.296962 0.923889 0.241335
  outer loop
   vertex -63.172939 75.574989 39.690571
   vertex -62.405075 75.501770 39.026016
   vertex -62.542263 75.574989 38.914524
  endloop
 endfacet
 facet normal -0.296970 0.923885 -0.241341
  outer loop
   vertex -62.542263 75.574989 38.914524
   vertex -63.310123 75.501770 39.579082
   vertex -63.172939 75.574989 39.690571
  endloop
 endfacet
 facet normal -0.296966 0.923887 -0.241336
  outer loop
   vertex -62.679451 75.501770 38.803036
   vertex -63.310123 75.501770 39.579082
   vertex -62.542263 75.574989 38.914524
  endloop
 endfacet
 facet normal -0.716974 0.382688 -0.582665
  outer loop
   vertex -63.366951 75.324989 39.532902
   vertex -63.310123 75.501770 39.579082
   vertex -62.679451 75.501770 38.803036
  endloop
 endfacet
 facet normal -0.716976 0.382674 -0.582671
  outer loop
   vertex -62.679451 75.501770 38.803036
   vertex -62.736275 75.324989 38.756855
   vertex -63.366951 75.324989 39.532902
  endloop
 endfacet
 facet normal -0.716967 -0.382702 -0.582664
  outer loop
   vertex -63.366951 75.324989 39.532902
   vertex -62.736275 75.324989 38.756855
   vertex -63.310123 75.148216 39.579082
  endloop
 endfacet
 facet normal -0.716973 -0.382688 -0.582665
  outer loop
   vertex -63.310123 75.148216 39.579082
   vertex -62.736275 75.324989 38.756855
   vertex -62.679451 75.148216 38.803036
  endloop
 endfacet
 facet normal -0.296997 -0.923871 -0.241361
  outer loop
   vertex -62.679451 75.148216 38.803036
   vertex -63.172939 75.074989 39.690571
   vertex -63.310123 75.148216 39.579082
  endloop
 endfacet
 facet normal -0.296992 -0.923873 -0.241359
  outer loop
   vertex -62.542263 75.074989 38.914524
   vertex -63.172939 75.074989 39.690571
   vertex -62.679451 75.148216 38.803036
  endloop
 endfacet
 facet normal -0.603311 -0.759388 0.243607
  outer loop
   vertex -62.685780 75.148216 38.810825
   vertex -62.466663 74.617889 37.700314
   vertex -62.548592 75.074989 38.922314
  endloop
 endfacet
 facet normal -0.603309 -0.759390 0.243608
  outer loop
   vertex -62.548592 75.074989 38.922314
   vertex -62.466663 74.617889 37.700314
   vertex -61.917915 74.324989 38.146271
  endloop
 endfacet
 facet normal -0.115092 -0.759391 0.640374
  outer loop
   vertex -61.917915 74.324989 38.146271
   vertex -62.411407 75.148216 39.033806
   vertex -62.548592 75.074989 38.922314
  endloop
 endfacet
 facet normal -0.115086 -0.759390 0.640376
  outer loop
   vertex -61.369171 74.617889 38.592224
   vertex -62.411407 75.148216 39.033806
   vertex -61.917915 74.324989 38.146271
  endloop
 endfacet
 facet normal 0.230131 -0.314546 0.920924
  outer loop
   vertex -62.354580 75.324989 39.079983
   vertex -62.411407 75.148216 39.033806
   vertex -61.369171 74.617889 38.592224
  endloop
 endfacet
 facet normal 0.230126 -0.314552 0.920923
  outer loop
   vertex -61.369171 74.617889 38.592224
   vertex -61.141872 75.324989 38.776943
   vertex -62.354580 75.324989 39.079983
  endloop
 endfacet
 facet normal 0.230128 0.314532 0.920929
  outer loop
   vertex -62.354580 75.324989 39.079983
   vertex -61.141872 75.324989 38.776943
   vertex -62.411407 75.501770 39.033806
  endloop
 endfacet
 facet normal 0.230129 0.314549 0.920923
  outer loop
   vertex -62.411407 75.501770 39.033806
   vertex -61.141872 75.324989 38.776943
   vertex -61.369171 76.032097 38.592224
  endloop
 endfacet
 facet normal -0.115106 0.759409 0.640351
  outer loop
   vertex -61.369171 76.032097 38.592224
   vertex -62.548592 75.574989 38.922314
   vertex -62.411407 75.501770 39.033806
  endloop
 endfacet
 facet normal -0.115093 0.759392 0.640373
  outer loop
   vertex -61.917915 76.324989 38.146271
   vertex -62.548592 75.574989 38.922314
   vertex -61.369171 76.032097 38.592224
  endloop
 endfacet
 facet normal -0.603291 0.759397 0.243629
  outer loop
   vertex -62.685780 75.501770 38.810825
   vertex -62.548592 75.574989 38.922314
   vertex -61.917915 76.324989 38.146271
  endloop
 endfacet
 facet normal -0.603303 0.759394 0.243612
  outer loop
   vertex -61.917915 76.324989 38.146271
   vertex -62.466663 76.032097 37.700314
   vertex -62.685780 75.501770 38.810825
  endloop
 endfacet
 facet normal -0.948525 0.314541 -0.036945
  outer loop
   vertex -62.685780 75.501770 38.810825
   vertex -62.466663 76.032097 37.700314
   vertex -62.742603 75.324989 38.764645
  endloop
 endfacet
 facet normal -0.948522 0.314550 -0.036938
  outer loop
   vertex -62.742603 75.324989 38.764645
   vertex -62.466663 76.032097 37.700314
   vertex -62.693962 75.324989 37.515594
  endloop
 endfacet
 facet normal -0.948521 -0.314552 -0.036938
  outer loop
   vertex -62.693962 75.324989 37.515594
   vertex -62.685780 75.148216 38.810825
   vertex -62.742603 75.324989 38.764645
  endloop
 endfacet
 facet normal -0.948521 -0.314553 -0.036938
  outer loop
   vertex -62.466663 74.617889 37.700314
   vertex -62.685780 75.148216 38.810825
   vertex -62.693962 75.324989 37.515594
  endloop
 endfacet
endsolid