solid stl file generated from DOUG
 facet normal -0.234672 -0.000000 0.972075
  outer loop
   vertex 6.287669 230.945221 85.226913
   vertex 6.420054 230.945221 85.258873
   vertex 6.420053 240.194763 85.258873
  endloop
 endfacet
 facet normal 0.642777 0.000000 0.766054
  outer loop
   vertex 6.420053 240.194763 85.258873
   vertex 6.420054 230.945221 85.258873
   vertex 6.498768 240.194763 85.192825
  endloop
 endfacet
 facet normal 0.998056 0.000000 -0.062319
  outer loop
   vertex 5.441544 240.194763 85.936897
   vertex 5.450031 240.194763 86.072823
   vertex 5.450032 230.945221 86.072823
  endloop
 endfacet
 facet normal 0.642772 0.000000 0.766058
  outer loop
   vertex 5.450032 230.945221 86.072823
   vertex 5.450031 240.194763 86.072823
   vertex 5.371315 240.194763 86.138870
  endloop
 endfacet
 facet normal 0.642774 0.000000 0.766056
  outer loop
   vertex 5.371315 240.194763 86.138870
   vertex 5.371316 230.945221 86.138870
   vertex 5.450032 230.945221 86.072823
  endloop
 endfacet
 facet normal 0.325218 0.000000 0.945639
  outer loop
   vertex 4.900329 240.194763 85.577568
   vertex 4.900330 230.945221 85.577568
   vertex 4.932163 240.194763 85.566620
  endloop
 endfacet
 facet normal 0.325222 0.000000 0.945638
  outer loop
   vertex 4.932163 240.194763 85.566620
   vertex 4.900330 230.945221 85.577568
   vertex 4.932163 230.945221 85.566620
  endloop
 endfacet
 facet normal -0.766046 -0.000000 0.642786
  outer loop
   vertex 4.932163 230.945221 85.566620
   vertex 5.301867 230.945221 86.007217
   vertex 4.932163 240.194763 85.566620
  endloop
 endfacet
 facet normal -0.234671 -0.000000 0.972075
  outer loop
   vertex 6.420053 240.194763 85.258873
   vertex 6.287668 240.194763 85.226913
   vertex 6.287669 230.945221 85.226913
  endloop
 endfacet
 facet normal 0.642789 0.000000 0.766044
  outer loop
   vertex 6.287669 230.945221 85.226913
   vertex 6.287668 240.194763 85.226913
   vertex 5.441544 240.194763 85.936897
  endloop
 endfacet
 facet normal 0.642788 0.000000 0.766044
  outer loop
   vertex 5.441544 240.194763 85.936897
   vertex 5.441545 230.945221 85.936897
   vertex 6.287669 230.945221 85.226913
  endloop
 endfacet
 facet normal 0.998056 0.000000 -0.062319
  outer loop
   vertex 5.450032 230.945221 86.072823
   vertex 5.441545 230.945221 85.936897
   vertex 5.441544 240.194763 85.936897
  endloop
 endfacet
 facet normal -0.766043 -0.000000 0.642789
  outer loop
   vertex 5.371316 230.945221 86.138870
   vertex 5.371315 240.194763 86.138870
   vertex 5.285557 230.945221 86.036667
  endloop
 endfacet
 facet normal -0.766043 -0.000000 0.642789
  outer loop
   vertex 5.285557 230.945221 86.036667
   vertex 5.371315 240.194763 86.138870
   vertex 5.285556 240.194763 86.036667
  endloop
 endfacet
 facet normal -0.874801 -0.000000 -0.484483
  outer loop
   vertex 5.285556 240.194763 86.036667
   vertex 5.301867 230.945221 86.007217
   vertex 5.285557 230.945221 86.036667
  endloop
 endfacet
 facet normal -0.874795 -0.000000 -0.484494
  outer loop
   vertex 5.301867 240.194763 86.007217
   vertex 5.301867 230.945221 86.007217
   vertex 5.285556 240.194763 86.036667
  endloop
 endfacet
 facet normal -0.766046 -0.000000 0.642786
  outer loop
   vertex 4.932163 240.194763 85.566620
   vertex 5.301867 230.945221 86.007217
   vertex 5.301867 240.194763 86.007217
  endloop
 endfacet
 facet normal -0.000000 1.000000 0.000000
  outer loop
   vertex 6.523848 240.733093 85.196205
   vertex 4.830023 240.733093 85.520294
   vertex 5.370286 240.733093 86.164154
  endloop
 endfacet
 facet normal -0.766044 -0.000000 0.642788
  outer loop
   vertex 5.370286 240.733093 86.164154
   vertex 4.830023 240.733093 85.520294
   vertex 5.370286 239.733093 86.164154
  endloop
 endfacet
 facet normal 0.642786 0.000000 0.766046
  outer loop
   vertex 5.370286 239.733093 86.164154
   vertex 6.523848 239.733093 85.196205
   vertex 5.370286 240.733093 86.164154
  endloop
 endfacet
 facet normal -0.000000 -1.000000 -0.000000
  outer loop
   vertex 4.830023 239.733093 85.520294
   vertex 6.523848 239.733093 85.196205
   vertex 5.370286 239.733093 86.164154
  endloop
 endfacet
 facet normal -0.000000 -1.000000 0.000000
  outer loop
   vertex 5.983584 239.733093 84.552345
   vertex 6.523848 239.733093 85.196205
   vertex 4.830023 239.733093 85.520294
  endloop
 endfacet
 facet normal -0.642786 -0.000000 -0.766046
  outer loop
   vertex 4.830023 239.733093 85.520294
   vertex 4.830023 240.733093 85.520294
   vertex 5.983584 239.733093 84.552345
  endloop
 endfacet
 facet normal -0.642786 0.000000 -0.766046
  outer loop
   vertex 5.983584 239.733093 84.552345
   vertex 4.830023 240.733093 85.520294
   vertex 5.983584 240.733093 84.552345
  endloop
 endfacet
 facet normal -0.000000 1.000000 -0.000000
  outer loop
   vertex 5.983584 240.733093 84.552345
   vertex 4.830023 240.733093 85.520294
   vertex 6.523848 240.733093 85.196205
  endloop
 endfacet
 facet normal 0.766044 0.000000 -0.642788
  outer loop
   vertex 6.523848 240.733093 85.196205
   vertex 6.523848 239.733093 85.196205
   vertex 5.983584 240.733093 84.552345
  endloop
 endfacet
 facet normal 0.642786 0.000000 0.766046
  outer loop
   vertex 5.370286 240.733093 86.164154
   vertex 6.523848 239.733093 85.196205
   vertex 6.523848 240.733093 85.196205
  endloop
 endfacet
 facet normal 0.000000 1.000000 0.000000
  outer loop
   vertex 5.370287 231.406891 86.164154
   vertex 6.523849 231.406891 85.196205
   vertex 4.830023 231.406891 85.520294
  endloop
 endfacet
 facet normal 0.000000 1.000000 -0.000000
  outer loop
   vertex 4.830023 231.406891 85.520294
   vertex 6.523849 231.406891 85.196205
   vertex 5.983585 231.406891 84.552338
  endloop
 endfacet
 facet normal -0.642789 0.000000 -0.766043
  outer loop
   vertex 5.983585 231.406891 84.552338
   vertex 5.983585 230.406891 84.552338
   vertex 4.830023 231.406891 85.520294
  endloop
 endfacet
 facet normal 0.766048 -0.000000 -0.642784
  outer loop
   vertex 6.523849 231.406891 85.196205
   vertex 5.983585 230.406891 84.552338
   vertex 5.983585 231.406891 84.552338
  endloop
 endfacet
 facet normal 0.766048 0.000000 -0.642784
  outer loop
   vertex 6.523849 230.406891 85.196205
   vertex 5.983585 230.406891 84.552338
   vertex 6.523849 231.406891 85.196205
  endloop
 endfacet
 facet normal 0.642786 -0.000000 0.766046
  outer loop
   vertex 6.523849 231.406891 85.196205
   vertex 5.370287 230.406891 86.164154
   vertex 6.523849 230.406891 85.196205
  endloop
 endfacet
 facet normal 0.000000 -1.000000 0.000000
  outer loop
   vertex 6.523849 230.406891 85.196205
   vertex 5.370287 230.406891 86.164154
   vertex 5.983585 230.406891 84.552338
  endloop
 endfacet
 facet normal -0.000000 -1.000000 -0.000000
  outer loop
   vertex 5.983585 230.406891 84.552338
   vertex 5.370287 230.406891 86.164154
   vertex 4.830023 230.406891 85.520294
  endloop
 endfacet
 facet normal -0.642789 -0.000000 -0.766043
  outer loop
   vertex 4.830023 230.406891 85.520294
   vertex 4.830023 231.406891 85.520294
   vertex 5.983585 230.406891 84.552338
  endloop
 endfacet
 facet normal -0.766044 -0.000000 0.642788
  outer loop
   vertex 5.370287 230.406891 86.164154
   vertex 4.830023 231.406891 85.520294
   vertex 4.830023 230.406891 85.520294
  endloop
 endfacet
 facet normal -0.766044 0.000000 0.642788
  outer loop
   vertex 5.370287 231.406891 86.164154
   vertex 4.830023 231.406891 85.520294
   vertex 5.370287 230.406891 86.164154
  endloop
 endfacet
 facet normal 0.642786 -0.000000 0.766046
  outer loop
   vertex 5.370287 230.406891 86.164154
   vertex 6.523849 231.406891 85.196205
   vertex 5.370287 231.406891 86.164154
  endloop
 endfacet
 facet normal 0.642774 0.000000 0.766056
  outer loop
   vertex 6.420054 230.945221 85.258873
   vertex 6.498769 230.945221 85.192825
   vertex 6.498768 240.194763 85.192825
  endloop
 endfacet
 facet normal 0.766041 0.000000 -0.642791
  outer loop
   vertex 6.498768 240.194763 85.192825
   vertex 6.498769 230.945221 85.192825
   vertex 6.413010 230.945221 85.090622
  endloop
 endfacet
 facet normal 0.766043 0.000000 -0.642789
  outer loop
   vertex 6.413010 230.945221 85.090622
   vertex 6.413009 240.194763 85.090622
   vertex 6.498768 240.194763 85.192825
  endloop
 endfacet
 facet normal -0.325222 -0.000000 -0.945638
  outer loop
   vertex 6.381176 230.945221 85.101570
   vertex 6.413009 240.194763 85.090622
   vertex 6.413010 230.945221 85.090622
  endloop
 endfacet
 facet normal -0.325218 -0.000000 -0.945639
  outer loop
   vertex 6.381175 240.194763 85.101570
   vertex 6.413009 240.194763 85.090622
   vertex 6.381176 230.945221 85.101570
  endloop
 endfacet
 facet normal 0.766046 0.000000 -0.642786
  outer loop
   vertex 6.381176 230.945221 85.101570
   vertex 6.011472 230.945221 84.660973
   vertex 6.381175 240.194763 85.101570
  endloop
 endfacet
 facet normal 0.766046 0.000000 -0.642786
  outer loop
   vertex 6.381175 240.194763 85.101570
   vertex 6.011472 230.945221 84.660973
   vertex 6.011472 240.194763 84.660973
  endloop
 endfacet
 facet normal 0.874801 0.000000 0.484483
  outer loop
   vertex 6.011472 240.194763 84.660973
   vertex 6.011472 230.945221 84.660973
   vertex 6.027782 230.945221 84.631523
  endloop
 endfacet
 facet normal 0.874801 0.000000 0.484483
  outer loop
   vertex 6.027782 230.945221 84.631523
   vertex 6.027781 240.194763 84.631523
   vertex 6.011472 240.194763 84.660973
  endloop
 endfacet
 facet normal 0.766048 0.000000 -0.642784
  outer loop
   vertex 5.985229 230.945221 84.580811
   vertex 6.027781 240.194763 84.631523
   vertex 6.027782 230.945221 84.631523
  endloop
 endfacet
 facet normal 0.766048 0.000000 -0.642784
  outer loop
   vertex 5.985229 240.194763 84.580811
   vertex 6.027781 240.194763 84.631523
   vertex 5.985229 230.945221 84.580811
  endloop
 endfacet
 facet normal -0.642787 -0.000000 -0.766045
  outer loop
   vertex 5.985229 230.945221 84.580811
   vertex 4.857777 230.945221 85.526855
   vertex 5.985229 240.194763 84.580811
  endloop
 endfacet
 facet normal -0.642787 -0.000000 -0.766045
  outer loop
   vertex 5.985229 240.194763 84.580811
   vertex 4.857777 230.945221 85.526855
   vertex 4.857776 240.194763 85.526855
  endloop
 endfacet
 facet normal -0.766048 -0.000000 0.642784
  outer loop
   vertex 4.857776 240.194763 85.526855
   vertex 4.857777 230.945221 85.526855
   vertex 4.900329 240.194763 85.577568
  endloop
 endfacet
 facet normal -0.766044 0.000000 0.642788
  outer loop
   vertex 4.830023 239.733093 85.520294
   vertex 5.370286 239.733093 86.164154
   vertex 4.830023 240.733093 85.520294
  endloop
 endfacet
 facet normal 0.766044 0.000000 -0.642789
  outer loop
   vertex 6.523848 239.733093 85.196205
   vertex 5.983584 239.733093 84.552345
   vertex 5.983584 240.733093 84.552345
  endloop
 endfacet
 facet normal -0.766044 -0.000000 0.642788
  outer loop
   vertex 4.857777 230.945221 85.526855
   vertex 4.900330 230.945221 85.577568
   vertex 4.900329 240.194763 85.577568
  endloop
 endfacet
 facet normal 0.293151 -0.923880 -0.245983
  outer loop
   vertex 4.159450 229.894989 83.549782
   vertex 3.516662 229.894989 82.783737
   vertex 4.701125 230.187881 83.095261
  endloop
 endfacet
 facet normal 0.293151 -0.923880 -0.245983
  outer loop
   vertex 4.701125 230.187881 83.095261
   vertex 3.516662 229.894989 82.783737
   vertex 4.058337 230.187881 82.329216
  endloop
 endfacet
 facet normal 0.707732 -0.382685 -0.593858
  outer loop
   vertex 4.058337 230.187881 82.329216
   vertex 4.925494 230.894989 82.906990
   vertex 4.701125 230.187881 83.095261
  endloop
 endfacet
 facet normal 0.707732 -0.382685 -0.593858
  outer loop
   vertex 4.282707 230.894989 82.140945
   vertex 4.925494 230.894989 82.906990
   vertex 4.058337 230.187881 82.329216
  endloop
 endfacet
 facet normal 0.707732 0.382685 -0.593858
  outer loop
   vertex 4.701125 231.602097 83.095261
   vertex 4.925494 230.894989 82.906990
   vertex 4.282707 230.894989 82.140945
  endloop
 endfacet
 facet normal 0.707732 0.382685 -0.593858
  outer loop
   vertex 4.282707 230.894989 82.140945
   vertex 4.058337 231.602097 82.329216
   vertex 4.701125 231.602097 83.095261
  endloop
 endfacet
 facet normal 0.293152 0.923880 -0.245983
  outer loop
   vertex 4.701125 231.602097 83.095261
   vertex 4.058337 231.602097 82.329216
   vertex 4.159450 231.894989 83.549782
  endloop
 endfacet
 facet normal 0.293152 0.923880 -0.245983
  outer loop
   vertex 4.159450 231.894989 83.549782
   vertex 4.058337 231.602097 82.329216
   vertex 3.516662 231.894989 82.783737
  endloop
 endfacet
 facet normal -0.293153 0.923879 0.245985
  outer loop
   vertex 3.516662 231.894989 82.783737
   vertex 3.617774 231.602097 84.004295
   vertex 4.159450 231.894989 83.549782
  endloop
 endfacet
 facet normal -0.293153 0.923879 0.245985
  outer loop
   vertex 2.974987 231.602097 83.238251
   vertex 3.617774 231.602097 84.004295
   vertex 3.516662 231.894989 82.783737
  endloop
 endfacet
 facet normal -0.707732 0.382685 0.593858
  outer loop
   vertex 3.393405 230.894989 84.192566
   vertex 3.617774 231.602097 84.004295
   vertex 2.974987 231.602097 83.238251
  endloop
 endfacet
 facet normal -0.707732 0.382685 0.593858
  outer loop
   vertex 2.974987 231.602097 83.238251
   vertex 2.750618 230.894989 83.426521
   vertex 3.393405 230.894989 84.192566
  endloop
 endfacet
 facet normal -0.707732 -0.382684 0.593858
  outer loop
   vertex 3.393405 230.894989 84.192566
   vertex 2.750618 230.894989 83.426521
   vertex 3.617774 230.187881 84.004295
  endloop
 endfacet
 facet normal -0.707733 -0.382685 0.593858
  outer loop
   vertex 3.617774 230.187881 84.004295
   vertex 2.750618 230.894989 83.426521
   vertex 2.974987 230.187881 83.238251
  endloop
 endfacet
 facet normal -0.293153 -0.923879 0.245985
  outer loop
   vertex 2.974987 230.187881 83.238251
   vertex 4.159450 229.894989 83.549782
   vertex 3.617774 230.187881 84.004295
  endloop
 endfacet
 facet normal -0.293153 -0.923879 0.245985
  outer loop
   vertex 3.516662 229.894989 82.783737
   vertex 4.159450 229.894989 83.549782
   vertex 2.974987 230.187881 83.238251
  endloop
 endfacet
 facet normal -0.293170 0.923870 0.245998
  outer loop
   vertex 4.660366 240.421768 84.421761
   vertex 5.438572 240.494995 85.074181
   vertex 4.795784 240.494995 84.308136
  endloop
 endfacet
 facet normal 0.293163 0.923874 -0.245993
  outer loop
   vertex 4.795784 240.494995 84.308136
   vertex 5.438572 240.494995 85.074181
   vertex 5.573991 240.421768 84.960548
  endloop
 endfacet
 facet normal 0.293163 0.923874 -0.245993
  outer loop
   vertex 5.573991 240.421768 84.960548
   vertex 4.931203 240.421768 84.194504
   vertex 4.795784 240.494995 84.308136
  endloop
 endfacet
 facet normal 0.707732 0.382686 -0.593858
  outer loop
   vertex 5.630083 240.244995 84.913483
   vertex 4.931203 240.421768 84.194504
   vertex 5.573991 240.421768 84.960548
  endloop
 endfacet
 facet normal 0.707732 0.382688 -0.593857
  outer loop
   vertex 4.987296 240.244995 84.147438
   vertex 4.931203 240.421768 84.194504
   vertex 5.630083 240.244995 84.913483
  endloop
 endfacet
 facet normal 0.707732 -0.382686 -0.593857
  outer loop
   vertex 5.630083 240.244995 84.913483
   vertex 5.573991 240.068222 84.960548
   vertex 4.987296 240.244995 84.147438
  endloop
 endfacet
 facet normal 0.707732 -0.382686 -0.593857
  outer loop
   vertex 4.987296 240.244995 84.147438
   vertex 5.573991 240.068222 84.960548
   vertex 4.931203 240.068222 84.194504
  endloop
 endfacet
 facet normal 0.293163 -0.923874 -0.245993
  outer loop
   vertex 4.931203 240.068222 84.194504
   vertex 5.573991 240.068222 84.960548
   vertex 5.438572 239.994995 85.074181
  endloop
 endfacet
 facet normal 0.293163 -0.923874 -0.245993
  outer loop
   vertex 5.438572 239.994995 85.074181
   vertex 4.795784 239.994995 84.308136
   vertex 4.931203 240.068222 84.194504
  endloop
 endfacet
 facet normal -0.293170 -0.923870 0.245998
  outer loop
   vertex 5.303153 240.068222 85.187805
   vertex 4.795784 239.994995 84.308136
   vertex 5.438572 239.994995 85.074181
  endloop
 endfacet
 facet normal -0.293170 -0.923870 0.245998
  outer loop
   vertex 4.660366 240.068222 84.421761
   vertex 4.795784 239.994995 84.308136
   vertex 5.303153 240.068222 85.187805
  endloop
 endfacet
 facet normal -0.707725 -0.382708 0.593852
  outer loop
   vertex 5.303153 240.068222 85.187805
   vertex 5.247061 240.244995 85.234879
   vertex 4.660366 240.068222 84.421761
  endloop
 endfacet
 facet normal -0.707725 -0.382708 0.593852
  outer loop
   vertex 4.660366 240.068222 84.421761
   vertex 5.247061 240.244995 85.234879
   vertex 4.604273 240.244995 84.468834
  endloop
 endfacet
 facet normal -0.707725 0.382708 0.593852
  outer loop
   vertex 4.604273 240.244995 84.468834
   vertex 5.247061 240.244995 85.234879
   vertex 5.303153 240.421768 85.187805
  endloop
 endfacet
 facet normal -0.707725 0.382708 0.593852
  outer loop
   vertex 5.303153 240.421768 85.187805
   vertex 4.660366 240.421768 84.421761
   vertex 4.604273 240.244995 84.468834
  endloop
 endfacet
 facet normal -0.293170 0.923870 0.245998
  outer loop
   vertex 5.438572 240.494995 85.074181
   vertex 4.660366 240.421768 84.421761
   vertex 5.303153 240.421768 85.187805
  endloop
 endfacet
 facet normal -0.293153 0.923879 0.245985
  outer loop
   vertex 2.974986 240.952103 83.238251
   vertex 4.159449 241.244995 83.549782
   vertex 3.516661 241.244995 82.783737
  endloop
 endfacet
 facet normal 0.293152 0.923880 -0.245983
  outer loop
   vertex 3.516661 241.244995 82.783737
   vertex 4.159449 241.244995 83.549782
   vertex 4.701124 240.952103 83.095261
  endloop
 endfacet
 facet normal 0.293152 0.923880 -0.245983
  outer loop
   vertex 4.701124 240.952103 83.095261
   vertex 4.058337 240.952103 82.329216
   vertex 3.516661 241.244995 82.783737
  endloop
 endfacet
 facet normal 0.707732 0.382685 -0.593858
  outer loop
   vertex 4.925494 240.244995 82.906990
   vertex 4.058337 240.952103 82.329216
   vertex 4.701124 240.952103 83.095261
  endloop
 endfacet
 facet normal 0.707732 0.382685 -0.593858
  outer loop
   vertex 4.282706 240.244995 82.140945
   vertex 4.058337 240.952103 82.329216
   vertex 4.925494 240.244995 82.906990
  endloop
 endfacet
 facet normal 0.707732 -0.382685 -0.593858
  outer loop
   vertex 4.925494 240.244995 82.906990
   vertex 4.701124 239.537888 83.095261
   vertex 4.282706 240.244995 82.140945
  endloop
 endfacet
 facet normal 0.707733 -0.382685 -0.593858
  outer loop
   vertex 4.282706 240.244995 82.140945
   vertex 4.701124 239.537888 83.095261
   vertex 4.058337 239.537888 82.329216
  endloop
 endfacet
 facet normal 0.293152 -0.923880 -0.245983
  outer loop
   vertex 4.058337 239.537888 82.329216
   vertex 4.701124 239.537888 83.095261
   vertex 4.159449 239.244995 83.549782
  endloop
 endfacet
 facet normal 0.293152 -0.923880 -0.245983
  outer loop
   vertex 4.159449 239.244995 83.549782
   vertex 3.516662 239.244995 82.783737
   vertex 4.058337 239.537888 82.329216
  endloop
 endfacet
 facet normal -0.293153 -0.923879 0.245985
  outer loop
   vertex 3.617774 239.537888 84.004295
   vertex 3.516662 239.244995 82.783737
   vertex 4.159449 239.244995 83.549782
  endloop
 endfacet
 facet normal -0.293153 -0.923879 0.245985
  outer loop
   vertex 2.974986 239.537888 83.238251
   vertex 3.516662 239.244995 82.783737
   vertex 3.617774 239.537888 84.004295
  endloop
 endfacet
 facet normal -0.707732 -0.382685 0.593858
  outer loop
   vertex 3.617774 239.537888 84.004295
   vertex 3.393404 240.244995 84.192566
   vertex 2.974986 239.537888 83.238251
  endloop
 endfacet
 facet normal -0.707732 -0.382685 0.593858
  outer loop
   vertex 2.974986 239.537888 83.238251
   vertex 3.393404 240.244995 84.192566
   vertex 2.750617 240.244995 83.426521
  endloop
 endfacet
 facet normal -0.707733 0.382684 0.593858
  outer loop
   vertex 2.750617 240.244995 83.426521
   vertex 3.393404 240.244995 84.192566
   vertex 3.617773 240.952103 84.004295
  endloop
 endfacet
 facet normal -0.707733 0.382684 0.593858
  outer loop
   vertex 3.617773 240.952103 84.004295
   vertex 2.974986 240.952103 83.238251
   vertex 2.750617 240.244995 83.426521
  endloop
 endfacet
 facet normal -0.293153 0.923879 0.245985
  outer loop
   vertex 4.159449 241.244995 83.549782
   vertex 2.974986 240.952103 83.238251
   vertex 3.617773 240.952103 84.004295
  endloop
 endfacet
 facet normal 0.125132 0.759391 0.638488
  outer loop
   vertex 3.617773 240.952103 84.004295
   vertex 4.802237 240.494995 84.315826
   vertex 4.159449 241.244995 83.549782
  endloop
 endfacet
 facet normal 0.607066 0.759388 0.234094
  outer loop
   vertex 4.159449 241.244995 83.549782
   vertex 4.802237 240.494995 84.315826
   vertex 4.937655 240.421768 84.202194
  endloop
 endfacet
 facet normal 0.607057 0.759391 0.234109
  outer loop
   vertex 4.937655 240.421768 84.202194
   vertex 4.701124 240.952103 83.095261
   vertex 4.159449 241.244995 83.549782
  endloop
 endfacet
 facet normal 0.947823 0.314555 -0.051828
  outer loop
   vertex 4.993748 240.244995 84.155128
   vertex 4.701124 240.952103 83.095261
   vertex 4.937655 240.421768 84.202194
  endloop
 endfacet
 facet normal 0.947824 0.314551 -0.051831
  outer loop
   vertex 4.925494 240.244995 82.906990
   vertex 4.701124 240.952103 83.095261
   vertex 4.993748 240.244995 84.155128
  endloop
 endfacet
 facet normal 0.947823 -0.314556 -0.051831
  outer loop
   vertex 4.993748 240.244995 84.155128
   vertex 4.937655 240.068222 84.202194
   vertex 4.925494 240.244995 82.906990
  endloop
 endfacet
 facet normal 0.947825 -0.314551 -0.051831
  outer loop
   vertex 4.925494 240.244995 82.906990
   vertex 4.937655 240.068222 84.202194
   vertex 4.701124 239.537888 83.095261
  endloop
 endfacet
 facet normal 0.607070 -0.759382 0.234102
  outer loop
   vertex 4.701124 239.537888 83.095261
   vertex 4.937655 240.068222 84.202194
   vertex 4.802237 239.994995 84.315826
  endloop
 endfacet
 facet normal 0.607056 -0.759393 0.234107
  outer loop
   vertex 4.802237 239.994995 84.315826
   vertex 4.159449 239.244995 83.549782
   vertex 4.701124 239.537888 83.095261
  endloop
 endfacet
 facet normal 0.125108 -0.759384 0.638501
  outer loop
   vertex 4.666818 240.068222 84.429451
   vertex 4.159449 239.244995 83.549782
   vertex 4.802237 239.994995 84.315826
  endloop
 endfacet
 facet normal 0.125136 -0.759389 0.638490
  outer loop
   vertex 3.617774 239.537888 84.004295
   vertex 4.159449 239.244995 83.549782
   vertex 4.666818 240.068222 84.429451
  endloop
 endfacet
 facet normal -0.215632 -0.314550 0.924425
  outer loop
   vertex 4.666818 240.068222 84.429451
   vertex 4.610725 240.244995 84.476517
   vertex 3.617774 239.537888 84.004295
  endloop
 endfacet
 facet normal -0.215630 -0.314553 0.924424
  outer loop
   vertex 3.617774 239.537888 84.004295
   vertex 4.610725 240.244995 84.476517
   vertex 3.393404 240.244995 84.192566
  endloop
 endfacet
 facet normal -0.215630 0.314550 0.924425
  outer loop
   vertex 3.393404 240.244995 84.192566
   vertex 4.610725 240.244995 84.476517
   vertex 4.666818 240.421768 84.429451
  endloop
 endfacet
 facet normal -0.215631 0.314553 0.924424
  outer loop
   vertex 4.666818 240.421768 84.429451
   vertex 3.617773 240.952103 84.004295
   vertex 3.393404 240.244995 84.192566
  endloop
 endfacet
 facet normal 0.125120 0.759375 0.638510
  outer loop
   vertex 4.802237 240.494995 84.315826
   vertex 3.617773 240.952103 84.004295
   vertex 4.666818 240.421768 84.429451
  endloop
 endfacet
 facet normal 0.293163 -0.923874 -0.245993
  outer loop
   vertex 5.438572 230.644989 85.074181
   vertex 4.795785 230.644989 84.308136
   vertex 5.573991 230.718216 84.960548
  endloop
 endfacet
 facet normal 0.293163 -0.923874 -0.245993
  outer loop
   vertex 5.573991 230.718216 84.960548
   vertex 4.795785 230.644989 84.308136
   vertex 4.931204 230.718216 84.194504
  endloop
 endfacet
 facet normal 0.707732 -0.382686 -0.593857
  outer loop
   vertex 4.931204 230.718216 84.194504
   vertex 5.630084 230.894989 84.913483
   vertex 5.573991 230.718216 84.960548
  endloop
 endfacet
 facet normal 0.707732 -0.382686 -0.593857
  outer loop
   vertex 4.987296 230.894989 84.147438
   vertex 5.630084 230.894989 84.913483
   vertex 4.931204 230.718216 84.194504
  endloop
 endfacet
 facet normal 0.707732 0.382686 -0.593857
  outer loop
   vertex 5.573991 231.071762 84.960548
   vertex 5.630084 230.894989 84.913483
   vertex 4.987296 230.894989 84.147438
  endloop
 endfacet
 facet normal 0.707732 0.382686 -0.593857
  outer loop
   vertex 4.987296 230.894989 84.147438
   vertex 4.931204 231.071762 84.194504
   vertex 5.573991 231.071762 84.960548
  endloop
 endfacet
 facet normal 0.293163 0.923874 -0.245993
  outer loop
   vertex 5.573991 231.071762 84.960548
   vertex 4.931204 231.071762 84.194504
   vertex 5.438572 231.144989 85.074181
  endloop
 endfacet
 facet normal 0.293163 0.923874 -0.245993
  outer loop
   vertex 5.438572 231.144989 85.074181
   vertex 4.931204 231.071762 84.194504
   vertex 4.795785 231.144989 84.308136
  endloop
 endfacet
 facet normal -0.293170 0.923870 0.245999
  outer loop
   vertex 4.795785 231.144989 84.308136
   vertex 5.303154 231.071762 85.187805
   vertex 5.438572 231.144989 85.074181
  endloop
 endfacet
 facet normal -0.293170 0.923870 0.245999
  outer loop
   vertex 4.660366 231.071762 84.421761
   vertex 5.303154 231.071762 85.187805
   vertex 4.795785 231.144989 84.308136
  endloop
 endfacet
 facet normal -0.707724 0.382710 0.593851
  outer loop
   vertex 5.247061 230.894989 85.234879
   vertex 5.303154 231.071762 85.187805
   vertex 4.660366 231.071762 84.421761
  endloop
 endfacet
 facet normal -0.707725 0.382708 0.593852
  outer loop
   vertex 4.660366 231.071762 84.421761
   vertex 4.604274 230.894989 84.468834
   vertex 5.247061 230.894989 85.234879
  endloop
 endfacet
 facet normal -0.707725 -0.382708 0.593852
  outer loop
   vertex 5.247061 230.894989 85.234879
   vertex 4.604274 230.894989 84.468834
   vertex 5.303154 230.718216 85.187805
  endloop
 endfacet
 facet normal -0.707725 -0.382708 0.593852
  outer loop
   vertex 5.303154 230.718216 85.187805
   vertex 4.604274 230.894989 84.468834
   vertex 4.660366 230.718216 84.421761
  endloop
 endfacet
 facet normal -0.293170 -0.923870 0.245998
  outer loop
   vertex 4.660366 230.718216 84.421761
   vertex 5.438572 230.644989 85.074181
   vertex 5.303154 230.718216 85.187805
  endloop
 endfacet
 facet normal -0.293170 -0.923870 0.245998
  outer loop
   vertex 4.795785 230.644989 84.308136
   vertex 5.438572 230.644989 85.074181
   vertex 4.660366 230.718216 84.421761
  endloop
 endfacet
 facet normal 0.125120 -0.759375 0.638510
  outer loop
   vertex 4.666818 230.718216 84.429451
   vertex 3.617774 230.187881 84.004295
   vertex 4.802237 230.644989 84.315826
  endloop
 endfacet
 facet normal 0.125133 -0.759391 0.638488
  outer loop
   vertex 4.802237 230.644989 84.315826
   vertex 3.617774 230.187881 84.004295
   vertex 4.159450 229.894989 83.549782
  endloop
 endfacet
 facet normal 0.607066 -0.759388 0.234094
  outer loop
   vertex 4.159450 229.894989 83.549782
   vertex 4.937656 230.718216 84.202194
   vertex 4.802237 230.644989 84.315826
  endloop
 endfacet
 facet normal 0.607057 -0.759391 0.234110
  outer loop
   vertex 4.701125 230.187881 83.095261
   vertex 4.937656 230.718216 84.202194
   vertex 4.159450 229.894989 83.549782
  endloop
 endfacet
 facet normal 0.947823 -0.314555 -0.051828
  outer loop
   vertex 4.993748 230.894989 84.155128
   vertex 4.937656 230.718216 84.202194
   vertex 4.701125 230.187881 83.095261
  endloop
 endfacet
 facet normal 0.947825 -0.314550 -0.051831
  outer loop
   vertex 4.701125 230.187881 83.095261
   vertex 4.925494 230.894989 82.906990
   vertex 4.993748 230.894989 84.155128
  endloop
 endfacet
 facet normal 0.947823 0.314556 -0.051831
  outer loop
   vertex 4.993748 230.894989 84.155128
   vertex 4.925494 230.894989 82.906990
   vertex 4.937656 231.071762 84.202194
  endloop
 endfacet
 facet normal 0.947825 0.314551 -0.051831
  outer loop
   vertex 4.937656 231.071762 84.202194
   vertex 4.925494 230.894989 82.906990
   vertex 4.701125 231.602097 83.095261
  endloop
 endfacet
 facet normal 0.607070 0.759382 0.234102
  outer loop
   vertex 4.701125 231.602097 83.095261
   vertex 4.802237 231.144989 84.315826
   vertex 4.937656 231.071762 84.202194
  endloop
 endfacet
 facet normal 0.607056 0.759393 0.234107
  outer loop
   vertex 4.159450 231.894989 83.549782
   vertex 4.802237 231.144989 84.315826
   vertex 4.701125 231.602097 83.095261
  endloop
 endfacet
 facet normal 0.125109 0.759384 0.638501
  outer loop
   vertex 4.666819 231.071762 84.429451
   vertex 4.802237 231.144989 84.315826
   vertex 4.159450 231.894989 83.549782
  endloop
 endfacet
 facet normal 0.125136 0.759389 0.638490
  outer loop
   vertex 4.159450 231.894989 83.549782
   vertex 3.617774 231.602097 84.004295
   vertex 4.666819 231.071762 84.429451
  endloop
 endfacet
 facet normal -0.215632 0.314551 0.924425
  outer loop
   vertex 4.666819 231.071762 84.429451
   vertex 3.617774 231.602097 84.004295
   vertex 4.610726 230.894989 84.476517
  endloop
 endfacet
 facet normal -0.215630 0.314553 0.924424
  outer loop
   vertex 4.610726 230.894989 84.476517
   vertex 3.617774 231.602097 84.004295
   vertex 3.393405 230.894989 84.192566
  endloop
 endfacet
 facet normal -0.215630 -0.314550 0.924425
  outer loop
   vertex 3.393405 230.894989 84.192566
   vertex 4.666818 230.718216 84.429451
   vertex 4.610726 230.894989 84.476517
  endloop
 endfacet
 facet normal -0.215631 -0.314553 0.924424
  outer loop
   vertex 3.617774 230.187881 84.004295
   vertex 4.666818 230.718216 84.429451
   vertex 3.393405 230.894989 84.192566
  endloop
 endfacet
endsolid