solid stl file generated from DOUG
 facet normal -0.551442 -0.242300 -0.798249
  outer loop
   vertex -27.373146 -224.759171 -14.180614
   vertex -27.459196 -224.827728 -14.100360
   vertex -36.543358 -210.996689 -12.023147
  endloop
 endfacet
 facet normal -0.835832 -0.548986 0.000103
  outer loop
   vertex -36.543358 -210.996689 -12.023147
   vertex -27.459196 -224.827728 -14.100360
   vertex -36.536320 -211.007385 -11.921191
  endloop
 endfacet
 facet normal -0.441208 -0.409695 0.798427
  outer loop
   vertex -36.532955 -210.813217 -13.199336
   vertex -36.630085 -210.864960 -13.279560
   vertex -27.545925 -224.695999 -15.356773
  endloop
 endfacet
 facet normal -0.835832 -0.548986 0.000103
  outer loop
   vertex -27.545925 -224.695999 -15.356773
   vertex -36.630085 -210.864960 -13.279560
   vertex -36.637123 -210.854263 -13.381516
  endloop
 endfacet
 facet normal -0.835826 -0.548994 0.000184
  outer loop
   vertex -36.637123 -210.854263 -13.381516
   vertex -27.552963 -224.685318 -15.458730
   vertex -27.545925 -224.695999 -15.356773
  endloop
 endfacet
 facet normal -0.804750 -0.475108 -0.355879
  outer loop
   vertex -36.024689 -210.452011 -13.381616
   vertex -26.940529 -224.283051 -15.458830
   vertex -36.032631 -210.461914 -13.350435
  endloop
 endfacet
 facet normal -0.804750 -0.475108 -0.355879
  outer loop
   vertex -36.032631 -210.461914 -13.350435
   vertex -26.940529 -224.283051 -15.458830
   vertex -26.948471 -224.292953 -15.427649
  endloop
 endfacet
 facet normal -0.068492 0.104030 -0.992213
  outer loop
   vertex -26.948471 -224.292953 -15.427649
   vertex -27.429203 -224.608704 -15.427570
   vertex -36.032631 -210.461914 -13.350435
  endloop
 endfacet
 facet normal -0.551417 -0.242279 -0.798273
  outer loop
   vertex -36.543358 -210.996689 -12.023147
   vertex -36.457306 -210.928116 -12.103400
   vertex -27.373146 -224.759171 -14.180614
  endloop
 endfacet
 facet normal -0.835830 -0.548989 0.000138
  outer loop
   vertex -27.373146 -224.759171 -14.180614
   vertex -36.457306 -210.928116 -12.103400
   vertex -36.532955 -210.813217 -13.199336
  endloop
 endfacet
 facet normal -0.835830 -0.548989 0.000132
  outer loop
   vertex -36.532955 -210.813217 -13.199336
   vertex -27.448797 -224.644257 -15.276549
   vertex -27.373146 -224.759171 -14.180614
  endloop
 endfacet
 facet normal -0.441212 -0.409697 0.798424
  outer loop
   vertex -27.545925 -224.695999 -15.356773
   vertex -27.448797 -224.644257 -15.276549
   vertex -36.532955 -210.813217 -13.199336
  endloop
 endfacet
 facet normal -0.068489 0.104032 -0.992213
  outer loop
   vertex -27.552963 -224.685318 -15.458730
   vertex -36.637123 -210.854263 -13.381516
   vertex -27.441448 -224.612076 -15.458748
  endloop
 endfacet
 facet normal -0.068489 0.104032 -0.992213
  outer loop
   vertex -27.441448 -224.612076 -15.458748
   vertex -36.637123 -210.854263 -13.381516
   vertex -36.525608 -210.781021 -13.381534
  endloop
 endfacet
 facet normal 0.755568 0.549751 -0.356216
  outer loop
   vertex -36.525608 -210.781021 -13.381534
   vertex -27.429203 -224.608704 -15.427570
   vertex -27.441448 -224.612076 -15.458748
  endloop
 endfacet
 facet normal 0.755655 0.549776 -0.355995
  outer loop
   vertex -36.513363 -210.777664 -13.350357
   vertex -27.429203 -224.608704 -15.427570
   vertex -36.525608 -210.781021 -13.381534
  endloop
 endfacet
 facet normal -0.068490 0.104031 -0.992213
  outer loop
   vertex -36.032631 -210.461914 -13.350435
   vertex -27.429203 -224.608704 -15.427570
   vertex -36.513363 -210.777664 -13.350357
  endloop
 endfacet
 facet normal -0.544701 0.829331 0.124547
  outer loop
   vertex -36.750500 -210.715347 -11.858614
   vertex -36.151123 -210.097275 -13.352870
   vertex -36.853638 -210.558701 -13.352755
  endloop
 endfacet
 facet normal -0.068492 0.104030 -0.992213
  outer loop
   vertex -36.853638 -210.558701 -13.352755
   vertex -36.151123 -210.097275 -13.352870
   vertex -36.308937 -211.388031 -13.477307
  endloop
 endfacet
 facet normal -0.835829 -0.548990 0.000139
  outer loop
   vertex -36.308937 -211.388031 -13.477307
   vertex -36.205799 -211.544678 -11.983167
   vertex -36.853638 -210.558701 -13.352755
  endloop
 endfacet
 facet normal 0.544701 -0.829331 -0.124547
  outer loop
   vertex -35.606422 -210.926605 -13.477423
   vertex -36.205799 -211.544678 -11.983167
   vertex -36.308937 -211.388031 -13.477307
  endloop
 endfacet
 facet normal 0.544701 -0.829331 -0.124547
  outer loop
   vertex -35.503284 -211.083252 -11.983281
   vertex -36.205799 -211.544678 -11.983167
   vertex -35.606422 -210.926605 -13.477423
  endloop
 endfacet
 facet normal 0.835829 0.548990 -0.000139
  outer loop
   vertex -35.606422 -210.926605 -13.477423
   vertex -36.151123 -210.097275 -13.352870
   vertex -35.503284 -211.083252 -11.983281
  endloop
 endfacet
 facet normal 0.835829 0.548990 -0.000139
  outer loop
   vertex -35.503284 -211.083252 -11.983281
   vertex -36.151123 -210.097275 -13.352870
   vertex -36.047985 -210.253922 -11.858728
  endloop
 endfacet
 facet normal -0.544701 0.829331 0.124547
  outer loop
   vertex -36.047985 -210.253922 -11.858728
   vertex -36.151123 -210.097275 -13.352870
   vertex -36.750500 -210.715347 -11.858614
  endloop
 endfacet
 facet normal 0.068491 -0.104031 0.992213
  outer loop
   vertex -36.750500 -210.715347 -11.858614
   vertex -36.205799 -211.544678 -11.983167
   vertex -36.047985 -210.253922 -11.858728
  endloop
 endfacet
 facet normal -0.835829 -0.548990 0.000139
  outer loop
   vertex -36.853638 -210.558701 -13.352755
   vertex -36.205799 -211.544678 -11.983167
   vertex -36.750500 -210.715347 -11.858614
  endloop
 endfacet
 facet normal -0.544699 0.829330 0.124556
  outer loop
   vertex -27.914755 -224.168549 -15.396749
   vertex -27.811615 -224.325211 -13.902608
   vertex -27.212238 -223.707123 -15.396864
  endloop
 endfacet
 facet normal -0.544700 0.829330 0.124556
  outer loop
   vertex -27.212238 -223.707123 -15.396864
   vertex -27.811615 -224.325211 -13.902608
   vertex -27.109100 -223.863785 -13.902723
  endloop
 endfacet
 facet normal 0.835829 0.548989 -0.000134
  outer loop
   vertex -27.109100 -223.863785 -13.902723
   vertex -26.564400 -224.693115 -14.027276
   vertex -27.212238 -223.707123 -15.396864
  endloop
 endfacet
 facet normal 0.068492 -0.104030 0.992213
  outer loop
   vertex -27.811615 -224.325211 -13.902608
   vertex -26.564400 -224.693115 -14.027276
   vertex -27.109100 -223.863785 -13.902723
  endloop
 endfacet
 facet normal 0.068492 -0.104030 0.992213
  outer loop
   vertex -27.266916 -225.154541 -14.027161
   vertex -26.564400 -224.693115 -14.027276
   vertex -27.811615 -224.325211 -13.902608
  endloop
 endfacet
 facet normal -0.835830 -0.548988 0.000134
  outer loop
   vertex -27.811615 -224.325211 -13.902608
   vertex -27.370054 -224.997879 -15.521302
   vertex -27.266916 -225.154541 -14.027161
  endloop
 endfacet
 facet normal 0.544699 -0.829330 -0.124556
  outer loop
   vertex -27.266916 -225.154541 -14.027161
   vertex -27.370054 -224.997879 -15.521302
   vertex -26.564400 -224.693115 -14.027276
  endloop
 endfacet
 facet normal 0.544700 -0.829330 -0.124556
  outer loop
   vertex -26.564400 -224.693115 -14.027276
   vertex -27.370054 -224.997879 -15.521302
   vertex -26.667540 -224.536453 -15.521417
  endloop
 endfacet
 facet normal 0.835830 0.548988 -0.000135
  outer loop
   vertex -26.667540 -224.536453 -15.521417
   vertex -27.212238 -223.707123 -15.396864
   vertex -26.564400 -224.693115 -14.027276
  endloop
 endfacet
 facet normal -0.068491 0.104031 -0.992213
  outer loop
   vertex -27.370054 -224.997879 -15.521302
   vertex -27.212238 -223.707123 -15.396864
   vertex -26.667540 -224.536453 -15.521417
  endloop
 endfacet
 facet normal -0.068491 0.104031 -0.992213
  outer loop
   vertex -27.914755 -224.168549 -15.396749
   vertex -27.212238 -223.707123 -15.396864
   vertex -27.370054 -224.997879 -15.521302
  endloop
 endfacet
 facet normal -0.835829 -0.548989 0.000135
  outer loop
   vertex -27.370054 -224.997879 -15.521302
   vertex -27.811615 -224.325211 -13.902608
   vertex -27.914755 -224.168549 -15.396749
  endloop
 endfacet
 facet normal -0.835832 -0.548986 0.000103
  outer loop
   vertex -27.459196 -224.827728 -14.100360
   vertex -27.452158 -224.838425 -13.998405
   vertex -36.536320 -211.007385 -11.921191
  endloop
 endfacet
 facet normal 0.068495 -0.104028 0.992213
  outer loop
   vertex -36.536320 -211.007385 -11.921191
   vertex -27.452158 -224.838425 -13.998405
   vertex -27.340643 -224.765182 -13.998424
  endloop
 endfacet
 facet normal 0.068499 -0.104026 0.992213
  outer loop
   vertex -27.340643 -224.765182 -13.998424
   vertex -36.424805 -210.934128 -11.921209
   vertex -36.536320 -211.007385 -11.921191
  endloop
 endfacet
 facet normal 0.804761 0.475121 0.355837
  outer loop
   vertex -27.332703 -224.755280 -14.029604
   vertex -36.424805 -210.934128 -11.921209
   vertex -27.340643 -224.765182 -13.998424
  endloop
 endfacet
 facet normal 0.804801 0.475171 0.355680
  outer loop
   vertex -36.416862 -210.924240 -11.952390
   vertex -36.424805 -210.934128 -11.921209
   vertex -27.332703 -224.755280 -14.029604
  endloop
 endfacet
 facet normal 0.068490 -0.104031 0.992213
  outer loop
   vertex -27.332703 -224.755280 -14.029604
   vertex -26.851969 -224.439529 -14.029682
   vertex -36.416862 -210.924240 -11.952390
  endloop
 endfacet
 facet normal 0.068494 -0.104029 0.992213
  outer loop
   vertex -36.416862 -210.924240 -11.952390
   vertex -26.851969 -224.439529 -14.029682
   vertex -35.936131 -210.608475 -11.952469
  endloop
 endfacet
 facet normal -0.755655 -0.549775 0.355995
  outer loop
   vertex -35.936131 -210.608475 -11.952469
   vertex -26.851969 -224.439529 -14.029682
   vertex -26.839724 -224.436172 -13.998506
  endloop
 endfacet
 facet normal -0.755659 -0.549776 0.355985
  outer loop
   vertex -26.839724 -224.436172 -13.998506
   vertex -35.923885 -210.605118 -11.921291
   vertex -35.936131 -210.608475 -11.952469
  endloop
 endfacet
 facet normal 0.068490 -0.104032 0.992213
  outer loop
   vertex -26.784391 -224.399826 -13.998514
   vertex -35.923885 -210.605118 -11.921291
   vertex -26.839724 -224.436172 -13.998506
  endloop
 endfacet
 facet normal 0.068502 -0.104024 0.992213
  outer loop
   vertex -35.868553 -210.568771 -11.921301
   vertex -35.923885 -210.605118 -11.921291
   vertex -26.784391 -224.399826 -13.998514
  endloop
 endfacet
 facet normal 0.835830 0.548989 -0.000138
  outer loop
   vertex -26.784391 -224.399826 -13.998514
   vertex -26.885197 -224.246719 -15.458838
   vertex -35.868553 -210.568771 -11.921301
  endloop
 endfacet
 facet normal 0.835830 0.548989 -0.000137
  outer loop
   vertex -35.868553 -210.568771 -11.921301
   vertex -26.885197 -224.246719 -15.458838
   vertex -35.969357 -210.415665 -13.381625
  endloop
 endfacet
 facet normal -0.068502 0.104024 -0.992213
  outer loop
   vertex -35.969357 -210.415665 -13.381625
   vertex -26.885197 -224.246719 -15.458838
   vertex -36.024689 -210.452011 -13.381616
  endloop
 endfacet
 facet normal -0.068492 0.104030 -0.992213
  outer loop
   vertex -35.606422 -210.926605 -13.477423
   vertex -36.308937 -211.388031 -13.477307
   vertex -36.151123 -210.097275 -13.352870
  endloop
 endfacet
 facet normal 0.068491 -0.104031 0.992213
  outer loop
   vertex -36.205799 -211.544678 -11.983167
   vertex -35.503284 -211.083252 -11.983281
   vertex -36.047985 -210.253922 -11.858728
  endloop
 endfacet
 facet normal -0.068470 0.104045 -0.992213
  outer loop
   vertex -26.885197 -224.246719 -15.458838
   vertex -26.940529 -224.283051 -15.458830
   vertex -36.024689 -210.452011 -13.381616
  endloop
 endfacet
 facet normal -0.040845 -0.975176 0.217631
  outer loop
   vertex -26.077858 -223.720825 -14.717763
   vertex -24.833502 -223.793823 -14.811315
   vertex -26.105635 -223.678482 -14.533242
  endloop
 endfacet
 facet normal -0.040855 -0.975184 0.217592
  outer loop
   vertex -26.105635 -223.678482 -14.533242
   vertex -24.833502 -223.793823 -14.811315
   vertex -24.944611 -223.624481 -14.073233
  endloop
 endfacet
 facet normal -0.252697 -0.652530 0.714387
  outer loop
   vertex -24.944611 -223.624481 -14.073233
   vertex -26.196909 -223.539490 -14.438571
   vertex -26.105635 -223.678482 -14.533242
  endloop
 endfacet
 facet normal -0.252695 -0.652541 0.714378
  outer loop
   vertex -25.309711 -223.068527 -13.694549
   vertex -26.196909 -223.539490 -14.438571
   vertex -24.944611 -223.624481 -14.073233
  endloop
 endfacet
 facet normal -0.595366 -0.130807 0.792735
  outer loop
   vertex -26.298214 -223.385269 -14.489206
   vertex -26.196909 -223.539490 -14.438571
   vertex -25.309711 -223.068527 -13.694549
  endloop
 endfacet
 facet normal -0.595367 -0.130806 0.792735
  outer loop
   vertex -25.309711 -223.068527 -13.694549
   vertex -25.714931 -222.451630 -13.897089
   vertex -26.298214 -223.385269 -14.489206
  endloop
 endfacet
 facet normal -0.868139 0.284390 0.406764
  outer loop
   vertex -26.298214 -223.385269 -14.489206
   vertex -25.714931 -222.451630 -13.897089
   vertex -26.350206 -223.306152 -14.655486
  endloop
 endfacet
 facet normal -0.868139 0.284389 0.406766
  outer loop
   vertex -26.350206 -223.306152 -14.655486
   vertex -25.714931 -222.451630 -13.897089
   vertex -25.922903 -222.135162 -14.562208
  endloop
 endfacet
 facet normal -0.911225 0.349835 -0.217450
  outer loop
   vertex -25.922903 -222.135162 -14.562208
   vertex -26.322430 -223.348495 -14.840007
   vertex -26.350206 -223.306152 -14.655486
  endloop
 endfacet
 facet normal -0.911229 0.349833 -0.217438
  outer loop
   vertex -25.811794 -222.304504 -15.300289
   vertex -26.322430 -223.348495 -14.840007
   vertex -25.922903 -222.135162 -14.562208
  endloop
 endfacet
 facet normal -0.699393 0.027195 -0.714220
  outer loop
   vertex -26.231155 -223.487473 -14.934678
   vertex -26.322430 -223.348495 -14.840007
   vertex -25.811794 -222.304504 -15.300289
  endloop
 endfacet
 facet normal -0.699390 0.027194 -0.714223
  outer loop
   vertex -25.811794 -222.304504 -15.300289
   vertex -25.446695 -222.860474 -15.678974
   vertex -26.231155 -223.487473 -14.934678
  endloop
 endfacet
 facet normal -0.356742 -0.494522 -0.792580
  outer loop
   vertex -26.231155 -223.487473 -14.934678
   vertex -25.446695 -222.860474 -15.678974
   vertex -26.129848 -223.641708 -14.884043
  endloop
 endfacet
 facet normal -0.356713 -0.494545 -0.792579
  outer loop
   vertex -26.129848 -223.641708 -14.884043
   vertex -25.446695 -222.860474 -15.678974
   vertex -25.041473 -223.477356 -15.476435
  endloop
 endfacet
 facet normal -0.083939 -0.909737 -0.406613
  outer loop
   vertex -25.041473 -223.477356 -15.476435
   vertex -26.077858 -223.720825 -14.717763
   vertex -26.129848 -223.641708 -14.884043
  endloop
 endfacet
 facet normal -0.083938 -0.909737 -0.406611
  outer loop
   vertex -24.833502 -223.793823 -14.811315
   vertex -26.077858 -223.720825 -14.717763
   vertex -25.041473 -223.477356 -15.476435
  endloop
 endfacet
 facet normal 0.529456 -0.806016 0.264602
  outer loop
   vertex -35.718540 -210.845734 -12.702362
   vertex -34.882710 -210.296738 -12.702498
   vertex -35.746319 -210.803406 -12.517841
  endloop
 endfacet
 facet normal 0.529456 -0.806016 0.264603
  outer loop
   vertex -35.746319 -210.803406 -12.517841
   vertex -34.882710 -210.296738 -12.702498
   vertex -34.910488 -210.254410 -12.517979
  endloop
 endfacet
 facet normal 0.271725 -0.413477 0.869024
  outer loop
   vertex -34.910488 -210.254410 -12.517979
   vertex -35.837593 -210.664413 -12.423170
   vertex -35.746319 -210.803406 -12.517841
  endloop
 endfacet
 facet normal 0.271725 -0.413477 0.869024
  outer loop
   vertex -35.001762 -210.115417 -12.423307
   vertex -35.837593 -210.664413 -12.423170
   vertex -34.910488 -210.254410 -12.517979
  endloop
 endfacet
 facet normal -0.145174 0.221264 0.964348
  outer loop
   vertex -35.938896 -210.510193 -12.473805
   vertex -35.837593 -210.664413 -12.423170
   vertex -35.001762 -210.115417 -12.423307
  endloop
 endfacet
 facet normal -0.145173 0.221262 0.964349
  outer loop
   vertex -35.001762 -210.115417 -12.423307
   vertex -35.103069 -209.961197 -12.473943
   vertex -35.938896 -210.510193 -12.473805
  endloop
 endfacet
 facet normal -0.477030 0.726385 0.494781
  outer loop
   vertex -35.938896 -210.510193 -12.473805
   vertex -35.103069 -209.961197 -12.473943
   vertex -35.990891 -210.431076 -12.640085
  endloop
 endfacet
 facet normal -0.477031 0.726389 0.494773
  outer loop
   vertex -35.990891 -210.431076 -12.640085
   vertex -35.103069 -209.961197 -12.473943
   vertex -35.155060 -209.882080 -12.640223
  endloop
 endfacet
 facet normal -0.529456 0.806016 -0.264602
  outer loop
   vertex -35.155060 -209.882080 -12.640223
   vertex -35.963112 -210.473404 -12.824606
   vertex -35.990891 -210.431076 -12.640085
  endloop
 endfacet
 facet normal -0.529440 0.806010 -0.264655
  outer loop
   vertex -35.127285 -209.924423 -12.824742
   vertex -35.963112 -210.473404 -12.824606
   vertex -35.155060 -209.882080 -12.640223
  endloop
 endfacet
 facet normal -0.271720 0.413480 -0.869024
  outer loop
   vertex -35.871838 -210.612396 -12.919277
   vertex -35.963112 -210.473404 -12.824606
   vertex -35.127285 -209.924423 -12.824742
  endloop
 endfacet
 facet normal -0.271738 0.413497 -0.869010
  outer loop
   vertex -35.127285 -209.924423 -12.824742
   vertex -35.036007 -210.063400 -12.919414
   vertex -35.871838 -210.612396 -12.919277
  endloop
 endfacet
 facet normal 0.145175 -0.221264 -0.964348
  outer loop
   vertex -35.871838 -210.612396 -12.919277
   vertex -35.036007 -210.063400 -12.919414
   vertex -35.770535 -210.766617 -12.868642
  endloop
 endfacet
 facet normal 0.145159 -0.221248 -0.964354
  outer loop
   vertex -35.770535 -210.766617 -12.868642
   vertex -35.036007 -210.063400 -12.919414
   vertex -34.934704 -210.217636 -12.868779
  endloop
 endfacet
 facet normal 0.477019 -0.726392 -0.494781
  outer loop
   vertex -34.934704 -210.217636 -12.868779
   vertex -35.718540 -210.845734 -12.702362
   vertex -35.770535 -210.766617 -12.868642
  endloop
 endfacet
 facet normal 0.477045 -0.726410 -0.494728
  outer loop
   vertex -34.882710 -210.296738 -12.702498
   vertex -35.718540 -210.845734 -12.702362
   vertex -34.934704 -210.217636 -12.868779
  endloop
 endfacet
 facet normal 0.529442 -0.806017 0.264628
  outer loop
   vertex -33.646748 -210.375259 -12.796049
   vertex -32.810917 -209.826279 -12.796185
   vertex -33.757854 -210.205917 -12.057968
  endloop
 endfacet
 facet normal 0.529442 -0.806017 0.264628
  outer loop
   vertex -33.757854 -210.205917 -12.057968
   vertex -32.810917 -209.826279 -12.796185
   vertex -32.922024 -209.656937 -12.058105
  endloop
 endfacet
 facet normal 0.271723 -0.413485 0.869020
  outer loop
   vertex -32.922024 -209.656937 -12.058105
   vertex -34.122955 -209.649963 -11.679283
   vertex -33.757854 -210.205917 -12.057968
  endloop
 endfacet
 facet normal 0.271723 -0.413484 0.869021
  outer loop
   vertex -33.287125 -209.100983 -11.679420
   vertex -34.122955 -209.649963 -11.679283
   vertex -32.922024 -209.656937 -12.058105
  endloop
 endfacet
 facet normal -0.145167 0.221260 0.964350
  outer loop
   vertex -34.528175 -209.033066 -11.881824
   vertex -34.122955 -209.649963 -11.679283
   vertex -33.287125 -209.100983 -11.679420
  endloop
 endfacet
 facet normal -0.145167 0.221260 0.964350
  outer loop
   vertex -33.287125 -209.100983 -11.679420
   vertex -33.692345 -208.484085 -11.881961
   vertex -34.528175 -209.033066 -11.881824
  endloop
 endfacet
 facet normal -0.477020 0.726394 0.494776
  outer loop
   vertex -34.528175 -209.033066 -11.881824
   vertex -33.692345 -208.484085 -11.881961
   vertex -34.736145 -208.716599 -12.546944
  endloop
 endfacet
 facet normal -0.477021 0.726391 0.494779
  outer loop
   vertex -34.736145 -208.716599 -12.546944
   vertex -33.692345 -208.484085 -11.881961
   vertex -33.900318 -208.167618 -12.547080
  endloop
 endfacet
 facet normal -0.529441 0.806012 -0.264644
  outer loop
   vertex -33.900318 -208.167618 -12.547080
   vertex -34.625038 -208.885956 -13.285025
   vertex -34.736145 -208.716599 -12.546944
  endloop
 endfacet
 facet normal -0.529452 0.806009 -0.264631
  outer loop
   vertex -33.789207 -208.336960 -13.285161
   vertex -34.625038 -208.885956 -13.285025
   vertex -33.900318 -208.167618 -12.547080
  endloop
 endfacet
 facet normal -0.271728 0.413482 -0.869020
  outer loop
   vertex -34.259937 -209.441910 -13.663710
   vertex -34.625038 -208.885956 -13.285025
   vertex -33.789207 -208.336960 -13.285161
  endloop
 endfacet
 facet normal -0.271728 0.413482 -0.869020
  outer loop
   vertex -33.789207 -208.336960 -13.285161
   vertex -33.424107 -208.892914 -13.663846
   vertex -34.259937 -209.441910 -13.663710
  endloop
 endfacet
 facet normal 0.145173 -0.221262 -0.964348
  outer loop
   vertex -34.259937 -209.441910 -13.663710
   vertex -33.424107 -208.892914 -13.663846
   vertex -33.854717 -210.058792 -13.461169
  endloop
 endfacet
 facet normal 0.145167 -0.221260 -0.964350
  outer loop
   vertex -33.854717 -210.058792 -13.461169
   vertex -33.424107 -208.892914 -13.663846
   vertex -33.018887 -209.509811 -13.461307
  endloop
 endfacet
 facet normal 0.477020 -0.726394 -0.494776
  outer loop
   vertex -33.018887 -209.509811 -13.461307
   vertex -33.646748 -210.375259 -12.796049
   vertex -33.854717 -210.058792 -13.461169
  endloop
 endfacet
 facet normal 0.477021 -0.726394 -0.494776
  outer loop
   vertex -32.810917 -209.826279 -12.796185
   vertex -33.646748 -210.375259 -12.796049
   vertex -33.018887 -209.509811 -13.461307
  endloop
 endfacet
 facet normal -0.040845 -0.975176 0.217632
  outer loop
   vertex -34.891102 -210.302261 -12.702497
   vertex -33.646748 -210.375259 -12.796049
   vertex -34.918877 -210.259918 -12.517977
  endloop
 endfacet
 facet normal -0.040855 -0.975184 0.217592
  outer loop
   vertex -34.918877 -210.259918 -12.517977
   vertex -33.646748 -210.375259 -12.796049
   vertex -33.757854 -210.205917 -12.057968
  endloop
 endfacet
 facet normal -0.252698 -0.652527 0.714389
  outer loop
   vertex -33.757854 -210.205917 -12.057968
   vertex -35.010151 -210.120926 -12.423306
   vertex -34.918877 -210.259918 -12.517977
  endloop
 endfacet
 facet normal -0.252696 -0.652542 0.714377
  outer loop
   vertex -34.122955 -209.649963 -11.679283
   vertex -35.010151 -210.120926 -12.423306
   vertex -33.757854 -210.205917 -12.057968
  endloop
 endfacet
 facet normal -0.595363 -0.130817 0.792735
  outer loop
   vertex -35.111458 -209.966705 -12.473941
   vertex -35.010151 -210.120926 -12.423306
   vertex -34.122955 -209.649963 -11.679283
  endloop
 endfacet
 facet normal -0.595367 -0.130806 0.792735
  outer loop
   vertex -34.122955 -209.649963 -11.679283
   vertex -34.528175 -209.033066 -11.881824
   vertex -35.111458 -209.966705 -12.473941
  endloop
 endfacet
 facet normal -0.868137 0.284385 0.406771
  outer loop
   vertex -35.111458 -209.966705 -12.473941
   vertex -34.528175 -209.033066 -11.881824
   vertex -35.163452 -209.887589 -12.640221
  endloop
 endfacet
 facet normal -0.868138 0.284392 0.406764
  outer loop
   vertex -35.163452 -209.887589 -12.640221
   vertex -34.528175 -209.033066 -11.881824
   vertex -34.736145 -208.716599 -12.546944
  endloop
 endfacet
 facet normal -0.911222 0.349837 -0.217459
  outer loop
   vertex -34.736145 -208.716599 -12.546944
   vertex -35.135674 -209.929932 -12.824741
   vertex -35.163452 -209.887589 -12.640221
  endloop
 endfacet
 facet normal -0.911227 0.349835 -0.217443
  outer loop
   vertex -34.625038 -208.885956 -13.285025
   vertex -35.135674 -209.929932 -12.824741
   vertex -34.736145 -208.716599 -12.546944
  endloop
 endfacet
 facet normal -0.699393 0.027195 -0.714220
  outer loop
   vertex -35.044399 -210.068909 -12.919413
   vertex -35.135674 -209.929932 -12.824741
   vertex -34.625038 -208.885956 -13.285025
  endloop
 endfacet
 facet normal -0.699389 0.027193 -0.714223
  outer loop
   vertex -34.625038 -208.885956 -13.285025
   vertex -34.259937 -209.441910 -13.663710
   vertex -35.044399 -210.068909 -12.919413
  endloop
 endfacet
 facet normal -0.356742 -0.494522 -0.792580
  outer loop
   vertex -35.044399 -210.068909 -12.919413
   vertex -34.259937 -209.441910 -13.663710
   vertex -34.943092 -210.223145 -12.868777
  endloop
 endfacet
 facet normal -0.356713 -0.494545 -0.792579
  outer loop
   vertex -34.943092 -210.223145 -12.868777
   vertex -34.259937 -209.441910 -13.663710
   vertex -33.854717 -210.058792 -13.461169
  endloop
 endfacet
 facet normal -0.083939 -0.909737 -0.406613
  outer loop
   vertex -33.854717 -210.058792 -13.461169
   vertex -34.891102 -210.302261 -12.702497
   vertex -34.943092 -210.223145 -12.868777
  endloop
 endfacet
 facet normal -0.083938 -0.909737 -0.406612
  outer loop
   vertex -33.646748 -210.375259 -12.796049
   vertex -34.891102 -210.302261 -12.702497
   vertex -33.854717 -210.058792 -13.461169
  endloop
 endfacet
 facet normal 0.529448 -0.806002 0.264660
  outer loop
   vertex -26.905296 -224.264297 -14.717627
   vertex -26.069468 -223.715302 -14.717764
   vertex -26.933073 -224.221954 -14.533107
  endloop
 endfacet
 facet normal 0.529448 -0.806023 0.264598
  outer loop
   vertex -26.933073 -224.221954 -14.533107
   vertex -26.069468 -223.715302 -14.717764
   vertex -26.097244 -223.672974 -14.533244
  endloop
 endfacet
 facet normal 0.271735 -0.413502 0.869009
  outer loop
   vertex -26.097244 -223.672974 -14.533244
   vertex -27.024349 -224.082977 -14.438436
   vertex -26.933073 -224.221954 -14.533107
  endloop
 endfacet
 facet normal 0.271725 -0.413477 0.869024
  outer loop
   vertex -26.188519 -223.533981 -14.438573
   vertex -27.024349 -224.082977 -14.438436
   vertex -26.097244 -223.672974 -14.533244
  endloop
 endfacet
 facet normal -0.145164 0.221249 0.964353
  outer loop
   vertex -27.125654 -223.928741 -14.489071
   vertex -27.024349 -224.082977 -14.438436
   vertex -26.188519 -223.533981 -14.438573
  endloop
 endfacet
 facet normal -0.145168 0.221259 0.964350
  outer loop
   vertex -26.188519 -223.533981 -14.438573
   vertex -26.289825 -223.379761 -14.489207
   vertex -27.125654 -223.928741 -14.489071
  endloop
 endfacet
 facet normal -0.477021 0.726393 0.494777
  outer loop
   vertex -27.125654 -223.928741 -14.489071
   vertex -26.289825 -223.379761 -14.489207
   vertex -27.177647 -223.849625 -14.655351
  endloop
 endfacet
 facet normal -0.477021 0.726393 0.494777
  outer loop
   vertex -27.177647 -223.849625 -14.655351
   vertex -26.289825 -223.379761 -14.489207
   vertex -26.341818 -223.300644 -14.655487
  endloop
 endfacet
 facet normal -0.529438 0.806009 -0.264660
  outer loop
   vertex -26.341818 -223.300644 -14.655487
   vertex -27.149870 -223.891968 -14.839870
   vertex -27.177647 -223.849625 -14.655351
  endloop
 endfacet
 facet normal -0.529456 0.806016 -0.264602
  outer loop
   vertex -26.314039 -223.342972 -14.840008
   vertex -27.149870 -223.891968 -14.839870
   vertex -26.341818 -223.300644 -14.655487
  endloop
 endfacet
 facet normal -0.271724 0.413475 -0.869025
  outer loop
   vertex -27.058594 -224.030960 -14.934542
   vertex -27.149870 -223.891968 -14.839870
   vertex -26.314039 -223.342972 -14.840008
  endloop
 endfacet
 facet normal -0.271726 0.413476 -0.869024
  outer loop
   vertex -26.314039 -223.342972 -14.840008
   vertex -26.222765 -223.481964 -14.934679
   vertex -27.058594 -224.030960 -14.934542
  endloop
 endfacet
 facet normal 0.145171 -0.221259 -0.964349
  outer loop
   vertex -27.058594 -224.030960 -14.934542
   vertex -26.222765 -223.481964 -14.934679
   vertex -26.957289 -224.185181 -14.883907
  endloop
 endfacet
 facet normal 0.145174 -0.221262 -0.964348
  outer loop
   vertex -26.957289 -224.185181 -14.883907
   vertex -26.222765 -223.481964 -14.934679
   vertex -26.121460 -223.636185 -14.884044
  endloop
 endfacet
 facet normal 0.477031 -0.726388 -0.494775
  outer loop
   vertex -26.121460 -223.636185 -14.884044
   vertex -26.905296 -224.264297 -14.717627
   vertex -26.957289 -224.185181 -14.883907
  endloop
 endfacet
 facet normal 0.477030 -0.726387 -0.494777
  outer loop
   vertex -26.069468 -223.715302 -14.717764
   vertex -26.905296 -224.264297 -14.717627
   vertex -26.121460 -223.636185 -14.884044
  endloop
 endfacet
 facet normal 0.477020 -0.726393 -0.494777
  outer loop
   vertex -25.041473 -223.477356 -15.476435
   vertex -24.205643 -222.928375 -15.476571
   vertex -24.833502 -223.793823 -14.811315
  endloop
 endfacet
 facet normal 0.477022 -0.726393 -0.494776
  outer loop
   vertex -24.833502 -223.793823 -14.811315
   vertex -24.205643 -222.928375 -15.476571
   vertex -23.997673 -223.244843 -14.811451
  endloop
 endfacet
 facet normal 0.529443 -0.806016 0.264629
  outer loop
   vertex -23.997673 -223.244843 -14.811451
   vertex -24.944611 -223.624481 -14.073233
   vertex -24.833502 -223.793823 -14.811315
  endloop
 endfacet
 facet normal 0.529443 -0.806016 0.264630
  outer loop
   vertex -24.108782 -223.075500 -14.073370
   vertex -24.944611 -223.624481 -14.073233
   vertex -23.997673 -223.244843 -14.811451
  endloop
 endfacet
 facet normal 0.271723 -0.413484 0.869021
  outer loop
   vertex -25.309711 -223.068527 -13.694549
   vertex -24.944611 -223.624481 -14.073233
   vertex -24.108782 -223.075500 -14.073370
  endloop
 endfacet
 facet normal 0.271724 -0.413476 0.869024
  outer loop
   vertex -24.108782 -223.075500 -14.073370
   vertex -24.473881 -222.519531 -13.694685
   vertex -25.309711 -223.068527 -13.694549
  endloop
 endfacet
 facet normal -0.145171 0.221258 0.964350
  outer loop
   vertex -25.309711 -223.068527 -13.694549
   vertex -24.473881 -222.519531 -13.694685
   vertex -25.714931 -222.451630 -13.897089
  endloop
 endfacet
 facet normal -0.145170 0.221263 0.964349
  outer loop
   vertex -25.714931 -222.451630 -13.897089
   vertex -24.473881 -222.519531 -13.694685
   vertex -24.879103 -221.902649 -13.897225
  endloop
 endfacet
 facet normal -0.477021 0.726392 0.494778
  outer loop
   vertex -24.879103 -221.902649 -13.897225
   vertex -25.922903 -222.135162 -14.562208
   vertex -25.714931 -222.451630 -13.897089
  endloop
 endfacet
 facet normal -0.477020 0.726394 0.494776
  outer loop
   vertex -25.087072 -221.586182 -14.562346
   vertex -25.922903 -222.135162 -14.562208
   vertex -24.879103 -221.902649 -13.897225
  endloop
 endfacet
 facet normal -0.529442 0.806016 -0.264630
  outer loop
   vertex -25.811794 -222.304504 -15.300289
   vertex -25.922903 -222.135162 -14.562208
   vertex -25.087072 -221.586182 -14.562346
  endloop
 endfacet
 facet normal -0.529443 0.806016 -0.264628
  outer loop
   vertex -25.087072 -221.586182 -14.562346
   vertex -24.975965 -221.755524 -15.300426
   vertex -25.811794 -222.304504 -15.300289
  endloop
 endfacet
 facet normal -0.271720 0.413479 -0.869024
  outer loop
   vertex -25.811794 -222.304504 -15.300289
   vertex -24.975965 -221.755524 -15.300426
   vertex -25.446695 -222.860474 -15.678974
  endloop
 endfacet
 facet normal -0.271729 0.413482 -0.869020
  outer loop
   vertex -25.446695 -222.860474 -15.678974
   vertex -24.975965 -221.755524 -15.300426
   vertex -24.610865 -222.311478 -15.679111
  endloop
 endfacet
 facet normal 0.145172 -0.221261 -0.964349
  outer loop
   vertex -24.610865 -222.311478 -15.679111
   vertex -25.041473 -223.477356 -15.476435
   vertex -25.446695 -222.860474 -15.678974
  endloop
 endfacet
 facet normal 0.145168 -0.221260 -0.964350
  outer loop
   vertex -24.205643 -222.928375 -15.476571
   vertex -25.041473 -223.477356 -15.476435
   vertex -24.610865 -222.311478 -15.679111
  endloop
 endfacet
endsolid