solid stl file generated from DOUG
 facet normal -0.592960 0.000000 0.805232
  outer loop
   vertex 15.517150 590.678101 85.022163
   vertex 15.432649 591.836853 84.959938
   vertex 15.432649 590.678101 84.959938
  endloop
 endfacet
 facet normal -0.961262 -0.000000 0.275636
  outer loop
   vertex 15.432649 590.678101 84.959938
   vertex 15.432649 591.836853 84.959938
   vertex 15.200665 591.836853 84.150909
  endloop
 endfacet
 facet normal 0.000000 1.000000 0.000000
  outer loop
   vertex 16.507870 565.886658 82.692131
   vertex 15.684584 565.886658 81.026543
   vertex 16.188446 565.886658 82.783722
  endloop
 endfacet
 facet normal -0.961262 -0.000000 0.275637
  outer loop
   vertex 16.188446 565.886658 82.783722
   vertex 15.684584 565.886658 81.026543
   vertex 16.208138 565.603088 82.852394
  endloop
 endfacet
 facet normal -0.961262 0.000008 0.275637
  outer loop
   vertex 16.208141 593.396912 82.852394
   vertex 15.684587 593.113342 81.026550
   vertex 16.188450 593.113342 82.783730
  endloop
 endfacet
 facet normal -0.000000 -1.000000 -0.000000
  outer loop
   vertex 16.188450 593.113342 82.783730
   vertex 15.684587 593.113342 81.026550
   vertex 16.507874 593.113342 82.692131
  endloop
 endfacet
 facet normal 0.275631 -0.000000 0.961263
  outer loop
   vertex 16.993134 591.294434 84.537392
   vertex 16.887768 591.294434 84.567604
   vertex 16.887764 567.705566 84.567604
  endloop
 endfacet
 facet normal -0.609769 0.000000 0.792579
  outer loop
   vertex 16.887764 567.705566 84.567604
   vertex 16.887768 591.294434 84.567604
   vertex 16.772621 567.705566 84.479019
  endloop
 endfacet
 facet normal -0.961261 0.000000 0.275639
  outer loop
   vertex 15.200661 567.163147 84.150909
   vertex 15.432645 568.321899 84.959930
   vertex 15.200661 568.321899 84.150909
  endloop
 endfacet
 facet normal -0.000000 1.000000 0.000000
  outer loop
   vertex 15.200661 568.321899 84.150909
   vertex 15.432645 568.321899 84.959930
   vertex 15.656888 568.321899 84.879425
  endloop
 endfacet
 facet normal -0.087533 0.000000 0.996162
  outer loop
   vertex 15.268527 591.294434 84.218803
   vertex 15.268523 567.705566 84.218803
   vertex 15.304299 591.294434 84.221947
  endloop
 endfacet
 facet normal -0.087533 0.000000 0.996162
  outer loop
   vertex 15.304299 591.294434 84.221947
   vertex 15.268523 567.705566 84.218803
   vertex 15.304296 567.705566 84.221947
  endloop
 endfacet
 facet normal -0.961262 0.000000 0.275636
  outer loop
   vertex 15.304296 567.705566 84.221947
   vertex 15.473408 567.705566 84.811714
   vertex 15.304299 591.294434 84.221947
  endloop
 endfacet
 facet normal -0.961261 0.000000 0.275638
  outer loop
   vertex 15.381818 592.667175 79.970665
   vertex 15.079049 593.396912 78.914787
   vertex 15.079048 591.391418 78.914787
  endloop
 endfacet
 facet normal -0.275652 0.000000 -0.961258
  outer loop
   vertex 15.079048 591.391418 78.914787
   vertex 15.079049 593.396912 78.914787
   vertex 15.398472 591.391418 78.823189
  endloop
 endfacet
 facet normal 0.000000 -1.000000 0.000000
  outer loop
   vertex 15.398472 591.391418 78.823189
   vertex 16.600805 591.391418 83.016228
   vertex 15.079048 591.391418 78.914787
  endloop
 endfacet
 facet normal 0.275634 -0.000000 0.961263
  outer loop
   vertex 16.839756 591.836853 84.642914
   vertex 16.992561 590.678101 84.599098
   vertex 16.992561 591.836853 84.599098
  endloop
 endfacet
 facet normal 0.929577 -0.000000 0.368628
  outer loop
   vertex 16.992561 591.836853 84.599098
   vertex 16.992561 590.678101 84.599098
   vertex 17.031248 590.678101 84.501541
  endloop
 endfacet
 facet normal 0.929577 0.000000 0.368628
  outer loop
   vertex 17.031248 590.678101 84.501541
   vertex 17.031248 591.836853 84.501541
   vertex 16.992561 591.836853 84.599098
  endloop
 endfacet
 facet normal -0.275631 0.000000 -0.961263
  outer loop
   vertex 15.079045 567.608582 78.914780
   vertex 15.398468 567.608582 78.823189
   vertex 15.079044 565.603088 78.914780
  endloop
 endfacet
 facet normal -0.275631 -0.000000 -0.961264
  outer loop
   vertex 15.079044 565.603088 78.914780
   vertex 15.398468 567.608582 78.823189
   vertex 15.398468 565.603088 78.823189
  endloop
 endfacet
 facet normal 0.000000 -1.000000 0.000000
  outer loop
   vertex 15.398468 565.603088 78.823189
   vertex 16.527561 565.603088 82.760803
   vertex 15.079044 565.603088 78.914780
  endloop
 endfacet
 facet normal 0.275631 0.000000 0.961264
  outer loop
   vertex 16.600805 593.181274 83.016228
   vertex 16.281382 593.181274 83.107819
   vertex 16.281382 591.391418 83.107819
  endloop
 endfacet
 facet normal -0.961261 -0.000000 0.275639
  outer loop
   vertex 16.281382 591.391418 83.107819
   vertex 16.281382 593.181274 83.107819
   vertex 16.188450 591.937439 82.783730
  endloop
 endfacet
 facet normal -0.961262 -0.000001 0.275637
  outer loop
   vertex 16.188450 591.937439 82.783730
   vertex 15.684587 591.937439 81.026550
   vertex 16.281382 591.391418 83.107819
  endloop
 endfacet
 facet normal 0.937117 -0.000000 0.349016
  outer loop
   vertex 15.640038 591.294434 84.803787
   vertex 15.589334 591.294434 84.939926
   vertex 15.589331 567.705566 84.939926
  endloop
 endfacet
 facet normal 0.275631 -0.000000 0.961263
  outer loop
   vertex 15.589331 567.705566 84.939926
   vertex 15.589334 591.294434 84.939926
   vertex 15.483969 591.294434 84.970139
  endloop
 endfacet
 facet normal 0.275631 -0.000000 0.961263
  outer loop
   vertex 15.483969 591.294434 84.970139
   vertex 15.483965 567.705566 84.970139
   vertex 15.589331 567.705566 84.939926
  endloop
 endfacet
 facet normal -0.961262 -0.000002 0.275637
  outer loop
   vertex 15.684584 567.062561 81.026543
   vertex 16.188446 567.062561 82.783722
   vertex 16.281378 567.608582 83.107819
  endloop
 endfacet
 facet normal -0.961263 -0.000000 0.275633
  outer loop
   vertex 16.281378 567.608582 83.107819
   vertex 16.188446 567.062561 82.783722
   vertex 16.281378 565.818726 83.107819
  endloop
 endfacet
 facet normal 0.275631 0.000000 0.961264
  outer loop
   vertex 16.281378 565.818726 83.107819
   vertex 16.600801 565.818726 83.016228
   vertex 16.281378 567.608582 83.107819
  endloop
 endfacet
 facet normal 0.929583 0.000000 0.368613
  outer loop
   vertex 17.031244 567.163147 84.501541
   vertex 17.031244 568.321899 84.501541
   vertex 16.992559 567.163147 84.599098
  endloop
 endfacet
 facet normal 0.929583 -0.000000 0.368613
  outer loop
   vertex 16.992559 567.163147 84.599098
   vertex 17.031244 568.321899 84.501541
   vertex 16.992559 568.321899 84.599098
  endloop
 endfacet
 facet normal 0.275631 0.000000 0.961264
  outer loop
   vertex 16.992559 568.321899 84.599098
   vertex 16.839752 567.163147 84.642914
   vertex 16.992559 567.163147 84.599098
  endloop
 endfacet
 facet normal 0.000000 1.000000 -0.000000
  outer loop
   vertex 15.669954 568.321899 84.978348
   vertex 15.656888 568.321899 84.879425
   vertex 15.517147 568.321899 85.022163
  endloop
 endfacet
 facet normal -0.000000 1.000000 -0.000000
  outer loop
   vertex 15.517147 568.321899 85.022163
   vertex 15.656888 568.321899 84.879425
   vertex 15.432645 568.321899 84.959930
  endloop
 endfacet
 facet normal -0.593002 0.000000 0.805201
  outer loop
   vertex 15.432645 568.321899 84.959930
   vertex 15.432645 567.163147 84.959930
   vertex 15.517147 568.321899 85.022163
  endloop
 endfacet
 facet normal -0.961261 -0.000000 0.275639
  outer loop
   vertex 15.200661 567.163147 84.150909
   vertex 15.432645 567.163147 84.959930
   vertex 15.432645 568.321899 84.959930
  endloop
 endfacet
 facet normal -0.961262 0.000000 0.275636
  outer loop
   vertex 15.200665 591.836853 84.150909
   vertex 15.200665 590.678101 84.150909
   vertex 15.432649 590.678101 84.959938
  endloop
 endfacet
 facet normal -0.000000 -1.000000 -0.000000
  outer loop
   vertex 15.432649 590.678101 84.959938
   vertex 15.200665 590.678101 84.150909
   vertex 15.656891 590.678101 84.879425
  endloop
 endfacet
 facet normal 0.000000 -1.000000 -0.000000
  outer loop
   vertex 15.656891 590.678101 84.879425
   vertex 15.517150 590.678101 85.022163
   vertex 15.432649 590.678101 84.959938
  endloop
 endfacet
 facet normal -0.000000 -1.000000 -0.000000
  outer loop
   vertex 15.669958 590.678101 84.978348
   vertex 15.517150 590.678101 85.022163
   vertex 15.656891 590.678101 84.879425
  endloop
 endfacet
 facet normal 0.937117 -0.000000 0.349016
  outer loop
   vertex 15.589331 567.705566 84.939926
   vertex 15.640034 567.705566 84.803787
   vertex 15.640038 591.294434 84.803787
  endloop
 endfacet
 facet normal 0.275640 -0.000000 0.961261
  outer loop
   vertex 15.640038 591.294434 84.803787
   vertex 15.640034 567.705566 84.803787
   vertex 16.772621 567.705566 84.479019
  endloop
 endfacet
 facet normal 0.275640 -0.000000 0.961261
  outer loop
   vertex 16.772621 567.705566 84.479019
   vertex 16.772625 591.294434 84.479019
   vertex 15.640038 591.294434 84.803787
  endloop
 endfacet
 facet normal -0.609769 0.000000 0.792579
  outer loop
   vertex 16.887768 591.294434 84.567604
   vertex 16.772625 591.294434 84.479019
   vertex 16.772621 567.705566 84.479019
  endloop
 endfacet
 facet normal 0.961262 -0.000002 -0.275637
  outer loop
   vertex 16.507874 591.937439 82.692131
   vertex 16.600805 591.391418 83.016228
   vertex 16.004011 591.937439 80.934952
  endloop
 endfacet
 facet normal 0.961262 -0.000003 -0.275637
  outer loop
   vertex 16.004011 591.937439 80.934952
   vertex 16.600805 591.391418 83.016228
   vertex 15.398472 591.391418 78.823189
  endloop
 endfacet
 facet normal 0.961262 0.000000 -0.275638
  outer loop
   vertex 15.398472 591.391418 78.823189
   vertex 15.398472 593.396912 78.823189
   vertex 16.004011 591.937439 80.934952
  endloop
 endfacet
 facet normal -0.275653 -0.000000 -0.961257
  outer loop
   vertex 15.079049 593.396912 78.914787
   vertex 15.398472 593.396912 78.823189
   vertex 15.398472 591.391418 78.823189
  endloop
 endfacet
 facet normal 0.000000 1.000000 -0.000000
  outer loop
   vertex 16.527565 593.396912 82.760803
   vertex 15.398472 593.396912 78.823189
   vertex 15.079049 593.396912 78.914787
  endloop
 endfacet
 facet normal 0.000000 1.000000 0.000000
  outer loop
   vertex 15.079045 567.608582 78.914780
   vertex 16.600801 567.608582 83.016228
   vertex 15.398468 567.608582 78.823189
  endloop
 endfacet
 facet normal 0.961262 0.000003 -0.275637
  outer loop
   vertex 15.398468 567.608582 78.823189
   vertex 16.600801 567.608582 83.016228
   vertex 16.004007 567.062561 80.934952
  endloop
 endfacet
 facet normal 0.961262 0.000000 -0.275638
  outer loop
   vertex 16.004007 567.062561 80.934952
   vertex 15.398468 565.603088 78.823189
   vertex 15.398468 567.608582 78.823189
  endloop
 endfacet
 facet normal 0.961262 -0.000000 -0.275638
  outer loop
   vertex 16.004007 565.886658 80.934952
   vertex 15.398468 565.603088 78.823189
   vertex 16.004007 567.062561 80.934952
  endloop
 endfacet
 facet normal 0.961262 -0.000003 -0.275637
  outer loop
   vertex 16.527561 565.603088 82.760803
   vertex 15.398468 565.603088 78.823189
   vertex 16.004007 565.886658 80.934952
  endloop
 endfacet
 facet normal 0.000008 -1.000000 0.000027
  outer loop
   vertex 15.398414 591.387329 78.823318
   vertex 15.336793 591.387451 83.356819
   vertex 14.140280 591.387329 79.184082
  endloop
 endfacet
 facet normal -0.961262 0.000017 0.275637
  outer loop
   vertex 14.140280 591.387329 79.184082
   vertex 15.336793 591.387451 83.356819
   vertex 15.336797 591.718140 83.356812
  endloop
 endfacet
 facet normal -0.961262 0.000017 0.275637
  outer loop
   vertex 15.336797 591.718140 83.356812
   vertex 14.140284 591.718079 79.184074
   vertex 14.140280 591.387329 79.184082
  endloop
 endfacet
 facet normal 0.000041 1.000000 -0.000026
  outer loop
   vertex 16.594934 591.718079 82.995987
   vertex 14.140284 591.718079 79.184074
   vertex 15.336797 591.718140 83.356812
  endloop
 endfacet
 facet normal -0.000000 1.000000 0.000000
  outer loop
   vertex 15.398417 591.718079 78.823311
   vertex 14.140284 591.718079 79.184074
   vertex 16.594934 591.718079 82.995987
  endloop
 endfacet
 facet normal -0.961264 0.000000 0.275629
  outer loop
   vertex 15.483965 567.705566 84.970139
   vertex 15.483969 591.294434 84.970139
   vertex 15.444736 567.705566 84.833328
  endloop
 endfacet
 facet normal -0.961260 0.000000 0.275643
  outer loop
   vertex 15.444736 567.705566 84.833328
   vertex 15.483969 591.294434 84.970139
   vertex 15.444740 591.294434 84.833336
  endloop
 endfacet
 facet normal -0.601970 0.000000 -0.798519
  outer loop
   vertex 15.444740 591.294434 84.833336
   vertex 15.473408 567.705566 84.811714
   vertex 15.444736 567.705566 84.833328
  endloop
 endfacet
 facet normal -0.602105 0.000000 -0.798417
  outer loop
   vertex 15.473412 591.294434 84.811714
   vertex 15.473408 567.705566 84.811714
   vertex 15.444740 591.294434 84.833336
  endloop
 endfacet
 facet normal -0.961262 0.000000 0.275636
  outer loop
   vertex 15.304299 591.294434 84.221947
   vertex 15.473408 567.705566 84.811714
   vertex 15.473412 591.294434 84.811714
  endloop
 endfacet
 facet normal 0.000000 -1.000000 0.000000
  outer loop
   vertex 15.398414 567.281921 78.823311
   vertex 16.594931 567.281921 82.995987
   vertex 14.140280 567.281921 79.184074
  endloop
 endfacet
 facet normal 0.000041 -1.000000 -0.000026
  outer loop
   vertex 14.140280 567.281921 79.184074
   vertex 16.594931 567.281921 82.995987
   vertex 15.336793 567.281860 83.356812
  endloop
 endfacet
 facet normal -0.961262 -0.000017 0.275637
  outer loop
   vertex 15.336793 567.281860 83.356812
   vertex 14.140276 567.612671 79.184082
   vertex 14.140280 567.281921 79.184074
  endloop
 endfacet
 facet normal -0.961262 -0.000017 0.275637
  outer loop
   vertex 15.336789 567.612549 83.356819
   vertex 14.140276 567.612671 79.184082
   vertex 15.336793 567.281860 83.356812
  endloop
 endfacet
 facet normal 0.000008 1.000000 0.000027
  outer loop
   vertex 15.398410 567.612671 78.823318
   vertex 14.140276 567.612671 79.184082
   vertex 15.336789 567.612549 83.356819
  endloop
 endfacet
 facet normal -0.000041 1.000000 0.000026
  outer loop
   vertex 15.336789 567.612549 83.356819
   vertex 16.594923 567.612610 82.996056
   vertex 15.398410 567.612671 78.823318
  endloop
 endfacet
 facet normal -0.961260 0.000000 0.275645
  outer loop
   vertex 15.268527 591.294434 84.218803
   vertex 15.249063 591.294434 84.150925
   vertex 15.249059 567.705566 84.150925
  endloop
 endfacet
 facet normal -0.275638 0.000000 -0.961262
  outer loop
   vertex 15.249059 567.705566 84.150925
   vertex 15.249063 591.294434 84.150925
   vertex 16.758226 591.294434 83.718178
  endloop
 endfacet
 facet normal -0.275638 0.000000 -0.961262
  outer loop
   vertex 16.758226 591.294434 83.718178
   vertex 16.758223 567.705566 83.718178
   vertex 15.249059 567.705566 84.150925
  endloop
 endfacet
 facet normal 0.961260 -0.000000 -0.275645
  outer loop
   vertex 16.777691 591.294434 83.786057
   vertex 16.758223 567.705566 83.718178
   vertex 16.758226 591.294434 83.718178
  endloop
 endfacet
 facet normal 0.961260 -0.000000 -0.275645
  outer loop
   vertex 16.777687 567.705566 83.786057
   vertex 16.758223 567.705566 83.718178
   vertex 16.777691 591.294434 83.786057
  endloop
 endfacet
 facet normal 0.602105 -0.000000 0.798417
  outer loop
   vertex 16.777691 591.294434 83.786057
   vertex 16.749020 591.294434 83.807678
   vertex 16.777687 567.705566 83.786057
  endloop
 endfacet
 facet normal 0.602105 -0.000000 0.798417
  outer loop
   vertex 16.777687 567.705566 83.786057
   vertex 16.749020 591.294434 83.807678
   vertex 16.749016 567.705566 83.807678
  endloop
 endfacet
 facet normal 0.961262 -0.000000 -0.275637
  outer loop
   vertex 16.749016 567.705566 83.807678
   vertex 16.749020 591.294434 83.807678
   vertex 16.918133 591.294434 84.397446
  endloop
 endfacet
 facet normal 0.961262 -0.000000 -0.275637
  outer loop
   vertex 16.918133 591.294434 84.397446
   vertex 16.918129 567.705566 84.397446
   vertex 16.749016 567.705566 83.807678
  endloop
 endfacet
 facet normal 0.087533 -0.000000 -0.996162
  outer loop
   vertex 16.953905 591.294434 84.400589
   vertex 16.918129 567.705566 84.397446
   vertex 16.918133 591.294434 84.397446
  endloop
 endfacet
 facet normal 0.087533 -0.000000 -0.996162
  outer loop
   vertex 16.953901 567.705566 84.400589
   vertex 16.918129 567.705566 84.397446
   vertex 16.953905 591.294434 84.400589
  endloop
 endfacet
 facet normal 0.961260 -0.000000 -0.275643
  outer loop
   vertex 16.953905 591.294434 84.400589
   vertex 16.993134 591.294434 84.537392
   vertex 16.953901 567.705566 84.400589
  endloop
 endfacet
 facet normal 0.961260 -0.000000 -0.275643
  outer loop
   vertex 16.953901 567.705566 84.400589
   vertex 16.993134 591.294434 84.537392
   vertex 16.993130 567.705566 84.537392
  endloop
 endfacet
 facet normal 0.275631 -0.000000 0.961263
  outer loop
   vertex 16.993130 567.705566 84.537392
   vertex 16.993134 591.294434 84.537392
   vertex 16.887764 567.705566 84.567604
  endloop
 endfacet
 facet normal 0.000000 -1.000000 -0.000000
  outer loop
   vertex 16.527561 565.603088 82.760803
   vertex 16.208138 565.603088 82.852394
   vertex 15.079044 565.603088 78.914780
  endloop
 endfacet
 facet normal -0.961262 0.000003 0.275637
  outer loop
   vertex 15.079044 565.603088 78.914780
   vertex 16.208138 565.603088 82.852394
   vertex 15.684584 565.886658 81.026543
  endloop
 endfacet
 facet normal -0.961262 -0.000002 0.275638
  outer loop
   vertex 15.684584 565.886658 81.026543
   vertex 15.381814 566.332825 79.970665
   vertex 15.079044 565.603088 78.914780
  endloop
 endfacet
 facet normal -0.961261 -0.000000 0.275639
  outer loop
   vertex 15.684584 567.062561 81.026543
   vertex 15.381814 566.332825 79.970665
   vertex 15.684584 565.886658 81.026543
  endloop
 endfacet
 facet normal -0.961262 0.000002 0.275638
  outer loop
   vertex 15.079045 567.608582 78.914780
   vertex 15.381814 566.332825 79.970665
   vertex 15.684584 567.062561 81.026543
  endloop
 endfacet
 facet normal -0.961262 -0.000002 0.275637
  outer loop
   vertex 15.684584 567.062561 81.026543
   vertex 16.281378 567.608582 83.107819
   vertex 15.079045 567.608582 78.914780
  endloop
 endfacet
 facet normal 0.000000 1.000000 0.000000
  outer loop
   vertex 15.079045 567.608582 78.914780
   vertex 16.281378 567.608582 83.107819
   vertex 16.600801 567.608582 83.016228
  endloop
 endfacet
 facet normal 0.275631 -0.000000 0.961264
  outer loop
   vertex 16.600801 567.608582 83.016228
   vertex 16.281378 567.608582 83.107819
   vertex 16.600801 565.818726 83.016228
  endloop
 endfacet
 facet normal 0.961263 0.000000 -0.275633
  outer loop
   vertex 16.600801 565.818726 83.016228
   vertex 16.507870 567.062561 82.692131
   vertex 16.600801 567.608582 83.016228
  endloop
 endfacet
 facet normal 0.961263 -0.000000 -0.275633
  outer loop
   vertex 16.507870 565.886658 82.692131
   vertex 16.507870 567.062561 82.692131
   vertex 16.600801 565.818726 83.016228
  endloop
 endfacet
 facet normal -0.275631 -0.000000 -0.961264
  outer loop
   vertex 16.188446 567.062561 82.783722
   vertex 16.507870 567.062561 82.692131
   vertex 16.507870 565.886658 82.692131
  endloop
 endfacet
 facet normal -0.275631 0.000000 -0.961264
  outer loop
   vertex 16.507870 565.886658 82.692131
   vertex 16.188446 565.886658 82.783722
   vertex 16.188446 567.062561 82.783722
  endloop
 endfacet
 facet normal -0.961263 0.000000 0.275633
  outer loop
   vertex 16.188446 567.062561 82.783722
   vertex 16.188446 565.886658 82.783722
   vertex 16.281378 565.818726 83.107819
  endloop
 endfacet
 facet normal -0.961263 -0.000001 0.275633
  outer loop
   vertex 16.281378 565.818726 83.107819
   vertex 16.188446 565.886658 82.783722
   vertex 16.208138 565.603088 82.852394
  endloop
 endfacet
 facet normal 0.173685 -0.776483 0.605729
  outer loop
   vertex 16.208138 565.603088 82.852394
   vertex 16.600801 565.818726 83.016228
   vertex 16.281378 565.818726 83.107819
  endloop
 endfacet
 facet normal 0.173685 -0.776483 0.605729
  outer loop
   vertex 16.527561 565.603088 82.760803
   vertex 16.600801 565.818726 83.016228
   vertex 16.208138 565.603088 82.852394
  endloop
 endfacet
 facet normal 0.961263 0.000001 -0.275633
  outer loop
   vertex 16.507870 565.886658 82.692131
   vertex 16.600801 565.818726 83.016228
   vertex 16.527561 565.603088 82.760803
  endloop
 endfacet
 facet normal 0.961262 0.000000 -0.275637
  outer loop
   vertex 16.527561 565.603088 82.760803
   vertex 16.004007 565.886658 80.934952
   vertex 16.507870 565.886658 82.692131
  endloop
 endfacet
 facet normal 0.000000 1.000000 -0.000000
  outer loop
   vertex 16.507870 565.886658 82.692131
   vertex 16.004007 565.886658 80.934952
   vertex 15.684584 565.886658 81.026543
  endloop
 endfacet
 facet normal 0.275631 -0.000000 0.961264
  outer loop
   vertex 15.684584 565.886658 81.026543
   vertex 16.004007 565.886658 80.934952
   vertex 16.004007 567.062561 80.934952
  endloop
 endfacet
 facet normal 0.275631 0.000000 0.961264
  outer loop
   vertex 16.004007 567.062561 80.934952
   vertex 15.684584 567.062561 81.026543
   vertex 15.684584 565.886658 81.026543
  endloop
 endfacet
 facet normal 0.000000 -1.000000 -0.000000
  outer loop
   vertex 16.507870 567.062561 82.692131
   vertex 15.684584 567.062561 81.026543
   vertex 16.004007 567.062561 80.934952
  endloop
 endfacet
 facet normal 0.000000 -1.000000 0.000000
  outer loop
   vertex 16.188446 567.062561 82.783722
   vertex 15.684584 567.062561 81.026543
   vertex 16.507870 567.062561 82.692131
  endloop
 endfacet
 facet normal 0.000000 1.000000 0.000000
  outer loop
   vertex 16.188450 591.937439 82.783730
   vertex 16.507874 591.937439 82.692131
   vertex 15.684587 591.937439 81.026550
  endloop
 endfacet
 facet normal -0.000000 1.000000 -0.000000
  outer loop
   vertex 15.684587 591.937439 81.026550
   vertex 16.507874 591.937439 82.692131
   vertex 16.004011 591.937439 80.934952
  endloop
 endfacet
 facet normal 0.275652 0.000000 0.961258
  outer loop
   vertex 16.004011 591.937439 80.934952
   vertex 15.684587 593.113342 81.026550
   vertex 15.684587 591.937439 81.026550
  endloop
 endfacet
 facet normal 0.275652 -0.000000 0.961258
  outer loop
   vertex 16.004011 593.113342 80.934952
   vertex 15.684587 593.113342 81.026550
   vertex 16.004011 591.937439 80.934952
  endloop
 endfacet
 facet normal 0.000000 -1.000000 0.000000
  outer loop
   vertex 16.507874 593.113342 82.692131
   vertex 15.684587 593.113342 81.026550
   vertex 16.004011 593.113342 80.934952
  endloop
 endfacet
 facet normal 0.961262 -0.000000 -0.275637
  outer loop
   vertex 16.004011 593.113342 80.934952
   vertex 16.527565 593.396912 82.760803
   vertex 16.507874 593.113342 82.692131
  endloop
 endfacet
 facet normal 0.961263 -0.000001 -0.275633
  outer loop
   vertex 16.507874 593.113342 82.692131
   vertex 16.527565 593.396912 82.760803
   vertex 16.600805 593.181274 83.016228
  endloop
 endfacet
 facet normal 0.173685 0.776483 0.605729
  outer loop
   vertex 16.600805 593.181274 83.016228
   vertex 16.527565 593.396912 82.760803
   vertex 16.208141 593.396912 82.852394
  endloop
 endfacet
 facet normal 0.173685 0.776483 0.605729
  outer loop
   vertex 16.208141 593.396912 82.852394
   vertex 16.281382 593.181274 83.107819
   vertex 16.600805 593.181274 83.016228
  endloop
 endfacet
 facet normal -0.961262 0.000007 0.275638
  outer loop
   vertex 16.188450 593.113342 82.783730
   vertex 16.281382 593.181274 83.107819
   vertex 16.208141 593.396912 82.852394
  endloop
 endfacet
 facet normal -0.961261 0.000000 0.275639
  outer loop
   vertex 16.188450 591.937439 82.783730
   vertex 16.281382 593.181274 83.107819
   vertex 16.188450 593.113342 82.783730
  endloop
 endfacet
 facet normal -0.275652 -0.000000 -0.961258
  outer loop
   vertex 16.188450 593.113342 82.783730
   vertex 16.507874 593.113342 82.692131
   vertex 16.188450 591.937439 82.783730
  endloop
 endfacet
 facet normal -0.275652 -0.000000 -0.961258
  outer loop
   vertex 16.188450 591.937439 82.783730
   vertex 16.507874 593.113342 82.692131
   vertex 16.507874 591.937439 82.692131
  endloop
 endfacet
 facet normal 0.961263 -0.000000 -0.275633
  outer loop
   vertex 16.507874 591.937439 82.692131
   vertex 16.507874 593.113342 82.692131
   vertex 16.600805 593.181274 83.016228
  endloop
 endfacet
 facet normal 0.961263 0.000000 -0.275633
  outer loop
   vertex 16.600805 593.181274 83.016228
   vertex 16.600805 591.391418 83.016228
   vertex 16.507874 591.937439 82.692131
  endloop
 endfacet
 facet normal 0.275631 -0.000000 0.961264
  outer loop
   vertex 16.281382 591.391418 83.107819
   vertex 16.600805 591.391418 83.016228
   vertex 16.600805 593.181274 83.016228
  endloop
 endfacet
 facet normal -0.000000 -1.000000 0.000000
  outer loop
   vertex 15.079048 591.391418 78.914787
   vertex 16.600805 591.391418 83.016228
   vertex 16.281382 591.391418 83.107819
  endloop
 endfacet
 facet normal -0.961262 0.000001 0.275638
  outer loop
   vertex 16.281382 591.391418 83.107819
   vertex 15.684587 591.937439 81.026550
   vertex 15.079048 591.391418 78.914787
  endloop
 endfacet
 facet normal -0.961262 0.000001 0.275638
  outer loop
   vertex 15.079048 591.391418 78.914787
   vertex 15.684587 591.937439 81.026550
   vertex 15.381818 592.667175 79.970665
  endloop
 endfacet
 facet normal -0.961262 -0.000000 0.275637
  outer loop
   vertex 15.381818 592.667175 79.970665
   vertex 15.684587 591.937439 81.026550
   vertex 15.684587 593.113342 81.026550
  endloop
 endfacet
 facet normal -0.961262 -0.000001 0.275637
  outer loop
   vertex 15.684587 593.113342 81.026550
   vertex 15.079049 593.396912 78.914787
   vertex 15.381818 592.667175 79.970665
  endloop
 endfacet
 facet normal -0.961262 0.000003 0.275638
  outer loop
   vertex 16.208141 593.396912 82.852394
   vertex 15.079049 593.396912 78.914787
   vertex 15.684587 593.113342 81.026550
  endloop
 endfacet
 facet normal 0.000000 1.000000 0.000000
  outer loop
   vertex 16.527565 593.396912 82.760803
   vertex 15.079049 593.396912 78.914787
   vertex 16.208141 593.396912 82.852394
  endloop
 endfacet
 facet normal -0.910135 0.000000 0.414313
  outer loop
   vertex 16.798416 591.836853 84.552101
   vertex 16.798416 590.678101 84.552101
   vertex 16.839756 591.836853 84.642914
  endloop
 endfacet
 facet normal -0.910135 -0.000000 0.414313
  outer loop
   vertex 16.839756 591.836853 84.642914
   vertex 16.798416 590.678101 84.552101
   vertex 16.839756 590.678101 84.642914
  endloop
 endfacet
 facet normal 0.275634 0.000000 0.961263
  outer loop
   vertex 16.839756 590.678101 84.642914
   vertex 16.992561 590.678101 84.599098
   vertex 16.839756 591.836853 84.642914
  endloop
 endfacet
 facet normal -0.000000 -1.000000 -0.000000
  outer loop
   vertex 16.798416 590.678101 84.552101
   vertex 16.992561 590.678101 84.599098
   vertex 16.839756 590.678101 84.642914
  endloop
 endfacet
 facet normal 0.000000 -1.000000 -0.000000
  outer loop
   vertex 17.031248 590.678101 84.501541
   vertex 16.992561 590.678101 84.599098
   vertex 16.798416 590.678101 84.552101
  endloop
 endfacet
 facet normal -0.000000 -1.000000 0.000000
  outer loop
   vertex 16.798416 590.678101 84.552101
   vertex 16.799263 590.678101 83.692520
   vertex 17.031248 590.678101 84.501541
  endloop
 endfacet
 facet normal 0.961261 0.000000 -0.275640
  outer loop
   vertex 17.031248 590.678101 84.501541
   vertex 16.799263 590.678101 83.692520
   vertex 17.031248 591.836853 84.501541
  endloop
 endfacet
 facet normal 0.961261 -0.000000 -0.275640
  outer loop
   vertex 17.031248 591.836853 84.501541
   vertex 16.799263 590.678101 83.692520
   vertex 16.799263 591.836853 83.692520
  endloop
 endfacet
 facet normal 0.000000 1.000000 0.000000
  outer loop
   vertex 16.799263 591.836853 83.692520
   vertex 16.798416 591.836853 84.552101
   vertex 17.031248 591.836853 84.501541
  endloop
 endfacet
 facet normal -0.000000 1.000000 0.000000
  outer loop
   vertex 15.200665 591.836853 84.150909
   vertex 16.798416 591.836853 84.552101
   vertex 16.799263 591.836853 83.692520
  endloop
 endfacet
 facet normal 0.000000 1.000000 0.000000
  outer loop
   vertex 15.656891 591.836853 84.879425
   vertex 16.798416 591.836853 84.552101
   vertex 15.200665 591.836853 84.150909
  endloop
 endfacet
 facet normal -0.000000 1.000000 0.000000
  outer loop
   vertex 15.200665 591.836853 84.150909
   vertex 15.432649 591.836853 84.959938
   vertex 15.656891 591.836853 84.879425
  endloop
 endfacet
 facet normal -0.000000 1.000000 0.000000
  outer loop
   vertex 15.656891 591.836853 84.879425
   vertex 15.432649 591.836853 84.959938
   vertex 15.517150 591.836853 85.022163
  endloop
 endfacet
 facet normal -0.592960 -0.000000 0.805232
  outer loop
   vertex 15.517150 591.836853 85.022163
   vertex 15.432649 591.836853 84.959938
   vertex 15.517150 590.678101 85.022163
  endloop
 endfacet
 facet normal 0.275629 0.000000 0.961264
  outer loop
   vertex 15.517150 590.678101 85.022163
   vertex 15.669958 591.836853 84.978348
   vertex 15.517150 591.836853 85.022163
  endloop
 endfacet
 facet normal 0.275629 0.000000 0.961264
  outer loop
   vertex 15.669958 590.678101 84.978348
   vertex 15.669958 591.836853 84.978348
   vertex 15.517150 590.678101 85.022163
  endloop
 endfacet
 facet normal 0.991388 0.000000 -0.130958
  outer loop
   vertex 15.656891 591.836853 84.879425
   vertex 15.669958 591.836853 84.978348
   vertex 15.669958 590.678101 84.978348
  endloop
 endfacet
 facet normal 0.991388 -0.000000 -0.130958
  outer loop
   vertex 15.669958 590.678101 84.978348
   vertex 15.656891 590.678101 84.879425
   vertex 15.656891 591.836853 84.879425
  endloop
 endfacet
 facet normal 0.275635 -0.000000 0.961262
  outer loop
   vertex 15.656891 591.836853 84.879425
   vertex 15.656891 590.678101 84.879425
   vertex 16.798416 590.678101 84.552101
  endloop
 endfacet
 facet normal -0.000000 -1.000000 -0.000000
  outer loop
   vertex 16.798416 590.678101 84.552101
   vertex 15.656891 590.678101 84.879425
   vertex 15.200665 590.678101 84.150909
  endloop
 endfacet
 facet normal 0.000000 -1.000000 0.000000
  outer loop
   vertex 15.200665 590.678101 84.150909
   vertex 16.799263 590.678101 83.692520
   vertex 16.798416 590.678101 84.552101
  endloop
 endfacet
 facet normal -0.000000 -1.000000 -0.000000
  outer loop
   vertex 16.355032 590.678101 83.054993
   vertex 16.799263 590.678101 83.692520
   vertex 15.200665 590.678101 84.150909
  endloop
 endfacet
 facet normal 0.820462 0.000000 -0.571701
  outer loop
   vertex 16.799263 591.836853 83.692520
   vertex 16.799263 590.678101 83.692520
   vertex 16.355032 590.678101 83.054993
  endloop
 endfacet
 facet normal 0.820462 -0.000000 -0.571701
  outer loop
   vertex 16.355032 590.678101 83.054993
   vertex 16.355032 591.836853 83.054993
   vertex 16.799263 591.836853 83.692520
  endloop
 endfacet
 facet normal 0.000000 1.000000 -0.000000
  outer loop
   vertex 16.799263 591.836853 83.692520
   vertex 16.355032 591.836853 83.054993
   vertex 15.239559 591.836853 83.374855
  endloop
 endfacet
 facet normal -0.275642 -0.000000 -0.961260
  outer loop
   vertex 15.239559 591.836853 83.374855
   vertex 16.355032 591.836853 83.054993
   vertex 16.355032 590.678101 83.054993
  endloop
 endfacet
 facet normal -0.275642 0.000000 -0.961260
  outer loop
   vertex 16.355032 590.678101 83.054993
   vertex 15.239559 590.678101 83.374855
   vertex 15.239559 591.836853 83.374855
  endloop
 endfacet
 facet normal 0.000000 -1.000000 0.000000
  outer loop
   vertex 15.200665 590.678101 84.150909
   vertex 15.239559 590.678101 83.374855
   vertex 16.355032 590.678101 83.054993
  endloop
 endfacet
 facet normal -0.998746 0.000000 -0.050056
  outer loop
   vertex 15.239559 591.836853 83.374855
   vertex 15.239559 590.678101 83.374855
   vertex 15.200665 590.678101 84.150909
  endloop
 endfacet
 facet normal -0.998746 -0.000000 -0.050056
  outer loop
   vertex 15.200665 590.678101 84.150909
   vertex 15.200665 591.836853 84.150909
   vertex 15.239559 591.836853 83.374855
  endloop
 endfacet
 facet normal 0.000000 1.000000 0.000000
  outer loop
   vertex 15.239559 591.836853 83.374855
   vertex 15.200665 591.836853 84.150909
   vertex 16.799263 591.836853 83.692520
  endloop
 endfacet
 facet normal 0.000000 -1.000000 0.000000
  outer loop
   vertex 16.799259 567.163147 83.692520
   vertex 15.200661 567.163147 84.150909
   vertex 15.239555 567.163147 83.374847
  endloop
 endfacet
 facet normal -0.998746 0.000000 -0.050055
  outer loop
   vertex 15.239555 567.163147 83.374847
   vertex 15.200661 567.163147 84.150909
   vertex 15.200661 568.321899 84.150909
  endloop
 endfacet
 facet normal -0.998746 -0.000000 -0.050055
  outer loop
   vertex 15.200661 568.321899 84.150909
   vertex 15.239555 568.321899 83.374847
   vertex 15.239555 567.163147 83.374847
  endloop
 endfacet
 facet normal -0.000000 1.000000 -0.000000
  outer loop
   vertex 16.355028 568.321899 83.054993
   vertex 15.239555 568.321899 83.374847
   vertex 15.200661 568.321899 84.150909
  endloop
 endfacet
 facet normal -0.275636 -0.000000 -0.961262
  outer loop
   vertex 15.239555 567.163147 83.374847
   vertex 15.239555 568.321899 83.374847
   vertex 16.355028 568.321899 83.054993
  endloop
 endfacet
 facet normal -0.275636 0.000000 -0.961262
  outer loop
   vertex 16.355028 568.321899 83.054993
   vertex 16.355028 567.163147 83.054993
   vertex 15.239555 567.163147 83.374847
  endloop
 endfacet
 facet normal 0.000000 -1.000000 0.000000
  outer loop
   vertex 15.239555 567.163147 83.374847
   vertex 16.355028 567.163147 83.054993
   vertex 16.799259 567.163147 83.692520
  endloop
 endfacet
 facet normal 0.820462 -0.000000 -0.571701
  outer loop
   vertex 16.799259 567.163147 83.692520
   vertex 16.355028 567.163147 83.054993
   vertex 16.355028 568.321899 83.054993
  endloop
 endfacet
 facet normal 0.820462 0.000000 -0.571701
  outer loop
   vertex 16.355028 568.321899 83.054993
   vertex 16.799259 568.321899 83.692520
   vertex 16.799259 567.163147 83.692520
  endloop
 endfacet
 facet normal 0.000000 1.000000 -0.000000
  outer loop
   vertex 15.200661 568.321899 84.150909
   vertex 16.799259 568.321899 83.692520
   vertex 16.355028 568.321899 83.054993
  endloop
 endfacet
 facet normal 0.000000 1.000000 0.000000
  outer loop
   vertex 16.798412 568.321899 84.552101
   vertex 16.799259 568.321899 83.692520
   vertex 15.200661 568.321899 84.150909
  endloop
 endfacet
 facet normal -0.000000 1.000000 0.000000
  outer loop
   vertex 15.200661 568.321899 84.150909
   vertex 15.656888 568.321899 84.879425
   vertex 16.798412 568.321899 84.552101
  endloop
 endfacet
 facet normal 0.275635 -0.000000 0.961262
  outer loop
   vertex 16.798412 568.321899 84.552101
   vertex 15.656888 568.321899 84.879425
   vertex 15.656887 567.163147 84.879425
  endloop
 endfacet
 facet normal 0.991389 -0.000001 -0.130948
  outer loop
   vertex 15.656887 567.163147 84.879425
   vertex 15.656888 568.321899 84.879425
   vertex 15.669954 568.321899 84.978348
  endloop
 endfacet
 facet normal 0.991388 0.000000 -0.130958
  outer loop
   vertex 15.669954 568.321899 84.978348
   vertex 15.669954 567.163147 84.978348
   vertex 15.656887 567.163147 84.879425
  endloop
 endfacet
 facet normal 0.275631 -0.000000 0.961264
  outer loop
   vertex 15.517147 568.321899 85.022163
   vertex 15.669954 567.163147 84.978348
   vertex 15.669954 568.321899 84.978348
  endloop
 endfacet
 facet normal 0.275631 0.000000 0.961264
  outer loop
   vertex 15.517147 567.163147 85.022163
   vertex 15.669954 567.163147 84.978348
   vertex 15.517147 568.321899 85.022163
  endloop
 endfacet
 facet normal -0.593002 -0.000000 0.805201
  outer loop
   vertex 15.517147 568.321899 85.022163
   vertex 15.432645 567.163147 84.959930
   vertex 15.517147 567.163147 85.022163
  endloop
 endfacet
 facet normal 0.000000 -1.000000 0.000000
  outer loop
   vertex 15.517147 567.163147 85.022163
   vertex 15.432645 567.163147 84.959930
   vertex 15.656887 567.163147 84.879425
  endloop
 endfacet
 facet normal -0.000000 -1.000000 -0.000000
  outer loop
   vertex 15.656887 567.163147 84.879425
   vertex 15.432645 567.163147 84.959930
   vertex 15.200661 567.163147 84.150909
  endloop
 endfacet
 facet normal -0.000000 -1.000000 0.000000
  outer loop
   vertex 15.200661 567.163147 84.150909
   vertex 16.798412 567.163147 84.552094
   vertex 15.656887 567.163147 84.879425
  endloop
 endfacet
 facet normal -0.000000 -1.000000 -0.000000
  outer loop
   vertex 16.799259 567.163147 83.692520
   vertex 16.798412 567.163147 84.552094
   vertex 15.200661 567.163147 84.150909
  endloop
 endfacet
 facet normal 0.000000 -1.000000 0.000000
  outer loop
   vertex 17.031244 567.163147 84.501541
   vertex 16.798412 567.163147 84.552094
   vertex 16.799259 567.163147 83.692520
  endloop
 endfacet
 facet normal 0.961261 -0.000000 -0.275640
  outer loop
   vertex 16.799259 567.163147 83.692520
   vertex 16.799259 568.321899 83.692520
   vertex 17.031244 567.163147 84.501541
  endloop
 endfacet
 facet normal 0.961261 0.000000 -0.275640
  outer loop
   vertex 17.031244 567.163147 84.501541
   vertex 16.799259 568.321899 83.692520
   vertex 17.031244 568.321899 84.501541
  endloop
 endfacet
 facet normal -0.000000 1.000000 -0.000000
  outer loop
   vertex 17.031244 568.321899 84.501541
   vertex 16.799259 568.321899 83.692520
   vertex 16.798412 568.321899 84.552101
  endloop
 endfacet
 facet normal 0.000000 1.000000 0.000000
  outer loop
   vertex 16.798412 568.321899 84.552101
   vertex 16.992559 568.321899 84.599098
   vertex 17.031244 568.321899 84.501541
  endloop
 endfacet
 facet normal 0.000000 1.000000 -0.000000
  outer loop
   vertex 16.839752 568.321899 84.642914
   vertex 16.992559 568.321899 84.599098
   vertex 16.798412 568.321899 84.552101
  endloop
 endfacet
 facet normal 0.275631 0.000000 0.961264
  outer loop
   vertex 16.839752 567.163147 84.642914
   vertex 16.992559 568.321899 84.599098
   vertex 16.839752 568.321899 84.642914
  endloop
 endfacet
 facet normal -0.910135 -0.000000 0.414313
  outer loop
   vertex 16.839752 568.321899 84.642914
   vertex 16.798412 568.321899 84.552101
   vertex 16.839752 567.163147 84.642914
  endloop
 endfacet
 facet normal -0.910148 -0.000003 0.414284
  outer loop
   vertex 16.839752 567.163147 84.642914
   vertex 16.798412 568.321899 84.552101
   vertex 16.798412 567.163147 84.552094
  endloop
 endfacet
 facet normal 0.275641 -0.000006 0.961261
  outer loop
   vertex 16.798412 567.163147 84.552094
   vertex 16.798412 568.321899 84.552101
   vertex 15.656887 567.163147 84.879425
  endloop
 endfacet
 facet normal 0.961262 0.000000 -0.275638
  outer loop
   vertex 16.004011 591.937439 80.934952
   vertex 15.398472 593.396912 78.823189
   vertex 16.004011 593.113342 80.934952
  endloop
 endfacet
 facet normal 0.961262 0.000003 -0.275637
  outer loop
   vertex 16.004011 593.113342 80.934952
   vertex 15.398472 593.396912 78.823189
   vertex 16.527565 593.396912 82.760803
  endloop
 endfacet
 facet normal 0.000000 -1.000000 -0.000000
  outer loop
   vertex 17.031244 567.163147 84.501541
   vertex 16.992559 567.163147 84.599098
   vertex 16.798412 567.163147 84.552094
  endloop
 endfacet
 facet normal -0.000000 -1.000000 -0.000000
  outer loop
   vertex 16.798412 567.163147 84.552094
   vertex 16.992559 567.163147 84.599098
   vertex 16.839752 567.163147 84.642914
  endloop
 endfacet
 facet normal -0.000000 1.000000 0.000000
  outer loop
   vertex 17.031248 591.836853 84.501541
   vertex 16.798416 591.836853 84.552101
   vertex 16.992561 591.836853 84.599098
  endloop
 endfacet
 facet normal -0.000000 1.000000 -0.000000
  outer loop
   vertex 16.992561 591.836853 84.599098
   vertex 16.798416 591.836853 84.552101
   vertex 16.839756 591.836853 84.642914
  endloop
 endfacet
 facet normal 0.000000 -1.000000 0.000000
  outer loop
   vertex 15.517147 567.163147 85.022163
   vertex 15.656887 567.163147 84.879425
   vertex 15.669954 567.163147 84.978348
  endloop
 endfacet
 facet normal 0.000000 1.000000 0.000000
  outer loop
   vertex 15.517150 591.836853 85.022163
   vertex 15.669958 591.836853 84.978348
   vertex 15.656891 591.836853 84.879425
  endloop
 endfacet
 facet normal -0.961262 0.000000 0.275637
  outer loop
   vertex 15.079044 565.603088 78.914780
   vertex 15.381814 566.332825 79.970665
   vertex 15.079045 567.608582 78.914780
  endloop
 endfacet
 facet normal 0.275635 -0.000000 0.961262
  outer loop
   vertex 15.656891 591.836853 84.879425
   vertex 16.798416 590.678101 84.552101
   vertex 16.798416 591.836853 84.552101
  endloop
 endfacet
 facet normal 0.275679 0.000019 0.961250
  outer loop
   vertex 15.336797 591.718140 83.356812
   vertex 15.336793 591.387451 83.356819
   vertex 16.594934 591.718079 82.995987
  endloop
 endfacet
 facet normal 0.275679 -0.000019 0.961250
  outer loop
   vertex 15.336793 567.281860 83.356812
   vertex 16.594931 567.281921 82.995987
   vertex 15.336789 567.612549 83.356819
  endloop
 endfacet
 facet normal -0.961260 0.000000 0.275645
  outer loop
   vertex 15.249059 567.705566 84.150925
   vertex 15.268523 567.705566 84.218803
   vertex 15.268527 591.294434 84.218803
  endloop
 endfacet
 facet normal -0.000041 -1.000000 0.000026
  outer loop
   vertex 15.336793 591.387451 83.356819
   vertex 15.398414 591.387329 78.823318
   vertex 16.594927 591.387390 82.996056
  endloop
 endfacet
 facet normal 0.961262 0.000002 -0.275637
  outer loop
   vertex 16.600801 567.608582 83.016228
   vertex 16.507870 567.062561 82.692131
   vertex 16.004007 567.062561 80.934952
  endloop
 endfacet
endsolid