solid stl file generated from DOUG
 facet normal -0.066095 0.494744 -0.866522
  outer loop
   vertex 55.749374 783.883118 -45.413479
   vertex 55.110760 783.018372 -45.858498
   vertex 55.657089 783.923157 -45.383579
  endloop
 endfacet
 facet normal -0.589308 0.624730 -0.512278
  outer loop
   vertex 55.657089 783.923157 -45.383579
   vertex 55.110760 783.018372 -45.858498
   vertex 54.558601 783.018372 -45.223312
  endloop
 endfacet
 facet normal -0.471474 -0.780858 -0.409846
  outer loop
   vertex 59.104610 789.024048 -39.890923
   vertex 57.709518 789.231628 -38.681545
   vertex 58.908791 789.231628 -40.061150
  endloop
 endfacet
 facet normal -0.589320 0.624710 -0.512288
  outer loop
   vertex 58.908791 789.231628 -40.061150
   vertex 57.709518 789.231628 -38.681545
   vertex 59.089359 789.453064 -39.998840
  endloop
 endfacet
 facet normal -0.589316 0.624716 -0.512285
  outer loop
   vertex 53.967953 780.971619 -44.450817
   vertex 52.855518 781.193054 -42.901073
   vertex 54.054787 781.193054 -44.280674
  endloop
 endfacet
 facet normal 0.471558 0.780768 0.409919
  outer loop
   vertex 54.054787 781.193054 -44.280674
   vertex 52.855518 781.193054 -42.901073
   vertex 54.250610 780.985413 -44.110451
  endloop
 endfacet
 facet normal 0.656065 -0.000005 -0.754704
  outer loop
   vertex 56.503349 782.711121 -44.679680
   vertex 56.438755 782.779602 -44.735832
   vertex 59.240498 787.419495 -42.300308
  endloop
 endfacet
 facet normal -0.084599 0.502677 -0.860325
  outer loop
   vertex 59.240498 787.419495 -42.300308
   vertex 56.438755 782.779602 -44.735832
   vertex 59.112976 787.473389 -42.256279
  endloop
 endfacet
 facet normal -0.589308 0.624730 -0.512278
  outer loop
   vertex 58.208870 789.063538 -42.050175
   vertex 58.214699 788.158752 -43.160278
   vertex 57.662540 788.158752 -42.525093
  endloop
 endfacet
 facet normal -0.471438 -0.780896 -0.409815
  outer loop
   vertex 57.662540 788.158752 -42.525093
   vertex 58.214699 788.158752 -43.160278
   vertex 58.344582 788.010254 -43.026730
  endloop
 endfacet
 facet normal 0.400896 0.224184 -0.888270
  outer loop
   vertex 55.065369 783.691956 -44.894047
   vertex 57.867111 788.331848 -42.458527
   vertex 55.093575 783.671021 -44.886600
  endloop
 endfacet
 facet normal 0.400971 0.224130 -0.888250
  outer loop
   vertex 55.093575 783.671021 -44.886600
   vertex 57.867111 788.331848 -42.458527
   vertex 57.895317 788.310913 -42.451077
  endloop
 endfacet
 facet normal -0.589302 0.624740 -0.512273
  outer loop
   vertex 57.895317 788.310913 -42.451077
   vertex 58.297829 788.310913 -42.914112
   vertex 55.093575 783.671021 -44.886600
  endloop
 endfacet
 facet normal -0.589285 0.624746 -0.512285
  outer loop
   vertex 52.345249 781.541382 -41.889202
   vertex 51.280540 780.971619 -41.359303
   vertex 52.226116 782.537537 -40.537323
  endloop
 endfacet
 facet normal -0.656055 -0.000006 0.754713
  outer loop
   vertex 52.226116 782.537537 -40.537323
   vertex 51.280540 780.971619 -41.359303
   vertex 52.421940 782.329956 -40.367100
  endloop
 endfacet
 facet normal 0.471474 0.780858 0.409846
  outer loop
   vertex 52.421940 782.329956 -40.367100
   vertex 55.283676 782.329956 -43.659153
   vertex 52.226116 782.537537 -40.537323
  endloop
 endfacet
 facet normal 0.656049 0.000011 -0.754718
  outer loop
   vertex 56.013870 782.118774 -45.183559
   vertex 56.653881 782.924255 -44.627209
   vertex 56.107552 782.019470 -45.102127
  endloop
 endfacet
 facet normal 0.867282 -0.494757 -0.055110
  outer loop
   vertex 56.107552 782.019470 -45.102127
   vertex 56.653881 782.924255 -44.627209
   vertex 56.637112 782.884216 -44.531658
  endloop
 endfacet
 facet normal 0.867282 -0.494757 -0.055110
  outer loop
   vertex 56.637112 782.884216 -44.531658
   vertex 56.090782 781.979431 -45.006577
   vertex 56.107552 782.019470 -45.102127
  endloop
 endfacet
 facet normal -0.656055 -0.000006 0.754713
  outer loop
   vertex 55.456375 787.887085 -37.729298
   vertex 55.652199 787.679504 -37.559074
   vertex 56.401947 789.453064 -36.907322
  endloop
 endfacet
 facet normal -0.656055 -0.000006 0.754713
  outer loop
   vertex 56.401947 789.453064 -36.907322
   vertex 55.652199 787.679504 -37.559074
   vertex 56.597771 789.245422 -36.737099
  endloop
 endfacet
 facet normal 0.471558 0.780768 0.409919
  outer loop
   vertex 56.597771 789.245422 -36.737099
   vertex 59.285183 789.245422 -39.828613
   vertex 56.401947 789.453064 -36.907322
  endloop
 endfacet
 facet normal 0.656060 0.000001 -0.754709
  outer loop
   vertex 54.439781 780.932373 -44.392742
   vertex 54.243958 781.140015 -44.562969
   vertex 55.087852 782.537537 -43.829380
  endloop
 endfacet
 facet normal -0.589320 0.624748 -0.512242
  outer loop
   vertex 55.087852 782.537537 -43.829380
   vertex 54.243958 781.140015 -44.562969
   vertex 54.609230 782.111206 -43.798706
  endloop
 endfacet
 facet normal -0.589307 0.624731 -0.512277
  outer loop
   vertex 54.609230 782.111206 -43.798706
   vertex 53.409958 782.111206 -42.419102
   vertex 55.087852 782.537537 -43.829380
  endloop
 endfacet
 facet normal 0.863732 -0.502666 -0.035984
  outer loop
   vertex 55.616898 783.569580 -45.295380
   vertex 55.642746 783.623474 -45.427788
   vertex 58.444492 788.263367 -42.992264
  endloop
 endfacet
 facet normal 0.656065 -0.000006 -0.754704
  outer loop
   vertex 58.444492 788.263367 -42.992264
   vertex 55.642746 783.623474 -45.427788
   vertex 55.578152 783.691956 -45.483940
  endloop
 endfacet
 facet normal 0.656065 -0.000006 -0.754704
  outer loop
   vertex 55.578152 783.691956 -45.483940
   vertex 58.379898 788.331848 -43.048416
   vertex 58.444492 788.263367 -42.992264
  endloop
 endfacet
 facet normal -0.589306 0.624734 -0.512276
  outer loop
   vertex 57.155079 788.313416 -39.163517
   vertex 58.354347 788.313416 -40.543118
   vertex 58.318111 787.887085 -41.021355
  endloop
 endfacet
 facet normal -0.589311 0.624732 -0.512273
  outer loop
   vertex 58.318111 787.887085 -41.021355
   vertex 58.354347 788.313416 -40.543118
   vertex 59.162006 789.284668 -40.287766
  endloop
 endfacet
 facet normal 0.656060 0.000001 -0.754709
  outer loop
   vertex 59.162006 789.284668 -40.287766
   vertex 59.357830 789.077087 -40.117538
   vertex 58.318111 787.887085 -41.021355
  endloop
 endfacet
 facet normal 0.867241 -0.494855 -0.054877
  outer loop
   vertex 59.741055 788.024597 -41.833439
   vertex 59.194725 787.119812 -42.308357
   vertex 59.757820 788.064575 -41.928989
  endloop
 endfacet
 facet normal 0.867275 -0.494766 -0.055150
  outer loop
   vertex 59.757820 788.064575 -41.928989
   vertex 59.194725 787.119812 -42.308357
   vertex 59.211491 787.159851 -42.403908
  endloop
 endfacet
 facet normal 0.656060 0.000000 -0.754709
  outer loop
   vertex 59.211491 787.159851 -42.403908
   vertex 59.664139 788.163940 -42.010426
   vertex 59.757820 788.064575 -41.928989
  endloop
 endfacet
 facet normal -0.471617 -0.780866 -0.409665
  outer loop
   vertex 58.400665 788.019409 -43.108746
   vertex 58.344582 788.010254 -43.026730
   vertex 58.306984 788.118713 -43.190182
  endloop
 endfacet
 facet normal -0.471553 -0.780889 -0.409695
  outer loop
   vertex 58.306984 788.118713 -43.190182
   vertex 58.344582 788.010254 -43.026730
   vertex 58.214699 788.158752 -43.160278
  endloop
 endfacet
 facet normal -0.066123 0.494756 -0.866513
  outer loop
   vertex 58.214699 788.158752 -43.160278
   vertex 58.761028 789.063538 -42.685360
   vertex 58.306984 788.118713 -43.190182
  endloop
 endfacet
 facet normal -0.589308 0.624730 -0.512278
  outer loop
   vertex 58.208870 789.063538 -42.050175
   vertex 58.761028 789.063538 -42.685360
   vertex 58.214699 788.158752 -43.160278
  endloop
 endfacet
 facet normal -0.589308 0.624730 -0.512278
  outer loop
   vertex 54.558601 783.018372 -45.223312
   vertex 55.104931 783.923157 -44.748394
   vertex 55.657089 783.923157 -45.383579
  endloop
 endfacet
 facet normal 0.471438 0.780896 0.409815
  outer loop
   vertex 55.657089 783.923157 -45.383579
   vertex 55.104931 783.923157 -44.748394
   vertex 55.786972 783.774658 -45.250031
  endloop
 endfacet
 facet normal 0.471541 0.780890 0.409708
  outer loop
   vertex 55.786972 783.774658 -45.250031
   vertex 55.749374 783.883118 -45.413479
   vertex 55.657089 783.923157 -45.383579
  endloop
 endfacet
 facet normal 0.471624 0.780860 0.409669
  outer loop
   vertex 55.843056 783.783813 -45.332047
   vertex 55.749374 783.883118 -45.413479
   vertex 55.786972 783.774658 -45.250031
  endloop
 endfacet
 facet normal 0.863728 -0.502674 -0.035964
  outer loop
   vertex 58.444492 788.263367 -42.992264
   vertex 58.418640 788.209473 -42.859856
   vertex 55.616898 783.569580 -45.295380
  endloop
 endfacet
 facet normal 0.656059 0.000001 -0.754709
  outer loop
   vertex 55.616898 783.569580 -45.295380
   vertex 58.418640 788.209473 -42.859856
   vertex 59.112976 787.473389 -42.256279
  endloop
 endfacet
 facet normal 0.656060 -0.000001 -0.754708
  outer loop
   vertex 59.112976 787.473389 -42.256279
   vertex 56.311230 782.833496 -44.691803
   vertex 55.616898 783.569580 -45.295380
  endloop
 endfacet
 facet normal -0.084597 0.502676 -0.860326
  outer loop
   vertex 56.438755 782.779602 -44.735832
   vertex 56.311230 782.833496 -44.691803
   vertex 59.112976 787.473389 -42.256279
  endloop
 endfacet
 facet normal 0.589307 -0.624731 0.512278
  outer loop
   vertex 54.805054 781.903625 -43.628479
   vertex 55.283676 782.329956 -43.659153
   vertex 53.605782 781.903625 -42.248878
  endloop
 endfacet
 facet normal 0.589305 -0.624735 0.512275
  outer loop
   vertex 53.605782 781.903625 -42.248878
   vertex 55.283676 782.329956 -43.659153
   vertex 52.421940 782.329956 -40.367100
  endloop
 endfacet
 facet normal 0.589309 -0.624730 0.512276
  outer loop
   vertex 52.421940 782.329956 -40.367100
   vertex 51.476364 780.763977 -41.189075
   vertex 53.605782 781.903625 -42.248878
  endloop
 endfacet
 facet normal -0.656059 0.000000 0.754710
  outer loop
   vertex 51.280540 780.971619 -41.359303
   vertex 51.476364 780.763977 -41.189075
   vertex 52.421940 782.329956 -40.367100
  endloop
 endfacet
 facet normal -0.471555 -0.780771 -0.409917
  outer loop
   vertex 54.163776 780.763977 -44.280590
   vertex 51.476364 780.763977 -41.189075
   vertex 51.280540 780.971619 -41.359303
  endloop
 endfacet
 facet normal -0.471474 -0.780858 -0.409846
  outer loop
   vertex 55.456375 787.887085 -37.729298
   vertex 58.513935 787.679504 -40.851128
   vertex 55.652199 787.679504 -37.559074
  endloop
 endfacet
 facet normal 0.589306 -0.624733 0.512276
  outer loop
   vertex 55.652199 787.679504 -37.559074
   vertex 58.513935 787.679504 -40.851128
   vertex 57.350903 788.105835 -38.993290
  endloop
 endfacet
 facet normal 0.589302 -0.624744 0.512267
  outer loop
   vertex 57.350903 788.105835 -38.993290
   vertex 56.597771 789.245422 -36.737099
   vertex 55.652199 787.679504 -37.559074
  endloop
 endfacet
 facet normal 0.589317 -0.624731 0.512266
  outer loop
   vertex 57.905342 789.024048 -38.511322
   vertex 56.597771 789.245422 -36.737099
   vertex 57.350903 788.105835 -38.993290
  endloop
 endfacet
 facet normal 0.589253 -0.624822 0.512230
  outer loop
   vertex 59.285183 789.245422 -39.828613
   vertex 56.597771 789.245422 -36.737099
   vertex 57.905342 789.024048 -38.511322
  endloop
 endfacet
 facet normal 0.471507 0.780836 0.409850
  outer loop
   vertex 52.423889 782.333191 -40.365543
   vertex 54.500423 783.150818 -44.312183
   vertex 51.652576 783.150879 -41.036034
  endloop
 endfacet
 facet normal -0.589307 0.624732 -0.512276
  outer loop
   vertex 51.652576 783.150879 -41.036034
   vertex 54.500423 783.150818 -44.312183
   vertex 54.344486 782.892578 -44.447727
  endloop
 endfacet
 facet normal -0.589304 0.624737 -0.512274
  outer loop
   vertex 54.344486 782.892578 -44.447727
   vertex 51.496639 782.892639 -41.171581
   vertex 51.652576 783.150879 -41.036034
  endloop
 endfacet
 facet normal -0.471498 -0.780845 -0.409843
  outer loop
   vertex 55.115788 782.074890 -43.777176
   vertex 51.496639 782.892639 -41.171581
   vertex 54.344486 782.892578 -44.447727
  endloop
 endfacet
 facet normal -0.471503 -0.780836 -0.409854
  outer loop
   vertex 52.267952 782.074951 -40.501091
   vertex 51.496639 782.892639 -41.171581
   vertex 55.115788 782.074890 -43.777176
  endloop
 endfacet
 facet normal -0.589297 0.624740 -0.512278
  outer loop
   vertex 58.379898 788.331848 -43.048416
   vertex 55.578152 783.691956 -45.483940
   vertex 58.286526 788.331848 -42.941006
  endloop
 endfacet
 facet normal -0.589307 0.624740 -0.512267
  outer loop
   vertex 58.286526 788.331848 -42.941006
   vertex 55.578152 783.691956 -45.483940
   vertex 55.484783 783.691956 -45.376530
  endloop
 endfacet
 facet normal -0.823799 0.224123 0.520696
  outer loop
   vertex 55.484783 783.691956 -45.376530
   vertex 58.297829 788.310913 -42.914112
   vertex 58.286526 788.331848 -42.941006
  endloop
 endfacet
 facet normal -0.823799 0.224123 0.520696
  outer loop
   vertex 55.496086 783.671021 -45.349636
   vertex 58.297829 788.310913 -42.914112
   vertex 55.484783 783.691956 -45.376530
  endloop
 endfacet
 facet normal -0.589302 0.624740 -0.512273
  outer loop
   vertex 55.093575 783.671021 -44.886600
   vertex 58.297829 788.310913 -42.914112
   vertex 55.496086 783.671021 -45.349636
  endloop
 endfacet
 facet normal 0.471513 0.780804 0.409903
  outer loop
   vertex 55.806213 787.934570 -37.425320
   vertex 58.654095 787.934631 -40.701363
   vertex 55.034924 788.752319 -38.095791
  endloop
 endfacet
 facet normal 0.471513 0.780803 0.409904
  outer loop
   vertex 55.034924 788.752319 -38.095791
   vertex 58.654095 787.934631 -40.701363
   vertex 57.882843 788.752380 -41.371876
  endloop
 endfacet
 facet normal -0.589293 0.624755 -0.512264
  outer loop
   vertex 57.882843 788.752380 -41.371876
   vertex 54.878986 788.494080 -38.231354
   vertex 55.034924 788.752319 -38.095791
  endloop
 endfacet
 facet normal -0.589293 0.624755 -0.512264
  outer loop
   vertex 57.726906 788.494141 -41.507439
   vertex 54.878986 788.494080 -38.231354
   vertex 57.882843 788.752380 -41.371876
  endloop
 endfacet
 facet normal -0.471512 -0.780805 -0.409903
  outer loop
   vertex 55.650280 787.676331 -37.560883
   vertex 54.878986 788.494080 -38.231354
   vertex 57.726906 788.494141 -41.507439
  endloop
 endfacet
 facet normal -0.471512 -0.780805 -0.409903
  outer loop
   vertex 57.726906 788.494141 -41.507439
   vertex 58.498199 787.676392 -40.836967
   vertex 55.650280 787.676331 -37.560883
  endloop
 endfacet
 facet normal -0.589298 0.624739 -0.512277
  outer loop
   vertex 55.065369 783.691956 -44.894047
   vertex 55.019039 783.691956 -44.840752
   vertex 57.820782 788.331848 -42.405231
  endloop
 endfacet
 facet normal -0.656058 -0.000002 0.754711
  outer loop
   vertex 57.820782 788.331848 -42.405231
   vertex 55.019039 783.691956 -44.840752
   vertex 55.944237 782.711121 -44.036495
  endloop
 endfacet
 facet normal -0.656059 -0.000001 0.754710
  outer loop
   vertex 55.944237 782.711121 -44.036495
   vertex 58.745979 787.351013 -41.600971
   vertex 57.820782 788.331848 -42.405231
  endloop
 endfacet
 facet normal 0.589319 -0.624740 0.512253
  outer loop
   vertex 55.990562 782.711121 -44.089790
   vertex 58.745979 787.351013 -41.600971
   vertex 55.944237 782.711121 -44.036495
  endloop
 endfacet
 facet normal 0.589298 -0.624740 0.512277
  outer loop
   vertex 58.792309 787.351013 -41.654266
   vertex 58.745979 787.351013 -41.600971
   vertex 55.990562 782.711121 -44.089790
  endloop
 endfacet
 facet normal 0.823826 -0.224174 -0.520630
  outer loop
   vertex 55.990562 782.711121 -44.089790
   vertex 55.979263 782.732056 -44.116684
   vertex 58.792309 787.351013 -41.654266
  endloop
 endfacet
 facet normal 0.823799 -0.224123 -0.520696
  outer loop
   vertex 58.792309 787.351013 -41.654266
   vertex 55.979263 782.732056 -44.116684
   vertex 58.781006 787.371948 -41.681160
  endloop
 endfacet
 facet normal 0.589302 -0.624740 0.512273
  outer loop
   vertex 58.781006 787.371948 -41.681160
   vertex 55.979263 782.732056 -44.116684
   vertex 56.381775 782.732056 -44.579720
  endloop
 endfacet
 facet normal 0.589302 -0.624740 0.512273
  outer loop
   vertex 56.381775 782.732056 -44.579720
   vertex 59.183517 787.371948 -42.144196
   vertex 58.781006 787.371948 -41.681160
  endloop
 endfacet
 facet normal -0.401004 -0.224105 0.888241
  outer loop
   vertex 56.409977 782.711121 -44.572269
   vertex 59.183517 787.371948 -42.144196
   vertex 56.381775 782.732056 -44.579720
  endloop
 endfacet
 facet normal -0.400971 -0.224130 0.888250
  outer loop
   vertex 59.211723 787.351013 -42.136745
   vertex 59.183517 787.371948 -42.144196
   vertex 56.409977 782.711121 -44.572269
  endloop
 endfacet
 facet normal 0.589297 -0.624740 0.512278
  outer loop
   vertex 56.409977 782.711121 -44.572269
   vertex 56.503349 782.711121 -44.679680
   vertex 59.211723 787.351013 -42.136745
  endloop
 endfacet
 facet normal 0.589307 -0.624740 0.512267
  outer loop
   vertex 59.211723 787.351013 -42.136745
   vertex 56.503349 782.711121 -44.679680
   vertex 59.305092 787.351013 -42.244156
  endloop
 endfacet
 facet normal 0.656065 -0.000005 -0.754704
  outer loop
   vertex 59.305092 787.351013 -42.244156
   vertex 56.503349 782.711121 -44.679680
   vertex 59.240498 787.419495 -42.300308
  endloop
 endfacet
 facet normal 0.471556 0.780771 0.409916
  outer loop
   vertex 59.285183 789.245422 -39.828613
   vertex 59.089359 789.453064 -39.998840
   vertex 56.401947 789.453064 -36.907322
  endloop
 endfacet
 facet normal -0.589318 0.624714 -0.512286
  outer loop
   vertex 56.401947 789.453064 -36.907322
   vertex 59.089359 789.453064 -39.998840
   vertex 57.709518 789.231628 -38.681545
  endloop
 endfacet
 facet normal -0.589304 0.624734 -0.512278
  outer loop
   vertex 57.709518 789.231628 -38.681545
   vertex 56.778511 788.883240 -38.035419
   vertex 56.401947 789.453064 -36.907322
  endloop
 endfacet
 facet normal -0.589304 0.624733 -0.512279
  outer loop
   vertex 57.155079 788.313416 -39.163517
   vertex 56.778511 788.883240 -38.035419
   vertex 57.709518 789.231628 -38.681545
  endloop
 endfacet
 facet normal -0.589309 0.624729 -0.512279
  outer loop
   vertex 55.456375 787.887085 -37.729298
   vertex 56.778511 788.883240 -38.035419
   vertex 57.155079 788.313416 -39.163517
  endloop
 endfacet
 facet normal -0.589307 0.624732 -0.512276
  outer loop
   vertex 57.155079 788.313416 -39.163517
   vertex 58.318111 787.887085 -41.021355
   vertex 55.456375 787.887085 -37.729298
  endloop
 endfacet
 facet normal -0.471471 -0.780861 -0.409843
  outer loop
   vertex 55.456375 787.887085 -37.729298
   vertex 58.318111 787.887085 -41.021355
   vertex 58.513935 787.679504 -40.851128
  endloop
 endfacet
 facet normal 0.656060 0.000001 -0.754709
  outer loop
   vertex 58.513935 787.679504 -40.851128
   vertex 58.318111 787.887085 -41.021355
   vertex 59.357830 789.077087 -40.117538
  endloop
 endfacet
 facet normal 0.589307 -0.624732 0.512277
  outer loop
   vertex 59.357830 789.077087 -40.117538
   vertex 58.550171 788.105835 -40.372894
   vertex 58.513935 787.679504 -40.851128
  endloop
 endfacet
 facet normal 0.589309 -0.624733 0.512273
  outer loop
   vertex 59.104610 789.024048 -39.890923
   vertex 58.550171 788.105835 -40.372894
   vertex 59.357830 789.077087 -40.117538
  endloop
 endfacet
 facet normal -0.656056 -0.000008 0.754713
  outer loop
   vertex 58.354347 788.313416 -40.543118
   vertex 58.550171 788.105835 -40.372894
   vertex 59.104610 789.024048 -39.890923
  endloop
 endfacet
 facet normal -0.656063 0.000006 0.754706
  outer loop
   vertex 59.104610 789.024048 -39.890923
   vertex 58.908791 789.231628 -40.061150
   vertex 58.354347 788.313416 -40.543118
  endloop
 endfacet
 facet normal -0.589314 0.624733 -0.512268
  outer loop
   vertex 58.354347 788.313416 -40.543118
   vertex 58.908791 789.231628 -40.061150
   vertex 59.162006 789.284668 -40.287766
  endloop
 endfacet
 facet normal -0.589323 0.624711 -0.512283
  outer loop
   vertex 59.162006 789.284668 -40.287766
   vertex 58.908791 789.231628 -40.061150
   vertex 59.089359 789.453064 -39.998840
  endloop
 endfacet
 facet normal 0.779507 0.606301 -0.157376
  outer loop
   vertex 59.089359 789.453064 -39.998840
   vertex 59.357830 789.077087 -40.117538
   vertex 59.162006 789.284668 -40.287766
  endloop
 endfacet
 facet normal 0.779550 0.606285 -0.157227
  outer loop
   vertex 59.285183 789.245422 -39.828613
   vertex 59.357830 789.077087 -40.117538
   vertex 59.089359 789.453064 -39.998840
  endloop
 endfacet
 facet normal 0.589268 -0.624827 0.512205
  outer loop
   vertex 59.104610 789.024048 -39.890923
   vertex 59.357830 789.077087 -40.117538
   vertex 59.285183 789.245422 -39.828613
  endloop
 endfacet
 facet normal 0.589253 -0.624821 0.512230
  outer loop
   vertex 59.285183 789.245422 -39.828613
   vertex 57.905342 789.024048 -38.511322
   vertex 59.104610 789.024048 -39.890923
  endloop
 endfacet
 facet normal -0.471474 -0.780858 -0.409846
  outer loop
   vertex 59.104610 789.024048 -39.890923
   vertex 57.905342 789.024048 -38.511322
   vertex 57.709518 789.231628 -38.681545
  endloop
 endfacet
 facet normal 0.656054 0.000006 -0.754714
  outer loop
   vertex 57.709518 789.231628 -38.681545
   vertex 57.905342 789.024048 -38.511322
   vertex 57.350903 788.105835 -38.993290
  endloop
 endfacet
 facet normal 0.656061 0.000002 -0.754708
  outer loop
   vertex 57.350903 788.105835 -38.993290
   vertex 57.155079 788.313416 -39.163517
   vertex 57.709518 789.231628 -38.681545
  endloop
 endfacet
 facet normal 0.471471 0.780861 0.409843
  outer loop
   vertex 58.550171 788.105835 -40.372894
   vertex 57.155079 788.313416 -39.163517
   vertex 57.350903 788.105835 -38.993290
  endloop
 endfacet
 facet normal 0.471474 0.780858 0.409846
  outer loop
   vertex 58.354347 788.313416 -40.543118
   vertex 57.155079 788.313416 -39.163517
   vertex 58.550171 788.105835 -40.372894
  endloop
 endfacet
 facet normal -0.471471 -0.780861 -0.409843
  outer loop
   vertex 54.609230 782.111206 -43.798706
   vertex 54.805054 781.903625 -43.628479
   vertex 53.409958 782.111206 -42.419102
  endloop
 endfacet
 facet normal -0.471473 -0.780858 -0.409846
  outer loop
   vertex 53.409958 782.111206 -42.419102
   vertex 54.805054 781.903625 -43.628479
   vertex 53.605782 781.903625 -42.248878
  endloop
 endfacet
 facet normal 0.656056 0.000008 -0.754713
  outer loop
   vertex 53.605782 781.903625 -42.248878
   vertex 52.855518 781.193054 -42.901073
   vertex 53.409958 782.111206 -42.419102
  endloop
 endfacet
 facet normal 0.656060 0.000000 -0.754709
  outer loop
   vertex 53.051342 780.985413 -42.730846
   vertex 52.855518 781.193054 -42.901073
   vertex 53.605782 781.903625 -42.248878
  endloop
 endfacet
 facet normal 0.471556 0.780771 0.409916
  outer loop
   vertex 54.250610 780.985413 -44.110451
   vertex 52.855518 781.193054 -42.901073
   vertex 53.051342 780.985413 -42.730846
  endloop
 endfacet
 facet normal 0.589320 -0.624711 0.512287
  outer loop
   vertex 53.051342 780.985413 -42.730846
   vertex 54.163776 780.763977 -44.280590
   vertex 54.250610 780.985413 -44.110451
  endloop
 endfacet
 facet normal 0.589315 -0.624712 0.512292
  outer loop
   vertex 54.250610 780.985413 -44.110451
   vertex 54.163776 780.763977 -44.280590
   vertex 54.439781 780.932373 -44.392742
  endloop
 endfacet
 facet normal 0.047289 -0.606234 -0.793879
  outer loop
   vertex 54.439781 780.932373 -44.392742
   vertex 54.163776 780.763977 -44.280590
   vertex 53.967953 780.971619 -44.450817
  endloop
 endfacet
 facet normal 0.047289 -0.606234 -0.793879
  outer loop
   vertex 53.967953 780.971619 -44.450817
   vertex 54.243958 781.140015 -44.562969
   vertex 54.439781 780.932373 -44.392742
  endloop
 endfacet
 facet normal -0.589315 0.624717 -0.512286
  outer loop
   vertex 54.054787 781.193054 -44.280674
   vertex 54.243958 781.140015 -44.562969
   vertex 53.967953 780.971619 -44.450817
  endloop
 endfacet
 facet normal -0.589283 0.624758 -0.512272
  outer loop
   vertex 54.609230 782.111206 -43.798706
   vertex 54.243958 781.140015 -44.562969
   vertex 54.054787 781.193054 -44.280674
  endloop
 endfacet
 facet normal -0.656053 -0.000004 0.754714
  outer loop
   vertex 54.054787 781.193054 -44.280674
   vertex 54.250610 780.985413 -44.110451
   vertex 54.609230 782.111206 -43.798706
  endloop
 endfacet
 facet normal -0.656060 -0.000001 0.754709
  outer loop
   vertex 54.609230 782.111206 -43.798706
   vertex 54.250610 780.985413 -44.110451
   vertex 54.805054 781.903625 -43.628479
  endloop
 endfacet
 facet normal 0.589298 -0.624734 0.512285
  outer loop
   vertex 54.805054 781.903625 -43.628479
   vertex 54.250610 780.985413 -44.110451
   vertex 54.439781 780.932373 -44.392742
  endloop
 endfacet
 facet normal 0.589307 -0.624732 0.512277
  outer loop
   vertex 54.439781 780.932373 -44.392742
   vertex 55.283676 782.329956 -43.659153
   vertex 54.805054 781.903625 -43.628479
  endloop
 endfacet
 facet normal 0.656060 0.000001 -0.754709
  outer loop
   vertex 55.087852 782.537537 -43.829380
   vertex 55.283676 782.329956 -43.659153
   vertex 54.439781 780.932373 -44.392742
  endloop
 endfacet
 facet normal 0.471471 0.780861 0.409843
  outer loop
   vertex 52.226116 782.537537 -40.537323
   vertex 55.283676 782.329956 -43.659153
   vertex 55.087852 782.537537 -43.829380
  endloop
 endfacet
 facet normal -0.589306 0.624734 -0.512275
  outer loop
   vertex 55.087852 782.537537 -43.829380
   vertex 53.409958 782.111206 -42.419102
   vertex 52.226116 782.537537 -40.537323
  endloop
 endfacet
 facet normal -0.589308 0.624731 -0.512276
  outer loop
   vertex 52.226116 782.537537 -40.537323
   vertex 53.409958 782.111206 -42.419102
   vertex 52.345249 781.541382 -41.889202
  endloop
 endfacet
 facet normal -0.589307 0.624758 -0.512245
  outer loop
   vertex 52.345249 781.541382 -41.889202
   vertex 53.409958 782.111206 -42.419102
   vertex 52.855518 781.193054 -42.901073
  endloop
 endfacet
 facet normal -0.589283 0.624783 -0.512241
  outer loop
   vertex 52.855518 781.193054 -42.901073
   vertex 51.280540 780.971619 -41.359303
   vertex 52.345249 781.541382 -41.889202
  endloop
 endfacet
 facet normal -0.589316 0.624716 -0.512285
  outer loop
   vertex 53.967953 780.971619 -44.450817
   vertex 51.280540 780.971619 -41.359303
   vertex 52.855518 781.193054 -42.901073
  endloop
 endfacet
 facet normal -0.471555 -0.780771 -0.409917
  outer loop
   vertex 54.163776 780.763977 -44.280590
   vertex 51.280540 780.971619 -41.359303
   vertex 53.967953 780.971619 -44.450817
  endloop
 endfacet
 facet normal -0.486043 0.617916 -0.618015
  outer loop
   vertex 55.940456 782.127991 -45.116608
   vertex 56.486786 783.032715 -44.641693
   vertex 56.013870 782.118774 -45.183559
  endloop
 endfacet
 facet normal -0.486318 0.617925 -0.617789
  outer loop
   vertex 56.013870 782.118774 -45.183559
   vertex 56.486786 783.032715 -44.641693
   vertex 56.560200 783.023560 -44.708641
  endloop
 endfacet
 facet normal 0.656049 0.000011 -0.754718
  outer loop
   vertex 56.560200 783.023560 -44.708641
   vertex 56.653881 782.924255 -44.627209
   vertex 56.013870 782.118774 -45.183559
  endloop
 endfacet
 facet normal 0.471303 0.780860 0.410038
  outer loop
   vertex 56.486786 783.032715 -44.641693
   vertex 56.653881 782.924255 -44.627209
   vertex 56.560200 783.023560 -44.708641
  endloop
 endfacet
 facet normal 0.471333 0.780892 0.409942
  outer loop
   vertex 56.637112 782.884216 -44.531658
   vertex 56.653881 782.924255 -44.627209
   vertex 56.486786 783.032715 -44.641693
  endloop
 endfacet
 facet normal 0.471436 0.780899 0.409810
  outer loop
   vertex 56.486786 783.032715 -44.641693
   vertex 56.084957 782.884216 -43.896473
   vertex 56.637112 782.884216 -44.531658
  endloop
 endfacet
 facet normal 0.589310 -0.624730 0.512276
  outer loop
   vertex 56.637112 782.884216 -44.531658
   vertex 56.084957 782.884216 -43.896473
   vertex 56.090782 781.979431 -45.006577
  endloop
 endfacet
 facet normal 0.589310 -0.624730 0.512276
  outer loop
   vertex 56.090782 781.979431 -45.006577
   vertex 56.084957 782.884216 -43.896473
   vertex 55.538628 781.979431 -44.371391
  endloop
 endfacet
 facet normal -0.471558 -0.780770 -0.409916
  outer loop
   vertex 55.538628 781.979431 -44.371391
   vertex 55.940456 782.127991 -45.116608
   vertex 56.090782 781.979431 -45.006577
  endloop
 endfacet
 facet normal -0.471473 -0.780838 -0.409884
  outer loop
   vertex 54.558601 783.018372 -45.223312
   vertex 55.940456 782.127991 -45.116608
   vertex 55.538628 781.979431 -44.371391
  endloop
 endfacet
 facet normal -0.471474 -0.780840 -0.409880
  outer loop
   vertex 55.240643 782.869873 -45.724949
   vertex 55.940456 782.127991 -45.116608
   vertex 54.558601 783.018372 -45.223312
  endloop
 endfacet
 facet normal -0.471438 -0.780896 -0.409815
  outer loop
   vertex 54.558601 783.018372 -45.223312
   vertex 55.110760 783.018372 -45.858498
   vertex 55.240643 782.869873 -45.724949
  endloop
 endfacet
 facet normal -0.471161 -0.780912 -0.410102
  outer loop
   vertex 55.240643 782.869873 -45.724949
   vertex 55.110760 783.018372 -45.858498
   vertex 55.203045 782.978394 -45.888397
  endloop
 endfacet
 facet normal -0.066336 0.494874 -0.866429
  outer loop
   vertex 55.203045 782.978394 -45.888397
   vertex 55.110760 783.018372 -45.858498
   vertex 55.749374 783.883118 -45.413479
  endloop
 endfacet
 facet normal 0.656049 0.000011 -0.754718
  outer loop
   vertex 55.749374 783.883118 -45.413479
   vertex 55.296726 782.879028 -45.806965
   vertex 55.203045 782.978394 -45.888397
  endloop
 endfacet
 facet normal 0.656049 0.000011 -0.754718
  outer loop
   vertex 55.843056 783.783813 -45.332047
   vertex 55.296726 782.879028 -45.806965
   vertex 55.749374 783.883118 -45.413479
  endloop
 endfacet
 facet normal 0.679441 -0.617928 0.395633
  outer loop
   vertex 55.240643 782.869873 -45.724949
   vertex 55.296726 782.879028 -45.806965
   vertex 55.843056 783.783813 -45.332047
  endloop
 endfacet
 facet normal 0.679441 -0.617928 0.395633
  outer loop
   vertex 55.843056 783.783813 -45.332047
   vertex 55.786972 783.774658 -45.250031
   vertex 55.240643 782.869873 -45.724949
  endloop
 endfacet
 facet normal 0.656059 0.000001 -0.754710
  outer loop
   vertex 55.240643 782.869873 -45.724949
   vertex 55.786972 783.774658 -45.250031
   vertex 56.486786 783.032715 -44.641693
  endloop
 endfacet
 facet normal 0.471490 0.780814 0.409911
  outer loop
   vertex 56.486786 783.032715 -44.641693
   vertex 55.786972 783.774658 -45.250031
   vertex 55.104931 783.923157 -44.748394
  endloop
 endfacet
 facet normal 0.471512 0.780838 0.409839
  outer loop
   vertex 55.104931 783.923157 -44.748394
   vertex 56.084957 782.884216 -43.896473
   vertex 56.486786 783.032715 -44.641693
  endloop
 endfacet
 facet normal 0.471483 0.780838 0.409872
  outer loop
   vertex 55.454483 783.041199 -43.470291
   vertex 56.084957 782.884216 -43.896473
   vertex 55.104931 783.923157 -44.748394
  endloop
 endfacet
 facet normal 0.345469 -0.591158 0.728823
  outer loop
   vertex 55.538628 781.979431 -44.371391
   vertex 56.084957 782.884216 -43.896473
   vertex 55.454483 783.041199 -43.470291
  endloop
 endfacet
 facet normal 0.345473 -0.591157 0.728822
  outer loop
   vertex 55.454483 783.041199 -43.470291
   vertex 54.908154 782.136414 -43.945206
   vertex 55.538628 781.979431 -44.371391
  endloop
 endfacet
 facet normal -0.471490 -0.780829 -0.409882
  outer loop
   vertex 55.538628 781.979431 -44.371391
   vertex 54.908154 782.136414 -43.945206
   vertex 54.224312 782.861389 -44.539661
  endloop
 endfacet
 facet normal -0.656059 0.000002 0.754710
  outer loop
   vertex 54.224312 782.861389 -44.539661
   vertex 54.908154 782.136414 -43.945206
   vertex 55.454483 783.041199 -43.470291
  endloop
 endfacet
 facet normal -0.656058 -0.000002 0.754710
  outer loop
   vertex 55.454483 783.041199 -43.470291
   vertex 54.770641 783.766174 -44.064743
   vertex 54.224312 782.861389 -44.539661
  endloop
 endfacet
 facet normal 0.471514 0.780828 0.409856
  outer loop
   vertex 55.104931 783.923157 -44.748394
   vertex 54.770641 783.766174 -44.064743
   vertex 55.454483 783.041199 -43.470291
  endloop
 endfacet
 facet normal -0.769810 0.591158 -0.240675
  outer loop
   vertex 54.224312 782.861389 -44.539661
   vertex 54.770641 783.766174 -44.064743
   vertex 55.104931 783.923157 -44.748394
  endloop
 endfacet
 facet normal -0.769810 0.591158 -0.240675
  outer loop
   vertex 55.104931 783.923157 -44.748394
   vertex 54.558601 783.018372 -45.223312
   vertex 54.224312 782.861389 -44.539661
  endloop
 endfacet
 facet normal -0.471501 -0.780838 -0.409852
  outer loop
   vertex 54.224312 782.861389 -44.539661
   vertex 54.558601 783.018372 -45.223312
   vertex 55.538628 781.979431 -44.371391
  endloop
 endfacet
 facet normal 0.471501 0.780838 0.409852
  outer loop
   vertex 59.188896 788.024597 -41.198257
   vertex 58.208870 789.063538 -42.050175
   vertex 57.874580 788.906555 -41.366524
  endloop
 endfacet
 facet normal -0.769810 0.591158 -0.240675
  outer loop
   vertex 57.874580 788.906555 -41.366524
   vertex 58.208870 789.063538 -42.050175
   vertex 57.662540 788.158752 -42.525093
  endloop
 endfacet
 facet normal -0.769810 0.591158 -0.240675
  outer loop
   vertex 57.662540 788.158752 -42.525093
   vertex 57.328251 788.001770 -41.841442
   vertex 57.874580 788.906555 -41.366524
  endloop
 endfacet
 facet normal -0.471514 -0.780828 -0.409856
  outer loop
   vertex 58.012093 787.276794 -41.246990
   vertex 57.328251 788.001770 -41.841442
   vertex 57.662540 788.158752 -42.525093
  endloop
 endfacet
 facet normal -0.656058 -0.000002 0.754710
  outer loop
   vertex 57.874580 788.906555 -41.366524
   vertex 57.328251 788.001770 -41.841442
   vertex 58.012093 787.276794 -41.246990
  endloop
 endfacet
 facet normal -0.656058 -0.000002 0.754710
  outer loop
   vertex 58.012093 787.276794 -41.246990
   vertex 58.558422 788.181580 -40.772072
   vertex 57.874580 788.906555 -41.366524
  endloop
 endfacet
 facet normal 0.471491 0.780828 0.409884
  outer loop
   vertex 57.874580 788.906555 -41.366524
   vertex 58.558422 788.181580 -40.772072
   vertex 59.188896 788.024597 -41.198257
  endloop
 endfacet
 facet normal 0.345472 -0.591159 0.728821
  outer loop
   vertex 59.188896 788.024597 -41.198257
   vertex 58.558422 788.181580 -40.772072
   vertex 58.012093 787.276794 -41.246990
  endloop
 endfacet
 facet normal 0.345471 -0.591157 0.728824
  outer loop
   vertex 58.012093 787.276794 -41.246990
   vertex 58.642567 787.119812 -41.673172
   vertex 59.188896 788.024597 -41.198257
  endloop
 endfacet
 facet normal -0.471483 -0.780838 -0.409872
  outer loop
   vertex 57.662540 788.158752 -42.525093
   vertex 58.642567 787.119812 -41.673172
   vertex 58.012093 787.276794 -41.246990
  endloop
 endfacet
 facet normal -0.471512 -0.780838 -0.409839
  outer loop
   vertex 59.044395 787.268311 -42.418392
   vertex 58.642567 787.119812 -41.673172
   vertex 57.662540 788.158752 -42.525093
  endloop
 endfacet
 facet normal -0.471490 -0.780814 -0.409911
  outer loop
   vertex 57.662540 788.158752 -42.525093
   vertex 58.344582 788.010254 -43.026730
   vertex 59.044395 787.268311 -42.418392
  endloop
 endfacet
 facet normal 0.656059 0.000001 -0.754710
  outer loop
   vertex 59.044395 787.268311 -42.418392
   vertex 58.344582 788.010254 -43.026730
   vertex 58.890911 788.914978 -42.551811
  endloop
 endfacet
 facet normal 0.679425 -0.617953 0.395620
  outer loop
   vertex 58.890911 788.914978 -42.551811
   vertex 58.344582 788.010254 -43.026730
   vertex 58.400665 788.019409 -43.108746
  endloop
 endfacet
 facet normal 0.679653 -0.617893 0.395322
  outer loop
   vertex 58.400665 788.019409 -43.108746
   vertex 58.946995 788.924194 -42.633827
   vertex 58.890911 788.914978 -42.551811
  endloop
 endfacet
 facet normal 0.656060 0.000000 -0.754709
  outer loop
   vertex 58.306984 788.118713 -43.190182
   vertex 58.946995 788.924194 -42.633827
   vertex 58.400665 788.019409 -43.108746
  endloop
 endfacet
 facet normal 0.656060 0.000000 -0.754709
  outer loop
   vertex 58.853313 789.023499 -42.715263
   vertex 58.946995 788.924194 -42.633827
   vertex 58.306984 788.118713 -43.190182
  endloop
 endfacet
 facet normal -0.066123 0.494756 -0.866513
  outer loop
   vertex 58.306984 788.118713 -43.190182
   vertex 58.761028 789.063538 -42.685360
   vertex 58.853313 789.023499 -42.715263
  endloop
 endfacet
 facet normal 0.471569 0.780770 0.409904
  outer loop
   vertex 58.853313 789.023499 -42.715263
   vertex 58.761028 789.063538 -42.685360
   vertex 58.890911 788.914978 -42.551811
  endloop
 endfacet
 facet normal 0.471556 0.780771 0.409917
  outer loop
   vertex 58.890911 788.914978 -42.551811
   vertex 58.761028 789.063538 -42.685360
   vertex 58.208870 789.063538 -42.050175
  endloop
 endfacet
 facet normal 0.471512 0.780839 0.409838
  outer loop
   vertex 58.208870 789.063538 -42.050175
   vertex 59.590725 788.173096 -41.943474
   vertex 58.890911 788.914978 -42.551811
  endloop
 endfacet
 facet normal 0.471511 0.780838 0.409841
  outer loop
   vertex 59.188896 788.024597 -41.198257
   vertex 59.590725 788.173096 -41.943474
   vertex 58.208870 789.063538 -42.050175
  endloop
 endfacet
 facet normal 0.471429 0.780904 0.409810
  outer loop
   vertex 59.741055 788.024597 -41.833439
   vertex 59.590725 788.173096 -41.943474
   vertex 59.188896 788.024597 -41.198257
  endloop
 endfacet
 facet normal 0.589307 -0.624729 0.512280
  outer loop
   vertex 59.188896 788.024597 -41.198257
   vertex 58.642567 787.119812 -41.673172
   vertex 59.741055 788.024597 -41.833439
  endloop
 endfacet
 facet normal 0.589308 -0.624730 0.512278
  outer loop
   vertex 59.741055 788.024597 -41.833439
   vertex 58.642567 787.119812 -41.673172
   vertex 59.194725 787.119812 -42.308357
  endloop
 endfacet
 facet normal -0.471430 -0.780904 -0.409808
  outer loop
   vertex 59.194725 787.119812 -42.308357
   vertex 58.642567 787.119812 -41.673172
   vertex 59.044395 787.268311 -42.418392
  endloop
 endfacet
 facet normal -0.471338 -0.780898 -0.409926
  outer loop
   vertex 59.044395 787.268311 -42.418392
   vertex 59.211491 787.159851 -42.403908
   vertex 59.194725 787.119812 -42.308357
  endloop
 endfacet
 facet normal -0.471303 -0.780860 -0.410038
  outer loop
   vertex 59.117809 787.259155 -42.485340
   vertex 59.211491 787.159851 -42.403908
   vertex 59.044395 787.268311 -42.418392
  endloop
 endfacet
 facet normal 0.656048 0.000009 -0.754719
  outer loop
   vertex 59.664139 788.163940 -42.010426
   vertex 59.211491 787.159851 -42.403908
   vertex 59.117809 787.259155 -42.485340
  endloop
 endfacet
 facet normal -0.486319 0.617923 -0.617790
  outer loop
   vertex 59.117809 787.259155 -42.485340
   vertex 59.044395 787.268311 -42.418392
   vertex 59.664139 788.163940 -42.010426
  endloop
 endfacet
 facet normal -0.486335 0.617927 -0.617774
  outer loop
   vertex 59.664139 788.163940 -42.010426
   vertex 59.044395 787.268311 -42.418392
   vertex 59.590725 788.173096 -41.943474
  endloop
 endfacet
 facet normal 0.656059 0.000001 -0.754710
  outer loop
   vertex 59.590725 788.173096 -41.943474
   vertex 59.044395 787.268311 -42.418392
   vertex 58.890911 788.914978 -42.551811
  endloop
 endfacet
 facet normal 0.589309 -0.624731 0.512275
  outer loop
   vertex 53.605782 781.903625 -42.248878
   vertex 51.476364 780.763977 -41.189075
   vertex 53.051342 780.985413 -42.730846
  endloop
 endfacet
 facet normal 0.589316 -0.624716 0.512285
  outer loop
   vertex 53.051342 780.985413 -42.730846
   vertex 51.476364 780.763977 -41.189075
   vertex 54.163776 780.763977 -44.280590
  endloop
 endfacet
 facet normal 0.471675 0.780920 0.409496
  outer loop
   vertex 59.741055 788.024597 -41.833439
   vertex 59.757820 788.064575 -41.928989
   vertex 59.590725 788.173096 -41.943474
  endloop
 endfacet
 facet normal 0.471456 0.780679 0.410207
  outer loop
   vertex 59.590725 788.173096 -41.943474
   vertex 59.757820 788.064575 -41.928989
   vertex 59.664139 788.163940 -42.010426
  endloop
 endfacet
 facet normal -0.471549 -0.780769 -0.409928
  outer loop
   vertex 56.090782 781.979431 -45.006577
   vertex 55.940456 782.127991 -45.116608
   vertex 56.107552 782.019470 -45.102127
  endloop
 endfacet
 facet normal -0.471630 -0.780860 -0.409662
  outer loop
   vertex 56.107552 782.019470 -45.102127
   vertex 55.940456 782.127991 -45.116608
   vertex 56.013870 782.118774 -45.183559
  endloop
 endfacet
 facet normal 0.471300 0.780866 0.410029
  outer loop
   vertex 58.853313 789.023499 -42.715263
   vertex 58.890911 788.914978 -42.551811
   vertex 58.946995 788.924194 -42.633827
  endloop
 endfacet
 facet normal -0.471830 -0.780673 -0.409789
  outer loop
   vertex 55.203045 782.978394 -45.888397
   vertex 55.296726 782.879028 -45.806965
   vertex 55.240643 782.869873 -45.724949
  endloop
 endfacet
 facet normal -0.589309 0.624730 -0.512277
  outer loop
   vertex 56.401947 789.453064 -36.907322
   vertex 56.778511 788.883240 -38.035419
   vertex 55.456375 787.887085 -37.729298
  endloop
 endfacet
 facet normal 0.656059 -0.000002 -0.754709
  outer loop
   vertex 55.240643 782.869873 -45.724949
   vertex 56.486786 783.032715 -44.641693
   vertex 55.940456 782.127991 -45.116608
  endloop
 endfacet
 facet normal 0.656071 -0.000043 -0.754699
  outer loop
   vertex 54.344486 782.892578 -44.447727
   vertex 54.500423 783.150818 -44.312183
   vertex 55.115788 782.074890 -43.777176
  endloop
 endfacet
 facet normal 0.656094 -0.000011 -0.754679
  outer loop
   vertex 57.882843 788.752380 -41.371876
   vertex 58.654095 787.934631 -40.701363
   vertex 57.726906 788.494141 -41.507439
  endloop
 endfacet
 facet normal -0.589298 0.624739 -0.512277
  outer loop
   vertex 57.820782 788.331848 -42.405231
   vertex 57.867111 788.331848 -42.458527
   vertex 55.065369 783.691956 -44.894047
  endloop
 endfacet
 facet normal 0.471507 0.780836 0.409850
  outer loop
   vertex 54.500423 783.150818 -44.312183
   vertex 52.423889 782.333191 -40.365543
   vertex 55.271736 782.333130 -43.641693
  endloop
 endfacet
 facet normal 0.589308 -0.624731 0.512277
  outer loop
   vertex 58.513935 787.679504 -40.851128
   vertex 58.550171 788.105835 -40.372894
   vertex 57.350903 788.105835 -38.993290
  endloop
 endfacet
endsolid