solid stl file generated from DOUG
 facet normal -0.166530 -0.392495 -0.904553
  outer loop
   vertex -54.040573 882.612488 -41.527542
   vertex -54.692776 881.778259 -41.045490
   vertex -54.130661 882.665894 -41.534130
  endloop
 endfacet
 facet normal -0.656059 -0.000000 -0.754709
  outer loop
   vertex -54.130661 882.665894 -41.534130
   vertex -54.692776 881.778259 -41.045490
   vertex -55.179356 882.319275 -40.622513
  endloop
 endfacet
 facet normal -0.485112 -0.766050 0.421704
  outer loop
   vertex -50.318584 889.897522 -42.650166
   vertex -51.593426 891.072510 -41.982258
   vertex -50.536591 889.897522 -42.900951
  endloop
 endfacet
 facet normal -0.656059 0.000000 -0.754709
  outer loop
   vertex -50.536591 889.897522 -42.900951
   vertex -51.593426 891.072510 -41.982258
   vertex -50.357723 890.068787 -43.056438
  endloop
 endfacet
 facet normal -0.656057 0.000004 -0.754711
  outer loop
   vertex -55.627094 881.747986 -38.475849
   vertex -56.587666 883.186157 -37.640835
   vertex -55.530830 882.011169 -38.559528
  endloop
 endfacet
 facet normal 0.485112 0.766050 -0.421704
  outer loop
   vertex -55.530830 882.011169 -38.559528
   vertex -56.587666 883.186157 -37.640835
   vertex -55.312824 882.011169 -38.308743
  endloop
 endfacet
 facet normal 0.578145 -0.642789 -0.502564
  outer loop
   vertex -53.181885 882.452209 -40.217003
   vertex -53.253796 882.452209 -40.299728
   vertex -50.371105 887.004211 -42.805611
  endloop
 endfacet
 facet normal -0.184568 -0.381692 -0.905674
  outer loop
   vertex -50.371105 887.004211 -42.805611
   vertex -53.253796 882.452209 -40.299728
   vertex -50.495281 887.079346 -42.811970
  endloop
 endfacet
 facet normal -0.656059 -0.000000 -0.754709
  outer loop
   vertex -51.423626 888.249878 -43.887318
   vertex -51.499157 886.821289 -43.821659
   vertex -51.985737 887.362244 -43.398682
  endloop
 endfacet
 facet normal -0.485114 -0.766064 0.421676
  outer loop
   vertex -51.985737 887.362244 -43.398682
   vertex -51.499157 886.821289 -43.821659
   vertex -51.352192 886.831299 -43.634399
  endloop
 endfacet
 facet normal 0.304068 -0.599938 -0.740012
  outer loop
   vertex -54.663769 882.954590 -41.009068
   vertex -51.781078 887.506592 -43.514950
   vertex -54.634331 882.946289 -40.990242
  endloop
 endfacet
 facet normal 0.304843 -0.600150 -0.739521
  outer loop
   vertex -54.634331 882.946289 -40.990242
   vertex -51.781078 887.506592 -43.514950
   vertex -51.751640 887.498352 -43.496128
  endloop
 endfacet
 facet normal -0.656060 0.000001 -0.754709
  outer loop
   vertex -51.751640 887.498352 -43.496128
   vertex -51.396935 887.103943 -43.804470
   vertex -54.634331 882.946289 -40.990242
  endloop
 endfacet
 facet normal -0.656059 0.000000 -0.754710
  outer loop
   vertex -57.006268 884.234009 -37.276947
   vertex -57.995331 884.381042 -36.417168
   vertex -57.022438 885.917358 -37.262890
  endloop
 endfacet
 facet normal -0.578145 0.642780 0.502576
  outer loop
   vertex -57.022438 885.917358 -37.262890
   vertex -57.995331 884.381042 -36.417168
   vertex -56.804432 885.917358 -37.012104
  endloop
 endfacet
 facet normal 0.485115 0.766046 -0.421707
  outer loop
   vertex -56.804432 885.917358 -37.012104
   vertex -54.282574 883.113525 -39.204323
   vertex -57.022438 885.917358 -37.262890
  endloop
 endfacet
 facet normal 0.578143 -0.642786 -0.502571
  outer loop
   vertex -53.700012 881.724854 -40.000492
   vertex -53.033607 882.612488 -40.369160
   vertex -53.595722 881.724854 -39.880520
  endloop
 endfacet
 facet normal 0.872573 -0.392489 0.290807
  outer loop
   vertex -53.595722 881.724854 -39.880520
   vertex -53.033607 882.612488 -40.369160
   vertex -53.039623 882.665894 -40.279030
  endloop
 endfacet
 facet normal 0.872575 -0.392498 0.290788
  outer loop
   vertex -53.039623 882.665894 -40.279030
   vertex -53.601734 881.778259 -39.790394
   vertex -53.595722 881.724854 -39.880520
  endloop
 endfacet
 facet normal -0.578135 0.642795 0.502568
  outer loop
   vertex -53.698853 891.165588 -40.152039
   vertex -53.480846 891.165588 -39.901253
   vertex -52.725960 892.701843 -40.997761
  endloop
 endfacet
 facet normal -0.578135 0.642795 0.502568
  outer loop
   vertex -52.725960 892.701843 -40.997761
   vertex -53.480846 891.165588 -39.901253
   vertex -52.507954 892.701843 -40.746975
  endloop
 endfacet
 facet normal 0.485118 0.766043 -0.421709
  outer loop
   vertex -52.507954 892.701843 -40.746975
   vertex -50.139717 890.068787 -42.805653
   vertex -52.725960 892.701843 -40.997761
  endloop
 endfacet
 facet normal 0.578145 -0.642786 -0.502568
  outer loop
   vertex -55.150852 881.742432 -38.449543
   vertex -55.368855 881.742432 -38.700329
   vertex -54.500580 883.113525 -39.455112
  endloop
 endfacet
 facet normal -0.656058 -0.000003 -0.754710
  outer loop
   vertex -54.500580 883.113525 -39.455112
   vertex -55.368855 881.742432 -38.700329
   vertex -54.960369 882.911987 -39.055424
  endloop
 endfacet
 facet normal -0.656059 0.000001 -0.754709
  outer loop
   vertex -54.960369 882.911987 -39.055424
   vertex -56.017208 884.086975 -38.136726
   vertex -54.500580 883.113525 -39.455112
  endloop
 endfacet
 facet normal 0.871172 -0.381682 0.308833
  outer loop
   vertex -54.150959 882.527344 -41.195309
   vertex -54.139973 882.452209 -41.319157
   vertex -51.257286 887.004211 -43.825043
  endloop
 endfacet
 facet normal 0.578131 -0.642789 -0.502579
  outer loop
   vertex -51.257286 887.004211 -43.825043
   vertex -54.139973 882.452209 -41.319157
   vertex -54.211887 882.452209 -41.401882
  endloop
 endfacet
 facet normal 0.578133 -0.642789 -0.502577
  outer loop
   vertex -54.211887 882.452209 -41.401882
   vertex -51.329197 887.004211 -43.907764
   vertex -51.257286 887.004211 -43.825043
  endloop
 endfacet
 facet normal -0.656057 0.000001 -0.754711
  outer loop
   vertex -52.163887 890.171692 -41.486366
   vertex -51.107048 888.996704 -42.405060
   vertex -51.176994 888.361755 -42.344257
  endloop
 endfacet
 facet normal -0.656061 0.000001 -0.754708
  outer loop
   vertex -51.176994 888.361755 -42.344257
   vertex -51.107048 888.996704 -42.405060
   vertex -50.308716 889.732849 -43.099041
  endloop
 endfacet
 facet normal 0.578140 -0.642786 -0.502573
  outer loop
   vertex -50.308716 889.732849 -43.099041
   vertex -50.090710 889.732849 -42.848255
   vertex -51.176994 888.361755 -42.344257
  endloop
 endfacet
 facet normal 0.872562 -0.392389 0.290975
  outer loop
   vertex -49.846004 887.708923 -43.055199
   vertex -50.408119 886.821289 -42.566559
   vertex -49.839993 887.655457 -43.145329
  endloop
 endfacet
 facet normal 0.872565 -0.392521 0.290788
  outer loop
   vertex -49.839993 887.655457 -43.145329
   vertex -50.408119 886.821289 -42.566559
   vertex -50.402107 886.767883 -42.656689
  endloop
 endfacet
 facet normal 0.578126 -0.642812 -0.502556
  outer loop
   vertex -50.402107 886.767883 -42.656689
   vertex -49.944283 887.655457 -43.265301
   vertex -49.839993 887.655457 -43.145329
  endloop
 endfacet
 facet normal -0.484998 -0.766170 0.421617
  outer loop
   vertex -51.304779 886.767883 -43.695099
   vertex -51.352192 886.831299 -43.634399
   vertex -51.409073 886.767883 -43.815071
  endloop
 endfacet
 facet normal -0.485037 -0.766144 0.421620
  outer loop
   vertex -51.409073 886.767883 -43.815071
   vertex -51.352192 886.831299 -43.634399
   vertex -51.499157 886.821289 -43.821659
  endloop
 endfacet
 facet normal -0.166535 -0.392492 -0.904553
  outer loop
   vertex -51.499157 886.821289 -43.821659
   vertex -50.937046 887.708923 -44.310299
   vertex -51.409073 886.767883 -43.815071
  endloop
 endfacet
 facet normal -0.656062 0.000000 -0.754707
  outer loop
   vertex -51.423626 888.249878 -43.887318
   vertex -50.937046 887.708923 -44.310299
   vertex -51.499157 886.821289 -43.821659
  endloop
 endfacet
 facet normal -0.656059 -0.000000 -0.754709
  outer loop
   vertex -55.179356 882.319275 -40.622513
   vertex -54.617241 883.206909 -41.111153
   vertex -54.130661 882.665894 -41.534130
  endloop
 endfacet
 facet normal 0.485143 0.766028 -0.421707
  outer loop
   vertex -54.130661 882.665894 -41.534130
   vertex -54.617241 883.206909 -41.111153
   vertex -53.983692 882.675903 -41.346870
  endloop
 endfacet
 facet normal 0.485022 0.766154 -0.421619
  outer loop
   vertex -53.983692 882.675903 -41.346870
   vertex -54.040573 882.612488 -41.527542
   vertex -54.130661 882.665894 -41.534130
  endloop
 endfacet
 facet normal 0.485034 0.766145 -0.421620
  outer loop
   vertex -53.936283 882.612488 -41.407566
   vertex -54.040573 882.612488 -41.527542
   vertex -53.983692 882.675903 -41.346870
  endloop
 endfacet
 facet normal 0.871174 -0.381698 0.308807
  outer loop
   vertex -51.257286 887.004211 -43.825043
   vertex -51.268269 887.079346 -43.701191
   vertex -54.150959 882.527344 -41.195309
  endloop
 endfacet
 facet normal 0.578140 -0.642789 -0.502569
  outer loop
   vertex -54.150959 882.527344 -41.195309
   vertex -51.268269 887.079346 -43.701191
   vertex -50.495281 887.079346 -42.811970
  endloop
 endfacet
 facet normal 0.578141 -0.642790 -0.502568
  outer loop
   vertex -50.495281 887.079346 -42.811970
   vertex -53.377972 882.527344 -40.306084
   vertex -54.150959 882.527344 -41.195309
  endloop
 endfacet
 facet normal -0.184588 -0.381680 -0.905675
  outer loop
   vertex -53.253796 882.452209 -40.299728
   vertex -53.377972 882.527344 -40.306084
   vertex -50.495281 887.079346 -42.811970
  endloop
 endfacet
 facet normal 0.656059 0.000001 0.754710
  outer loop
   vertex -54.742363 882.911987 -38.804634
   vertex -54.282574 883.113525 -39.204323
   vertex -55.799202 884.086975 -37.885941
  endloop
 endfacet
 facet normal 0.656057 -0.000003 0.754711
  outer loop
   vertex -55.799202 884.086975 -37.885941
   vertex -54.282574 883.113525 -39.204323
   vertex -56.804432 885.917358 -37.012104
  endloop
 endfacet
 facet normal 0.656060 -0.000001 0.754709
  outer loop
   vertex -56.804432 885.917358 -37.012104
   vertex -57.777325 884.381042 -36.166382
   vertex -55.799202 884.086975 -37.885941
  endloop
 endfacet
 facet normal -0.578145 0.642780 0.502576
  outer loop
   vertex -57.995331 884.381042 -36.417168
   vertex -57.777325 884.381042 -36.166382
   vertex -56.804432 885.917358 -37.012104
  endloop
 endfacet
 facet normal -0.485118 -0.766043 0.421709
  outer loop
   vertex -55.409088 881.747986 -38.225060
   vertex -57.777325 884.381042 -36.166382
   vertex -57.995331 884.381042 -36.417168
  endloop
 endfacet
 facet normal -0.485115 -0.766046 0.421707
  outer loop
   vertex -53.698853 891.165588 -40.152039
   vertex -50.958988 888.361755 -42.093472
   vertex -53.480846 891.165588 -39.901253
  endloop
 endfacet
 facet normal 0.656058 -0.000002 0.754711
  outer loop
   vertex -53.480846 891.165588 -39.901253
   vertex -50.958988 888.361755 -42.093472
   vertex -51.945881 890.171692 -41.235577
  endloop
 endfacet
 facet normal 0.656059 0.000000 0.754710
  outer loop
   vertex -51.945881 890.171692 -41.235577
   vertex -52.507954 892.701843 -40.746975
   vertex -53.480846 891.165588 -39.901253
  endloop
 endfacet
 facet normal 0.656059 0.000000 0.754709
  outer loop
   vertex -51.375420 891.072510 -41.731472
   vertex -52.507954 892.701843 -40.746975
   vertex -51.945881 890.171692 -41.235577
  endloop
 endfacet
 facet normal 0.656060 0.000000 0.754709
  outer loop
   vertex -50.139717 890.068787 -42.805653
   vertex -52.507954 892.701843 -40.746975
   vertex -51.375420 891.072510 -41.731472
  endloop
 endfacet
 facet normal 0.485125 0.766032 -0.421722
  outer loop
   vertex -56.802441 885.920410 -37.013958
   vertex -55.151512 883.130066 -40.183311
   vertex -57.661125 885.920410 -38.001740
  endloop
 endfacet
 facet normal -0.656066 -0.000011 -0.754704
  outer loop
   vertex -57.661125 885.920410 -38.001740
   vertex -55.151512 883.130066 -40.183311
   vertex -55.311954 882.876709 -40.043835
  endloop
 endfacet
 facet normal -0.656066 -0.000011 -0.754704
  outer loop
   vertex -55.311954 882.876709 -40.043835
   vertex -57.821568 885.667053 -37.862263
   vertex -57.661125 885.920410 -38.001740
  endloop
 endfacet
 facet normal -0.485109 -0.766032 0.421740
  outer loop
   vertex -54.453274 882.876770 -39.056023
   vertex -57.821568 885.667053 -37.862263
   vertex -55.311954 882.876709 -40.043835
  endloop
 endfacet
 facet normal -0.485120 -0.766036 0.421718
  outer loop
   vertex -56.962883 885.667053 -36.874481
   vertex -57.821568 885.667053 -37.862263
   vertex -54.453274 882.876770 -39.056023
  endloop
 endfacet
 facet normal -0.656063 0.000005 -0.754706
  outer loop
   vertex -51.329197 887.004211 -43.907764
   vertex -54.211887 882.452209 -41.401882
   vertex -51.411476 887.095703 -43.836239
  endloop
 endfacet
 facet normal -0.656063 0.000005 -0.754706
  outer loop
   vertex -51.411476 887.095703 -43.836239
   vertex -54.211887 882.452209 -41.401882
   vertex -54.294167 882.543640 -41.330357
  endloop
 endfacet
 facet normal -0.774744 0.600153 0.198967
  outer loop
   vertex -54.294167 882.543640 -41.330357
   vertex -51.396935 887.103943 -43.804470
   vertex -51.411476 887.095703 -43.836239
  endloop
 endfacet
 facet normal -0.775121 0.599941 0.198135
  outer loop
   vertex -54.279621 882.551941 -41.298588
   vertex -51.396935 887.103943 -43.804470
   vertex -54.294167 882.543640 -41.330357
  endloop
 endfacet
 facet normal -0.656060 0.000001 -0.754709
  outer loop
   vertex -54.634331 882.946289 -40.990242
   vertex -51.396935 887.103943 -43.804470
   vertex -54.279621 882.551941 -41.298588
  endloop
 endfacet
 facet normal 0.485136 0.766056 -0.421665
  outer loop
   vertex -53.322395 891.415710 -40.039108
   vertex -50.812740 888.625549 -42.220692
   vertex -54.181057 891.415771 -41.026909
  endloop
 endfacet
 facet normal 0.485133 0.766055 -0.421670
  outer loop
   vertex -54.181057 891.415771 -41.026909
   vertex -50.812740 888.625549 -42.220692
   vertex -51.671368 888.625549 -43.208546
  endloop
 endfacet
 facet normal -0.656053 0.000009 -0.754715
  outer loop
   vertex -51.671368 888.625549 -43.208546
   vertex -54.341499 891.162415 -40.887444
   vertex -54.181057 891.415771 -41.026909
  endloop
 endfacet
 facet normal -0.656049 0.000016 -0.754718
  outer loop
   vertex -51.831810 888.372192 -43.069084
   vertex -54.341499 891.162415 -40.887444
   vertex -51.671368 888.625549 -43.208546
  endloop
 endfacet
 facet normal -0.485137 -0.766055 0.421665
  outer loop
   vertex -53.482838 891.162354 -39.899643
   vertex -54.341499 891.162415 -40.887444
   vertex -51.831810 888.372192 -43.069084
  endloop
 endfacet
 facet normal -0.485137 -0.766055 0.421665
  outer loop
   vertex -51.831810 888.372192 -43.069084
   vertex -50.973148 888.372131 -42.081284
   vertex -53.482838 891.162354 -39.899643
  endloop
 endfacet
 facet normal -0.656080 0.000023 -0.754691
  outer loop
   vertex -54.663769 882.954590 -41.009068
   vertex -54.704594 883.000000 -40.973576
   vertex -51.821907 887.552002 -43.479462
  endloop
 endfacet
 facet normal -0.578140 0.642789 0.502569
  outer loop
   vertex -51.821907 887.552002 -43.479462
   vertex -54.704594 883.000000 -40.973576
   vertex -53.674595 883.000000 -39.788696
  endloop
 endfacet
 facet normal -0.578140 0.642789 0.502569
  outer loop
   vertex -53.674595 883.000000 -39.788696
   vertex -50.791904 887.552002 -42.294579
   vertex -51.821907 887.552002 -43.479462
  endloop
 endfacet
 facet normal 0.656036 0.000025 0.754730
  outer loop
   vertex -53.633766 882.954590 -39.824184
   vertex -50.791904 887.552002 -42.294579
   vertex -53.674595 883.000000 -39.788696
  endloop
 endfacet
 facet normal 0.656080 -0.000023 0.754691
  outer loop
   vertex -50.751080 887.506592 -42.330070
   vertex -50.791904 887.552002 -42.294579
   vertex -53.633766 882.954590 -39.824184
  endloop
 endfacet
 facet normal 0.775130 -0.599937 -0.198116
  outer loop
   vertex -53.633766 882.954590 -39.824184
   vertex -53.648312 882.946289 -39.855957
   vertex -50.751080 887.506592 -42.330070
  endloop
 endfacet
 facet normal 0.774753 -0.600148 -0.198948
  outer loop
   vertex -50.751080 887.506592 -42.330070
   vertex -53.648312 882.946289 -39.855957
   vertex -50.765621 887.498352 -42.361843
  endloop
 endfacet
 facet normal 0.656060 -0.000001 0.754709
  outer loop
   vertex -50.765621 887.498352 -42.361843
   vertex -53.648312 882.946289 -39.855957
   vertex -53.293606 882.551941 -40.164299
  endloop
 endfacet
 facet normal 0.656060 -0.000001 0.754709
  outer loop
   vertex -53.293606 882.551941 -40.164299
   vertex -50.410915 887.103943 -42.670185
   vertex -50.765621 887.498352 -42.361843
  endloop
 endfacet
 facet normal -0.303977 0.599912 0.740070
  outer loop
   vertex -53.264164 882.543640 -40.145477
   vertex -50.410915 887.103943 -42.670185
   vertex -53.293606 882.551941 -40.164299
  endloop
 endfacet
 facet normal -0.304907 0.600168 0.739480
  outer loop
   vertex -50.381477 887.095703 -42.651360
   vertex -50.410915 887.103943 -42.670185
   vertex -53.264164 882.543640 -40.145477
  endloop
 endfacet
 facet normal 0.656063 -0.000005 0.754706
  outer loop
   vertex -53.264164 882.543640 -40.145477
   vertex -53.181885 882.452209 -40.217003
   vertex -50.381477 887.095703 -42.651360
  endloop
 endfacet
 facet normal 0.656053 0.000006 0.754715
  outer loop
   vertex -50.381477 887.095703 -42.651360
   vertex -53.181885 882.452209 -40.217003
   vertex -50.299194 887.004211 -42.722885
  endloop
 endfacet
 facet normal 0.578145 -0.642789 -0.502564
  outer loop
   vertex -50.299194 887.004211 -42.722885
   vertex -53.181885 882.452209 -40.217003
   vertex -50.371105 887.004211 -42.805611
  endloop
 endfacet
 facet normal 0.485118 0.766043 -0.421709
  outer loop
   vertex -50.139717 890.068787 -42.805653
   vertex -50.357723 890.068787 -43.056438
   vertex -52.725960 892.701843 -40.997761
  endloop
 endfacet
 facet normal -0.656060 -0.000000 -0.754709
  outer loop
   vertex -52.725960 892.701843 -40.997761
   vertex -50.357723 890.068787 -43.056438
   vertex -51.593426 891.072510 -41.982258
  endloop
 endfacet
 facet normal -0.656059 -0.000000 -0.754709
  outer loop
   vertex -51.593426 891.072510 -41.982258
   vertex -52.444923 891.436768 -41.242062
   vertex -52.725960 892.701843 -40.997761
  endloop
 endfacet
 facet normal -0.656059 0.000002 -0.754710
  outer loop
   vertex -52.163887 890.171692 -41.486366
   vertex -52.444923 891.436768 -41.242062
   vertex -51.593426 891.072510 -41.982258
  endloop
 endfacet
 facet normal -0.656059 0.000002 -0.754710
  outer loop
   vertex -53.698853 891.165588 -40.152039
   vertex -52.444923 891.436768 -41.242062
   vertex -52.163887 890.171692 -41.486366
  endloop
 endfacet
 facet normal -0.656061 -0.000002 -0.754708
  outer loop
   vertex -52.163887 890.171692 -41.486366
   vertex -51.176994 888.361755 -42.344257
   vertex -53.698853 891.165588 -40.152039
  endloop
 endfacet
 facet normal -0.485115 -0.766046 0.421707
  outer loop
   vertex -53.698853 891.165588 -40.152039
   vertex -51.176994 888.361755 -42.344257
   vertex -50.958988 888.361755 -42.093472
  endloop
 endfacet
 facet normal 0.578140 -0.642786 -0.502573
  outer loop
   vertex -50.958988 888.361755 -42.093472
   vertex -51.176994 888.361755 -42.344257
   vertex -50.090710 889.732849 -42.848255
  endloop
 endfacet
 facet normal 0.656056 0.000003 0.754712
  outer loop
   vertex -50.090710 889.732849 -42.848255
   vertex -50.889046 888.996704 -42.154274
   vertex -50.958988 888.361755 -42.093472
  endloop
 endfacet
 facet normal 0.656060 -0.000003 0.754709
  outer loop
   vertex -50.318584 889.897522 -42.650166
   vertex -50.889046 888.996704 -42.154274
   vertex -50.090710 889.732849 -42.848255
  endloop
 endfacet
 facet normal -0.578147 0.642783 0.502570
  outer loop
   vertex -51.107048 888.996704 -42.405060
   vertex -50.889046 888.996704 -42.154274
   vertex -50.318584 889.897522 -42.650166
  endloop
 endfacet
 facet normal -0.578143 0.642782 0.502575
  outer loop
   vertex -50.318584 889.897522 -42.650166
   vertex -50.536591 889.897522 -42.900951
   vertex -51.107048 888.996704 -42.405060
  endloop
 endfacet
 facet normal -0.656061 0.000001 -0.754708
  outer loop
   vertex -51.107048 888.996704 -42.405060
   vertex -50.536591 889.897522 -42.900951
   vertex -50.308716 889.732849 -43.099041
  endloop
 endfacet
 facet normal -0.656060 0.000002 -0.754709
  outer loop
   vertex -50.308716 889.732849 -43.099041
   vertex -50.536591 889.897522 -42.900951
   vertex -50.357723 890.068787 -43.056438
  endloop
 endfacet
 facet normal 0.740991 0.189785 -0.644138
  outer loop
   vertex -50.357723 890.068787 -43.056438
   vertex -50.090710 889.732849 -42.848255
   vertex -50.308716 889.732849 -43.099041
  endloop
 endfacet
 facet normal 0.740991 0.189785 -0.644138
  outer loop
   vertex -50.139717 890.068787 -42.805653
   vertex -50.090710 889.732849 -42.848255
   vertex -50.357723 890.068787 -43.056438
  endloop
 endfacet
 facet normal 0.656060 -0.000002 0.754709
  outer loop
   vertex -50.318584 889.897522 -42.650166
   vertex -50.090710 889.732849 -42.848255
   vertex -50.139717 890.068787 -42.805653
  endloop
 endfacet
 facet normal 0.656059 -0.000000 0.754709
  outer loop
   vertex -50.139717 890.068787 -42.805653
   vertex -51.375420 891.072510 -41.731472
   vertex -50.318584 889.897522 -42.650166
  endloop
 endfacet
 facet normal -0.485112 -0.766050 0.421704
  outer loop
   vertex -50.318584 889.897522 -42.650166
   vertex -51.375420 891.072510 -41.731472
   vertex -51.593426 891.072510 -41.982258
  endloop
 endfacet
 facet normal 0.578142 -0.642784 -0.502574
  outer loop
   vertex -51.593426 891.072510 -41.982258
   vertex -51.375420 891.072510 -41.731472
   vertex -51.945881 890.171692 -41.235577
  endloop
 endfacet
 facet normal 0.578146 -0.642783 -0.502570
  outer loop
   vertex -51.945881 890.171692 -41.235577
   vertex -52.163887 890.171692 -41.486366
   vertex -51.593426 891.072510 -41.982258
  endloop
 endfacet
 facet normal 0.485114 0.766051 -0.421700
  outer loop
   vertex -50.889046 888.996704 -42.154274
   vertex -52.163887 890.171692 -41.486366
   vertex -51.945881 890.171692 -41.235577
  endloop
 endfacet
 facet normal 0.485115 0.766051 -0.421699
  outer loop
   vertex -51.107048 888.996704 -42.405060
   vertex -52.163887 890.171692 -41.486366
   vertex -50.889046 888.996704 -42.154274
  endloop
 endfacet
 facet normal -0.485114 -0.766051 0.421699
  outer loop
   vertex -54.960369 882.911987 -39.055424
   vertex -54.742363 882.911987 -38.804634
   vertex -56.017208 884.086975 -38.136726
  endloop
 endfacet
 facet normal -0.485111 -0.766051 0.421703
  outer loop
   vertex -56.017208 884.086975 -38.136726
   vertex -54.742363 882.911987 -38.804634
   vertex -55.799202 884.086975 -37.885941
  endloop
 endfacet
 facet normal 0.578143 -0.642782 -0.502575
  outer loop
   vertex -55.799202 884.086975 -37.885941
   vertex -56.587666 883.186157 -37.640835
   vertex -56.017208 884.086975 -38.136726
  endloop
 endfacet
 facet normal 0.578146 -0.642783 -0.502570
  outer loop
   vertex -56.369659 883.186157 -37.390045
   vertex -56.587666 883.186157 -37.640835
   vertex -55.799202 884.086975 -37.885941
  endloop
 endfacet
 facet normal 0.485114 0.766051 -0.421700
  outer loop
   vertex -55.312824 882.011169 -38.308743
   vertex -56.587666 883.186157 -37.640835
   vertex -56.369659 883.186157 -37.390045
  endloop
 endfacet
 facet normal 0.656063 0.000003 0.754706
  outer loop
   vertex -56.369659 883.186157 -37.390045
   vertex -55.409088 881.747986 -38.225060
   vertex -55.312824 882.011169 -38.308743
  endloop
 endfacet
 facet normal 0.656063 0.000003 0.754706
  outer loop
   vertex -55.312824 882.011169 -38.308743
   vertex -55.409088 881.747986 -38.225060
   vertex -55.150852 881.742432 -38.449543
  endloop
 endfacet
 facet normal -0.012249 -0.999868 0.010648
  outer loop
   vertex -55.150852 881.742432 -38.449543
   vertex -55.409088 881.747986 -38.225060
   vertex -55.627094 881.747986 -38.475849
  endloop
 endfacet
 facet normal -0.012249 -0.999868 0.010648
  outer loop
   vertex -55.627094 881.747986 -38.475849
   vertex -55.368855 881.742432 -38.700329
   vertex -55.150852 881.742432 -38.449543
  endloop
 endfacet
 facet normal -0.656051 -0.000000 -0.754716
  outer loop
   vertex -55.530830 882.011169 -38.559528
   vertex -55.368855 881.742432 -38.700329
   vertex -55.627094 881.747986 -38.475849
  endloop
 endfacet
 facet normal -0.656056 -0.000005 -0.754713
  outer loop
   vertex -54.960369 882.911987 -39.055424
   vertex -55.368855 881.742432 -38.700329
   vertex -55.530830 882.011169 -38.559528
  endloop
 endfacet
 facet normal -0.578142 0.642784 0.502574
  outer loop
   vertex -55.530830 882.011169 -38.559528
   vertex -55.312824 882.011169 -38.308743
   vertex -54.960369 882.911987 -39.055424
  endloop
 endfacet
 facet normal -0.578146 0.642783 0.502570
  outer loop
   vertex -54.960369 882.911987 -39.055424
   vertex -55.312824 882.011169 -38.308743
   vertex -54.742363 882.911987 -38.804634
  endloop
 endfacet
 facet normal 0.656058 -0.000002 0.754710
  outer loop
   vertex -54.742363 882.911987 -38.804634
   vertex -55.312824 882.011169 -38.308743
   vertex -55.150852 881.742432 -38.449543
  endloop
 endfacet
 facet normal 0.656060 -0.000002 0.754709
  outer loop
   vertex -55.150852 881.742432 -38.449543
   vertex -54.282574 883.113525 -39.204323
   vertex -54.742363 882.911987 -38.804634
  endloop
 endfacet
 facet normal 0.578145 -0.642786 -0.502569
  outer loop
   vertex -54.500580 883.113525 -39.455112
   vertex -54.282574 883.113525 -39.204323
   vertex -55.150852 881.742432 -38.449543
  endloop
 endfacet
 facet normal 0.485118 0.766046 -0.421703
  outer loop
   vertex -57.022438 885.917358 -37.262890
   vertex -54.282574 883.113525 -39.204323
   vertex -54.500580 883.113525 -39.455112
  endloop
 endfacet
 facet normal -0.656059 0.000002 -0.754710
  outer loop
   vertex -54.500580 883.113525 -39.455112
   vertex -56.017208 884.086975 -38.136726
   vertex -57.022438 885.917358 -37.262890
  endloop
 endfacet
 facet normal -0.656060 0.000000 -0.754708
  outer loop
   vertex -57.022438 885.917358 -37.262890
   vertex -56.017208 884.086975 -38.136726
   vertex -57.006268 884.234009 -37.276947
  endloop
 endfacet
 facet normal -0.656060 0.000001 -0.754708
  outer loop
   vertex -57.006268 884.234009 -37.276947
   vertex -56.017208 884.086975 -38.136726
   vertex -56.587666 883.186157 -37.640835
  endloop
 endfacet
 facet normal -0.656059 0.000002 -0.754710
  outer loop
   vertex -56.587666 883.186157 -37.640835
   vertex -57.995331 884.381042 -36.417168
   vertex -57.006268 884.234009 -37.276947
  endloop
 endfacet
 facet normal -0.656059 0.000001 -0.754709
  outer loop
   vertex -55.627094 881.747986 -38.475849
   vertex -57.995331 884.381042 -36.417168
   vertex -56.587666 883.186157 -37.640835
  endloop
 endfacet
 facet normal -0.485121 -0.766044 0.421705
  outer loop
   vertex -55.409088 881.747986 -38.225060
   vertex -57.995331 884.381042 -36.417168
   vertex -55.627094 881.747986 -38.475849
  endloop
 endfacet
 facet normal -0.563649 -0.094769 -0.820560
  outer loop
   vertex -53.766720 881.788269 -39.961994
   vertex -53.204605 882.675903 -40.450630
   vertex -53.700012 881.724854 -40.000492
  endloop
 endfacet
 facet normal -0.563671 -0.094751 -0.820547
  outer loop
   vertex -53.700012 881.724854 -40.000492
   vertex -53.204605 882.675903 -40.450630
   vertex -53.137897 882.612488 -40.489132
  endloop
 endfacet
 facet normal 0.578143 -0.642786 -0.502571
  outer loop
   vertex -53.137897 882.612488 -40.489132
   vertex -53.033607 882.612488 -40.369160
   vertex -53.700012 881.724854 -40.000492
  endloop
 endfacet
 facet normal 0.485011 0.766164 -0.421612
  outer loop
   vertex -53.204605 882.675903 -40.450630
   vertex -53.033607 882.612488 -40.369160
   vertex -53.137897 882.612488 -40.489132
  endloop
 endfacet
 facet normal 0.485011 0.766164 -0.421612
  outer loop
   vertex -53.039623 882.665894 -40.279030
   vertex -53.033607 882.612488 -40.369160
   vertex -53.204605 882.675903 -40.450630
  endloop
 endfacet
 facet normal 0.485125 0.766027 -0.421730
  outer loop
   vertex -53.204605 882.675903 -40.450630
   vertex -53.526199 883.206909 -39.856052
   vertex -53.039623 882.665894 -40.279030
  endloop
 endfacet
 facet normal 0.656061 -0.000002 0.754708
  outer loop
   vertex -53.039623 882.665894 -40.279030
   vertex -53.526199 883.206909 -39.856052
   vertex -53.601734 881.778259 -39.790394
  endloop
 endfacet
 facet normal 0.656058 -0.000001 0.754710
  outer loop
   vertex -53.601734 881.778259 -39.790394
   vertex -53.526199 883.206909 -39.856052
   vertex -54.088314 882.319275 -39.367416
  endloop
 endfacet
 facet normal -0.485119 -0.766028 0.421735
  outer loop
   vertex -54.088314 882.319275 -39.367416
   vertex -53.766720 881.788269 -39.961994
   vertex -53.601734 881.778259 -39.790394
  endloop
 endfacet
 facet normal -0.485135 -0.766025 0.421723
  outer loop
   vertex -55.179356 882.319275 -40.622513
   vertex -53.766720 881.788269 -39.961994
   vertex -54.088314 882.319275 -39.367416
  endloop
 endfacet
 facet normal -0.485135 -0.766025 0.421722
  outer loop
   vertex -54.545807 881.788269 -40.858231
   vertex -53.766720 881.788269 -39.961994
   vertex -55.179356 882.319275 -40.622513
  endloop
 endfacet
 facet normal -0.485143 -0.766028 0.421707
  outer loop
   vertex -55.179356 882.319275 -40.622513
   vertex -54.692776 881.778259 -41.045490
   vertex -54.545807 881.788269 -40.858231
  endloop
 endfacet
 facet normal -0.485022 -0.766154 0.421619
  outer loop
   vertex -54.545807 881.788269 -40.858231
   vertex -54.692776 881.778259 -41.045490
   vertex -54.602688 881.724854 -41.038902
  endloop
 endfacet
 facet normal -0.166530 -0.392495 -0.904553
  outer loop
   vertex -54.602688 881.724854 -41.038902
   vertex -54.692776 881.778259 -41.045490
   vertex -54.040573 882.612488 -41.527542
  endloop
 endfacet
 facet normal 0.578143 -0.642786 -0.502571
  outer loop
   vertex -54.040573 882.612488 -41.527542
   vertex -54.498398 881.724854 -40.918930
   vertex -54.602688 881.724854 -41.038902
  endloop
 endfacet
 facet normal 0.578152 -0.642784 -0.502562
  outer loop
   vertex -53.936283 882.612488 -41.407566
   vertex -54.498398 881.724854 -40.918930
   vertex -54.040573 882.612488 -41.527542
  endloop
 endfacet
 facet normal 0.734118 -0.094758 0.672378
  outer loop
   vertex -54.545807 881.788269 -40.858231
   vertex -54.498398 881.724854 -40.918930
   vertex -53.936283 882.612488 -41.407566
  endloop
 endfacet
 facet normal 0.734107 -0.094740 0.672392
  outer loop
   vertex -53.936283 882.612488 -41.407566
   vertex -53.983692 882.675903 -41.346870
   vertex -54.545807 881.788269 -40.858231
  endloop
 endfacet
 facet normal 0.578143 -0.642786 -0.502570
  outer loop
   vertex -54.545807 881.788269 -40.858231
   vertex -53.983692 882.675903 -41.346870
   vertex -53.204605 882.675903 -40.450630
  endloop
 endfacet
 facet normal 0.485136 0.766026 -0.421721
  outer loop
   vertex -53.204605 882.675903 -40.450630
   vertex -53.983692 882.675903 -41.346870
   vertex -54.617241 883.206909 -41.111153
  endloop
 endfacet
 facet normal 0.485136 0.766025 -0.421722
  outer loop
   vertex -54.617241 883.206909 -41.111153
   vertex -53.526199 883.206909 -39.856052
   vertex -53.204605 882.675903 -40.450630
  endloop
 endfacet
 facet normal 0.485101 0.766063 -0.421692
  outer loop
   vertex -54.116158 883.679504 -39.676186
   vertex -53.526199 883.206909 -39.856052
   vertex -54.617241 883.206909 -41.111153
  endloop
 endfacet
 facet normal 0.433817 0.207887 0.876690
  outer loop
   vertex -54.088314 882.319275 -39.367416
   vertex -53.526199 883.206909 -39.856052
   vertex -54.116158 883.679504 -39.676186
  endloop
 endfacet
 facet normal 0.433822 0.207887 0.876688
  outer loop
   vertex -54.116158 883.679504 -39.676186
   vertex -54.678272 882.791870 -39.187546
   vertex -54.088314 882.319275 -39.367416
  endloop
 endfacet
 facet normal -0.485100 -0.766065 0.421690
  outer loop
   vertex -54.088314 882.319275 -39.367416
   vertex -54.678272 882.791870 -39.187546
   vertex -55.439579 882.791870 -40.063332
  endloop
 endfacet
 facet normal -0.578143 0.642786 0.502571
  outer loop
   vertex -55.439579 882.791870 -40.063332
   vertex -54.678272 882.791870 -39.187546
   vertex -54.116158 883.679504 -39.676186
  endloop
 endfacet
 facet normal -0.578142 0.642783 0.502575
  outer loop
   vertex -54.116158 883.679504 -39.676186
   vertex -54.877468 883.679504 -40.551968
   vertex -55.439579 882.791870 -40.063332
  endloop
 endfacet
 facet normal 0.485097 0.766066 -0.421691
  outer loop
   vertex -54.617241 883.206909 -41.111153
   vertex -54.877468 883.679504 -40.551968
   vertex -54.116158 883.679504 -39.676186
  endloop
 endfacet
 facet normal -0.807781 0.207885 -0.551610
  outer loop
   vertex -55.439579 882.791870 -40.063332
   vertex -54.877468 883.679504 -40.551968
   vertex -54.617241 883.206909 -41.111153
  endloop
 endfacet
 facet normal -0.807781 0.207887 -0.551610
  outer loop
   vertex -54.617241 883.206909 -41.111153
   vertex -55.179356 882.319275 -40.622513
   vertex -55.439579 882.791870 -40.063332
  endloop
 endfacet
 facet normal -0.485101 -0.766063 0.421693
  outer loop
   vertex -55.439579 882.791870 -40.063332
   vertex -55.179356 882.319275 -40.622513
   vertex -54.088314 882.319275 -39.367416
  endloop
 endfacet
 facet normal 0.485138 0.766022 -0.421725
  outer loop
   vertex -50.332584 888.249878 -42.632221
   vertex -51.423626 888.249878 -43.887318
   vertex -51.683849 888.722534 -43.328136
  endloop
 endfacet
 facet normal -0.807776 0.207876 -0.551621
  outer loop
   vertex -51.683849 888.722534 -43.328136
   vertex -51.423626 888.249878 -43.887318
   vertex -51.985737 887.362244 -43.398682
  endloop
 endfacet
 facet normal -0.807775 0.207876 -0.551622
  outer loop
   vertex -51.985737 887.362244 -43.398682
   vertex -52.245964 887.834900 -42.839497
   vertex -51.683849 888.722534 -43.328136
  endloop
 endfacet
 facet normal -0.485135 -0.766025 0.421722
  outer loop
   vertex -51.484657 887.834900 -41.963715
   vertex -52.245964 887.834900 -42.839497
   vertex -51.985737 887.362244 -43.398682
  endloop
 endfacet
 facet normal -0.578142 0.642786 0.502572
  outer loop
   vertex -51.683849 888.722534 -43.328136
   vertex -52.245964 887.834900 -42.839497
   vertex -51.484657 887.834900 -41.963715
  endloop
 endfacet
 facet normal -0.578144 0.642784 0.502571
  outer loop
   vertex -51.484657 887.834900 -41.963715
   vertex -50.922543 888.722534 -42.452351
   vertex -51.683849 888.722534 -43.328136
  endloop
 endfacet
 facet normal 0.485137 0.766024 -0.421722
  outer loop
   vertex -51.683849 888.722534 -43.328136
   vertex -50.922543 888.722534 -42.452351
   vertex -50.332584 888.249878 -42.632221
  endloop
 endfacet
 facet normal 0.433833 0.207874 0.876686
  outer loop
   vertex -50.332584 888.249878 -42.632221
   vertex -50.922543 888.722534 -42.452351
   vertex -51.484657 887.834900 -41.963715
  endloop
 endfacet
 facet normal 0.433831 0.207879 0.876685
  outer loop
   vertex -51.484657 887.834900 -41.963715
   vertex -50.894699 887.362244 -42.143581
   vertex -50.332584 888.249878 -42.632221
  endloop
 endfacet
 facet normal -0.485138 -0.766023 0.421723
  outer loop
   vertex -51.985737 887.362244 -43.398682
   vertex -50.894699 887.362244 -42.143581
   vertex -51.484657 887.834900 -41.963715
  endloop
 endfacet
 facet normal -0.485103 -0.766062 0.421692
  outer loop
   vertex -50.573101 886.831299 -42.738159
   vertex -50.894699 887.362244 -42.143581
   vertex -51.985737 887.362244 -43.398682
  endloop
 endfacet
 facet normal -0.485103 -0.766060 0.421695
  outer loop
   vertex -51.985737 887.362244 -43.398682
   vertex -51.352192 886.831299 -43.634399
   vertex -50.573101 886.831299 -42.738159
  endloop
 endfacet
 facet normal 0.578143 -0.642784 -0.502573
  outer loop
   vertex -50.573101 886.831299 -42.738159
   vertex -51.352192 886.831299 -43.634399
   vertex -50.790077 887.718933 -44.123035
  endloop
 endfacet
 facet normal 0.734105 -0.094740 0.672395
  outer loop
   vertex -50.790077 887.718933 -44.123035
   vertex -51.352192 886.831299 -43.634399
   vertex -51.304779 886.767883 -43.695099
  endloop
 endfacet
 facet normal 0.734089 -0.094723 0.672414
  outer loop
   vertex -51.304779 886.767883 -43.695099
   vertex -50.742668 887.655457 -44.183735
   vertex -50.790077 887.718933 -44.123035
  endloop
 endfacet
 facet normal 0.578119 -0.642809 -0.502568
  outer loop
   vertex -51.409073 886.767883 -43.815071
   vertex -50.742668 887.655457 -44.183735
   vertex -51.304779 886.767883 -43.695099
  endloop
 endfacet
 facet normal 0.578127 -0.642810 -0.502557
  outer loop
   vertex -50.846958 887.655457 -44.303707
   vertex -50.742668 887.655457 -44.183735
   vertex -51.409073 886.767883 -43.815071
  endloop
 endfacet
 facet normal -0.166706 -0.392409 -0.904558
  outer loop
   vertex -51.409073 886.767883 -43.815071
   vertex -50.937046 887.708923 -44.310299
   vertex -50.846958 887.655457 -44.303707
  endloop
 endfacet
 facet normal 0.485368 0.765801 -0.421862
  outer loop
   vertex -50.846958 887.655457 -44.303707
   vertex -50.937046 887.708923 -44.310299
   vertex -50.790077 887.718933 -44.123035
  endloop
 endfacet
 facet normal 0.485112 0.766065 -0.421676
  outer loop
   vertex -50.790077 887.718933 -44.123035
   vertex -50.937046 887.708923 -44.310299
   vertex -51.423626 888.249878 -43.887318
  endloop
 endfacet
 facet normal 0.485102 0.766062 -0.421693
  outer loop
   vertex -51.423626 888.249878 -43.887318
   vertex -50.010990 887.718933 -43.226799
   vertex -50.790077 887.718933 -44.123035
  endloop
 endfacet
 facet normal 0.485102 0.766061 -0.421694
  outer loop
   vertex -50.332584 888.249878 -42.632221
   vertex -50.010990 887.718933 -43.226799
   vertex -51.423626 888.249878 -43.887318
  endloop
 endfacet
 facet normal 0.485089 0.766064 -0.421704
  outer loop
   vertex -49.846004 887.708923 -43.055199
   vertex -50.010990 887.718933 -43.226799
   vertex -50.332584 888.249878 -42.632221
  endloop
 endfacet
 facet normal 0.656059 0.000000 0.754709
  outer loop
   vertex -50.332584 888.249878 -42.632221
   vertex -50.894699 887.362244 -42.143581
   vertex -49.846004 887.708923 -43.055199
  endloop
 endfacet
 facet normal 0.656059 0.000000 0.754709
  outer loop
   vertex -49.846004 887.708923 -43.055199
   vertex -50.894699 887.362244 -42.143581
   vertex -50.408119 886.821289 -42.566559
  endloop
 endfacet
 facet normal -0.485094 -0.766064 0.421698
  outer loop
   vertex -50.408119 886.821289 -42.566559
   vertex -50.894699 887.362244 -42.143581
   vertex -50.573101 886.831299 -42.738159
  endloop
 endfacet
 facet normal -0.485022 -0.766151 0.421624
  outer loop
   vertex -50.573101 886.831299 -42.738159
   vertex -50.402107 886.767883 -42.656689
   vertex -50.408119 886.821289 -42.566559
  endloop
 endfacet
 facet normal -0.485022 -0.766152 0.421622
  outer loop
   vertex -50.506397 886.767883 -42.776661
   vertex -50.402107 886.767883 -42.656689
   vertex -50.573101 886.831299 -42.738159
  endloop
 endfacet
 facet normal 0.578126 -0.642812 -0.502556
  outer loop
   vertex -49.944283 887.655457 -43.265301
   vertex -50.402107 886.767883 -42.656689
   vertex -50.506397 886.767883 -42.776661
  endloop
 endfacet
 facet normal -0.563688 -0.094741 -0.820536
  outer loop
   vertex -50.506397 886.767883 -42.776661
   vertex -50.573101 886.831299 -42.738159
   vertex -49.944283 887.655457 -43.265301
  endloop
 endfacet
 facet normal -0.563711 -0.094715 -0.820524
  outer loop
   vertex -49.944283 887.655457 -43.265301
   vertex -50.573101 886.831299 -42.738159
   vertex -50.010990 887.718933 -43.226799
  endloop
 endfacet
 facet normal 0.578143 -0.642784 -0.502572
  outer loop
   vertex -50.010990 887.718933 -43.226799
   vertex -50.573101 886.831299 -42.738159
   vertex -50.790077 887.718933 -44.123035
  endloop
 endfacet
 facet normal 0.656060 0.000003 0.754709
  outer loop
   vertex -55.799202 884.086975 -37.885941
   vertex -57.777325 884.381042 -36.166382
   vertex -56.369659 883.186157 -37.390045
  endloop
 endfacet
 facet normal 0.656057 -0.000004 0.754712
  outer loop
   vertex -56.369659 883.186157 -37.390045
   vertex -57.777325 884.381042 -36.166382
   vertex -55.409088 881.747986 -38.225060
  endloop
 endfacet
 facet normal 0.485300 0.765810 -0.421922
  outer loop
   vertex -49.846004 887.708923 -43.055199
   vertex -49.839993 887.655457 -43.145329
   vertex -50.010990 887.718933 -43.226799
  endloop
 endfacet
 facet normal 0.485285 0.765860 -0.421850
  outer loop
   vertex -50.010990 887.718933 -43.226799
   vertex -49.839993 887.655457 -43.145329
   vertex -49.944283 887.655457 -43.265301
  endloop
 endfacet
 facet normal -0.485024 -0.766142 0.421637
  outer loop
   vertex -53.601734 881.778259 -39.790394
   vertex -53.766720 881.788269 -39.961994
   vertex -53.595722 881.724854 -39.880520
  endloop
 endfacet
 facet normal -0.485020 -0.766154 0.421621
  outer loop
   vertex -53.595722 881.724854 -39.880520
   vertex -53.766720 881.788269 -39.961994
   vertex -53.700012 881.724854 -40.000492
  endloop
 endfacet
 facet normal 0.485291 0.765852 -0.421856
  outer loop
   vertex -50.846958 887.655457 -44.303707
   vertex -50.790077 887.718933 -44.123035
   vertex -50.742668 887.655457 -44.183735
  endloop
 endfacet
 facet normal -0.485018 -0.766157 0.421618
  outer loop
   vertex -54.602688 881.724854 -41.038902
   vertex -54.498398 881.724854 -40.918930
   vertex -54.545807 881.788269 -40.858231
  endloop
 endfacet
 facet normal -0.656059 -0.000000 -0.754710
  outer loop
   vertex -52.725960 892.701843 -40.997761
   vertex -52.444923 891.436768 -41.242062
   vertex -53.698853 891.165588 -40.152039
  endloop
 endfacet
 facet normal 0.578143 -0.642784 -0.502572
  outer loop
   vertex -54.545807 881.788269 -40.858231
   vertex -53.204605 882.675903 -40.450630
   vertex -53.766720 881.788269 -39.961994
  endloop
 endfacet
 facet normal 0.578163 -0.642789 -0.502543
  outer loop
   vertex -55.311954 882.876709 -40.043835
   vertex -55.151512 883.130066 -40.183311
   vertex -54.453274 882.876770 -39.056023
  endloop
 endfacet
 facet normal 0.578181 -0.642771 -0.502546
  outer loop
   vertex -51.671368 888.625549 -43.208546
   vertex -50.812740 888.625549 -42.220692
   vertex -51.831810 888.372192 -43.069084
  endloop
 endfacet
 facet normal -0.656036 -0.000025 -0.754730
  outer loop
   vertex -51.821907 887.552002 -43.479462
   vertex -51.781078 887.506592 -43.514950
   vertex -54.663769 882.954590 -41.009068
  endloop
 endfacet
 facet normal 0.485125 0.766032 -0.421722
  outer loop
   vertex -55.151512 883.130066 -40.183311
   vertex -56.802441 885.920410 -37.013958
   vertex -54.292828 883.130066 -39.195530
  endloop
 endfacet
 facet normal 0.656062 0.000002 0.754707
  outer loop
   vertex -50.958988 888.361755 -42.093472
   vertex -50.889046 888.996704 -42.154274
   vertex -51.945881 890.171692 -41.235577
  endloop
 endfacet
endsolid