solid stl file generated from DOUG
 facet normal 0.389583 0.804596 0.448164
  outer loop
   vertex 51.288258 801.447754 47.902733
   vertex 51.360146 801.366882 47.985432
   vertex 58.340862 801.366882 41.917187
  endloop
 endfacet
 facet normal 0.656059 -0.000000 0.754710
  outer loop
   vertex 58.340862 801.366882 41.917187
   vertex 51.360146 801.366882 47.985432
   vertex 58.340862 801.264099 41.917187
  endloop
 endfacet
 facet normal 0.389576 -0.804603 0.448156
  outer loop
   vertex 58.268974 802.552246 41.834484
   vertex 58.340862 802.633118 41.917187
   vertex 51.360146 802.633118 47.985432
  endloop
 endfacet
 facet normal 0.656059 -0.000000 0.754710
  outer loop
   vertex 51.360146 802.633118 47.985432
   vertex 58.340862 802.633118 41.917187
   vertex 58.340862 802.735901 41.917187
  endloop
 endfacet
 facet normal 0.656059 0.000000 0.754710
  outer loop
   vertex 58.340862 802.735901 41.917187
   vertex 51.360146 802.735901 47.985432
   vertex 51.360146 802.633118 47.985432
  endloop
 endfacet
 facet normal 0.612436 0.358560 0.704527
  outer loop
   vertex 57.860153 802.735901 41.364193
   vertex 50.879436 802.735901 47.432438
   vertex 57.868073 802.704468 41.373306
  endloop
 endfacet
 facet normal 0.612420 0.358624 0.704508
  outer loop
   vertex 57.868073 802.704468 41.373306
   vertex 50.879436 802.735901 47.432438
   vertex 50.887360 802.704468 47.441551
  endloop
 endfacet
 facet normal 0.000000 1.000000 0.000000
  outer loop
   vertex 50.887360 802.704468 47.441551
   vertex 51.264694 802.704468 47.875626
   vertex 57.868073 802.704468 41.373306
  endloop
 endfacet
 facet normal 0.389576 0.804603 0.448156
  outer loop
   vertex 58.340862 801.366882 41.917187
   vertex 58.268974 801.447754 41.834484
   vertex 51.288258 801.447754 47.902733
  endloop
 endfacet
 facet normal 0.656059 -0.000000 0.754709
  outer loop
   vertex 51.288258 801.447754 47.902733
   vertex 58.268974 801.447754 41.834484
   vertex 58.268974 802.552246 41.834484
  endloop
 endfacet
 facet normal 0.656059 0.000000 0.754709
  outer loop
   vertex 58.268974 802.552246 41.834484
   vertex 51.288258 802.552246 47.902733
   vertex 51.288258 801.447754 47.902733
  endloop
 endfacet
 facet normal 0.389583 -0.804596 0.448164
  outer loop
   vertex 51.360146 802.633118 47.985432
   vertex 51.288258 802.552246 47.902733
   vertex 58.268974 802.552246 41.834484
  endloop
 endfacet
 facet normal 0.000000 1.000000 0.000000
  outer loop
   vertex 51.360146 802.735901 47.985432
   vertex 58.340862 802.735901 41.917187
   vertex 51.272617 802.735901 47.884739
  endloop
 endfacet
 facet normal 0.000000 1.000000 -0.000000
  outer loop
   vertex 51.272617 802.735901 47.884739
   vertex 58.340862 802.735901 41.917187
   vertex 58.253334 802.735901 41.816494
  endloop
 endfacet
 facet normal -0.612419 0.358624 -0.704508
  outer loop
   vertex 58.253334 802.735901 41.816494
   vertex 51.264694 802.704468 47.875626
   vertex 51.272617 802.735901 47.884739
  endloop
 endfacet
 facet normal -0.612419 0.358624 -0.704508
  outer loop
   vertex 58.245411 802.704468 41.807381
   vertex 51.264694 802.704468 47.875626
   vertex 58.253334 802.735901 41.816494
  endloop
 endfacet
 facet normal 0.000000 1.000000 0.000000
  outer loop
   vertex 57.868073 802.704468 41.373306
   vertex 51.264694 802.704468 47.875626
   vertex 58.245411 802.704468 41.807381
  endloop
 endfacet
 facet normal 0.754710 0.000000 -0.656059
  outer loop
   vertex 58.759426 801.247070 41.578125
   vertex 58.208008 802.752930 40.943790
   vertex 58.759426 802.752930 41.578125
  endloop
 endfacet
 facet normal -0.000000 1.000000 -0.000000
  outer loop
   vertex 58.759426 802.752930 41.578125
   vertex 58.208008 802.752930 40.943790
   vertex 58.004715 802.752930 42.234184
  endloop
 endfacet
 facet normal 0.656058 -0.000000 0.754710
  outer loop
   vertex 58.004715 802.752930 42.234184
   vertex 58.004715 801.247070 42.234184
   vertex 58.759426 802.752930 41.578125
  endloop
 endfacet
 facet normal -0.754710 -0.000000 0.656059
  outer loop
   vertex 57.453297 802.752930 41.599850
   vertex 58.004715 801.247070 42.234184
   vertex 58.004715 802.752930 42.234184
  endloop
 endfacet
 facet normal -0.754710 0.000000 0.656059
  outer loop
   vertex 57.453297 801.247070 41.599850
   vertex 58.004715 801.247070 42.234184
   vertex 57.453297 802.752930 41.599850
  endloop
 endfacet
 facet normal -0.656058 -0.000000 -0.754710
  outer loop
   vertex 57.453297 802.752930 41.599850
   vertex 58.208008 802.752930 40.943790
   vertex 57.453297 801.247070 41.599850
  endloop
 endfacet
 facet normal -0.656058 -0.000000 -0.754710
  outer loop
   vertex 57.453297 801.247070 41.599850
   vertex 58.208008 802.752930 40.943790
   vertex 58.208008 801.247070 40.943790
  endloop
 endfacet
 facet normal 0.754710 -0.000000 -0.656059
  outer loop
   vertex 58.208008 801.247070 40.943790
   vertex 58.208008 802.752930 40.943790
   vertex 58.759426 801.247070 41.578125
  endloop
 endfacet
 facet normal 0.000000 -1.000000 0.000000
  outer loop
   vertex 58.759426 801.247070 41.578125
   vertex 58.004715 801.247070 42.234184
   vertex 58.208008 801.247070 40.943790
  endloop
 endfacet
 facet normal 0.656058 -0.000000 0.754710
  outer loop
   vertex 58.759426 802.752930 41.578125
   vertex 58.004715 801.247070 42.234184
   vertex 58.759426 801.247070 41.578125
  endloop
 endfacet
 facet normal 0.754710 0.000000 -0.656059
  outer loop
   vertex 51.720840 802.752930 47.696674
   vertex 51.720840 801.247070 47.696674
   vertex 51.169422 802.752930 47.062340
  endloop
 endfacet
 facet normal 0.754710 -0.000000 -0.656059
  outer loop
   vertex 51.169422 802.752930 47.062340
   vertex 51.720840 801.247070 47.696674
   vertex 51.169422 801.247070 47.062340
  endloop
 endfacet
 facet normal -0.656060 0.000000 -0.754708
  outer loop
   vertex 51.169422 801.247070 47.062340
   vertex 50.414715 801.247070 47.718399
   vertex 51.169422 802.752930 47.062340
  endloop
 endfacet
 facet normal -0.000000 -1.000000 -0.000000
  outer loop
   vertex 51.720840 801.247070 47.696674
   vertex 50.414715 801.247070 47.718399
   vertex 51.169422 801.247070 47.062340
  endloop
 endfacet
 facet normal 0.000000 -1.000000 0.000000
  outer loop
   vertex 50.966133 801.247070 48.352730
   vertex 50.414715 801.247070 47.718399
   vertex 51.720840 801.247070 47.696674
  endloop
 endfacet
 facet normal 0.656058 -0.000002 0.754710
  outer loop
   vertex 51.720840 801.247070 47.696674
   vertex 50.966133 802.752930 48.352734
   vertex 50.966133 801.247070 48.352730
  endloop
 endfacet
 facet normal -0.754708 -0.000002 0.656061
  outer loop
   vertex 50.966133 801.247070 48.352730
   vertex 50.966133 802.752930 48.352734
   vertex 50.414715 801.247070 47.718399
  endloop
 endfacet
 facet normal -0.754710 -0.000000 0.656059
  outer loop
   vertex 50.414715 801.247070 47.718399
   vertex 50.966133 802.752930 48.352734
   vertex 50.414715 802.752930 47.718399
  endloop
 endfacet
 facet normal -0.656060 0.000000 -0.754708
  outer loop
   vertex 50.414715 802.752930 47.718399
   vertex 51.169422 802.752930 47.062340
   vertex 50.414715 801.247070 47.718399
  endloop
 endfacet
 facet normal -0.000000 1.000000 -0.000000
  outer loop
   vertex 50.966133 802.752930 48.352734
   vertex 51.169422 802.752930 47.062340
   vertex 50.414715 802.752930 47.718399
  endloop
 endfacet
 facet normal 0.000000 1.000000 -0.000000
  outer loop
   vertex 51.720840 802.752930 47.696674
   vertex 51.169422 802.752930 47.062340
   vertex 50.966133 802.752930 48.352734
  endloop
 endfacet
 facet normal 0.656060 -0.000000 0.754708
  outer loop
   vertex 50.966133 802.752930 48.352734
   vertex 51.720840 801.247070 47.696674
   vertex 51.720840 802.752930 47.696674
  endloop
 endfacet
 facet normal 0.656059 -0.000000 0.754710
  outer loop
   vertex 51.360146 801.366882 47.985432
   vertex 51.360146 801.264099 47.985432
   vertex 58.340862 801.264099 41.917187
  endloop
 endfacet
 facet normal -0.000000 -1.000000 -0.000000
  outer loop
   vertex 58.340862 801.264099 41.917187
   vertex 51.360146 801.264099 47.985432
   vertex 51.272617 801.264099 47.884739
  endloop
 endfacet
 facet normal 0.000000 -1.000000 0.000000
  outer loop
   vertex 51.272617 801.264099 47.884739
   vertex 58.253334 801.264099 41.816494
   vertex 58.340862 801.264099 41.917187
  endloop
 endfacet
 facet normal -0.612419 -0.358624 -0.704508
  outer loop
   vertex 51.264694 801.295532 47.875626
   vertex 58.253334 801.264099 41.816494
   vertex 51.272617 801.264099 47.884739
  endloop
 endfacet
 facet normal -0.612419 -0.358624 -0.704508
  outer loop
   vertex 58.245411 801.295532 41.807381
   vertex 58.253334 801.264099 41.816494
   vertex 51.264694 801.295532 47.875626
  endloop
 endfacet
 facet normal 0.000000 -1.000000 -0.000000
  outer loop
   vertex 51.264694 801.295532 47.875626
   vertex 50.887360 801.295532 47.441551
   vertex 58.245411 801.295532 41.807381
  endloop
 endfacet
 facet normal 0.000000 -1.000000 0.000000
  outer loop
   vertex 58.245411 801.295532 41.807381
   vertex 50.887360 801.295532 47.441551
   vertex 57.868073 801.295532 41.373306
  endloop
 endfacet
 facet normal 0.612420 -0.358624 0.704508
  outer loop
   vertex 57.868073 801.295532 41.373306
   vertex 50.887360 801.295532 47.441551
   vertex 50.879436 801.264099 47.432438
  endloop
 endfacet
 facet normal 0.612417 -0.358634 0.704505
  outer loop
   vertex 50.879436 801.264099 47.432438
   vertex 57.860153 801.264099 41.364189
   vertex 57.868073 801.295532 41.373306
  endloop
 endfacet
 facet normal -0.000000 -1.000000 -0.000000
  outer loop
   vertex 50.836006 801.264099 47.382473
   vertex 57.860153 801.264099 41.364189
   vertex 50.879436 801.264099 47.432438
  endloop
 endfacet
 facet normal -0.000000 -1.000000 0.000000
  outer loop
   vertex 57.816719 801.264099 41.314228
   vertex 57.860153 801.264099 41.364189
   vertex 50.836006 801.264099 47.382473
  endloop
 endfacet
 facet normal -0.656059 0.000000 -0.754709
  outer loop
   vertex 50.836006 801.264099 47.382473
   vertex 50.836002 802.735901 47.382477
   vertex 57.816719 801.264099 41.314228
  endloop
 endfacet
 facet normal -0.656059 0.000000 -0.754709
  outer loop
   vertex 57.816719 801.264099 41.314228
   vertex 50.836002 802.735901 47.382477
   vertex 57.816719 802.735901 41.314228
  endloop
 endfacet
 facet normal -0.000000 1.000000 -0.000000
  outer loop
   vertex 57.816719 802.735901 41.314228
   vertex 50.836002 802.735901 47.382477
   vertex 57.860153 802.735901 41.364193
  endloop
 endfacet
 facet normal 0.000000 1.000000 0.000000
  outer loop
   vertex 57.453297 802.752930 41.599850
   vertex 58.004715 802.752930 42.234184
   vertex 58.208008 802.752930 40.943790
  endloop
 endfacet
 facet normal 0.000000 -1.000000 0.000000
  outer loop
   vertex 58.004715 801.247070 42.234184
   vertex 57.453297 801.247070 41.599850
   vertex 58.208008 801.247070 40.943790
  endloop
 endfacet
 facet normal 0.000000 1.000000 0.000000
  outer loop
   vertex 50.836002 802.735901 47.382477
   vertex 50.879436 802.735901 47.432438
   vertex 57.860153 802.735901 41.364193
  endloop
 endfacet
 facet normal -0.697258 -0.382693 0.606116
  outer loop
   vertex 48.755276 802.000000 46.589687
   vertex 48.099216 802.000000 45.834976
   vertex 48.976326 801.292908 46.397530
  endloop
 endfacet
 facet normal -0.697258 -0.382690 0.606119
  outer loop
   vertex 48.976326 801.292908 46.397530
   vertex 48.099216 802.000000 45.834976
   vertex 48.320267 801.292908 45.642822
  endloop
 endfacet
 facet normal -0.288828 -0.923872 0.251075
  outer loop
   vertex 48.320267 801.292908 45.642822
   vertex 49.509983 801.000000 45.933628
   vertex 48.976326 801.292908 46.397530
  endloop
 endfacet
 facet normal -0.288828 -0.923873 0.251074
  outer loop
   vertex 48.853924 801.000000 45.178917
   vertex 49.509983 801.000000 45.933628
   vertex 48.320267 801.292908 45.642822
  endloop
 endfacet
 facet normal 0.288827 -0.923873 -0.251073
  outer loop
   vertex 50.043644 801.292908 45.469723
   vertex 49.509983 801.000000 45.933628
   vertex 48.853924 801.000000 45.178917
  endloop
 endfacet
 facet normal 0.288827 -0.923873 -0.251073
  outer loop
   vertex 48.853924 801.000000 45.178917
   vertex 49.387585 801.292908 44.715012
   vertex 50.043644 801.292908 45.469723
  endloop
 endfacet
 facet normal 0.697259 -0.382690 -0.606117
  outer loop
   vertex 50.043644 801.292908 45.469723
   vertex 49.387585 801.292908 44.715012
   vertex 50.264694 802.000000 45.277569
  endloop
 endfacet
 facet normal 0.697259 -0.382690 -0.606117
  outer loop
   vertex 50.264694 802.000000 45.277569
   vertex 49.387585 801.292908 44.715012
   vertex 49.608635 802.000000 44.522858
  endloop
 endfacet
 facet normal 0.697259 0.382690 -0.606117
  outer loop
   vertex 49.608635 802.000000 44.522858
   vertex 50.043644 802.707092 45.469723
   vertex 50.264694 802.000000 45.277569
  endloop
 endfacet
 facet normal 0.697259 0.382690 -0.606117
  outer loop
   vertex 49.387585 802.707092 44.715012
   vertex 50.043644 802.707092 45.469723
   vertex 49.608635 802.000000 44.522858
  endloop
 endfacet
 facet normal 0.288827 0.923873 -0.251073
  outer loop
   vertex 49.509983 803.000000 45.933628
   vertex 50.043644 802.707092 45.469723
   vertex 49.387585 802.707092 44.715012
  endloop
 endfacet
 facet normal 0.288827 0.923873 -0.251073
  outer loop
   vertex 49.387585 802.707092 44.715012
   vertex 48.853924 803.000000 45.178917
   vertex 49.509983 803.000000 45.933628
  endloop
 endfacet
 facet normal -0.288828 0.923873 0.251074
  outer loop
   vertex 49.509983 803.000000 45.933628
   vertex 48.853924 803.000000 45.178917
   vertex 48.976322 802.707092 46.397530
  endloop
 endfacet
 facet normal -0.288828 0.923873 0.251074
  outer loop
   vertex 48.976322 802.707092 46.397530
   vertex 48.853924 803.000000 45.178917
   vertex 48.320267 802.707092 45.642822
  endloop
 endfacet
 facet normal -0.697260 0.382690 0.606117
  outer loop
   vertex 48.320267 802.707092 45.642822
   vertex 48.755276 802.000000 46.589687
   vertex 48.976322 802.707092 46.397530
  endloop
 endfacet
 facet normal -0.697259 0.382690 0.606117
  outer loop
   vertex 48.099216 802.000000 45.834976
   vertex 48.755276 802.000000 46.589687
   vertex 48.320267 802.707092 45.642822
  endloop
 endfacet
 facet normal 0.697246 0.382733 -0.606106
  outer loop
   vertex 57.349407 802.176758 40.430634
   vertex 58.060730 802.000000 41.137302
   vertex 57.404671 802.000000 40.382591
  endloop
 endfacet
 facet normal 0.697249 -0.382721 -0.606109
  outer loop
   vertex 57.404671 802.000000 40.382591
   vertex 58.060730 802.000000 41.137302
   vertex 58.005466 801.823242 41.185341
  endloop
 endfacet
 facet normal 0.697249 -0.382721 -0.606109
  outer loop
   vertex 58.005466 801.823242 41.185341
   vertex 57.349407 801.823242 40.430630
   vertex 57.404671 802.000000 40.382591
  endloop
 endfacet
 facet normal 0.288880 -0.923844 -0.251119
  outer loop
   vertex 57.872051 801.750000 41.301315
   vertex 57.349407 801.823242 40.430630
   vertex 58.005466 801.823242 41.185341
  endloop
 endfacet
 facet normal 0.288876 -0.923846 -0.251117
  outer loop
   vertex 57.215992 801.750000 40.546608
   vertex 57.349407 801.823242 40.430630
   vertex 57.872051 801.750000 41.301315
  endloop
 endfacet
 facet normal -0.288876 -0.923846 0.251117
  outer loop
   vertex 57.872051 801.750000 41.301315
   vertex 57.738636 801.823242 41.417294
   vertex 57.215992 801.750000 40.546608
  endloop
 endfacet
 facet normal -0.288880 -0.923844 0.251119
  outer loop
   vertex 57.215992 801.750000 40.546608
   vertex 57.738636 801.823242 41.417294
   vertex 57.082577 801.823242 40.662582
  endloop
 endfacet
 facet normal -0.697249 -0.382721 0.606109
  outer loop
   vertex 57.082577 801.823242 40.662582
   vertex 57.738636 801.823242 41.417294
   vertex 57.683372 802.000000 41.465332
  endloop
 endfacet
 facet normal -0.697249 -0.382721 0.606109
  outer loop
   vertex 57.683372 802.000000 41.465332
   vertex 57.027313 802.000000 40.710621
   vertex 57.082577 801.823242 40.662582
  endloop
 endfacet
 facet normal -0.697249 0.382721 0.606109
  outer loop
   vertex 57.738636 802.176758 41.417294
   vertex 57.027313 802.000000 40.710621
   vertex 57.683372 802.000000 41.465332
  endloop
 endfacet
 facet normal -0.697249 0.382721 0.606109
  outer loop
   vertex 57.082577 802.176758 40.662582
   vertex 57.027313 802.000000 40.710621
   vertex 57.738636 802.176758 41.417294
  endloop
 endfacet
 facet normal -0.288876 0.923846 0.251116
  outer loop
   vertex 57.738636 802.176758 41.417294
   vertex 57.872051 802.250000 41.301315
   vertex 57.082577 802.176758 40.662582
  endloop
 endfacet
 facet normal -0.288879 0.923844 0.251120
  outer loop
   vertex 57.082577 802.176758 40.662582
   vertex 57.872051 802.250000 41.301315
   vertex 57.215992 802.250000 40.546608
  endloop
 endfacet
 facet normal 0.288879 0.923844 -0.251120
  outer loop
   vertex 57.215992 802.250000 40.546608
   vertex 57.872051 802.250000 41.301315
   vertex 58.005466 802.176758 41.185341
  endloop
 endfacet
 facet normal 0.288879 0.923844 -0.251120
  outer loop
   vertex 58.005466 802.176758 41.185341
   vertex 57.349407 802.176758 40.430634
   vertex 57.215992 802.250000 40.546608
  endloop
 endfacet
 facet normal 0.697248 0.382721 -0.606110
  outer loop
   vertex 58.060730 802.000000 41.137302
   vertex 57.349407 802.176758 40.430634
   vertex 58.005466 802.176758 41.185341
  endloop
 endfacet
 facet normal 0.697258 0.382690 -0.606119
  outer loop
   vertex 56.444118 802.707092 38.580860
   vertex 57.321228 802.000000 39.143414
   vertex 56.665169 802.000000 38.388706
  endloop
 endfacet
 facet normal 0.697257 -0.382693 -0.606118
  outer loop
   vertex 56.665169 802.000000 38.388706
   vertex 57.321228 802.000000 39.143414
   vertex 57.100178 801.292908 39.335571
  endloop
 endfacet
 facet normal 0.697259 -0.382690 -0.606117
  outer loop
   vertex 57.100178 801.292908 39.335571
   vertex 56.444118 801.292908 38.580860
   vertex 56.665169 802.000000 38.388706
  endloop
 endfacet
 facet normal 0.288829 -0.923872 -0.251074
  outer loop
   vertex 56.566521 801.000000 39.799473
   vertex 56.444118 801.292908 38.580860
   vertex 57.100178 801.292908 39.335571
  endloop
 endfacet
 facet normal 0.288827 -0.923873 -0.251074
  outer loop
   vertex 55.910461 801.000000 39.044765
   vertex 56.444118 801.292908 38.580860
   vertex 56.566521 801.000000 39.799473
  endloop
 endfacet
 facet normal -0.288826 -0.923873 0.251074
  outer loop
   vertex 56.566521 801.000000 39.799473
   vertex 56.032860 801.292908 40.263378
   vertex 55.910461 801.000000 39.044765
  endloop
 endfacet
 facet normal -0.288828 -0.923873 0.251074
  outer loop
   vertex 55.910461 801.000000 39.044765
   vertex 56.032860 801.292908 40.263378
   vertex 55.376801 801.292908 39.508667
  endloop
 endfacet
 facet normal -0.697259 -0.382690 0.606117
  outer loop
   vertex 55.376801 801.292908 39.508667
   vertex 56.032860 801.292908 40.263378
   vertex 55.811810 802.000000 40.455532
  endloop
 endfacet
 facet normal -0.697257 -0.382693 0.606118
  outer loop
   vertex 55.811810 802.000000 40.455532
   vertex 55.155750 802.000000 39.700825
   vertex 55.376801 801.292908 39.508667
  endloop
 endfacet
 facet normal -0.697258 0.382690 0.606119
  outer loop
   vertex 56.032860 802.707092 40.263378
   vertex 55.155750 802.000000 39.700825
   vertex 55.811810 802.000000 40.455532
  endloop
 endfacet
 facet normal -0.697258 0.382693 0.606116
  outer loop
   vertex 55.376801 802.707092 39.508667
   vertex 55.155750 802.000000 39.700825
   vertex 56.032860 802.707092 40.263378
  endloop
 endfacet
 facet normal -0.288828 0.923873 0.251074
  outer loop
   vertex 56.032860 802.707092 40.263378
   vertex 56.566517 803.000000 39.799473
   vertex 55.376801 802.707092 39.508667
  endloop
 endfacet
 facet normal -0.288828 0.923872 0.251075
  outer loop
   vertex 55.376801 802.707092 39.508667
   vertex 56.566517 803.000000 39.799473
   vertex 55.910458 803.000000 39.044765
  endloop
 endfacet
 facet normal 0.288827 0.923873 -0.251074
  outer loop
   vertex 55.910458 803.000000 39.044765
   vertex 56.566517 803.000000 39.799473
   vertex 57.100178 802.707092 39.335571
  endloop
 endfacet
 facet normal 0.288827 0.923873 -0.251073
  outer loop
   vertex 57.100178 802.707092 39.335571
   vertex 56.444118 802.707092 38.580860
   vertex 55.910458 803.000000 39.044765
  endloop
 endfacet
 facet normal 0.697258 0.382693 -0.606116
  outer loop
   vertex 57.321228 802.000000 39.143414
   vertex 56.444118 802.707092 38.580860
   vertex 57.100178 802.707092 39.335571
  endloop
 endfacet
 facet normal 0.946773 0.314558 -0.068366
  outer loop
   vertex 57.100178 802.707092 39.335571
   vertex 57.411255 802.000000 40.390167
   vertex 57.321228 802.000000 39.143414
  endloop
 endfacet
 facet normal 0.946764 -0.314587 -0.068365
  outer loop
   vertex 57.321228 802.000000 39.143414
   vertex 57.411255 802.000000 40.390167
   vertex 57.355991 801.823242 40.438206
  endloop
 endfacet
 facet normal 0.946774 -0.314557 -0.068361
  outer loop
   vertex 57.355991 801.823242 40.438206
   vertex 57.100178 801.292908 39.335571
   vertex 57.321228 802.000000 39.143414
  endloop
 endfacet
 facet normal 0.611111 -0.759352 0.223447
  outer loop
   vertex 57.222576 801.750000 40.554184
   vertex 57.100178 801.292908 39.335571
   vertex 57.355991 801.823242 40.438206
  endloop
 endfacet
 facet normal 0.611060 -0.759388 0.223465
  outer loop
   vertex 56.566521 801.000000 39.799473
   vertex 57.100178 801.292908 39.335571
   vertex 57.222576 801.750000 40.554184
  endloop
 endfacet
 facet normal 0.136191 -0.759372 0.636244
  outer loop
   vertex 57.222576 801.750000 40.554184
   vertex 57.089161 801.823242 40.670158
   vertex 56.566521 801.000000 39.799473
  endloop
 endfacet
 facet normal 0.136256 -0.759384 0.636216
  outer loop
   vertex 56.566521 801.000000 39.799473
   vertex 57.089161 801.823242 40.670158
   vertex 56.032860 801.292908 40.263378
  endloop
 endfacet
 facet normal -0.199451 -0.314574 0.928042
  outer loop
   vertex 56.032860 801.292908 40.263378
   vertex 57.089161 801.823242 40.670158
   vertex 57.033901 802.000000 40.718197
  endloop
 endfacet
 facet normal -0.199465 -0.314555 0.928046
  outer loop
   vertex 57.033901 802.000000 40.718197
   vertex 55.811810 802.000000 40.455532
   vertex 56.032860 801.292908 40.263378
  endloop
 endfacet
 facet normal -0.199464 0.314577 0.928039
  outer loop
   vertex 57.089161 802.176758 40.670158
   vertex 55.811810 802.000000 40.455532
   vertex 57.033901 802.000000 40.718197
  endloop
 endfacet
 facet normal -0.199462 0.314554 0.928047
  outer loop
   vertex 56.032860 802.707092 40.263378
   vertex 55.811810 802.000000 40.455532
   vertex 57.089161 802.176758 40.670158
  endloop
 endfacet
 facet normal 0.136220 0.759350 0.636264
  outer loop
   vertex 57.089161 802.176758 40.670158
   vertex 57.222576 802.250000 40.554184
   vertex 56.032860 802.707092 40.263378
  endloop
 endfacet
 facet normal 0.136249 0.759390 0.636210
  outer loop
   vertex 56.032860 802.707092 40.263378
   vertex 57.222576 802.250000 40.554184
   vertex 56.566517 803.000000 39.799473
  endloop
 endfacet
 facet normal 0.611096 0.759373 0.223416
  outer loop
   vertex 56.566517 803.000000 39.799473
   vertex 57.222576 802.250000 40.554184
   vertex 57.355991 802.176758 40.438206
  endloop
 endfacet
 facet normal 0.611061 0.759384 0.223474
  outer loop
   vertex 57.355991 802.176758 40.438206
   vertex 57.100178 802.707092 39.335571
   vertex 56.566517 803.000000 39.799473
  endloop
 endfacet
 facet normal 0.946766 0.314583 -0.068347
  outer loop
   vertex 57.411255 802.000000 40.390167
   vertex 57.100178 802.707092 39.335571
   vertex 57.355991 802.176758 40.438206
  endloop
 endfacet
 facet normal -0.697248 -0.382721 0.606110
  outer loop
   vertex 50.626839 802.000000 47.599483
   vertex 49.970779 802.000000 46.844776
   vertex 50.682102 801.823242 47.551445
  endloop
 endfacet
 facet normal -0.697248 -0.382721 0.606110
  outer loop
   vertex 50.682102 801.823242 47.551445
   vertex 49.970779 802.000000 46.844776
   vertex 50.026043 801.823242 46.796738
  endloop
 endfacet
 facet normal -0.288879 -0.923844 0.251120
  outer loop
   vertex 50.026043 801.823242 46.796738
   vertex 50.815517 801.750000 47.435471
   vertex 50.682102 801.823242 47.551445
  endloop
 endfacet
 facet normal -0.288876 -0.923846 0.251116
  outer loop
   vertex 50.159458 801.750000 46.680759
   vertex 50.815517 801.750000 47.435471
   vertex 50.026043 801.823242 46.796738
  endloop
 endfacet
 facet normal 0.288876 -0.923846 -0.251116
  outer loop
   vertex 50.948933 801.823242 47.319492
   vertex 50.815517 801.750000 47.435471
   vertex 50.159458 801.750000 46.680759
  endloop
 endfacet
 facet normal 0.288879 -0.923844 -0.251120
  outer loop
   vertex 50.159458 801.750000 46.680759
   vertex 50.292873 801.823242 46.564785
   vertex 50.948933 801.823242 47.319492
  endloop
 endfacet
 facet normal 0.697248 -0.382721 -0.606110
  outer loop
   vertex 50.948933 801.823242 47.319492
   vertex 50.292873 801.823242 46.564785
   vertex 51.004196 802.000000 47.271454
  endloop
 endfacet
 facet normal 0.697248 -0.382721 -0.606110
  outer loop
   vertex 51.004196 802.000000 47.271454
   vertex 50.292873 801.823242 46.564785
   vertex 50.348137 802.000000 46.516747
  endloop
 endfacet
 facet normal 0.697248 0.382721 -0.606110
  outer loop
   vertex 50.348137 802.000000 46.516747
   vertex 50.948933 802.176758 47.319492
   vertex 51.004196 802.000000 47.271454
  endloop
 endfacet
 facet normal 0.697248 0.382721 -0.606110
  outer loop
   vertex 50.292873 802.176758 46.564785
   vertex 50.948933 802.176758 47.319492
   vertex 50.348137 802.000000 46.516747
  endloop
 endfacet
 facet normal 0.288876 0.923846 -0.251117
  outer loop
   vertex 50.815517 802.250000 47.435471
   vertex 50.948933 802.176758 47.319492
   vertex 50.292873 802.176758 46.564785
  endloop
 endfacet
 facet normal 0.288880 0.923844 -0.251119
  outer loop
   vertex 50.292873 802.176758 46.564785
   vertex 50.159458 802.250000 46.680759
   vertex 50.815517 802.250000 47.435471
  endloop
 endfacet
 facet normal -0.288880 0.923844 0.251119
  outer loop
   vertex 50.815517 802.250000 47.435471
   vertex 50.159458 802.250000 46.680759
   vertex 50.682102 802.176758 47.551445
  endloop
 endfacet
 facet normal -0.288876 0.923846 0.251117
  outer loop
   vertex 50.682102 802.176758 47.551445
   vertex 50.159458 802.250000 46.680759
   vertex 50.026043 802.176758 46.796738
  endloop
 endfacet
 facet normal -0.697248 0.382721 0.606110
  outer loop
   vertex 50.026043 802.176758 46.796738
   vertex 50.626839 802.000000 47.599483
   vertex 50.682102 802.176758 47.551445
  endloop
 endfacet
 facet normal -0.697248 0.382721 0.606110
  outer loop
   vertex 49.970779 802.000000 46.844776
   vertex 50.626839 802.000000 47.599483
   vertex 50.026043 802.176758 46.796738
  endloop
 endfacet
 facet normal -0.199453 0.314574 0.928042
  outer loop
   vertex 50.032627 802.176758 46.804314
   vertex 48.976322 802.707092 46.397530
   vertex 49.977367 802.000000 46.852352
  endloop
 endfacet
 facet normal -0.199465 0.314559 0.928044
  outer loop
   vertex 49.977367 802.000000 46.852352
   vertex 48.976322 802.707092 46.397530
   vertex 48.755276 802.000000 46.589687
  endloop
 endfacet
 facet normal -0.199464 -0.314577 0.928039
  outer loop
   vertex 48.755276 802.000000 46.589687
   vertex 50.032627 801.823242 46.804314
   vertex 49.977367 802.000000 46.852352
  endloop
 endfacet
 facet normal -0.199462 -0.314559 0.928045
  outer loop
   vertex 48.976326 801.292908 46.397530
   vertex 50.032627 801.823242 46.804314
   vertex 48.755276 802.000000 46.589687
  endloop
 endfacet
 facet normal 0.136226 -0.759357 0.636254
  outer loop
   vertex 50.166042 801.750000 46.688335
   vertex 50.032627 801.823242 46.804314
   vertex 48.976326 801.292908 46.397530
  endloop
 endfacet
 facet normal 0.136248 -0.759388 0.636213
  outer loop
   vertex 48.976326 801.292908 46.397530
   vertex 49.509983 801.000000 45.933628
   vertex 50.166042 801.750000 46.688335
  endloop
 endfacet
 facet normal 0.611094 -0.759374 0.223420
  outer loop
   vertex 50.166042 801.750000 46.688335
   vertex 49.509983 801.000000 45.933628
   vertex 50.299458 801.823242 46.572361
  endloop
 endfacet
 facet normal 0.611061 -0.759384 0.223473
  outer loop
   vertex 50.299458 801.823242 46.572361
   vertex 49.509983 801.000000 45.933628
   vertex 50.043644 801.292908 45.469723
  endloop
 endfacet
 facet normal 0.946766 -0.314583 -0.068347
  outer loop
   vertex 50.043644 801.292908 45.469723
   vertex 50.354721 802.000000 46.524323
   vertex 50.299458 801.823242 46.572361
  endloop
 endfacet
 facet normal 0.946773 -0.314558 -0.068366
  outer loop
   vertex 50.264694 802.000000 45.277569
   vertex 50.354721 802.000000 46.524323
   vertex 50.043644 801.292908 45.469723
  endloop
 endfacet
 facet normal 0.946764 0.314587 -0.068365
  outer loop
   vertex 50.299458 802.176758 46.572361
   vertex 50.354721 802.000000 46.524323
   vertex 50.264694 802.000000 45.277569
  endloop
 endfacet
 facet normal 0.946774 0.314557 -0.068361
  outer loop
   vertex 50.264694 802.000000 45.277569
   vertex 50.043644 802.707092 45.469723
   vertex 50.299458 802.176758 46.572361
  endloop
 endfacet
 facet normal 0.611107 0.759354 0.223448
  outer loop
   vertex 50.299458 802.176758 46.572361
   vertex 50.043644 802.707092 45.469723
   vertex 50.166042 802.250000 46.688335
  endloop
 endfacet
 facet normal 0.611058 0.759389 0.223466
  outer loop
   vertex 50.166042 802.250000 46.688335
   vertex 50.043644 802.707092 45.469723
   vertex 49.509983 803.000000 45.933628
  endloop
 endfacet
 facet normal 0.136203 0.759375 0.636238
  outer loop
   vertex 49.509983 803.000000 45.933628
   vertex 50.032627 802.176758 46.804314
   vertex 50.166042 802.250000 46.688335
  endloop
 endfacet
 facet normal 0.136253 0.759383 0.636217
  outer loop
   vertex 48.976322 802.707092 46.397530
   vertex 50.032627 802.176758 46.804314
   vertex 49.509983 803.000000 45.933628
  endloop
 endfacet
endsolid