solid stl file generated from DOUG
 facet normal -0.001494 0.804395 0.594093
  outer loop
   vertex 9.160848 1028.947754 69.326103
   vertex 9.160572 1028.866821 69.435684
   vertex 18.410084 1028.866821 69.458946
  endloop
 endfacet
 facet normal -0.002515 -0.000000 0.999997
  outer loop
   vertex 18.410084 1028.866821 69.458946
   vertex 9.160572 1028.866821 69.435684
   vertex 18.410084 1028.764160 69.458946
  endloop
 endfacet
 facet normal -0.001494 -0.804395 0.594093
  outer loop
   vertex 18.410358 1030.052246 69.349365
   vertex 18.410084 1030.133179 69.458946
   vertex 9.160572 1030.133179 69.435684
  endloop
 endfacet
 facet normal -0.002515 -0.000000 0.999997
  outer loop
   vertex 9.160572 1030.133179 69.435684
   vertex 18.410084 1030.133179 69.458946
   vertex 18.410084 1030.235840 69.458946
  endloop
 endfacet
 facet normal -0.002515 0.000000 0.999997
  outer loop
   vertex 18.410084 1030.235840 69.458946
   vertex 9.160572 1030.235840 69.435684
   vertex 9.160572 1030.133179 69.435684
  endloop
 endfacet
 facet normal -0.002347 0.359269 0.933231
  outer loop
   vertex 18.411926 1030.235840 68.726219
   vertex 9.162415 1030.235840 68.702957
   vertex 18.411896 1030.204468 68.738297
  endloop
 endfacet
 facet normal -0.002347 0.359269 0.933231
  outer loop
   vertex 18.411896 1030.204468 68.738297
   vertex 9.162415 1030.235840 68.702957
   vertex 9.162384 1030.204468 68.715034
  endloop
 endfacet
 facet normal 0.000000 1.000000 0.000000
  outer loop
   vertex 9.162384 1030.204468 68.715034
   vertex 9.160937 1030.204468 69.290192
   vertex 18.411896 1030.204468 68.738297
  endloop
 endfacet
 facet normal -0.001494 0.804395 0.594093
  outer loop
   vertex 18.410084 1028.866821 69.458946
   vertex 18.410358 1028.947754 69.349365
   vertex 9.160848 1028.947754 69.326103
  endloop
 endfacet
 facet normal -0.002515 -0.000000 0.999997
  outer loop
   vertex 9.160848 1028.947754 69.326103
   vertex 18.410358 1028.947754 69.349365
   vertex 18.410358 1030.052246 69.349365
  endloop
 endfacet
 facet normal -0.002515 0.000000 0.999997
  outer loop
   vertex 18.410358 1030.052246 69.349365
   vertex 9.160848 1030.052246 69.326103
   vertex 9.160848 1028.947754 69.326103
  endloop
 endfacet
 facet normal -0.001494 -0.804395 0.594093
  outer loop
   vertex 9.160572 1030.133179 69.435684
   vertex 9.160848 1030.052246 69.326103
   vertex 18.410358 1030.052246 69.349365
  endloop
 endfacet
 facet normal 0.000000 1.000000 0.000000
  outer loop
   vertex 9.160572 1030.235840 69.435684
   vertex 18.410084 1030.235840 69.458946
   vertex 9.160907 1030.235840 69.302261
  endloop
 endfacet
 facet normal -0.000000 1.000000 0.000000
  outer loop
   vertex 9.160907 1030.235840 69.302261
   vertex 18.410084 1030.235840 69.458946
   vertex 18.410419 1030.235840 69.325523
  endloop
 endfacet
 facet normal 0.002347 0.359071 -0.933307
  outer loop
   vertex 18.410419 1030.235840 69.325523
   vertex 9.160937 1030.204468 69.290192
   vertex 9.160907 1030.235840 69.302261
  endloop
 endfacet
 facet normal 0.002347 0.359071 -0.933307
  outer loop
   vertex 18.410450 1030.204468 69.313454
   vertex 9.160937 1030.204468 69.290192
   vertex 18.410419 1030.235840 69.325523
  endloop
 endfacet
 facet normal -0.000000 1.000000 0.000000
  outer loop
   vertex 18.411896 1030.204468 68.738297
   vertex 9.160937 1030.204468 69.290192
   vertex 18.410450 1030.204468 69.313454
  endloop
 endfacet
 facet normal 0.999997 0.000000 0.002514
  outer loop
   vertex 18.948372 1028.747070 69.479004
   vertex 18.950485 1030.252930 68.638504
   vertex 18.948372 1030.252930 69.479004
  endloop
 endfacet
 facet normal -0.000000 1.000000 -0.000000
  outer loop
   vertex 18.948372 1030.252930 69.479004
   vertex 18.950485 1030.252930 68.638504
   vertex 17.948376 1030.252930 69.476486
  endloop
 endfacet
 facet normal -0.002518 0.000000 0.999997
  outer loop
   vertex 17.948376 1030.252930 69.476486
   vertex 17.948376 1028.747070 69.476486
   vertex 18.948372 1030.252930 69.479004
  endloop
 endfacet
 facet normal -0.999997 0.000000 -0.002514
  outer loop
   vertex 17.950489 1030.252930 68.635994
   vertex 17.948376 1028.747070 69.476486
   vertex 17.948376 1030.252930 69.476486
  endloop
 endfacet
 facet normal -0.999997 0.000000 -0.002514
  outer loop
   vertex 17.950489 1028.747070 68.635994
   vertex 17.948376 1028.747070 69.476486
   vertex 17.950489 1030.252930 68.635994
  endloop
 endfacet
 facet normal 0.002510 -0.000000 -0.999997
  outer loop
   vertex 17.950489 1030.252930 68.635994
   vertex 18.950485 1030.252930 68.638504
   vertex 17.950489 1028.747070 68.635994
  endloop
 endfacet
 facet normal 0.002510 0.000000 -0.999997
  outer loop
   vertex 17.950489 1028.747070 68.635994
   vertex 18.950485 1030.252930 68.638504
   vertex 18.950485 1028.747070 68.638504
  endloop
 endfacet
 facet normal 0.999997 0.000000 0.002514
  outer loop
   vertex 18.950485 1028.747070 68.638504
   vertex 18.950485 1030.252930 68.638504
   vertex 18.948372 1028.747070 69.479004
  endloop
 endfacet
 facet normal 0.000000 -1.000000 0.000000
  outer loop
   vertex 18.948372 1028.747070 69.479004
   vertex 17.948376 1028.747070 69.476486
   vertex 18.950485 1028.747070 68.638504
  endloop
 endfacet
 facet normal -0.002518 -0.000000 0.999997
  outer loop
   vertex 18.948372 1030.252930 69.479004
   vertex 17.948376 1028.747070 69.476486
   vertex 18.948372 1028.747070 69.479004
  endloop
 endfacet
 facet normal 0.999997 0.000001 0.002516
  outer loop
   vertex 9.622186 1030.252930 69.455551
   vertex 9.622187 1028.747070 69.455551
   vertex 9.624300 1030.252930 68.615051
  endloop
 endfacet
 facet normal 0.999997 -0.000000 0.002514
  outer loop
   vertex 9.624300 1030.252930 68.615051
   vertex 9.622187 1028.747070 69.455551
   vertex 9.624300 1028.747070 68.615051
  endloop
 endfacet
 facet normal 0.002518 0.000000 -0.999997
  outer loop
   vertex 9.624300 1028.747070 68.615051
   vertex 8.624303 1028.747070 68.612534
   vertex 9.624300 1030.252930 68.615051
  endloop
 endfacet
 facet normal -0.000000 -1.000000 -0.000000
  outer loop
   vertex 9.622187 1028.747070 69.455551
   vertex 8.624303 1028.747070 68.612534
   vertex 9.624300 1028.747070 68.615051
  endloop
 endfacet
 facet normal 0.000000 -1.000000 0.000000
  outer loop
   vertex 8.622190 1028.747070 69.453033
   vertex 8.624303 1028.747070 68.612534
   vertex 9.622187 1028.747070 69.455551
  endloop
 endfacet
 facet normal -0.002518 -0.000000 0.999997
  outer loop
   vertex 9.622187 1028.747070 69.455551
   vertex 8.622189 1030.252930 69.453033
   vertex 8.622190 1028.747070 69.453033
  endloop
 endfacet
 facet normal -0.999997 -0.000001 -0.002514
  outer loop
   vertex 8.622190 1028.747070 69.453033
   vertex 8.622189 1030.252930 69.453033
   vertex 8.624303 1028.747070 68.612534
  endloop
 endfacet
 facet normal -0.999997 -0.000000 -0.002516
  outer loop
   vertex 8.624303 1028.747070 68.612534
   vertex 8.622189 1030.252930 69.453033
   vertex 8.624303 1030.252930 68.612534
  endloop
 endfacet
 facet normal 0.002518 0.000000 -0.999997
  outer loop
   vertex 8.624303 1030.252930 68.612534
   vertex 9.624300 1030.252930 68.615051
   vertex 8.624303 1028.747070 68.612534
  endloop
 endfacet
 facet normal 0.000000 1.000000 -0.000000
  outer loop
   vertex 8.622189 1030.252930 69.453033
   vertex 9.624300 1030.252930 68.615051
   vertex 8.624303 1030.252930 68.612534
  endloop
 endfacet
 facet normal 0.000000 1.000000 0.000000
  outer loop
   vertex 9.622186 1030.252930 69.455551
   vertex 9.624300 1030.252930 68.615051
   vertex 8.622189 1030.252930 69.453033
  endloop
 endfacet
 facet normal -0.002518 -0.000000 0.999997
  outer loop
   vertex 8.622189 1030.252930 69.453033
   vertex 9.622187 1028.747070 69.455551
   vertex 9.622186 1030.252930 69.455551
  endloop
 endfacet
 facet normal -0.002515 0.000000 0.999997
  outer loop
   vertex 9.160572 1028.866821 69.435684
   vertex 9.160572 1028.764160 69.435684
   vertex 18.410084 1028.764160 69.458946
  endloop
 endfacet
 facet normal 0.000000 -1.000000 -0.000000
  outer loop
   vertex 18.410084 1028.764160 69.458946
   vertex 9.160572 1028.764160 69.435684
   vertex 9.160908 1028.764160 69.302261
  endloop
 endfacet
 facet normal -0.000000 -1.000000 0.000000
  outer loop
   vertex 9.160908 1028.764160 69.302261
   vertex 18.410419 1028.764160 69.325523
   vertex 18.410084 1028.764160 69.458946
  endloop
 endfacet
 facet normal 0.002347 -0.359071 -0.933307
  outer loop
   vertex 9.160938 1028.795532 69.290192
   vertex 18.410419 1028.764160 69.325523
   vertex 9.160908 1028.764160 69.302261
  endloop
 endfacet
 facet normal 0.002346 -0.359269 -0.933231
  outer loop
   vertex 18.410450 1028.795532 69.313446
   vertex 18.410419 1028.764160 69.325523
   vertex 9.160938 1028.795532 69.290192
  endloop
 endfacet
 facet normal -0.000000 -1.000000 0.000000
  outer loop
   vertex 9.160938 1028.795532 69.290192
   vertex 9.162384 1028.795532 68.715034
   vertex 18.410450 1028.795532 69.313446
  endloop
 endfacet
 facet normal 0.000000 -1.000000 0.000000
  outer loop
   vertex 18.410450 1028.795532 69.313446
   vertex 9.162384 1028.795532 68.715034
   vertex 18.411896 1028.795532 68.738297
  endloop
 endfacet
 facet normal -0.002347 -0.359269 0.933231
  outer loop
   vertex 18.411896 1028.795532 68.738297
   vertex 9.162384 1028.795532 68.715034
   vertex 9.162415 1028.764160 68.702957
  endloop
 endfacet
 facet normal -0.002347 -0.359269 0.933231
  outer loop
   vertex 9.162415 1028.764160 68.702957
   vertex 18.411926 1028.764160 68.726219
   vertex 18.411896 1028.795532 68.738297
  endloop
 endfacet
 facet normal -0.000000 -1.000000 -0.000000
  outer loop
   vertex 9.162581 1028.764160 68.636757
   vertex 18.411926 1028.764160 68.726219
   vertex 9.162415 1028.764160 68.702957
  endloop
 endfacet
 facet normal 0.000000 -1.000000 -0.000000
  outer loop
   vertex 18.412092 1028.764160 68.660019
   vertex 18.411926 1028.764160 68.726219
   vertex 9.162581 1028.764160 68.636757
  endloop
 endfacet
 facet normal 0.002515 0.000000 -0.999997
  outer loop
   vertex 9.162581 1028.764160 68.636757
   vertex 9.162580 1030.235840 68.636757
   vertex 18.412092 1028.764160 68.660019
  endloop
 endfacet
 facet normal 0.002515 0.000000 -0.999997
  outer loop
   vertex 18.412092 1028.764160 68.660019
   vertex 9.162580 1030.235840 68.636757
   vertex 18.412092 1030.235840 68.660019
  endloop
 endfacet
 facet normal -0.000000 1.000000 -0.000000
  outer loop
   vertex 18.412092 1030.235840 68.660019
   vertex 9.162580 1030.235840 68.636757
   vertex 18.411926 1030.235840 68.726219
  endloop
 endfacet
 facet normal 0.000000 1.000000 0.000000
  outer loop
   vertex 17.950489 1030.252930 68.635994
   vertex 17.948376 1030.252930 69.476486
   vertex 18.950485 1030.252930 68.638504
  endloop
 endfacet
 facet normal 0.000000 -1.000000 0.000000
  outer loop
   vertex 17.948376 1028.747070 69.476486
   vertex 17.950489 1028.747070 68.635994
   vertex 18.950485 1028.747070 68.638504
  endloop
 endfacet
 facet normal -0.000000 1.000000 0.000000
  outer loop
   vertex 9.162580 1030.235840 68.636757
   vertex 9.162415 1030.235840 68.702957
   vertex 18.411926 1030.235840 68.726219
  endloop
 endfacet
 facet normal -0.923885 -0.382663 -0.002323
  outer loop
   vertex 8.117291 1029.500000 66.670715
   vertex 8.119806 1029.500000 65.670723
   vertex 8.410185 1028.792847 66.671455
  endloop
 endfacet
 facet normal -0.923885 -0.382663 -0.002323
  outer loop
   vertex 8.410185 1028.792847 66.671455
   vertex 8.119806 1029.500000 65.670723
   vertex 8.412700 1028.792847 65.671455
  endloop
 endfacet
 facet normal -0.382631 -0.923901 -0.000962
  outer loop
   vertex 8.412700 1028.792847 65.671455
   vertex 9.117289 1028.500000 66.673233
   vertex 8.410185 1028.792847 66.671455
  endloop
 endfacet
 facet normal -0.382631 -0.923901 -0.000962
  outer loop
   vertex 9.119803 1028.500000 65.673233
   vertex 9.117289 1028.500000 66.673233
   vertex 8.412700 1028.792847 65.671455
  endloop
 endfacet
 facet normal 0.382630 -0.923901 0.000962
  outer loop
   vertex 9.824393 1028.792847 66.675011
   vertex 9.117289 1028.500000 66.673233
   vertex 9.119803 1028.500000 65.673233
  endloop
 endfacet
 facet normal 0.382630 -0.923901 0.000962
  outer loop
   vertex 9.119803 1028.500000 65.673233
   vertex 9.826908 1028.792847 65.675011
   vertex 9.824393 1028.792847 66.675011
  endloop
 endfacet
 facet normal 0.923885 -0.382662 0.002323
  outer loop
   vertex 9.824393 1028.792847 66.675011
   vertex 9.826908 1028.792847 65.675011
   vertex 10.117286 1029.500000 66.675743
  endloop
 endfacet
 facet normal 0.923885 -0.382662 0.002323
  outer loop
   vertex 10.117286 1029.500000 66.675743
   vertex 9.826908 1028.792847 65.675011
   vertex 10.119801 1029.500000 65.675751
  endloop
 endfacet
 facet normal 0.923885 0.382662 0.002323
  outer loop
   vertex 10.119801 1029.500000 65.675751
   vertex 9.824393 1030.207153 66.675011
   vertex 10.117286 1029.500000 66.675743
  endloop
 endfacet
 facet normal 0.923885 0.382662 0.002323
  outer loop
   vertex 9.826908 1030.207153 65.675011
   vertex 9.824393 1030.207153 66.675011
   vertex 10.119801 1029.500000 65.675751
  endloop
 endfacet
 facet normal 0.382630 0.923901 0.000962
  outer loop
   vertex 9.117289 1030.500000 66.673233
   vertex 9.824393 1030.207153 66.675011
   vertex 9.826908 1030.207153 65.675011
  endloop
 endfacet
 facet normal 0.382630 0.923901 0.000962
  outer loop
   vertex 9.826908 1030.207153 65.675011
   vertex 9.119803 1030.500000 65.673233
   vertex 9.117289 1030.500000 66.673233
  endloop
 endfacet
 facet normal -0.382630 0.923901 -0.000962
  outer loop
   vertex 9.117289 1030.500000 66.673233
   vertex 9.119803 1030.500000 65.673233
   vertex 8.410184 1030.207153 66.671455
  endloop
 endfacet
 facet normal -0.382630 0.923901 -0.000962
  outer loop
   vertex 8.410184 1030.207153 66.671455
   vertex 9.119803 1030.500000 65.673233
   vertex 8.412699 1030.207153 65.671455
  endloop
 endfacet
 facet normal -0.923885 0.382662 -0.002323
  outer loop
   vertex 8.412699 1030.207153 65.671455
   vertex 8.117291 1029.500000 66.670715
   vertex 8.410184 1030.207153 66.671455
  endloop
 endfacet
 facet normal -0.923885 0.382662 -0.002323
  outer loop
   vertex 8.119806 1029.500000 65.670723
   vertex 8.117291 1029.500000 66.670715
   vertex 8.412699 1030.207153 65.671455
  endloop
 endfacet
 facet normal 0.923862 0.382718 0.002322
  outer loop
   vertex 18.641546 1029.676758 67.687149
   vertex 18.712255 1029.500000 68.687332
   vertex 18.714769 1029.500000 67.687332
  endloop
 endfacet
 facet normal 0.923862 -0.382718 0.002322
  outer loop
   vertex 18.714769 1029.500000 67.687332
   vertex 18.712255 1029.500000 68.687332
   vertex 18.639032 1029.323242 68.687149
  endloop
 endfacet
 facet normal 0.923862 -0.382718 0.002322
  outer loop
   vertex 18.639032 1029.323242 68.687149
   vertex 18.641546 1029.323242 67.687149
   vertex 18.714769 1029.500000 67.687332
  endloop
 endfacet
 facet normal 0.382765 -0.923845 0.000962
  outer loop
   vertex 18.462255 1029.250000 68.686699
   vertex 18.641546 1029.323242 67.687149
   vertex 18.639032 1029.323242 68.687149
  endloop
 endfacet
 facet normal 0.382769 -0.923844 0.000963
  outer loop
   vertex 18.464771 1029.250000 67.686707
   vertex 18.641546 1029.323242 67.687149
   vertex 18.462255 1029.250000 68.686699
  endloop
 endfacet
 facet normal -0.382765 -0.923845 -0.000963
  outer loop
   vertex 18.462255 1029.250000 68.686699
   vertex 18.285479 1029.323242 68.686256
   vertex 18.464771 1029.250000 67.686707
  endloop
 endfacet
 facet normal -0.382765 -0.923845 -0.000963
  outer loop
   vertex 18.464771 1029.250000 67.686707
   vertex 18.285479 1029.323242 68.686256
   vertex 18.287994 1029.323242 67.686256
  endloop
 endfacet
 facet normal -0.923866 -0.382710 -0.002324
  outer loop
   vertex 18.287994 1029.323242 67.686256
   vertex 18.285479 1029.323242 68.686256
   vertex 18.212257 1029.500000 68.686073
  endloop
 endfacet
 facet normal -0.923862 -0.382718 -0.002322
  outer loop
   vertex 18.212257 1029.500000 68.686073
   vertex 18.214771 1029.500000 67.686073
   vertex 18.287994 1029.323242 67.686256
  endloop
 endfacet
 facet normal -0.923866 0.382710 -0.002322
  outer loop
   vertex 18.285479 1029.676758 68.686256
   vertex 18.214771 1029.500000 67.686073
   vertex 18.212257 1029.500000 68.686073
  endloop
 endfacet
 facet normal -0.923862 0.382718 -0.002324
  outer loop
   vertex 18.287994 1029.676758 67.686256
   vertex 18.214771 1029.500000 67.686073
   vertex 18.285479 1029.676758 68.686256
  endloop
 endfacet
 facet normal -0.382765 0.923845 -0.000963
  outer loop
   vertex 18.285479 1029.676758 68.686256
   vertex 18.462255 1029.750000 68.686699
   vertex 18.287994 1029.676758 67.686256
  endloop
 endfacet
 facet normal -0.382765 0.923845 -0.000963
  outer loop
   vertex 18.287994 1029.676758 67.686256
   vertex 18.462255 1029.750000 68.686699
   vertex 18.464771 1029.750000 67.686707
  endloop
 endfacet
 facet normal 0.382765 0.923845 0.000963
  outer loop
   vertex 18.464771 1029.750000 67.686707
   vertex 18.462255 1029.750000 68.686699
   vertex 18.639032 1029.676758 68.687149
  endloop
 endfacet
 facet normal 0.382769 0.923844 0.000962
  outer loop
   vertex 18.639032 1029.676758 68.687149
   vertex 18.641546 1029.676758 67.687149
   vertex 18.464771 1029.750000 67.686707
  endloop
 endfacet
 facet normal 0.923862 0.382718 0.002322
  outer loop
   vertex 18.712255 1029.500000 68.687332
   vertex 18.641546 1029.676758 67.687149
   vertex 18.639032 1029.676758 68.687149
  endloop
 endfacet
 facet normal 0.923885 0.382662 0.002324
  outer loop
   vertex 19.176880 1030.207153 65.698524
   vertex 19.467257 1029.500000 66.699257
   vertex 19.469772 1029.500000 65.699265
  endloop
 endfacet
 facet normal 0.923885 -0.382662 0.002324
  outer loop
   vertex 19.469772 1029.500000 65.699265
   vertex 19.467257 1029.500000 66.699257
   vertex 19.174364 1028.792847 66.698524
  endloop
 endfacet
 facet normal 0.923885 -0.382662 0.002324
  outer loop
   vertex 19.174364 1028.792847 66.698524
   vertex 19.176880 1028.792847 65.698524
   vertex 19.469772 1029.500000 65.699265
  endloop
 endfacet
 facet normal 0.382631 -0.923901 0.000963
  outer loop
   vertex 18.467260 1028.500000 66.696747
   vertex 19.176880 1028.792847 65.698524
   vertex 19.174364 1028.792847 66.698524
  endloop
 endfacet
 facet normal 0.382630 -0.923901 0.000962
  outer loop
   vertex 18.469774 1028.500000 65.696747
   vertex 19.176880 1028.792847 65.698524
   vertex 18.467260 1028.500000 66.696747
  endloop
 endfacet
 facet normal -0.382630 -0.923901 -0.000962
  outer loop
   vertex 18.467260 1028.500000 66.696747
   vertex 17.760155 1028.792847 66.694969
   vertex 18.469774 1028.500000 65.696747
  endloop
 endfacet
 facet normal -0.382631 -0.923901 -0.000963
  outer loop
   vertex 18.469774 1028.500000 65.696747
   vertex 17.760155 1028.792847 66.694969
   vertex 17.762671 1028.792847 65.694969
  endloop
 endfacet
 facet normal -0.923885 -0.382662 -0.002324
  outer loop
   vertex 17.762671 1028.792847 65.694969
   vertex 17.760155 1028.792847 66.694969
   vertex 17.467262 1029.500000 66.694229
  endloop
 endfacet
 facet normal -0.923885 -0.382662 -0.002324
  outer loop
   vertex 17.467262 1029.500000 66.694229
   vertex 17.469778 1029.500000 65.694237
   vertex 17.762671 1028.792847 65.694969
  endloop
 endfacet
 facet normal -0.923885 0.382662 -0.002324
  outer loop
   vertex 17.760155 1030.207153 66.694969
   vertex 17.469778 1029.500000 65.694237
   vertex 17.467262 1029.500000 66.694229
  endloop
 endfacet
 facet normal -0.923885 0.382662 -0.002324
  outer loop
   vertex 17.762671 1030.207153 65.694969
   vertex 17.469778 1029.500000 65.694237
   vertex 17.760155 1030.207153 66.694969
  endloop
 endfacet
 facet normal -0.382631 0.923901 -0.000963
  outer loop
   vertex 17.760155 1030.207153 66.694969
   vertex 18.467258 1030.500000 66.696747
   vertex 17.762671 1030.207153 65.694969
  endloop
 endfacet
 facet normal -0.382631 0.923901 -0.000963
  outer loop
   vertex 17.762671 1030.207153 65.694969
   vertex 18.467258 1030.500000 66.696747
   vertex 18.469774 1030.500000 65.696747
  endloop
 endfacet
 facet normal 0.382630 0.923901 0.000963
  outer loop
   vertex 18.469774 1030.500000 65.696747
   vertex 18.467258 1030.500000 66.696747
   vertex 19.174364 1030.207153 66.698524
  endloop
 endfacet
 facet normal 0.382630 0.923901 0.000963
  outer loop
   vertex 19.174364 1030.207153 66.698524
   vertex 19.176880 1030.207153 65.698524
   vertex 18.469774 1030.500000 65.696747
  endloop
 endfacet
 facet normal 0.923885 0.382662 0.002324
  outer loop
   vertex 19.467257 1029.500000 66.699257
   vertex 19.176880 1030.207153 65.698524
   vertex 19.174364 1030.207153 66.698524
  endloop
 endfacet
 facet normal 0.757965 0.314530 0.571455
  outer loop
   vertex 19.174364 1030.207153 66.698524
   vertex 18.714745 1029.500000 67.697372
   vertex 19.467257 1029.500000 66.699257
  endloop
 endfacet
 facet normal 0.757952 -0.314579 0.571445
  outer loop
   vertex 19.467257 1029.500000 66.699257
   vertex 18.714745 1029.500000 67.697372
   vertex 18.641521 1029.323242 67.697189
  endloop
 endfacet
 facet normal 0.757961 -0.314528 0.571461
  outer loop
   vertex 18.641521 1029.323242 67.697189
   vertex 19.174364 1028.792847 66.698524
   vertex 19.467257 1029.500000 66.699257
  endloop
 endfacet
 facet normal 0.313158 -0.759343 0.570378
  outer loop
   vertex 18.464745 1029.250000 67.696739
   vertex 19.174364 1028.792847 66.698524
   vertex 18.641521 1029.323242 67.697189
  endloop
 endfacet
 facet normal 0.313073 -0.759403 0.570344
  outer loop
   vertex 18.467260 1028.500000 66.696747
   vertex 19.174364 1028.792847 66.698524
   vertex 18.464745 1029.250000 67.696739
  endloop
 endfacet
 facet normal -0.316051 -0.759373 0.568739
  outer loop
   vertex 18.464745 1029.250000 67.696739
   vertex 18.287970 1029.323242 67.696297
   vertex 18.467260 1028.500000 66.696747
  endloop
 endfacet
 facet normal -0.315932 -0.759394 0.568778
  outer loop
   vertex 18.467260 1028.500000 66.696747
   vertex 18.287970 1029.323242 67.696297
   vertex 17.760155 1028.792847 66.694969
  endloop
 endfacet
 facet normal -0.760795 -0.314576 0.567655
  outer loop
   vertex 17.760155 1028.792847 66.694969
   vertex 18.287970 1029.323242 67.696297
   vertex 18.214746 1029.500000 67.696114
  endloop
 endfacet
 facet normal -0.760828 -0.314530 0.567637
  outer loop
   vertex 18.214746 1029.500000 67.696114
   vertex 17.467262 1029.500000 66.694229
   vertex 17.760155 1028.792847 66.694969
  endloop
 endfacet
 facet normal -0.760813 0.314584 0.567626
  outer loop
   vertex 18.287970 1029.676758 67.696297
   vertex 17.467262 1029.500000 66.694229
   vertex 18.214746 1029.500000 67.696114
  endloop
 endfacet
 facet normal -0.760823 0.314528 0.567644
  outer loop
   vertex 17.760155 1030.207153 66.694969
   vertex 17.467262 1029.500000 66.694229
   vertex 18.287970 1029.676758 67.696297
  endloop
 endfacet
 facet normal -0.316035 0.759334 0.568800
  outer loop
   vertex 18.287970 1029.676758 67.696297
   vertex 18.464745 1029.750000 67.696739
   vertex 17.760155 1030.207153 66.694969
  endloop
 endfacet
 facet normal -0.315936 0.759403 0.568763
  outer loop
   vertex 17.760155 1030.207153 66.694969
   vertex 18.464745 1029.750000 67.696739
   vertex 18.467258 1030.500000 66.696747
  endloop
 endfacet
 facet normal 0.313173 0.759377 0.570324
  outer loop
   vertex 18.467258 1030.500000 66.696747
   vertex 18.464745 1029.750000 67.696739
   vertex 18.641521 1029.676758 67.697189
  endloop
 endfacet
 facet normal 0.313068 0.759395 0.570357
  outer loop
   vertex 18.641521 1029.676758 67.697189
   vertex 19.174364 1030.207153 66.698524
   vertex 18.467258 1030.500000 66.696747
  endloop
 endfacet
 facet normal 0.757935 0.314572 0.571471
  outer loop
   vertex 18.714745 1029.500000 67.697372
   vertex 19.174364 1030.207153 66.698524
   vertex 18.641521 1029.676758 67.697189
  endloop
 endfacet
 facet normal -0.923862 -0.382718 -0.002323
  outer loop
   vertex 8.862285 1029.500000 68.662560
   vertex 8.864799 1029.500000 67.662560
   vertex 8.935508 1029.323242 68.662743
  endloop
 endfacet
 facet normal -0.923862 -0.382718 -0.002323
  outer loop
   vertex 8.935508 1029.323242 68.662743
   vertex 8.864799 1029.500000 67.662560
   vertex 8.938023 1029.323242 67.662743
  endloop
 endfacet
 facet normal -0.382765 -0.923845 -0.000963
  outer loop
   vertex 8.938023 1029.323242 67.662743
   vertex 9.112285 1029.250000 68.663185
   vertex 8.935508 1029.323242 68.662743
  endloop
 endfacet
 facet normal -0.382765 -0.923845 -0.000963
  outer loop
   vertex 9.114799 1029.250000 67.663193
   vertex 9.112285 1029.250000 68.663185
   vertex 8.938023 1029.323242 67.662743
  endloop
 endfacet
 facet normal 0.382767 -0.923844 0.000963
  outer loop
   vertex 9.289061 1029.323242 68.663635
   vertex 9.112285 1029.250000 68.663185
   vertex 9.114799 1029.250000 67.663193
  endloop
 endfacet
 facet normal 0.382767 -0.923844 0.000963
  outer loop
   vertex 9.114799 1029.250000 67.663193
   vertex 9.291575 1029.323242 67.663635
   vertex 9.289061 1029.323242 68.663635
  endloop
 endfacet
 facet normal 0.923862 -0.382718 0.002323
  outer loop
   vertex 9.289061 1029.323242 68.663635
   vertex 9.291575 1029.323242 67.663635
   vertex 9.362284 1029.500000 68.663818
  endloop
 endfacet
 facet normal 0.923862 -0.382718 0.002323
  outer loop
   vertex 9.362284 1029.500000 68.663818
   vertex 9.291575 1029.323242 67.663635
   vertex 9.364799 1029.500000 67.663818
  endloop
 endfacet
 facet normal 0.923862 0.382718 0.002323
  outer loop
   vertex 9.364799 1029.500000 67.663818
   vertex 9.289061 1029.676758 68.663635
   vertex 9.362284 1029.500000 68.663818
  endloop
 endfacet
 facet normal 0.923862 0.382718 0.002323
  outer loop
   vertex 9.291575 1029.676758 67.663635
   vertex 9.289061 1029.676758 68.663635
   vertex 9.364799 1029.500000 67.663818
  endloop
 endfacet
 facet normal 0.382767 0.923844 0.000963
  outer loop
   vertex 9.112285 1029.750000 68.663185
   vertex 9.289061 1029.676758 68.663635
   vertex 9.291575 1029.676758 67.663635
  endloop
 endfacet
 facet normal 0.382767 0.923844 0.000963
  outer loop
   vertex 9.291575 1029.676758 67.663635
   vertex 9.114799 1029.750000 67.663193
   vertex 9.112285 1029.750000 68.663185
  endloop
 endfacet
 facet normal -0.382767 0.923844 -0.000963
  outer loop
   vertex 9.112285 1029.750000 68.663185
   vertex 9.114799 1029.750000 67.663193
   vertex 8.935509 1029.676758 68.662743
  endloop
 endfacet
 facet normal -0.382767 0.923844 -0.000963
  outer loop
   vertex 8.935509 1029.676758 68.662743
   vertex 9.114799 1029.750000 67.663193
   vertex 8.938024 1029.676758 67.662743
  endloop
 endfacet
 facet normal -0.923860 0.382723 -0.002323
  outer loop
   vertex 8.938024 1029.676758 67.662743
   vertex 8.862285 1029.500000 68.662560
   vertex 8.935509 1029.676758 68.662743
  endloop
 endfacet
 facet normal -0.923860 0.382723 -0.002323
  outer loop
   vertex 8.864799 1029.500000 67.662560
   vertex 8.862285 1029.500000 68.662560
   vertex 8.938024 1029.676758 67.662743
  endloop
 endfacet
 facet normal -0.760795 0.314577 0.567655
  outer loop
   vertex 8.937998 1029.676758 67.672783
   vertex 8.410184 1030.207153 66.671455
   vertex 8.864775 1029.500000 67.672600
  endloop
 endfacet
 facet normal -0.760828 0.314530 0.567637
  outer loop
   vertex 8.864775 1029.500000 67.672600
   vertex 8.410184 1030.207153 66.671455
   vertex 8.117291 1029.500000 66.670715
  endloop
 endfacet
 facet normal -0.760814 -0.314584 0.567626
  outer loop
   vertex 8.117291 1029.500000 66.670715
   vertex 8.937998 1029.323242 67.672783
   vertex 8.864775 1029.500000 67.672600
  endloop
 endfacet
 facet normal -0.760823 -0.314529 0.567644
  outer loop
   vertex 8.410185 1028.792847 66.671455
   vertex 8.937998 1029.323242 67.672783
   vertex 8.117291 1029.500000 66.670715
  endloop
 endfacet
 facet normal -0.316033 -0.759335 0.568799
  outer loop
   vertex 9.114774 1029.250000 67.673225
   vertex 8.937998 1029.323242 67.672783
   vertex 8.410185 1028.792847 66.671455
  endloop
 endfacet
 facet normal -0.315936 -0.759403 0.568762
  outer loop
   vertex 8.410185 1028.792847 66.671455
   vertex 9.117289 1028.500000 66.673233
   vertex 9.114774 1029.250000 67.673225
  endloop
 endfacet
 facet normal 0.313173 -0.759377 0.570324
  outer loop
   vertex 9.114774 1029.250000 67.673225
   vertex 9.117289 1028.500000 66.673233
   vertex 9.291551 1029.323242 67.673676
  endloop
 endfacet
 facet normal 0.313069 -0.759395 0.570357
  outer loop
   vertex 9.291551 1029.323242 67.673676
   vertex 9.117289 1028.500000 66.673233
   vertex 9.824393 1028.792847 66.675011
  endloop
 endfacet
 facet normal 0.757937 -0.314568 0.571470
  outer loop
   vertex 9.824393 1028.792847 66.675011
   vertex 9.364773 1029.500000 67.673859
   vertex 9.291551 1029.323242 67.673676
  endloop
 endfacet
 facet normal 0.757965 -0.314530 0.571455
  outer loop
   vertex 10.117286 1029.500000 66.675743
   vertex 9.364773 1029.500000 67.673859
   vertex 9.824393 1028.792847 66.675011
  endloop
 endfacet
 facet normal 0.757953 0.314575 0.571446
  outer loop
   vertex 9.291551 1029.676758 67.673676
   vertex 9.364773 1029.500000 67.673859
   vertex 10.117286 1029.500000 66.675743
  endloop
 endfacet
 facet normal 0.757961 0.314528 0.571461
  outer loop
   vertex 10.117286 1029.500000 66.675743
   vertex 9.824393 1030.207153 66.675011
   vertex 9.291551 1029.676758 67.673676
  endloop
 endfacet
 facet normal 0.313158 0.759343 0.570378
  outer loop
   vertex 9.291551 1029.676758 67.673676
   vertex 9.824393 1030.207153 66.675011
   vertex 9.114774 1029.750000 67.673225
  endloop
 endfacet
 facet normal 0.313072 0.759403 0.570344
  outer loop
   vertex 9.114774 1029.750000 67.673225
   vertex 9.824393 1030.207153 66.675011
   vertex 9.117289 1030.500000 66.673233
  endloop
 endfacet
 facet normal -0.316049 0.759374 0.568740
  outer loop
   vertex 9.117289 1030.500000 66.673233
   vertex 8.937998 1029.676758 67.672783
   vertex 9.114774 1029.750000 67.673225
  endloop
 endfacet
 facet normal -0.315932 0.759394 0.568777
  outer loop
   vertex 8.410184 1030.207153 66.671455
   vertex 8.937998 1029.676758 67.672783
   vertex 9.117289 1030.500000 66.673233
  endloop
 endfacet
endsolid