solid stl file generated from DOUG
 facet normal 0.002518 0.000000 -0.999997
  outer loop
   vertex -52.926666 1260.000000 -61.093327
   vertex -52.926666 1257.000000 -61.093327
   vertex -53.926662 1260.000000 -61.095844
  endloop
 endfacet
 facet normal 0.002518 -0.000000 -0.999997
  outer loop
   vertex -53.926662 1260.000000 -61.095844
   vertex -52.926666 1257.000000 -61.093327
   vertex -53.926662 1257.000000 -61.095844
  endloop
 endfacet
 facet normal -0.002019 0.000000 -0.999998
  outer loop
   vertex -54.212387 1255.552856 -61.137539
   vertex -52.672390 1255.552734 -61.140648
   vertex -54.212402 1254.652832 -61.137539
  endloop
 endfacet
 facet normal -0.002019 0.000000 -0.999998
  outer loop
   vertex -54.212402 1254.652832 -61.137539
   vertex -52.672390 1255.552734 -61.140648
   vertex -52.672405 1254.652710 -61.140648
  endloop
 endfacet
 facet normal -0.000079 -1.000000 0.000000
  outer loop
   vertex -52.672405 1254.652710 -61.140648
   vertex -52.670849 1254.652710 -60.370647
   vertex -54.212402 1254.652832 -61.137539
  endloop
 endfacet
 facet normal 0.999998 -0.000017 -0.002021
  outer loop
   vertex -52.672390 1255.552734 -61.140648
   vertex -52.670849 1254.652710 -60.370647
   vertex -52.672405 1254.652710 -61.140648
  endloop
 endfacet
 facet normal 0.999998 -0.000017 -0.002021
  outer loop
   vertex -52.670834 1255.552734 -60.370647
   vertex -52.670849 1254.652710 -60.370647
   vertex -52.672390 1255.552734 -61.140648
  endloop
 endfacet
 facet normal 0.000079 1.000000 -0.000000
  outer loop
   vertex -52.672390 1255.552734 -61.140648
   vertex -54.212387 1255.552856 -61.137539
   vertex -52.670834 1255.552734 -60.370647
  endloop
 endfacet
 facet normal 0.000079 1.000000 -0.000000
  outer loop
   vertex -52.670834 1255.552734 -60.370647
   vertex -54.212387 1255.552856 -61.137539
   vertex -54.210831 1255.552856 -60.367538
  endloop
 endfacet
 facet normal -0.999998 0.000017 0.002021
  outer loop
   vertex -54.210831 1255.552856 -60.367538
   vertex -54.212387 1255.552856 -61.137539
   vertex -54.212402 1254.652832 -61.137539
  endloop
 endfacet
 facet normal -0.999998 0.000017 0.002021
  outer loop
   vertex -54.212402 1254.652832 -61.137539
   vertex -54.210846 1254.652832 -60.367535
   vertex -54.210831 1255.552856 -60.367538
  endloop
 endfacet
 facet normal -0.000079 -1.000000 0.000000
  outer loop
   vertex -52.670849 1254.652710 -60.370647
   vertex -54.210846 1254.652832 -60.367535
   vertex -54.212402 1254.652832 -61.137539
  endloop
 endfacet
 facet normal 0.002021 -0.000000 0.999998
  outer loop
   vertex -52.670834 1255.552734 -60.370647
   vertex -54.210846 1254.652832 -60.367535
   vertex -52.670849 1254.652710 -60.370647
  endloop
 endfacet
 facet normal -0.000079 -1.000000 -0.000001
  outer loop
   vertex -54.186115 1228.447266 -60.374458
   vertex -54.180687 1228.447266 -61.144440
   vertex -52.640724 1228.447144 -61.133587
  endloop
 endfacet
 facet normal 0.007047 -0.000000 -0.999975
  outer loop
   vertex -52.640724 1228.447144 -61.133587
   vertex -54.180687 1228.447266 -61.144440
   vertex -52.640709 1229.347168 -61.133587
  endloop
 endfacet
 facet normal 0.999975 -0.000017 0.007050
  outer loop
   vertex -52.640709 1229.347168 -61.133587
   vertex -52.646152 1228.447144 -60.363602
   vertex -52.640724 1228.447144 -61.133587
  endloop
 endfacet
 facet normal 0.999975 -0.000017 0.007050
  outer loop
   vertex -52.646137 1229.347168 -60.363602
   vertex -52.646152 1228.447144 -60.363602
   vertex -52.640709 1229.347168 -61.133587
  endloop
 endfacet
 facet normal -0.007050 0.000000 0.999975
  outer loop
   vertex -54.186115 1228.447266 -60.374458
   vertex -52.646152 1228.447144 -60.363602
   vertex -52.646137 1229.347168 -60.363602
  endloop
 endfacet
 facet normal -0.007050 0.000000 0.999975
  outer loop
   vertex -52.646137 1229.347168 -60.363602
   vertex -54.186100 1229.347290 -60.374458
   vertex -54.186115 1228.447266 -60.374458
  endloop
 endfacet
 facet normal -0.999975 0.000017 -0.007050
  outer loop
   vertex -54.186115 1228.447266 -60.374458
   vertex -54.186100 1229.347290 -60.374458
   vertex -54.180687 1228.447266 -61.144440
  endloop
 endfacet
 facet normal -0.999975 0.000017 -0.007050
  outer loop
   vertex -54.180687 1228.447266 -61.144440
   vertex -54.186100 1229.347290 -60.374458
   vertex -54.180672 1229.347290 -61.144440
  endloop
 endfacet
 facet normal 0.007047 -0.000000 -0.999975
  outer loop
   vertex -54.180672 1229.347290 -61.144440
   vertex -52.640709 1229.347168 -61.133587
   vertex -54.180687 1228.447266 -61.144440
  endloop
 endfacet
 facet normal 0.000079 1.000000 0.000001
  outer loop
   vertex -54.186100 1229.347290 -60.374458
   vertex -52.640709 1229.347168 -61.133587
   vertex -54.180672 1229.347290 -61.144440
  endloop
 endfacet
 facet normal 0.000079 1.000000 0.000001
  outer loop
   vertex -52.646137 1229.347168 -60.363602
   vertex -52.640709 1229.347168 -61.133587
   vertex -54.186100 1229.347290 -60.374458
  endloop
 endfacet
 facet normal 0.000000 1.000000 -0.000000
  outer loop
   vertex -52.670837 1262.354980 -60.370647
   vertex -52.672390 1262.354980 -61.140648
   vertex -54.212387 1262.354980 -61.137539
  endloop
 endfacet
 facet normal -0.002019 0.000000 -0.999998
  outer loop
   vertex -54.212387 1262.354980 -61.137539
   vertex -52.672390 1262.354980 -61.140648
   vertex -54.212402 1261.454956 -61.137539
  endloop
 endfacet
 facet normal -0.999998 0.000017 0.002016
  outer loop
   vertex -54.212402 1261.454956 -61.137539
   vertex -54.210835 1262.354980 -60.367538
   vertex -54.212387 1262.354980 -61.137539
  endloop
 endfacet
 facet normal -0.999998 0.000017 0.002016
  outer loop
   vertex -54.210850 1261.454956 -60.367535
   vertex -54.210835 1262.354980 -60.367538
   vertex -54.212402 1261.454956 -61.137539
  endloop
 endfacet
 facet normal 0.002019 0.000004 0.999998
  outer loop
   vertex -52.670837 1262.354980 -60.370647
   vertex -54.210835 1262.354980 -60.367538
   vertex -54.210850 1261.454956 -60.367535
  endloop
 endfacet
 facet normal 0.002021 -0.000000 0.999998
  outer loop
   vertex -54.210850 1261.454956 -60.367535
   vertex -52.670853 1261.454956 -60.370647
   vertex -52.670837 1262.354980 -60.370647
  endloop
 endfacet
 facet normal 0.999998 -0.000017 -0.002016
  outer loop
   vertex -52.670837 1262.354980 -60.370647
   vertex -52.670853 1261.454956 -60.370647
   vertex -52.672390 1262.354980 -61.140648
  endloop
 endfacet
 facet normal 0.999998 -0.000017 -0.002016
  outer loop
   vertex -52.672390 1262.354980 -61.140648
   vertex -52.670853 1261.454956 -60.370647
   vertex -52.672405 1261.454956 -61.140648
  endloop
 endfacet
 facet normal -0.002019 0.000000 -0.999998
  outer loop
   vertex -52.672405 1261.454956 -61.140648
   vertex -54.212402 1261.454956 -61.137539
   vertex -52.672390 1262.354980 -61.140648
  endloop
 endfacet
 facet normal 0.000000 -1.000000 -0.000000
  outer loop
   vertex -52.670853 1261.454956 -60.370647
   vertex -54.212402 1261.454956 -61.137539
   vertex -52.672405 1261.454956 -61.140648
  endloop
 endfacet
 facet normal 0.000000 -1.000000 0.000000
  outer loop
   vertex -54.210850 1261.454956 -60.367535
   vertex -54.212402 1261.454956 -61.137539
   vertex -52.670853 1261.454956 -60.370647
  endloop
 endfacet
 facet normal -0.000079 -1.000000 -0.000001
  outer loop
   vertex -54.186115 1228.447266 -60.374458
   vertex -52.640724 1228.447144 -61.133587
   vertex -52.646152 1228.447144 -60.363602
  endloop
 endfacet
 facet normal 0.000000 1.000000 0.000000
  outer loop
   vertex -52.670837 1262.354980 -60.370647
   vertex -54.212387 1262.354980 -61.137539
   vertex -54.210835 1262.354980 -60.367538
  endloop
 endfacet
 facet normal 0.002019 0.000004 0.999998
  outer loop
   vertex -54.210846 1254.652832 -60.367535
   vertex -52.670834 1255.552734 -60.370647
   vertex -54.210831 1255.552856 -60.367538
  endloop
 endfacet
 facet normal 0.999998 0.000000 -0.002036
  outer loop
   vertex -52.769306 1261.802612 -61.080479
   vertex -52.768002 1261.802612 -60.439548
   vertex -52.769299 1229.046387 -61.080479
  endloop
 endfacet
 facet normal 0.999998 0.000000 -0.002041
  outer loop
   vertex -52.769299 1229.046387 -61.080479
   vertex -52.768002 1261.802612 -60.439548
   vertex -52.767990 1229.046387 -60.439548
  endloop
 endfacet
 facet normal 0.002038 0.000000 0.999998
  outer loop
   vertex -52.768002 1261.802612 -60.439548
   vertex -54.126678 1261.802612 -60.436779
   vertex -52.767990 1229.046387 -60.439548
  endloop
 endfacet
 facet normal 0.002038 0.000000 0.999998
  outer loop
   vertex -52.767990 1229.046387 -60.439548
   vertex -54.126678 1261.802612 -60.436779
   vertex -54.126667 1229.046387 -60.436779
  endloop
 endfacet
 facet normal -0.002038 -0.000000 -0.999998
  outer loop
   vertex -54.127972 1229.046387 -61.077709
   vertex -54.127983 1261.802612 -61.077709
   vertex -52.769299 1229.046387 -61.080479
  endloop
 endfacet
 facet normal -0.002038 -0.000000 -0.999998
  outer loop
   vertex -52.769299 1229.046387 -61.080479
   vertex -54.127983 1261.802612 -61.077709
   vertex -52.769306 1261.802612 -61.080479
  endloop
 endfacet
 facet normal -0.999998 -0.000000 0.002036
  outer loop
   vertex -54.126667 1229.046387 -60.436779
   vertex -54.126678 1261.802612 -60.436779
   vertex -54.127972 1229.046387 -61.077709
  endloop
 endfacet
 facet normal -0.999998 -0.000000 0.002036
  outer loop
   vertex -54.127972 1229.046387 -61.077709
   vertex -54.126678 1261.802612 -60.436779
   vertex -54.127983 1261.802612 -61.077709
  endloop
 endfacet
 facet normal 0.382631 0.923901 0.000963
  outer loop
   vertex -53.433376 1256.109985 -58.424461
   vertex -53.435894 1256.109985 -57.424461
   vertex -52.726273 1255.817139 -58.422680
  endloop
 endfacet
 facet normal 0.382629 0.923902 0.000962
  outer loop
   vertex -52.726273 1255.817139 -58.422680
   vertex -53.435894 1256.109985 -57.424461
   vertex -52.728786 1255.817139 -57.422684
  endloop
 endfacet
 facet normal 0.923885 0.382662 0.002323
  outer loop
   vertex -52.728786 1255.817139 -57.422684
   vertex -52.433380 1255.109985 -58.421944
   vertex -52.726273 1255.817139 -58.422680
  endloop
 endfacet
 facet normal 0.923885 0.382662 0.002323
  outer loop
   vertex -52.435894 1255.109985 -57.421947
   vertex -52.433380 1255.109985 -58.421944
   vertex -52.728786 1255.817139 -57.422684
  endloop
 endfacet
 facet normal 0.923885 -0.382662 0.002323
  outer loop
   vertex -52.726273 1254.402832 -58.422680
   vertex -52.433380 1255.109985 -58.421944
   vertex -52.435894 1255.109985 -57.421947
  endloop
 endfacet
 facet normal 0.923885 -0.382662 0.002323
  outer loop
   vertex -52.435894 1255.109985 -57.421947
   vertex -52.728786 1254.402832 -57.422684
   vertex -52.726273 1254.402832 -58.422680
  endloop
 endfacet
 facet normal 0.382631 -0.923901 0.000962
  outer loop
   vertex -52.726273 1254.402832 -58.422680
   vertex -52.728786 1254.402832 -57.422684
   vertex -53.433376 1254.109985 -58.424461
  endloop
 endfacet
 facet normal 0.382629 -0.923902 0.000963
  outer loop
   vertex -53.433376 1254.109985 -58.424461
   vertex -52.728786 1254.402832 -57.422684
   vertex -53.435894 1254.109985 -57.424461
  endloop
 endfacet
 facet normal -0.382631 -0.923901 -0.000963
  outer loop
   vertex -53.435894 1254.109985 -57.424461
   vertex -54.140480 1254.402832 -58.426239
   vertex -53.433376 1254.109985 -58.424461
  endloop
 endfacet
 facet normal -0.382631 -0.923901 -0.000963
  outer loop
   vertex -54.142998 1254.402832 -57.426243
   vertex -54.140480 1254.402832 -58.426239
   vertex -53.435894 1254.109985 -57.424461
  endloop
 endfacet
 facet normal -0.923884 -0.382666 -0.002326
  outer loop
   vertex -54.433376 1255.109985 -58.426975
   vertex -54.140480 1254.402832 -58.426239
   vertex -54.142998 1254.402832 -57.426243
  endloop
 endfacet
 facet normal -0.923885 -0.382662 -0.002323
  outer loop
   vertex -54.142998 1254.402832 -57.426243
   vertex -54.435890 1255.109985 -57.426979
   vertex -54.433376 1255.109985 -58.426975
  endloop
 endfacet
 facet normal -0.923885 0.382662 -0.002323
  outer loop
   vertex -54.433376 1255.109985 -58.426975
   vertex -54.435890 1255.109985 -57.426979
   vertex -54.140484 1255.817139 -58.426239
  endloop
 endfacet
 facet normal -0.923885 0.382662 -0.002323
  outer loop
   vertex -54.140484 1255.817139 -58.426239
   vertex -54.435890 1255.109985 -57.426979
   vertex -54.142998 1255.817139 -57.426243
  endloop
 endfacet
 facet normal -0.382629 0.923902 -0.000962
  outer loop
   vertex -54.142998 1255.817139 -57.426243
   vertex -53.433376 1256.109985 -58.424461
   vertex -54.140484 1255.817139 -58.426239
  endloop
 endfacet
 facet normal -0.382631 0.923901 -0.000963
  outer loop
   vertex -53.435894 1256.109985 -57.424461
   vertex -53.433376 1256.109985 -58.424461
   vertex -54.142998 1255.817139 -57.426243
  endloop
 endfacet
 facet normal 0.316059 0.759372 -0.568737
  outer loop
   vertex -53.430862 1255.359985 -59.424458
   vertex -53.433376 1256.109985 -58.424461
   vertex -53.254086 1255.286743 -59.424011
  endloop
 endfacet
 facet normal 0.315935 0.759393 -0.568776
  outer loop
   vertex -53.254086 1255.286743 -59.424011
   vertex -53.433376 1256.109985 -58.424461
   vertex -52.726273 1255.817139 -58.422680
  endloop
 endfacet
 facet normal 0.760797 0.314577 -0.567653
  outer loop
   vertex -52.726273 1255.817139 -58.422680
   vertex -53.180862 1255.109985 -59.423828
   vertex -53.254086 1255.286743 -59.424011
  endloop
 endfacet
 facet normal 0.760828 0.314533 -0.567636
  outer loop
   vertex -52.433380 1255.109985 -58.421944
   vertex -53.180862 1255.109985 -59.423828
   vertex -52.726273 1255.817139 -58.422680
  endloop
 endfacet
 facet normal 0.760814 -0.314584 -0.567625
  outer loop
   vertex -53.254086 1254.933228 -59.424011
   vertex -53.180862 1255.109985 -59.423828
   vertex -52.433380 1255.109985 -58.421944
  endloop
 endfacet
 facet normal 0.760823 -0.314531 -0.567643
  outer loop
   vertex -52.433380 1255.109985 -58.421944
   vertex -52.726273 1254.402832 -58.422680
   vertex -53.254086 1254.933228 -59.424011
  endloop
 endfacet
 facet normal 0.316042 -0.759331 -0.568800
  outer loop
   vertex -53.254086 1254.933228 -59.424011
   vertex -52.726273 1254.402832 -58.422680
   vertex -53.430862 1254.859985 -59.424458
  endloop
 endfacet
 facet normal 0.315940 -0.759403 -0.568761
  outer loop
   vertex -53.430862 1254.859985 -59.424458
   vertex -52.726273 1254.402832 -58.422680
   vertex -53.433376 1254.109985 -58.424461
  endloop
 endfacet
 facet normal -0.313195 -0.759372 -0.570318
  outer loop
   vertex -53.433376 1254.109985 -58.424461
   vertex -53.607639 1254.933228 -59.424900
   vertex -53.430862 1254.859985 -59.424458
  endloop
 endfacet
 facet normal -0.313069 -0.759394 -0.570359
  outer loop
   vertex -54.140480 1254.402832 -58.426239
   vertex -53.607639 1254.933228 -59.424900
   vertex -53.433376 1254.109985 -58.424461
  endloop
 endfacet
 facet normal -0.757935 -0.314572 -0.571471
  outer loop
   vertex -53.680862 1255.109985 -59.425083
   vertex -53.607639 1254.933228 -59.424900
   vertex -54.140480 1254.402832 -58.426239
  endloop
 endfacet
 facet normal -0.757961 -0.314535 -0.571457
  outer loop
   vertex -54.140480 1254.402832 -58.426239
   vertex -54.433376 1255.109985 -58.426975
   vertex -53.680862 1255.109985 -59.425083
  endloop
 endfacet
 facet normal -0.757949 0.314578 -0.571449
  outer loop
   vertex -53.680862 1255.109985 -59.425083
   vertex -54.433376 1255.109985 -58.426975
   vertex -53.607639 1255.286743 -59.424900
  endloop
 endfacet
 facet normal -0.757958 0.314530 -0.571464
  outer loop
   vertex -53.607639 1255.286743 -59.424900
   vertex -54.433376 1255.109985 -58.426975
   vertex -54.140484 1255.817139 -58.426239
  endloop
 endfacet
 facet normal -0.313178 0.759330 -0.570384
  outer loop
   vertex -54.140484 1255.817139 -58.426239
   vertex -53.430862 1255.359985 -59.424458
   vertex -53.607639 1255.286743 -59.424900
  endloop
 endfacet
 facet normal -0.313072 0.759405 -0.570343
  outer loop
   vertex -53.433376 1256.109985 -58.424461
   vertex -53.430862 1255.359985 -59.424458
   vertex -54.140484 1255.817139 -58.426239
  endloop
 endfacet
 facet normal 0.382772 0.923842 0.000964
  outer loop
   vertex -53.428364 1229.140015 -60.414417
   vertex -53.430882 1229.140015 -59.414417
   vertex -53.251591 1229.066772 -60.413971
  endloop
 endfacet
 facet normal 0.382765 0.923845 0.000962
  outer loop
   vertex -53.251591 1229.066772 -60.413971
   vertex -53.430882 1229.140015 -59.414417
   vertex -53.254105 1229.066772 -59.413975
  endloop
 endfacet
 facet normal 0.923862 0.382718 0.002322
  outer loop
   vertex -53.254105 1229.066772 -59.413975
   vertex -53.178368 1228.890015 -60.413788
   vertex -53.251591 1229.066772 -60.413971
  endloop
 endfacet
 facet normal 0.923862 0.382718 0.002322
  outer loop
   vertex -53.180882 1228.890015 -59.413792
   vertex -53.178368 1228.890015 -60.413788
   vertex -53.254105 1229.066772 -59.413975
  endloop
 endfacet
 facet normal 0.923862 -0.382718 0.002322
  outer loop
   vertex -53.251591 1228.713257 -60.413971
   vertex -53.178368 1228.890015 -60.413788
   vertex -53.180882 1228.890015 -59.413792
  endloop
 endfacet
 facet normal 0.923862 -0.382718 0.002322
  outer loop
   vertex -53.180882 1228.890015 -59.413792
   vertex -53.254105 1228.713257 -59.413975
   vertex -53.251591 1228.713257 -60.413971
  endloop
 endfacet
 facet normal 0.382772 -0.923842 0.000962
  outer loop
   vertex -53.251591 1228.713257 -60.413971
   vertex -53.254105 1228.713257 -59.413975
   vertex -53.428364 1228.640015 -60.414417
  endloop
 endfacet
 facet normal 0.382765 -0.923845 0.000964
  outer loop
   vertex -53.428364 1228.640015 -60.414417
   vertex -53.254105 1228.713257 -59.413975
   vertex -53.430882 1228.640015 -59.414417
  endloop
 endfacet
 facet normal -0.382765 -0.923845 -0.000964
  outer loop
   vertex -53.430882 1228.640015 -59.414417
   vertex -53.605141 1228.713257 -60.414860
   vertex -53.428364 1228.640015 -60.414417
  endloop
 endfacet
 facet normal -0.382772 -0.923842 -0.000962
  outer loop
   vertex -53.607655 1228.713257 -59.414864
   vertex -53.605141 1228.713257 -60.414860
   vertex -53.430882 1228.640015 -59.414417
  endloop
 endfacet
 facet normal -0.923862 -0.382718 -0.002322
  outer loop
   vertex -53.678364 1228.890015 -60.415043
   vertex -53.605141 1228.713257 -60.414860
   vertex -53.607655 1228.713257 -59.414864
  endloop
 endfacet
 facet normal -0.923862 -0.382718 -0.002322
  outer loop
   vertex -53.607655 1228.713257 -59.414864
   vertex -53.680878 1228.890015 -59.415047
   vertex -53.678364 1228.890015 -60.415043
  endloop
 endfacet
 facet normal -0.923862 0.382718 -0.002322
  outer loop
   vertex -53.678364 1228.890015 -60.415043
   vertex -53.680878 1228.890015 -59.415047
   vertex -53.605141 1229.066772 -60.414860
  endloop
 endfacet
 facet normal -0.923862 0.382718 -0.002322
  outer loop
   vertex -53.605141 1229.066772 -60.414860
   vertex -53.680878 1228.890015 -59.415047
   vertex -53.607655 1229.066772 -59.414864
  endloop
 endfacet
 facet normal -0.382765 0.923845 -0.000962
  outer loop
   vertex -53.607655 1229.066772 -59.414864
   vertex -53.428364 1229.140015 -60.414417
   vertex -53.605141 1229.066772 -60.414860
  endloop
 endfacet
 facet normal -0.382772 0.923842 -0.000964
  outer loop
   vertex -53.430882 1229.140015 -59.414417
   vertex -53.428364 1229.140015 -60.414417
   vertex -53.607655 1229.066772 -59.414864
  endloop
 endfacet
 facet normal 0.382631 0.923901 0.000963
  outer loop
   vertex -53.433369 1229.890015 -58.424461
   vertex -53.435886 1229.890015 -57.424461
   vertex -52.726265 1229.597168 -58.422680
  endloop
 endfacet
 facet normal 0.382629 0.923902 0.000962
  outer loop
   vertex -52.726265 1229.597168 -58.422680
   vertex -53.435886 1229.890015 -57.424461
   vertex -52.728779 1229.597168 -57.422684
  endloop
 endfacet
 facet normal 0.923885 0.382662 0.002323
  outer loop
   vertex -52.728779 1229.597168 -57.422684
   vertex -52.433372 1228.890015 -58.421944
   vertex -52.726265 1229.597168 -58.422680
  endloop
 endfacet
 facet normal 0.923885 0.382662 0.002323
  outer loop
   vertex -52.435886 1228.890015 -57.421947
   vertex -52.433372 1228.890015 -58.421944
   vertex -52.728779 1229.597168 -57.422684
  endloop
 endfacet
 facet normal 0.923885 -0.382662 0.002323
  outer loop
   vertex -52.726265 1228.182861 -58.422680
   vertex -52.433372 1228.890015 -58.421944
   vertex -52.435886 1228.890015 -57.421947
  endloop
 endfacet
 facet normal 0.923885 -0.382662 0.002323
  outer loop
   vertex -52.435886 1228.890015 -57.421947
   vertex -52.728779 1228.182861 -57.422684
   vertex -52.726265 1228.182861 -58.422680
  endloop
 endfacet
 facet normal 0.382631 -0.923901 0.000962
  outer loop
   vertex -52.726265 1228.182861 -58.422680
   vertex -52.728779 1228.182861 -57.422684
   vertex -53.433369 1227.890015 -58.424461
  endloop
 endfacet
 facet normal 0.382631 -0.923901 0.000962
  outer loop
   vertex -53.433369 1227.890015 -58.424461
   vertex -52.728779 1228.182861 -57.422684
   vertex -53.435883 1227.890015 -57.424461
  endloop
 endfacet
 facet normal -0.382631 -0.923901 -0.000962
  outer loop
   vertex -53.435883 1227.890015 -57.424461
   vertex -54.140472 1228.182861 -58.426239
   vertex -53.433369 1227.890015 -58.424461
  endloop
 endfacet
 facet normal -0.382629 -0.923902 -0.000963
  outer loop
   vertex -54.142990 1228.182861 -57.426243
   vertex -54.140472 1228.182861 -58.426239
   vertex -53.435883 1227.890015 -57.424461
  endloop
 endfacet
 facet normal -0.923885 -0.382662 -0.002326
  outer loop
   vertex -54.433365 1228.890015 -58.426975
   vertex -54.140472 1228.182861 -58.426239
   vertex -54.142990 1228.182861 -57.426243
  endloop
 endfacet
 facet normal -0.923885 -0.382662 -0.002326
  outer loop
   vertex -54.142990 1228.182861 -57.426243
   vertex -54.435883 1228.890015 -57.426979
   vertex -54.433365 1228.890015 -58.426975
  endloop
 endfacet
 facet normal -0.923887 0.382658 -0.002326
  outer loop
   vertex -54.433365 1228.890015 -58.426975
   vertex -54.435883 1228.890015 -57.426979
   vertex -54.140476 1229.597168 -58.426239
  endloop
 endfacet
 facet normal -0.923885 0.382662 -0.002323
  outer loop
   vertex -54.140476 1229.597168 -58.426239
   vertex -54.435883 1228.890015 -57.426979
   vertex -54.142990 1229.597168 -57.426243
  endloop
 endfacet
 facet normal -0.382629 0.923902 -0.000962
  outer loop
   vertex -54.142990 1229.597168 -57.426243
   vertex -53.433369 1229.890015 -58.424461
   vertex -54.140476 1229.597168 -58.426239
  endloop
 endfacet
 facet normal -0.382631 0.923901 -0.000963
  outer loop
   vertex -53.435886 1229.890015 -57.424461
   vertex -53.433369 1229.890015 -58.424461
   vertex -54.142990 1229.597168 -57.426243
  endloop
 endfacet
 facet normal 0.316059 0.759372 -0.568737
  outer loop
   vertex -53.430855 1229.140015 -59.424458
   vertex -53.433369 1229.890015 -58.424461
   vertex -53.254078 1229.066772 -59.424011
  endloop
 endfacet
 facet normal 0.315935 0.759393 -0.568776
  outer loop
   vertex -53.254078 1229.066772 -59.424011
   vertex -53.433369 1229.890015 -58.424461
   vertex -52.726265 1229.597168 -58.422680
  endloop
 endfacet
 facet normal 0.760797 0.314577 -0.567653
  outer loop
   vertex -52.726265 1229.597168 -58.422680
   vertex -53.180855 1228.890015 -59.423828
   vertex -53.254078 1229.066772 -59.424011
  endloop
 endfacet
 facet normal 0.760828 0.314533 -0.567636
  outer loop
   vertex -52.433372 1228.890015 -58.421944
   vertex -53.180855 1228.890015 -59.423828
   vertex -52.726265 1229.597168 -58.422680
  endloop
 endfacet
 facet normal 0.760814 -0.314584 -0.567625
  outer loop
   vertex -53.254078 1228.713257 -59.424011
   vertex -53.180855 1228.890015 -59.423828
   vertex -52.433372 1228.890015 -58.421944
  endloop
 endfacet
 facet normal 0.760823 -0.314531 -0.567643
  outer loop
   vertex -52.433372 1228.890015 -58.421944
   vertex -52.726265 1228.182861 -58.422680
   vertex -53.254078 1228.713257 -59.424011
  endloop
 endfacet
 facet normal 0.316042 -0.759331 -0.568800
  outer loop
   vertex -53.254078 1228.713257 -59.424011
   vertex -52.726265 1228.182861 -58.422680
   vertex -53.430855 1228.640015 -59.424458
  endloop
 endfacet
 facet normal 0.315940 -0.759403 -0.568761
  outer loop
   vertex -53.430855 1228.640015 -59.424458
   vertex -52.726265 1228.182861 -58.422680
   vertex -53.433369 1227.890015 -58.424461
  endloop
 endfacet
 facet normal -0.313195 -0.759372 -0.570318
  outer loop
   vertex -53.433369 1227.890015 -58.424461
   vertex -53.607632 1228.713257 -59.424900
   vertex -53.430855 1228.640015 -59.424458
  endloop
 endfacet
 facet normal -0.313069 -0.759394 -0.570359
  outer loop
   vertex -54.140472 1228.182861 -58.426239
   vertex -53.607632 1228.713257 -59.424900
   vertex -53.433369 1227.890015 -58.424461
  endloop
 endfacet
 facet normal -0.757929 -0.314582 -0.571473
  outer loop
   vertex -53.680855 1228.890015 -59.425087
   vertex -53.607632 1228.713257 -59.424900
   vertex -54.140472 1228.182861 -58.426239
  endloop
 endfacet
 facet normal -0.757964 -0.314532 -0.571454
  outer loop
   vertex -54.140472 1228.182861 -58.426239
   vertex -54.433365 1228.890015 -58.426975
   vertex -53.680855 1228.890015 -59.425087
  endloop
 endfacet
 facet normal -0.757949 0.314590 -0.571443
  outer loop
   vertex -53.680855 1228.890015 -59.425087
   vertex -54.433365 1228.890015 -58.426975
   vertex -53.607632 1229.066772 -59.424900
  endloop
 endfacet
 facet normal -0.757960 0.314527 -0.571463
  outer loop
   vertex -53.607632 1229.066772 -59.424900
   vertex -54.433365 1228.890015 -58.426975
   vertex -54.140476 1229.597168 -58.426239
  endloop
 endfacet
 facet normal -0.313178 0.759330 -0.570384
  outer loop
   vertex -54.140476 1229.597168 -58.426239
   vertex -53.430855 1229.140015 -59.424458
   vertex -53.607632 1229.066772 -59.424900
  endloop
 endfacet
 facet normal -0.313072 0.759405 -0.570343
  outer loop
   vertex -53.433369 1229.890015 -58.424461
   vertex -53.430855 1229.140015 -59.424458
   vertex -54.140476 1229.597168 -58.426239
  endloop
 endfacet
 facet normal -0.382765 0.923845 -0.000964
  outer loop
   vertex -53.430889 1255.359985 -59.414417
   vertex -53.428371 1255.359985 -60.414417
   vertex -53.607666 1255.286743 -59.414864
  endloop
 endfacet
 facet normal -0.382765 0.923845 -0.000964
  outer loop
   vertex -53.607666 1255.286743 -59.414864
   vertex -53.428371 1255.359985 -60.414417
   vertex -53.605148 1255.286743 -60.414860
  endloop
 endfacet
 facet normal -0.923869 0.382701 -0.002326
  outer loop
   vertex -53.605148 1255.286743 -60.414860
   vertex -53.680885 1255.109985 -59.415047
   vertex -53.607666 1255.286743 -59.414864
  endloop
 endfacet
 facet normal -0.923862 0.382718 -0.002322
  outer loop
   vertex -53.678371 1255.109985 -60.415043
   vertex -53.680885 1255.109985 -59.415047
   vertex -53.605148 1255.286743 -60.414860
  endloop
 endfacet
 facet normal -0.923862 -0.382718 -0.002322
  outer loop
   vertex -53.607662 1254.933228 -59.414864
   vertex -53.680885 1255.109985 -59.415047
   vertex -53.678371 1255.109985 -60.415043
  endloop
 endfacet
 facet normal -0.923862 -0.382718 -0.002322
  outer loop
   vertex -53.678371 1255.109985 -60.415043
   vertex -53.605148 1254.933228 -60.414860
   vertex -53.607662 1254.933228 -59.414864
  endloop
 endfacet
 facet normal -0.382772 -0.923842 -0.000962
  outer loop
   vertex -53.607662 1254.933228 -59.414864
   vertex -53.605148 1254.933228 -60.414860
   vertex -53.430889 1254.859985 -59.414417
  endloop
 endfacet
 facet normal -0.382765 -0.923845 -0.000964
  outer loop
   vertex -53.430889 1254.859985 -59.414417
   vertex -53.605148 1254.933228 -60.414860
   vertex -53.428371 1254.859985 -60.414417
  endloop
 endfacet
 facet normal 0.382765 -0.923845 0.000964
  outer loop
   vertex -53.428371 1254.859985 -60.414417
   vertex -53.254112 1254.933228 -59.413975
   vertex -53.430889 1254.859985 -59.414417
  endloop
 endfacet
 facet normal 0.382772 -0.923842 0.000962
  outer loop
   vertex -53.251598 1254.933228 -60.413971
   vertex -53.254112 1254.933228 -59.413975
   vertex -53.428371 1254.859985 -60.414417
  endloop
 endfacet
 facet normal 0.923862 -0.382718 0.002322
  outer loop
   vertex -53.180889 1255.109985 -59.413792
   vertex -53.254112 1254.933228 -59.413975
   vertex -53.251598 1254.933228 -60.413971
  endloop
 endfacet
 facet normal 0.923862 -0.382718 0.002322
  outer loop
   vertex -53.251598 1254.933228 -60.413971
   vertex -53.178375 1255.109985 -60.413788
   vertex -53.180889 1255.109985 -59.413792
  endloop
 endfacet
 facet normal 0.923862 0.382718 0.002322
  outer loop
   vertex -53.180889 1255.109985 -59.413792
   vertex -53.178375 1255.109985 -60.413788
   vertex -53.254112 1255.286743 -59.413975
  endloop
 endfacet
 facet normal 0.923862 0.382718 0.002322
  outer loop
   vertex -53.254112 1255.286743 -59.413975
   vertex -53.178375 1255.109985 -60.413788
   vertex -53.251598 1255.286743 -60.413971
  endloop
 endfacet
 facet normal 0.382765 0.923845 0.000962
  outer loop
   vertex -53.251598 1255.286743 -60.413971
   vertex -53.430889 1255.359985 -59.414417
   vertex -53.254112 1255.286743 -59.413975
  endloop
 endfacet
 facet normal 0.382772 0.923842 0.000964
  outer loop
   vertex -53.428371 1255.359985 -60.414417
   vertex -53.430889 1255.359985 -59.414417
   vertex -53.251598 1255.286743 -60.413971
  endloop
 endfacet
endsolid