solid stl file generated from DOUG
 facet normal -0.011652 -0.999932 -0.000022
  outer loop
   vertex -40.736076 1303.147949 -60.722015
   vertex -40.872253 1303.149536 -60.722279
   vertex -40.858139 1303.149536 -68.032669
  endloop
 endfacet
 facet normal -0.811344 -0.584567 -0.001566
  outer loop
   vertex -40.858139 1303.149536 -68.032669
   vertex -40.872253 1303.149536 -60.722279
   vertex -40.918209 1303.232910 -68.032784
  endloop
 endfacet
 facet normal -0.952187 0.305510 -0.001838
  outer loop
   vertex -40.076279 1302.251831 -68.031158
   vertex -40.117912 1302.122070 -68.031242
   vertex -40.132027 1302.122070 -60.720848
  endloop
 endfacet
 facet normal -0.811362 -0.584542 -0.001567
  outer loop
   vertex -40.132027 1302.122070 -60.720848
   vertex -40.117912 1302.122070 -68.031242
   vertex -40.057846 1302.038696 -68.031128
  endloop
 endfacet
 facet normal -0.811362 -0.584542 -0.001567
  outer loop
   vertex -40.057846 1302.038696 -68.031128
   vertex -40.071960 1302.038696 -60.720734
   vertex -40.132027 1302.122070 -60.720848
  endloop
 endfacet
 facet normal -0.547617 -0.836728 -0.001057
  outer loop
   vertex -39.463356 1302.467041 -68.029976
   vertex -39.477470 1302.467041 -60.719585
   vertex -39.491520 1302.485474 -68.030029
  endloop
 endfacet
 facet normal -0.547565 -0.836762 -0.001057
  outer loop
   vertex -39.491520 1302.485474 -68.030029
   vertex -39.477470 1302.467041 -60.719585
   vertex -39.505638 1302.485474 -60.719639
  endloop
 endfacet
 facet normal 0.584529 -0.811372 0.001129
  outer loop
   vertex -39.505638 1302.485474 -60.719639
   vertex -39.972282 1302.149292 -60.720543
   vertex -39.491520 1302.485474 -68.030029
  endloop
 endfacet
 facet normal -0.011652 -0.999932 -0.000022
  outer loop
   vertex -40.858139 1303.149536 -68.032669
   vertex -40.721962 1303.147949 -68.032410
   vertex -40.736076 1303.147949 -60.722015
  endloop
 endfacet
 facet normal -0.811327 -0.584591 -0.001566
  outer loop
   vertex -40.736076 1303.147949 -60.722015
   vertex -40.721962 1303.147949 -68.032410
   vertex -40.076279 1302.251831 -68.031158
  endloop
 endfacet
 facet normal -0.811327 -0.584591 -0.001566
  outer loop
   vertex -40.076279 1302.251831 -68.031158
   vertex -40.090393 1302.251831 -60.720768
   vertex -40.736076 1303.147949 -60.722015
  endloop
 endfacet
 facet normal -0.952187 0.305509 -0.001838
  outer loop
   vertex -40.132027 1302.122070 -60.720848
   vertex -40.090393 1302.251831 -60.720768
   vertex -40.076279 1302.251831 -68.031158
  endloop
 endfacet
 facet normal 0.584615 -0.811310 0.001129
  outer loop
   vertex -40.071960 1302.038696 -60.720734
   vertex -40.057846 1302.038696 -68.031128
   vertex -39.963711 1302.116699 -60.720524
  endloop
 endfacet
 facet normal 0.584615 -0.811310 0.001129
  outer loop
   vertex -39.963711 1302.116699 -60.720524
   vertex -40.057846 1302.038696 -68.031128
   vertex -39.949596 1302.116699 -68.030914
  endloop
 endfacet
 facet normal 0.967112 0.254343 0.001867
  outer loop
   vertex -39.949596 1302.116699 -68.030914
   vertex -39.972282 1302.149292 -60.720543
   vertex -39.963711 1302.116699 -60.720524
  endloop
 endfacet
 facet normal 0.967112 0.254343 0.001867
  outer loop
   vertex -39.958168 1302.149292 -68.030930
   vertex -39.972282 1302.149292 -60.720543
   vertex -39.949596 1302.116699 -68.030914
  endloop
 endfacet
 facet normal 0.584526 -0.811374 0.001129
  outer loop
   vertex -39.491520 1302.485474 -68.030029
   vertex -39.972282 1302.149292 -60.720543
   vertex -39.958168 1302.149292 -68.030930
  endloop
 endfacet
 facet normal 0.001932 0.000005 -0.999998
  outer loop
   vertex -40.942417 1303.235718 -68.514839
   vertex -39.380199 1302.505249 -68.511826
   vertex -40.062130 1302.013916 -68.513145
  endloop
 endfacet
 facet normal 0.584572 -0.811341 0.001128
  outer loop
   vertex -40.062130 1302.013916 -68.513145
   vertex -39.380199 1302.505249 -68.511826
   vertex -40.064060 1302.013916 -67.513145
  endloop
 endfacet
 facet normal -0.811347 -0.584563 -0.001566
  outer loop
   vertex -40.064060 1302.013916 -67.513145
   vertex -40.944347 1303.235718 -67.514847
   vertex -40.062130 1302.013916 -68.513145
  endloop
 endfacet
 facet normal -0.001935 -0.000001 0.999998
  outer loop
   vertex -39.382130 1302.505249 -67.511826
   vertex -40.944347 1303.235718 -67.514847
   vertex -40.064060 1302.013916 -67.513145
  endloop
 endfacet
 facet normal -0.001935 -0.000001 0.999998
  outer loop
   vertex -40.262417 1303.727051 -67.513527
   vertex -40.944347 1303.235718 -67.514847
   vertex -39.382130 1302.505249 -67.511826
  endloop
 endfacet
 facet normal 0.811347 0.584563 0.001566
  outer loop
   vertex -39.382130 1302.505249 -67.511826
   vertex -39.380199 1302.505249 -68.511826
   vertex -40.262417 1303.727051 -67.513527
  endloop
 endfacet
 facet normal 0.811347 0.584563 0.001566
  outer loop
   vertex -40.262417 1303.727051 -67.513527
   vertex -39.380199 1302.505249 -68.511826
   vertex -40.260487 1303.727051 -68.513527
  endloop
 endfacet
 facet normal 0.001927 -0.000004 -0.999998
  outer loop
   vertex -40.260487 1303.727051 -68.513527
   vertex -39.380199 1302.505249 -68.511826
   vertex -40.942417 1303.235718 -68.514839
  endloop
 endfacet
 facet normal -0.584572 0.811341 -0.001128
  outer loop
   vertex -40.942417 1303.235718 -68.514839
   vertex -40.944347 1303.235718 -67.514847
   vertex -40.260487 1303.727051 -68.513527
  endloop
 endfacet
 facet normal -0.811347 -0.584563 -0.001566
  outer loop
   vertex -40.062130 1302.013916 -68.513145
   vertex -40.944347 1303.235718 -67.514847
   vertex -40.942417 1303.235718 -68.514839
  endloop
 endfacet
 facet normal 0.001929 0.000001 -0.999998
  outer loop
   vertex -40.076176 1302.013916 -61.238735
   vertex -40.956463 1303.235718 -61.240433
   vertex -39.394241 1302.505249 -61.237419
  endloop
 endfacet
 facet normal 0.001929 0.000001 -0.999998
  outer loop
   vertex -39.394241 1302.505249 -61.237419
   vertex -40.956463 1303.235718 -61.240433
   vertex -40.274532 1303.727051 -61.239117
  endloop
 endfacet
 facet normal 0.811345 0.584565 0.001566
  outer loop
   vertex -40.274532 1303.727051 -61.239117
   vertex -40.276463 1303.727051 -60.239117
   vertex -39.394241 1302.505249 -61.237419
  endloop
 endfacet
 facet normal -0.584572 0.811341 -0.001128
  outer loop
   vertex -40.956463 1303.235718 -61.240433
   vertex -40.276463 1303.727051 -60.239117
   vertex -40.274532 1303.727051 -61.239117
  endloop
 endfacet
 facet normal -0.584572 0.811341 -0.001128
  outer loop
   vertex -40.958393 1303.235718 -60.240437
   vertex -40.276463 1303.727051 -60.239117
   vertex -40.956463 1303.235718 -61.240433
  endloop
 endfacet
 facet normal -0.811347 -0.584563 -0.001566
  outer loop
   vertex -40.956463 1303.235718 -61.240433
   vertex -40.078106 1302.013916 -60.238735
   vertex -40.958393 1303.235718 -60.240437
  endloop
 endfacet
 facet normal -0.001935 -0.000001 0.999998
  outer loop
   vertex -40.958393 1303.235718 -60.240437
   vertex -40.078106 1302.013916 -60.238735
   vertex -40.276463 1303.727051 -60.239117
  endloop
 endfacet
 facet normal -0.001929 -0.000001 0.999998
  outer loop
   vertex -40.276463 1303.727051 -60.239117
   vertex -40.078106 1302.013916 -60.238735
   vertex -39.396175 1302.505249 -60.237419
  endloop
 endfacet
 facet normal 0.811347 0.584563 0.001569
  outer loop
   vertex -39.396175 1302.505249 -60.237419
   vertex -39.394241 1302.505249 -61.237419
   vertex -40.276463 1303.727051 -60.239117
  endloop
 endfacet
 facet normal 0.584572 -0.811341 0.001131
  outer loop
   vertex -40.078106 1302.013916 -60.238735
   vertex -39.394241 1302.505249 -61.237419
   vertex -39.396175 1302.505249 -60.237419
  endloop
 endfacet
 facet normal 0.584570 -0.811343 0.001128
  outer loop
   vertex -40.076176 1302.013916 -61.238735
   vertex -39.394241 1302.505249 -61.237419
   vertex -40.078106 1302.013916 -60.238735
  endloop
 endfacet
 facet normal -0.811347 -0.584563 -0.001566
  outer loop
   vertex -40.078106 1302.013916 -60.238735
   vertex -40.956463 1303.235718 -61.240433
   vertex -40.076176 1302.013916 -61.238735
  endloop
 endfacet
 facet normal -0.811344 -0.584567 -0.001566
  outer loop
   vertex -40.872253 1303.149536 -60.722279
   vertex -40.932323 1303.232910 -60.722393
   vertex -40.918209 1303.232910 -68.032784
  endloop
 endfacet
 facet normal -0.584012 0.811744 -0.001128
  outer loop
   vertex -40.918209 1303.232910 -68.032784
   vertex -40.932323 1303.232910 -60.722393
   vertex -40.824074 1303.310791 -60.722187
  endloop
 endfacet
 facet normal -0.584012 0.811744 -0.001128
  outer loop
   vertex -40.824074 1303.310791 -60.722187
   vertex -40.809959 1303.310791 -68.032578
   vertex -40.918209 1303.232910 -68.032784
  endloop
 endfacet
 facet normal 0.547617 0.836728 0.001057
  outer loop
   vertex -40.795910 1303.292358 -60.722130
   vertex -40.809959 1303.310791 -68.032578
   vertex -40.824074 1303.310791 -60.722187
  endloop
 endfacet
 facet normal 0.547617 0.836728 0.001057
  outer loop
   vertex -40.781796 1303.292358 -68.032524
   vertex -40.809959 1303.310791 -68.032578
   vertex -40.795910 1303.292358 -60.722130
  endloop
 endfacet
 facet normal -0.584666 0.811273 -0.001129
  outer loop
   vertex -40.795910 1303.292358 -60.722130
   vertex -40.329262 1303.628662 -60.721230
   vertex -40.781796 1303.292358 -68.032524
  endloop
 endfacet
 facet normal -0.584666 0.811273 -0.001129
  outer loop
   vertex -40.781796 1303.292358 -68.032524
   vertex -40.329262 1303.628662 -60.721230
   vertex -40.315147 1303.628662 -68.031624
  endloop
 endfacet
 facet normal -0.966877 -0.255237 -0.001867
  outer loop
   vertex -40.315147 1303.628662 -68.031624
   vertex -40.329262 1303.628662 -60.721230
   vertex -40.337833 1303.661133 -60.721245
  endloop
 endfacet
 facet normal -0.966877 -0.255237 -0.001867
  outer loop
   vertex -40.337833 1303.661133 -60.721245
   vertex -40.323719 1303.661133 -68.031639
   vertex -40.315147 1303.628662 -68.031624
  endloop
 endfacet
 facet normal -0.584546 0.811360 -0.001129
  outer loop
   vertex -40.284122 1303.699829 -60.721142
   vertex -40.323719 1303.661133 -68.031639
   vertex -40.337833 1303.661133 -60.721245
  endloop
 endfacet
 facet normal -0.584546 0.811360 -0.001129
  outer loop
   vertex -40.270008 1303.699829 -68.031532
   vertex -40.323719 1303.661133 -68.031639
   vertex -40.284122 1303.699829 -60.721142
  endloop
 endfacet
 facet normal 0.811334 0.584581 0.001566
  outer loop
   vertex -40.284122 1303.699829 -60.721142
   vertex -39.423759 1302.505737 -60.719482
   vertex -40.270008 1303.699829 -68.031532
  endloop
 endfacet
 facet normal 0.811334 0.584581 0.001566
  outer loop
   vertex -40.270008 1303.699829 -68.031532
   vertex -39.423759 1302.505737 -60.719482
   vertex -39.409645 1302.505737 -68.029877
  endloop
 endfacet
 facet normal 0.584546 -0.811360 0.001129
  outer loop
   vertex -39.409645 1302.505737 -68.029877
   vertex -39.423759 1302.505737 -60.719482
   vertex -39.463356 1302.467041 -68.029976
  endloop
 endfacet
 facet normal 0.584572 -0.811341 0.001128
  outer loop
   vertex -39.382130 1302.505249 -67.511826
   vertex -40.064060 1302.013916 -67.513145
   vertex -39.380199 1302.505249 -68.511826
  endloop
 endfacet
 facet normal -0.584572 0.811341 -0.001128
  outer loop
   vertex -40.944347 1303.235718 -67.514847
   vertex -40.262417 1303.727051 -67.513527
   vertex -40.260487 1303.727051 -68.513527
  endloop
 endfacet
 facet normal 0.584546 -0.811360 0.001129
  outer loop
   vertex -39.423759 1302.505737 -60.719482
   vertex -39.477470 1302.467041 -60.719585
   vertex -39.463356 1302.467041 -68.029976
  endloop
 endfacet
 facet normal -0.647435 -0.077740 0.758146
  outer loop
   vertex -39.072762 1303.666016 -60.474007
   vertex -38.262871 1304.250610 -59.722439
   vertex -39.175961 1303.809448 -60.547428
  endloop
 endfacet
 facet normal -0.647439 -0.077726 0.758143
  outer loop
   vertex -39.175961 1303.809448 -60.547428
   vertex -38.262871 1304.250610 -59.722439
   vertex -38.675659 1304.824341 -60.016132
  endloop
 endfacet
 facet normal -0.906617 0.283154 0.312841
  outer loop
   vertex -38.675659 1304.824341 -60.016132
   vertex -39.218422 1303.868896 -60.724289
   vertex -39.175961 1303.809448 -60.547428
  endloop
 endfacet
 facet normal -0.906623 0.283206 0.312775
  outer loop
   vertex -38.845512 1305.061890 -60.723568
   vertex -39.218422 1303.868896 -60.724289
   vertex -38.675659 1304.824341 -60.016132
  endloop
 endfacet
 facet normal -0.905383 0.283199 -0.316355
  outer loop
   vertex -39.175278 1303.809448 -60.900982
   vertex -39.218422 1303.868896 -60.724289
   vertex -38.845512 1305.061890 -60.723568
  endloop
 endfacet
 facet normal -0.905413 0.283195 -0.316271
  outer loop
   vertex -38.845512 1305.061890 -60.723568
   vertex -38.672928 1304.824341 -61.430344
   vertex -39.175278 1303.809448 -60.900982
  endloop
 endfacet
 facet normal -0.644505 -0.077728 -0.760639
  outer loop
   vertex -39.175278 1303.809448 -60.900982
   vertex -38.672928 1304.824341 -61.430344
   vertex -39.071796 1303.666016 -60.974007
  endloop
 endfacet
 facet normal -0.644504 -0.077729 -0.760639
  outer loop
   vertex -39.071796 1303.666016 -60.974007
   vertex -38.672928 1304.824341 -61.430344
   vertex -38.259010 1304.250610 -61.722435
  endloop
 endfacet
 facet normal -0.276749 -0.588136 -0.759938
  outer loop
   vertex -38.259010 1304.250610 -61.722435
   vertex -38.968601 1303.522583 -60.900581
   vertex -39.071796 1303.666016 -60.974007
  endloop
 endfacet
 facet normal -0.276757 -0.588131 -0.759940
  outer loop
   vertex -37.846222 1303.676880 -61.428745
   vertex -38.968601 1303.522583 -60.900581
   vertex -38.259010 1304.250610 -61.722435
  endloop
 endfacet
 facet normal -0.017654 -0.949008 -0.314758
  outer loop
   vertex -38.926136 1303.463135 -60.723724
   vertex -38.968601 1303.522583 -60.900581
   vertex -37.846222 1303.676880 -61.428745
  endloop
 endfacet
 facet normal -0.017561 -0.949052 -0.314628
  outer loop
   vertex -37.846222 1303.676880 -61.428745
   vertex -37.676369 1303.439209 -60.721310
   vertex -38.926136 1303.463135 -60.723724
  endloop
 endfacet
 facet normal -0.018776 -0.949005 0.314700
  outer loop
   vertex -38.926136 1303.463135 -60.723724
   vertex -37.676369 1303.439209 -60.721310
   vertex -38.969284 1303.522583 -60.547028
  endloop
 endfacet
 facet normal -0.018799 -0.949054 0.314553
  outer loop
   vertex -38.969284 1303.522583 -60.547028
   vertex -37.676369 1303.439209 -60.721310
   vertex -37.848949 1303.676880 -60.014534
  endloop
 endfacet
 facet normal -0.279693 -0.588119 0.758872
  outer loop
   vertex -37.848949 1303.676880 -60.014534
   vertex -39.072762 1303.666016 -60.474007
   vertex -38.969284 1303.522583 -60.547028
  endloop
 endfacet
 facet normal -0.279689 -0.588133 0.758863
  outer loop
   vertex -38.262871 1304.250610 -59.722439
   vertex -39.072762 1303.666016 -60.474007
   vertex -37.848949 1303.676880 -60.014534
  endloop
 endfacet
 facet normal -0.225494 0.310484 0.923446
  outer loop
   vertex -39.861862 1303.087280 -67.775543
   vertex -39.050526 1303.671875 -67.773979
   vertex -39.965061 1303.230713 -67.848969
  endloop
 endfacet
 facet normal -0.225482 0.310456 0.923458
  outer loop
   vertex -39.965061 1303.230713 -67.848969
   vertex -39.050526 1303.671875 -67.773979
   vertex -39.153721 1303.815308 -67.847397
  endloop
 endfacet
 facet normal -0.540793 0.749524 0.381781
  outer loop
   vertex -39.153721 1303.815308 -67.847397
   vertex -40.007523 1303.290161 -68.025826
   vertex -39.965061 1303.230713 -67.848969
  endloop
 endfacet
 facet normal -0.540794 0.749525 0.381777
  outer loop
   vertex -39.196186 1303.874756 -68.024261
   vertex -40.007523 1303.290161 -68.025826
   vertex -39.153721 1303.815308 -67.847397
  endloop
 endfacet
 facet normal -0.539318 0.749526 -0.383858
  outer loop
   vertex -39.964378 1303.230713 -68.202522
   vertex -40.007523 1303.290161 -68.025826
   vertex -39.196186 1303.874756 -68.024261
  endloop
 endfacet
 facet normal -0.539308 0.749521 -0.383882
  outer loop
   vertex -39.196186 1303.874756 -68.024261
   vertex -39.153038 1303.815308 -68.200951
   vertex -39.964378 1303.230713 -68.202522
  endloop
 endfacet
 facet normal -0.221910 0.310467 -0.924319
  outer loop
   vertex -39.964378 1303.230713 -68.202522
   vertex -39.153038 1303.815308 -68.200951
   vertex -39.860897 1303.087280 -68.275543
  endloop
 endfacet
 facet normal -0.221939 0.310493 -0.924304
  outer loop
   vertex -39.860897 1303.087280 -68.275543
   vertex -39.153038 1303.815308 -68.200951
   vertex -39.049561 1303.671875 -68.273979
  endloop
 endfacet
 facet normal 0.225496 -0.310487 -0.923444
  outer loop
   vertex -39.049561 1303.671875 -68.273979
   vertex -39.757702 1302.943848 -68.202118
   vertex -39.860897 1303.087280 -68.275543
  endloop
 endfacet
 facet normal 0.225493 -0.310484 -0.923446
  outer loop
   vertex -38.946362 1303.528442 -68.200554
   vertex -39.757702 1302.943848 -68.202118
   vertex -39.049561 1303.671875 -68.273979
  endloop
 endfacet
 facet normal 0.540895 -0.749670 -0.381349
  outer loop
   vertex -39.715237 1302.884521 -68.025261
   vertex -39.757702 1302.943848 -68.202118
   vertex -38.946362 1303.528442 -68.200554
  endloop
 endfacet
 facet normal 0.540718 -0.749577 -0.381781
  outer loop
   vertex -38.946362 1303.528442 -68.200554
   vertex -38.903900 1303.468994 -68.023697
   vertex -39.715237 1302.884521 -68.025261
  endloop
 endfacet
 facet normal 0.539349 -0.749724 0.383426
  outer loop
   vertex -39.715237 1302.884521 -68.025261
   vertex -38.903900 1303.468994 -68.023697
   vertex -39.758385 1302.943848 -67.848564
  endloop
 endfacet
 facet normal 0.539316 -0.749527 0.383858
  outer loop
   vertex -39.758385 1302.943848 -67.848564
   vertex -38.903900 1303.468994 -68.023697
   vertex -38.947044 1303.528442 -67.847000
  endloop
 endfacet
 facet normal 0.221918 -0.310466 0.924318
  outer loop
   vertex -38.947044 1303.528442 -67.847000
   vertex -39.861862 1303.087280 -67.775543
   vertex -39.758385 1302.943848 -67.848564
  endloop
 endfacet
 facet normal 0.221917 -0.310462 0.924319
  outer loop
   vertex -39.050526 1303.671875 -67.773979
   vertex -39.861862 1303.087280 -67.775543
   vertex -38.947044 1303.528442 -67.847000
  endloop
 endfacet
 facet normal -0.225490 0.310468 0.923452
  outer loop
   vertex -38.248775 1304.250610 -67.022430
   vertex -37.437435 1304.835205 -67.020859
   vertex -38.661564 1304.824341 -67.316116
  endloop
 endfacet
 facet normal -0.225486 0.310537 0.923430
  outer loop
   vertex -38.661564 1304.824341 -67.316116
   vertex -37.437435 1304.835205 -67.020859
   vertex -37.850227 1305.408813 -67.314552
  endloop
 endfacet
 facet normal -0.540771 0.749651 0.381562
  outer loop
   vertex -37.850227 1305.408813 -67.314552
   vertex -38.831417 1305.061890 -68.023552
   vertex -38.661564 1304.824341 -67.316116
  endloop
 endfacet
 facet normal -0.540818 0.749563 0.381670
  outer loop
   vertex -38.020077 1305.646484 -68.021988
   vertex -38.831417 1305.061890 -68.023552
   vertex -37.850227 1305.408813 -67.314552
  endloop
 endfacet
 facet normal -0.539369 0.749599 -0.383643
  outer loop
   vertex -38.658836 1304.824341 -68.730331
   vertex -38.831417 1305.061890 -68.023552
   vertex -38.020077 1305.646484 -68.021988
  endloop
 endfacet
 facet normal -0.539264 0.749616 -0.383757
  outer loop
   vertex -38.020077 1305.646484 -68.021988
   vertex -37.847496 1305.408813 -68.728760
   vertex -38.658836 1304.824341 -68.730331
  endloop
 endfacet
 facet normal -0.221885 0.310497 -0.924315
  outer loop
   vertex -38.658836 1304.824341 -68.730331
   vertex -37.847496 1305.408813 -68.728760
   vertex -38.244915 1304.250610 -69.022423
  endloop
 endfacet
 facet normal -0.221953 0.310515 -0.924293
  outer loop
   vertex -38.244915 1304.250610 -69.022423
   vertex -37.847496 1305.408813 -68.728760
   vertex -37.433575 1304.835205 -69.020859
  endloop
 endfacet
 facet normal 0.225485 -0.310472 -0.923452
  outer loop
   vertex -37.433575 1304.835205 -69.020859
   vertex -37.832127 1303.676880 -68.728737
   vertex -38.244915 1304.250610 -69.022423
  endloop
 endfacet
 facet normal 0.225495 -0.310475 -0.923448
  outer loop
   vertex -37.020786 1304.261475 -68.727165
   vertex -37.832127 1303.676880 -68.728737
   vertex -37.433575 1304.835205 -69.020859
  endloop
 endfacet
 facet normal 0.540820 -0.749560 -0.381672
  outer loop
   vertex -37.662273 1303.439209 -68.021301
   vertex -37.832127 1303.676880 -68.728737
   vertex -37.020786 1304.261475 -68.727165
  endloop
 endfacet
 facet normal 0.540820 -0.749560 -0.381672
  outer loop
   vertex -37.020786 1304.261475 -68.727165
   vertex -36.850933 1304.023804 -68.019730
   vertex -37.662273 1303.439209 -68.021301
  endloop
 endfacet
 facet normal 0.539339 -0.749563 0.383756
  outer loop
   vertex -37.662273 1303.439209 -68.021301
   vertex -36.850933 1304.023804 -68.019730
   vertex -37.834858 1303.676880 -67.314522
  endloop
 endfacet
 facet normal 0.539340 -0.749560 0.383760
  outer loop
   vertex -37.834858 1303.676880 -67.314522
   vertex -36.850933 1304.023804 -68.019730
   vertex -37.023518 1304.261475 -67.312958
  endloop
 endfacet
 facet normal 0.221922 -0.310471 0.924315
  outer loop
   vertex -37.023518 1304.261475 -67.312958
   vertex -38.248775 1304.250610 -67.022430
   vertex -37.834858 1303.676880 -67.314522
  endloop
 endfacet
 facet normal 0.221921 -0.310483 0.924311
  outer loop
   vertex -37.437435 1304.835205 -67.020859
   vertex -38.248775 1304.250610 -67.022430
   vertex -37.023518 1304.261475 -67.312958
  endloop
 endfacet
 facet normal -0.647427 -0.077752 0.758151
  outer loop
   vertex -39.058666 1303.666016 -67.773994
   vertex -38.248775 1304.250610 -67.022430
   vertex -39.161865 1303.809448 -67.847412
  endloop
 endfacet
 facet normal -0.647434 -0.077730 0.758147
  outer loop
   vertex -39.161865 1303.809448 -67.847412
   vertex -38.248775 1304.250610 -67.022430
   vertex -38.661564 1304.824341 -67.316116
  endloop
 endfacet
 facet normal -0.906618 0.283157 0.312835
  outer loop
   vertex -38.661564 1304.824341 -67.316116
   vertex -39.204327 1303.868896 -68.024277
   vertex -39.161865 1303.809448 -67.847412
  endloop
 endfacet
 facet normal -0.906624 0.283205 0.312775
  outer loop
   vertex -38.831417 1305.061890 -68.023552
   vertex -39.204327 1303.868896 -68.024277
   vertex -38.661564 1304.824341 -67.316116
  endloop
 endfacet
 facet normal -0.905381 0.283199 -0.316361
  outer loop
   vertex -39.161182 1303.809448 -68.200966
   vertex -39.204327 1303.868896 -68.024277
   vertex -38.831417 1305.061890 -68.023552
  endloop
 endfacet
 facet normal -0.905415 0.283194 -0.316265
  outer loop
   vertex -38.831417 1305.061890 -68.023552
   vertex -38.658836 1304.824341 -68.730331
   vertex -39.161182 1303.809448 -68.200966
  endloop
 endfacet
 facet normal -0.644518 -0.077722 -0.760629
  outer loop
   vertex -39.161182 1303.809448 -68.200966
   vertex -38.658836 1304.824341 -68.730331
   vertex -39.057701 1303.666016 -68.273994
  endloop
 endfacet
 facet normal -0.644503 -0.077732 -0.760640
  outer loop
   vertex -39.057701 1303.666016 -68.273994
   vertex -38.658836 1304.824341 -68.730331
   vertex -38.244915 1304.250610 -69.022423
  endloop
 endfacet
 facet normal -0.276749 -0.588136 -0.759938
  outer loop
   vertex -38.244915 1304.250610 -69.022423
   vertex -38.954506 1303.522583 -68.200569
   vertex -39.057701 1303.666016 -68.273994
  endloop
 endfacet
 facet normal -0.276760 -0.588128 -0.759940
  outer loop
   vertex -37.832127 1303.676880 -68.728737
   vertex -38.954506 1303.522583 -68.200569
   vertex -38.244915 1304.250610 -69.022423
  endloop
 endfacet
 facet normal -0.017655 -0.949008 -0.314758
  outer loop
   vertex -38.912041 1303.463135 -68.023712
   vertex -38.954506 1303.522583 -68.200569
   vertex -37.832127 1303.676880 -68.728737
  endloop
 endfacet
 facet normal -0.017562 -0.949053 -0.314628
  outer loop
   vertex -37.832127 1303.676880 -68.728737
   vertex -37.662273 1303.439209 -68.021301
   vertex -38.912041 1303.463135 -68.023712
  endloop
 endfacet
 facet normal -0.018775 -0.949005 0.314701
  outer loop
   vertex -38.912041 1303.463135 -68.023712
   vertex -37.662273 1303.439209 -68.021301
   vertex -38.955189 1303.522583 -67.847015
  endloop
 endfacet
 facet normal -0.018798 -0.949054 0.314551
  outer loop
   vertex -38.955189 1303.522583 -67.847015
   vertex -37.662273 1303.439209 -68.021301
   vertex -37.834858 1303.676880 -67.314522
  endloop
 endfacet
 facet normal -0.279694 -0.588120 0.758872
  outer loop
   vertex -37.834858 1303.676880 -67.314522
   vertex -39.058666 1303.666016 -67.773994
   vertex -38.955189 1303.522583 -67.847015
  endloop
 endfacet
 facet normal -0.279691 -0.588129 0.758866
  outer loop
   vertex -38.248775 1304.250610 -67.022430
   vertex -39.058666 1303.666016 -67.773994
   vertex -37.834858 1303.676880 -67.314522
  endloop
 endfacet
 facet normal -0.225493 0.310484 0.923446
  outer loop
   vertex -39.875957 1303.087280 -60.475555
   vertex -39.064617 1303.671875 -60.473991
   vertex -39.979156 1303.230713 -60.548981
  endloop
 endfacet
 facet normal -0.225486 0.310469 0.923453
  outer loop
   vertex -39.979156 1303.230713 -60.548981
   vertex -39.064617 1303.671875 -60.473991
   vertex -39.167816 1303.815308 -60.547413
  endloop
 endfacet
 facet normal -0.540792 0.749524 0.381781
  outer loop
   vertex -39.167816 1303.815308 -60.547413
   vertex -40.021618 1303.290161 -60.725838
   vertex -39.979156 1303.230713 -60.548981
  endloop
 endfacet
 facet normal -0.540792 0.749524 0.381781
  outer loop
   vertex -39.210278 1303.874756 -60.724270
   vertex -40.021618 1303.290161 -60.725838
   vertex -39.167816 1303.815308 -60.547413
  endloop
 endfacet
 facet normal -0.539314 0.749526 -0.383865
  outer loop
   vertex -39.978474 1303.230713 -60.902531
   vertex -40.021618 1303.290161 -60.725838
   vertex -39.210278 1303.874756 -60.724270
  endloop
 endfacet
 facet normal -0.539316 0.749527 -0.383858
  outer loop
   vertex -39.210278 1303.874756 -60.724270
   vertex -39.167133 1303.815308 -60.900967
   vertex -39.978474 1303.230713 -60.902531
  endloop
 endfacet
 facet normal -0.221926 0.310477 -0.924312
  outer loop
   vertex -39.978474 1303.230713 -60.902531
   vertex -39.167133 1303.815308 -60.900967
   vertex -39.874992 1303.087280 -60.975555
  endloop
 endfacet
 facet normal -0.221913 0.310465 -0.924319
  outer loop
   vertex -39.874992 1303.087280 -60.975555
   vertex -39.167133 1303.815308 -60.900967
   vertex -39.063652 1303.671875 -60.973988
  endloop
 endfacet
 facet normal 0.225489 -0.310472 -0.923451
  outer loop
   vertex -39.063652 1303.671875 -60.973988
   vertex -39.771797 1302.943848 -60.902134
   vertex -39.874992 1303.087280 -60.975555
  endloop
 endfacet
 facet normal 0.225489 -0.310472 -0.923451
  outer loop
   vertex -38.960457 1303.528442 -60.900566
   vertex -39.771797 1302.943848 -60.902134
   vertex -39.063652 1303.671875 -60.973988
  endloop
 endfacet
 facet normal 0.540898 -0.749672 -0.381342
  outer loop
   vertex -39.729332 1302.884521 -60.725273
   vertex -39.771797 1302.943848 -60.902134
   vertex -38.960457 1303.528442 -60.900566
  endloop
 endfacet
 facet normal 0.540714 -0.749575 -0.381791
  outer loop
   vertex -38.960457 1303.528442 -60.900566
   vertex -38.917992 1303.468994 -60.723709
   vertex -39.729332 1302.884521 -60.725273
  endloop
 endfacet
 facet normal 0.539346 -0.749723 0.383433
  outer loop
   vertex -39.729332 1302.884521 -60.725273
   vertex -38.917992 1303.468994 -60.723709
   vertex -39.772480 1302.943848 -60.548580
  endloop
 endfacet
 facet normal 0.539313 -0.749525 0.383868
  outer loop
   vertex -39.772480 1302.943848 -60.548580
   vertex -38.917992 1303.468994 -60.723709
   vertex -38.961140 1303.528442 -60.547012
  endloop
 endfacet
 facet normal 0.221925 -0.310482 0.924311
  outer loop
   vertex -38.961140 1303.528442 -60.547012
   vertex -39.875957 1303.087280 -60.475555
   vertex -39.772480 1302.943848 -60.548580
  endloop
 endfacet
 facet normal 0.221918 -0.310466 0.924318
  outer loop
   vertex -39.064617 1303.671875 -60.473991
   vertex -39.875957 1303.087280 -60.475555
   vertex -38.961140 1303.528442 -60.547012
  endloop
 endfacet
 facet normal 0.221924 -0.310474 0.924314
  outer loop
   vertex -37.848949 1303.676880 -60.014534
   vertex -37.037609 1304.261475 -60.012970
   vertex -38.262871 1304.250610 -59.722439
  endloop
 endfacet
 facet normal 0.221924 -0.310474 0.924314
  outer loop
   vertex -38.262871 1304.250610 -59.722439
   vertex -37.037609 1304.261475 -60.012970
   vertex -37.451530 1304.835205 -59.720875
  endloop
 endfacet
 facet normal -0.225490 0.310479 0.923448
  outer loop
   vertex -37.451530 1304.835205 -59.720875
   vertex -38.675659 1304.824341 -60.016132
   vertex -38.262871 1304.250610 -59.722439
  endloop
 endfacet
 facet normal -0.225486 0.310533 0.923431
  outer loop
   vertex -37.864319 1305.408813 -60.014565
   vertex -38.675659 1304.824341 -60.016132
   vertex -37.451530 1304.835205 -59.720875
  endloop
 endfacet
 facet normal -0.540771 0.749652 0.381562
  outer loop
   vertex -38.845512 1305.061890 -60.723568
   vertex -38.675659 1304.824341 -60.016132
   vertex -37.864319 1305.408813 -60.014565
  endloop
 endfacet
 facet normal -0.540818 0.749561 0.381672
  outer loop
   vertex -37.864319 1305.408813 -60.014565
   vertex -38.034172 1305.646484 -60.722000
   vertex -38.845512 1305.061890 -60.723568
  endloop
 endfacet
 facet normal -0.539367 0.749599 -0.383647
  outer loop
   vertex -38.845512 1305.061890 -60.723568
   vertex -38.034172 1305.646484 -60.722000
   vertex -38.672928 1304.824341 -61.430344
  endloop
 endfacet
 facet normal -0.539268 0.749615 -0.383755
  outer loop
   vertex -38.672928 1304.824341 -61.430344
   vertex -38.034172 1305.646484 -60.722000
   vertex -37.861591 1305.408813 -61.428776
  endloop
 endfacet
 facet normal -0.221889 0.310495 -0.924315
  outer loop
   vertex -37.861591 1305.408813 -61.428776
   vertex -38.259010 1304.250610 -61.722435
   vertex -38.672928 1304.824341 -61.430344
  endloop
 endfacet
 facet normal -0.221951 0.310511 -0.924295
  outer loop
   vertex -37.447670 1304.835205 -61.720871
   vertex -38.259010 1304.250610 -61.722435
   vertex -37.861591 1305.408813 -61.428776
  endloop
 endfacet
 facet normal 0.225487 -0.310476 -0.923450
  outer loop
   vertex -37.846222 1303.676880 -61.428745
   vertex -38.259010 1304.250610 -61.722435
   vertex -37.447670 1304.835205 -61.720871
  endloop
 endfacet
 facet normal 0.225487 -0.310476 -0.923450
  outer loop
   vertex -37.447670 1304.835205 -61.720871
   vertex -37.034882 1304.261475 -61.427181
   vertex -37.846222 1303.676880 -61.428745
  endloop
 endfacet
 facet normal 0.540817 -0.749562 -0.381672
  outer loop
   vertex -37.846222 1303.676880 -61.428745
   vertex -37.034882 1304.261475 -61.427181
   vertex -37.676369 1303.439209 -60.721310
  endloop
 endfacet
 facet normal 0.540817 -0.749562 -0.381672
  outer loop
   vertex -37.676369 1303.439209 -60.721310
   vertex -37.034882 1304.261475 -61.427181
   vertex -36.865028 1304.023804 -60.719746
  endloop
 endfacet
 facet normal 0.539342 -0.749562 0.383755
  outer loop
   vertex -36.865028 1304.023804 -60.719746
   vertex -37.848949 1303.676880 -60.014534
   vertex -37.676369 1303.439209 -60.721310
  endloop
 endfacet
 facet normal 0.539342 -0.749562 0.383755
  outer loop
   vertex -37.037609 1304.261475 -60.012970
   vertex -37.848949 1303.676880 -60.014534
   vertex -36.865028 1304.023804 -60.719746
  endloop
 endfacet
endsolid