solid stl file generated from DOUG
 facet normal -0.792024 0.610486 -0.001992
  outer loop
   vertex 52.998272 1271.482056 -38.044842
   vertex 52.937111 1271.398926 -39.203716
   vertex 52.934196 1271.398926 -38.045006
  endloop
 endfacet
 facet normal -0.999997 -0.000000 -0.002515
  outer loop
   vertex 52.934196 1271.398926 -38.045006
   vertex 52.937111 1271.398926 -39.203716
   vertex 52.937111 1270.557251 -39.203716
  endloop
 endfacet
 facet normal 0.002514 0.000000 -0.999997
  outer loop
   vertex 54.530510 1269.515381 -13.249464
   vertex 54.198215 1267.687378 -13.250299
   vertex 54.198215 1269.515381 -13.250299
  endloop
 endfacet
 facet normal -0.999997 0.000000 -0.002516
  outer loop
   vertex 54.198215 1269.515381 -13.250299
   vertex 54.198215 1267.687378 -13.250299
   vertex 54.197502 1269.586792 -12.966730
  endloop
 endfacet
 facet normal -0.999997 0.000000 -0.002516
  outer loop
   vertex 54.267399 1269.586792 -40.760448
   vertex 54.266685 1267.687378 -40.476879
   vertex 54.266685 1269.515381 -40.476879
  endloop
 endfacet
 facet normal -0.002514 -0.000000 0.999997
  outer loop
   vertex 54.266685 1269.515381 -40.476879
   vertex 54.266685 1267.687378 -40.476879
   vertex 54.598980 1269.515381 -40.476044
  endloop
 endfacet
 facet normal 0.000000 1.000000 -0.000000
  outer loop
   vertex 54.552242 1271.422852 -38.657234
   vertex 54.442635 1271.422852 -38.657509
   vertex 54.383312 1271.422852 -15.068760
  endloop
 endfacet
 facet normal -0.804734 0.593632 -0.002024
  outer loop
   vertex 54.383312 1271.422852 -15.068760
   vertex 54.442635 1271.422852 -38.657509
   vertex 54.297047 1271.305908 -15.068977
  endloop
 endfacet
 facet normal -0.999997 -0.000000 -0.002515
  outer loop
   vertex 52.875061 1270.557251 -14.530134
   vertex 52.877975 1271.398926 -15.688846
   vertex 52.877975 1270.557251 -15.688846
  endloop
 endfacet
 facet normal 0.002515 -0.000000 -0.999997
  outer loop
   vertex 52.877975 1270.557251 -15.688846
   vertex 52.877975 1271.398926 -15.688846
   vertex 53.115723 1271.383301 -15.688248
  endloop
 endfacet
 facet normal -0.360122 0.932905 -0.000906
  outer loop
   vertex 52.982265 1270.641235 -38.661182
   vertex 52.922947 1270.641235 -15.072433
   vertex 53.015785 1270.654175 -38.661098
  endloop
 endfacet
 facet normal -0.360122 0.932905 -0.000906
  outer loop
   vertex 53.015785 1270.654175 -38.661098
   vertex 52.922947 1270.641235 -15.072433
   vertex 52.956467 1270.654175 -15.072349
  endloop
 endfacet
 facet normal -0.999997 -0.000000 -0.002515
  outer loop
   vertex 52.956467 1270.654175 -15.072349
   vertex 52.956467 1271.267700 -15.072349
   vertex 53.015785 1270.654175 -38.661098
  endloop
 endfacet
 facet normal -0.999997 0.000000 -0.002515
  outer loop
   vertex 54.265564 1266.588867 -40.030704
   vertex 54.267399 1265.490479 -40.760448
   vertex 54.262356 1265.490479 -38.754978
  endloop
 endfacet
 facet normal -0.000000 -1.000000 0.000000
  outer loop
   vertex 54.262356 1265.490479 -38.754978
   vertex 54.267399 1265.490479 -40.760448
   vertex 54.594650 1265.490479 -38.754143
  endloop
 endfacet
 facet normal -0.002514 0.000000 0.999997
  outer loop
   vertex 54.594650 1265.490479 -38.754143
   vertex 54.594650 1269.852417 -38.754143
   vertex 54.262356 1265.490479 -38.754978
  endloop
 endfacet
 facet normal 0.000000 1.000000 0.000000
  outer loop
   vertex 54.377087 1271.482056 -39.200096
   vertex 54.533138 1271.482056 -38.040981
   vertex 54.536053 1271.482056 -39.199696
  endloop
 endfacet
 facet normal 0.792024 0.610486 0.001992
  outer loop
   vertex 54.536053 1271.482056 -39.199696
   vertex 54.533138 1271.482056 -38.040981
   vertex 54.597214 1271.398926 -38.040821
  endloop
 endfacet
 facet normal 0.792024 0.610486 0.001992
  outer loop
   vertex 54.597214 1271.398926 -38.040821
   vertex 54.600128 1271.398926 -39.199535
   vertex 54.536053 1271.482056 -39.199696
  endloop
 endfacet
 facet normal -0.000000 -1.000000 0.000000
  outer loop
   vertex 54.202545 1265.490479 -14.972198
   vertex 54.534840 1265.490479 -14.971363
   vertex 54.197502 1265.490479 -12.966730
  endloop
 endfacet
 facet normal -0.000000 -1.000000 -0.000000
  outer loop
   vertex 54.197502 1265.490479 -12.966730
   vertex 54.534840 1265.490479 -14.971363
   vertex 54.529797 1265.490479 -12.965895
  endloop
 endfacet
 facet normal -0.002514 0.000000 0.999997
  outer loop
   vertex 54.529797 1265.490479 -12.965895
   vertex 54.529797 1269.586792 -12.965895
   vertex 54.197502 1265.490479 -12.966730
  endloop
 endfacet
 facet normal 0.000000 1.000000 -0.000000
  outer loop
   vertex 54.599152 1269.852417 -40.543964
   vertex 54.266857 1269.852417 -40.544800
   vertex 54.262356 1269.852417 -38.754978
  endloop
 endfacet
 facet normal -0.999997 -0.000000 -0.002515
  outer loop
   vertex 54.262356 1269.852417 -38.754978
   vertex 54.266857 1269.852417 -40.544800
   vertex 54.263729 1269.515381 -39.300964
  endloop
 endfacet
 facet normal -0.999997 0.000000 -0.002515
  outer loop
   vertex 54.263729 1269.515381 -39.300964
   vertex 54.263729 1267.687378 -39.300964
   vertex 54.262356 1269.852417 -38.754978
  endloop
 endfacet
 facet normal 0.804734 0.593632 0.002024
  outer loop
   vertex 53.178143 1271.305908 -38.660690
   vertex 53.091877 1271.422852 -38.660908
   vertex 53.032555 1271.422852 -15.072157
  endloop
 endfacet
 facet normal 0.000000 1.000000 -0.000000
  outer loop
   vertex 53.032555 1271.422852 -15.072157
   vertex 53.091877 1271.422852 -38.660908
   vertex 52.982265 1271.422852 -38.661182
  endloop
 endfacet
 facet normal -0.000000 1.000000 0.000000
  outer loop
   vertex 52.982265 1271.422852 -38.661182
   vertex 52.922943 1271.422852 -15.072433
   vertex 53.032555 1271.422852 -15.072157
  endloop
 endfacet
 facet normal -0.999997 -0.000000 -0.002515
  outer loop
   vertex 54.201172 1267.687378 -14.426215
   vertex 54.201172 1269.515381 -14.426215
   vertex 54.202545 1269.852539 -14.972199
  endloop
 endfacet
 facet normal -0.999997 0.000000 -0.002515
  outer loop
   vertex 54.202545 1269.852539 -14.972199
   vertex 54.201172 1269.515381 -14.426215
   vertex 54.198044 1269.852539 -13.182377
  endloop
 endfacet
 facet normal 0.000000 1.000000 0.000000
  outer loop
   vertex 54.198044 1269.852539 -13.182377
   vertex 54.530338 1269.852539 -13.181541
   vertex 54.202545 1269.852539 -14.972199
  endloop
 endfacet
 facet normal 0.792024 0.610486 0.001992
  outer loop
   vertex 54.538078 1271.398926 -14.525951
   vertex 54.540993 1271.398926 -15.684664
   vertex 54.474003 1271.482056 -14.526113
  endloop
 endfacet
 facet normal 0.792024 0.610486 0.001992
  outer loop
   vertex 54.474003 1271.482056 -14.526113
   vertex 54.540993 1271.398926 -15.684664
   vertex 54.476917 1271.482056 -15.684825
  endloop
 endfacet
 facet normal -0.000000 1.000000 0.000000
  outer loop
   vertex 54.476917 1271.482056 -15.684825
   vertex 54.315037 1271.482056 -14.526513
   vertex 54.474003 1271.482056 -14.526113
  endloop
 endfacet
 facet normal 0.002514 -0.000002 -0.999997
  outer loop
   vertex 53.101017 1271.482056 -15.688285
   vertex 53.115723 1271.383301 -15.688248
   vertex 52.942051 1271.482056 -15.688684
  endloop
 endfacet
 facet normal 0.002515 0.000000 -0.999997
  outer loop
   vertex 52.942051 1271.482056 -15.688684
   vertex 53.115723 1271.383301 -15.688248
   vertex 52.877975 1271.398926 -15.688846
  endloop
 endfacet
 facet normal -0.792024 0.610486 -0.001992
  outer loop
   vertex 52.877975 1271.398926 -15.688846
   vertex 52.875061 1271.398926 -14.530134
   vertex 52.942051 1271.482056 -15.688684
  endloop
 endfacet
 facet normal -0.999997 -0.000000 -0.002515
  outer loop
   vertex 52.875061 1270.557251 -14.530134
   vertex 52.875061 1271.398926 -14.530134
   vertex 52.877975 1271.398926 -15.688846
  endloop
 endfacet
 facet normal -0.999997 0.000000 -0.002515
  outer loop
   vertex 52.937111 1270.557251 -39.203716
   vertex 52.934196 1270.557251 -38.045006
   vertex 52.934196 1271.398926 -38.045006
  endloop
 endfacet
 facet normal -0.002519 -0.000000 0.999997
  outer loop
   vertex 52.934196 1271.398926 -38.045006
   vertex 52.934196 1270.557251 -38.045006
   vertex 53.171944 1271.383301 -38.044407
  endloop
 endfacet
 facet normal -0.002521 -0.000030 0.999997
  outer loop
   vertex 53.171944 1271.383301 -38.044407
   vertex 52.998272 1271.482056 -38.044842
   vertex 52.934196 1271.398926 -38.045006
  endloop
 endfacet
 facet normal -0.002496 0.000015 0.999997
  outer loop
   vertex 53.157238 1271.482056 -38.044445
   vertex 52.998272 1271.482056 -38.044842
   vertex 53.171944 1271.383301 -38.044407
  endloop
 endfacet
 facet normal 0.804734 0.593632 0.002024
  outer loop
   vertex 53.032555 1271.422852 -15.072157
   vertex 53.118820 1271.305908 -15.071940
   vertex 53.178143 1271.305908 -38.660690
  endloop
 endfacet
 facet normal -0.000000 1.000000 -0.000000
  outer loop
   vertex 53.178143 1271.305908 -38.660690
   vertex 53.118820 1271.305908 -15.071940
   vertex 54.297047 1271.305908 -15.068977
  endloop
 endfacet
 facet normal 0.000000 1.000000 0.000000
  outer loop
   vertex 54.297047 1271.305908 -15.068977
   vertex 54.356369 1271.305908 -38.657726
   vertex 53.178143 1271.305908 -38.660690
  endloop
 endfacet
 facet normal -0.804734 0.593632 -0.002024
  outer loop
   vertex 54.442635 1271.422852 -38.657509
   vertex 54.356369 1271.305908 -38.657726
   vertex 54.297047 1271.305908 -15.068977
  endloop
 endfacet
 facet normal 0.999997 0.000000 0.002515
  outer loop
   vertex 54.596024 1269.515381 -39.300129
   vertex 54.594650 1269.852417 -38.754143
   vertex 54.596024 1267.687378 -39.300129
  endloop
 endfacet
 facet normal 0.999997 0.000000 0.002515
  outer loop
   vertex 54.596024 1267.687378 -39.300129
   vertex 54.594650 1269.852417 -38.754143
   vertex 54.594650 1265.490479 -38.754143
  endloop
 endfacet
 facet normal 0.999997 -0.000000 0.002515
  outer loop
   vertex 54.594650 1265.490479 -38.754143
   vertex 54.599693 1265.490479 -40.759613
   vertex 54.596024 1267.687378 -39.300129
  endloop
 endfacet
 facet normal -0.000000 -1.000000 -0.000000
  outer loop
   vertex 54.267399 1265.490479 -40.760448
   vertex 54.599693 1265.490479 -40.759613
   vertex 54.594650 1265.490479 -38.754143
  endloop
 endfacet
 facet normal 0.002514 0.000000 -0.999997
  outer loop
   vertex 54.599693 1269.586792 -40.759613
   vertex 54.599693 1265.490479 -40.759613
   vertex 54.267399 1265.490479 -40.760448
  endloop
 endfacet
 facet normal 0.002514 0.000000 -0.999997
  outer loop
   vertex 54.202545 1265.490479 -14.972198
   vertex 54.534840 1269.852539 -14.971363
   vertex 54.534840 1265.490479 -14.971363
  endloop
 endfacet
 facet normal 0.999997 0.000000 0.002515
  outer loop
   vertex 54.534840 1265.490479 -14.971363
   vertex 54.534840 1269.852539 -14.971363
   vertex 54.533466 1267.687378 -14.425380
  endloop
 endfacet
 facet normal 0.999997 0.000000 0.002515
  outer loop
   vertex 54.533466 1267.687378 -14.425380
   vertex 54.529797 1265.490479 -12.965895
   vertex 54.534840 1265.490479 -14.971363
  endloop
 endfacet
 facet normal 0.999997 -0.000000 0.002514
  outer loop
   vertex 54.530510 1267.687378 -13.249464
   vertex 54.529797 1265.490479 -12.965895
   vertex 54.533466 1267.687378 -14.425380
  endloop
 endfacet
 facet normal 0.999997 -0.000000 0.002516
  outer loop
   vertex 54.529797 1269.586792 -12.965895
   vertex 54.529797 1265.490479 -12.965895
   vertex 54.530510 1267.687378 -13.249464
  endloop
 endfacet
 facet normal -0.002533 0.000018 0.999997
  outer loop
   vertex 54.594547 1265.490601 -38.750042
   vertex 53.285717 1269.831421 -38.753433
   vertex 53.285717 1265.490601 -38.753357
  endloop
 endfacet
 facet normal -0.999997 -0.000000 -0.002526
  outer loop
   vertex 53.285717 1265.490601 -38.753357
   vertex 53.285717 1269.831421 -38.753433
   vertex 53.286552 1269.831421 -39.084160
  endloop
 endfacet
 facet normal -0.999997 -0.000001 -0.002538
  outer loop
   vertex 53.286552 1269.831421 -39.084160
   vertex 53.286556 1265.490601 -39.084084
   vertex 53.285717 1265.490601 -38.753357
  endloop
 endfacet
 facet normal 0.002553 -0.000018 -0.999997
  outer loop
   vertex 54.595406 1269.831421 -39.080818
   vertex 53.286556 1265.490601 -39.084084
   vertex 53.286552 1269.831421 -39.084160
  endloop
 endfacet
 facet normal 0.002533 -0.000011 -0.999997
  outer loop
   vertex 54.595387 1265.490601 -39.080769
   vertex 53.286556 1265.490601 -39.084084
   vertex 54.595406 1269.831421 -39.080818
  endloop
 endfacet
 facet normal -0.999997 0.000000 -0.002515
  outer loop
   vertex 52.922943 1271.422852 -15.072433
   vertex 52.982265 1271.422852 -38.661182
   vertex 52.922943 1271.280518 -15.072433
  endloop
 endfacet
 facet normal -0.999997 -0.000000 -0.002515
  outer loop
   vertex 52.922943 1271.280518 -15.072433
   vertex 52.982265 1271.422852 -38.661182
   vertex 52.982265 1271.280518 -38.661182
  endloop
 endfacet
 facet normal -0.357124 -0.934056 -0.000898
  outer loop
   vertex 52.982265 1271.280518 -38.661182
   vertex 52.956467 1271.267700 -15.072349
   vertex 52.922943 1271.280518 -15.072433
  endloop
 endfacet
 facet normal -0.357160 -0.934043 -0.000898
  outer loop
   vertex 53.015785 1271.267700 -38.661098
   vertex 52.956467 1271.267700 -15.072349
   vertex 52.982265 1271.280518 -38.661182
  endloop
 endfacet
 facet normal -0.999997 0.000000 -0.002515
  outer loop
   vertex 53.015785 1270.654175 -38.661098
   vertex 52.956467 1271.267700 -15.072349
   vertex 53.015785 1271.267700 -38.661098
  endloop
 endfacet
 facet normal -0.002498 -0.000011 0.999997
  outer loop
   vertex 54.533932 1265.490601 -14.644739
   vertex 54.533955 1269.831421 -14.644691
   vertex 53.225101 1265.490601 -14.648008
  endloop
 endfacet
 facet normal -0.002477 -0.000018 0.999997
  outer loop
   vertex 53.225101 1265.490601 -14.648008
   vertex 54.533955 1269.831421 -14.644691
   vertex 53.225101 1269.831421 -14.647932
  endloop
 endfacet
 facet normal -0.999997 0.000000 -0.002503
  outer loop
   vertex 53.225101 1269.831421 -14.647932
   vertex 53.225929 1265.490601 -14.978734
   vertex 53.225101 1265.490601 -14.648008
  endloop
 endfacet
 facet normal -0.999997 -0.000001 -0.002491
  outer loop
   vertex 53.225925 1269.831421 -14.978659
   vertex 53.225929 1265.490601 -14.978734
   vertex 53.225101 1269.831421 -14.647932
  endloop
 endfacet
 facet normal 0.002498 0.000017 -0.999997
  outer loop
   vertex 54.534760 1265.490601 -14.975465
   vertex 53.225929 1265.490601 -14.978734
   vertex 53.225925 1269.831421 -14.978659
  endloop
 endfacet
 facet normal 0.002497 0.000017 -0.999997
  outer loop
   vertex 53.225925 1269.831421 -14.978659
   vertex 54.534760 1269.831421 -14.975390
   vertex 54.534760 1265.490601 -14.975465
  endloop
 endfacet
 facet normal -0.999997 0.000000 -0.002515
  outer loop
   vertex 52.982265 1270.641235 -38.661182
   vertex 52.982265 1270.570679 -38.661182
   vertex 52.922947 1270.570679 -15.072433
  endloop
 endfacet
 facet normal -0.000000 -1.000000 0.000000
  outer loop
   vertex 52.922947 1270.570679 -15.072433
   vertex 52.982265 1270.570679 -38.661182
   vertex 54.552246 1270.570679 -38.657234
  endloop
 endfacet
 facet normal 0.000000 -1.000000 -0.000000
  outer loop
   vertex 54.552246 1270.570679 -38.657234
   vertex 54.492924 1270.570679 -15.068484
   vertex 52.922947 1270.570679 -15.072433
  endloop
 endfacet
 facet normal 0.999997 -0.000000 0.002515
  outer loop
   vertex 54.552246 1270.641235 -38.657234
   vertex 54.492924 1270.570679 -15.068484
   vertex 54.552246 1270.570679 -38.657234
  endloop
 endfacet
 facet normal 0.999997 -0.000000 0.002515
  outer loop
   vertex 54.492924 1270.641235 -15.068484
   vertex 54.492924 1270.570679 -15.068484
   vertex 54.552246 1270.641235 -38.657234
  endloop
 endfacet
 facet normal 0.360086 0.932919 0.000906
  outer loop
   vertex 54.552246 1270.641235 -38.657234
   vertex 54.518723 1270.654175 -38.657318
   vertex 54.492924 1270.641235 -15.068484
  endloop
 endfacet
 facet normal 0.360122 0.932905 0.000906
  outer loop
   vertex 54.492924 1270.641235 -15.068484
   vertex 54.518723 1270.654175 -38.657318
   vertex 54.459404 1270.654175 -15.068569
  endloop
 endfacet
 facet normal 0.999997 -0.000000 0.002515
  outer loop
   vertex 54.459404 1270.654175 -15.068569
   vertex 54.518723 1270.654175 -38.657318
   vertex 54.518723 1271.267700 -38.657318
  endloop
 endfacet
 facet normal 0.999997 0.000000 0.002515
  outer loop
   vertex 54.518723 1271.267700 -38.657318
   vertex 54.459404 1271.267700 -15.068569
   vertex 54.459404 1270.654175 -15.068569
  endloop
 endfacet
 facet normal 0.357160 -0.934043 0.000898
  outer loop
   vertex 54.552242 1271.280518 -38.657234
   vertex 54.459404 1271.267700 -15.068569
   vertex 54.518723 1271.267700 -38.657318
  endloop
 endfacet
 facet normal 0.357160 -0.934043 0.000898
  outer loop
   vertex 54.492924 1271.280518 -15.068484
   vertex 54.459404 1271.267700 -15.068569
   vertex 54.552242 1271.280518 -38.657234
  endloop
 endfacet
 facet normal 0.999997 0.000000 0.002515
  outer loop
   vertex 54.552242 1271.280518 -38.657234
   vertex 54.552242 1271.422852 -38.657234
   vertex 54.492924 1271.280518 -15.068484
  endloop
 endfacet
 facet normal 0.999997 0.000000 0.002515
  outer loop
   vertex 54.492924 1271.280518 -15.068484
   vertex 54.552242 1271.422852 -38.657234
   vertex 54.492924 1271.422852 -15.068484
  endloop
 endfacet
 facet normal -0.000000 1.000000 -0.000000
  outer loop
   vertex 54.492924 1271.422852 -15.068484
   vertex 54.552242 1271.422852 -38.657234
   vertex 54.383312 1271.422852 -15.068760
  endloop
 endfacet
 facet normal -0.002514 0.000000 0.999997
  outer loop
   vertex 54.529797 1269.586792 -12.965895
   vertex 54.197502 1269.586792 -12.966730
   vertex 54.197502 1265.490479 -12.966730
  endloop
 endfacet
 facet normal -0.999997 -0.000000 -0.002516
  outer loop
   vertex 54.197502 1265.490479 -12.966730
   vertex 54.197502 1269.586792 -12.966730
   vertex 54.198215 1267.687378 -13.250299
  endloop
 endfacet
 facet normal -0.999997 0.000000 -0.002514
  outer loop
   vertex 54.198215 1267.687378 -13.250299
   vertex 54.199337 1266.588867 -13.696473
   vertex 54.197502 1265.490479 -12.966730
  endloop
 endfacet
 facet normal -0.999997 0.000000 -0.002514
  outer loop
   vertex 54.201172 1267.687378 -14.426215
   vertex 54.199337 1266.588867 -13.696473
   vertex 54.198215 1267.687378 -13.250299
  endloop
 endfacet
 facet normal -0.999997 -0.000000 -0.002515
  outer loop
   vertex 54.202545 1265.490479 -14.972198
   vertex 54.199337 1266.588867 -13.696473
   vertex 54.201172 1267.687378 -14.426215
  endloop
 endfacet
 facet normal -0.999997 -0.000000 -0.002515
  outer loop
   vertex 54.201172 1267.687378 -14.426215
   vertex 54.202545 1269.852539 -14.972199
   vertex 54.202545 1265.490479 -14.972198
  endloop
 endfacet
 facet normal 0.002517 -0.000000 -0.999997
  outer loop
   vertex 54.202545 1265.490479 -14.972198
   vertex 54.202545 1269.852539 -14.972199
   vertex 54.534840 1269.852539 -14.971363
  endloop
 endfacet
 facet normal -0.000000 1.000000 -0.000000
  outer loop
   vertex 54.534840 1269.852539 -14.971363
   vertex 54.202545 1269.852539 -14.972199
   vertex 54.530338 1269.852539 -13.181541
  endloop
 endfacet
 facet normal 0.999997 -0.000000 0.002515
  outer loop
   vertex 54.530338 1269.852539 -13.181541
   vertex 54.533466 1269.515381 -14.425380
   vertex 54.534840 1269.852539 -14.971363
  endloop
 endfacet
 facet normal 0.999997 0.000003 0.002514
  outer loop
   vertex 54.530510 1269.515381 -13.249464
   vertex 54.533466 1269.515381 -14.425380
   vertex 54.530338 1269.852539 -13.181541
  endloop
 endfacet
 facet normal -0.000000 -1.000000 0.000000
  outer loop
   vertex 54.201172 1269.515381 -14.426215
   vertex 54.533466 1269.515381 -14.425380
   vertex 54.530510 1269.515381 -13.249464
  endloop
 endfacet
 facet normal 0.000000 -1.000000 -0.000000
  outer loop
   vertex 54.530510 1269.515381 -13.249464
   vertex 54.198215 1269.515381 -13.250299
   vertex 54.201172 1269.515381 -14.426215
  endloop
 endfacet
 facet normal -0.999997 -0.000003 -0.002514
  outer loop
   vertex 54.201172 1269.515381 -14.426215
   vertex 54.198215 1269.515381 -13.250299
   vertex 54.198044 1269.852539 -13.182377
  endloop
 endfacet
 facet normal -0.999997 -0.000002 -0.002515
  outer loop
   vertex 54.198044 1269.852539 -13.182377
   vertex 54.198215 1269.515381 -13.250299
   vertex 54.197502 1269.586792 -12.966730
  endloop
 endfacet
 facet normal -0.001952 0.630114 0.776500
  outer loop
   vertex 54.197502 1269.586792 -12.966730
   vertex 54.530338 1269.852539 -13.181541
   vertex 54.198044 1269.852539 -13.182377
  endloop
 endfacet
 facet normal -0.001952 0.630114 0.776500
  outer loop
   vertex 54.529797 1269.586792 -12.965895
   vertex 54.530338 1269.852539 -13.181541
   vertex 54.197502 1269.586792 -12.966730
  endloop
 endfacet
 facet normal 0.999997 0.000002 0.002515
  outer loop
   vertex 54.530510 1269.515381 -13.249464
   vertex 54.530338 1269.852539 -13.181541
   vertex 54.529797 1269.586792 -12.965895
  endloop
 endfacet
 facet normal 0.999997 -0.000000 0.002516
  outer loop
   vertex 54.529797 1269.586792 -12.965895
   vertex 54.530510 1267.687378 -13.249464
   vertex 54.530510 1269.515381 -13.249464
  endloop
 endfacet
 facet normal 0.002514 0.000000 -0.999997
  outer loop
   vertex 54.530510 1269.515381 -13.249464
   vertex 54.530510 1267.687378 -13.249464
   vertex 54.198215 1267.687378 -13.250299
  endloop
 endfacet
 facet normal -0.000000 1.000000 0.000000
  outer loop
   vertex 54.198215 1267.687378 -13.250299
   vertex 54.530510 1267.687378 -13.249464
   vertex 54.533466 1267.687378 -14.425380
  endloop
 endfacet
 facet normal 0.000000 1.000000 -0.000000
  outer loop
   vertex 54.533466 1267.687378 -14.425380
   vertex 54.201172 1267.687378 -14.426215
   vertex 54.198215 1267.687378 -13.250299
  endloop
 endfacet
 facet normal -0.002514 -0.000000 0.999997
  outer loop
   vertex 54.533466 1269.515381 -14.425380
   vertex 54.201172 1267.687378 -14.426215
   vertex 54.533466 1267.687378 -14.425380
  endloop
 endfacet
 facet normal -0.002514 0.000000 0.999997
  outer loop
   vertex 54.201172 1269.515381 -14.426215
   vertex 54.201172 1267.687378 -14.426215
   vertex 54.533466 1269.515381 -14.425380
  endloop
 endfacet
 facet normal 0.002514 0.000000 -0.999997
  outer loop
   vertex 54.263729 1269.515381 -39.300964
   vertex 54.596024 1269.515381 -39.300129
   vertex 54.263729 1267.687378 -39.300964
  endloop
 endfacet
 facet normal 0.002514 -0.000000 -0.999997
  outer loop
   vertex 54.263729 1267.687378 -39.300964
   vertex 54.596024 1269.515381 -39.300129
   vertex 54.596024 1267.687378 -39.300129
  endloop
 endfacet
 facet normal 0.000000 1.000000 -0.000000
  outer loop
   vertex 54.596024 1267.687378 -39.300129
   vertex 54.266685 1267.687378 -40.476879
   vertex 54.263729 1267.687378 -39.300964
  endloop
 endfacet
 facet normal -0.000000 1.000000 -0.000000
  outer loop
   vertex 54.598980 1267.687378 -40.476044
   vertex 54.266685 1267.687378 -40.476879
   vertex 54.596024 1267.687378 -39.300129
  endloop
 endfacet
 facet normal -0.002514 0.000000 0.999997
  outer loop
   vertex 54.598980 1269.515381 -40.476044
   vertex 54.266685 1267.687378 -40.476879
   vertex 54.598980 1267.687378 -40.476044
  endloop
 endfacet
 facet normal 0.999997 -0.000000 0.002516
  outer loop
   vertex 54.598980 1267.687378 -40.476044
   vertex 54.599693 1269.586792 -40.759613
   vertex 54.598980 1269.515381 -40.476044
  endloop
 endfacet
 facet normal 0.999997 -0.000002 0.002515
  outer loop
   vertex 54.598980 1269.515381 -40.476044
   vertex 54.599693 1269.586792 -40.759613
   vertex 54.599152 1269.852417 -40.543964
  endloop
 endfacet
 facet normal 0.001952 0.630292 -0.776356
  outer loop
   vertex 54.599152 1269.852417 -40.543964
   vertex 54.599693 1269.586792 -40.759613
   vertex 54.267399 1269.586792 -40.760448
  endloop
 endfacet
 facet normal 0.001952 0.630292 -0.776356
  outer loop
   vertex 54.267399 1269.586792 -40.760448
   vertex 54.266857 1269.852417 -40.544800
   vertex 54.599152 1269.852417 -40.543964
  endloop
 endfacet
 facet normal -0.999997 0.000002 -0.002515
  outer loop
   vertex 54.266685 1269.515381 -40.476879
   vertex 54.266857 1269.852417 -40.544800
   vertex 54.267399 1269.586792 -40.760448
  endloop
 endfacet
 facet normal -0.999997 0.000003 -0.002514
  outer loop
   vertex 54.263729 1269.515381 -39.300964
   vertex 54.266857 1269.852417 -40.544800
   vertex 54.266685 1269.515381 -40.476879
  endloop
 endfacet
 facet normal -0.000000 -1.000000 -0.000000
  outer loop
   vertex 54.266685 1269.515381 -40.476879
   vertex 54.598980 1269.515381 -40.476044
   vertex 54.263729 1269.515381 -39.300964
  endloop
 endfacet
 facet normal 0.000000 -1.000000 0.000000
  outer loop
   vertex 54.263729 1269.515381 -39.300964
   vertex 54.598980 1269.515381 -40.476044
   vertex 54.596024 1269.515381 -39.300129
  endloop
 endfacet
 facet normal 0.999997 -0.000003 0.002514
  outer loop
   vertex 54.596024 1269.515381 -39.300129
   vertex 54.598980 1269.515381 -40.476044
   vertex 54.599152 1269.852417 -40.543964
  endloop
 endfacet
 facet normal 0.999997 0.000000 0.002515
  outer loop
   vertex 54.599152 1269.852417 -40.543964
   vertex 54.594650 1269.852417 -38.754143
   vertex 54.596024 1269.515381 -39.300129
  endloop
 endfacet
 facet normal -0.000000 1.000000 0.000000
  outer loop
   vertex 54.262356 1269.852417 -38.754978
   vertex 54.594650 1269.852417 -38.754143
   vertex 54.599152 1269.852417 -40.543964
  endloop
 endfacet
 facet normal -0.002514 0.000000 0.999997
  outer loop
   vertex 54.262356 1265.490479 -38.754978
   vertex 54.594650 1269.852417 -38.754143
   vertex 54.262356 1269.852417 -38.754978
  endloop
 endfacet
 facet normal -0.999997 -0.000000 -0.002515
  outer loop
   vertex 54.262356 1269.852417 -38.754978
   vertex 54.263729 1267.687378 -39.300964
   vertex 54.262356 1265.490479 -38.754978
  endloop
 endfacet
 facet normal -0.999997 0.000000 -0.002515
  outer loop
   vertex 54.262356 1265.490479 -38.754978
   vertex 54.263729 1267.687378 -39.300964
   vertex 54.265564 1266.588867 -40.030704
  endloop
 endfacet
 facet normal -0.999997 -0.000000 -0.002514
  outer loop
   vertex 54.265564 1266.588867 -40.030704
   vertex 54.263729 1267.687378 -39.300964
   vertex 54.266685 1267.687378 -40.476879
  endloop
 endfacet
 facet normal -0.999997 -0.000000 -0.002514
  outer loop
   vertex 54.266685 1267.687378 -40.476879
   vertex 54.267399 1265.490479 -40.760448
   vertex 54.265564 1266.588867 -40.030704
  endloop
 endfacet
 facet normal -0.999997 0.000000 -0.002516
  outer loop
   vertex 54.267399 1269.586792 -40.760448
   vertex 54.267399 1265.490479 -40.760448
   vertex 54.266685 1267.687378 -40.476879
  endloop
 endfacet
 facet normal 0.002514 0.000000 -0.999997
  outer loop
   vertex 54.599693 1269.586792 -40.759613
   vertex 54.267399 1265.490479 -40.760448
   vertex 54.267399 1269.586792 -40.760448
  endloop
 endfacet
 facet normal -0.989091 0.147287 -0.002488
  outer loop
   vertex 54.362381 1271.383301 -39.200130
   vertex 54.359467 1271.383301 -38.041420
   vertex 54.377087 1271.482056 -39.200096
  endloop
 endfacet
 facet normal -0.989091 0.147287 -0.002488
  outer loop
   vertex 54.377087 1271.482056 -39.200096
   vertex 54.359467 1271.383301 -38.041420
   vertex 54.374172 1271.482056 -38.041382
  endloop
 endfacet
 facet normal 0.000000 1.000000 0.000000
  outer loop
   vertex 54.374172 1271.482056 -38.041382
   vertex 54.533138 1271.482056 -38.040981
   vertex 54.377087 1271.482056 -39.200096
  endloop
 endfacet
 facet normal -0.002520 -0.000011 0.999997
  outer loop
   vertex 54.359467 1271.383301 -38.041420
   vertex 54.533138 1271.482056 -38.040981
   vertex 54.374172 1271.482056 -38.041382
  endloop
 endfacet
 facet normal -0.002518 -0.000014 0.999997
  outer loop
   vertex 54.597214 1271.398926 -38.040821
   vertex 54.533138 1271.482056 -38.040981
   vertex 54.359467 1271.383301 -38.041420
  endloop
 endfacet
 facet normal -0.002519 -0.000000 0.999997
  outer loop
   vertex 54.359467 1271.383301 -38.041420
   vertex 54.597214 1270.557251 -38.040821
   vertex 54.597214 1271.398926 -38.040821
  endloop
 endfacet
 facet normal 0.999997 -0.000000 0.002515
  outer loop
   vertex 54.597214 1271.398926 -38.040821
   vertex 54.597214 1270.557251 -38.040821
   vertex 54.600128 1271.398926 -39.199535
  endloop
 endfacet
 facet normal 0.999997 -0.000000 0.002515
  outer loop
   vertex 54.600128 1271.398926 -39.199535
   vertex 54.597214 1270.557251 -38.040821
   vertex 54.600128 1270.557251 -39.199535
  endloop
 endfacet
 facet normal 0.002503 0.000000 -0.999997
  outer loop
   vertex 54.600128 1270.557251 -39.199535
   vertex 54.362381 1271.383301 -39.200130
   vertex 54.600128 1271.398926 -39.199535
  endloop
 endfacet
 facet normal 0.002514 0.000003 -0.999997
  outer loop
   vertex 52.937111 1270.557251 -39.203716
   vertex 54.362381 1271.383301 -39.200130
   vertex 54.600128 1270.557251 -39.199535
  endloop
 endfacet
 facet normal 0.002515 0.000001 -0.999997
  outer loop
   vertex 53.174858 1271.383301 -39.203117
   vertex 54.362381 1271.383301 -39.200130
   vertex 52.937111 1270.557251 -39.203716
  endloop
 endfacet
 facet normal 0.002519 -0.000000 -0.999997
  outer loop
   vertex 52.937111 1270.557251 -39.203716
   vertex 52.937111 1271.398926 -39.203716
   vertex 53.174858 1271.383301 -39.203117
  endloop
 endfacet
 facet normal 0.002518 -0.000014 -0.999997
  outer loop
   vertex 53.174858 1271.383301 -39.203117
   vertex 52.937111 1271.398926 -39.203716
   vertex 53.001186 1271.482056 -39.203556
  endloop
 endfacet
 facet normal -0.792024 0.610486 -0.001992
  outer loop
   vertex 53.001186 1271.482056 -39.203556
   vertex 52.937111 1271.398926 -39.203716
   vertex 52.998272 1271.482056 -38.044842
  endloop
 endfacet
 facet normal 0.000000 1.000000 0.000000
  outer loop
   vertex 52.998272 1271.482056 -38.044842
   vertex 53.160152 1271.482056 -39.203156
   vertex 53.001186 1271.482056 -39.203556
  endloop
 endfacet
 facet normal -0.000000 1.000000 -0.000000
  outer loop
   vertex 53.157238 1271.482056 -38.044445
   vertex 53.160152 1271.482056 -39.203156
   vertex 52.998272 1271.482056 -38.044842
  endloop
 endfacet
 facet normal 0.989091 0.147287 0.002488
  outer loop
   vertex 53.174858 1271.383301 -39.203117
   vertex 53.160152 1271.482056 -39.203156
   vertex 53.157238 1271.482056 -38.044445
  endloop
 endfacet
 facet normal 0.989091 0.147287 0.002488
  outer loop
   vertex 53.157238 1271.482056 -38.044445
   vertex 53.171944 1271.383301 -38.044407
   vertex 53.174858 1271.383301 -39.203117
  endloop
 endfacet
 facet normal -0.000000 1.000000 0.000000
  outer loop
   vertex 53.174858 1271.383301 -39.203117
   vertex 53.171944 1271.383301 -38.044407
   vertex 54.359467 1271.383301 -38.041420
  endloop
 endfacet
 facet normal -0.002515 -0.000001 0.999997
  outer loop
   vertex 54.359467 1271.383301 -38.041420
   vertex 53.171944 1271.383301 -38.044407
   vertex 52.934196 1270.557251 -38.045006
  endloop
 endfacet
 facet normal -0.002516 0.000001 0.999997
  outer loop
   vertex 52.934196 1270.557251 -38.045006
   vertex 54.597214 1270.557251 -38.040821
   vertex 54.359467 1271.383301 -38.041420
  endloop
 endfacet
 facet normal -0.002516 -0.000001 0.999997
  outer loop
   vertex 54.345917 1269.822021 -38.041454
   vertex 54.597214 1270.557251 -38.040821
   vertex 52.934196 1270.557251 -38.045006
  endloop
 endfacet
 facet normal 0.946251 -0.323425 0.002380
  outer loop
   vertex 54.600128 1270.557251 -39.199535
   vertex 54.597214 1270.557251 -38.040821
   vertex 54.345917 1269.822021 -38.041454
  endloop
 endfacet
 facet normal 0.946251 -0.323425 0.002380
  outer loop
   vertex 54.345917 1269.822021 -38.041454
   vertex 54.348831 1269.822021 -39.200165
   vertex 54.600128 1270.557251 -39.199535
  endloop
 endfacet
 facet normal 0.002515 -0.000003 -0.999997
  outer loop
   vertex 54.600128 1270.557251 -39.199535
   vertex 54.348831 1269.822021 -39.200165
   vertex 53.188408 1269.822021 -39.203083
  endloop
 endfacet
 facet normal -0.000000 -1.000000 -0.000000
  outer loop
   vertex 53.188408 1269.822021 -39.203083
   vertex 54.348831 1269.822021 -39.200165
   vertex 54.345917 1269.822021 -38.041454
  endloop
 endfacet
 facet normal 0.000000 -1.000000 0.000000
  outer loop
   vertex 54.345917 1269.822021 -38.041454
   vertex 53.185493 1269.822021 -38.044373
   vertex 53.188408 1269.822021 -39.203083
  endloop
 endfacet
 facet normal -0.002515 0.000002 0.999997
  outer loop
   vertex 52.934196 1270.557251 -38.045006
   vertex 53.185493 1269.822021 -38.044373
   vertex 54.345917 1269.822021 -38.041454
  endloop
 endfacet
 facet normal -0.946251 -0.323425 -0.002380
  outer loop
   vertex 53.188408 1269.822021 -39.203083
   vertex 53.185493 1269.822021 -38.044373
   vertex 52.934196 1270.557251 -38.045006
  endloop
 endfacet
 facet normal -0.946251 -0.323425 -0.002380
  outer loop
   vertex 52.934196 1270.557251 -38.045006
   vertex 52.937111 1270.557251 -39.203716
   vertex 53.188408 1269.822021 -39.203083
  endloop
 endfacet
 facet normal 0.002514 -0.000002 -0.999997
  outer loop
   vertex 53.188408 1269.822021 -39.203083
   vertex 52.937111 1270.557251 -39.203716
   vertex 54.600128 1270.557251 -39.199535
  endloop
 endfacet
 facet normal -0.002515 0.000000 0.999997
  outer loop
   vertex 54.538078 1270.557251 -14.525951
   vertex 52.875061 1270.557251 -14.530134
   vertex 53.126358 1269.822021 -14.529502
  endloop
 endfacet
 facet normal -0.946251 -0.323425 -0.002380
  outer loop
   vertex 53.126358 1269.822021 -14.529502
   vertex 52.875061 1270.557251 -14.530134
   vertex 52.877975 1270.557251 -15.688846
  endloop
 endfacet
 facet normal -0.946251 -0.323425 -0.002380
  outer loop
   vertex 52.877975 1270.557251 -15.688846
   vertex 53.129272 1269.822021 -15.688213
   vertex 53.126358 1269.822021 -14.529502
  endloop
 endfacet
 facet normal 0.002515 -0.000000 -0.999997
  outer loop
   vertex 54.289696 1269.822021 -15.685295
   vertex 53.129272 1269.822021 -15.688213
   vertex 52.877975 1270.557251 -15.688846
  endloop
 endfacet
 facet normal 0.000000 -1.000000 0.000000
  outer loop
   vertex 53.126358 1269.822021 -14.529502
   vertex 53.129272 1269.822021 -15.688213
   vertex 54.289696 1269.822021 -15.685295
  endloop
 endfacet
 facet normal -0.000000 -1.000000 -0.000000
  outer loop
   vertex 54.289696 1269.822021 -15.685295
   vertex 54.286781 1269.822021 -14.526584
   vertex 53.126358 1269.822021 -14.529502
  endloop
 endfacet
 facet normal -0.002515 -0.000000 0.999997
  outer loop
   vertex 53.126358 1269.822021 -14.529502
   vertex 54.286781 1269.822021 -14.526584
   vertex 54.538078 1270.557251 -14.525951
  endloop
 endfacet
 facet normal 0.946251 -0.323425 0.002380
  outer loop
   vertex 54.538078 1270.557251 -14.525951
   vertex 54.286781 1269.822021 -14.526584
   vertex 54.289696 1269.822021 -15.685295
  endloop
 endfacet
 facet normal 0.946251 -0.323425 0.002380
  outer loop
   vertex 54.289696 1269.822021 -15.685295
   vertex 54.540993 1270.557251 -15.684664
   vertex 54.538078 1270.557251 -14.525951
  endloop
 endfacet
 facet normal 0.002515 -0.000001 -0.999997
  outer loop
   vertex 52.877975 1270.557251 -15.688846
   vertex 54.540993 1270.557251 -15.684664
   vertex 54.289696 1269.822021 -15.685295
  endloop
 endfacet
 facet normal 0.002515 -0.000000 -0.999997
  outer loop
   vertex 54.303246 1271.383301 -15.685262
   vertex 54.540993 1270.557251 -15.684664
   vertex 52.877975 1270.557251 -15.688846
  endloop
 endfacet
 facet normal 0.002514 0.000000 -0.999997
  outer loop
   vertex 52.877975 1270.557251 -15.688846
   vertex 53.115723 1271.383301 -15.688248
   vertex 54.303246 1271.383301 -15.685262
  endloop
 endfacet
 facet normal 0.000000 1.000000 -0.000000
  outer loop
   vertex 54.303246 1271.383301 -15.685262
   vertex 53.115723 1271.383301 -15.688248
   vertex 53.112808 1271.383301 -14.529536
  endloop
 endfacet
 facet normal 0.989091 0.147287 0.002488
  outer loop
   vertex 53.112808 1271.383301 -14.529536
   vertex 53.115723 1271.383301 -15.688248
   vertex 53.101017 1271.482056 -15.688285
  endloop
 endfacet
 facet normal 0.989091 0.147287 0.002488
  outer loop
   vertex 53.101017 1271.482056 -15.688285
   vertex 53.098103 1271.482056 -14.529573
   vertex 53.112808 1271.383301 -14.529536
  endloop
 endfacet
 facet normal -0.000000 1.000000 0.000000
  outer loop
   vertex 52.942051 1271.482056 -15.688684
   vertex 53.098103 1271.482056 -14.529573
   vertex 53.101017 1271.482056 -15.688285
  endloop
 endfacet
 facet normal 0.000000 1.000000 0.000000
  outer loop
   vertex 52.939137 1271.482056 -14.529973
   vertex 53.098103 1271.482056 -14.529573
   vertex 52.942051 1271.482056 -15.688684
  endloop
 endfacet
 facet normal -0.792024 0.610486 -0.001992
  outer loop
   vertex 52.942051 1271.482056 -15.688684
   vertex 52.875061 1271.398926 -14.530134
   vertex 52.939137 1271.482056 -14.529973
  endloop
 endfacet
 facet normal -0.002515 -0.000000 0.999997
  outer loop
   vertex 52.939137 1271.482056 -14.529973
   vertex 52.875061 1271.398926 -14.530134
   vertex 53.112808 1271.383301 -14.529536
  endloop
 endfacet
 facet normal -0.002515 -0.000000 0.999997
  outer loop
   vertex 53.112808 1271.383301 -14.529536
   vertex 52.875061 1271.398926 -14.530134
   vertex 52.875061 1270.557251 -14.530134
  endloop
 endfacet
 facet normal -0.002515 0.000000 0.999997
  outer loop
   vertex 52.875061 1270.557251 -14.530134
   vertex 54.300331 1271.383301 -14.526549
   vertex 53.112808 1271.383301 -14.529536
  endloop
 endfacet
 facet normal -0.002515 -0.000000 0.999997
  outer loop
   vertex 54.538078 1270.557251 -14.525951
   vertex 54.300331 1271.383301 -14.526549
   vertex 52.875061 1270.557251 -14.530134
  endloop
 endfacet
 facet normal -0.002515 0.000000 0.999997
  outer loop
   vertex 54.538078 1271.398926 -14.525951
   vertex 54.300331 1271.383301 -14.526549
   vertex 54.538078 1270.557251 -14.525951
  endloop
 endfacet
 facet normal 0.999997 -0.000000 0.002515
  outer loop
   vertex 54.538078 1270.557251 -14.525951
   vertex 54.540993 1270.557251 -15.684664
   vertex 54.538078 1271.398926 -14.525951
  endloop
 endfacet
 facet normal 0.999997 -0.000000 0.002515
  outer loop
   vertex 54.538078 1271.398926 -14.525951
   vertex 54.540993 1270.557251 -15.684664
   vertex 54.540993 1271.398926 -15.684664
  endloop
 endfacet
 facet normal 0.002515 -0.000000 -0.999997
  outer loop
   vertex 54.540993 1271.398926 -15.684664
   vertex 54.540993 1270.557251 -15.684664
   vertex 54.303246 1271.383301 -15.685262
  endloop
 endfacet
 facet normal 0.002515 -0.000000 -0.999997
  outer loop
   vertex 54.303246 1271.383301 -15.685262
   vertex 54.476917 1271.482056 -15.684825
   vertex 54.540993 1271.398926 -15.684664
  endloop
 endfacet
 facet normal 0.002514 0.000002 -0.999997
  outer loop
   vertex 54.317951 1271.482056 -15.685225
   vertex 54.476917 1271.482056 -15.684825
   vertex 54.303246 1271.383301 -15.685262
  endloop
 endfacet
 facet normal 0.000000 1.000000 0.000000
  outer loop
   vertex 54.315037 1271.482056 -14.526513
   vertex 54.476917 1271.482056 -15.684825
   vertex 54.317951 1271.482056 -15.685225
  endloop
 endfacet
 facet normal -0.989091 0.147287 -0.002488
  outer loop
   vertex 54.317951 1271.482056 -15.685225
   vertex 54.303246 1271.383301 -15.685262
   vertex 54.315037 1271.482056 -14.526513
  endloop
 endfacet
 facet normal -0.989091 0.147287 -0.002488
  outer loop
   vertex 54.315037 1271.482056 -14.526513
   vertex 54.303246 1271.383301 -15.685262
   vertex 54.300331 1271.383301 -14.526549
  endloop
 endfacet
 facet normal -0.000000 1.000000 -0.000000
  outer loop
   vertex 54.300331 1271.383301 -14.526549
   vertex 54.303246 1271.383301 -15.685262
   vertex 53.112808 1271.383301 -14.529536
  endloop
 endfacet
 facet normal 0.999997 0.000000 0.002514
  outer loop
   vertex 54.596024 1267.687378 -39.300129
   vertex 54.599693 1265.490479 -40.759613
   vertex 54.598980 1267.687378 -40.476044
  endloop
 endfacet
 facet normal 0.999997 -0.000000 0.002516
  outer loop
   vertex 54.598980 1267.687378 -40.476044
   vertex 54.599693 1265.490479 -40.759613
   vertex 54.599693 1269.586792 -40.759613
  endloop
 endfacet
 facet normal -0.002515 0.000000 0.999997
  outer loop
   vertex 54.538078 1271.398926 -14.525951
   vertex 54.474003 1271.482056 -14.526113
   vertex 54.300331 1271.383301 -14.526549
  endloop
 endfacet
 facet normal -0.002520 0.000008 0.999997
  outer loop
   vertex 54.300331 1271.383301 -14.526549
   vertex 54.474003 1271.482056 -14.526113
   vertex 54.315037 1271.482056 -14.526513
  endloop
 endfacet
 facet normal 0.002503 0.000002 -0.999997
  outer loop
   vertex 54.600128 1271.398926 -39.199535
   vertex 54.362381 1271.383301 -39.200130
   vertex 54.536053 1271.482056 -39.199696
  endloop
 endfacet
 facet normal 0.002520 -0.000028 -0.999997
  outer loop
   vertex 54.536053 1271.482056 -39.199696
   vertex 54.362381 1271.383301 -39.200130
   vertex 54.377087 1271.482056 -39.200096
  endloop
 endfacet
 facet normal -0.002514 0.000002 0.999997
  outer loop
   vertex 52.939137 1271.482056 -14.529973
   vertex 53.112808 1271.383301 -14.529536
   vertex 53.098103 1271.482056 -14.529573
  endloop
 endfacet
 facet normal 0.002520 -0.000011 -0.999997
  outer loop
   vertex 53.001186 1271.482056 -39.203556
   vertex 53.160152 1271.482056 -39.203156
   vertex 53.174858 1271.383301 -39.203117
  endloop
 endfacet
 facet normal -0.999997 -0.000000 -0.002515
  outer loop
   vertex 54.197502 1265.490479 -12.966730
   vertex 54.199337 1266.588867 -13.696473
   vertex 54.202545 1265.490479 -14.972198
  endloop
 endfacet
 facet normal 0.000000 1.000000 0.000000
  outer loop
   vertex 53.174858 1271.383301 -39.203117
   vertex 54.359467 1271.383301 -38.041420
   vertex 54.362381 1271.383301 -39.200130
  endloop
 endfacet
 facet normal 0.000000 1.000000 0.000000
  outer loop
   vertex 53.286552 1269.831421 -39.084160
   vertex 53.285717 1269.831421 -38.753433
   vertex 54.595406 1269.831421 -39.080818
  endloop
 endfacet
 facet normal 0.000000 1.000000 0.000000
  outer loop
   vertex 53.225101 1269.831421 -14.647932
   vertex 54.533955 1269.831421 -14.644691
   vertex 53.225925 1269.831421 -14.978659
  endloop
 endfacet
 facet normal -0.999997 -0.000000 -0.002515
  outer loop
   vertex 52.922947 1270.570679 -15.072433
   vertex 52.922947 1270.641235 -15.072433
   vertex 52.982265 1270.641235 -38.661182
  endloop
 endfacet
 facet normal -0.002533 0.000018 0.999997
  outer loop
   vertex 53.285717 1269.831421 -38.753433
   vertex 54.594547 1265.490601 -38.750042
   vertex 54.594547 1269.831421 -38.750118
  endloop
 endfacet
 facet normal 0.999997 0.000000 0.002515
  outer loop
   vertex 54.534840 1269.852539 -14.971363
   vertex 54.533466 1269.515381 -14.425380
   vertex 54.533466 1267.687378 -14.425380
  endloop
 endfacet
endsolid