solid stl file generated from DOUG
 facet normal 0.002514 0.000000 -0.999997
  outer loop
   vertex -25.325472 1390.179932 -53.593868
   vertex -22.325481 1390.179932 -53.586327
   vertex -25.325472 1389.179932 -53.593868
  endloop
 endfacet
 facet normal 0.002514 -0.000000 -0.999997
  outer loop
   vertex -25.325472 1389.179932 -53.593868
   vertex -22.325481 1390.179932 -53.586327
   vertex -22.325481 1389.179932 -53.586327
  endloop
 endfacet
 facet normal 0.002513 -0.004533 -0.999987
  outer loop
   vertex -20.878180 1388.894043 -53.623661
   vertex -20.878132 1390.434082 -53.630642
   vertex -19.978180 1388.894043 -53.621399
  endloop
 endfacet
 facet normal 0.002513 -0.004533 -0.999987
  outer loop
   vertex -19.978180 1388.894043 -53.621399
   vertex -20.878132 1390.434082 -53.630642
   vertex -19.978132 1390.434082 -53.628380
  endloop
 endfacet
 facet normal 0.999997 -0.000020 0.002514
  outer loop
   vertex -19.978132 1390.434082 -53.628380
   vertex -19.980068 1390.437500 -52.858391
   vertex -19.978180 1388.894043 -53.621399
  endloop
 endfacet
 facet normal 0.000011 0.999990 -0.004439
  outer loop
   vertex -20.878132 1390.434082 -53.630642
   vertex -19.980068 1390.437500 -52.858391
   vertex -19.978132 1390.434082 -53.628380
  endloop
 endfacet
 facet normal 0.000147 0.999989 -0.004597
  outer loop
   vertex -20.880068 1390.437622 -52.860653
   vertex -19.980068 1390.437500 -52.858391
   vertex -20.878132 1390.434082 -53.630642
  endloop
 endfacet
 facet normal -0.999997 0.000020 -0.002514
  outer loop
   vertex -20.878132 1390.434082 -53.630642
   vertex -20.878180 1388.894043 -53.623661
   vertex -20.880068 1390.437622 -52.860653
  endloop
 endfacet
 facet normal -0.999997 0.000020 -0.002514
  outer loop
   vertex -20.880068 1390.437622 -52.860653
   vertex -20.878180 1388.894043 -53.623661
   vertex -20.880116 1388.897583 -52.853672
  endloop
 endfacet
 facet normal -0.000012 -0.999989 0.004597
  outer loop
   vertex -20.880116 1388.897583 -52.853672
   vertex -20.878180 1388.894043 -53.623661
   vertex -19.978180 1388.894043 -53.621399
  endloop
 endfacet
 facet normal -0.000012 -0.999989 0.004597
  outer loop
   vertex -19.978180 1388.894043 -53.621399
   vertex -19.980116 1388.897583 -52.851406
   vertex -20.880116 1388.897583 -52.853672
  endloop
 endfacet
 facet normal 0.999997 -0.000020 0.002514
  outer loop
   vertex -19.980068 1390.437500 -52.858391
   vertex -19.980116 1388.897583 -52.851406
   vertex -19.978180 1388.894043 -53.621399
  endloop
 endfacet
 facet normal -0.002513 0.004536 0.999987
  outer loop
   vertex -20.880068 1390.437622 -52.860653
   vertex -19.980116 1388.897583 -52.851406
   vertex -19.980068 1390.437500 -52.858391
  endloop
 endfacet
 facet normal 0.999997 -0.000019 0.002515
  outer loop
   vertex 6.225382 1388.922241 -52.792488
   vertex 6.227318 1388.925781 -53.562477
   vertex 6.227331 1390.465820 -53.555496
  endloop
 endfacet
 facet normal 0.002518 0.004533 -0.999987
  outer loop
   vertex 6.227331 1390.465820 -53.555496
   vertex 6.227318 1388.925781 -53.562477
   vertex 5.327331 1390.465820 -53.557762
  endloop
 endfacet
 facet normal -0.000012 0.999989 0.004597
  outer loop
   vertex 5.327331 1390.465820 -53.557762
   vertex 6.225394 1390.462280 -52.785503
   vertex 6.227331 1390.465820 -53.555496
  endloop
 endfacet
 facet normal -0.000012 0.999989 0.004597
  outer loop
   vertex 5.325395 1390.462280 -52.787766
   vertex 6.225394 1390.462280 -52.785503
   vertex 5.327331 1390.465820 -53.557762
  endloop
 endfacet
 facet normal -0.002513 -0.004535 0.999987
  outer loop
   vertex 6.225382 1388.922241 -52.792488
   vertex 6.225394 1390.462280 -52.785503
   vertex 5.325395 1390.462280 -52.787766
  endloop
 endfacet
 facet normal -0.002518 -0.004538 0.999987
  outer loop
   vertex 5.325395 1390.462280 -52.787766
   vertex 5.325382 1388.922363 -52.794754
   vertex 6.225382 1388.922241 -52.792488
  endloop
 endfacet
 facet normal -0.000124 -0.999989 -0.004598
  outer loop
   vertex 6.225382 1388.922241 -52.792488
   vertex 5.325382 1388.922363 -52.794754
   vertex 6.227318 1388.925781 -53.562477
  endloop
 endfacet
 facet normal 0.000011 -0.999990 -0.004439
  outer loop
   vertex 6.227318 1388.925781 -53.562477
   vertex 5.325382 1388.922363 -52.794754
   vertex 5.327318 1388.925781 -53.564743
  endloop
 endfacet
 facet normal 0.002518 0.004533 -0.999987
  outer loop
   vertex 5.327318 1388.925781 -53.564743
   vertex 5.327331 1390.465820 -53.557762
   vertex 6.227318 1388.925781 -53.562477
  endloop
 endfacet
 facet normal -0.999997 0.000020 -0.002514
  outer loop
   vertex 5.325382 1388.922363 -52.794754
   vertex 5.327331 1390.465820 -53.557762
   vertex 5.327318 1388.925781 -53.564743
  endloop
 endfacet
 facet normal -0.999997 0.000019 -0.002515
  outer loop
   vertex 5.325395 1390.462280 -52.787766
   vertex 5.327331 1390.465820 -53.557762
   vertex 5.325382 1388.922363 -52.794754
  endloop
 endfacet
 facet normal -0.999997 0.000020 -0.002514
  outer loop
   vertex -27.682232 1390.437622 -52.877758
   vertex -27.680296 1390.434082 -53.647751
   vertex -27.680344 1388.894043 -53.640770
  endloop
 endfacet
 facet normal 0.002513 -0.004533 -0.999987
  outer loop
   vertex -27.680344 1388.894043 -53.640770
   vertex -27.680296 1390.434082 -53.647751
   vertex -26.780342 1388.894043 -53.638508
  endloop
 endfacet
 facet normal -0.000012 -0.999989 0.004597
  outer loop
   vertex -26.780342 1388.894043 -53.638508
   vertex -27.682280 1388.897583 -52.870777
   vertex -27.680344 1388.894043 -53.640770
  endloop
 endfacet
 facet normal -0.000012 -0.999989 0.004597
  outer loop
   vertex -26.782280 1388.897583 -52.868511
   vertex -27.682280 1388.897583 -52.870777
   vertex -26.780342 1388.894043 -53.638508
  endloop
 endfacet
 facet normal -0.002518 0.004533 0.999987
  outer loop
   vertex -27.682232 1390.437622 -52.877758
   vertex -27.682280 1388.897583 -52.870777
   vertex -26.782280 1388.897583 -52.868511
  endloop
 endfacet
 facet normal -0.002513 0.004536 0.999987
  outer loop
   vertex -26.782280 1388.897583 -52.868511
   vertex -26.782232 1390.437500 -52.875496
   vertex -27.682232 1390.437622 -52.877758
  endloop
 endfacet
 facet normal 0.000147 0.999989 -0.004597
  outer loop
   vertex -27.682232 1390.437622 -52.877758
   vertex -26.782232 1390.437500 -52.875496
   vertex -27.680296 1390.434082 -53.647751
  endloop
 endfacet
 facet normal 0.000011 0.999990 -0.004439
  outer loop
   vertex -27.680296 1390.434082 -53.647751
   vertex -26.782232 1390.437500 -52.875496
   vertex -26.780294 1390.434082 -53.645489
  endloop
 endfacet
 facet normal 0.002513 -0.004533 -0.999987
  outer loop
   vertex -26.780294 1390.434082 -53.645489
   vertex -26.780342 1388.894043 -53.638508
   vertex -27.680296 1390.434082 -53.647751
  endloop
 endfacet
 facet normal 0.999997 -0.000020 0.002517
  outer loop
   vertex -26.782232 1390.437500 -52.875496
   vertex -26.780342 1388.894043 -53.638508
   vertex -26.780294 1390.434082 -53.645489
  endloop
 endfacet
 facet normal 0.999997 -0.000020 0.002517
  outer loop
   vertex -26.782280 1388.897583 -52.868511
   vertex -26.780342 1388.894043 -53.638508
   vertex -26.782232 1390.437500 -52.875496
  endloop
 endfacet
 facet normal 0.999997 -0.000019 0.002515
  outer loop
   vertex 6.225382 1388.922241 -52.792488
   vertex 6.227331 1390.465820 -53.555496
   vertex 6.225394 1390.462280 -52.785503
  endloop
 endfacet
 facet normal -0.999997 0.000020 -0.002514
  outer loop
   vertex -27.682232 1390.437622 -52.877758
   vertex -27.680344 1388.894043 -53.640770
   vertex -27.682280 1388.897583 -52.870777
  endloop
 endfacet
 facet normal -0.002518 0.004533 0.999987
  outer loop
   vertex -19.980116 1388.897583 -52.851406
   vertex -20.880068 1390.437622 -52.860653
   vertex -20.880116 1388.897583 -52.853672
  endloop
 endfacet
 facet normal 0.000011 0.999990 -0.004571
  outer loop
   vertex -27.128126 1390.337280 -53.585953
   vertex -27.129740 1390.340210 -52.945026
   vertex 5.627964 1390.337280 -53.503574
  endloop
 endfacet
 facet normal 0.000011 0.999990 -0.004571
  outer loop
   vertex 5.627964 1390.337280 -53.503574
   vertex -27.129740 1390.340210 -52.945026
   vertex 5.626353 1390.340210 -52.862648
  endloop
 endfacet
 facet normal -0.002515 0.004554 0.999986
  outer loop
   vertex -27.129740 1390.340210 -52.945026
   vertex -27.129755 1388.981567 -52.938839
   vertex 5.626353 1390.340210 -52.862648
  endloop
 endfacet
 facet normal -0.002515 0.004551 0.999986
  outer loop
   vertex 5.626353 1390.340210 -52.862648
   vertex -27.129755 1388.981567 -52.938839
   vertex 5.626338 1388.981567 -52.856464
  endloop
 endfacet
 facet normal 0.002515 -0.004551 -0.999986
  outer loop
   vertex 5.627949 1388.978638 -53.497391
   vertex -27.128141 1388.978638 -53.579765
   vertex 5.627964 1390.337280 -53.503574
  endloop
 endfacet
 facet normal 0.002515 -0.004554 -0.999986
  outer loop
   vertex 5.627964 1390.337280 -53.503574
   vertex -27.128141 1388.978638 -53.579765
   vertex -27.128126 1390.337280 -53.585953
  endloop
 endfacet
 facet normal -0.000011 -0.999990 0.004571
  outer loop
   vertex 5.626338 1388.981567 -52.856464
   vertex -27.129755 1388.981567 -52.938839
   vertex 5.627949 1388.978638 -53.497391
  endloop
 endfacet
 facet normal -0.000011 -0.999990 0.004571
  outer loop
   vertex 5.627949 1388.978638 -53.497391
   vertex -27.129755 1388.981567 -52.938839
   vertex -27.128141 1388.978638 -53.579765
  endloop
 endfacet
 facet normal -0.923885 0.382662 -0.002324
  outer loop
   vertex -21.442198 1389.679932 -50.913960
   vertex -21.444714 1389.679932 -49.913963
   vertex -21.149305 1390.387085 -50.913223
  endloop
 endfacet
 facet normal -0.923885 0.382662 -0.002324
  outer loop
   vertex -21.149305 1390.387085 -50.913223
   vertex -21.444714 1389.679932 -49.913963
   vertex -21.151821 1390.387085 -49.913227
  endloop
 endfacet
 facet normal -0.382631 0.923901 -0.000963
  outer loop
   vertex -21.151821 1390.387085 -49.913227
   vertex -20.442202 1390.679932 -50.911446
   vertex -21.149305 1390.387085 -50.913223
  endloop
 endfacet
 facet normal -0.382631 0.923901 -0.000963
  outer loop
   vertex -20.444717 1390.679932 -49.911449
   vertex -20.442202 1390.679932 -50.911446
   vertex -21.151821 1390.387085 -49.913227
  endloop
 endfacet
 facet normal 0.382631 0.923901 0.000963
  outer loop
   vertex -19.735098 1390.387085 -50.909668
   vertex -20.442202 1390.679932 -50.911446
   vertex -20.444717 1390.679932 -49.911449
  endloop
 endfacet
 facet normal 0.382630 0.923901 0.000962
  outer loop
   vertex -20.444717 1390.679932 -49.911449
   vertex -19.737612 1390.387085 -49.909672
   vertex -19.735098 1390.387085 -50.909668
  endloop
 endfacet
 facet normal 0.923885 0.382662 0.002323
  outer loop
   vertex -19.735098 1390.387085 -50.909668
   vertex -19.737612 1390.387085 -49.909672
   vertex -19.442205 1389.679932 -50.908932
  endloop
 endfacet
 facet normal 0.923885 0.382662 0.002323
  outer loop
   vertex -19.442205 1389.679932 -50.908932
   vertex -19.737612 1390.387085 -49.909672
   vertex -19.444719 1389.679932 -49.908936
  endloop
 endfacet
 facet normal 0.923886 -0.382660 0.002323
  outer loop
   vertex -19.444719 1389.679932 -49.908936
   vertex -19.735096 1388.972778 -50.909668
   vertex -19.442205 1389.679932 -50.908932
  endloop
 endfacet
 facet normal 0.923885 -0.382662 0.002324
  outer loop
   vertex -19.737612 1388.972778 -49.909672
   vertex -19.735096 1388.972778 -50.909668
   vertex -19.444719 1389.679932 -49.908936
  endloop
 endfacet
 facet normal 0.382630 -0.923901 0.000963
  outer loop
   vertex -20.442202 1388.679932 -50.911446
   vertex -19.735096 1388.972778 -50.909668
   vertex -19.737612 1388.972778 -49.909672
  endloop
 endfacet
 facet normal 0.382631 -0.923901 0.000962
  outer loop
   vertex -19.737612 1388.972778 -49.909672
   vertex -20.444715 1388.679932 -49.911449
   vertex -20.442202 1388.679932 -50.911446
  endloop
 endfacet
 facet normal -0.382631 -0.923901 -0.000962
  outer loop
   vertex -20.442202 1388.679932 -50.911446
   vertex -20.444715 1388.679932 -49.911449
   vertex -21.149305 1388.972778 -50.913223
  endloop
 endfacet
 facet normal -0.382630 -0.923901 -0.000963
  outer loop
   vertex -21.149305 1388.972778 -50.913223
   vertex -20.444715 1388.679932 -49.911449
   vertex -21.151821 1388.972778 -49.913227
  endloop
 endfacet
 facet normal -0.923885 -0.382662 -0.002324
  outer loop
   vertex -21.151821 1388.972778 -49.913227
   vertex -21.442198 1389.679932 -50.913960
   vertex -21.149305 1388.972778 -50.913223
  endloop
 endfacet
 facet normal -0.923885 -0.382662 -0.002324
  outer loop
   vertex -21.444714 1389.679932 -49.913963
   vertex -21.442198 1389.679932 -50.913960
   vertex -21.151821 1388.972778 -49.913227
  endloop
 endfacet
 facet normal -0.757951 0.314578 -0.571446
  outer loop
   vertex -20.689686 1389.679932 -51.912071
   vertex -21.442198 1389.679932 -50.913960
   vertex -20.616463 1389.856689 -51.911888
  endloop
 endfacet
 facet normal -0.757959 0.314530 -0.571462
  outer loop
   vertex -20.616463 1389.856689 -51.911888
   vertex -21.442198 1389.679932 -50.913960
   vertex -21.149305 1390.387085 -50.913223
  endloop
 endfacet
 facet normal -0.313168 0.759337 -0.570380
  outer loop
   vertex -21.149305 1390.387085 -50.913223
   vertex -20.439686 1389.929932 -51.911442
   vertex -20.616463 1389.856689 -51.911888
  endloop
 endfacet
 facet normal -0.313073 0.759404 -0.570343
  outer loop
   vertex -20.442202 1390.679932 -50.911446
   vertex -20.439686 1389.929932 -51.911442
   vertex -21.149305 1390.387085 -50.913223
  endloop
 endfacet
 facet normal 0.316051 0.759374 -0.568738
  outer loop
   vertex -20.262911 1389.856689 -51.910999
   vertex -20.439686 1389.929932 -51.911442
   vertex -20.442202 1390.679932 -50.911446
  endloop
 endfacet
 facet normal 0.315933 0.759395 -0.568776
  outer loop
   vertex -20.442202 1390.679932 -50.911446
   vertex -19.735098 1390.387085 -50.909668
   vertex -20.262911 1389.856689 -51.910999
  endloop
 endfacet
 facet normal 0.760797 0.314577 -0.567653
  outer loop
   vertex -20.262911 1389.856689 -51.910999
   vertex -19.735098 1390.387085 -50.909668
   vertex -20.189688 1389.679932 -51.910816
  endloop
 endfacet
 facet normal 0.760828 0.314533 -0.567636
  outer loop
   vertex -20.189688 1389.679932 -51.910816
   vertex -19.735098 1390.387085 -50.909668
   vertex -19.442205 1389.679932 -50.908932
  endloop
 endfacet
 facet normal 0.760814 -0.314584 -0.567625
  outer loop
   vertex -19.442205 1389.679932 -50.908932
   vertex -20.262911 1389.503174 -51.910999
   vertex -20.189688 1389.679932 -51.910816
  endloop
 endfacet
 facet normal 0.760824 -0.314529 -0.567643
  outer loop
   vertex -19.735096 1388.972778 -50.909668
   vertex -20.262911 1389.503174 -51.910999
   vertex -19.442205 1389.679932 -50.908932
  endloop
 endfacet
 facet normal 0.316035 -0.759335 -0.568799
  outer loop
   vertex -20.439686 1389.429932 -51.911442
   vertex -20.262911 1389.503174 -51.910999
   vertex -19.735096 1388.972778 -50.909668
  endloop
 endfacet
 facet normal 0.315936 -0.759405 -0.568761
  outer loop
   vertex -19.735096 1388.972778 -50.909668
   vertex -20.442202 1388.679932 -50.911446
   vertex -20.439686 1389.429932 -51.911442
  endloop
 endfacet
 facet normal -0.313184 -0.759375 -0.570321
  outer loop
   vertex -20.439686 1389.429932 -51.911442
   vertex -20.442202 1388.679932 -50.911446
   vertex -20.616463 1389.503174 -51.911888
  endloop
 endfacet
 facet normal -0.313069 -0.759395 -0.570358
  outer loop
   vertex -20.616463 1389.503174 -51.911888
   vertex -20.442202 1388.679932 -50.911446
   vertex -21.149305 1388.972778 -50.913223
  endloop
 endfacet
 facet normal -0.757935 -0.314572 -0.571471
  outer loop
   vertex -21.149305 1388.972778 -50.913223
   vertex -20.689686 1389.679932 -51.912071
   vertex -20.616463 1389.503174 -51.911888
  endloop
 endfacet
 facet normal -0.757963 -0.314532 -0.571455
  outer loop
   vertex -21.442198 1389.679932 -50.913960
   vertex -20.689686 1389.679932 -51.912071
   vertex -21.149305 1388.972778 -50.913223
  endloop
 endfacet
 facet normal -0.923863 0.382716 -0.002323
  outer loop
   vertex 5.532722 1389.679932 -52.836094
   vertex 5.530207 1389.679932 -51.836094
   vertex 5.605945 1389.856689 -52.835907
  endloop
 endfacet
 facet normal -0.923863 0.382716 -0.002323
  outer loop
   vertex 5.605945 1389.856689 -52.835907
   vertex 5.530207 1389.679932 -51.836094
   vertex 5.603430 1389.856689 -51.835911
  endloop
 endfacet
 facet normal -0.382766 0.923845 -0.000963
  outer loop
   vertex 5.603430 1389.856689 -51.835911
   vertex 5.782721 1389.929932 -52.835464
   vertex 5.605945 1389.856689 -52.835907
  endloop
 endfacet
 facet normal -0.382766 0.923845 -0.000963
  outer loop
   vertex 5.780206 1389.929932 -51.835468
   vertex 5.782721 1389.929932 -52.835464
   vertex 5.603430 1389.856689 -51.835911
  endloop
 endfacet
 facet normal 0.382766 0.923845 0.000963
  outer loop
   vertex 5.959497 1389.856689 -52.835018
   vertex 5.782721 1389.929932 -52.835464
   vertex 5.780206 1389.929932 -51.835468
  endloop
 endfacet
 facet normal 0.382766 0.923845 0.000963
  outer loop
   vertex 5.780206 1389.929932 -51.835468
   vertex 5.956983 1389.856689 -51.835022
   vertex 5.959497 1389.856689 -52.835018
  endloop
 endfacet
 facet normal 0.923863 0.382716 0.002323
  outer loop
   vertex 5.959497 1389.856689 -52.835018
   vertex 5.956983 1389.856689 -51.835022
   vertex 6.032720 1389.679932 -52.834835
  endloop
 endfacet
 facet normal 0.923863 0.382716 0.002323
  outer loop
   vertex 6.032720 1389.679932 -52.834835
   vertex 5.956983 1389.856689 -51.835022
   vertex 6.030205 1389.679932 -51.834839
  endloop
 endfacet
 facet normal 0.923863 -0.382716 0.002323
  outer loop
   vertex 6.030205 1389.679932 -51.834839
   vertex 5.959497 1389.503174 -52.835018
   vertex 6.032720 1389.679932 -52.834835
  endloop
 endfacet
 facet normal 0.923863 -0.382716 0.002323
  outer loop
   vertex 5.956983 1389.503174 -51.835022
   vertex 5.959497 1389.503174 -52.835018
   vertex 6.030205 1389.679932 -51.834839
  endloop
 endfacet
 facet normal 0.382766 -0.923845 0.000963
  outer loop
   vertex 5.782721 1389.429932 -52.835464
   vertex 5.959497 1389.503174 -52.835018
   vertex 5.956983 1389.503174 -51.835022
  endloop
 endfacet
 facet normal 0.382766 -0.923845 0.000963
  outer loop
   vertex 5.956983 1389.503174 -51.835022
   vertex 5.780206 1389.429932 -51.835468
   vertex 5.782721 1389.429932 -52.835464
  endloop
 endfacet
 facet normal -0.382766 -0.923845 -0.000963
  outer loop
   vertex 5.782721 1389.429932 -52.835464
   vertex 5.780206 1389.429932 -51.835468
   vertex 5.605945 1389.503174 -52.835907
  endloop
 endfacet
 facet normal -0.382766 -0.923845 -0.000963
  outer loop
   vertex 5.605945 1389.503174 -52.835907
   vertex 5.780206 1389.429932 -51.835468
   vertex 5.603430 1389.503174 -51.835911
  endloop
 endfacet
 facet normal -0.923863 -0.382716 -0.002323
  outer loop
   vertex 5.603430 1389.503174 -51.835911
   vertex 5.532722 1389.679932 -52.836094
   vertex 5.605945 1389.503174 -52.835907
  endloop
 endfacet
 facet normal -0.923863 -0.382716 -0.002323
  outer loop
   vertex 5.530207 1389.679932 -51.836094
   vertex 5.532722 1389.679932 -52.836094
   vertex 5.603430 1389.503174 -51.835911
  endloop
 endfacet
 facet normal -0.923885 0.382662 -0.002323
  outer loop
   vertex 4.777719 1389.679932 -50.848022
   vertex 4.775205 1389.679932 -49.848026
   vertex 5.070612 1390.387085 -50.847286
  endloop
 endfacet
 facet normal -0.923885 0.382662 -0.002323
  outer loop
   vertex 5.070612 1390.387085 -50.847286
   vertex 4.775205 1389.679932 -49.848026
   vertex 5.068097 1390.387085 -49.847290
  endloop
 endfacet
 facet normal -0.382630 0.923901 -0.000962
  outer loop
   vertex 5.068097 1390.387085 -49.847290
   vertex 5.777716 1390.679932 -50.845509
   vertex 5.070612 1390.387085 -50.847286
  endloop
 endfacet
 facet normal -0.382630 0.923901 -0.000962
  outer loop
   vertex 5.775202 1390.679932 -49.845512
   vertex 5.777716 1390.679932 -50.845509
   vertex 5.068097 1390.387085 -49.847290
  endloop
 endfacet
 facet normal 0.382630 0.923901 0.000962
  outer loop
   vertex 6.484821 1390.387085 -50.843731
   vertex 5.777716 1390.679932 -50.845509
   vertex 5.775202 1390.679932 -49.845512
  endloop
 endfacet
 facet normal 0.382630 0.923901 0.000962
  outer loop
   vertex 5.775202 1390.679932 -49.845512
   vertex 6.482306 1390.387085 -49.843731
   vertex 6.484821 1390.387085 -50.843731
  endloop
 endfacet
 facet normal 0.923885 0.382662 0.002323
  outer loop
   vertex 6.484821 1390.387085 -50.843731
   vertex 6.482306 1390.387085 -49.843731
   vertex 6.777713 1389.679932 -50.842995
  endloop
 endfacet
 facet normal 0.923885 0.382662 0.002323
  outer loop
   vertex 6.777713 1389.679932 -50.842995
   vertex 6.482306 1390.387085 -49.843731
   vertex 6.775198 1389.679932 -49.842995
  endloop
 endfacet
 facet normal 0.923886 -0.382662 0.002323
  outer loop
   vertex 6.775198 1389.679932 -49.842995
   vertex 6.484821 1388.972778 -50.843731
   vertex 6.777713 1389.679932 -50.842995
  endloop
 endfacet
 facet normal 0.923886 -0.382662 0.002323
  outer loop
   vertex 6.482306 1388.972778 -49.843735
   vertex 6.484821 1388.972778 -50.843731
   vertex 6.775198 1389.679932 -49.842995
  endloop
 endfacet
 facet normal 0.382630 -0.923901 0.000962
  outer loop
   vertex 5.777717 1388.679932 -50.845509
   vertex 6.484821 1388.972778 -50.843731
   vertex 6.482306 1388.972778 -49.843735
  endloop
 endfacet
 facet normal 0.382630 -0.923901 0.000962
  outer loop
   vertex 6.482306 1388.972778 -49.843735
   vertex 5.775202 1388.679932 -49.845512
   vertex 5.777717 1388.679932 -50.845509
  endloop
 endfacet
 facet normal -0.382630 -0.923901 -0.000962
  outer loop
   vertex 5.777717 1388.679932 -50.845509
   vertex 5.775202 1388.679932 -49.845512
   vertex 5.070612 1388.972778 -50.847286
  endloop
 endfacet
 facet normal -0.382630 -0.923901 -0.000962
  outer loop
   vertex 5.070612 1388.972778 -50.847286
   vertex 5.775202 1388.679932 -49.845512
   vertex 5.068098 1388.972778 -49.847290
  endloop
 endfacet
 facet normal -0.923885 -0.382663 -0.002323
  outer loop
   vertex 5.068098 1388.972778 -49.847290
   vertex 4.777719 1389.679932 -50.848022
   vertex 5.070612 1388.972778 -50.847286
  endloop
 endfacet
 facet normal -0.923885 -0.382663 -0.002323
  outer loop
   vertex 4.775205 1389.679932 -49.848026
   vertex 4.777719 1389.679932 -50.848022
   vertex 5.068098 1388.972778 -49.847290
  endloop
 endfacet
 facet normal -0.757951 0.314576 -0.571447
  outer loop
   vertex 5.530232 1389.679932 -51.846134
   vertex 4.777719 1389.679932 -50.848022
   vertex 5.603455 1389.856689 -51.845951
  endloop
 endfacet
 facet normal -0.757959 0.314530 -0.571462
  outer loop
   vertex 5.603455 1389.856689 -51.845951
   vertex 4.777719 1389.679932 -50.848022
   vertex 5.070612 1390.387085 -50.847286
  endloop
 endfacet
 facet normal -0.313169 0.759336 -0.570380
  outer loop
   vertex 5.070612 1390.387085 -50.847286
   vertex 5.780231 1389.929932 -51.845505
   vertex 5.603455 1389.856689 -51.845951
  endloop
 endfacet
 facet normal -0.313073 0.759404 -0.570343
  outer loop
   vertex 5.777716 1390.679932 -50.845509
   vertex 5.780231 1389.929932 -51.845505
   vertex 5.070612 1390.387085 -50.847286
  endloop
 endfacet
 facet normal 0.316060 0.759372 -0.568736
  outer loop
   vertex 5.957008 1389.856689 -51.845058
   vertex 5.780231 1389.929932 -51.845505
   vertex 5.777716 1390.679932 -50.845509
  endloop
 endfacet
 facet normal 0.315932 0.759394 -0.568777
  outer loop
   vertex 5.777716 1390.679932 -50.845509
   vertex 6.484821 1390.387085 -50.843731
   vertex 5.957008 1389.856689 -51.845058
  endloop
 endfacet
 facet normal 0.760797 0.314575 -0.567654
  outer loop
   vertex 5.957008 1389.856689 -51.845058
   vertex 6.484821 1390.387085 -50.843731
   vertex 6.030231 1389.679932 -51.844875
  endloop
 endfacet
 facet normal 0.760827 0.314532 -0.567637
  outer loop
   vertex 6.030231 1389.679932 -51.844875
   vertex 6.484821 1390.387085 -50.843731
   vertex 6.777713 1389.679932 -50.842995
  endloop
 endfacet
 facet normal 0.760813 -0.314582 -0.567627
  outer loop
   vertex 6.777713 1389.679932 -50.842995
   vertex 5.957008 1389.503174 -51.845058
   vertex 6.030231 1389.679932 -51.844875
  endloop
 endfacet
 facet normal 0.760823 -0.314530 -0.567644
  outer loop
   vertex 6.484821 1388.972778 -50.843731
   vertex 5.957008 1389.503174 -51.845058
   vertex 6.777713 1389.679932 -50.842995
  endloop
 endfacet
 facet normal 0.316042 -0.759330 -0.568802
  outer loop
   vertex 5.780231 1389.429932 -51.845505
   vertex 5.957008 1389.503174 -51.845058
   vertex 6.484821 1388.972778 -50.843731
  endloop
 endfacet
 facet normal 0.315936 -0.759404 -0.568761
  outer loop
   vertex 6.484821 1388.972778 -50.843731
   vertex 5.777717 1388.679932 -50.845509
   vertex 5.780231 1389.429932 -51.845505
  endloop
 endfacet
 facet normal -0.313185 -0.759374 -0.570321
  outer loop
   vertex 5.780231 1389.429932 -51.845505
   vertex 5.777717 1388.679932 -50.845509
   vertex 5.603455 1389.503174 -51.845951
  endloop
 endfacet
 facet normal -0.313069 -0.759395 -0.570357
  outer loop
   vertex 5.603455 1389.503174 -51.845951
   vertex 5.777717 1388.679932 -50.845509
   vertex 5.070612 1388.972778 -50.847286
  endloop
 endfacet
 facet normal -0.757936 -0.314570 -0.571470
  outer loop
   vertex 5.070612 1388.972778 -50.847286
   vertex 5.530232 1389.679932 -51.846134
   vertex 5.603455 1389.503174 -51.845951
  endloop
 endfacet
 facet normal -0.757963 -0.314532 -0.571456
  outer loop
   vertex 4.777719 1389.679932 -50.848022
   vertex 5.530232 1389.679932 -51.846134
   vertex 5.070612 1388.972778 -50.847286
  endloop
 endfacet
 facet normal -0.923862 -0.382718 -0.002322
  outer loop
   vertex -20.689711 1389.679932 -51.902035
   vertex -20.687197 1389.679932 -52.902031
   vertex -20.616488 1389.503174 -51.901852
  endloop
 endfacet
 facet normal -0.923862 -0.382718 -0.002322
  outer loop
   vertex -20.616488 1389.503174 -51.901852
   vertex -20.687197 1389.679932 -52.902031
   vertex -20.613974 1389.503174 -52.901848
  endloop
 endfacet
 facet normal -0.382769 -0.923844 -0.000962
  outer loop
   vertex -20.613974 1389.503174 -52.901848
   vertex -20.439713 1389.429932 -51.901405
   vertex -20.616488 1389.503174 -51.901852
  endloop
 endfacet
 facet normal -0.382765 -0.923845 -0.000963
  outer loop
   vertex -20.437197 1389.429932 -52.901402
   vertex -20.439713 1389.429932 -51.901405
   vertex -20.613974 1389.503174 -52.901848
  endloop
 endfacet
 facet normal 0.382765 -0.923845 0.000963
  outer loop
   vertex -20.262936 1389.503174 -51.900963
   vertex -20.439713 1389.429932 -51.901405
   vertex -20.437197 1389.429932 -52.901402
  endloop
 endfacet
 facet normal 0.382765 -0.923845 0.000963
  outer loop
   vertex -20.437197 1389.429932 -52.901402
   vertex -20.260420 1389.503174 -52.900959
   vertex -20.262936 1389.503174 -51.900963
  endloop
 endfacet
 facet normal 0.923862 -0.382719 0.002324
  outer loop
   vertex -20.262936 1389.503174 -51.900963
   vertex -20.260420 1389.503174 -52.900959
   vertex -20.189713 1389.679932 -51.900776
  endloop
 endfacet
 facet normal 0.923866 -0.382710 0.002323
  outer loop
   vertex -20.189713 1389.679932 -51.900776
   vertex -20.260420 1389.503174 -52.900959
   vertex -20.187199 1389.679932 -52.900772
  endloop
 endfacet
 facet normal 0.923862 0.382719 0.002322
  outer loop
   vertex -20.187199 1389.679932 -52.900772
   vertex -20.262936 1389.856689 -51.900963
   vertex -20.189713 1389.679932 -51.900776
  endloop
 endfacet
 facet normal 0.923866 0.382710 0.002324
  outer loop
   vertex -20.260420 1389.856689 -52.900959
   vertex -20.262936 1389.856689 -51.900963
   vertex -20.187199 1389.679932 -52.900772
  endloop
 endfacet
 facet normal 0.382765 0.923845 0.000963
  outer loop
   vertex -20.439713 1389.929932 -51.901405
   vertex -20.262936 1389.856689 -51.900963
   vertex -20.260420 1389.856689 -52.900959
  endloop
 endfacet
 facet normal 0.382765 0.923845 0.000963
  outer loop
   vertex -20.260420 1389.856689 -52.900959
   vertex -20.437197 1389.929932 -52.901402
   vertex -20.439713 1389.929932 -51.901405
  endloop
 endfacet
 facet normal -0.382769 0.923844 -0.000963
  outer loop
   vertex -20.439713 1389.929932 -51.901405
   vertex -20.437197 1389.929932 -52.901402
   vertex -20.616488 1389.856689 -51.901852
  endloop
 endfacet
 facet normal -0.382765 0.923845 -0.000962
  outer loop
   vertex -20.616488 1389.856689 -51.901852
   vertex -20.437197 1389.929932 -52.901402
   vertex -20.613974 1389.856689 -52.901848
  endloop
 endfacet
 facet normal -0.923862 0.382718 -0.002322
  outer loop
   vertex -20.613974 1389.856689 -52.901848
   vertex -20.689711 1389.679932 -51.902035
   vertex -20.616488 1389.856689 -51.901852
  endloop
 endfacet
 facet normal -0.923862 0.382718 -0.002322
  outer loop
   vertex -20.687197 1389.679932 -52.902031
   vertex -20.689711 1389.679932 -51.902035
   vertex -20.613974 1389.856689 -52.901848
  endloop
 endfacet
endsolid