solid stl file generated from DOUG
 facet normal -0.544427 -0.593657 0.592597
  outer loop
   vertex -72.846764 1328.047241 2.159020
   vertex -72.792053 1327.937622 2.099468
   vertex -65.980667 1327.937622 8.357181
  endloop
 endfacet
 facet normal -0.000000 -1.000000 -0.000000
  outer loop
   vertex -65.980667 1327.937622 8.357181
   vertex -72.792053 1327.937622 2.099468
   vertex -65.911148 1327.937622 8.281510
  endloop
 endfacet
 facet normal 0.544426 -0.593657 -0.592597
  outer loop
   vertex -66.782646 1328.047241 9.230116
   vertex -66.837357 1327.937622 9.289668
   vertex -73.648743 1327.937622 3.031956
  endloop
 endfacet
 facet normal -0.000000 -1.000000 -0.000000
  outer loop
   vertex -73.648743 1327.937622 3.031956
   vertex -66.837357 1327.937622 9.289668
   vertex -66.906876 1327.937622 9.365338
  endloop
 endfacet
 facet normal 0.000000 -1.000000 0.000000
  outer loop
   vertex -66.906876 1327.937622 9.365338
   vertex -73.718262 1327.937622 3.107626
   vertex -73.648743 1327.937622 3.031956
  endloop
 endfacet
 facet normal -0.242827 -0.933367 0.264313
  outer loop
   vertex -66.906876 1328.670410 9.365338
   vertex -73.718262 1328.670410 3.107625
   vertex -66.885612 1328.658325 9.342197
  endloop
 endfacet
 facet normal -0.242866 -0.933345 0.264354
  outer loop
   vertex -66.885612 1328.658325 9.342197
   vertex -73.718262 1328.670410 3.107625
   vertex -73.697006 1328.658325 3.084485
  endloop
 endfacet
 facet normal -0.676543 0.000000 0.736403
  outer loop
   vertex -73.697006 1328.658325 3.084485
   vertex -73.697006 1328.083130 3.084485
   vertex -66.885612 1328.658325 9.342197
  endloop
 endfacet
 facet normal -0.544428 -0.593654 0.592598
  outer loop
   vertex -65.980667 1327.937622 8.357181
   vertex -66.035378 1328.047241 8.416732
   vertex -72.846764 1328.047241 2.159020
  endloop
 endfacet
 facet normal -0.000000 -1.000000 -0.000000
  outer loop
   vertex -72.846764 1328.047241 2.159020
   vertex -66.035378 1328.047241 8.416732
   vertex -66.782646 1328.047241 9.230116
  endloop
 endfacet
 facet normal 0.000000 -1.000000 0.000000
  outer loop
   vertex -66.782646 1328.047241 9.230116
   vertex -73.594032 1328.047241 2.972404
   vertex -72.846764 1328.047241 2.159020
  endloop
 endfacet
 facet normal 0.544426 -0.593657 -0.592597
  outer loop
   vertex -73.648743 1327.937622 3.031956
   vertex -73.594032 1328.047241 2.972404
   vertex -66.782646 1328.047241 9.230116
  endloop
 endfacet
 facet normal -0.676543 0.000000 0.736403
  outer loop
   vertex -73.718262 1327.937622 3.107626
   vertex -66.906876 1327.937622 9.365338
   vertex -73.718262 1328.071045 3.107626
  endloop
 endfacet
 facet normal -0.676543 -0.000000 0.736403
  outer loop
   vertex -73.718262 1328.071045 3.107626
   vertex -66.906876 1327.937622 9.365338
   vertex -66.906876 1328.071045 9.365338
  endloop
 endfacet
 facet normal -0.242865 0.933346 0.264353
  outer loop
   vertex -66.906876 1328.071045 9.365338
   vertex -73.697006 1328.083130 3.084485
   vertex -73.718262 1328.071045 3.107626
  endloop
 endfacet
 facet normal -0.242827 0.933367 0.264313
  outer loop
   vertex -66.885612 1328.083130 9.342197
   vertex -73.697006 1328.083130 3.084485
   vertex -66.906876 1328.071045 9.365338
  endloop
 endfacet
 facet normal -0.676543 0.000000 0.736403
  outer loop
   vertex -66.885612 1328.658325 9.342197
   vertex -73.697006 1328.083130 3.084485
   vertex -66.885612 1328.083130 9.342197
  endloop
 endfacet
 facet normal 0.736403 0.000000 0.676543
  outer loop
   vertex -65.503181 1327.918945 8.633170
   vertex -66.521965 1328.759399 9.742095
   vertex -66.521965 1327.918945 9.742095
  endloop
 endfacet
 facet normal -0.676542 -0.000000 0.736404
  outer loop
   vertex -66.521965 1327.918945 9.742095
   vertex -66.521965 1328.759399 9.742095
   vertex -67.258369 1327.918945 9.065553
  endloop
 endfacet
 facet normal 0.000000 -1.000000 0.000000
  outer loop
   vertex -67.258369 1327.918945 9.065553
   vertex -66.239586 1327.918945 7.956627
   vertex -66.521965 1327.918945 9.742095
  endloop
 endfacet
 facet normal -0.736403 -0.000000 -0.676543
  outer loop
   vertex -67.258369 1328.759399 9.065553
   vertex -66.239586 1327.918945 7.956627
   vertex -67.258369 1327.918945 9.065553
  endloop
 endfacet
 facet normal -0.736403 0.000000 -0.676543
  outer loop
   vertex -66.239586 1328.759399 7.956627
   vertex -66.239586 1327.918945 7.956627
   vertex -67.258369 1328.759399 9.065553
  endloop
 endfacet
 facet normal -0.000000 1.000000 0.000000
  outer loop
   vertex -67.258369 1328.759399 9.065553
   vertex -66.521965 1328.759399 9.742095
   vertex -66.239586 1328.759399 7.956627
  endloop
 endfacet
 facet normal 0.000000 1.000000 0.000000
  outer loop
   vertex -66.239586 1328.759399 7.956627
   vertex -66.521965 1328.759399 9.742095
   vertex -65.503181 1328.759399 8.633170
  endloop
 endfacet
 facet normal 0.736403 -0.000000 0.676543
  outer loop
   vertex -65.503181 1328.759399 8.633170
   vertex -66.521965 1328.759399 9.742095
   vertex -65.503181 1327.918945 8.633170
  endloop
 endfacet
 facet normal 0.676542 0.000000 -0.736404
  outer loop
   vertex -65.503181 1327.918945 8.633170
   vertex -66.239586 1327.918945 7.956627
   vertex -65.503181 1328.759399 8.633170
  endloop
 endfacet
 facet normal -0.000000 -1.000000 0.000000
  outer loop
   vertex -66.521965 1327.918945 9.742095
   vertex -66.239586 1327.918945 7.956627
   vertex -65.503181 1327.918945 8.633170
  endloop
 endfacet
 facet normal 0.736403 0.000000 0.676543
  outer loop
   vertex -73.389824 1327.918945 3.432509
   vertex -72.371040 1327.918945 2.323584
   vertex -73.389824 1328.759399 3.432509
  endloop
 endfacet
 facet normal 0.736403 -0.000000 0.676543
  outer loop
   vertex -73.389824 1328.759399 3.432509
   vertex -72.371040 1327.918945 2.323584
   vertex -72.371040 1328.759399 2.323584
  endloop
 endfacet
 facet normal 0.000000 1.000000 -0.000000
  outer loop
   vertex -72.371040 1328.759399 2.323584
   vertex -73.107445 1328.759399 1.647041
   vertex -73.389824 1328.759399 3.432509
  endloop
 endfacet
 facet normal 0.676542 -0.000000 -0.736404
  outer loop
   vertex -72.371040 1327.918945 2.323584
   vertex -73.107445 1328.759399 1.647041
   vertex -72.371040 1328.759399 2.323584
  endloop
 endfacet
 facet normal 0.676542 0.000000 -0.736404
  outer loop
   vertex -73.107445 1327.918945 1.647041
   vertex -73.107445 1328.759399 1.647041
   vertex -72.371040 1327.918945 2.323584
  endloop
 endfacet
 facet normal -0.000000 -1.000000 -0.000000
  outer loop
   vertex -72.371040 1327.918945 2.323584
   vertex -74.126228 1327.918945 2.755966
   vertex -73.107445 1327.918945 1.647041
  endloop
 endfacet
 facet normal -0.736403 0.000000 -0.676543
  outer loop
   vertex -73.107445 1327.918945 1.647041
   vertex -74.126228 1327.918945 2.755966
   vertex -73.107445 1328.759399 1.647041
  endloop
 endfacet
 facet normal -0.736403 0.000000 -0.676543
  outer loop
   vertex -73.107445 1328.759399 1.647041
   vertex -74.126228 1327.918945 2.755966
   vertex -74.126228 1328.759399 2.755966
  endloop
 endfacet
 facet normal 0.000000 1.000000 0.000000
  outer loop
   vertex -74.126228 1328.759399 2.755966
   vertex -73.389824 1328.759399 3.432509
   vertex -73.107445 1328.759399 1.647041
  endloop
 endfacet
 facet normal -0.676542 -0.000000 0.736404
  outer loop
   vertex -74.126228 1327.918945 2.755966
   vertex -73.389824 1328.759399 3.432509
   vertex -74.126228 1328.759399 2.755966
  endloop
 endfacet
 facet normal -0.676542 0.000000 0.736404
  outer loop
   vertex -73.389824 1327.918945 3.432509
   vertex -73.389824 1328.759399 3.432509
   vertex -74.126228 1327.918945 2.755966
  endloop
 endfacet
 facet normal -0.000000 -1.000000 -0.000000
  outer loop
   vertex -74.126228 1327.918945 2.755966
   vertex -72.371040 1327.918945 2.323584
   vertex -73.389824 1327.918945 3.432509
  endloop
 endfacet
 facet normal 0.000000 -1.000000 0.000000
  outer loop
   vertex -72.792053 1327.937622 2.099468
   vertex -72.722534 1327.937622 2.023798
   vertex -65.911148 1327.937622 8.281510
  endloop
 endfacet
 facet normal 0.676543 -0.000000 -0.736403
  outer loop
   vertex -65.911148 1327.937622 8.281510
   vertex -72.722534 1327.937622 2.023798
   vertex -72.722534 1328.071045 2.023798
  endloop
 endfacet
 facet normal 0.676543 0.000000 -0.736403
  outer loop
   vertex -72.722534 1328.071045 2.023798
   vertex -65.911148 1328.071045 8.281510
   vertex -65.911148 1327.937622 8.281510
  endloop
 endfacet
 facet normal 0.242830 0.933366 -0.264315
  outer loop
   vertex -72.743797 1328.083130 2.046939
   vertex -65.911148 1328.071045 8.281510
   vertex -72.722534 1328.071045 2.023798
  endloop
 endfacet
 facet normal 0.242862 0.933347 -0.264350
  outer loop
   vertex -65.932404 1328.083130 8.304651
   vertex -65.911148 1328.071045 8.281510
   vertex -72.743797 1328.083130 2.046939
  endloop
 endfacet
 facet normal 0.676543 -0.000000 -0.736403
  outer loop
   vertex -72.743797 1328.083130 2.046939
   vertex -72.743797 1328.658325 2.046939
   vertex -65.932404 1328.083130 8.304651
  endloop
 endfacet
 facet normal 0.676543 0.000000 -0.736403
  outer loop
   vertex -65.932404 1328.083130 8.304651
   vertex -72.743797 1328.658325 2.046939
   vertex -65.932404 1328.658325 8.304651
  endloop
 endfacet
 facet normal 0.242830 -0.933366 -0.264315
  outer loop
   vertex -65.932404 1328.658325 8.304651
   vertex -72.743797 1328.658325 2.046939
   vertex -72.722534 1328.670410 2.023798
  endloop
 endfacet
 facet normal 0.242862 -0.933347 -0.264350
  outer loop
   vertex -72.722534 1328.670410 2.023798
   vertex -65.911148 1328.670410 8.281510
   vertex -65.932404 1328.658325 8.304651
  endloop
 endfacet
 facet normal 0.676543 -0.000000 -0.736403
  outer loop
   vertex -72.722534 1328.736572 2.023798
   vertex -65.911148 1328.670410 8.281510
   vertex -72.722534 1328.670410 2.023798
  endloop
 endfacet
 facet normal 0.676543 0.000000 -0.736403
  outer loop
   vertex -65.911148 1328.736572 8.281510
   vertex -65.911148 1328.670410 8.281510
   vertex -72.722534 1328.736572 2.023798
  endloop
 endfacet
 facet normal -0.000000 1.000000 -0.000000
  outer loop
   vertex -72.722534 1328.736572 2.023798
   vertex -73.718262 1328.736572 3.107625
   vertex -65.911148 1328.736572 8.281510
  endloop
 endfacet
 facet normal 0.000000 1.000000 0.000000
  outer loop
   vertex -65.911148 1328.736572 8.281510
   vertex -73.718262 1328.736572 3.107625
   vertex -66.906876 1328.736572 9.365338
  endloop
 endfacet
 facet normal -0.676543 -0.000000 0.736403
  outer loop
   vertex -66.906876 1328.736572 9.365338
   vertex -73.718262 1328.736572 3.107625
   vertex -66.906876 1328.670410 9.365338
  endloop
 endfacet
 facet normal -0.676542 0.000000 0.736404
  outer loop
   vertex -67.258369 1328.759399 9.065553
   vertex -67.258369 1327.918945 9.065553
   vertex -66.521965 1328.759399 9.742095
  endloop
 endfacet
 facet normal 0.676542 0.000000 -0.736404
  outer loop
   vertex -66.239586 1327.918945 7.956627
   vertex -66.239586 1328.759399 7.956627
   vertex -65.503181 1328.759399 8.633170
  endloop
 endfacet
 facet normal -0.676543 0.000000 0.736403
  outer loop
   vertex -73.718262 1328.736572 3.107625
   vertex -73.718262 1328.670410 3.107625
   vertex -66.906876 1328.670410 9.365338
  endloop
 endfacet
 facet normal -0.421449 -0.000003 -0.906852
  outer loop
   vertex -73.993790 1330.699951 1.855186
   vertex -73.993797 1331.699951 1.855186
   vertex -73.299721 1330.699951 1.532625
  endloop
 endfacet
 facet normal -0.421445 -0.000000 -0.906854
  outer loop
   vertex -73.299721 1330.699951 1.532625
   vertex -73.993797 1331.699951 1.855186
   vertex -73.299721 1331.699951 1.532625
  endloop
 endfacet
 facet normal 0.343234 -0.000000 -0.939250
  outer loop
   vertex -73.299721 1331.699951 1.532625
   vertex -72.580849 1330.699951 1.795326
   vertex -73.299721 1330.699951 1.532625
  endloop
 endfacet
 facet normal 0.343234 -0.000000 -0.939250
  outer loop
   vertex -72.580849 1331.699951 1.795326
   vertex -72.580849 1330.699951 1.795326
   vertex -73.299721 1331.699951 1.532625
  endloop
 endfacet
 facet normal 0.906852 -0.000000 -0.421449
  outer loop
   vertex -72.258286 1330.699951 2.489402
   vertex -72.580849 1330.699951 1.795326
   vertex -72.580849 1331.699951 1.795326
  endloop
 endfacet
 facet normal 0.906852 -0.000000 -0.421449
  outer loop
   vertex -72.580849 1331.699951 1.795326
   vertex -72.258286 1331.699951 2.489402
   vertex -72.258286 1330.699951 2.489402
  endloop
 endfacet
 facet normal 0.939249 0.000000 0.343238
  outer loop
   vertex -72.258286 1330.699951 2.489402
   vertex -72.258286 1331.699951 2.489402
   vertex -72.520988 1330.699951 3.208272
  endloop
 endfacet
 facet normal 0.939249 -0.000000 0.343238
  outer loop
   vertex -72.520988 1330.699951 3.208272
   vertex -72.258286 1331.699951 2.489402
   vertex -72.520988 1331.699951 3.208272
  endloop
 endfacet
 facet normal 0.421446 0.000000 0.906854
  outer loop
   vertex -72.520988 1331.699951 3.208272
   vertex -73.215065 1330.699951 3.530833
   vertex -72.520988 1330.699951 3.208272
  endloop
 endfacet
 facet normal 0.421446 -0.000000 0.906854
  outer loop
   vertex -73.215065 1331.699951 3.530833
   vertex -73.215065 1330.699951 3.530833
   vertex -72.520988 1331.699951 3.208272
  endloop
 endfacet
 facet normal -0.343237 0.000000 0.939249
  outer loop
   vertex -73.933929 1330.699951 3.268133
   vertex -73.215065 1330.699951 3.530833
   vertex -73.215065 1331.699951 3.530833
  endloop
 endfacet
 facet normal -0.343237 0.000000 0.939249
  outer loop
   vertex -73.215065 1331.699951 3.530833
   vertex -73.933929 1331.699951 3.268132
   vertex -73.933929 1330.699951 3.268133
  endloop
 endfacet
 facet normal -0.906852 0.000000 0.421449
  outer loop
   vertex -73.933929 1330.699951 3.268133
   vertex -73.933929 1331.699951 3.268132
   vertex -74.256493 1330.699951 2.574057
  endloop
 endfacet
 facet normal -0.906852 -0.000000 0.421449
  outer loop
   vertex -74.256493 1330.699951 2.574057
   vertex -73.933929 1331.699951 3.268132
   vertex -74.256493 1331.699951 2.574057
  endloop
 endfacet
 facet normal -0.939249 0.000000 -0.343237
  outer loop
   vertex -74.256493 1331.699951 2.574057
   vertex -73.993790 1330.699951 1.855186
   vertex -74.256493 1330.699951 2.574057
  endloop
 endfacet
 facet normal -0.939252 -0.000007 -0.343229
  outer loop
   vertex -73.993797 1331.699951 1.855186
   vertex -73.993790 1330.699951 1.855186
   vertex -74.256493 1331.699951 2.574057
  endloop
 endfacet
 facet normal 0.421452 -0.000000 0.906851
  outer loop
   vertex -66.361435 1329.709961 9.107183
   vertex -66.187920 1328.709961 9.026543
   vertex -66.187920 1329.709961 9.026543
  endloop
 endfacet
 facet normal 0.939251 -0.000000 0.343230
  outer loop
   vertex -66.187920 1329.709961 9.026543
   vertex -66.187920 1328.709961 9.026543
   vertex -66.122246 1328.709961 8.846826
  endloop
 endfacet
 facet normal 0.939251 0.000000 0.343230
  outer loop
   vertex -66.122246 1328.709961 8.846826
   vertex -66.122246 1329.709961 8.846826
   vertex -66.187920 1329.709961 9.026543
  endloop
 endfacet
 facet normal 0.906864 -0.000000 -0.421423
  outer loop
   vertex -66.202881 1328.709961 8.673306
   vertex -66.122246 1329.709961 8.846826
   vertex -66.122246 1328.709961 8.846826
  endloop
 endfacet
 facet normal 0.906864 0.000000 -0.421423
  outer loop
   vertex -66.202881 1329.709961 8.673306
   vertex -66.122246 1329.709961 8.846826
   vertex -66.202881 1328.709961 8.673306
  endloop
 endfacet
 facet normal 0.343237 -0.000000 -0.939249
  outer loop
   vertex -66.202881 1328.709961 8.673306
   vertex -66.382599 1328.709961 8.607631
   vertex -66.202881 1329.709961 8.673306
  endloop
 endfacet
 facet normal 0.343237 0.000000 -0.939249
  outer loop
   vertex -66.202881 1329.709961 8.673306
   vertex -66.382599 1328.709961 8.607631
   vertex -66.382599 1329.709961 8.607631
  endloop
 endfacet
 facet normal -0.421440 0.000000 -0.906856
  outer loop
   vertex -66.382599 1329.709961 8.607631
   vertex -66.382599 1328.709961 8.607631
   vertex -66.556122 1328.709961 8.688272
  endloop
 endfacet
 facet normal -0.421440 -0.000000 -0.906856
  outer loop
   vertex -66.556122 1328.709961 8.688272
   vertex -66.556122 1329.709961 8.688272
   vertex -66.382599 1329.709961 8.607631
  endloop
 endfacet
 facet normal -0.939251 -0.000000 -0.343230
  outer loop
   vertex -66.621796 1328.709961 8.867989
   vertex -66.556122 1329.709961 8.688272
   vertex -66.556122 1328.709961 8.688272
  endloop
 endfacet
 facet normal -0.939251 0.000000 -0.343230
  outer loop
   vertex -66.621796 1329.709961 8.867989
   vertex -66.556122 1329.709961 8.688272
   vertex -66.621796 1328.709961 8.867989
  endloop
 endfacet
 facet normal -0.906849 -0.000000 0.421456
  outer loop
   vertex -66.621796 1328.709961 8.867989
   vertex -66.541153 1328.709961 9.041508
   vertex -66.621796 1329.709961 8.867989
  endloop
 endfacet
 facet normal -0.906849 0.000000 0.421456
  outer loop
   vertex -66.621796 1329.709961 8.867989
   vertex -66.541153 1328.709961 9.041508
   vertex -66.541153 1329.709961 9.041508
  endloop
 endfacet
 facet normal -0.343233 -0.000000 0.939250
  outer loop
   vertex -66.541153 1329.709961 9.041508
   vertex -66.541153 1328.709961 9.041508
   vertex -66.361435 1328.709961 9.107183
  endloop
 endfacet
 facet normal -0.343233 0.000000 0.939250
  outer loop
   vertex -66.361435 1328.709961 9.107183
   vertex -66.361435 1329.709961 9.107183
   vertex -66.541153 1329.709961 9.041508
  endloop
 endfacet
 facet normal 0.421452 0.000000 0.906851
  outer loop
   vertex -66.187920 1328.709961 9.026543
   vertex -66.361435 1329.709961 9.107183
   vertex -66.361435 1328.709961 9.107183
  endloop
 endfacet
 facet normal 0.421446 -0.000000 0.906853
  outer loop
   vertex -66.329697 1331.699951 9.856511
   vertex -65.635620 1330.699951 9.533950
   vertex -65.635620 1331.699951 9.533950
  endloop
 endfacet
 facet normal 0.939249 -0.000000 0.343238
  outer loop
   vertex -65.635620 1331.699951 9.533950
   vertex -65.635620 1330.699951 9.533950
   vertex -65.372917 1330.699951 8.815080
  endloop
 endfacet
 facet normal 0.939249 0.000000 0.343238
  outer loop
   vertex -65.372917 1330.699951 8.815080
   vertex -65.372917 1331.699951 8.815080
   vertex -65.635620 1331.699951 9.533950
  endloop
 endfacet
 facet normal 0.906852 -0.000000 -0.421449
  outer loop
   vertex -65.695480 1330.699951 8.121004
   vertex -65.372917 1331.699951 8.815080
   vertex -65.372917 1330.699951 8.815080
  endloop
 endfacet
 facet normal 0.906852 0.000000 -0.421449
  outer loop
   vertex -65.695480 1331.699951 8.121004
   vertex -65.372917 1331.699951 8.815080
   vertex -65.695480 1330.699951 8.121004
  endloop
 endfacet
 facet normal 0.343238 -0.000000 -0.939248
  outer loop
   vertex -65.695480 1330.699951 8.121004
   vertex -66.414345 1330.699951 7.858303
   vertex -65.695480 1331.699951 8.121004
  endloop
 endfacet
 facet normal 0.343238 0.000000 -0.939248
  outer loop
   vertex -65.695480 1331.699951 8.121004
   vertex -66.414345 1330.699951 7.858303
   vertex -66.414345 1331.699951 7.858303
  endloop
 endfacet
 facet normal -0.421445 0.000000 -0.906854
  outer loop
   vertex -66.414345 1331.699951 7.858303
   vertex -66.414345 1330.699951 7.858303
   vertex -67.108421 1330.699951 8.180863
  endloop
 endfacet
 facet normal -0.421445 -0.000000 -0.906854
  outer loop
   vertex -67.108421 1330.699951 8.180863
   vertex -67.108421 1331.699951 8.180863
   vertex -66.414345 1331.699951 7.858303
  endloop
 endfacet
 facet normal -0.939249 -0.000000 -0.343237
  outer loop
   vertex -67.371124 1330.699951 8.899734
   vertex -67.108421 1331.699951 8.180863
   vertex -67.108421 1330.699951 8.180863
  endloop
 endfacet
 facet normal -0.939249 0.000000 -0.343237
  outer loop
   vertex -67.371124 1331.699951 8.899734
   vertex -67.108421 1331.699951 8.180863
   vertex -67.371124 1330.699951 8.899734
  endloop
 endfacet
 facet normal -0.906852 -0.000000 0.421449
  outer loop
   vertex -67.371124 1330.699951 8.899734
   vertex -67.048561 1330.699951 9.593810
   vertex -67.371124 1331.699951 8.899734
  endloop
 endfacet
 facet normal -0.906852 0.000000 0.421449
  outer loop
   vertex -67.371124 1331.699951 8.899734
   vertex -67.048561 1330.699951 9.593810
   vertex -67.048561 1331.699951 9.593810
  endloop
 endfacet
 facet normal -0.343238 -0.000000 0.939248
  outer loop
   vertex -67.048561 1331.699951 9.593810
   vertex -67.048561 1330.699951 9.593810
   vertex -66.329697 1330.699951 9.856511
  endloop
 endfacet
 facet normal -0.343238 0.000000 0.939248
  outer loop
   vertex -66.329697 1330.699951 9.856511
   vertex -66.329697 1331.699951 9.856511
   vertex -67.048561 1331.699951 9.593810
  endloop
 endfacet
 facet normal 0.421446 0.000000 0.906853
  outer loop
   vertex -65.635620 1330.699951 9.533950
   vertex -66.329697 1331.699951 9.856511
   vertex -66.329697 1330.699951 9.856511
  endloop
 endfacet
 facet normal 0.346412 -0.569544 0.745398
  outer loop
   vertex -66.329697 1330.699951 9.856511
   vertex -66.187920 1329.699951 9.026543
   vertex -65.635620 1330.699951 9.533950
  endloop
 endfacet
 facet normal 0.772029 -0.569542 0.282122
  outer loop
   vertex -65.635620 1330.699951 9.533950
   vertex -66.187920 1329.699951 9.026543
   vertex -66.122246 1329.699951 8.846826
  endloop
 endfacet
 facet normal 0.772025 -0.569544 0.282128
  outer loop
   vertex -66.122246 1329.699951 8.846826
   vertex -65.372917 1330.699951 8.815080
   vertex -65.635620 1330.699951 9.533950
  endloop
 endfacet
 facet normal 0.745404 -0.569549 -0.346392
  outer loop
   vertex -66.202881 1329.699951 8.673306
   vertex -65.372917 1330.699951 8.815080
   vertex -66.122246 1329.699951 8.846826
  endloop
 endfacet
 facet normal 0.745399 -0.569541 -0.346415
  outer loop
   vertex -65.695480 1330.699951 8.121004
   vertex -65.372917 1330.699951 8.815080
   vertex -66.202881 1329.699951 8.673306
  endloop
 endfacet
 facet normal 0.282127 -0.569543 -0.772026
  outer loop
   vertex -66.202881 1329.699951 8.673306
   vertex -66.382599 1329.699951 8.607631
   vertex -65.695480 1330.699951 8.121004
  endloop
 endfacet
 facet normal 0.282128 -0.569544 -0.772026
  outer loop
   vertex -65.695480 1330.699951 8.121004
   vertex -66.382599 1329.699951 8.607631
   vertex -66.414345 1330.699951 7.858303
  endloop
 endfacet
 facet normal -0.346407 -0.569545 -0.745399
  outer loop
   vertex -66.414345 1330.699951 7.858303
   vertex -66.382599 1329.699951 8.607631
   vertex -66.556122 1329.699951 8.688272
  endloop
 endfacet
 facet normal -0.346411 -0.569544 -0.745398
  outer loop
   vertex -66.556122 1329.699951 8.688272
   vertex -67.108421 1330.699951 8.180863
   vertex -66.414345 1330.699951 7.858303
  endloop
 endfacet
 facet normal -0.772029 -0.569542 -0.282122
  outer loop
   vertex -66.621796 1329.699951 8.867989
   vertex -67.108421 1330.699951 8.180863
   vertex -66.556122 1329.699951 8.688272
  endloop
 endfacet
 facet normal -0.772025 -0.569544 -0.282128
  outer loop
   vertex -67.371124 1330.699951 8.899734
   vertex -67.108421 1330.699951 8.180863
   vertex -66.621796 1329.699951 8.867989
  endloop
 endfacet
 facet normal -0.745395 -0.569543 0.346421
  outer loop
   vertex -66.621796 1329.699951 8.867989
   vertex -66.541153 1329.699951 9.041508
   vertex -67.371124 1330.699951 8.899734
  endloop
 endfacet
 facet normal -0.745396 -0.569545 0.346414
  outer loop
   vertex -67.371124 1330.699951 8.899734
   vertex -66.541153 1329.699951 9.041508
   vertex -67.048561 1330.699951 9.593810
  endloop
 endfacet
 facet normal -0.282124 -0.569544 0.772027
  outer loop
   vertex -67.048561 1330.699951 9.593810
   vertex -66.541153 1329.699951 9.041508
   vertex -66.361435 1329.699951 9.107183
  endloop
 endfacet
 facet normal -0.282128 -0.569546 0.772024
  outer loop
   vertex -66.361435 1329.699951 9.107183
   vertex -66.329697 1330.699951 9.856511
   vertex -67.048561 1330.699951 9.593810
  endloop
 endfacet
 facet normal 0.346417 -0.569542 0.745397
  outer loop
   vertex -66.187920 1329.699951 9.026543
   vertex -66.329697 1330.699951 9.856511
   vertex -66.361435 1329.699951 9.107183
  endloop
 endfacet
 facet normal -0.421454 -0.000000 -0.906850
  outer loop
   vertex -73.441490 1328.709961 2.362593
   vertex -73.441490 1329.709961 2.362593
   vertex -73.267975 1328.709961 2.281953
  endloop
 endfacet
 facet normal -0.421454 -0.000000 -0.906850
  outer loop
   vertex -73.267975 1328.709961 2.281953
   vertex -73.441490 1329.709961 2.362593
   vertex -73.267975 1329.709961 2.281953
  endloop
 endfacet
 facet normal 0.343235 0.000000 -0.939250
  outer loop
   vertex -73.267975 1329.709961 2.281953
   vertex -73.088257 1328.709961 2.347628
   vertex -73.267975 1328.709961 2.281953
  endloop
 endfacet
 facet normal 0.343235 -0.000000 -0.939250
  outer loop
   vertex -73.088257 1329.709961 2.347628
   vertex -73.088257 1328.709961 2.347628
   vertex -73.267975 1329.709961 2.281953
  endloop
 endfacet
 facet normal 0.906849 0.000000 -0.421456
  outer loop
   vertex -73.007614 1328.709961 2.521147
   vertex -73.088257 1328.709961 2.347628
   vertex -73.088257 1329.709961 2.347628
  endloop
 endfacet
 facet normal 0.906849 -0.000000 -0.421456
  outer loop
   vertex -73.088257 1329.709961 2.347628
   vertex -73.007614 1329.709961 2.521147
   vertex -73.007614 1328.709961 2.521147
  endloop
 endfacet
 facet normal 0.939252 0.000000 0.343229
  outer loop
   vertex -73.007614 1328.709961 2.521147
   vertex -73.007614 1329.709961 2.521147
   vertex -73.073288 1328.709961 2.700865
  endloop
 endfacet
 facet normal 0.939252 0.000000 0.343229
  outer loop
   vertex -73.073288 1328.709961 2.700865
   vertex -73.007614 1329.709961 2.521147
   vertex -73.073288 1329.709961 2.700865
  endloop
 endfacet
 facet normal 0.421438 0.000000 0.906857
  outer loop
   vertex -73.073288 1329.709961 2.700865
   vertex -73.246811 1328.709961 2.781505
   vertex -73.073288 1328.709961 2.700865
  endloop
 endfacet
 facet normal 0.421438 0.000000 0.906857
  outer loop
   vertex -73.246811 1329.709961 2.781505
   vertex -73.246811 1328.709961 2.781505
   vertex -73.073288 1329.709961 2.700865
  endloop
 endfacet
 facet normal -0.343235 0.000000 0.939250
  outer loop
   vertex -73.426529 1328.709961 2.715830
   vertex -73.246811 1328.709961 2.781505
   vertex -73.246811 1329.709961 2.781505
  endloop
 endfacet
 facet normal -0.343235 0.000000 0.939250
  outer loop
   vertex -73.246811 1329.709961 2.781505
   vertex -73.426529 1329.709961 2.715830
   vertex -73.426529 1328.709961 2.715830
  endloop
 endfacet
 facet normal -0.906864 0.000000 0.421424
  outer loop
   vertex -73.426529 1328.709961 2.715830
   vertex -73.426529 1329.709961 2.715830
   vertex -73.507164 1328.709961 2.542311
  endloop
 endfacet
 facet normal -0.906863 -0.000000 0.421425
  outer loop
   vertex -73.507164 1328.709961 2.542311
   vertex -73.426529 1329.709961 2.715830
   vertex -73.507164 1329.709961 2.542311
  endloop
 endfacet
 facet normal -0.939252 0.000000 -0.343228
  outer loop
   vertex -73.507164 1329.709961 2.542311
   vertex -73.441490 1328.709961 2.362593
   vertex -73.507164 1328.709961 2.542311
  endloop
 endfacet
 facet normal -0.939252 0.000000 -0.343228
  outer loop
   vertex -73.441490 1329.709961 2.362593
   vertex -73.441490 1328.709961 2.362593
   vertex -73.507164 1329.709961 2.542311
  endloop
 endfacet
 facet normal -0.772027 -0.569546 -0.282120
  outer loop
   vertex -73.507164 1329.699951 2.542311
   vertex -74.256493 1330.699951 2.574057
   vertex -73.441490 1329.699951 2.362593
  endloop
 endfacet
 facet normal -0.772026 -0.569543 -0.282128
  outer loop
   vertex -73.441490 1329.699951 2.362593
   vertex -74.256493 1330.699951 2.574057
   vertex -73.993790 1330.699951 1.855186
  endloop
 endfacet
 facet normal -0.346418 -0.569545 -0.745394
  outer loop
   vertex -73.993790 1330.699951 1.855186
   vertex -73.267975 1329.699951 2.281953
   vertex -73.441490 1329.699951 2.362593
  endloop
 endfacet
 facet normal -0.346415 -0.569544 -0.745397
  outer loop
   vertex -73.299721 1330.699951 1.532625
   vertex -73.267975 1329.699951 2.281953
   vertex -73.993790 1330.699951 1.855186
  endloop
 endfacet
 facet normal 0.282125 -0.569544 -0.772026
  outer loop
   vertex -73.088257 1329.699951 2.347628
   vertex -73.267975 1329.699951 2.281953
   vertex -73.299721 1330.699951 1.532625
  endloop
 endfacet
 facet normal 0.282125 -0.569544 -0.772026
  outer loop
   vertex -73.299721 1330.699951 1.532625
   vertex -72.580849 1330.699951 1.795326
   vertex -73.088257 1329.699951 2.347628
  endloop
 endfacet
 facet normal 0.745392 -0.569547 -0.346420
  outer loop
   vertex -73.088257 1329.699951 2.347628
   vertex -72.580849 1330.699951 1.795326
   vertex -73.007614 1329.699951 2.521147
  endloop
 endfacet
 facet normal 0.745397 -0.569544 -0.346414
  outer loop
   vertex -73.007614 1329.699951 2.521147
   vertex -72.580849 1330.699951 1.795326
   vertex -72.258286 1330.699951 2.489402
  endloop
 endfacet
 facet normal 0.772027 -0.569546 0.282121
  outer loop
   vertex -72.258286 1330.699951 2.489402
   vertex -73.073288 1329.699951 2.700865
   vertex -73.007614 1329.699951 2.521147
  endloop
 endfacet
 facet normal 0.772026 -0.569543 0.282128
  outer loop
   vertex -72.520988 1330.699951 3.208272
   vertex -73.073288 1329.699951 2.700865
   vertex -72.258286 1330.699951 2.489402
  endloop
 endfacet
 facet normal 0.346406 -0.569542 0.745402
  outer loop
   vertex -73.246811 1329.699951 2.781505
   vertex -73.073288 1329.699951 2.700865
   vertex -72.520988 1330.699951 3.208272
  endloop
 endfacet
 facet normal 0.346412 -0.569545 0.745398
  outer loop
   vertex -72.520988 1330.699951 3.208272
   vertex -73.215065 1330.699951 3.530833
   vertex -73.246811 1329.699951 2.781505
  endloop
 endfacet
 facet normal -0.282125 -0.569544 0.772026
  outer loop
   vertex -73.246811 1329.699951 2.781505
   vertex -73.215065 1330.699951 3.530833
   vertex -73.426529 1329.699951 2.715830
  endloop
 endfacet
 facet normal -0.282128 -0.569544 0.772026
  outer loop
   vertex -73.426529 1329.699951 2.715830
   vertex -73.215065 1330.699951 3.530833
   vertex -73.933929 1330.699951 3.268133
  endloop
 endfacet
 facet normal -0.745410 -0.569537 0.346397
  outer loop
   vertex -73.933929 1330.699951 3.268133
   vertex -73.507164 1329.699951 2.542311
   vertex -73.426529 1329.699951 2.715830
  endloop
 endfacet
 facet normal -0.745397 -0.569544 0.346414
  outer loop
   vertex -74.256493 1330.699951 2.574057
   vertex -73.507164 1329.699951 2.542311
   vertex -73.933929 1330.699951 3.268133
  endloop
 endfacet
endsolid