solid stl file generated from DOUG
 facet normal -0.672185 0.000000 -0.740384
  outer loop
   vertex -66.116623 1332.499878 -45.040260
   vertex -68.337776 1332.499878 -43.023705
   vertex -66.116623 1333.499878 -45.040260
  endloop
 endfacet
 facet normal -0.672185 0.000000 -0.740384
  outer loop
   vertex -66.116623 1333.499878 -45.040260
   vertex -68.337776 1332.499878 -43.023705
   vertex -68.337776 1333.499878 -43.023705
  endloop
 endfacet
 facet normal -0.003090 -0.999989 -0.003404
  outer loop
   vertex -77.017601 1332.245728 -35.208176
   vertex -76.500023 1332.242188 -34.638084
   vertex -77.683945 1332.245728 -34.603210
  endloop
 endfacet
 facet normal -0.003090 -0.999989 -0.003404
  outer loop
   vertex -77.683945 1332.245728 -34.603210
   vertex -76.500023 1332.242188 -34.638084
   vertex -77.166367 1332.242188 -34.033119
  endloop
 endfacet
 facet normal -0.740384 0.000017 0.672184
  outer loop
   vertex -77.166367 1332.242188 -34.033119
   vertex -77.679230 1333.785645 -34.598057
   vertex -77.683945 1332.245728 -34.603210
  endloop
 endfacet
 facet normal -0.740384 0.000017 0.672184
  outer loop
   vertex -77.161652 1333.782227 -34.027966
   vertex -77.679230 1333.785645 -34.598057
   vertex -77.166367 1332.242188 -34.033119
  endloop
 endfacet
 facet normal 0.002984 0.999990 0.003286
  outer loop
   vertex -76.495308 1333.782227 -34.632931
   vertex -77.679230 1333.785645 -34.598057
   vertex -77.161652 1333.782227 -34.027966
  endloop
 endfacet
 facet normal 0.672178 -0.004536 0.740376
  outer loop
   vertex -77.161652 1333.782227 -34.027966
   vertex -76.500023 1332.242188 -34.638084
   vertex -76.495308 1333.782227 -34.632931
  endloop
 endfacet
 facet normal 0.740384 -0.000017 -0.672184
  outer loop
   vertex -76.495308 1333.782227 -34.632931
   vertex -76.500023 1332.242188 -34.638084
   vertex -77.012886 1333.785645 -35.203022
  endloop
 endfacet
 facet normal 0.740384 -0.000017 -0.672184
  outer loop
   vertex -77.012886 1333.785645 -35.203022
   vertex -76.500023 1332.242188 -34.638084
   vertex -77.017601 1332.245728 -35.208176
  endloop
 endfacet
 facet normal -0.672178 0.004536 -0.740376
  outer loop
   vertex -77.017601 1332.245728 -35.208176
   vertex -77.679230 1333.785645 -34.598057
   vertex -77.012886 1333.785645 -35.203022
  endloop
 endfacet
 facet normal -0.672178 0.004536 -0.740376
  outer loop
   vertex -77.683945 1332.245728 -34.603210
   vertex -77.679230 1333.785645 -34.598057
   vertex -77.017601 1332.245728 -35.208176
  endloop
 endfacet
 facet normal 0.740384 -0.000023 -0.672184
  outer loop
   vertex -69.617172 1332.242188 -40.886940
   vertex -70.134750 1332.245728 -41.457031
   vertex -70.130028 1333.785767 -41.451881
  endloop
 endfacet
 facet normal -0.672174 0.004537 -0.740380
  outer loop
   vertex -70.130028 1333.785767 -41.451881
   vertex -70.134750 1332.245728 -41.457031
   vertex -70.796379 1333.785767 -40.846916
  endloop
 endfacet
 facet normal 0.003090 0.999989 0.003404
  outer loop
   vertex -70.796379 1333.785767 -40.846916
   vertex -69.612457 1333.782227 -40.881794
   vertex -70.130028 1333.785767 -41.451881
  endloop
 endfacet
 facet normal 0.003090 0.999989 0.003404
  outer loop
   vertex -70.278801 1333.782227 -40.276821
   vertex -69.612457 1333.782227 -40.881794
   vertex -70.796379 1333.785767 -40.846916
  endloop
 endfacet
 facet normal 0.672183 -0.004532 0.740372
  outer loop
   vertex -69.617172 1332.242188 -40.886940
   vertex -69.612457 1333.782227 -40.881794
   vertex -70.278801 1333.782227 -40.276821
  endloop
 endfacet
 facet normal 0.672178 -0.004536 0.740376
  outer loop
   vertex -70.278801 1333.782227 -40.276821
   vertex -70.283516 1332.242310 -40.281975
   vertex -69.617172 1332.242188 -40.886940
  endloop
 endfacet
 facet normal -0.003191 -0.999989 -0.003313
  outer loop
   vertex -69.617172 1332.242188 -40.886940
   vertex -70.283516 1332.242310 -40.281975
   vertex -70.134750 1332.245728 -41.457031
  endloop
 endfacet
 facet normal -0.002984 -0.999990 -0.003286
  outer loop
   vertex -70.134750 1332.245728 -41.457031
   vertex -70.283516 1332.242310 -40.281975
   vertex -70.801094 1332.245728 -40.852066
  endloop
 endfacet
 facet normal -0.672178 0.004534 -0.740376
  outer loop
   vertex -70.801094 1332.245728 -40.852066
   vertex -70.796379 1333.785767 -40.846916
   vertex -70.134750 1332.245728 -41.457031
  endloop
 endfacet
 facet normal -0.740384 0.000019 0.672184
  outer loop
   vertex -70.283516 1332.242310 -40.281975
   vertex -70.796379 1333.785767 -40.846916
   vertex -70.801094 1332.245728 -40.852066
  endloop
 endfacet
 facet normal -0.740386 0.000017 0.672182
  outer loop
   vertex -70.278801 1333.782227 -40.276821
   vertex -70.796379 1333.785767 -40.846916
   vertex -70.283516 1332.242310 -40.281975
  endloop
 endfacet
 facet normal 0.740386 -0.000021 -0.672182
  outer loop
   vertex -69.617172 1332.242188 -40.886940
   vertex -70.130028 1333.785767 -41.451881
   vertex -69.612457 1333.782227 -40.881794
  endloop
 endfacet
 facet normal 0.672178 -0.004536 0.740376
  outer loop
   vertex -77.166367 1332.242188 -34.033119
   vertex -76.500023 1332.242188 -34.638084
   vertex -77.161652 1333.782227 -34.027966
  endloop
 endfacet
 facet normal 0.002984 0.999990 0.003286
  outer loop
   vertex -77.012886 1333.785645 -35.203022
   vertex -77.679230 1333.785645 -34.598057
   vertex -76.495308 1333.782227 -34.632931
  endloop
 endfacet
 facet normal 0.740388 0.000001 -0.672180
  outer loop
   vertex -65.221611 1332.342529 -45.836014
   vertex -65.217453 1333.701172 -45.831432
   vertex -64.786636 1333.698242 -45.356899
  endloop
 endfacet
 facet normal 0.672178 -0.004554 0.740376
  outer loop
   vertex -77.086830 1332.339600 -34.198059
   vertex -64.790794 1332.339600 -45.361481
   vertex -64.786636 1333.698242 -45.356899
  endloop
 endfacet
 facet normal 0.672178 -0.004552 0.740376
  outer loop
   vertex -77.082672 1333.698242 -34.193481
   vertex -77.086830 1332.339600 -34.198059
   vertex -64.786636 1333.698242 -45.356899
  endloop
 endfacet
 facet normal 0.740388 0.000001 -0.672180
  outer loop
   vertex -64.790794 1332.339600 -45.361481
   vertex -65.221611 1332.342529 -45.836014
   vertex -64.786636 1333.698242 -45.356899
  endloop
 endfacet
 facet normal -0.003073 -0.999990 -0.003384
  outer loop
   vertex -77.086830 1332.339600 -34.198059
   vertex -77.517647 1332.342529 -34.672592
   vertex -64.790794 1332.339600 -45.361481
  endloop
 endfacet
 facet normal -0.003073 -0.999990 -0.003384
  outer loop
   vertex -64.790794 1332.339600 -45.361481
   vertex -77.517647 1332.342529 -34.672592
   vertex -65.221611 1332.342529 -45.836014
  endloop
 endfacet
 facet normal -0.672178 0.004554 -0.740376
  outer loop
   vertex -77.513489 1333.701172 -34.668011
   vertex -65.217453 1333.701172 -45.831432
   vertex -77.517647 1332.342529 -34.672592
  endloop
 endfacet
 facet normal -0.672178 0.004554 -0.740376
  outer loop
   vertex -77.517647 1332.342529 -34.672592
   vertex -65.217453 1333.701172 -45.831432
   vertex -65.221611 1332.342529 -45.836014
  endloop
 endfacet
 facet normal 0.003073 0.999990 0.003384
  outer loop
   vertex -76.876938 1333.698242 -34.380260
   vertex -69.991371 1333.698242 -40.631584
   vertex -77.307762 1333.701172 -34.854790
  endloop
 endfacet
 facet normal 0.003073 0.999990 0.003384
  outer loop
   vertex -77.307762 1333.701172 -34.854790
   vertex -69.991371 1333.698242 -40.631584
   vertex -70.422195 1333.701172 -41.106113
  endloop
 endfacet
 facet normal -0.003073 -0.999990 -0.003384
  outer loop
   vertex -70.426353 1332.342529 -41.110695
   vertex -69.995529 1332.339600 -40.636162
   vertex -77.311920 1332.342529 -34.859371
  endloop
 endfacet
 facet normal -0.003073 -0.999990 -0.003384
  outer loop
   vertex -77.311920 1332.342529 -34.859371
   vertex -69.995529 1332.339600 -40.636162
   vertex -76.881096 1332.339600 -34.384838
  endloop
 endfacet
 facet normal 0.003073 0.999990 0.003384
  outer loop
   vertex -65.217453 1333.701172 -45.831432
   vertex -77.513489 1333.701172 -34.668011
   vertex -64.786636 1333.698242 -45.356899
  endloop
 endfacet
 facet normal 0.003073 0.999990 0.003384
  outer loop
   vertex -64.786636 1333.698242 -45.356899
   vertex -77.513489 1333.701172 -34.668011
   vertex -77.082672 1333.698242 -34.193481
  endloop
 endfacet
 facet normal -0.684033 0.382666 0.621020
  outer loop
   vertex -75.408463 1333.707031 -31.647242
   vertex -76.297501 1332.999878 -32.190746
   vertex -75.625320 1332.999878 -31.450363
  endloop
 endfacet
 facet normal -0.684034 -0.382661 0.621022
  outer loop
   vertex -75.625320 1332.999878 -31.450363
   vertex -76.297501 1332.999878 -32.190746
   vertex -76.080650 1332.292725 -32.387627
  endloop
 endfacet
 facet normal -0.684030 -0.382666 0.621023
  outer loop
   vertex -76.080650 1332.292725 -32.387627
   vertex -75.408463 1332.292725 -31.647242
   vertex -75.625320 1332.999878 -31.450363
  endloop
 endfacet
 facet normal -0.283295 -0.923901 0.257200
  outer loop
   vertex -75.557121 1331.999878 -32.862930
   vertex -75.408463 1332.292725 -31.647242
   vertex -76.080650 1332.292725 -32.387627
  endloop
 endfacet
 facet normal -0.283294 -0.923901 0.257200
  outer loop
   vertex -74.884933 1331.999878 -32.122547
   vertex -75.408463 1332.292725 -31.647242
   vertex -75.557121 1331.999878 -32.862930
  endloop
 endfacet
 facet normal 0.283292 -0.923902 -0.257198
  outer loop
   vertex -75.557121 1331.999878 -32.862930
   vertex -75.033585 1332.292725 -33.338238
   vertex -74.884933 1331.999878 -32.122547
  endloop
 endfacet
 facet normal 0.283295 -0.923901 -0.257198
  outer loop
   vertex -74.884933 1331.999878 -32.122547
   vertex -75.033585 1332.292725 -33.338238
   vertex -74.361404 1332.292725 -32.597855
  endloop
 endfacet
 facet normal 0.684035 -0.382658 -0.621023
  outer loop
   vertex -74.361404 1332.292725 -32.597855
   vertex -75.033585 1332.292725 -33.338238
   vertex -74.816734 1332.999878 -33.535114
  endloop
 endfacet
 facet normal 0.684035 -0.382658 -0.621023
  outer loop
   vertex -74.816734 1332.999878 -33.535114
   vertex -74.144554 1332.999878 -32.794731
   vertex -74.361404 1332.292725 -32.597855
  endloop
 endfacet
 facet normal 0.684033 0.382664 -0.621021
  outer loop
   vertex -75.033592 1333.707031 -33.338238
   vertex -74.144554 1332.999878 -32.794731
   vertex -74.816734 1332.999878 -33.535114
  endloop
 endfacet
 facet normal 0.684031 0.382658 -0.621026
  outer loop
   vertex -74.361404 1333.707031 -32.597855
   vertex -74.144554 1332.999878 -32.794731
   vertex -75.033592 1333.707031 -33.338238
  endloop
 endfacet
 facet normal 0.283293 0.923901 -0.257200
  outer loop
   vertex -75.033592 1333.707031 -33.338238
   vertex -75.557121 1333.999878 -32.862930
   vertex -74.361404 1333.707031 -32.597855
  endloop
 endfacet
 facet normal 0.283293 0.923901 -0.257200
  outer loop
   vertex -74.361404 1333.707031 -32.597855
   vertex -75.557121 1333.999878 -32.862930
   vertex -74.884933 1333.999878 -32.122547
  endloop
 endfacet
 facet normal -0.283294 0.923901 0.257201
  outer loop
   vertex -74.884933 1333.999878 -32.122547
   vertex -75.557121 1333.999878 -32.862930
   vertex -76.080650 1333.707031 -32.387627
  endloop
 endfacet
 facet normal -0.283294 0.923901 0.257200
  outer loop
   vertex -76.080650 1333.707031 -32.387627
   vertex -75.408463 1333.707031 -31.647242
   vertex -74.884933 1333.999878 -32.122547
  endloop
 endfacet
 facet normal -0.684031 0.382661 0.621025
  outer loop
   vertex -76.297501 1332.999878 -32.190746
   vertex -75.408463 1333.707031 -31.647242
   vertex -76.080650 1333.707031 -32.387627
  endloop
 endfacet
 facet normal -0.945088 0.314529 0.088772
  outer loop
   vertex -76.080650 1333.707031 -32.387627
   vertex -76.414398 1332.999878 -33.435268
   vertex -76.297501 1332.999878 -32.190746
  endloop
 endfacet
 facet normal -0.945069 -0.314587 0.088770
  outer loop
   vertex -76.297501 1332.999878 -32.190746
   vertex -76.414398 1332.999878 -33.435268
   vertex -76.360184 1332.823120 -33.484489
  endloop
 endfacet
 facet normal -0.945090 -0.314527 0.088763
  outer loop
   vertex -76.360184 1332.823120 -33.484489
   vertex -76.080650 1332.292725 -32.387627
   vertex -76.297501 1332.999878 -32.190746
  endloop
 endfacet
 facet normal -0.615801 -0.759333 -0.210245
  outer loop
   vertex -76.229301 1332.749878 -33.603313
   vertex -76.080650 1332.292725 -32.387627
   vertex -76.360184 1332.823120 -33.484489
  endloop
 endfacet
 facet normal -0.615701 -0.759403 -0.210284
  outer loop
   vertex -75.557121 1331.999878 -32.862930
   vertex -76.080650 1332.292725 -32.387627
   vertex -76.229301 1332.749878 -33.603313
  endloop
 endfacet
 facet normal -0.149891 -0.759374 -0.633154
  outer loop
   vertex -76.229301 1332.749878 -33.603313
   vertex -76.098419 1332.823120 -33.722141
   vertex -75.557121 1331.999878 -32.862930
  endloop
 endfacet
 facet normal -0.150004 -0.759394 -0.633103
  outer loop
   vertex -75.557121 1331.999878 -32.862930
   vertex -76.098419 1332.823120 -33.722141
   vertex -75.033585 1332.292725 -33.338238
  endloop
 endfacet
 facet normal 0.179366 -0.314581 -0.932130
  outer loop
   vertex -75.033585 1332.292725 -33.338238
   vertex -76.098419 1332.823120 -33.722141
   vertex -76.044205 1332.999878 -33.771362
  endloop
 endfacet
 facet normal 0.179406 -0.314530 -0.932140
  outer loop
   vertex -76.044205 1332.999878 -33.771362
   vertex -74.816734 1332.999878 -33.535114
   vertex -75.033585 1332.292725 -33.338238
  endloop
 endfacet
 facet normal 0.179403 0.314589 -0.932120
  outer loop
   vertex -76.098419 1333.176636 -33.722141
   vertex -74.816734 1332.999878 -33.535114
   vertex -76.044205 1332.999878 -33.771362
  endloop
 endfacet
 facet normal 0.179398 0.314529 -0.932141
  outer loop
   vertex -75.033592 1333.707031 -33.338238
   vertex -74.816734 1332.999878 -33.535114
   vertex -76.098419 1333.176636 -33.722141
  endloop
 endfacet
 facet normal -0.149944 0.759335 -0.633188
  outer loop
   vertex -76.098419 1333.176636 -33.722141
   vertex -76.229301 1333.249878 -33.603313
   vertex -75.033592 1333.707031 -33.338238
  endloop
 endfacet
 facet normal -0.149992 0.759404 -0.633094
  outer loop
   vertex -75.033592 1333.707031 -33.338238
   vertex -76.229301 1333.249878 -33.603313
   vertex -75.557121 1333.999878 -32.862930
  endloop
 endfacet
 facet normal -0.615771 0.759372 -0.210189
  outer loop
   vertex -75.557121 1333.999878 -32.862930
   vertex -76.229301 1333.249878 -33.603313
   vertex -76.360184 1333.176636 -33.484489
  endloop
 endfacet
 facet normal -0.615708 0.759393 -0.210298
  outer loop
   vertex -76.360184 1333.176636 -33.484489
   vertex -76.080650 1333.707031 -32.387627
   vertex -75.557121 1333.999878 -32.862930
  endloop
 endfacet
 facet normal -0.945075 0.314579 0.088734
  outer loop
   vertex -76.414398 1332.999878 -33.435268
   vertex -76.080650 1333.707031 -32.387627
   vertex -76.360184 1333.176636 -33.484489
  endloop
 endfacet
 facet normal 0.684018 -0.382701 -0.621014
  outer loop
   vertex -69.787064 1332.999878 -40.789242
   vertex -69.114876 1332.999878 -40.048859
   vertex -69.841270 1332.823120 -40.740021
  endloop
 endfacet
 facet normal 0.684014 -0.382726 -0.621004
  outer loop
   vertex -69.841270 1332.823120 -40.740021
   vertex -69.114876 1332.999878 -40.048859
   vertex -69.169090 1332.823120 -39.999638
  endloop
 endfacet
 facet normal 0.283391 -0.923847 -0.257285
  outer loop
   vertex -69.169090 1332.823120 -39.999638
   vertex -69.972160 1332.749878 -40.621197
   vertex -69.841270 1332.823120 -40.740021
  endloop
 endfacet
 facet normal 0.283394 -0.923845 -0.257290
  outer loop
   vertex -69.299973 1332.749878 -39.880810
   vertex -69.972160 1332.749878 -40.621197
   vertex -69.169090 1332.823120 -39.999638
  endloop
 endfacet
 facet normal -0.283394 -0.923845 0.257290
  outer loop
   vertex -70.103043 1332.823120 -40.502369
   vertex -69.972160 1332.749878 -40.621197
   vertex -69.299973 1332.749878 -39.880810
  endloop
 endfacet
 facet normal -0.283397 -0.923843 0.257294
  outer loop
   vertex -69.299973 1332.749878 -39.880810
   vertex -69.430855 1332.823120 -39.761986
   vertex -70.103043 1332.823120 -40.502369
  endloop
 endfacet
 facet normal -0.684018 -0.382701 0.621014
  outer loop
   vertex -70.103043 1332.823120 -40.502369
   vertex -69.430855 1332.823120 -39.761986
   vertex -70.157249 1332.999878 -40.453148
  endloop
 endfacet
 facet normal -0.684014 -0.382726 0.621004
  outer loop
   vertex -70.157249 1332.999878 -40.453148
   vertex -69.430855 1332.823120 -39.761986
   vertex -69.485069 1332.999878 -39.712765
  endloop
 endfacet
 facet normal -0.684022 0.382701 0.621011
  outer loop
   vertex -69.485069 1332.999878 -39.712765
   vertex -70.103043 1333.176636 -40.502369
   vertex -70.157249 1332.999878 -40.453148
  endloop
 endfacet
 facet normal -0.684010 0.382726 0.621007
  outer loop
   vertex -69.430855 1333.176636 -39.761986
   vertex -70.103043 1333.176636 -40.502369
   vertex -69.485069 1332.999878 -39.712765
  endloop
 endfacet
 facet normal -0.283393 0.923845 0.257291
  outer loop
   vertex -69.972160 1333.249878 -40.621197
   vertex -70.103043 1333.176636 -40.502369
   vertex -69.430855 1333.176636 -39.761986
  endloop
 endfacet
 facet normal -0.283398 0.923843 0.257293
  outer loop
   vertex -69.430855 1333.176636 -39.761986
   vertex -69.299973 1333.249878 -39.880810
   vertex -69.972160 1333.249878 -40.621197
  endloop
 endfacet
 facet normal 0.283398 0.923843 -0.257293
  outer loop
   vertex -69.972160 1333.249878 -40.621197
   vertex -69.299973 1333.249878 -39.880810
   vertex -69.841278 1333.176636 -40.740021
  endloop
 endfacet
 facet normal 0.283393 0.923845 -0.257291
  outer loop
   vertex -69.841278 1333.176636 -40.740021
   vertex -69.299973 1333.249878 -39.880810
   vertex -69.169090 1333.176636 -39.999638
  endloop
 endfacet
 facet normal 0.684010 0.382726 -0.621007
  outer loop
   vertex -69.169090 1333.176636 -39.999638
   vertex -69.787064 1332.999878 -40.789242
   vertex -69.841278 1333.176636 -40.740021
  endloop
 endfacet
 facet normal 0.684010 0.382726 -0.621007
  outer loop
   vertex -69.114876 1332.999878 -40.048859
   vertex -69.787064 1332.999878 -40.789242
   vertex -69.169090 1333.176636 -39.999638
  endloop
 endfacet
 facet normal 0.684032 -0.382667 -0.621020
  outer loop
   vertex -67.894150 1332.999878 -39.820045
   vertex -67.221970 1332.999878 -39.079662
   vertex -68.111008 1332.292725 -39.623165
  endloop
 endfacet
 facet normal 0.684030 -0.382661 -0.621026
  outer loop
   vertex -68.111008 1332.292725 -39.623165
   vertex -67.221970 1332.999878 -39.079662
   vertex -67.438820 1332.292725 -38.882782
  endloop
 endfacet
 facet normal 0.283294 -0.923901 -0.257201
  outer loop
   vertex -67.438820 1332.292725 -38.882782
   vertex -68.634537 1331.999878 -39.147861
   vertex -68.111008 1332.292725 -39.623165
  endloop
 endfacet
 facet normal 0.283294 -0.923901 -0.257201
  outer loop
   vertex -67.962349 1331.999878 -38.407478
   vertex -68.634537 1331.999878 -39.147861
   vertex -67.438820 1332.292725 -38.882782
  endloop
 endfacet
 facet normal -0.283293 -0.923901 0.257200
  outer loop
   vertex -69.158066 1332.292725 -38.672554
   vertex -68.634537 1331.999878 -39.147861
   vertex -67.962349 1331.999878 -38.407478
  endloop
 endfacet
 facet normal -0.283293 -0.923901 0.257200
  outer loop
   vertex -67.962349 1331.999878 -38.407478
   vertex -68.485878 1332.292725 -37.932171
   vertex -69.158066 1332.292725 -38.672554
  endloop
 endfacet
 facet normal -0.684030 -0.382661 0.621026
  outer loop
   vertex -69.158066 1332.292725 -38.672554
   vertex -68.485878 1332.292725 -37.932171
   vertex -69.374916 1332.999878 -38.475674
  endloop
 endfacet
 facet normal -0.684032 -0.382667 0.621020
  outer loop
   vertex -69.374916 1332.999878 -38.475674
   vertex -68.485878 1332.292725 -37.932171
   vertex -68.702736 1332.999878 -37.735291
  endloop
 endfacet
 facet normal -0.684034 0.382661 0.621022
  outer loop
   vertex -68.702736 1332.999878 -37.735291
   vertex -69.158066 1333.707031 -38.672554
   vertex -69.374916 1332.999878 -38.475674
  endloop
 endfacet
 facet normal -0.684029 0.382667 0.621024
  outer loop
   vertex -68.485878 1333.707031 -37.932171
   vertex -69.158066 1333.707031 -38.672554
   vertex -68.702736 1332.999878 -37.735291
  endloop
 endfacet
 facet normal -0.283293 0.923901 0.257200
  outer loop
   vertex -68.634537 1333.999878 -39.147861
   vertex -69.158066 1333.707031 -38.672554
   vertex -68.485878 1333.707031 -37.932171
  endloop
 endfacet
 facet normal -0.283295 0.923901 0.257200
  outer loop
   vertex -68.485878 1333.707031 -37.932171
   vertex -67.962349 1333.999878 -38.407475
   vertex -68.634537 1333.999878 -39.147861
  endloop
 endfacet
 facet normal 0.283295 0.923901 -0.257200
  outer loop
   vertex -68.634537 1333.999878 -39.147861
   vertex -67.962349 1333.999878 -38.407475
   vertex -68.111008 1333.707031 -39.623165
  endloop
 endfacet
 facet normal 0.283293 0.923901 -0.257200
  outer loop
   vertex -68.111008 1333.707031 -39.623165
   vertex -67.962349 1333.999878 -38.407475
   vertex -67.438820 1333.707031 -38.882782
  endloop
 endfacet
 facet normal 0.684029 0.382667 -0.621024
  outer loop
   vertex -67.438820 1333.707031 -38.882782
   vertex -67.894150 1332.999878 -39.820045
   vertex -68.111008 1333.707031 -39.623165
  endloop
 endfacet
 facet normal 0.684034 0.382661 -0.621022
  outer loop
   vertex -67.221970 1332.999878 -39.079662
   vertex -67.894150 1332.999878 -39.820045
   vertex -67.438820 1333.707031 -38.882782
  endloop
 endfacet
 facet normal 0.179400 -0.314589 -0.932121
  outer loop
   vertex -69.121620 1332.999878 -40.056290
   vertex -67.894150 1332.999878 -39.820045
   vertex -69.175835 1332.823120 -40.007069
  endloop
 endfacet
 facet normal 0.179395 -0.314534 -0.932141
  outer loop
   vertex -69.175835 1332.823120 -40.007069
   vertex -67.894150 1332.999878 -39.820045
   vertex -68.111008 1332.292725 -39.623165
  endloop
 endfacet
 facet normal -0.149938 -0.759328 -0.633197
  outer loop
   vertex -68.111008 1332.292725 -39.623165
   vertex -69.306717 1332.749878 -39.888245
   vertex -69.175835 1332.823120 -40.007069
  endloop
 endfacet
 facet normal -0.149989 -0.759404 -0.633095
  outer loop
   vertex -68.634537 1331.999878 -39.147861
   vertex -69.306717 1332.749878 -39.888245
   vertex -68.111008 1332.292725 -39.623165
  endloop
 endfacet
 facet normal -0.615774 -0.759371 -0.210185
  outer loop
   vertex -69.437599 1332.823120 -39.769417
   vertex -69.306717 1332.749878 -39.888245
   vertex -68.634537 1331.999878 -39.147861
  endloop
 endfacet
 facet normal -0.615709 -0.759393 -0.210297
  outer loop
   vertex -68.634537 1331.999878 -39.147861
   vertex -69.158066 1332.292725 -38.672554
   vertex -69.437599 1332.823120 -39.769417
  endloop
 endfacet
 facet normal -0.945075 -0.314579 0.088734
  outer loop
   vertex -69.437599 1332.823120 -39.769417
   vertex -69.158066 1332.292725 -38.672554
   vertex -69.491814 1332.999878 -39.720196
  endloop
 endfacet
 facet normal -0.945088 -0.314529 0.088772
  outer loop
   vertex -69.491814 1332.999878 -39.720196
   vertex -69.158066 1332.292725 -38.672554
   vertex -69.374916 1332.999878 -38.475674
  endloop
 endfacet
 facet normal -0.945069 0.314587 0.088770
  outer loop
   vertex -69.374916 1332.999878 -38.475674
   vertex -69.437599 1333.176636 -39.769417
   vertex -69.491814 1332.999878 -39.720196
  endloop
 endfacet
 facet normal -0.945090 0.314527 0.088763
  outer loop
   vertex -69.158066 1333.707031 -38.672554
   vertex -69.437599 1333.176636 -39.769417
   vertex -69.374916 1332.999878 -38.475674
  endloop
 endfacet
 facet normal -0.615804 0.759331 -0.210243
  outer loop
   vertex -69.306717 1333.249878 -39.888245
   vertex -69.437599 1333.176636 -39.769417
   vertex -69.158066 1333.707031 -38.672554
  endloop
 endfacet
 facet normal -0.615701 0.759403 -0.210283
  outer loop
   vertex -69.158066 1333.707031 -38.672554
   vertex -68.634537 1333.999878 -39.147861
   vertex -69.306717 1333.249878 -39.888245
  endloop
 endfacet
 facet normal -0.149880 0.759371 -0.633160
  outer loop
   vertex -69.306717 1333.249878 -39.888245
   vertex -68.634537 1333.999878 -39.147861
   vertex -69.175835 1333.176636 -40.007069
  endloop
 endfacet
 facet normal -0.150003 0.759393 -0.633104
  outer loop
   vertex -69.175835 1333.176636 -40.007069
   vertex -68.634537 1333.999878 -39.147861
   vertex -68.111008 1333.707031 -39.623165
  endloop
 endfacet
 facet normal 0.179367 0.314581 -0.932130
  outer loop
   vertex -68.111008 1333.707031 -39.623165
   vertex -69.121620 1332.999878 -40.056290
   vertex -69.175835 1333.176636 -40.007069
  endloop
 endfacet
 facet normal 0.179403 0.314535 -0.932138
  outer loop
   vertex -67.894150 1332.999878 -39.820045
   vertex -69.121620 1332.999878 -40.056290
   vertex -68.111008 1333.707031 -39.623165
  endloop
 endfacet
 facet normal -0.684025 -0.382690 0.621014
  outer loop
   vertex -77.025627 1332.823120 -34.217438
   vertex -76.407654 1332.999878 -33.427837
   vertex -77.079834 1332.999878 -34.168221
  endloop
 endfacet
 facet normal -0.684017 0.382715 0.621007
  outer loop
   vertex -77.079834 1332.999878 -34.168221
   vertex -76.407654 1332.999878 -33.427837
   vertex -76.353439 1333.176636 -33.477055
  endloop
 endfacet
 facet normal -0.684022 0.382690 0.621018
  outer loop
   vertex -76.353439 1333.176636 -33.477055
   vertex -77.025627 1333.176636 -34.217438
   vertex -77.079834 1332.999878 -34.168221
  endloop
 endfacet
 facet normal -0.283393 0.923845 0.257291
  outer loop
   vertex -76.222557 1333.249878 -33.595882
   vertex -77.025627 1333.176636 -34.217438
   vertex -76.353439 1333.176636 -33.477055
  endloop
 endfacet
 facet normal -0.283393 0.923845 0.257291
  outer loop
   vertex -76.894745 1333.249878 -34.336266
   vertex -77.025627 1333.176636 -34.217438
   vertex -76.222557 1333.249878 -33.595882
  endloop
 endfacet
 facet normal 0.283393 0.923845 -0.257291
  outer loop
   vertex -76.222557 1333.249878 -33.595882
   vertex -76.091675 1333.176636 -33.714710
   vertex -76.894745 1333.249878 -34.336266
  endloop
 endfacet
 facet normal 0.283387 0.923849 -0.257282
  outer loop
   vertex -76.894745 1333.249878 -34.336266
   vertex -76.091675 1333.176636 -33.714710
   vertex -76.763855 1333.176636 -34.455093
  endloop
 endfacet
 facet normal 0.684017 0.382715 -0.621007
  outer loop
   vertex -76.763855 1333.176636 -34.455093
   vertex -76.091675 1333.176636 -33.714710
   vertex -76.037460 1332.999878 -33.763927
  endloop
 endfacet
 facet normal 0.684022 0.382690 -0.621018
  outer loop
   vertex -76.037460 1332.999878 -33.763927
   vertex -76.709648 1332.999878 -34.504311
   vertex -76.763855 1333.176636 -34.455093
  endloop
 endfacet
 facet normal 0.684014 -0.382715 -0.621011
  outer loop
   vertex -76.091675 1332.823120 -33.714710
   vertex -76.709648 1332.999878 -34.504311
   vertex -76.037460 1332.999878 -33.763927
  endloop
 endfacet
 facet normal 0.684025 -0.382690 -0.621014
  outer loop
   vertex -76.763855 1332.823120 -34.455093
   vertex -76.709648 1332.999878 -34.504311
   vertex -76.091675 1332.823120 -33.714710
  endloop
 endfacet
 facet normal 0.283395 -0.923845 -0.257289
  outer loop
   vertex -76.091675 1332.823120 -33.714710
   vertex -76.222557 1332.749878 -33.595882
   vertex -76.763855 1332.823120 -34.455093
  endloop
 endfacet
 facet normal 0.283395 -0.923845 -0.257289
  outer loop
   vertex -76.763855 1332.823120 -34.455093
   vertex -76.222557 1332.749878 -33.595882
   vertex -76.894737 1332.749878 -34.336266
  endloop
 endfacet
 facet normal -0.283395 -0.923845 0.257289
  outer loop
   vertex -76.894737 1332.749878 -34.336266
   vertex -76.222557 1332.749878 -33.595882
   vertex -76.353439 1332.823120 -33.477055
  endloop
 endfacet
 facet normal -0.283386 -0.923849 0.257284
  outer loop
   vertex -76.353439 1332.823120 -33.477055
   vertex -77.025627 1332.823120 -34.217438
   vertex -76.894737 1332.749878 -34.336266
  endloop
 endfacet
 facet normal -0.684014 -0.382715 0.621011
  outer loop
   vertex -76.407654 1332.999878 -33.427837
   vertex -77.025627 1332.823120 -34.217438
   vertex -76.353439 1332.823120 -33.477055
  endloop
 endfacet
endsolid