solid stl file generated from DOUG
 facet normal 0.999997 0.000000 0.002514
  outer loop
   vertex 59.488659 1311.709595 -47.114716
   vertex 59.488667 1308.709595 -47.117336
   vertex 59.491173 1311.710571 -48.114716
  endloop
 endfacet
 facet normal 0.999997 0.000000 0.002514
  outer loop
   vertex 59.491173 1311.710571 -48.114716
   vertex 59.488667 1308.709595 -47.117336
   vertex 59.491180 1308.710571 -48.117332
  endloop
 endfacet
 facet normal 0.999998 0.000006 -0.002019
  outer loop
   vertex 59.532879 1307.263550 -48.404320
   vertex 59.535988 1307.262207 -46.864323
   vertex 59.532883 1306.363525 -48.405121
  endloop
 endfacet
 facet normal 0.999998 0.000006 -0.002019
  outer loop
   vertex 59.532883 1306.363525 -48.405121
   vertex 59.535988 1307.262207 -46.864323
   vertex 59.535992 1306.362183 -46.865124
  endloop
 endfacet
 facet normal -0.000002 -1.000000 -0.000872
  outer loop
   vertex 59.535992 1306.362183 -46.865124
   vertex 58.765991 1306.362183 -46.863571
   vertex 59.532883 1306.363525 -48.405121
  endloop
 endfacet
 facet normal 0.002016 -0.000890 0.999998
  outer loop
   vertex 59.535988 1307.262207 -46.864323
   vertex 58.765991 1306.362183 -46.863571
   vertex 59.535992 1306.362183 -46.865124
  endloop
 endfacet
 facet normal 0.002016 -0.000890 0.999998
  outer loop
   vertex 58.765987 1307.262207 -46.862770
   vertex 58.765991 1306.362183 -46.863571
   vertex 59.535988 1307.262207 -46.864323
  endloop
 endfacet
 facet normal 0.000002 1.000000 0.000872
  outer loop
   vertex 59.535988 1307.262207 -46.864323
   vertex 59.532879 1307.263550 -48.404320
   vertex 58.765987 1307.262207 -46.862770
  endloop
 endfacet
 facet normal 0.000002 1.000000 0.000872
  outer loop
   vertex 58.765987 1307.262207 -46.862770
   vertex 59.532879 1307.263550 -48.404320
   vertex 58.762878 1307.263550 -48.402767
  endloop
 endfacet
 facet normal -0.002016 0.000890 -0.999998
  outer loop
   vertex 58.762878 1307.263550 -48.402767
   vertex 59.532879 1307.263550 -48.404320
   vertex 59.532883 1306.363525 -48.405121
  endloop
 endfacet
 facet normal -0.002016 0.000890 -0.999998
  outer loop
   vertex 59.532883 1306.363525 -48.405121
   vertex 58.762878 1306.363525 -48.403568
   vertex 58.762878 1307.263550 -48.402767
  endloop
 endfacet
 facet normal -0.000002 -1.000000 -0.000872
  outer loop
   vertex 58.765991 1306.362183 -46.863571
   vertex 58.762878 1306.363525 -48.403568
   vertex 59.532883 1306.363525 -48.405121
  endloop
 endfacet
 facet normal -0.999998 -0.000006 0.002021
  outer loop
   vertex 58.765987 1307.262207 -46.862770
   vertex 58.762878 1306.363525 -48.403568
   vertex 58.765991 1306.362183 -46.863571
  endloop
 endfacet
 facet normal 0.000006 -1.000000 -0.000872
  outer loop
   vertex 58.769863 1280.157959 -48.401711
   vertex 59.539848 1280.157959 -48.396282
   vertex 59.528992 1280.156616 -46.856323
  endloop
 endfacet
 facet normal 0.999975 -0.000006 0.007050
  outer loop
   vertex 59.528992 1280.156616 -46.856323
   vertex 59.539848 1280.157959 -48.396282
   vertex 59.528992 1281.056641 -46.855522
  endloop
 endfacet
 facet normal -0.007045 -0.000890 0.999975
  outer loop
   vertex 59.528992 1281.056641 -46.855522
   vertex 58.759010 1280.156616 -46.861748
   vertex 59.528992 1280.156616 -46.856323
  endloop
 endfacet
 facet normal -0.007045 -0.000890 0.999975
  outer loop
   vertex 58.759007 1281.056641 -46.860947
   vertex 58.759010 1280.156616 -46.861748
   vertex 59.528992 1281.056641 -46.855522
  endloop
 endfacet
 facet normal -0.999975 0.000002 -0.007047
  outer loop
   vertex 58.769863 1280.157959 -48.401711
   vertex 58.759010 1280.156616 -46.861748
   vertex 58.759007 1281.056641 -46.860947
  endloop
 endfacet
 facet normal -0.999975 0.000006 -0.007050
  outer loop
   vertex 58.759007 1281.056641 -46.860947
   vertex 58.769863 1281.057983 -48.400909
   vertex 58.769863 1280.157959 -48.401711
  endloop
 endfacet
 facet normal 0.007050 0.000890 -0.999975
  outer loop
   vertex 58.769863 1280.157959 -48.401711
   vertex 58.769863 1281.057983 -48.400909
   vertex 59.539848 1280.157959 -48.396282
  endloop
 endfacet
 facet normal 0.007050 0.000890 -0.999975
  outer loop
   vertex 59.539848 1280.157959 -48.396282
   vertex 58.769863 1281.057983 -48.400909
   vertex 59.539845 1281.057983 -48.395481
  endloop
 endfacet
 facet normal 0.999975 -0.000002 0.007047
  outer loop
   vertex 59.539845 1281.057983 -48.395481
   vertex 59.528992 1281.056641 -46.855522
   vertex 59.539848 1280.157959 -48.396282
  endloop
 endfacet
 facet normal -0.000006 1.000000 0.000872
  outer loop
   vertex 58.769863 1281.057983 -48.400909
   vertex 59.528992 1281.056641 -46.855522
   vertex 59.539845 1281.057983 -48.395481
  endloop
 endfacet
 facet normal -0.000006 1.000000 0.000872
  outer loop
   vertex 58.759007 1281.056641 -46.860947
   vertex 59.528992 1281.056641 -46.855522
   vertex 58.769863 1281.057983 -48.400909
  endloop
 endfacet
 facet normal 0.000002 1.000000 0.000951
  outer loop
   vertex 58.765972 1314.064331 -46.856834
   vertex 59.535973 1314.064331 -46.858387
   vertex 59.532864 1314.065796 -48.398384
  endloop
 endfacet
 facet normal 0.999998 0.000006 -0.002019
  outer loop
   vertex 59.532864 1314.065796 -48.398384
   vertex 59.535973 1314.064331 -46.858387
   vertex 59.532867 1313.165771 -48.399185
  endloop
 endfacet
 facet normal -0.002016 0.000890 -0.999998
  outer loop
   vertex 59.532867 1313.165771 -48.399185
   vertex 58.762863 1314.065796 -48.396832
   vertex 59.532864 1314.065796 -48.398384
  endloop
 endfacet
 facet normal -0.002016 0.000890 -0.999998
  outer loop
   vertex 58.762863 1313.165771 -48.397633
   vertex 58.762863 1314.065796 -48.396832
   vertex 59.532867 1313.165771 -48.399185
  endloop
 endfacet
 facet normal -0.999998 -0.000002 0.002019
  outer loop
   vertex 58.765972 1314.064331 -46.856834
   vertex 58.762863 1314.065796 -48.396832
   vertex 58.762863 1313.165771 -48.397633
  endloop
 endfacet
 facet normal -0.999998 -0.000006 0.002021
  outer loop
   vertex 58.762863 1313.165771 -48.397633
   vertex 58.765976 1313.164307 -46.857635
   vertex 58.765972 1314.064331 -46.856834
  endloop
 endfacet
 facet normal 0.002016 -0.000890 0.999998
  outer loop
   vertex 58.765972 1314.064331 -46.856834
   vertex 58.765976 1313.164307 -46.857635
   vertex 59.535973 1314.064331 -46.858387
  endloop
 endfacet
 facet normal 0.002016 -0.000890 0.999998
  outer loop
   vertex 59.535973 1314.064331 -46.858387
   vertex 58.765976 1313.164307 -46.857635
   vertex 59.535976 1313.164307 -46.859188
  endloop
 endfacet
 facet normal 0.999998 0.000006 -0.002019
  outer loop
   vertex 59.535976 1313.164307 -46.859188
   vertex 59.532867 1313.165771 -48.399185
   vertex 59.535973 1314.064331 -46.858387
  endloop
 endfacet
 facet normal -0.000002 -1.000000 -0.000951
  outer loop
   vertex 58.765976 1313.164307 -46.857635
   vertex 59.532867 1313.165771 -48.399185
   vertex 59.535976 1313.164307 -46.859188
  endloop
 endfacet
 facet normal -0.000002 -1.000000 -0.000951
  outer loop
   vertex 58.762863 1313.165771 -48.397633
   vertex 59.532867 1313.165771 -48.399185
   vertex 58.765976 1313.164307 -46.857635
  endloop
 endfacet
 facet normal 0.000006 -1.000000 -0.000872
  outer loop
   vertex 58.769863 1280.157959 -48.401711
   vertex 59.528992 1280.156616 -46.856323
   vertex 58.759010 1280.156616 -46.861748
  endloop
 endfacet
 facet normal 0.000002 1.000000 0.000951
  outer loop
   vertex 58.765972 1314.064331 -46.856834
   vertex 59.532864 1314.065796 -48.398384
   vertex 58.762863 1314.065796 -48.396832
  endloop
 endfacet
 facet normal -0.999998 -0.000002 0.002019
  outer loop
   vertex 58.762878 1306.363525 -48.403568
   vertex 58.765987 1307.262207 -46.862770
   vertex 58.762878 1307.263550 -48.402767
  endloop
 endfacet
 facet normal 0.002041 -0.000873 0.999998
  outer loop
   vertex 59.475807 1313.512085 -46.955788
   vertex 58.834873 1313.512085 -46.954479
   vertex 59.475887 1280.755981 -46.984371
  endloop
 endfacet
 facet normal 0.002036 -0.000873 0.999998
  outer loop
   vertex 59.475887 1280.755981 -46.984371
   vertex 58.834873 1313.512085 -46.954479
   vertex 58.834953 1280.755981 -46.983067
  endloop
 endfacet
 facet normal -0.999998 -0.000004 0.002038
  outer loop
   vertex 58.834873 1313.512085 -46.954479
   vertex 58.832104 1313.513306 -48.313156
   vertex 58.834953 1280.755981 -46.983067
  endloop
 endfacet
 facet normal -0.999998 -0.000004 0.002038
  outer loop
   vertex 58.834953 1280.755981 -46.983067
   vertex 58.832104 1313.513306 -48.313156
   vertex 58.832184 1280.757080 -48.341740
  endloop
 endfacet
 facet normal 0.999998 0.000004 -0.002038
  outer loop
   vertex 59.473118 1280.757080 -48.343048
   vertex 59.473038 1313.513306 -48.314461
   vertex 59.475887 1280.755981 -46.984371
  endloop
 endfacet
 facet normal 0.999998 0.000004 -0.002038
  outer loop
   vertex 59.475887 1280.755981 -46.984371
   vertex 59.473038 1313.513306 -48.314461
   vertex 59.475807 1313.512085 -46.955788
  endloop
 endfacet
 facet normal -0.002041 0.000873 -0.999998
  outer loop
   vertex 58.832184 1280.757080 -48.341740
   vertex 58.832104 1313.513306 -48.313156
   vertex 59.473118 1280.757080 -48.343048
  endloop
 endfacet
 facet normal -0.002036 0.000873 -0.999998
  outer loop
   vertex 59.473118 1280.757080 -48.343048
   vertex 58.832104 1313.513306 -48.313156
   vertex 59.473038 1313.513306 -48.314461
  endloop
 endfacet
 facet normal -0.000965 0.923570 0.383429
  outer loop
   vertex 56.819801 1307.820068 -47.624825
   vertex 55.819801 1307.820068 -47.627342
   vertex 56.818024 1307.526611 -46.917976
  endloop
 endfacet
 facet normal -0.000964 0.923570 0.383428
  outer loop
   vertex 56.818024 1307.526611 -46.917976
   vertex 55.819801 1307.820068 -47.627342
   vertex 55.818024 1307.526611 -46.920490
  endloop
 endfacet
 facet normal -0.002323 0.381860 0.924217
  outer loop
   vertex 55.818024 1307.526611 -46.920490
   vertex 56.817287 1306.819214 -46.625702
   vertex 56.818024 1307.526611 -46.917976
  endloop
 endfacet
 facet normal -0.002323 0.381860 0.924217
  outer loop
   vertex 55.817291 1306.819214 -46.628216
   vertex 56.817287 1306.819214 -46.625702
   vertex 55.818024 1307.526611 -46.920490
  endloop
 endfacet
 facet normal -0.002322 -0.383464 0.923553
  outer loop
   vertex 56.818024 1306.112305 -46.919212
   vertex 56.817287 1306.819214 -46.625702
   vertex 55.817291 1306.819214 -46.628216
  endloop
 endfacet
 facet normal -0.002322 -0.383464 0.923553
  outer loop
   vertex 55.817291 1306.819214 -46.628216
   vertex 55.818027 1306.112305 -46.921726
   vertex 56.818024 1306.112305 -46.919212
  endloop
 endfacet
 facet normal -0.000960 -0.924231 0.381832
  outer loop
   vertex 56.818024 1306.112305 -46.919212
   vertex 55.818027 1306.112305 -46.921726
   vertex 56.819805 1305.820068 -47.626572
  endloop
 endfacet
 facet normal -0.000960 -0.924231 0.381832
  outer loop
   vertex 56.819805 1305.820068 -47.626572
   vertex 55.818027 1306.112305 -46.921726
   vertex 55.819809 1305.820068 -47.629086
  endloop
 endfacet
 facet normal 0.000964 -0.923513 -0.383565
  outer loop
   vertex 55.819809 1305.820068 -47.629086
   vertex 56.821583 1306.113647 -48.333420
   vertex 56.819805 1305.820068 -47.626572
  endloop
 endfacet
 facet normal 0.000964 -0.923513 -0.383565
  outer loop
   vertex 55.821587 1306.113647 -48.335934
   vertex 56.821583 1306.113647 -48.333420
   vertex 55.819809 1305.820068 -47.629086
  endloop
 endfacet
 facet normal 0.002323 -0.381916 -0.924194
  outer loop
   vertex 56.822315 1306.820923 -48.625694
   vertex 56.821583 1306.113647 -48.333420
   vertex 55.821587 1306.113647 -48.335934
  endloop
 endfacet
 facet normal 0.002323 -0.381916 -0.924194
  outer loop
   vertex 55.821587 1306.113647 -48.335934
   vertex 55.822319 1306.820923 -48.628208
   vertex 56.822315 1306.820923 -48.625694
  endloop
 endfacet
 facet normal 0.002322 0.383460 -0.923555
  outer loop
   vertex 56.822315 1306.820923 -48.625694
   vertex 55.822319 1306.820923 -48.628208
   vertex 56.821579 1307.527832 -48.332188
  endloop
 endfacet
 facet normal 0.002322 0.383460 -0.923555
  outer loop
   vertex 56.821579 1307.527832 -48.332188
   vertex 55.822319 1306.820923 -48.628208
   vertex 55.821583 1307.527832 -48.334702
  endloop
 endfacet
 facet normal 0.000960 0.924232 -0.381830
  outer loop
   vertex 55.821583 1307.527832 -48.334702
   vertex 56.819801 1307.820068 -47.624825
   vertex 56.821579 1307.527832 -48.332188
  endloop
 endfacet
 facet normal 0.000961 0.924231 -0.381832
  outer loop
   vertex 55.819801 1307.820068 -47.627342
   vertex 56.819801 1307.820068 -47.624825
   vertex 55.821583 1307.527832 -48.334702
  endloop
 endfacet
 facet normal 0.568763 0.759132 0.316588
  outer loop
   vertex 57.819798 1307.070068 -47.622967
   vertex 56.819801 1307.820068 -47.624825
   vertex 57.819355 1306.996704 -47.446255
  endloop
 endfacet
 facet normal 0.568761 0.759131 0.316593
  outer loop
   vertex 57.819355 1306.996704 -47.446255
   vertex 56.819801 1307.820068 -47.624825
   vertex 56.818024 1307.526611 -46.917976
  endloop
 endfacet
 facet normal 0.567631 0.313837 0.761119
  outer loop
   vertex 56.818024 1307.526611 -46.917976
   vertex 57.819172 1306.819824 -47.373184
   vertex 57.819355 1306.996704 -47.446255
  endloop
 endfacet
 facet normal 0.567644 0.313870 0.761095
  outer loop
   vertex 56.817287 1306.819214 -46.625702
   vertex 57.819172 1306.819824 -47.373184
   vertex 56.818024 1307.526611 -46.917976
  endloop
 endfacet
 facet normal 0.567599 -0.315338 0.760522
  outer loop
   vertex 57.819355 1306.643188 -47.446560
   vertex 57.819172 1306.819824 -47.373184
   vertex 56.817287 1306.819214 -46.625702
  endloop
 endfacet
 facet normal 0.567647 -0.315190 0.760548
  outer loop
   vertex 56.817287 1306.819214 -46.625702
   vertex 56.818024 1306.112305 -46.919212
   vertex 57.819355 1306.643188 -47.446560
  endloop
 endfacet
 facet normal 0.568838 -0.759534 0.315486
  outer loop
   vertex 57.819355 1306.643188 -47.446560
   vertex 56.818024 1306.112305 -46.919212
   vertex 57.819801 1306.570068 -47.623402
  endloop
 endfacet
 facet normal 0.568760 -0.759677 0.315283
  outer loop
   vertex 57.819801 1306.570068 -47.623402
   vertex 56.818024 1306.112305 -46.919212
   vertex 56.819805 1305.820068 -47.626572
  endloop
 endfacet
 facet normal 0.570344 -0.759130 -0.313734
  outer loop
   vertex 56.819805 1305.820068 -47.626572
   vertex 57.820244 1306.643433 -47.800114
   vertex 57.819801 1306.570068 -47.623402
  endloop
 endfacet
 facet normal 0.570307 -0.759110 -0.313851
  outer loop
   vertex 56.821583 1306.113647 -48.333420
   vertex 57.820244 1306.643433 -47.800114
   vertex 56.819805 1305.820068 -47.626572
  endloop
 endfacet
 facet normal 0.571425 -0.313840 -0.758273
  outer loop
   vertex 57.820427 1306.820312 -47.873184
   vertex 57.820244 1306.643433 -47.800114
   vertex 56.821583 1306.113647 -48.333420
  endloop
 endfacet
 facet normal 0.571455 -0.313918 -0.758218
  outer loop
   vertex 56.821583 1306.113647 -48.333420
   vertex 56.822315 1306.820923 -48.625694
   vertex 57.820427 1306.820312 -47.873184
  endloop
 endfacet
 facet normal 0.571415 0.315344 -0.757656
  outer loop
   vertex 57.820427 1306.820312 -47.873184
   vertex 56.822315 1306.820923 -48.625694
   vertex 57.820244 1306.996948 -47.799805
  endloop
 endfacet
 facet normal 0.571467 0.315183 -0.757684
  outer loop
   vertex 57.820244 1306.996948 -47.799805
   vertex 56.822315 1306.820923 -48.625694
   vertex 56.821579 1307.527832 -48.332188
  endloop
 endfacet
 facet normal 0.570419 0.759535 -0.312618
  outer loop
   vertex 56.821579 1307.527832 -48.332188
   vertex 57.819798 1307.070068 -47.622967
   vertex 57.820244 1306.996948 -47.799805
  endloop
 endfacet
 facet normal 0.570340 0.759677 -0.312416
  outer loop
   vertex 56.819801 1307.820068 -47.624825
   vertex 57.819798 1307.070068 -47.622967
   vertex 56.821579 1307.527832 -48.332188
  endloop
 endfacet
 facet normal -0.000965 0.923570 0.383429
  outer loop
   vertex 58.809822 1280.850098 -47.643356
   vertex 57.809826 1280.850098 -47.645874
   vertex 58.809376 1280.776733 -47.466644
  endloop
 endfacet
 facet normal -0.000965 0.923570 0.383429
  outer loop
   vertex 58.809376 1280.776733 -47.466644
   vertex 57.809826 1280.850098 -47.645874
   vertex 57.809380 1280.776733 -47.469162
  endloop
 endfacet
 facet normal -0.002327 0.381795 0.924244
  outer loop
   vertex 57.809380 1280.776733 -47.469162
   vertex 58.809193 1280.599854 -47.393578
   vertex 58.809376 1280.776733 -47.466644
  endloop
 endfacet
 facet normal -0.002323 0.381812 0.924237
  outer loop
   vertex 57.809196 1280.599854 -47.396091
   vertex 58.809193 1280.599854 -47.393578
   vertex 57.809380 1280.776733 -47.469162
  endloop
 endfacet
 facet normal -0.002322 -0.383625 0.923486
  outer loop
   vertex 58.809376 1280.423218 -47.466953
   vertex 58.809193 1280.599854 -47.393578
   vertex 57.809196 1280.599854 -47.396091
  endloop
 endfacet
 facet normal -0.002322 -0.383625 0.923486
  outer loop
   vertex 57.809196 1280.599854 -47.396091
   vertex 57.809380 1280.423218 -47.469467
   vertex 58.809376 1280.423218 -47.466953
  endloop
 endfacet
 facet normal -0.000961 -0.924120 0.382101
  outer loop
   vertex 58.809376 1280.423218 -47.466953
   vertex 57.809380 1280.423218 -47.469467
   vertex 58.809822 1280.350098 -47.643795
  endloop
 endfacet
 facet normal -0.000961 -0.924120 0.382101
  outer loop
   vertex 58.809822 1280.350098 -47.643795
   vertex 57.809380 1280.423218 -47.469467
   vertex 57.809826 1280.350098 -47.646309
  endloop
 endfacet
 facet normal 0.000964 -0.923570 -0.383429
  outer loop
   vertex 57.809826 1280.350098 -47.646309
   vertex 58.810268 1280.423462 -47.820507
   vertex 58.809822 1280.350098 -47.643795
  endloop
 endfacet
 facet normal 0.000964 -0.923570 -0.383429
  outer loop
   vertex 57.810268 1280.423462 -47.823021
   vertex 58.810268 1280.423462 -47.820507
   vertex 57.809826 1280.350098 -47.646309
  endloop
 endfacet
 facet normal 0.002323 -0.381795 -0.924244
  outer loop
   vertex 58.810452 1280.600342 -47.893574
   vertex 58.810268 1280.423462 -47.820507
   vertex 57.810268 1280.423462 -47.823021
  endloop
 endfacet
 facet normal 0.002327 -0.381812 -0.924237
  outer loop
   vertex 57.810268 1280.423462 -47.823021
   vertex 57.810452 1280.600342 -47.896091
   vertex 58.810452 1280.600342 -47.893574
  endloop
 endfacet
 facet normal 0.002325 0.383625 -0.923486
  outer loop
   vertex 58.810452 1280.600342 -47.893574
   vertex 57.810452 1280.600342 -47.896091
   vertex 58.810265 1280.776978 -47.820198
  endloop
 endfacet
 facet normal 0.002322 0.383642 -0.923479
  outer loop
   vertex 58.810265 1280.776978 -47.820198
   vertex 57.810452 1280.600342 -47.896091
   vertex 57.810268 1280.776978 -47.822712
  endloop
 endfacet
 facet normal 0.000961 0.924120 -0.382101
  outer loop
   vertex 57.810268 1280.776978 -47.822712
   vertex 58.809822 1280.850098 -47.643356
   vertex 58.810265 1280.776978 -47.820198
  endloop
 endfacet
 facet normal 0.000962 0.924117 -0.382108
  outer loop
   vertex 57.809826 1280.850098 -47.645874
   vertex 58.809822 1280.850098 -47.643356
   vertex 57.810268 1280.776978 -47.822712
  endloop
 endfacet
 facet normal -0.000964 0.923513 0.383565
  outer loop
   vertex 56.819862 1281.600098 -47.647709
   vertex 55.819866 1281.600098 -47.650223
   vertex 56.818085 1281.306519 -46.940861
  endloop
 endfacet
 facet normal -0.000964 0.923513 0.383565
  outer loop
   vertex 56.818085 1281.306519 -46.940861
   vertex 55.819866 1281.600098 -47.650223
   vertex 55.818089 1281.306519 -46.943375
  endloop
 endfacet
 facet normal -0.002323 0.381921 0.924192
  outer loop
   vertex 55.818089 1281.306519 -46.943375
   vertex 56.817352 1280.599243 -46.648582
   vertex 56.818085 1281.306519 -46.940861
  endloop
 endfacet
 facet normal -0.002327 0.381916 0.924194
  outer loop
   vertex 55.817352 1280.599243 -46.651100
   vertex 56.817352 1280.599243 -46.648582
   vertex 55.818089 1281.306519 -46.943375
  endloop
 endfacet
 facet normal -0.002325 -0.383464 0.923553
  outer loop
   vertex 56.818089 1279.892334 -46.942093
   vertex 56.817352 1280.599243 -46.648582
   vertex 55.817352 1280.599243 -46.651100
  endloop
 endfacet
 facet normal -0.002322 -0.383460 0.923555
  outer loop
   vertex 55.817352 1280.599243 -46.651100
   vertex 55.818092 1279.892334 -46.944607
   vertex 56.818089 1279.892334 -46.942093
  endloop
 endfacet
 facet normal -0.000960 -0.924231 0.381832
  outer loop
   vertex 56.818089 1279.892334 -46.942093
   vertex 55.818092 1279.892334 -46.944607
   vertex 56.819866 1279.600098 -47.649452
  endloop
 endfacet
 facet normal -0.000960 -0.924231 0.381832
  outer loop
   vertex 56.819866 1279.600098 -47.649452
   vertex 55.818092 1279.892334 -46.944607
   vertex 55.819870 1279.600098 -47.651966
  endloop
 endfacet
 facet normal 0.000964 -0.923570 -0.383429
  outer loop
   vertex 55.819870 1279.600098 -47.651966
   vertex 56.821644 1279.893555 -48.356300
   vertex 56.819866 1279.600098 -47.649452
  endloop
 endfacet
 facet normal 0.000965 -0.923570 -0.383428
  outer loop
   vertex 55.821648 1279.893555 -48.358818
   vertex 56.821644 1279.893555 -48.356300
   vertex 55.819870 1279.600098 -47.651966
  endloop
 endfacet
 facet normal 0.002327 -0.381864 -0.924215
  outer loop
   vertex 56.822380 1280.600952 -48.648579
   vertex 56.821644 1279.893555 -48.356300
   vertex 55.821648 1279.893555 -48.358818
  endloop
 endfacet
 facet normal 0.002323 -0.381860 -0.924217
  outer loop
   vertex 55.821648 1279.893555 -48.358818
   vertex 55.822384 1280.600952 -48.651093
   vertex 56.822380 1280.600952 -48.648579
  endloop
 endfacet
 facet normal 0.002322 0.383464 -0.923553
  outer loop
   vertex 56.822380 1280.600952 -48.648579
   vertex 55.822384 1280.600952 -48.651093
   vertex 56.821644 1281.307861 -48.355068
  endloop
 endfacet
 facet normal 0.002322 0.383464 -0.923553
  outer loop
   vertex 56.821644 1281.307861 -48.355068
   vertex 55.822384 1280.600952 -48.651093
   vertex 55.821644 1281.307861 -48.357582
  endloop
 endfacet
 facet normal 0.000960 0.924231 -0.381832
  outer loop
   vertex 55.821644 1281.307861 -48.357582
   vertex 56.819862 1281.600098 -47.647709
   vertex 56.821644 1281.307861 -48.355068
  endloop
 endfacet
 facet normal 0.000960 0.924231 -0.381832
  outer loop
   vertex 55.819866 1281.600098 -47.650223
   vertex 56.819862 1281.600098 -47.647709
   vertex 55.821644 1281.307861 -48.357582
  endloop
 endfacet
 facet normal 0.568758 0.759130 0.316599
  outer loop
   vertex 57.819862 1280.850098 -47.645847
   vertex 56.819862 1281.600098 -47.647709
   vertex 57.819416 1280.776733 -47.469135
  endloop
 endfacet
 facet normal 0.568721 0.759110 0.316716
  outer loop
   vertex 57.819416 1280.776733 -47.469135
   vertex 56.819862 1281.600098 -47.647709
   vertex 56.818085 1281.306519 -46.940861
  endloop
 endfacet
 facet normal 0.567603 0.313844 0.761136
  outer loop
   vertex 56.818085 1281.306519 -46.940861
   vertex 57.819233 1280.599854 -47.396065
   vertex 57.819416 1280.776733 -47.469135
  endloop
 endfacet
 facet normal 0.567634 0.313925 0.761080
  outer loop
   vertex 56.817352 1280.599243 -46.648582
   vertex 57.819233 1280.599854 -47.396065
   vertex 56.818085 1281.306519 -46.940861
  endloop
 endfacet
 facet normal 0.567600 -0.315341 0.760520
  outer loop
   vertex 57.819420 1280.423218 -47.469444
   vertex 57.819233 1280.599854 -47.396065
   vertex 56.817352 1280.599243 -46.648582
  endloop
 endfacet
 facet normal 0.567648 -0.315190 0.760546
  outer loop
   vertex 56.817352 1280.599243 -46.648582
   vertex 56.818089 1279.892334 -46.942093
   vertex 57.819420 1280.423218 -47.469444
  endloop
 endfacet
 facet normal 0.568838 -0.759536 0.315481
  outer loop
   vertex 57.819420 1280.423218 -47.469444
   vertex 56.818089 1279.892334 -46.942093
   vertex 57.819862 1280.350098 -47.646282
  endloop
 endfacet
 facet normal 0.568761 -0.759677 0.315280
  outer loop
   vertex 57.819862 1280.350098 -47.646282
   vertex 56.818089 1279.892334 -46.942093
   vertex 56.819866 1279.600098 -47.649452
  endloop
 endfacet
 facet normal 0.570346 -0.759133 -0.313723
  outer loop
   vertex 56.819866 1279.600098 -47.649452
   vertex 57.820309 1280.423462 -47.822994
   vertex 57.819862 1280.350098 -47.646282
  endloop
 endfacet
 facet normal 0.570345 -0.759132 -0.313729
  outer loop
   vertex 56.821644 1279.893555 -48.356300
   vertex 57.820309 1280.423462 -47.822994
   vertex 56.819866 1279.600098 -47.649452
  endloop
 endfacet
 facet normal 0.571449 -0.313834 -0.758257
  outer loop
   vertex 57.820492 1280.600342 -47.896065
   vertex 57.820309 1280.423462 -47.822994
   vertex 56.821644 1279.893555 -48.356300
  endloop
 endfacet
 facet normal 0.571465 -0.313875 -0.758228
  outer loop
   vertex 56.821644 1279.893555 -48.356300
   vertex 56.822380 1280.600952 -48.648579
   vertex 57.820492 1280.600342 -47.896065
  endloop
 endfacet
 facet normal 0.571418 0.315340 -0.757656
  outer loop
   vertex 57.820492 1280.600342 -47.896065
   vertex 56.822380 1280.600952 -48.648579
   vertex 57.820305 1280.776978 -47.822689
  endloop
 endfacet
 facet normal 0.571467 0.315187 -0.757682
  outer loop
   vertex 57.820305 1280.776978 -47.822689
   vertex 56.822380 1280.600952 -48.648579
   vertex 56.821644 1281.307861 -48.355068
  endloop
 endfacet
 facet normal 0.570420 0.759532 -0.312622
  outer loop
   vertex 56.821644 1281.307861 -48.355068
   vertex 57.819862 1280.850098 -47.645847
   vertex 57.820305 1280.776978 -47.822689
  endloop
 endfacet
 facet normal 0.570340 0.759677 -0.312415
  outer loop
   vertex 56.819862 1281.600098 -47.647709
   vertex 57.819862 1280.850098 -47.645847
   vertex 56.821644 1281.307861 -48.355068
  endloop
 endfacet
 facet normal 0.000961 0.924120 -0.382101
  outer loop
   vertex 57.809761 1307.070068 -47.622990
   vertex 58.809757 1307.070068 -47.620476
   vertex 57.810204 1306.996948 -47.799831
  endloop
 endfacet
 facet normal 0.000961 0.924120 -0.382101
  outer loop
   vertex 57.810204 1306.996948 -47.799831
   vertex 58.809757 1307.070068 -47.620476
   vertex 58.810204 1306.996948 -47.797318
  endloop
 endfacet
 facet normal 0.002322 0.383625 -0.923486
  outer loop
   vertex 58.810204 1306.996948 -47.797318
   vertex 57.810390 1306.820312 -47.873207
   vertex 57.810204 1306.996948 -47.799831
  endloop
 endfacet
 facet normal 0.002322 0.383625 -0.923486
  outer loop
   vertex 58.810387 1306.820312 -47.870693
   vertex 57.810390 1306.820312 -47.873207
   vertex 58.810204 1306.996948 -47.797318
  endloop
 endfacet
 facet normal 0.002323 -0.381795 -0.924244
  outer loop
   vertex 57.810207 1306.643433 -47.800140
   vertex 57.810390 1306.820312 -47.873207
   vertex 58.810387 1306.820312 -47.870693
  endloop
 endfacet
 facet normal 0.002327 -0.381812 -0.924237
  outer loop
   vertex 58.810387 1306.820312 -47.870693
   vertex 58.810204 1306.643433 -47.797623
   vertex 57.810207 1306.643433 -47.800140
  endloop
 endfacet
 facet normal 0.000965 -0.923570 -0.383429
  outer loop
   vertex 57.810207 1306.643433 -47.800140
   vertex 58.810204 1306.643433 -47.797623
   vertex 57.809761 1306.570068 -47.623428
  endloop
 endfacet
 facet normal 0.000965 -0.923570 -0.383429
  outer loop
   vertex 57.809761 1306.570068 -47.623428
   vertex 58.810204 1306.643433 -47.797623
   vertex 58.809757 1306.570068 -47.620911
  endloop
 endfacet
 facet normal -0.000962 -0.924120 0.382101
  outer loop
   vertex 58.809757 1306.570068 -47.620911
   vertex 57.809319 1306.643188 -47.446587
   vertex 57.809761 1306.570068 -47.623428
  endloop
 endfacet
 facet normal -0.000961 -0.924117 0.382108
  outer loop
   vertex 58.809315 1306.643188 -47.444073
   vertex 57.809319 1306.643188 -47.446587
   vertex 58.809757 1306.570068 -47.620911
  endloop
 endfacet
 facet normal -0.002322 -0.383625 0.923486
  outer loop
   vertex 57.809132 1306.819824 -47.373211
   vertex 57.809319 1306.643188 -47.446587
   vertex 58.809315 1306.643188 -47.444073
  endloop
 endfacet
 facet normal -0.002325 -0.383642 0.923479
  outer loop
   vertex 58.809315 1306.643188 -47.444073
   vertex 58.809128 1306.819824 -47.370693
   vertex 57.809132 1306.819824 -47.373211
  endloop
 endfacet
 facet normal -0.002327 0.381795 0.924244
  outer loop
   vertex 57.809132 1306.819824 -47.373211
   vertex 58.809128 1306.819824 -47.370693
   vertex 57.809315 1306.996704 -47.446278
  endloop
 endfacet
 facet normal -0.002323 0.381812 0.924237
  outer loop
   vertex 57.809315 1306.996704 -47.446278
   vertex 58.809128 1306.819824 -47.370693
   vertex 58.809315 1306.996704 -47.443764
  endloop
 endfacet
 facet normal -0.000964 0.923570 0.383429
  outer loop
   vertex 58.809315 1306.996704 -47.443764
   vertex 57.809761 1307.070068 -47.622990
   vertex 57.809315 1306.996704 -47.446278
  endloop
 endfacet
 facet normal -0.000964 0.923570 0.383429
  outer loop
   vertex 58.809757 1307.070068 -47.620476
   vertex 57.809761 1307.070068 -47.622990
   vertex 58.809315 1306.996704 -47.443764
  endloop
 endfacet
endsolid