solid stl file generated from DOUG
 facet normal 0.593272 -0.805000 0.001492
  outer loop
   vertex 59.249157 1667.960693 -9.080250
   vertex 59.358807 1668.041504 -9.079974
   vertex 59.292271 1668.041504 17.378471
  endloop
 endfacet
 facet normal 0.999996 -0.000855 0.002515
  outer loop
   vertex 59.292271 1668.041504 17.378471
   vertex 59.358807 1668.041504 -9.079974
   vertex 59.292358 1668.144165 17.378471
  endloop
 endfacet
 facet normal 0.594927 0.803778 0.001496
  outer loop
   vertex 59.181656 1666.856201 17.378195
   vertex 59.291164 1666.775146 17.378469
   vertex 59.357704 1666.775146 -9.079977
  endloop
 endfacet
 facet normal 0.999996 -0.000855 0.002515
  outer loop
   vertex 59.357704 1666.775146 -9.079977
   vertex 59.291164 1666.775146 17.378469
   vertex 59.291077 1666.672485 17.378469
  endloop
 endfacet
 facet normal 0.999996 -0.000892 0.002515
  outer loop
   vertex 59.291077 1666.672485 17.378469
   vertex 59.357613 1666.672485 -9.079977
   vertex 59.357704 1666.775146 -9.079977
  endloop
 endfacet
 facet normal 0.933003 -0.359862 0.002346
  outer loop
   vertex 58.558353 1666.673096 17.376627
   vertex 58.624889 1666.673096 -9.081820
   vertex 58.570454 1666.704468 17.376657
  endloop
 endfacet
 facet normal 0.932965 -0.359961 0.002346
  outer loop
   vertex 58.570454 1666.704468 17.376657
   vertex 58.624889 1666.673096 -9.081820
   vertex 58.636993 1666.704468 -9.081790
  endloop
 endfacet
 facet normal -0.000849 -1.000000 -0.000002
  outer loop
   vertex 58.636993 1666.704468 -9.081790
   vertex 59.212147 1666.703979 -9.080343
   vertex 58.570454 1666.704468 17.376657
  endloop
 endfacet
 facet normal 0.593272 -0.805000 0.001492
  outer loop
   vertex 59.292271 1668.041504 17.378471
   vertex 59.182621 1667.960693 17.378197
   vertex 59.249157 1667.960693 -9.080250
  endloop
 endfacet
 facet normal 0.999996 -0.000874 0.002515
  outer loop
   vertex 59.249157 1667.960693 -9.080250
   vertex 59.182621 1667.960693 17.378197
   vertex 59.181656 1666.856201 17.378195
  endloop
 endfacet
 facet normal 0.999996 -0.000870 0.002515
  outer loop
   vertex 59.181656 1666.856201 17.378195
   vertex 59.248196 1666.856201 -9.080253
   vertex 59.249157 1667.960693 -9.080250
  endloop
 endfacet
 facet normal 0.594927 0.803778 0.001496
  outer loop
   vertex 59.357704 1666.775146 -9.079977
   vertex 59.248196 1666.856201 -9.080253
   vertex 59.181656 1666.856201 17.378195
  endloop
 endfacet
 facet normal -0.000915 -1.000000 -0.000002
  outer loop
   vertex 59.357613 1666.672485 -9.079977
   vertex 59.291077 1666.672485 17.378469
   vertex 59.224197 1666.672607 -9.080313
  endloop
 endfacet
 facet normal -0.000915 -1.000000 -0.000002
  outer loop
   vertex 59.224197 1666.672607 -9.080313
   vertex 59.291077 1666.672485 17.378469
   vertex 59.157658 1666.672607 17.378134
  endloop
 endfacet
 facet normal -0.933497 -0.358577 -0.002348
  outer loop
   vertex 59.157658 1666.672607 17.378134
   vertex 59.212147 1666.703979 -9.080343
   vertex 59.224197 1666.672607 -9.080313
  endloop
 endfacet
 facet normal -0.933535 -0.358478 -0.002348
  outer loop
   vertex 59.145611 1666.703979 17.378103
   vertex 59.212147 1666.703979 -9.080343
   vertex 59.157658 1666.672607 17.378134
  endloop
 endfacet
 facet normal -0.000849 -1.000000 -0.000002
  outer loop
   vertex 58.570454 1666.704468 17.376657
   vertex 59.212147 1666.703979 -9.080343
   vertex 59.145611 1666.703979 17.378103
  endloop
 endfacet
 facet normal -0.002514 -0.000000 0.999997
  outer loop
   vertex 59.310036 1668.161255 17.793835
   vertex 58.468224 1666.656128 17.791718
   vertex 59.308723 1666.655396 17.793831
  endloop
 endfacet
 facet normal -0.000871 -1.000000 -0.000002
  outer loop
   vertex 59.308723 1666.655396 17.793831
   vertex 58.468224 1666.656128 17.791718
   vertex 59.311237 1666.655396 16.793835
  endloop
 endfacet
 facet normal 0.999996 -0.000874 0.002514
  outer loop
   vertex 59.311237 1666.655396 16.793835
   vertex 59.312553 1668.161255 16.793839
   vertex 59.308723 1666.655396 17.793831
  endloop
 endfacet
 facet normal 0.002514 0.000000 -0.999997
  outer loop
   vertex 58.470741 1666.656128 16.791721
   vertex 59.312553 1668.161255 16.793839
   vertex 59.311237 1666.655396 16.793835
  endloop
 endfacet
 facet normal 0.002517 -0.000001 -0.999997
  outer loop
   vertex 58.472054 1668.161987 16.791723
   vertex 59.312553 1668.161255 16.793839
   vertex 58.470741 1666.656128 16.791721
  endloop
 endfacet
 facet normal -0.999996 0.000871 -0.002518
  outer loop
   vertex 58.470741 1666.656128 16.791721
   vertex 58.468224 1666.656128 17.791718
   vertex 58.472054 1668.161987 16.791723
  endloop
 endfacet
 facet normal -0.999996 0.000874 -0.002514
  outer loop
   vertex 58.472054 1668.161987 16.791723
   vertex 58.468224 1666.656128 17.791718
   vertex 58.469540 1668.161987 17.791721
  endloop
 endfacet
 facet normal -0.002514 -0.000000 0.999997
  outer loop
   vertex 58.469540 1668.161987 17.791721
   vertex 58.468224 1666.656128 17.791718
   vertex 59.310036 1668.161255 17.793835
  endloop
 endfacet
 facet normal 0.000871 1.000000 0.000002
  outer loop
   vertex 59.310036 1668.161255 17.793835
   vertex 59.312553 1668.161255 16.793839
   vertex 58.469540 1668.161987 17.791721
  endloop
 endfacet
 facet normal 0.999996 -0.000871 0.002518
  outer loop
   vertex 59.308723 1666.655396 17.793831
   vertex 59.312553 1668.161255 16.793839
   vertex 59.310036 1668.161255 17.793835
  endloop
 endfacet
 facet normal -0.002514 0.000000 0.999997
  outer loop
   vertex 59.374836 1666.655396 -8.495249
   vertex 59.376148 1668.161255 -8.495246
   vertex 58.534336 1666.656128 -8.497362
  endloop
 endfacet
 facet normal -0.002514 0.000000 0.999997
  outer loop
   vertex 58.534336 1666.656128 -8.497362
   vertex 59.376148 1668.161255 -8.495246
   vertex 58.535652 1668.161987 -8.497359
  endloop
 endfacet
 facet normal -0.999996 0.000874 -0.002514
  outer loop
   vertex 58.535652 1668.161987 -8.497359
   vertex 58.538166 1668.161987 -9.497356
   vertex 58.534336 1666.656128 -8.497362
  endloop
 endfacet
 facet normal 0.000871 1.000000 0.000002
  outer loop
   vertex 59.376148 1668.161255 -8.495246
   vertex 58.538166 1668.161987 -9.497356
   vertex 58.535652 1668.161987 -8.497359
  endloop
 endfacet
 facet normal 0.000871 1.000000 0.000002
  outer loop
   vertex 59.378666 1668.161255 -9.495242
   vertex 58.538166 1668.161987 -9.497356
   vertex 59.376148 1668.161255 -8.495246
  endloop
 endfacet
 facet normal 0.999996 -0.000874 0.002518
  outer loop
   vertex 59.376148 1668.161255 -8.495246
   vertex 59.377350 1666.655396 -9.495246
   vertex 59.378666 1668.161255 -9.495242
  endloop
 endfacet
 facet normal 0.002516 0.000000 -0.999997
  outer loop
   vertex 59.378666 1668.161255 -9.495242
   vertex 59.377350 1666.655396 -9.495246
   vertex 58.538166 1668.161987 -9.497356
  endloop
 endfacet
 facet normal 0.002514 -0.000000 -0.999997
  outer loop
   vertex 58.538166 1668.161987 -9.497356
   vertex 59.377350 1666.655396 -9.495246
   vertex 58.536854 1666.656128 -9.497359
  endloop
 endfacet
 facet normal -0.999996 0.000871 -0.002518
  outer loop
   vertex 58.536854 1666.656128 -9.497359
   vertex 58.534336 1666.656128 -8.497362
   vertex 58.538166 1668.161987 -9.497356
  endloop
 endfacet
 facet normal -0.000871 -1.000000 -0.000002
  outer loop
   vertex 59.377350 1666.655396 -9.495246
   vertex 58.534336 1666.656128 -8.497362
   vertex 58.536854 1666.656128 -9.497359
  endloop
 endfacet
 facet normal -0.000871 -1.000000 -0.000002
  outer loop
   vertex 59.374836 1666.655396 -8.495249
   vertex 58.534336 1666.656128 -8.497362
   vertex 59.377350 1666.655396 -9.495246
  endloop
 endfacet
 facet normal 0.999996 -0.000871 0.002514
  outer loop
   vertex 59.377350 1666.655396 -9.495246
   vertex 59.376148 1668.161255 -8.495246
   vertex 59.374836 1666.655396 -8.495249
  endloop
 endfacet
 facet normal 0.999996 -0.000892 0.002515
  outer loop
   vertex 59.358807 1668.041504 -9.079974
   vertex 59.358898 1668.144165 -9.079974
   vertex 59.292358 1668.144165 17.378471
  endloop
 endfacet
 facet normal 0.000915 1.000000 0.000002
  outer loop
   vertex 59.292358 1668.144165 17.378471
   vertex 59.358898 1668.144165 -9.079974
   vertex 59.225479 1668.144287 -9.080310
  endloop
 endfacet
 facet normal 0.000915 1.000000 0.000002
  outer loop
   vertex 59.225479 1668.144287 -9.080310
   vertex 59.158943 1668.144287 17.378138
   vertex 59.292358 1668.144165 17.378471
  endloop
 endfacet
 facet normal -0.932965 0.359961 -0.002346
  outer loop
   vertex 59.213375 1668.112915 -9.080340
   vertex 59.158943 1668.144287 17.378138
   vertex 59.225479 1668.144287 -9.080310
  endloop
 endfacet
 facet normal -0.932965 0.359961 -0.002346
  outer loop
   vertex 59.146839 1668.112915 17.378107
   vertex 59.158943 1668.144287 17.378138
   vertex 59.213375 1668.112915 -9.080340
  endloop
 endfacet
 facet normal 0.000849 1.000000 0.000002
  outer loop
   vertex 59.213375 1668.112915 -9.080340
   vertex 58.638222 1668.113403 -9.081786
   vertex 59.146839 1668.112915 17.378107
  endloop
 endfacet
 facet normal 0.000849 1.000000 0.000002
  outer loop
   vertex 59.146839 1668.112915 17.378107
   vertex 58.638222 1668.113403 -9.081786
   vertex 58.571682 1668.113403 17.376659
  endloop
 endfacet
 facet normal 0.934000 0.357266 0.002349
  outer loop
   vertex 58.571682 1668.113403 17.376659
   vertex 58.638222 1668.113403 -9.081786
   vertex 58.626175 1668.144897 -9.081817
  endloop
 endfacet
 facet normal 0.934000 0.357266 0.002349
  outer loop
   vertex 58.626175 1668.144897 -9.081817
   vertex 58.559635 1668.144897 17.376629
   vertex 58.571682 1668.113403 17.376659
  endloop
 endfacet
 facet normal -0.000000 1.000000 -0.000000
  outer loop
   vertex 58.559975 1668.144897 -9.081984
   vertex 58.559635 1668.144897 17.376629
   vertex 58.626175 1668.144897 -9.081817
  endloop
 endfacet
 facet normal 0.000000 1.000000 0.000000
  outer loop
   vertex 58.493435 1668.144897 17.376463
   vertex 58.559635 1668.144897 17.376629
   vertex 58.559975 1668.144897 -9.081984
  endloop
 endfacet
 facet normal -0.999996 0.000873 -0.002515
  outer loop
   vertex 58.559975 1668.144897 -9.081984
   vertex 58.558689 1666.673096 -9.081986
   vertex 58.493435 1668.144897 17.376463
  endloop
 endfacet
 facet normal -0.999996 0.000871 -0.002515
  outer loop
   vertex 58.493435 1668.144897 17.376463
   vertex 58.558689 1666.673096 -9.081986
   vertex 58.492153 1666.673096 17.376459
  endloop
 endfacet
 facet normal -0.000000 -1.000000 -0.000000
  outer loop
   vertex 58.492153 1666.673096 17.376459
   vertex 58.558689 1666.673096 -9.081986
   vertex 58.558353 1666.673096 17.376627
  endloop
 endfacet
 facet normal -0.000871 -1.000000 -0.000002
  outer loop
   vertex 58.470741 1666.656128 16.791721
   vertex 59.311237 1666.655396 16.793835
   vertex 58.468224 1666.656128 17.791718
  endloop
 endfacet
 facet normal 0.000871 1.000000 0.000002
  outer loop
   vertex 59.312553 1668.161255 16.793839
   vertex 58.472054 1668.161987 16.791723
   vertex 58.469540 1668.161987 17.791721
  endloop
 endfacet
 facet normal -0.000000 -1.000000 0.000000
  outer loop
   vertex 58.558689 1666.673096 -9.081986
   vertex 58.624889 1666.673096 -9.081820
   vertex 58.558353 1666.673096 17.376627
  endloop
 endfacet
 facet normal 0.571719 0.314078 -0.757953
  outer loop
   vertex 57.596256 1667.409912 -9.215143
   vertex 56.598148 1667.410767 -9.967655
   vertex 57.596230 1667.586670 -9.141919
  endloop
 endfacet
 facet normal 0.571716 0.314087 -0.757951
  outer loop
   vertex 57.596230 1667.586670 -9.141919
   vertex 56.598148 1667.410767 -9.967655
   vertex 56.598026 1668.117798 -9.674761
  endloop
 endfacet
 facet normal 0.570971 0.758884 -0.313190
  outer loop
   vertex 56.598026 1668.117798 -9.674761
   vertex 57.595848 1667.659912 -8.965143
   vertex 57.596230 1667.586670 -9.141919
  endloop
 endfacet
 facet normal 0.570972 0.758882 -0.313192
  outer loop
   vertex 56.596504 1668.410767 -8.967656
   vertex 57.595848 1667.659912 -8.965143
   vertex 56.598026 1668.117798 -9.674761
  endloop
 endfacet
 facet normal 0.569388 0.758880 0.316066
  outer loop
   vertex 57.595337 1667.586670 -8.788366
   vertex 57.595848 1667.659912 -8.965143
   vertex 56.596504 1668.410767 -8.967656
  endloop
 endfacet
 facet normal 0.569390 0.758882 0.316059
  outer loop
   vertex 56.596504 1668.410767 -8.967656
   vertex 56.594471 1668.117798 -8.260552
   vertex 57.595337 1667.586670 -8.788366
  endloop
 endfacet
 facet normal 0.567899 0.314090 0.760814
  outer loop
   vertex 57.595337 1667.586670 -8.788366
   vertex 56.594471 1668.117798 -8.260552
   vertex 57.595001 1667.409912 -8.715144
  endloop
 endfacet
 facet normal 0.567897 0.314085 0.760818
  outer loop
   vertex 57.595001 1667.409912 -8.715144
   vertex 56.594471 1668.117798 -8.260552
   vertex 56.593117 1667.410767 -7.967661
  endloop
 endfacet
 facet normal 0.567395 -0.314878 0.760865
  outer loop
   vertex 56.593117 1667.410767 -7.967661
   vertex 57.595032 1667.233032 -8.788367
   vertex 57.595001 1667.409912 -8.715144
  endloop
 endfacet
 facet normal 0.567346 -0.315031 0.760838
  outer loop
   vertex 56.593239 1666.703613 -8.260555
   vertex 57.595032 1667.233032 -8.788367
   vertex 56.593117 1667.410767 -7.967661
  endloop
 endfacet
 facet normal 0.567988 -0.760114 0.315619
  outer loop
   vertex 57.595409 1667.159912 -8.965144
   vertex 57.595032 1667.233032 -8.788367
   vertex 56.593239 1666.703613 -8.260555
  endloop
 endfacet
 facet normal 0.568108 -0.759895 0.315932
  outer loop
   vertex 56.593239 1666.703613 -8.260555
   vertex 56.594761 1666.410767 -8.967661
   vertex 57.595409 1667.159912 -8.965144
  endloop
 endfacet
 facet normal 0.569761 -0.759991 -0.312709
  outer loop
   vertex 57.595409 1667.159912 -8.965144
   vertex 56.594761 1666.410767 -8.967661
   vertex 57.595921 1667.233032 -9.141920
  endloop
 endfacet
 facet normal 0.569642 -0.759925 -0.313085
  outer loop
   vertex 57.595921 1667.233032 -9.141920
   vertex 56.594761 1666.410767 -8.967661
   vertex 56.596794 1666.703613 -9.674765
  endloop
 endfacet
 facet normal 0.571135 -0.314896 -0.758053
  outer loop
   vertex 56.596794 1666.703613 -9.674765
   vertex 57.596256 1667.409912 -9.215143
   vertex 57.595921 1667.233032 -9.141920
  endloop
 endfacet
 facet normal 0.571186 -0.315028 -0.757961
  outer loop
   vertex 56.598148 1667.410767 -9.967655
   vertex 57.596256 1667.409912 -9.215143
   vertex 56.596794 1666.703613 -9.674765
  endloop
 endfacet
 facet normal 0.002651 0.382717 -0.923862
  outer loop
   vertex 58.520279 1667.409058 17.007265
   vertex 57.520283 1667.409912 17.004749
   vertex 58.520248 1667.585815 17.080488
  endloop
 endfacet
 facet normal 0.002651 0.382717 -0.923862
  outer loop
   vertex 58.520248 1667.585815 17.080488
   vertex 57.520283 1667.409912 17.004749
   vertex 57.520252 1667.586670 17.077972
  endloop
 endfacet
 facet normal 0.001752 0.923845 -0.382763
  outer loop
   vertex 57.520252 1667.586670 17.077972
   vertex 58.519867 1667.659058 17.257265
   vertex 58.520248 1667.585815 17.080488
  endloop
 endfacet
 facet normal 0.001752 0.923845 -0.382763
  outer loop
   vertex 57.519871 1667.659912 17.254749
   vertex 58.519867 1667.659058 17.257265
   vertex 57.520252 1667.586670 17.077972
  endloop
 endfacet
 facet normal -0.000174 0.923843 0.382770
  outer loop
   vertex 58.519360 1667.585815 17.434040
   vertex 58.519867 1667.659058 17.257265
   vertex 57.519871 1667.659912 17.254749
  endloop
 endfacet
 facet normal -0.000173 0.923845 0.382767
  outer loop
   vertex 57.519871 1667.659912 17.254749
   vertex 57.519363 1667.586670 17.431526
   vertex 58.519360 1667.585815 17.434040
  endloop
 endfacet
 facet normal -0.001995 0.382720 0.923862
  outer loop
   vertex 58.519360 1667.585815 17.434040
   vertex 57.519363 1667.586670 17.431526
   vertex 58.519020 1667.409058 17.507263
  endloop
 endfacet
 facet normal -0.001995 0.382720 0.923862
  outer loop
   vertex 58.519020 1667.409058 17.507263
   vertex 57.519363 1667.586670 17.431526
   vertex 57.519024 1667.409912 17.504749
  endloop
 endfacet
 facet normal -0.002650 -0.382491 0.923955
  outer loop
   vertex 57.519024 1667.409912 17.504749
   vertex 58.519051 1667.232178 17.434040
   vertex 58.519020 1667.409058 17.507263
  endloop
 endfacet
 facet normal -0.002696 -0.382716 0.923862
  outer loop
   vertex 57.519054 1667.233154 17.431526
   vertex 58.519051 1667.232178 17.434040
   vertex 57.519024 1667.409912 17.504749
  endloop
 endfacet
 facet normal -0.001863 -0.924070 0.382219
  outer loop
   vertex 58.519432 1667.159058 17.257263
   vertex 58.519051 1667.232178 17.434040
   vertex 57.519054 1667.233154 17.431526
  endloop
 endfacet
 facet normal -0.001752 -0.923845 0.382763
  outer loop
   vertex 57.519054 1667.233154 17.431526
   vertex 57.519436 1667.159912 17.254749
   vertex 58.519432 1667.159058 17.257263
  endloop
 endfacet
 facet normal 0.000171 -0.924069 -0.382226
  outer loop
   vertex 58.519432 1667.159058 17.257263
   vertex 57.519436 1667.159912 17.254749
   vertex 58.519939 1667.232178 17.080488
  endloop
 endfacet
 facet normal 0.000061 -0.923845 -0.382767
  outer loop
   vertex 58.519939 1667.232178 17.080488
   vertex 57.519436 1667.159912 17.254749
   vertex 57.519943 1667.233154 17.077972
  endloop
 endfacet
 facet normal 0.001951 -0.382494 -0.923956
  outer loop
   vertex 57.519943 1667.233154 17.077972
   vertex 58.520279 1667.409058 17.007265
   vertex 58.519939 1667.232178 17.080488
  endloop
 endfacet
 facet normal 0.001997 -0.382720 -0.923862
  outer loop
   vertex 57.520283 1667.409912 17.004749
   vertex 58.520279 1667.409058 17.007265
   vertex 57.519943 1667.233154 17.077972
  endloop
 endfacet
 facet normal 0.002650 0.382719 -0.923861
  outer loop
   vertex 56.532207 1667.410767 16.252262
   vertex 55.532211 1667.411621 16.249748
   vertex 56.532089 1668.117798 16.545156
  endloop
 endfacet
 facet normal 0.002696 0.382662 -0.923884
  outer loop
   vertex 56.532089 1668.117798 16.545156
   vertex 55.532211 1667.411621 16.249748
   vertex 55.532093 1668.118774 16.542643
  endloop
 endfacet
 facet normal 0.001864 0.923844 -0.382764
  outer loop
   vertex 55.532093 1668.118774 16.542643
   vertex 56.530567 1668.410767 17.252262
   vertex 56.532089 1668.117798 16.545156
  endloop
 endfacet
 facet normal 0.001752 0.923900 -0.382629
  outer loop
   vertex 55.530571 1668.411621 17.249746
   vertex 56.530567 1668.410767 17.252262
   vertex 55.532093 1668.118774 16.542643
  endloop
 endfacet
 facet normal -0.000174 0.923844 0.382769
  outer loop
   vertex 56.528534 1668.117798 17.959366
   vertex 56.530567 1668.410767 17.252262
   vertex 55.530571 1668.411621 17.249746
  endloop
 endfacet
 facet normal -0.000060 0.923901 0.382633
  outer loop
   vertex 55.530571 1668.411621 17.249746
   vertex 55.528538 1668.118774 17.956850
   vertex 56.528534 1668.117798 17.959366
  endloop
 endfacet
 facet normal -0.001951 0.382718 0.923863
  outer loop
   vertex 56.528534 1668.117798 17.959366
   vertex 55.528538 1668.118774 17.956850
   vertex 56.527180 1667.410767 18.252256
  endloop
 endfacet
 facet normal -0.001996 0.382664 0.923886
  outer loop
   vertex 56.527180 1667.410767 18.252256
   vertex 55.528538 1668.118774 17.956850
   vertex 55.527184 1667.411621 18.249743
  endloop
 endfacet
 facet normal -0.002650 -0.382662 0.923885
  outer loop
   vertex 55.527184 1667.411621 18.249743
   vertex 56.527298 1666.703613 17.959362
   vertex 56.527180 1667.410767 18.252256
  endloop
 endfacet
 facet normal -0.002650 -0.382662 0.923885
  outer loop
   vertex 55.527302 1666.704468 17.956848
   vertex 56.527298 1666.703613 17.959362
   vertex 55.527184 1667.411621 18.249743
  endloop
 endfacet
 facet normal -0.001751 -0.923900 0.382629
  outer loop
   vertex 56.528820 1666.410767 17.252258
   vertex 56.527298 1666.703613 17.959362
   vertex 55.527302 1666.704468 17.956848
  endloop
 endfacet
 facet normal -0.001752 -0.923901 0.382628
  outer loop
   vertex 55.527302 1666.704468 17.956848
   vertex 55.528824 1666.411621 17.249743
   vertex 56.528820 1666.410767 17.252258
  endloop
 endfacet
 facet normal 0.000173 -0.923901 -0.382633
  outer loop
   vertex 56.528820 1666.410767 17.252258
   vertex 55.528824 1666.411621 17.249743
   vertex 56.530857 1666.703613 16.545155
  endloop
 endfacet
 facet normal 0.000173 -0.923901 -0.382633
  outer loop
   vertex 56.530857 1666.703613 16.545155
   vertex 55.528824 1666.411621 17.249743
   vertex 55.530857 1666.704468 16.542639
  endloop
 endfacet
 facet normal 0.001997 -0.382664 -0.923886
  outer loop
   vertex 55.530857 1666.704468 16.542639
   vertex 56.532207 1667.410767 16.252262
   vertex 56.530857 1666.703613 16.545155
  endloop
 endfacet
 facet normal 0.001996 -0.382661 -0.923886
  outer loop
   vertex 55.532211 1667.411621 16.249748
   vertex 56.532207 1667.410767 16.252262
   vertex 55.530857 1666.704468 16.542639
  endloop
 endfacet
 facet normal 0.571717 0.314085 -0.757951
  outer loop
   vertex 57.530319 1667.409912 17.004776
   vertex 56.532207 1667.410767 16.252262
   vertex 57.530289 1667.586670 17.077999
  endloop
 endfacet
 facet normal 0.571717 0.314084 -0.757952
  outer loop
   vertex 57.530289 1667.586670 17.077999
   vertex 56.532207 1667.410767 16.252262
   vertex 56.532089 1668.117798 16.545156
  endloop
 endfacet
 facet normal 0.570972 0.758883 -0.313188
  outer loop
   vertex 56.532089 1668.117798 16.545156
   vertex 57.529907 1667.659912 17.254776
   vertex 57.530289 1667.586670 17.077999
  endloop
 endfacet
 facet normal 0.570973 0.758881 -0.313191
  outer loop
   vertex 56.530567 1668.410767 17.252262
   vertex 57.529907 1667.659912 17.254776
   vertex 56.532089 1668.117798 16.545156
  endloop
 endfacet
 facet normal 0.569391 0.758882 0.316057
  outer loop
   vertex 57.529400 1667.586670 17.431551
   vertex 57.529907 1667.659912 17.254776
   vertex 56.530567 1668.410767 17.252262
  endloop
 endfacet
 facet normal 0.569391 0.758882 0.316059
  outer loop
   vertex 56.530567 1668.410767 17.252262
   vertex 56.528534 1668.117798 17.959366
   vertex 57.529400 1667.586670 17.431551
  endloop
 endfacet
 facet normal 0.567898 0.314083 0.760818
  outer loop
   vertex 57.529400 1667.586670 17.431551
   vertex 56.528534 1668.117798 17.959366
   vertex 57.529060 1667.409912 17.504774
  endloop
 endfacet
 facet normal 0.567898 0.314084 0.760817
  outer loop
   vertex 57.529060 1667.409912 17.504774
   vertex 56.528534 1668.117798 17.959366
   vertex 56.527180 1667.410767 18.252256
  endloop
 endfacet
 facet normal 0.567357 -0.315073 0.760812
  outer loop
   vertex 56.527180 1667.410767 18.252256
   vertex 57.529091 1667.233154 17.431551
   vertex 57.529060 1667.409912 17.504774
  endloop
 endfacet
 facet normal 0.567372 -0.315028 0.760820
  outer loop
   vertex 56.527298 1666.703613 17.959362
   vertex 57.529091 1667.233154 17.431551
   vertex 56.527180 1667.410767 18.252256
  endloop
 endfacet
 facet normal 0.568146 -0.759823 0.316036
  outer loop
   vertex 57.529472 1667.159912 17.254774
   vertex 57.529091 1667.233154 17.431551
   vertex 56.527298 1666.703613 17.959362
  endloop
 endfacet
 facet normal 0.568107 -0.759895 0.315933
  outer loop
   vertex 56.527298 1666.703613 17.959362
   vertex 56.528820 1666.410767 17.252258
   vertex 57.529472 1667.159912 17.254774
  endloop
 endfacet
 facet normal 0.569665 -0.759864 -0.313192
  outer loop
   vertex 57.529472 1667.159912 17.254774
   vertex 56.528820 1666.410767 17.252258
   vertex 57.529980 1667.233154 17.077997
  endloop
 endfacet
 facet normal 0.569705 -0.759886 -0.313065
  outer loop
   vertex 57.529980 1667.233154 17.077997
   vertex 56.528820 1666.410767 17.252258
   vertex 56.530857 1666.703613 16.545155
  endloop
 endfacet
 facet normal 0.571201 -0.315068 -0.757933
  outer loop
   vertex 56.530857 1666.703613 16.545155
   vertex 57.530319 1667.409912 17.004776
   vertex 57.529980 1667.233154 17.077997
  endloop
 endfacet
 facet normal 0.571186 -0.315027 -0.757961
  outer loop
   vertex 56.532207 1667.410767 16.252262
   vertex 57.530319 1667.409912 17.004776
   vertex 56.530857 1666.703613 16.545155
  endloop
 endfacet
 facet normal 0.002650 0.382717 -0.923862
  outer loop
   vertex 58.586216 1667.409058 -9.212653
   vertex 57.586220 1667.409912 -9.215168
   vertex 58.586185 1667.585815 -9.139430
  endloop
 endfacet
 facet normal 0.002650 0.382717 -0.923862
  outer loop
   vertex 58.586185 1667.585815 -9.139430
   vertex 57.586220 1667.409912 -9.215168
   vertex 57.586189 1667.586670 -9.141945
  endloop
 endfacet
 facet normal 0.001752 0.923845 -0.382763
  outer loop
   vertex 57.586189 1667.586670 -9.141945
   vertex 58.585804 1667.659058 -8.962653
   vertex 58.586185 1667.585815 -9.139430
  endloop
 endfacet
 facet normal 0.001752 0.923845 -0.382763
  outer loop
   vertex 57.585808 1667.659912 -8.965168
   vertex 58.585804 1667.659058 -8.962653
   vertex 57.586189 1667.586670 -9.141945
  endloop
 endfacet
 facet normal -0.000173 0.923844 0.382769
  outer loop
   vertex 58.585297 1667.585815 -8.785877
   vertex 58.585804 1667.659058 -8.962653
   vertex 57.585808 1667.659912 -8.965168
  endloop
 endfacet
 facet normal -0.000173 0.923844 0.382769
  outer loop
   vertex 57.585808 1667.659912 -8.965168
   vertex 57.585300 1667.586670 -8.788392
   vertex 58.585297 1667.585815 -8.785877
  endloop
 endfacet
 facet normal -0.001996 0.382716 0.923864
  outer loop
   vertex 58.585297 1667.585815 -8.785877
   vertex 57.585300 1667.586670 -8.788392
   vertex 58.584957 1667.409058 -8.712655
  endloop
 endfacet
 facet normal -0.001996 0.382716 0.923864
  outer loop
   vertex 58.584957 1667.409058 -8.712655
   vertex 57.585300 1667.586670 -8.788392
   vertex 57.584961 1667.409912 -8.715170
  endloop
 endfacet
 facet normal -0.002650 -0.382491 0.923955
  outer loop
   vertex 57.584961 1667.409912 -8.715170
   vertex 58.584988 1667.232178 -8.785878
   vertex 58.584957 1667.409058 -8.712655
  endloop
 endfacet
 facet normal -0.002697 -0.382716 0.923862
  outer loop
   vertex 57.584991 1667.233154 -8.788393
   vertex 58.584988 1667.232178 -8.785878
   vertex 57.584961 1667.409912 -8.715170
  endloop
 endfacet
 facet normal -0.001864 -0.924069 0.382220
  outer loop
   vertex 58.585369 1667.159058 -8.962654
   vertex 58.584988 1667.232178 -8.785878
   vertex 57.584991 1667.233154 -8.788393
  endloop
 endfacet
 facet normal -0.001752 -0.923844 0.382765
  outer loop
   vertex 57.584991 1667.233154 -8.788393
   vertex 57.585373 1667.159912 -8.965169
   vertex 58.585369 1667.159058 -8.962654
  endloop
 endfacet
 facet normal 0.000172 -0.924070 -0.382222
  outer loop
   vertex 58.585369 1667.159058 -8.962654
   vertex 57.585373 1667.159912 -8.965169
   vertex 58.585876 1667.232178 -9.139431
  endloop
 endfacet
 facet normal 0.000060 -0.923845 -0.382767
  outer loop
   vertex 58.585876 1667.232178 -9.139431
   vertex 57.585373 1667.159912 -8.965169
   vertex 57.585880 1667.233154 -9.141946
  endloop
 endfacet
 facet normal 0.001950 -0.382490 -0.923957
  outer loop
   vertex 57.585880 1667.233154 -9.141946
   vertex 58.586216 1667.409058 -9.212653
   vertex 58.585876 1667.232178 -9.139431
  endloop
 endfacet
 facet normal 0.001996 -0.382716 -0.923864
  outer loop
   vertex 57.586220 1667.409912 -9.215168
   vertex 58.586216 1667.409058 -9.212653
   vertex 57.585880 1667.233154 -9.141946
  endloop
 endfacet
 facet normal 0.001996 -0.382661 -0.923886
  outer loop
   vertex 56.596794 1666.703613 -9.674765
   vertex 55.596798 1666.704468 -9.677279
   vertex 56.598148 1667.410767 -9.967655
  endloop
 endfacet
 facet normal 0.001996 -0.382661 -0.923886
  outer loop
   vertex 56.598148 1667.410767 -9.967655
   vertex 55.596798 1666.704468 -9.677279
   vertex 55.598152 1667.411621 -9.970170
  endloop
 endfacet
 facet normal 0.002650 0.382719 -0.923861
  outer loop
   vertex 55.598152 1667.411621 -9.970170
   vertex 56.598026 1668.117798 -9.674761
   vertex 56.598148 1667.410767 -9.967655
  endloop
 endfacet
 facet normal 0.002697 0.382662 -0.923884
  outer loop
   vertex 55.598030 1668.118774 -9.677276
   vertex 56.598026 1668.117798 -9.674761
   vertex 55.598152 1667.411621 -9.970170
  endloop
 endfacet
 facet normal 0.001865 0.923844 -0.382765
  outer loop
   vertex 56.596504 1668.410767 -8.967656
   vertex 56.598026 1668.117798 -9.674761
   vertex 55.598030 1668.118774 -9.677276
  endloop
 endfacet
 facet normal 0.001752 0.923901 -0.382629
  outer loop
   vertex 55.598030 1668.118774 -9.677276
   vertex 55.596508 1668.411621 -8.970171
   vertex 56.596504 1668.410767 -8.967656
  endloop
 endfacet
 facet normal -0.000173 0.923844 0.382769
  outer loop
   vertex 56.596504 1668.410767 -8.967656
   vertex 55.596508 1668.411621 -8.970171
   vertex 56.594471 1668.117798 -8.260552
  endloop
 endfacet
 facet normal -0.000060 0.923901 0.382633
  outer loop
   vertex 56.594471 1668.117798 -8.260552
   vertex 55.596508 1668.411621 -8.970171
   vertex 55.594475 1668.118774 -8.263067
  endloop
 endfacet
 facet normal -0.001950 0.382718 0.923863
  outer loop
   vertex 55.594475 1668.118774 -8.263067
   vertex 56.593117 1667.410767 -7.967661
   vertex 56.594471 1668.117798 -8.260552
  endloop
 endfacet
 facet normal -0.001996 0.382662 0.923886
  outer loop
   vertex 55.593121 1667.411621 -7.970176
   vertex 56.593117 1667.410767 -7.967661
   vertex 55.594475 1668.118774 -8.263067
  endloop
 endfacet
 facet normal -0.002650 -0.382662 0.923885
  outer loop
   vertex 56.593239 1666.703613 -8.260555
   vertex 56.593117 1667.410767 -7.967661
   vertex 55.593121 1667.411621 -7.970176
  endloop
 endfacet
 facet normal -0.002650 -0.382662 0.923885
  outer loop
   vertex 55.593121 1667.411621 -7.970176
   vertex 55.593243 1666.704468 -8.263070
   vertex 56.593239 1666.703613 -8.260555
  endloop
 endfacet
 facet normal -0.001752 -0.923901 0.382628
  outer loop
   vertex 56.593239 1666.703613 -8.260555
   vertex 55.593243 1666.704468 -8.263070
   vertex 56.594761 1666.410767 -8.967661
  endloop
 endfacet
 facet normal -0.001752 -0.923901 0.382628
  outer loop
   vertex 56.594761 1666.410767 -8.967661
   vertex 55.593243 1666.704468 -8.263070
   vertex 55.594765 1666.411621 -8.970176
  endloop
 endfacet
 facet normal 0.000173 -0.923901 -0.382633
  outer loop
   vertex 55.594765 1666.411621 -8.970176
   vertex 56.596794 1666.703613 -9.674765
   vertex 56.594761 1666.410767 -8.967661
  endloop
 endfacet
 facet normal 0.000173 -0.923901 -0.382633
  outer loop
   vertex 55.596798 1666.704468 -9.677279
   vertex 56.596794 1666.703613 -9.674765
   vertex 55.594765 1666.411621 -8.970176
  endloop
 endfacet
endsolid