solid stl file generated from DOUG
 facet normal -0.590357 -0.000000 -0.807142
  outer loop
   vertex -54.801140 1548.531494 28.219156
   vertex -54.911064 1548.531494 28.299557
   vertex -54.911068 1565.208740 28.299553
  endloop
 endfacet
 facet normal -0.999991 -0.000000 -0.004269
  outer loop
   vertex -54.911068 1565.208740 28.299553
   vertex -54.911064 1548.531494 28.299557
   vertex -54.911507 1565.208740 28.402308
  endloop
 endfacet
 facet normal -0.597222 0.000000 0.802076
  outer loop
   vertex -54.796440 1565.208740 27.114626
   vertex -54.905674 1565.208740 27.033291
   vertex -54.905670 1548.531494 27.033295
  endloop
 endfacet
 facet normal -0.999991 -0.000000 -0.004232
  outer loop
   vertex -54.905670 1548.531494 27.033295
   vertex -54.905674 1565.208740 27.033291
   vertex -54.905239 1565.208740 26.930536
  endloop
 endfacet
 facet normal -0.999991 -0.000000 -0.004269
  outer loop
   vertex -54.905239 1565.208740 26.930536
   vertex -54.905231 1548.531494 26.930540
   vertex -54.905670 1548.531494 27.033295
  endloop
 endfacet
 facet normal -0.931929 -0.000000 -0.362640
  outer loop
   vertex -54.172520 1565.208740 26.933659
   vertex -54.172512 1548.531494 26.933661
   vertex -54.184727 1565.208740 26.965029
  endloop
 endfacet
 facet normal -0.931898 -0.000000 -0.362720
  outer loop
   vertex -54.184727 1565.208740 26.965029
   vertex -54.172512 1548.531494 26.933661
   vertex -54.184723 1548.531494 26.965033
  endloop
 endfacet
 facet normal 0.004258 -0.000000 -0.999991
  outer loop
   vertex -54.184723 1548.531494 26.965033
   vertex -54.759872 1548.531494 26.962584
   vertex -54.184727 1565.208740 26.965029
  endloop
 endfacet
 facet normal -0.590370 -0.000000 -0.807132
  outer loop
   vertex -54.911068 1565.208740 28.299553
   vertex -54.801147 1565.208740 28.219152
   vertex -54.801140 1548.531494 28.219156
  endloop
 endfacet
 facet normal -0.999991 -0.000000 -0.004262
  outer loop
   vertex -54.801140 1548.531494 28.219156
   vertex -54.801147 1565.208740 28.219152
   vertex -54.796440 1565.208740 27.114626
  endloop
 endfacet
 facet normal -0.999991 -0.000000 -0.004258
  outer loop
   vertex -54.796440 1565.208740 27.114626
   vertex -54.796436 1548.531494 27.114630
   vertex -54.801140 1548.531494 28.219156
  endloop
 endfacet
 facet normal -0.597222 0.000000 0.802076
  outer loop
   vertex -54.905670 1548.531494 27.033295
   vertex -54.796436 1548.531494 27.114630
   vertex -54.796440 1565.208740 27.114626
  endloop
 endfacet
 facet normal 0.004260 -0.000000 -0.999991
  outer loop
   vertex -54.905231 1548.531494 26.930540
   vertex -54.905239 1565.208740 26.930536
   vertex -54.771816 1548.531494 26.931108
  endloop
 endfacet
 facet normal 0.004260 -0.000000 -0.999991
  outer loop
   vertex -54.771816 1548.531494 26.931108
   vertex -54.905239 1565.208740 26.930536
   vertex -54.771820 1565.208740 26.931105
  endloop
 endfacet
 facet normal 0.934948 0.000000 -0.354784
  outer loop
   vertex -54.771820 1565.208740 26.931105
   vertex -54.759872 1548.531494 26.962584
   vertex -54.771816 1548.531494 26.931108
  endloop
 endfacet
 facet normal 0.934986 0.000000 -0.354685
  outer loop
   vertex -54.759880 1565.208740 26.962580
   vertex -54.759872 1548.531494 26.962584
   vertex -54.771820 1565.208740 26.931105
  endloop
 endfacet
 facet normal 0.004258 -0.000000 -0.999991
  outer loop
   vertex -54.184727 1565.208740 26.965029
   vertex -54.759872 1548.531494 26.962584
   vertex -54.759880 1565.208740 26.962580
  endloop
 endfacet
 facet normal 0.000000 1.000000 0.000000
  outer loop
   vertex -54.930286 1565.575439 28.419270
   vertex -54.083378 1565.575439 26.916996
   vertex -54.923874 1565.575439 26.913416
  endloop
 endfacet
 facet normal 0.004259 -0.000000 -0.999991
  outer loop
   vertex -54.923874 1565.575439 26.913416
   vertex -54.083378 1565.575439 26.916996
   vertex -54.923874 1564.575439 26.913416
  endloop
 endfacet
 facet normal -0.999991 0.000000 -0.004258
  outer loop
   vertex -54.923874 1564.575439 26.913416
   vertex -54.930286 1564.575439 28.419270
   vertex -54.923874 1565.575439 26.913416
  endloop
 endfacet
 facet normal -0.000000 -1.000000 -0.000000
  outer loop
   vertex -54.083378 1564.575439 26.916996
   vertex -54.930286 1564.575439 28.419270
   vertex -54.923874 1564.575439 26.913416
  endloop
 endfacet
 facet normal 0.000000 -1.000000 0.000000
  outer loop
   vertex -54.089794 1564.575439 28.422850
   vertex -54.930286 1564.575439 28.419270
   vertex -54.083378 1564.575439 26.916996
  endloop
 endfacet
 facet normal 0.999991 0.000000 0.004261
  outer loop
   vertex -54.083378 1564.575439 26.916996
   vertex -54.083378 1565.575439 26.916996
   vertex -54.089794 1564.575439 28.422850
  endloop
 endfacet
 facet normal 0.999991 0.000000 0.004261
  outer loop
   vertex -54.089794 1564.575439 28.422850
   vertex -54.083378 1565.575439 26.916996
   vertex -54.089794 1565.575439 28.422850
  endloop
 endfacet
 facet normal -0.000000 1.000000 -0.000000
  outer loop
   vertex -54.089794 1565.575439 28.422850
   vertex -54.083378 1565.575439 26.916996
   vertex -54.930286 1565.575439 28.419270
  endloop
 endfacet
 facet normal -0.004259 0.000000 0.999991
  outer loop
   vertex -54.930286 1565.575439 28.419270
   vertex -54.930286 1564.575439 28.419270
   vertex -54.089794 1565.575439 28.422850
  endloop
 endfacet
 facet normal -0.999991 0.000000 -0.004258
  outer loop
   vertex -54.923874 1565.575439 26.913416
   vertex -54.930286 1564.575439 28.419270
   vertex -54.930286 1565.575439 28.419270
  endloop
 endfacet
 facet normal 0.000000 1.000000 0.000000
  outer loop
   vertex -54.923866 1549.164795 26.913420
   vertex -54.930283 1549.164795 28.419273
   vertex -54.083374 1549.164795 26.917000
  endloop
 endfacet
 facet normal -0.000000 1.000000 -0.000000
  outer loop
   vertex -54.083374 1549.164795 26.917000
   vertex -54.930283 1549.164795 28.419273
   vertex -54.089787 1549.164795 28.422853
  endloop
 endfacet
 facet normal 0.999991 -0.000000 0.004258
  outer loop
   vertex -54.089787 1549.164795 28.422853
   vertex -54.089787 1548.164795 28.422853
   vertex -54.083374 1549.164795 26.917000
  endloop
 endfacet
 facet normal -0.004259 -0.000000 0.999991
  outer loop
   vertex -54.930283 1549.164795 28.419273
   vertex -54.089787 1548.164795 28.422853
   vertex -54.089787 1549.164795 28.422853
  endloop
 endfacet
 facet normal -0.004259 0.000000 0.999991
  outer loop
   vertex -54.930283 1548.164795 28.419273
   vertex -54.089787 1548.164795 28.422853
   vertex -54.930283 1549.164795 28.419273
  endloop
 endfacet
 facet normal -0.999991 -0.000000 -0.004261
  outer loop
   vertex -54.930283 1549.164795 28.419273
   vertex -54.923866 1548.164795 26.913420
   vertex -54.930283 1548.164795 28.419273
  endloop
 endfacet
 facet normal 0.000000 -1.000000 0.000000
  outer loop
   vertex -54.930283 1548.164795 28.419273
   vertex -54.923866 1548.164795 26.913420
   vertex -54.089787 1548.164795 28.422853
  endloop
 endfacet
 facet normal -0.000000 -1.000000 -0.000000
  outer loop
   vertex -54.089787 1548.164795 28.422853
   vertex -54.923866 1548.164795 26.913420
   vertex -54.083374 1548.164795 26.917000
  endloop
 endfacet
 facet normal 0.999991 0.000000 0.004258
  outer loop
   vertex -54.083374 1548.164795 26.917000
   vertex -54.083374 1549.164795 26.917000
   vertex -54.089787 1548.164795 28.422853
  endloop
 endfacet
 facet normal 0.004259 -0.000000 -0.999991
  outer loop
   vertex -54.923866 1548.164795 26.913420
   vertex -54.083374 1549.164795 26.917000
   vertex -54.083374 1548.164795 26.917000
  endloop
 endfacet
 facet normal 0.004259 0.000000 -0.999991
  outer loop
   vertex -54.923866 1549.164795 26.913420
   vertex -54.083374 1549.164795 26.917000
   vertex -54.923866 1548.164795 26.913420
  endloop
 endfacet
 facet normal -0.999991 -0.000000 -0.004261
  outer loop
   vertex -54.923866 1548.164795 26.913420
   vertex -54.930283 1549.164795 28.419273
   vertex -54.923866 1549.164795 26.913420
  endloop
 endfacet
 facet normal -0.999991 -0.000000 -0.004269
  outer loop
   vertex -54.911064 1548.531494 28.299557
   vertex -54.911503 1548.531494 28.402311
   vertex -54.911507 1565.208740 28.402308
  endloop
 endfacet
 facet normal -0.004260 0.000000 0.999991
  outer loop
   vertex -54.911507 1565.208740 28.402308
   vertex -54.911503 1548.531494 28.402311
   vertex -54.778084 1548.531494 28.402880
  endloop
 endfacet
 facet normal -0.004260 0.000000 0.999991
  outer loop
   vertex -54.778084 1548.531494 28.402880
   vertex -54.778091 1565.208740 28.402876
   vertex -54.911507 1565.208740 28.402308
  endloop
 endfacet
 facet normal 0.931937 0.000001 0.362621
  outer loop
   vertex -54.765877 1548.531494 28.371508
   vertex -54.778091 1565.208740 28.402876
   vertex -54.778084 1548.531494 28.402880
  endloop
 endfacet
 facet normal 0.931898 0.000000 0.362720
  outer loop
   vertex -54.765881 1565.208740 28.371504
   vertex -54.778091 1565.208740 28.402876
   vertex -54.765877 1548.531494 28.371508
  endloop
 endfacet
 facet normal -0.004261 0.000000 0.999991
  outer loop
   vertex -54.765877 1548.531494 28.371508
   vertex -54.190723 1548.531494 28.373959
   vertex -54.765881 1565.208740 28.371504
  endloop
 endfacet
 facet normal -0.004261 0.000000 0.999991
  outer loop
   vertex -54.765881 1565.208740 28.371504
   vertex -54.190723 1548.531494 28.373959
   vertex -54.190731 1565.208740 28.373955
  endloop
 endfacet
 facet normal -0.934986 -0.000000 0.354685
  outer loop
   vertex -54.190731 1565.208740 28.373955
   vertex -54.190723 1548.531494 28.373959
   vertex -54.178783 1548.531494 28.405434
  endloop
 endfacet
 facet normal -0.934948 -0.000000 0.354784
  outer loop
   vertex -54.178783 1548.531494 28.405434
   vertex -54.178787 1565.208740 28.405430
   vertex -54.190731 1565.208740 28.373955
  endloop
 endfacet
 facet normal -0.004264 0.000000 0.999991
  outer loop
   vertex -54.112583 1548.531494 28.405716
   vertex -54.178787 1565.208740 28.405430
   vertex -54.178783 1548.531494 28.405434
  endloop
 endfacet
 facet normal -0.004264 0.000000 0.999991
  outer loop
   vertex -54.112587 1565.208740 28.405712
   vertex -54.178787 1565.208740 28.405430
   vertex -54.112583 1548.531494 28.405716
  endloop
 endfacet
 facet normal 0.999991 0.000000 0.004261
  outer loop
   vertex -54.112583 1548.531494 28.405716
   vertex -54.106312 1548.531494 26.933943
   vertex -54.112587 1565.208740 28.405712
  endloop
 endfacet
 facet normal 0.999991 0.000000 0.004258
  outer loop
   vertex -54.112587 1565.208740 28.405712
   vertex -54.106312 1548.531494 26.933943
   vertex -54.106319 1565.208740 26.933939
  endloop
 endfacet
 facet normal 0.004235 -0.000000 -0.999991
  outer loop
   vertex -54.106319 1565.208740 26.933939
   vertex -54.106312 1548.531494 26.933943
   vertex -54.172520 1565.208740 26.933659
  endloop
 endfacet
 facet normal 0.004259 0.000000 -0.999991
  outer loop
   vertex -54.083378 1564.575439 26.916996
   vertex -54.923874 1564.575439 26.913416
   vertex -54.083378 1565.575439 26.916996
  endloop
 endfacet
 facet normal -0.004259 0.000000 0.999991
  outer loop
   vertex -54.930286 1564.575439 28.419270
   vertex -54.089794 1564.575439 28.422850
   vertex -54.089794 1565.575439 28.422850
  endloop
 endfacet
 facet normal 0.004264 -0.000000 -0.999991
  outer loop
   vertex -54.106312 1548.531494 26.933943
   vertex -54.172512 1548.531494 26.933661
   vertex -54.172520 1565.208740 26.933659
  endloop
 endfacet
 facet normal -0.570864 -0.759372 0.312200
  outer loop
   vertex -53.146049 1548.620117 27.673933
   vertex -52.146057 1547.870117 27.678194
   vertex -53.146801 1548.693359 27.850708
  endloop
 endfacet
 facet normal -0.570904 -0.759394 0.312071
  outer loop
   vertex -53.146801 1548.693359 27.850708
   vertex -52.146057 1547.870117 27.678194
   vertex -52.149071 1548.162964 28.385294
  endloop
 endfacet
 facet normal -0.572796 -0.314578 0.756932
  outer loop
   vertex -52.149071 1548.162964 28.385294
   vertex -53.147114 1548.870117 27.923931
   vertex -53.146801 1548.693359 27.850708
  endloop
 endfacet
 facet normal -0.572778 -0.314532 0.756964
  outer loop
   vertex -52.150318 1548.870117 28.678185
   vertex -53.147114 1548.870117 27.923931
   vertex -52.149071 1548.162964 28.385294
  endloop
 endfacet
 facet normal -0.572768 0.314585 0.756950
  outer loop
   vertex -53.146801 1549.046875 27.850708
   vertex -53.147114 1548.870117 27.923931
   vertex -52.150318 1548.870117 28.678185
  endloop
 endfacet
 facet normal -0.572785 0.314530 0.756960
  outer loop
   vertex -52.150318 1548.870117 28.678185
   vertex -52.149071 1549.577271 28.385294
   vertex -53.146801 1549.046875 27.850708
  endloop
 endfacet
 facet normal -0.570929 0.759330 0.312182
  outer loop
   vertex -53.146801 1549.046875 27.850708
   vertex -52.149071 1549.577271 28.385294
   vertex -53.146049 1549.120117 27.673933
  endloop
 endfacet
 facet normal -0.570889 0.759403 0.312078
  outer loop
   vertex -53.146049 1549.120117 27.673933
   vertex -52.149071 1549.577271 28.385294
   vertex -52.146061 1549.870117 27.678194
  endloop
 endfacet
 facet normal -0.568186 0.759374 -0.317043
  outer loop
   vertex -52.146061 1549.870117 27.678194
   vertex -53.145298 1549.046875 27.497158
   vertex -53.146049 1549.120117 27.673933
  endloop
 endfacet
 facet normal -0.568224 0.759394 -0.316925
  outer loop
   vertex -52.143047 1549.577271 26.971092
   vertex -53.145298 1549.046875 27.497158
   vertex -52.146061 1549.870117 27.678194
  endloop
 endfacet
 facet normal -0.566324 0.314573 -0.761788
  outer loop
   vertex -53.144985 1548.870117 27.423935
   vertex -53.145298 1549.046875 27.497158
   vertex -52.143047 1549.577271 26.971092
  endloop
 endfacet
 facet normal -0.566308 0.314532 -0.761817
  outer loop
   vertex -52.143047 1549.577271 26.971092
   vertex -52.141800 1548.870117 26.678202
   vertex -53.144985 1548.870117 27.423935
  endloop
 endfacet
 facet normal -0.566299 -0.314580 -0.761804
  outer loop
   vertex -53.144985 1548.870117 27.423935
   vertex -52.141800 1548.870117 26.678202
   vertex -53.145298 1548.693359 27.497158
  endloop
 endfacet
 facet normal -0.566315 -0.314530 -0.761813
  outer loop
   vertex -53.145298 1548.693359 27.497158
   vertex -52.141800 1548.870117 26.678202
   vertex -52.143047 1548.162964 26.971092
  endloop
 endfacet
 facet normal -0.568246 -0.759335 -0.317027
  outer loop
   vertex -52.143047 1548.162964 26.971092
   vertex -53.146049 1548.620117 27.673933
   vertex -53.145298 1548.693359 27.497158
  endloop
 endfacet
 facet normal -0.568208 -0.759406 -0.316927
  outer loop
   vertex -52.146057 1547.870117 27.678194
   vertex -53.146049 1548.620117 27.673933
   vertex -52.143047 1548.162964 26.971092
  endloop
 endfacet
 facet normal -0.001629 -0.924070 0.382220
  outer loop
   vertex -54.136009 1564.800171 27.669712
   vertex -53.136017 1564.800171 27.673973
   vertex -54.136761 1564.873291 27.846487
  endloop
 endfacet
 facet normal -0.001629 -0.924070 0.382220
  outer loop
   vertex -54.136761 1564.873291 27.846487
   vertex -53.136017 1564.800171 27.673973
   vertex -53.136772 1564.873291 27.850748
  endloop
 endfacet
 facet normal -0.003937 -0.382495 0.923949
  outer loop
   vertex -53.136772 1564.873291 27.850748
   vertex -54.137074 1565.050171 27.919710
   vertex -54.136761 1564.873291 27.846487
  endloop
 endfacet
 facet normal -0.003937 -0.382495 0.923949
  outer loop
   vertex -53.137081 1565.050171 27.923971
   vertex -54.137074 1565.050171 27.919710
   vertex -53.136772 1564.873291 27.850748
  endloop
 endfacet
 facet normal -0.003937 0.382720 0.923856
  outer loop
   vertex -54.136761 1565.226929 27.846487
   vertex -54.137074 1565.050171 27.919710
   vertex -53.137081 1565.050171 27.923971
  endloop
 endfacet
 facet normal -0.003937 0.382720 0.923856
  outer loop
   vertex -53.137081 1565.050171 27.923971
   vertex -53.136772 1565.226929 27.850748
   vertex -54.136761 1565.226929 27.846487
  endloop
 endfacet
 facet normal -0.001631 0.923845 0.382764
  outer loop
   vertex -54.136761 1565.226929 27.846487
   vertex -53.136772 1565.226929 27.850748
   vertex -54.136009 1565.300171 27.669712
  endloop
 endfacet
 facet normal -0.001631 0.923845 0.382764
  outer loop
   vertex -54.136009 1565.300171 27.669712
   vertex -53.136772 1565.226929 27.850748
   vertex -53.136017 1565.300171 27.673973
  endloop
 endfacet
 facet normal 0.001631 0.923845 -0.382764
  outer loop
   vertex -53.136017 1565.300171 27.673973
   vertex -54.135258 1565.226929 27.492937
   vertex -54.136009 1565.300171 27.669712
  endloop
 endfacet
 facet normal 0.001631 0.923845 -0.382764
  outer loop
   vertex -53.135265 1565.226929 27.497198
   vertex -54.135258 1565.226929 27.492937
   vertex -53.136017 1565.300171 27.673973
  endloop
 endfacet
 facet normal 0.003937 0.382720 -0.923856
  outer loop
   vertex -54.134945 1565.050171 27.419714
   vertex -54.135258 1565.226929 27.492937
   vertex -53.135265 1565.226929 27.497198
  endloop
 endfacet
 facet normal 0.003937 0.382720 -0.923856
  outer loop
   vertex -53.135265 1565.226929 27.497198
   vertex -53.134953 1565.050171 27.423975
   vertex -54.134945 1565.050171 27.419714
  endloop
 endfacet
 facet normal 0.003937 -0.382495 -0.923949
  outer loop
   vertex -54.134945 1565.050171 27.419714
   vertex -53.134953 1565.050171 27.423975
   vertex -54.135254 1564.873291 27.492937
  endloop
 endfacet
 facet normal 0.003937 -0.382495 -0.923949
  outer loop
   vertex -54.135254 1564.873291 27.492937
   vertex -53.134953 1565.050171 27.423975
   vertex -53.135265 1564.873291 27.497198
  endloop
 endfacet
 facet normal 0.001629 -0.924070 -0.382220
  outer loop
   vertex -53.135265 1564.873291 27.497198
   vertex -54.136009 1564.800171 27.669712
   vertex -54.135254 1564.873291 27.492937
  endloop
 endfacet
 facet normal 0.001629 -0.924070 -0.382220
  outer loop
   vertex -53.136017 1564.800171 27.673973
   vertex -54.136009 1564.800171 27.669712
   vertex -53.135265 1564.873291 27.497198
  endloop
 endfacet
 facet normal -0.001630 -0.923901 0.382628
  outer loop
   vertex -52.146065 1564.050171 27.678190
   vertex -51.146072 1564.050171 27.682451
   vertex -52.149078 1564.343018 28.385290
  endloop
 endfacet
 facet normal -0.001630 -0.923901 0.382628
  outer loop
   vertex -52.149078 1564.343018 28.385290
   vertex -51.146072 1564.050171 27.682451
   vertex -51.149086 1564.343018 28.389551
  endloop
 endfacet
 facet normal -0.003937 -0.382662 0.923880
  outer loop
   vertex -51.149086 1564.343018 28.389551
   vertex -52.150326 1565.050171 28.678181
   vertex -52.149078 1564.343018 28.385290
  endloop
 endfacet
 facet normal -0.003937 -0.382662 0.923880
  outer loop
   vertex -51.150333 1565.050171 28.682442
   vertex -52.150326 1565.050171 28.678181
   vertex -51.149086 1564.343018 28.389551
  endloop
 endfacet
 facet normal -0.003937 0.382718 0.923857
  outer loop
   vertex -52.149078 1565.757202 28.385290
   vertex -52.150326 1565.050171 28.678181
   vertex -51.150333 1565.050171 28.682442
  endloop
 endfacet
 facet normal -0.003937 0.382718 0.923857
  outer loop
   vertex -51.150333 1565.050171 28.682442
   vertex -51.149086 1565.757202 28.389551
   vertex -52.149078 1565.757202 28.385290
  endloop
 endfacet
 facet normal -0.001631 0.923845 0.382764
  outer loop
   vertex -52.149078 1565.757202 28.385290
   vertex -51.149086 1565.757202 28.389551
   vertex -52.146065 1566.050171 27.678190
  endloop
 endfacet
 facet normal -0.001630 0.923845 0.382764
  outer loop
   vertex -52.146065 1566.050171 27.678190
   vertex -51.149086 1565.757202 28.389551
   vertex -51.146072 1566.050171 27.682449
  endloop
 endfacet
 facet normal 0.001630 0.923845 -0.382764
  outer loop
   vertex -51.146072 1566.050171 27.682449
   vertex -52.143051 1565.757202 26.971090
   vertex -52.146065 1566.050171 27.678190
  endloop
 endfacet
 facet normal 0.001630 0.923845 -0.382764
  outer loop
   vertex -51.143063 1565.757202 26.975349
   vertex -52.143051 1565.757202 26.971090
   vertex -51.146072 1566.050171 27.682449
  endloop
 endfacet
 facet normal 0.003935 0.382718 -0.923857
  outer loop
   vertex -52.141804 1565.050171 26.678200
   vertex -52.143051 1565.757202 26.971090
   vertex -51.143063 1565.757202 26.975349
  endloop
 endfacet
 facet normal 0.003935 0.382718 -0.923857
  outer loop
   vertex -51.143063 1565.757202 26.975349
   vertex -51.141815 1565.050171 26.682459
   vertex -52.141804 1565.050171 26.678200
  endloop
 endfacet
 facet normal 0.003935 -0.382660 -0.923881
  outer loop
   vertex -52.141804 1565.050171 26.678200
   vertex -51.141815 1565.050171 26.682459
   vertex -52.143051 1564.343018 26.971088
  endloop
 endfacet
 facet normal 0.003937 -0.382662 -0.923880
  outer loop
   vertex -52.143051 1564.343018 26.971088
   vertex -51.141815 1565.050171 26.682459
   vertex -51.143063 1564.343018 26.975349
  endloop
 endfacet
 facet normal 0.001630 -0.923901 -0.382627
  outer loop
   vertex -51.143063 1564.343018 26.975349
   vertex -52.146065 1564.050171 27.678190
   vertex -52.143051 1564.343018 26.971088
  endloop
 endfacet
 facet normal 0.001630 -0.923901 -0.382627
  outer loop
   vertex -51.146072 1564.050171 27.682451
   vertex -52.146065 1564.050171 27.678190
   vertex -51.143063 1564.343018 26.975349
  endloop
 endfacet
 facet normal -0.570956 -0.759497 0.311727
  outer loop
   vertex -53.146057 1564.800171 27.673929
   vertex -52.146065 1564.050171 27.678190
   vertex -53.146809 1564.873291 27.850704
  endloop
 endfacet
 facet normal -0.570842 -0.759435 0.312088
  outer loop
   vertex -53.146809 1564.873291 27.850704
   vertex -52.146065 1564.050171 27.678190
   vertex -52.149078 1564.343018 28.385290
  endloop
 endfacet
 facet normal -0.572732 -0.314410 0.757050
  outer loop
   vertex -52.149078 1564.343018 28.385290
   vertex -53.147121 1565.050171 27.923927
   vertex -53.146809 1564.873291 27.850704
  endloop
 endfacet
 facet normal -0.572778 -0.314532 0.756964
  outer loop
   vertex -52.150326 1565.050171 28.678181
   vertex -53.147121 1565.050171 27.923927
   vertex -52.149078 1564.343018 28.385290
  endloop
 endfacet
 facet normal -0.572768 0.314585 0.756950
  outer loop
   vertex -53.146809 1565.226929 27.850704
   vertex -53.147121 1565.050171 27.923927
   vertex -52.150326 1565.050171 28.678181
  endloop
 endfacet
 facet normal -0.572769 0.314581 0.756951
  outer loop
   vertex -52.150326 1565.050171 28.678181
   vertex -52.149078 1565.757202 28.385290
   vertex -53.146809 1565.226929 27.850704
  endloop
 endfacet
 facet normal -0.570867 0.759370 0.312199
  outer loop
   vertex -53.146809 1565.226929 27.850704
   vertex -52.149078 1565.757202 28.385290
   vertex -53.146057 1565.300171 27.673929
  endloop
 endfacet
 facet normal -0.570865 0.759374 0.312194
  outer loop
   vertex -53.146057 1565.300171 27.673929
   vertex -52.149078 1565.757202 28.385290
   vertex -52.146065 1566.050171 27.678190
  endloop
 endfacet
 facet normal -0.568182 0.759372 -0.317054
  outer loop
   vertex -52.146065 1566.050171 27.678190
   vertex -53.145302 1565.226929 27.497154
   vertex -53.146057 1565.300171 27.673929
  endloop
 endfacet
 facet normal -0.568184 0.759373 -0.317048
  outer loop
   vertex -52.143051 1565.757202 26.971090
   vertex -53.145302 1565.226929 27.497154
   vertex -52.146065 1566.050171 27.678190
  endloop
 endfacet
 facet normal -0.566296 0.314574 -0.761809
  outer loop
   vertex -53.144989 1565.050171 27.423933
   vertex -53.145302 1565.226929 27.497154
   vertex -52.143051 1565.757202 26.971090
  endloop
 endfacet
 facet normal -0.566298 0.314581 -0.761804
  outer loop
   vertex -52.143051 1565.757202 26.971090
   vertex -52.141804 1565.050171 26.678200
   vertex -53.144989 1565.050171 27.423933
  endloop
 endfacet
 facet normal -0.566339 -0.314377 -0.761858
  outer loop
   vertex -53.144989 1565.050171 27.423933
   vertex -52.141804 1565.050171 26.678200
   vertex -53.145302 1564.873291 27.497154
  endloop
 endfacet
 facet normal -0.566288 -0.314536 -0.761830
  outer loop
   vertex -53.145302 1564.873291 27.497154
   vertex -52.141804 1565.050171 26.678200
   vertex -52.143051 1564.343018 26.971088
  endloop
 endfacet
 facet normal -0.568093 -0.759615 -0.316630
  outer loop
   vertex -52.143051 1564.343018 26.971088
   vertex -53.146057 1564.800171 27.673929
   vertex -53.145302 1564.873291 27.497154
  endloop
 endfacet
 facet normal -0.568208 -0.759405 -0.316930
  outer loop
   vertex -52.146065 1564.050171 27.678190
   vertex -53.146057 1564.800171 27.673929
   vertex -52.143051 1564.343018 26.971088
  endloop
 endfacet
 facet normal -0.001631 -0.923845 0.382764
  outer loop
   vertex -54.136002 1548.620117 27.669716
   vertex -53.136013 1548.620117 27.673977
   vertex -54.136757 1548.693359 27.846491
  endloop
 endfacet
 facet normal -0.001631 -0.923845 0.382764
  outer loop
   vertex -54.136757 1548.693359 27.846491
   vertex -53.136013 1548.620117 27.673977
   vertex -53.136765 1548.693359 27.850752
  endloop
 endfacet
 facet normal -0.003937 -0.382720 0.923856
  outer loop
   vertex -53.136765 1548.693359 27.850752
   vertex -54.137070 1548.870117 27.919714
   vertex -54.136757 1548.693359 27.846491
  endloop
 endfacet
 facet normal -0.003935 -0.382712 0.923859
  outer loop
   vertex -53.137077 1548.870117 27.923973
   vertex -54.137070 1548.870117 27.919714
   vertex -53.136765 1548.693359 27.850752
  endloop
 endfacet
 facet normal -0.003935 0.382720 0.923856
  outer loop
   vertex -54.136757 1549.046875 27.846491
   vertex -54.137070 1548.870117 27.919714
   vertex -53.137077 1548.870117 27.923973
  endloop
 endfacet
 facet normal -0.003937 0.382712 0.923859
  outer loop
   vertex -53.137077 1548.870117 27.923973
   vertex -53.136765 1549.046875 27.850752
   vertex -54.136757 1549.046875 27.846491
  endloop
 endfacet
 facet normal -0.001631 0.923845 0.382764
  outer loop
   vertex -54.136757 1549.046875 27.846491
   vertex -53.136765 1549.046875 27.850752
   vertex -54.136002 1549.120117 27.669716
  endloop
 endfacet
 facet normal -0.001631 0.923845 0.382764
  outer loop
   vertex -54.136002 1549.120117 27.669716
   vertex -53.136765 1549.046875 27.850752
   vertex -53.136013 1549.120117 27.673977
  endloop
 endfacet
 facet normal 0.001631 0.923845 -0.382764
  outer loop
   vertex -53.136013 1549.120117 27.673977
   vertex -54.135250 1549.046875 27.492941
   vertex -54.136002 1549.120117 27.669716
  endloop
 endfacet
 facet normal 0.001631 0.923845 -0.382764
  outer loop
   vertex -53.135258 1549.046875 27.497202
   vertex -54.135250 1549.046875 27.492941
   vertex -53.136013 1549.120117 27.673977
  endloop
 endfacet
 facet normal 0.003937 0.382720 -0.923856
  outer loop
   vertex -54.134937 1548.870117 27.419718
   vertex -54.135250 1549.046875 27.492941
   vertex -53.135258 1549.046875 27.497202
  endloop
 endfacet
 facet normal 0.003937 0.382720 -0.923856
  outer loop
   vertex -53.135258 1549.046875 27.497202
   vertex -53.134945 1548.870117 27.423979
   vertex -54.134937 1548.870117 27.419718
  endloop
 endfacet
 facet normal 0.003937 -0.382720 -0.923856
  outer loop
   vertex -54.134937 1548.870117 27.419718
   vertex -53.134945 1548.870117 27.423979
   vertex -54.135250 1548.693359 27.492941
  endloop
 endfacet
 facet normal 0.003935 -0.382712 -0.923859
  outer loop
   vertex -54.135250 1548.693359 27.492941
   vertex -53.134945 1548.870117 27.423979
   vertex -53.135258 1548.693359 27.497200
  endloop
 endfacet
 facet normal 0.001630 -0.923845 -0.382764
  outer loop
   vertex -53.135258 1548.693359 27.497200
   vertex -54.136002 1548.620117 27.669716
   vertex -54.135250 1548.693359 27.492941
  endloop
 endfacet
 facet normal 0.001631 -0.923846 -0.382761
  outer loop
   vertex -53.136013 1548.620117 27.673977
   vertex -54.136002 1548.620117 27.669716
   vertex -53.135258 1548.693359 27.497200
  endloop
 endfacet
 facet normal 0.001630 -0.923901 -0.382627
  outer loop
   vertex -52.143047 1548.162964 26.971092
   vertex -51.143055 1548.162964 26.975353
   vertex -52.146057 1547.870117 27.678194
  endloop
 endfacet
 facet normal 0.001630 -0.923901 -0.382628
  outer loop
   vertex -52.146057 1547.870117 27.678194
   vertex -51.143055 1548.162964 26.975353
   vertex -51.146069 1547.870117 27.682453
  endloop
 endfacet
 facet normal -0.001630 -0.923901 0.382628
  outer loop
   vertex -51.146069 1547.870117 27.682453
   vertex -52.149071 1548.162964 28.385294
   vertex -52.146057 1547.870117 27.678194
  endloop
 endfacet
 facet normal -0.001630 -0.923901 0.382627
  outer loop
   vertex -51.149078 1548.162964 28.389555
   vertex -52.149071 1548.162964 28.385294
   vertex -51.146069 1547.870117 27.682453
  endloop
 endfacet
 facet normal -0.003937 -0.382662 0.923880
  outer loop
   vertex -52.150318 1548.870117 28.678185
   vertex -52.149071 1548.162964 28.385294
   vertex -51.149078 1548.162964 28.389555
  endloop
 endfacet
 facet normal -0.003935 -0.382660 0.923881
  outer loop
   vertex -51.149078 1548.162964 28.389555
   vertex -51.150330 1548.870117 28.682444
   vertex -52.150318 1548.870117 28.678185
  endloop
 endfacet
 facet normal -0.003935 0.382662 0.923880
  outer loop
   vertex -52.150318 1548.870117 28.678185
   vertex -51.150330 1548.870117 28.682444
   vertex -52.149071 1549.577271 28.385294
  endloop
 endfacet
 facet normal -0.003935 0.382662 0.923880
  outer loop
   vertex -52.149071 1549.577271 28.385294
   vertex -51.150330 1548.870117 28.682444
   vertex -51.149082 1549.577271 28.389553
  endloop
 endfacet
 facet normal -0.001630 0.923901 0.382628
  outer loop
   vertex -51.149082 1549.577271 28.389553
   vertex -52.146061 1549.870117 27.678194
   vertex -52.149071 1549.577271 28.385294
  endloop
 endfacet
 facet normal -0.001630 0.923901 0.382628
  outer loop
   vertex -51.146069 1549.870117 27.682453
   vertex -52.146061 1549.870117 27.678194
   vertex -51.149082 1549.577271 28.389553
  endloop
 endfacet
 facet normal 0.001630 0.923901 -0.382627
  outer loop
   vertex -52.143047 1549.577271 26.971092
   vertex -52.146061 1549.870117 27.678194
   vertex -51.146069 1549.870117 27.682453
  endloop
 endfacet
 facet normal 0.001630 0.923901 -0.382628
  outer loop
   vertex -51.146069 1549.870117 27.682453
   vertex -51.143055 1549.577271 26.975353
   vertex -52.143047 1549.577271 26.971092
  endloop
 endfacet
 facet normal 0.003937 0.382662 -0.923880
  outer loop
   vertex -52.143047 1549.577271 26.971092
   vertex -51.143055 1549.577271 26.975353
   vertex -52.141800 1548.870117 26.678202
  endloop
 endfacet
 facet normal 0.003937 0.382662 -0.923880
  outer loop
   vertex -52.141800 1548.870117 26.678202
   vertex -51.143055 1549.577271 26.975353
   vertex -51.141808 1548.870117 26.682463
  endloop
 endfacet
 facet normal 0.003937 -0.382662 -0.923880
  outer loop
   vertex -51.141808 1548.870117 26.682463
   vertex -52.143047 1548.162964 26.971092
   vertex -52.141800 1548.870117 26.678202
  endloop
 endfacet
 facet normal 0.003937 -0.382662 -0.923880
  outer loop
   vertex -51.143055 1548.162964 26.975353
   vertex -52.143047 1548.162964 26.971092
   vertex -51.141808 1548.870117 26.682463
  endloop
 endfacet
endsolid