solid stl file generated from DOUG
 facet normal 0.000793 -0.804395 -0.594095
  outer loop
   vertex -68.448822 1852.132202 -36.645008
   vertex -68.448479 1852.213135 -36.754589
   vertex -59.198971 1852.205078 -36.731327
  endloop
 endfacet
 facet normal 0.002515 -0.000002 -0.999997
  outer loop
   vertex -59.198971 1852.205078 -36.731327
   vertex -68.448479 1852.213135 -36.754589
   vertex -59.198879 1852.307739 -36.731327
  endloop
 endfacet
 facet normal 0.002195 0.804394 -0.594093
  outer loop
   vertex -59.200279 1851.019653 -36.621750
   vertex -59.200077 1850.938721 -36.731331
   vertex -68.449585 1850.946777 -36.754589
  endloop
 endfacet
 facet normal 0.002515 -0.000002 -0.999997
  outer loop
   vertex -68.449585 1850.946777 -36.754589
   vertex -59.200077 1850.938721 -36.731331
   vertex -59.200165 1850.836060 -36.731331
  endloop
 endfacet
 facet normal 0.002515 0.000035 -0.999997
  outer loop
   vertex -59.200165 1850.836060 -36.731331
   vertex -68.449669 1850.844116 -36.754593
   vertex -68.449585 1850.946777 -36.754589
  endloop
 endfacet
 facet normal 0.002034 -0.359172 -0.933269
  outer loop
   vertex -59.202007 1850.836060 -35.998608
   vertex -68.451515 1850.844116 -36.021866
   vertex -59.201950 1850.867432 -36.010681
  endloop
 endfacet
 facet normal 0.002034 -0.359271 -0.933231
  outer loop
   vertex -59.201950 1850.867432 -36.010681
   vertex -68.451515 1850.844116 -36.021866
   vertex -68.451454 1850.875488 -36.033943
  endloop
 endfacet
 facet normal -0.000871 -1.000000 -0.000002
  outer loop
   vertex -68.451454 1850.875488 -36.033943
   vertex -68.450012 1850.875488 -36.609097
   vertex -59.201950 1850.867432 -36.010681
  endloop
 endfacet
 facet normal 0.000793 -0.804385 -0.594108
  outer loop
   vertex -59.198971 1852.205078 -36.731327
   vertex -59.199318 1852.124146 -36.621750
   vertex -68.448822 1852.132202 -36.645008
  endloop
 endfacet
 facet normal 0.002515 -0.000002 -0.999997
  outer loop
   vertex -68.448822 1852.132202 -36.645008
   vertex -59.199318 1852.124146 -36.621750
   vertex -59.200279 1851.019653 -36.621750
  endloop
 endfacet
 facet normal 0.002515 0.000001 -0.999997
  outer loop
   vertex -59.200279 1851.019653 -36.621750
   vertex -68.449791 1851.027710 -36.645012
   vertex -68.448822 1852.132202 -36.645008
  endloop
 endfacet
 facet normal 0.002195 0.804384 -0.594106
  outer loop
   vertex -68.449585 1850.946777 -36.754589
   vertex -68.449791 1851.027710 -36.645012
   vertex -59.200279 1851.019653 -36.621750
  endloop
 endfacet
 facet normal -0.000871 -1.000000 -0.000002
  outer loop
   vertex -68.449669 1850.844116 -36.754593
   vertex -59.200165 1850.836060 -36.731331
   vertex -68.450005 1850.844116 -36.621174
  endloop
 endfacet
 facet normal -0.000871 -1.000000 -0.000002
  outer loop
   vertex -68.450005 1850.844116 -36.621174
   vertex -59.200165 1850.836060 -36.731331
   vertex -59.200500 1850.836060 -36.597912
  endloop
 endfacet
 facet normal -0.002660 -0.359267 0.933231
  outer loop
   vertex -59.200500 1850.836060 -36.597912
   vertex -68.450012 1850.875488 -36.609097
   vertex -68.450005 1850.844116 -36.621174
  endloop
 endfacet
 facet normal -0.002660 -0.359168 0.933269
  outer loop
   vertex -59.200504 1850.867432 -36.585838
   vertex -68.450012 1850.875488 -36.609097
   vertex -59.200500 1850.836060 -36.597912
  endloop
 endfacet
 facet normal -0.000871 -1.000000 -0.000002
  outer loop
   vertex -59.201950 1850.867432 -36.010681
   vertex -68.450012 1850.875488 -36.609097
   vertex -59.200504 1850.867432 -36.585838
  endloop
 endfacet
 facet normal 0.999996 -0.000871 0.002514
  outer loop
   vertex -58.660484 1852.324341 -36.748680
   vertex -58.663910 1850.818481 -35.908184
   vertex -58.661797 1850.818481 -36.748684
  endloop
 endfacet
 facet normal -0.000854 -1.000000 -0.000002
  outer loop
   vertex -58.661797 1850.818481 -36.748684
   vertex -58.663910 1850.818481 -35.908184
   vertex -59.661793 1850.819336 -36.751198
  endloop
 endfacet
 facet normal 0.002514 0.000000 -0.999997
  outer loop
   vertex -59.661793 1850.819336 -36.751198
   vertex -59.660480 1852.325195 -36.751194
   vertex -58.661797 1850.818481 -36.748684
  endloop
 endfacet
 facet normal -0.999996 0.000871 -0.002514
  outer loop
   vertex -59.663906 1850.819336 -35.910702
   vertex -59.660480 1852.325195 -36.751194
   vertex -59.661793 1850.819336 -36.751198
  endloop
 endfacet
 facet normal -0.999996 0.000871 -0.002514
  outer loop
   vertex -59.662594 1852.325195 -35.910698
   vertex -59.660480 1852.325195 -36.751194
   vertex -59.663906 1850.819336 -35.910702
  endloop
 endfacet
 facet normal -0.002518 -0.000000 0.999997
  outer loop
   vertex -59.663906 1850.819336 -35.910702
   vertex -58.663910 1850.818481 -35.908184
   vertex -59.662594 1852.325195 -35.910698
  endloop
 endfacet
 facet normal -0.002518 -0.000000 0.999997
  outer loop
   vertex -59.662594 1852.325195 -35.910698
   vertex -58.663910 1850.818481 -35.908184
   vertex -58.662598 1852.324341 -35.908180
  endloop
 endfacet
 facet normal 0.999996 -0.000871 0.002514
  outer loop
   vertex -58.662598 1852.324341 -35.908180
   vertex -58.663910 1850.818481 -35.908184
   vertex -58.660484 1852.324341 -36.748680
  endloop
 endfacet
 facet normal 0.000854 1.000000 0.000002
  outer loop
   vertex -58.660484 1852.324341 -36.748680
   vertex -59.660480 1852.325195 -36.751194
   vertex -58.662598 1852.324341 -35.908180
  endloop
 endfacet
 facet normal 0.002514 0.000000 -0.999997
  outer loop
   vertex -58.661797 1850.818481 -36.748684
   vertex -59.660480 1852.325195 -36.751194
   vertex -58.660484 1852.324341 -36.748680
  endloop
 endfacet
 facet normal 0.999996 -0.000871 0.002514
  outer loop
   vertex -67.987976 1850.826660 -36.772137
   vertex -67.986664 1852.332520 -36.772133
   vertex -67.990089 1850.826660 -35.931641
  endloop
 endfacet
 facet normal 0.999996 -0.000871 0.002514
  outer loop
   vertex -67.990089 1850.826660 -35.931641
   vertex -67.986664 1852.332520 -36.772133
   vertex -67.988777 1852.332520 -35.931637
  endloop
 endfacet
 facet normal -0.002514 -0.000000 0.999997
  outer loop
   vertex -67.988777 1852.332520 -35.931637
   vertex -68.988777 1852.333374 -35.934151
   vertex -67.990089 1850.826660 -35.931641
  endloop
 endfacet
 facet normal 0.000854 1.000000 0.000002
  outer loop
   vertex -67.986664 1852.332520 -36.772133
   vertex -68.988777 1852.333374 -35.934151
   vertex -67.988777 1852.332520 -35.931637
  endloop
 endfacet
 facet normal 0.000854 1.000000 0.000002
  outer loop
   vertex -68.986664 1852.333374 -36.774651
   vertex -68.988777 1852.333374 -35.934151
   vertex -67.986664 1852.332520 -36.772133
  endloop
 endfacet
 facet normal 0.002518 -0.000002 -0.999997
  outer loop
   vertex -67.986664 1852.332520 -36.772133
   vertex -68.987976 1850.827515 -36.774651
   vertex -68.986664 1852.333374 -36.774651
  endloop
 endfacet
 facet normal -0.999996 0.000871 -0.002514
  outer loop
   vertex -68.986664 1852.333374 -36.774651
   vertex -68.987976 1850.827515 -36.774651
   vertex -68.988777 1852.333374 -35.934151
  endloop
 endfacet
 facet normal -0.999996 0.000871 -0.002514
  outer loop
   vertex -68.988777 1852.333374 -35.934151
   vertex -68.987976 1850.827515 -36.774651
   vertex -68.990089 1850.827515 -35.934155
  endloop
 endfacet
 facet normal -0.002514 -0.000000 0.999997
  outer loop
   vertex -68.990089 1850.827515 -35.934155
   vertex -67.990089 1850.826660 -35.931641
   vertex -68.988777 1852.333374 -35.934151
  endloop
 endfacet
 facet normal -0.000854 -1.000000 -0.000002
  outer loop
   vertex -68.987976 1850.827515 -36.774651
   vertex -67.990089 1850.826660 -35.931641
   vertex -68.990089 1850.827515 -35.934155
  endloop
 endfacet
 facet normal -0.000854 -1.000000 -0.000002
  outer loop
   vertex -67.987976 1850.826660 -36.772137
   vertex -67.990089 1850.826660 -35.931641
   vertex -68.987976 1850.827515 -36.774651
  endloop
 endfacet
 facet normal 0.002514 0.000000 -0.999997
  outer loop
   vertex -68.987976 1850.827515 -36.774651
   vertex -67.986664 1852.332520 -36.772133
   vertex -67.987976 1850.826660 -36.772137
  endloop
 endfacet
 facet normal 0.002515 -0.000002 -0.999997
  outer loop
   vertex -68.448479 1852.213135 -36.754589
   vertex -68.448387 1852.315796 -36.754589
   vertex -59.198879 1852.307739 -36.731327
  endloop
 endfacet
 facet normal 0.000871 1.000000 0.000002
  outer loop
   vertex -59.198879 1852.307739 -36.731327
   vertex -68.448387 1852.315796 -36.754589
   vertex -68.448723 1852.315796 -36.621170
  endloop
 endfacet
 facet normal 0.000871 1.000000 0.000002
  outer loop
   vertex -68.448723 1852.315796 -36.621170
   vertex -59.199215 1852.307739 -36.597908
   vertex -59.198879 1852.307739 -36.731327
  endloop
 endfacet
 facet normal -0.002034 0.359271 0.933231
  outer loop
   vertex -68.448784 1852.284424 -36.609093
   vertex -59.199215 1852.307739 -36.597908
   vertex -68.448723 1852.315796 -36.621170
  endloop
 endfacet
 facet normal -0.002034 0.359172 0.933269
  outer loop
   vertex -59.199272 1852.276367 -36.585835
   vertex -59.199215 1852.307739 -36.597908
   vertex -68.448784 1852.284424 -36.609093
  endloop
 endfacet
 facet normal 0.000871 1.000000 0.000002
  outer loop
   vertex -68.448784 1852.284424 -36.609093
   vertex -68.450226 1852.284424 -36.033939
   vertex -59.199272 1852.276367 -36.585835
  endloop
 endfacet
 facet normal 0.000871 1.000000 0.000002
  outer loop
   vertex -59.199272 1852.276367 -36.585835
   vertex -68.450226 1852.284424 -36.033939
   vertex -59.200722 1852.276367 -36.010677
  endloop
 endfacet
 facet normal 0.002660 0.359168 -0.933269
  outer loop
   vertex -59.200722 1852.276367 -36.010677
   vertex -68.450226 1852.284424 -36.033939
   vertex -68.450233 1852.315796 -36.021866
  endloop
 endfacet
 facet normal 0.002660 0.359168 -0.933269
  outer loop
   vertex -68.450233 1852.315796 -36.021866
   vertex -59.200722 1852.307739 -35.998604
   vertex -59.200722 1852.276367 -36.010677
  endloop
 endfacet
 facet normal 0.000871 1.000000 0.000002
  outer loop
   vertex -68.450401 1852.315796 -35.955666
   vertex -59.200722 1852.307739 -35.998604
   vertex -68.450233 1852.315796 -36.021866
  endloop
 endfacet
 facet normal 0.000871 1.000000 0.000002
  outer loop
   vertex -59.200890 1852.307739 -35.932404
   vertex -59.200722 1852.307739 -35.998604
   vertex -68.450401 1852.315796 -35.955666
  endloop
 endfacet
 facet normal -0.002515 -0.000000 0.999997
  outer loop
   vertex -68.450401 1852.315796 -35.955666
   vertex -68.451683 1850.844116 -35.955669
   vertex -59.200890 1852.307739 -35.932404
  endloop
 endfacet
 facet normal -0.002515 -0.000000 0.999997
  outer loop
   vertex -59.200890 1852.307739 -35.932404
   vertex -68.451683 1850.844116 -35.955669
   vertex -59.202175 1850.836060 -35.932407
  endloop
 endfacet
 facet normal -0.000871 -1.000000 -0.000002
  outer loop
   vertex -59.202175 1850.836060 -35.932407
   vertex -68.451683 1850.844116 -35.955669
   vertex -59.202007 1850.836060 -35.998608
  endloop
 endfacet
 facet normal -0.000854 -1.000000 -0.000002
  outer loop
   vertex -59.663906 1850.819336 -35.910702
   vertex -59.661793 1850.819336 -36.751198
   vertex -58.663910 1850.818481 -35.908184
  endloop
 endfacet
 facet normal 0.000854 1.000000 0.000002
  outer loop
   vertex -59.660480 1852.325195 -36.751194
   vertex -59.662594 1852.325195 -35.910698
   vertex -58.662598 1852.324341 -35.908180
  endloop
 endfacet
 facet normal -0.000871 -1.000000 -0.000002
  outer loop
   vertex -68.451683 1850.844116 -35.955669
   vertex -68.451515 1850.844116 -36.021866
   vertex -59.202007 1850.836060 -35.998608
  endloop
 endfacet
 facet normal -0.923529 0.383520 -0.002325
  outer loop
   vertex -69.506203 1851.580933 -33.994907
   vertex -69.508720 1851.580933 -32.994911
   vertex -69.212692 1852.287720 -33.994167
  endloop
 endfacet
 facet normal -0.923529 0.383520 -0.002325
  outer loop
   vertex -69.212692 1852.287720 -33.994167
   vertex -69.508720 1851.580933 -32.994911
   vertex -69.215210 1852.287720 -32.994171
  endloop
 endfacet
 facet normal -0.381832 0.924231 -0.000961
  outer loop
   vertex -69.215210 1852.287720 -32.994171
   vertex -68.505333 1852.579956 -33.992390
   vertex -69.212692 1852.287720 -33.994167
  endloop
 endfacet
 facet normal -0.381832 0.924231 -0.000961
  outer loop
   vertex -68.507851 1852.579956 -32.992393
   vertex -68.505333 1852.579956 -33.992390
   vertex -69.215210 1852.287720 -32.994171
  endloop
 endfacet
 facet normal 0.383429 0.923570 0.000965
  outer loop
   vertex -67.798485 1852.286499 -33.990612
   vertex -68.505333 1852.579956 -33.992390
   vertex -68.507851 1852.579956 -32.992393
  endloop
 endfacet
 facet normal 0.383429 0.923570 0.000965
  outer loop
   vertex -68.507851 1852.579956 -32.992393
   vertex -67.801003 1852.286499 -32.990616
   vertex -67.798485 1852.286499 -33.990612
  endloop
 endfacet
 facet normal 0.924217 0.381860 0.002327
  outer loop
   vertex -67.798485 1852.286499 -33.990612
   vertex -67.801003 1852.286499 -32.990616
   vertex -67.506210 1851.579102 -33.989876
  endloop
 endfacet
 facet normal 0.924217 0.381860 0.002327
  outer loop
   vertex -67.506210 1851.579102 -33.989876
   vertex -67.801003 1852.286499 -32.990616
   vertex -67.508728 1851.579102 -32.989880
  endloop
 endfacet
 facet normal 0.923529 -0.383520 0.002325
  outer loop
   vertex -67.508728 1851.579102 -32.989880
   vertex -67.799721 1850.872314 -33.990616
   vertex -67.506210 1851.579102 -33.989876
  endloop
 endfacet
 facet normal 0.923533 -0.383512 0.002318
  outer loop
   vertex -67.802231 1850.872314 -32.990620
   vertex -67.799721 1850.872314 -33.990616
   vertex -67.508728 1851.579102 -32.989880
  endloop
 endfacet
 facet normal 0.381968 -0.924175 0.000959
  outer loop
   vertex -68.507080 1850.579956 -33.992393
   vertex -67.799721 1850.872314 -33.990616
   vertex -67.802231 1850.872314 -32.990620
  endloop
 endfacet
 facet normal 0.381964 -0.924177 0.000962
  outer loop
   vertex -67.802231 1850.872314 -32.990620
   vertex -68.509598 1850.579956 -32.992397
   vertex -68.507080 1850.579956 -33.992393
  endloop
 endfacet
 facet normal -0.383565 -0.923513 -0.000966
  outer loop
   vertex -68.507080 1850.579956 -33.992393
   vertex -68.509598 1850.579956 -32.992397
   vertex -69.213928 1850.873535 -33.994171
  endloop
 endfacet
 facet normal -0.383565 -0.923513 -0.000966
  outer loop
   vertex -69.213928 1850.873535 -33.994171
   vertex -68.509598 1850.579956 -32.992397
   vertex -69.216446 1850.873535 -32.994175
  endloop
 endfacet
 facet normal -0.924217 -0.381860 -0.002327
  outer loop
   vertex -69.216446 1850.873535 -32.994175
   vertex -69.506203 1851.580933 -33.994907
   vertex -69.213928 1850.873535 -33.994171
  endloop
 endfacet
 facet normal -0.924217 -0.381860 -0.002327
  outer loop
   vertex -69.508720 1851.580933 -32.994911
   vertex -69.506203 1851.580933 -33.994907
   vertex -69.216446 1850.873535 -32.994175
  endloop
 endfacet
 facet normal 0.923580 -0.383399 0.002322
  outer loop
   vertex -58.977127 1851.394897 -34.958393
   vertex -58.901237 1851.571655 -35.958206
   vertex -58.903751 1851.571655 -34.958210
  endloop
 endfacet
 facet normal 0.924151 0.382020 0.002323
  outer loop
   vertex -58.903751 1851.571655 -34.958210
   vertex -58.901237 1851.571655 -35.958206
   vertex -58.974304 1851.748413 -35.958389
  endloop
 endfacet
 facet normal 0.924151 0.382020 0.002323
  outer loop
   vertex -58.974304 1851.748413 -35.958389
   vertex -58.976818 1851.748413 -34.958393
   vertex -58.903751 1851.571655 -34.958210
  endloop
 endfacet
 facet normal 0.383973 0.923344 0.000965
  outer loop
   vertex -59.151016 1851.821899 -35.958832
   vertex -58.976818 1851.748413 -34.958393
   vertex -58.974304 1851.748413 -35.958389
  endloop
 endfacet
 facet normal 0.383973 0.923344 0.000965
  outer loop
   vertex -59.153530 1851.821899 -34.958836
   vertex -58.976818 1851.748413 -34.958393
   vertex -59.151016 1851.821899 -35.958832
  endloop
 endfacet
 facet normal -0.382101 0.924120 -0.000961
  outer loop
   vertex -59.151016 1851.821899 -35.958832
   vertex -59.327858 1851.748779 -35.959278
   vertex -59.153530 1851.821899 -34.958836
  endloop
 endfacet
 facet normal -0.382101 0.924120 -0.000961
  outer loop
   vertex -59.153530 1851.821899 -34.958836
   vertex -59.327858 1851.748779 -35.959278
   vertex -59.330372 1851.748779 -34.959282
  endloop
 endfacet
 facet normal -0.923580 0.383399 -0.002322
  outer loop
   vertex -59.330372 1851.748779 -34.959282
   vertex -59.327858 1851.748779 -35.959278
   vertex -59.401234 1851.572021 -35.959461
  endloop
 endfacet
 facet normal -0.923580 0.383399 -0.002322
  outer loop
   vertex -59.401234 1851.572021 -35.959461
   vertex -59.403748 1851.572021 -34.959465
   vertex -59.330372 1851.748779 -34.959282
  endloop
 endfacet
 facet normal -0.924151 -0.382020 -0.002323
  outer loop
   vertex -59.328167 1851.395264 -35.959278
   vertex -59.403748 1851.572021 -34.959465
   vertex -59.401234 1851.572021 -35.959461
  endloop
 endfacet
 facet normal -0.924151 -0.382020 -0.002323
  outer loop
   vertex -59.330681 1851.395264 -34.959282
   vertex -59.403748 1851.572021 -34.959465
   vertex -59.328167 1851.395264 -35.959278
  endloop
 endfacet
 facet normal -0.383429 -0.923570 -0.000964
  outer loop
   vertex -59.328167 1851.395264 -35.959278
   vertex -59.151455 1851.321899 -35.958836
   vertex -59.330681 1851.395264 -34.959282
  endloop
 endfacet
 facet normal -0.383429 -0.923570 -0.000964
  outer loop
   vertex -59.330681 1851.395264 -34.959282
   vertex -59.151455 1851.321899 -35.958836
   vertex -59.153969 1851.321899 -34.958839
  endloop
 endfacet
 facet normal 0.381556 -0.924345 0.000959
  outer loop
   vertex -59.153969 1851.321899 -34.958839
   vertex -59.151455 1851.321899 -35.958836
   vertex -58.974613 1851.394897 -35.958389
  endloop
 endfacet
 facet normal 0.381556 -0.924345 0.000959
  outer loop
   vertex -58.974613 1851.394897 -35.958389
   vertex -58.977127 1851.394897 -34.958393
   vertex -59.153969 1851.321899 -34.958839
  endloop
 endfacet
 facet normal 0.923580 -0.383399 0.002322
  outer loop
   vertex -58.901237 1851.571655 -35.958206
   vertex -58.977127 1851.394897 -34.958393
   vertex -58.974613 1851.394897 -35.958389
  endloop
 endfacet
 facet normal 0.923529 -0.383520 0.002322
  outer loop
   vertex -58.452267 1850.864136 -32.967106
   vertex -58.156242 1851.570923 -33.966362
   vertex -58.158756 1851.570923 -32.966366
  endloop
 endfacet
 facet normal 0.924217 0.381860 0.002323
  outer loop
   vertex -58.158756 1851.570923 -32.966366
   vertex -58.156242 1851.570923 -33.966362
   vertex -58.448517 1852.278320 -33.967098
  endloop
 endfacet
 facet normal 0.924215 0.381864 0.002327
  outer loop
   vertex -58.448517 1852.278320 -33.967098
   vertex -58.451035 1852.278320 -32.967102
   vertex -58.158756 1851.570923 -32.966366
  endloop
 endfacet
 facet normal 0.383564 0.923514 0.000966
  outer loop
   vertex -59.155369 1852.571899 -33.968876
   vertex -58.451035 1852.278320 -32.967102
   vertex -58.448517 1852.278320 -33.967098
  endloop
 endfacet
 facet normal 0.383565 0.923513 0.000964
  outer loop
   vertex -59.157883 1852.571899 -32.968880
   vertex -58.451035 1852.278320 -32.967102
   vertex -59.155369 1852.571899 -33.968876
  endloop
 endfacet
 facet normal -0.381968 0.924175 -0.000960
  outer loop
   vertex -59.155369 1852.571899 -33.968876
   vertex -59.862728 1852.279541 -33.970654
   vertex -59.157883 1852.571899 -32.968880
  endloop
 endfacet
 facet normal -0.381968 0.924175 -0.000960
  outer loop
   vertex -59.157883 1852.571899 -32.968880
   vertex -59.862728 1852.279541 -33.970654
   vertex -59.865242 1852.279541 -32.970657
  endloop
 endfacet
 facet normal -0.923531 0.383516 -0.002322
  outer loop
   vertex -59.865242 1852.279541 -32.970657
   vertex -59.862728 1852.279541 -33.970654
   vertex -60.156235 1851.572754 -33.971394
  endloop
 endfacet
 facet normal -0.923529 0.383520 -0.002325
  outer loop
   vertex -60.156235 1851.572754 -33.971394
   vertex -60.158752 1851.572754 -32.971397
   vertex -59.865242 1852.279541 -32.970657
  endloop
 endfacet
 facet normal -0.924217 -0.381860 -0.002327
  outer loop
   vertex -59.863960 1850.865356 -33.970657
   vertex -60.158752 1851.572754 -32.971397
   vertex -60.156235 1851.572754 -33.971394
  endloop
 endfacet
 facet normal -0.924215 -0.381864 -0.002323
  outer loop
   vertex -59.866474 1850.865356 -32.970661
   vertex -60.158752 1851.572754 -32.971397
   vertex -59.863960 1850.865356 -33.970657
  endloop
 endfacet
 facet normal -0.383429 -0.923570 -0.000964
  outer loop
   vertex -59.863960 1850.865356 -33.970657
   vertex -59.157112 1850.571899 -33.968880
   vertex -59.866474 1850.865356 -32.970661
  endloop
 endfacet
 facet normal -0.383429 -0.923570 -0.000964
  outer loop
   vertex -59.866474 1850.865356 -32.970661
   vertex -59.157112 1850.571899 -33.968880
   vertex -59.159626 1850.571899 -32.968884
  endloop
 endfacet
 facet normal 0.381832 -0.924231 0.000960
  outer loop
   vertex -59.159626 1850.571899 -32.968884
   vertex -59.157112 1850.571899 -33.968880
   vertex -58.449753 1850.864136 -33.967102
  endloop
 endfacet
 facet normal 0.381832 -0.924231 0.000960
  outer loop
   vertex -58.449753 1850.864136 -33.967102
   vertex -58.452267 1850.864136 -32.967106
   vertex -59.159626 1850.571899 -32.968884
  endloop
 endfacet
 facet normal 0.923529 -0.383520 0.002322
  outer loop
   vertex -58.156242 1851.570923 -33.966362
   vertex -58.452267 1850.864136 -32.967106
   vertex -58.449753 1850.864136 -33.967102
  endloop
 endfacet
 facet normal 0.760531 -0.315234 -0.567644
  outer loop
   vertex -58.449753 1850.864136 -33.967102
   vertex -58.903725 1851.571655 -34.968246
   vertex -58.156242 1851.570923 -33.966362
  endloop
 endfacet
 facet normal 0.761070 0.314034 -0.567587
  outer loop
   vertex -58.156242 1851.570923 -33.966362
   vertex -58.903725 1851.571655 -34.968246
   vertex -58.976795 1851.748413 -34.968430
  endloop
 endfacet
 facet normal 0.761099 0.313871 -0.567639
  outer loop
   vertex -58.976795 1851.748413 -34.968430
   vertex -58.448517 1852.278320 -33.967098
   vertex -58.156242 1851.570923 -33.966362
  endloop
 endfacet
 facet normal 0.317021 0.758882 -0.568855
  outer loop
   vertex -59.153507 1851.821899 -34.968876
   vertex -58.448517 1852.278320 -33.967098
   vertex -58.976795 1851.748413 -34.968430
  endloop
 endfacet
 facet normal 0.316710 0.759101 -0.568736
  outer loop
   vertex -59.155369 1852.571899 -33.968876
   vertex -58.448517 1852.278320 -33.967098
   vertex -59.153507 1851.821899 -34.968876
  endloop
 endfacet
 facet normal -0.312662 0.759612 -0.570291
  outer loop
   vertex -59.153507 1851.821899 -34.968876
   vertex -59.330345 1851.748779 -34.969318
   vertex -59.155369 1852.571899 -33.968876
  endloop
 endfacet
 facet normal -0.312531 0.759635 -0.570333
  outer loop
   vertex -59.155369 1852.571899 -33.968876
   vertex -59.330345 1851.748779 -34.969318
   vertex -59.862728 1852.279541 -33.970654
  endloop
 endfacet
 facet normal -0.757716 0.315164 -0.571435
  outer loop
   vertex -59.862728 1852.279541 -33.970654
   vertex -59.330345 1851.748779 -34.969318
   vertex -59.403725 1851.572021 -34.969505
  endloop
 endfacet
 facet normal -0.757667 0.315234 -0.571462
  outer loop
   vertex -59.403725 1851.572021 -34.969505
   vertex -60.156235 1851.572754 -33.971394
   vertex -59.862728 1852.279541 -33.970654
  endloop
 endfacet
 facet normal -0.758204 -0.314041 -0.571405
  outer loop
   vertex -59.330654 1851.395264 -34.969318
   vertex -60.156235 1851.572754 -33.971394
   vertex -59.403725 1851.572021 -34.969505
  endloop
 endfacet
 facet normal -0.758233 -0.313873 -0.571459
  outer loop
   vertex -59.863960 1850.865356 -33.970657
   vertex -60.156235 1851.572754 -33.971394
   vertex -59.330654 1851.395264 -34.969318
  endloop
 endfacet
 facet normal -0.313734 -0.759128 -0.570347
  outer loop
   vertex -59.330654 1851.395264 -34.969318
   vertex -59.153942 1851.321899 -34.968876
   vertex -59.863960 1850.865356 -33.970657
  endloop
 endfacet
 facet normal -0.313729 -0.759131 -0.570345
  outer loop
   vertex -59.863960 1850.865356 -33.970657
   vertex -59.153942 1851.321899 -34.968876
   vertex -59.157112 1850.571899 -33.968880
  endloop
 endfacet
 facet normal 0.315052 -0.759737 -0.568807
  outer loop
   vertex -59.157112 1850.571899 -33.968880
   vertex -59.153942 1851.321899 -34.968876
   vertex -58.977104 1851.394897 -34.968430
  endloop
 endfacet
 facet normal 0.315288 -0.759697 -0.568731
  outer loop
   vertex -58.977104 1851.394897 -34.968430
   vertex -58.449753 1850.864136 -33.967102
   vertex -59.157112 1850.571899 -33.968880
  endloop
 endfacet
 facet normal 0.760582 -0.315161 -0.567616
  outer loop
   vertex -58.903725 1851.571655 -34.968246
   vertex -58.449753 1850.864136 -33.967102
   vertex -58.977104 1851.394897 -34.968430
  endloop
 endfacet
 facet normal -0.923573 0.383416 -0.002318
  outer loop
   vertex -68.751205 1851.580200 -35.982975
   vertex -68.753716 1851.580200 -34.982979
   vertex -68.677826 1851.756958 -35.982792
  endloop
 endfacet
 facet normal -0.923573 0.383416 -0.002318
  outer loop
   vertex -68.677826 1851.756958 -35.982792
   vertex -68.753716 1851.580200 -34.982979
   vertex -68.680336 1851.756958 -34.982796
  endloop
 endfacet
 facet normal -0.381556 0.924345 -0.000958
  outer loop
   vertex -68.680336 1851.756958 -34.982796
   vertex -68.500984 1851.829956 -35.982346
   vertex -68.677826 1851.756958 -35.982792
  endloop
 endfacet
 facet normal -0.381570 0.924340 -0.000961
  outer loop
   vertex -68.503502 1851.829956 -34.982349
   vertex -68.500984 1851.829956 -35.982346
   vertex -68.680336 1851.756958 -34.982796
  endloop
 endfacet
 facet normal 0.383429 0.923570 0.000965
  outer loop
   vertex -68.324272 1851.756592 -35.981903
   vertex -68.500984 1851.829956 -35.982346
   vertex -68.503502 1851.829956 -34.982349
  endloop
 endfacet
 facet normal 0.383429 0.923570 0.000965
  outer loop
   vertex -68.503502 1851.829956 -34.982349
   vertex -68.326790 1851.756592 -34.981907
   vertex -68.324272 1851.756592 -35.981903
  endloop
 endfacet
 facet normal 0.924151 0.382020 0.002327
  outer loop
   vertex -68.324272 1851.756592 -35.981903
   vertex -68.326790 1851.756592 -34.981907
   vertex -68.251205 1851.579834 -35.981720
  endloop
 endfacet
 facet normal 0.924137 0.382055 0.002320
  outer loop
   vertex -68.251205 1851.579834 -35.981720
   vertex -68.326790 1851.756592 -34.981907
   vertex -68.253716 1851.579834 -34.981724
  endloop
 endfacet
 facet normal 0.923587 -0.383382 0.002318
  outer loop
   vertex -68.253716 1851.579834 -34.981724
   vertex -68.324577 1851.403076 -35.981903
   vertex -68.251205 1851.579834 -35.981720
  endloop
 endfacet
 facet normal 0.923573 -0.383416 0.002325
  outer loop
   vertex -68.327095 1851.403076 -34.981907
   vertex -68.324577 1851.403076 -35.981903
   vertex -68.253716 1851.579834 -34.981724
  endloop
 endfacet
 facet normal 0.382101 -0.924120 0.000962
  outer loop
   vertex -68.501419 1851.329956 -35.982349
   vertex -68.324577 1851.403076 -35.981903
   vertex -68.327095 1851.403076 -34.981907
  endloop
 endfacet
 facet normal 0.382101 -0.924120 0.000962
  outer loop
   vertex -68.327095 1851.403076 -34.981907
   vertex -68.503937 1851.329956 -34.982349
   vertex -68.501419 1851.329956 -35.982349
  endloop
 endfacet
 facet normal -0.383973 -0.923344 -0.000967
  outer loop
   vertex -68.501419 1851.329956 -35.982349
   vertex -68.503937 1851.329956 -34.982349
   vertex -68.678131 1851.403442 -35.982792
  endloop
 endfacet
 facet normal -0.383973 -0.923344 -0.000967
  outer loop
   vertex -68.678131 1851.403442 -35.982792
   vertex -68.503937 1851.329956 -34.982349
   vertex -68.680649 1851.403442 -34.982796
  endloop
 endfacet
 facet normal -0.924137 -0.382055 -0.002327
  outer loop
   vertex -68.680649 1851.403442 -34.982796
   vertex -68.751205 1851.580200 -35.982975
   vertex -68.678131 1851.403442 -35.982792
  endloop
 endfacet
 facet normal -0.924151 -0.382020 -0.002320
  outer loop
   vertex -68.753716 1851.580200 -34.982979
   vertex -68.751205 1851.580200 -35.982975
   vertex -68.680649 1851.403442 -34.982796
  endloop
 endfacet
 facet normal -0.758164 -0.313996 -0.571484
  outer loop
   vertex -68.680626 1851.403442 -34.992832
   vertex -69.213928 1850.873535 -33.994171
   vertex -68.753693 1851.580200 -34.993015
  endloop
 endfacet
 facet normal -0.758246 -0.313878 -0.571439
  outer loop
   vertex -68.753693 1851.580200 -34.993015
   vertex -69.213928 1850.873535 -33.994171
   vertex -69.506203 1851.580933 -33.994907
  endloop
 endfacet
 facet normal -0.757690 0.315141 -0.571482
  outer loop
   vertex -69.506203 1851.580933 -33.994907
   vertex -68.680313 1851.756958 -34.992832
   vertex -68.753693 1851.580200 -34.993015
  endloop
 endfacet
 facet normal -0.757673 0.315240 -0.571450
  outer loop
   vertex -69.212692 1852.287720 -33.994167
   vertex -68.680313 1851.756958 -34.992832
   vertex -69.506203 1851.580933 -33.994907
  endloop
 endfacet
 facet normal -0.312216 0.759818 -0.570261
  outer loop
   vertex -68.503471 1851.829956 -34.992390
   vertex -68.680313 1851.756958 -34.992832
   vertex -69.212692 1852.287720 -33.994167
  endloop
 endfacet
 facet normal -0.312417 0.759677 -0.570339
  outer loop
   vertex -69.212692 1852.287720 -33.994167
   vertex -68.505333 1852.579956 -33.992390
   vertex -68.503471 1851.829956 -34.992390
  endloop
 endfacet
 facet normal 0.316599 0.759130 -0.568758
  outer loop
   vertex -68.503471 1851.829956 -34.992390
   vertex -68.505333 1852.579956 -33.992390
   vertex -68.326759 1851.756592 -34.991943
  endloop
 endfacet
 facet normal 0.316593 0.759131 -0.568760
  outer loop
   vertex -68.326759 1851.756592 -34.991943
   vertex -68.505333 1852.579956 -33.992390
   vertex -67.798485 1852.286499 -33.990612
  endloop
 endfacet
 facet normal 0.761026 0.313999 -0.567665
  outer loop
   vertex -67.798485 1852.286499 -33.990612
   vertex -68.253693 1851.579834 -34.991760
   vertex -68.326759 1851.756592 -34.991943
  endloop
 endfacet
 facet normal 0.761112 0.313877 -0.567618
  outer loop
   vertex -67.506210 1851.579102 -33.989876
   vertex -68.253693 1851.579834 -34.991760
   vertex -67.798485 1852.286499 -33.990612
  endloop
 endfacet
 facet normal 0.760553 -0.315149 -0.567661
  outer loop
   vertex -68.327072 1851.403076 -34.991943
   vertex -68.253693 1851.579834 -34.991760
   vertex -67.506210 1851.579102 -33.989876
  endloop
 endfacet
 facet normal 0.760538 -0.315237 -0.567633
  outer loop
   vertex -67.506210 1851.579102 -33.989876
   vertex -67.799721 1850.872314 -33.990616
   vertex -68.327072 1851.403076 -34.991943
  endloop
 endfacet
 facet normal 0.315502 -0.759573 -0.568777
  outer loop
   vertex -68.327072 1851.403076 -34.991943
   vertex -67.799721 1850.872314 -33.990616
   vertex -68.503914 1851.329956 -34.992390
  endloop
 endfacet
 facet normal 0.315398 -0.759646 -0.568738
  outer loop
   vertex -68.503914 1851.329956 -34.992390
   vertex -67.799721 1850.872314 -33.990616
   vertex -68.507080 1850.579956 -33.992393
  endloop
 endfacet
 facet normal -0.314207 -0.759005 -0.570251
  outer loop
   vertex -68.507080 1850.579956 -33.992393
   vertex -68.680626 1851.403442 -34.992832
   vertex -68.503914 1851.329956 -34.992390
  endloop
 endfacet
 facet normal -0.313834 -0.759070 -0.570369
  outer loop
   vertex -69.213928 1850.873535 -33.994171
   vertex -68.680626 1851.403442 -34.992832
   vertex -68.507080 1850.579956 -33.992393
  endloop
 endfacet
endsolid