solid stl file generated from DOUG
 facet normal -0.595814 0.000518 0.803122
  outer loop
   vertex -59.139900 1790.801025 -52.701149
   vertex -59.249275 1790.801147 -52.782291
   vertex -59.272358 1764.342651 -52.782349
  endloop
 endfacet
 facet normal -0.999997 0.000872 -0.002487
  outer loop
   vertex -59.272358 1764.342651 -52.782349
   vertex -59.249275 1790.801147 -52.782291
   vertex -59.272102 1764.342651 -52.885101
  endloop
 endfacet
 facet normal -0.591771 0.000518 -0.806106
  outer loop
   vertex -59.165760 1764.342529 -51.596668
   vertex -59.275543 1764.342651 -51.516075
   vertex -59.252460 1790.801147 -51.516022
  endloop
 endfacet
 facet normal -0.999996 0.000872 -0.002524
  outer loop
   vertex -59.252460 1790.801147 -51.516022
   vertex -59.275543 1764.342651 -51.516075
   vertex -59.275803 1764.342651 -51.413322
  endloop
 endfacet
 facet normal -0.999996 0.000872 -0.002524
  outer loop
   vertex -59.275803 1764.342651 -51.413322
   vertex -59.252720 1790.801147 -51.413265
   vertex -59.252460 1790.801147 -51.516022
  endloop
 endfacet
 facet normal -0.934335 0.000814 0.356396
  outer loop
   vertex -58.543079 1764.342041 -51.411480
   vertex -58.519997 1790.800537 -51.411423
   vertex -58.555077 1764.342041 -51.442932
  endloop
 endfacet
 facet normal -0.934349 0.000814 0.356358
  outer loop
   vertex -58.555077 1764.342041 -51.442932
   vertex -58.519997 1790.800537 -51.411423
   vertex -58.531994 1790.800537 -51.442879
  endloop
 endfacet
 facet normal -0.002514 0.000000 0.999997
  outer loop
   vertex -58.531994 1790.800537 -51.442879
   vertex -59.107147 1790.801025 -51.444324
   vertex -58.555077 1764.342041 -51.442932
  endloop
 endfacet
 facet normal -0.595832 0.000518 0.803109
  outer loop
   vertex -59.272358 1764.342651 -52.782349
   vertex -59.162983 1764.342529 -52.701202
   vertex -59.139900 1790.801025 -52.701149
  endloop
 endfacet
 facet normal -0.999996 0.000872 -0.002514
  outer loop
   vertex -59.139900 1790.801025 -52.701149
   vertex -59.162983 1764.342529 -52.701202
   vertex -59.165760 1764.342529 -51.596668
  endloop
 endfacet
 facet normal -0.999996 0.000872 -0.002514
  outer loop
   vertex -59.165760 1764.342529 -51.596668
   vertex -59.142677 1790.801025 -51.596615
   vertex -59.139900 1790.801025 -52.701149
  endloop
 endfacet
 facet normal -0.591771 0.000518 -0.806106
  outer loop
   vertex -59.252460 1790.801147 -51.516022
   vertex -59.142677 1790.801025 -51.596615
   vertex -59.165760 1764.342529 -51.596668
  endloop
 endfacet
 facet normal -0.002487 0.000000 0.999997
  outer loop
   vertex -59.252720 1790.801147 -51.413265
   vertex -59.275803 1764.342651 -51.413322
   vertex -59.119301 1790.801025 -51.412933
  endloop
 endfacet
 facet normal -0.002516 0.000000 0.999997
  outer loop
   vertex -59.119301 1790.801025 -51.412933
   vertex -59.275803 1764.342651 -51.413322
   vertex -59.142384 1764.342529 -51.412987
  endloop
 endfacet
 facet normal 0.932546 -0.000814 0.361051
  outer loop
   vertex -59.142384 1764.342529 -51.412987
   vertex -59.107147 1790.801025 -51.444324
   vertex -59.119301 1790.801025 -51.412933
  endloop
 endfacet
 facet normal 0.932546 -0.000814 0.361051
  outer loop
   vertex -59.130230 1764.342529 -51.444378
   vertex -59.107147 1790.801025 -51.444324
   vertex -59.142384 1764.342529 -51.412987
  endloop
 endfacet
 facet normal -0.002514 0.000000 0.999997
  outer loop
   vertex -58.555077 1764.342041 -51.442932
   vertex -59.107147 1790.801025 -51.444324
   vertex -59.130230 1764.342529 -51.444378
  endloop
 endfacet
 facet normal -0.000871 -1.000000 -0.000002
  outer loop
   vertex -59.291130 1763.927368 -52.902191
   vertex -58.454418 1763.926636 -51.394215
   vertex -59.294914 1763.927368 -51.396328
  endloop
 endfacet
 facet normal -0.002514 0.000002 0.999997
  outer loop
   vertex -59.294914 1763.927368 -51.396328
   vertex -58.454418 1763.926636 -51.394215
   vertex -59.294044 1764.927368 -51.396328
  endloop
 endfacet
 facet normal -0.999996 0.000870 -0.002515
  outer loop
   vertex -59.294044 1764.927368 -51.396328
   vertex -59.290257 1764.927368 -52.902187
   vertex -59.294914 1763.927368 -51.396328
  endloop
 endfacet
 facet normal 0.000871 1.000000 0.000002
  outer loop
   vertex -58.453545 1764.926636 -51.394211
   vertex -59.290257 1764.927368 -52.902187
   vertex -59.294044 1764.927368 -51.396328
  endloop
 endfacet
 facet normal 0.000871 1.000000 0.000002
  outer loop
   vertex -58.449757 1764.926636 -52.900074
   vertex -59.290257 1764.927368 -52.902187
   vertex -58.453545 1764.926636 -51.394211
  endloop
 endfacet
 facet normal 0.999996 -0.000874 0.002515
  outer loop
   vertex -58.453545 1764.926636 -51.394211
   vertex -58.454418 1763.926636 -51.394215
   vertex -58.449757 1764.926636 -52.900074
  endloop
 endfacet
 facet normal 0.999996 -0.000874 0.002515
  outer loop
   vertex -58.449757 1764.926636 -52.900074
   vertex -58.454418 1763.926636 -51.394215
   vertex -58.450630 1763.926636 -52.900078
  endloop
 endfacet
 facet normal -0.000871 -1.000000 -0.000002
  outer loop
   vertex -58.450630 1763.926636 -52.900078
   vertex -58.454418 1763.926636 -51.394215
   vertex -59.291130 1763.927368 -52.902191
  endloop
 endfacet
 facet normal 0.002514 0.000002 -0.999997
  outer loop
   vertex -59.291130 1763.927368 -52.902191
   vertex -59.290257 1764.927368 -52.902187
   vertex -58.450630 1763.926636 -52.900078
  endloop
 endfacet
 facet normal -0.999996 0.000874 -0.002513
  outer loop
   vertex -59.294914 1763.927368 -51.396328
   vertex -59.290257 1764.927368 -52.902187
   vertex -59.291130 1763.927368 -52.902191
  endloop
 endfacet
 facet normal -0.000871 -1.000000 -0.000002
  outer loop
   vertex -59.271980 1790.216431 -51.396275
   vertex -59.268192 1790.216431 -52.902138
   vertex -58.431480 1790.215698 -51.394161
  endloop
 endfacet
 facet normal -0.000871 -1.000000 -0.000002
  outer loop
   vertex -58.431480 1790.215698 -51.394161
   vertex -59.268192 1790.216431 -52.902138
   vertex -58.427692 1790.215698 -52.900024
  endloop
 endfacet
 facet normal 0.999996 -0.000870 0.002515
  outer loop
   vertex -58.427692 1790.215698 -52.900024
   vertex -58.426823 1791.215698 -52.900021
   vertex -58.431480 1790.215698 -51.394161
  endloop
 endfacet
 facet normal 0.002514 0.000002 -0.999997
  outer loop
   vertex -59.268192 1790.216431 -52.902138
   vertex -58.426823 1791.215698 -52.900021
   vertex -58.427692 1790.215698 -52.900024
  endloop
 endfacet
 facet normal 0.002514 0.000002 -0.999997
  outer loop
   vertex -59.267319 1791.216431 -52.902134
   vertex -58.426823 1791.215698 -52.900021
   vertex -59.268192 1790.216431 -52.902138
  endloop
 endfacet
 facet normal -0.999996 0.000874 -0.002515
  outer loop
   vertex -59.268192 1790.216431 -52.902138
   vertex -59.271107 1791.216431 -51.396271
   vertex -59.267319 1791.216431 -52.902134
  endloop
 endfacet
 facet normal 0.000871 1.000000 0.000002
  outer loop
   vertex -59.267319 1791.216431 -52.902134
   vertex -59.271107 1791.216431 -51.396271
   vertex -58.426823 1791.215698 -52.900021
  endloop
 endfacet
 facet normal 0.000871 1.000000 0.000002
  outer loop
   vertex -58.426823 1791.215698 -52.900021
   vertex -59.271107 1791.216431 -51.396271
   vertex -58.430607 1791.215698 -51.394157
  endloop
 endfacet
 facet normal 0.999996 -0.000874 0.002513
  outer loop
   vertex -58.430607 1791.215698 -51.394157
   vertex -58.431480 1790.215698 -51.394161
   vertex -58.426823 1791.215698 -52.900021
  endloop
 endfacet
 facet normal -0.002514 -0.000002 0.999997
  outer loop
   vertex -59.271107 1791.216431 -51.396271
   vertex -58.431480 1790.215698 -51.394161
   vertex -58.430607 1791.215698 -51.394157
  endloop
 endfacet
 facet normal -0.002514 -0.000002 0.999997
  outer loop
   vertex -59.271980 1790.216431 -51.396275
   vertex -58.431480 1790.215698 -51.394161
   vertex -59.271107 1791.216431 -51.396271
  endloop
 endfacet
 facet normal -0.999996 0.000874 -0.002515
  outer loop
   vertex -59.271107 1791.216431 -51.396271
   vertex -59.268192 1790.216431 -52.902138
   vertex -59.271980 1790.216431 -51.396275
  endloop
 endfacet
 facet normal -0.999996 0.000873 -0.002524
  outer loop
   vertex -59.249275 1790.801147 -52.782291
   vertex -59.249016 1790.801147 -52.885048
   vertex -59.272102 1764.342651 -52.885101
  endloop
 endfacet
 facet normal 0.002516 -0.000000 -0.999997
  outer loop
   vertex -59.272102 1764.342651 -52.885101
   vertex -59.249016 1790.801147 -52.885048
   vertex -59.115601 1790.801025 -52.884712
  endloop
 endfacet
 facet normal 0.002516 -0.000000 -0.999997
  outer loop
   vertex -59.115601 1790.801025 -52.884712
   vertex -59.138683 1764.342529 -52.884766
   vertex -59.272102 1764.342651 -52.885101
  endloop
 endfacet
 facet normal 0.934335 -0.000814 -0.356396
  outer loop
   vertex -59.103603 1790.801025 -52.853260
   vertex -59.138683 1764.342529 -52.884766
   vertex -59.115601 1790.801025 -52.884712
  endloop
 endfacet
 facet normal 0.934335 -0.000814 -0.356396
  outer loop
   vertex -59.126686 1764.342529 -52.853313
   vertex -59.138683 1764.342529 -52.884766
   vertex -59.103603 1790.801025 -52.853260
  endloop
 endfacet
 facet normal 0.002520 -0.000000 -0.999997
  outer loop
   vertex -59.103603 1790.801025 -52.853260
   vertex -58.528450 1790.800537 -52.851810
   vertex -59.126686 1764.342529 -52.853313
  endloop
 endfacet
 facet normal 0.002514 -0.000000 -0.999997
  outer loop
   vertex -59.126686 1764.342529 -52.853313
   vertex -58.528450 1790.800537 -52.851810
   vertex -58.551533 1764.342041 -52.851868
  endloop
 endfacet
 facet normal -0.932522 0.000814 -0.361112
  outer loop
   vertex -58.551533 1764.342041 -52.851868
   vertex -58.528450 1790.800537 -52.851810
   vertex -58.516293 1790.800537 -52.883205
  endloop
 endfacet
 facet normal -0.932546 0.000814 -0.361051
  outer loop
   vertex -58.516293 1790.800537 -52.883205
   vertex -58.539379 1764.342041 -52.883259
   vertex -58.551533 1764.342041 -52.851868
  endloop
 endfacet
 facet normal 0.002536 -0.000000 -0.999997
  outer loop
   vertex -58.450096 1790.800415 -52.883038
   vertex -58.539379 1764.342041 -52.883259
   vertex -58.516293 1790.800537 -52.883205
  endloop
 endfacet
 facet normal 0.002535 -0.000000 -0.999997
  outer loop
   vertex -58.473179 1764.341919 -52.883091
   vertex -58.539379 1764.342041 -52.883259
   vertex -58.450096 1790.800415 -52.883038
  endloop
 endfacet
 facet normal 0.999996 -0.000872 0.002514
  outer loop
   vertex -58.450096 1790.800415 -52.883038
   vertex -58.453796 1790.800415 -51.411259
   vertex -58.473179 1764.341919 -52.883091
  endloop
 endfacet
 facet normal 0.999996 -0.000872 0.002514
  outer loop
   vertex -58.473179 1764.341919 -52.883091
   vertex -58.453796 1790.800415 -51.411259
   vertex -58.476879 1764.341919 -51.411312
  endloop
 endfacet
 facet normal -0.002535 0.000000 0.999997
  outer loop
   vertex -58.476879 1764.341919 -51.411312
   vertex -58.453796 1790.800415 -51.411259
   vertex -58.543079 1764.342041 -51.411480
  endloop
 endfacet
 facet normal -0.002519 -0.000002 0.999997
  outer loop
   vertex -58.453545 1764.926636 -51.394211
   vertex -59.294044 1764.927368 -51.396328
   vertex -58.454418 1763.926636 -51.394215
  endloop
 endfacet
 facet normal 0.002514 0.000002 -0.999997
  outer loop
   vertex -59.290257 1764.927368 -52.902187
   vertex -58.449757 1764.926636 -52.900074
   vertex -58.450630 1763.926636 -52.900078
  endloop
 endfacet
 facet normal -0.002478 -0.000000 0.999997
  outer loop
   vertex -58.453796 1790.800415 -51.411259
   vertex -58.519997 1790.800537 -51.411423
   vertex -58.543079 1764.342041 -51.411480
  endloop
 endfacet
 facet normal -0.568179 0.759988 -0.315580
  outer loop
   vertex -57.488426 1790.930298 -52.144726
   vertex -56.487778 1791.679443 -52.142208
   vertex -57.488045 1790.857178 -52.321503
  endloop
 endfacet
 facet normal -0.568061 0.759925 -0.315944
  outer loop
   vertex -57.488045 1790.857178 -52.321503
   vertex -56.487778 1791.679443 -52.142208
   vertex -56.486256 1791.386597 -52.849316
  endloop
 endfacet
 facet normal -0.567320 0.314908 -0.760908
  outer loop
   vertex -56.486256 1791.386597 -52.849316
   vertex -57.488018 1790.680298 -52.394726
   vertex -57.488045 1790.857178 -52.321503
  endloop
 endfacet
 facet normal -0.567365 0.315025 -0.760826
  outer loop
   vertex -56.486134 1790.679443 -53.142208
   vertex -57.488018 1790.680298 -52.394726
   vertex -56.486256 1791.386597 -52.849316
  endloop
 endfacet
 facet normal -0.567894 -0.314094 -0.760816
  outer loop
   vertex -57.488354 1790.503540 -52.321503
   vertex -57.488018 1790.680298 -52.394726
   vertex -56.486134 1790.679443 -53.142208
  endloop
 endfacet
 facet normal -0.567897 -0.314086 -0.760817
  outer loop
   vertex -56.486134 1790.679443 -53.142208
   vertex -56.487488 1789.972412 -52.849316
   vertex -57.488354 1790.503540 -52.321503
  endloop
 endfacet
 facet normal -0.569392 -0.758878 -0.316065
  outer loop
   vertex -57.488354 1790.503540 -52.321503
   vertex -56.487488 1789.972412 -52.849316
   vertex -57.488865 1790.430298 -52.144726
  endloop
 endfacet
 facet normal -0.569389 -0.758882 -0.316059
  outer loop
   vertex -57.488865 1790.430298 -52.144726
   vertex -56.487488 1789.972412 -52.849316
   vertex -56.489521 1789.679443 -52.142212
  endloop
 endfacet
 facet normal -0.570970 -0.758880 0.313199
  outer loop
   vertex -56.489521 1789.679443 -52.142212
   vertex -57.489243 1790.503540 -51.967949
   vertex -57.488865 1790.430298 -52.144726
  endloop
 endfacet
 facet normal -0.570973 -0.758881 0.313192
  outer loop
   vertex -56.491043 1789.972412 -51.435108
   vertex -57.489243 1790.503540 -51.967949
   vertex -56.489521 1789.679443 -52.142212
  endloop
 endfacet
 facet normal -0.571716 -0.314085 0.757952
  outer loop
   vertex -57.489273 1790.680298 -51.894726
   vertex -57.489243 1790.503540 -51.967949
   vertex -56.491043 1789.972412 -51.435108
  endloop
 endfacet
 facet normal -0.571716 -0.314085 0.757952
  outer loop
   vertex -56.491043 1789.972412 -51.435108
   vertex -56.491165 1790.679443 -51.142216
   vertex -57.489273 1790.680298 -51.894726
  endloop
 endfacet
 facet normal -0.571216 0.314875 0.758002
  outer loop
   vertex -57.489273 1790.680298 -51.894726
   vertex -56.491165 1790.679443 -51.142216
   vertex -57.488937 1790.857178 -51.967949
  endloop
 endfacet
 facet normal -0.571165 0.315032 0.757975
  outer loop
   vertex -57.488937 1790.857178 -51.967949
   vertex -56.491165 1790.679443 -51.142216
   vertex -56.489811 1791.386597 -51.435104
  endloop
 endfacet
 facet normal -0.569568 0.760114 0.312759
  outer loop
   vertex -56.489811 1791.386597 -51.435104
   vertex -57.488426 1790.930298 -52.144726
   vertex -57.488937 1790.857178 -51.967949
  endloop
 endfacet
 facet normal -0.569690 0.759894 0.313072
  outer loop
   vertex -56.487778 1791.679443 -52.142208
   vertex -57.488426 1790.930298 -52.144726
   vertex -56.489811 1791.386597 -51.435104
  endloop
 endfacet
 facet normal 0.001752 0.924067 -0.382226
  outer loop
   vertex -58.501263 1764.711182 -52.147270
   vertex -57.501266 1764.710327 -52.144753
   vertex -58.500881 1764.638062 -52.324043
  endloop
 endfacet
 facet normal 0.001864 0.923845 -0.382763
  outer loop
   vertex -58.500881 1764.638062 -52.324043
   vertex -57.501266 1764.710327 -52.144753
   vertex -57.500885 1764.637085 -52.321529
  endloop
 endfacet
 facet normal 0.002696 0.382508 -0.923948
  outer loop
   vertex -57.500885 1764.637085 -52.321529
   vertex -58.500851 1764.461182 -52.397270
   vertex -58.500881 1764.638062 -52.324043
  endloop
 endfacet
 facet normal 0.002653 0.382717 -0.923862
  outer loop
   vertex -57.500854 1764.460327 -52.394753
   vertex -58.500851 1764.461182 -52.397270
   vertex -57.500885 1764.637085 -52.321529
  endloop
 endfacet
 facet normal 0.001999 -0.382720 -0.923862
  outer loop
   vertex -58.501190 1764.284424 -52.324047
   vertex -58.500851 1764.461182 -52.397270
   vertex -57.500854 1764.460327 -52.394753
  endloop
 endfacet
 facet normal 0.001999 -0.382720 -0.923862
  outer loop
   vertex -57.500854 1764.460327 -52.394753
   vertex -57.501194 1764.283569 -52.321529
   vertex -58.501190 1764.284424 -52.324047
  endloop
 endfacet
 facet normal 0.000174 -0.923845 -0.382767
  outer loop
   vertex -58.501190 1764.284424 -52.324047
   vertex -57.501194 1764.283569 -52.321529
   vertex -58.501698 1764.211182 -52.147270
  endloop
 endfacet
 facet normal 0.000173 -0.923842 -0.382774
  outer loop
   vertex -58.501698 1764.211182 -52.147270
   vertex -57.501194 1764.283569 -52.321529
   vertex -57.501701 1764.210327 -52.144756
  endloop
 endfacet
 facet normal -0.001752 -0.923845 0.382763
  outer loop
   vertex -57.501701 1764.210327 -52.144756
   vertex -58.502079 1764.284424 -51.970493
   vertex -58.501698 1764.211182 -52.147270
  endloop
 endfacet
 facet normal -0.001752 -0.923845 0.382763
  outer loop
   vertex -57.502083 1764.283569 -51.967979
   vertex -58.502079 1764.284424 -51.970493
   vertex -57.501701 1764.210327 -52.144756
  endloop
 endfacet
 facet normal -0.002650 -0.382717 0.923862
  outer loop
   vertex -58.502110 1764.461182 -51.897270
   vertex -58.502079 1764.284424 -51.970493
   vertex -57.502083 1764.283569 -51.967979
  endloop
 endfacet
 facet normal -0.002650 -0.382717 0.923862
  outer loop
   vertex -57.502083 1764.283569 -51.967979
   vertex -57.502113 1764.460327 -51.894756
   vertex -58.502110 1764.461182 -51.897270
  endloop
 endfacet
 facet normal -0.001996 0.382495 0.923956
  outer loop
   vertex -58.502110 1764.461182 -51.897270
   vertex -57.502113 1764.460327 -51.894756
   vertex -58.501770 1764.638062 -51.970493
  endloop
 endfacet
 facet normal -0.001949 0.382720 0.923862
  outer loop
   vertex -58.501770 1764.638062 -51.970493
   vertex -57.502113 1764.460327 -51.894756
   vertex -57.501774 1764.637085 -51.967979
  endloop
 endfacet
 facet normal -0.000058 0.924070 0.382222
  outer loop
   vertex -57.501774 1764.637085 -51.967979
   vertex -58.501263 1764.711182 -52.147270
   vertex -58.501770 1764.638062 -51.970493
  endloop
 endfacet
 facet normal -0.000174 0.923842 0.382774
  outer loop
   vertex -57.501266 1764.710327 -52.144753
   vertex -58.501263 1764.711182 -52.147270
   vertex -57.501774 1764.637085 -51.967979
  endloop
 endfacet
 facet normal 0.001751 0.923901 -0.382627
  outer loop
   vertex -56.510651 1765.459473 -52.142262
   vertex -55.510654 1765.458618 -52.139748
   vertex -56.509129 1765.166626 -52.849369
  endloop
 endfacet
 facet normal 0.001753 0.923900 -0.382629
  outer loop
   vertex -56.509129 1765.166626 -52.849369
   vertex -55.510654 1765.458618 -52.139748
   vertex -55.509132 1765.165771 -52.846851
  endloop
 endfacet
 facet normal 0.002653 0.382660 -0.923885
  outer loop
   vertex -55.509132 1765.165771 -52.846851
   vertex -56.509010 1764.459473 -53.142262
   vertex -56.509129 1765.166626 -52.849369
  endloop
 endfacet
 facet normal 0.002650 0.382664 -0.923884
  outer loop
   vertex -55.509014 1764.458618 -53.139748
   vertex -56.509010 1764.459473 -53.142262
   vertex -55.509132 1765.165771 -52.846851
  endloop
 endfacet
 facet normal 0.001995 -0.382720 -0.923862
  outer loop
   vertex -56.510365 1763.752441 -52.849369
   vertex -56.509010 1764.459473 -53.142262
   vertex -55.509014 1764.458618 -53.139748
  endloop
 endfacet
 facet normal 0.001949 -0.382664 -0.923886
  outer loop
   vertex -55.509014 1764.458618 -53.139748
   vertex -55.510368 1763.751465 -52.846855
   vertex -56.510365 1763.752441 -52.849369
  endloop
 endfacet
 facet normal 0.000060 -0.923844 -0.382769
  outer loop
   vertex -56.510365 1763.752441 -52.849369
   vertex -55.510368 1763.751465 -52.846855
   vertex -56.512398 1763.459473 -52.142265
  endloop
 endfacet
 facet normal 0.000172 -0.923901 -0.382633
  outer loop
   vertex -56.512398 1763.459473 -52.142265
   vertex -55.510368 1763.751465 -52.846855
   vertex -55.512402 1763.458618 -52.139751
  endloop
 endfacet
 facet normal -0.001752 -0.923844 0.382765
  outer loop
   vertex -55.512402 1763.458618 -52.139751
   vertex -56.513920 1763.752441 -51.435162
   vertex -56.512398 1763.459473 -52.142265
  endloop
 endfacet
 facet normal -0.001864 -0.923900 0.382629
  outer loop
   vertex -55.513924 1763.751465 -51.432648
   vertex -56.513920 1763.752441 -51.435162
   vertex -55.512402 1763.458618 -52.139751
  endloop
 endfacet
 facet normal -0.002696 -0.382716 0.923862
  outer loop
   vertex -56.514038 1764.459473 -51.142269
   vertex -56.513920 1763.752441 -51.435162
   vertex -55.513924 1763.751465 -51.432648
  endloop
 endfacet
 facet normal -0.002653 -0.382664 0.923884
  outer loop
   vertex -55.513924 1763.751465 -51.432648
   vertex -55.514042 1764.458618 -51.139751
   vertex -56.514038 1764.459473 -51.142269
  endloop
 endfacet
 facet normal -0.001999 0.382659 0.923887
  outer loop
   vertex -56.514038 1764.459473 -51.142269
   vertex -55.514042 1764.458618 -51.139751
   vertex -56.512688 1765.166626 -51.435158
  endloop
 endfacet
 facet normal -0.001996 0.382664 0.923886
  outer loop
   vertex -56.512688 1765.166626 -51.435158
   vertex -55.514042 1764.458618 -51.139751
   vertex -55.512691 1765.165771 -51.432644
  endloop
 endfacet
 facet normal -0.000172 0.923901 0.382633
  outer loop
   vertex -55.512691 1765.165771 -51.432644
   vertex -56.510651 1765.459473 -52.142262
   vertex -56.512688 1765.166626 -51.435158
  endloop
 endfacet
 facet normal -0.000172 0.923901 0.382633
  outer loop
   vertex -55.510654 1765.458618 -52.139748
   vertex -56.510651 1765.459473 -52.142262
   vertex -55.512691 1765.165771 -51.432644
  endloop
 endfacet
 facet normal -0.568082 0.759864 -0.316053
  outer loop
   vertex -57.511303 1764.710327 -52.144779
   vertex -56.510651 1765.459473 -52.142262
   vertex -57.510921 1764.637085 -52.321556
  endloop
 endfacet
 facet normal -0.568123 0.759886 -0.315928
  outer loop
   vertex -57.510921 1764.637085 -52.321556
   vertex -56.510651 1765.459473 -52.142262
   vertex -56.509129 1765.166626 -52.849369
  endloop
 endfacet
 facet normal -0.567382 0.315067 -0.760796
  outer loop
   vertex -56.509129 1765.166626 -52.849369
   vertex -57.510891 1764.460327 -52.394779
   vertex -57.510921 1764.637085 -52.321556
  endloop
 endfacet
 facet normal -0.567366 0.315027 -0.760824
  outer loop
   vertex -56.509010 1764.459473 -53.142262
   vertex -57.510891 1764.460327 -52.394779
   vertex -56.509129 1765.166626 -52.849369
  endloop
 endfacet
 facet normal -0.567898 -0.314083 -0.760818
  outer loop
   vertex -57.511230 1764.283569 -52.321556
   vertex -57.510891 1764.460327 -52.394779
   vertex -56.509010 1764.459473 -53.142262
  endloop
 endfacet
 facet normal -0.567897 -0.314086 -0.760817
  outer loop
   vertex -56.509010 1764.459473 -53.142262
   vertex -56.510365 1763.752441 -52.849369
   vertex -57.511230 1764.283569 -52.321556
  endloop
 endfacet
 facet normal -0.569389 -0.758884 -0.316055
  outer loop
   vertex -57.511230 1764.283569 -52.321556
   vertex -56.510365 1763.752441 -52.849369
   vertex -57.511738 1764.210327 -52.144779
  endloop
 endfacet
 facet normal -0.569391 -0.758881 -0.316059
  outer loop
   vertex -57.511738 1764.210327 -52.144779
   vertex -56.510365 1763.752441 -52.849369
   vertex -56.512398 1763.459473 -52.142265
  endloop
 endfacet
 facet normal -0.570974 -0.758882 0.313188
  outer loop
   vertex -56.512398 1763.459473 -52.142265
   vertex -57.512119 1764.283569 -51.968002
   vertex -57.511738 1764.210327 -52.144779
  endloop
 endfacet
 facet normal -0.570973 -0.758881 0.313192
  outer loop
   vertex -56.513920 1763.752441 -51.435162
   vertex -57.512119 1764.283569 -51.968002
   vertex -56.512398 1763.459473 -52.142265
  endloop
 endfacet
 facet normal -0.571716 -0.314085 0.757952
  outer loop
   vertex -57.512150 1764.460327 -51.894779
   vertex -57.512119 1764.283569 -51.968002
   vertex -56.513920 1763.752441 -51.435162
  endloop
 endfacet
 facet normal -0.571715 -0.314083 0.757953
  outer loop
   vertex -56.513920 1763.752441 -51.435162
   vertex -56.514038 1764.459473 -51.142269
   vertex -57.512150 1764.460327 -51.894779
  endloop
 endfacet
 facet normal -0.571173 0.315082 0.757948
  outer loop
   vertex -57.512150 1764.460327 -51.894779
   vertex -56.514038 1764.459473 -51.142269
   vertex -57.511810 1764.637085 -51.968002
  endloop
 endfacet
 facet normal -0.571192 0.315022 0.757958
  outer loop
   vertex -57.511810 1764.637085 -51.968002
   vertex -56.514038 1764.459473 -51.142269
   vertex -56.512688 1765.166626 -51.435158
  endloop
 endfacet
 facet normal -0.569730 0.759822 0.313174
  outer loop
   vertex -56.512688 1765.166626 -51.435158
   vertex -57.511303 1764.710327 -52.144779
   vertex -57.511810 1764.637085 -51.968002
  endloop
 endfacet
 facet normal -0.569689 0.759896 0.313069
  outer loop
   vertex -56.510651 1765.459473 -52.142262
   vertex -57.511303 1764.710327 -52.144779
   vertex -56.512688 1765.166626 -51.435158
  endloop
 endfacet
 facet normal 0.001750 0.924070 -0.382219
  outer loop
   vertex -58.478386 1790.931152 -52.147213
   vertex -57.478390 1790.930298 -52.144699
   vertex -58.478004 1790.858032 -52.323990
  endloop
 endfacet
 facet normal 0.001750 0.924070 -0.382219
  outer loop
   vertex -58.478004 1790.858032 -52.323990
   vertex -57.478390 1790.930298 -52.144699
   vertex -57.478008 1790.857178 -52.321476
  endloop
 endfacet
 facet normal 0.002650 0.382491 -0.923955
  outer loop
   vertex -57.478008 1790.857178 -52.321476
   vertex -58.477974 1790.681152 -52.397213
   vertex -58.478004 1790.858032 -52.323990
  endloop
 endfacet
 facet normal 0.002650 0.382491 -0.923955
  outer loop
   vertex -57.477978 1790.680298 -52.394699
   vertex -58.477974 1790.681152 -52.397213
   vertex -57.478008 1790.857178 -52.321476
  endloop
 endfacet
 facet normal 0.001995 -0.382720 -0.923862
  outer loop
   vertex -58.478313 1790.504395 -52.323990
   vertex -58.477974 1790.681152 -52.397213
   vertex -57.477978 1790.680298 -52.394699
  endloop
 endfacet
 facet normal 0.001995 -0.382720 -0.923862
  outer loop
   vertex -57.477978 1790.680298 -52.394699
   vertex -57.478317 1790.503540 -52.321476
   vertex -58.478313 1790.504395 -52.323990
  endloop
 endfacet
 facet normal 0.000173 -0.923842 -0.382774
  outer loop
   vertex -58.478313 1790.504395 -52.323990
   vertex -57.478317 1790.503540 -52.321476
   vertex -58.478821 1790.431152 -52.147217
  endloop
 endfacet
 facet normal 0.000173 -0.923842 -0.382774
  outer loop
   vertex -58.478821 1790.431152 -52.147217
   vertex -57.478317 1790.503540 -52.321476
   vertex -57.478825 1790.430298 -52.144703
  endloop
 endfacet
 facet normal -0.001752 -0.923845 0.382763
  outer loop
   vertex -57.478825 1790.430298 -52.144703
   vertex -58.479202 1790.504395 -51.970440
   vertex -58.478821 1790.431152 -52.147217
  endloop
 endfacet
 facet normal -0.001752 -0.923845 0.382763
  outer loop
   vertex -57.479206 1790.503540 -51.967926
   vertex -58.479202 1790.504395 -51.970440
   vertex -57.478825 1790.430298 -52.144703
  endloop
 endfacet
 facet normal -0.002650 -0.382717 0.923862
  outer loop
   vertex -58.479233 1790.681152 -51.897217
   vertex -58.479202 1790.504395 -51.970440
   vertex -57.479206 1790.503540 -51.967926
  endloop
 endfacet
 facet normal -0.002650 -0.382717 0.923862
  outer loop
   vertex -57.479206 1790.503540 -51.967926
   vertex -57.479237 1790.680298 -51.894703
   vertex -58.479233 1790.681152 -51.897217
  endloop
 endfacet
 facet normal -0.001996 0.382495 0.923956
  outer loop
   vertex -58.479233 1790.681152 -51.897217
   vertex -57.479237 1790.680298 -51.894703
   vertex -58.478893 1790.858032 -51.970440
  endloop
 endfacet
 facet normal -0.001999 0.382478 0.923963
  outer loop
   vertex -58.478893 1790.858032 -51.970440
   vertex -57.479237 1790.680298 -51.894703
   vertex -57.478897 1790.857178 -51.967922
  endloop
 endfacet
 facet normal -0.000173 0.924068 0.382229
  outer loop
   vertex -57.478897 1790.857178 -51.967922
   vertex -58.478386 1790.931152 -52.147213
   vertex -58.478893 1790.858032 -51.970440
  endloop
 endfacet
 facet normal -0.000171 0.924070 0.382222
  outer loop
   vertex -57.478390 1790.930298 -52.144699
   vertex -58.478386 1790.931152 -52.147213
   vertex -57.478897 1790.857178 -51.967922
  endloop
 endfacet
 facet normal -0.000172 0.923901 0.382633
  outer loop
   vertex -56.489811 1791.386597 -51.435104
   vertex -55.489815 1791.385742 -51.432590
   vertex -56.487778 1791.679443 -52.142208
  endloop
 endfacet
 facet normal -0.000172 0.923901 0.382633
  outer loop
   vertex -56.487778 1791.679443 -52.142208
   vertex -55.489815 1791.385742 -51.432590
   vertex -55.487782 1791.678589 -52.139694
  endloop
 endfacet
 facet normal 0.001751 0.923901 -0.382627
  outer loop
   vertex -55.487782 1791.678589 -52.139694
   vertex -56.486256 1791.386597 -52.849316
   vertex -56.487778 1791.679443 -52.142208
  endloop
 endfacet
 facet normal 0.001753 0.923900 -0.382629
  outer loop
   vertex -55.486256 1791.385742 -52.846798
   vertex -56.486256 1791.386597 -52.849316
   vertex -55.487782 1791.678589 -52.139694
  endloop
 endfacet
 facet normal 0.002653 0.382660 -0.923885
  outer loop
   vertex -56.486134 1790.679443 -53.142208
   vertex -56.486256 1791.386597 -52.849316
   vertex -55.486256 1791.385742 -52.846798
  endloop
 endfacet
 facet normal 0.002650 0.382664 -0.923884
  outer loop
   vertex -55.486256 1791.385742 -52.846798
   vertex -55.486137 1790.678589 -53.139694
   vertex -56.486134 1790.679443 -53.142208
  endloop
 endfacet
 facet normal 0.001995 -0.382720 -0.923862
  outer loop
   vertex -56.486134 1790.679443 -53.142208
   vertex -55.486137 1790.678589 -53.139694
   vertex -56.487488 1789.972412 -52.849316
  endloop
 endfacet
 facet normal 0.001995 -0.382720 -0.923862
  outer loop
   vertex -56.487488 1789.972412 -52.849316
   vertex -55.486137 1790.678589 -53.139694
   vertex -55.487492 1789.971558 -52.846802
  endloop
 endfacet
 facet normal 0.000173 -0.923844 -0.382769
  outer loop
   vertex -55.487492 1789.971558 -52.846802
   vertex -56.489521 1789.679443 -52.142212
   vertex -56.487488 1789.972412 -52.849316
  endloop
 endfacet
 facet normal 0.000173 -0.923844 -0.382769
  outer loop
   vertex -55.489525 1789.678589 -52.139698
   vertex -56.489521 1789.679443 -52.142212
   vertex -55.487492 1789.971558 -52.846802
  endloop
 endfacet
 facet normal -0.001752 -0.923844 0.382765
  outer loop
   vertex -56.491043 1789.972412 -51.435108
   vertex -56.489521 1789.679443 -52.142212
   vertex -55.489525 1789.678589 -52.139698
  endloop
 endfacet
 facet normal -0.001752 -0.923844 0.382765
  outer loop
   vertex -55.489525 1789.678589 -52.139698
   vertex -55.491047 1789.971558 -51.432594
   vertex -56.491043 1789.972412 -51.435108
  endloop
 endfacet
 facet normal -0.002650 -0.382717 0.923862
  outer loop
   vertex -56.491043 1789.972412 -51.435108
   vertex -55.491047 1789.971558 -51.432594
   vertex -56.491165 1790.679443 -51.142216
  endloop
 endfacet
 facet normal -0.002653 -0.382721 0.923860
  outer loop
   vertex -56.491165 1790.679443 -51.142216
   vertex -55.491047 1789.971558 -51.432594
   vertex -55.491169 1790.678589 -51.139698
  endloop
 endfacet
 facet normal -0.001999 0.382659 0.923887
  outer loop
   vertex -55.491169 1790.678589 -51.139698
   vertex -56.489811 1791.386597 -51.435104
   vertex -56.491165 1790.679443 -51.142216
  endloop
 endfacet
 facet normal -0.001996 0.382664 0.923886
  outer loop
   vertex -55.489815 1791.385742 -51.432590
   vertex -56.489811 1791.386597 -51.435104
   vertex -55.491169 1790.678589 -51.139698
  endloop
 endfacet
endsolid