solid stl file generated from DOUG
 facet normal -0.803132 0.000702 -0.595801
  outer loop
   vertex -52.830315 1806.255493 -61.075790
   vertex -52.749172 1806.255493 -61.185169
   vertex -52.772255 1779.796875 -61.185223
  endloop
 endfacet
 facet normal 0.002524 -0.000000 -0.999997
  outer loop
   vertex -52.772255 1779.796875 -61.185223
   vertex -52.749172 1806.255493 -61.185169
   vertex -52.669502 1779.796875 -61.184963
  endloop
 endfacet
 facet normal 0.806105 -0.000702 -0.591771
  outer loop
   vertex -53.957932 1779.797974 -61.078625
   vertex -54.038525 1779.797974 -61.188408
   vertex -54.015442 1806.256592 -61.188354
  endloop
 endfacet
 facet normal 0.002524 -0.000000 -0.999997
  outer loop
   vertex -54.015442 1806.256592 -61.188354
   vertex -54.038525 1779.797974 -61.188408
   vertex -54.141281 1779.798096 -61.188667
  endloop
 endfacet
 facet normal 0.002487 -0.000000 -0.999997
  outer loop
   vertex -54.141281 1779.798096 -61.188667
   vertex -54.118198 1806.256592 -61.188610
   vertex -54.015442 1806.256592 -61.188354
  endloop
 endfacet
 facet normal -0.356396 0.000313 -0.934335
  outer loop
   vertex -54.143124 1779.798096 -60.455940
   vertex -54.120041 1806.256592 -60.455887
   vertex -54.111671 1779.798096 -60.467937
  endloop
 endfacet
 facet normal -0.356358 0.000313 -0.934349
  outer loop
   vertex -54.111671 1779.798096 -60.467937
   vertex -54.120041 1806.256592 -60.455887
   vertex -54.088585 1806.256592 -60.467884
  endloop
 endfacet
 facet normal -0.999996 0.000873 -0.002514
  outer loop
   vertex -54.088585 1806.256592 -60.467884
   vertex -54.087139 1806.256592 -61.043041
   vertex -54.111671 1779.798096 -60.467937
  endloop
 endfacet
 facet normal -0.803108 0.000702 -0.595833
  outer loop
   vertex -52.772255 1779.796875 -61.185223
   vertex -52.853401 1779.796997 -61.075848
   vertex -52.830315 1806.255493 -61.075790
  endloop
 endfacet
 facet normal 0.002514 -0.000000 -0.999997
  outer loop
   vertex -52.830315 1806.255493 -61.075790
   vertex -52.853401 1779.796997 -61.075848
   vertex -53.957932 1779.797974 -61.078625
  endloop
 endfacet
 facet normal 0.002518 -0.000000 -0.999997
  outer loop
   vertex -53.957932 1779.797974 -61.078625
   vertex -53.934849 1806.256470 -61.078571
   vertex -52.830315 1806.255493 -61.075790
  endloop
 endfacet
 facet normal 0.806105 -0.000702 -0.591772
  outer loop
   vertex -54.015442 1806.256592 -61.188354
   vertex -53.934849 1806.256470 -61.078571
   vertex -53.957932 1779.797974 -61.078625
  endloop
 endfacet
 facet normal -0.999996 0.000872 -0.002516
  outer loop
   vertex -54.118198 1806.256592 -61.188610
   vertex -54.141281 1779.798096 -61.188667
   vertex -54.118534 1806.256592 -61.055195
  endloop
 endfacet
 facet normal -0.999996 0.000872 -0.002516
  outer loop
   vertex -54.118534 1806.256592 -61.055195
   vertex -54.141281 1779.798096 -61.188667
   vertex -54.141617 1779.798096 -61.055248
  endloop
 endfacet
 facet normal -0.361013 0.000313 0.932561
  outer loop
   vertex -54.141617 1779.798096 -61.055248
   vertex -54.087139 1806.256592 -61.043041
   vertex -54.118534 1806.256592 -61.055195
  endloop
 endfacet
 facet normal -0.361013 0.000313 0.932561
  outer loop
   vertex -54.110222 1779.798096 -61.043095
   vertex -54.087139 1806.256592 -61.043041
   vertex -54.141617 1779.798096 -61.055248
  endloop
 endfacet
 facet normal -0.999996 0.000872 -0.002520
  outer loop
   vertex -54.111671 1779.798096 -60.467937
   vertex -54.087139 1806.256592 -61.043041
   vertex -54.110222 1779.798096 -61.043095
  endloop
 endfacet
 facet normal -0.000892 -1.000000 -0.000002
  outer loop
   vertex -52.652775 1779.381470 -61.203629
   vertex -54.160751 1779.382812 -60.366917
   vertex -54.158638 1779.382812 -61.207417
  endloop
 endfacet
 facet normal -0.999996 0.000874 -0.002514
  outer loop
   vertex -54.158638 1779.382812 -61.207417
   vertex -54.160751 1779.382812 -60.366917
   vertex -54.157764 1780.382812 -61.207417
  endloop
 endfacet
 facet normal 0.002515 -0.000002 -0.999997
  outer loop
   vertex -54.157764 1780.382812 -61.207417
   vertex -52.651901 1780.381470 -61.203629
   vertex -54.158638 1779.382812 -61.207417
  endloop
 endfacet
 facet normal 0.000892 1.000000 0.000002
  outer loop
   vertex -54.159878 1780.382812 -60.366917
   vertex -52.651901 1780.381470 -61.203629
   vertex -54.157764 1780.382812 -61.207417
  endloop
 endfacet
 facet normal 0.000892 1.000000 0.000002
  outer loop
   vertex -52.654018 1780.381470 -60.363129
   vertex -52.651901 1780.381470 -61.203629
   vertex -54.159878 1780.382812 -60.366917
  endloop
 endfacet
 facet normal -0.002515 0.000002 0.999997
  outer loop
   vertex -54.159878 1780.382812 -60.366917
   vertex -54.160751 1779.382812 -60.366917
   vertex -52.654018 1780.381470 -60.363129
  endloop
 endfacet
 facet normal -0.002513 -0.000002 0.999997
  outer loop
   vertex -52.654018 1780.381470 -60.363129
   vertex -54.160751 1779.382812 -60.366917
   vertex -52.654888 1779.381470 -60.363132
  endloop
 endfacet
 facet normal -0.000892 -1.000000 -0.000002
  outer loop
   vertex -52.654888 1779.381470 -60.363132
   vertex -54.160751 1779.382812 -60.366917
   vertex -52.652775 1779.381470 -61.203629
  endloop
 endfacet
 facet normal 0.999996 -0.000874 0.002514
  outer loop
   vertex -52.652775 1779.381470 -61.203629
   vertex -52.651901 1780.381470 -61.203629
   vertex -52.654888 1779.381470 -60.363132
  endloop
 endfacet
 facet normal 0.002515 -0.000002 -0.999997
  outer loop
   vertex -54.158638 1779.382812 -61.207417
   vertex -52.651901 1780.381470 -61.203629
   vertex -52.652775 1779.381470 -61.203629
  endloop
 endfacet
 facet normal -0.000892 -1.000000 -0.000002
  outer loop
   vertex -54.135700 1805.671997 -61.207363
   vertex -52.629841 1805.670654 -61.203575
   vertex -54.137814 1805.671997 -60.366863
  endloop
 endfacet
 facet normal -0.000892 -1.000000 -0.000002
  outer loop
   vertex -54.137814 1805.671997 -60.366863
   vertex -52.629841 1805.670654 -61.203575
   vertex -52.631954 1805.670654 -60.363075
  endloop
 endfacet
 facet normal -0.002515 0.000002 0.999997
  outer loop
   vertex -52.631954 1805.670654 -60.363075
   vertex -52.631081 1806.670654 -60.363075
   vertex -54.137814 1805.671997 -60.366863
  endloop
 endfacet
 facet normal 0.999996 -0.000874 0.002514
  outer loop
   vertex -52.629841 1805.670654 -61.203575
   vertex -52.631081 1806.670654 -60.363075
   vertex -52.631954 1805.670654 -60.363075
  endloop
 endfacet
 facet normal 0.999996 -0.000874 0.002514
  outer loop
   vertex -52.628967 1806.670654 -61.203575
   vertex -52.631081 1806.670654 -60.363075
   vertex -52.629841 1805.670654 -61.203575
  endloop
 endfacet
 facet normal 0.002513 -0.000002 -0.999997
  outer loop
   vertex -52.629841 1805.670654 -61.203575
   vertex -54.134830 1806.671997 -61.207359
   vertex -52.628967 1806.670654 -61.203575
  endloop
 endfacet
 facet normal 0.000892 1.000000 0.000002
  outer loop
   vertex -52.628967 1806.670654 -61.203575
   vertex -54.134830 1806.671997 -61.207359
   vertex -52.631081 1806.670654 -60.363075
  endloop
 endfacet
 facet normal 0.000892 1.000000 0.000002
  outer loop
   vertex -52.631081 1806.670654 -60.363075
   vertex -54.134830 1806.671997 -61.207359
   vertex -54.136944 1806.671997 -60.366863
  endloop
 endfacet
 facet normal -0.002515 0.000002 0.999997
  outer loop
   vertex -54.136944 1806.671997 -60.366863
   vertex -54.137814 1805.671997 -60.366863
   vertex -52.631081 1806.670654 -60.363075
  endloop
 endfacet
 facet normal -0.999996 0.000870 -0.002514
  outer loop
   vertex -54.134830 1806.671997 -61.207359
   vertex -54.137814 1805.671997 -60.366863
   vertex -54.136944 1806.671997 -60.366863
  endloop
 endfacet
 facet normal -0.999996 0.000870 -0.002514
  outer loop
   vertex -54.135700 1805.671997 -61.207363
   vertex -54.137814 1805.671997 -60.366863
   vertex -54.134830 1806.671997 -61.207359
  endloop
 endfacet
 facet normal 0.002515 0.000002 -0.999997
  outer loop
   vertex -54.134830 1806.671997 -61.207359
   vertex -52.629841 1805.670654 -61.203575
   vertex -54.135700 1805.671997 -61.207363
  endloop
 endfacet
 facet normal 0.002524 -0.000000 -0.999997
  outer loop
   vertex -52.749172 1806.255493 -61.185169
   vertex -52.646416 1806.255371 -61.184910
   vertex -52.669502 1779.796875 -61.184963
  endloop
 endfacet
 facet normal 0.999996 -0.000873 0.002516
  outer loop
   vertex -52.669502 1779.796875 -61.184963
   vertex -52.646416 1806.255371 -61.184910
   vertex -52.646751 1806.255371 -61.051491
  endloop
 endfacet
 facet normal 0.999996 -0.000873 0.002516
  outer loop
   vertex -52.646751 1806.255371 -61.051491
   vertex -52.669838 1779.796875 -61.051548
   vertex -52.669502 1779.796875 -61.184963
  endloop
 endfacet
 facet normal 0.356358 -0.000313 0.934349
  outer loop
   vertex -52.678207 1806.255371 -61.039494
   vertex -52.669838 1779.796875 -61.051548
   vertex -52.646751 1806.255371 -61.051491
  endloop
 endfacet
 facet normal 0.356396 -0.000313 0.934335
  outer loop
   vertex -52.701290 1779.796875 -61.039551
   vertex -52.669838 1779.796875 -61.051548
   vertex -52.678207 1806.255371 -61.039494
  endloop
 endfacet
 facet normal 0.999996 -0.000872 0.002514
  outer loop
   vertex -52.678207 1806.255371 -61.039494
   vertex -52.679653 1806.255371 -60.464340
   vertex -52.701290 1779.796875 -61.039551
  endloop
 endfacet
 facet normal 0.999996 -0.000872 0.002514
  outer loop
   vertex -52.701290 1779.796875 -61.039551
   vertex -52.679653 1806.255371 -60.464340
   vertex -52.702736 1779.796875 -60.464394
  endloop
 endfacet
 facet normal 0.361013 -0.000313 -0.932561
  outer loop
   vertex -52.702736 1779.796875 -60.464394
   vertex -52.679653 1806.255371 -60.464340
   vertex -52.648258 1806.255371 -60.452187
  endloop
 endfacet
 facet normal 0.361051 -0.000313 -0.932546
  outer loop
   vertex -52.648258 1806.255371 -60.452187
   vertex -52.671345 1779.796875 -60.452240
   vertex -52.702736 1779.796875 -60.464394
  endloop
 endfacet
 facet normal 0.999996 -0.000873 0.002535
  outer loop
   vertex -52.648426 1806.255371 -60.385986
   vertex -52.671345 1779.796875 -60.452240
   vertex -52.648258 1806.255371 -60.452187
  endloop
 endfacet
 facet normal 0.999997 -0.000872 0.002478
  outer loop
   vertex -52.671509 1779.796875 -60.386040
   vertex -52.671345 1779.796875 -60.452240
   vertex -52.648426 1806.255371 -60.385986
  endloop
 endfacet
 facet normal -0.002514 0.000000 0.999997
  outer loop
   vertex -52.648426 1806.255371 -60.385986
   vertex -54.120205 1806.256592 -60.389687
   vertex -52.671509 1779.796875 -60.386040
  endloop
 endfacet
 facet normal -0.002517 0.000000 0.999997
  outer loop
   vertex -52.671509 1779.796875 -60.386040
   vertex -54.120205 1806.256592 -60.389687
   vertex -54.143291 1779.798096 -60.389744
  endloop
 endfacet
 facet normal -0.999996 0.000873 -0.002536
  outer loop
   vertex -54.143291 1779.798096 -60.389744
   vertex -54.120205 1806.256592 -60.389687
   vertex -54.143124 1779.798096 -60.455940
  endloop
 endfacet
 facet normal -0.999996 0.000874 -0.002514
  outer loop
   vertex -54.159878 1780.382812 -60.366917
   vertex -54.157764 1780.382812 -61.207417
   vertex -54.160751 1779.382812 -60.366917
  endloop
 endfacet
 facet normal 0.999996 -0.000870 0.002519
  outer loop
   vertex -52.651901 1780.381470 -61.203629
   vertex -52.654018 1780.381470 -60.363129
   vertex -52.654888 1779.381470 -60.363132
  endloop
 endfacet
 facet normal -0.999997 0.000872 -0.002478
  outer loop
   vertex -54.120205 1806.256592 -60.389687
   vertex -54.120041 1806.256592 -60.455887
   vertex -54.143124 1779.798096 -60.455940
  endloop
 endfacet
 facet normal 0.316599 0.759130 -0.568758
  outer loop
   vertex -53.386623 1806.386719 -59.424435
   vertex -53.388485 1807.136719 -58.424435
   vertex -53.209911 1806.313354 -59.423988
  endloop
 endfacet
 facet normal 0.316593 0.759131 -0.568760
  outer loop
   vertex -53.209911 1806.313354 -59.423988
   vertex -53.388485 1807.136719 -58.424435
   vertex -52.681637 1806.843262 -58.422657
  endloop
 endfacet
 facet normal 0.761127 0.313824 -0.567626
  outer loop
   vertex -52.681637 1806.843262 -58.422657
   vertex -53.136845 1806.136475 -59.423805
   vertex -53.209911 1806.313354 -59.423988
  endloop
 endfacet
 facet normal 0.761095 0.313870 -0.567644
  outer loop
   vertex -52.389362 1806.135864 -58.421921
   vertex -53.136845 1806.136475 -59.423805
   vertex -52.681637 1806.843262 -58.422657
  endloop
 endfacet
 facet normal 0.760522 -0.315338 -0.567599
  outer loop
   vertex -53.210220 1805.959839 -59.423988
   vertex -53.136845 1806.136475 -59.423805
   vertex -52.389362 1806.135864 -58.421921
  endloop
 endfacet
 facet normal 0.760548 -0.315187 -0.567647
  outer loop
   vertex -52.389362 1806.135864 -58.421921
   vertex -52.682873 1805.428955 -58.422661
   vertex -53.210220 1805.959839 -59.423988
  endloop
 endfacet
 facet normal 0.315486 -0.759533 -0.568839
  outer loop
   vertex -53.210220 1805.959839 -59.423988
   vertex -52.682873 1805.428955 -58.422661
   vertex -53.387062 1805.886719 -59.424435
  endloop
 endfacet
 facet normal 0.315280 -0.759677 -0.568761
  outer loop
   vertex -53.387062 1805.886719 -59.424435
   vertex -52.682873 1805.428955 -58.422661
   vertex -53.390232 1805.136719 -58.424438
  endloop
 endfacet
 facet normal -0.313734 -0.759130 -0.570344
  outer loop
   vertex -53.390232 1805.136719 -58.424438
   vertex -53.563774 1805.960083 -59.424877
   vertex -53.387062 1805.886719 -59.424435
  endloop
 endfacet
 facet normal -0.313851 -0.759110 -0.570307
  outer loop
   vertex -54.097080 1805.430298 -58.426216
   vertex -53.563774 1805.960083 -59.424877
   vertex -53.390232 1805.136719 -58.424438
  endloop
 endfacet
 facet normal -0.758281 -0.313827 -0.571422
  outer loop
   vertex -53.636841 1806.136963 -59.425060
   vertex -53.563774 1805.960083 -59.424877
   vertex -54.097080 1805.430298 -58.426216
  endloop
 endfacet
 facet normal -0.758216 -0.313920 -0.571457
  outer loop
   vertex -54.097080 1805.430298 -58.426216
   vertex -54.389355 1806.137573 -58.426952
   vertex -53.636841 1806.136963 -59.425060
  endloop
 endfacet
 facet normal -0.757658 0.315329 -0.571422
  outer loop
   vertex -53.636841 1806.136963 -59.425060
   vertex -54.389355 1806.137573 -58.426952
   vertex -53.563465 1806.313599 -59.424877
  endloop
 endfacet
 facet normal -0.757682 0.315190 -0.571466
  outer loop
   vertex -53.563465 1806.313599 -59.424877
   vertex -54.389355 1806.137573 -58.426952
   vertex -54.095844 1806.844482 -58.426212
  endloop
 endfacet
 facet normal -0.312622 0.759533 -0.570419
  outer loop
   vertex -54.095844 1806.844482 -58.426212
   vertex -53.386623 1806.386719 -59.424435
   vertex -53.563465 1806.313599 -59.424877
  endloop
 endfacet
 facet normal -0.312417 0.759677 -0.570339
  outer loop
   vertex -53.388485 1807.136719 -58.424435
   vertex -53.386623 1806.386719 -59.424435
   vertex -54.095844 1806.844482 -58.426212
  endloop
 endfacet
 facet normal 0.383429 0.923570 0.000964
  outer loop
   vertex -53.407013 1780.166748 -60.414444
   vertex -53.409527 1780.166748 -59.414448
   vertex -53.230301 1780.093384 -60.414001
  endloop
 endfacet
 facet normal 0.383429 0.923570 0.000964
  outer loop
   vertex -53.230301 1780.093384 -60.414001
   vertex -53.409527 1780.166748 -59.414448
   vertex -53.232815 1780.093384 -59.414005
  endloop
 endfacet
 facet normal 0.924237 0.381812 0.002323
  outer loop
   vertex -53.232815 1780.093384 -59.414005
   vertex -53.157230 1779.916504 -60.413818
   vertex -53.230301 1780.093384 -60.414001
  endloop
 endfacet
 facet normal 0.924237 0.381812 0.002323
  outer loop
   vertex -53.159744 1779.916504 -59.413822
   vertex -53.157230 1779.916504 -60.413818
   vertex -53.232815 1780.093384 -59.414005
  endloop
 endfacet
 facet normal 0.923486 -0.383625 0.002322
  outer loop
   vertex -53.230606 1779.739868 -60.414001
   vertex -53.157230 1779.916504 -60.413818
   vertex -53.159744 1779.916504 -59.413822
  endloop
 endfacet
 facet normal 0.923479 -0.383642 0.002325
  outer loop
   vertex -53.159744 1779.916504 -59.413822
   vertex -53.233124 1779.739868 -59.414005
   vertex -53.230606 1779.739868 -60.414001
  endloop
 endfacet
 facet normal 0.382101 -0.924120 0.000962
  outer loop
   vertex -53.230606 1779.739868 -60.414001
   vertex -53.233124 1779.739868 -59.414005
   vertex -53.407448 1779.666748 -60.414448
  endloop
 endfacet
 facet normal 0.382108 -0.924117 0.000961
  outer loop
   vertex -53.407448 1779.666748 -60.414448
   vertex -53.233124 1779.739868 -59.414005
   vertex -53.409962 1779.666748 -59.414452
  endloop
 endfacet
 facet normal -0.383429 -0.923570 -0.000964
  outer loop
   vertex -53.409962 1779.666748 -59.414452
   vertex -53.584160 1779.740112 -60.414890
   vertex -53.407448 1779.666748 -60.414448
  endloop
 endfacet
 facet normal -0.383429 -0.923570 -0.000964
  outer loop
   vertex -53.586674 1779.740112 -59.414894
   vertex -53.584160 1779.740112 -60.414890
   vertex -53.409962 1779.666748 -59.414452
  endloop
 endfacet
 facet normal -0.924237 -0.381812 -0.002323
  outer loop
   vertex -53.657230 1779.916992 -60.415073
   vertex -53.584160 1779.740112 -60.414890
   vertex -53.586674 1779.740112 -59.414894
  endloop
 endfacet
 facet normal -0.924237 -0.381812 -0.002323
  outer loop
   vertex -53.586674 1779.740112 -59.414894
   vertex -53.659744 1779.916992 -59.415077
   vertex -53.657230 1779.916992 -60.415073
  endloop
 endfacet
 facet normal -0.923479 0.383642 -0.002322
  outer loop
   vertex -53.657230 1779.916992 -60.415073
   vertex -53.659744 1779.916992 -59.415077
   vertex -53.583851 1780.093628 -60.414890
  endloop
 endfacet
 facet normal -0.923479 0.383642 -0.002322
  outer loop
   vertex -53.583851 1780.093628 -60.414890
   vertex -53.659744 1779.916992 -59.415077
   vertex -53.586365 1780.093628 -59.414894
  endloop
 endfacet
 facet normal -0.382108 0.924117 -0.000961
  outer loop
   vertex -53.586365 1780.093628 -59.414894
   vertex -53.407013 1780.166748 -60.414444
   vertex -53.583851 1780.093628 -60.414890
  endloop
 endfacet
 facet normal -0.382108 0.924117 -0.000961
  outer loop
   vertex -53.409527 1780.166748 -59.414448
   vertex -53.407013 1780.166748 -60.414444
   vertex -53.586365 1780.093628 -59.414894
  endloop
 endfacet
 facet normal 0.383565 0.923513 0.000964
  outer loop
   vertex -53.411362 1780.916748 -58.424488
   vertex -53.413876 1780.916748 -57.424492
   vertex -52.704514 1780.623169 -58.422710
  endloop
 endfacet
 facet normal 0.383565 0.923513 0.000964
  outer loop
   vertex -52.704514 1780.623169 -58.422710
   vertex -53.413876 1780.916748 -57.424492
   vertex -52.707027 1780.623169 -57.422714
  endloop
 endfacet
 facet normal 0.924194 0.381916 0.002323
  outer loop
   vertex -52.707027 1780.623169 -57.422714
   vertex -52.412239 1779.915894 -58.421974
   vertex -52.704514 1780.623169 -58.422710
  endloop
 endfacet
 facet normal 0.924194 0.381916 0.002323
  outer loop
   vertex -52.414753 1779.915894 -57.421978
   vertex -52.412239 1779.915894 -58.421974
   vertex -52.707027 1780.623169 -57.422714
  endloop
 endfacet
 facet normal 0.923555 -0.383460 0.002322
  outer loop
   vertex -52.705746 1779.208984 -58.422714
   vertex -52.412239 1779.915894 -58.421974
   vertex -52.414753 1779.915894 -57.421978
  endloop
 endfacet
 facet normal 0.923553 -0.383464 0.002325
  outer loop
   vertex -52.414753 1779.915894 -57.421978
   vertex -52.708263 1779.208984 -57.422718
   vertex -52.705746 1779.208984 -58.422714
  endloop
 endfacet
 facet normal 0.381832 -0.924231 0.000961
  outer loop
   vertex -52.705746 1779.208984 -58.422714
   vertex -52.708263 1779.208984 -57.422718
   vertex -53.413105 1778.916748 -58.424492
  endloop
 endfacet
 facet normal 0.381832 -0.924231 0.000961
  outer loop
   vertex -53.413105 1778.916748 -58.424492
   vertex -52.708263 1779.208984 -57.422718
   vertex -53.415623 1778.916748 -57.424496
  endloop
 endfacet
 facet normal -0.383428 -0.923570 -0.000965
  outer loop
   vertex -53.415623 1778.916748 -57.424496
   vertex -54.119957 1779.210205 -58.426270
   vertex -53.413105 1778.916748 -58.424492
  endloop
 endfacet
 facet normal -0.383429 -0.923570 -0.000964
  outer loop
   vertex -54.122471 1779.210205 -57.426273
   vertex -54.119957 1779.210205 -58.426270
   vertex -53.415623 1778.916748 -57.424496
  endloop
 endfacet
 facet normal -0.924217 -0.381860 -0.002323
  outer loop
   vertex -54.412231 1779.917603 -58.427006
   vertex -54.119957 1779.210205 -58.426270
   vertex -54.122471 1779.210205 -57.426273
  endloop
 endfacet
 facet normal -0.924217 -0.381860 -0.002323
  outer loop
   vertex -54.122471 1779.210205 -57.426273
   vertex -54.414745 1779.917603 -57.427010
   vertex -54.412231 1779.917603 -58.427006
  endloop
 endfacet
 facet normal -0.923553 0.383464 -0.002322
  outer loop
   vertex -54.412231 1779.917603 -58.427006
   vertex -54.414745 1779.917603 -57.427010
   vertex -54.118721 1780.624512 -58.426266
  endloop
 endfacet
 facet normal -0.923555 0.383460 -0.002325
  outer loop
   vertex -54.118721 1780.624512 -58.426266
   vertex -54.414745 1779.917603 -57.427010
   vertex -54.121239 1780.624512 -57.426270
  endloop
 endfacet
 facet normal -0.381832 0.924231 -0.000961
  outer loop
   vertex -54.121239 1780.624512 -57.426270
   vertex -53.411362 1780.916748 -58.424488
   vertex -54.118721 1780.624512 -58.426266
  endloop
 endfacet
 facet normal -0.381830 0.924232 -0.000960
  outer loop
   vertex -53.413876 1780.916748 -57.424492
   vertex -53.411362 1780.916748 -58.424488
   vertex -54.121239 1780.624512 -57.426270
  endloop
 endfacet
 facet normal 0.316599 0.759130 -0.568758
  outer loop
   vertex -53.409500 1780.166748 -59.424488
   vertex -53.411362 1780.916748 -58.424488
   vertex -53.232788 1780.093384 -59.424042
  endloop
 endfacet
 facet normal 0.316716 0.759110 -0.568721
  outer loop
   vertex -53.232788 1780.093384 -59.424042
   vertex -53.411362 1780.916748 -58.424488
   vertex -52.704514 1780.623169 -58.422710
  endloop
 endfacet
 facet normal 0.761144 0.313831 -0.567600
  outer loop
   vertex -52.704514 1780.623169 -58.422710
   vertex -53.159721 1779.916504 -59.423859
   vertex -53.232788 1780.093384 -59.424042
  endloop
 endfacet
 facet normal 0.761082 0.313919 -0.567634
  outer loop
   vertex -52.412239 1779.915894 -58.421974
   vertex -53.159721 1779.916504 -59.423859
   vertex -52.704514 1780.623169 -58.422710
  endloop
 endfacet
 facet normal 0.760522 -0.315338 -0.567599
  outer loop
   vertex -53.233097 1779.739868 -59.424042
   vertex -53.159721 1779.916504 -59.423859
   vertex -52.412239 1779.915894 -58.421974
  endloop
 endfacet
 facet normal 0.760549 -0.315183 -0.567649
  outer loop
   vertex -52.412239 1779.915894 -58.421974
   vertex -52.705746 1779.208984 -58.422714
   vertex -53.233097 1779.739868 -59.424042
  endloop
 endfacet
 facet normal 0.315485 -0.759533 -0.568840
  outer loop
   vertex -53.233097 1779.739868 -59.424042
   vertex -52.705746 1779.208984 -58.422714
   vertex -53.409939 1779.666748 -59.424488
  endloop
 endfacet
 facet normal 0.315280 -0.759677 -0.568762
  outer loop
   vertex -53.409939 1779.666748 -59.424488
   vertex -52.705746 1779.208984 -58.422714
   vertex -53.413105 1778.916748 -58.424492
  endloop
 endfacet
 facet normal -0.313735 -0.759130 -0.570343
  outer loop
   vertex -53.413105 1778.916748 -58.424492
   vertex -53.586651 1779.740112 -59.424931
   vertex -53.409939 1779.666748 -59.424488
  endloop
 endfacet
 facet normal -0.313727 -0.759132 -0.570346
  outer loop
   vertex -54.119957 1779.210205 -58.426270
   vertex -53.586651 1779.740112 -59.424931
   vertex -53.413105 1778.916748 -58.424492
  endloop
 endfacet
 facet normal -0.758258 -0.313830 -0.571450
  outer loop
   vertex -53.659718 1779.916992 -59.425117
   vertex -53.586651 1779.740112 -59.424931
   vertex -54.119957 1779.210205 -58.426270
  endloop
 endfacet
 facet normal -0.758229 -0.313871 -0.571466
  outer loop
   vertex -54.119957 1779.210205 -58.426270
   vertex -54.412231 1779.917603 -58.427006
   vertex -53.659718 1779.916992 -59.425117
  endloop
 endfacet
 facet normal -0.757656 0.315340 -0.571418
  outer loop
   vertex -53.659718 1779.916992 -59.425117
   vertex -54.412231 1779.917603 -58.427006
   vertex -53.586342 1780.093628 -59.424931
  endloop
 endfacet
 facet normal -0.757682 0.315190 -0.571466
  outer loop
   vertex -53.586342 1780.093628 -59.424931
   vertex -54.412231 1779.917603 -58.427006
   vertex -54.118721 1780.624512 -58.426266
  endloop
 endfacet
 facet normal -0.312622 0.759533 -0.570419
  outer loop
   vertex -54.118721 1780.624512 -58.426266
   vertex -53.409500 1780.166748 -59.424488
   vertex -53.586342 1780.093628 -59.424931
  endloop
 endfacet
 facet normal -0.312417 0.759677 -0.570339
  outer loop
   vertex -53.411362 1780.916748 -58.424488
   vertex -53.409500 1780.166748 -59.424488
   vertex -54.118721 1780.624512 -58.426266
  endloop
 endfacet
 facet normal 0.383429 0.923570 0.000964
  outer loop
   vertex -53.384136 1806.386719 -60.414391
   vertex -53.386650 1806.386719 -59.414394
   vertex -53.207424 1806.313354 -60.413948
  endloop
 endfacet
 facet normal 0.383429 0.923570 0.000964
  outer loop
   vertex -53.207424 1806.313354 -60.413948
   vertex -53.386650 1806.386719 -59.414394
   vertex -53.209938 1806.313354 -59.413952
  endloop
 endfacet
 facet normal 0.924237 0.381812 0.002323
  outer loop
   vertex -53.209938 1806.313354 -59.413952
   vertex -53.134354 1806.136475 -60.413765
   vertex -53.207424 1806.313354 -60.413948
  endloop
 endfacet
 facet normal 0.924237 0.381812 0.002323
  outer loop
   vertex -53.136868 1806.136475 -59.413765
   vertex -53.134354 1806.136475 -60.413765
   vertex -53.209938 1806.313354 -59.413952
  endloop
 endfacet
 facet normal 0.923479 -0.383642 0.002322
  outer loop
   vertex -53.207733 1805.959839 -60.413948
   vertex -53.134354 1806.136475 -60.413765
   vertex -53.136868 1806.136475 -59.413765
  endloop
 endfacet
 facet normal 0.923479 -0.383642 0.002322
  outer loop
   vertex -53.136868 1806.136475 -59.413765
   vertex -53.210247 1805.959839 -59.413952
   vertex -53.207733 1805.959839 -60.413948
  endloop
 endfacet
 facet normal 0.382108 -0.924117 0.000961
  outer loop
   vertex -53.207733 1805.959839 -60.413948
   vertex -53.210247 1805.959839 -59.413952
   vertex -53.384571 1805.886719 -60.414394
  endloop
 endfacet
 facet normal 0.382108 -0.924117 0.000961
  outer loop
   vertex -53.384571 1805.886719 -60.414394
   vertex -53.210247 1805.959839 -59.413952
   vertex -53.387085 1805.886719 -59.414394
  endloop
 endfacet
 facet normal -0.383429 -0.923570 -0.000964
  outer loop
   vertex -53.387085 1805.886719 -59.414394
   vertex -53.561283 1805.960083 -60.414837
   vertex -53.384571 1805.886719 -60.414394
  endloop
 endfacet
 facet normal -0.383429 -0.923570 -0.000964
  outer loop
   vertex -53.563797 1805.960083 -59.414841
   vertex -53.561283 1805.960083 -60.414837
   vertex -53.387085 1805.886719 -59.414394
  endloop
 endfacet
 facet normal -0.924237 -0.381812 -0.002323
  outer loop
   vertex -53.634354 1806.136963 -60.415020
   vertex -53.561283 1805.960083 -60.414837
   vertex -53.563797 1805.960083 -59.414841
  endloop
 endfacet
 facet normal -0.924237 -0.381812 -0.002323
  outer loop
   vertex -53.563797 1805.960083 -59.414841
   vertex -53.636868 1806.136963 -59.415024
   vertex -53.634354 1806.136963 -60.415020
  endloop
 endfacet
 facet normal -0.923479 0.383642 -0.002322
  outer loop
   vertex -53.634354 1806.136963 -60.415020
   vertex -53.636868 1806.136963 -59.415024
   vertex -53.560974 1806.313599 -60.414837
  endloop
 endfacet
 facet normal -0.923486 0.383625 -0.002325
  outer loop
   vertex -53.560974 1806.313599 -60.414837
   vertex -53.636868 1806.136963 -59.415024
   vertex -53.563492 1806.313599 -59.414841
  endloop
 endfacet
 facet normal -0.382108 0.924117 -0.000962
  outer loop
   vertex -53.563492 1806.313599 -59.414841
   vertex -53.384136 1806.386719 -60.414391
   vertex -53.560974 1806.313599 -60.414837
  endloop
 endfacet
 facet normal -0.382101 0.924120 -0.000961
  outer loop
   vertex -53.386650 1806.386719 -59.414394
   vertex -53.384136 1806.386719 -60.414391
   vertex -53.563492 1806.313599 -59.414841
  endloop
 endfacet
 facet normal -0.381832 0.924231 -0.000961
  outer loop
   vertex -54.095844 1806.844482 -58.426212
   vertex -54.098362 1806.844482 -57.426216
   vertex -53.388485 1807.136719 -58.424435
  endloop
 endfacet
 facet normal -0.381832 0.924231 -0.000961
  outer loop
   vertex -53.388485 1807.136719 -58.424435
   vertex -54.098362 1806.844482 -57.426216
   vertex -53.391003 1807.136719 -57.424438
  endloop
 endfacet
 facet normal 0.383429 0.923570 0.000965
  outer loop
   vertex -53.391003 1807.136719 -57.424438
   vertex -52.681637 1806.843262 -58.422657
   vertex -53.388485 1807.136719 -58.424435
  endloop
 endfacet
 facet normal 0.383428 0.923570 0.000964
  outer loop
   vertex -52.684151 1806.843262 -57.422661
   vertex -52.681637 1806.843262 -58.422657
   vertex -53.391003 1807.136719 -57.424438
  endloop
 endfacet
 facet normal 0.924217 0.381860 0.002323
  outer loop
   vertex -52.389362 1806.135864 -58.421921
   vertex -52.681637 1806.843262 -58.422657
   vertex -52.684151 1806.843262 -57.422661
  endloop
 endfacet
 facet normal 0.924217 0.381860 0.002323
  outer loop
   vertex -52.684151 1806.843262 -57.422661
   vertex -52.391876 1806.135864 -57.421925
   vertex -52.389362 1806.135864 -58.421921
  endloop
 endfacet
 facet normal 0.923553 -0.383464 0.002322
  outer loop
   vertex -52.389362 1806.135864 -58.421921
   vertex -52.391876 1806.135864 -57.421925
   vertex -52.682873 1805.428955 -58.422661
  endloop
 endfacet
 facet normal 0.923553 -0.383464 0.002322
  outer loop
   vertex -52.682873 1805.428955 -58.422661
   vertex -52.391876 1806.135864 -57.421925
   vertex -52.685387 1805.428955 -57.422661
  endloop
 endfacet
 facet normal 0.381832 -0.924231 0.000960
  outer loop
   vertex -52.685387 1805.428955 -57.422661
   vertex -53.390232 1805.136719 -58.424438
   vertex -52.682873 1805.428955 -58.422661
  endloop
 endfacet
 facet normal 0.381832 -0.924231 0.000960
  outer loop
   vertex -53.392746 1805.136719 -57.424442
   vertex -53.390232 1805.136719 -58.424438
   vertex -52.685387 1805.428955 -57.422661
  endloop
 endfacet
 facet normal -0.383565 -0.923513 -0.000964
  outer loop
   vertex -54.097080 1805.430298 -58.426216
   vertex -53.390232 1805.136719 -58.424438
   vertex -53.392746 1805.136719 -57.424442
  endloop
 endfacet
 facet normal -0.383565 -0.923513 -0.000964
  outer loop
   vertex -53.392746 1805.136719 -57.424442
   vertex -54.099594 1805.430298 -57.426220
   vertex -54.097080 1805.430298 -58.426216
  endloop
 endfacet
 facet normal -0.924194 -0.381916 -0.002323
  outer loop
   vertex -54.097080 1805.430298 -58.426216
   vertex -54.099594 1805.430298 -57.426220
   vertex -54.389355 1806.137573 -58.426952
  endloop
 endfacet
 facet normal -0.924194 -0.381916 -0.002323
  outer loop
   vertex -54.389355 1806.137573 -58.426952
   vertex -54.099594 1805.430298 -57.426220
   vertex -54.391869 1806.137573 -57.426956
  endloop
 endfacet
 facet normal -0.923553 0.383464 -0.002322
  outer loop
   vertex -54.391869 1806.137573 -57.426956
   vertex -54.095844 1806.844482 -58.426212
   vertex -54.389355 1806.137573 -58.426952
  endloop
 endfacet
 facet normal -0.923555 0.383460 -0.002325
  outer loop
   vertex -54.098362 1806.844482 -57.426216
   vertex -54.095844 1806.844482 -58.426212
   vertex -54.391869 1806.137573 -57.426956
  endloop
 endfacet
endsolid