solid stl file generated from DOUG
 facet normal -0.590380 -0.000000 -0.807126
  outer loop
   vertex -54.801113 1456.720825 28.219194
   vertex -54.911034 1456.720825 28.299597
   vertex -54.911045 1483.179321 28.299591
  endloop
 endfacet
 facet normal -0.999991 -0.000000 -0.004269
  outer loop
   vertex -54.911045 1483.179321 28.299591
   vertex -54.911034 1456.720825 28.299597
   vertex -54.911484 1483.179321 28.402346
  endloop
 endfacet
 facet normal -0.597222 -0.000000 0.802076
  outer loop
   vertex -54.796417 1483.179321 27.114664
   vertex -54.905651 1483.179321 27.033329
   vertex -54.905640 1456.720825 27.033333
  endloop
 endfacet
 facet normal -0.999991 -0.000000 -0.004269
  outer loop
   vertex -54.905640 1456.720825 27.033333
   vertex -54.905651 1483.179321 27.033329
   vertex -54.905212 1483.179321 26.930573
  endloop
 endfacet
 facet normal -0.999991 -0.000000 -0.004269
  outer loop
   vertex -54.905212 1483.179321 26.930573
   vertex -54.905201 1456.720825 26.930578
   vertex -54.905640 1456.720825 27.033333
  endloop
 endfacet
 facet normal -0.931898 -0.000000 -0.362720
  outer loop
   vertex -54.172493 1483.179321 26.933695
   vertex -54.172485 1456.720825 26.933701
   vertex -54.184704 1483.179321 26.965067
  endloop
 endfacet
 facet normal -0.931937 -0.000000 -0.362621
  outer loop
   vertex -54.184704 1483.179321 26.965067
   vertex -54.172485 1456.720825 26.933701
   vertex -54.184692 1456.720825 26.965073
  endloop
 endfacet
 facet normal 0.004261 -0.000000 -0.999991
  outer loop
   vertex -54.184692 1456.720825 26.965073
   vertex -54.759846 1456.720825 26.962622
   vertex -54.184704 1483.179321 26.965067
  endloop
 endfacet
 facet normal -0.590366 -0.000000 -0.807135
  outer loop
   vertex -54.911045 1483.179321 28.299591
   vertex -54.801121 1483.179321 28.219189
   vertex -54.801113 1456.720825 28.219194
  endloop
 endfacet
 facet normal -0.999991 -0.000000 -0.004258
  outer loop
   vertex -54.801113 1456.720825 28.219194
   vertex -54.801121 1483.179321 28.219189
   vertex -54.796417 1483.179321 27.114664
  endloop
 endfacet
 facet normal -0.999991 -0.000000 -0.004262
  outer loop
   vertex -54.796417 1483.179321 27.114664
   vertex -54.796406 1456.720825 27.114670
   vertex -54.801113 1456.720825 28.219194
  endloop
 endfacet
 facet normal -0.597231 -0.000000 0.802069
  outer loop
   vertex -54.905640 1456.720825 27.033333
   vertex -54.796406 1456.720825 27.114670
   vertex -54.796417 1483.179321 27.114664
  endloop
 endfacet
 facet normal 0.004260 -0.000000 -0.999991
  outer loop
   vertex -54.905201 1456.720825 26.930578
   vertex -54.905212 1483.179321 26.930573
   vertex -54.771786 1456.720825 26.931147
  endloop
 endfacet
 facet normal 0.004260 -0.000000 -0.999991
  outer loop
   vertex -54.771786 1456.720825 26.931147
   vertex -54.905212 1483.179321 26.930573
   vertex -54.771797 1483.179321 26.931141
  endloop
 endfacet
 facet normal 0.934986 0.000000 -0.354685
  outer loop
   vertex -54.771797 1483.179321 26.931141
   vertex -54.759846 1456.720825 26.962622
   vertex -54.771786 1456.720825 26.931147
  endloop
 endfacet
 facet normal 0.934948 0.000000 -0.354784
  outer loop
   vertex -54.759853 1483.179321 26.962616
   vertex -54.759846 1456.720825 26.962622
   vertex -54.771797 1483.179321 26.931141
  endloop
 endfacet
 facet normal 0.004261 -0.000000 -0.999991
  outer loop
   vertex -54.184704 1483.179321 26.965067
   vertex -54.759846 1456.720825 26.962622
   vertex -54.759853 1483.179321 26.962616
  endloop
 endfacet
 facet normal 0.000000 1.000000 0.000000
  outer loop
   vertex -54.930264 1483.594604 28.419306
   vertex -54.083355 1483.594604 26.917032
   vertex -54.923847 1483.594604 26.913452
  endloop
 endfacet
 facet normal 0.004259 -0.000000 -0.999991
  outer loop
   vertex -54.923847 1483.594604 26.913452
   vertex -54.083355 1483.594604 26.917032
   vertex -54.923847 1482.594604 26.913452
  endloop
 endfacet
 facet normal -0.999991 0.000000 -0.004261
  outer loop
   vertex -54.923847 1482.594604 26.913452
   vertex -54.930264 1482.594604 28.419306
   vertex -54.923847 1483.594604 26.913452
  endloop
 endfacet
 facet normal -0.000000 -1.000000 -0.000000
  outer loop
   vertex -54.083355 1482.594604 26.917034
   vertex -54.930264 1482.594604 28.419306
   vertex -54.923847 1482.594604 26.913452
  endloop
 endfacet
 facet normal 0.000000 -1.000000 0.000000
  outer loop
   vertex -54.089767 1482.594604 28.422888
   vertex -54.930264 1482.594604 28.419306
   vertex -54.083355 1482.594604 26.917034
  endloop
 endfacet
 facet normal 0.999991 0.000000 0.004258
  outer loop
   vertex -54.083355 1482.594604 26.917034
   vertex -54.083355 1483.594604 26.917032
   vertex -54.089767 1482.594604 28.422888
  endloop
 endfacet
 facet normal 0.999991 0.000000 0.004258
  outer loop
   vertex -54.089767 1482.594604 28.422888
   vertex -54.083355 1483.594604 26.917032
   vertex -54.089767 1483.594604 28.422888
  endloop
 endfacet
 facet normal -0.000000 1.000000 -0.000000
  outer loop
   vertex -54.089767 1483.594604 28.422888
   vertex -54.083355 1483.594604 26.917032
   vertex -54.930264 1483.594604 28.419306
  endloop
 endfacet
 facet normal -0.004262 0.000000 0.999991
  outer loop
   vertex -54.930264 1483.594604 28.419306
   vertex -54.930264 1482.594604 28.419306
   vertex -54.089767 1483.594604 28.422888
  endloop
 endfacet
 facet normal -0.999991 0.000000 -0.004261
  outer loop
   vertex -54.923847 1483.594604 26.913452
   vertex -54.930264 1482.594604 28.419306
   vertex -54.930264 1483.594604 28.419306
  endloop
 endfacet
 facet normal 0.000000 1.000000 0.000000
  outer loop
   vertex -54.923840 1457.305542 26.913458
   vertex -54.930252 1457.305542 28.419312
   vertex -54.083344 1457.305542 26.917038
  endloop
 endfacet
 facet normal -0.000000 1.000000 -0.000000
  outer loop
   vertex -54.083344 1457.305542 26.917038
   vertex -54.930252 1457.305542 28.419312
   vertex -54.089760 1457.305542 28.422894
  endloop
 endfacet
 facet normal 0.999991 -0.000000 0.004261
  outer loop
   vertex -54.089760 1457.305542 28.422894
   vertex -54.089760 1456.305542 28.422894
   vertex -54.083344 1457.305542 26.917038
  endloop
 endfacet
 facet normal -0.004262 -0.000000 0.999991
  outer loop
   vertex -54.930252 1457.305542 28.419312
   vertex -54.089760 1456.305542 28.422894
   vertex -54.089760 1457.305542 28.422894
  endloop
 endfacet
 facet normal -0.004262 0.000000 0.999991
  outer loop
   vertex -54.930252 1456.305542 28.419312
   vertex -54.089760 1456.305542 28.422894
   vertex -54.930252 1457.305542 28.419312
  endloop
 endfacet
 facet normal -0.999991 -0.000000 -0.004261
  outer loop
   vertex -54.930252 1457.305542 28.419312
   vertex -54.923836 1456.305542 26.913458
   vertex -54.930252 1456.305542 28.419312
  endloop
 endfacet
 facet normal 0.000000 -1.000000 0.000000
  outer loop
   vertex -54.930252 1456.305542 28.419312
   vertex -54.923836 1456.305542 26.913458
   vertex -54.089760 1456.305542 28.422894
  endloop
 endfacet
 facet normal -0.000000 -1.000000 -0.000000
  outer loop
   vertex -54.089760 1456.305542 28.422894
   vertex -54.923836 1456.305542 26.913458
   vertex -54.083344 1456.305542 26.917040
  endloop
 endfacet
 facet normal 0.999991 0.000000 0.004261
  outer loop
   vertex -54.083344 1456.305542 26.917040
   vertex -54.083344 1457.305542 26.917038
   vertex -54.089760 1456.305542 28.422894
  endloop
 endfacet
 facet normal 0.004262 -0.000002 -0.999991
  outer loop
   vertex -54.923836 1456.305542 26.913458
   vertex -54.083344 1457.305542 26.917038
   vertex -54.083344 1456.305542 26.917040
  endloop
 endfacet
 facet normal 0.004259 0.000000 -0.999991
  outer loop
   vertex -54.923840 1457.305542 26.913458
   vertex -54.083344 1457.305542 26.917038
   vertex -54.923836 1456.305542 26.913458
  endloop
 endfacet
 facet normal -0.999991 -0.000004 -0.004258
  outer loop
   vertex -54.923836 1456.305542 26.913458
   vertex -54.930252 1457.305542 28.419312
   vertex -54.923840 1457.305542 26.913458
  endloop
 endfacet
 facet normal -0.999991 -0.000000 -0.004269
  outer loop
   vertex -54.911034 1456.720825 28.299597
   vertex -54.911472 1456.720825 28.402351
   vertex -54.911484 1483.179321 28.402346
  endloop
 endfacet
 facet normal -0.004260 0.000000 0.999991
  outer loop
   vertex -54.911484 1483.179321 28.402346
   vertex -54.911472 1456.720825 28.402351
   vertex -54.778057 1456.720825 28.402920
  endloop
 endfacet
 facet normal -0.004260 0.000000 0.999991
  outer loop
   vertex -54.778057 1456.720825 28.402920
   vertex -54.778065 1483.179321 28.402914
   vertex -54.911484 1483.179321 28.402346
  endloop
 endfacet
 facet normal 0.931898 0.000000 0.362720
  outer loop
   vertex -54.765846 1456.720825 28.371548
   vertex -54.778065 1483.179321 28.402914
   vertex -54.778057 1456.720825 28.402920
  endloop
 endfacet
 facet normal 0.931937 0.000000 0.362621
  outer loop
   vertex -54.765858 1483.179321 28.371542
   vertex -54.778065 1483.179321 28.402914
   vertex -54.765846 1456.720825 28.371548
  endloop
 endfacet
 facet normal -0.004258 0.000000 0.999991
  outer loop
   vertex -54.765846 1456.720825 28.371548
   vertex -54.190697 1456.720825 28.373997
   vertex -54.765858 1483.179321 28.371542
  endloop
 endfacet
 facet normal -0.004258 0.000000 0.999991
  outer loop
   vertex -54.765858 1483.179321 28.371542
   vertex -54.190697 1456.720825 28.373997
   vertex -54.190704 1483.179321 28.373991
  endloop
 endfacet
 facet normal -0.934948 -0.000000 0.354784
  outer loop
   vertex -54.190704 1483.179321 28.373991
   vertex -54.190697 1456.720825 28.373997
   vertex -54.178753 1456.720825 28.405472
  endloop
 endfacet
 facet normal -0.934986 -0.000000 0.354685
  outer loop
   vertex -54.178753 1456.720825 28.405472
   vertex -54.178764 1483.179321 28.405466
   vertex -54.190704 1483.179321 28.373991
  endloop
 endfacet
 facet normal -0.004264 0.000000 0.999991
  outer loop
   vertex -54.112553 1456.720825 28.405754
   vertex -54.178764 1483.179321 28.405466
   vertex -54.178753 1456.720825 28.405472
  endloop
 endfacet
 facet normal -0.004264 0.000000 0.999991
  outer loop
   vertex -54.112564 1483.179321 28.405748
   vertex -54.178764 1483.179321 28.405466
   vertex -54.112553 1456.720825 28.405754
  endloop
 endfacet
 facet normal 0.999991 0.000000 0.004258
  outer loop
   vertex -54.112553 1456.720825 28.405754
   vertex -54.106285 1456.720825 26.933983
   vertex -54.112564 1483.179321 28.405748
  endloop
 endfacet
 facet normal 0.999991 0.000000 0.004261
  outer loop
   vertex -54.112564 1483.179321 28.405748
   vertex -54.106285 1456.720825 26.933983
   vertex -54.106293 1483.179321 26.933977
  endloop
 endfacet
 facet normal 0.004264 -0.000000 -0.999991
  outer loop
   vertex -54.106293 1483.179321 26.933977
   vertex -54.106285 1456.720825 26.933983
   vertex -54.172493 1483.179321 26.933695
  endloop
 endfacet
 facet normal 0.004262 -0.000002 -0.999991
  outer loop
   vertex -54.083355 1482.594604 26.917034
   vertex -54.923847 1482.594604 26.913452
   vertex -54.083355 1483.594604 26.917032
  endloop
 endfacet
 facet normal -0.004262 0.000000 0.999991
  outer loop
   vertex -54.930264 1482.594604 28.419306
   vertex -54.089767 1482.594604 28.422888
   vertex -54.089767 1483.594604 28.422888
  endloop
 endfacet
 facet normal 0.004264 -0.000000 -0.999991
  outer loop
   vertex -54.106285 1456.720825 26.933983
   vertex -54.172485 1456.720825 26.933701
   vertex -54.172493 1483.179321 26.933695
  endloop
 endfacet
 facet normal -0.570867 -0.759374 0.312188
  outer loop
   vertex -53.146019 1456.590088 27.673973
   vertex -52.146030 1455.840088 27.678232
   vertex -53.146774 1456.663330 27.850748
  endloop
 endfacet
 facet normal -0.570904 -0.759395 0.312071
  outer loop
   vertex -53.146774 1456.663330 27.850748
   vertex -52.146030 1455.840088 27.678232
   vertex -52.149044 1456.132935 28.385334
  endloop
 endfacet
 facet normal -0.572796 -0.314578 0.756932
  outer loop
   vertex -52.149044 1456.132935 28.385334
   vertex -53.147087 1456.840088 27.923971
   vertex -53.146774 1456.663330 27.850748
  endloop
 endfacet
 facet normal -0.572778 -0.314532 0.756964
  outer loop
   vertex -52.150291 1456.840088 28.678225
   vertex -53.147087 1456.840088 27.923971
   vertex -52.149044 1456.132935 28.385334
  endloop
 endfacet
 facet normal -0.572768 0.314585 0.756950
  outer loop
   vertex -53.146774 1457.016846 27.850748
   vertex -53.147087 1456.840088 27.923971
   vertex -52.150291 1456.840088 28.678225
  endloop
 endfacet
 facet normal -0.572785 0.314532 0.756959
  outer loop
   vertex -52.150291 1456.840088 28.678225
   vertex -52.149044 1457.547241 28.385332
   vertex -53.146774 1457.016846 27.850748
  endloop
 endfacet
 facet normal -0.570929 0.759330 0.312182
  outer loop
   vertex -53.146774 1457.016846 27.850748
   vertex -52.149044 1457.547241 28.385332
   vertex -53.146023 1457.090088 27.673973
  endloop
 endfacet
 facet normal -0.570887 0.759405 0.312076
  outer loop
   vertex -53.146023 1457.090088 27.673973
   vertex -52.149044 1457.547241 28.385332
   vertex -52.146030 1457.840088 27.678232
  endloop
 endfacet
 facet normal -0.568183 0.759372 -0.317054
  outer loop
   vertex -52.146030 1457.840088 27.678232
   vertex -53.145267 1457.016846 27.497198
   vertex -53.146023 1457.090088 27.673973
  endloop
 endfacet
 facet normal -0.568224 0.759394 -0.316926
  outer loop
   vertex -52.143017 1457.547241 26.971132
   vertex -53.145267 1457.016846 27.497198
   vertex -52.146030 1457.840088 27.678232
  endloop
 endfacet
 facet normal -0.566324 0.314573 -0.761788
  outer loop
   vertex -53.144955 1456.840088 27.423975
   vertex -53.145267 1457.016846 27.497198
   vertex -52.143017 1457.547241 26.971132
  endloop
 endfacet
 facet normal -0.566308 0.314532 -0.761817
  outer loop
   vertex -52.143017 1457.547241 26.971132
   vertex -52.141769 1456.840088 26.678242
   vertex -53.144955 1456.840088 27.423975
  endloop
 endfacet
 facet normal -0.566299 -0.314580 -0.761804
  outer loop
   vertex -53.144955 1456.840088 27.423975
   vertex -52.141769 1456.840088 26.678242
   vertex -53.145267 1456.663330 27.497198
  endloop
 endfacet
 facet normal -0.566315 -0.314530 -0.761813
  outer loop
   vertex -53.145267 1456.663330 27.497198
   vertex -52.141769 1456.840088 26.678242
   vertex -52.143017 1456.132935 26.971132
  endloop
 endfacet
 facet normal -0.568246 -0.759335 -0.317027
  outer loop
   vertex -52.143017 1456.132935 26.971132
   vertex -53.146019 1456.590088 27.673973
   vertex -53.145267 1456.663330 27.497198
  endloop
 endfacet
 facet normal -0.568209 -0.759403 -0.316930
  outer loop
   vertex -52.146030 1455.840088 27.678232
   vertex -53.146019 1456.590088 27.673973
   vertex -52.143017 1456.132935 26.971132
  endloop
 endfacet
 facet normal -0.001630 -0.923845 0.382764
  outer loop
   vertex -54.135983 1482.810059 27.669750
   vertex -53.135994 1482.810059 27.674009
   vertex -54.136738 1482.883301 27.846525
  endloop
 endfacet
 facet normal -0.001630 -0.923845 0.382764
  outer loop
   vertex -54.136738 1482.883301 27.846525
   vertex -53.135994 1482.810059 27.674009
   vertex -53.136745 1482.883301 27.850784
  endloop
 endfacet
 facet normal -0.003935 -0.382712 0.923859
  outer loop
   vertex -53.136745 1482.883301 27.850784
   vertex -54.137051 1483.060059 27.919746
   vertex -54.136738 1482.883301 27.846525
  endloop
 endfacet
 facet normal -0.003937 -0.382720 0.923856
  outer loop
   vertex -53.137058 1483.060059 27.924007
   vertex -54.137051 1483.060059 27.919746
   vertex -53.136745 1482.883301 27.850784
  endloop
 endfacet
 facet normal -0.003937 0.382712 0.923859
  outer loop
   vertex -54.136738 1483.236816 27.846525
   vertex -54.137051 1483.060059 27.919746
   vertex -53.137058 1483.060059 27.924007
  endloop
 endfacet
 facet normal -0.003935 0.382720 0.923856
  outer loop
   vertex -53.137058 1483.060059 27.924007
   vertex -53.136745 1483.236816 27.850784
   vertex -54.136738 1483.236816 27.846525
  endloop
 endfacet
 facet normal -0.001630 0.923845 0.382764
  outer loop
   vertex -54.136738 1483.236816 27.846525
   vertex -53.136745 1483.236816 27.850784
   vertex -54.135983 1483.310059 27.669750
  endloop
 endfacet
 facet normal -0.001630 0.923845 0.382764
  outer loop
   vertex -54.135983 1483.310059 27.669750
   vertex -53.136745 1483.236816 27.850784
   vertex -53.135994 1483.310059 27.674009
  endloop
 endfacet
 facet normal 0.001630 0.923845 -0.382764
  outer loop
   vertex -53.135994 1483.310059 27.674009
   vertex -54.135231 1483.236816 27.492975
   vertex -54.135983 1483.310059 27.669750
  endloop
 endfacet
 facet normal 0.001630 0.923845 -0.382764
  outer loop
   vertex -53.135239 1483.236816 27.497234
   vertex -54.135231 1483.236816 27.492975
   vertex -53.135994 1483.310059 27.674009
  endloop
 endfacet
 facet normal 0.003935 0.382720 -0.923856
  outer loop
   vertex -54.134918 1483.060059 27.419752
   vertex -54.135231 1483.236816 27.492975
   vertex -53.135239 1483.236816 27.497234
  endloop
 endfacet
 facet normal 0.003935 0.382720 -0.923856
  outer loop
   vertex -53.135239 1483.236816 27.497234
   vertex -53.134930 1483.060059 27.424011
   vertex -54.134918 1483.060059 27.419752
  endloop
 endfacet
 facet normal 0.003935 -0.382720 -0.923856
  outer loop
   vertex -54.134918 1483.060059 27.419752
   vertex -53.134930 1483.060059 27.424011
   vertex -54.135231 1482.883301 27.492975
  endloop
 endfacet
 facet normal 0.003935 -0.382720 -0.923856
  outer loop
   vertex -54.135231 1482.883301 27.492975
   vertex -53.134930 1483.060059 27.424011
   vertex -53.135239 1482.883301 27.497234
  endloop
 endfacet
 facet normal 0.001630 -0.923845 -0.382764
  outer loop
   vertex -53.135239 1482.883301 27.497234
   vertex -54.135983 1482.810059 27.669750
   vertex -54.135231 1482.883301 27.492975
  endloop
 endfacet
 facet normal 0.001630 -0.923845 -0.382764
  outer loop
   vertex -53.135994 1482.810059 27.674009
   vertex -54.135983 1482.810059 27.669750
   vertex -53.135239 1482.883301 27.497234
  endloop
 endfacet
 facet normal -0.001631 -0.923845 0.382764
  outer loop
   vertex -52.146038 1482.060059 27.678226
   vertex -51.146049 1482.060059 27.682487
   vertex -52.149052 1482.353027 28.385328
  endloop
 endfacet
 facet normal -0.001630 -0.923845 0.382764
  outer loop
   vertex -52.149052 1482.353027 28.385328
   vertex -51.146049 1482.060059 27.682487
   vertex -51.149059 1482.353027 28.389587
  endloop
 endfacet
 facet normal -0.003935 -0.382718 0.923857
  outer loop
   vertex -51.149059 1482.353027 28.389587
   vertex -52.150299 1483.060059 28.678219
   vertex -52.149052 1482.353027 28.385328
  endloop
 endfacet
 facet normal -0.003935 -0.382718 0.923857
  outer loop
   vertex -51.150311 1483.060059 28.682478
   vertex -52.150299 1483.060059 28.678219
   vertex -51.149059 1482.353027 28.389587
  endloop
 endfacet
 facet normal -0.003935 0.382664 0.923879
  outer loop
   vertex -52.149052 1483.767212 28.385326
   vertex -52.150299 1483.060059 28.678219
   vertex -51.150311 1483.060059 28.682478
  endloop
 endfacet
 facet normal -0.003937 0.382662 0.923880
  outer loop
   vertex -51.150311 1483.060059 28.682478
   vertex -51.149063 1483.767212 28.389587
   vertex -52.149052 1483.767212 28.385326
  endloop
 endfacet
 facet normal -0.001630 0.923901 0.382628
  outer loop
   vertex -52.149052 1483.767212 28.385326
   vertex -51.149063 1483.767212 28.389587
   vertex -52.146042 1484.060059 27.678226
  endloop
 endfacet
 facet normal -0.001630 0.923901 0.382628
  outer loop
   vertex -52.146042 1484.060059 27.678226
   vertex -51.149063 1483.767212 28.389587
   vertex -51.146049 1484.060059 27.682487
  endloop
 endfacet
 facet normal 0.001630 0.923901 -0.382628
  outer loop
   vertex -51.146049 1484.060059 27.682487
   vertex -52.143028 1483.767212 26.971127
   vertex -52.146042 1484.060059 27.678226
  endloop
 endfacet
 facet normal 0.001630 0.923901 -0.382628
  outer loop
   vertex -51.143036 1483.767212 26.975388
   vertex -52.143028 1483.767212 26.971127
   vertex -51.146049 1484.060059 27.682487
  endloop
 endfacet
 facet normal 0.003937 0.382662 -0.923880
  outer loop
   vertex -52.141781 1483.060059 26.678236
   vertex -52.143028 1483.767212 26.971127
   vertex -51.143036 1483.767212 26.975388
  endloop
 endfacet
 facet normal 0.003937 0.382662 -0.923880
  outer loop
   vertex -51.143036 1483.767212 26.975388
   vertex -51.141788 1483.060059 26.682497
   vertex -52.141781 1483.060059 26.678236
  endloop
 endfacet
 facet normal 0.003937 -0.382662 -0.923880
  outer loop
   vertex -52.141781 1483.060059 26.678236
   vertex -51.141788 1483.060059 26.682497
   vertex -52.143028 1482.352905 26.971127
  endloop
 endfacet
 facet normal 0.003982 -0.382716 -0.923857
  outer loop
   vertex -52.143028 1482.352905 26.971127
   vertex -51.141788 1483.060059 26.682497
   vertex -51.143036 1482.353027 26.975386
  endloop
 endfacet
 facet normal 0.001742 -0.923901 -0.382628
  outer loop
   vertex -51.143036 1482.353027 26.975386
   vertex -52.146038 1482.060059 27.678226
   vertex -52.143028 1482.352905 26.971127
  endloop
 endfacet
 facet normal 0.001631 -0.923845 -0.382764
  outer loop
   vertex -51.146049 1482.060059 27.682487
   vertex -52.146038 1482.060059 27.678226
   vertex -51.143036 1482.353027 26.975386
  endloop
 endfacet
 facet normal -0.570863 -0.759372 0.312200
  outer loop
   vertex -53.146030 1482.810059 27.673967
   vertex -52.146038 1482.060059 27.678226
   vertex -53.146782 1482.883301 27.850742
  endloop
 endfacet
 facet normal -0.570865 -0.759374 0.312193
  outer loop
   vertex -53.146782 1482.883301 27.850742
   vertex -52.146038 1482.060059 27.678226
   vertex -52.149052 1482.353027 28.385328
  endloop
 endfacet
 facet normal -0.572770 -0.314585 0.756949
  outer loop
   vertex -52.149052 1482.353027 28.385328
   vertex -53.147095 1483.060059 27.923965
   vertex -53.146782 1482.883301 27.850742
  endloop
 endfacet
 facet normal -0.572768 -0.314581 0.756951
  outer loop
   vertex -52.150299 1483.060059 28.678219
   vertex -53.147095 1483.060059 27.923965
   vertex -52.149052 1482.353027 28.385328
  endloop
 endfacet
 facet normal -0.572770 0.314574 0.756953
  outer loop
   vertex -53.146786 1483.236816 27.850742
   vertex -53.147095 1483.060059 27.923965
   vertex -52.150299 1483.060059 28.678219
  endloop
 endfacet
 facet normal -0.572783 0.314532 0.756960
  outer loop
   vertex -52.150299 1483.060059 28.678219
   vertex -52.149052 1483.767212 28.385326
   vertex -53.146786 1483.236816 27.850742
  endloop
 endfacet
 facet normal -0.570925 0.759337 0.312172
  outer loop
   vertex -53.146786 1483.236816 27.850742
   vertex -52.149052 1483.767212 28.385326
   vertex -53.146030 1483.310059 27.673967
  endloop
 endfacet
 facet normal -0.570888 0.759403 0.312078
  outer loop
   vertex -53.146030 1483.310059 27.673967
   vertex -52.149052 1483.767212 28.385326
   vertex -52.146042 1484.060059 27.678226
  endloop
 endfacet
 facet normal -0.568186 0.759374 -0.317042
  outer loop
   vertex -52.146042 1484.060059 27.678226
   vertex -53.145279 1483.236816 27.497192
   vertex -53.146030 1483.310059 27.673967
  endloop
 endfacet
 facet normal -0.568224 0.759394 -0.316926
  outer loop
   vertex -52.143028 1483.767212 26.971127
   vertex -53.145279 1483.236816 27.497192
   vertex -52.146042 1484.060059 27.678226
  endloop
 endfacet
 facet normal -0.566324 0.314573 -0.761788
  outer loop
   vertex -53.144966 1483.060059 27.423969
   vertex -53.145279 1483.236816 27.497192
   vertex -52.143028 1483.767212 26.971127
  endloop
 endfacet
 facet normal -0.566308 0.314532 -0.761817
  outer loop
   vertex -52.143028 1483.767212 26.971127
   vertex -52.141781 1483.060059 26.678236
   vertex -53.144966 1483.060059 27.423969
  endloop
 endfacet
 facet normal -0.566299 -0.314580 -0.761804
  outer loop
   vertex -53.144966 1483.060059 27.423969
   vertex -52.141781 1483.060059 26.678236
   vertex -53.145279 1482.883301 27.497192
  endloop
 endfacet
 facet normal -0.566315 -0.314530 -0.761813
  outer loop
   vertex -53.145279 1482.883301 27.497192
   vertex -52.141781 1483.060059 26.678236
   vertex -52.143028 1482.352905 26.971127
  endloop
 endfacet
 facet normal -0.568246 -0.759335 -0.317027
  outer loop
   vertex -52.143028 1482.352905 26.971127
   vertex -53.146030 1482.810059 27.673967
   vertex -53.145279 1482.883301 27.497192
  endloop
 endfacet
 facet normal -0.568208 -0.759405 -0.316928
  outer loop
   vertex -52.146038 1482.060059 27.678226
   vertex -53.146030 1482.810059 27.673967
   vertex -52.143028 1482.352905 26.971127
  endloop
 endfacet
 facet normal -0.001630 -0.923845 0.382764
  outer loop
   vertex -54.135975 1456.590088 27.669756
   vertex -53.135983 1456.590088 27.674015
   vertex -54.136726 1456.663330 27.846531
  endloop
 endfacet
 facet normal -0.001630 -0.923845 0.382764
  outer loop
   vertex -54.136726 1456.663330 27.846531
   vertex -53.135983 1456.590088 27.674015
   vertex -53.136738 1456.663330 27.850790
  endloop
 endfacet
 facet normal -0.003935 -0.382712 0.923859
  outer loop
   vertex -53.136738 1456.663330 27.850790
   vertex -54.137039 1456.840088 27.919752
   vertex -54.136726 1456.663330 27.846531
  endloop
 endfacet
 facet normal -0.003937 -0.382720 0.923856
  outer loop
   vertex -53.137047 1456.840088 27.924013
   vertex -54.137039 1456.840088 27.919752
   vertex -53.136738 1456.663330 27.850790
  endloop
 endfacet
 facet normal -0.003937 0.382712 0.923859
  outer loop
   vertex -54.136726 1457.016846 27.846531
   vertex -54.137039 1456.840088 27.919752
   vertex -53.137047 1456.840088 27.924013
  endloop
 endfacet
 facet normal -0.003935 0.382720 0.923856
  outer loop
   vertex -53.137047 1456.840088 27.924013
   vertex -53.136738 1457.016846 27.850790
   vertex -54.136726 1457.016846 27.846531
  endloop
 endfacet
 facet normal -0.001630 0.923845 0.382764
  outer loop
   vertex -54.136726 1457.016846 27.846531
   vertex -53.136738 1457.016846 27.850790
   vertex -54.135975 1457.090088 27.669756
  endloop
 endfacet
 facet normal -0.001630 0.923845 0.382764
  outer loop
   vertex -54.135975 1457.090088 27.669756
   vertex -53.136738 1457.016846 27.850790
   vertex -53.135983 1457.090088 27.674015
  endloop
 endfacet
 facet normal 0.001630 0.923845 -0.382764
  outer loop
   vertex -53.135983 1457.090088 27.674015
   vertex -54.135220 1457.016846 27.492981
   vertex -54.135975 1457.090088 27.669756
  endloop
 endfacet
 facet normal 0.001630 0.923845 -0.382764
  outer loop
   vertex -53.135231 1457.016846 27.497240
   vertex -54.135220 1457.016846 27.492981
   vertex -53.135983 1457.090088 27.674015
  endloop
 endfacet
 facet normal 0.003935 0.382720 -0.923856
  outer loop
   vertex -54.134911 1456.840088 27.419758
   vertex -54.135220 1457.016846 27.492981
   vertex -53.135231 1457.016846 27.497240
  endloop
 endfacet
 facet normal 0.003935 0.382720 -0.923856
  outer loop
   vertex -53.135231 1457.016846 27.497240
   vertex -53.134918 1456.840088 27.424017
   vertex -54.134911 1456.840088 27.419758
  endloop
 endfacet
 facet normal 0.003935 -0.382720 -0.923856
  outer loop
   vertex -54.134911 1456.840088 27.419758
   vertex -53.134918 1456.840088 27.424017
   vertex -54.135220 1456.663330 27.492981
  endloop
 endfacet
 facet normal 0.003935 -0.382720 -0.923856
  outer loop
   vertex -54.135220 1456.663330 27.492981
   vertex -53.134918 1456.840088 27.424017
   vertex -53.135231 1456.663330 27.497240
  endloop
 endfacet
 facet normal 0.001630 -0.923845 -0.382764
  outer loop
   vertex -53.135231 1456.663330 27.497240
   vertex -54.135975 1456.590088 27.669756
   vertex -54.135220 1456.663330 27.492981
  endloop
 endfacet
 facet normal 0.001630 -0.923845 -0.382764
  outer loop
   vertex -53.135983 1456.590088 27.674015
   vertex -54.135975 1456.590088 27.669756
   vertex -53.135231 1456.663330 27.497240
  endloop
 endfacet
 facet normal 0.001630 -0.923901 -0.382628
  outer loop
   vertex -52.143017 1456.132935 26.971132
   vertex -51.143028 1456.132935 26.975391
   vertex -52.146030 1455.840088 27.678232
  endloop
 endfacet
 facet normal 0.001630 -0.923901 -0.382627
  outer loop
   vertex -52.146030 1455.840088 27.678232
   vertex -51.143028 1456.132935 26.975391
   vertex -51.146038 1455.840088 27.682493
  endloop
 endfacet
 facet normal -0.001630 -0.923901 0.382627
  outer loop
   vertex -51.146038 1455.840088 27.682493
   vertex -52.149044 1456.132935 28.385334
   vertex -52.146030 1455.840088 27.678232
  endloop
 endfacet
 facet normal -0.001630 -0.923901 0.382628
  outer loop
   vertex -51.149052 1456.132935 28.389593
   vertex -52.149044 1456.132935 28.385334
   vertex -51.146038 1455.840088 27.682493
  endloop
 endfacet
 facet normal -0.003935 -0.382662 0.923880
  outer loop
   vertex -52.150291 1456.840088 28.678225
   vertex -52.149044 1456.132935 28.385334
   vertex -51.149052 1456.132935 28.389593
  endloop
 endfacet
 facet normal -0.003935 -0.382662 0.923880
  outer loop
   vertex -51.149052 1456.132935 28.389593
   vertex -51.150299 1456.840088 28.682484
   vertex -52.150291 1456.840088 28.678225
  endloop
 endfacet
 facet normal -0.003935 0.382664 0.923879
  outer loop
   vertex -52.150291 1456.840088 28.678225
   vertex -51.150299 1456.840088 28.682484
   vertex -52.149044 1457.547241 28.385332
  endloop
 endfacet
 facet normal -0.003937 0.382662 0.923880
  outer loop
   vertex -52.149044 1457.547241 28.385332
   vertex -51.150299 1456.840088 28.682484
   vertex -51.149052 1457.547241 28.389593
  endloop
 endfacet
 facet normal -0.001630 0.923901 0.382628
  outer loop
   vertex -51.149052 1457.547241 28.389593
   vertex -52.146030 1457.840088 27.678232
   vertex -52.149044 1457.547241 28.385332
  endloop
 endfacet
 facet normal -0.001630 0.923901 0.382628
  outer loop
   vertex -51.146038 1457.840088 27.682493
   vertex -52.146030 1457.840088 27.678232
   vertex -51.149052 1457.547241 28.389593
  endloop
 endfacet
 facet normal 0.001630 0.923901 -0.382628
  outer loop
   vertex -52.143017 1457.547241 26.971132
   vertex -52.146030 1457.840088 27.678232
   vertex -51.146038 1457.840088 27.682493
  endloop
 endfacet
 facet normal 0.001630 0.923901 -0.382628
  outer loop
   vertex -51.146038 1457.840088 27.682493
   vertex -51.143028 1457.547241 26.975393
   vertex -52.143017 1457.547241 26.971132
  endloop
 endfacet
 facet normal 0.003937 0.382662 -0.923880
  outer loop
   vertex -52.143017 1457.547241 26.971132
   vertex -51.143028 1457.547241 26.975393
   vertex -52.141769 1456.840088 26.678242
  endloop
 endfacet
 facet normal 0.003937 0.382662 -0.923880
  outer loop
   vertex -52.141769 1456.840088 26.678242
   vertex -51.143028 1457.547241 26.975393
   vertex -51.141781 1456.840088 26.682503
  endloop
 endfacet
 facet normal 0.003937 -0.382662 -0.923880
  outer loop
   vertex -51.141781 1456.840088 26.682503
   vertex -52.143017 1456.132935 26.971132
   vertex -52.141769 1456.840088 26.678242
  endloop
 endfacet
 facet normal 0.003935 -0.382660 -0.923881
  outer loop
   vertex -51.143028 1456.132935 26.975391
   vertex -52.143017 1456.132935 26.971132
   vertex -51.141781 1456.840088 26.682503
  endloop
 endfacet
endsolid