solid stl file generated from DOUG
 facet normal 0.000000 -0.990268 -0.139173
  outer loop
   vertex -1386.246826 12.059136 77.141663
   vertex -1386.246826 12.213699 76.041893
   vertex -1385.246826 12.059136 77.141663
  endloop
 endfacet
 facet normal 0.000000 -0.990268 -0.139173
  outer loop
   vertex -1385.246826 12.059136 77.141663
   vertex -1386.246826 12.213699 76.041893
   vertex -1385.246826 12.213699 76.041893
  endloop
 endfacet
 facet normal 1.000000 0.000000 0.000000
  outer loop
   vertex -1385.246826 12.213699 76.041893
   vertex -1385.246826 16.972832 77.625618
   vertex -1385.246826 12.059136 77.141663
  endloop
 endfacet
 facet normal 1.000000 -0.000000 0.000000
  outer loop
   vertex -1385.246826 17.190357 76.532051
   vertex -1385.246826 16.972832 77.625618
   vertex -1385.246826 12.213699 76.041893
  endloop
 endfacet
 facet normal 1.000000 -0.000000 0.000000
  outer loop
   vertex -1385.246826 27.104065 79.539345
   vertex -1385.246826 16.972832 77.625618
   vertex -1385.246826 17.190357 76.532051
  endloop
 endfacet
 facet normal -1.000000 -0.000000 0.000000
  outer loop
   vertex -1386.246826 26.761106 80.594864
   vertex -1386.246826 27.104065 79.539345
   vertex -1386.246826 16.972832 77.625618
  endloop
 endfacet
 facet normal -1.000000 -0.000000 -0.000000
  outer loop
   vertex -1386.246826 16.972832 77.625618
   vertex -1386.246826 27.104065 79.539345
   vertex -1386.246826 17.190357 76.532051
  endloop
 endfacet
 facet normal -1.000000 0.000000 0.000000
  outer loop
   vertex -1386.246826 17.190357 76.532051
   vertex -1386.246826 12.213699 76.041893
   vertex -1386.246826 16.972832 77.625618
  endloop
 endfacet
 facet normal -1.000000 0.000000 0.000000
  outer loop
   vertex -1386.246826 12.213699 76.041893
   vertex -1386.246826 12.059136 77.141663
   vertex -1386.246826 16.972832 77.625618
  endloop
 endfacet
 facet normal 1.000000 0.000000 0.000000
  outer loop
   vertex -1385.246826 26.761106 80.594864
   vertex -1385.246826 16.972832 77.625618
   vertex -1385.246826 27.104065 79.539345
  endloop
 endfacet
 facet normal 0.000000 0.951057 0.309017
  outer loop
   vertex -1386.246826 26.761106 80.594864
   vertex -1385.246826 26.761106 80.594864
   vertex -1386.246826 27.104065 79.539345
  endloop
 endfacet
 facet normal 0.000000 -0.098017 0.995185
  outer loop
   vertex -1386.246826 12.059136 77.141663
   vertex -1385.246826 12.059136 77.141663
   vertex -1386.246826 16.972832 77.625618
  endloop
 endfacet
 facet normal -0.000000 -0.098017 0.995185
  outer loop
   vertex -1386.246826 16.972832 77.625618
   vertex -1385.246826 12.059136 77.141663
   vertex -1385.246826 16.972832 77.625618
  endloop
 endfacet
 facet normal 0.000000 -0.290285 0.956940
  outer loop
   vertex -1385.246826 16.972832 77.625618
   vertex -1386.246826 26.761106 80.594864
   vertex -1386.246826 16.972832 77.625618
  endloop
 endfacet
 facet normal -0.000000 -0.290285 0.956940
  outer loop
   vertex -1385.246826 26.761106 80.594864
   vertex -1386.246826 26.761106 80.594864
   vertex -1385.246826 16.972832 77.625618
  endloop
 endfacet
 facet normal 0.000000 0.098017 -0.995185
  outer loop
   vertex -1385.246826 12.213699 76.041893
   vertex -1386.246826 12.213699 76.041893
   vertex -1385.246826 17.190357 76.532051
  endloop
 endfacet
 facet normal -0.000000 0.098017 -0.995185
  outer loop
   vertex -1385.246826 17.190357 76.532051
   vertex -1386.246826 12.213699 76.041893
   vertex -1386.246826 17.190357 76.532051
  endloop
 endfacet
 facet normal 0.000000 0.290285 -0.956940
  outer loop
   vertex -1386.246826 17.190357 76.532051
   vertex -1385.246826 27.104065 79.539345
   vertex -1385.246826 17.190357 76.532051
  endloop
 endfacet
 facet normal -0.000000 0.290285 -0.956940
  outer loop
   vertex -1386.246826 27.104065 79.539345
   vertex -1385.246826 27.104065 79.539345
   vertex -1386.246826 17.190357 76.532051
  endloop
 endfacet
endsolid