solid stl file generated from DOUG
 facet normal -1.000000 0.000000 0.000000
  outer loop
   vertex -1157.252319 -17.288553 96.273293
   vertex -1157.252319 -25.218342 98.414619
   vertex -1157.252319 -24.251553 99.669510
  endloop
 endfacet
 facet normal -0.000000 -0.792170 0.610301
  outer loop
   vertex -1157.252319 -24.251553 99.669510
   vertex -1157.252319 -25.218342 98.414619
   vertex -1156.252319 -25.218342 98.414619
  endloop
 endfacet
 facet normal 0.000000 -0.792170 0.610301
  outer loop
   vertex -1156.252319 -25.218342 98.414619
   vertex -1156.252319 -24.251553 99.669510
   vertex -1157.252319 -24.251553 99.669510
  endloop
 endfacet
 facet normal 1.000000 -0.000000 0.000000
  outer loop
   vertex -1156.252319 -17.288553 96.273293
   vertex -1156.252319 -24.251553 99.669510
   vertex -1156.252319 -25.218342 98.414619
  endloop
 endfacet
 facet normal 1.000000 0.000000 0.000000
  outer loop
   vertex -1156.252319 -41.327705 108.953575
   vertex -1156.252319 -52.085258 119.684021
   vertex -1156.252319 -53.215927 118.744720
  endloop
 endfacet
 facet normal -0.000000 -0.639010 0.769198
  outer loop
   vertex -1156.252319 -53.215927 118.744720
   vertex -1156.252319 -52.085258 119.684021
   vertex -1157.252319 -52.085258 119.684021
  endloop
 endfacet
 facet normal 0.000000 -0.639010 0.769198
  outer loop
   vertex -1157.252319 -52.085258 119.684021
   vertex -1157.252319 -53.215927 118.744720
   vertex -1156.252319 -53.215927 118.744720
  endloop
 endfacet
 facet normal -1.000000 0.000000 -0.000000
  outer loop
   vertex -1157.252319 -41.327705 108.953575
   vertex -1157.252319 -53.215927 118.744720
   vertex -1157.252319 -52.085258 119.684021
  endloop
 endfacet
 facet normal -1.000000 0.000000 0.000000
  outer loop
   vertex -1157.252319 -42.224850 107.781342
   vertex -1157.252319 -53.215927 118.744720
   vertex -1157.252319 -41.327705 108.953575
  endloop
 endfacet
 facet normal -1.000000 0.000000 -0.000000
  outer loop
   vertex -1157.252319 -42.224850 107.781342
   vertex -1157.252319 -41.327705 108.953575
   vertex -1157.252319 -26.506390 98.732674
  endloop
 endfacet
 facet normal -1.000000 -0.000000 -0.000000
  outer loop
   vertex -1157.252319 -26.506390 98.732674
   vertex -1157.252319 -41.327705 108.953575
   vertex -1157.252319 -25.943213 100.097198
  endloop
 endfacet
 facet normal -1.000000 0.000000 0.000000
  outer loop
   vertex -1157.252319 -25.943213 100.097198
   vertex -1157.252319 -17.288553 96.273293
   vertex -1157.252319 -26.506390 98.732674
  endloop
 endfacet
 facet normal -1.000000 -0.000000 0.000000
  outer loop
   vertex -1157.252319 -16.921223 97.690048
   vertex -1157.252319 -17.288553 96.273293
   vertex -1157.252319 -25.943213 100.097198
  endloop
 endfacet
 facet normal 0.000000 0.967993 -0.250977
  outer loop
   vertex -1156.252319 -17.288553 96.273293
   vertex -1157.252319 -17.288553 96.273293
   vertex -1157.252319 -16.921223 97.690048
  endloop
 endfacet
 facet normal -0.000000 0.967993 -0.250977
  outer loop
   vertex -1157.252319 -16.921223 97.690048
   vertex -1156.252319 -16.921223 97.690048
   vertex -1156.252319 -17.288553 96.273293
  endloop
 endfacet
 facet normal 1.000000 0.000000 0.000000
  outer loop
   vertex -1156.252319 -17.288553 96.273293
   vertex -1156.252319 -16.921223 97.690048
   vertex -1156.252319 -24.251553 99.669510
  endloop
 endfacet
 facet normal 1.000000 0.000000 -0.000000
  outer loop
   vertex -1156.252319 -53.215927 118.744720
   vertex -1156.252319 -42.224850 107.781342
   vertex -1156.252319 -41.327705 108.953575
  endloop
 endfacet
 facet normal 1.000000 -0.000000 -0.000000
  outer loop
   vertex -1156.252319 -41.327705 108.953575
   vertex -1156.252319 -42.224850 107.781342
   vertex -1156.252319 -26.506390 98.732674
  endloop
 endfacet
 facet normal 1.000000 0.000000 0.000000
  outer loop
   vertex -1156.252319 -26.506390 98.732674
   vertex -1156.252319 -25.943213 100.097198
   vertex -1156.252319 -41.327705 108.953575
  endloop
 endfacet
 facet normal 1.000000 -0.000000 0.000000
  outer loop
   vertex -1156.252319 -17.288553 96.273293
   vertex -1156.252319 -25.943213 100.097198
   vertex -1156.252319 -26.506390 98.732674
  endloop
 endfacet
 facet normal 1.000000 0.000000 0.000000
  outer loop
   vertex -1156.252319 -16.921223 97.690048
   vertex -1156.252319 -25.943213 100.097198
   vertex -1156.252319 -17.288553 96.273293
  endloop
 endfacet
 facet normal -1.000000 -0.000000 0.000000
  outer loop
   vertex -1157.252319 -24.251553 99.669510
   vertex -1157.252319 -16.921223 97.690048
   vertex -1157.252319 -17.288553 96.273293
  endloop
 endfacet
 facet normal 0.000000 -0.260698 -0.965420
  outer loop
   vertex -1157.252319 -25.218342 98.414619
   vertex -1157.252319 -17.288553 96.273293
   vertex -1156.252319 -25.218342 98.414619
  endloop
 endfacet
 facet normal 0.000000 -0.260698 -0.965420
  outer loop
   vertex -1156.252319 -25.218342 98.414619
   vertex -1157.252319 -17.288553 96.273293
   vertex -1156.252319 -17.288553 96.273293
  endloop
 endfacet
 facet normal -0.000000 0.260699 0.965420
  outer loop
   vertex -1156.252319 -16.921223 97.690048
   vertex -1157.252319 -16.921223 97.690048
   vertex -1156.252319 -24.251553 99.669510
  endloop
 endfacet
 facet normal -0.000000 0.260699 0.965420
  outer loop
   vertex -1156.252319 -24.251553 99.669510
   vertex -1157.252319 -16.921223 97.690048
   vertex -1157.252319 -24.251553 99.669510
  endloop
 endfacet
 facet normal -0.000000 0.257791 0.966201
  outer loop
   vertex -1156.252319 -16.921223 97.690048
   vertex -1157.252319 -16.921223 97.690048
   vertex -1156.252319 -25.943213 100.097198
  endloop
 endfacet
 facet normal -0.000000 0.257791 0.966201
  outer loop
   vertex -1156.252319 -25.943213 100.097198
   vertex -1157.252319 -16.921223 97.690048
   vertex -1157.252319 -25.943213 100.097198
  endloop
 endfacet
 facet normal 0.000000 0.498907 0.866656
  outer loop
   vertex -1157.252319 -25.943213 100.097198
   vertex -1156.252319 -41.327705 108.953575
   vertex -1156.252319 -25.943213 100.097198
  endloop
 endfacet
 facet normal 0.000000 0.498907 0.866656
  outer loop
   vertex -1157.252319 -41.327705 108.953575
   vertex -1156.252319 -41.327705 108.953575
   vertex -1157.252319 -25.943213 100.097198
  endloop
 endfacet
 facet normal 0.000000 0.706214 0.707998
  outer loop
   vertex -1156.252319 -52.085258 119.684021
   vertex -1156.252319 -41.327705 108.953575
   vertex -1157.252319 -41.327705 108.953575
  endloop
 endfacet
 facet normal -0.000000 0.706214 0.707998
  outer loop
   vertex -1157.252319 -41.327705 108.953575
   vertex -1157.252319 -52.085258 119.684021
   vertex -1156.252319 -52.085258 119.684021
  endloop
 endfacet
 facet normal -0.000000 -0.257789 -0.966201
  outer loop
   vertex -1157.252319 -17.288553 96.273293
   vertex -1156.252319 -17.288553 96.273293
   vertex -1157.252319 -26.506390 98.732674
  endloop
 endfacet
 facet normal -0.000000 -0.257789 -0.966201
  outer loop
   vertex -1157.252319 -26.506390 98.732674
   vertex -1156.252319 -17.288553 96.273293
   vertex -1156.252319 -26.506390 98.732674
  endloop
 endfacet
 facet normal 0.000000 -0.498908 -0.866655
  outer loop
   vertex -1156.252319 -26.506390 98.732674
   vertex -1157.252319 -42.224850 107.781342
   vertex -1157.252319 -26.506390 98.732674
  endloop
 endfacet
 facet normal 0.000000 -0.498908 -0.866655
  outer loop
   vertex -1156.252319 -42.224850 107.781342
   vertex -1157.252319 -42.224850 107.781342
   vertex -1156.252319 -26.506390 98.732674
  endloop
 endfacet
 facet normal 0.000000 -0.706214 -0.707998
  outer loop
   vertex -1157.252319 -53.215927 118.744720
   vertex -1157.252319 -42.224850 107.781342
   vertex -1156.252319 -42.224850 107.781342
  endloop
 endfacet
 facet normal -0.000000 -0.706214 -0.707998
  outer loop
   vertex -1156.252319 -42.224850 107.781342
   vertex -1156.252319 -53.215927 118.744720
   vertex -1157.252319 -53.215927 118.744720
  endloop
 endfacet
endsolid