solid stl file generated from DOUG
 facet normal -1.000000 0.000000 0.000000
  outer loop
   vertex -1168.752563 -75.721703 152.887665
   vertex -1168.752563 -75.746864 172.828888
   vertex -1168.752563 -74.271545 172.636551
  endloop
 endfacet
 facet normal -1.000000 0.000000 -0.000000
  outer loop
   vertex -1168.752563 -74.271545 172.636551
   vertex -1168.752563 -75.746864 172.828888
   vertex -1168.752563 -71.446793 188.958313
  endloop
 endfacet
 facet normal -1.000000 -0.000000 0.000000
  outer loop
   vertex -1168.752563 -71.446793 188.958313
   vertex -1168.752563 -70.055237 188.451828
   vertex -1168.752563 -74.271545 172.636551
  endloop
 endfacet
 facet normal -0.000000 0.342020 0.939693
  outer loop
   vertex -1167.752563 -71.446793 188.958313
   vertex -1168.752563 -70.055237 188.451828
   vertex -1168.752563 -71.446793 188.958313
  endloop
 endfacet
 facet normal -0.000000 0.342020 0.939693
  outer loop
   vertex -1167.752563 -70.055237 188.451828
   vertex -1168.752563 -70.055237 188.451828
   vertex -1167.752563 -71.446793 188.958313
  endloop
 endfacet
 facet normal 1.000000 -0.000000 -0.000000
  outer loop
   vertex -1167.752563 -71.446793 188.958313
   vertex -1167.752563 -74.271545 172.636551
   vertex -1167.752563 -70.055237 188.451828
  endloop
 endfacet
 facet normal 1.000000 -0.000000 0.000000
  outer loop
   vertex -1167.752563 -71.446793 188.958313
   vertex -1167.752563 -75.746864 172.828888
   vertex -1167.752563 -74.271545 172.636551
  endloop
 endfacet
 facet normal 1.000000 -0.000000 -0.000000
  outer loop
   vertex -1167.752563 -74.271545 172.636551
   vertex -1167.752563 -75.746864 172.828888
   vertex -1167.752563 -75.721703 152.887665
  endloop
 endfacet
 facet normal 1.000000 0.000000 0.000000
  outer loop
   vertex -1167.752563 -75.721703 152.887665
   vertex -1167.752563 -74.246880 153.083725
   vertex -1167.752563 -74.271545 172.636551
  endloop
 endfacet
 facet normal -1.000000 0.000000 -0.000000
  outer loop
   vertex -1168.752563 -75.721703 152.887665
   vertex -1168.752563 -74.271545 172.636551
   vertex -1168.752563 -74.246880 153.083725
  endloop
 endfacet
 facet normal 0.000000 -0.966251 0.257601
  outer loop
   vertex -1167.752563 -71.446793 188.958313
   vertex -1168.752563 -71.446793 188.958313
   vertex -1167.752563 -75.746864 172.828888
  endloop
 endfacet
 facet normal -0.000000 -0.966251 0.257601
  outer loop
   vertex -1167.752563 -75.746864 172.828888
   vertex -1168.752563 -71.446793 188.958313
   vertex -1168.752563 -75.746864 172.828888
  endloop
 endfacet
 facet normal 0.000000 -0.999999 -0.001262
  outer loop
   vertex -1168.752563 -75.746864 172.828888
   vertex -1167.752563 -75.721703 152.887665
   vertex -1167.752563 -75.746864 172.828888
  endloop
 endfacet
 facet normal -0.000000 -0.999999 -0.001262
  outer loop
   vertex -1168.752563 -75.721703 152.887665
   vertex -1167.752563 -75.721703 152.887665
   vertex -1168.752563 -75.746864 172.828888
  endloop
 endfacet
 facet normal 0.000000 0.966252 -0.257600
  outer loop
   vertex -1168.752563 -70.055237 188.451828
   vertex -1167.752563 -70.055237 188.451828
   vertex -1168.752563 -74.271545 172.636551
  endloop
 endfacet
 facet normal -0.000000 0.966252 -0.257600
  outer loop
   vertex -1168.752563 -74.271545 172.636551
   vertex -1167.752563 -70.055237 188.451828
   vertex -1167.752563 -74.271545 172.636551
  endloop
 endfacet
 facet normal 0.000000 0.999999 0.001261
  outer loop
   vertex -1167.752563 -74.271545 172.636551
   vertex -1168.752563 -74.246880 153.083725
   vertex -1168.752563 -74.271545 172.636551
  endloop
 endfacet
 facet normal -0.000000 0.999999 0.001261
  outer loop
   vertex -1167.752563 -74.246880 153.083725
   vertex -1168.752563 -74.246880 153.083725
   vertex -1167.752563 -74.271545 172.636551
  endloop
 endfacet
endsolid