solid stl file generated from DOUG
 facet normal 0.000000 -0.694658 0.719340
  outer loop
   vertex -1386.246948 -62.485210 102.613892
   vertex -1386.246948 -63.286018 101.840561
   vertex -1385.246948 -62.485210 102.613892
  endloop
 endfacet
 facet normal -0.000000 -0.694658 0.719340
  outer loop
   vertex -1385.246948 -62.485210 102.613892
   vertex -1386.246948 -63.286018 101.840561
   vertex -1385.246948 -63.286018 101.840561
  endloop
 endfacet
 facet normal 1.000000 0.000000 0.000000
  outer loop
   vertex -1385.246948 -63.286018 101.840561
   vertex -1385.246948 -61.518238 101.435631
   vertex -1385.246948 -62.485210 102.613892
  endloop
 endfacet
 facet normal 1.000000 0.000000 -0.000000
  outer loop
   vertex -1385.246948 -62.306660 100.647209
   vertex -1385.246948 -61.518238 101.435631
   vertex -1385.246948 -63.286018 101.840561
  endloop
 endfacet
 facet normal 1.000000 0.000000 0.000000
  outer loop
   vertex -1385.246948 -48.954029 89.688995
   vertex -1385.246948 -61.518238 101.435631
   vertex -1385.246948 -62.306660 100.647209
  endloop
 endfacet
 facet normal -1.000000 0.000000 -0.000000
  outer loop
   vertex -1386.246948 -62.306660 100.647209
   vertex -1386.246948 -61.518238 101.435631
   vertex -1386.246948 -48.954029 89.688995
  endloop
 endfacet
 facet normal -1.000000 -0.000000 -0.000000
  outer loop
   vertex -1386.246948 -48.954029 89.688995
   vertex -1386.246948 -61.518238 101.435631
   vertex -1386.246948 -48.334572 90.616081
  endloop
 endfacet
 facet normal -1.000000 0.000000 0.000000
  outer loop
   vertex -1386.246948 -48.334572 90.616081
   vertex -1386.246948 -42.152309 86.053383
   vertex -1386.246948 -48.954029 89.688995
  endloop
 endfacet
 facet normal -1.000000 -0.000000 0.000000
  outer loop
   vertex -1386.246948 -41.711712 87.076080
   vertex -1386.246948 -42.152309 86.053383
   vertex -1386.246948 -48.334572 90.616081
  endloop
 endfacet
 facet normal 0.000000 0.918396 -0.395662
  outer loop
   vertex -1385.246948 -42.152309 86.053383
   vertex -1386.246948 -42.152309 86.053383
   vertex -1386.246948 -41.711712 87.076080
  endloop
 endfacet
 facet normal -0.000000 0.918396 -0.395662
  outer loop
   vertex -1386.246948 -41.711712 87.076080
   vertex -1385.246948 -41.711712 87.076080
   vertex -1385.246948 -42.152309 86.053383
  endloop
 endfacet
 facet normal 1.000000 0.000000 0.000000
  outer loop
   vertex -1385.246948 -42.152309 86.053383
   vertex -1385.246948 -41.711712 87.076080
   vertex -1385.246948 -48.334572 90.616081
  endloop
 endfacet
 facet normal -1.000000 0.000000 0.000000
  outer loop
   vertex -1386.246948 -62.306660 100.647209
   vertex -1386.246948 -63.286018 101.840561
   vertex -1386.246948 -61.518238 101.435631
  endloop
 endfacet
 facet normal -1.000000 0.000000 -0.000000
  outer loop
   vertex -1386.246948 -61.518238 101.435631
   vertex -1386.246948 -63.286018 101.840561
   vertex -1386.246948 -62.485210 102.613892
  endloop
 endfacet
 facet normal 1.000000 0.000000 -0.000000
  outer loop
   vertex -1385.246948 -61.518238 101.435631
   vertex -1385.246948 -48.954029 89.688995
   vertex -1385.246948 -48.334572 90.616081
  endloop
 endfacet
 facet normal 1.000000 -0.000000 -0.000000
  outer loop
   vertex -1385.246948 -48.334572 90.616081
   vertex -1385.246948 -48.954029 89.688995
   vertex -1385.246948 -42.152309 86.053383
  endloop
 endfacet
 facet normal 0.000000 -0.773010 -0.634393
  outer loop
   vertex -1385.246948 -63.286018 101.840561
   vertex -1386.246948 -63.286018 101.840561
   vertex -1385.246948 -62.306660 100.647209
  endloop
 endfacet
 facet normal 0.000000 -0.773010 -0.634393
  outer loop
   vertex -1386.246948 -63.286018 101.840561
   vertex -1386.246948 -62.306660 100.647209
   vertex -1385.246948 -62.306660 100.647209
  endloop
 endfacet
 facet normal 0.000000 -0.634393 -0.773011
  outer loop
   vertex -1385.246948 -62.306660 100.647209
   vertex -1386.246948 -62.306660 100.647209
   vertex -1386.246948 -48.954029 89.688995
  endloop
 endfacet
 facet normal -0.000000 -0.634393 -0.773011
  outer loop
   vertex -1386.246948 -48.954029 89.688995
   vertex -1385.246948 -48.954029 89.688995
   vertex -1385.246948 -62.306660 100.647209
  endloop
 endfacet
 facet normal -0.000000 -0.471399 -0.881920
  outer loop
   vertex -1386.246948 -42.152309 86.053383
   vertex -1385.246948 -48.954029 89.688995
   vertex -1386.246948 -48.954029 89.688995
  endloop
 endfacet
 facet normal 0.000000 -0.471399 -0.881920
  outer loop
   vertex -1385.246948 -42.152309 86.053383
   vertex -1385.246948 -48.954029 89.688995
   vertex -1386.246948 -42.152309 86.053383
  endloop
 endfacet
 facet normal -0.000000 0.471398 0.881921
  outer loop
   vertex -1385.246948 -41.711712 87.076080
   vertex -1386.246948 -41.711712 87.076080
   vertex -1385.246948 -48.334572 90.616081
  endloop
 endfacet
 facet normal -0.000000 0.471398 0.881921
  outer loop
   vertex -1385.246948 -48.334572 90.616081
   vertex -1386.246948 -41.711712 87.076080
   vertex -1386.246948 -48.334572 90.616081
  endloop
 endfacet
 facet normal 0.000000 0.634393 0.773011
  outer loop
   vertex -1386.246948 -48.334572 90.616081
   vertex -1385.246948 -61.518238 101.435631
   vertex -1385.246948 -48.334572 90.616081
  endloop
 endfacet
 facet normal 0.000000 0.634393 0.773011
  outer loop
   vertex -1386.246948 -61.518238 101.435631
   vertex -1385.246948 -61.518238 101.435631
   vertex -1386.246948 -48.334572 90.616081
  endloop
 endfacet
 facet normal 0.000000 0.773011 0.634393
  outer loop
   vertex -1385.246948 -62.485210 102.613892
   vertex -1385.246948 -61.518238 101.435631
   vertex -1386.246948 -61.518238 101.435631
  endloop
 endfacet
 facet normal -0.000000 0.773011 0.634393
  outer loop
   vertex -1386.246948 -61.518238 101.435631
   vertex -1386.246948 -62.485210 102.613892
   vertex -1385.246948 -62.485210 102.613892
  endloop
 endfacet
endsolid