solid stl file generated from DOUG
 facet normal -1.000000 0.000000 -0.000000
  outer loop
   vertex -998.452393 -51.793114 178.295609
   vertex -998.452393 -46.926361 190.045593
   vertex -998.452393 -45.923199 189.466446
  endloop
 endfacet
 facet normal -1.000000 0.000000 -0.000000
  outer loop
   vertex -998.452393 -45.923199 189.466446
   vertex -998.452393 -46.926361 190.045593
   vertex -998.452393 -45.769264 191.553604
  endloop
 endfacet
 facet normal -1.000000 -0.000000 0.000000
  outer loop
   vertex -998.452393 -45.769264 191.553604
   vertex -998.452393 -44.790836 190.942215
   vertex -998.452393 -45.923199 189.466446
  endloop
 endfacet
 facet normal 0.000002 0.529919 0.848048
  outer loop
   vertex -997.452393 -44.790840 190.942215
   vertex -998.452393 -44.790836 190.942215
   vertex -998.452393 -45.769264 191.553604
  endloop
 endfacet
 facet normal -1.000000 0.000000 0.000000
  outer loop
   vertex -998.452393 -45.923199 189.466446
   vertex -998.452393 -50.685909 177.967636
   vertex -998.452393 -51.793114 178.295609
  endloop
 endfacet
 facet normal -0.000001 -0.284018 -0.958819
  outer loop
   vertex -998.452393 -51.793114 178.295609
   vertex -998.452393 -50.685909 177.967636
   vertex -997.452393 -50.685913 177.967636
  endloop
 endfacet
 facet normal -0.000001 -0.284018 -0.958819
  outer loop
   vertex -997.452393 -50.685913 177.967636
   vertex -997.452393 -51.793118 178.295609
   vertex -998.452393 -51.793114 178.295609
  endloop
 endfacet
 facet normal 1.000000 -0.000000 -0.000000
  outer loop
   vertex -997.452393 -45.923203 189.466446
   vertex -997.452393 -51.793118 178.295609
   vertex -997.452393 -50.685913 177.967636
  endloop
 endfacet
 facet normal 1.000000 0.000000 0.000000
  outer loop
   vertex -997.452393 -46.926365 190.045593
   vertex -997.452393 -51.793118 178.295609
   vertex -997.452393 -45.923203 189.466446
  endloop
 endfacet
 facet normal 1.000000 -0.000000 -0.000000
  outer loop
   vertex -997.452393 -45.923203 189.466446
   vertex -997.452393 -45.769268 191.553604
   vertex -997.452393 -46.926365 190.045593
  endloop
 endfacet
 facet normal 0.000002 0.529919 0.848048
  outer loop
   vertex -998.452393 -45.769264 191.553604
   vertex -997.452393 -45.769268 191.553604
   vertex -997.452393 -44.790840 190.942215
  endloop
 endfacet
 facet normal -0.000003 -0.793364 0.608748
  outer loop
   vertex -998.452393 -45.769264 191.553604
   vertex -998.452393 -46.926361 190.045593
   vertex -997.452393 -45.769268 191.553604
  endloop
 endfacet
 facet normal -0.000003 -0.793364 0.608748
  outer loop
   vertex -997.452393 -45.769268 191.553604
   vertex -998.452393 -46.926361 190.045593
   vertex -997.452393 -46.926365 190.045593
  endloop
 endfacet
 facet normal -0.000004 -0.923886 0.382667
  outer loop
   vertex -997.452393 -46.926365 190.045593
   vertex -998.452393 -46.926361 190.045593
   vertex -998.452393 -51.793114 178.295609
  endloop
 endfacet
 facet normal -0.000004 -0.923886 0.382667
  outer loop
   vertex -998.452393 -51.793114 178.295609
   vertex -997.452393 -51.793118 178.295609
   vertex -997.452393 -46.926365 190.045593
  endloop
 endfacet
 facet normal 0.000003 0.793362 -0.608750
  outer loop
   vertex -998.452393 -44.790836 190.942215
   vertex -997.452393 -44.790840 190.942215
   vertex -998.452393 -45.923199 189.466446
  endloop
 endfacet
 facet normal 0.000003 0.793362 -0.608750
  outer loop
   vertex -998.452393 -45.923199 189.466446
   vertex -997.452393 -44.790840 190.942215
   vertex -997.452393 -45.923203 189.466446
  endloop
 endfacet
 facet normal 0.000004 0.923887 -0.382666
  outer loop
   vertex -997.452393 -45.923203 189.466446
   vertex -998.452393 -50.685909 177.967636
   vertex -998.452393 -45.923199 189.466446
  endloop
 endfacet
 facet normal 0.000004 0.923887 -0.382666
  outer loop
   vertex -997.452393 -50.685913 177.967636
   vertex -998.452393 -50.685909 177.967636
   vertex -997.452393 -45.923203 189.466446
  endloop
 endfacet
endsolid