solid stl file generated from DOUG
 facet normal 0.000000 0.816492 -0.577357
  outer loop
   vertex -1124.672363 36.088634 212.579010
   vertex -1178.683228 36.088634 212.579010
   vertex -1124.672363 37.243347 214.211990
  endloop
 endfacet
 facet normal -0.000000 0.816492 -0.577357
  outer loop
   vertex -1124.672363 37.243347 214.211990
   vertex -1178.683228 36.088634 212.579010
   vertex -1178.683228 37.243347 214.211990
  endloop
 endfacet
 facet normal 0.000000 0.577356 0.816493
  outer loop
   vertex -1178.683228 37.243347 214.211990
   vertex -1124.672363 36.018616 215.078018
   vertex -1124.672363 37.243347 214.211990
  endloop
 endfacet
 facet normal 0.000000 0.577362 0.816488
  outer loop
   vertex -1178.683228 36.018616 215.078033
   vertex -1124.672363 36.018616 215.078018
   vertex -1178.683228 37.243347 214.211990
  endloop
 endfacet
 facet normal 0.000000 -0.816491 0.577359
  outer loop
   vertex -1124.672363 34.863899 213.445038
   vertex -1124.672363 36.018616 215.078018
   vertex -1178.683228 36.018616 215.078033
  endloop
 endfacet
 facet normal 0.000000 -0.816491 0.577359
  outer loop
   vertex -1178.683228 36.018616 215.078033
   vertex -1178.683228 34.863899 213.445053
   vertex -1124.672363 34.863899 213.445038
  endloop
 endfacet
 facet normal -0.000000 -0.577361 -0.816489
  outer loop
   vertex -1124.672363 34.863899 213.445038
   vertex -1178.683228 34.863899 213.445053
   vertex -1178.683228 36.088634 212.579010
  endloop
 endfacet
 facet normal -1.000000 0.000000 -0.000000
  outer loop
   vertex -1178.683228 36.088634 212.579010
   vertex -1178.683228 34.863899 213.445053
   vertex -1178.683228 36.018616 215.078033
  endloop
 endfacet
 facet normal -1.000000 -0.000000 0.000000
  outer loop
   vertex -1178.683228 36.018616 215.078033
   vertex -1178.683228 37.243347 214.211990
   vertex -1178.683228 36.088634 212.579010
  endloop
 endfacet
 facet normal 0.000000 -0.577354 -0.816494
  outer loop
   vertex -1124.672363 36.088634 212.579010
   vertex -1124.672363 34.863899 213.445038
   vertex -1178.683228 36.088634 212.579010
  endloop
 endfacet
 facet normal 1.000000 0.000000 0.000000
  outer loop
   vertex -1124.672363 37.243347 214.211990
   vertex -1124.672363 36.018616 215.078018
   vertex -1124.672363 36.088634 212.579010
  endloop
 endfacet
 facet normal 1.000000 -0.000000 0.000000
  outer loop
   vertex -1124.672363 36.088634 212.579010
   vertex -1124.672363 36.018616 215.078018
   vertex -1124.672363 34.863899 213.445038
  endloop
 endfacet
endsolid