solid stl file generated from DOUG
 facet normal -1.000000 -0.000000 0.000000
  outer loop
   vertex -1395.152344 -60.500057 162.953796
   vertex -1395.152344 -59.332657 154.086533
   vertex -1395.152344 -60.313362 153.939957
  endloop
 endfacet
 facet normal -0.000000 0.147818 -0.989015
  outer loop
   vertex -1395.152344 -60.313362 153.939957
   vertex -1395.152344 -59.332657 154.086533
   vertex -1394.152344 -59.332657 154.086533
  endloop
 endfacet
 facet normal 0.000000 0.147818 -0.989015
  outer loop
   vertex -1394.152344 -59.332657 154.086533
   vertex -1394.152344 -60.313362 153.939957
   vertex -1395.152344 -60.313362 153.939957
  endloop
 endfacet
 facet normal 1.000000 -0.000000 -0.000000
  outer loop
   vertex -1394.152344 -60.500057 162.953796
   vertex -1394.152344 -60.313362 153.939957
   vertex -1394.152344 -59.332657 154.086533
  endloop
 endfacet
 facet normal 1.000000 0.000000 0.000000
  outer loop
   vertex -1394.152344 -61.500057 162.953796
   vertex -1394.152344 -60.313362 153.939957
   vertex -1394.152344 -60.500057 162.953796
  endloop
 endfacet
 facet normal 1.000000 -0.000000 -0.000000
  outer loop
   vertex -1394.152344 -60.500057 162.953796
   vertex -1394.152344 -60.104797 173.551895
   vertex -1394.152344 -61.500057 162.953796
  endloop
 endfacet
 facet normal 1.000000 0.000000 0.000000
  outer loop
   vertex -1394.152344 -60.500057 162.953796
   vertex -1394.152344 -59.127483 173.379578
   vertex -1394.152344 -60.104797 173.551895
  endloop
 endfacet
 facet normal 0.000000 0.173639 0.984809
  outer loop
   vertex -1394.152344 -60.104797 173.551895
   vertex -1394.152344 -59.127483 173.379578
   vertex -1395.152344 -59.127483 173.379578
  endloop
 endfacet
 facet normal -0.000000 0.173639 0.984809
  outer loop
   vertex -1395.152344 -59.127483 173.379578
   vertex -1395.152344 -60.104797 173.551895
   vertex -1394.152344 -60.104797 173.551895
  endloop
 endfacet
 facet normal -1.000000 -0.000000 -0.000000
  outer loop
   vertex -1395.152344 -60.500057 162.953796
   vertex -1395.152344 -60.104797 173.551895
   vertex -1395.152344 -59.127483 173.379578
  endloop
 endfacet
 facet normal -1.000000 0.000000 0.000000
  outer loop
   vertex -1395.152344 -61.500057 162.953796
   vertex -1395.152344 -60.104797 173.551895
   vertex -1395.152344 -60.500057 162.953796
  endloop
 endfacet
 facet normal -1.000000 -0.000000 -0.000000
  outer loop
   vertex -1395.152344 -60.500057 162.953796
   vertex -1395.152344 -60.313362 153.939957
   vertex -1395.152344 -61.500057 162.953796
  endloop
 endfacet
 facet normal 0.000000 -0.991445 -0.130526
  outer loop
   vertex -1394.152344 -60.313362 153.939957
   vertex -1394.152344 -61.500057 162.953796
   vertex -1395.152344 -60.313362 153.939957
  endloop
 endfacet
 facet normal -0.000000 0.991445 0.130527
  outer loop
   vertex -1394.152344 -59.332657 154.086533
   vertex -1395.152344 -59.332657 154.086533
   vertex -1395.152344 -60.500057 162.953796
  endloop
 endfacet
 facet normal -0.000000 0.991445 0.130527
  outer loop
   vertex -1394.152344 -59.332657 154.086533
   vertex -1395.152344 -60.500057 162.953796
   vertex -1394.152344 -60.500057 162.953796
  endloop
 endfacet
 facet normal -0.000000 0.991445 -0.130526
  outer loop
   vertex -1394.152344 -60.500057 162.953796
   vertex -1395.152344 -60.500057 162.953796
   vertex -1395.152344 -59.127483 173.379578
  endloop
 endfacet
 facet normal 0.000000 0.991445 -0.130526
  outer loop
   vertex -1395.152344 -59.127483 173.379578
   vertex -1394.152344 -59.127483 173.379578
   vertex -1394.152344 -60.500057 162.953796
  endloop
 endfacet
 facet normal -0.000000 -0.991445 -0.130526
  outer loop
   vertex -1395.152344 -60.313362 153.939957
   vertex -1394.152344 -61.500057 162.953796
   vertex -1395.152344 -61.500057 162.953796
  endloop
 endfacet
 facet normal -0.000000 -0.991445 0.130526
  outer loop
   vertex -1395.152344 -61.500057 162.953796
   vertex -1394.152344 -61.500057 162.953796
   vertex -1394.152344 -60.104797 173.551895
  endloop
 endfacet
 facet normal 0.000000 -0.991445 0.130526
  outer loop
   vertex -1394.152344 -60.104797 173.551895
   vertex -1395.152344 -60.104797 173.551895
   vertex -1395.152344 -61.500057 162.953796
  endloop
 endfacet
endsolid